<?xml version="1.0" encoding="utf-8"?>
<svg xmlns="http://www.w3.org/2000/svg" xmlns:xlink="http://www.w3.org/1999/xlink" width="600" height="400" viewBox="0 0 2400 1600">
<defs>
  <clipPath id="clip300">
    <rect x="0" y="0" width="2400" height="1600"/>
  </clipPath>
</defs>
<path clip-path="url(#clip300)" d="M0 1600 L2400 1600 L2400 0 L0 0  Z" fill="#ffffff" fill-rule="evenodd" fill-opacity="1"/>
<defs>
  <clipPath id="clip301">
    <rect x="480" y="0" width="1681" height="1600"/>
  </clipPath>
</defs>
<path clip-path="url(#clip300)" d="M257.204 1423.18 L2352.76 1423.18 L2352.76 47.2441 L257.204 47.2441  Z" fill="#ffffff" fill-rule="evenodd" fill-opacity="1"/>
<defs>
  <clipPath id="clip302">
    <rect x="257" y="47" width="2097" height="1377"/>
  </clipPath>
</defs>
<polyline clip-path="url(#clip302)" style="stroke:#000000; stroke-linecap:round; stroke-linejoin:round; stroke-width:2; stroke-opacity:0.1; fill:none" points="316.511,1423.18 316.511,47.2441 "/>
<polyline clip-path="url(#clip302)" style="stroke:#000000; stroke-linecap:round; stroke-linejoin:round; stroke-width:2; stroke-opacity:0.1; fill:none" points="809.475,1423.18 809.475,47.2441 "/>
<polyline clip-path="url(#clip302)" style="stroke:#000000; stroke-linecap:round; stroke-linejoin:round; stroke-width:2; stroke-opacity:0.1; fill:none" points="1302.44,1423.18 1302.44,47.2441 "/>
<polyline clip-path="url(#clip302)" style="stroke:#000000; stroke-linecap:round; stroke-linejoin:round; stroke-width:2; stroke-opacity:0.1; fill:none" points="1795.4,1423.18 1795.4,47.2441 "/>
<polyline clip-path="url(#clip302)" style="stroke:#000000; stroke-linecap:round; stroke-linejoin:round; stroke-width:2; stroke-opacity:0.1; fill:none" points="2288.37,1423.18 2288.37,47.2441 "/>
<polyline clip-path="url(#clip300)" style="stroke:#000000; stroke-linecap:round; stroke-linejoin:round; stroke-width:4; stroke-opacity:1; fill:none" points="257.204,1423.18 2352.76,1423.18 "/>
<polyline clip-path="url(#clip300)" style="stroke:#000000; stroke-linecap:round; stroke-linejoin:round; stroke-width:4; stroke-opacity:1; fill:none" points="316.511,1423.18 316.511,1404.28 "/>
<polyline clip-path="url(#clip300)" style="stroke:#000000; stroke-linecap:round; stroke-linejoin:round; stroke-width:4; stroke-opacity:1; fill:none" points="809.475,1423.18 809.475,1404.28 "/>
<polyline clip-path="url(#clip300)" style="stroke:#000000; stroke-linecap:round; stroke-linejoin:round; stroke-width:4; stroke-opacity:1; fill:none" points="1302.44,1423.18 1302.44,1404.28 "/>
<polyline clip-path="url(#clip300)" style="stroke:#000000; stroke-linecap:round; stroke-linejoin:round; stroke-width:4; stroke-opacity:1; fill:none" points="1795.4,1423.18 1795.4,1404.28 "/>
<polyline clip-path="url(#clip300)" style="stroke:#000000; stroke-linecap:round; stroke-linejoin:round; stroke-width:4; stroke-opacity:1; fill:none" points="2288.37,1423.18 2288.37,1404.28 "/>
<path clip-path="url(#clip300)" d="M263.039 1468.75 L292.715 1468.75 L292.715 1472.69 L263.039 1472.69 L263.039 1468.75 Z" fill="#000000" fill-rule="nonzero" fill-opacity="1" /><path clip-path="url(#clip300)" d="M303.617 1481.64 L311.256 1481.64 L311.256 1455.28 L302.946 1456.95 L302.946 1452.69 L311.21 1451.02 L315.886 1451.02 L315.886 1481.64 L323.525 1481.64 L323.525 1485.58 L303.617 1485.58 L303.617 1481.64 Z" fill="#000000" fill-rule="nonzero" fill-opacity="1" /><path clip-path="url(#clip300)" d="M332.969 1479.7 L337.853 1479.7 L337.853 1485.58 L332.969 1485.58 L332.969 1479.7 Z" fill="#000000" fill-rule="nonzero" fill-opacity="1" /><path clip-path="url(#clip300)" d="M358.038 1454.1 Q354.427 1454.1 352.599 1457.66 Q350.793 1461.2 350.793 1468.33 Q350.793 1475.44 352.599 1479.01 Q354.427 1482.55 358.038 1482.55 Q361.673 1482.55 363.478 1479.01 Q365.307 1475.44 365.307 1468.33 Q365.307 1461.2 363.478 1457.66 Q361.673 1454.1 358.038 1454.1 M358.038 1450.39 Q363.849 1450.39 366.904 1455 Q369.983 1459.58 369.983 1468.33 Q369.983 1477.06 366.904 1481.67 Q363.849 1486.25 358.038 1486.25 Q352.228 1486.25 349.15 1481.67 Q346.094 1477.06 346.094 1468.33 Q346.094 1459.58 349.15 1455 Q352.228 1450.39 358.038 1450.39 Z" fill="#000000" fill-rule="nonzero" fill-opacity="1" /><path clip-path="url(#clip300)" d="M756.501 1468.75 L786.177 1468.75 L786.177 1472.69 L756.501 1472.69 L756.501 1468.75 Z" fill="#000000" fill-rule="nonzero" fill-opacity="1" /><path clip-path="url(#clip300)" d="M806.269 1454.1 Q802.658 1454.1 800.83 1457.66 Q799.024 1461.2 799.024 1468.33 Q799.024 1475.44 800.83 1479.01 Q802.658 1482.55 806.269 1482.55 Q809.904 1482.55 811.709 1479.01 Q813.538 1475.44 813.538 1468.33 Q813.538 1461.2 811.709 1457.66 Q809.904 1454.1 806.269 1454.1 M806.269 1450.39 Q812.08 1450.39 815.135 1455 Q818.214 1459.58 818.214 1468.33 Q818.214 1477.06 815.135 1481.67 Q812.08 1486.25 806.269 1486.25 Q800.459 1486.25 797.381 1481.67 Q794.325 1477.06 794.325 1468.33 Q794.325 1459.58 797.381 1455 Q800.459 1450.39 806.269 1450.39 Z" fill="#000000" fill-rule="nonzero" fill-opacity="1" /><path clip-path="url(#clip300)" d="M826.431 1479.7 L831.316 1479.7 L831.316 1485.58 L826.431 1485.58 L826.431 1479.7 Z" fill="#000000" fill-rule="nonzero" fill-opacity="1" /><path clip-path="url(#clip300)" d="M841.547 1451.02 L859.903 1451.02 L859.903 1454.96 L845.829 1454.96 L845.829 1463.43 Q846.848 1463.08 847.866 1462.92 Q848.885 1462.73 849.903 1462.73 Q855.69 1462.73 859.07 1465.9 Q862.45 1469.08 862.45 1474.49 Q862.45 1480.07 858.977 1483.17 Q855.505 1486.25 849.186 1486.25 Q847.01 1486.25 844.741 1485.88 Q842.496 1485.51 840.089 1484.77 L840.089 1480.07 Q842.172 1481.2 844.394 1481.76 Q846.616 1482.32 849.093 1482.32 Q853.098 1482.32 855.436 1480.21 Q857.774 1478.1 857.774 1474.49 Q857.774 1470.88 855.436 1468.77 Q853.098 1466.67 849.093 1466.67 Q847.218 1466.67 845.343 1467.08 Q843.491 1467.5 841.547 1468.38 L841.547 1451.02 Z" fill="#000000" fill-rule="nonzero" fill-opacity="1" /><path clip-path="url(#clip300)" d="M1279.82 1454.1 Q1276.21 1454.1 1274.38 1457.66 Q1272.58 1461.2 1272.58 1468.33 Q1272.58 1475.44 1274.38 1479.01 Q1276.21 1482.55 1279.82 1482.55 Q1283.46 1482.55 1285.26 1479.01 Q1287.09 1475.44 1287.09 1468.33 Q1287.09 1461.2 1285.26 1457.66 Q1283.46 1454.1 1279.82 1454.1 M1279.82 1450.39 Q1285.63 1450.39 1288.69 1455 Q1291.77 1459.58 1291.77 1468.33 Q1291.77 1477.06 1288.69 1481.67 Q1285.63 1486.25 1279.82 1486.25 Q1274.01 1486.25 1270.94 1481.67 Q1267.88 1477.06 1267.88 1468.33 Q1267.88 1459.58 1270.94 1455 Q1274.01 1450.39 1279.82 1450.39 Z" fill="#000000" fill-rule="nonzero" fill-opacity="1" /><path clip-path="url(#clip300)" d="M1299.99 1479.7 L1304.87 1479.7 L1304.87 1485.58 L1299.99 1485.58 L1299.99 1479.7 Z" fill="#000000" fill-rule="nonzero" fill-opacity="1" /><path clip-path="url(#clip300)" d="M1325.06 1454.1 Q1321.44 1454.1 1319.62 1457.66 Q1317.81 1461.2 1317.81 1468.33 Q1317.81 1475.44 1319.62 1479.01 Q1321.44 1482.55 1325.06 1482.55 Q1328.69 1482.55 1330.5 1479.01 Q1332.32 1475.44 1332.32 1468.33 Q1332.32 1461.2 1330.5 1457.66 Q1328.69 1454.1 1325.06 1454.1 M1325.06 1450.39 Q1330.87 1450.39 1333.92 1455 Q1337 1459.58 1337 1468.33 Q1337 1477.06 1333.92 1481.67 Q1330.87 1486.25 1325.06 1486.25 Q1319.25 1486.25 1316.17 1481.67 Q1313.11 1477.06 1313.11 1468.33 Q1313.11 1459.58 1316.17 1455 Q1319.25 1450.39 1325.06 1450.39 Z" fill="#000000" fill-rule="nonzero" fill-opacity="1" /><path clip-path="url(#clip300)" d="M1773.29 1454.1 Q1769.68 1454.1 1767.85 1457.66 Q1766.04 1461.2 1766.04 1468.33 Q1766.04 1475.44 1767.85 1479.01 Q1769.68 1482.55 1773.29 1482.55 Q1776.92 1482.55 1778.73 1479.01 Q1780.55 1475.44 1780.55 1468.33 Q1780.55 1461.2 1778.73 1457.66 Q1776.92 1454.1 1773.29 1454.1 M1773.29 1450.39 Q1779.1 1450.39 1782.15 1455 Q1785.23 1459.58 1785.23 1468.33 Q1785.23 1477.06 1782.15 1481.67 Q1779.1 1486.25 1773.29 1486.25 Q1767.48 1486.25 1764.4 1481.67 Q1761.34 1477.06 1761.34 1468.33 Q1761.34 1459.58 1764.4 1455 Q1767.48 1450.39 1773.29 1450.39 Z" fill="#000000" fill-rule="nonzero" fill-opacity="1" /><path clip-path="url(#clip300)" d="M1793.45 1479.7 L1798.33 1479.7 L1798.33 1485.58 L1793.45 1485.58 L1793.45 1479.7 Z" fill="#000000" fill-rule="nonzero" fill-opacity="1" /><path clip-path="url(#clip300)" d="M1808.56 1451.02 L1826.92 1451.02 L1826.92 1454.96 L1812.85 1454.96 L1812.85 1463.43 Q1813.86 1463.08 1814.88 1462.92 Q1815.9 1462.73 1816.92 1462.73 Q1822.71 1462.73 1826.09 1465.9 Q1829.47 1469.08 1829.47 1474.49 Q1829.47 1480.07 1825.99 1483.17 Q1822.52 1486.25 1816.2 1486.25 Q1814.03 1486.25 1811.76 1485.88 Q1809.51 1485.51 1807.11 1484.77 L1807.11 1480.07 Q1809.19 1481.2 1811.41 1481.76 Q1813.63 1482.32 1816.11 1482.32 Q1820.11 1482.32 1822.45 1480.21 Q1824.79 1478.1 1824.79 1474.49 Q1824.79 1470.88 1822.45 1468.77 Q1820.11 1466.67 1816.11 1466.67 Q1814.24 1466.67 1812.36 1467.08 Q1810.51 1467.5 1808.56 1468.38 L1808.56 1451.02 Z" fill="#000000" fill-rule="nonzero" fill-opacity="1" /><path clip-path="url(#clip300)" d="M2255.52 1481.64 L2263.16 1481.64 L2263.16 1455.28 L2254.85 1456.95 L2254.85 1452.69 L2263.11 1451.02 L2267.79 1451.02 L2267.79 1481.64 L2275.43 1481.64 L2275.43 1485.58 L2255.52 1485.58 L2255.52 1481.64 Z" fill="#000000" fill-rule="nonzero" fill-opacity="1" /><path clip-path="url(#clip300)" d="M2284.87 1479.7 L2289.76 1479.7 L2289.76 1485.58 L2284.87 1485.58 L2284.87 1479.7 Z" fill="#000000" fill-rule="nonzero" fill-opacity="1" /><path clip-path="url(#clip300)" d="M2309.94 1454.1 Q2306.33 1454.1 2304.5 1457.66 Q2302.7 1461.2 2302.7 1468.33 Q2302.7 1475.44 2304.5 1479.01 Q2306.33 1482.55 2309.94 1482.55 Q2313.58 1482.55 2315.38 1479.01 Q2317.21 1475.44 2317.21 1468.33 Q2317.21 1461.2 2315.38 1457.66 Q2313.58 1454.1 2309.94 1454.1 M2309.94 1450.39 Q2315.75 1450.39 2318.81 1455 Q2321.89 1459.58 2321.89 1468.33 Q2321.89 1477.06 2318.81 1481.67 Q2315.75 1486.25 2309.94 1486.25 Q2304.13 1486.25 2301.05 1481.67 Q2298 1477.06 2298 1468.33 Q2298 1459.58 2301.05 1455 Q2304.13 1450.39 2309.94 1450.39 Z" fill="#000000" fill-rule="nonzero" fill-opacity="1" /><path clip-path="url(#clip300)" d="M1134.03 1525.81 L1134.03 1543.66 L1142.11 1543.66 Q1146.6 1543.66 1149.05 1541.34 Q1151.5 1539.02 1151.5 1534.72 Q1151.5 1530.45 1149.05 1528.13 Q1146.6 1525.81 1142.11 1525.81 L1134.03 1525.81 M1127.6 1520.52 L1142.11 1520.52 Q1150.1 1520.52 1154.18 1524.15 Q1158.28 1527.75 1158.28 1534.72 Q1158.28 1541.75 1154.18 1545.35 Q1150.1 1548.95 1142.11 1548.95 L1134.03 1548.95 L1134.03 1568.04 L1127.6 1568.04 L1127.6 1520.52 Z" fill="#000000" fill-rule="nonzero" fill-opacity="1" /><path clip-path="url(#clip300)" d="M1178.14 1536.5 Q1173.43 1536.5 1170.7 1540.19 Q1167.96 1543.85 1167.96 1550.25 Q1167.96 1556.65 1170.66 1560.34 Q1173.4 1564 1178.14 1564 Q1182.82 1564 1185.56 1560.31 Q1188.3 1556.62 1188.3 1550.25 Q1188.3 1543.92 1185.56 1540.23 Q1182.82 1536.5 1178.14 1536.5 M1178.14 1531.54 Q1185.78 1531.54 1190.14 1536.5 Q1194.5 1541.47 1194.5 1550.25 Q1194.5 1559 1190.14 1564 Q1185.78 1568.97 1178.14 1568.97 Q1170.47 1568.97 1166.11 1564 Q1161.78 1559 1161.78 1550.25 Q1161.78 1541.47 1166.11 1536.5 Q1170.47 1531.54 1178.14 1531.54 Z" fill="#000000" fill-rule="nonzero" fill-opacity="1" /><path clip-path="url(#clip300)" d="M1226.94 1533.45 L1226.94 1538.98 Q1224.45 1537.71 1221.78 1537.07 Q1219.11 1536.44 1216.24 1536.44 Q1211.88 1536.44 1209.69 1537.77 Q1207.52 1539.11 1207.52 1541.79 Q1207.52 1543.82 1209.08 1545 Q1210.64 1546.15 1215.35 1547.2 L1217.36 1547.64 Q1223.59 1548.98 1226.2 1551.43 Q1228.85 1553.85 1228.85 1558.21 Q1228.85 1563.17 1224.9 1566.07 Q1220.98 1568.97 1214.11 1568.97 Q1211.24 1568.97 1208.13 1568.39 Q1205.04 1567.85 1201.6 1566.74 L1201.6 1560.69 Q1204.85 1562.38 1208 1563.24 Q1211.15 1564.07 1214.24 1564.07 Q1218.37 1564.07 1220.6 1562.66 Q1222.83 1561.23 1222.83 1558.65 Q1222.83 1556.27 1221.21 1554.99 Q1219.62 1553.72 1214.17 1552.54 L1212.14 1552.07 Q1206.69 1550.92 1204.27 1548.56 Q1201.86 1546.18 1201.86 1542.04 Q1201.86 1537.01 1205.42 1534.27 Q1208.99 1531.54 1215.54 1531.54 Q1218.79 1531.54 1221.65 1532.01 Q1224.52 1532.49 1226.94 1533.45 Z" fill="#000000" fill-rule="nonzero" fill-opacity="1" /><path clip-path="url(#clip300)" d="M1238.17 1532.4 L1244.03 1532.4 L1244.03 1568.04 L1238.17 1568.04 L1238.17 1532.4 M1238.17 1518.52 L1244.03 1518.52 L1244.03 1525.93 L1238.17 1525.93 L1238.17 1518.52 Z" fill="#000000" fill-rule="nonzero" fill-opacity="1" /><path clip-path="url(#clip300)" d="M1262.08 1522.27 L1262.08 1532.4 L1274.14 1532.4 L1274.14 1536.95 L1262.08 1536.95 L1262.08 1556.3 Q1262.08 1560.66 1263.25 1561.9 Q1264.46 1563.14 1268.12 1563.14 L1274.14 1563.14 L1274.14 1568.04 L1268.12 1568.04 Q1261.34 1568.04 1258.76 1565.53 Q1256.19 1562.98 1256.19 1556.3 L1256.19 1536.95 L1251.89 1536.95 L1251.89 1532.4 L1256.19 1532.4 L1256.19 1522.27 L1262.08 1522.27 Z" fill="#000000" fill-rule="nonzero" fill-opacity="1" /><path clip-path="url(#clip300)" d="M1281.84 1532.4 L1287.7 1532.4 L1287.7 1568.04 L1281.84 1568.04 L1281.84 1532.4 M1281.84 1518.52 L1287.7 1518.52 L1287.7 1525.93 L1281.84 1525.93 L1281.84 1518.52 Z" fill="#000000" fill-rule="nonzero" fill-opacity="1" /><path clip-path="url(#clip300)" d="M1313.76 1536.5 Q1309.05 1536.5 1306.32 1540.19 Q1303.58 1543.85 1303.58 1550.25 Q1303.58 1556.65 1306.28 1560.34 Q1309.02 1564 1313.76 1564 Q1318.44 1564 1321.18 1560.31 Q1323.92 1556.62 1323.92 1550.25 Q1323.92 1543.92 1321.18 1540.23 Q1318.44 1536.5 1313.76 1536.5 M1313.76 1531.54 Q1321.4 1531.54 1325.76 1536.5 Q1330.12 1541.47 1330.12 1550.25 Q1330.12 1559 1325.76 1564 Q1321.4 1568.97 1313.76 1568.97 Q1306.09 1568.97 1301.73 1564 Q1297.4 1559 1297.4 1550.25 Q1297.4 1541.47 1301.73 1536.5 Q1306.09 1531.54 1313.76 1531.54 Z" fill="#000000" fill-rule="nonzero" fill-opacity="1" /><path clip-path="url(#clip300)" d="M1369.46 1546.53 L1369.46 1568.04 L1363.61 1568.04 L1363.61 1546.72 Q1363.61 1541.66 1361.63 1539.14 Q1359.66 1536.63 1355.71 1536.63 Q1350.97 1536.63 1348.23 1539.65 Q1345.5 1542.68 1345.5 1547.9 L1345.5 1568.04 L1339.61 1568.04 L1339.61 1532.4 L1345.5 1532.4 L1345.5 1537.93 Q1347.6 1534.72 1350.43 1533.13 Q1353.3 1531.54 1357.02 1531.54 Q1363.16 1531.54 1366.31 1535.36 Q1369.46 1539.14 1369.46 1546.53 Z" fill="#000000" fill-rule="nonzero" fill-opacity="1" /><path clip-path="url(#clip300)" d="M1415.93 1518.58 Q1411.67 1525.9 1409.6 1533.06 Q1407.53 1540.23 1407.53 1547.58 Q1407.53 1554.93 1409.6 1562.16 Q1411.7 1569.35 1415.93 1576.64 L1410.84 1576.64 Q1406.07 1569.16 1403.68 1561.93 Q1401.32 1554.71 1401.32 1547.58 Q1401.32 1540.48 1403.68 1533.29 Q1406.04 1526.09 1410.84 1518.58 L1415.93 1518.58 Z" fill="#000000" fill-rule="nonzero" fill-opacity="1" /><path clip-path="url(#clip300)" d="M1430.8 1550.25 Q1430.8 1556.71 1433.44 1560.4 Q1436.11 1564.07 1440.76 1564.07 Q1445.41 1564.07 1448.08 1560.4 Q1450.75 1556.71 1450.75 1550.25 Q1450.75 1543.79 1448.08 1540.13 Q1445.41 1536.44 1440.76 1536.44 Q1436.11 1536.44 1433.44 1540.13 Q1430.8 1543.79 1430.8 1550.25 M1450.75 1562.7 Q1448.91 1565.88 1446.08 1567.44 Q1443.27 1568.97 1439.33 1568.97 Q1432.87 1568.97 1428.79 1563.81 Q1424.75 1558.65 1424.75 1550.25 Q1424.75 1541.85 1428.79 1536.69 Q1432.87 1531.54 1439.33 1531.54 Q1443.27 1531.54 1446.08 1533.1 Q1448.91 1534.62 1450.75 1537.81 L1450.75 1532.4 L1456.61 1532.4 L1456.61 1581.6 L1450.75 1581.6 L1450.75 1562.7 Z" fill="#000000" fill-rule="nonzero" fill-opacity="1" /><path clip-path="url(#clip300)" d="M1467.75 1518.58 L1472.84 1518.58 Q1477.62 1526.09 1479.97 1533.29 Q1482.36 1540.48 1482.36 1547.58 Q1482.36 1554.71 1479.97 1561.93 Q1477.62 1569.16 1472.84 1576.64 L1467.75 1576.64 Q1471.98 1569.35 1474.05 1562.16 Q1476.15 1554.93 1476.15 1547.58 Q1476.15 1540.23 1474.05 1533.06 Q1471.98 1525.9 1467.75 1518.58 Z" fill="#000000" fill-rule="nonzero" fill-opacity="1" /><polyline clip-path="url(#clip302)" style="stroke:#000000; stroke-linecap:round; stroke-linejoin:round; stroke-width:2; stroke-opacity:0.1; fill:none" points="257.204,1384.24 2352.76,1384.24 "/>
<polyline clip-path="url(#clip302)" style="stroke:#000000; stroke-linecap:round; stroke-linejoin:round; stroke-width:2; stroke-opacity:0.1; fill:none" points="257.204,1059.8 2352.76,1059.8 "/>
<polyline clip-path="url(#clip302)" style="stroke:#000000; stroke-linecap:round; stroke-linejoin:round; stroke-width:2; stroke-opacity:0.1; fill:none" points="257.204,735.363 2352.76,735.363 "/>
<polyline clip-path="url(#clip302)" style="stroke:#000000; stroke-linecap:round; stroke-linejoin:round; stroke-width:2; stroke-opacity:0.1; fill:none" points="257.204,410.925 2352.76,410.925 "/>
<polyline clip-path="url(#clip302)" style="stroke:#000000; stroke-linecap:round; stroke-linejoin:round; stroke-width:2; stroke-opacity:0.1; fill:none" points="257.204,86.4856 2352.76,86.4856 "/>
<polyline clip-path="url(#clip300)" style="stroke:#000000; stroke-linecap:round; stroke-linejoin:round; stroke-width:4; stroke-opacity:1; fill:none" points="257.204,1423.18 257.204,47.2441 "/>
<polyline clip-path="url(#clip300)" style="stroke:#000000; stroke-linecap:round; stroke-linejoin:round; stroke-width:4; stroke-opacity:1; fill:none" points="257.204,1384.24 276.102,1384.24 "/>
<polyline clip-path="url(#clip300)" style="stroke:#000000; stroke-linecap:round; stroke-linejoin:round; stroke-width:4; stroke-opacity:1; fill:none" points="257.204,1059.8 276.102,1059.8 "/>
<polyline clip-path="url(#clip300)" style="stroke:#000000; stroke-linecap:round; stroke-linejoin:round; stroke-width:4; stroke-opacity:1; fill:none" points="257.204,735.363 276.102,735.363 "/>
<polyline clip-path="url(#clip300)" style="stroke:#000000; stroke-linecap:round; stroke-linejoin:round; stroke-width:4; stroke-opacity:1; fill:none" points="257.204,410.925 276.102,410.925 "/>
<polyline clip-path="url(#clip300)" style="stroke:#000000; stroke-linecap:round; stroke-linejoin:round; stroke-width:4; stroke-opacity:1; fill:none" points="257.204,86.4856 276.102,86.4856 "/>
<path clip-path="url(#clip300)" d="M114.26 1384.69 L143.936 1384.69 L143.936 1388.63 L114.26 1388.63 L114.26 1384.69 Z" fill="#000000" fill-rule="nonzero" fill-opacity="1" /><path clip-path="url(#clip300)" d="M154.839 1397.59 L162.477 1397.59 L162.477 1371.22 L154.167 1372.89 L154.167 1368.63 L162.431 1366.96 L167.107 1366.96 L167.107 1397.59 L174.746 1397.59 L174.746 1401.52 L154.839 1401.52 L154.839 1397.59 Z" fill="#000000" fill-rule="nonzero" fill-opacity="1" /><path clip-path="url(#clip300)" d="M184.19 1395.64 L189.075 1395.64 L189.075 1401.52 L184.19 1401.52 L184.19 1395.64 Z" fill="#000000" fill-rule="nonzero" fill-opacity="1" /><path clip-path="url(#clip300)" d="M209.26 1370.04 Q205.649 1370.04 203.82 1373.6 Q202.014 1377.15 202.014 1384.28 Q202.014 1391.38 203.82 1394.95 Q205.649 1398.49 209.26 1398.49 Q212.894 1398.49 214.699 1394.95 Q216.528 1391.38 216.528 1384.28 Q216.528 1377.15 214.699 1373.6 Q212.894 1370.04 209.26 1370.04 M209.26 1366.34 Q215.07 1366.34 218.125 1370.94 Q221.204 1375.53 221.204 1384.28 Q221.204 1393 218.125 1397.61 Q215.07 1402.19 209.26 1402.19 Q203.449 1402.19 200.371 1397.61 Q197.315 1393 197.315 1384.28 Q197.315 1375.53 200.371 1370.94 Q203.449 1366.34 209.26 1366.34 Z" fill="#000000" fill-rule="nonzero" fill-opacity="1" /><path clip-path="url(#clip300)" d="M115.256 1060.25 L144.931 1060.25 L144.931 1064.19 L115.256 1064.19 L115.256 1060.25 Z" fill="#000000" fill-rule="nonzero" fill-opacity="1" /><path clip-path="url(#clip300)" d="M165.024 1045.6 Q161.413 1045.6 159.584 1049.17 Q157.778 1052.71 157.778 1059.84 Q157.778 1066.94 159.584 1070.51 Q161.413 1074.05 165.024 1074.05 Q168.658 1074.05 170.464 1070.51 Q172.292 1066.94 172.292 1059.84 Q172.292 1052.71 170.464 1049.17 Q168.658 1045.6 165.024 1045.6 M165.024 1041.9 Q170.834 1041.9 173.889 1046.5 Q176.968 1051.09 176.968 1059.84 Q176.968 1068.56 173.889 1073.17 Q170.834 1077.75 165.024 1077.75 Q159.214 1077.75 156.135 1073.17 Q153.079 1068.56 153.079 1059.84 Q153.079 1051.09 156.135 1046.5 Q159.214 1041.9 165.024 1041.9 Z" fill="#000000" fill-rule="nonzero" fill-opacity="1" /><path clip-path="url(#clip300)" d="M185.186 1071.2 L190.07 1071.2 L190.07 1077.08 L185.186 1077.08 L185.186 1071.2 Z" fill="#000000" fill-rule="nonzero" fill-opacity="1" /><path clip-path="url(#clip300)" d="M200.301 1042.52 L218.658 1042.52 L218.658 1046.46 L204.584 1046.46 L204.584 1054.93 Q205.602 1054.58 206.621 1054.42 Q207.639 1054.24 208.658 1054.24 Q214.445 1054.24 217.824 1057.41 Q221.204 1060.58 221.204 1065.99 Q221.204 1071.57 217.732 1074.68 Q214.26 1077.75 207.94 1077.75 Q205.764 1077.75 203.496 1077.38 Q201.25 1077.01 198.843 1076.27 L198.843 1071.57 Q200.926 1072.71 203.149 1073.26 Q205.371 1073.82 207.848 1073.82 Q211.852 1073.82 214.19 1071.71 Q216.528 1069.61 216.528 1065.99 Q216.528 1062.38 214.19 1060.28 Q211.852 1058.17 207.848 1058.17 Q205.973 1058.17 204.098 1058.59 Q202.246 1059 200.301 1059.88 L200.301 1042.52 Z" fill="#000000" fill-rule="nonzero" fill-opacity="1" /><path clip-path="url(#clip300)" d="M164.028 721.162 Q160.417 721.162 158.589 724.727 Q156.783 728.269 156.783 735.398 Q156.783 742.505 158.589 746.069 Q160.417 749.611 164.028 749.611 Q167.663 749.611 169.468 746.069 Q171.297 742.505 171.297 735.398 Q171.297 728.269 169.468 724.727 Q167.663 721.162 164.028 721.162 M164.028 717.458 Q169.839 717.458 172.894 722.065 Q175.973 726.648 175.973 735.398 Q175.973 744.125 172.894 748.731 Q169.839 753.315 164.028 753.315 Q158.218 753.315 155.14 748.731 Q152.084 744.125 152.084 735.398 Q152.084 726.648 155.14 722.065 Q158.218 717.458 164.028 717.458 Z" fill="#000000" fill-rule="nonzero" fill-opacity="1" /><path clip-path="url(#clip300)" d="M184.19 746.764 L189.075 746.764 L189.075 752.643 L184.19 752.643 L184.19 746.764 Z" fill="#000000" fill-rule="nonzero" fill-opacity="1" /><path clip-path="url(#clip300)" d="M209.26 721.162 Q205.649 721.162 203.82 724.727 Q202.014 728.269 202.014 735.398 Q202.014 742.505 203.82 746.069 Q205.649 749.611 209.26 749.611 Q212.894 749.611 214.699 746.069 Q216.528 742.505 216.528 735.398 Q216.528 728.269 214.699 724.727 Q212.894 721.162 209.26 721.162 M209.26 717.458 Q215.07 717.458 218.125 722.065 Q221.204 726.648 221.204 735.398 Q221.204 744.125 218.125 748.731 Q215.07 753.315 209.26 753.315 Q203.449 753.315 200.371 748.731 Q197.315 744.125 197.315 735.398 Q197.315 726.648 200.371 722.065 Q203.449 717.458 209.26 717.458 Z" fill="#000000" fill-rule="nonzero" fill-opacity="1" /><path clip-path="url(#clip300)" d="M165.024 396.723 Q161.413 396.723 159.584 400.288 Q157.778 403.83 157.778 410.959 Q157.778 418.066 159.584 421.631 Q161.413 425.172 165.024 425.172 Q168.658 425.172 170.464 421.631 Q172.292 418.066 172.292 410.959 Q172.292 403.83 170.464 400.288 Q168.658 396.723 165.024 396.723 M165.024 393.02 Q170.834 393.02 173.889 397.626 Q176.968 402.209 176.968 410.959 Q176.968 419.686 173.889 424.293 Q170.834 428.876 165.024 428.876 Q159.214 428.876 156.135 424.293 Q153.079 419.686 153.079 410.959 Q153.079 402.209 156.135 397.626 Q159.214 393.02 165.024 393.02 Z" fill="#000000" fill-rule="nonzero" fill-opacity="1" /><path clip-path="url(#clip300)" d="M185.186 422.325 L190.07 422.325 L190.07 428.205 L185.186 428.205 L185.186 422.325 Z" fill="#000000" fill-rule="nonzero" fill-opacity="1" /><path clip-path="url(#clip300)" d="M200.301 393.645 L218.658 393.645 L218.658 397.58 L204.584 397.58 L204.584 406.052 Q205.602 405.705 206.621 405.543 Q207.639 405.357 208.658 405.357 Q214.445 405.357 217.824 408.529 Q221.204 411.7 221.204 417.117 Q221.204 422.695 217.732 425.797 Q214.26 428.876 207.94 428.876 Q205.764 428.876 203.496 428.505 Q201.25 428.135 198.843 427.394 L198.843 422.695 Q200.926 423.83 203.149 424.385 Q205.371 424.941 207.848 424.941 Q211.852 424.941 214.19 422.834 Q216.528 420.728 216.528 417.117 Q216.528 413.506 214.19 411.399 Q211.852 409.293 207.848 409.293 Q205.973 409.293 204.098 409.709 Q202.246 410.126 200.301 411.006 L200.301 393.645 Z" fill="#000000" fill-rule="nonzero" fill-opacity="1" /><path clip-path="url(#clip300)" d="M154.839 99.8305 L162.477 99.8305 L162.477 73.4649 L154.167 75.1315 L154.167 70.8723 L162.431 69.2056 L167.107 69.2056 L167.107 99.8305 L174.746 99.8305 L174.746 103.766 L154.839 103.766 L154.839 99.8305 Z" fill="#000000" fill-rule="nonzero" fill-opacity="1" /><path clip-path="url(#clip300)" d="M184.19 97.886 L189.075 97.886 L189.075 103.766 L184.19 103.766 L184.19 97.886 Z" fill="#000000" fill-rule="nonzero" fill-opacity="1" /><path clip-path="url(#clip300)" d="M209.26 72.2843 Q205.649 72.2843 203.82 75.8491 Q202.014 79.3908 202.014 86.5204 Q202.014 93.6268 203.82 97.1916 Q205.649 100.733 209.26 100.733 Q212.894 100.733 214.699 97.1916 Q216.528 93.6268 216.528 86.5204 Q216.528 79.3908 214.699 75.8491 Q212.894 72.2843 209.26 72.2843 M209.26 68.5806 Q215.07 68.5806 218.125 73.1871 Q221.204 77.7704 221.204 86.5204 Q221.204 95.2472 218.125 99.8536 Q215.07 104.437 209.26 104.437 Q203.449 104.437 200.371 99.8536 Q197.315 95.2472 197.315 86.5204 Q197.315 77.7704 200.371 73.1871 Q203.449 68.5806 209.26 68.5806 Z" fill="#000000" fill-rule="nonzero" fill-opacity="1" /><path clip-path="url(#clip300)" d="M16.4842 971.396 L16.4842 961.815 L48.8219 949.689 L16.4842 937.498 L16.4842 927.918 L64.0042 927.918 L64.0042 934.188 L22.277 934.188 L54.8694 946.442 L54.8694 952.903 L22.277 965.157 L64.0042 965.157 L64.0042 971.396 L16.4842 971.396 Z" fill="#000000" fill-rule="nonzero" fill-opacity="1" /><path clip-path="url(#clip300)" d="M32.4621 901.596 Q32.4621 906.306 36.1542 909.044 Q39.8145 911.781 46.212 911.781 Q52.6095 911.781 56.3017 909.075 Q59.9619 906.338 59.9619 901.596 Q59.9619 896.917 56.2698 894.18 Q52.5777 891.442 46.212 891.442 Q39.8781 891.442 36.186 894.18 Q32.4621 896.917 32.4621 901.596 M27.4968 901.596 Q27.4968 893.957 32.4621 889.596 Q37.4273 885.236 46.212 885.236 Q54.9649 885.236 59.9619 889.596 Q64.9272 893.957 64.9272 901.596 Q64.9272 909.266 59.9619 913.627 Q54.9649 917.955 46.212 917.955 Q37.4273 917.955 32.4621 913.627 Q27.4968 909.266 27.4968 901.596 Z" fill="#000000" fill-rule="nonzero" fill-opacity="1" /><path clip-path="url(#clip300)" d="M35.1993 847.774 Q31.2526 845.577 29.3747 842.522 Q27.4968 839.466 27.4968 835.329 Q27.4968 829.759 31.4117 826.735 Q35.2948 823.711 42.4881 823.711 L64.0042 823.711 L64.0042 829.599 L42.679 829.599 Q37.5546 829.599 35.072 831.414 Q32.5894 833.228 32.5894 836.952 Q32.5894 841.503 35.6131 844.145 Q38.6368 846.787 43.8567 846.787 L64.0042 846.787 L64.0042 852.675 L42.679 852.675 Q37.5228 852.675 35.072 854.489 Q32.5894 856.304 32.5894 860.091 Q32.5894 864.579 35.6449 867.221 Q38.6686 869.863 43.8567 869.863 L64.0042 869.863 L64.0042 875.751 L28.3562 875.751 L28.3562 869.863 L33.8944 869.863 Q30.616 867.857 29.0564 865.056 Q27.4968 862.256 27.4968 858.404 Q27.4968 854.521 29.4702 851.816 Q31.4436 849.079 35.1993 847.774 Z" fill="#000000" fill-rule="nonzero" fill-opacity="1" /><path clip-path="url(#clip300)" d="M44.7161 781.538 L47.5806 781.538 L47.5806 808.465 Q53.6281 808.083 56.8109 804.837 Q59.9619 801.559 59.9619 795.734 Q59.9619 792.36 59.1344 789.209 Q58.3069 786.026 56.6518 782.907 L62.1899 782.907 Q63.5267 786.058 64.227 789.368 Q64.9272 792.678 64.9272 796.084 Q64.9272 804.614 59.9619 809.611 Q54.9967 814.576 46.5303 814.576 Q37.7774 814.576 32.6531 809.866 Q27.4968 805.123 27.4968 797.103 Q27.4968 789.909 32.1438 785.74 Q36.7589 781.538 44.7161 781.538 M42.9973 787.395 Q38.1912 787.459 35.3266 790.1 Q32.4621 792.71 32.4621 797.039 Q32.4621 801.94 35.2312 804.901 Q38.0002 807.829 43.0292 808.274 L42.9973 787.395 Z" fill="#000000" fill-rule="nonzero" fill-opacity="1" /><path clip-path="url(#clip300)" d="M42.4881 742.294 L64.0042 742.294 L64.0042 748.15 L42.679 748.15 Q37.6183 748.15 35.1038 750.124 Q32.5894 752.097 32.5894 756.044 Q32.5894 760.786 35.6131 763.523 Q38.6368 766.261 43.8567 766.261 L64.0042 766.261 L64.0042 772.149 L28.3562 772.149 L28.3562 766.261 L33.8944 766.261 Q30.6797 764.16 29.0883 761.327 Q27.4968 758.463 27.4968 754.739 Q27.4968 748.596 31.3163 745.445 Q35.1038 742.294 42.4881 742.294 Z" fill="#000000" fill-rule="nonzero" fill-opacity="1" /><path clip-path="url(#clip300)" d="M18.2347 724.82 L28.3562 724.82 L28.3562 712.757 L32.9077 712.757 L32.9077 724.82 L52.2594 724.82 Q56.6199 724.82 57.8613 723.642 Q59.1026 722.433 59.1026 718.773 L59.1026 712.757 L64.0042 712.757 L64.0042 718.773 Q64.0042 725.552 61.4897 728.13 Q58.9434 730.708 52.2594 730.708 L32.9077 730.708 L32.9077 735.005 L28.3562 735.005 L28.3562 730.708 L18.2347 730.708 L18.2347 724.82 Z" fill="#000000" fill-rule="nonzero" fill-opacity="1" /><path clip-path="url(#clip300)" d="M49.9359 705.659 L28.3562 705.659 L28.3562 699.803 L49.7131 699.803 Q54.7739 699.803 57.3202 697.829 Q59.8346 695.856 59.8346 691.909 Q59.8346 687.167 56.8109 684.43 Q53.7872 681.66 48.5673 681.66 L28.3562 681.66 L28.3562 675.804 L64.0042 675.804 L64.0042 681.66 L58.5296 681.66 Q61.7762 683.793 63.3676 686.626 Q64.9272 689.427 64.9272 693.151 Q64.9272 699.293 61.1078 702.476 Q57.2883 705.659 49.9359 705.659 M27.4968 690.923 L27.4968 690.923 Z" fill="#000000" fill-rule="nonzero" fill-opacity="1" /><path clip-path="url(#clip300)" d="M35.1993 635.987 Q31.2526 633.79 29.3747 630.735 Q27.4968 627.679 27.4968 623.542 Q27.4968 617.972 31.4117 614.948 Q35.2948 611.924 42.4881 611.924 L64.0042 611.924 L64.0042 617.812 L42.679 617.812 Q37.5546 617.812 35.072 619.627 Q32.5894 621.441 32.5894 625.165 Q32.5894 629.716 35.6131 632.358 Q38.6368 635 43.8567 635 L64.0042 635 L64.0042 640.888 L42.679 640.888 Q37.5228 640.888 35.072 642.702 Q32.5894 644.517 32.5894 648.304 Q32.5894 652.792 35.6449 655.434 Q38.6686 658.076 43.8567 658.076 L64.0042 658.076 L64.0042 663.964 L28.3562 663.964 L28.3562 658.076 L33.8944 658.076 Q30.616 656.07 29.0564 653.269 Q27.4968 650.468 27.4968 646.617 Q27.4968 642.734 29.4702 640.029 Q31.4436 637.291 35.1993 635.987 Z" fill="#000000" fill-rule="nonzero" fill-opacity="1" /><path clip-path="url(#clip300)" d="M14.5426 565.454 Q21.8632 569.72 29.0246 571.788 Q36.186 573.857 43.5384 573.857 Q50.8908 573.857 58.1159 571.788 Q65.3091 569.688 72.5979 565.454 L72.5979 570.547 Q65.1182 575.321 57.8931 577.708 Q50.668 580.064 43.5384 580.064 Q36.4406 580.064 29.2474 577.708 Q22.0542 575.353 14.5426 570.547 L14.5426 565.454 Z" fill="#000000" fill-rule="nonzero" fill-opacity="1" /><path clip-path="url(#clip300)" d="M58.657 548.426 L77.5631 548.426 L77.5631 554.315 L28.3562 554.315 L28.3562 548.426 L33.7671 548.426 Q30.5842 546.58 29.0564 543.779 Q27.4968 540.947 27.4968 537.032 Q27.4968 530.539 32.6531 526.496 Q37.8093 522.422 46.212 522.422 Q54.6147 522.422 59.771 526.496 Q64.9272 530.539 64.9272 537.032 Q64.9272 540.947 63.3994 543.779 Q61.8398 546.58 58.657 548.426 M46.212 528.502 Q39.7508 528.502 36.0905 531.175 Q32.3984 533.817 32.3984 538.464 Q32.3984 543.111 36.0905 545.784 Q39.7508 548.426 46.212 548.426 Q52.6732 548.426 56.3653 545.784 Q60.0256 543.111 60.0256 538.464 Q60.0256 533.817 56.3653 531.175 Q52.6732 528.502 46.212 528.502 Z" fill="#000000" fill-rule="nonzero" fill-opacity="1" /><path clip-path="url(#clip300)" d="M14.5426 513.638 L14.5426 508.545 Q22.0542 503.771 29.2474 501.415 Q36.4406 499.028 43.5384 499.028 Q50.668 499.028 57.8931 501.415 Q65.1182 503.771 72.5979 508.545 L72.5979 513.638 Q65.3091 509.404 58.1159 507.336 Q50.8908 505.235 43.5384 505.235 Q36.186 505.235 29.0246 507.336 Q21.8632 509.404 14.5426 513.638 Z" fill="#000000" fill-rule="nonzero" fill-opacity="1" /><polyline clip-path="url(#clip302)" style="stroke:#009af9; stroke-linecap:round; stroke-linejoin:round; stroke-width:16; stroke-opacity:1; fill:none" points="1302.44,86.4856 1308.5,86.4979 1314.55,86.5346 1320.61,86.5958 1326.66,86.6815 1332.71,86.7916 1338.76,86.9262 1344.82,87.0852 1350.86,87.2688 1356.91,87.4768 1362.96,87.7092 1369,87.966 1375.04,88.2472 1381.08,88.5529 1387.11,88.883 1393.14,89.2375 1399.17,89.6163 1405.2,90.0195 1411.22,90.447 1417.23,90.8989 1423.25,91.375 1429.25,91.8755 1435.26,92.4003 1441.25,92.9492 1447.25,93.5225 1453.23,94.1199 1459.21,94.7416 1465.19,95.3873 1471.16,96.0573 1477.12,96.7513 1483.08,97.4695 1489.03,98.2117 1494.97,98.978 1500.91,99.7682 1506.83,100.582 1512.75,101.421 1518.67,102.283 1524.57,103.169 1530.47,104.078 1536.35,105.012 1542.23,105.97 1548.1,106.951 1553.96,107.956 1559.81,108.984 1565.65,110.036 1571.48,111.112 1577.3,112.211 1583.11,113.334 1588.91,114.48 1594.7,115.65 1600.48,116.843 1606.24,118.06 1612,119.299 1617.74,120.562 1623.47,121.848 1629.19,123.158 1634.9,124.49 1640.6,125.845 1646.28,127.224 1651.95,128.625 1657.6,130.049 1663.24,131.496 1668.87,132.966 1674.49,134.459 1680.09,135.974 1685.67,137.512 1691.25,139.072 1696.8,140.655 1702.35,142.26 1707.87,143.888 1713.39,145.538 1718.88,147.21 1724.36,148.905 1729.83,150.621 1735.28,152.36 1740.71,154.121 1746.13,155.903 1751.53,157.707 1756.91,159.534 1762.27,161.382 1767.62,163.251 1772.95,165.142 1778.26,167.055 1783.56,168.989 1788.83,170.945 1794.09,172.921 1799.33,174.919 1804.55,176.938 1809.75,178.979 1814.94,181.04 1820.1,183.122 1825.24,185.225 1830.37,187.348 1835.47,189.493 1840.56,191.658 1845.62,193.843 1850.66,196.049 1855.69,198.275 1860.69,200.522 1865.67,202.788 1870.63,205.075 1875.57,207.382 1880.48,209.708 1885.38,212.055 1890.25,214.421 1895.1,216.807 1899.93,219.212 1904.73,221.637 1909.52,224.082 1914.28,226.545 1919.01,229.028 1923.73,231.53 1928.42,234.051 1933.08,236.591 1937.73,239.149 1942.35,241.726 1946.94,244.322 1951.51,246.937 1956.06,249.57 1960.58,252.221 1965.07,254.891 1969.55,257.578 1973.99,260.284 1978.41,263.007 1982.81,265.749 1987.18,268.508 1991.52,271.284 1995.84,274.078 2000.13,276.89 2004.4,279.719 2008.64,282.565 2012.85,285.428 2017.03,288.308 2021.19,291.205 2025.32,294.119 2029.43,297.049 2033.5,299.996 2037.55,302.959 2041.58,305.939 2045.57,308.935 2049.53,311.947 2053.47,314.975 2057.38,318.018 2061.26,321.078 2065.11,324.153 2068.94,327.244 2072.73,330.35 2076.5,333.471 2080.23,336.608 2083.94,339.759 2087.62,342.926 2091.26,346.107 2094.88,349.303 2098.47,352.513 2102.03,355.738 2105.55,358.977 2109.05,362.231 2112.52,365.498 2115.95,368.78 2119.36,372.075 2122.74,375.384 2126.08,378.707 2129.39,382.043 2132.67,385.392 2135.92,388.755 2139.14,392.13 2142.33,395.519 2145.49,398.92 2148.61,402.335 2151.7,405.761 2154.76,409.2 2157.79,412.652 2160.78,416.115 2163.75,419.591 2166.68,423.079 2169.58,426.578 2172.44,430.089 2175.27,433.611 2178.07,437.145 2180.84,440.69 2183.57,444.247 2186.27,447.814 2188.94,451.392 2191.57,454.981 2194.17,458.58 2196.74,462.19 2199.27,465.81 2201.77,469.44 2204.24,473.08 2206.67,476.731 2209.06,480.391 2211.43,484.06 2213.75,487.739 2216.05,491.428 2218.31,495.125 2220.53,498.832 2222.72,502.547 2224.88,506.272 2227,510.005 2229.08,513.746 2231.13,517.496 2233.15,521.254 2235.13,525.02 2237.07,528.795 2238.98,532.576 2240.86,536.366 2242.7,540.163 2244.5,543.967 2246.27,547.779 2248,551.598 2249.7,555.423 2251.36,559.256 2252.99,563.095 2254.58,566.94 2256.13,570.792 2257.65,574.65 2259.13,578.515 2260.58,582.385 2261.99,586.261 2263.36,590.142 2264.7,594.029 2266,597.921 2267.26,601.819 2268.49,605.721 2269.68,609.629 2270.84,613.541 2271.96,617.458 2273.04,621.379 2274.08,625.305 2275.09,629.234 2276.06,633.168 2277,637.105 2277.9,641.047 2278.76,644.991 2279.58,648.94 2280.37,652.891 2281.12,656.846 2281.84,660.803 2282.52,664.763 2283.16,668.727 2283.76,672.692 2284.33,676.66 2284.85,680.63 2285.35,684.602 2285.8,688.576 2286.22,692.552 2286.6,696.53 2286.95,700.508 2287.25,704.489 2287.52,708.47 2287.75,712.453 2287.95,716.436 2288.11,720.42 2288.23,724.404 2288.31,728.389 2288.36,732.374 2288.37,736.36 2288.34,740.345 2288.27,744.33 2288.17,748.315 2288.03,752.299 2287.86,756.283 2287.64,760.266 2287.39,764.248 2287.1,768.229 2286.78,772.208 2286.42,776.186 2286.02,780.163 2285.58,784.138 2285.11,788.111 2284.59,792.082 2284.05,796.051 2283.46,800.018 2282.84,803.982 2282.18,807.944 2281.49,811.903 2280.75,815.859 2279.98,819.812 2279.18,823.762 2278.33,827.708 2277.45,831.652 2276.54,835.591 2275.58,839.526 2274.59,843.458 2273.56,847.386 2272.5,851.309 2271.4,855.228 2270.26,859.143 2269.09,863.052 2267.88,866.957 2266.63,870.857 2265.35,874.752 2264.03,878.642 2262.68,882.526 2261.29,886.405 2259.86,890.278 2258.39,894.145 2256.89,898.006 2255.36,901.861 2253.79,905.71 2252.18,909.553 2250.54,913.388 2248.86,917.217 2247.14,921.04 2245.39,924.855 2243.61,928.663 2241.78,932.463 2239.93,936.257 2238.03,940.042 2236.11,943.821 2234.14,947.591 2232.15,951.353 2230.11,955.107 2228.04,958.852 2225.94,962.59 2223.8,966.318 2221.63,970.038 2219.42,973.75 2217.18,977.452 2214.9,981.145 2212.59,984.828 2210.25,988.503 2207.87,992.168 2205.46,995.823 2203.01,999.468 2200.53,1003.1 2198.01,1006.73 2195.46,1010.34 2192.88,1013.95 2190.26,1017.54 2187.61,1021.13 2184.93,1024.7 2182.21,1028.26 2179.46,1031.81 2176.68,1035.35 2173.86,1038.88 2171.01,1042.4 2168.13,1045.9 2165.22,1049.39 2162.27,1052.88 2159.29,1056.34 2156.28,1059.8 2153.24,1063.25 2150.16,1066.68 2147.05,1070.1 2143.91,1073.51 2140.74,1076.9 2137.54,1080.29 2134.3,1083.66 2131.04,1087.01 2127.74,1090.35 2124.41,1093.68 2121.05,1097 2117.66,1100.3 2114.24,1103.59 2110.79,1106.86 2107.31,1110.12 2103.79,1113.37 2100.25,1116.6 2096.68,1119.82 2093.08,1123.02 2089.44,1126.21 2085.78,1129.39 2082.09,1132.55 2078.37,1135.69 2074.62,1138.82 2070.84,1141.93 2067.03,1145.03 2063.19,1148.11 2059.32,1151.18 2055.43,1154.23 2051.51,1157.27 2047.56,1160.29 2043.58,1163.29 2039.57,1166.28 2035.53,1169.25 2031.47,1172.21 2027.38,1175.15 2023.26,1178.07 2019.12,1180.97 2014.94,1183.86 2010.75,1186.73 2006.52,1189.59 2002.27,1192.42 1997.99,1195.25 1993.68,1198.05 1989.35,1200.83 1985,1203.6 1980.61,1206.35 1976.21,1209.08 1971.77,1211.8 1967.31,1214.49 1962.83,1217.17 1958.32,1219.83 1953.79,1222.48 1949.23,1225.1 1944.65,1227.7 1940.04,1230.29 1935.41,1232.86 1930.75,1235.41 1926.08,1237.94 1921.37,1240.45 1916.65,1242.94 1911.9,1245.42 1907.13,1247.87 1902.33,1250.3 1897.52,1252.72 1892.68,1255.12 1887.82,1257.49 1882.93,1259.85 1878.03,1262.18 1873.1,1264.5 1868.15,1266.8 1863.18,1269.07 1858.19,1271.33 1853.18,1273.57 1848.15,1275.78 1843.09,1277.98 1838.02,1280.15 1832.92,1282.31 1827.81,1284.44 1822.68,1286.56 1817.52,1288.65 1812.35,1290.72 1807.16,1292.77 1801.94,1294.8 1796.71,1296.81 1791.47,1298.8 1786.2,1300.76 1780.91,1302.71 1775.61,1304.63 1770.29,1306.53 1764.95,1308.41 1759.59,1310.27 1754.22,1312.11 1748.83,1313.92 1743.42,1315.72 1738,1317.49 1732.56,1319.24 1727.1,1320.97 1721.63,1322.67 1716.14,1324.36 1710.63,1326.02 1705.11,1327.66 1699.58,1329.27 1694.03,1330.87 1688.46,1332.44 1682.88,1333.99 1677.29,1335.51 1671.68,1337.02 1666.06,1338.5 1660.42,1339.96 1654.78,1341.39 1649.11,1342.81 1643.44,1344.2 1637.75,1345.56 1632.05,1346.91 1626.34,1348.23 1620.61,1349.52 1614.87,1350.8 1609.12,1352.05 1603.36,1353.28 1597.59,1354.48 1591.81,1355.66 1586.01,1356.82 1580.21,1357.96 1574.39,1359.07 1568.57,1360.16 1562.73,1361.22 1556.89,1362.26 1551.03,1363.28 1545.17,1364.27 1539.29,1365.24 1533.41,1366.18 1527.52,1367.11 1521.62,1368 1515.71,1368.88 1509.79,1369.73 1503.87,1370.55 1497.94,1371.36 1492,1372.14 1486.05,1372.89 1480.1,1373.62 1474.14,1374.33 1468.18,1375.01 1462.2,1375.67 1456.22,1376.3 1450.24,1376.91 1444.25,1377.49 1438.26,1378.06 1432.25,1378.59 1426.25,1379.1 1420.24,1379.59 1414.23,1380.06 1408.21,1380.5 1402.18,1380.91 1396.16,1381.3 1390.13,1381.67 1384.1,1382.01 1378.06,1382.33 1372.02,1382.62 1365.98,1382.89 1359.93,1383.14 1353.89,1383.36 1347.84,1383.55 1341.79,1383.72 1335.74,1383.87 1329.69,1383.99 1323.63,1384.09 1317.58,1384.16 1311.52,1384.21 1305.47,1384.24 1299.41,1384.24 1293.36,1384.21 1287.3,1384.16 1281.25,1384.09 1275.19,1383.99 1269.14,1383.87 1263.09,1383.72 1257.04,1383.55 1250.99,1383.36 1244.95,1383.14 1238.9,1382.89 1232.86,1382.62 1226.82,1382.33 1220.78,1382.01 1214.75,1381.67 1208.72,1381.3 1202.69,1380.91 1196.67,1380.5 1190.65,1380.06 1184.64,1379.59 1178.63,1379.1 1172.62,1378.59 1166.62,1378.06 1160.63,1377.49 1154.64,1376.91 1148.65,1376.3 1142.68,1375.67 1136.7,1375.01 1130.74,1374.33 1124.78,1373.62 1118.83,1372.89 1112.88,1372.14 1106.94,1371.36 1101.01,1370.55 1095.09,1369.73 1089.17,1368.88 1083.26,1368 1077.36,1367.11 1071.47,1366.18 1065.59,1365.24 1059.71,1364.27 1053.85,1363.28 1047.99,1362.26 1042.15,1361.22 1036.31,1360.16 1030.49,1359.07 1024.67,1357.96 1018.87,1356.82 1013.07,1355.66 1007.29,1354.48 1001.52,1353.28 995.756,1352.05 990.007,1350.8 984.269,1349.52 978.544,1348.23 972.831,1346.91 967.13,1345.56 961.442,1344.2 955.766,1342.81 950.104,1341.39 944.455,1339.96 938.819,1338.5 933.198,1337.02 927.59,1335.51 921.996,1333.99 916.417,1332.44 910.852,1330.87 905.302,1329.27 899.767,1327.66 894.248,1326.02 888.743,1324.36 883.254,1322.67 877.781,1320.97 872.324,1319.24 866.884,1317.49 861.459,1315.72 856.052,1313.92 850.661,1312.11 845.287,1310.27 839.931,1308.41 834.592,1306.53 829.27,1304.63 823.966,1302.71 818.681,1300.76 813.414,1298.8 808.165,1296.81 802.935,1294.8 797.723,1292.77 792.531,1290.72 787.358,1288.65 782.204,1286.56 777.07,1284.44 771.956,1282.31 766.862,1280.15 761.788,1277.98 756.734,1275.78 751.701,1273.57 746.689,1271.33 741.698,1269.07 736.727,1266.8 731.779,1264.5 726.851,1262.18 721.946,1259.85 717.062,1257.49 712.201,1255.12 707.361,1252.72 702.544,1250.3 697.75,1247.87 692.979,1245.42 688.23,1242.94 683.505,1240.45 678.803,1237.94 674.125,1235.41 669.47,1232.86 664.84,1230.29 660.233,1227.7 655.65,1225.1 651.092,1222.48 646.559,1219.83 642.05,1217.17 637.566,1214.49 633.107,1211.8 628.674,1209.08 624.265,1206.35 619.883,1203.6 615.526,1200.83 611.195,1198.05 606.89,1195.24 602.612,1192.42 598.359,1189.59 594.134,1186.73 589.935,1183.86 585.763,1180.97 581.618,1178.07 577.5,1175.14 573.41,1172.21 569.347,1169.25 565.311,1166.28 561.304,1163.29 557.324,1160.29 553.373,1157.27 549.45,1154.23 545.555,1151.18 541.689,1148.11 537.851,1145.03 534.043,1141.93 530.263,1138.82 526.512,1135.69 522.791,1132.55 519.099,1129.39 515.437,1126.21 511.804,1123.02 508.201,1119.82 504.629,1116.6 501.086,1113.37 497.573,1110.12 494.091,1106.86 490.639,1103.59 487.219,1100.3 483.828,1097 480.469,1093.68 477.14,1090.35 473.843,1087.01 470.577,1083.66 467.342,1080.29 464.139,1076.9 460.968,1073.51 457.828,1070.1 454.72,1066.68 451.644,1063.25 448.6,1059.8 445.589,1056.34 442.609,1052.88 439.662,1049.39 436.748,1045.9 433.866,1042.39 431.018,1038.88 428.202,1035.35 425.419,1031.81 422.669,1028.26 419.952,1024.7 417.268,1021.13 414.618,1017.54 412.002,1013.95 409.419,1010.34 406.869,1006.73 404.354,1003.1 401.872,999.468 399.424,995.823 397.011,992.168 394.631,988.503 392.286,984.828 389.975,981.145 387.699,977.452 385.457,973.749 383.249,970.038 381.077,966.318 378.939,962.59 376.836,958.852 374.767,955.107 372.734,951.353 370.736,947.591 368.773,943.821 366.845,940.042 364.953,936.257 363.096,932.463 361.274,928.662 359.488,924.855 357.737,921.039 356.023,917.217 354.343,913.388 352.7,909.552 351.092,905.71 349.52,901.861 347.985,898.006 346.485,894.145 345.021,890.278 343.593,886.405 342.202,882.526 340.847,878.642 339.528,874.752 338.245,870.857 336.999,866.957 335.789,863.052 334.616,859.143 333.479,855.228 332.378,851.309 331.315,847.386 330.288,843.458 329.297,839.526 328.343,835.591 327.426,831.651 326.546,827.708 325.703,823.762 324.896,819.812 324.127,815.859 323.394,811.903 322.698,807.944 322.039,803.982 321.417,800.018 320.833,796.051 320.285,792.082 319.774,788.111 319.3,784.138 318.864,780.163 318.464,776.186 318.102,772.208 317.776,768.228 317.488,764.248 317.237,760.266 317.023,756.283 316.847,752.299 316.707,748.315 316.605,744.33 316.54,740.345 316.512,736.36 316.521,732.374 316.568,728.389 316.652,724.404 316.772,720.42 316.93,716.436 317.126,712.452 317.358,708.47 317.628,704.489 317.934,700.508 318.278,696.529 318.659,692.552 319.077,688.576 319.532,684.602 320.025,680.63 320.554,676.66 321.12,672.692 321.724,668.726 322.364,664.763 323.041,660.803 323.756,656.845 324.507,652.891 325.295,648.939 326.12,644.991 326.982,641.047 327.88,637.105 328.816,633.168 329.788,629.234 330.797,625.305 331.842,621.379 332.924,617.458 334.043,613.541 335.198,609.629 336.389,605.721 337.617,601.819 338.882,597.921 340.183,594.029 341.52,590.142 342.893,586.26 344.303,582.385 345.748,578.514 347.23,574.65 348.748,570.792 350.302,566.94 351.892,563.095 353.517,559.256 355.179,555.423 356.876,551.598 358.608,547.779 360.377,543.967 362.181,540.163 364.02,536.366 365.895,532.576 367.805,528.794 369.75,525.02 371.731,521.254 373.746,517.496 375.797,513.746 377.883,510.005 380.003,506.272 382.159,502.547 384.349,498.832 386.574,495.125 388.833,491.428 391.126,487.739 393.454,484.06 395.817,480.39 398.213,476.731 400.644,473.08 403.109,469.44 405.607,465.81 408.14,462.19 410.706,458.58 413.306,454.98 415.939,451.392 418.606,447.814 421.306,444.247 424.04,440.69 426.806,437.145 429.606,433.611 432.438,430.089 435.303,426.578 438.201,423.078 441.132,419.591 444.095,416.115 447.091,412.652 450.118,409.2 453.178,405.761 456.27,402.334 459.394,398.92 462.55,395.519 465.737,392.131 468.956,388.755 472.206,385.392 475.488,382.043 478.801,378.707 482.145,375.384 485.52,372.075 488.925,368.78 492.362,365.498 495.828,362.231 499.326,358.977 502.853,355.738 506.411,352.513 509.999,349.303 513.617,346.107 517.265,342.925 520.942,339.759 524.648,336.607 528.384,333.471 532.149,330.35 535.943,327.244 539.767,324.153 543.618,321.078 547.499,318.018 551.408,314.975 555.345,311.947 559.311,308.935 563.304,305.939 567.326,302.959 571.375,299.996 575.452,297.049 579.556,294.119 583.687,291.205 587.846,288.308 592.031,285.428 596.243,282.565 600.482,279.719 604.748,276.89 609.04,274.078 613.358,271.284 617.701,268.508 622.071,265.748 626.466,263.007 630.887,260.284 635.333,257.578 639.805,254.89 644.301,252.221 648.823,249.57 653.369,246.937 657.939,244.322 662.533,241.726 667.152,239.149 671.795,236.59 676.461,234.051 681.152,231.53 685.865,229.028 690.602,226.545 695.362,224.082 700.145,221.637 704.95,219.213 709.778,216.807 714.629,214.421 719.501,212.055 724.396,209.708 729.313,207.382 734.251,205.075 739.21,202.788 744.191,200.522 749.192,198.275 754.215,196.049 759.258,193.843 764.322,191.658 769.407,189.493 774.511,187.348 779.635,185.225 784.779,183.122 789.942,181.04 795.125,178.979 800.327,176.938 805.547,174.919 810.787,172.921 816.045,170.945 821.322,168.989 826.616,167.055 831.929,165.142 837.259,163.251 842.607,161.382 847.972,159.534 853.354,157.707 858.754,155.903 864.17,154.121 869.602,152.36 875.051,150.621 880.516,148.905 885.997,147.21 891.494,145.538 897.006,143.888 902.533,142.26 908.076,140.655 913.633,139.072 919.205,137.512 924.792,135.974 930.392,134.459 936.007,132.966 941.636,131.496 947.278,130.049 952.934,128.625 958.603,127.224 964.284,125.845 969.979,124.49 975.686,123.158 981.405,121.848 987.137,120.562 992.88,119.299 998.635,118.06 1004.4,116.843 1010.18,115.65 1015.97,114.48 1021.77,113.334 1027.58,112.211 1033.4,111.112 1039.23,110.036 1045.07,108.984 1050.92,107.956 1056.78,106.951 1062.65,105.97 1068.53,105.012 1074.41,104.078 1080.31,103.169 1086.21,102.283 1092.13,101.421 1098.05,100.582 1103.97,99.7682 1109.91,98.9779 1115.85,98.2117 1121.8,97.4695 1127.76,96.7513 1133.72,96.0573 1139.69,95.3873 1145.67,94.7415 1151.65,94.1199 1157.63,93.5225 1163.63,92.9492 1169.62,92.4002 1175.63,91.8755 1181.63,91.375 1187.65,90.8988 1193.66,90.447 1199.68,90.0194 1205.71,89.6163 1211.74,89.2374 1217.77,88.883 1223.8,88.5529 1229.84,88.2473 1235.88,87.966 1241.92,87.7091 1247.97,87.4767 1254.02,87.2688 1260.06,87.0852 1266.12,86.9262 1272.17,86.7916 1278.22,86.6815 1284.27,86.5958 1290.33,86.5346 1296.38,86.4979 1302.44,86.4856 "/>
<polyline clip-path="url(#clip302)" style="stroke:#e26f46; stroke-linecap:round; stroke-linejoin:round; stroke-width:16; stroke-opacity:1; fill:none" points="1302.44,86.4856 1308.49,86.3838 1314.55,86.282 1320.6,86.1932 1326.65,86.1857 1332.7,86.2926 1338.74,86.5101 1344.77,86.8002 1350.81,87.0973 1356.84,87.3892 1362.88,87.6811 1368.92,87.9731 1374.95,88.2649 1380.99,88.5378 1387.04,88.7703 1393.09,88.9853 1399.14,89.2033 1405.19,89.4419 1411.23,89.7153 1417.26,90.035 1423.28,90.4092 1429.29,90.843 1435.29,91.3384 1441.27,91.8944 1447.25,92.5068 1453.21,93.1685 1459.17,93.8689 1465.12,94.5948 1471.07,95.3296 1477.02,96.0537 1482.99,96.7432 1488.96,97.4035 1494.93,98.0651 1500.89,98.752 1506.84,99.4816 1512.77,100.265 1518.68,101.105 1524.58,102 1530.46,102.94 1536.34,103.908 1542.21,104.883 1548.09,105.83 1553.99,106.737 1559.9,107.631 1565.8,108.537 1571.69,109.476 1577.55,110.463 1583.39,111.508 1589.2,112.615 1594.98,113.786 1600.74,115.015 1606.47,116.291 1612.19,117.601 1617.91,118.923 1623.63,120.232 1629.37,121.494 1635.14,122.724 1640.91,123.95 1646.66,125.198 1652.39,126.486 1658.09,127.83 1663.74,129.24 1669.36,130.719 1674.93,132.269 1680.46,133.884 1685.96,135.553 1691.44,137.262 1696.91,138.991 1702.37,140.714 1707.85,142.424 1713.31,144.145 1718.78,145.874 1724.23,147.609 1729.69,149.35 1735.14,151.093 1740.58,152.838 1746.03,154.584 1751.48,156.33 1756.93,158.076 1762.38,159.821 1767.83,161.564 1773.28,163.307 1778.73,165.049 1784.19,166.791 1789.63,168.539 1795.05,170.324 1800.43,172.148 1805.78,174.013 1811.1,175.917 1816.38,177.86 1821.62,179.843 1826.83,181.863 1832.01,183.921 1837.15,186.015 1842.26,188.143 1847.34,190.305 1852.39,192.498 1857.41,194.72 1862.4,196.97 1867.37,199.245 1872.32,201.543 1877.24,203.861 1882.15,206.196 1887.05,208.545 1891.93,210.905 1896.81,213.273 1901.68,215.644 1906.56,218.015 1911.43,220.383 1916.3,222.757 1921.09,225.196 1925.79,227.7 1930.42,230.262 1934.99,232.876 1939.49,235.535 1943.94,238.234 1948.35,240.967 1952.72,243.729 1957.05,246.516 1961.35,249.323 1965.63,252.146 1969.89,254.983 1974.13,257.829 1978.36,260.683 1982.58,263.541 1986.79,266.403 1991,269.267 1995.21,272.132 1999.41,274.996 2003.62,277.86 2007.82,280.724 2011.93,283.64 2015.88,286.632 2019.7,289.684 2023.45,292.779 2027.14,295.903 2030.8,299.043 2034.46,302.188 2038.14,305.326 2041.86,308.451 2045.63,311.554 2049.46,314.631 2053.37,317.677 2057.35,320.69 2061.42,323.668 2065.56,326.613 2069.77,329.526 2074.04,332.411 2078.37,335.273 2082.74,338.118 2087.13,340.954 2091.52,343.791 2095.89,346.64 2100.2,349.514 2104.43,352.425 2108.54,355.391 2112.5,358.428 2116.26,361.554 2119.79,364.79 2123.09,368.131 2126.35,371.483 2129.61,374.837 2132.87,378.191 2136.14,381.545 2139.4,384.897 2142.67,388.25 2145.95,391.603 2149.22,394.958 2152.48,398.318 2155.73,401.684 2158.95,405.062 2162.13,408.453 2165.27,411.863 2168.34,415.297 2171.33,418.76 2174.22,422.258 2176.99,425.798 2179.69,429.367 2182.42,432.923 2185.19,436.47 2187.98,440.013 2190.76,443.556 2193.53,447.104 2196.27,450.659 2198.97,454.227 2201.62,457.807 2204.22,461.404 2206.75,465.018 2209.22,468.65 2211.62,472.302 2213.96,475.972 2216.23,479.661 2218.44,483.368 2220.59,487.09 2222.69,490.827 2224.75,494.575 2226.79,498.332 2228.8,502.093 2230.81,505.856 2232.83,509.616 2234.89,513.367 2237,517.105 2239.16,520.835 2241.35,524.56 2243.54,528.284 2245.72,532.01 2247.88,535.74 2250,539.478 2252.07,543.224 2254.09,546.982 2256.04,550.752 2257.92,554.536 2259.73,558.333 2261.46,562.145 2263.11,565.972 2264.7,569.812 2266.21,573.666 2267.66,577.532 2269.05,581.409 2270.4,585.295 2271.71,589.187 2273,593.084 2274.28,596.983 2275.57,600.879 2276.88,604.771 2278.13,608.669 2279.25,612.581 2280.25,616.506 2281.15,620.442 2281.97,624.386 2282.72,628.337 2283.41,632.295 2284.06,636.256 2284.68,640.221 2285.28,644.188 2285.86,648.156 2286.43,652.124 2287,656.092 2287.57,660.06 2288.14,664.027 2288.72,667.993 2289.31,671.957 2289.9,675.921 2290.49,679.885 2291.09,683.849 2291.68,687.813 2292.21,691.781 2292.64,695.753 2292.97,699.729 2293.21,703.708 2293.36,707.69 2293.44,711.673 2293.45,715.657 2293.39,719.642 2293.28,723.626 2293.11,727.611 2292.89,731.595 2292.63,735.577 2292.33,739.559 2292,743.538 2291.64,747.516 2291.25,751.493 2290.85,755.468 2290.42,759.441 2289.98,763.412 2289.54,767.382 2289.08,771.351 2288.62,775.319 2288.15,779.286 2287.69,783.254 2287.22,787.221 2286.76,791.189 2286.28,795.157 2285.74,799.123 2285.14,803.086 2284.47,807.044 2283.75,810.999 2282.97,814.948 2282.12,818.891 2281.21,822.828 2280.25,826.759 2279.22,830.683 2278.13,834.6 2276.99,838.51 2275.79,842.414 2274.54,846.31 2273.25,850.2 2271.9,854.083 2270.51,857.96 2269.08,861.831 2267.62,865.697 2266.13,869.558 2264.61,873.416 2263.07,877.27 2261.52,881.122 2259.96,884.972 2258.39,888.822 2256.83,892.673 2255.29,896.526 2253.77,900.384 2252.29,904.252 2250.84,908.125 2249.4,912.001 2247.96,915.878 2246.52,919.754 2245.07,923.626 2243.59,927.494 2242.08,931.354 2240.53,935.206 2238.93,939.049 2237.29,942.881 2235.6,946.702 2233.85,950.511 2232.05,954.308 2230.19,958.092 2228.27,961.864 2226.29,965.623 2224.26,969.37 2222.18,973.106 2220.04,976.832 2217.87,980.548 2215.65,984.255 2213.41,987.956 2211.14,991.651 2208.85,995.343 2206.55,999.032 2204.26,1002.72 2201.98,1006.42 2199.72,1010.11 2197.42,1013.8 2195.05,1017.47 2192.61,1021.12 2190.1,1024.75 2187.52,1028.36 2184.87,1031.95 2182.16,1035.52 2179.38,1039.06 2176.54,1042.58 2173.63,1046.08 2170.66,1049.55 2167.63,1053 2164.55,1056.43 2161.42,1059.83 2158.23,1063.22 2154.99,1066.58 2151.72,1069.93 2148.4,1073.25 2145.04,1076.56 2141.65,1079.86 2138.23,1083.14 2134.79,1086.41 2131.33,1089.67 2127.85,1092.93 2124.36,1096.18 2120.87,1099.42 2117.38,1102.67 2113.9,1105.93 2110.43,1109.19 2106.98,1112.45 2103.53,1115.72 2100.07,1118.99 2096.6,1122.25 2093.11,1125.51 2089.59,1128.75 2086.05,1131.97 2082.46,1135.18 2078.84,1138.36 2075.18,1141.53 2071.48,1144.67 2067.72,1147.79 2063.93,1150.88 2060.09,1153.96 2056.2,1157.01 2052.27,1160.03 2048.3,1163.04 2044.3,1166.03 2040.26,1169 2036.2,1171.95 2032.12,1174.9 2028.02,1177.84 2023.92,1180.77 2019.82,1183.71 2015.73,1186.65 2011.65,1189.6 2007.53,1192.53 2003.38,1195.43 1999.2,1198.31 1994.97,1201.16 1990.69,1203.98 1986.38,1206.77 1982.02,1209.53 1977.62,1212.26 1973.17,1214.96 1968.69,1217.62 1964.16,1220.26 1959.6,1222.87 1955,1225.45 1950.37,1228 1945.72,1230.54 1941.04,1233.06 1936.34,1235.56 1931.63,1238.05 1926.91,1240.54 1922.18,1243.03 1917.47,1245.52 1912.75,1248 1907.96,1250.43 1903.1,1252.79 1898.17,1255.09 1893.2,1257.35 1888.18,1259.57 1883.13,1261.76 1878.05,1263.93 1872.96,1266.09 1867.85,1268.23 1862.74,1270.37 1857.62,1272.5 1852.51,1274.64 1847.4,1276.78 1842.29,1278.92 1837.2,1281.07 1832.1,1283.23 1827.02,1285.39 1821.94,1287.55 1816.86,1289.72 1811.78,1291.88 1806.69,1294.04 1801.56,1296.15 1796.38,1298.23 1791.16,1300.25 1785.9,1302.23 1780.6,1304.16 1775.26,1306.04 1769.89,1307.88 1764.47,1309.67 1759.03,1311.41 1753.56,1313.11 1748.05,1314.77 1742.52,1316.39 1736.97,1317.97 1731.39,1319.52 1725.8,1321.03 1720.19,1322.52 1714.56,1323.99 1708.92,1325.44 1703.28,1326.87 1697.62,1328.29 1691.97,1329.71 1686.32,1331.13 1680.67,1332.56 1675.03,1334.01 1669.42,1335.52 1663.82,1337.05 1658.22,1338.6 1652.63,1340.14 1647.02,1341.67 1641.41,1343.18 1635.78,1344.66 1630.14,1346.09 1624.47,1347.47 1618.77,1348.8 1613.05,1350.07 1607.3,1351.27 1601.52,1352.42 1595.72,1353.5 1589.89,1354.53 1584.03,1355.5 1578.15,1356.41 1572.25,1357.29 1566.33,1358.12 1560.4,1358.93 1554.46,1359.72 1548.51,1360.5 1542.58,1361.29 1536.65,1362.11 1530.73,1362.96 1524.82,1363.85 1518.92,1364.76 1513.02,1365.68 1507.12,1366.59 1501.21,1367.49 1495.3,1368.36 1489.38,1369.2 1483.45,1370 1477.51,1370.76 1471.57,1371.48 1465.61,1372.14 1459.64,1372.76 1453.66,1373.32 1447.67,1373.83 1441.66,1374.3 1435.65,1374.73 1429.63,1375.12 1423.61,1375.48 1417.57,1375.82 1411.54,1376.15 1405.51,1376.47 1399.47,1376.81 1393.45,1377.16 1387.41,1377.51 1381.38,1377.83 1375.34,1378.13 1369.29,1378.4 1363.25,1378.63 1357.2,1378.84 1351.15,1379 1345.1,1379.13 1339.05,1379.22 1333.01,1379.27 1326.96,1379.27 1320.91,1379.24 1314.87,1379.16 1308.83,1379.05 1302.79,1378.9 1296.75,1378.72 1290.72,1378.5 1284.68,1378.26 1278.65,1377.99 1272.62,1377.7 1266.59,1377.4 1260.56,1377.09 1254.53,1376.77 1248.5,1376.46 1242.47,1376.16 1236.44,1375.86 1230.4,1375.58 1224.36,1375.28 1218.33,1374.98 1212.29,1374.66 1206.26,1374.31 1200.24,1373.94 1194.22,1373.54 1188.21,1373.11 1182.21,1372.64 1176.22,1372.13 1170.24,1371.58 1164.27,1370.99 1158.31,1370.35 1152.37,1369.67 1146.43,1368.95 1140.5,1368.19 1134.59,1367.39 1128.68,1366.55 1122.79,1365.68 1116.9,1364.78 1111.02,1363.85 1105.15,1362.89 1099.28,1361.92 1093.41,1360.94 1087.55,1359.95 1081.68,1358.96 1075.81,1357.99 1069.94,1357.02 1064.08,1356.04 1058.22,1355.03 1052.37,1353.99 1046.54,1352.92 1040.73,1351.81 1034.93,1350.66 1029.15,1349.48 1023.39,1348.26 1017.65,1347 1011.93,1345.69 1006.24,1344.36 1000.56,1342.98 994.908,1341.56 989.278,1340.11 983.668,1338.62 978.08,1337.1 972.512,1335.54 966.963,1333.96 961.431,1332.34 955.915,1330.7 950.414,1329.04 944.926,1327.36 939.448,1325.66 933.978,1323.95 928.513,1322.23 923.052,1320.51 917.589,1318.79 912.124,1317.07 906.648,1315.37 901.14,1313.7 895.606,1312.06 890.054,1310.43 884.493,1308.82 878.93,1307.21 873.373,1305.59 867.828,1303.95 862.302,1302.3 856.799,1300.62 851.325,1298.9 845.883,1297.16 840.478,1295.37 835.111,1293.54 829.787,1291.66 824.505,1289.74 819.268,1287.77 814.076,1285.74 808.929,1283.68 803.825,1281.56 798.764,1279.39 793.744,1277.19 788.762,1274.94 783.815,1272.65 778.899,1270.33 774.01,1267.98 769.143,1265.61 764.291,1263.21 759.451,1260.81 754.613,1258.41 749.77,1256 744.916,1253.62 740.048,1251.25 735.246,1248.84 730.515,1246.39 725.833,1243.9 721.18,1241.41 716.538,1238.9 711.893,1236.39 707.23,1233.9 702.538,1231.42 697.808,1228.96 693.033,1226.53 688.207,1224.13 683.328,1221.77 678.393,1219.43 673.405,1217.12 668.366,1214.84 663.282,1212.59 658.16,1210.36 653.008,1208.14 647.839,1205.92 642.665,1203.71 637.503,1201.49 632.369,1199.24 627.284,1196.96 622.269,1194.63 617.348,1192.23 612.546,1189.76 607.892,1187.19 603.416,1184.5 599.142,1181.68 594.921,1178.82 590.686,1175.97 586.452,1173.12 582.232,1170.26 578.036,1167.39 573.875,1164.49 569.756,1161.58 565.687,1158.63 561.673,1155.66 557.718,1152.66 553.825,1149.62 549.994,1146.55 546.224,1143.44 542.516,1140.31 538.863,1137.14 535.263,1133.95 531.708,1130.73 528.191,1127.5 524.702,1124.24 521.232,1120.98 517.767,1117.72 514.294,1114.46 510.8,1111.21 507.291,1107.96 503.782,1104.71 500.281,1101.46 496.795,1098.2 493.33,1094.93 489.893,1091.64 486.488,1088.34 483.12,1085.03 479.794,1081.7 476.513,1078.35 473.279,1074.99 470.095,1071.6 466.962,1068.2 463.881,1064.77 460.851,1061.33 457.874,1057.87 454.946,1054.39 452.068,1050.89 449.235,1047.37 446.446,1043.84 443.696,1040.3 440.981,1036.74 438.297,1033.17 435.637,1029.59 432.995,1026.01 430.365,1022.42 427.738,1018.83 425.107,1015.25 422.463,1011.66 419.809,1008.08 417.198,1004.49 414.64,1000.87 412.139,997.236 409.696,993.585 407.315,989.915 404.997,986.229 402.744,982.526 400.557,978.806 398.436,975.071 396.382,971.321 394.394,967.556 392.472,963.777 390.616,959.984 388.822,956.179 387.091,952.362 385.418,948.534 383.802,944.695 382.24,940.846 380.727,936.989 379.26,933.124 377.835,929.251 376.446,925.373 375.089,921.489 373.758,917.602 372.446,913.711 371.147,909.818 369.855,905.923 368.561,902.03 367.258,898.137 365.938,894.247 364.577,890.362 363.172,886.481 361.734,882.603 360.276,878.728 358.807,874.854 357.337,870.979 355.875,867.104 354.43,863.227 353.009,859.348 351.618,855.466 350.263,851.579 348.951,847.689 347.684,843.794 346.468,839.893 345.304,835.988 344.196,832.077 343.144,828.159 342.149,824.236 341.211,820.308 340.33,816.373 339.504,812.433 338.73,808.487 338.006,804.536 337.328,800.581 336.691,796.621 336.089,792.658 335.518,788.692 334.97,784.723 334.437,780.752 333.912,776.781 333.385,772.81 332.846,768.84 332.285,764.873 331.724,760.905 331.217,756.93 330.769,752.949 330.383,748.964 330.063,744.976 329.81,740.986 329.627,736.995 329.515,733.003 329.476,729.012 329.511,725.023 329.62,721.035 329.803,717.05 330.06,713.068 330.39,709.09 330.792,705.116 331.264,701.146 331.804,697.181 332.41,693.22 333.079,689.264 333.808,685.313 334.592,681.366 335.428,677.424 336.311,673.486 337.237,669.552 338.2,665.621 339.194,661.694 340.213,657.768 341.25,653.845 342.299,649.923 343.352,646.001 344.402,642.078 345.439,638.155 346.458,634.228 347.495,630.301 348.565,626.376 349.674,622.453 350.825,618.535 352.021,614.622 353.266,610.716 354.561,606.817 355.909,602.927 357.311,599.046 358.77,595.175 360.286,591.314 361.859,587.465 363.49,583.627 365.179,579.801 366.926,575.987 368.728,572.184 370.586,568.394 372.498,564.615 374.461,560.848 376.474,557.091 378.533,553.345 380.635,549.609 382.778,545.882 384.956,542.164 387.166,538.453 389.403,534.748 391.662,531.049 393.938,527.354 396.225,523.661 398.517,519.97 400.808,516.278 403.089,512.584 405.355,508.886 407.627,505.19 409.95,501.505 412.326,497.834 414.756,494.178 417.239,490.537 419.777,486.912 422.368,483.304 425.014,479.714 427.713,476.141 430.466,472.588 433.272,469.053 436.129,465.537 439.038,462.04 441.997,458.562 445.004,455.103 448.06,451.663 451.161,448.242 454.306,444.839 457.494,441.453 460.723,438.084 463.99,434.732 467.293,431.395 470.629,428.073 473.996,424.765 477.392,421.469 480.812,418.185 484.255,414.91 487.717,411.644 491.194,408.386 494.682,405.133 498.179,401.883 501.68,398.636 505.182,395.389 508.679,392.14 512.168,388.886 515.646,385.628 519.133,382.372 522.64,379.122 526.169,375.881 529.721,372.651 533.3,369.432 536.908,366.228 540.545,363.039 544.214,359.867 547.916,356.712 551.653,353.576 555.424,350.46 559.232,347.364 563.077,344.289 566.958,341.236 570.877,338.205 574.833,335.195 578.827,332.208 582.857,329.243 586.924,326.301 591.026,323.379 595.162,320.479 599.332,317.599 603.534,314.739 607.766,311.898 612.027,309.075 616.315,306.268 620.627,303.477 624.961,300.7 629.316,297.936 633.687,295.182 638.072,292.437 642.468,289.699 646.872,286.966 651.28,284.236 655.688,281.505 660.093,278.773 664.49,276.035 668.875,273.291 673.271,270.553 677.699,267.836 682.16,265.142 686.655,262.472 691.183,259.828 695.747,257.211 700.346,254.621 704.98,252.059 709.65,249.527 714.355,247.023 719.095,244.548 723.869,242.102 728.677,239.686 733.518,237.297 738.39,234.937 743.292,232.603 748.224,230.295 753.183,228.011 758.167,225.751 763.174,223.512 768.203,221.292 773.251,219.09 778.315,216.904 783.394,214.73 788.483,212.566 793.58,210.41 798.681,208.258 803.783,206.108 808.883,203.955 813.981,201.8 819.106,199.672 824.263,197.576 829.452,195.513 834.671,193.483 839.921,191.487 845.2,189.524 850.508,187.596 855.843,185.701 861.205,183.84 866.592,182.012 872.005,180.217 877.441,178.455 882.9,176.724 888.38,175.024 893.882,173.353 899.403,171.712 904.942,170.098 910.498,168.511 916.07,166.948 921.657,165.409 927.258,163.891 932.871,162.394 938.494,160.914 944.127,159.45 949.768,158 955.416,156.562 961.069,155.132 966.726,153.709 972.385,152.29 978.045,150.872 983.703,149.452 989.359,148.027 995.016,146.601 1000.7,145.223 1006.42,143.902 1012.16,142.637 1017.93,141.427 1023.73,140.272 1029.56,139.169 1035.4,138.118 1041.27,137.118 1047.15,136.166 1053.06,135.263 1058.97,134.406 1064.91,133.593 1070.86,132.824 1076.81,132.096 1082.78,131.408 1088.76,130.758 1094.75,130.143 1100.75,129.563 1106.75,129.016 1112.76,128.498 1118.78,128.008 1124.79,127.544 1130.81,127.103 1136.84,126.683 1142.87,126.282 1148.89,125.898 1154.92,125.527 1160.95,125.167 1166.99,124.816 1173.02,124.471 1179.05,124.128 1185.08,123.786 1191.11,123.441 1197.15,123.09 1203.18,122.733 1209.22,122.388 1215.26,122.062 1221.3,121.758 1227.35,121.48 1233.4,121.231 1239.45,121.014 1245.51,120.83 1251.56,120.681 1257.61,120.569 1263.67,120.495 1269.72,120.458 1275.77,120.46 1281.82,120.5 1287.87,120.576 1293.92,120.689 1299.96,120.835 1306.01,121.014 1312.05,121.223 1318.09,121.459 1324.13,121.718 1330.16,121.998 1336.2,122.293 1342.23,122.6 1348.27,122.913 1354.3,123.228 1360.34,123.538 1366.37,123.838 "/>
<path clip-path="url(#clip300)" d="M327.056 248.629 L750.198 248.629 L750.198 93.1086 L327.056 93.1086  Z" fill="#ffffff" fill-rule="evenodd" fill-opacity="1"/>
<polyline clip-path="url(#clip300)" style="stroke:#000000; stroke-linecap:round; stroke-linejoin:round; stroke-width:4; stroke-opacity:1; fill:none" points="327.056,248.629 750.198,248.629 750.198,93.1086 327.056,93.1086 327.056,248.629 "/>
<polyline clip-path="url(#clip300)" style="stroke:#009af9; stroke-linecap:round; stroke-linejoin:round; stroke-width:16; stroke-opacity:1; fill:none" points="350.34,144.949 490.043,144.949 "/>
<path clip-path="url(#clip300)" d="M529.345 130.84 Q524.253 130.84 521.244 134.636 Q518.258 138.432 518.258 144.983 Q518.258 151.511 521.244 155.307 Q524.253 159.104 529.345 159.104 Q534.438 159.104 537.401 155.307 Q540.387 151.511 540.387 144.983 Q540.387 138.432 537.401 134.636 Q534.438 130.84 529.345 130.84 M529.345 127.044 Q536.614 127.044 540.966 131.928 Q545.318 136.789 545.318 144.983 Q545.318 153.155 540.966 158.039 Q536.614 162.9 529.345 162.9 Q522.054 162.9 517.679 158.039 Q513.327 153.178 513.327 144.983 Q513.327 136.789 517.679 131.928 Q522.054 127.044 529.345 127.044 Z" fill="#000000" fill-rule="nonzero" fill-opacity="1" /><path clip-path="url(#clip300)" d="M567.47 140.284 Q566.753 139.868 565.896 139.682 Q565.063 139.474 564.044 139.474 Q560.433 139.474 558.489 141.835 Q556.568 144.173 556.568 148.571 L556.568 162.229 L552.285 162.229 L552.285 136.303 L556.568 136.303 L556.568 140.331 Q557.91 137.969 560.063 136.835 Q562.216 135.678 565.294 135.678 Q565.734 135.678 566.267 135.747 Q566.799 135.794 567.447 135.909 L567.47 140.284 Z" fill="#000000" fill-rule="nonzero" fill-opacity="1" /><path clip-path="url(#clip300)" d="M571.938 136.303 L576.197 136.303 L576.197 162.229 L571.938 162.229 L571.938 136.303 M571.938 126.21 L576.197 126.21 L576.197 131.604 L571.938 131.604 L571.938 126.21 Z" fill="#000000" fill-rule="nonzero" fill-opacity="1" /><path clip-path="url(#clip300)" d="M602.169 148.965 Q602.169 144.335 600.248 141.789 Q598.35 139.243 594.901 139.243 Q591.475 139.243 589.553 141.789 Q587.655 144.335 587.655 148.965 Q587.655 153.571 589.553 156.118 Q591.475 158.664 594.901 158.664 Q598.35 158.664 600.248 156.118 Q602.169 153.571 602.169 148.965 M606.428 159.011 Q606.428 165.631 603.489 168.849 Q600.549 172.09 594.484 172.09 Q592.239 172.09 590.248 171.742 Q588.257 171.418 586.382 170.724 L586.382 166.58 Q588.257 167.599 590.086 168.085 Q591.915 168.571 593.813 168.571 Q598.003 168.571 600.086 166.372 Q602.169 164.196 602.169 159.775 L602.169 157.668 Q600.85 159.96 598.79 161.094 Q596.729 162.229 593.859 162.229 Q589.091 162.229 586.174 158.594 Q583.257 154.96 583.257 148.965 Q583.257 142.946 586.174 139.312 Q589.091 135.678 593.859 135.678 Q596.729 135.678 598.79 136.812 Q600.85 137.946 602.169 140.238 L602.169 136.303 L606.428 136.303 L606.428 159.011 Z" fill="#000000" fill-rule="nonzero" fill-opacity="1" /><path clip-path="url(#clip300)" d="M615.201 136.303 L619.461 136.303 L619.461 162.229 L615.201 162.229 L615.201 136.303 M615.201 126.21 L619.461 126.21 L619.461 131.604 L615.201 131.604 L615.201 126.21 Z" fill="#000000" fill-rule="nonzero" fill-opacity="1" /><path clip-path="url(#clip300)" d="M649.924 146.581 L649.924 162.229 L645.664 162.229 L645.664 146.719 Q645.664 143.039 644.229 141.21 Q642.794 139.382 639.924 139.382 Q636.475 139.382 634.484 141.581 Q632.493 143.78 632.493 147.576 L632.493 162.229 L628.211 162.229 L628.211 136.303 L632.493 136.303 L632.493 140.331 Q634.021 137.993 636.081 136.835 Q638.164 135.678 640.873 135.678 Q645.34 135.678 647.632 138.456 Q649.924 141.21 649.924 146.581 Z" fill="#000000" fill-rule="nonzero" fill-opacity="1" /><path clip-path="url(#clip300)" d="M670.201 149.196 Q665.039 149.196 663.048 150.377 Q661.058 151.557 661.058 154.405 Q661.058 156.673 662.539 158.016 Q664.044 159.335 666.613 159.335 Q670.155 159.335 672.285 156.835 Q674.437 154.312 674.437 150.145 L674.437 149.196 L670.201 149.196 M678.697 147.437 L678.697 162.229 L674.437 162.229 L674.437 158.293 Q672.979 160.655 670.803 161.789 Q668.627 162.9 665.479 162.9 Q661.498 162.9 659.136 160.678 Q656.798 158.432 656.798 154.682 Q656.798 150.307 659.715 148.085 Q662.655 145.863 668.465 145.863 L674.437 145.863 L674.437 145.446 Q674.437 142.507 672.493 140.909 Q670.572 139.289 667.076 139.289 Q664.854 139.289 662.748 139.821 Q660.641 140.354 658.697 141.419 L658.697 137.483 Q661.035 136.581 663.234 136.141 Q665.433 135.678 667.516 135.678 Q673.141 135.678 675.919 138.594 Q678.697 141.511 678.697 147.437 Z" fill="#000000" fill-rule="nonzero" fill-opacity="1" /><path clip-path="url(#clip300)" d="M687.47 126.21 L691.729 126.21 L691.729 162.229 L687.47 162.229 L687.47 126.21 Z" fill="#000000" fill-rule="nonzero" fill-opacity="1" /><polyline clip-path="url(#clip300)" style="stroke:#e26f46; stroke-linecap:round; stroke-linejoin:round; stroke-width:16; stroke-opacity:1; fill:none" points="350.34,196.789 490.043,196.789 "/>
<path clip-path="url(#clip300)" d="M518.003 183.351 L518.003 196.337 L523.883 196.337 Q527.146 196.337 528.929 194.647 Q530.711 192.958 530.711 189.833 Q530.711 186.731 528.929 185.041 Q527.146 183.351 523.883 183.351 L518.003 183.351 M513.327 179.509 L523.883 179.509 Q529.693 179.509 532.656 182.147 Q535.642 184.763 535.642 189.833 Q535.642 194.948 532.656 197.564 Q529.693 200.18 523.883 200.18 L518.003 200.18 L518.003 214.069 L513.327 214.069 L513.327 179.509 Z" fill="#000000" fill-rule="nonzero" fill-opacity="1" /><path clip-path="url(#clip300)" d="M555.919 192.124 Q555.202 191.708 554.345 191.522 Q553.512 191.314 552.493 191.314 Q548.882 191.314 546.938 193.675 Q545.017 196.013 545.017 200.411 L545.017 214.069 L540.734 214.069 L540.734 188.143 L545.017 188.143 L545.017 192.171 Q546.359 189.809 548.512 188.675 Q550.665 187.518 553.743 187.518 Q554.183 187.518 554.716 187.587 Q555.248 187.634 555.896 187.749 L555.919 192.124 Z" fill="#000000" fill-rule="nonzero" fill-opacity="1" /><path clip-path="url(#clip300)" d="M581.521 200.041 L581.521 202.124 L561.938 202.124 Q562.216 206.522 564.577 208.837 Q566.961 211.129 571.197 211.129 Q573.651 211.129 575.942 210.527 Q578.257 209.925 580.526 208.721 L580.526 212.749 Q578.234 213.721 575.827 214.231 Q573.419 214.74 570.942 214.74 Q564.739 214.74 561.105 211.129 Q557.493 207.518 557.493 201.36 Q557.493 194.995 560.919 191.268 Q564.368 187.518 570.202 187.518 Q575.433 187.518 578.466 190.897 Q581.521 194.254 581.521 200.041 M577.262 198.791 Q577.216 195.296 575.294 193.212 Q573.396 191.129 570.248 191.129 Q566.683 191.129 564.53 193.143 Q562.401 195.157 562.077 198.814 L577.262 198.791 Z" fill="#000000" fill-rule="nonzero" fill-opacity="1" /><path clip-path="url(#clip300)" d="M605.572 192.078 L605.572 178.05 L609.831 178.05 L609.831 214.069 L605.572 214.069 L605.572 210.18 Q604.229 212.495 602.169 213.629 Q600.132 214.74 597.262 214.74 Q592.563 214.74 589.6 210.99 Q586.66 207.24 586.66 201.129 Q586.66 195.018 589.6 191.268 Q592.563 187.518 597.262 187.518 Q600.132 187.518 602.169 188.652 Q604.229 189.763 605.572 192.078 M591.058 201.129 Q591.058 205.828 592.979 208.513 Q594.924 211.175 598.303 211.175 Q601.683 211.175 603.627 208.513 Q605.572 205.828 605.572 201.129 Q605.572 196.43 603.627 193.768 Q601.683 191.083 598.303 191.083 Q594.924 191.083 592.979 193.768 Q591.058 196.43 591.058 201.129 Z" fill="#000000" fill-rule="nonzero" fill-opacity="1" /><path clip-path="url(#clip300)" d="M618.604 188.143 L622.863 188.143 L622.863 214.069 L618.604 214.069 L618.604 188.143 M618.604 178.05 L622.863 178.05 L622.863 183.444 L618.604 183.444 L618.604 178.05 Z" fill="#000000" fill-rule="nonzero" fill-opacity="1" /><path clip-path="url(#clip300)" d="M650.433 189.138 L650.433 193.12 Q648.627 192.124 646.799 191.638 Q644.993 191.129 643.141 191.129 Q638.998 191.129 636.706 193.768 Q634.414 196.384 634.414 201.129 Q634.414 205.874 636.706 208.513 Q638.998 211.129 643.141 211.129 Q644.993 211.129 646.799 210.643 Q648.627 210.133 650.433 209.138 L650.433 213.073 Q648.65 213.907 646.729 214.323 Q644.831 214.74 642.678 214.74 Q636.822 214.74 633.373 211.059 Q629.924 207.379 629.924 201.129 Q629.924 194.786 633.396 191.152 Q636.891 187.518 642.956 187.518 Q644.924 187.518 646.799 187.935 Q648.674 188.328 650.433 189.138 Z" fill="#000000" fill-rule="nonzero" fill-opacity="1" /><path clip-path="url(#clip300)" d="M662.053 180.782 L662.053 188.143 L670.826 188.143 L670.826 191.453 L662.053 191.453 L662.053 205.527 Q662.053 208.698 662.91 209.601 Q663.789 210.504 666.451 210.504 L670.826 210.504 L670.826 214.069 L666.451 214.069 Q661.521 214.069 659.646 212.24 Q657.771 210.388 657.771 205.527 L657.771 191.453 L654.646 191.453 L654.646 188.143 L657.771 188.143 L657.771 180.782 L662.053 180.782 Z" fill="#000000" fill-rule="nonzero" fill-opacity="1" /><path clip-path="url(#clip300)" d="M698.604 200.041 L698.604 202.124 L679.021 202.124 Q679.298 206.522 681.659 208.837 Q684.044 211.129 688.28 211.129 Q690.733 211.129 693.025 210.527 Q695.34 209.925 697.608 208.721 L697.608 212.749 Q695.317 213.721 692.909 214.231 Q690.502 214.74 688.025 214.74 Q681.822 214.74 678.187 211.129 Q674.576 207.518 674.576 201.36 Q674.576 194.995 678.002 191.268 Q681.451 187.518 687.284 187.518 Q692.516 187.518 695.548 190.897 Q698.604 194.254 698.604 200.041 M694.345 198.791 Q694.298 195.296 692.377 193.212 Q690.479 191.129 687.331 191.129 Q683.766 191.129 681.613 193.143 Q679.484 195.157 679.159 198.814 L694.345 198.791 Z" fill="#000000" fill-rule="nonzero" fill-opacity="1" /><path clip-path="url(#clip300)" d="M722.655 192.078 L722.655 178.05 L726.914 178.05 L726.914 214.069 L722.655 214.069 L722.655 210.18 Q721.312 212.495 719.252 213.629 Q717.215 214.74 714.344 214.74 Q709.645 214.74 706.682 210.99 Q703.743 207.24 703.743 201.129 Q703.743 195.018 706.682 191.268 Q709.645 187.518 714.344 187.518 Q717.215 187.518 719.252 188.652 Q721.312 189.763 722.655 192.078 M708.141 201.129 Q708.141 205.828 710.062 208.513 Q712.007 211.175 715.386 211.175 Q718.766 211.175 720.71 208.513 Q722.655 205.828 722.655 201.129 Q722.655 196.43 720.71 193.768 Q718.766 191.083 715.386 191.083 Q712.007 191.083 710.062 193.768 Q708.141 196.43 708.141 201.129 Z" fill="#000000" fill-rule="nonzero" fill-opacity="1" /></svg>
