<?xml version="1.0" encoding="utf-8"?>
<svg xmlns="http://www.w3.org/2000/svg" xmlns:xlink="http://www.w3.org/1999/xlink" width="600" height="400" viewBox="0 0 2400 1600">
<defs>
  <clipPath id="clip360">
    <rect x="0" y="0" width="2400" height="1600"/>
  </clipPath>
</defs>
<path clip-path="url(#clip360)" d="M0 1600 L2400 1600 L2400 0 L0 0  Z" fill="#ffffff" fill-rule="evenodd" fill-opacity="1"/>
<defs>
  <clipPath id="clip361">
    <rect x="480" y="0" width="1681" height="1600"/>
  </clipPath>
</defs>
<path clip-path="url(#clip360)" d="M257.204 1423.18 L2352.76 1423.18 L2352.76 47.2441 L257.204 47.2441  Z" fill="#ffffff" fill-rule="evenodd" fill-opacity="1"/>
<defs>
  <clipPath id="clip362">
    <rect x="257" y="47" width="2097" height="1377"/>
  </clipPath>
</defs>
<polyline clip-path="url(#clip362)" style="stroke:#000000; stroke-linecap:round; stroke-linejoin:round; stroke-width:2; stroke-opacity:0.1; fill:none" points="326.898,1423.18 326.898,47.2441 "/>
<polyline clip-path="url(#clip362)" style="stroke:#000000; stroke-linecap:round; stroke-linejoin:round; stroke-width:2; stroke-opacity:0.1; fill:none" points="818.536,1423.18 818.536,47.2441 "/>
<polyline clip-path="url(#clip362)" style="stroke:#000000; stroke-linecap:round; stroke-linejoin:round; stroke-width:2; stroke-opacity:0.1; fill:none" points="1310.17,1423.18 1310.17,47.2441 "/>
<polyline clip-path="url(#clip362)" style="stroke:#000000; stroke-linecap:round; stroke-linejoin:round; stroke-width:2; stroke-opacity:0.1; fill:none" points="1801.81,1423.18 1801.81,47.2441 "/>
<polyline clip-path="url(#clip362)" style="stroke:#000000; stroke-linecap:round; stroke-linejoin:round; stroke-width:2; stroke-opacity:0.1; fill:none" points="2293.45,1423.18 2293.45,47.2441 "/>
<polyline clip-path="url(#clip360)" style="stroke:#000000; stroke-linecap:round; stroke-linejoin:round; stroke-width:4; stroke-opacity:1; fill:none" points="257.204,1423.18 2352.76,1423.18 "/>
<polyline clip-path="url(#clip360)" style="stroke:#000000; stroke-linecap:round; stroke-linejoin:round; stroke-width:4; stroke-opacity:1; fill:none" points="326.898,1423.18 326.898,1404.28 "/>
<polyline clip-path="url(#clip360)" style="stroke:#000000; stroke-linecap:round; stroke-linejoin:round; stroke-width:4; stroke-opacity:1; fill:none" points="818.536,1423.18 818.536,1404.28 "/>
<polyline clip-path="url(#clip360)" style="stroke:#000000; stroke-linecap:round; stroke-linejoin:round; stroke-width:4; stroke-opacity:1; fill:none" points="1310.17,1423.18 1310.17,1404.28 "/>
<polyline clip-path="url(#clip360)" style="stroke:#000000; stroke-linecap:round; stroke-linejoin:round; stroke-width:4; stroke-opacity:1; fill:none" points="1801.81,1423.18 1801.81,1404.28 "/>
<polyline clip-path="url(#clip360)" style="stroke:#000000; stroke-linecap:round; stroke-linejoin:round; stroke-width:4; stroke-opacity:1; fill:none" points="2293.45,1423.18 2293.45,1404.28 "/>
<path clip-path="url(#clip360)" d="M273.427 1468.75 L303.102 1468.75 L303.102 1472.69 L273.427 1472.69 L273.427 1468.75 Z" fill="#000000" fill-rule="nonzero" fill-opacity="1" /><path clip-path="url(#clip360)" d="M314.005 1481.64 L321.644 1481.64 L321.644 1455.28 L313.334 1456.95 L313.334 1452.69 L321.598 1451.02 L326.273 1451.02 L326.273 1481.64 L333.912 1481.64 L333.912 1485.58 L314.005 1485.58 L314.005 1481.64 Z" fill="#000000" fill-rule="nonzero" fill-opacity="1" /><path clip-path="url(#clip360)" d="M343.357 1479.7 L348.241 1479.7 L348.241 1485.58 L343.357 1485.58 L343.357 1479.7 Z" fill="#000000" fill-rule="nonzero" fill-opacity="1" /><path clip-path="url(#clip360)" d="M368.426 1454.1 Q364.815 1454.1 362.986 1457.66 Q361.181 1461.2 361.181 1468.33 Q361.181 1475.44 362.986 1479.01 Q364.815 1482.55 368.426 1482.55 Q372.06 1482.55 373.866 1479.01 Q375.694 1475.44 375.694 1468.33 Q375.694 1461.2 373.866 1457.66 Q372.06 1454.1 368.426 1454.1 M368.426 1450.39 Q374.236 1450.39 377.292 1455 Q380.37 1459.58 380.37 1468.33 Q380.37 1477.06 377.292 1481.67 Q374.236 1486.25 368.426 1486.25 Q362.616 1486.25 359.537 1481.67 Q356.482 1477.06 356.482 1468.33 Q356.482 1459.58 359.537 1455 Q362.616 1450.39 368.426 1450.39 Z" fill="#000000" fill-rule="nonzero" fill-opacity="1" /><path clip-path="url(#clip360)" d="M765.562 1468.75 L795.238 1468.75 L795.238 1472.69 L765.562 1472.69 L765.562 1468.75 Z" fill="#000000" fill-rule="nonzero" fill-opacity="1" /><path clip-path="url(#clip360)" d="M815.33 1454.1 Q811.719 1454.1 809.89 1457.66 Q808.085 1461.2 808.085 1468.33 Q808.085 1475.44 809.89 1479.01 Q811.719 1482.55 815.33 1482.55 Q818.964 1482.55 820.77 1479.01 Q822.599 1475.44 822.599 1468.33 Q822.599 1461.2 820.77 1457.66 Q818.964 1454.1 815.33 1454.1 M815.33 1450.39 Q821.14 1450.39 824.196 1455 Q827.274 1459.58 827.274 1468.33 Q827.274 1477.06 824.196 1481.67 Q821.14 1486.25 815.33 1486.25 Q809.52 1486.25 806.441 1481.67 Q803.386 1477.06 803.386 1468.33 Q803.386 1459.58 806.441 1455 Q809.52 1450.39 815.33 1450.39 Z" fill="#000000" fill-rule="nonzero" fill-opacity="1" /><path clip-path="url(#clip360)" d="M835.492 1479.7 L840.376 1479.7 L840.376 1485.58 L835.492 1485.58 L835.492 1479.7 Z" fill="#000000" fill-rule="nonzero" fill-opacity="1" /><path clip-path="url(#clip360)" d="M850.608 1451.02 L868.964 1451.02 L868.964 1454.96 L854.89 1454.96 L854.89 1463.43 Q855.909 1463.08 856.927 1462.92 Q857.946 1462.73 858.964 1462.73 Q864.751 1462.73 868.131 1465.9 Q871.51 1469.08 871.51 1474.49 Q871.51 1480.07 868.038 1483.17 Q864.566 1486.25 858.247 1486.25 Q856.071 1486.25 853.802 1485.88 Q851.557 1485.51 849.149 1484.77 L849.149 1480.07 Q851.233 1481.2 853.455 1481.76 Q855.677 1482.32 858.154 1482.32 Q862.159 1482.32 864.496 1480.21 Q866.834 1478.1 866.834 1474.49 Q866.834 1470.88 864.496 1468.77 Q862.159 1466.67 858.154 1466.67 Q856.279 1466.67 854.404 1467.08 Q852.552 1467.5 850.608 1468.38 L850.608 1451.02 Z" fill="#000000" fill-rule="nonzero" fill-opacity="1" /><path clip-path="url(#clip360)" d="M1287.56 1454.1 Q1283.95 1454.1 1282.12 1457.66 Q1280.31 1461.2 1280.31 1468.33 Q1280.31 1475.44 1282.12 1479.01 Q1283.95 1482.55 1287.56 1482.55 Q1291.19 1482.55 1293 1479.01 Q1294.83 1475.44 1294.83 1468.33 Q1294.83 1461.2 1293 1457.66 Q1291.19 1454.1 1287.56 1454.1 M1287.56 1450.39 Q1293.37 1450.39 1296.42 1455 Q1299.5 1459.58 1299.5 1468.33 Q1299.5 1477.06 1296.42 1481.67 Q1293.37 1486.25 1287.56 1486.25 Q1281.75 1486.25 1278.67 1481.67 Q1275.61 1477.06 1275.61 1468.33 Q1275.61 1459.58 1278.67 1455 Q1281.75 1450.39 1287.56 1450.39 Z" fill="#000000" fill-rule="nonzero" fill-opacity="1" /><path clip-path="url(#clip360)" d="M1307.72 1479.7 L1312.6 1479.7 L1312.6 1485.58 L1307.72 1485.58 L1307.72 1479.7 Z" fill="#000000" fill-rule="nonzero" fill-opacity="1" /><path clip-path="url(#clip360)" d="M1332.79 1454.1 Q1329.18 1454.1 1327.35 1457.66 Q1325.54 1461.2 1325.54 1468.33 Q1325.54 1475.44 1327.35 1479.01 Q1329.18 1482.55 1332.79 1482.55 Q1336.42 1482.55 1338.23 1479.01 Q1340.06 1475.44 1340.06 1468.33 Q1340.06 1461.2 1338.23 1457.66 Q1336.42 1454.1 1332.79 1454.1 M1332.79 1450.39 Q1338.6 1450.39 1341.66 1455 Q1344.73 1459.58 1344.73 1468.33 Q1344.73 1477.06 1341.66 1481.67 Q1338.6 1486.25 1332.79 1486.25 Q1326.98 1486.25 1323.9 1481.67 Q1320.84 1477.06 1320.84 1468.33 Q1320.84 1459.58 1323.9 1455 Q1326.98 1450.39 1332.79 1450.39 Z" fill="#000000" fill-rule="nonzero" fill-opacity="1" /><path clip-path="url(#clip360)" d="M1779.69 1454.1 Q1776.08 1454.1 1774.25 1457.66 Q1772.45 1461.2 1772.45 1468.33 Q1772.45 1475.44 1774.25 1479.01 Q1776.08 1482.55 1779.69 1482.55 Q1783.33 1482.55 1785.13 1479.01 Q1786.96 1475.44 1786.96 1468.33 Q1786.96 1461.2 1785.13 1457.66 Q1783.33 1454.1 1779.69 1454.1 M1779.69 1450.39 Q1785.5 1450.39 1788.56 1455 Q1791.64 1459.58 1791.64 1468.33 Q1791.64 1477.06 1788.56 1481.67 Q1785.5 1486.25 1779.69 1486.25 Q1773.88 1486.25 1770.8 1481.67 Q1767.75 1477.06 1767.75 1468.33 Q1767.75 1459.58 1770.8 1455 Q1773.88 1450.39 1779.69 1450.39 Z" fill="#000000" fill-rule="nonzero" fill-opacity="1" /><path clip-path="url(#clip360)" d="M1799.86 1479.7 L1804.74 1479.7 L1804.74 1485.58 L1799.86 1485.58 L1799.86 1479.7 Z" fill="#000000" fill-rule="nonzero" fill-opacity="1" /><path clip-path="url(#clip360)" d="M1814.97 1451.02 L1833.33 1451.02 L1833.33 1454.96 L1819.25 1454.96 L1819.25 1463.43 Q1820.27 1463.08 1821.29 1462.92 Q1822.31 1462.73 1823.33 1462.73 Q1829.11 1462.73 1832.49 1465.9 Q1835.87 1469.08 1835.87 1474.49 Q1835.87 1480.07 1832.4 1483.17 Q1828.93 1486.25 1822.61 1486.25 Q1820.43 1486.25 1818.17 1485.88 Q1815.92 1485.51 1813.51 1484.77 L1813.51 1480.07 Q1815.6 1481.2 1817.82 1481.76 Q1820.04 1482.32 1822.52 1482.32 Q1826.52 1482.32 1828.86 1480.21 Q1831.2 1478.1 1831.2 1474.49 Q1831.2 1470.88 1828.86 1468.77 Q1826.52 1466.67 1822.52 1466.67 Q1820.64 1466.67 1818.77 1467.08 Q1816.92 1467.5 1814.97 1468.38 L1814.97 1451.02 Z" fill="#000000" fill-rule="nonzero" fill-opacity="1" /><path clip-path="url(#clip360)" d="M2260.6 1481.64 L2268.24 1481.64 L2268.24 1455.28 L2259.93 1456.95 L2259.93 1452.69 L2268.19 1451.02 L2272.87 1451.02 L2272.87 1481.64 L2280.51 1481.64 L2280.51 1485.58 L2260.6 1485.58 L2260.6 1481.64 Z" fill="#000000" fill-rule="nonzero" fill-opacity="1" /><path clip-path="url(#clip360)" d="M2289.95 1479.7 L2294.84 1479.7 L2294.84 1485.58 L2289.95 1485.58 L2289.95 1479.7 Z" fill="#000000" fill-rule="nonzero" fill-opacity="1" /><path clip-path="url(#clip360)" d="M2315.02 1454.1 Q2311.41 1454.1 2309.58 1457.66 Q2307.78 1461.2 2307.78 1468.33 Q2307.78 1475.44 2309.58 1479.01 Q2311.41 1482.55 2315.02 1482.55 Q2318.66 1482.55 2320.46 1479.01 Q2322.29 1475.44 2322.29 1468.33 Q2322.29 1461.2 2320.46 1457.66 Q2318.66 1454.1 2315.02 1454.1 M2315.02 1450.39 Q2320.83 1450.39 2323.89 1455 Q2326.97 1459.58 2326.97 1468.33 Q2326.97 1477.06 2323.89 1481.67 Q2320.83 1486.25 2315.02 1486.25 Q2309.21 1486.25 2306.13 1481.67 Q2303.08 1477.06 2303.08 1468.33 Q2303.08 1459.58 2306.13 1455 Q2309.21 1450.39 2315.02 1450.39 Z" fill="#000000" fill-rule="nonzero" fill-opacity="1" /><path clip-path="url(#clip360)" d="M1134.03 1525.81 L1134.03 1543.66 L1142.11 1543.66 Q1146.6 1543.66 1149.05 1541.34 Q1151.5 1539.02 1151.5 1534.72 Q1151.5 1530.45 1149.05 1528.13 Q1146.6 1525.81 1142.11 1525.81 L1134.03 1525.81 M1127.6 1520.52 L1142.11 1520.52 Q1150.1 1520.52 1154.18 1524.15 Q1158.28 1527.75 1158.28 1534.72 Q1158.28 1541.75 1154.18 1545.35 Q1150.1 1548.95 1142.11 1548.95 L1134.03 1548.95 L1134.03 1568.04 L1127.6 1568.04 L1127.6 1520.52 Z" fill="#000000" fill-rule="nonzero" fill-opacity="1" /><path clip-path="url(#clip360)" d="M1178.14 1536.5 Q1173.43 1536.5 1170.7 1540.19 Q1167.96 1543.85 1167.96 1550.25 Q1167.96 1556.65 1170.66 1560.34 Q1173.4 1564 1178.14 1564 Q1182.82 1564 1185.56 1560.31 Q1188.3 1556.62 1188.3 1550.25 Q1188.3 1543.92 1185.56 1540.23 Q1182.82 1536.5 1178.14 1536.5 M1178.14 1531.54 Q1185.78 1531.54 1190.14 1536.5 Q1194.5 1541.47 1194.5 1550.25 Q1194.5 1559 1190.14 1564 Q1185.78 1568.97 1178.14 1568.97 Q1170.47 1568.97 1166.11 1564 Q1161.78 1559 1161.78 1550.25 Q1161.78 1541.47 1166.11 1536.5 Q1170.47 1531.54 1178.14 1531.54 Z" fill="#000000" fill-rule="nonzero" fill-opacity="1" /><path clip-path="url(#clip360)" d="M1226.94 1533.45 L1226.94 1538.98 Q1224.45 1537.71 1221.78 1537.07 Q1219.11 1536.44 1216.24 1536.44 Q1211.88 1536.44 1209.69 1537.77 Q1207.52 1539.11 1207.52 1541.79 Q1207.52 1543.82 1209.08 1545 Q1210.64 1546.15 1215.35 1547.2 L1217.36 1547.64 Q1223.59 1548.98 1226.2 1551.43 Q1228.85 1553.85 1228.85 1558.21 Q1228.85 1563.17 1224.9 1566.07 Q1220.98 1568.97 1214.11 1568.97 Q1211.24 1568.97 1208.13 1568.39 Q1205.04 1567.85 1201.6 1566.74 L1201.6 1560.69 Q1204.85 1562.38 1208 1563.24 Q1211.15 1564.07 1214.24 1564.07 Q1218.37 1564.07 1220.6 1562.66 Q1222.83 1561.23 1222.83 1558.65 Q1222.83 1556.27 1221.21 1554.99 Q1219.62 1553.72 1214.17 1552.54 L1212.14 1552.07 Q1206.69 1550.92 1204.27 1548.56 Q1201.86 1546.18 1201.86 1542.04 Q1201.86 1537.01 1205.42 1534.27 Q1208.99 1531.54 1215.54 1531.54 Q1218.79 1531.54 1221.65 1532.01 Q1224.52 1532.49 1226.94 1533.45 Z" fill="#000000" fill-rule="nonzero" fill-opacity="1" /><path clip-path="url(#clip360)" d="M1238.17 1532.4 L1244.03 1532.4 L1244.03 1568.04 L1238.17 1568.04 L1238.17 1532.4 M1238.17 1518.52 L1244.03 1518.52 L1244.03 1525.93 L1238.17 1525.93 L1238.17 1518.52 Z" fill="#000000" fill-rule="nonzero" fill-opacity="1" /><path clip-path="url(#clip360)" d="M1262.08 1522.27 L1262.08 1532.4 L1274.14 1532.4 L1274.14 1536.95 L1262.08 1536.95 L1262.08 1556.3 Q1262.08 1560.66 1263.25 1561.9 Q1264.46 1563.14 1268.12 1563.14 L1274.14 1563.14 L1274.14 1568.04 L1268.12 1568.04 Q1261.34 1568.04 1258.76 1565.53 Q1256.19 1562.98 1256.19 1556.3 L1256.19 1536.95 L1251.89 1536.95 L1251.89 1532.4 L1256.19 1532.4 L1256.19 1522.27 L1262.08 1522.27 Z" fill="#000000" fill-rule="nonzero" fill-opacity="1" /><path clip-path="url(#clip360)" d="M1281.84 1532.4 L1287.7 1532.4 L1287.7 1568.04 L1281.84 1568.04 L1281.84 1532.4 M1281.84 1518.52 L1287.7 1518.52 L1287.7 1525.93 L1281.84 1525.93 L1281.84 1518.52 Z" fill="#000000" fill-rule="nonzero" fill-opacity="1" /><path clip-path="url(#clip360)" d="M1313.76 1536.5 Q1309.05 1536.5 1306.32 1540.19 Q1303.58 1543.85 1303.58 1550.25 Q1303.58 1556.65 1306.28 1560.34 Q1309.02 1564 1313.76 1564 Q1318.44 1564 1321.18 1560.31 Q1323.92 1556.62 1323.92 1550.25 Q1323.92 1543.92 1321.18 1540.23 Q1318.44 1536.5 1313.76 1536.5 M1313.76 1531.54 Q1321.4 1531.54 1325.76 1536.5 Q1330.12 1541.47 1330.12 1550.25 Q1330.12 1559 1325.76 1564 Q1321.4 1568.97 1313.76 1568.97 Q1306.09 1568.97 1301.73 1564 Q1297.4 1559 1297.4 1550.25 Q1297.4 1541.47 1301.73 1536.5 Q1306.09 1531.54 1313.76 1531.54 Z" fill="#000000" fill-rule="nonzero" fill-opacity="1" /><path clip-path="url(#clip360)" d="M1369.46 1546.53 L1369.46 1568.04 L1363.61 1568.04 L1363.61 1546.72 Q1363.61 1541.66 1361.63 1539.14 Q1359.66 1536.63 1355.71 1536.63 Q1350.97 1536.63 1348.23 1539.65 Q1345.5 1542.68 1345.5 1547.9 L1345.5 1568.04 L1339.61 1568.04 L1339.61 1532.4 L1345.5 1532.4 L1345.5 1537.93 Q1347.6 1534.72 1350.43 1533.13 Q1353.3 1531.54 1357.02 1531.54 Q1363.16 1531.54 1366.31 1535.36 Q1369.46 1539.14 1369.46 1546.53 Z" fill="#000000" fill-rule="nonzero" fill-opacity="1" /><path clip-path="url(#clip360)" d="M1415.93 1518.58 Q1411.67 1525.9 1409.6 1533.06 Q1407.53 1540.23 1407.53 1547.58 Q1407.53 1554.93 1409.6 1562.16 Q1411.7 1569.35 1415.93 1576.64 L1410.84 1576.64 Q1406.07 1569.16 1403.68 1561.93 Q1401.32 1554.71 1401.32 1547.58 Q1401.32 1540.48 1403.68 1533.29 Q1406.04 1526.09 1410.84 1518.58 L1415.93 1518.58 Z" fill="#000000" fill-rule="nonzero" fill-opacity="1" /><path clip-path="url(#clip360)" d="M1430.8 1550.25 Q1430.8 1556.71 1433.44 1560.4 Q1436.11 1564.07 1440.76 1564.07 Q1445.41 1564.07 1448.08 1560.4 Q1450.75 1556.71 1450.75 1550.25 Q1450.75 1543.79 1448.08 1540.13 Q1445.41 1536.44 1440.76 1536.44 Q1436.11 1536.44 1433.44 1540.13 Q1430.8 1543.79 1430.8 1550.25 M1450.75 1562.7 Q1448.91 1565.88 1446.08 1567.44 Q1443.27 1568.97 1439.33 1568.97 Q1432.87 1568.97 1428.79 1563.81 Q1424.75 1558.65 1424.75 1550.25 Q1424.75 1541.85 1428.79 1536.69 Q1432.87 1531.54 1439.33 1531.54 Q1443.27 1531.54 1446.08 1533.1 Q1448.91 1534.62 1450.75 1537.81 L1450.75 1532.4 L1456.61 1532.4 L1456.61 1581.6 L1450.75 1581.6 L1450.75 1562.7 Z" fill="#000000" fill-rule="nonzero" fill-opacity="1" /><path clip-path="url(#clip360)" d="M1467.75 1518.58 L1472.84 1518.58 Q1477.62 1526.09 1479.97 1533.29 Q1482.36 1540.48 1482.36 1547.58 Q1482.36 1554.71 1479.97 1561.93 Q1477.62 1569.16 1472.84 1576.64 L1467.75 1576.64 Q1471.98 1569.35 1474.05 1562.16 Q1476.15 1554.93 1476.15 1547.58 Q1476.15 1540.23 1474.05 1533.06 Q1471.98 1525.9 1467.75 1518.58 Z" fill="#000000" fill-rule="nonzero" fill-opacity="1" /><polyline clip-path="url(#clip362)" style="stroke:#000000; stroke-linecap:round; stroke-linejoin:round; stroke-width:2; stroke-opacity:0.1; fill:none" points="257.204,1383.67 2352.76,1383.67 "/>
<polyline clip-path="url(#clip362)" style="stroke:#000000; stroke-linecap:round; stroke-linejoin:round; stroke-width:2; stroke-opacity:0.1; fill:none" points="257.204,1059.73 2352.76,1059.73 "/>
<polyline clip-path="url(#clip362)" style="stroke:#000000; stroke-linecap:round; stroke-linejoin:round; stroke-width:2; stroke-opacity:0.1; fill:none" points="257.204,735.783 2352.76,735.783 "/>
<polyline clip-path="url(#clip362)" style="stroke:#000000; stroke-linecap:round; stroke-linejoin:round; stroke-width:2; stroke-opacity:0.1; fill:none" points="257.204,411.84 2352.76,411.84 "/>
<polyline clip-path="url(#clip362)" style="stroke:#000000; stroke-linecap:round; stroke-linejoin:round; stroke-width:2; stroke-opacity:0.1; fill:none" points="257.204,87.8963 2352.76,87.8963 "/>
<polyline clip-path="url(#clip360)" style="stroke:#000000; stroke-linecap:round; stroke-linejoin:round; stroke-width:4; stroke-opacity:1; fill:none" points="257.204,1423.18 257.204,47.2441 "/>
<polyline clip-path="url(#clip360)" style="stroke:#000000; stroke-linecap:round; stroke-linejoin:round; stroke-width:4; stroke-opacity:1; fill:none" points="257.204,1383.67 276.102,1383.67 "/>
<polyline clip-path="url(#clip360)" style="stroke:#000000; stroke-linecap:round; stroke-linejoin:round; stroke-width:4; stroke-opacity:1; fill:none" points="257.204,1059.73 276.102,1059.73 "/>
<polyline clip-path="url(#clip360)" style="stroke:#000000; stroke-linecap:round; stroke-linejoin:round; stroke-width:4; stroke-opacity:1; fill:none" points="257.204,735.783 276.102,735.783 "/>
<polyline clip-path="url(#clip360)" style="stroke:#000000; stroke-linecap:round; stroke-linejoin:round; stroke-width:4; stroke-opacity:1; fill:none" points="257.204,411.84 276.102,411.84 "/>
<polyline clip-path="url(#clip360)" style="stroke:#000000; stroke-linecap:round; stroke-linejoin:round; stroke-width:4; stroke-opacity:1; fill:none" points="257.204,87.8963 276.102,87.8963 "/>
<path clip-path="url(#clip360)" d="M114.26 1384.12 L143.936 1384.12 L143.936 1388.06 L114.26 1388.06 L114.26 1384.12 Z" fill="#000000" fill-rule="nonzero" fill-opacity="1" /><path clip-path="url(#clip360)" d="M154.839 1397.02 L162.477 1397.02 L162.477 1370.65 L154.167 1372.32 L154.167 1368.06 L162.431 1366.39 L167.107 1366.39 L167.107 1397.02 L174.746 1397.02 L174.746 1400.95 L154.839 1400.95 L154.839 1397.02 Z" fill="#000000" fill-rule="nonzero" fill-opacity="1" /><path clip-path="url(#clip360)" d="M184.19 1395.07 L189.075 1395.07 L189.075 1400.95 L184.19 1400.95 L184.19 1395.07 Z" fill="#000000" fill-rule="nonzero" fill-opacity="1" /><path clip-path="url(#clip360)" d="M209.26 1369.47 Q205.649 1369.47 203.82 1373.03 Q202.014 1376.58 202.014 1383.71 Q202.014 1390.81 203.82 1394.38 Q205.649 1397.92 209.26 1397.92 Q212.894 1397.92 214.699 1394.38 Q216.528 1390.81 216.528 1383.71 Q216.528 1376.58 214.699 1373.03 Q212.894 1369.47 209.26 1369.47 M209.26 1365.77 Q215.07 1365.77 218.125 1370.37 Q221.204 1374.96 221.204 1383.71 Q221.204 1392.43 218.125 1397.04 Q215.07 1401.62 209.26 1401.62 Q203.449 1401.62 200.371 1397.04 Q197.315 1392.43 197.315 1383.71 Q197.315 1374.96 200.371 1370.37 Q203.449 1365.77 209.26 1365.77 Z" fill="#000000" fill-rule="nonzero" fill-opacity="1" /><path clip-path="url(#clip360)" d="M115.256 1060.18 L144.931 1060.18 L144.931 1064.11 L115.256 1064.11 L115.256 1060.18 Z" fill="#000000" fill-rule="nonzero" fill-opacity="1" /><path clip-path="url(#clip360)" d="M165.024 1045.53 Q161.413 1045.53 159.584 1049.09 Q157.778 1052.63 157.778 1059.76 Q157.778 1066.87 159.584 1070.43 Q161.413 1073.97 165.024 1073.97 Q168.658 1073.97 170.464 1070.43 Q172.292 1066.87 172.292 1059.76 Q172.292 1052.63 170.464 1049.09 Q168.658 1045.53 165.024 1045.53 M165.024 1041.82 Q170.834 1041.82 173.889 1046.43 Q176.968 1051.01 176.968 1059.76 Q176.968 1068.49 173.889 1073.09 Q170.834 1077.68 165.024 1077.68 Q159.214 1077.68 156.135 1073.09 Q153.079 1068.49 153.079 1059.76 Q153.079 1051.01 156.135 1046.43 Q159.214 1041.82 165.024 1041.82 Z" fill="#000000" fill-rule="nonzero" fill-opacity="1" /><path clip-path="url(#clip360)" d="M185.186 1071.13 L190.07 1071.13 L190.07 1077.01 L185.186 1077.01 L185.186 1071.13 Z" fill="#000000" fill-rule="nonzero" fill-opacity="1" /><path clip-path="url(#clip360)" d="M200.301 1042.45 L218.658 1042.45 L218.658 1046.38 L204.584 1046.38 L204.584 1054.85 Q205.602 1054.51 206.621 1054.34 Q207.639 1054.16 208.658 1054.16 Q214.445 1054.16 217.824 1057.33 Q221.204 1060.5 221.204 1065.92 Q221.204 1071.5 217.732 1074.6 Q214.26 1077.68 207.94 1077.68 Q205.764 1077.68 203.496 1077.31 Q201.25 1076.94 198.843 1076.2 L198.843 1071.5 Q200.926 1072.63 203.149 1073.19 Q205.371 1073.74 207.848 1073.74 Q211.852 1073.74 214.19 1071.64 Q216.528 1069.53 216.528 1065.92 Q216.528 1062.31 214.19 1060.2 Q211.852 1058.09 207.848 1058.09 Q205.973 1058.09 204.098 1058.51 Q202.246 1058.93 200.301 1059.81 L200.301 1042.45 Z" fill="#000000" fill-rule="nonzero" fill-opacity="1" /><path clip-path="url(#clip360)" d="M164.028 721.582 Q160.417 721.582 158.589 725.147 Q156.783 728.688 156.783 735.818 Q156.783 742.925 158.589 746.489 Q160.417 750.031 164.028 750.031 Q167.663 750.031 169.468 746.489 Q171.297 742.925 171.297 735.818 Q171.297 728.688 169.468 725.147 Q167.663 721.582 164.028 721.582 M164.028 717.878 Q169.839 717.878 172.894 722.485 Q175.973 727.068 175.973 735.818 Q175.973 744.545 172.894 749.151 Q169.839 753.735 164.028 753.735 Q158.218 753.735 155.14 749.151 Q152.084 744.545 152.084 735.818 Q152.084 727.068 155.14 722.485 Q158.218 717.878 164.028 717.878 Z" fill="#000000" fill-rule="nonzero" fill-opacity="1" /><path clip-path="url(#clip360)" d="M184.19 747.184 L189.075 747.184 L189.075 753.063 L184.19 753.063 L184.19 747.184 Z" fill="#000000" fill-rule="nonzero" fill-opacity="1" /><path clip-path="url(#clip360)" d="M209.26 721.582 Q205.649 721.582 203.82 725.147 Q202.014 728.688 202.014 735.818 Q202.014 742.925 203.82 746.489 Q205.649 750.031 209.26 750.031 Q212.894 750.031 214.699 746.489 Q216.528 742.925 216.528 735.818 Q216.528 728.688 214.699 725.147 Q212.894 721.582 209.26 721.582 M209.26 717.878 Q215.07 717.878 218.125 722.485 Q221.204 727.068 221.204 735.818 Q221.204 744.545 218.125 749.151 Q215.07 753.735 209.26 753.735 Q203.449 753.735 200.371 749.151 Q197.315 744.545 197.315 735.818 Q197.315 727.068 200.371 722.485 Q203.449 717.878 209.26 717.878 Z" fill="#000000" fill-rule="nonzero" fill-opacity="1" /><path clip-path="url(#clip360)" d="M165.024 397.639 Q161.413 397.639 159.584 401.203 Q157.778 404.745 157.778 411.875 Q157.778 418.981 159.584 422.546 Q161.413 426.087 165.024 426.087 Q168.658 426.087 170.464 422.546 Q172.292 418.981 172.292 411.875 Q172.292 404.745 170.464 401.203 Q168.658 397.639 165.024 397.639 M165.024 393.935 Q170.834 393.935 173.889 398.541 Q176.968 403.125 176.968 411.875 Q176.968 420.601 173.889 425.208 Q170.834 429.791 165.024 429.791 Q159.214 429.791 156.135 425.208 Q153.079 420.601 153.079 411.875 Q153.079 403.125 156.135 398.541 Q159.214 393.935 165.024 393.935 Z" fill="#000000" fill-rule="nonzero" fill-opacity="1" /><path clip-path="url(#clip360)" d="M185.186 423.24 L190.07 423.24 L190.07 429.12 L185.186 429.12 L185.186 423.24 Z" fill="#000000" fill-rule="nonzero" fill-opacity="1" /><path clip-path="url(#clip360)" d="M200.301 394.56 L218.658 394.56 L218.658 398.495 L204.584 398.495 L204.584 406.967 Q205.602 406.62 206.621 406.458 Q207.639 406.273 208.658 406.273 Q214.445 406.273 217.824 409.444 Q221.204 412.615 221.204 418.032 Q221.204 423.611 217.732 426.712 Q214.26 429.791 207.94 429.791 Q205.764 429.791 203.496 429.421 Q201.25 429.05 198.843 428.31 L198.843 423.611 Q200.926 424.745 203.149 425.3 Q205.371 425.856 207.848 425.856 Q211.852 425.856 214.19 423.749 Q216.528 421.643 216.528 418.032 Q216.528 414.421 214.19 412.314 Q211.852 410.208 207.848 410.208 Q205.973 410.208 204.098 410.625 Q202.246 411.041 200.301 411.921 L200.301 394.56 Z" fill="#000000" fill-rule="nonzero" fill-opacity="1" /><path clip-path="url(#clip360)" d="M154.839 101.241 L162.477 101.241 L162.477 74.8756 L154.167 76.5422 L154.167 72.283 L162.431 70.6163 L167.107 70.6163 L167.107 101.241 L174.746 101.241 L174.746 105.176 L154.839 105.176 L154.839 101.241 Z" fill="#000000" fill-rule="nonzero" fill-opacity="1" /><path clip-path="url(#clip360)" d="M184.19 99.2967 L189.075 99.2967 L189.075 105.176 L184.19 105.176 L184.19 99.2967 Z" fill="#000000" fill-rule="nonzero" fill-opacity="1" /><path clip-path="url(#clip360)" d="M209.26 73.695 Q205.649 73.695 203.82 77.2598 Q202.014 80.8015 202.014 87.9311 Q202.014 95.0375 203.82 98.6023 Q205.649 102.144 209.26 102.144 Q212.894 102.144 214.699 98.6023 Q216.528 95.0375 216.528 87.9311 Q216.528 80.8015 214.699 77.2598 Q212.894 73.695 209.26 73.695 M209.26 69.9913 Q215.07 69.9913 218.125 74.5978 Q221.204 79.1811 221.204 87.9311 Q221.204 96.6579 218.125 101.264 Q215.07 105.848 209.26 105.848 Q203.449 105.848 200.371 101.264 Q197.315 96.6579 197.315 87.9311 Q197.315 79.1811 200.371 74.5978 Q203.449 69.9913 209.26 69.9913 Z" fill="#000000" fill-rule="nonzero" fill-opacity="1" /><path clip-path="url(#clip360)" d="M16.4842 971.396 L16.4842 961.815 L48.8219 949.689 L16.4842 937.498 L16.4842 927.918 L64.0042 927.918 L64.0042 934.188 L22.277 934.188 L54.8694 946.442 L54.8694 952.903 L22.277 965.157 L64.0042 965.157 L64.0042 971.396 L16.4842 971.396 Z" fill="#000000" fill-rule="nonzero" fill-opacity="1" /><path clip-path="url(#clip360)" d="M32.4621 901.596 Q32.4621 906.306 36.1542 909.044 Q39.8145 911.781 46.212 911.781 Q52.6095 911.781 56.3017 909.075 Q59.9619 906.338 59.9619 901.596 Q59.9619 896.917 56.2698 894.18 Q52.5777 891.442 46.212 891.442 Q39.8781 891.442 36.186 894.18 Q32.4621 896.917 32.4621 901.596 M27.4968 901.596 Q27.4968 893.957 32.4621 889.596 Q37.4273 885.236 46.212 885.236 Q54.9649 885.236 59.9619 889.596 Q64.9272 893.957 64.9272 901.596 Q64.9272 909.266 59.9619 913.627 Q54.9649 917.955 46.212 917.955 Q37.4273 917.955 32.4621 913.627 Q27.4968 909.266 27.4968 901.596 Z" fill="#000000" fill-rule="nonzero" fill-opacity="1" /><path clip-path="url(#clip360)" d="M35.1993 847.774 Q31.2526 845.577 29.3747 842.522 Q27.4968 839.466 27.4968 835.329 Q27.4968 829.759 31.4117 826.735 Q35.2948 823.711 42.4881 823.711 L64.0042 823.711 L64.0042 829.599 L42.679 829.599 Q37.5546 829.599 35.072 831.414 Q32.5894 833.228 32.5894 836.952 Q32.5894 841.503 35.6131 844.145 Q38.6368 846.787 43.8567 846.787 L64.0042 846.787 L64.0042 852.675 L42.679 852.675 Q37.5228 852.675 35.072 854.489 Q32.5894 856.304 32.5894 860.091 Q32.5894 864.579 35.6449 867.221 Q38.6686 869.863 43.8567 869.863 L64.0042 869.863 L64.0042 875.751 L28.3562 875.751 L28.3562 869.863 L33.8944 869.863 Q30.616 867.857 29.0564 865.056 Q27.4968 862.256 27.4968 858.404 Q27.4968 854.521 29.4702 851.816 Q31.4436 849.079 35.1993 847.774 Z" fill="#000000" fill-rule="nonzero" fill-opacity="1" /><path clip-path="url(#clip360)" d="M44.7161 781.538 L47.5806 781.538 L47.5806 808.465 Q53.6281 808.083 56.8109 804.837 Q59.9619 801.559 59.9619 795.734 Q59.9619 792.36 59.1344 789.209 Q58.3069 786.026 56.6518 782.907 L62.1899 782.907 Q63.5267 786.058 64.227 789.368 Q64.9272 792.678 64.9272 796.084 Q64.9272 804.614 59.9619 809.611 Q54.9967 814.576 46.5303 814.576 Q37.7774 814.576 32.6531 809.866 Q27.4968 805.123 27.4968 797.103 Q27.4968 789.909 32.1438 785.74 Q36.7589 781.538 44.7161 781.538 M42.9973 787.395 Q38.1912 787.459 35.3266 790.1 Q32.4621 792.71 32.4621 797.039 Q32.4621 801.94 35.2312 804.901 Q38.0002 807.829 43.0292 808.274 L42.9973 787.395 Z" fill="#000000" fill-rule="nonzero" fill-opacity="1" /><path clip-path="url(#clip360)" d="M42.4881 742.294 L64.0042 742.294 L64.0042 748.15 L42.679 748.15 Q37.6183 748.15 35.1038 750.124 Q32.5894 752.097 32.5894 756.044 Q32.5894 760.786 35.6131 763.523 Q38.6368 766.261 43.8567 766.261 L64.0042 766.261 L64.0042 772.149 L28.3562 772.149 L28.3562 766.261 L33.8944 766.261 Q30.6797 764.16 29.0883 761.327 Q27.4968 758.463 27.4968 754.739 Q27.4968 748.596 31.3163 745.445 Q35.1038 742.294 42.4881 742.294 Z" fill="#000000" fill-rule="nonzero" fill-opacity="1" /><path clip-path="url(#clip360)" d="M18.2347 724.82 L28.3562 724.82 L28.3562 712.757 L32.9077 712.757 L32.9077 724.82 L52.2594 724.82 Q56.6199 724.82 57.8613 723.642 Q59.1026 722.433 59.1026 718.773 L59.1026 712.757 L64.0042 712.757 L64.0042 718.773 Q64.0042 725.552 61.4897 728.13 Q58.9434 730.708 52.2594 730.708 L32.9077 730.708 L32.9077 735.005 L28.3562 735.005 L28.3562 730.708 L18.2347 730.708 L18.2347 724.82 Z" fill="#000000" fill-rule="nonzero" fill-opacity="1" /><path clip-path="url(#clip360)" d="M49.9359 705.659 L28.3562 705.659 L28.3562 699.803 L49.7131 699.803 Q54.7739 699.803 57.3202 697.829 Q59.8346 695.856 59.8346 691.909 Q59.8346 687.167 56.8109 684.43 Q53.7872 681.66 48.5673 681.66 L28.3562 681.66 L28.3562 675.804 L64.0042 675.804 L64.0042 681.66 L58.5296 681.66 Q61.7762 683.793 63.3676 686.626 Q64.9272 689.427 64.9272 693.151 Q64.9272 699.293 61.1078 702.476 Q57.2883 705.659 49.9359 705.659 M27.4968 690.923 L27.4968 690.923 Z" fill="#000000" fill-rule="nonzero" fill-opacity="1" /><path clip-path="url(#clip360)" d="M35.1993 635.987 Q31.2526 633.79 29.3747 630.735 Q27.4968 627.679 27.4968 623.542 Q27.4968 617.972 31.4117 614.948 Q35.2948 611.924 42.4881 611.924 L64.0042 611.924 L64.0042 617.812 L42.679 617.812 Q37.5546 617.812 35.072 619.627 Q32.5894 621.441 32.5894 625.165 Q32.5894 629.716 35.6131 632.358 Q38.6368 635 43.8567 635 L64.0042 635 L64.0042 640.888 L42.679 640.888 Q37.5228 640.888 35.072 642.702 Q32.5894 644.517 32.5894 648.304 Q32.5894 652.792 35.6449 655.434 Q38.6686 658.076 43.8567 658.076 L64.0042 658.076 L64.0042 663.964 L28.3562 663.964 L28.3562 658.076 L33.8944 658.076 Q30.616 656.07 29.0564 653.269 Q27.4968 650.468 27.4968 646.617 Q27.4968 642.734 29.4702 640.029 Q31.4436 637.291 35.1993 635.987 Z" fill="#000000" fill-rule="nonzero" fill-opacity="1" /><path clip-path="url(#clip360)" d="M14.5426 565.454 Q21.8632 569.72 29.0246 571.788 Q36.186 573.857 43.5384 573.857 Q50.8908 573.857 58.1159 571.788 Q65.3091 569.688 72.5979 565.454 L72.5979 570.547 Q65.1182 575.321 57.8931 577.708 Q50.668 580.064 43.5384 580.064 Q36.4406 580.064 29.2474 577.708 Q22.0542 575.353 14.5426 570.547 L14.5426 565.454 Z" fill="#000000" fill-rule="nonzero" fill-opacity="1" /><path clip-path="url(#clip360)" d="M58.657 548.426 L77.5631 548.426 L77.5631 554.315 L28.3562 554.315 L28.3562 548.426 L33.7671 548.426 Q30.5842 546.58 29.0564 543.779 Q27.4968 540.947 27.4968 537.032 Q27.4968 530.539 32.6531 526.496 Q37.8093 522.422 46.212 522.422 Q54.6147 522.422 59.771 526.496 Q64.9272 530.539 64.9272 537.032 Q64.9272 540.947 63.3994 543.779 Q61.8398 546.58 58.657 548.426 M46.212 528.502 Q39.7508 528.502 36.0905 531.175 Q32.3984 533.817 32.3984 538.464 Q32.3984 543.111 36.0905 545.784 Q39.7508 548.426 46.212 548.426 Q52.6732 548.426 56.3653 545.784 Q60.0256 543.111 60.0256 538.464 Q60.0256 533.817 56.3653 531.175 Q52.6732 528.502 46.212 528.502 Z" fill="#000000" fill-rule="nonzero" fill-opacity="1" /><path clip-path="url(#clip360)" d="M14.5426 513.638 L14.5426 508.545 Q22.0542 503.771 29.2474 501.415 Q36.4406 499.028 43.5384 499.028 Q50.668 499.028 57.8931 501.415 Q65.1182 503.771 72.5979 508.545 L72.5979 513.638 Q65.3091 509.404 58.1159 507.336 Q50.8908 505.235 43.5384 505.235 Q36.186 505.235 29.0246 507.336 Q21.8632 509.404 14.5426 513.638 Z" fill="#000000" fill-rule="nonzero" fill-opacity="1" /><polyline clip-path="url(#clip362)" style="stroke:#009af9; stroke-linecap:round; stroke-linejoin:round; stroke-width:16; stroke-opacity:1; fill:none" points="1310.17,87.8963 1316.21,87.9085 1322.25,87.9452 1328.29,88.0063 1334.33,88.0918 1340.36,88.2018 1346.4,88.3362 1352.44,88.495 1358.47,88.6783 1364.5,88.8859 1370.53,89.118 1376.55,89.3744 1382.58,89.6552 1388.6,89.9605 1394.62,90.29 1400.63,90.6439 1406.65,91.0222 1412.65,91.4248 1418.66,91.8516 1424.66,92.3028 1430.65,92.7783 1436.65,93.278 1442.63,93.8019 1448.61,94.3501 1454.59,94.9224 1460.56,95.519 1466.53,96.1396 1472.49,96.7844 1478.44,97.4534 1484.39,98.1463 1490.33,98.8634 1496.26,99.6045 1502.19,100.37 1508.11,101.159 1514.02,101.972 1519.92,102.809 1525.82,103.669 1531.71,104.554 1537.59,105.462 1543.46,106.395 1549.32,107.35 1555.17,108.33 1561.02,109.333 1566.85,110.36 1572.68,111.411 1578.49,112.485 1584.3,113.583 1590.09,114.704 1595.87,115.848 1601.65,117.016 1607.41,118.207 1613.16,119.422 1618.9,120.66 1624.63,121.921 1630.34,123.205 1636.05,124.512 1641.74,125.843 1647.42,127.196 1653.09,128.572 1658.74,129.971 1664.38,131.393 1670.01,132.838 1675.62,134.306 1681.22,135.796 1686.81,137.309 1692.38,138.844 1697.93,140.403 1703.48,141.983 1709,143.586 1714.52,145.211 1720.01,146.859 1725.5,148.528 1730.96,150.22 1736.41,151.934 1741.85,153.67 1747.26,155.428 1752.67,157.208 1758.05,159.009 1763.42,160.833 1768.77,162.678 1774.1,164.545 1779.42,166.433 1784.72,168.343 1790,170.274 1795.26,172.226 1800.5,174.2 1805.73,176.195 1810.94,178.211 1816.12,180.248 1821.29,182.306 1826.44,184.385 1831.57,186.485 1836.68,188.605 1841.77,190.746 1846.84,192.908 1851.89,195.09 1856.92,197.292 1861.93,199.515 1866.92,201.758 1871.89,204.021 1876.83,206.305 1881.76,208.608 1886.66,210.931 1891.54,213.274 1896.4,215.636 1901.24,218.019 1906.06,220.42 1910.85,222.842 1915.62,225.282 1920.36,227.742 1925.09,230.221 1929.79,232.719 1934.47,235.236 1939.12,237.772 1943.75,240.327 1948.36,242.9 1952.94,245.492 1957.5,248.103 1962.03,250.731 1966.54,253.379 1971.03,256.044 1975.48,258.727 1979.92,261.429 1984.33,264.148 1988.71,266.885 1993.07,269.64 1997.4,272.413 2001.71,275.203 2005.99,278.01 2010.24,280.834 2014.47,283.676 2018.67,286.535 2022.84,289.411 2026.99,292.303 2031.11,295.212 2035.21,298.138 2039.27,301.081 2043.31,304.04 2047.32,307.015 2051.3,310.006 2055.26,313.013 2059.18,316.037 2063.08,319.076 2066.95,322.13 2070.79,325.201 2074.61,328.287 2078.39,331.388 2082.15,334.505 2085.87,337.636 2089.57,340.783 2093.24,343.945 2096.87,347.121 2100.48,350.312 2104.06,353.518 2107.61,356.738 2111.13,359.972 2114.61,363.221 2118.07,366.483 2121.5,369.76 2124.9,373.05 2128.26,376.354 2131.6,379.671 2134.9,383.002 2138.17,386.347 2141.41,389.704 2144.62,393.074 2147.8,396.458 2150.95,399.854 2154.07,403.263 2157.15,406.684 2160.2,410.118 2163.22,413.564 2166.21,417.023 2169.16,420.493 2172.09,423.975 2174.98,427.469 2177.83,430.975 2180.66,434.492 2183.45,438.02 2186.21,441.56 2188.94,445.111 2191.63,448.673 2194.29,452.245 2196.91,455.829 2199.51,459.422 2202.07,463.027 2204.59,466.641 2207.08,470.266 2209.54,473.901 2211.97,477.545 2214.36,481.2 2216.71,484.864 2219.03,488.537 2221.32,492.22 2223.58,495.912 2225.79,499.613 2227.98,503.323 2230.13,507.042 2232.24,510.769 2234.32,514.505 2236.37,518.249 2238.38,522.001 2240.35,525.761 2242.29,529.53 2244.2,533.306 2246.07,537.09 2247.9,540.881 2249.7,544.68 2251.46,548.485 2253.19,552.298 2254.89,556.118 2256.54,559.945 2258.16,563.778 2259.75,567.617 2261.3,571.463 2262.81,575.316 2264.29,579.174 2265.73,583.038 2267.14,586.908 2268.51,590.784 2269.84,594.665 2271.14,598.551 2272.4,602.443 2273.62,606.339 2274.81,610.241 2275.96,614.147 2277.08,618.058 2278.16,621.973 2279.2,625.892 2280.21,629.816 2281.18,633.744 2282.11,637.675 2283.01,641.61 2283.87,645.549 2284.69,649.491 2285.47,653.437 2286.22,657.385 2286.94,661.337 2287.61,665.291 2288.25,669.248 2288.85,673.208 2289.42,677.169 2289.94,681.133 2290.44,685.099 2290.89,689.068 2291.31,693.037 2291.69,697.009 2292.03,700.982 2292.34,704.956 2292.6,708.931 2292.84,712.907 2293.03,716.885 2293.19,720.862 2293.31,724.841 2293.39,728.82 2293.44,732.799 2293.45,736.778 2293.42,740.757 2293.36,744.736 2293.25,748.715 2293.11,752.693 2292.94,756.671 2292.72,760.648 2292.47,764.624 2292.19,768.598 2291.86,772.572 2291.5,776.544 2291.1,780.515 2290.67,784.483 2290.19,788.451 2289.69,792.416 2289.14,796.379 2288.56,800.339 2287.94,804.297 2287.28,808.253 2286.58,812.206 2285.85,816.156 2285.09,820.103 2284.28,824.047 2283.44,827.987 2282.56,831.924 2281.65,835.858 2280.7,839.787 2279.71,843.713 2278.69,847.635 2277.62,851.552 2276.53,855.465 2275.39,859.374 2274.22,863.277 2273.02,867.176 2271.77,871.07 2270.49,874.959 2269.18,878.843 2267.83,882.721 2266.44,886.594 2265.02,890.461 2263.56,894.323 2262.06,898.178 2260.53,902.027 2258.96,905.87 2257.36,909.706 2255.72,913.536 2254.04,917.359 2252.33,921.176 2250.59,924.985 2248.81,928.787 2246.99,932.582 2245.14,936.37 2243.25,940.15 2241.33,943.922 2239.37,947.686 2237.38,951.443 2235.35,955.191 2233.29,958.931 2231.19,962.663 2229.06,966.386 2226.89,970.1 2224.69,973.805 2222.45,977.502 2220.18,981.189 2217.88,984.867 2215.54,988.536 2213.17,992.195 2210.76,995.845 2208.32,999.485 2205.84,1003.11 2203.33,1006.73 2200.79,1010.34 2198.22,1013.94 2195.61,1017.53 2192.96,1021.11 2190.29,1024.68 2187.58,1028.23 2184.83,1031.78 2182.06,1035.31 2179.25,1038.83 2176.41,1042.35 2173.54,1045.85 2170.63,1049.33 2167.69,1052.81 2164.72,1056.27 2161.72,1059.73 2158.68,1063.17 2155.61,1066.59 2152.51,1070.01 2149.38,1073.41 2146.22,1076.8 2143.02,1080.18 2139.8,1083.54 2136.54,1086.89 2133.25,1090.23 2129.93,1093.56 2126.58,1096.87 2123.2,1100.16 2119.79,1103.45 2116.35,1106.72 2112.87,1109.97 2109.37,1113.21 2105.84,1116.44 2102.27,1119.65 2098.68,1122.85 2095.06,1126.04 2091.41,1129.2 2087.72,1132.36 2084.01,1135.5 2080.27,1138.62 2076.5,1141.73 2072.7,1144.82 2068.88,1147.9 2065.02,1150.97 2061.14,1154.01 2057.22,1157.04 2053.28,1160.06 2049.31,1163.06 2045.32,1166.04 2041.29,1169.01 2037.24,1171.96 2033.16,1174.89 2029.06,1177.81 2024.92,1180.71 2020.76,1183.6 2016.57,1186.46 2012.36,1189.31 2008.12,1192.15 2003.85,1194.96 1999.56,1197.76 1995.24,1200.54 1990.89,1203.31 1986.52,1206.05 1982.13,1208.78 1977.7,1211.49 1973.26,1214.18 1968.79,1216.86 1964.29,1219.51 1959.77,1222.15 1955.22,1224.77 1950.65,1227.37 1946.06,1229.96 1941.44,1232.52 1936.8,1235.06 1932.13,1237.59 1927.44,1240.1 1922.73,1242.59 1917.99,1245.06 1913.24,1247.51 1908.45,1249.94 1903.65,1252.35 1898.82,1254.74 1893.98,1257.11 1889.11,1259.47 1884.21,1261.8 1879.3,1264.11 1874.36,1266.41 1869.41,1268.68 1864.43,1270.93 1859.43,1273.17 1854.41,1275.38 1849.37,1277.57 1844.31,1279.74 1839.23,1281.89 1834.13,1284.02 1829.01,1286.13 1823.87,1288.22 1818.71,1290.29 1813.53,1292.34 1808.33,1294.37 1803.12,1296.37 1797.88,1298.36 1792.63,1300.32 1787.36,1302.26 1782.07,1304.18 1776.76,1306.08 1771.44,1307.96 1766.1,1309.81 1760.74,1311.65 1755.36,1313.46 1749.97,1315.25 1744.56,1317.02 1739.13,1318.77 1733.69,1320.49 1728.23,1322.2 1722.76,1323.88 1717.27,1325.53 1711.76,1327.17 1706.24,1328.79 1700.71,1330.38 1695.16,1331.95 1689.59,1333.49 1684.01,1335.02 1678.42,1336.52 1672.82,1338 1667.19,1339.45 1661.56,1340.89 1655.91,1342.3 1650.25,1343.69 1644.58,1345.05 1638.9,1346.39 1633.2,1347.71 1627.49,1349.01 1621.77,1350.28 1616.03,1351.53 1610.29,1352.75 1604.53,1353.96 1598.76,1355.14 1592.98,1356.29 1587.19,1357.43 1581.39,1358.54 1575.58,1359.62 1569.76,1360.68 1563.93,1361.72 1558.1,1362.74 1552.25,1363.73 1546.39,1364.7 1540.52,1365.64 1534.65,1366.56 1528.76,1367.46 1522.87,1368.33 1516.97,1369.18 1511.06,1370 1505.15,1370.81 1499.22,1371.58 1493.29,1372.34 1487.36,1373.06 1481.41,1373.77 1475.46,1374.45 1469.51,1375.11 1463.54,1375.74 1457.58,1376.35 1451.6,1376.93 1445.62,1377.49 1439.64,1378.03 1433.65,1378.54 1427.66,1379.03 1421.66,1379.49 1415.66,1379.93 1409.65,1380.35 1403.64,1380.74 1397.63,1381.1 1391.61,1381.44 1385.59,1381.76 1379.57,1382.05 1373.54,1382.32 1367.51,1382.57 1361.48,1382.79 1355.45,1382.98 1349.42,1383.15 1343.38,1383.3 1337.35,1383.42 1331.31,1383.52 1325.27,1383.59 1319.23,1383.64 1313.19,1383.67 1307.15,1383.67 1301.11,1383.64 1295.08,1383.59 1289.04,1383.52 1283,1383.42 1276.96,1383.3 1270.93,1383.15 1264.9,1382.98 1258.86,1382.79 1252.83,1382.57 1246.81,1382.32 1240.78,1382.05 1234.76,1381.76 1228.74,1381.44 1222.72,1381.1 1216.71,1380.74 1210.7,1380.35 1204.69,1379.93 1198.69,1379.49 1192.69,1379.03 1186.7,1378.54 1180.71,1378.03 1174.72,1377.49 1168.74,1376.93 1162.77,1376.35 1156.8,1375.74 1150.84,1375.11 1144.88,1374.45 1138.93,1373.77 1132.99,1373.06 1127.05,1372.34 1121.12,1371.58 1115.2,1370.81 1109.29,1370 1103.38,1369.18 1097.48,1368.33 1091.58,1367.46 1085.7,1366.56 1079.83,1365.64 1073.96,1364.7 1068.1,1363.73 1062.25,1362.74 1056.41,1361.72 1050.58,1360.68 1044.76,1359.62 1038.95,1358.54 1033.15,1357.43 1027.36,1356.29 1021.58,1355.14 1015.82,1353.96 1010.06,1352.75 1004.32,1351.53 998.582,1350.28 992.859,1349.01 987.149,1347.71 981.452,1346.39 975.766,1345.05 970.093,1343.69 964.433,1342.3 958.786,1340.89 953.152,1339.45 947.532,1338 941.926,1336.52 936.333,1335.02 930.754,1333.49 925.19,1331.95 919.64,1330.38 914.105,1328.79 908.585,1327.17 903.08,1325.53 897.591,1323.88 892.116,1322.2 886.658,1320.49 881.216,1318.77 875.79,1317.02 870.38,1315.25 864.987,1313.46 859.611,1311.65 854.252,1309.81 848.909,1307.96 843.585,1306.08 838.278,1304.18 832.988,1302.26 827.717,1300.32 822.464,1298.36 817.229,1296.37 812.013,1294.37 806.816,1292.34 801.637,1290.29 796.478,1288.22 791.338,1286.13 786.218,1284.02 781.118,1281.89 776.037,1279.74 770.977,1277.57 765.937,1275.38 760.917,1273.17 755.919,1270.93 750.941,1268.68 745.984,1266.41 741.049,1264.11 736.135,1261.8 731.242,1259.47 726.372,1257.11 721.523,1254.74 716.697,1252.35 711.893,1249.94 707.112,1247.51 702.353,1245.06 697.618,1242.59 692.905,1240.1 688.216,1237.59 683.55,1235.06 678.908,1232.52 674.29,1229.96 669.695,1227.37 665.125,1224.77 660.579,1222.15 656.058,1219.51 651.561,1216.86 647.089,1214.18 642.642,1211.49 638.221,1208.78 633.825,1206.05 629.454,1203.31 625.109,1200.54 620.79,1197.76 616.496,1194.96 612.229,1192.15 607.988,1189.31 603.774,1186.46 599.587,1183.6 595.426,1180.71 591.292,1177.81 587.185,1174.89 583.106,1171.96 579.054,1169.01 575.029,1166.04 571.033,1163.06 567.064,1160.06 563.123,1157.04 559.21,1154.01 555.326,1150.97 551.47,1147.9 547.643,1144.82 543.845,1141.73 540.075,1138.62 536.335,1135.5 532.623,1132.36 528.941,1129.2 525.289,1126.04 521.666,1122.85 518.073,1119.65 514.51,1116.44 510.977,1113.21 507.473,1109.97 504.001,1106.72 500.558,1103.45 497.147,1100.16 493.765,1096.87 490.415,1093.56 487.096,1090.23 483.807,1086.89 480.55,1083.54 477.324,1080.18 474.13,1076.8 470.966,1073.41 467.835,1070.01 464.736,1066.59 461.668,1063.17 458.632,1059.73 455.629,1056.27 452.658,1052.81 449.718,1049.33 446.812,1045.85 443.938,1042.35 441.097,1038.83 438.288,1035.31 435.513,1031.78 432.77,1028.23 430.061,1024.68 427.385,1021.11 424.742,1017.53 422.132,1013.94 419.556,1010.34 417.014,1006.73 414.505,1003.11 412.03,999.484 409.589,995.845 407.182,992.195 404.809,988.536 402.47,984.867 400.165,981.189 397.895,977.502 395.659,973.805 393.457,970.1 391.29,966.386 389.158,962.662 387.061,958.931 384.998,955.191 382.971,951.443 380.978,947.686 379.02,943.922 377.097,940.15 375.21,936.37 373.358,932.582 371.541,928.787 369.76,924.985 368.014,921.176 366.304,917.359 364.629,913.536 362.99,909.706 361.387,905.87 359.819,902.027 358.287,898.178 356.792,894.323 355.332,890.461 353.908,886.594 352.52,882.721 351.169,878.843 349.853,874.959 348.574,871.07 347.331,867.176 346.125,863.277 344.954,859.373 343.821,855.465 342.723,851.552 341.662,847.634 340.638,843.713 339.65,839.787 338.699,835.857 337.785,831.924 336.907,827.987 336.066,824.047 335.261,820.103 334.494,816.156 333.763,812.206 333.069,808.253 332.412,804.297 331.792,800.339 331.208,796.378 330.662,792.415 330.153,788.45 329.68,784.483 329.245,780.514 328.846,776.544 328.485,772.572 328.16,768.598 327.873,764.624 327.623,760.648 327.41,756.671 327.233,752.693 327.094,748.715 326.992,744.736 326.927,740.757 326.9,736.778 326.909,732.799 326.955,728.82 327.039,724.841 327.159,720.862 327.317,716.884 327.512,712.907 327.743,708.931 328.012,704.956 328.318,700.981 328.661,697.008 329.041,693.037 329.458,689.067 329.912,685.099 330.403,681.133 330.931,677.169 331.495,673.207 332.097,669.248 332.736,665.291 333.411,661.337 334.124,657.385 334.873,653.437 335.659,649.491 336.482,645.549 337.341,641.61 338.237,637.675 339.17,633.744 340.14,629.816 341.146,625.892 342.188,621.973 343.267,618.058 344.383,614.147 345.535,610.241 346.723,606.339 347.948,602.442 349.209,598.551 350.507,594.665 351.84,590.784 353.21,586.908 354.615,583.038 356.057,579.174 357.535,575.316 359.049,571.463 360.598,567.617 362.184,563.778 363.805,559.944 365.462,556.118 367.155,552.298 368.883,548.485 370.646,544.679 372.445,540.881 374.28,537.09 376.149,533.306 378.054,529.53 379.995,525.762 381.97,522.001 383.98,518.249 386.025,514.504 388.105,510.769 390.22,507.041 392.37,503.323 394.554,499.613 396.773,495.912 399.026,492.22 401.313,488.537 403.635,484.864 405.991,481.2 408.381,477.545 410.805,473.901 413.263,470.266 415.755,466.641 418.281,463.027 420.84,459.422 423.433,455.828 426.059,452.245 428.719,448.673 431.412,445.111 434.138,441.56 436.897,438.02 439.689,434.492 442.514,430.975 445.371,427.469 448.261,423.975 451.184,420.493 454.139,417.023 457.127,413.564 460.146,410.118 463.198,406.684 466.282,403.263 469.397,399.854 472.544,396.458 475.723,393.074 478.933,389.704 482.175,386.346 485.448,383.002 488.752,379.671 492.086,376.354 495.452,373.05 498.849,369.76 502.276,366.483 505.733,363.221 509.221,359.972 512.739,356.738 516.288,353.518 519.866,350.312 523.474,347.121 527.112,343.944 530.779,340.783 534.476,337.636 538.201,334.505 541.957,331.388 545.74,328.287 549.553,325.201 553.395,322.13 557.265,319.076 561.163,316.036 565.09,313.013 569.045,310.006 573.028,307.015 577.038,304.039 581.076,301.081 585.142,298.138 589.235,295.212 593.356,292.303 597.503,289.411 601.677,286.535 605.878,283.676 610.106,280.834 614.36,278.01 618.64,275.203 622.946,272.413 627.278,269.64 631.636,266.885 636.02,264.148 640.429,261.429 644.863,258.727 649.322,256.044 653.806,253.379 658.316,250.731 662.849,248.102 667.407,245.492 671.99,242.9 676.596,240.327 681.226,237.772 685.88,235.236 690.558,232.719 695.259,230.221 699.983,227.742 704.73,225.282 709.5,222.842 714.292,220.421 719.108,218.019 723.945,215.636 728.804,213.274 733.686,210.931 738.589,208.608 743.514,206.305 748.46,204.021 753.427,201.758 758.415,199.515 763.425,197.292 768.454,195.09 773.505,192.908 778.575,190.746 783.666,188.605 788.776,186.484 793.906,184.385 799.056,182.306 804.224,180.248 809.412,178.211 814.619,176.195 819.844,174.2 825.088,172.226 830.351,170.274 835.631,168.342 840.929,166.433 846.245,164.545 851.578,162.678 856.929,160.833 862.297,159.009 867.682,157.208 873.083,155.428 878.501,153.67 883.935,151.934 889.386,150.22 894.852,148.528 900.334,146.859 905.831,145.211 911.343,143.586 916.871,141.983 922.413,140.403 927.971,138.844 933.542,137.309 939.128,135.796 944.727,134.306 950.341,132.838 955.968,131.393 961.608,129.971 967.262,128.572 972.928,127.196 978.608,125.842 984.299,124.512 990.003,123.205 995.719,121.921 1001.45,120.66 1007.19,119.422 1012.94,118.207 1018.7,117.016 1024.47,115.848 1030.26,114.704 1036.05,113.583 1041.86,112.485 1047.67,111.411 1053.5,110.36 1059.33,109.333 1065.18,108.33 1071.03,107.35 1076.89,106.394 1082.76,105.462 1088.64,104.554 1094.53,103.669 1100.43,102.808 1106.33,101.972 1112.24,101.159 1118.16,100.37 1124.09,99.6045 1130.02,98.8634 1135.96,98.1463 1141.91,97.4533 1147.86,96.7844 1153.82,96.1396 1159.79,95.519 1165.76,94.9224 1171.73,94.35 1177.72,93.8019 1183.7,93.2779 1189.69,92.7783 1195.69,92.3028 1201.69,91.8516 1207.69,91.4247 1213.7,91.0222 1219.71,90.6439 1225.73,90.29 1231.75,89.9605 1237.77,89.6553 1243.79,89.3744 1249.82,89.1179 1255.85,88.8859 1261.88,88.6783 1267.91,88.495 1273.95,88.3362 1279.98,88.2018 1286.02,88.0918 1292.06,88.0063 1298.1,87.9452 1304.13,87.9085 1310.17,87.8963 "/>
<polyline clip-path="url(#clip362)" style="stroke:#e26f46; stroke-linecap:round; stroke-linejoin:round; stroke-width:16; stroke-opacity:1; fill:none" points="1310.17,87.8963 1316.21,87.9162 1322.25,87.9361 1328.28,87.956 1334.32,87.981 1340.32,88.4912 1346.32,88.9237 1352.39,88.5733 1358.52,87.4409 1364.66,86.2339 1370.71,86.1857 1376.71,86.5745 1382.72,86.9633 1388.72,87.347 1394.73,87.7103 1400.75,88.0646 1406.76,88.4223 1412.77,88.7936 1418.77,89.1863 1424.77,89.6063 1430.77,90.0571 1436.76,90.5401 1442.74,91.0543 1448.72,91.5968 1454.7,92.1621 1460.67,92.743 1466.64,93.3296 1472.62,93.9101 1478.6,94.4513 1484.59,94.9627 1490.58,95.4845 1496.56,96.0477 1502.52,96.6737 1508.46,97.3745 1514.37,98.1527 1520.27,99.0014 1526.15,99.9042 1532.02,100.836 1537.89,101.76 1543.78,102.643 1549.68,103.5 1555.58,104.362 1561.47,105.253 1567.33,106.19 1573.17,107.184 1578.99,108.24 1584.78,109.357 1590.55,110.524 1596.3,111.729 1602.05,112.949 1607.8,114.157 1613.58,115.322 1619.37,116.461 1625.16,117.604 1630.93,118.772 1636.68,119.982 1642.4,121.247 1648.09,122.573 1653.74,123.962 1659.36,125.41 1664.95,126.909 1670.52,128.444 1676.08,129.996 1681.64,131.541 1687.24,133.047 1692.85,134.519 1698.47,135.985 1704.08,137.465 1709.67,138.977 1715.22,140.536 1720.73,142.15 1726.2,143.825 1731.63,145.56 1737.01,147.352 1742.36,149.192 1747.68,151.067 1752.99,152.962 1758.3,154.854 1763.61,156.741 1768.88,158.674 1774.12,160.649 1779.33,162.657 1784.53,164.688 1789.71,166.735 1794.88,168.792 1800.05,170.853 1805.21,172.916 1810.38,174.976 1815.55,177.032 1820.73,179.083 1825.91,181.129 1831.09,183.172 1836.27,185.215 1841.45,187.263 1846.61,189.337 1851.74,191.446 1856.83,193.593 1861.88,195.78 1866.89,198.008 1871.85,200.279 1876.77,202.593 1881.63,204.95 1886.45,207.348 1891.21,209.786 1895.94,212.262 1900.62,214.773 1905.26,217.315 1909.86,219.885 1914.44,222.478 1919,225.089 1923.54,227.711 1928.07,230.338 1932.61,232.963 1937.16,235.577 1941.75,238.165 1946.37,240.735 1950.99,243.299 1955.61,245.865 1960.22,248.442 1964.8,251.038 1969.34,253.658 1973.84,256.306 1978.3,258.988 1982.7,261.702 1987.06,264.452 1991.36,267.235 1995.62,270.05 1999.84,272.893 2004.03,275.759 2008.19,278.643 2012.33,281.536 2016.48,284.431 2020.63,287.316 2024.79,290.203 2028.9,293.115 2032.98,296.054 2037.01,299.019 2041,302.01 2044.94,305.027 2048.83,308.07 2052.68,311.137 2056.48,314.228 2060.24,317.342 2063.95,320.477 2067.63,323.632 2071.27,326.804 2074.87,329.992 2078.45,333.193 2082.01,336.405 2085.55,339.625 2089.08,342.85 2092.6,346.076 2096.13,349.301 2099.67,352.522 2103.2,355.751 2106.7,358.993 2110.17,362.248 2113.62,365.517 2117.04,368.801 2120.42,372.1 2123.76,375.415 2127.07,378.745 2130.34,382.091 2133.57,385.453 2136.77,388.83 2139.93,392.222 2143.05,395.628 2146.14,399.048 2149.19,402.48 2152.21,405.925 2155.21,409.379 2158.18,412.843 2161.14,416.314 2164.07,419.792 2167,423.273 2169.92,426.757 2172.84,430.241 2175.76,433.724 2178.69,437.205 2181.56,440.705 2184.36,444.229 2187.09,447.773 2189.77,451.336 2192.39,454.917 2194.96,458.515 2197.48,462.128 2199.96,465.754 2202.4,469.393 2204.8,473.043 2207.16,476.703 2209.5,480.372 2211.81,484.049 2214.1,487.732 2216.36,491.42 2218.61,495.114 2220.85,498.811 2223.08,502.51 2225.3,506.212 2227.51,509.915 2229.72,513.617 2231.94,517.32 2234.15,521.024 2236.23,524.756 2238.16,528.518 2239.99,532.306 2241.71,536.115 2243.34,539.942 2244.91,543.783 2246.43,547.637 2247.91,551.499 2249.35,555.367 2250.78,559.239 2252.2,563.114 2253.61,566.989 2255.03,570.863 2256.46,574.735 2257.9,578.605 2259.35,582.472 2260.82,586.335 2262.3,590.196 2263.79,594.054 2265.29,597.91 2266.8,601.765 2268.31,605.621 2269.8,609.478 2271.23,613.344 2272.51,617.225 2273.68,621.119 2274.76,625.024 2275.77,628.939 2276.72,632.861 2277.64,636.79 2278.54,640.722 2279.43,644.659 2280.31,648.598 2281.19,652.54 2282.06,656.483 2282.93,660.427 2283.79,664.373 2284.62,668.32 2285.43,672.268 2286.18,676.22 2286.86,680.174 2287.46,684.133 2287.94,688.096 2288.28,692.067 2288.59,696.04 2288.93,700.013 2289.3,703.986 2289.66,707.959 2290.01,711.932 2290.33,715.905 2290.62,719.879 2290.86,723.853 2291.04,727.827 2291.17,731.802 2291.24,735.777 2291.24,739.753 2291.19,743.729 2291.09,747.705 2290.93,751.682 2290.74,755.659 2290.52,759.636 2290.28,763.614 2290.04,767.592 2289.81,771.569 2289.56,775.544 2289.21,779.516 2288.76,783.482 2288.23,787.444 2287.62,791.402 2286.94,795.356 2286.21,799.306 2285.43,803.251 2284.61,807.194 2283.76,811.133 2282.87,815.07 2281.97,819.004 2281.05,822.936 2280.12,826.867 2279.19,830.797 2278.26,834.727 2277.32,838.658 2276.28,842.569 2275.02,846.44 2273.59,850.284 2272.05,854.11 2270.44,857.927 2268.8,861.742 2267.18,865.562 2265.58,869.392 2264.05,873.238 2262.6,877.101 2261.24,880.985 2259.97,884.889 2258.8,888.813 2257.71,892.757 2256.71,896.717 2255.77,900.691 2254.87,904.672 2253.98,908.656 2253.06,912.634 2252.08,916.599 2251,920.542 2249.75,924.452 2248.29,928.318 2246.55,932.125 2244.56,935.884 2242.6,939.652 2240.66,943.425 2238.72,947.196 2236.74,950.958 2234.7,954.706 2232.61,958.437 2230.44,962.147 2228.2,965.837 2225.88,969.507 2223.49,973.158 2221.04,976.794 2218.56,980.419 2216.06,984.039 2213.56,987.662 2211.1,991.295 2208.68,994.938 2206.27,998.587 2203.87,1002.24 2201.47,1005.89 2199.04,1009.53 2196.6,1013.17 2194.12,1016.79 2191.6,1020.41 2189.04,1024.01 2186.44,1027.6 2183.79,1031.17 2181.1,1034.73 2178.36,1038.27 2175.59,1041.81 2172.78,1045.33 2169.95,1048.84 2167.09,1052.35 2164.23,1055.86 2161.36,1059.36 2158.51,1062.87 2155.66,1066.38 2152.78,1069.88 2149.86,1073.37 2146.9,1076.84 2143.89,1080.29 2140.83,1083.72 2137.71,1087.13 2134.54,1090.51 2131.31,1093.87 2128.02,1097.21 2124.68,1100.51 2121.28,1103.8 2117.82,1107.06 2114.32,1110.29 2110.77,1113.51 2107.18,1116.71 2103.55,1119.89 2099.89,1123.06 2096.21,1126.21 2092.53,1129.37 2088.84,1132.52 2085.15,1135.67 2081.48,1138.83 2077.76,1141.97 2073.99,1145.08 2070.17,1148.17 2066.3,1151.23 2062.38,1154.25 2058.4,1157.25 2054.38,1160.22 2050.31,1163.16 2046.2,1166.07 2042.04,1168.96 2037.84,1171.81 2033.61,1174.64 2029.33,1177.45 2025.03,1180.24 2020.7,1183.01 2016.34,1185.76 2011.96,1188.5 2007.57,1191.22 2003.17,1193.94 1998.76,1196.66 1994.35,1199.37 1989.95,1202.09 1985.57,1204.82 1981.19,1207.56 1976.81,1210.29 1972.41,1213.02 1967.99,1215.72 1963.54,1218.41 1959.06,1221.08 1954.55,1223.71 1950,1226.32 1945.41,1228.9 1940.79,1231.46 1936.12,1233.98 1931.43,1236.48 1926.7,1238.95 1921.94,1241.4 1917.16,1243.84 1912.36,1246.26 1907.55,1248.67 1902.75,1251.09 1897.95,1253.51 1893.19,1255.96 1888.45,1258.44 1883.73,1260.94 1879.02,1263.44 1874.3,1265.93 1869.56,1268.41 1864.79,1270.86 1859.99,1273.28 1855.15,1275.66 1850.27,1277.99 1845.34,1280.29 1840.37,1282.53 1835.34,1284.74 1830.28,1286.89 1825.17,1289.01 1820.03,1291.09 1814.86,1293.15 1809.66,1295.18 1804.45,1297.19 1799.23,1299.21 1794.03,1301.23 1788.84,1303.27 1783.63,1305.29 1778.41,1307.29 1773.15,1309.26 1767.87,1311.19 1762.55,1313.08 1757.2,1314.91 1751.81,1316.7 1746.39,1318.44 1740.93,1320.12 1735.43,1321.75 1729.9,1323.32 1724.33,1324.85 1718.73,1326.33 1713.11,1327.76 1707.46,1329.16 1701.79,1330.53 1696.1,1331.88 1690.41,1333.21 1684.72,1334.54 1679.03,1335.88 1673.35,1337.24 1667.68,1338.62 1662.02,1340.02 1656.37,1341.43 1650.72,1342.85 1645.06,1344.25 1639.4,1345.65 1633.73,1347.02 1628.06,1348.38 1622.36,1349.7 1616.66,1351 1610.94,1352.27 1605.2,1353.5 1599.45,1354.7 1593.69,1355.87 1587.91,1357.01 1582.12,1358.12 1576.31,1359.2 1570.5,1360.26 1564.68,1361.31 1558.85,1362.34 1553.02,1363.37 1547.2,1364.4 1541.37,1365.45 1535.54,1366.48 1529.7,1367.46 1523.83,1368.4 1517.95,1369.3 1512.06,1370.15 1506.15,1370.96 1500.22,1371.73 1494.29,1372.45 1488.34,1373.13 1482.38,1373.76 1476.42,1374.36 1470.44,1374.92 1464.46,1375.44 1458.47,1375.93 1452.47,1376.39 1446.47,1376.82 1440.47,1377.22 1434.46,1377.6 1428.44,1377.96 1422.43,1378.31 1416.41,1378.64 1410.39,1378.97 1404.38,1379.3 1398.36,1379.62 1392.34,1379.96 1386.33,1380.32 1380.31,1380.71 1374.3,1381.12 1368.29,1381.53 1362.28,1381.93 1356.26,1382.31 1350.25,1382.68 1344.23,1383.01 1338.21,1383.3 1332.19,1383.56 1326.17,1383.78 1320.14,1383.95 1314.11,1384.08 1308.08,1384.17 1302.05,1384.22 1296.01,1384.24 1289.98,1384.23 1283.94,1384.2 1277.9,1384.15 1271.86,1384.11 1265.83,1384.07 1259.79,1384.04 1253.76,1383.95 1247.73,1383.79 1241.7,1383.58 1235.68,1383.32 1229.67,1383.02 1223.66,1382.67 1217.65,1382.28 1211.65,1381.86 1205.65,1381.42 1199.66,1380.94 1193.67,1380.45 1187.68,1379.94 1181.69,1379.41 1175.71,1378.87 1169.73,1378.31 1163.75,1377.75 1157.78,1377.19 1151.8,1376.62 1145.83,1376.04 1139.86,1375.47 1133.88,1374.89 1127.91,1374.32 1121.95,1373.69 1116.02,1373 1110.1,1372.26 1104.2,1371.48 1098.31,1370.66 1092.42,1369.8 1086.55,1368.93 1080.67,1368.03 1074.8,1367.11 1068.93,1366.18 1063.06,1365.24 1057.2,1364.29 1051.33,1363.34 1045.46,1362.37 1039.59,1361.4 1033.73,1360.42 1027.86,1359.43 1022.01,1358.43 1016.16,1357.41 1010.32,1356.37 1004.49,1355.31 998.671,1354.22 992.876,1353.09 987.102,1351.93 981.355,1350.71 975.639,1349.44 969.959,1348.1 964.32,1346.69 958.728,1345.2 953.216,1343.6 947.778,1341.91 942.385,1340.17 937.011,1338.41 931.636,1336.65 926.239,1334.91 920.806,1333.21 915.324,1331.57 909.785,1330 904.185,1328.5 898.521,1327.07 892.795,1325.7 887.012,1324.41 881.18,1323.16 875.312,1321.96 869.422,1320.78 863.529,1319.6 857.656,1318.39 851.827,1317.13 846.072,1315.77 840.422,1314.29 834.913,1312.64 829.584,1310.77 824.39,1308.74 819.176,1306.73 813.95,1304.73 808.723,1302.73 803.504,1300.72 798.301,1298.7 793.121,1296.65 787.969,1294.58 782.849,1292.47 777.762,1290.33 772.711,1288.16 767.693,1285.95 762.707,1283.7 757.75,1281.43 752.816,1279.14 747.899,1276.83 742.992,1274.51 738.084,1272.19 733.165,1269.88 728.22,1267.6 723.253,1265.33 718.277,1263.07 713.301,1260.81 708.335,1258.54 703.388,1256.25 698.467,1253.95 693.576,1251.62 688.722,1249.25 683.906,1246.86 679.132,1244.43 674.399,1241.97 669.706,1239.47 665.053,1236.94 660.436,1234.38 655.85,1231.79 651.29,1229.19 646.749,1226.56 642.218,1223.93 637.689,1221.3 633.151,1218.68 628.614,1216.05 624.132,1213.39 619.707,1210.68 615.337,1207.94 611.019,1205.16 606.752,1202.34 602.533,1199.5 598.36,1196.62 594.23,1193.72 590.14,1190.79 586.088,1187.84 582.071,1184.87 578.084,1181.88 574.126,1178.88 570.193,1175.86 566.282,1172.83 562.388,1169.79 558.508,1166.74 554.638,1163.68 550.775,1160.63 546.913,1157.57 543.049,1154.51 539.18,1151.45 535.318,1148.39 531.474,1145.32 527.655,1142.23 523.867,1139.13 520.118,1136 516.412,1132.86 512.753,1129.69 509.146,1126.5 505.593,1123.29 502.096,1120.05 498.658,1116.79 495.278,1113.5 491.956,1110.18 488.692,1106.84 485.485,1103.48 482.331,1100.09 479.228,1096.68 476.171,1093.26 473.157,1089.81 470.179,1086.35 467.232,1082.88 464.308,1079.4 461.401,1075.91 458.501,1072.42 455.599,1068.92 452.685,1065.44 449.745,1061.96 446.75,1058.5 443.713,1055.05 440.65,1051.62 437.577,1048.18 434.51,1044.75 431.46,1041.3 428.439,1037.85 425.458,1034.39 422.525,1030.91 419.647,1027.42 416.831,1023.9 414.079,1020.37 411.395,1016.81 408.781,1013.23 406.236,1009.63 403.758,1006.01 401.345,1002.37 398.992,998.709 396.693,995.033 394.441,991.342 392.226,987.639 390.039,983.927 387.867,980.211 385.698,976.494 383.516,972.78 381.308,969.076 379.107,965.369 376.94,961.655 374.807,957.932 372.712,954.201 370.656,950.46 368.641,946.711 366.668,942.952 364.737,939.184 362.849,935.407 361.004,931.621 359.2,927.826 357.439,924.022 355.717,920.21 354.035,916.39 352.389,912.563 350.777,908.728 349.197,904.888 347.646,901.041 346.12,897.19 344.616,893.334 343.128,889.475 341.654,885.614 340.186,881.751 338.721,877.887 337.253,874.025 335.775,870.164 334.351,866.298 333.062,862.418 331.892,858.526 330.827,854.623 329.854,850.709 328.96,846.786 328.133,842.854 327.364,838.916 326.642,834.97 325.959,831.02 325.308,827.064 324.682,823.104 324.076,819.141 323.486,815.176 322.909,811.208 322.341,807.238 321.781,803.267 321.23,799.295 320.687,795.323 320.156,791.35 319.637,787.377 319.136,783.405 318.657,779.432 318.205,775.46 317.787,771.488 317.412,767.516 317.088,763.544 316.824,759.572 316.632,755.6 316.524,751.626 316.512,747.653 316.61,743.677 316.795,739.7 316.938,735.719 317.042,731.735 317.121,727.75 317.19,723.764 317.262,719.779 317.347,715.794 317.457,711.811 317.6,707.83 317.785,703.852 318.018,699.876 318.305,695.905 318.651,691.937 319.059,687.972 319.531,684.013 320.068,680.057 320.67,676.105 321.335,672.158 322.061,668.214 322.844,664.274 323.679,660.337 324.561,656.404 325.482,652.473 326.433,648.544 327.405,644.616 328.387,640.688 329.366,636.761 330.331,632.833 331.271,628.903 332.227,624.973 333.222,621.046 334.257,617.123 335.336,613.204 336.462,609.291 337.636,605.385 338.861,601.486 340.139,597.595 341.47,593.712 342.856,589.839 344.296,585.975 345.79,582.12 347.339,578.276 348.941,574.441 350.595,570.617 352.3,566.802 354.054,562.997 355.854,559.201 357.699,555.414 359.584,551.635 361.506,547.864 363.462,544.1 365.447,540.342 367.457,536.589 369.487,532.84 371.531,529.095 373.584,525.351 375.639,521.608 377.691,517.865 379.731,514.119 381.758,510.369 383.799,506.62 385.864,502.875 387.958,499.136 390.084,495.404 392.248,491.682 394.453,487.971 396.701,484.273 398.996,480.589 401.34,476.92 403.734,473.266 406.182,469.63 408.683,466.012 411.238,462.411 413.848,458.829 416.513,455.266 419.232,451.721 422.005,448.195 424.83,444.687 427.705,441.197 430.629,437.724 433.599,434.267 436.612,430.826 439.664,427.399 442.754,423.986 445.875,420.584 449.024,417.192 452.196,413.808 455.385,410.431 458.586,407.059 461.794,403.689 465,400.318 468.2,396.945 471.384,393.566 474.563,390.185 477.786,386.821 481.057,383.476 484.375,380.15 487.738,376.844 491.147,373.558 494.601,370.291 498.099,367.045 501.639,363.819 505.221,360.613 508.843,357.427 512.505,354.261 516.205,351.115 519.942,347.987 523.714,344.878 527.52,341.788 531.358,338.715 535.227,335.659 539.125,332.619 543.049,329.595 547,326.585 550.973,323.589 554.968,320.606 558.981,317.634 563.012,314.672 567.058,311.719 571.116,308.773 575.184,305.834 579.259,302.9 583.34,299.969 587.423,297.039 591.505,294.109 595.585,291.177 599.658,288.242 603.732,285.305 607.829,282.38 611.951,279.471 616.102,276.579 620.285,273.708 624.499,270.857 628.748,268.03 633.033,265.227 637.354,262.45 641.711,259.699 646.107,256.975 650.54,254.279 655.01,251.61 659.517,248.968 664.061,246.353 668.639,243.764 673.251,241.201 677.895,238.662 682.569,236.146 687.271,233.651 691.998,231.176 696.747,228.718 701.516,226.275 706.301,223.845 711.099,221.424 715.904,219.01 720.714,216.598 725.523,214.186 730.327,211.77 735.122,209.347 739.94,206.942 744.8,204.57 749.7,202.233 754.639,199.933 759.619,197.671 764.638,195.448 769.696,193.266 774.792,191.123 779.925,189.022 785.094,186.963 790.299,184.944 795.538,182.966 800.81,181.028 806.113,179.129 811.446,177.268 816.807,175.444 822.195,173.654 827.608,171.897 833.043,170.171 838.499,168.473 843.973,166.801 849.464,165.152 854.967,163.521 860.482,161.907 866.005,160.305 871.534,158.711 877.065,157.12 882.596,155.529 888.122,153.933 893.643,152.327 899.169,150.726 904.711,149.146 910.271,147.589 915.847,146.057 921.439,144.55 927.049,143.07 932.674,141.618 938.316,140.194 943.974,138.799 949.647,137.433 955.335,136.096 961.037,134.787 966.754,133.508 972.483,132.256 978.226,131.031 983.981,129.832 989.747,128.659 995.523,127.509 1001.31,126.38 1007.1,125.272 1012.91,124.182 1018.72,123.108 1024.53,122.047 1030.35,120.997 1036.17,119.955 1042,118.917 1047.82,117.882 1053.65,116.844 1059.47,115.801 1065.29,114.755 1071.12,113.735 1076.97,112.749 1082.83,111.794 1088.7,110.873 1094.58,109.985 1100.48,109.129 1106.38,108.307 1112.3,107.518 1118.23,106.762 1124.16,106.037 1130.1,105.345 1136.05,104.683 1142.01,104.052 1147.98,103.451 1153.95,102.879 1159.93,102.334 1165.91,101.816 1171.9,101.323 1177.9,100.854 1183.89,100.408 1189.9,99.9827 1195.9,99.5767 1201.91,99.1881 1207.92,98.8152 1213.93,98.4558 1219.95,98.1079 1225.96,97.7693 1231.98,97.4375 1238,97.1103 1244.02,96.7851 1250.03,96.459 1256.05,96.1295 1262.07,95.7937 1268.08,95.406 1274.1,95.0413 1280.12,94.8289 1286.15,94.788 1292.19,94.8264 "/>
<path clip-path="url(#clip360)" d="M327.056 248.629 L750.198 248.629 L750.198 93.1086 L327.056 93.1086  Z" fill="#ffffff" fill-rule="evenodd" fill-opacity="1"/>
<polyline clip-path="url(#clip360)" style="stroke:#000000; stroke-linecap:round; stroke-linejoin:round; stroke-width:4; stroke-opacity:1; fill:none" points="327.056,248.629 750.198,248.629 750.198,93.1086 327.056,93.1086 327.056,248.629 "/>
<polyline clip-path="url(#clip360)" style="stroke:#009af9; stroke-linecap:round; stroke-linejoin:round; stroke-width:16; stroke-opacity:1; fill:none" points="350.34,144.949 490.043,144.949 "/>
<path clip-path="url(#clip360)" d="M529.345 130.84 Q524.253 130.84 521.244 134.636 Q518.258 138.432 518.258 144.983 Q518.258 151.511 521.244 155.307 Q524.253 159.104 529.345 159.104 Q534.438 159.104 537.401 155.307 Q540.387 151.511 540.387 144.983 Q540.387 138.432 537.401 134.636 Q534.438 130.84 529.345 130.84 M529.345 127.044 Q536.614 127.044 540.966 131.928 Q545.318 136.789 545.318 144.983 Q545.318 153.155 540.966 158.039 Q536.614 162.9 529.345 162.9 Q522.054 162.9 517.679 158.039 Q513.327 153.178 513.327 144.983 Q513.327 136.789 517.679 131.928 Q522.054 127.044 529.345 127.044 Z" fill="#000000" fill-rule="nonzero" fill-opacity="1" /><path clip-path="url(#clip360)" d="M567.47 140.284 Q566.753 139.868 565.896 139.682 Q565.063 139.474 564.044 139.474 Q560.433 139.474 558.489 141.835 Q556.568 144.173 556.568 148.571 L556.568 162.229 L552.285 162.229 L552.285 136.303 L556.568 136.303 L556.568 140.331 Q557.91 137.969 560.063 136.835 Q562.216 135.678 565.294 135.678 Q565.734 135.678 566.267 135.747 Q566.799 135.794 567.447 135.909 L567.47 140.284 Z" fill="#000000" fill-rule="nonzero" fill-opacity="1" /><path clip-path="url(#clip360)" d="M571.938 136.303 L576.197 136.303 L576.197 162.229 L571.938 162.229 L571.938 136.303 M571.938 126.21 L576.197 126.21 L576.197 131.604 L571.938 131.604 L571.938 126.21 Z" fill="#000000" fill-rule="nonzero" fill-opacity="1" /><path clip-path="url(#clip360)" d="M602.169 148.965 Q602.169 144.335 600.248 141.789 Q598.35 139.243 594.901 139.243 Q591.475 139.243 589.553 141.789 Q587.655 144.335 587.655 148.965 Q587.655 153.571 589.553 156.118 Q591.475 158.664 594.901 158.664 Q598.35 158.664 600.248 156.118 Q602.169 153.571 602.169 148.965 M606.428 159.011 Q606.428 165.631 603.489 168.849 Q600.549 172.09 594.484 172.09 Q592.239 172.09 590.248 171.742 Q588.257 171.418 586.382 170.724 L586.382 166.58 Q588.257 167.599 590.086 168.085 Q591.915 168.571 593.813 168.571 Q598.003 168.571 600.086 166.372 Q602.169 164.196 602.169 159.775 L602.169 157.668 Q600.85 159.96 598.79 161.094 Q596.729 162.229 593.859 162.229 Q589.091 162.229 586.174 158.594 Q583.257 154.96 583.257 148.965 Q583.257 142.946 586.174 139.312 Q589.091 135.678 593.859 135.678 Q596.729 135.678 598.79 136.812 Q600.85 137.946 602.169 140.238 L602.169 136.303 L606.428 136.303 L606.428 159.011 Z" fill="#000000" fill-rule="nonzero" fill-opacity="1" /><path clip-path="url(#clip360)" d="M615.201 136.303 L619.461 136.303 L619.461 162.229 L615.201 162.229 L615.201 136.303 M615.201 126.21 L619.461 126.21 L619.461 131.604 L615.201 131.604 L615.201 126.21 Z" fill="#000000" fill-rule="nonzero" fill-opacity="1" /><path clip-path="url(#clip360)" d="M649.924 146.581 L649.924 162.229 L645.664 162.229 L645.664 146.719 Q645.664 143.039 644.229 141.21 Q642.794 139.382 639.924 139.382 Q636.475 139.382 634.484 141.581 Q632.493 143.78 632.493 147.576 L632.493 162.229 L628.211 162.229 L628.211 136.303 L632.493 136.303 L632.493 140.331 Q634.021 137.993 636.081 136.835 Q638.164 135.678 640.873 135.678 Q645.34 135.678 647.632 138.456 Q649.924 141.21 649.924 146.581 Z" fill="#000000" fill-rule="nonzero" fill-opacity="1" /><path clip-path="url(#clip360)" d="M670.201 149.196 Q665.039 149.196 663.048 150.377 Q661.058 151.557 661.058 154.405 Q661.058 156.673 662.539 158.016 Q664.044 159.335 666.613 159.335 Q670.155 159.335 672.285 156.835 Q674.437 154.312 674.437 150.145 L674.437 149.196 L670.201 149.196 M678.697 147.437 L678.697 162.229 L674.437 162.229 L674.437 158.293 Q672.979 160.655 670.803 161.789 Q668.627 162.9 665.479 162.9 Q661.498 162.9 659.136 160.678 Q656.798 158.432 656.798 154.682 Q656.798 150.307 659.715 148.085 Q662.655 145.863 668.465 145.863 L674.437 145.863 L674.437 145.446 Q674.437 142.507 672.493 140.909 Q670.572 139.289 667.076 139.289 Q664.854 139.289 662.748 139.821 Q660.641 140.354 658.697 141.419 L658.697 137.483 Q661.035 136.581 663.234 136.141 Q665.433 135.678 667.516 135.678 Q673.141 135.678 675.919 138.594 Q678.697 141.511 678.697 147.437 Z" fill="#000000" fill-rule="nonzero" fill-opacity="1" /><path clip-path="url(#clip360)" d="M687.47 126.21 L691.729 126.21 L691.729 162.229 L687.47 162.229 L687.47 126.21 Z" fill="#000000" fill-rule="nonzero" fill-opacity="1" /><polyline clip-path="url(#clip360)" style="stroke:#e26f46; stroke-linecap:round; stroke-linejoin:round; stroke-width:16; stroke-opacity:1; fill:none" points="350.34,196.789 490.043,196.789 "/>
<path clip-path="url(#clip360)" d="M518.003 183.351 L518.003 196.337 L523.883 196.337 Q527.146 196.337 528.929 194.647 Q530.711 192.958 530.711 189.833 Q530.711 186.731 528.929 185.041 Q527.146 183.351 523.883 183.351 L518.003 183.351 M513.327 179.509 L523.883 179.509 Q529.693 179.509 532.656 182.147 Q535.642 184.763 535.642 189.833 Q535.642 194.948 532.656 197.564 Q529.693 200.18 523.883 200.18 L518.003 200.18 L518.003 214.069 L513.327 214.069 L513.327 179.509 Z" fill="#000000" fill-rule="nonzero" fill-opacity="1" /><path clip-path="url(#clip360)" d="M555.919 192.124 Q555.202 191.708 554.345 191.522 Q553.512 191.314 552.493 191.314 Q548.882 191.314 546.938 193.675 Q545.017 196.013 545.017 200.411 L545.017 214.069 L540.734 214.069 L540.734 188.143 L545.017 188.143 L545.017 192.171 Q546.359 189.809 548.512 188.675 Q550.665 187.518 553.743 187.518 Q554.183 187.518 554.716 187.587 Q555.248 187.634 555.896 187.749 L555.919 192.124 Z" fill="#000000" fill-rule="nonzero" fill-opacity="1" /><path clip-path="url(#clip360)" d="M581.521 200.041 L581.521 202.124 L561.938 202.124 Q562.216 206.522 564.577 208.837 Q566.961 211.129 571.197 211.129 Q573.651 211.129 575.942 210.527 Q578.257 209.925 580.526 208.721 L580.526 212.749 Q578.234 213.721 575.827 214.231 Q573.419 214.74 570.942 214.74 Q564.739 214.74 561.105 211.129 Q557.493 207.518 557.493 201.36 Q557.493 194.995 560.919 191.268 Q564.368 187.518 570.202 187.518 Q575.433 187.518 578.466 190.897 Q581.521 194.254 581.521 200.041 M577.262 198.791 Q577.216 195.296 575.294 193.212 Q573.396 191.129 570.248 191.129 Q566.683 191.129 564.53 193.143 Q562.401 195.157 562.077 198.814 L577.262 198.791 Z" fill="#000000" fill-rule="nonzero" fill-opacity="1" /><path clip-path="url(#clip360)" d="M605.572 192.078 L605.572 178.05 L609.831 178.05 L609.831 214.069 L605.572 214.069 L605.572 210.18 Q604.229 212.495 602.169 213.629 Q600.132 214.74 597.262 214.74 Q592.563 214.74 589.6 210.99 Q586.66 207.24 586.66 201.129 Q586.66 195.018 589.6 191.268 Q592.563 187.518 597.262 187.518 Q600.132 187.518 602.169 188.652 Q604.229 189.763 605.572 192.078 M591.058 201.129 Q591.058 205.828 592.979 208.513 Q594.924 211.175 598.303 211.175 Q601.683 211.175 603.627 208.513 Q605.572 205.828 605.572 201.129 Q605.572 196.43 603.627 193.768 Q601.683 191.083 598.303 191.083 Q594.924 191.083 592.979 193.768 Q591.058 196.43 591.058 201.129 Z" fill="#000000" fill-rule="nonzero" fill-opacity="1" /><path clip-path="url(#clip360)" d="M618.604 188.143 L622.863 188.143 L622.863 214.069 L618.604 214.069 L618.604 188.143 M618.604 178.05 L622.863 178.05 L622.863 183.444 L618.604 183.444 L618.604 178.05 Z" fill="#000000" fill-rule="nonzero" fill-opacity="1" /><path clip-path="url(#clip360)" d="M650.433 189.138 L650.433 193.12 Q648.627 192.124 646.799 191.638 Q644.993 191.129 643.141 191.129 Q638.998 191.129 636.706 193.768 Q634.414 196.384 634.414 201.129 Q634.414 205.874 636.706 208.513 Q638.998 211.129 643.141 211.129 Q644.993 211.129 646.799 210.643 Q648.627 210.133 650.433 209.138 L650.433 213.073 Q648.65 213.907 646.729 214.323 Q644.831 214.74 642.678 214.74 Q636.822 214.74 633.373 211.059 Q629.924 207.379 629.924 201.129 Q629.924 194.786 633.396 191.152 Q636.891 187.518 642.956 187.518 Q644.924 187.518 646.799 187.935 Q648.674 188.328 650.433 189.138 Z" fill="#000000" fill-rule="nonzero" fill-opacity="1" /><path clip-path="url(#clip360)" d="M662.053 180.782 L662.053 188.143 L670.826 188.143 L670.826 191.453 L662.053 191.453 L662.053 205.527 Q662.053 208.698 662.91 209.601 Q663.789 210.504 666.451 210.504 L670.826 210.504 L670.826 214.069 L666.451 214.069 Q661.521 214.069 659.646 212.24 Q657.771 210.388 657.771 205.527 L657.771 191.453 L654.646 191.453 L654.646 188.143 L657.771 188.143 L657.771 180.782 L662.053 180.782 Z" fill="#000000" fill-rule="nonzero" fill-opacity="1" /><path clip-path="url(#clip360)" d="M698.604 200.041 L698.604 202.124 L679.021 202.124 Q679.298 206.522 681.659 208.837 Q684.044 211.129 688.28 211.129 Q690.733 211.129 693.025 210.527 Q695.34 209.925 697.608 208.721 L697.608 212.749 Q695.317 213.721 692.909 214.231 Q690.502 214.74 688.025 214.74 Q681.822 214.74 678.187 211.129 Q674.576 207.518 674.576 201.36 Q674.576 194.995 678.002 191.268 Q681.451 187.518 687.284 187.518 Q692.516 187.518 695.548 190.897 Q698.604 194.254 698.604 200.041 M694.345 198.791 Q694.298 195.296 692.377 193.212 Q690.479 191.129 687.331 191.129 Q683.766 191.129 681.613 193.143 Q679.484 195.157 679.159 198.814 L694.345 198.791 Z" fill="#000000" fill-rule="nonzero" fill-opacity="1" /><path clip-path="url(#clip360)" d="M722.655 192.078 L722.655 178.05 L726.914 178.05 L726.914 214.069 L722.655 214.069 L722.655 210.18 Q721.312 212.495 719.252 213.629 Q717.215 214.74 714.344 214.74 Q709.645 214.74 706.682 210.99 Q703.743 207.24 703.743 201.129 Q703.743 195.018 706.682 191.268 Q709.645 187.518 714.344 187.518 Q717.215 187.518 719.252 188.652 Q721.312 189.763 722.655 192.078 M708.141 201.129 Q708.141 205.828 710.062 208.513 Q712.007 211.175 715.386 211.175 Q718.766 211.175 720.71 208.513 Q722.655 205.828 722.655 201.129 Q722.655 196.43 720.71 193.768 Q718.766 191.083 715.386 191.083 Q712.007 191.083 710.062 193.768 Q708.141 196.43 708.141 201.129 Z" fill="#000000" fill-rule="nonzero" fill-opacity="1" /></svg>
