<?xml version="1.0" encoding="utf-8"?>
<svg xmlns="http://www.w3.org/2000/svg" xmlns:xlink="http://www.w3.org/1999/xlink" width="600" height="400" viewBox="0 0 2400 1600">
<defs>
  <clipPath id="clip840">
    <rect x="0" y="0" width="2400" height="1600"/>
  </clipPath>
</defs>
<path clip-path="url(#clip840)" d="M0 1600 L2400 1600 L2400 0 L0 0  Z" fill="#ffffff" fill-rule="evenodd" fill-opacity="1"/>
<defs>
  <clipPath id="clip841">
    <rect x="480" y="0" width="1681" height="1600"/>
  </clipPath>
</defs>
<path clip-path="url(#clip840)" d="M257.204 1423.18 L2352.76 1423.18 L2352.76 47.2441 L257.204 47.2441  Z" fill="#ffffff" fill-rule="evenodd" fill-opacity="1"/>
<defs>
  <clipPath id="clip842">
    <rect x="257" y="47" width="2097" height="1377"/>
  </clipPath>
</defs>
<polyline clip-path="url(#clip842)" style="stroke:#000000; stroke-linecap:round; stroke-linejoin:round; stroke-width:2; stroke-opacity:0.1; fill:none" points="316.511,1423.18 316.511,47.2441 "/>
<polyline clip-path="url(#clip842)" style="stroke:#000000; stroke-linecap:round; stroke-linejoin:round; stroke-width:2; stroke-opacity:0.1; fill:none" points="810.745,1423.18 810.745,47.2441 "/>
<polyline clip-path="url(#clip842)" style="stroke:#000000; stroke-linecap:round; stroke-linejoin:round; stroke-width:2; stroke-opacity:0.1; fill:none" points="1304.98,1423.18 1304.98,47.2441 "/>
<polyline clip-path="url(#clip842)" style="stroke:#000000; stroke-linecap:round; stroke-linejoin:round; stroke-width:2; stroke-opacity:0.1; fill:none" points="1799.21,1423.18 1799.21,47.2441 "/>
<polyline clip-path="url(#clip842)" style="stroke:#000000; stroke-linecap:round; stroke-linejoin:round; stroke-width:2; stroke-opacity:0.1; fill:none" points="2293.45,1423.18 2293.45,47.2441 "/>
<polyline clip-path="url(#clip840)" style="stroke:#000000; stroke-linecap:round; stroke-linejoin:round; stroke-width:4; stroke-opacity:1; fill:none" points="257.204,1423.18 2352.76,1423.18 "/>
<polyline clip-path="url(#clip840)" style="stroke:#000000; stroke-linecap:round; stroke-linejoin:round; stroke-width:4; stroke-opacity:1; fill:none" points="316.511,1423.18 316.511,1404.28 "/>
<polyline clip-path="url(#clip840)" style="stroke:#000000; stroke-linecap:round; stroke-linejoin:round; stroke-width:4; stroke-opacity:1; fill:none" points="810.745,1423.18 810.745,1404.28 "/>
<polyline clip-path="url(#clip840)" style="stroke:#000000; stroke-linecap:round; stroke-linejoin:round; stroke-width:4; stroke-opacity:1; fill:none" points="1304.98,1423.18 1304.98,1404.28 "/>
<polyline clip-path="url(#clip840)" style="stroke:#000000; stroke-linecap:round; stroke-linejoin:round; stroke-width:4; stroke-opacity:1; fill:none" points="1799.21,1423.18 1799.21,1404.28 "/>
<polyline clip-path="url(#clip840)" style="stroke:#000000; stroke-linecap:round; stroke-linejoin:round; stroke-width:4; stroke-opacity:1; fill:none" points="2293.45,1423.18 2293.45,1404.28 "/>
<path clip-path="url(#clip840)" d="M263.039 1468.75 L292.715 1468.75 L292.715 1472.69 L263.039 1472.69 L263.039 1468.75 Z" fill="#000000" fill-rule="nonzero" fill-opacity="1" /><path clip-path="url(#clip840)" d="M303.617 1481.64 L311.256 1481.64 L311.256 1455.28 L302.946 1456.95 L302.946 1452.69 L311.21 1451.02 L315.886 1451.02 L315.886 1481.64 L323.525 1481.64 L323.525 1485.58 L303.617 1485.58 L303.617 1481.64 Z" fill="#000000" fill-rule="nonzero" fill-opacity="1" /><path clip-path="url(#clip840)" d="M332.969 1479.7 L337.853 1479.7 L337.853 1485.58 L332.969 1485.58 L332.969 1479.7 Z" fill="#000000" fill-rule="nonzero" fill-opacity="1" /><path clip-path="url(#clip840)" d="M358.038 1454.1 Q354.427 1454.1 352.599 1457.66 Q350.793 1461.2 350.793 1468.33 Q350.793 1475.44 352.599 1479.01 Q354.427 1482.55 358.038 1482.55 Q361.673 1482.55 363.478 1479.01 Q365.307 1475.44 365.307 1468.33 Q365.307 1461.2 363.478 1457.66 Q361.673 1454.1 358.038 1454.1 M358.038 1450.39 Q363.849 1450.39 366.904 1455 Q369.983 1459.58 369.983 1468.33 Q369.983 1477.06 366.904 1481.67 Q363.849 1486.25 358.038 1486.25 Q352.228 1486.25 349.15 1481.67 Q346.094 1477.06 346.094 1468.33 Q346.094 1459.58 349.15 1455 Q352.228 1450.39 358.038 1450.39 Z" fill="#000000" fill-rule="nonzero" fill-opacity="1" /><path clip-path="url(#clip840)" d="M757.771 1468.75 L787.447 1468.75 L787.447 1472.69 L757.771 1472.69 L757.771 1468.75 Z" fill="#000000" fill-rule="nonzero" fill-opacity="1" /><path clip-path="url(#clip840)" d="M807.539 1454.1 Q803.928 1454.1 802.1 1457.66 Q800.294 1461.2 800.294 1468.33 Q800.294 1475.44 802.1 1479.01 Q803.928 1482.55 807.539 1482.55 Q811.174 1482.55 812.979 1479.01 Q814.808 1475.44 814.808 1468.33 Q814.808 1461.2 812.979 1457.66 Q811.174 1454.1 807.539 1454.1 M807.539 1450.39 Q813.35 1450.39 816.405 1455 Q819.484 1459.58 819.484 1468.33 Q819.484 1477.06 816.405 1481.67 Q813.35 1486.25 807.539 1486.25 Q801.729 1486.25 798.651 1481.67 Q795.595 1477.06 795.595 1468.33 Q795.595 1459.58 798.651 1455 Q801.729 1450.39 807.539 1450.39 Z" fill="#000000" fill-rule="nonzero" fill-opacity="1" /><path clip-path="url(#clip840)" d="M827.701 1479.7 L832.586 1479.7 L832.586 1485.58 L827.701 1485.58 L827.701 1479.7 Z" fill="#000000" fill-rule="nonzero" fill-opacity="1" /><path clip-path="url(#clip840)" d="M842.817 1451.02 L861.173 1451.02 L861.173 1454.96 L847.099 1454.96 L847.099 1463.43 Q848.118 1463.08 849.136 1462.92 Q850.155 1462.73 851.173 1462.73 Q856.96 1462.73 860.34 1465.9 Q863.72 1469.08 863.72 1474.49 Q863.72 1480.07 860.247 1483.17 Q856.775 1486.25 850.456 1486.25 Q848.28 1486.25 846.011 1485.88 Q843.766 1485.51 841.359 1484.77 L841.359 1480.07 Q843.442 1481.2 845.664 1481.76 Q847.886 1482.32 850.363 1482.32 Q854.368 1482.32 856.706 1480.21 Q859.044 1478.1 859.044 1474.49 Q859.044 1470.88 856.706 1468.77 Q854.368 1466.67 850.363 1466.67 Q848.488 1466.67 846.613 1467.08 Q844.761 1467.5 842.817 1468.38 L842.817 1451.02 Z" fill="#000000" fill-rule="nonzero" fill-opacity="1" /><path clip-path="url(#clip840)" d="M1282.36 1454.1 Q1278.75 1454.1 1276.92 1457.66 Q1275.12 1461.2 1275.12 1468.33 Q1275.12 1475.44 1276.92 1479.01 Q1278.75 1482.55 1282.36 1482.55 Q1286 1482.55 1287.8 1479.01 Q1289.63 1475.44 1289.63 1468.33 Q1289.63 1461.2 1287.8 1457.66 Q1286 1454.1 1282.36 1454.1 M1282.36 1450.39 Q1288.17 1450.39 1291.23 1455 Q1294.31 1459.58 1294.31 1468.33 Q1294.31 1477.06 1291.23 1481.67 Q1288.17 1486.25 1282.36 1486.25 Q1276.55 1486.25 1273.48 1481.67 Q1270.42 1477.06 1270.42 1468.33 Q1270.42 1459.58 1273.48 1455 Q1276.55 1450.39 1282.36 1450.39 Z" fill="#000000" fill-rule="nonzero" fill-opacity="1" /><path clip-path="url(#clip840)" d="M1302.53 1479.7 L1307.41 1479.7 L1307.41 1485.58 L1302.53 1485.58 L1302.53 1479.7 Z" fill="#000000" fill-rule="nonzero" fill-opacity="1" /><path clip-path="url(#clip840)" d="M1327.6 1454.1 Q1323.98 1454.1 1322.16 1457.66 Q1320.35 1461.2 1320.35 1468.33 Q1320.35 1475.44 1322.16 1479.01 Q1323.98 1482.55 1327.6 1482.55 Q1331.23 1482.55 1333.04 1479.01 Q1334.86 1475.44 1334.86 1468.33 Q1334.86 1461.2 1333.04 1457.66 Q1331.23 1454.1 1327.6 1454.1 M1327.6 1450.39 Q1333.41 1450.39 1336.46 1455 Q1339.54 1459.58 1339.54 1468.33 Q1339.54 1477.06 1336.46 1481.67 Q1333.41 1486.25 1327.6 1486.25 Q1321.79 1486.25 1318.71 1481.67 Q1315.65 1477.06 1315.65 1468.33 Q1315.65 1459.58 1318.71 1455 Q1321.79 1450.39 1327.6 1450.39 Z" fill="#000000" fill-rule="nonzero" fill-opacity="1" /><path clip-path="url(#clip840)" d="M1777.1 1454.1 Q1773.49 1454.1 1771.66 1457.66 Q1769.85 1461.2 1769.85 1468.33 Q1769.85 1475.44 1771.66 1479.01 Q1773.49 1482.55 1777.1 1482.55 Q1780.73 1482.55 1782.54 1479.01 Q1784.37 1475.44 1784.37 1468.33 Q1784.37 1461.2 1782.54 1457.66 Q1780.73 1454.1 1777.1 1454.1 M1777.1 1450.39 Q1782.91 1450.39 1785.96 1455 Q1789.04 1459.58 1789.04 1468.33 Q1789.04 1477.06 1785.96 1481.67 Q1782.91 1486.25 1777.1 1486.25 Q1771.29 1486.25 1768.21 1481.67 Q1765.15 1477.06 1765.15 1468.33 Q1765.15 1459.58 1768.21 1455 Q1771.29 1450.39 1777.1 1450.39 Z" fill="#000000" fill-rule="nonzero" fill-opacity="1" /><path clip-path="url(#clip840)" d="M1797.26 1479.7 L1802.14 1479.7 L1802.14 1485.58 L1797.26 1485.58 L1797.26 1479.7 Z" fill="#000000" fill-rule="nonzero" fill-opacity="1" /><path clip-path="url(#clip840)" d="M1812.37 1451.02 L1830.73 1451.02 L1830.73 1454.96 L1816.66 1454.96 L1816.66 1463.43 Q1817.68 1463.08 1818.69 1462.92 Q1819.71 1462.73 1820.73 1462.73 Q1826.52 1462.73 1829.9 1465.9 Q1833.28 1469.08 1833.28 1474.49 Q1833.28 1480.07 1829.8 1483.17 Q1826.33 1486.25 1820.01 1486.25 Q1817.84 1486.25 1815.57 1485.88 Q1813.32 1485.51 1810.92 1484.77 L1810.92 1480.07 Q1813 1481.2 1815.22 1481.76 Q1817.44 1482.32 1819.92 1482.32 Q1823.93 1482.32 1826.26 1480.21 Q1828.6 1478.1 1828.6 1474.49 Q1828.6 1470.88 1826.26 1468.77 Q1823.93 1466.67 1819.92 1466.67 Q1818.05 1466.67 1816.17 1467.08 Q1814.32 1467.5 1812.37 1468.38 L1812.37 1451.02 Z" fill="#000000" fill-rule="nonzero" fill-opacity="1" /><path clip-path="url(#clip840)" d="M2260.6 1481.64 L2268.24 1481.64 L2268.24 1455.28 L2259.93 1456.95 L2259.93 1452.69 L2268.19 1451.02 L2272.87 1451.02 L2272.87 1481.64 L2280.51 1481.64 L2280.51 1485.58 L2260.6 1485.58 L2260.6 1481.64 Z" fill="#000000" fill-rule="nonzero" fill-opacity="1" /><path clip-path="url(#clip840)" d="M2289.95 1479.7 L2294.84 1479.7 L2294.84 1485.58 L2289.95 1485.58 L2289.95 1479.7 Z" fill="#000000" fill-rule="nonzero" fill-opacity="1" /><path clip-path="url(#clip840)" d="M2315.02 1454.1 Q2311.41 1454.1 2309.58 1457.66 Q2307.78 1461.2 2307.78 1468.33 Q2307.78 1475.44 2309.58 1479.01 Q2311.41 1482.55 2315.02 1482.55 Q2318.66 1482.55 2320.46 1479.01 Q2322.29 1475.44 2322.29 1468.33 Q2322.29 1461.2 2320.46 1457.66 Q2318.66 1454.1 2315.02 1454.1 M2315.02 1450.39 Q2320.83 1450.39 2323.89 1455 Q2326.97 1459.58 2326.97 1468.33 Q2326.97 1477.06 2323.89 1481.67 Q2320.83 1486.25 2315.02 1486.25 Q2309.21 1486.25 2306.13 1481.67 Q2303.08 1477.06 2303.08 1468.33 Q2303.08 1459.58 2306.13 1455 Q2309.21 1450.39 2315.02 1450.39 Z" fill="#000000" fill-rule="nonzero" fill-opacity="1" /><path clip-path="url(#clip840)" d="M1134.03 1525.81 L1134.03 1543.66 L1142.11 1543.66 Q1146.6 1543.66 1149.05 1541.34 Q1151.5 1539.02 1151.5 1534.72 Q1151.5 1530.45 1149.05 1528.13 Q1146.6 1525.81 1142.11 1525.81 L1134.03 1525.81 M1127.6 1520.52 L1142.11 1520.52 Q1150.1 1520.52 1154.18 1524.15 Q1158.28 1527.75 1158.28 1534.72 Q1158.28 1541.75 1154.18 1545.35 Q1150.1 1548.95 1142.11 1548.95 L1134.03 1548.95 L1134.03 1568.04 L1127.6 1568.04 L1127.6 1520.52 Z" fill="#000000" fill-rule="nonzero" fill-opacity="1" /><path clip-path="url(#clip840)" d="M1178.14 1536.5 Q1173.43 1536.5 1170.7 1540.19 Q1167.96 1543.85 1167.96 1550.25 Q1167.96 1556.65 1170.66 1560.34 Q1173.4 1564 1178.14 1564 Q1182.82 1564 1185.56 1560.31 Q1188.3 1556.62 1188.3 1550.25 Q1188.3 1543.92 1185.56 1540.23 Q1182.82 1536.5 1178.14 1536.5 M1178.14 1531.54 Q1185.78 1531.54 1190.14 1536.5 Q1194.5 1541.47 1194.5 1550.25 Q1194.5 1559 1190.14 1564 Q1185.78 1568.97 1178.14 1568.97 Q1170.47 1568.97 1166.11 1564 Q1161.78 1559 1161.78 1550.25 Q1161.78 1541.47 1166.11 1536.5 Q1170.47 1531.54 1178.14 1531.54 Z" fill="#000000" fill-rule="nonzero" fill-opacity="1" /><path clip-path="url(#clip840)" d="M1226.94 1533.45 L1226.94 1538.98 Q1224.45 1537.71 1221.78 1537.07 Q1219.11 1536.44 1216.24 1536.44 Q1211.88 1536.44 1209.69 1537.77 Q1207.52 1539.11 1207.52 1541.79 Q1207.52 1543.82 1209.08 1545 Q1210.64 1546.15 1215.35 1547.2 L1217.36 1547.64 Q1223.59 1548.98 1226.2 1551.43 Q1228.85 1553.85 1228.85 1558.21 Q1228.85 1563.17 1224.9 1566.07 Q1220.98 1568.97 1214.11 1568.97 Q1211.24 1568.97 1208.13 1568.39 Q1205.04 1567.85 1201.6 1566.74 L1201.6 1560.69 Q1204.85 1562.38 1208 1563.24 Q1211.15 1564.07 1214.24 1564.07 Q1218.37 1564.07 1220.6 1562.66 Q1222.83 1561.23 1222.83 1558.65 Q1222.83 1556.27 1221.21 1554.99 Q1219.62 1553.72 1214.17 1552.54 L1212.14 1552.07 Q1206.69 1550.92 1204.27 1548.56 Q1201.86 1546.18 1201.86 1542.04 Q1201.86 1537.01 1205.42 1534.27 Q1208.99 1531.54 1215.54 1531.54 Q1218.79 1531.54 1221.65 1532.01 Q1224.52 1532.49 1226.94 1533.45 Z" fill="#000000" fill-rule="nonzero" fill-opacity="1" /><path clip-path="url(#clip840)" d="M1238.17 1532.4 L1244.03 1532.4 L1244.03 1568.04 L1238.17 1568.04 L1238.17 1532.4 M1238.17 1518.52 L1244.03 1518.52 L1244.03 1525.93 L1238.17 1525.93 L1238.17 1518.52 Z" fill="#000000" fill-rule="nonzero" fill-opacity="1" /><path clip-path="url(#clip840)" d="M1262.08 1522.27 L1262.08 1532.4 L1274.14 1532.4 L1274.14 1536.95 L1262.08 1536.95 L1262.08 1556.3 Q1262.08 1560.66 1263.25 1561.9 Q1264.46 1563.14 1268.12 1563.14 L1274.14 1563.14 L1274.14 1568.04 L1268.12 1568.04 Q1261.34 1568.04 1258.76 1565.53 Q1256.19 1562.98 1256.19 1556.3 L1256.19 1536.95 L1251.89 1536.95 L1251.89 1532.4 L1256.19 1532.4 L1256.19 1522.27 L1262.08 1522.27 Z" fill="#000000" fill-rule="nonzero" fill-opacity="1" /><path clip-path="url(#clip840)" d="M1281.84 1532.4 L1287.7 1532.4 L1287.7 1568.04 L1281.84 1568.04 L1281.84 1532.4 M1281.84 1518.52 L1287.7 1518.52 L1287.7 1525.93 L1281.84 1525.93 L1281.84 1518.52 Z" fill="#000000" fill-rule="nonzero" fill-opacity="1" /><path clip-path="url(#clip840)" d="M1313.76 1536.5 Q1309.05 1536.5 1306.32 1540.19 Q1303.58 1543.85 1303.58 1550.25 Q1303.58 1556.65 1306.28 1560.34 Q1309.02 1564 1313.76 1564 Q1318.44 1564 1321.18 1560.31 Q1323.92 1556.62 1323.92 1550.25 Q1323.92 1543.92 1321.18 1540.23 Q1318.44 1536.5 1313.76 1536.5 M1313.76 1531.54 Q1321.4 1531.54 1325.76 1536.5 Q1330.12 1541.47 1330.12 1550.25 Q1330.12 1559 1325.76 1564 Q1321.4 1568.97 1313.76 1568.97 Q1306.09 1568.97 1301.73 1564 Q1297.4 1559 1297.4 1550.25 Q1297.4 1541.47 1301.73 1536.5 Q1306.09 1531.54 1313.76 1531.54 Z" fill="#000000" fill-rule="nonzero" fill-opacity="1" /><path clip-path="url(#clip840)" d="M1369.46 1546.53 L1369.46 1568.04 L1363.61 1568.04 L1363.61 1546.72 Q1363.61 1541.66 1361.63 1539.14 Q1359.66 1536.63 1355.71 1536.63 Q1350.97 1536.63 1348.23 1539.65 Q1345.5 1542.68 1345.5 1547.9 L1345.5 1568.04 L1339.61 1568.04 L1339.61 1532.4 L1345.5 1532.4 L1345.5 1537.93 Q1347.6 1534.72 1350.43 1533.13 Q1353.3 1531.54 1357.02 1531.54 Q1363.16 1531.54 1366.31 1535.36 Q1369.46 1539.14 1369.46 1546.53 Z" fill="#000000" fill-rule="nonzero" fill-opacity="1" /><path clip-path="url(#clip840)" d="M1415.93 1518.58 Q1411.67 1525.9 1409.6 1533.06 Q1407.53 1540.23 1407.53 1547.58 Q1407.53 1554.93 1409.6 1562.16 Q1411.7 1569.35 1415.93 1576.64 L1410.84 1576.64 Q1406.07 1569.16 1403.68 1561.93 Q1401.32 1554.71 1401.32 1547.58 Q1401.32 1540.48 1403.68 1533.29 Q1406.04 1526.09 1410.84 1518.58 L1415.93 1518.58 Z" fill="#000000" fill-rule="nonzero" fill-opacity="1" /><path clip-path="url(#clip840)" d="M1430.8 1550.25 Q1430.8 1556.71 1433.44 1560.4 Q1436.11 1564.07 1440.76 1564.07 Q1445.41 1564.07 1448.08 1560.4 Q1450.75 1556.71 1450.75 1550.25 Q1450.75 1543.79 1448.08 1540.13 Q1445.41 1536.44 1440.76 1536.44 Q1436.11 1536.44 1433.44 1540.13 Q1430.8 1543.79 1430.8 1550.25 M1450.75 1562.7 Q1448.91 1565.88 1446.08 1567.44 Q1443.27 1568.97 1439.33 1568.97 Q1432.87 1568.97 1428.79 1563.81 Q1424.75 1558.65 1424.75 1550.25 Q1424.75 1541.85 1428.79 1536.69 Q1432.87 1531.54 1439.33 1531.54 Q1443.27 1531.54 1446.08 1533.1 Q1448.91 1534.62 1450.75 1537.81 L1450.75 1532.4 L1456.61 1532.4 L1456.61 1581.6 L1450.75 1581.6 L1450.75 1562.7 Z" fill="#000000" fill-rule="nonzero" fill-opacity="1" /><path clip-path="url(#clip840)" d="M1467.75 1518.58 L1472.84 1518.58 Q1477.62 1526.09 1479.97 1533.29 Q1482.36 1540.48 1482.36 1547.58 Q1482.36 1554.71 1479.97 1561.93 Q1477.62 1569.16 1472.84 1576.64 L1467.75 1576.64 Q1471.98 1569.35 1474.05 1562.16 Q1476.15 1554.93 1476.15 1547.58 Q1476.15 1540.23 1474.05 1533.06 Q1471.98 1525.9 1467.75 1518.58 Z" fill="#000000" fill-rule="nonzero" fill-opacity="1" /><polyline clip-path="url(#clip842)" style="stroke:#000000; stroke-linecap:round; stroke-linejoin:round; stroke-width:2; stroke-opacity:0.1; fill:none" points="257.204,1384.24 2352.76,1384.24 "/>
<polyline clip-path="url(#clip842)" style="stroke:#000000; stroke-linecap:round; stroke-linejoin:round; stroke-width:2; stroke-opacity:0.1; fill:none" points="257.204,1060.01 2352.76,1060.01 "/>
<polyline clip-path="url(#clip842)" style="stroke:#000000; stroke-linecap:round; stroke-linejoin:round; stroke-width:2; stroke-opacity:0.1; fill:none" points="257.204,735.776 2352.76,735.776 "/>
<polyline clip-path="url(#clip842)" style="stroke:#000000; stroke-linecap:round; stroke-linejoin:round; stroke-width:2; stroke-opacity:0.1; fill:none" points="257.204,411.543 2352.76,411.543 "/>
<polyline clip-path="url(#clip842)" style="stroke:#000000; stroke-linecap:round; stroke-linejoin:round; stroke-width:2; stroke-opacity:0.1; fill:none" points="257.204,87.3104 2352.76,87.3104 "/>
<polyline clip-path="url(#clip840)" style="stroke:#000000; stroke-linecap:round; stroke-linejoin:round; stroke-width:4; stroke-opacity:1; fill:none" points="257.204,1423.18 257.204,47.2441 "/>
<polyline clip-path="url(#clip840)" style="stroke:#000000; stroke-linecap:round; stroke-linejoin:round; stroke-width:4; stroke-opacity:1; fill:none" points="257.204,1384.24 276.102,1384.24 "/>
<polyline clip-path="url(#clip840)" style="stroke:#000000; stroke-linecap:round; stroke-linejoin:round; stroke-width:4; stroke-opacity:1; fill:none" points="257.204,1060.01 276.102,1060.01 "/>
<polyline clip-path="url(#clip840)" style="stroke:#000000; stroke-linecap:round; stroke-linejoin:round; stroke-width:4; stroke-opacity:1; fill:none" points="257.204,735.776 276.102,735.776 "/>
<polyline clip-path="url(#clip840)" style="stroke:#000000; stroke-linecap:round; stroke-linejoin:round; stroke-width:4; stroke-opacity:1; fill:none" points="257.204,411.543 276.102,411.543 "/>
<polyline clip-path="url(#clip840)" style="stroke:#000000; stroke-linecap:round; stroke-linejoin:round; stroke-width:4; stroke-opacity:1; fill:none" points="257.204,87.3104 276.102,87.3104 "/>
<path clip-path="url(#clip840)" d="M114.26 1384.69 L143.936 1384.69 L143.936 1388.63 L114.26 1388.63 L114.26 1384.69 Z" fill="#000000" fill-rule="nonzero" fill-opacity="1" /><path clip-path="url(#clip840)" d="M154.839 1397.59 L162.477 1397.59 L162.477 1371.22 L154.167 1372.89 L154.167 1368.63 L162.431 1366.96 L167.107 1366.96 L167.107 1397.59 L174.746 1397.59 L174.746 1401.52 L154.839 1401.52 L154.839 1397.59 Z" fill="#000000" fill-rule="nonzero" fill-opacity="1" /><path clip-path="url(#clip840)" d="M184.19 1395.64 L189.075 1395.64 L189.075 1401.52 L184.19 1401.52 L184.19 1395.64 Z" fill="#000000" fill-rule="nonzero" fill-opacity="1" /><path clip-path="url(#clip840)" d="M209.26 1370.04 Q205.649 1370.04 203.82 1373.6 Q202.014 1377.15 202.014 1384.28 Q202.014 1391.38 203.82 1394.95 Q205.649 1398.49 209.26 1398.49 Q212.894 1398.49 214.699 1394.95 Q216.528 1391.38 216.528 1384.28 Q216.528 1377.15 214.699 1373.6 Q212.894 1370.04 209.26 1370.04 M209.26 1366.34 Q215.07 1366.34 218.125 1370.94 Q221.204 1375.53 221.204 1384.28 Q221.204 1393 218.125 1397.61 Q215.07 1402.19 209.26 1402.19 Q203.449 1402.19 200.371 1397.61 Q197.315 1393 197.315 1384.28 Q197.315 1375.53 200.371 1370.94 Q203.449 1366.34 209.26 1366.34 Z" fill="#000000" fill-rule="nonzero" fill-opacity="1" /><path clip-path="url(#clip840)" d="M115.256 1060.46 L144.931 1060.46 L144.931 1064.4 L115.256 1064.4 L115.256 1060.46 Z" fill="#000000" fill-rule="nonzero" fill-opacity="1" /><path clip-path="url(#clip840)" d="M165.024 1045.81 Q161.413 1045.81 159.584 1049.37 Q157.778 1052.91 157.778 1060.04 Q157.778 1067.15 159.584 1070.71 Q161.413 1074.26 165.024 1074.26 Q168.658 1074.26 170.464 1070.71 Q172.292 1067.15 172.292 1060.04 Q172.292 1052.91 170.464 1049.37 Q168.658 1045.81 165.024 1045.81 M165.024 1042.1 Q170.834 1042.1 173.889 1046.71 Q176.968 1051.29 176.968 1060.04 Q176.968 1068.77 173.889 1073.38 Q170.834 1077.96 165.024 1077.96 Q159.214 1077.96 156.135 1073.38 Q153.079 1068.77 153.079 1060.04 Q153.079 1051.29 156.135 1046.71 Q159.214 1042.1 165.024 1042.1 Z" fill="#000000" fill-rule="nonzero" fill-opacity="1" /><path clip-path="url(#clip840)" d="M185.186 1071.41 L190.07 1071.41 L190.07 1077.29 L185.186 1077.29 L185.186 1071.41 Z" fill="#000000" fill-rule="nonzero" fill-opacity="1" /><path clip-path="url(#clip840)" d="M200.301 1042.73 L218.658 1042.73 L218.658 1046.66 L204.584 1046.66 L204.584 1055.14 Q205.602 1054.79 206.621 1054.63 Q207.639 1054.44 208.658 1054.44 Q214.445 1054.44 217.824 1057.61 Q221.204 1060.78 221.204 1066.2 Q221.204 1071.78 217.732 1074.88 Q214.26 1077.96 207.94 1077.96 Q205.764 1077.96 203.496 1077.59 Q201.25 1077.22 198.843 1076.48 L198.843 1071.78 Q200.926 1072.91 203.149 1073.47 Q205.371 1074.02 207.848 1074.02 Q211.852 1074.02 214.19 1071.92 Q216.528 1069.81 216.528 1066.2 Q216.528 1062.59 214.19 1060.48 Q211.852 1058.38 207.848 1058.38 Q205.973 1058.38 204.098 1058.79 Q202.246 1059.21 200.301 1060.09 L200.301 1042.73 Z" fill="#000000" fill-rule="nonzero" fill-opacity="1" /><path clip-path="url(#clip840)" d="M164.028 721.575 Q160.417 721.575 158.589 725.139 Q156.783 728.681 156.783 735.811 Q156.783 742.917 158.589 746.482 Q160.417 750.023 164.028 750.023 Q167.663 750.023 169.468 746.482 Q171.297 742.917 171.297 735.811 Q171.297 728.681 169.468 725.139 Q167.663 721.575 164.028 721.575 M164.028 717.871 Q169.839 717.871 172.894 722.477 Q175.973 727.061 175.973 735.811 Q175.973 744.537 172.894 749.144 Q169.839 753.727 164.028 753.727 Q158.218 753.727 155.14 749.144 Q152.084 744.537 152.084 735.811 Q152.084 727.061 155.14 722.477 Q158.218 717.871 164.028 717.871 Z" fill="#000000" fill-rule="nonzero" fill-opacity="1" /><path clip-path="url(#clip840)" d="M184.19 747.176 L189.075 747.176 L189.075 753.056 L184.19 753.056 L184.19 747.176 Z" fill="#000000" fill-rule="nonzero" fill-opacity="1" /><path clip-path="url(#clip840)" d="M209.26 721.575 Q205.649 721.575 203.82 725.139 Q202.014 728.681 202.014 735.811 Q202.014 742.917 203.82 746.482 Q205.649 750.023 209.26 750.023 Q212.894 750.023 214.699 746.482 Q216.528 742.917 216.528 735.811 Q216.528 728.681 214.699 725.139 Q212.894 721.575 209.26 721.575 M209.26 717.871 Q215.07 717.871 218.125 722.477 Q221.204 727.061 221.204 735.811 Q221.204 744.537 218.125 749.144 Q215.07 753.727 209.26 753.727 Q203.449 753.727 200.371 749.144 Q197.315 744.537 197.315 735.811 Q197.315 727.061 200.371 722.477 Q203.449 717.871 209.26 717.871 Z" fill="#000000" fill-rule="nonzero" fill-opacity="1" /><path clip-path="url(#clip840)" d="M165.024 397.342 Q161.413 397.342 159.584 400.907 Q157.778 404.448 157.778 411.578 Q157.778 418.684 159.584 422.249 Q161.413 425.791 165.024 425.791 Q168.658 425.791 170.464 422.249 Q172.292 418.684 172.292 411.578 Q172.292 404.448 170.464 400.907 Q168.658 397.342 165.024 397.342 M165.024 393.638 Q170.834 393.638 173.889 398.245 Q176.968 402.828 176.968 411.578 Q176.968 420.305 173.889 424.911 Q170.834 429.494 165.024 429.494 Q159.214 429.494 156.135 424.911 Q153.079 420.305 153.079 411.578 Q153.079 402.828 156.135 398.245 Q159.214 393.638 165.024 393.638 Z" fill="#000000" fill-rule="nonzero" fill-opacity="1" /><path clip-path="url(#clip840)" d="M185.186 422.944 L190.07 422.944 L190.07 428.823 L185.186 428.823 L185.186 422.944 Z" fill="#000000" fill-rule="nonzero" fill-opacity="1" /><path clip-path="url(#clip840)" d="M200.301 394.263 L218.658 394.263 L218.658 398.198 L204.584 398.198 L204.584 406.67 Q205.602 406.323 206.621 406.161 Q207.639 405.976 208.658 405.976 Q214.445 405.976 217.824 409.147 Q221.204 412.319 221.204 417.735 Q221.204 423.314 217.732 426.416 Q214.26 429.494 207.94 429.494 Q205.764 429.494 203.496 429.124 Q201.25 428.754 198.843 428.013 L198.843 423.314 Q200.926 424.448 203.149 425.004 Q205.371 425.559 207.848 425.559 Q211.852 425.559 214.19 423.453 Q216.528 421.346 216.528 417.735 Q216.528 414.124 214.19 412.018 Q211.852 409.911 207.848 409.911 Q205.973 409.911 204.098 410.328 Q202.246 410.745 200.301 411.624 L200.301 394.263 Z" fill="#000000" fill-rule="nonzero" fill-opacity="1" /><path clip-path="url(#clip840)" d="M154.839 100.655 L162.477 100.655 L162.477 74.2897 L154.167 75.9563 L154.167 71.6971 L162.431 70.0304 L167.107 70.0304 L167.107 100.655 L174.746 100.655 L174.746 104.59 L154.839 104.59 L154.839 100.655 Z" fill="#000000" fill-rule="nonzero" fill-opacity="1" /><path clip-path="url(#clip840)" d="M184.19 98.7108 L189.075 98.7108 L189.075 104.59 L184.19 104.59 L184.19 98.7108 Z" fill="#000000" fill-rule="nonzero" fill-opacity="1" /><path clip-path="url(#clip840)" d="M209.26 73.1091 Q205.649 73.1091 203.82 76.6739 Q202.014 80.2156 202.014 87.3452 Q202.014 94.4516 203.82 98.0164 Q205.649 101.558 209.26 101.558 Q212.894 101.558 214.699 98.0164 Q216.528 94.4516 216.528 87.3452 Q216.528 80.2156 214.699 76.6739 Q212.894 73.1091 209.26 73.1091 M209.26 69.4054 Q215.07 69.4054 218.125 74.0119 Q221.204 78.5952 221.204 87.3452 Q221.204 96.072 218.125 100.678 Q215.07 105.262 209.26 105.262 Q203.449 105.262 200.371 100.678 Q197.315 96.072 197.315 87.3452 Q197.315 78.5952 200.371 74.0119 Q203.449 69.4054 209.26 69.4054 Z" fill="#000000" fill-rule="nonzero" fill-opacity="1" /><path clip-path="url(#clip840)" d="M16.4842 971.396 L16.4842 961.815 L48.8219 949.689 L16.4842 937.498 L16.4842 927.918 L64.0042 927.918 L64.0042 934.188 L22.277 934.188 L54.8694 946.442 L54.8694 952.903 L22.277 965.157 L64.0042 965.157 L64.0042 971.396 L16.4842 971.396 Z" fill="#000000" fill-rule="nonzero" fill-opacity="1" /><path clip-path="url(#clip840)" d="M32.4621 901.596 Q32.4621 906.306 36.1542 909.044 Q39.8145 911.781 46.212 911.781 Q52.6095 911.781 56.3017 909.075 Q59.9619 906.338 59.9619 901.596 Q59.9619 896.917 56.2698 894.18 Q52.5777 891.442 46.212 891.442 Q39.8781 891.442 36.186 894.18 Q32.4621 896.917 32.4621 901.596 M27.4968 901.596 Q27.4968 893.957 32.4621 889.596 Q37.4273 885.236 46.212 885.236 Q54.9649 885.236 59.9619 889.596 Q64.9272 893.957 64.9272 901.596 Q64.9272 909.266 59.9619 913.627 Q54.9649 917.955 46.212 917.955 Q37.4273 917.955 32.4621 913.627 Q27.4968 909.266 27.4968 901.596 Z" fill="#000000" fill-rule="nonzero" fill-opacity="1" /><path clip-path="url(#clip840)" d="M35.1993 847.774 Q31.2526 845.577 29.3747 842.522 Q27.4968 839.466 27.4968 835.329 Q27.4968 829.759 31.4117 826.735 Q35.2948 823.711 42.4881 823.711 L64.0042 823.711 L64.0042 829.599 L42.679 829.599 Q37.5546 829.599 35.072 831.414 Q32.5894 833.228 32.5894 836.952 Q32.5894 841.503 35.6131 844.145 Q38.6368 846.787 43.8567 846.787 L64.0042 846.787 L64.0042 852.675 L42.679 852.675 Q37.5228 852.675 35.072 854.489 Q32.5894 856.304 32.5894 860.091 Q32.5894 864.579 35.6449 867.221 Q38.6686 869.863 43.8567 869.863 L64.0042 869.863 L64.0042 875.751 L28.3562 875.751 L28.3562 869.863 L33.8944 869.863 Q30.616 867.857 29.0564 865.056 Q27.4968 862.256 27.4968 858.404 Q27.4968 854.521 29.4702 851.816 Q31.4436 849.079 35.1993 847.774 Z" fill="#000000" fill-rule="nonzero" fill-opacity="1" /><path clip-path="url(#clip840)" d="M44.7161 781.538 L47.5806 781.538 L47.5806 808.465 Q53.6281 808.083 56.8109 804.837 Q59.9619 801.559 59.9619 795.734 Q59.9619 792.36 59.1344 789.209 Q58.3069 786.026 56.6518 782.907 L62.1899 782.907 Q63.5267 786.058 64.227 789.368 Q64.9272 792.678 64.9272 796.084 Q64.9272 804.614 59.9619 809.611 Q54.9967 814.576 46.5303 814.576 Q37.7774 814.576 32.6531 809.866 Q27.4968 805.123 27.4968 797.103 Q27.4968 789.909 32.1438 785.74 Q36.7589 781.538 44.7161 781.538 M42.9973 787.395 Q38.1912 787.459 35.3266 790.1 Q32.4621 792.71 32.4621 797.039 Q32.4621 801.94 35.2312 804.901 Q38.0002 807.829 43.0292 808.274 L42.9973 787.395 Z" fill="#000000" fill-rule="nonzero" fill-opacity="1" /><path clip-path="url(#clip840)" d="M42.4881 742.294 L64.0042 742.294 L64.0042 748.15 L42.679 748.15 Q37.6183 748.15 35.1038 750.124 Q32.5894 752.097 32.5894 756.044 Q32.5894 760.786 35.6131 763.523 Q38.6368 766.261 43.8567 766.261 L64.0042 766.261 L64.0042 772.149 L28.3562 772.149 L28.3562 766.261 L33.8944 766.261 Q30.6797 764.16 29.0883 761.327 Q27.4968 758.463 27.4968 754.739 Q27.4968 748.596 31.3163 745.445 Q35.1038 742.294 42.4881 742.294 Z" fill="#000000" fill-rule="nonzero" fill-opacity="1" /><path clip-path="url(#clip840)" d="M18.2347 724.82 L28.3562 724.82 L28.3562 712.757 L32.9077 712.757 L32.9077 724.82 L52.2594 724.82 Q56.6199 724.82 57.8613 723.642 Q59.1026 722.433 59.1026 718.773 L59.1026 712.757 L64.0042 712.757 L64.0042 718.773 Q64.0042 725.552 61.4897 728.13 Q58.9434 730.708 52.2594 730.708 L32.9077 730.708 L32.9077 735.005 L28.3562 735.005 L28.3562 730.708 L18.2347 730.708 L18.2347 724.82 Z" fill="#000000" fill-rule="nonzero" fill-opacity="1" /><path clip-path="url(#clip840)" d="M49.9359 705.659 L28.3562 705.659 L28.3562 699.803 L49.7131 699.803 Q54.7739 699.803 57.3202 697.829 Q59.8346 695.856 59.8346 691.909 Q59.8346 687.167 56.8109 684.43 Q53.7872 681.66 48.5673 681.66 L28.3562 681.66 L28.3562 675.804 L64.0042 675.804 L64.0042 681.66 L58.5296 681.66 Q61.7762 683.793 63.3676 686.626 Q64.9272 689.427 64.9272 693.151 Q64.9272 699.293 61.1078 702.476 Q57.2883 705.659 49.9359 705.659 M27.4968 690.923 L27.4968 690.923 Z" fill="#000000" fill-rule="nonzero" fill-opacity="1" /><path clip-path="url(#clip840)" d="M35.1993 635.987 Q31.2526 633.79 29.3747 630.735 Q27.4968 627.679 27.4968 623.542 Q27.4968 617.972 31.4117 614.948 Q35.2948 611.924 42.4881 611.924 L64.0042 611.924 L64.0042 617.812 L42.679 617.812 Q37.5546 617.812 35.072 619.627 Q32.5894 621.441 32.5894 625.165 Q32.5894 629.716 35.6131 632.358 Q38.6368 635 43.8567 635 L64.0042 635 L64.0042 640.888 L42.679 640.888 Q37.5228 640.888 35.072 642.702 Q32.5894 644.517 32.5894 648.304 Q32.5894 652.792 35.6449 655.434 Q38.6686 658.076 43.8567 658.076 L64.0042 658.076 L64.0042 663.964 L28.3562 663.964 L28.3562 658.076 L33.8944 658.076 Q30.616 656.07 29.0564 653.269 Q27.4968 650.468 27.4968 646.617 Q27.4968 642.734 29.4702 640.029 Q31.4436 637.291 35.1993 635.987 Z" fill="#000000" fill-rule="nonzero" fill-opacity="1" /><path clip-path="url(#clip840)" d="M14.5426 565.454 Q21.8632 569.72 29.0246 571.788 Q36.186 573.857 43.5384 573.857 Q50.8908 573.857 58.1159 571.788 Q65.3091 569.688 72.5979 565.454 L72.5979 570.547 Q65.1182 575.321 57.8931 577.708 Q50.668 580.064 43.5384 580.064 Q36.4406 580.064 29.2474 577.708 Q22.0542 575.353 14.5426 570.547 L14.5426 565.454 Z" fill="#000000" fill-rule="nonzero" fill-opacity="1" /><path clip-path="url(#clip840)" d="M58.657 548.426 L77.5631 548.426 L77.5631 554.315 L28.3562 554.315 L28.3562 548.426 L33.7671 548.426 Q30.5842 546.58 29.0564 543.779 Q27.4968 540.947 27.4968 537.032 Q27.4968 530.539 32.6531 526.496 Q37.8093 522.422 46.212 522.422 Q54.6147 522.422 59.771 526.496 Q64.9272 530.539 64.9272 537.032 Q64.9272 540.947 63.3994 543.779 Q61.8398 546.58 58.657 548.426 M46.212 528.502 Q39.7508 528.502 36.0905 531.175 Q32.3984 533.817 32.3984 538.464 Q32.3984 543.111 36.0905 545.784 Q39.7508 548.426 46.212 548.426 Q52.6732 548.426 56.3653 545.784 Q60.0256 543.111 60.0256 538.464 Q60.0256 533.817 56.3653 531.175 Q52.6732 528.502 46.212 528.502 Z" fill="#000000" fill-rule="nonzero" fill-opacity="1" /><path clip-path="url(#clip840)" d="M14.5426 513.638 L14.5426 508.545 Q22.0542 503.771 29.2474 501.415 Q36.4406 499.028 43.5384 499.028 Q50.668 499.028 57.8931 501.415 Q65.1182 503.771 72.5979 508.545 L72.5979 513.638 Q65.3091 509.404 58.1159 507.336 Q50.8908 505.235 43.5384 505.235 Q36.186 505.235 29.0246 507.336 Q21.8632 509.404 14.5426 513.638 Z" fill="#000000" fill-rule="nonzero" fill-opacity="1" /><polyline clip-path="url(#clip842)" style="stroke:#009af9; stroke-linecap:round; stroke-linejoin:round; stroke-width:16; stroke-opacity:1; fill:none" points="1304.98,87.3104 1311.05,87.3226 1317.12,87.3594 1323.19,87.4205 1329.26,87.5061 1335.33,87.6162 1341.4,87.7507 1347.46,87.9096 1353.53,88.093 1359.59,88.3009 1365.65,88.5332 1371.71,88.7898 1377.77,89.0709 1383.82,89.3764 1389.87,89.7062 1395.92,90.0605 1401.96,90.4391 1408,90.842 1414.04,91.2693 1420.07,91.7208 1426.1,92.1967 1432.12,92.6969 1438.14,93.2213 1444.15,93.7699 1450.16,94.3428 1456.16,94.9399 1462.16,95.5611 1468.15,96.2065 1474.13,96.876 1480.11,97.5696 1486.08,98.2873 1492.05,99.029 1498.01,99.7948 1503.96,100.585 1509.9,101.398 1515.84,102.236 1521.76,103.097 1527.68,103.983 1533.59,104.892 1539.5,105.825 1545.39,106.782 1551.27,107.762 1557.15,108.767 1563.01,109.795 1568.87,110.846 1574.71,111.921 1580.55,113.02 1586.38,114.142 1592.19,115.287 1597.99,116.456 1603.79,117.649 1609.57,118.864 1615.34,120.103 1621.1,121.365 1626.84,122.651 1632.58,123.959 1638.3,125.29 1644.01,126.645 1649.7,128.023 1655.39,129.423 1661.06,130.846 1666.71,132.292 1672.36,133.761 1677.99,135.253 1683.6,136.767 1689.2,138.304 1694.79,139.863 1700.36,141.445 1705.92,143.05 1711.46,144.676 1716.98,146.325 1722.5,147.996 1727.99,149.69 1733.47,151.405 1738.93,153.143 1744.38,154.902 1749.81,156.684 1755.22,158.487 1760.62,160.312 1766,162.159 1771.36,164.027 1776.7,165.917 1782.03,167.829 1787.34,169.761 1792.63,171.716 1797.9,173.691 1803.15,175.688 1808.39,177.706 1813.6,179.745 1818.8,181.804 1823.97,183.885 1829.13,185.987 1834.27,188.109 1839.39,190.252 1844.48,192.416 1849.56,194.6 1854.62,196.804 1859.65,199.029 1864.67,201.274 1869.66,203.539 1874.63,205.824 1879.58,208.13 1884.51,210.455 1889.42,212.8 1894.31,215.165 1899.17,217.549 1904.01,219.953 1908.83,222.376 1913.62,224.819 1918.39,227.281 1923.14,229.762 1927.87,232.263 1932.57,234.782 1937.25,237.32 1941.9,239.877 1946.54,242.453 1951.14,245.047 1955.72,247.66 1960.28,250.291 1964.81,252.94 1969.32,255.608 1973.81,258.294 1978.26,260.998 1982.7,263.72 1987.1,266.459 1991.48,269.217 1995.84,271.992 2000.17,274.784 2004.47,277.594 2008.75,280.421 2013,283.265 2017.22,286.126 2021.42,289.005 2025.58,291.9 2029.73,294.812 2033.84,297.74 2037.93,300.685 2041.99,303.647 2046.02,306.624 2050.02,309.618 2054,312.628 2057.95,315.654 2061.87,318.696 2065.76,321.754 2069.62,324.827 2073.45,327.916 2077.26,331.02 2081.03,334.139 2084.78,337.273 2088.49,340.423 2092.18,343.587 2095.84,346.767 2099.46,349.96 2103.06,353.169 2106.63,356.392 2110.16,359.629 2113.67,362.88 2117.15,366.146 2120.59,369.425 2124.01,372.718 2127.39,376.025 2130.74,379.346 2134.06,382.68 2137.35,386.027 2140.61,389.388 2143.84,392.761 2147.03,396.147 2150.2,399.547 2153.33,402.959 2156.43,406.383 2159.5,409.82 2162.53,413.269 2165.54,416.731 2168.51,420.204 2171.45,423.689 2174.35,427.187 2177.22,430.695 2180.06,434.216 2182.87,437.747 2185.64,441.29 2188.38,444.844 2191.09,448.409 2193.76,451.985 2196.4,455.571 2199.01,459.168 2201.58,462.776 2204.12,466.394 2206.63,470.022 2209.1,473.66 2211.54,477.307 2213.94,480.965 2216.31,484.632 2218.64,488.309 2220.94,491.995 2223.21,495.69 2225.44,499.395 2227.63,503.108 2229.79,506.83 2231.92,510.56 2234.01,514.3 2236.07,518.047 2238.09,521.803 2240.07,525.566 2242.02,529.338 2243.94,533.118 2245.82,536.905 2247.66,540.699 2249.47,544.501 2251.24,548.311 2252.98,552.127 2254.68,555.95 2256.35,559.78 2257.98,563.617 2259.57,567.46 2261.13,571.309 2262.65,575.165 2264.14,579.027 2265.59,582.894 2267,586.768 2268.38,590.647 2269.72,594.531 2271.02,598.421 2272.29,602.316 2273.52,606.216 2274.71,610.121 2275.87,614.031 2276.99,617.945 2278.08,621.864 2279.13,625.787 2280.14,629.714 2281.11,633.645 2282.05,637.58 2282.95,641.519 2283.82,645.461 2284.64,649.407 2285.43,653.356 2286.19,657.308 2286.9,661.263 2287.58,665.221 2288.22,669.181 2288.83,673.144 2289.4,677.11 2289.93,681.077 2290.42,685.047 2290.88,689.018 2291.3,692.992 2291.68,696.967 2292.02,700.943 2292.33,704.921 2292.6,708.9 2292.83,712.879 2293.03,716.86 2293.19,720.842 2293.31,724.824 2293.39,728.806 2293.44,732.789 2293.45,736.772 2293.42,740.754 2293.35,744.737 2293.25,748.719 2293.11,752.701 2292.94,756.682 2292.72,760.662 2292.47,764.642 2292.18,768.62 2291.85,772.597 2291.49,776.573 2291.09,780.547 2290.65,784.52 2290.18,788.49 2289.67,792.459 2289.12,796.425 2288.53,800.389 2287.91,804.351 2287.25,808.31 2286.55,812.267 2285.81,816.22 2285.04,820.171 2284.23,824.118 2283.39,828.062 2282.51,832.003 2281.59,835.94 2280.63,839.873 2279.64,843.802 2278.61,847.727 2277.54,851.648 2276.44,855.564 2275.3,859.476 2274.12,863.384 2272.91,867.286 2271.66,871.184 2270.37,875.076 2269.05,878.963 2267.69,882.845 2266.3,886.721 2264.87,890.592 2263.4,894.457 2261.89,898.315 2260.35,902.168 2258.78,906.014 2257.17,909.854 2255.52,913.688 2253.84,917.514 2252.12,921.334 2250.36,925.147 2248.57,928.952 2246.74,932.751 2244.88,936.541 2242.98,940.325 2241.05,944.1 2239.08,947.868 2237.08,951.628 2235.04,955.38 2232.97,959.123 2230.86,962.858 2228.72,966.584 2226.54,970.302 2224.33,974.01 2222.08,977.71 2219.8,981.401 2217.48,985.082 2215.13,988.754 2212.74,992.417 2210.32,996.07 2207.87,999.712 2205.38,1003.35 2202.86,1006.97 2200.3,1010.58 2197.71,1014.18 2195.09,1017.78 2192.43,1021.36 2189.74,1024.93 2187.02,1028.49 2184.26,1032.03 2181.47,1035.57 2178.65,1039.1 2175.79,1042.61 2172.9,1046.12 2169.98,1049.61 2167.03,1053.09 2164.04,1056.55 2161.02,1060.01 2157.97,1063.45 2154.88,1066.88 2151.77,1070.3 2148.62,1073.71 2145.44,1077.1 2142.23,1080.48 2138.99,1083.85 2135.71,1087.2 2132.41,1090.54 2129.07,1093.87 2125.7,1097.18 2122.3,1100.48 2118.87,1103.77 2115.41,1107.04 2111.92,1110.3 2108.4,1113.54 2104.85,1116.77 2101.26,1119.99 2097.65,1123.19 2094.01,1126.38 2090.34,1129.55 2086.64,1132.71 2082.91,1135.85 2079.15,1138.97 2075.36,1142.09 2071.54,1145.18 2067.69,1148.26 2063.81,1151.33 2059.91,1154.38 2055.98,1157.41 2052.01,1160.43 2048.03,1163.43 2044.01,1166.42 2039.96,1169.39 2035.89,1172.34 2031.79,1175.28 2027.66,1178.2 2023.5,1181.1 2019.32,1183.99 2015.11,1186.86 2010.87,1189.71 2006.61,1192.55 2002.32,1195.37 1998.01,1198.17 1993.66,1200.95 1989.3,1203.72 1984.9,1206.46 1980.48,1209.2 1976.04,1211.91 1971.57,1214.6 1967.07,1217.28 1962.55,1219.94 1958.01,1222.58 1953.44,1225.2 1948.84,1227.8 1944.22,1230.39 1939.58,1232.96 1934.91,1235.5 1930.22,1238.03 1925.51,1240.54 1920.77,1243.03 1916.01,1245.5 1911.23,1247.96 1906.42,1250.39 1901.59,1252.8 1896.74,1255.2 1891.87,1257.57 1886.97,1259.93 1882.05,1262.26 1877.11,1264.58 1872.15,1266.87 1867.17,1269.15 1862.16,1271.4 1857.14,1273.64 1852.09,1275.85 1847.02,1278.05 1841.94,1280.22 1836.83,1282.37 1831.7,1284.51 1826.56,1286.62 1821.39,1288.71 1816.2,1290.78 1811,1292.83 1805.77,1294.86 1800.53,1296.86 1795.27,1298.85 1789.99,1300.82 1784.69,1302.76 1779.37,1304.68 1774.03,1306.58 1768.68,1308.46 1763.31,1310.32 1757.92,1312.15 1752.52,1313.97 1747.1,1315.76 1741.66,1317.53 1736.2,1319.28 1730.73,1321.01 1725.25,1322.71 1719.74,1324.39 1714.22,1326.05 1708.69,1327.69 1703.14,1329.31 1697.58,1330.9 1692,1332.47 1686.4,1334.02 1680.8,1335.54 1675.17,1337.05 1669.54,1338.53 1663.89,1339.99 1658.22,1341.42 1652.55,1342.83 1646.86,1344.22 1641.15,1345.59 1635.44,1346.93 1629.71,1348.25 1623.97,1349.55 1618.22,1350.82 1612.45,1352.07 1606.68,1353.3 1600.89,1354.5 1595.09,1355.68 1589.28,1356.84 1583.46,1357.97 1577.63,1359.08 1571.79,1360.17 1565.94,1361.23 1560.08,1362.27 1554.21,1363.29 1548.33,1364.28 1542.44,1365.25 1536.55,1366.2 1530.64,1367.12 1524.72,1368.01 1518.8,1368.89 1512.87,1369.74 1506.93,1370.56 1500.98,1371.37 1495.03,1372.14 1489.07,1372.9 1483.1,1373.63 1477.12,1374.33 1471.14,1375.01 1465.15,1375.67 1459.16,1376.3 1453.16,1376.91 1447.16,1377.5 1441.15,1378.06 1435.13,1378.6 1429.11,1379.11 1423.08,1379.6 1417.05,1380.06 1411.02,1380.5 1404.98,1380.91 1398.94,1381.31 1392.89,1381.67 1386.85,1382.01 1380.79,1382.33 1374.74,1382.62 1368.68,1382.89 1362.62,1383.14 1356.56,1383.36 1350.5,1383.55 1344.43,1383.72 1338.36,1383.87 1332.3,1383.99 1326.23,1384.09 1320.16,1384.16 1314.09,1384.21 1308.02,1384.24 1301.94,1384.24 1295.87,1384.21 1289.8,1384.16 1283.73,1384.09 1277.66,1383.99 1271.6,1383.87 1265.53,1383.72 1259.46,1383.55 1253.4,1383.36 1247.34,1383.14 1241.28,1382.89 1235.22,1382.62 1229.17,1382.33 1223.11,1382.01 1217.07,1381.67 1211.02,1381.3 1204.98,1380.91 1198.94,1380.5 1192.91,1380.06 1186.88,1379.6 1180.85,1379.11 1174.83,1378.6 1168.81,1378.06 1162.8,1377.5 1156.8,1376.91 1150.8,1376.3 1144.81,1375.67 1138.82,1375.01 1132.84,1374.33 1126.86,1373.63 1120.89,1372.9 1114.93,1372.14 1108.98,1371.37 1103.03,1370.56 1097.09,1369.74 1091.16,1368.89 1085.24,1368.01 1079.32,1367.12 1073.41,1366.2 1067.52,1365.25 1061.63,1364.28 1055.75,1363.29 1049.88,1362.27 1044.02,1361.23 1038.17,1360.17 1032.33,1359.08 1026.5,1357.97 1020.68,1356.84 1014.87,1355.68 1009.07,1354.5 1003.28,1353.3 997.506,1352.07 991.742,1350.82 985.99,1349.55 980.249,1348.25 974.521,1346.93 968.806,1345.59 963.103,1344.22 957.413,1342.83 951.736,1341.42 946.073,1339.99 940.423,1338.53 934.787,1337.05 929.164,1335.54 923.556,1334.02 917.963,1332.47 912.384,1330.9 906.819,1329.31 901.27,1327.69 895.736,1326.05 890.218,1324.39 884.714,1322.71 879.227,1321.01 873.756,1319.28 868.302,1317.53 862.863,1315.76 857.442,1313.97 852.037,1312.15 846.65,1310.32 841.279,1308.46 835.926,1306.58 830.591,1304.68 825.274,1302.76 819.975,1300.82 814.694,1298.85 809.431,1296.86 804.188,1294.86 798.963,1292.83 793.757,1290.78 788.571,1288.71 783.404,1286.62 778.257,1284.51 773.129,1282.37 768.022,1280.22 762.935,1278.05 757.868,1275.85 752.822,1273.64 747.797,1271.4 742.793,1269.15 737.81,1266.87 732.849,1264.58 727.909,1262.26 722.991,1259.93 718.094,1257.57 713.22,1255.2 708.368,1252.8 703.539,1250.39 698.732,1247.96 693.949,1245.5 689.188,1243.03 684.451,1240.54 679.737,1238.03 675.046,1235.5 670.38,1232.96 665.737,1230.39 661.118,1227.8 656.524,1225.2 651.954,1222.58 647.409,1219.94 642.888,1217.28 638.393,1214.6 633.923,1211.91 629.478,1209.2 625.058,1206.46 620.664,1203.72 616.296,1200.95 611.954,1198.17 607.638,1195.37 603.349,1192.55 599.086,1189.71 594.849,1186.86 590.639,1183.99 586.457,1181.1 582.301,1178.2 578.173,1175.28 574.072,1172.34 569.998,1169.39 565.952,1166.42 561.935,1163.43 557.945,1160.43 553.983,1157.41 550.05,1154.38 546.145,1151.33 542.269,1148.26 538.422,1145.18 534.603,1142.09 530.814,1138.97 527.053,1135.85 523.323,1132.71 519.621,1129.55 515.949,1126.38 512.307,1123.19 508.695,1119.99 505.113,1116.77 501.561,1113.54 498.04,1110.3 494.549,1107.04 491.088,1103.77 487.658,1100.48 484.259,1097.18 480.891,1093.87 477.554,1090.54 474.248,1087.2 470.974,1083.85 467.731,1080.48 464.52,1077.1 461.34,1073.71 458.192,1070.3 455.076,1066.88 451.992,1063.45 448.941,1060.01 445.921,1056.55 442.934,1053.09 439.98,1049.61 437.058,1046.12 434.169,1042.61 431.313,1039.1 428.489,1035.57 425.699,1032.03 422.942,1028.49 420.218,1024.93 417.528,1021.36 414.871,1017.77 412.248,1014.18 409.658,1010.58 407.102,1006.97 404.58,1003.35 402.092,999.712 399.638,996.069 397.218,992.417 394.833,988.754 392.481,985.082 390.164,981.401 387.882,977.71 385.634,974.01 383.421,970.301 381.243,966.584 379.1,962.858 376.991,959.123 374.918,955.379 372.879,951.628 370.876,947.868 368.908,944.1 366.975,940.325 365.078,936.542 363.216,932.75 361.39,928.952 359.599,925.147 357.844,921.334 356.124,917.514 354.441,913.687 352.793,909.854 351.181,906.014 349.606,902.168 348.066,898.315 346.562,894.457 345.094,890.592 343.663,886.721 342.268,882.845 340.909,878.963 339.587,875.076 338.301,871.184 337.052,867.286 335.839,863.384 334.662,859.476 333.522,855.564 332.419,851.648 331.353,847.727 330.323,843.802 329.33,839.873 328.374,835.939 327.455,832.003 326.572,828.062 325.727,824.118 324.918,820.171 324.146,816.22 323.412,812.267 322.714,808.31 322.054,804.351 321.43,800.389 320.844,796.425 320.294,792.458 319.782,788.49 319.307,784.519 318.87,780.547 318.469,776.573 318.106,772.597 317.78,768.62 317.491,764.642 317.239,760.662 317.025,756.682 316.848,752.701 316.708,748.719 316.605,744.737 316.54,740.754 316.512,736.772 316.521,732.789 316.568,728.806 316.652,724.823 316.773,720.842 316.932,716.86 317.127,712.879 317.36,708.899 317.631,704.921 317.938,700.943 318.283,696.966 318.665,692.992 319.084,689.018 319.54,685.047 320.034,681.077 320.564,677.11 321.132,673.144 321.737,669.181 322.379,665.221 323.058,661.263 323.774,657.308 324.528,653.356 325.318,649.407 326.145,645.461 327.009,641.519 327.91,637.58 328.847,633.645 329.822,629.714 330.833,625.787 331.881,621.864 332.966,617.945 334.088,614.031 335.246,610.121 336.441,606.216 337.672,602.316 338.94,598.421 340.244,594.531 341.584,590.647 342.961,586.768 344.374,582.894 345.824,579.027 347.309,575.165 348.831,571.309 350.389,567.46 351.983,563.617 353.613,559.78 355.278,555.95 356.98,552.127 358.717,548.311 360.49,544.501 362.298,540.699 364.143,536.905 366.022,533.118 367.937,529.338 369.887,525.567 371.873,521.803 373.894,518.047 375.95,514.299 378.041,510.56 380.167,506.83 382.328,503.108 384.524,499.395 386.754,495.69 389.019,491.995 391.319,488.309 393.653,484.632 396.021,480.965 398.424,477.307 400.861,473.659 403.332,470.021 405.837,466.394 408.376,462.776 410.949,459.168 413.555,455.571 416.195,451.985 418.869,448.409 421.576,444.844 424.317,441.29 427.09,437.747 429.897,434.215 432.737,430.695 435.609,427.186 438.515,423.689 441.453,420.204 444.424,416.731 447.427,413.269 450.463,409.82 453.53,406.383 456.63,402.959 459.762,399.547 462.926,396.147 466.121,392.761 469.349,389.387 472.607,386.027 475.897,382.68 479.219,379.346 482.571,376.025 485.955,372.718 489.369,369.425 492.815,366.146 496.29,362.88 499.797,359.629 503.334,356.392 506.901,353.169 510.498,349.96 514.125,346.767 517.782,343.587 521.468,340.423 525.185,337.273 528.93,334.139 532.705,331.019 536.509,327.916 540.342,324.827 544.203,321.754 548.094,318.696 552.013,315.654 555.961,312.628 559.937,309.618 563.94,306.624 567.972,303.646 572.032,300.685 576.119,297.74 580.233,294.812 584.376,291.9 588.545,289.005 592.741,286.126 596.964,283.265 601.214,280.421 605.491,277.594 609.793,274.784 614.122,271.991 618.477,269.217 622.858,266.459 627.265,263.72 631.697,260.998 636.155,258.294 640.638,255.608 645.146,252.941 649.679,250.291 654.236,247.66 658.818,245.047 663.425,242.452 668.055,239.877 672.71,237.32 677.389,234.782 682.091,232.262 686.817,229.762 691.566,227.281 696.338,224.819 701.133,222.376 705.951,219.953 710.792,217.549 715.655,215.164 720.54,212.8 725.447,210.455 730.376,208.13 735.327,205.824 740.299,203.539 745.293,201.274 750.307,199.029 755.343,196.804 760.399,194.6 765.476,192.416 770.574,190.252 775.691,188.109 780.828,185.987 785.985,183.885 791.162,181.804 796.358,179.745 801.573,177.706 806.807,175.688 812.061,173.691 817.332,171.716 822.622,169.761 827.931,167.828 833.257,165.917 838.601,164.027 843.962,162.159 849.342,160.312 854.738,158.487 860.151,156.684 865.581,154.902 871.027,153.143 876.49,151.405 881.969,149.69 887.464,147.997 892.975,146.325 898.502,144.676 904.043,143.05 909.6,141.445 915.171,139.863 920.758,138.304 926.359,136.767 931.974,135.253 937.603,133.761 943.246,132.292 948.903,130.846 954.573,129.423 960.257,128.022 965.953,126.645 971.663,125.29 977.384,123.959 983.118,122.651 988.864,121.365 994.623,120.103 1000.39,118.864 1006.17,117.649 1011.97,116.456 1017.77,115.287 1023.59,114.142 1029.41,113.02 1035.25,111.921 1041.09,110.846 1046.95,109.795 1052.81,108.767 1058.69,107.762 1064.57,106.782 1070.47,105.825 1076.37,104.892 1082.28,103.983 1088.2,103.097 1094.12,102.236 1100.06,101.398 1106,100.585 1111.95,99.7948 1117.91,99.029 1123.88,98.2873 1129.85,97.5696 1135.83,96.876 1141.81,96.2065 1147.8,95.5611 1153.8,94.9399 1159.8,94.3428 1165.81,93.7699 1171.82,93.2213 1177.84,92.6968 1183.86,92.1967 1189.89,91.7208 1195.92,91.2693 1201.96,90.842 1208,90.4391 1214.04,90.0605 1220.09,89.7062 1226.14,89.3764 1232.19,89.0709 1238.25,88.7898 1244.31,88.5331 1250.37,88.3009 1256.43,88.093 1262.5,87.9096 1268.56,87.7507 1274.63,87.6162 1280.7,87.5061 1286.77,87.4205 1292.84,87.3594 1298.91,87.3226 1304.98,87.3104 "/>
<polyline clip-path="url(#clip842)" style="stroke:#e26f46; stroke-linecap:round; stroke-linejoin:round; stroke-width:16; stroke-opacity:1; fill:none" points="1304.98,87.3104 1311.05,87.2372 1317.12,87.2093 1323.21,86.1857 1329.27,86.3797 1335.34,86.574 1341.4,86.7682 1347.46,86.9625 1353.52,87.1568 1359.58,87.3509 1365.64,87.5452 1371.7,87.7559 1377.76,88.0146 1383.81,88.3163 1389.86,88.6554 1395.9,89.0263 1401.94,89.4241 1407.97,89.8442 1414.01,90.2824 1420.04,90.7347 1426.07,91.1977 1432.09,91.6682 1438.12,92.1436 1444.14,92.6214 1450.17,93.0997 1456.19,93.5953 1462.19,94.1865 1468.17,94.8605 1474.14,95.594 1480.1,96.3674 1486.05,97.164 1492,97.9705 1497.95,98.7768 1503.9,99.576 1509.86,100.364 1515.81,101.142 1521.77,101.911 1527.73,102.677 1533.69,103.453 1539.63,104.284 1545.54,105.184 1551.43,106.151 1557.29,107.181 1563.13,108.272 1568.94,109.419 1574.73,110.617 1580.49,111.861 1586.24,113.144 1591.97,114.461 1597.68,115.804 1603.39,117.164 1609.09,118.534 1614.79,119.904 1620.49,121.26 1626.23,122.579 1631.97,123.877 1637.72,125.172 1643.46,126.481 1649.18,127.818 1654.87,129.193 1660.54,130.613 1666.17,132.085 1671.77,133.61 1677.34,135.187 1682.87,136.813 1688.38,138.483 1693.87,140.187 1699.34,141.913 1704.8,143.647 1710.28,145.371 1715.77,147.069 1721.28,148.746 1726.79,150.415 1732.3,152.087 1737.8,153.772 1743.29,155.477 1748.75,157.208 1754.19,158.97 1759.61,160.765 1765,162.593 1770.36,164.452 1775.7,166.34 1781.03,168.251 1786.34,170.179 1791.64,172.114 1796.95,174.046 1802.25,175.985 1807.48,178 1812.64,180.088 1817.74,182.239 1822.79,184.444 1827.79,186.692 1832.77,188.975 1837.71,191.288 1842.63,193.622 1847.54,195.972 1852.44,198.333 1857.32,200.702 1862.2,203.074 1867.08,205.448 1871.96,207.822 1876.84,210.194 1881.72,212.565 1886.6,214.936 1891.48,217.307 1896.37,219.669 1901.3,222.004 1906.25,224.323 1911.21,226.635 1916.16,228.95 1921.1,231.275 1926.02,233.617 1930.91,235.982 1935.76,238.376 1940.58,240.801 1945.34,243.261 1950.06,245.758 1954.73,248.292 1959.36,250.864 1963.93,253.473 1968.47,256.115 1972.96,258.789 1977.41,261.491 1981.84,264.214 1986.25,266.953 1990.64,269.701 1995.04,272.449 1999.45,275.189 2003.86,277.92 2008.24,280.676 2012.58,283.461 2016.88,286.275 2021.13,289.118 2025.33,291.988 2029.5,294.884 2033.62,297.807 2037.7,300.754 2041.74,303.725 2045.74,306.718 2049.7,309.731 2053.64,312.762 2057.54,315.81 2061.42,318.873 2065.27,321.947 2069.11,325.032 2072.93,328.124 2076.75,331.22 2080.56,334.318 2084.38,337.415 2088.2,340.508 2092.01,343.609 2095.81,346.72 2099.58,349.846 2103.32,352.988 2107.02,356.147 2110.68,359.326 2114.3,362.525 2117.86,365.746 2121.38,368.989 2124.84,372.255 2128.25,375.543 2131.61,378.853 2134.91,382.186 2138.17,385.541 2141.37,388.915 2144.53,392.309 2147.64,395.721 2150.72,399.149 2153.76,402.59 2156.77,406.043 2159.76,409.505 2162.73,412.972 2165.7,416.443 2168.67,419.912 2171.65,423.378 2174.63,426.843 2177.54,430.335 2180.38,433.855 2183.14,437.399 2185.84,440.968 2188.46,444.56 2191.02,448.173 2193.51,451.805 2195.94,455.456 2198.31,459.123 2200.62,462.806 2202.88,466.503 2205.09,470.213 2207.26,473.935 2209.38,477.667 2211.46,481.408 2213.51,485.157 2215.52,488.912 2217.51,492.674 2219.48,496.439 2221.43,500.209 2223.37,503.98 2225.3,507.753 2227.23,511.526 2229.16,515.299 2231.1,519.071 2233.08,522.835 2235.1,526.591 2237.15,530.343 2239.21,534.092 2241.27,537.842 2243.31,541.594 2245.34,545.351 2247.33,549.113 2249.28,552.883 2251.18,556.661 2253.03,560.449 2254.83,564.247 2256.57,568.056 2258.25,571.876 2259.87,575.707 2261.43,579.549 2262.94,583.4 2264.39,587.262 2265.8,591.132 2267.17,595.009 2268.51,598.892 2269.82,602.78 2271.12,606.67 2272.42,610.56 2273.73,614.448 2275.06,618.332 2276.33,622.225 2277.5,626.13 2278.58,630.046 2279.58,633.972 2280.51,637.907 2281.36,641.849 2282.15,645.797 2282.88,649.751 2283.55,653.709 2284.17,657.671 2284.75,661.637 2285.28,665.604 2285.78,669.574 2286.24,673.544 2286.68,677.516 2287.09,681.488 2287.49,685.46 2287.86,689.433 2288.22,693.405 2288.58,697.377 2288.92,701.349 2289.26,705.32 2289.6,709.292 2289.94,713.264 2290.28,717.237 2290.58,721.211 2290.81,725.187 2290.99,729.164 2291.11,733.142 2291.18,737.122 2291.21,741.102 2291.18,745.083 2291.12,749.064 2291.01,753.046 2290.85,757.027 2290.66,761.008 2290.43,764.989 2290.16,768.968 2289.85,772.947 2289.5,776.925 2289.12,780.901 2288.69,784.875 2288.23,788.848 2287.74,792.818 2287.2,796.785 2286.62,800.75 2286,804.711 2285.34,808.668 2284.64,812.622 2283.89,816.572 2283.09,820.517 2282.24,824.458 2281.34,828.392 2280.39,832.322 2279.38,836.246 2278.3,840.164 2277.17,844.075 2275.96,847.979 2274.77,851.888 2273.64,855.809 2272.55,859.74 2271.49,863.676 2270.45,867.614 2269.39,871.551 2268.32,875.484 2267.22,879.412 2266.08,883.33 2264.88,887.239 2263.62,891.135 2262.3,895.018 2260.9,898.887 2259.42,902.74 2257.86,906.577 2256.22,910.397 2254.49,914.201 2252.68,917.988 2250.79,921.759 2248.83,925.515 2246.79,929.257 2244.68,932.985 2242.51,936.702 2240.3,940.409 2238.05,944.108 2235.76,947.801 2233.46,951.492 2231.16,955.182 2228.88,958.875 2226.63,962.574 2224.43,966.288 2222.3,970.023 2220.2,973.769 2218.12,977.519 2216.04,981.268 2213.92,985.008 2211.77,988.735 2209.56,992.444 2207.28,996.133 2204.92,999.798 2202.49,1003.44 2199.97,1007.05 2197.36,1010.63 2194.66,1014.19 2191.88,1017.72 2189.03,1021.23 2186.11,1024.72 2183.13,1028.18 2180.11,1031.64 2177.06,1035.09 2174,1038.53 2170.95,1041.98 2167.94,1045.44 2164.98,1048.91 2162.05,1052.41 2159.13,1055.9 2156.21,1059.4 2153.28,1062.89 2150.31,1066.37 2147.31,1069.83 2144.27,1073.27 2141.17,1076.69 2138.01,1080.09 2134.8,1083.46 2131.53,1086.81 2128.2,1090.13 2124.82,1093.43 2121.39,1096.72 2117.93,1099.98 2114.44,1103.24 2110.93,1106.48 2107.42,1109.73 2103.92,1112.98 2100.42,1116.23 2096.87,1119.46 2093.25,1122.65 2089.58,1125.83 2085.86,1128.97 2082.08,1132.09 2078.25,1135.18 2074.37,1138.24 2070.45,1141.28 2066.48,1144.3 2062.48,1147.29 2058.43,1150.26 2054.36,1153.21 2050.25,1156.14 2046.11,1159.05 2041.95,1161.95 2037.77,1164.84 2033.57,1167.72 2029.37,1170.59 2025.15,1173.45 2020.93,1176.31 2016.71,1179.18 2012.5,1182.04 2008.26,1184.9 2003.98,1187.72 1999.65,1190.51 1995.27,1193.27 1990.84,1195.99 1986.38,1198.69 1981.86,1201.36 1977.31,1203.99 1972.72,1206.6 1968.09,1209.18 1963.43,1211.73 1958.74,1214.26 1954.01,1216.76 1949.26,1219.24 1944.48,1221.69 1939.68,1224.13 1934.85,1226.55 1930.01,1228.95 1925.15,1231.33 1920.27,1233.7 1915.38,1236.07 1910.49,1238.42 1905.58,1240.76 1900.67,1243.11 1895.76,1245.45 1890.85,1247.79 1885.95,1250.13 1881.05,1252.49 1876.17,1254.85 1871.29,1257.23 1866.4,1259.6 1861.51,1261.96 1856.61,1264.31 1851.68,1266.64 1846.73,1268.95 1841.76,1271.22 1836.75,1273.47 1831.72,1275.69 1826.65,1277.87 1821.54,1280.01 1816.4,1282.12 1811.23,1284.19 1806.02,1286.22 1800.78,1288.23 1795.51,1290.2 1790.21,1292.14 1784.89,1294.07 1779.56,1295.97 1774.21,1297.85 1768.85,1299.73 1763.49,1301.61 1758.13,1303.49 1752.79,1305.39 1747.43,1307.26 1742.04,1309.1 1736.62,1310.91 1731.17,1312.67 1725.69,1314.38 1720.18,1316.06 1714.64,1317.69 1709.07,1319.27 1703.47,1320.81 1697.84,1322.31 1692.19,1323.76 1686.52,1325.17 1680.82,1326.54 1675.1,1327.88 1669.36,1329.18 1663.61,1330.45 1657.83,1331.69 1652.05,1332.91 1646.25,1334.1 1640.45,1335.29 1634.64,1336.46 1628.84,1337.63 1623.03,1338.8 1617.22,1339.98 1611.43,1341.19 1605.65,1342.43 1599.88,1343.69 1594.11,1344.97 1588.34,1346.25 1582.58,1347.53 1576.8,1348.79 1571.03,1350.04 1565.24,1351.26 1559.44,1352.45 1553.63,1353.61 1547.81,1354.73 1541.97,1355.82 1536.11,1356.85 1530.25,1357.85 1524.36,1358.8 1518.46,1359.71 1512.54,1360.58 1506.61,1361.41 1500.67,1362.2 1494.71,1362.96 1488.75,1363.69 1482.77,1364.39 1476.79,1365.08 1470.8,1365.75 1464.82,1366.43 1458.83,1367.1 1452.85,1367.79 1446.88,1368.49 1440.89,1369.14 1434.89,1369.76 1428.89,1370.33 1422.88,1370.86 1416.86,1371.36 1410.83,1371.82 1404.8,1372.24 1398.77,1372.64 1392.72,1373 1386.68,1373.34 1380.63,1373.64 1374.57,1373.92 1368.52,1374.18 1362.46,1374.42 1356.39,1374.63 1350.33,1374.83 1344.26,1375.01 1338.2,1375.18 1332.13,1375.33 1326.06,1375.48 1319.99,1375.62 1313.92,1375.75 1307.85,1375.88 1301.77,1376.01 1295.7,1376.13 1289.63,1376.27 1283.56,1376.38 1277.49,1376.45 1271.42,1376.47 1265.35,1376.45 1259.28,1376.37 1253.21,1376.25 1247.14,1376.09 1241.08,1375.89 1235.02,1375.64 1228.97,1375.35 1222.92,1375.02 1216.88,1374.66 1210.84,1374.25 1204.8,1373.82 1198.78,1373.34 1192.75,1372.84 1186.74,1372.3 1180.73,1371.74 1174.72,1371.15 1168.73,1370.53 1162.73,1369.88 1156.75,1369.22 1150.77,1368.53 1144.79,1367.82 1138.82,1367.1 1132.85,1366.36 1126.89,1365.6 1120.93,1364.84 1114.97,1364.06 1109.02,1363.28 1103.06,1362.49 1097.11,1361.7 1091.16,1360.91 1085.21,1360.12 1079.26,1359.34 1073.3,1358.56 1067.34,1357.77 1061.38,1356.98 1055.42,1356.17 1049.46,1355.33 1043.51,1354.48 1037.58,1353.59 1031.65,1352.67 1025.75,1351.72 1019.85,1350.73 1013.98,1349.7 1008.13,1348.63 1002.3,1347.52 996.498,1346.36 990.718,1345.16 984.962,1343.92 979.231,1342.63 973.526,1341.3 967.847,1339.92 962.192,1338.5 956.563,1337.03 950.957,1335.53 945.374,1333.99 939.812,1332.41 934.271,1330.8 928.748,1329.15 923.242,1327.48 917.75,1325.79 912.271,1324.08 906.8,1322.35 901.335,1320.62 895.874,1318.87 890.414,1317.13 884.949,1315.39 879.476,1313.67 873.994,1311.96 868.507,1310.24 863.022,1308.52 857.542,1306.79 852.072,1305.05 846.616,1303.28 841.178,1301.5 835.76,1299.69 830.366,1297.85 824.998,1295.99 819.658,1294.09 814.348,1292.16 809.07,1290.2 803.824,1288.2 798.611,1286.17 793.433,1284.1 788.288,1282 783.178,1279.86 778.1,1277.69 773.055,1275.48 768.04,1273.24 763.055,1270.98 758.097,1268.69 753.164,1266.37 748.254,1264.02 743.362,1261.66 738.487,1259.29 733.624,1256.9 728.769,1254.5 723.918,1252.1 719.066,1249.7 714.208,1247.31 709.339,1244.92 704.459,1242.55 699.58,1240.17 694.71,1237.78 689.854,1235.38 685.019,1232.96 680.211,1230.52 675.435,1228.05 670.694,1225.56 665.993,1223.04 661.333,1220.49 656.719,1217.91 652.15,1215.3 647.629,1212.65 643.156,1209.97 638.731,1207.26 634.352,1204.51 630.019,1201.73 625.729,1198.92 621.48,1196.09 617.269,1193.23 613.09,1190.34 608.941,1187.44 604.815,1184.52 600.707,1181.59 596.61,1178.65 592.518,1175.71 588.422,1172.77 584.315,1169.83 580.202,1166.91 576.144,1163.95 572.142,1160.97 568.188,1157.96 564.276,1154.93 560.398,1151.88 556.55,1148.81 552.727,1145.72 548.924,1142.63 545.137,1139.52 541.363,1136.41 537.601,1133.28 533.847,1130.15 530.101,1127.02 526.361,1123.88 522.628,1120.73 518.903,1117.58 515.186,1114.42 511.478,1111.26 507.784,1108.09 504.105,1104.91 500.444,1101.73 496.807,1098.53 493.197,1095.32 489.621,1092.1 486.084,1088.85 482.593,1085.59 479.155,1082.31 475.777,1079 472.469,1075.66 469.235,1072.29 466.015,1068.91 462.794,1065.54 459.581,1062.15 456.386,1058.76 453.217,1055.36 450.08,1051.95 446.981,1048.53 443.926,1045.09 440.919,1041.63 437.963,1038.16 435.062,1034.66 432.216,1031.15 429.426,1027.62 426.692,1024.07 424.014,1020.51 421.389,1016.92 418.814,1013.32 416.286,1009.7 413.801,1006.07 411.352,1002.43 408.933,998.771 406.537,995.11 404.156,991.444 401.781,987.776 399.402,984.109 397.008,980.447 394.598,976.789 392.199,973.123 389.821,969.449 387.473,965.765 385.16,962.07 382.89,958.365 380.667,954.648 378.497,950.919 376.384,947.178 374.332,943.425 372.343,939.659 370.418,935.881 368.56,932.091 366.769,928.288 365.045,924.474 363.386,920.648 361.791,916.811 360.258,912.964 358.783,909.106 357.363,905.24 355.993,901.365 354.667,897.483 353.381,893.594 352.126,889.701 350.896,885.803 349.682,881.902 348.476,878 347.267,874.098 346.045,870.198 344.8,866.301 343.519,862.409 342.196,858.523 340.957,854.63 339.842,850.725 338.832,846.81 337.909,842.885 337.057,838.952 336.263,835.012 335.515,831.066 334.802,827.115 334.113,823.159 333.443,819.2 332.785,815.238 332.134,811.273 331.489,807.307 330.847,803.34 330.209,799.371 329.577,795.402 328.956,791.433 328.35,787.463 327.766,783.493 327.212,779.523 326.699,775.552 326.239,771.581 325.845,767.609 325.531,763.636 325.314,759.661 325.212,755.685 325.246,751.705 325.406,747.723 325.554,743.738 325.683,739.753 325.803,735.767 325.926,731.782 326.06,727.796 326.213,723.812 326.392,719.83 326.602,715.848 326.847,711.869 327.13,707.892 327.452,703.916 327.813,699.943 328.213,695.972 328.648,692.002 329.116,688.034 329.611,684.068 330.127,680.102 330.656,676.138 331.19,672.173 331.719,668.209 332.237,664.243 332.794,660.28 333.404,656.321 334.068,652.364 334.783,648.412 335.55,644.464 336.367,640.52 337.233,636.58 338.146,632.645 339.104,628.714 340.105,624.787 341.146,620.864 342.225,616.945 343.338,613.029 344.483,609.117 345.655,605.209 346.852,601.302 348.068,597.399 349.299,593.497 350.542,589.596 351.79,585.696 353.039,581.796 354.284,577.895 355.526,573.994 356.796,570.095 358.108,566.203 359.475,562.319 360.905,558.447 362.406,554.589 363.984,550.746 365.642,546.92 367.384,543.11 369.208,539.318 371.114,535.543 373.096,531.785 375.15,528.042 377.269,524.313 379.441,520.595 381.657,516.888 383.902,513.187 386.162,509.489 388.42,505.79 390.658,502.087 392.906,498.386 395.189,494.693 397.515,491.011 399.892,487.344 402.323,483.694 404.812,480.061 407.363,476.448 409.976,472.855 412.652,469.282 415.389,465.73 418.184,462.197 421.034,458.683 423.934,455.186 426.877,451.703 429.856,448.233 432.862,444.772 435.884,441.317 438.912,437.863 441.932,434.407 444.927,430.941 447.879,427.458 450.804,423.963 453.716,420.463 456.629,416.963 459.557,413.469 462.508,409.985 465.493,406.516 468.519,403.064 471.591,399.631 474.714,396.22 477.89,392.831 481.121,389.466 484.406,386.124 487.743,382.803 491.128,379.503 494.556,376.221 498.019,372.954 501.51,369.698 505.017,366.45 508.53,363.204 512.036,359.954 515.524,356.698 519.055,353.461 522.649,350.252 526.302,347.072 530.012,343.92 533.777,340.795 537.594,337.697 541.461,334.626 545.374,331.58 549.332,328.559 553.331,325.561 557.367,322.585 561.438,319.63 565.541,316.694 569.671,313.774 573.826,310.87 578.001,307.979 582.193,305.098 586.398,302.226 590.611,299.359 594.829,296.496 599.047,293.632 603.261,290.766 607.488,287.906 611.766,285.08 616.094,282.286 620.471,279.525 624.895,276.796 629.365,274.099 633.877,271.434 638.432,268.798 643.025,266.193 647.656,263.616 652.323,261.067 657.022,258.544 661.753,256.046 666.512,253.572 671.297,251.119 676.107,248.688 680.938,246.275 685.788,243.878 690.655,241.497 695.535,239.128 700.427,236.769 705.328,234.419 710.235,232.074 715.145,229.732 720.055,227.39 724.961,225.046 729.863,222.696 734.753,220.334 739.635,217.962 744.517,215.589 749.405,213.221 754.305,210.865 759.222,208.527 764.162,206.211 769.127,203.922 774.122,201.663 779.148,199.436 784.208,197.245 789.303,195.09 794.433,192.971 799.599,190.889 804.799,188.843 810.031,186.831 815.294,184.851 820.585,182.899 825.899,180.973 831.233,179.067 836.582,177.177 841.941,175.296 847.301,173.418 852.658,171.536 858.003,169.641 863.357,167.758 868.743,165.912 874.159,164.105 879.607,162.34 885.085,160.617 890.594,158.939 896.132,157.305 901.7,155.717 907.297,154.174 912.921,152.675 918.571,151.22 924.246,149.807 929.944,148.434 935.663,147.098 941.403,145.798 947.16,144.529 952.932,143.288 958.717,142.072 964.513,140.874 970.316,139.692 976.124,138.518 981.933,137.347 987.741,136.173 993.544,134.99 999.335,133.777 1005.11,132.532 1010.89,131.265 1016.65,129.986 1022.42,128.705 1028.19,127.429 1033.96,126.166 1039.74,124.923 1045.53,123.706 1051.33,122.52 1057.14,121.369 1062.97,120.257 1068.82,119.186 1074.67,118.157 1080.55,117.173 1086.44,116.232 1092.34,115.335 1098.26,114.48 1104.2,113.664 1110.15,112.884 1116.11,112.137 1122.08,111.417 1128.06,110.719 1134.04,110.036 1140.03,109.362 1146.01,108.687 1152,108.004 1157.97,107.304 1163.95,106.625 1169.95,105.99 1175.94,105.395 1181.95,104.841 1187.97,104.325 1193.99,103.846 1200.02,103.403 1206.05,102.993 1212.09,102.614 1218.14,102.266 1224.19,101.947 1230.24,101.654 1236.3,101.386 1242.35,101.14 1248.42,100.916 1254.48,100.711 1260.54,100.523 1266.61,100.349 1272.68,100.189 1278.75,100.039 1284.82,99.8983 1290.89,99.7636 1296.96,99.6331 1303.03,99.5044 1309.1,99.3753 1315.17,99.2433 1321.24,99.1588 1327.31,99.2741 1333.37,99.4865 1339.43,99.711 1345.49,99.9108 1351.55,100.097 "/>
<path clip-path="url(#clip840)" d="M327.056 248.629 L750.198 248.629 L750.198 93.1086 L327.056 93.1086  Z" fill="#ffffff" fill-rule="evenodd" fill-opacity="1"/>
<polyline clip-path="url(#clip840)" style="stroke:#000000; stroke-linecap:round; stroke-linejoin:round; stroke-width:4; stroke-opacity:1; fill:none" points="327.056,248.629 750.198,248.629 750.198,93.1086 327.056,93.1086 327.056,248.629 "/>
<polyline clip-path="url(#clip840)" style="stroke:#009af9; stroke-linecap:round; stroke-linejoin:round; stroke-width:16; stroke-opacity:1; fill:none" points="350.34,144.949 490.043,144.949 "/>
<path clip-path="url(#clip840)" d="M529.345 130.84 Q524.253 130.84 521.244 134.636 Q518.258 138.432 518.258 144.983 Q518.258 151.511 521.244 155.307 Q524.253 159.104 529.345 159.104 Q534.438 159.104 537.401 155.307 Q540.387 151.511 540.387 144.983 Q540.387 138.432 537.401 134.636 Q534.438 130.84 529.345 130.84 M529.345 127.044 Q536.614 127.044 540.966 131.928 Q545.318 136.789 545.318 144.983 Q545.318 153.155 540.966 158.039 Q536.614 162.9 529.345 162.9 Q522.054 162.9 517.679 158.039 Q513.327 153.178 513.327 144.983 Q513.327 136.789 517.679 131.928 Q522.054 127.044 529.345 127.044 Z" fill="#000000" fill-rule="nonzero" fill-opacity="1" /><path clip-path="url(#clip840)" d="M567.47 140.284 Q566.753 139.868 565.896 139.682 Q565.063 139.474 564.044 139.474 Q560.433 139.474 558.489 141.835 Q556.568 144.173 556.568 148.571 L556.568 162.229 L552.285 162.229 L552.285 136.303 L556.568 136.303 L556.568 140.331 Q557.91 137.969 560.063 136.835 Q562.216 135.678 565.294 135.678 Q565.734 135.678 566.267 135.747 Q566.799 135.794 567.447 135.909 L567.47 140.284 Z" fill="#000000" fill-rule="nonzero" fill-opacity="1" /><path clip-path="url(#clip840)" d="M571.938 136.303 L576.197 136.303 L576.197 162.229 L571.938 162.229 L571.938 136.303 M571.938 126.21 L576.197 126.21 L576.197 131.604 L571.938 131.604 L571.938 126.21 Z" fill="#000000" fill-rule="nonzero" fill-opacity="1" /><path clip-path="url(#clip840)" d="M602.169 148.965 Q602.169 144.335 600.248 141.789 Q598.35 139.243 594.901 139.243 Q591.475 139.243 589.553 141.789 Q587.655 144.335 587.655 148.965 Q587.655 153.571 589.553 156.118 Q591.475 158.664 594.901 158.664 Q598.35 158.664 600.248 156.118 Q602.169 153.571 602.169 148.965 M606.428 159.011 Q606.428 165.631 603.489 168.849 Q600.549 172.09 594.484 172.09 Q592.239 172.09 590.248 171.742 Q588.257 171.418 586.382 170.724 L586.382 166.58 Q588.257 167.599 590.086 168.085 Q591.915 168.571 593.813 168.571 Q598.003 168.571 600.086 166.372 Q602.169 164.196 602.169 159.775 L602.169 157.668 Q600.85 159.96 598.79 161.094 Q596.729 162.229 593.859 162.229 Q589.091 162.229 586.174 158.594 Q583.257 154.96 583.257 148.965 Q583.257 142.946 586.174 139.312 Q589.091 135.678 593.859 135.678 Q596.729 135.678 598.79 136.812 Q600.85 137.946 602.169 140.238 L602.169 136.303 L606.428 136.303 L606.428 159.011 Z" fill="#000000" fill-rule="nonzero" fill-opacity="1" /><path clip-path="url(#clip840)" d="M615.201 136.303 L619.461 136.303 L619.461 162.229 L615.201 162.229 L615.201 136.303 M615.201 126.21 L619.461 126.21 L619.461 131.604 L615.201 131.604 L615.201 126.21 Z" fill="#000000" fill-rule="nonzero" fill-opacity="1" /><path clip-path="url(#clip840)" d="M649.924 146.581 L649.924 162.229 L645.664 162.229 L645.664 146.719 Q645.664 143.039 644.229 141.21 Q642.794 139.382 639.924 139.382 Q636.475 139.382 634.484 141.581 Q632.493 143.78 632.493 147.576 L632.493 162.229 L628.211 162.229 L628.211 136.303 L632.493 136.303 L632.493 140.331 Q634.021 137.993 636.081 136.835 Q638.164 135.678 640.873 135.678 Q645.34 135.678 647.632 138.456 Q649.924 141.21 649.924 146.581 Z" fill="#000000" fill-rule="nonzero" fill-opacity="1" /><path clip-path="url(#clip840)" d="M670.201 149.196 Q665.039 149.196 663.048 150.377 Q661.058 151.557 661.058 154.405 Q661.058 156.673 662.539 158.016 Q664.044 159.335 666.613 159.335 Q670.155 159.335 672.285 156.835 Q674.437 154.312 674.437 150.145 L674.437 149.196 L670.201 149.196 M678.697 147.437 L678.697 162.229 L674.437 162.229 L674.437 158.293 Q672.979 160.655 670.803 161.789 Q668.627 162.9 665.479 162.9 Q661.498 162.9 659.136 160.678 Q656.798 158.432 656.798 154.682 Q656.798 150.307 659.715 148.085 Q662.655 145.863 668.465 145.863 L674.437 145.863 L674.437 145.446 Q674.437 142.507 672.493 140.909 Q670.572 139.289 667.076 139.289 Q664.854 139.289 662.748 139.821 Q660.641 140.354 658.697 141.419 L658.697 137.483 Q661.035 136.581 663.234 136.141 Q665.433 135.678 667.516 135.678 Q673.141 135.678 675.919 138.594 Q678.697 141.511 678.697 147.437 Z" fill="#000000" fill-rule="nonzero" fill-opacity="1" /><path clip-path="url(#clip840)" d="M687.47 126.21 L691.729 126.21 L691.729 162.229 L687.47 162.229 L687.47 126.21 Z" fill="#000000" fill-rule="nonzero" fill-opacity="1" /><polyline clip-path="url(#clip840)" style="stroke:#e26f46; stroke-linecap:round; stroke-linejoin:round; stroke-width:16; stroke-opacity:1; fill:none" points="350.34,196.789 490.043,196.789 "/>
<path clip-path="url(#clip840)" d="M518.003 183.351 L518.003 196.337 L523.883 196.337 Q527.146 196.337 528.929 194.647 Q530.711 192.958 530.711 189.833 Q530.711 186.731 528.929 185.041 Q527.146 183.351 523.883 183.351 L518.003 183.351 M513.327 179.509 L523.883 179.509 Q529.693 179.509 532.656 182.147 Q535.642 184.763 535.642 189.833 Q535.642 194.948 532.656 197.564 Q529.693 200.18 523.883 200.18 L518.003 200.18 L518.003 214.069 L513.327 214.069 L513.327 179.509 Z" fill="#000000" fill-rule="nonzero" fill-opacity="1" /><path clip-path="url(#clip840)" d="M555.919 192.124 Q555.202 191.708 554.345 191.522 Q553.512 191.314 552.493 191.314 Q548.882 191.314 546.938 193.675 Q545.017 196.013 545.017 200.411 L545.017 214.069 L540.734 214.069 L540.734 188.143 L545.017 188.143 L545.017 192.171 Q546.359 189.809 548.512 188.675 Q550.665 187.518 553.743 187.518 Q554.183 187.518 554.716 187.587 Q555.248 187.634 555.896 187.749 L555.919 192.124 Z" fill="#000000" fill-rule="nonzero" fill-opacity="1" /><path clip-path="url(#clip840)" d="M581.521 200.041 L581.521 202.124 L561.938 202.124 Q562.216 206.522 564.577 208.837 Q566.961 211.129 571.197 211.129 Q573.651 211.129 575.942 210.527 Q578.257 209.925 580.526 208.721 L580.526 212.749 Q578.234 213.721 575.827 214.231 Q573.419 214.74 570.942 214.74 Q564.739 214.74 561.105 211.129 Q557.493 207.518 557.493 201.36 Q557.493 194.995 560.919 191.268 Q564.368 187.518 570.202 187.518 Q575.433 187.518 578.466 190.897 Q581.521 194.254 581.521 200.041 M577.262 198.791 Q577.216 195.296 575.294 193.212 Q573.396 191.129 570.248 191.129 Q566.683 191.129 564.53 193.143 Q562.401 195.157 562.077 198.814 L577.262 198.791 Z" fill="#000000" fill-rule="nonzero" fill-opacity="1" /><path clip-path="url(#clip840)" d="M605.572 192.078 L605.572 178.05 L609.831 178.05 L609.831 214.069 L605.572 214.069 L605.572 210.18 Q604.229 212.495 602.169 213.629 Q600.132 214.74 597.262 214.74 Q592.563 214.74 589.6 210.99 Q586.66 207.24 586.66 201.129 Q586.66 195.018 589.6 191.268 Q592.563 187.518 597.262 187.518 Q600.132 187.518 602.169 188.652 Q604.229 189.763 605.572 192.078 M591.058 201.129 Q591.058 205.828 592.979 208.513 Q594.924 211.175 598.303 211.175 Q601.683 211.175 603.627 208.513 Q605.572 205.828 605.572 201.129 Q605.572 196.43 603.627 193.768 Q601.683 191.083 598.303 191.083 Q594.924 191.083 592.979 193.768 Q591.058 196.43 591.058 201.129 Z" fill="#000000" fill-rule="nonzero" fill-opacity="1" /><path clip-path="url(#clip840)" d="M618.604 188.143 L622.863 188.143 L622.863 214.069 L618.604 214.069 L618.604 188.143 M618.604 178.05 L622.863 178.05 L622.863 183.444 L618.604 183.444 L618.604 178.05 Z" fill="#000000" fill-rule="nonzero" fill-opacity="1" /><path clip-path="url(#clip840)" d="M650.433 189.138 L650.433 193.12 Q648.627 192.124 646.799 191.638 Q644.993 191.129 643.141 191.129 Q638.998 191.129 636.706 193.768 Q634.414 196.384 634.414 201.129 Q634.414 205.874 636.706 208.513 Q638.998 211.129 643.141 211.129 Q644.993 211.129 646.799 210.643 Q648.627 210.133 650.433 209.138 L650.433 213.073 Q648.65 213.907 646.729 214.323 Q644.831 214.74 642.678 214.74 Q636.822 214.74 633.373 211.059 Q629.924 207.379 629.924 201.129 Q629.924 194.786 633.396 191.152 Q636.891 187.518 642.956 187.518 Q644.924 187.518 646.799 187.935 Q648.674 188.328 650.433 189.138 Z" fill="#000000" fill-rule="nonzero" fill-opacity="1" /><path clip-path="url(#clip840)" d="M662.053 180.782 L662.053 188.143 L670.826 188.143 L670.826 191.453 L662.053 191.453 L662.053 205.527 Q662.053 208.698 662.91 209.601 Q663.789 210.504 666.451 210.504 L670.826 210.504 L670.826 214.069 L666.451 214.069 Q661.521 214.069 659.646 212.24 Q657.771 210.388 657.771 205.527 L657.771 191.453 L654.646 191.453 L654.646 188.143 L657.771 188.143 L657.771 180.782 L662.053 180.782 Z" fill="#000000" fill-rule="nonzero" fill-opacity="1" /><path clip-path="url(#clip840)" d="M698.604 200.041 L698.604 202.124 L679.021 202.124 Q679.298 206.522 681.659 208.837 Q684.044 211.129 688.28 211.129 Q690.733 211.129 693.025 210.527 Q695.34 209.925 697.608 208.721 L697.608 212.749 Q695.317 213.721 692.909 214.231 Q690.502 214.74 688.025 214.74 Q681.822 214.74 678.187 211.129 Q674.576 207.518 674.576 201.36 Q674.576 194.995 678.002 191.268 Q681.451 187.518 687.284 187.518 Q692.516 187.518 695.548 190.897 Q698.604 194.254 698.604 200.041 M694.345 198.791 Q694.298 195.296 692.377 193.212 Q690.479 191.129 687.331 191.129 Q683.766 191.129 681.613 193.143 Q679.484 195.157 679.159 198.814 L694.345 198.791 Z" fill="#000000" fill-rule="nonzero" fill-opacity="1" /><path clip-path="url(#clip840)" d="M722.655 192.078 L722.655 178.05 L726.914 178.05 L726.914 214.069 L722.655 214.069 L722.655 210.18 Q721.312 212.495 719.252 213.629 Q717.215 214.74 714.344 214.74 Q709.645 214.74 706.682 210.99 Q703.743 207.24 703.743 201.129 Q703.743 195.018 706.682 191.268 Q709.645 187.518 714.344 187.518 Q717.215 187.518 719.252 188.652 Q721.312 189.763 722.655 192.078 M708.141 201.129 Q708.141 205.828 710.062 208.513 Q712.007 211.175 715.386 211.175 Q718.766 211.175 720.71 208.513 Q722.655 205.828 722.655 201.129 Q722.655 196.43 720.71 193.768 Q718.766 191.083 715.386 191.083 Q712.007 191.083 710.062 193.768 Q708.141 196.43 708.141 201.129 Z" fill="#000000" fill-rule="nonzero" fill-opacity="1" /></svg>
