<?xml version="1.0" encoding="utf-8"?>
<svg xmlns="http://www.w3.org/2000/svg" xmlns:xlink="http://www.w3.org/1999/xlink" width="600" height="400" viewBox="0 0 2400 1600">
<defs>
  <clipPath id="clip780">
    <rect x="0" y="0" width="2400" height="1600"/>
  </clipPath>
</defs>
<path clip-path="url(#clip780)" d="M0 1600 L2400 1600 L2400 0 L0 0  Z" fill="#ffffff" fill-rule="evenodd" fill-opacity="1"/>
<defs>
  <clipPath id="clip781">
    <rect x="480" y="0" width="1681" height="1600"/>
  </clipPath>
</defs>
<path clip-path="url(#clip780)" d="M257.204 1423.18 L2352.76 1423.18 L2352.76 47.2441 L257.204 47.2441  Z" fill="#ffffff" fill-rule="evenodd" fill-opacity="1"/>
<defs>
  <clipPath id="clip782">
    <rect x="257" y="47" width="2097" height="1377"/>
  </clipPath>
</defs>
<polyline clip-path="url(#clip782)" style="stroke:#000000; stroke-linecap:round; stroke-linejoin:round; stroke-width:2; stroke-opacity:0.1; fill:none" points="329.966,1423.18 329.966,47.2441 "/>
<polyline clip-path="url(#clip782)" style="stroke:#000000; stroke-linecap:round; stroke-linejoin:round; stroke-width:2; stroke-opacity:0.1; fill:none" points="817.787,1423.18 817.787,47.2441 "/>
<polyline clip-path="url(#clip782)" style="stroke:#000000; stroke-linecap:round; stroke-linejoin:round; stroke-width:2; stroke-opacity:0.1; fill:none" points="1305.61,1423.18 1305.61,47.2441 "/>
<polyline clip-path="url(#clip782)" style="stroke:#000000; stroke-linecap:round; stroke-linejoin:round; stroke-width:2; stroke-opacity:0.1; fill:none" points="1793.43,1423.18 1793.43,47.2441 "/>
<polyline clip-path="url(#clip782)" style="stroke:#000000; stroke-linecap:round; stroke-linejoin:round; stroke-width:2; stroke-opacity:0.1; fill:none" points="2281.25,1423.18 2281.25,47.2441 "/>
<polyline clip-path="url(#clip780)" style="stroke:#000000; stroke-linecap:round; stroke-linejoin:round; stroke-width:4; stroke-opacity:1; fill:none" points="257.204,1423.18 2352.76,1423.18 "/>
<polyline clip-path="url(#clip780)" style="stroke:#000000; stroke-linecap:round; stroke-linejoin:round; stroke-width:4; stroke-opacity:1; fill:none" points="329.966,1423.18 329.966,1404.28 "/>
<polyline clip-path="url(#clip780)" style="stroke:#000000; stroke-linecap:round; stroke-linejoin:round; stroke-width:4; stroke-opacity:1; fill:none" points="817.787,1423.18 817.787,1404.28 "/>
<polyline clip-path="url(#clip780)" style="stroke:#000000; stroke-linecap:round; stroke-linejoin:round; stroke-width:4; stroke-opacity:1; fill:none" points="1305.61,1423.18 1305.61,1404.28 "/>
<polyline clip-path="url(#clip780)" style="stroke:#000000; stroke-linecap:round; stroke-linejoin:round; stroke-width:4; stroke-opacity:1; fill:none" points="1793.43,1423.18 1793.43,1404.28 "/>
<polyline clip-path="url(#clip780)" style="stroke:#000000; stroke-linecap:round; stroke-linejoin:round; stroke-width:4; stroke-opacity:1; fill:none" points="2281.25,1423.18 2281.25,1404.28 "/>
<path clip-path="url(#clip780)" d="M276.494 1468.75 L306.169 1468.75 L306.169 1472.69 L276.494 1472.69 L276.494 1468.75 Z" fill="#000000" fill-rule="nonzero" fill-opacity="1" /><path clip-path="url(#clip780)" d="M317.072 1481.64 L324.711 1481.64 L324.711 1455.28 L316.401 1456.95 L316.401 1452.69 L324.665 1451.02 L329.341 1451.02 L329.341 1481.64 L336.979 1481.64 L336.979 1485.58 L317.072 1485.58 L317.072 1481.64 Z" fill="#000000" fill-rule="nonzero" fill-opacity="1" /><path clip-path="url(#clip780)" d="M346.424 1479.7 L351.308 1479.7 L351.308 1485.58 L346.424 1485.58 L346.424 1479.7 Z" fill="#000000" fill-rule="nonzero" fill-opacity="1" /><path clip-path="url(#clip780)" d="M371.493 1454.1 Q367.882 1454.1 366.053 1457.66 Q364.248 1461.2 364.248 1468.33 Q364.248 1475.44 366.053 1479.01 Q367.882 1482.55 371.493 1482.55 Q375.127 1482.55 376.933 1479.01 Q378.762 1475.44 378.762 1468.33 Q378.762 1461.2 376.933 1457.66 Q375.127 1454.1 371.493 1454.1 M371.493 1450.39 Q377.303 1450.39 380.359 1455 Q383.438 1459.58 383.438 1468.33 Q383.438 1477.06 380.359 1481.67 Q377.303 1486.25 371.493 1486.25 Q365.683 1486.25 362.604 1481.67 Q359.549 1477.06 359.549 1468.33 Q359.549 1459.58 362.604 1455 Q365.683 1450.39 371.493 1450.39 Z" fill="#000000" fill-rule="nonzero" fill-opacity="1" /><path clip-path="url(#clip780)" d="M764.813 1468.75 L794.488 1468.75 L794.488 1472.69 L764.813 1472.69 L764.813 1468.75 Z" fill="#000000" fill-rule="nonzero" fill-opacity="1" /><path clip-path="url(#clip780)" d="M814.581 1454.1 Q810.97 1454.1 809.141 1457.66 Q807.336 1461.2 807.336 1468.33 Q807.336 1475.44 809.141 1479.01 Q810.97 1482.55 814.581 1482.55 Q818.215 1482.55 820.021 1479.01 Q821.849 1475.44 821.849 1468.33 Q821.849 1461.2 820.021 1457.66 Q818.215 1454.1 814.581 1454.1 M814.581 1450.39 Q820.391 1450.39 823.447 1455 Q826.525 1459.58 826.525 1468.33 Q826.525 1477.06 823.447 1481.67 Q820.391 1486.25 814.581 1486.25 Q808.771 1486.25 805.692 1481.67 Q802.637 1477.06 802.637 1468.33 Q802.637 1459.58 805.692 1455 Q808.771 1450.39 814.581 1450.39 Z" fill="#000000" fill-rule="nonzero" fill-opacity="1" /><path clip-path="url(#clip780)" d="M834.743 1479.7 L839.627 1479.7 L839.627 1485.58 L834.743 1485.58 L834.743 1479.7 Z" fill="#000000" fill-rule="nonzero" fill-opacity="1" /><path clip-path="url(#clip780)" d="M849.859 1451.02 L868.215 1451.02 L868.215 1454.96 L854.141 1454.96 L854.141 1463.43 Q855.159 1463.08 856.178 1462.92 Q857.196 1462.73 858.215 1462.73 Q864.002 1462.73 867.382 1465.9 Q870.761 1469.08 870.761 1474.49 Q870.761 1480.07 867.289 1483.17 Q863.817 1486.25 857.497 1486.25 Q855.321 1486.25 853.053 1485.88 Q850.808 1485.51 848.4 1484.77 L848.4 1480.07 Q850.484 1481.2 852.706 1481.76 Q854.928 1482.32 857.405 1482.32 Q861.409 1482.32 863.747 1480.21 Q866.085 1478.1 866.085 1474.49 Q866.085 1470.88 863.747 1468.77 Q861.409 1466.67 857.405 1466.67 Q855.53 1466.67 853.655 1467.08 Q851.803 1467.5 849.859 1468.38 L849.859 1451.02 Z" fill="#000000" fill-rule="nonzero" fill-opacity="1" /><path clip-path="url(#clip780)" d="M1282.99 1454.1 Q1279.38 1454.1 1277.55 1457.66 Q1275.75 1461.2 1275.75 1468.33 Q1275.75 1475.44 1277.55 1479.01 Q1279.38 1482.55 1282.99 1482.55 Q1286.63 1482.55 1288.43 1479.01 Q1290.26 1475.44 1290.26 1468.33 Q1290.26 1461.2 1288.43 1457.66 Q1286.63 1454.1 1282.99 1454.1 M1282.99 1450.39 Q1288.8 1450.39 1291.86 1455 Q1294.94 1459.58 1294.94 1468.33 Q1294.94 1477.06 1291.86 1481.67 Q1288.8 1486.25 1282.99 1486.25 Q1277.18 1486.25 1274.1 1481.67 Q1271.05 1477.06 1271.05 1468.33 Q1271.05 1459.58 1274.1 1455 Q1277.18 1450.39 1282.99 1450.39 Z" fill="#000000" fill-rule="nonzero" fill-opacity="1" /><path clip-path="url(#clip780)" d="M1303.15 1479.7 L1308.04 1479.7 L1308.04 1485.58 L1303.15 1485.58 L1303.15 1479.7 Z" fill="#000000" fill-rule="nonzero" fill-opacity="1" /><path clip-path="url(#clip780)" d="M1328.22 1454.1 Q1324.61 1454.1 1322.78 1457.66 Q1320.98 1461.2 1320.98 1468.33 Q1320.98 1475.44 1322.78 1479.01 Q1324.61 1482.55 1328.22 1482.55 Q1331.86 1482.55 1333.66 1479.01 Q1335.49 1475.44 1335.49 1468.33 Q1335.49 1461.2 1333.66 1457.66 Q1331.86 1454.1 1328.22 1454.1 M1328.22 1450.39 Q1334.03 1450.39 1337.09 1455 Q1340.17 1459.58 1340.17 1468.33 Q1340.17 1477.06 1337.09 1481.67 Q1334.03 1486.25 1328.22 1486.25 Q1322.41 1486.25 1319.34 1481.67 Q1316.28 1477.06 1316.28 1468.33 Q1316.28 1459.58 1319.34 1455 Q1322.41 1450.39 1328.22 1450.39 Z" fill="#000000" fill-rule="nonzero" fill-opacity="1" /><path clip-path="url(#clip780)" d="M1771.31 1454.1 Q1767.7 1454.1 1765.87 1457.66 Q1764.07 1461.2 1764.07 1468.33 Q1764.07 1475.44 1765.87 1479.01 Q1767.7 1482.55 1771.31 1482.55 Q1774.95 1482.55 1776.75 1479.01 Q1778.58 1475.44 1778.58 1468.33 Q1778.58 1461.2 1776.75 1457.66 Q1774.95 1454.1 1771.31 1454.1 M1771.31 1450.39 Q1777.12 1450.39 1780.18 1455 Q1783.26 1459.58 1783.26 1468.33 Q1783.26 1477.06 1780.18 1481.67 Q1777.12 1486.25 1771.31 1486.25 Q1765.5 1486.25 1762.42 1481.67 Q1759.37 1477.06 1759.37 1468.33 Q1759.37 1459.58 1762.42 1455 Q1765.5 1450.39 1771.31 1450.39 Z" fill="#000000" fill-rule="nonzero" fill-opacity="1" /><path clip-path="url(#clip780)" d="M1791.47 1479.7 L1796.36 1479.7 L1796.36 1485.58 L1791.47 1485.58 L1791.47 1479.7 Z" fill="#000000" fill-rule="nonzero" fill-opacity="1" /><path clip-path="url(#clip780)" d="M1806.59 1451.02 L1824.95 1451.02 L1824.95 1454.96 L1810.87 1454.96 L1810.87 1463.43 Q1811.89 1463.08 1812.91 1462.92 Q1813.93 1462.73 1814.95 1462.73 Q1820.73 1462.73 1824.11 1465.9 Q1827.49 1469.08 1827.49 1474.49 Q1827.49 1480.07 1824.02 1483.17 Q1820.55 1486.25 1814.23 1486.25 Q1812.05 1486.25 1809.78 1485.88 Q1807.54 1485.51 1805.13 1484.77 L1805.13 1480.07 Q1807.21 1481.2 1809.44 1481.76 Q1811.66 1482.32 1814.14 1482.32 Q1818.14 1482.32 1820.48 1480.21 Q1822.82 1478.1 1822.82 1474.49 Q1822.82 1470.88 1820.48 1468.77 Q1818.14 1466.67 1814.14 1466.67 Q1812.26 1466.67 1810.39 1467.08 Q1808.53 1467.5 1806.59 1468.38 L1806.59 1451.02 Z" fill="#000000" fill-rule="nonzero" fill-opacity="1" /><path clip-path="url(#clip780)" d="M2248.4 1481.64 L2256.04 1481.64 L2256.04 1455.28 L2247.73 1456.95 L2247.73 1452.69 L2256 1451.02 L2260.67 1451.02 L2260.67 1481.64 L2268.31 1481.64 L2268.31 1485.58 L2248.4 1485.58 L2248.4 1481.64 Z" fill="#000000" fill-rule="nonzero" fill-opacity="1" /><path clip-path="url(#clip780)" d="M2277.76 1479.7 L2282.64 1479.7 L2282.64 1485.58 L2277.76 1485.58 L2277.76 1479.7 Z" fill="#000000" fill-rule="nonzero" fill-opacity="1" /><path clip-path="url(#clip780)" d="M2302.82 1454.1 Q2299.21 1454.1 2297.39 1457.66 Q2295.58 1461.2 2295.58 1468.33 Q2295.58 1475.44 2297.39 1479.01 Q2299.21 1482.55 2302.82 1482.55 Q2306.46 1482.55 2308.26 1479.01 Q2310.09 1475.44 2310.09 1468.33 Q2310.09 1461.2 2308.26 1457.66 Q2306.46 1454.1 2302.82 1454.1 M2302.82 1450.39 Q2308.64 1450.39 2311.69 1455 Q2314.77 1459.58 2314.77 1468.33 Q2314.77 1477.06 2311.69 1481.67 Q2308.64 1486.25 2302.82 1486.25 Q2297.01 1486.25 2293.94 1481.67 Q2290.88 1477.06 2290.88 1468.33 Q2290.88 1459.58 2293.94 1455 Q2297.01 1450.39 2302.82 1450.39 Z" fill="#000000" fill-rule="nonzero" fill-opacity="1" /><path clip-path="url(#clip780)" d="M1134.03 1525.81 L1134.03 1543.66 L1142.11 1543.66 Q1146.6 1543.66 1149.05 1541.34 Q1151.5 1539.02 1151.5 1534.72 Q1151.5 1530.45 1149.05 1528.13 Q1146.6 1525.81 1142.11 1525.81 L1134.03 1525.81 M1127.6 1520.52 L1142.11 1520.52 Q1150.1 1520.52 1154.18 1524.15 Q1158.28 1527.75 1158.28 1534.72 Q1158.28 1541.75 1154.18 1545.35 Q1150.1 1548.95 1142.11 1548.95 L1134.03 1548.95 L1134.03 1568.04 L1127.6 1568.04 L1127.6 1520.52 Z" fill="#000000" fill-rule="nonzero" fill-opacity="1" /><path clip-path="url(#clip780)" d="M1178.14 1536.5 Q1173.43 1536.5 1170.7 1540.19 Q1167.96 1543.85 1167.96 1550.25 Q1167.96 1556.65 1170.66 1560.34 Q1173.4 1564 1178.14 1564 Q1182.82 1564 1185.56 1560.31 Q1188.3 1556.62 1188.3 1550.25 Q1188.3 1543.92 1185.56 1540.23 Q1182.82 1536.5 1178.14 1536.5 M1178.14 1531.54 Q1185.78 1531.54 1190.14 1536.5 Q1194.5 1541.47 1194.5 1550.25 Q1194.5 1559 1190.14 1564 Q1185.78 1568.97 1178.14 1568.97 Q1170.47 1568.97 1166.11 1564 Q1161.78 1559 1161.78 1550.25 Q1161.78 1541.47 1166.11 1536.5 Q1170.47 1531.54 1178.14 1531.54 Z" fill="#000000" fill-rule="nonzero" fill-opacity="1" /><path clip-path="url(#clip780)" d="M1226.94 1533.45 L1226.94 1538.98 Q1224.45 1537.71 1221.78 1537.07 Q1219.11 1536.44 1216.24 1536.44 Q1211.88 1536.44 1209.69 1537.77 Q1207.52 1539.11 1207.52 1541.79 Q1207.52 1543.82 1209.08 1545 Q1210.64 1546.15 1215.35 1547.2 L1217.36 1547.64 Q1223.59 1548.98 1226.2 1551.43 Q1228.85 1553.85 1228.85 1558.21 Q1228.85 1563.17 1224.9 1566.07 Q1220.98 1568.97 1214.11 1568.97 Q1211.24 1568.97 1208.13 1568.39 Q1205.04 1567.85 1201.6 1566.74 L1201.6 1560.69 Q1204.85 1562.38 1208 1563.24 Q1211.15 1564.07 1214.24 1564.07 Q1218.37 1564.07 1220.6 1562.66 Q1222.83 1561.23 1222.83 1558.65 Q1222.83 1556.27 1221.21 1554.99 Q1219.62 1553.72 1214.17 1552.54 L1212.14 1552.07 Q1206.69 1550.92 1204.27 1548.56 Q1201.86 1546.18 1201.86 1542.04 Q1201.86 1537.01 1205.42 1534.27 Q1208.99 1531.54 1215.54 1531.54 Q1218.79 1531.54 1221.65 1532.01 Q1224.52 1532.49 1226.94 1533.45 Z" fill="#000000" fill-rule="nonzero" fill-opacity="1" /><path clip-path="url(#clip780)" d="M1238.17 1532.4 L1244.03 1532.4 L1244.03 1568.04 L1238.17 1568.04 L1238.17 1532.4 M1238.17 1518.52 L1244.03 1518.52 L1244.03 1525.93 L1238.17 1525.93 L1238.17 1518.52 Z" fill="#000000" fill-rule="nonzero" fill-opacity="1" /><path clip-path="url(#clip780)" d="M1262.08 1522.27 L1262.08 1532.4 L1274.14 1532.4 L1274.14 1536.95 L1262.08 1536.95 L1262.08 1556.3 Q1262.08 1560.66 1263.25 1561.9 Q1264.46 1563.14 1268.12 1563.14 L1274.14 1563.14 L1274.14 1568.04 L1268.12 1568.04 Q1261.34 1568.04 1258.76 1565.53 Q1256.19 1562.98 1256.19 1556.3 L1256.19 1536.95 L1251.89 1536.95 L1251.89 1532.4 L1256.19 1532.4 L1256.19 1522.27 L1262.08 1522.27 Z" fill="#000000" fill-rule="nonzero" fill-opacity="1" /><path clip-path="url(#clip780)" d="M1281.84 1532.4 L1287.7 1532.4 L1287.7 1568.04 L1281.84 1568.04 L1281.84 1532.4 M1281.84 1518.52 L1287.7 1518.52 L1287.7 1525.93 L1281.84 1525.93 L1281.84 1518.52 Z" fill="#000000" fill-rule="nonzero" fill-opacity="1" /><path clip-path="url(#clip780)" d="M1313.76 1536.5 Q1309.05 1536.5 1306.32 1540.19 Q1303.58 1543.85 1303.58 1550.25 Q1303.58 1556.65 1306.28 1560.34 Q1309.02 1564 1313.76 1564 Q1318.44 1564 1321.18 1560.31 Q1323.92 1556.62 1323.92 1550.25 Q1323.92 1543.92 1321.18 1540.23 Q1318.44 1536.5 1313.76 1536.5 M1313.76 1531.54 Q1321.4 1531.54 1325.76 1536.5 Q1330.12 1541.47 1330.12 1550.25 Q1330.12 1559 1325.76 1564 Q1321.4 1568.97 1313.76 1568.97 Q1306.09 1568.97 1301.73 1564 Q1297.4 1559 1297.4 1550.25 Q1297.4 1541.47 1301.73 1536.5 Q1306.09 1531.54 1313.76 1531.54 Z" fill="#000000" fill-rule="nonzero" fill-opacity="1" /><path clip-path="url(#clip780)" d="M1369.46 1546.53 L1369.46 1568.04 L1363.61 1568.04 L1363.61 1546.72 Q1363.61 1541.66 1361.63 1539.14 Q1359.66 1536.63 1355.71 1536.63 Q1350.97 1536.63 1348.23 1539.65 Q1345.5 1542.68 1345.5 1547.9 L1345.5 1568.04 L1339.61 1568.04 L1339.61 1532.4 L1345.5 1532.4 L1345.5 1537.93 Q1347.6 1534.72 1350.43 1533.13 Q1353.3 1531.54 1357.02 1531.54 Q1363.16 1531.54 1366.31 1535.36 Q1369.46 1539.14 1369.46 1546.53 Z" fill="#000000" fill-rule="nonzero" fill-opacity="1" /><path clip-path="url(#clip780)" d="M1415.93 1518.58 Q1411.67 1525.9 1409.6 1533.06 Q1407.53 1540.23 1407.53 1547.58 Q1407.53 1554.93 1409.6 1562.16 Q1411.7 1569.35 1415.93 1576.64 L1410.84 1576.64 Q1406.07 1569.16 1403.68 1561.93 Q1401.32 1554.71 1401.32 1547.58 Q1401.32 1540.48 1403.68 1533.29 Q1406.04 1526.09 1410.84 1518.58 L1415.93 1518.58 Z" fill="#000000" fill-rule="nonzero" fill-opacity="1" /><path clip-path="url(#clip780)" d="M1430.8 1550.25 Q1430.8 1556.71 1433.44 1560.4 Q1436.11 1564.07 1440.76 1564.07 Q1445.41 1564.07 1448.08 1560.4 Q1450.75 1556.71 1450.75 1550.25 Q1450.75 1543.79 1448.08 1540.13 Q1445.41 1536.44 1440.76 1536.44 Q1436.11 1536.44 1433.44 1540.13 Q1430.8 1543.79 1430.8 1550.25 M1450.75 1562.7 Q1448.91 1565.88 1446.08 1567.44 Q1443.27 1568.97 1439.33 1568.97 Q1432.87 1568.97 1428.79 1563.81 Q1424.75 1558.65 1424.75 1550.25 Q1424.75 1541.85 1428.79 1536.69 Q1432.87 1531.54 1439.33 1531.54 Q1443.27 1531.54 1446.08 1533.1 Q1448.91 1534.62 1450.75 1537.81 L1450.75 1532.4 L1456.61 1532.4 L1456.61 1581.6 L1450.75 1581.6 L1450.75 1562.7 Z" fill="#000000" fill-rule="nonzero" fill-opacity="1" /><path clip-path="url(#clip780)" d="M1467.75 1518.58 L1472.84 1518.58 Q1477.62 1526.09 1479.97 1533.29 Q1482.36 1540.48 1482.36 1547.58 Q1482.36 1554.71 1479.97 1561.93 Q1477.62 1569.16 1472.84 1576.64 L1467.75 1576.64 Q1471.98 1569.35 1474.05 1562.16 Q1476.15 1554.93 1476.15 1547.58 Q1476.15 1540.23 1474.05 1533.06 Q1471.98 1525.9 1467.75 1518.58 Z" fill="#000000" fill-rule="nonzero" fill-opacity="1" /><polyline clip-path="url(#clip782)" style="stroke:#000000; stroke-linecap:round; stroke-linejoin:round; stroke-width:2; stroke-opacity:0.1; fill:none" points="257.204,1379.45 2352.76,1379.45 "/>
<polyline clip-path="url(#clip782)" style="stroke:#000000; stroke-linecap:round; stroke-linejoin:round; stroke-width:2; stroke-opacity:0.1; fill:none" points="257.204,1056.14 2352.76,1056.14 "/>
<polyline clip-path="url(#clip782)" style="stroke:#000000; stroke-linecap:round; stroke-linejoin:round; stroke-width:2; stroke-opacity:0.1; fill:none" points="257.204,732.82 2352.76,732.82 "/>
<polyline clip-path="url(#clip782)" style="stroke:#000000; stroke-linecap:round; stroke-linejoin:round; stroke-width:2; stroke-opacity:0.1; fill:none" points="257.204,409.503 2352.76,409.503 "/>
<polyline clip-path="url(#clip782)" style="stroke:#000000; stroke-linecap:round; stroke-linejoin:round; stroke-width:2; stroke-opacity:0.1; fill:none" points="257.204,86.1857 2352.76,86.1857 "/>
<polyline clip-path="url(#clip780)" style="stroke:#000000; stroke-linecap:round; stroke-linejoin:round; stroke-width:4; stroke-opacity:1; fill:none" points="257.204,1423.18 257.204,47.2441 "/>
<polyline clip-path="url(#clip780)" style="stroke:#000000; stroke-linecap:round; stroke-linejoin:round; stroke-width:4; stroke-opacity:1; fill:none" points="257.204,1379.45 276.102,1379.45 "/>
<polyline clip-path="url(#clip780)" style="stroke:#000000; stroke-linecap:round; stroke-linejoin:round; stroke-width:4; stroke-opacity:1; fill:none" points="257.204,1056.14 276.102,1056.14 "/>
<polyline clip-path="url(#clip780)" style="stroke:#000000; stroke-linecap:round; stroke-linejoin:round; stroke-width:4; stroke-opacity:1; fill:none" points="257.204,732.82 276.102,732.82 "/>
<polyline clip-path="url(#clip780)" style="stroke:#000000; stroke-linecap:round; stroke-linejoin:round; stroke-width:4; stroke-opacity:1; fill:none" points="257.204,409.503 276.102,409.503 "/>
<polyline clip-path="url(#clip780)" style="stroke:#000000; stroke-linecap:round; stroke-linejoin:round; stroke-width:4; stroke-opacity:1; fill:none" points="257.204,86.1857 276.102,86.1857 "/>
<path clip-path="url(#clip780)" d="M114.26 1379.9 L143.936 1379.9 L143.936 1383.84 L114.26 1383.84 L114.26 1379.9 Z" fill="#000000" fill-rule="nonzero" fill-opacity="1" /><path clip-path="url(#clip780)" d="M154.839 1392.8 L162.477 1392.8 L162.477 1366.43 L154.167 1368.1 L154.167 1363.84 L162.431 1362.17 L167.107 1362.17 L167.107 1392.8 L174.746 1392.8 L174.746 1396.73 L154.839 1396.73 L154.839 1392.8 Z" fill="#000000" fill-rule="nonzero" fill-opacity="1" /><path clip-path="url(#clip780)" d="M184.19 1390.85 L189.075 1390.85 L189.075 1396.73 L184.19 1396.73 L184.19 1390.85 Z" fill="#000000" fill-rule="nonzero" fill-opacity="1" /><path clip-path="url(#clip780)" d="M209.26 1365.25 Q205.649 1365.25 203.82 1368.82 Q202.014 1372.36 202.014 1379.49 Q202.014 1386.59 203.82 1390.16 Q205.649 1393.7 209.26 1393.7 Q212.894 1393.7 214.699 1390.16 Q216.528 1386.59 216.528 1379.49 Q216.528 1372.36 214.699 1368.82 Q212.894 1365.25 209.26 1365.25 M209.26 1361.55 Q215.07 1361.55 218.125 1366.15 Q221.204 1370.74 221.204 1379.49 Q221.204 1388.21 218.125 1392.82 Q215.07 1397.4 209.26 1397.4 Q203.449 1397.4 200.371 1392.82 Q197.315 1388.21 197.315 1379.49 Q197.315 1370.74 200.371 1366.15 Q203.449 1361.55 209.26 1361.55 Z" fill="#000000" fill-rule="nonzero" fill-opacity="1" /><path clip-path="url(#clip780)" d="M115.256 1056.59 L144.931 1056.59 L144.931 1060.52 L115.256 1060.52 L115.256 1056.59 Z" fill="#000000" fill-rule="nonzero" fill-opacity="1" /><path clip-path="url(#clip780)" d="M165.024 1041.94 Q161.413 1041.94 159.584 1045.5 Q157.778 1049.04 157.778 1056.17 Q157.778 1063.28 159.584 1066.84 Q161.413 1070.38 165.024 1070.38 Q168.658 1070.38 170.464 1066.84 Q172.292 1063.28 172.292 1056.17 Q172.292 1049.04 170.464 1045.5 Q168.658 1041.94 165.024 1041.94 M165.024 1038.23 Q170.834 1038.23 173.889 1042.84 Q176.968 1047.42 176.968 1056.17 Q176.968 1064.9 173.889 1069.5 Q170.834 1074.09 165.024 1074.09 Q159.214 1074.09 156.135 1069.5 Q153.079 1064.9 153.079 1056.17 Q153.079 1047.42 156.135 1042.84 Q159.214 1038.23 165.024 1038.23 Z" fill="#000000" fill-rule="nonzero" fill-opacity="1" /><path clip-path="url(#clip780)" d="M185.186 1067.54 L190.07 1067.54 L190.07 1073.42 L185.186 1073.42 L185.186 1067.54 Z" fill="#000000" fill-rule="nonzero" fill-opacity="1" /><path clip-path="url(#clip780)" d="M200.301 1038.86 L218.658 1038.86 L218.658 1042.79 L204.584 1042.79 L204.584 1051.26 Q205.602 1050.92 206.621 1050.75 Q207.639 1050.57 208.658 1050.57 Q214.445 1050.57 217.824 1053.74 Q221.204 1056.91 221.204 1062.33 Q221.204 1067.91 217.732 1071.01 Q214.26 1074.09 207.94 1074.09 Q205.764 1074.09 203.496 1073.72 Q201.25 1073.35 198.843 1072.61 L198.843 1067.91 Q200.926 1069.04 203.149 1069.6 Q205.371 1070.15 207.848 1070.15 Q211.852 1070.15 214.19 1068.05 Q216.528 1065.94 216.528 1062.33 Q216.528 1058.72 214.19 1056.61 Q211.852 1054.5 207.848 1054.5 Q205.973 1054.5 204.098 1054.92 Q202.246 1055.34 200.301 1056.22 L200.301 1038.86 Z" fill="#000000" fill-rule="nonzero" fill-opacity="1" /><path clip-path="url(#clip780)" d="M164.028 718.618 Q160.417 718.618 158.589 722.183 Q156.783 725.725 156.783 732.854 Q156.783 739.961 158.589 743.526 Q160.417 747.067 164.028 747.067 Q167.663 747.067 169.468 743.526 Q171.297 739.961 171.297 732.854 Q171.297 725.725 169.468 722.183 Q167.663 718.618 164.028 718.618 M164.028 714.915 Q169.839 714.915 172.894 719.521 Q175.973 724.104 175.973 732.854 Q175.973 741.581 172.894 746.188 Q169.839 750.771 164.028 750.771 Q158.218 750.771 155.14 746.188 Q152.084 741.581 152.084 732.854 Q152.084 724.104 155.14 719.521 Q158.218 714.915 164.028 714.915 Z" fill="#000000" fill-rule="nonzero" fill-opacity="1" /><path clip-path="url(#clip780)" d="M184.19 744.22 L189.075 744.22 L189.075 750.1 L184.19 750.1 L184.19 744.22 Z" fill="#000000" fill-rule="nonzero" fill-opacity="1" /><path clip-path="url(#clip780)" d="M209.26 718.618 Q205.649 718.618 203.82 722.183 Q202.014 725.725 202.014 732.854 Q202.014 739.961 203.82 743.526 Q205.649 747.067 209.26 747.067 Q212.894 747.067 214.699 743.526 Q216.528 739.961 216.528 732.854 Q216.528 725.725 214.699 722.183 Q212.894 718.618 209.26 718.618 M209.26 714.915 Q215.07 714.915 218.125 719.521 Q221.204 724.104 221.204 732.854 Q221.204 741.581 218.125 746.188 Q215.07 750.771 209.26 750.771 Q203.449 750.771 200.371 746.188 Q197.315 741.581 197.315 732.854 Q197.315 724.104 200.371 719.521 Q203.449 714.915 209.26 714.915 Z" fill="#000000" fill-rule="nonzero" fill-opacity="1" /><path clip-path="url(#clip780)" d="M165.024 395.301 Q161.413 395.301 159.584 398.866 Q157.778 402.408 157.778 409.537 Q157.778 416.644 159.584 420.209 Q161.413 423.75 165.024 423.75 Q168.658 423.75 170.464 420.209 Q172.292 416.644 172.292 409.537 Q172.292 402.408 170.464 398.866 Q168.658 395.301 165.024 395.301 M165.024 391.598 Q170.834 391.598 173.889 396.204 Q176.968 400.787 176.968 409.537 Q176.968 418.264 173.889 422.871 Q170.834 427.454 165.024 427.454 Q159.214 427.454 156.135 422.871 Q153.079 418.264 153.079 409.537 Q153.079 400.787 156.135 396.204 Q159.214 391.598 165.024 391.598 Z" fill="#000000" fill-rule="nonzero" fill-opacity="1" /><path clip-path="url(#clip780)" d="M185.186 420.903 L190.07 420.903 L190.07 426.783 L185.186 426.783 L185.186 420.903 Z" fill="#000000" fill-rule="nonzero" fill-opacity="1" /><path clip-path="url(#clip780)" d="M200.301 392.223 L218.658 392.223 L218.658 396.158 L204.584 396.158 L204.584 404.63 Q205.602 404.283 206.621 404.121 Q207.639 403.936 208.658 403.936 Q214.445 403.936 217.824 407.107 Q221.204 410.278 221.204 415.695 Q221.204 421.273 217.732 424.375 Q214.26 427.454 207.94 427.454 Q205.764 427.454 203.496 427.084 Q201.25 426.713 198.843 425.972 L198.843 421.273 Q200.926 422.408 203.149 422.963 Q205.371 423.519 207.848 423.519 Q211.852 423.519 214.19 421.412 Q216.528 419.306 216.528 415.695 Q216.528 412.084 214.19 409.977 Q211.852 407.871 207.848 407.871 Q205.973 407.871 204.098 408.287 Q202.246 408.704 200.301 409.584 L200.301 392.223 Z" fill="#000000" fill-rule="nonzero" fill-opacity="1" /><path clip-path="url(#clip780)" d="M154.839 99.5305 L162.477 99.5305 L162.477 73.1649 L154.167 74.8316 L154.167 70.5723 L162.431 68.9057 L167.107 68.9057 L167.107 99.5305 L174.746 99.5305 L174.746 103.466 L154.839 103.466 L154.839 99.5305 Z" fill="#000000" fill-rule="nonzero" fill-opacity="1" /><path clip-path="url(#clip780)" d="M184.19 97.5861 L189.075 97.5861 L189.075 103.466 L184.19 103.466 L184.19 97.5861 Z" fill="#000000" fill-rule="nonzero" fill-opacity="1" /><path clip-path="url(#clip780)" d="M209.26 71.9844 Q205.649 71.9844 203.82 75.5492 Q202.014 79.0908 202.014 86.2204 Q202.014 93.3268 203.82 96.8916 Q205.649 100.433 209.26 100.433 Q212.894 100.433 214.699 96.8916 Q216.528 93.3268 216.528 86.2204 Q216.528 79.0908 214.699 75.5492 Q212.894 71.9844 209.26 71.9844 M209.26 68.2807 Q215.07 68.2807 218.125 72.8871 Q221.204 77.4704 221.204 86.2204 Q221.204 94.9472 218.125 99.5537 Q215.07 104.137 209.26 104.137 Q203.449 104.137 200.371 99.5537 Q197.315 94.9472 197.315 86.2204 Q197.315 77.4704 200.371 72.8871 Q203.449 68.2807 209.26 68.2807 Z" fill="#000000" fill-rule="nonzero" fill-opacity="1" /><path clip-path="url(#clip780)" d="M16.4842 971.396 L16.4842 961.815 L48.8219 949.689 L16.4842 937.498 L16.4842 927.918 L64.0042 927.918 L64.0042 934.188 L22.277 934.188 L54.8694 946.442 L54.8694 952.903 L22.277 965.157 L64.0042 965.157 L64.0042 971.396 L16.4842 971.396 Z" fill="#000000" fill-rule="nonzero" fill-opacity="1" /><path clip-path="url(#clip780)" d="M32.4621 901.596 Q32.4621 906.306 36.1542 909.044 Q39.8145 911.781 46.212 911.781 Q52.6095 911.781 56.3017 909.075 Q59.9619 906.338 59.9619 901.596 Q59.9619 896.917 56.2698 894.18 Q52.5777 891.442 46.212 891.442 Q39.8781 891.442 36.186 894.18 Q32.4621 896.917 32.4621 901.596 M27.4968 901.596 Q27.4968 893.957 32.4621 889.596 Q37.4273 885.236 46.212 885.236 Q54.9649 885.236 59.9619 889.596 Q64.9272 893.957 64.9272 901.596 Q64.9272 909.266 59.9619 913.627 Q54.9649 917.955 46.212 917.955 Q37.4273 917.955 32.4621 913.627 Q27.4968 909.266 27.4968 901.596 Z" fill="#000000" fill-rule="nonzero" fill-opacity="1" /><path clip-path="url(#clip780)" d="M35.1993 847.774 Q31.2526 845.577 29.3747 842.522 Q27.4968 839.466 27.4968 835.329 Q27.4968 829.759 31.4117 826.735 Q35.2948 823.711 42.4881 823.711 L64.0042 823.711 L64.0042 829.599 L42.679 829.599 Q37.5546 829.599 35.072 831.414 Q32.5894 833.228 32.5894 836.952 Q32.5894 841.503 35.6131 844.145 Q38.6368 846.787 43.8567 846.787 L64.0042 846.787 L64.0042 852.675 L42.679 852.675 Q37.5228 852.675 35.072 854.489 Q32.5894 856.304 32.5894 860.091 Q32.5894 864.579 35.6449 867.221 Q38.6686 869.863 43.8567 869.863 L64.0042 869.863 L64.0042 875.751 L28.3562 875.751 L28.3562 869.863 L33.8944 869.863 Q30.616 867.857 29.0564 865.056 Q27.4968 862.256 27.4968 858.404 Q27.4968 854.521 29.4702 851.816 Q31.4436 849.079 35.1993 847.774 Z" fill="#000000" fill-rule="nonzero" fill-opacity="1" /><path clip-path="url(#clip780)" d="M44.7161 781.538 L47.5806 781.538 L47.5806 808.465 Q53.6281 808.083 56.8109 804.837 Q59.9619 801.559 59.9619 795.734 Q59.9619 792.36 59.1344 789.209 Q58.3069 786.026 56.6518 782.907 L62.1899 782.907 Q63.5267 786.058 64.227 789.368 Q64.9272 792.678 64.9272 796.084 Q64.9272 804.614 59.9619 809.611 Q54.9967 814.576 46.5303 814.576 Q37.7774 814.576 32.6531 809.866 Q27.4968 805.123 27.4968 797.103 Q27.4968 789.909 32.1438 785.74 Q36.7589 781.538 44.7161 781.538 M42.9973 787.395 Q38.1912 787.459 35.3266 790.1 Q32.4621 792.71 32.4621 797.039 Q32.4621 801.94 35.2312 804.901 Q38.0002 807.829 43.0292 808.274 L42.9973 787.395 Z" fill="#000000" fill-rule="nonzero" fill-opacity="1" /><path clip-path="url(#clip780)" d="M42.4881 742.294 L64.0042 742.294 L64.0042 748.15 L42.679 748.15 Q37.6183 748.15 35.1038 750.124 Q32.5894 752.097 32.5894 756.044 Q32.5894 760.786 35.6131 763.523 Q38.6368 766.261 43.8567 766.261 L64.0042 766.261 L64.0042 772.149 L28.3562 772.149 L28.3562 766.261 L33.8944 766.261 Q30.6797 764.16 29.0883 761.327 Q27.4968 758.463 27.4968 754.739 Q27.4968 748.596 31.3163 745.445 Q35.1038 742.294 42.4881 742.294 Z" fill="#000000" fill-rule="nonzero" fill-opacity="1" /><path clip-path="url(#clip780)" d="M18.2347 724.82 L28.3562 724.82 L28.3562 712.757 L32.9077 712.757 L32.9077 724.82 L52.2594 724.82 Q56.6199 724.82 57.8613 723.642 Q59.1026 722.433 59.1026 718.773 L59.1026 712.757 L64.0042 712.757 L64.0042 718.773 Q64.0042 725.552 61.4897 728.13 Q58.9434 730.708 52.2594 730.708 L32.9077 730.708 L32.9077 735.005 L28.3562 735.005 L28.3562 730.708 L18.2347 730.708 L18.2347 724.82 Z" fill="#000000" fill-rule="nonzero" fill-opacity="1" /><path clip-path="url(#clip780)" d="M49.9359 705.659 L28.3562 705.659 L28.3562 699.803 L49.7131 699.803 Q54.7739 699.803 57.3202 697.829 Q59.8346 695.856 59.8346 691.909 Q59.8346 687.167 56.8109 684.43 Q53.7872 681.66 48.5673 681.66 L28.3562 681.66 L28.3562 675.804 L64.0042 675.804 L64.0042 681.66 L58.5296 681.66 Q61.7762 683.793 63.3676 686.626 Q64.9272 689.427 64.9272 693.151 Q64.9272 699.293 61.1078 702.476 Q57.2883 705.659 49.9359 705.659 M27.4968 690.923 L27.4968 690.923 Z" fill="#000000" fill-rule="nonzero" fill-opacity="1" /><path clip-path="url(#clip780)" d="M35.1993 635.987 Q31.2526 633.79 29.3747 630.735 Q27.4968 627.679 27.4968 623.542 Q27.4968 617.972 31.4117 614.948 Q35.2948 611.924 42.4881 611.924 L64.0042 611.924 L64.0042 617.812 L42.679 617.812 Q37.5546 617.812 35.072 619.627 Q32.5894 621.441 32.5894 625.165 Q32.5894 629.716 35.6131 632.358 Q38.6368 635 43.8567 635 L64.0042 635 L64.0042 640.888 L42.679 640.888 Q37.5228 640.888 35.072 642.702 Q32.5894 644.517 32.5894 648.304 Q32.5894 652.792 35.6449 655.434 Q38.6686 658.076 43.8567 658.076 L64.0042 658.076 L64.0042 663.964 L28.3562 663.964 L28.3562 658.076 L33.8944 658.076 Q30.616 656.07 29.0564 653.269 Q27.4968 650.468 27.4968 646.617 Q27.4968 642.734 29.4702 640.029 Q31.4436 637.291 35.1993 635.987 Z" fill="#000000" fill-rule="nonzero" fill-opacity="1" /><path clip-path="url(#clip780)" d="M14.5426 565.454 Q21.8632 569.72 29.0246 571.788 Q36.186 573.857 43.5384 573.857 Q50.8908 573.857 58.1159 571.788 Q65.3091 569.688 72.5979 565.454 L72.5979 570.547 Q65.1182 575.321 57.8931 577.708 Q50.668 580.064 43.5384 580.064 Q36.4406 580.064 29.2474 577.708 Q22.0542 575.353 14.5426 570.547 L14.5426 565.454 Z" fill="#000000" fill-rule="nonzero" fill-opacity="1" /><path clip-path="url(#clip780)" d="M58.657 548.426 L77.5631 548.426 L77.5631 554.315 L28.3562 554.315 L28.3562 548.426 L33.7671 548.426 Q30.5842 546.58 29.0564 543.779 Q27.4968 540.947 27.4968 537.032 Q27.4968 530.539 32.6531 526.496 Q37.8093 522.422 46.212 522.422 Q54.6147 522.422 59.771 526.496 Q64.9272 530.539 64.9272 537.032 Q64.9272 540.947 63.3994 543.779 Q61.8398 546.58 58.657 548.426 M46.212 528.502 Q39.7508 528.502 36.0905 531.175 Q32.3984 533.817 32.3984 538.464 Q32.3984 543.111 36.0905 545.784 Q39.7508 548.426 46.212 548.426 Q52.6732 548.426 56.3653 545.784 Q60.0256 543.111 60.0256 538.464 Q60.0256 533.817 56.3653 531.175 Q52.6732 528.502 46.212 528.502 Z" fill="#000000" fill-rule="nonzero" fill-opacity="1" /><path clip-path="url(#clip780)" d="M14.5426 513.638 L14.5426 508.545 Q22.0542 503.771 29.2474 501.415 Q36.4406 499.028 43.5384 499.028 Q50.668 499.028 57.8931 501.415 Q65.1182 503.771 72.5979 508.545 L72.5979 513.638 Q65.3091 509.404 58.1159 507.336 Q50.8908 505.235 43.5384 505.235 Q36.186 505.235 29.0246 507.336 Q21.8632 509.404 14.5426 513.638 Z" fill="#000000" fill-rule="nonzero" fill-opacity="1" /><polyline clip-path="url(#clip782)" style="stroke:#009af9; stroke-linecap:round; stroke-linejoin:round; stroke-width:16; stroke-opacity:1; fill:none" points="1305.61,86.1857 1311.6,86.1979 1317.59,86.2345 1323.58,86.2954 1329.58,86.3808 1335.57,86.4906 1341.55,86.6247 1347.54,86.7832 1353.53,86.9661 1359.51,87.1734 1365.49,87.405 1371.47,87.6609 1377.45,87.9412 1383.43,88.2458 1389.4,88.5747 1395.37,88.928 1401.33,89.3055 1407.29,89.7073 1413.25,90.1333 1419.2,90.5836 1425.15,91.0582 1431.1,91.5569 1437.04,92.0798 1442.97,92.6269 1448.9,93.1982 1454.83,93.7936 1460.75,94.413 1466.66,95.0566 1472.57,95.7242 1478.47,96.4159 1484.36,97.1316 1490.25,97.8712 1496.13,98.6348 1502,99.4223 1507.87,100.234 1513.73,101.069 1519.58,101.928 1525.42,102.811 1531.25,103.718 1537.08,104.648 1542.9,105.602 1548.71,106.58 1554.5,107.581 1560.29,108.606 1566.07,109.655 1571.84,110.727 1577.6,111.822 1583.35,112.941 1589.09,114.084 1594.82,115.249 1600.54,116.438 1606.24,117.65 1611.94,118.886 1617.62,120.144 1623.29,121.426 1628.95,122.731 1634.6,124.058 1640.24,125.409 1645.86,126.783 1651.47,128.179 1657.06,129.599 1662.65,131.041 1668.22,132.505 1673.77,133.993 1679.32,135.503 1684.84,137.035 1690.36,138.59 1695.86,140.168 1701.34,141.767 1706.81,143.39 1712.27,145.034 1717.71,146.7 1723.13,148.389 1728.54,150.1 1733.93,151.832 1739.31,153.587 1744.67,155.363 1750.01,157.161 1755.33,158.981 1760.64,160.823 1765.94,162.686 1771.21,164.57 1776.47,166.476 1781.71,168.404 1786.93,170.352 1792.13,172.322 1797.32,174.313 1802.48,176.326 1807.63,178.359 1812.76,180.413 1817.87,182.488 1822.96,184.583 1828.03,186.7 1833.08,188.837 1838.11,190.994 1843.12,193.172 1848.11,195.37 1853.08,197.589 1858.03,199.827 1862.96,202.086 1867.87,204.365 1872.76,206.664 1877.62,208.982 1882.46,211.321 1887.29,213.679 1892.09,216.056 1896.86,218.453 1901.62,220.87 1906.35,223.306 1911.06,225.761 1915.75,228.235 1920.41,230.728 1925.06,233.241 1929.67,235.772 1934.27,238.321 1938.84,240.89 1943.39,243.477 1947.91,246.082 1952.41,248.706 1956.88,251.348 1961.33,254.008 1965.75,256.686 1970.15,259.383 1974.53,262.097 1978.88,264.829 1983.2,267.578 1987.5,270.345 1991.77,273.13 1996.02,275.932 2000.24,278.751 2004.44,281.587 2008.61,284.44 2012.75,287.31 2016.86,290.197 2020.95,293.101 2025.01,296.021 2029.05,298.958 2033.05,301.911 2037.03,304.88 2040.98,307.866 2044.91,310.867 2048.8,313.885 2052.67,316.918 2056.51,319.967 2060.32,323.031 2064.11,326.111 2067.86,329.207 2071.59,332.317 2075.29,335.443 2078.95,338.583 2082.59,341.739 2086.2,344.909 2089.78,348.094 2093.33,351.293 2096.85,354.507 2100.34,357.735 2103.8,360.977 2107.24,364.234 2110.64,367.504 2114.01,370.788 2117.35,374.085 2120.65,377.396 2123.93,380.721 2127.18,384.059 2130.4,387.41 2133.58,390.774 2136.74,394.15 2139.86,397.54 2142.95,400.942 2146.01,404.357 2149.04,407.784 2152.03,411.224 2155,414.675 2157.93,418.139 2160.83,421.615 2163.7,425.102 2166.53,428.601 2169.34,432.111 2172.11,435.633 2174.84,439.165 2177.55,442.709 2180.22,446.264 2182.86,449.83 2185.47,453.406 2188.04,456.993 2190.58,460.591 2193.08,464.198 2195.56,467.816 2198,471.444 2200.4,475.081 2202.77,478.728 2205.11,482.385 2207.41,486.052 2209.68,489.727 2211.92,493.412 2214.12,497.106 2216.29,500.809 2218.42,504.52 2220.52,508.24 2222.58,511.969 2224.61,515.706 2226.61,519.451 2228.57,523.204 2230.49,526.965 2232.38,530.734 2234.24,534.51 2236.06,538.294 2237.84,542.085 2239.59,545.884 2241.31,549.689 2242.99,553.502 2244.63,557.321 2246.24,561.147 2247.81,564.979 2249.35,568.818 2250.85,572.662 2252.32,576.513 2253.75,580.37 2255.14,584.232 2256.5,588.1 2257.83,591.974 2259.11,595.853 2260.36,599.737 2261.58,603.626 2262.76,607.52 2263.9,611.418 2265.01,615.322 2266.08,619.229 2267.11,623.141 2268.11,627.057 2269.07,630.977 2270,634.901 2270.89,638.829 2271.74,642.76 2272.56,646.695 2273.34,650.632 2274.08,654.573 2274.79,658.517 2275.46,662.464 2276.09,666.413 2276.69,670.365 2277.25,674.319 2277.77,678.275 2278.26,682.234 2278.71,686.194 2279.13,690.156 2279.5,694.12 2279.84,698.085 2280.15,702.051 2280.41,706.019 2280.64,709.988 2280.84,713.957 2280.99,717.928 2281.11,721.898 2281.19,725.869 2281.24,729.841 2281.25,733.813 2281.22,737.784 2281.16,741.755 2281.06,745.726 2280.92,749.697 2280.74,753.667 2280.53,757.636 2280.28,761.604 2280,765.571 2279.68,769.537 2279.32,773.501 2278.92,777.464 2278.49,781.426 2278.02,785.385 2277.52,789.342 2276.97,793.298 2276.4,797.251 2275.78,801.201 2275.13,805.149 2274.44,809.094 2273.71,813.037 2272.95,816.976 2272.15,820.912 2271.32,824.845 2270.45,828.775 2269.54,832.7 2268.6,836.622 2267.62,840.54 2266.6,844.454 2265.55,848.364 2264.46,852.27 2263.34,856.171 2262.17,860.067 2260.98,863.958 2259.74,867.845 2258.47,871.726 2257.17,875.603 2255.83,879.474 2254.45,883.339 2253.04,887.198 2251.59,891.052 2250.11,894.9 2248.59,898.742 2247.03,902.577 2245.44,906.406 2243.81,910.229 2242.15,914.045 2240.45,917.854 2238.72,921.656 2236.95,925.45 2235.15,929.238 2233.31,933.018 2231.44,936.791 2229.53,940.556 2227.59,944.313 2225.61,948.062 2223.6,951.803 2221.56,955.536 2219.47,959.26 2217.36,962.976 2215.21,966.683 2213.02,970.381 2210.81,974.071 2208.55,977.751 2206.27,981.422 2203.95,985.084 2201.59,988.736 2199.2,992.378 2196.78,996.011 2194.32,999.633 2191.84,1003.25 2189.31,1006.85 2186.76,1010.44 2184.17,1014.02 2181.54,1017.59 2178.89,1021.15 2176.2,1024.7 2173.48,1028.24 2170.73,1031.77 2167.94,1035.28 2165.12,1038.79 2162.27,1042.28 2159.38,1045.76 2156.47,1049.23 2153.52,1052.69 2150.54,1056.14 2147.53,1059.57 2144.48,1062.99 2141.41,1066.4 2138.3,1069.8 2135.16,1073.18 2131.99,1076.55 2128.79,1079.91 2125.56,1083.25 2122.3,1086.58 2119,1089.9 2115.68,1093.2 2112.32,1096.5 2108.94,1099.77 2105.52,1103.04 2102.08,1106.28 2098.6,1109.52 2095.1,1112.74 2091.56,1115.95 2087.99,1119.14 2084.4,1122.32 2080.78,1125.48 2077.12,1128.63 2073.44,1131.76 2069.73,1134.88 2065.99,1137.98 2062.22,1141.07 2058.42,1144.14 2054.6,1147.2 2050.74,1150.24 2046.86,1153.27 2042.95,1156.27 2039.01,1159.27 2035.05,1162.25 2031.05,1165.21 2027.03,1168.15 2022.98,1171.08 2018.91,1173.99 2014.81,1176.89 2010.68,1179.77 2006.52,1182.63 2002.34,1185.47 1998.13,1188.3 1993.9,1191.11 1989.64,1193.9 1985.36,1196.68 1981.04,1199.44 1976.71,1202.18 1972.35,1204.9 1967.96,1207.61 1963.55,1210.29 1959.11,1212.96 1954.65,1215.61 1950.16,1218.25 1945.65,1220.86 1941.11,1223.46 1936.56,1226.04 1931.97,1228.6 1927.37,1231.14 1922.74,1233.66 1918.09,1236.16 1913.41,1238.64 1908.71,1241.11 1903.99,1243.55 1899.24,1245.98 1894.48,1248.39 1889.69,1250.77 1884.88,1253.14 1880.05,1255.49 1875.19,1257.82 1870.32,1260.13 1865.42,1262.42 1860.5,1264.68 1855.56,1266.93 1850.6,1269.16 1845.62,1271.37 1840.62,1273.56 1835.6,1275.73 1830.56,1277.87 1825.5,1280 1820.42,1282.11 1815.32,1284.19 1810.2,1286.26 1805.06,1288.3 1799.9,1290.32 1794.73,1292.32 1789.53,1294.3 1784.32,1296.26 1779.09,1298.2 1773.84,1300.12 1768.58,1302.01 1763.29,1303.89 1757.99,1305.74 1752.67,1307.57 1747.34,1309.38 1741.99,1311.17 1736.62,1312.93 1731.24,1314.68 1725.84,1316.4 1720.42,1318.1 1714.99,1319.77 1709.54,1321.43 1704.08,1323.06 1698.6,1324.67 1693.11,1326.26 1687.6,1327.83 1682.08,1329.37 1676.55,1330.89 1671,1332.39 1665.43,1333.87 1659.86,1335.32 1654.27,1336.75 1648.66,1338.16 1643.05,1339.55 1637.42,1340.91 1631.78,1342.25 1626.12,1343.56 1620.46,1344.86 1614.78,1346.13 1609.09,1347.37 1603.39,1348.6 1597.68,1349.8 1591.96,1350.98 1586.22,1352.13 1580.48,1353.26 1574.72,1354.37 1568.96,1355.45 1563.18,1356.51 1557.4,1357.55 1551.61,1358.56 1545.8,1359.55 1539.99,1360.52 1534.17,1361.46 1528.34,1362.38 1522.5,1363.27 1516.65,1364.14 1510.8,1364.99 1504.94,1365.81 1499.07,1366.61 1493.19,1367.39 1487.31,1368.14 1481.42,1368.87 1475.52,1369.57 1469.61,1370.25 1463.7,1370.91 1457.79,1371.54 1451.87,1372.15 1445.94,1372.73 1440.01,1373.29 1434.07,1373.82 1428.13,1374.33 1422.18,1374.82 1416.23,1375.28 1410.27,1375.72 1404.31,1376.14 1398.35,1376.53 1392.38,1376.89 1386.41,1377.23 1380.44,1377.55 1374.46,1377.84 1368.48,1378.11 1362.5,1378.35 1356.52,1378.57 1350.53,1378.77 1344.55,1378.94 1338.56,1379.08 1332.57,1379.21 1326.58,1379.3 1320.59,1379.38 1314.6,1379.43 1308.6,1379.45 1302.61,1379.45 1296.62,1379.43 1290.63,1379.38 1284.64,1379.3 1278.65,1379.21 1272.66,1379.08 1266.67,1378.94 1260.68,1378.77 1254.7,1378.57 1248.71,1378.35 1242.73,1378.11 1236.75,1377.84 1230.78,1377.55 1224.8,1377.23 1218.83,1376.89 1212.87,1376.53 1206.9,1376.14 1200.94,1375.72 1194.99,1375.28 1189.04,1374.82 1183.09,1374.33 1177.15,1373.82 1171.21,1373.29 1165.28,1372.73 1159.35,1372.15 1153.43,1371.54 1147.51,1370.91 1141.6,1370.25 1135.7,1369.57 1129.8,1368.87 1123.91,1368.14 1118.03,1367.39 1112.15,1366.61 1106.28,1365.81 1100.42,1364.99 1094.56,1364.14 1088.72,1363.27 1082.88,1362.38 1077.05,1361.46 1071.23,1360.52 1065.41,1359.55 1059.61,1358.56 1053.82,1357.55 1048.03,1356.51 1042.26,1355.45 1036.49,1354.37 1030.74,1353.26 1024.99,1352.13 1019.26,1350.98 1013.54,1349.8 1007.82,1348.6 1002.12,1347.37 996.435,1346.13 990.757,1344.86 985.091,1343.56 979.438,1342.25 973.797,1340.91 968.168,1339.55 962.552,1338.16 956.948,1336.75 951.358,1335.32 945.782,1333.87 940.219,1332.39 934.669,1330.89 929.134,1329.37 923.613,1327.83 918.106,1326.26 912.614,1324.67 907.137,1323.06 901.675,1321.43 896.228,1319.77 890.796,1318.1 885.38,1316.4 879.98,1314.68 874.596,1312.93 869.229,1311.17 863.877,1309.38 858.543,1307.57 853.225,1305.74 847.925,1303.89 842.641,1302.01 837.375,1300.12 832.127,1298.2 826.896,1296.26 821.684,1294.3 816.49,1292.32 811.314,1290.32 806.157,1288.3 801.019,1286.26 795.9,1284.19 790.8,1282.11 785.72,1280 780.659,1277.87 775.618,1275.73 770.597,1273.56 765.596,1271.37 760.615,1269.16 755.655,1266.93 750.716,1264.68 745.798,1262.42 740.901,1260.13 736.025,1257.82 731.171,1255.49 726.338,1253.14 721.527,1250.77 716.738,1248.39 711.972,1245.98 707.228,1243.55 702.506,1241.11 697.807,1238.64 693.131,1236.16 688.478,1233.66 683.849,1231.14 679.243,1228.6 674.66,1226.04 670.102,1223.46 665.567,1220.86 661.056,1218.25 656.57,1215.61 652.108,1212.96 647.671,1210.29 643.259,1207.61 638.871,1204.9 634.509,1202.18 630.172,1199.44 625.861,1196.68 621.575,1193.9 617.316,1191.11 613.082,1188.3 608.874,1185.47 604.692,1182.63 600.537,1179.77 596.408,1176.89 592.307,1173.99 588.232,1171.08 584.184,1168.15 580.164,1165.21 576.17,1162.25 572.205,1159.27 568.267,1156.27 564.356,1153.27 560.474,1150.24 556.62,1147.2 552.794,1144.14 548.997,1141.07 545.228,1137.98 541.488,1134.88 537.776,1131.76 534.094,1128.63 530.44,1125.48 526.816,1122.32 523.221,1119.14 519.656,1115.95 516.121,1112.74 512.615,1109.52 509.139,1106.28 505.693,1103.04 502.277,1099.77 498.892,1096.5 495.537,1093.2 492.213,1089.9 488.919,1086.58 485.656,1083.25 482.424,1079.91 479.223,1076.55 476.054,1073.18 472.915,1069.8 469.808,1066.4 466.733,1062.99 463.689,1059.57 460.677,1056.14 457.697,1052.69 454.749,1049.23 451.832,1045.76 448.948,1042.28 446.097,1038.79 443.278,1035.28 440.491,1031.77 437.737,1028.24 435.016,1024.7 432.327,1021.15 429.672,1017.59 427.049,1014.02 424.46,1010.44 421.904,1006.85 419.381,1003.25 416.892,999.633 414.436,996.011 412.014,992.378 409.626,988.736 407.271,985.083 404.95,981.422 402.663,977.751 400.411,974.071 398.192,970.381 396.008,966.683 393.858,962.976 391.742,959.26 389.661,955.536 387.614,951.803 385.602,948.062 383.625,944.313 381.683,940.556 379.775,936.791 377.902,933.018 376.065,929.238 374.262,925.45 372.494,921.655 370.762,917.853 369.065,914.044 367.403,910.229 365.777,906.406 364.186,902.577 362.631,898.742 361.111,894.9 359.627,891.052 358.178,887.198 356.766,883.339 355.389,879.473 354.047,875.602 352.742,871.726 351.473,867.845 350.24,863.958 349.043,860.067 347.881,856.171 346.756,852.27 345.668,848.364 344.615,844.454 343.599,840.54 342.618,836.622 341.675,832.7 340.767,828.775 339.896,824.845 339.062,820.912 338.264,816.976 337.502,813.037 336.777,809.094 336.088,805.149 335.436,801.201 334.821,797.251 334.242,793.297 333.7,789.342 333.195,785.385 332.726,781.425 332.294,777.464 331.898,773.501 331.54,769.537 331.218,765.571 330.933,761.604 330.684,757.636 330.473,753.667 330.298,749.697 330.16,745.726 330.059,741.755 329.994,737.784 329.967,733.812 329.976,729.841 330.022,725.869 330.105,721.898 330.224,717.927 330.381,713.957 330.574,709.988 330.804,706.019 331.071,702.052 331.374,698.085 331.714,694.12 332.091,690.156 332.505,686.194 332.956,682.234 333.443,678.275 333.967,674.319 334.527,670.365 335.124,666.413 335.758,662.464 336.428,658.517 337.135,654.573 337.878,650.632 338.658,646.694 339.475,642.76 340.327,638.829 341.216,634.901 342.142,630.977 343.104,627.057 344.102,623.141 345.137,619.229 346.207,615.322 347.314,611.418 348.457,607.52 349.637,603.626 350.852,599.737 352.103,595.853 353.39,591.974 354.714,588.1 356.073,584.232 357.467,580.37 358.898,576.513 360.364,572.662 361.866,568.817 363.404,564.979 364.977,561.147 366.586,557.321 368.23,553.502 369.909,549.689 371.624,545.884 373.374,542.085 375.159,538.294 376.979,534.51 378.834,530.734 380.725,526.965 382.65,523.204 384.61,519.451 386.604,515.706 388.633,511.969 390.697,508.24 392.796,504.52 394.929,500.808 397.096,497.106 399.297,493.412 401.533,489.727 403.803,486.052 406.106,482.385 408.444,478.728 410.816,475.081 413.221,471.443 415.66,467.816 418.133,464.198 420.639,460.59 423.178,456.993 425.751,453.406 428.357,449.83 430.996,446.264 433.667,442.709 436.372,439.165 439.11,435.633 441.88,432.111 444.683,428.6 447.519,425.102 450.387,421.614 453.287,418.139 456.219,414.675 459.183,411.224 462.179,407.784 465.207,404.357 468.267,400.942 471.358,397.54 474.481,394.15 477.635,390.774 480.82,387.409 484.037,384.058 487.284,380.721 490.562,377.396 493.871,374.085 497.211,370.787 500.581,367.504 503.982,364.233 507.412,360.977 510.873,357.735 514.364,354.507 517.885,351.293 521.435,348.094 525.015,344.909 528.625,341.739 532.263,338.583 535.932,335.443 539.628,332.317 543.354,329.206 547.109,326.111 550.892,323.031 554.704,319.967 558.544,316.918 562.412,313.884 566.308,310.867 570.233,307.866 574.184,304.88 578.164,301.911 582.171,298.958 586.205,296.021 590.266,293.101 594.355,290.197 598.469,287.31 602.611,284.44 606.78,281.587 610.975,278.751 615.196,275.931 619.442,273.13 623.715,270.345 628.014,267.578 632.338,264.828 636.687,262.097 641.062,259.383 645.462,256.686 649.887,254.008 654.336,251.348 658.81,248.706 663.309,246.082 667.831,243.477 672.378,240.89 676.949,238.321 681.543,235.771 686.161,233.24 690.802,230.728 695.466,228.235 700.154,225.761 704.864,223.306 709.597,220.87 714.352,218.454 719.13,216.056 723.93,213.679 728.752,211.321 733.596,208.982 738.46,206.664 743.347,204.365 748.255,202.086 753.184,199.827 758.133,197.589 763.103,195.37 768.094,193.172 773.105,190.994 778.136,188.836 783.187,186.7 788.258,184.583 793.348,182.488 798.458,180.413 803.586,178.359 808.734,176.326 813.9,174.313 819.085,172.322 824.288,170.352 829.51,168.404 834.749,166.476 840.006,164.57 845.281,162.686 850.573,160.823 855.882,158.981 861.208,157.161 866.551,155.363 871.911,153.587 877.287,151.832 882.678,150.1 888.087,148.389 893.51,146.7 898.95,145.034 904.404,143.389 909.874,141.767 915.359,140.168 920.858,138.59 926.372,137.035 931.9,135.503 937.443,133.993 942.999,132.505 948.569,131.041 954.152,129.599 959.749,128.179 965.358,126.783 970.981,125.409 976.616,124.058 982.263,122.731 987.923,121.426 993.595,120.144 999.278,118.886 1004.97,117.65 1010.68,116.438 1016.4,115.249 1022.13,114.084 1027.86,112.941 1033.61,111.822 1039.37,110.727 1045.14,109.655 1050.92,108.606 1056.71,107.581 1062.51,106.58 1068.32,105.602 1074.14,104.648 1079.96,103.718 1085.8,102.811 1091.64,101.928 1097.49,101.069 1103.35,100.234 1109.21,99.4223 1115.09,98.6347 1120.97,97.8712 1126.85,97.1315 1132.75,96.4159 1138.65,95.7242 1144.56,95.0566 1150.47,94.413 1156.39,93.7936 1162.31,93.1982 1168.24,92.6269 1174.18,92.0798 1180.12,91.5569 1186.06,91.0582 1192.01,90.5836 1197.97,90.1333 1203.92,89.7073 1209.89,89.3055 1215.85,88.9279 1221.82,88.5747 1227.79,88.2458 1233.77,87.9412 1239.74,87.6609 1245.72,87.4049 1251.7,87.1733 1257.69,86.9661 1263.68,86.7832 1269.66,86.6247 1275.65,86.4905 1281.64,86.3808 1287.63,86.2954 1293.62,86.2345 1299.62,86.1979 1305.61,86.1857 "/>
<polyline clip-path="url(#clip782)" style="stroke:#e26f46; stroke-linecap:round; stroke-linejoin:round; stroke-width:16; stroke-opacity:1; fill:none" points="1305.61,86.1857 1311.6,86.2863 1317.59,86.387 1323.58,86.4877 1329.57,86.5884 1335.56,86.689 1341.55,86.7897 1347.54,86.8904 1353.53,86.991 1359.52,87.1007 1365.5,87.2928 1371.47,87.5722 1377.43,87.9257 1383.39,88.3411 1389.34,88.8071 1395.28,89.3136 1401.22,89.8514 1407.16,90.4125 1413.09,90.9898 1419.02,91.5773 1424.95,92.1698 1430.88,92.7634 1436.82,93.3553 1442.75,93.9434 1448.68,94.5269 1454.61,95.1058 1460.54,95.6814 1466.47,96.2559 1472.4,96.8325 1478.33,97.4236 1484.25,98.0588 1490.15,98.7472 1496.03,99.4947 1501.89,100.305 1507.73,101.18 1513.55,102.12 1519.34,103.123 1525.11,104.184 1530.86,105.298 1536.59,106.456 1542.31,107.649 1548.02,108.864 1553.72,110.088 1559.43,111.304 1565.14,112.51 1570.86,113.715 1576.57,114.92 1582.28,116.126 1588,117.331 1593.71,118.536 1599.42,119.742 1605.14,120.947 1610.85,122.152 1616.56,123.358 1622.28,124.563 1627.99,125.768 1633.7,126.974 1639.42,128.179 1645.12,129.396 1650.8,130.65 1656.44,131.94 1662.07,133.265 1667.67,134.622 1673.25,136.012 1678.81,137.432 1684.34,138.881 1689.86,140.358 1695.37,141.861 1700.86,143.39 1706.33,144.944 1711.79,146.521 1717.24,148.121 1722.68,149.742 1728.1,151.385 1733.52,153.047 1738.92,154.73 1744.32,156.431 1749.71,158.151 1755.08,159.888 1760.45,161.643 1765.81,163.416 1771.17,165.205 1776.51,167.011 1781.84,168.833 1787.17,170.672 1792.49,172.527 1797.8,174.398 1803.09,176.286 1808.38,178.19 1813.66,180.112 1818.92,182.05 1824.17,184.006 1829.41,185.979 1834.63,187.971 1839.84,189.981 1845.03,192.011 1850.2,194.061 1855.35,196.132 1860.48,198.224 1865.59,200.339 1870.68,202.476 1875.73,204.638 1880.77,206.825 1885.77,209.039 1890.74,211.28 1895.68,213.55 1900.58,215.849 1905.45,218.18 1910.27,220.544 1915.06,222.941 1919.8,225.375 1924.49,227.845 1929.13,230.355 1933.72,232.905 1938.26,235.498 1942.74,238.135 1947.15,240.818 1951.49,243.556 1955.71,246.361 1959.84,249.213 1963.93,252.09 1968.01,254.974 1972.11,257.848 1976.25,260.7 1980.44,263.518 1984.72,266.294 1989.07,269.022 1993.52,271.7 1998.06,274.327 2002.69,276.904 2007.4,279.437 2012.18,281.933 2017.01,284.402 2021.87,286.856 2026.73,289.31 2031.56,291.782 2036.33,294.291 2041,296.861 2045.51,299.517 2049.83,302.287 2053.9,305.201 2057.79,308.217 2061.59,311.277 2065.33,314.371 2069.02,317.493 2072.67,320.635 2076.3,323.793 2079.91,326.961 2083.51,330.136 2087.11,333.314 2090.7,336.493 2094.3,339.672 2097.9,342.852 2101.5,346.031 2105.1,349.212 2108.69,352.397 2112.27,355.589 2115.82,358.792 2119.33,362.011 2122.79,365.252 2126.19,368.521 2129.51,371.826 2132.77,375.164 2136.02,378.504 2139.26,381.849 2142.49,385.202 2145.68,388.565 2148.85,391.942 2151.97,395.335 2155.04,398.746 2158.06,402.176 2161.02,405.625 2163.92,409.096 2166.76,412.588 2169.55,416.101 2172.27,419.634 2174.94,423.188 2177.55,426.759 2180.11,430.348 2182.63,433.951 2185.12,437.567 2187.58,441.191 2190.02,444.823 2192.45,448.457 2194.89,452.089 2197.34,455.716 2199.8,459.34 2202.25,462.971 2204.67,466.61 2207.07,470.257 2209.43,473.914 2211.75,477.58 2214.03,481.258 2216.26,484.946 2218.45,488.646 2220.58,492.357 2222.67,496.08 2224.69,499.815 2226.67,503.562 2228.59,507.319 2230.46,511.089 2232.28,514.868 2234.05,518.658 2235.78,522.457 2237.46,526.265 2239.11,530.081 2240.72,533.903 2242.3,537.731 2243.86,541.563 2245.41,545.399 2246.95,549.236 2248.49,553.074 2250.03,556.909 2251.59,560.742 2253.05,564.582 2254.34,568.437 2255.5,572.304 2256.57,576.181 2257.57,580.066 2258.53,583.958 2259.47,587.855 2260.41,591.755 2261.37,595.658 2262.36,599.562 2263.41,603.467 2264.51,607.371 2265.68,611.274 2266.92,615.175 2268.23,619.074 2269.62,622.972 2271.08,626.867 2272.6,630.76 2274.18,634.651 2275.81,638.541 2277.47,642.43 2279.15,646.318 2280.83,650.207 2282.49,654.099 2284.1,657.992 2285.64,661.89 2287.08,665.793 2288.39,669.704 2289.54,673.623 2290.48,677.553 2291.22,681.493 2291.83,685.439 2292.31,689.391 2292.69,693.348 2292.98,697.31 2293.18,701.274 2293.32,705.242 2293.41,709.212 2293.45,713.183 2293.45,717.156 2293.41,721.129 2293.35,725.103 2293.26,729.076 2293.15,733.049 2293.01,737.02 2292.85,740.991 2292.65,744.96 2292.42,748.928 2292.15,752.894 2291.82,756.858 2291.44,760.82 2290.99,764.78 2290.46,768.739 2289.96,772.701 2289.49,776.667 2289.04,780.635 2288.6,784.603 2288.15,788.572 2287.7,792.539 2287.22,796.504 2286.71,800.466 2286.16,804.424 2285.57,808.378 2284.93,812.327 2284.24,816.271 2283.5,820.209 2282.7,824.143 2281.85,828.071 2280.94,831.993 2279.99,835.911 2278.98,839.823 2277.93,843.732 2276.84,847.637 2275.73,851.538 2274.59,855.438 2273.44,859.336 2272.28,863.234 2271.14,867.133 2270.02,871.035 2268.9,874.939 2267.77,878.843 2266.61,882.744 2265.41,886.639 2264.16,890.526 2262.86,894.403 2261.48,898.267 2260.04,902.118 2258.52,905.955 2256.92,909.776 2255.24,913.582 2253.49,917.372 2251.66,921.146 2249.76,924.907 2247.8,928.654 2245.78,932.388 2243.7,936.112 2241.59,939.829 2239.45,943.539 2237.3,947.247 2235.15,950.955 2233.02,954.666 2230.9,958.383 2228.78,962.099 2226.64,965.812 2224.48,969.52 2222.29,973.22 2220.07,976.913 2217.81,980.595 2215.52,984.266 2213.19,987.924 2210.81,991.57 2208.4,995.203 2205.94,998.822 2203.44,1002.43 2200.9,1006.02 2198.32,1009.6 2195.71,1013.17 2193.06,1016.73 2190.39,1020.28 2187.7,1023.82 2184.99,1027.36 2182.27,1030.89 2179.54,1034.42 2176.82,1037.96 2174.11,1041.5 2171.34,1045.01 2168.48,1048.49 2165.55,1051.95 2162.56,1055.38 2159.51,1058.79 2156.42,1062.18 2153.29,1065.57 2150.12,1068.93 2146.92,1072.29 2143.7,1075.64 2140.46,1078.99 2137.21,1082.33 2133.94,1085.66 2130.65,1088.98 2127.35,1092.3 2124.04,1095.62 2120.71,1098.92 2117.36,1102.22 2113.99,1105.5 2110.59,1108.78 2107.17,1112.03 2103.7,1115.27 2100.2,1118.49 2096.64,1121.68 2093.02,1124.84 2089.33,1127.96 2085.59,1131.06 2081.85,1134.16 2078.11,1137.26 2074.38,1140.37 2070.64,1143.47 2066.89,1146.56 2063.12,1149.65 2059.34,1152.72 2055.53,1155.79 2051.7,1158.84 2047.85,1161.88 2043.98,1164.9 2040.09,1167.92 2036.19,1170.94 2032.29,1173.94 2028.38,1176.95 2024.47,1179.96 2020.53,1182.95 2016.52,1185.9 2012.46,1188.81 2008.34,1191.69 2004.17,1194.53 1999.95,1197.35 1995.69,1200.14 1991.39,1202.9 1987.05,1205.63 1982.67,1208.34 1978.27,1211.03 1973.83,1213.7 1969.37,1216.35 1964.89,1218.99 1960.39,1221.61 1955.87,1224.22 1951.34,1226.82 1946.8,1229.42 1942.26,1232.01 1937.71,1234.6 1933.17,1237.19 1928.63,1239.78 1924.06,1242.35 1919.44,1244.89 1914.79,1247.4 1910.09,1249.87 1905.34,1252.3 1900.56,1254.7 1895.73,1257.05 1890.86,1259.37 1885.94,1261.64 1880.99,1263.87 1875.99,1266.06 1870.96,1268.22 1865.9,1270.33 1860.8,1272.41 1855.67,1274.46 1850.52,1276.48 1845.34,1278.48 1840.14,1280.45 1834.93,1282.4 1829.71,1284.35 1824.48,1286.28 1819.24,1288.21 1814.01,1290.14 1808.79,1292.09 1803.59,1294.05 1798.4,1296.04 1793.21,1298.03 1788.03,1300.03 1782.85,1302.03 1777.66,1304.02 1772.46,1305.99 1767.25,1307.95 1762.02,1309.88 1756.77,1311.79 1751.51,1313.68 1746.22,1315.53 1740.91,1317.36 1735.57,1319.16 1730.22,1320.93 1724.84,1322.67 1719.45,1324.4 1714.04,1326.1 1708.62,1327.78 1703.18,1329.45 1697.74,1331.11 1692.3,1332.76 1686.86,1334.42 1681.43,1336.1 1675.96,1337.7 1670.43,1339.21 1664.86,1340.64 1659.24,1342 1653.59,1343.3 1647.92,1344.55 1642.22,1345.77 1636.5,1346.96 1630.77,1348.13 1625.04,1349.29 1619.3,1350.45 1613.56,1351.6 1607.83,1352.76 1602.09,1353.92 1596.37,1355.09 1590.64,1356.27 1584.93,1357.46 1579.22,1358.66 1573.51,1359.87 1567.81,1361.08 1562.11,1362.3 1556.41,1363.51 1550.7,1364.71 1544.97,1365.87 1539.22,1366.98 1533.44,1368.03 1527.64,1369.03 1521.82,1369.97 1515.99,1370.86 1510.13,1371.69 1504.26,1372.48 1498.37,1373.21 1492.48,1373.9 1486.56,1374.54 1480.64,1375.14 1474.71,1375.7 1468.77,1376.22 1462.83,1376.71 1456.87,1377.16 1450.91,1377.58 1444.95,1377.98 1438.99,1378.35 1433.02,1378.7 1427.04,1379.04 1421.07,1379.36 1415.1,1379.68 1409.12,1380 1403.14,1380.32 1397.17,1380.64 1391.2,1380.99 1385.22,1381.38 1379.25,1381.79 1373.28,1382.2 1367.31,1382.6 1361.34,1382.97 1355.36,1383.31 1349.39,1383.6 1343.41,1383.84 1337.43,1384.02 1331.45,1384.15 1325.47,1384.22 1319.49,1384.24 1313.5,1384.21 1307.52,1384.13 1301.53,1384.03 1295.55,1383.91 1289.56,1383.78 1283.58,1383.66 1277.59,1383.57 1271.6,1383.53 1265.6,1383.51 1259.6,1383.5 1253.61,1383.49 1247.61,1383.45 1241.62,1383.38 1235.64,1383.27 1229.66,1383.11 1223.69,1382.89 1217.73,1382.62 1211.77,1382.28 1205.82,1381.89 1199.88,1381.44 1193.95,1380.93 1188.02,1380.39 1182.09,1379.81 1176.17,1379.2 1170.25,1378.59 1164.33,1377.98 1158.4,1377.39 1152.46,1376.87 1146.5,1376.38 1140.53,1375.92 1134.57,1375.45 1128.61,1374.97 1122.66,1374.46 1116.72,1373.9 1110.81,1373.29 1104.92,1372.61 1099.05,1371.86 1093.21,1371.03 1087.4,1370.13 1081.61,1369.16 1075.85,1368.12 1070.11,1367.01 1064.38,1365.85 1058.68,1364.65 1052.98,1363.41 1047.29,1362.16 1041.59,1360.92 1035.89,1359.7 1030.17,1358.52 1024.43,1357.36 1018.69,1356.21 1012.95,1355.07 1007.21,1353.92 1001.48,1352.76 995.765,1351.57 990.065,1350.35 984.383,1349.1 978.723,1347.81 973.083,1346.49 967.466,1345.12 961.871,1343.72 956.297,1342.28 950.741,1340.8 945.202,1339.3 939.677,1337.77 934.161,1336.22 928.649,1334.67 923.138,1333.12 917.619,1331.58 912.094,1330.05 906.571,1328.51 901.056,1326.96 895.553,1325.38 890.065,1323.79 884.596,1322.17 879.15,1320.52 873.727,1318.84 868.331,1317.12 862.961,1315.37 857.62,1313.58 852.307,1311.76 847.023,1309.9 841.765,1308.01 836.533,1306.08 831.326,1304.12 826.14,1302.14 820.972,1300.13 815.821,1298.11 810.68,1296.07 805.547,1294.02 800.415,1291.96 795.28,1289.92 790.134,1287.88 784.949,1285.89 779.735,1283.92 774.512,1281.96 769.298,1279.99 764.107,1278 758.951,1275.98 753.841,1273.91 748.783,1271.79 743.781,1269.62 738.837,1267.39 733.949,1265.1 729.113,1262.77 724.323,1260.39 719.57,1257.98 714.842,1255.54 710.123,1253.09 705.397,1250.65 700.644,1248.24 695.865,1245.84 691.075,1243.45 686.288,1241.06 681.515,1238.66 676.768,1236.24 672.053,1233.79 667.379,1231.31 662.749,1228.8 658.166,1226.25 653.631,1223.67 649.142,1221.05 644.698,1218.39 640.292,1215.71 635.919,1212.99 631.57,1210.27 627.235,1207.53 622.9,1204.79 618.553,1202.06 614.198,1199.33 609.859,1196.59 605.545,1193.83 601.266,1191.05 597.028,1188.24 592.839,1185.4 588.703,1182.53 584.624,1179.63 580.604,1176.69 576.644,1173.72 572.742,1170.71 568.898,1167.68 565.108,1164.61 561.367,1161.51 557.67,1158.39 554.007,1155.26 550.372,1152.1 546.753,1148.94 543.139,1145.77 539.517,1142.61 535.871,1139.46 532.188,1136.33 528.481,1133.21 524.764,1130.1 521.048,1126.98 517.345,1123.86 513.664,1120.73 510.013,1117.58 506.397,1114.42 502.822,1111.24 499.291,1108.04 495.807,1104.81 492.37,1101.57 488.979,1098.3 485.631,1095.01 482.324,1091.7 479.052,1088.38 475.808,1085.05 472.585,1081.7 469.373,1078.35 466.162,1075 462.938,1071.65 459.696,1068.31 456.451,1064.97 453.215,1061.63 450,1058.28 446.813,1054.91 443.664,1051.53 440.56,1048.14 437.505,1044.72 434.506,1041.29 431.564,1037.84 428.682,1034.36 425.862,1030.87 423.102,1027.35 420.401,1023.81 417.757,1020.25 415.165,1016.68 412.62,1013.09 410.116,1009.48 407.646,1005.86 405.199,1002.24 402.767,998.608 400.339,994.977 397.9,991.348 395.443,987.726 392.998,984.099 390.579,980.463 388.193,976.816 385.848,973.158 383.547,969.489 381.297,965.807 379.1,962.113 376.959,958.406 374.877,954.685 372.854,950.951 370.891,947.205 368.987,943.446 367.14,939.674 365.349,935.891 363.61,932.098 361.919,928.294 360.272,924.482 358.661,920.662 357.082,916.836 355.526,913.006 353.986,909.172 352.451,905.337 350.912,901.503 349.358,897.672 347.819,893.838 346.334,889.995 344.902,886.143 343.521,882.282 342.189,878.413 340.905,874.538 339.666,870.655 338.472,866.766 337.32,862.871 336.208,858.971 335.133,855.066 334.095,851.156 333.09,847.242 332.116,843.324 331.171,839.403 330.252,835.479 329.357,831.553 328.483,827.624 327.627,823.694 326.787,819.762 325.959,815.828 325.142,811.894 324.33,807.959 323.522,804.024 322.715,800.089 321.904,796.154 321.093,792.219 320.338,788.279 319.652,784.333 319.036,780.383 318.488,776.429 318.01,772.471 317.599,768.51 317.256,764.546 316.98,760.581 316.768,756.614 316.621,752.646 316.536,748.677 316.512,744.709 316.547,740.74 316.639,736.771 316.785,732.803 316.984,728.836 317.232,724.87 317.528,720.905 317.867,716.941 318.247,712.978 318.665,709.017 319.117,705.057 319.599,701.098 320.108,697.14 320.639,693.183 321.189,689.228 321.752,685.273 322.325,681.318 322.903,677.364 323.48,673.409 324.052,669.454 324.613,665.498 325.199,661.545 325.865,657.598 326.606,653.658 327.418,649.724 328.296,645.796 329.237,641.876 330.236,637.961 331.289,634.053 332.393,630.151 333.544,626.255 334.738,622.364 335.971,618.479 337.239,614.599 338.54,610.724 339.869,606.853 341.223,602.987 342.599,599.124 343.994,595.264 345.404,591.407 346.826,587.553 348.258,583.701 349.696,579.85 351.137,575.999 352.579,572.149 354.018,568.299 355.453,564.447 356.922,560.6 358.454,556.762 360.047,552.934 361.701,549.116 363.417,545.31 365.193,541.516 367.03,537.735 368.926,533.966 370.88,530.211 372.892,526.47 374.96,522.743 377.083,519.029 379.259,515.33 381.487,511.644 383.766,507.973 386.092,504.315 388.464,500.67 390.881,497.039 393.339,493.421 395.837,489.814 398.372,486.219 400.94,482.635 403.54,479.061 406.169,475.497 408.822,471.94 411.497,468.392 414.191,464.849 416.9,461.312 419.621,457.779 422.348,454.249 425.08,450.719 427.811,447.19 430.538,443.659 433.255,440.125 435.977,436.591 438.76,433.078 441.608,429.587 444.518,426.117 447.487,422.669 450.512,419.242 453.591,415.836 456.721,412.449 459.899,409.082 463.121,405.733 466.385,402.402 469.687,399.088 473.025,395.789 476.395,392.505 479.794,389.235 483.219,385.977 486.666,382.729 490.133,379.491 493.615,376.261 497.109,373.037 500.612,369.817 504.119,366.601 507.629,363.385 511.136,360.168 514.638,356.947 518.151,353.733 521.692,350.533 525.26,347.347 528.854,344.174 532.475,341.015 536.122,337.869 539.794,334.735 543.492,331.614 547.216,328.507 550.965,325.412 554.74,322.331 558.541,319.263 562.368,316.21 566.223,313.171 570.104,310.147 574.015,307.139 577.954,304.147 581.923,301.173 585.924,298.217 589.956,295.281 594.022,292.365 598.122,289.471 602.258,286.599 606.432,283.752 610.646,280.93 614.9,278.136 619.197,275.371 623.538,272.636 627.927,269.934 632.364,267.265 636.853,264.633 641.386,262.032 645.904,259.418 650.402,256.787 654.889,254.146 659.369,251.5 663.849,248.853 668.333,246.21 672.827,243.575 677.335,240.952 681.86,238.344 686.406,235.754 690.976,233.183 695.571,230.634 700.194,228.108 704.845,225.607 709.526,223.13 714.236,220.679 718.975,218.252 723.743,215.849 728.539,213.47 733.359,211.111 738.203,208.773 743.067,206.451 747.947,204.144 752.841,201.848 757.743,199.559 762.649,197.273 767.553,194.986 772.451,192.693 777.339,190.392 782.266,188.136 787.243,185.932 792.264,183.777 797.326,181.665 802.425,179.592 807.556,177.552 812.717,175.543 817.903,173.561 823.113,171.603 828.343,169.665 833.591,167.746 838.855,165.843 844.133,163.955 849.424,162.081 854.726,160.22 860.04,158.371 865.363,156.534 870.696,154.71 876.039,152.899 881.392,151.102 886.755,149.321 892.13,147.558 897.517,145.813 902.918,144.091 908.336,142.394 913.771,140.726 919.225,139.089 924.703,137.488 930.206,135.929 935.738,134.414 941.295,132.935 946.866,131.472 952.452,130.026 958.054,128.603 963.671,127.204 969.305,125.833 974.954,124.493 980.62,123.185 986.302,121.911 992.001,120.673 997.716,119.473 1003.45,118.31 1009.19,117.186 1014.96,116.1 1020.73,115.053 1026.52,114.044 1032.33,113.072 1038.15,112.136 1043.98,111.234 1049.82,110.365 1055.68,109.527 1061.54,108.717 1067.41,107.932 1073.29,107.168 1079.18,106.424 1085.07,105.694 1090.96,104.975 1096.86,104.261 1102.75,103.549 1108.65,102.833 1114.54,102.108 1120.43,101.389 1126.34,100.742 1132.26,100.165 1138.2,99.6472 1144.15,99.1805 1150.11,98.7569 1156.07,98.3689 1162.05,98.0098 1168.02,97.6732 1174.01,97.3535 1179.99,97.0458 1185.98,96.7456 1191.96,96.449 1197.95,96.1529 1203.93,95.8546 1209.92,95.552 1215.9,95.2439 1221.88,94.9293 1227.87,94.608 1233.84,94.2803 1239.82,93.9473 1245.8,93.6106 1251.78,93.2723 1257.75,92.9352 1263.73,92.6026 "/>
<path clip-path="url(#clip780)" d="M327.056 248.629 L750.198 248.629 L750.198 93.1086 L327.056 93.1086  Z" fill="#ffffff" fill-rule="evenodd" fill-opacity="1"/>
<polyline clip-path="url(#clip780)" style="stroke:#000000; stroke-linecap:round; stroke-linejoin:round; stroke-width:4; stroke-opacity:1; fill:none" points="327.056,248.629 750.198,248.629 750.198,93.1086 327.056,93.1086 327.056,248.629 "/>
<polyline clip-path="url(#clip780)" style="stroke:#009af9; stroke-linecap:round; stroke-linejoin:round; stroke-width:16; stroke-opacity:1; fill:none" points="350.34,144.949 490.043,144.949 "/>
<path clip-path="url(#clip780)" d="M529.345 130.84 Q524.253 130.84 521.244 134.636 Q518.258 138.432 518.258 144.983 Q518.258 151.511 521.244 155.307 Q524.253 159.104 529.345 159.104 Q534.438 159.104 537.401 155.307 Q540.387 151.511 540.387 144.983 Q540.387 138.432 537.401 134.636 Q534.438 130.84 529.345 130.84 M529.345 127.044 Q536.614 127.044 540.966 131.928 Q545.318 136.789 545.318 144.983 Q545.318 153.155 540.966 158.039 Q536.614 162.9 529.345 162.9 Q522.054 162.9 517.679 158.039 Q513.327 153.178 513.327 144.983 Q513.327 136.789 517.679 131.928 Q522.054 127.044 529.345 127.044 Z" fill="#000000" fill-rule="nonzero" fill-opacity="1" /><path clip-path="url(#clip780)" d="M567.47 140.284 Q566.753 139.868 565.896 139.682 Q565.063 139.474 564.044 139.474 Q560.433 139.474 558.489 141.835 Q556.568 144.173 556.568 148.571 L556.568 162.229 L552.285 162.229 L552.285 136.303 L556.568 136.303 L556.568 140.331 Q557.91 137.969 560.063 136.835 Q562.216 135.678 565.294 135.678 Q565.734 135.678 566.267 135.747 Q566.799 135.794 567.447 135.909 L567.47 140.284 Z" fill="#000000" fill-rule="nonzero" fill-opacity="1" /><path clip-path="url(#clip780)" d="M571.938 136.303 L576.197 136.303 L576.197 162.229 L571.938 162.229 L571.938 136.303 M571.938 126.21 L576.197 126.21 L576.197 131.604 L571.938 131.604 L571.938 126.21 Z" fill="#000000" fill-rule="nonzero" fill-opacity="1" /><path clip-path="url(#clip780)" d="M602.169 148.965 Q602.169 144.335 600.248 141.789 Q598.35 139.243 594.901 139.243 Q591.475 139.243 589.553 141.789 Q587.655 144.335 587.655 148.965 Q587.655 153.571 589.553 156.118 Q591.475 158.664 594.901 158.664 Q598.35 158.664 600.248 156.118 Q602.169 153.571 602.169 148.965 M606.428 159.011 Q606.428 165.631 603.489 168.849 Q600.549 172.09 594.484 172.09 Q592.239 172.09 590.248 171.742 Q588.257 171.418 586.382 170.724 L586.382 166.58 Q588.257 167.599 590.086 168.085 Q591.915 168.571 593.813 168.571 Q598.003 168.571 600.086 166.372 Q602.169 164.196 602.169 159.775 L602.169 157.668 Q600.85 159.96 598.79 161.094 Q596.729 162.229 593.859 162.229 Q589.091 162.229 586.174 158.594 Q583.257 154.96 583.257 148.965 Q583.257 142.946 586.174 139.312 Q589.091 135.678 593.859 135.678 Q596.729 135.678 598.79 136.812 Q600.85 137.946 602.169 140.238 L602.169 136.303 L606.428 136.303 L606.428 159.011 Z" fill="#000000" fill-rule="nonzero" fill-opacity="1" /><path clip-path="url(#clip780)" d="M615.201 136.303 L619.461 136.303 L619.461 162.229 L615.201 162.229 L615.201 136.303 M615.201 126.21 L619.461 126.21 L619.461 131.604 L615.201 131.604 L615.201 126.21 Z" fill="#000000" fill-rule="nonzero" fill-opacity="1" /><path clip-path="url(#clip780)" d="M649.924 146.581 L649.924 162.229 L645.664 162.229 L645.664 146.719 Q645.664 143.039 644.229 141.21 Q642.794 139.382 639.924 139.382 Q636.475 139.382 634.484 141.581 Q632.493 143.78 632.493 147.576 L632.493 162.229 L628.211 162.229 L628.211 136.303 L632.493 136.303 L632.493 140.331 Q634.021 137.993 636.081 136.835 Q638.164 135.678 640.873 135.678 Q645.34 135.678 647.632 138.456 Q649.924 141.21 649.924 146.581 Z" fill="#000000" fill-rule="nonzero" fill-opacity="1" /><path clip-path="url(#clip780)" d="M670.201 149.196 Q665.039 149.196 663.048 150.377 Q661.058 151.557 661.058 154.405 Q661.058 156.673 662.539 158.016 Q664.044 159.335 666.613 159.335 Q670.155 159.335 672.285 156.835 Q674.437 154.312 674.437 150.145 L674.437 149.196 L670.201 149.196 M678.697 147.437 L678.697 162.229 L674.437 162.229 L674.437 158.293 Q672.979 160.655 670.803 161.789 Q668.627 162.9 665.479 162.9 Q661.498 162.9 659.136 160.678 Q656.798 158.432 656.798 154.682 Q656.798 150.307 659.715 148.085 Q662.655 145.863 668.465 145.863 L674.437 145.863 L674.437 145.446 Q674.437 142.507 672.493 140.909 Q670.572 139.289 667.076 139.289 Q664.854 139.289 662.748 139.821 Q660.641 140.354 658.697 141.419 L658.697 137.483 Q661.035 136.581 663.234 136.141 Q665.433 135.678 667.516 135.678 Q673.141 135.678 675.919 138.594 Q678.697 141.511 678.697 147.437 Z" fill="#000000" fill-rule="nonzero" fill-opacity="1" /><path clip-path="url(#clip780)" d="M687.47 126.21 L691.729 126.21 L691.729 162.229 L687.47 162.229 L687.47 126.21 Z" fill="#000000" fill-rule="nonzero" fill-opacity="1" /><polyline clip-path="url(#clip780)" style="stroke:#e26f46; stroke-linecap:round; stroke-linejoin:round; stroke-width:16; stroke-opacity:1; fill:none" points="350.34,196.789 490.043,196.789 "/>
<path clip-path="url(#clip780)" d="M518.003 183.351 L518.003 196.337 L523.883 196.337 Q527.146 196.337 528.929 194.647 Q530.711 192.958 530.711 189.833 Q530.711 186.731 528.929 185.041 Q527.146 183.351 523.883 183.351 L518.003 183.351 M513.327 179.509 L523.883 179.509 Q529.693 179.509 532.656 182.147 Q535.642 184.763 535.642 189.833 Q535.642 194.948 532.656 197.564 Q529.693 200.18 523.883 200.18 L518.003 200.18 L518.003 214.069 L513.327 214.069 L513.327 179.509 Z" fill="#000000" fill-rule="nonzero" fill-opacity="1" /><path clip-path="url(#clip780)" d="M555.919 192.124 Q555.202 191.708 554.345 191.522 Q553.512 191.314 552.493 191.314 Q548.882 191.314 546.938 193.675 Q545.017 196.013 545.017 200.411 L545.017 214.069 L540.734 214.069 L540.734 188.143 L545.017 188.143 L545.017 192.171 Q546.359 189.809 548.512 188.675 Q550.665 187.518 553.743 187.518 Q554.183 187.518 554.716 187.587 Q555.248 187.634 555.896 187.749 L555.919 192.124 Z" fill="#000000" fill-rule="nonzero" fill-opacity="1" /><path clip-path="url(#clip780)" d="M581.521 200.041 L581.521 202.124 L561.938 202.124 Q562.216 206.522 564.577 208.837 Q566.961 211.129 571.197 211.129 Q573.651 211.129 575.942 210.527 Q578.257 209.925 580.526 208.721 L580.526 212.749 Q578.234 213.721 575.827 214.231 Q573.419 214.74 570.942 214.74 Q564.739 214.74 561.105 211.129 Q557.493 207.518 557.493 201.36 Q557.493 194.995 560.919 191.268 Q564.368 187.518 570.202 187.518 Q575.433 187.518 578.466 190.897 Q581.521 194.254 581.521 200.041 M577.262 198.791 Q577.216 195.296 575.294 193.212 Q573.396 191.129 570.248 191.129 Q566.683 191.129 564.53 193.143 Q562.401 195.157 562.077 198.814 L577.262 198.791 Z" fill="#000000" fill-rule="nonzero" fill-opacity="1" /><path clip-path="url(#clip780)" d="M605.572 192.078 L605.572 178.05 L609.831 178.05 L609.831 214.069 L605.572 214.069 L605.572 210.18 Q604.229 212.495 602.169 213.629 Q600.132 214.74 597.262 214.74 Q592.563 214.74 589.6 210.99 Q586.66 207.24 586.66 201.129 Q586.66 195.018 589.6 191.268 Q592.563 187.518 597.262 187.518 Q600.132 187.518 602.169 188.652 Q604.229 189.763 605.572 192.078 M591.058 201.129 Q591.058 205.828 592.979 208.513 Q594.924 211.175 598.303 211.175 Q601.683 211.175 603.627 208.513 Q605.572 205.828 605.572 201.129 Q605.572 196.43 603.627 193.768 Q601.683 191.083 598.303 191.083 Q594.924 191.083 592.979 193.768 Q591.058 196.43 591.058 201.129 Z" fill="#000000" fill-rule="nonzero" fill-opacity="1" /><path clip-path="url(#clip780)" d="M618.604 188.143 L622.863 188.143 L622.863 214.069 L618.604 214.069 L618.604 188.143 M618.604 178.05 L622.863 178.05 L622.863 183.444 L618.604 183.444 L618.604 178.05 Z" fill="#000000" fill-rule="nonzero" fill-opacity="1" /><path clip-path="url(#clip780)" d="M650.433 189.138 L650.433 193.12 Q648.627 192.124 646.799 191.638 Q644.993 191.129 643.141 191.129 Q638.998 191.129 636.706 193.768 Q634.414 196.384 634.414 201.129 Q634.414 205.874 636.706 208.513 Q638.998 211.129 643.141 211.129 Q644.993 211.129 646.799 210.643 Q648.627 210.133 650.433 209.138 L650.433 213.073 Q648.65 213.907 646.729 214.323 Q644.831 214.74 642.678 214.74 Q636.822 214.74 633.373 211.059 Q629.924 207.379 629.924 201.129 Q629.924 194.786 633.396 191.152 Q636.891 187.518 642.956 187.518 Q644.924 187.518 646.799 187.935 Q648.674 188.328 650.433 189.138 Z" fill="#000000" fill-rule="nonzero" fill-opacity="1" /><path clip-path="url(#clip780)" d="M662.053 180.782 L662.053 188.143 L670.826 188.143 L670.826 191.453 L662.053 191.453 L662.053 205.527 Q662.053 208.698 662.91 209.601 Q663.789 210.504 666.451 210.504 L670.826 210.504 L670.826 214.069 L666.451 214.069 Q661.521 214.069 659.646 212.24 Q657.771 210.388 657.771 205.527 L657.771 191.453 L654.646 191.453 L654.646 188.143 L657.771 188.143 L657.771 180.782 L662.053 180.782 Z" fill="#000000" fill-rule="nonzero" fill-opacity="1" /><path clip-path="url(#clip780)" d="M698.604 200.041 L698.604 202.124 L679.021 202.124 Q679.298 206.522 681.659 208.837 Q684.044 211.129 688.28 211.129 Q690.733 211.129 693.025 210.527 Q695.34 209.925 697.608 208.721 L697.608 212.749 Q695.317 213.721 692.909 214.231 Q690.502 214.74 688.025 214.74 Q681.822 214.74 678.187 211.129 Q674.576 207.518 674.576 201.36 Q674.576 194.995 678.002 191.268 Q681.451 187.518 687.284 187.518 Q692.516 187.518 695.548 190.897 Q698.604 194.254 698.604 200.041 M694.345 198.791 Q694.298 195.296 692.377 193.212 Q690.479 191.129 687.331 191.129 Q683.766 191.129 681.613 193.143 Q679.484 195.157 679.159 198.814 L694.345 198.791 Z" fill="#000000" fill-rule="nonzero" fill-opacity="1" /><path clip-path="url(#clip780)" d="M722.655 192.078 L722.655 178.05 L726.914 178.05 L726.914 214.069 L722.655 214.069 L722.655 210.18 Q721.312 212.495 719.252 213.629 Q717.215 214.74 714.344 214.74 Q709.645 214.74 706.682 210.99 Q703.743 207.24 703.743 201.129 Q703.743 195.018 706.682 191.268 Q709.645 187.518 714.344 187.518 Q717.215 187.518 719.252 188.652 Q721.312 189.763 722.655 192.078 M708.141 201.129 Q708.141 205.828 710.062 208.513 Q712.007 211.175 715.386 211.175 Q718.766 211.175 720.71 208.513 Q722.655 205.828 722.655 201.129 Q722.655 196.43 720.71 193.768 Q718.766 191.083 715.386 191.083 Q712.007 191.083 710.062 193.768 Q708.141 196.43 708.141 201.129 Z" fill="#000000" fill-rule="nonzero" fill-opacity="1" /></svg>
