<?xml version="1.0" encoding="utf-8"?>
<svg xmlns="http://www.w3.org/2000/svg" xmlns:xlink="http://www.w3.org/1999/xlink" width="600" height="400" viewBox="0 0 2400 1600">
<defs>
  <clipPath id="clip480">
    <rect x="0" y="0" width="2400" height="1600"/>
  </clipPath>
</defs>
<path clip-path="url(#clip480)" d="M0 1600 L2400 1600 L2400 0 L0 0  Z" fill="#ffffff" fill-rule="evenodd" fill-opacity="1"/>
<defs>
  <clipPath id="clip481">
    <rect x="480" y="0" width="1681" height="1600"/>
  </clipPath>
</defs>
<path clip-path="url(#clip480)" d="M178.867 1486.45 L2352.76 1486.45 L2352.76 47.2441 L178.867 47.2441  Z" fill="#ffffff" fill-rule="evenodd" fill-opacity="1"/>
<defs>
  <clipPath id="clip482">
    <rect x="178" y="47" width="2175" height="1440"/>
  </clipPath>
</defs>
<polyline clip-path="url(#clip482)" style="stroke:#000000; stroke-linecap:round; stroke-linejoin:round; stroke-width:2; stroke-opacity:0.1; fill:none" points="240.392,1486.45 240.392,47.2441 "/>
<polyline clip-path="url(#clip482)" style="stroke:#000000; stroke-linecap:round; stroke-linejoin:round; stroke-width:2; stroke-opacity:0.1; fill:none" points="924.005,1486.45 924.005,47.2441 "/>
<polyline clip-path="url(#clip482)" style="stroke:#000000; stroke-linecap:round; stroke-linejoin:round; stroke-width:2; stroke-opacity:0.1; fill:none" points="1607.62,1486.45 1607.62,47.2441 "/>
<polyline clip-path="url(#clip482)" style="stroke:#000000; stroke-linecap:round; stroke-linejoin:round; stroke-width:2; stroke-opacity:0.1; fill:none" points="2291.23,1486.45 2291.23,47.2441 "/>
<polyline clip-path="url(#clip482)" style="stroke:#000000; stroke-linecap:round; stroke-linejoin:round; stroke-width:2; stroke-opacity:0.1; fill:none" points="178.867,1431.56 2352.76,1431.56 "/>
<polyline clip-path="url(#clip482)" style="stroke:#000000; stroke-linecap:round; stroke-linejoin:round; stroke-width:2; stroke-opacity:0.1; fill:none" points="178.867,972.382 2352.76,972.382 "/>
<polyline clip-path="url(#clip482)" style="stroke:#000000; stroke-linecap:round; stroke-linejoin:round; stroke-width:2; stroke-opacity:0.1; fill:none" points="178.867,513.2 2352.76,513.2 "/>
<polyline clip-path="url(#clip482)" style="stroke:#000000; stroke-linecap:round; stroke-linejoin:round; stroke-width:2; stroke-opacity:0.1; fill:none" points="178.867,54.0171 2352.76,54.0171 "/>
<polyline clip-path="url(#clip480)" style="stroke:#000000; stroke-linecap:round; stroke-linejoin:round; stroke-width:4; stroke-opacity:1; fill:none" points="178.867,1486.45 2352.76,1486.45 "/>
<polyline clip-path="url(#clip480)" style="stroke:#000000; stroke-linecap:round; stroke-linejoin:round; stroke-width:4; stroke-opacity:1; fill:none" points="240.392,1486.45 240.392,1467.55 "/>
<polyline clip-path="url(#clip480)" style="stroke:#000000; stroke-linecap:round; stroke-linejoin:round; stroke-width:4; stroke-opacity:1; fill:none" points="924.005,1486.45 924.005,1467.55 "/>
<polyline clip-path="url(#clip480)" style="stroke:#000000; stroke-linecap:round; stroke-linejoin:round; stroke-width:4; stroke-opacity:1; fill:none" points="1607.62,1486.45 1607.62,1467.55 "/>
<polyline clip-path="url(#clip480)" style="stroke:#000000; stroke-linecap:round; stroke-linejoin:round; stroke-width:4; stroke-opacity:1; fill:none" points="2291.23,1486.45 2291.23,1467.55 "/>
<path clip-path="url(#clip480)" d="M217.776 1517.37 Q214.165 1517.37 212.336 1520.93 Q210.531 1524.47 210.531 1531.6 Q210.531 1538.71 212.336 1542.27 Q214.165 1545.82 217.776 1545.82 Q221.41 1545.82 223.216 1542.27 Q225.045 1538.71 225.045 1531.6 Q225.045 1524.47 223.216 1520.93 Q221.41 1517.37 217.776 1517.37 M217.776 1513.66 Q223.586 1513.66 226.642 1518.27 Q229.721 1522.85 229.721 1531.6 Q229.721 1540.33 226.642 1544.94 Q223.586 1549.52 217.776 1549.52 Q211.966 1549.52 208.887 1544.94 Q205.832 1540.33 205.832 1531.6 Q205.832 1522.85 208.887 1518.27 Q211.966 1513.66 217.776 1513.66 Z" fill="#000000" fill-rule="nonzero" fill-opacity="1" /><path clip-path="url(#clip480)" d="M237.938 1542.97 L242.822 1542.97 L242.822 1548.85 L237.938 1548.85 L237.938 1542.97 Z" fill="#000000" fill-rule="nonzero" fill-opacity="1" /><path clip-path="url(#clip480)" d="M263.007 1517.37 Q259.396 1517.37 257.568 1520.93 Q255.762 1524.47 255.762 1531.6 Q255.762 1538.71 257.568 1542.27 Q259.396 1545.82 263.007 1545.82 Q266.642 1545.82 268.447 1542.27 Q270.276 1538.71 270.276 1531.6 Q270.276 1524.47 268.447 1520.93 Q266.642 1517.37 263.007 1517.37 M263.007 1513.66 Q268.818 1513.66 271.873 1518.27 Q274.952 1522.85 274.952 1531.6 Q274.952 1540.33 271.873 1544.94 Q268.818 1549.52 263.007 1549.52 Q257.197 1549.52 254.119 1544.94 Q251.063 1540.33 251.063 1531.6 Q251.063 1522.85 254.119 1518.27 Q257.197 1513.66 263.007 1513.66 Z" fill="#000000" fill-rule="nonzero" fill-opacity="1" /><path clip-path="url(#clip480)" d="M901.887 1517.37 Q898.276 1517.37 896.447 1520.93 Q894.642 1524.47 894.642 1531.6 Q894.642 1538.71 896.447 1542.27 Q898.276 1545.82 901.887 1545.82 Q905.521 1545.82 907.327 1542.27 Q909.155 1538.71 909.155 1531.6 Q909.155 1524.47 907.327 1520.93 Q905.521 1517.37 901.887 1517.37 M901.887 1513.66 Q907.697 1513.66 910.753 1518.27 Q913.831 1522.85 913.831 1531.6 Q913.831 1540.33 910.753 1544.94 Q907.697 1549.52 901.887 1549.52 Q896.077 1549.52 892.998 1544.94 Q889.942 1540.33 889.942 1531.6 Q889.942 1522.85 892.998 1518.27 Q896.077 1513.66 901.887 1513.66 Z" fill="#000000" fill-rule="nonzero" fill-opacity="1" /><path clip-path="url(#clip480)" d="M922.049 1542.97 L926.933 1542.97 L926.933 1548.85 L922.049 1548.85 L922.049 1542.97 Z" fill="#000000" fill-rule="nonzero" fill-opacity="1" /><path clip-path="url(#clip480)" d="M937.164 1514.29 L955.521 1514.29 L955.521 1518.22 L941.447 1518.22 L941.447 1526.7 Q942.465 1526.35 943.484 1526.19 Q944.502 1526 945.521 1526 Q951.308 1526 954.687 1529.17 Q958.067 1532.34 958.067 1537.76 Q958.067 1543.34 954.595 1546.44 Q951.123 1549.52 944.803 1549.52 Q942.627 1549.52 940.359 1549.15 Q938.114 1548.78 935.706 1548.04 L935.706 1543.34 Q937.789 1544.47 940.012 1545.03 Q942.234 1545.58 944.711 1545.58 Q948.715 1545.58 951.053 1543.48 Q953.391 1541.37 953.391 1537.76 Q953.391 1534.15 951.053 1532.04 Q948.715 1529.94 944.711 1529.94 Q942.836 1529.94 940.961 1530.35 Q939.109 1530.77 937.164 1531.65 L937.164 1514.29 Z" fill="#000000" fill-rule="nonzero" fill-opacity="1" /><path clip-path="url(#clip480)" d="M1574.77 1544.91 L1582.41 1544.91 L1582.41 1518.55 L1574.1 1520.21 L1574.1 1515.95 L1582.36 1514.29 L1587.04 1514.29 L1587.04 1544.91 L1594.68 1544.91 L1594.68 1548.85 L1574.77 1548.85 L1574.77 1544.91 Z" fill="#000000" fill-rule="nonzero" fill-opacity="1" /><path clip-path="url(#clip480)" d="M1604.12 1542.97 L1609.01 1542.97 L1609.01 1548.85 L1604.12 1548.85 L1604.12 1542.97 Z" fill="#000000" fill-rule="nonzero" fill-opacity="1" /><path clip-path="url(#clip480)" d="M1629.19 1517.37 Q1625.58 1517.37 1623.75 1520.93 Q1621.95 1524.47 1621.95 1531.6 Q1621.95 1538.71 1623.75 1542.27 Q1625.58 1545.82 1629.19 1545.82 Q1632.83 1545.82 1634.63 1542.27 Q1636.46 1538.71 1636.46 1531.6 Q1636.46 1524.47 1634.63 1520.93 Q1632.83 1517.37 1629.19 1517.37 M1629.19 1513.66 Q1635 1513.66 1638.06 1518.27 Q1641.14 1522.85 1641.14 1531.6 Q1641.14 1540.33 1638.06 1544.94 Q1635 1549.52 1629.19 1549.52 Q1623.38 1549.52 1620.3 1544.94 Q1617.25 1540.33 1617.25 1531.6 Q1617.25 1522.85 1620.3 1518.27 Q1623.38 1513.66 1629.19 1513.66 Z" fill="#000000" fill-rule="nonzero" fill-opacity="1" /><path clip-path="url(#clip480)" d="M2258.88 1544.91 L2266.52 1544.91 L2266.52 1518.55 L2258.21 1520.21 L2258.21 1515.95 L2266.47 1514.29 L2271.15 1514.29 L2271.15 1544.91 L2278.79 1544.91 L2278.79 1548.85 L2258.88 1548.85 L2258.88 1544.91 Z" fill="#000000" fill-rule="nonzero" fill-opacity="1" /><path clip-path="url(#clip480)" d="M2288.23 1542.97 L2293.12 1542.97 L2293.12 1548.85 L2288.23 1548.85 L2288.23 1542.97 Z" fill="#000000" fill-rule="nonzero" fill-opacity="1" /><path clip-path="url(#clip480)" d="M2303.35 1514.29 L2321.71 1514.29 L2321.71 1518.22 L2307.63 1518.22 L2307.63 1526.7 Q2308.65 1526.35 2309.67 1526.19 Q2310.69 1526 2311.71 1526 Q2317.49 1526 2320.87 1529.17 Q2324.25 1532.34 2324.25 1537.76 Q2324.25 1543.34 2320.78 1546.44 Q2317.31 1549.52 2310.99 1549.52 Q2308.81 1549.52 2306.54 1549.15 Q2304.3 1548.78 2301.89 1548.04 L2301.89 1543.34 Q2303.97 1544.47 2306.2 1545.03 Q2308.42 1545.58 2310.89 1545.58 Q2314.9 1545.58 2317.24 1543.48 Q2319.58 1541.37 2319.58 1537.76 Q2319.58 1534.15 2317.24 1532.04 Q2314.9 1529.94 2310.89 1529.94 Q2309.02 1529.94 2307.15 1530.35 Q2305.29 1530.77 2303.35 1531.65 L2303.35 1514.29 Z" fill="#000000" fill-rule="nonzero" fill-opacity="1" /><polyline clip-path="url(#clip480)" style="stroke:#000000; stroke-linecap:round; stroke-linejoin:round; stroke-width:4; stroke-opacity:1; fill:none" points="178.867,1486.45 178.867,47.2441 "/>
<polyline clip-path="url(#clip480)" style="stroke:#000000; stroke-linecap:round; stroke-linejoin:round; stroke-width:4; stroke-opacity:1; fill:none" points="178.867,1431.56 197.764,1431.56 "/>
<polyline clip-path="url(#clip480)" style="stroke:#000000; stroke-linecap:round; stroke-linejoin:round; stroke-width:4; stroke-opacity:1; fill:none" points="178.867,972.382 197.764,972.382 "/>
<polyline clip-path="url(#clip480)" style="stroke:#000000; stroke-linecap:round; stroke-linejoin:round; stroke-width:4; stroke-opacity:1; fill:none" points="178.867,513.2 197.764,513.2 "/>
<polyline clip-path="url(#clip480)" style="stroke:#000000; stroke-linecap:round; stroke-linejoin:round; stroke-width:4; stroke-opacity:1; fill:none" points="178.867,54.0171 197.764,54.0171 "/>
<path clip-path="url(#clip480)" d="M50.9921 1432.02 L80.6679 1432.02 L80.6679 1435.95 L50.9921 1435.95 L50.9921 1432.02 Z" fill="#000000" fill-rule="nonzero" fill-opacity="1" /><path clip-path="url(#clip480)" d="M91.5706 1444.91 L99.2095 1444.91 L99.2095 1418.54 L90.8993 1420.21 L90.8993 1415.95 L99.1632 1414.28 L103.839 1414.28 L103.839 1444.91 L111.478 1444.91 L111.478 1448.84 L91.5706 1448.84 L91.5706 1444.91 Z" fill="#000000" fill-rule="nonzero" fill-opacity="1" /><path clip-path="url(#clip480)" d="M130.922 1417.36 Q127.311 1417.36 125.482 1420.93 Q123.677 1424.47 123.677 1431.6 Q123.677 1438.71 125.482 1442.27 Q127.311 1445.81 130.922 1445.81 Q134.556 1445.81 136.362 1442.27 Q138.191 1438.71 138.191 1431.6 Q138.191 1424.47 136.362 1420.93 Q134.556 1417.36 130.922 1417.36 M130.922 1413.66 Q136.732 1413.66 139.788 1418.27 Q142.867 1422.85 142.867 1431.6 Q142.867 1440.33 139.788 1444.93 Q136.732 1449.52 130.922 1449.52 Q125.112 1449.52 122.033 1444.93 Q118.978 1440.33 118.978 1431.6 Q118.978 1422.85 122.033 1418.27 Q125.112 1413.66 130.922 1413.66 Z" fill="#000000" fill-rule="nonzero" fill-opacity="1" /><path clip-path="url(#clip480)" d="M130.922 958.181 Q127.311 958.181 125.482 961.746 Q123.677 965.287 123.677 972.417 Q123.677 979.523 125.482 983.088 Q127.311 986.63 130.922 986.63 Q134.556 986.63 136.362 983.088 Q138.191 979.523 138.191 972.417 Q138.191 965.287 136.362 961.746 Q134.556 958.181 130.922 958.181 M130.922 954.477 Q136.732 954.477 139.788 959.084 Q142.867 963.667 142.867 972.417 Q142.867 981.144 139.788 985.75 Q136.732 990.333 130.922 990.333 Q125.112 990.333 122.033 985.75 Q118.978 981.144 118.978 972.417 Q118.978 963.667 122.033 959.084 Q125.112 954.477 130.922 954.477 Z" fill="#000000" fill-rule="nonzero" fill-opacity="1" /><path clip-path="url(#clip480)" d="M91.5706 526.544 L99.2095 526.544 L99.2095 500.179 L90.8993 501.846 L90.8993 497.586 L99.1632 495.92 L103.839 495.92 L103.839 526.544 L111.478 526.544 L111.478 530.48 L91.5706 530.48 L91.5706 526.544 Z" fill="#000000" fill-rule="nonzero" fill-opacity="1" /><path clip-path="url(#clip480)" d="M130.922 498.998 Q127.311 498.998 125.482 502.563 Q123.677 506.105 123.677 513.234 Q123.677 520.341 125.482 523.906 Q127.311 527.447 130.922 527.447 Q134.556 527.447 136.362 523.906 Q138.191 520.341 138.191 513.234 Q138.191 506.105 136.362 502.563 Q134.556 498.998 130.922 498.998 M130.922 495.295 Q136.732 495.295 139.788 499.901 Q142.867 504.484 142.867 513.234 Q142.867 521.961 139.788 526.568 Q136.732 531.151 130.922 531.151 Q125.112 531.151 122.033 526.568 Q118.978 521.961 118.978 513.234 Q118.978 504.484 122.033 499.901 Q125.112 495.295 130.922 495.295 Z" fill="#000000" fill-rule="nonzero" fill-opacity="1" /><path clip-path="url(#clip480)" d="M94.7882 67.3619 L111.108 67.3619 L111.108 71.2971 L89.1632 71.2971 L89.1632 67.3619 Q91.8252 64.6073 96.4085 59.9777 Q101.015 55.325 102.196 53.9824 Q104.441 51.4593 105.321 49.7232 Q106.223 47.9639 106.223 46.2741 Q106.223 43.5195 104.279 41.7834 Q102.358 40.0473 99.2558 40.0473 Q97.0567 40.0473 94.603 40.8112 Q92.1725 41.575 89.3947 43.126 L89.3947 38.4038 Q92.2188 37.2695 94.6724 36.6908 Q97.1261 36.1121 99.1632 36.1121 Q104.534 36.1121 107.728 38.7973 Q110.922 41.4825 110.922 45.9732 Q110.922 48.1028 110.112 50.0241 Q109.325 51.9222 107.219 54.5148 Q106.64 55.1861 103.538 58.4037 Q100.436 61.5981 94.7882 67.3619 Z" fill="#000000" fill-rule="nonzero" fill-opacity="1" /><path clip-path="url(#clip480)" d="M130.922 39.8158 Q127.311 39.8158 125.482 43.3806 Q123.677 46.9222 123.677 54.0518 Q123.677 61.1583 125.482 64.7231 Q127.311 68.2647 130.922 68.2647 Q134.556 68.2647 136.362 64.7231 Q138.191 61.1583 138.191 54.0518 Q138.191 46.9222 136.362 43.3806 Q134.556 39.8158 130.922 39.8158 M130.922 36.1121 Q136.732 36.1121 139.788 40.7186 Q142.867 45.3019 142.867 54.0518 Q142.867 62.7786 139.788 67.3851 Q136.732 71.9684 130.922 71.9684 Q125.112 71.9684 122.033 67.3851 Q118.978 62.7786 118.978 54.0518 Q118.978 45.3019 122.033 40.7186 Q125.112 36.1121 130.922 36.1121 Z" fill="#000000" fill-rule="nonzero" fill-opacity="1" /><polyline clip-path="url(#clip482)" style="stroke:#009af9; stroke-linecap:round; stroke-linejoin:round; stroke-width:4; stroke-opacity:1; fill:none" points="240.392,920.774 247.251,946.834 254.11,971.436 260.969,995.696 267.828,1018.56 274.687,1039.9 281.546,1060.33 288.405,1080.23 295.264,1099.6 302.123,1118.32 308.982,1136.74 315.841,1154.95 322.7,1172.57 329.559,1189.54 336.418,1205.87 343.277,1221.69 350.136,1236.93 356.995,1251.63 363.854,1265.67 370.713,1279.02 377.572,1291.76 384.431,1303.94 391.29,1315.55 398.149,1326.64 405.008,1337.26 411.867,1347.36 418.726,1356.94 425.585,1366.04 432.444,1374.65 439.303,1382.77 446.162,1390.41 453.021,1397.57 459.88,1404.24 466.739,1410.39 473.598,1416.03 480.457,1421.17 487.316,1425.81 494.175,1429.95 501.034,1433.6 507.893,1436.76 514.752,1439.41 521.611,1441.6 528.47,1443.34 535.328,1444.62 542.188,1445.41 549.046,1445.72 555.905,1445.59 562.764,1445.03 569.623,1444.07 576.482,1442.76 583.341,1441.12 590.2,1439.24 597.059,1437.24 603.918,1434.97 610.777,1432.2 617.636,1428.93 624.495,1425.17 631.354,1420.91 638.213,1416.15 645.072,1410.96 651.931,1405.35 658.79,1399.37 665.649,1392.93 672.508,1386.06 679.367,1378.78 686.226,1371.11 693.085,1363.14 699.944,1354.88 706.803,1346.34 713.662,1337.59 720.521,1328.63 727.38,1319.46 734.239,1310.12 741.098,1300.66 747.957,1291.02 754.816,1281.24 761.675,1271.36 768.534,1261.47 775.393,1251.6 782.252,1241.73 789.111,1231.82 795.97,1221.84 802.829,1211.8 809.688,1201.75 816.547,1191.78 823.406,1181.91 830.265,1172.04 837.124,1162.22 843.983,1152.47 850.842,1142.82 857.701,1133.18 864.56,1123.52 871.419,1113.94 878.278,1104.47 885.137,1095.12 891.996,1085.89 898.855,1076.72 905.714,1067.62 912.573,1058.53 919.432,1049.57 926.291,1040.74 933.15,1032.05 940.009,1023.49 946.868,1015.07 953.727,1006.8 960.586,998.678 967.445,990.685 974.304,982.83 981.163,975.198 988.022,967.724 994.881,960.3 1001.74,952.969 1008.6,945.744 1015.46,938.622 1022.32,931.614 1029.18,924.721 1036.04,917.993 1042.89,911.38 1049.75,904.834 1056.61,898.362 1063.47,891.992 1070.33,885.7 1077.19,879.487 1084.05,873.388 1090.91,867.322 1097.77,861.259 1104.62,855.251 1111.48,849.321 1118.34,843.426 1125.2,837.568 1132.06,831.722 1138.92,825.847 1145.78,819.949 1152.64,814.065 1159.5,808.205 1166.36,802.31 1173.21,796.474 1180.07,790.757 1186.93,785.112 1193.79,779.56 1200.65,774.047 1207.51,768.559 1214.37,763.125 1221.23,757.712 1228.09,752.379 1234.95,747.082 1241.8,741.79 1248.66,736.511 1255.52,731.27 1262.38,726.162 1269.24,721.205 1276.1,716.371 1282.96,711.699 1289.82,707.176 1296.68,702.764 1303.54,698.514 1310.39,694.432 1317.25,690.439 1324.11,686.573 1330.97,682.753 1337.83,679.019 1344.69,675.472 1351.55,672.114 1358.41,669.054 1365.27,666.261 1372.13,663.676 1378.98,661.303 1385.84,659.194 1392.7,657.404 1399.56,655.827 1406.42,654.459 1413.28,653.281 1420.14,652.353 1427,651.65 1433.86,651.164 1440.72,650.861 1447.57,650.754 1454.43,650.907 1461.29,651.219 1468.15,651.697 1475.01,652.446 1481.87,653.502 1488.73,654.842 1495.59,656.386 1502.45,658.075 1509.31,659.924 1516.16,661.965 1523.02,664.191 1529.88,666.57 1536.74,669.139 1543.6,671.928 1550.46,674.913 1557.32,678.091 1564.18,681.435 1571.04,684.921 1577.9,688.583 1584.75,692.451 1591.61,696.424 1598.47,700.479 1605.33,704.648 1612.19,708.949 1619.05,713.437 1625.91,718.042 1632.77,722.809 1639.63,727.735 1646.49,732.761 1653.34,737.915 1660.2,743.125 1667.06,748.381 1673.92,753.753 1680.78,759.261 1687.64,764.78 1694.5,770.264 1701.36,775.71 1708.22,781.099 1715.08,786.505 1721.93,791.971 1728.79,797.495 1735.65,803.048 1742.51,808.579 1749.37,814.105 1756.23,819.658 1763.09,825.173 1769.95,830.645 1776.81,836.002 1783.67,841.242 1790.52,846.406 1797.38,851.522 1804.24,856.532 1811.1,861.422 1817.96,866.274 1824.82,871.064 1831.68,875.717 1838.54,880.277 1845.4,884.79 1852.26,889.248 1859.11,893.618 1865.97,897.933 1872.83,902.181 1879.69,906.301 1886.55,910.334 1893.41,914.283 1900.27,918.083 1907.13,921.778 1913.99,925.336 1920.85,928.794 1927.7,932.188 1934.56,935.429 1941.42,938.562 1948.28,941.601 1955.14,944.568 1962,947.506 1968.86,950.357 1975.72,953.137 1982.58,955.809 1989.44,958.356 1996.29,960.794 2003.15,963.1 2010.01,965.291 2016.87,967.4 2023.73,969.409 2030.59,971.304 2037.45,973.1 2044.31,974.808 2051.17,976.435 2058.02,977.981 2064.88,979.407 2071.74,980.707 2078.6,981.877 2085.46,982.941 2092.32,983.907 2099.18,984.776 2106.04,985.563 2112.9,986.32 2119.76,987.093 2126.61,987.868 2133.47,988.642 2140.33,989.455 2147.19,990.298 2154.05,991.213 2160.91,992.182 2167.77,993.068 2174.63,993.964 2181.49,994.746 2188.35,995.301 2195.2,995.762 2202.06,996.475 2208.92,997.733 2215.78,999.418 2222.64,1001.22 2229.5,1003.22 2236.36,1005.55 2243.22,1007.69 2250.08,1009.62 2256.94,1011.83 2263.79,1014.57 2270.65,1017.24 2277.51,1020.19 2284.37,1024.2 2291.23,1029.12 "/>
<polyline clip-path="url(#clip482)" style="stroke:#e26f46; stroke-linecap:round; stroke-linejoin:round; stroke-width:4; stroke-opacity:1; fill:none" points="240.392,87.9763 247.251,114.137 254.11,140.879 260.969,167.287 267.828,193.066 274.687,218.36 281.546,243.608 288.405,268.487 295.264,292.427 302.123,315.472 308.982,338.006 315.841,360.329 322.7,382.296 329.559,403.765 336.418,424.811 343.277,445.696 350.136,466.122 356.995,485.969 363.854,505.486 370.713,524.737 377.572,543.518 384.431,561.844 391.29,579.886 398.149,597.509 405.008,614.634 411.867,631.35 418.726,647.648 425.585,663.48 432.444,678.87 439.303,693.869 446.162,708.505 453.021,722.82 459.88,736.85 466.739,750.625 473.598,764.159 480.457,777.48 487.316,790.61 494.175,803.536 501.034,816.264 507.893,828.827 514.752,841.262 521.611,853.59 528.47,865.836 535.328,878.02 542.188,890.162 549.046,902.255 555.905,914.286 562.764,926.286 569.623,938.264 576.482,950.231 583.341,962.165 590.2,974.092 597.059,986.015 603.918,997.854 610.777,1009.54 617.636,1021.05 624.495,1032.46 631.354,1043.64 638.213,1054.55 645.072,1065.32 651.931,1075.96 658.79,1086.43 665.649,1096.74 672.508,1106.84 679.367,1116.77 686.226,1126.46 693.085,1135.91 699.944,1145.24 706.803,1154.48 713.662,1163.63 720.521,1172.65 727.38,1181.42 734.239,1190.02 741.098,1198.43 747.957,1206.67 754.816,1214.71 761.675,1222.58 768.534,1230.37 775.393,1238.03 782.252,1245.53 789.111,1252.87 795.97,1260.01 802.829,1266.96 809.688,1273.81 816.547,1280.5 823.406,1287.01 830.265,1293.34 837.124,1299.51 843.983,1305.44 850.842,1311.13 857.701,1316.6 864.56,1321.87 871.419,1326.89 878.278,1331.6 885.137,1336.03 891.996,1340.22 898.855,1344.2 905.714,1347.93 912.573,1351.32 919.432,1354.37 926.291,1357.05 933.15,1359.32 940.009,1361.28 946.868,1362.91 953.727,1364.14 960.586,1364.97 967.445,1365.47 974.304,1365.72 981.163,1365.68 988.022,1365.34 994.881,1364.66 1001.74,1363.62 1008.6,1362.24 1015.46,1360.46 1022.32,1358.24 1029.18,1355.61 1036.04,1352.67 1042.89,1349.38 1049.75,1345.72 1056.61,1341.7 1063.47,1337.38 1070.33,1332.78 1077.19,1327.83 1084.05,1322.61 1090.91,1317.19 1097.77,1311.56 1104.62,1305.68 1111.48,1299.6 1118.34,1293.32 1125.2,1286.82 1132.06,1280.19 1138.92,1273.46 1145.78,1266.62 1152.64,1259.67 1159.5,1252.68 1166.36,1245.63 1173.21,1238.45 1180.07,1231.18 1186.93,1223.87 1193.79,1216.51 1200.65,1209.05 1207.51,1201.57 1214.37,1194.19 1221.23,1186.85 1228.09,1179.5 1234.95,1172.13 1241.8,1164.76 1248.66,1157.43 1255.52,1150.11 1262.38,1142.82 1269.24,1135.59 1276.1,1128.48 1282.96,1121.47 1289.82,1114.52 1296.68,1107.61 1303.54,1100.74 1310.39,1093.96 1317.25,1087.3 1324.11,1080.81 1330.97,1074.46 1337.83,1068.27 1344.69,1062.18 1351.55,1056.17 1358.41,1050.32 1365.27,1044.57 1372.13,1038.89 1378.98,1033.3 1385.84,1027.78 1392.7,1022.37 1399.56,1017.02 1406.42,1011.77 1413.28,1006.71 1420.14,1001.7 1427,996.678 1433.86,991.674 1440.72,986.684 1447.57,981.812 1454.43,977.092 1461.29,972.479 1468.15,967.98 1475.01,963.621 1481.87,959.358 1488.73,955.11 1495.59,950.891 1502.45,946.694 1509.31,942.541 1516.16,938.442 1523.02,934.418 1529.88,930.466 1536.74,926.486 1543.6,922.427 1550.46,918.33 1557.32,914.231 1564.18,910.13 1571.04,906.04 1577.9,901.922 1584.75,897.772 1591.61,893.621 1598.47,889.478 1605.33,885.295 1612.19,881.035 1619.05,876.731 1625.91,872.352 1632.77,867.918 1639.63,863.475 1646.49,859.04 1653.34,854.611 1660.2,850.202 1667.06,845.915 1673.92,841.794 1680.78,837.743 1687.64,833.665 1694.5,829.541 1701.36,825.351 1708.22,821.05 1715.08,816.676 1721.93,812.334 1728.79,808.065 1735.65,803.92 1742.51,799.857 1749.37,795.836 1756.23,791.814 1763.09,787.782 1769.95,783.807 1776.81,779.92 1783.67,776.148 1790.52,772.43 1797.38,768.796 1804.24,765.223 1811.1,761.691 1817.96,758.231 1824.82,754.817 1831.68,751.545 1838.54,748.468 1845.4,745.566 1852.26,742.792 1859.11,740.139 1865.97,737.634 1872.83,735.195 1879.69,732.821 1886.55,730.576 1893.41,728.517 1900.27,726.597 1907.13,724.775 1913.99,723.068 1920.85,721.528 1927.7,720.1 1934.56,718.714 1941.42,717.429 1948.28,716.296 1955.14,715.305 1962,714.44 1968.86,713.691 1975.72,713.044 1982.58,712.505 1989.44,712.053 1996.29,711.66 2003.15,711.319 2010.01,711.053 2016.87,710.879 2023.73,710.795 2030.59,710.788 2037.45,710.809 2044.31,710.852 2051.17,710.923 2058.02,711.019 2064.88,711.158 2071.74,711.334 2078.6,711.531 2085.46,711.749 2092.32,711.989 2099.18,712.253 2106.04,712.544 2112.9,712.872 2119.76,713.232 2126.61,713.628 2133.47,714.13 2140.33,714.642 2147.19,715.074 2154.05,715.441 2160.91,715.707 2167.77,715.804 2174.63,715.834 2181.49,715.853 2188.35,715.995 2195.2,716.286 2202.06,716.667 2208.92,717.111 2215.78,717.718 2222.64,718.502 2229.5,719.448 2236.36,720.193 2243.22,720.791 2250.08,721.858 2256.94,723.101 2263.79,723.573 2270.65,723.687 2277.51,724.634 2284.37,726.396 2291.23,727.877 "/>
<path clip-path="url(#clip480)" d="M2010.47 250.738 L2280.29 250.738 L2280.29 95.2176 L2010.47 95.2176  Z" fill="#ffffff" fill-rule="evenodd" fill-opacity="1"/>
<polyline clip-path="url(#clip480)" style="stroke:#000000; stroke-linecap:round; stroke-linejoin:round; stroke-width:4; stroke-opacity:1; fill:none" points="2010.47,250.738 2280.29,250.738 2280.29,95.2176 2010.47,95.2176 2010.47,250.738 "/>
<polyline clip-path="url(#clip480)" style="stroke:#009af9; stroke-linecap:round; stroke-linejoin:round; stroke-width:4; stroke-opacity:1; fill:none" points="2034.63,147.058 2179.55,147.058 "/>
<path clip-path="url(#clip480)" d="M2217.55 166.745 Q2215.75 171.375 2214.03 172.787 Q2212.32 174.199 2209.45 174.199 L2206.05 174.199 L2206.05 170.634 L2208.55 170.634 Q2210.31 170.634 2211.28 169.8 Q2212.25 168.967 2213.43 165.865 L2214.19 163.921 L2203.71 138.412 L2208.22 138.412 L2216.32 158.689 L2224.43 138.412 L2228.94 138.412 L2217.55 166.745 Z" fill="#000000" fill-rule="nonzero" fill-opacity="1" /><path clip-path="url(#clip480)" d="M2236.23 160.402 L2243.87 160.402 L2243.87 134.037 L2235.56 135.703 L2235.56 131.444 L2243.82 129.778 L2248.5 129.778 L2248.5 160.402 L2256.14 160.402 L2256.14 164.338 L2236.23 164.338 L2236.23 160.402 Z" fill="#000000" fill-rule="nonzero" fill-opacity="1" /><polyline clip-path="url(#clip480)" style="stroke:#e26f46; stroke-linecap:round; stroke-linejoin:round; stroke-width:4; stroke-opacity:1; fill:none" points="2034.63,198.898 2179.55,198.898 "/>
<path clip-path="url(#clip480)" d="M2217.55 218.585 Q2215.75 223.215 2214.03 224.627 Q2212.32 226.039 2209.45 226.039 L2206.05 226.039 L2206.05 222.474 L2208.55 222.474 Q2210.31 222.474 2211.28 221.64 Q2212.25 220.807 2213.43 217.705 L2214.19 215.761 L2203.71 190.252 L2208.22 190.252 L2216.32 210.529 L2224.43 190.252 L2228.94 190.252 L2217.55 218.585 Z" fill="#000000" fill-rule="nonzero" fill-opacity="1" /><path clip-path="url(#clip480)" d="M2239.45 212.242 L2255.77 212.242 L2255.77 216.178 L2233.82 216.178 L2233.82 212.242 Q2236.49 209.488 2241.07 204.858 Q2245.68 200.205 2246.86 198.863 Q2249.1 196.34 2249.98 194.604 Q2250.88 192.844 2250.88 191.155 Q2250.88 188.4 2248.94 186.664 Q2247.02 184.928 2243.92 184.928 Q2241.72 184.928 2239.26 185.692 Q2236.83 186.455 2234.06 188.006 L2234.06 183.284 Q2236.88 182.15 2239.33 181.571 Q2241.79 180.993 2243.82 180.993 Q2249.19 180.993 2252.39 183.678 Q2255.58 186.363 2255.58 190.854 Q2255.58 192.983 2254.77 194.905 Q2253.99 196.803 2251.88 199.395 Q2251.3 200.067 2248.2 203.284 Q2245.1 206.479 2239.45 212.242 Z" fill="#000000" fill-rule="nonzero" fill-opacity="1" /></svg>
