<?xml version="1.0" encoding="utf-8"?>
<svg xmlns="http://www.w3.org/2000/svg" xmlns:xlink="http://www.w3.org/1999/xlink" width="600" height="400" viewBox="0 0 2400 1600">
<defs>
  <clipPath id="clip580">
    <rect x="0" y="0" width="2400" height="1600"/>
  </clipPath>
</defs>
<path clip-path="url(#clip580)" d="M0 1600 L2400 1600 L2400 0 L0 0  Z" fill="#ffffff" fill-rule="evenodd" fill-opacity="1"/>
<defs>
  <clipPath id="clip581">
    <rect x="480" y="0" width="1681" height="1600"/>
  </clipPath>
</defs>
<path clip-path="url(#clip580)" d="M178.867 1486.45 L2352.76 1486.45 L2352.76 47.2441 L178.867 47.2441  Z" fill="#ffffff" fill-rule="evenodd" fill-opacity="1"/>
<defs>
  <clipPath id="clip582">
    <rect x="178" y="47" width="2175" height="1440"/>
  </clipPath>
</defs>
<polyline clip-path="url(#clip582)" style="stroke:#000000; stroke-linecap:round; stroke-linejoin:round; stroke-width:2; stroke-opacity:0.1; fill:none" points="240.392,1486.45 240.392,47.2441 "/>
<polyline clip-path="url(#clip582)" style="stroke:#000000; stroke-linecap:round; stroke-linejoin:round; stroke-width:2; stroke-opacity:0.1; fill:none" points="924.005,1486.45 924.005,47.2441 "/>
<polyline clip-path="url(#clip582)" style="stroke:#000000; stroke-linecap:round; stroke-linejoin:round; stroke-width:2; stroke-opacity:0.1; fill:none" points="1607.62,1486.45 1607.62,47.2441 "/>
<polyline clip-path="url(#clip582)" style="stroke:#000000; stroke-linecap:round; stroke-linejoin:round; stroke-width:2; stroke-opacity:0.1; fill:none" points="2291.23,1486.45 2291.23,47.2441 "/>
<polyline clip-path="url(#clip582)" style="stroke:#000000; stroke-linecap:round; stroke-linejoin:round; stroke-width:2; stroke-opacity:0.1; fill:none" points="178.867,1426.96 2352.76,1426.96 "/>
<polyline clip-path="url(#clip582)" style="stroke:#000000; stroke-linecap:round; stroke-linejoin:round; stroke-width:2; stroke-opacity:0.1; fill:none" points="178.867,975.631 2352.76,975.631 "/>
<polyline clip-path="url(#clip582)" style="stroke:#000000; stroke-linecap:round; stroke-linejoin:round; stroke-width:2; stroke-opacity:0.1; fill:none" points="178.867,524.301 2352.76,524.301 "/>
<polyline clip-path="url(#clip582)" style="stroke:#000000; stroke-linecap:round; stroke-linejoin:round; stroke-width:2; stroke-opacity:0.1; fill:none" points="178.867,72.972 2352.76,72.972 "/>
<polyline clip-path="url(#clip580)" style="stroke:#000000; stroke-linecap:round; stroke-linejoin:round; stroke-width:4; stroke-opacity:1; fill:none" points="178.867,1486.45 2352.76,1486.45 "/>
<polyline clip-path="url(#clip580)" style="stroke:#000000; stroke-linecap:round; stroke-linejoin:round; stroke-width:4; stroke-opacity:1; fill:none" points="240.392,1486.45 240.392,1467.55 "/>
<polyline clip-path="url(#clip580)" style="stroke:#000000; stroke-linecap:round; stroke-linejoin:round; stroke-width:4; stroke-opacity:1; fill:none" points="924.005,1486.45 924.005,1467.55 "/>
<polyline clip-path="url(#clip580)" style="stroke:#000000; stroke-linecap:round; stroke-linejoin:round; stroke-width:4; stroke-opacity:1; fill:none" points="1607.62,1486.45 1607.62,1467.55 "/>
<polyline clip-path="url(#clip580)" style="stroke:#000000; stroke-linecap:round; stroke-linejoin:round; stroke-width:4; stroke-opacity:1; fill:none" points="2291.23,1486.45 2291.23,1467.55 "/>
<path clip-path="url(#clip580)" d="M217.776 1517.37 Q214.165 1517.37 212.336 1520.93 Q210.531 1524.47 210.531 1531.6 Q210.531 1538.71 212.336 1542.27 Q214.165 1545.82 217.776 1545.82 Q221.41 1545.82 223.216 1542.27 Q225.045 1538.71 225.045 1531.6 Q225.045 1524.47 223.216 1520.93 Q221.41 1517.37 217.776 1517.37 M217.776 1513.66 Q223.586 1513.66 226.642 1518.27 Q229.721 1522.85 229.721 1531.6 Q229.721 1540.33 226.642 1544.94 Q223.586 1549.52 217.776 1549.52 Q211.966 1549.52 208.887 1544.94 Q205.832 1540.33 205.832 1531.6 Q205.832 1522.85 208.887 1518.27 Q211.966 1513.66 217.776 1513.66 Z" fill="#000000" fill-rule="nonzero" fill-opacity="1" /><path clip-path="url(#clip580)" d="M237.938 1542.97 L242.822 1542.97 L242.822 1548.85 L237.938 1548.85 L237.938 1542.97 Z" fill="#000000" fill-rule="nonzero" fill-opacity="1" /><path clip-path="url(#clip580)" d="M263.007 1517.37 Q259.396 1517.37 257.568 1520.93 Q255.762 1524.47 255.762 1531.6 Q255.762 1538.71 257.568 1542.27 Q259.396 1545.82 263.007 1545.82 Q266.642 1545.82 268.447 1542.27 Q270.276 1538.71 270.276 1531.6 Q270.276 1524.47 268.447 1520.93 Q266.642 1517.37 263.007 1517.37 M263.007 1513.66 Q268.818 1513.66 271.873 1518.27 Q274.952 1522.85 274.952 1531.6 Q274.952 1540.33 271.873 1544.94 Q268.818 1549.52 263.007 1549.52 Q257.197 1549.52 254.119 1544.94 Q251.063 1540.33 251.063 1531.6 Q251.063 1522.85 254.119 1518.27 Q257.197 1513.66 263.007 1513.66 Z" fill="#000000" fill-rule="nonzero" fill-opacity="1" /><path clip-path="url(#clip580)" d="M901.887 1517.37 Q898.276 1517.37 896.447 1520.93 Q894.642 1524.47 894.642 1531.6 Q894.642 1538.71 896.447 1542.27 Q898.276 1545.82 901.887 1545.82 Q905.521 1545.82 907.327 1542.27 Q909.155 1538.71 909.155 1531.6 Q909.155 1524.47 907.327 1520.93 Q905.521 1517.37 901.887 1517.37 M901.887 1513.66 Q907.697 1513.66 910.753 1518.27 Q913.831 1522.85 913.831 1531.6 Q913.831 1540.33 910.753 1544.94 Q907.697 1549.52 901.887 1549.52 Q896.077 1549.52 892.998 1544.94 Q889.942 1540.33 889.942 1531.6 Q889.942 1522.85 892.998 1518.27 Q896.077 1513.66 901.887 1513.66 Z" fill="#000000" fill-rule="nonzero" fill-opacity="1" /><path clip-path="url(#clip580)" d="M922.049 1542.97 L926.933 1542.97 L926.933 1548.85 L922.049 1548.85 L922.049 1542.97 Z" fill="#000000" fill-rule="nonzero" fill-opacity="1" /><path clip-path="url(#clip580)" d="M937.164 1514.29 L955.521 1514.29 L955.521 1518.22 L941.447 1518.22 L941.447 1526.7 Q942.465 1526.35 943.484 1526.19 Q944.502 1526 945.521 1526 Q951.308 1526 954.687 1529.17 Q958.067 1532.34 958.067 1537.76 Q958.067 1543.34 954.595 1546.44 Q951.123 1549.52 944.803 1549.52 Q942.627 1549.52 940.359 1549.15 Q938.114 1548.78 935.706 1548.04 L935.706 1543.34 Q937.789 1544.47 940.012 1545.03 Q942.234 1545.58 944.711 1545.58 Q948.715 1545.58 951.053 1543.48 Q953.391 1541.37 953.391 1537.76 Q953.391 1534.15 951.053 1532.04 Q948.715 1529.94 944.711 1529.94 Q942.836 1529.94 940.961 1530.35 Q939.109 1530.77 937.164 1531.65 L937.164 1514.29 Z" fill="#000000" fill-rule="nonzero" fill-opacity="1" /><path clip-path="url(#clip580)" d="M1574.77 1544.91 L1582.41 1544.91 L1582.41 1518.55 L1574.1 1520.21 L1574.1 1515.95 L1582.36 1514.29 L1587.04 1514.29 L1587.04 1544.91 L1594.68 1544.91 L1594.68 1548.85 L1574.77 1548.85 L1574.77 1544.91 Z" fill="#000000" fill-rule="nonzero" fill-opacity="1" /><path clip-path="url(#clip580)" d="M1604.12 1542.97 L1609.01 1542.97 L1609.01 1548.85 L1604.12 1548.85 L1604.12 1542.97 Z" fill="#000000" fill-rule="nonzero" fill-opacity="1" /><path clip-path="url(#clip580)" d="M1629.19 1517.37 Q1625.58 1517.37 1623.75 1520.93 Q1621.95 1524.47 1621.95 1531.6 Q1621.95 1538.71 1623.75 1542.27 Q1625.58 1545.82 1629.19 1545.82 Q1632.83 1545.82 1634.63 1542.27 Q1636.46 1538.71 1636.46 1531.6 Q1636.46 1524.47 1634.63 1520.93 Q1632.83 1517.37 1629.19 1517.37 M1629.19 1513.66 Q1635 1513.66 1638.06 1518.27 Q1641.14 1522.85 1641.14 1531.6 Q1641.14 1540.33 1638.06 1544.94 Q1635 1549.52 1629.19 1549.52 Q1623.38 1549.52 1620.3 1544.94 Q1617.25 1540.33 1617.25 1531.6 Q1617.25 1522.85 1620.3 1518.27 Q1623.38 1513.66 1629.19 1513.66 Z" fill="#000000" fill-rule="nonzero" fill-opacity="1" /><path clip-path="url(#clip580)" d="M2258.88 1544.91 L2266.52 1544.91 L2266.52 1518.55 L2258.21 1520.21 L2258.21 1515.95 L2266.47 1514.29 L2271.15 1514.29 L2271.15 1544.91 L2278.79 1544.91 L2278.79 1548.85 L2258.88 1548.85 L2258.88 1544.91 Z" fill="#000000" fill-rule="nonzero" fill-opacity="1" /><path clip-path="url(#clip580)" d="M2288.23 1542.97 L2293.12 1542.97 L2293.12 1548.85 L2288.23 1548.85 L2288.23 1542.97 Z" fill="#000000" fill-rule="nonzero" fill-opacity="1" /><path clip-path="url(#clip580)" d="M2303.35 1514.29 L2321.71 1514.29 L2321.71 1518.22 L2307.63 1518.22 L2307.63 1526.7 Q2308.65 1526.35 2309.67 1526.19 Q2310.69 1526 2311.71 1526 Q2317.49 1526 2320.87 1529.17 Q2324.25 1532.34 2324.25 1537.76 Q2324.25 1543.34 2320.78 1546.44 Q2317.31 1549.52 2310.99 1549.52 Q2308.81 1549.52 2306.54 1549.15 Q2304.3 1548.78 2301.89 1548.04 L2301.89 1543.34 Q2303.97 1544.47 2306.2 1545.03 Q2308.42 1545.58 2310.89 1545.58 Q2314.9 1545.58 2317.24 1543.48 Q2319.58 1541.37 2319.58 1537.76 Q2319.58 1534.15 2317.24 1532.04 Q2314.9 1529.94 2310.89 1529.94 Q2309.02 1529.94 2307.15 1530.35 Q2305.29 1530.77 2303.35 1531.65 L2303.35 1514.29 Z" fill="#000000" fill-rule="nonzero" fill-opacity="1" /><polyline clip-path="url(#clip580)" style="stroke:#000000; stroke-linecap:round; stroke-linejoin:round; stroke-width:4; stroke-opacity:1; fill:none" points="178.867,1486.45 178.867,47.2441 "/>
<polyline clip-path="url(#clip580)" style="stroke:#000000; stroke-linecap:round; stroke-linejoin:round; stroke-width:4; stroke-opacity:1; fill:none" points="178.867,1426.96 197.764,1426.96 "/>
<polyline clip-path="url(#clip580)" style="stroke:#000000; stroke-linecap:round; stroke-linejoin:round; stroke-width:4; stroke-opacity:1; fill:none" points="178.867,975.631 197.764,975.631 "/>
<polyline clip-path="url(#clip580)" style="stroke:#000000; stroke-linecap:round; stroke-linejoin:round; stroke-width:4; stroke-opacity:1; fill:none" points="178.867,524.301 197.764,524.301 "/>
<polyline clip-path="url(#clip580)" style="stroke:#000000; stroke-linecap:round; stroke-linejoin:round; stroke-width:4; stroke-opacity:1; fill:none" points="178.867,72.972 197.764,72.972 "/>
<path clip-path="url(#clip580)" d="M50.9921 1427.41 L80.6679 1427.41 L80.6679 1431.35 L50.9921 1431.35 L50.9921 1427.41 Z" fill="#000000" fill-rule="nonzero" fill-opacity="1" /><path clip-path="url(#clip580)" d="M91.5706 1440.31 L99.2095 1440.31 L99.2095 1413.94 L90.8993 1415.61 L90.8993 1411.35 L99.1632 1409.68 L103.839 1409.68 L103.839 1440.31 L111.478 1440.31 L111.478 1444.24 L91.5706 1444.24 L91.5706 1440.31 Z" fill="#000000" fill-rule="nonzero" fill-opacity="1" /><path clip-path="url(#clip580)" d="M130.922 1412.76 Q127.311 1412.76 125.482 1416.32 Q123.677 1419.87 123.677 1427 Q123.677 1434.1 125.482 1437.67 Q127.311 1441.21 130.922 1441.21 Q134.556 1441.21 136.362 1437.67 Q138.191 1434.1 138.191 1427 Q138.191 1419.87 136.362 1416.32 Q134.556 1412.76 130.922 1412.76 M130.922 1409.06 Q136.732 1409.06 139.788 1413.66 Q142.867 1418.25 142.867 1427 Q142.867 1435.72 139.788 1440.33 Q136.732 1444.91 130.922 1444.91 Q125.112 1444.91 122.033 1440.33 Q118.978 1435.72 118.978 1427 Q118.978 1418.25 122.033 1413.66 Q125.112 1409.06 130.922 1409.06 Z" fill="#000000" fill-rule="nonzero" fill-opacity="1" /><path clip-path="url(#clip580)" d="M130.922 961.43 Q127.311 961.43 125.482 964.994 Q123.677 968.536 123.677 975.666 Q123.677 982.772 125.482 986.337 Q127.311 989.879 130.922 989.879 Q134.556 989.879 136.362 986.337 Q138.191 982.772 138.191 975.666 Q138.191 968.536 136.362 964.994 Q134.556 961.43 130.922 961.43 M130.922 957.726 Q136.732 957.726 139.788 962.332 Q142.867 966.916 142.867 975.666 Q142.867 984.393 139.788 988.999 Q136.732 993.582 130.922 993.582 Q125.112 993.582 122.033 988.999 Q118.978 984.393 118.978 975.666 Q118.978 966.916 122.033 962.332 Q125.112 957.726 130.922 957.726 Z" fill="#000000" fill-rule="nonzero" fill-opacity="1" /><path clip-path="url(#clip580)" d="M91.5706 537.646 L99.2095 537.646 L99.2095 511.281 L90.8993 512.947 L90.8993 508.688 L99.1632 507.021 L103.839 507.021 L103.839 537.646 L111.478 537.646 L111.478 541.581 L91.5706 541.581 L91.5706 537.646 Z" fill="#000000" fill-rule="nonzero" fill-opacity="1" /><path clip-path="url(#clip580)" d="M130.922 510.1 Q127.311 510.1 125.482 513.665 Q123.677 517.207 123.677 524.336 Q123.677 531.443 125.482 535.007 Q127.311 538.549 130.922 538.549 Q134.556 538.549 136.362 535.007 Q138.191 531.443 138.191 524.336 Q138.191 517.207 136.362 513.665 Q134.556 510.1 130.922 510.1 M130.922 506.396 Q136.732 506.396 139.788 511.003 Q142.867 515.586 142.867 524.336 Q142.867 533.063 139.788 537.669 Q136.732 542.253 130.922 542.253 Q125.112 542.253 122.033 537.669 Q118.978 533.063 118.978 524.336 Q118.978 515.586 122.033 511.003 Q125.112 506.396 130.922 506.396 Z" fill="#000000" fill-rule="nonzero" fill-opacity="1" /><path clip-path="url(#clip580)" d="M94.7882 86.3168 L111.108 86.3168 L111.108 90.252 L89.1632 90.252 L89.1632 86.3168 Q91.8252 83.5622 96.4085 78.9326 Q101.015 74.2798 102.196 72.9372 Q104.441 70.4141 105.321 68.678 Q106.223 66.9188 106.223 65.229 Q106.223 62.4743 104.279 60.7382 Q102.358 59.0021 99.2558 59.0021 Q97.0567 59.0021 94.603 59.766 Q92.1725 60.5299 89.3947 62.0808 L89.3947 57.3586 Q92.2188 56.2244 94.6724 55.6457 Q97.1261 55.067 99.1632 55.067 Q104.534 55.067 107.728 57.7521 Q110.922 60.4373 110.922 64.928 Q110.922 67.0576 110.112 68.9789 Q109.325 70.8771 107.219 73.4697 Q106.64 74.1409 103.538 77.3585 Q100.436 80.5529 94.7882 86.3168 Z" fill="#000000" fill-rule="nonzero" fill-opacity="1" /><path clip-path="url(#clip580)" d="M130.922 58.7707 Q127.311 58.7707 125.482 62.3355 Q123.677 65.8771 123.677 73.0067 Q123.677 80.1131 125.482 83.6779 Q127.311 87.2196 130.922 87.2196 Q134.556 87.2196 136.362 83.6779 Q138.191 80.1131 138.191 73.0067 Q138.191 65.8771 136.362 62.3355 Q134.556 58.7707 130.922 58.7707 M130.922 55.067 Q136.732 55.067 139.788 59.6734 Q142.867 64.2567 142.867 73.0067 Q142.867 81.7335 139.788 86.34 Q136.732 90.9233 130.922 90.9233 Q125.112 90.9233 122.033 86.34 Q118.978 81.7335 118.978 73.0067 Q118.978 64.2567 122.033 59.6734 Q125.112 55.067 130.922 55.067 Z" fill="#000000" fill-rule="nonzero" fill-opacity="1" /><polyline clip-path="url(#clip582)" style="stroke:#009af9; stroke-linecap:round; stroke-linejoin:round; stroke-width:4; stroke-opacity:1; fill:none" points="240.392,909.339 247.251,933.855 254.11,958.072 260.969,982.26 267.828,1005.84 274.687,1028.4 281.546,1050.09 288.405,1071.07 295.264,1091.74 302.123,1112.08 308.982,1131.56 315.841,1150.03 322.7,1168.16 329.559,1185.99 336.418,1203.26 343.277,1219.9 350.136,1235.7 356.995,1250.72 363.854,1265.13 370.713,1279.01 377.572,1292.39 384.431,1305.12 391.29,1317.2 398.149,1328.81 405.008,1339.95 411.867,1350.56 418.726,1360.63 425.585,1370.09 432.444,1378.98 439.303,1387.3 446.162,1395.05 453.021,1402.23 459.88,1408.87 466.739,1414.94 473.598,1420.48 480.457,1425.47 487.316,1429.91 494.175,1433.78 501.034,1437.08 507.893,1439.82 514.752,1442 521.611,1443.69 528.47,1444.83 535.328,1445.49 542.188,1445.72 549.046,1445.52 555.905,1444.9 562.764,1443.85 569.623,1442.39 576.482,1440.57 583.341,1438.41 590.2,1436.01 597.059,1433.48 603.918,1430.75 610.777,1427.63 617.636,1424.04 624.495,1419.89 631.354,1415.18 638.213,1409.98 645.072,1404.34 651.931,1398.26 658.79,1391.82 665.649,1385.02 672.508,1377.87 679.367,1370.45 686.226,1362.72 693.085,1354.69 699.944,1346.35 706.803,1337.69 713.662,1328.8 720.521,1319.73 727.38,1310.51 734.239,1301.19 741.098,1291.68 747.957,1282.05 754.816,1272.38 761.675,1262.74 768.534,1253.1 775.393,1243.38 782.252,1233.64 789.111,1223.9 795.97,1214.17 802.829,1204.51 809.688,1194.88 816.547,1185.35 823.406,1175.9 830.265,1166.46 837.124,1157.04 843.983,1147.66 850.842,1138.34 857.701,1129.13 864.56,1119.96 871.419,1110.86 878.278,1101.92 885.137,1093.21 891.996,1084.71 898.855,1076.36 905.714,1068.06 912.573,1059.83 919.432,1051.72 926.291,1043.74 933.15,1035.87 940.009,1028.19 946.868,1020.62 953.727,1013.16 960.586,1005.83 967.445,998.563 974.304,991.375 981.163,984.307 988.022,977.315 994.881,970.343 1001.74,963.48 1008.6,956.747 1015.46,950.126 1022.32,943.658 1029.18,937.259 1036.04,930.85 1042.89,924.53 1049.75,918.335 1056.61,912.196 1063.47,906.113 1070.33,900.045 1077.19,893.969 1084.05,887.877 1090.91,881.817 1097.77,875.816 1104.62,869.77 1111.48,863.673 1118.34,857.597 1125.2,851.562 1132.06,845.57 1138.92,839.675 1145.78,833.831 1152.64,827.983 1159.5,822.154 1166.36,816.311 1173.21,810.445 1180.07,804.66 1186.93,798.92 1193.79,793.131 1200.65,787.384 1207.51,781.745 1214.37,776.203 1221.23,770.758 1228.09,765.437 1234.95,760.214 1241.8,755.001 1248.66,749.865 1255.52,744.83 1262.38,739.788 1269.24,734.768 1276.1,729.803 1282.96,724.948 1289.82,720.234 1296.68,715.622 1303.54,711.148 1310.39,706.828 1317.25,702.672 1324.11,698.676 1330.97,694.738 1337.83,690.926 1344.69,687.375 1351.55,684.117 1358.41,681.073 1365.27,678.205 1372.13,675.569 1378.98,673.128 1385.84,670.828 1392.7,668.649 1399.56,666.635 1406.42,664.822 1413.28,663.264 1420.14,661.981 1427,660.903 1433.86,660.027 1440.72,659.409 1447.57,659.034 1454.43,658.896 1461.29,659.025 1468.15,659.432 1475.01,660.077 1481.87,660.923 1488.73,661.938 1495.59,663.163 1502.45,664.628 1509.31,666.327 1516.16,668.215 1523.02,670.265 1529.88,672.563 1536.74,675.053 1543.6,677.667 1550.46,680.488 1557.32,683.535 1564.18,686.762 1571.04,690.141 1577.9,693.714 1584.75,697.506 1591.61,701.472 1598.47,705.549 1605.33,709.7 1612.19,713.858 1619.05,718.093 1625.91,722.478 1632.77,726.971 1639.63,731.567 1646.49,736.254 1653.34,741.005 1660.2,745.832 1667.06,750.759 1673.92,755.796 1680.78,760.942 1687.64,766.171 1694.5,771.437 1701.36,776.698 1708.22,782.043 1715.08,787.516 1721.93,793.014 1728.79,798.453 1735.65,803.869 1742.51,809.287 1749.37,814.725 1756.23,820.176 1763.09,825.588 1769.95,830.998 1776.81,836.413 1783.67,841.778 1790.52,847.102 1797.38,852.373 1804.24,857.566 1811.1,862.726 1817.96,867.848 1824.82,872.93 1831.68,877.93 1838.54,882.859 1845.4,887.797 1852.26,892.687 1859.11,897.48 1865.97,902.173 1872.83,906.802 1879.69,911.36 1886.55,915.889 1893.41,920.375 1900.27,924.737 1907.13,928.944 1913.99,933.037 1920.85,937.023 1927.7,940.809 1934.56,944.354 1941.42,947.768 1948.28,951.071 1955.14,954.253 1962,957.357 1968.86,960.369 1975.72,963.265 1982.58,966.078 1989.44,968.819 1996.29,971.469 2003.15,974.039 2010.01,976.518 2016.87,978.931 2023.73,981.283 2030.59,983.551 2037.45,985.709 2044.31,987.746 2051.17,989.705 2058.02,991.573 2064.88,993.333 2071.74,995.001 2078.6,996.602 2085.46,998.151 2092.32,999.665 2099.18,1001.15 2106.04,1002.6 2112.9,1003.99 2119.76,1005.29 2126.61,1006.52 2133.47,1007.66 2140.33,1008.76 2147.19,1009.73 2154.05,1010.53 2160.91,1011.3 2167.77,1012.02 2174.63,1012.64 2181.49,1013.23 2188.35,1013.91 2195.2,1014.72 2202.06,1015.56 2208.92,1016.49 2215.78,1017.33 2222.64,1018.22 2229.5,1019.45 2236.36,1020.54 2243.22,1021.24 2250.08,1022 2256.94,1022.89 2263.79,1023.15 2270.65,1023.16 2277.51,1022.92 2284.37,1022.56 2291.23,1021.72 "/>
<polyline clip-path="url(#clip582)" style="stroke:#e26f46; stroke-linecap:round; stroke-linejoin:round; stroke-width:4; stroke-opacity:1; fill:none" points="240.392,87.9763 247.251,109.471 254.11,130.925 260.969,152.942 267.828,175.535 274.687,198.632 281.546,221.783 288.405,245.498 295.264,269.573 302.123,293.387 308.982,317.116 315.841,340.905 322.7,364.499 329.559,387.57 336.418,410.093 343.277,432.369 350.136,454.397 356.995,475.926 363.854,496.922 370.713,517.519 377.572,537.759 384.431,557.398 391.29,576.378 398.149,594.824 405.008,612.734 411.867,630.036 418.726,646.81 425.585,663.122 432.444,678.975 439.303,694.403 446.162,709.439 453.021,724.125 459.88,738.496 466.739,752.589 473.598,766.436 480.457,780.057 487.316,793.464 494.175,806.673 501.034,819.715 507.893,832.577 514.752,845.282 521.611,857.878 528.47,870.375 535.328,882.795 542.188,895.12 549.046,907.34 555.905,919.511 562.764,931.663 569.623,943.748 576.482,955.752 583.341,967.708 590.2,979.599 597.059,991.459 603.918,1003.31 610.777,1015.02 617.636,1026.56 624.495,1037.93 631.354,1049.1 638.213,1060.06 645.072,1070.87 651.931,1081.57 658.79,1092.07 665.649,1102.3 672.508,1112.3 679.367,1122.07 686.226,1131.65 693.085,1141.04 699.944,1150.25 706.803,1159.27 713.662,1168.15 720.521,1176.85 727.38,1185.35 734.239,1193.68 741.098,1201.86 747.957,1209.87 754.816,1217.75 761.675,1225.54 768.534,1233.16 775.393,1240.61 782.252,1247.94 789.111,1255.09 795.97,1262.13 802.829,1269.08 809.688,1275.92 816.547,1282.53 823.406,1288.92 830.265,1295.13 837.124,1301.13 843.983,1306.96 850.842,1312.57 857.701,1317.92 864.56,1323.05 871.419,1327.95 878.278,1332.61 885.137,1337.03 891.996,1341.23 898.855,1345.18 905.714,1348.83 912.573,1352.19 919.432,1355.27 926.291,1358.12 933.15,1360.72 940.009,1363.02 946.868,1365.01 953.727,1366.61 960.586,1367.81 967.445,1368.59 974.304,1368.96 981.163,1368.92 988.022,1368.48 994.881,1367.65 1001.74,1366.43 1008.6,1364.84 1015.46,1362.95 1022.32,1360.66 1029.18,1358.04 1036.04,1355.16 1042.89,1352.01 1049.75,1348.48 1056.61,1344.53 1063.47,1340.22 1070.33,1335.66 1077.19,1330.83 1084.05,1325.76 1090.91,1320.49 1097.77,1315.03 1104.62,1309.37 1111.48,1303.5 1118.34,1297.53 1125.2,1291.46 1132.06,1285.21 1138.92,1278.76 1145.78,1272.15 1152.64,1265.34 1159.5,1258.3 1166.36,1251.12 1173.21,1243.83 1180.07,1236.45 1186.93,1228.98 1193.79,1221.45 1200.65,1213.85 1207.51,1206.2 1214.37,1198.5 1221.23,1190.78 1228.09,1183.13 1234.95,1175.53 1241.8,1167.91 1248.66,1160.28 1255.52,1152.64 1262.38,1145.05 1269.24,1137.57 1276.1,1130.17 1282.96,1122.81 1289.82,1115.6 1296.68,1108.54 1303.54,1101.58 1310.39,1094.69 1317.25,1087.88 1324.11,1081.16 1330.97,1074.54 1337.83,1068.05 1344.69,1061.65 1351.55,1055.35 1358.41,1049.22 1365.27,1043.22 1372.13,1037.31 1378.98,1031.49 1385.84,1025.84 1392.7,1020.35 1399.56,1015.06 1406.42,1009.92 1413.28,1004.87 1420.14,999.857 1427,994.88 1433.86,990.02 1440.72,985.269 1447.57,980.646 1454.43,976.072 1461.29,971.513 1468.15,967.059 1475.01,962.746 1481.87,958.496 1488.73,954.276 1495.59,950.083 1502.45,945.937 1509.31,941.901 1516.16,937.927 1523.02,933.934 1529.88,929.995 1536.74,926.191 1543.6,922.483 1550.46,918.768 1557.32,915.01 1564.18,911.153 1571.04,907.176 1577.9,903.158 1584.75,899.168 1591.61,895.245 1598.47,891.356 1605.33,887.442 1612.19,883.486 1619.05,879.504 1625.91,875.577 1632.77,871.716 1639.63,867.84 1646.49,863.896 1653.34,859.912 1660.2,855.861 1667.06,851.744 1673.92,847.619 1680.78,843.511 1687.64,839.433 1694.5,835.32 1701.36,831.155 1708.22,827.031 1715.08,822.922 1721.93,818.833 1728.79,814.74 1735.65,810.61 1742.51,806.511 1749.37,802.398 1756.23,798.239 1763.09,794.06 1769.95,789.903 1776.81,785.776 1783.67,781.668 1790.52,777.598 1797.38,773.551 1804.24,769.543 1811.1,765.597 1817.96,761.775 1824.82,758.119 1831.68,754.536 1838.54,750.943 1845.4,747.415 1852.26,744.006 1859.11,740.69 1865.97,737.49 1872.83,734.494 1879.69,731.773 1886.55,729.298 1893.41,727 1900.27,724.863 1907.13,722.843 1913.99,720.9 1920.85,719.085 1927.7,717.499 1934.56,716.173 1941.42,714.967 1948.28,713.801 1955.14,712.728 1962,711.781 1968.86,710.961 1975.72,710.298 1982.58,709.763 1989.44,709.329 1996.29,709.002 2003.15,708.771 2010.01,708.615 2016.87,708.547 2023.73,708.606 2030.59,708.829 2037.45,709.216 2044.31,709.731 2051.17,710.355 2058.02,711.1 2064.88,711.973 2071.74,712.972 2078.6,714.095 2085.46,715.342 2092.32,716.708 2099.18,718.194 2106.04,719.787 2112.9,721.519 2119.76,723.412 2126.61,725.434 2133.47,727.561 2140.33,729.779 2147.19,732.018 2154.05,734.426 2160.91,737.017 2167.77,739.788 2174.63,742.71 2181.49,745.605 2188.35,748.683 2195.2,752.179 2202.06,756.038 2208.92,759.951 2215.78,763.798 2222.64,767.665 2229.5,771.851 2236.36,776.355 2243.22,780.642 2250.08,785.059 2256.94,790.352 2263.79,796.73 2270.65,804.135 2277.51,812.27 2284.37,820.739 2291.23,827.776 "/>
<path clip-path="url(#clip580)" d="M2010.47 250.738 L2280.29 250.738 L2280.29 95.2176 L2010.47 95.2176  Z" fill="#ffffff" fill-rule="evenodd" fill-opacity="1"/>
<polyline clip-path="url(#clip580)" style="stroke:#000000; stroke-linecap:round; stroke-linejoin:round; stroke-width:4; stroke-opacity:1; fill:none" points="2010.47,250.738 2280.29,250.738 2280.29,95.2176 2010.47,95.2176 2010.47,250.738 "/>
<polyline clip-path="url(#clip580)" style="stroke:#009af9; stroke-linecap:round; stroke-linejoin:round; stroke-width:4; stroke-opacity:1; fill:none" points="2034.63,147.058 2179.55,147.058 "/>
<path clip-path="url(#clip580)" d="M2217.55 166.745 Q2215.75 171.375 2214.03 172.787 Q2212.32 174.199 2209.45 174.199 L2206.05 174.199 L2206.05 170.634 L2208.55 170.634 Q2210.31 170.634 2211.28 169.8 Q2212.25 168.967 2213.43 165.865 L2214.19 163.921 L2203.71 138.412 L2208.22 138.412 L2216.32 158.689 L2224.43 138.412 L2228.94 138.412 L2217.55 166.745 Z" fill="#000000" fill-rule="nonzero" fill-opacity="1" /><path clip-path="url(#clip580)" d="M2236.23 160.402 L2243.87 160.402 L2243.87 134.037 L2235.56 135.703 L2235.56 131.444 L2243.82 129.778 L2248.5 129.778 L2248.5 160.402 L2256.14 160.402 L2256.14 164.338 L2236.23 164.338 L2236.23 160.402 Z" fill="#000000" fill-rule="nonzero" fill-opacity="1" /><polyline clip-path="url(#clip580)" style="stroke:#e26f46; stroke-linecap:round; stroke-linejoin:round; stroke-width:4; stroke-opacity:1; fill:none" points="2034.63,198.898 2179.55,198.898 "/>
<path clip-path="url(#clip580)" d="M2217.55 218.585 Q2215.75 223.215 2214.03 224.627 Q2212.32 226.039 2209.45 226.039 L2206.05 226.039 L2206.05 222.474 L2208.55 222.474 Q2210.31 222.474 2211.28 221.64 Q2212.25 220.807 2213.43 217.705 L2214.19 215.761 L2203.71 190.252 L2208.22 190.252 L2216.32 210.529 L2224.43 190.252 L2228.94 190.252 L2217.55 218.585 Z" fill="#000000" fill-rule="nonzero" fill-opacity="1" /><path clip-path="url(#clip580)" d="M2239.45 212.242 L2255.77 212.242 L2255.77 216.178 L2233.82 216.178 L2233.82 212.242 Q2236.49 209.488 2241.07 204.858 Q2245.68 200.205 2246.86 198.863 Q2249.1 196.34 2249.98 194.604 Q2250.88 192.844 2250.88 191.155 Q2250.88 188.4 2248.94 186.664 Q2247.02 184.928 2243.92 184.928 Q2241.72 184.928 2239.26 185.692 Q2236.83 186.455 2234.06 188.006 L2234.06 183.284 Q2236.88 182.15 2239.33 181.571 Q2241.79 180.993 2243.82 180.993 Q2249.19 180.993 2252.39 183.678 Q2255.58 186.363 2255.58 190.854 Q2255.58 192.983 2254.77 194.905 Q2253.99 196.803 2251.88 199.395 Q2251.3 200.067 2248.2 203.284 Q2245.1 206.479 2239.45 212.242 Z" fill="#000000" fill-rule="nonzero" fill-opacity="1" /></svg>
