<?xml version="1.0" encoding="utf-8"?>
<svg xmlns="http://www.w3.org/2000/svg" xmlns:xlink="http://www.w3.org/1999/xlink" width="600" height="400" viewBox="0 0 2400 1600">
<defs>
  <clipPath id="clip590">
    <rect x="0" y="0" width="2400" height="1600"/>
  </clipPath>
</defs>
<path clip-path="url(#clip590)" d="M0 1600 L2400 1600 L2400 0 L0 0  Z" fill="#ffffff" fill-rule="evenodd" fill-opacity="1"/>
<defs>
  <clipPath id="clip591">
    <rect x="178" y="47" width="2175" height="1440"/>
  </clipPath>
</defs>
<path clip-path="url(#clip590)" d="M178.867 1486.45 L2352.76 1486.45 L2352.76 47.2441 L178.867 47.2441  Z" fill="#ffffff" fill-rule="evenodd" fill-opacity="1"/>
<polyline clip-path="url(#clip591)" style="stroke:#000000; stroke-linecap:round; stroke-linejoin:round; stroke-width:2; stroke-opacity:0.1; fill:none" points="240.392,1486.45 240.392,47.2441 "/>
<polyline clip-path="url(#clip591)" style="stroke:#000000; stroke-linecap:round; stroke-linejoin:round; stroke-width:2; stroke-opacity:0.1; fill:none" points="924.005,1486.45 924.005,47.2441 "/>
<polyline clip-path="url(#clip591)" style="stroke:#000000; stroke-linecap:round; stroke-linejoin:round; stroke-width:2; stroke-opacity:0.1; fill:none" points="1607.62,1486.45 1607.62,47.2441 "/>
<polyline clip-path="url(#clip591)" style="stroke:#000000; stroke-linecap:round; stroke-linejoin:round; stroke-width:2; stroke-opacity:0.1; fill:none" points="2291.23,1486.45 2291.23,47.2441 "/>
<polyline clip-path="url(#clip591)" style="stroke:#000000; stroke-linecap:round; stroke-linejoin:round; stroke-width:2; stroke-opacity:0.1; fill:none" points="178.867,1429.3 2352.76,1429.3 "/>
<polyline clip-path="url(#clip591)" style="stroke:#000000; stroke-linecap:round; stroke-linejoin:round; stroke-width:2; stroke-opacity:0.1; fill:none" points="178.867,969.449 2352.76,969.449 "/>
<polyline clip-path="url(#clip591)" style="stroke:#000000; stroke-linecap:round; stroke-linejoin:round; stroke-width:2; stroke-opacity:0.1; fill:none" points="178.867,509.602 2352.76,509.602 "/>
<polyline clip-path="url(#clip591)" style="stroke:#000000; stroke-linecap:round; stroke-linejoin:round; stroke-width:2; stroke-opacity:0.1; fill:none" points="178.867,49.7553 2352.76,49.7553 "/>
<polyline clip-path="url(#clip590)" style="stroke:#000000; stroke-linecap:round; stroke-linejoin:round; stroke-width:4; stroke-opacity:1; fill:none" points="178.867,1486.45 2352.76,1486.45 "/>
<polyline clip-path="url(#clip590)" style="stroke:#000000; stroke-linecap:round; stroke-linejoin:round; stroke-width:4; stroke-opacity:1; fill:none" points="240.392,1486.45 240.392,1467.55 "/>
<polyline clip-path="url(#clip590)" style="stroke:#000000; stroke-linecap:round; stroke-linejoin:round; stroke-width:4; stroke-opacity:1; fill:none" points="924.005,1486.45 924.005,1467.55 "/>
<polyline clip-path="url(#clip590)" style="stroke:#000000; stroke-linecap:round; stroke-linejoin:round; stroke-width:4; stroke-opacity:1; fill:none" points="1607.62,1486.45 1607.62,1467.55 "/>
<polyline clip-path="url(#clip590)" style="stroke:#000000; stroke-linecap:round; stroke-linejoin:round; stroke-width:4; stroke-opacity:1; fill:none" points="2291.23,1486.45 2291.23,1467.55 "/>
<path clip-path="url(#clip590)" d="M217.776 1517.37 Q214.165 1517.37 212.336 1520.93 Q210.531 1524.47 210.531 1531.6 Q210.531 1538.71 212.336 1542.27 Q214.165 1545.82 217.776 1545.82 Q221.41 1545.82 223.216 1542.27 Q225.045 1538.71 225.045 1531.6 Q225.045 1524.47 223.216 1520.93 Q221.41 1517.37 217.776 1517.37 M217.776 1513.66 Q223.586 1513.66 226.642 1518.27 Q229.721 1522.85 229.721 1531.6 Q229.721 1540.33 226.642 1544.94 Q223.586 1549.52 217.776 1549.52 Q211.966 1549.52 208.887 1544.94 Q205.832 1540.33 205.832 1531.6 Q205.832 1522.85 208.887 1518.27 Q211.966 1513.66 217.776 1513.66 Z" fill="#000000" fill-rule="nonzero" fill-opacity="1" /><path clip-path="url(#clip590)" d="M237.938 1542.97 L242.822 1542.97 L242.822 1548.85 L237.938 1548.85 L237.938 1542.97 Z" fill="#000000" fill-rule="nonzero" fill-opacity="1" /><path clip-path="url(#clip590)" d="M263.007 1517.37 Q259.396 1517.37 257.568 1520.93 Q255.762 1524.47 255.762 1531.6 Q255.762 1538.71 257.568 1542.27 Q259.396 1545.82 263.007 1545.82 Q266.642 1545.82 268.447 1542.27 Q270.276 1538.71 270.276 1531.6 Q270.276 1524.47 268.447 1520.93 Q266.642 1517.37 263.007 1517.37 M263.007 1513.66 Q268.818 1513.66 271.873 1518.27 Q274.952 1522.85 274.952 1531.6 Q274.952 1540.33 271.873 1544.94 Q268.818 1549.52 263.007 1549.52 Q257.197 1549.52 254.119 1544.94 Q251.063 1540.33 251.063 1531.6 Q251.063 1522.85 254.119 1518.27 Q257.197 1513.66 263.007 1513.66 Z" fill="#000000" fill-rule="nonzero" fill-opacity="1" /><path clip-path="url(#clip590)" d="M901.887 1517.37 Q898.276 1517.37 896.447 1520.93 Q894.642 1524.47 894.642 1531.6 Q894.642 1538.71 896.447 1542.27 Q898.276 1545.82 901.887 1545.82 Q905.521 1545.82 907.327 1542.27 Q909.155 1538.71 909.155 1531.6 Q909.155 1524.47 907.327 1520.93 Q905.521 1517.37 901.887 1517.37 M901.887 1513.66 Q907.697 1513.66 910.753 1518.27 Q913.831 1522.85 913.831 1531.6 Q913.831 1540.33 910.753 1544.94 Q907.697 1549.52 901.887 1549.52 Q896.077 1549.52 892.998 1544.94 Q889.942 1540.33 889.942 1531.6 Q889.942 1522.85 892.998 1518.27 Q896.077 1513.66 901.887 1513.66 Z" fill="#000000" fill-rule="nonzero" fill-opacity="1" /><path clip-path="url(#clip590)" d="M922.049 1542.97 L926.933 1542.97 L926.933 1548.85 L922.049 1548.85 L922.049 1542.97 Z" fill="#000000" fill-rule="nonzero" fill-opacity="1" /><path clip-path="url(#clip590)" d="M937.164 1514.29 L955.521 1514.29 L955.521 1518.22 L941.447 1518.22 L941.447 1526.7 Q942.465 1526.35 943.484 1526.19 Q944.502 1526 945.521 1526 Q951.308 1526 954.687 1529.17 Q958.067 1532.34 958.067 1537.76 Q958.067 1543.34 954.595 1546.44 Q951.123 1549.52 944.803 1549.52 Q942.627 1549.52 940.359 1549.15 Q938.114 1548.78 935.706 1548.04 L935.706 1543.34 Q937.789 1544.47 940.012 1545.03 Q942.234 1545.58 944.711 1545.58 Q948.715 1545.58 951.053 1543.48 Q953.391 1541.37 953.391 1537.76 Q953.391 1534.15 951.053 1532.04 Q948.715 1529.94 944.711 1529.94 Q942.836 1529.94 940.961 1530.35 Q939.109 1530.77 937.164 1531.65 L937.164 1514.29 Z" fill="#000000" fill-rule="nonzero" fill-opacity="1" /><path clip-path="url(#clip590)" d="M1574.77 1544.91 L1582.41 1544.91 L1582.41 1518.55 L1574.1 1520.21 L1574.1 1515.95 L1582.36 1514.29 L1587.04 1514.29 L1587.04 1544.91 L1594.68 1544.91 L1594.68 1548.85 L1574.77 1548.85 L1574.77 1544.91 Z" fill="#000000" fill-rule="nonzero" fill-opacity="1" /><path clip-path="url(#clip590)" d="M1604.12 1542.97 L1609.01 1542.97 L1609.01 1548.85 L1604.12 1548.85 L1604.12 1542.97 Z" fill="#000000" fill-rule="nonzero" fill-opacity="1" /><path clip-path="url(#clip590)" d="M1629.19 1517.37 Q1625.58 1517.37 1623.75 1520.93 Q1621.95 1524.47 1621.95 1531.6 Q1621.95 1538.71 1623.75 1542.27 Q1625.58 1545.82 1629.19 1545.82 Q1632.83 1545.82 1634.63 1542.27 Q1636.46 1538.71 1636.46 1531.6 Q1636.46 1524.47 1634.63 1520.93 Q1632.83 1517.37 1629.19 1517.37 M1629.19 1513.66 Q1635 1513.66 1638.06 1518.27 Q1641.14 1522.85 1641.14 1531.6 Q1641.14 1540.33 1638.06 1544.94 Q1635 1549.52 1629.19 1549.52 Q1623.38 1549.52 1620.3 1544.94 Q1617.25 1540.33 1617.25 1531.6 Q1617.25 1522.85 1620.3 1518.27 Q1623.38 1513.66 1629.19 1513.66 Z" fill="#000000" fill-rule="nonzero" fill-opacity="1" /><path clip-path="url(#clip590)" d="M2258.88 1544.91 L2266.52 1544.91 L2266.52 1518.55 L2258.21 1520.21 L2258.21 1515.95 L2266.47 1514.29 L2271.15 1514.29 L2271.15 1544.91 L2278.79 1544.91 L2278.79 1548.85 L2258.88 1548.85 L2258.88 1544.91 Z" fill="#000000" fill-rule="nonzero" fill-opacity="1" /><path clip-path="url(#clip590)" d="M2288.23 1542.97 L2293.12 1542.97 L2293.12 1548.85 L2288.23 1548.85 L2288.23 1542.97 Z" fill="#000000" fill-rule="nonzero" fill-opacity="1" /><path clip-path="url(#clip590)" d="M2303.35 1514.29 L2321.71 1514.29 L2321.71 1518.22 L2307.63 1518.22 L2307.63 1526.7 Q2308.65 1526.35 2309.67 1526.19 Q2310.69 1526 2311.71 1526 Q2317.49 1526 2320.87 1529.17 Q2324.25 1532.34 2324.25 1537.76 Q2324.25 1543.34 2320.78 1546.44 Q2317.31 1549.52 2310.99 1549.52 Q2308.81 1549.52 2306.54 1549.15 Q2304.3 1548.78 2301.89 1548.04 L2301.89 1543.34 Q2303.97 1544.47 2306.2 1545.03 Q2308.42 1545.58 2310.89 1545.58 Q2314.9 1545.58 2317.24 1543.48 Q2319.58 1541.37 2319.58 1537.76 Q2319.58 1534.15 2317.24 1532.04 Q2314.9 1529.94 2310.89 1529.94 Q2309.02 1529.94 2307.15 1530.35 Q2305.29 1530.77 2303.35 1531.65 L2303.35 1514.29 Z" fill="#000000" fill-rule="nonzero" fill-opacity="1" /><polyline clip-path="url(#clip590)" style="stroke:#000000; stroke-linecap:round; stroke-linejoin:round; stroke-width:4; stroke-opacity:1; fill:none" points="178.867,1486.45 178.867,47.2441 "/>
<polyline clip-path="url(#clip590)" style="stroke:#000000; stroke-linecap:round; stroke-linejoin:round; stroke-width:4; stroke-opacity:1; fill:none" points="178.867,1429.3 197.764,1429.3 "/>
<polyline clip-path="url(#clip590)" style="stroke:#000000; stroke-linecap:round; stroke-linejoin:round; stroke-width:4; stroke-opacity:1; fill:none" points="178.867,969.449 197.764,969.449 "/>
<polyline clip-path="url(#clip590)" style="stroke:#000000; stroke-linecap:round; stroke-linejoin:round; stroke-width:4; stroke-opacity:1; fill:none" points="178.867,509.602 197.764,509.602 "/>
<polyline clip-path="url(#clip590)" style="stroke:#000000; stroke-linecap:round; stroke-linejoin:round; stroke-width:4; stroke-opacity:1; fill:none" points="178.867,49.7553 197.764,49.7553 "/>
<path clip-path="url(#clip590)" d="M50.9921 1429.75 L80.6679 1429.75 L80.6679 1433.68 L50.9921 1433.68 L50.9921 1429.75 Z" fill="#000000" fill-rule="nonzero" fill-opacity="1" /><path clip-path="url(#clip590)" d="M91.5706 1442.64 L99.2095 1442.64 L99.2095 1416.28 L90.8993 1417.94 L90.8993 1413.68 L99.1632 1412.02 L103.839 1412.02 L103.839 1442.64 L111.478 1442.64 L111.478 1446.58 L91.5706 1446.58 L91.5706 1442.64 Z" fill="#000000" fill-rule="nonzero" fill-opacity="1" /><path clip-path="url(#clip590)" d="M130.922 1415.1 Q127.311 1415.1 125.482 1418.66 Q123.677 1422.2 123.677 1429.33 Q123.677 1436.44 125.482 1440 Q127.311 1443.54 130.922 1443.54 Q134.556 1443.54 136.362 1440 Q138.191 1436.44 138.191 1429.33 Q138.191 1422.2 136.362 1418.66 Q134.556 1415.1 130.922 1415.1 M130.922 1411.39 Q136.732 1411.39 139.788 1416 Q142.867 1420.58 142.867 1429.33 Q142.867 1438.06 139.788 1442.66 Q136.732 1447.25 130.922 1447.25 Q125.112 1447.25 122.033 1442.66 Q118.978 1438.06 118.978 1429.33 Q118.978 1420.58 122.033 1416 Q125.112 1411.39 130.922 1411.39 Z" fill="#000000" fill-rule="nonzero" fill-opacity="1" /><path clip-path="url(#clip590)" d="M130.922 955.248 Q127.311 955.248 125.482 958.813 Q123.677 962.354 123.677 969.484 Q123.677 976.591 125.482 980.155 Q127.311 983.697 130.922 983.697 Q134.556 983.697 136.362 980.155 Q138.191 976.591 138.191 969.484 Q138.191 962.354 136.362 958.813 Q134.556 955.248 130.922 955.248 M130.922 951.544 Q136.732 951.544 139.788 956.151 Q142.867 960.734 142.867 969.484 Q142.867 978.211 139.788 982.817 Q136.732 987.401 130.922 987.401 Q125.112 987.401 122.033 982.817 Q118.978 978.211 118.978 969.484 Q118.978 960.734 122.033 956.151 Q125.112 951.544 130.922 951.544 Z" fill="#000000" fill-rule="nonzero" fill-opacity="1" /><path clip-path="url(#clip590)" d="M91.5706 522.947 L99.2095 522.947 L99.2095 496.582 L90.8993 498.248 L90.8993 493.989 L99.1632 492.322 L103.839 492.322 L103.839 522.947 L111.478 522.947 L111.478 526.882 L91.5706 526.882 L91.5706 522.947 Z" fill="#000000" fill-rule="nonzero" fill-opacity="1" /><path clip-path="url(#clip590)" d="M130.922 495.401 Q127.311 495.401 125.482 498.966 Q123.677 502.507 123.677 509.637 Q123.677 516.744 125.482 520.308 Q127.311 523.85 130.922 523.85 Q134.556 523.85 136.362 520.308 Q138.191 516.744 138.191 509.637 Q138.191 502.507 136.362 498.966 Q134.556 495.401 130.922 495.401 M130.922 491.697 Q136.732 491.697 139.788 496.304 Q142.867 500.887 142.867 509.637 Q142.867 518.364 139.788 522.97 Q136.732 527.554 130.922 527.554 Q125.112 527.554 122.033 522.97 Q118.978 518.364 118.978 509.637 Q118.978 500.887 122.033 496.304 Q125.112 491.697 130.922 491.697 Z" fill="#000000" fill-rule="nonzero" fill-opacity="1" /><path clip-path="url(#clip590)" d="M94.7882 63.1002 L111.108 63.1002 L111.108 67.0353 L89.1632 67.0353 L89.1632 63.1002 Q91.8252 60.3455 96.4085 55.7159 Q101.015 51.0632 102.196 49.7206 Q104.441 47.1975 105.321 45.4614 Q106.223 43.7021 106.223 42.0123 Q106.223 39.2577 104.279 37.5216 Q102.358 35.7855 99.2558 35.7855 Q97.0567 35.7855 94.603 36.5494 Q92.1725 37.3133 89.3947 38.8642 L89.3947 34.142 Q92.2188 33.0077 94.6724 32.429 Q97.1261 31.8503 99.1632 31.8503 Q104.534 31.8503 107.728 34.5355 Q110.922 37.2207 110.922 41.7114 Q110.922 43.841 110.112 45.7623 Q109.325 47.6604 107.219 50.253 Q106.64 50.9243 103.538 54.1419 Q100.436 57.3363 94.7882 63.1002 Z" fill="#000000" fill-rule="nonzero" fill-opacity="1" /><path clip-path="url(#clip590)" d="M130.922 35.554 Q127.311 35.554 125.482 39.1188 Q123.677 42.6605 123.677 49.7901 Q123.677 56.8965 125.482 60.4613 Q127.311 64.0029 130.922 64.0029 Q134.556 64.0029 136.362 60.4613 Q138.191 56.8965 138.191 49.7901 Q138.191 42.6605 136.362 39.1188 Q134.556 35.554 130.922 35.554 M130.922 31.8503 Q136.732 31.8503 139.788 36.4568 Q142.867 41.0401 142.867 49.7901 Q142.867 58.5169 139.788 63.1233 Q136.732 67.7066 130.922 67.7066 Q125.112 67.7066 122.033 63.1233 Q118.978 58.5169 118.978 49.7901 Q118.978 41.0401 122.033 36.4568 Q125.112 31.8503 130.922 31.8503 Z" fill="#000000" fill-rule="nonzero" fill-opacity="1" /><polyline clip-path="url(#clip591)" style="stroke:#009af9; stroke-linecap:round; stroke-linejoin:round; stroke-width:4; stroke-opacity:1; fill:none" points="240.392,882.222 247.251,906.845 254.11,931.073 260.969,955.089 267.828,978.837 274.687,1001.86 281.546,1024.24 288.405,1046.08 295.264,1067.38 302.123,1088.24 308.982,1108.34 315.841,1127.91 322.7,1147.11 329.559,1165.67 336.418,1183.6 343.277,1200.73 350.136,1217.3 356.995,1233.28 363.854,1248.59 370.713,1263.3 377.572,1277.49 384.431,1291.11 391.29,1304.1 398.149,1316.45 405.008,1328.16 411.867,1339.23 418.726,1349.77 425.585,1359.75 432.444,1369.15 439.303,1377.97 446.162,1386.23 453.021,1393.92 459.88,1401.06 466.739,1407.65 473.598,1413.69 480.457,1419.18 487.316,1424.12 494.175,1428.55 501.034,1432.46 507.893,1435.85 514.752,1438.7 521.611,1441.03 528.47,1442.89 535.328,1444.3 542.188,1445.25 549.046,1445.72 555.905,1445.71 562.764,1445.26 569.623,1444.36 576.482,1443.08 583.341,1441.55 590.2,1439.8 597.059,1437.93 603.918,1435.85 610.777,1433.26 617.636,1430.11 624.495,1426.45 631.354,1422.36 638.213,1417.84 645.072,1412.83 651.931,1407.35 658.79,1401.48 665.649,1395.19 672.508,1388.41 679.367,1381.16 686.226,1373.55 693.085,1365.59 699.944,1357.32 706.803,1348.79 713.662,1340.03 720.521,1331.15 727.38,1322.04 734.239,1312.63 741.098,1302.94 747.957,1293.09 754.816,1283.13 761.675,1273.13 768.534,1263.03 775.393,1252.88 782.252,1242.74 789.111,1232.66 795.97,1222.59 802.829,1212.51 809.688,1202.45 816.547,1192.39 823.406,1182.47 830.265,1172.66 837.124,1162.93 843.983,1153.25 850.842,1143.62 857.701,1134.03 864.56,1124.48 871.419,1114.97 878.278,1105.52 885.137,1096.16 891.996,1086.87 898.855,1077.63 905.714,1068.45 912.573,1059.32 919.432,1050.26 926.291,1041.34 933.15,1032.56 940.009,1023.93 946.868,1015.45 953.727,1007.07 960.586,998.754 967.445,990.546 974.304,982.434 981.163,974.469 988.022,966.716 994.881,959.079 1001.74,951.584 1008.6,944.214 1015.46,936.95 1022.32,929.756 1029.18,922.638 1036.04,915.61 1042.89,908.704 1049.75,901.914 1056.61,895.23 1063.47,888.653 1070.33,882.176 1077.19,875.815 1084.05,869.501 1090.91,863.258 1097.77,857.131 1104.62,851.1 1111.48,845.093 1118.34,839.126 1125.2,833.207 1132.06,827.28 1138.92,821.417 1145.78,815.743 1152.64,810.155 1159.5,804.604 1166.36,799.12 1173.21,793.696 1180.07,788.335 1186.93,782.985 1193.79,777.658 1200.65,772.352 1207.51,767.075 1214.37,761.843 1221.23,756.641 1228.09,751.43 1234.95,746.247 1241.8,741.107 1248.66,735.98 1255.52,730.897 1262.38,725.912 1269.24,721.035 1276.1,716.239 1282.96,711.594 1289.82,707.165 1296.68,702.963 1303.54,698.86 1310.39,694.795 1317.25,690.842 1324.11,686.965 1330.97,683.199 1337.83,679.624 1344.69,676.248 1351.55,673.102 1358.41,670.168 1365.27,667.42 1372.13,664.839 1378.98,662.411 1385.84,660.158 1392.7,658.164 1399.56,656.445 1406.42,654.98 1413.28,653.718 1420.14,652.672 1427,651.776 1433.86,650.986 1440.72,650.314 1447.57,649.845 1454.43,649.631 1461.29,649.623 1468.15,649.849 1475.01,650.269 1481.87,650.88 1488.73,651.721 1495.59,652.793 1502.45,654.028 1509.31,655.427 1516.16,656.988 1523.02,658.781 1529.88,660.737 1536.74,662.805 1543.6,664.967 1550.46,667.211 1557.32,669.619 1564.18,672.245 1571.04,675.051 1577.9,678.019 1584.75,681.209 1591.61,684.646 1598.47,688.32 1605.33,692.117 1612.19,696.036 1619.05,700.108 1625.91,704.352 1632.77,708.771 1639.63,713.41 1646.49,718.242 1653.34,723.204 1660.2,728.27 1667.06,733.383 1673.92,738.562 1680.78,743.87 1687.64,749.316 1694.5,754.84 1701.36,760.414 1708.22,766 1715.08,771.653 1721.93,777.326 1728.79,782.985 1735.65,788.698 1742.51,794.507 1749.37,800.396 1756.23,806.225 1763.09,812.035 1769.95,817.824 1776.81,823.562 1783.67,829.219 1790.52,834.791 1797.38,840.29 1804.24,845.707 1811.1,851.04 1817.96,856.258 1824.82,861.344 1831.68,866.384 1838.54,871.358 1845.4,876.249 1852.26,881.089 1859.11,885.865 1865.97,890.511 1872.83,895.03 1879.69,899.437 1886.55,903.739 1893.41,907.945 1900.27,912.037 1907.13,916.027 1913.99,919.959 1920.85,923.829 1927.7,927.619 1934.56,931.318 1941.42,934.946 1948.28,938.541 1955.14,942.126 1962,945.666 1968.86,949.152 1975.72,952.539 1982.58,955.811 1989.44,958.977 1996.29,962.092 2003.15,965.118 2010.01,968.006 2016.87,970.761 2023.73,973.401 2030.59,975.979 2037.45,978.463 2044.31,980.832 2051.17,983.097 2058.02,985.245 2064.88,987.273 2071.74,989.189 2078.6,991.009 2085.46,992.752 2092.32,994.433 2099.18,996.06 2106.04,997.643 2112.9,999.202 2119.76,1000.78 2126.61,1002.42 2133.47,1004.15 2140.33,1006.02 2147.19,1008.08 2154.05,1010.22 2160.91,1012.49 2167.77,1014.96 2174.63,1017.71 2181.49,1020.6 2188.35,1023.65 2195.2,1027.04 2202.06,1030.61 2208.92,1034.56 2215.78,1039.07 2222.64,1043.96 2229.5,1049.31 2236.36,1055.43 2243.22,1062.71 2250.08,1071.2 2256.94,1079.89 2263.79,1088.67 2270.65,1097.84 2277.51,1107.34 2284.37,1117.62 2291.23,1128.31 "/>
<polyline clip-path="url(#clip591)" style="stroke:#e26f46; stroke-linecap:round; stroke-linejoin:round; stroke-width:4; stroke-opacity:1; fill:none" points="240.392,87.9763 247.251,109.967 254.11,132.576 260.969,155.001 267.828,177.475 274.687,200.161 281.546,223.188 288.405,246.55 295.264,269.867 302.123,293.113 308.982,316.349 315.841,339.604 322.7,362.668 329.559,385.482 336.418,407.904 343.277,429.795 350.136,450.884 356.995,471.45 363.854,491.819 370.713,511.887 377.572,531.448 384.431,550.493 391.29,568.999 398.149,586.977 405.008,604.47 411.867,621.499 418.726,638.082 425.585,654.217 432.444,669.933 439.303,685.259 446.162,700.233 453.021,714.876 459.88,729.211 466.739,743.265 473.598,757.069 480.457,770.657 487.316,784.078 494.175,797.337 501.034,810.399 507.893,823.289 514.752,836.014 521.611,848.598 528.47,861.087 535.328,873.48 542.188,885.766 549.046,897.951 555.905,910.096 562.764,922.235 569.623,934.348 576.482,946.416 583.341,958.443 590.2,970.467 597.059,982.511 603.918,994.515 610.777,1006.39 617.636,1018.16 624.495,1029.81 631.354,1041.24 638.213,1052.48 645.072,1063.53 651.931,1074.38 658.79,1084.99 665.649,1095.38 672.508,1105.56 679.367,1115.53 686.226,1125.28 693.085,1134.83 699.944,1144.17 706.803,1153.31 713.662,1162.32 720.521,1171.21 727.38,1179.96 734.239,1188.55 741.098,1197.03 747.957,1205.37 754.816,1213.59 761.675,1221.63 768.534,1229.53 775.393,1237.34 782.252,1245.01 789.111,1252.52 795.97,1259.87 802.829,1266.98 809.688,1273.93 816.547,1280.72 823.406,1287.34 830.265,1293.77 837.124,1300 843.983,1306.02 850.842,1311.83 857.701,1317.41 864.56,1322.74 871.419,1327.79 878.278,1332.59 885.137,1337.1 891.996,1341.3 898.855,1345.28 905.714,1349.02 912.573,1352.49 919.432,1355.7 926.291,1358.64 933.15,1361.28 940.009,1363.51 946.868,1365.31 953.727,1366.7 960.586,1367.73 967.445,1368.38 974.304,1368.62 981.163,1368.48 988.022,1367.94 994.881,1367.06 1001.74,1365.77 1008.6,1364.07 1015.46,1361.98 1022.32,1359.47 1029.18,1356.61 1036.04,1353.49 1042.89,1350.13 1049.75,1346.56 1056.61,1342.73 1063.47,1338.58 1070.33,1334.01 1077.19,1329.01 1084.05,1323.77 1090.91,1318.31 1097.77,1312.55 1104.62,1306.51 1111.48,1300.25 1118.34,1293.8 1125.2,1287.15 1132.06,1280.35 1138.92,1273.43 1145.78,1266.33 1152.64,1259.06 1159.5,1251.67 1166.36,1244.21 1173.21,1236.73 1180.07,1229.22 1186.93,1221.69 1193.79,1214.17 1200.65,1206.6 1207.51,1198.91 1214.37,1191.2 1221.23,1183.59 1228.09,1176.05 1234.95,1168.59 1241.8,1161.19 1248.66,1153.82 1255.52,1146.49 1262.38,1139.17 1269.24,1131.94 1276.1,1124.81 1282.96,1117.71 1289.82,1110.7 1296.68,1103.77 1303.54,1096.92 1310.39,1090.14 1317.25,1083.39 1324.11,1076.73 1330.97,1070.16 1337.83,1063.73 1344.69,1057.42 1351.55,1051.24 1358.41,1045.23 1365.27,1039.33 1372.13,1033.51 1378.98,1027.83 1385.84,1022.31 1392.7,1016.9 1399.56,1011.59 1406.42,1006.39 1413.28,1001.38 1420.14,996.584 1427,991.929 1433.86,987.355 1440.72,982.865 1447.57,978.463 1454.43,974.128 1461.29,969.809 1468.15,965.495 1475.01,961.215 1481.87,957.041 1488.73,952.969 1495.59,948.924 1502.45,944.86 1509.31,940.72 1516.16,936.504 1523.02,932.24 1529.88,927.958 1536.74,923.681 1543.6,919.388 1550.46,915.049 1557.32,910.72 1564.18,906.42 1571.04,902.127 1577.9,897.873 1584.75,893.65 1591.61,889.427 1598.47,885.165 1605.33,880.898 1612.19,876.678 1619.05,872.436 1625.91,868.187 1632.77,863.982 1639.63,859.712 1646.49,855.339 1653.34,850.94 1660.2,846.508 1667.06,842.049 1673.92,837.618 1680.78,833.185 1687.64,828.769 1694.5,824.369 1701.36,819.911 1708.22,815.423 1715.08,810.934 1721.93,806.545 1728.79,802.287 1735.65,798.06 1742.51,793.923 1749.37,789.849 1756.23,785.765 1763.09,781.704 1769.95,777.595 1776.81,773.431 1783.67,769.35 1790.52,765.447 1797.38,761.691 1804.24,758.084 1811.1,754.596 1817.96,751.225 1824.82,747.969 1831.68,744.826 1838.54,741.79 1845.4,738.943 1852.26,736.263 1859.11,733.716 1865.97,731.398 1872.83,729.281 1879.69,727.263 1886.55,725.349 1893.41,723.53 1900.27,721.774 1907.13,720.039 1913.99,718.35 1920.85,716.785 1927.7,715.399 1934.56,714.121 1941.42,712.881 1948.28,711.725 1955.14,710.647 1962,709.67 1968.86,708.801 1975.72,708.033 1982.58,707.426 1989.44,706.942 1996.29,706.532 2003.15,706.193 2010.01,705.92 2016.87,705.726 2023.73,705.628 2030.59,705.605 2037.45,705.664 2044.31,705.764 2051.17,705.874 2058.02,705.981 2064.88,706.088 2071.74,706.197 2078.6,706.292 2085.46,706.366 2092.32,706.406 2099.18,706.397 2106.04,706.337 2112.9,706.208 2119.76,705.97 2126.61,705.593 2133.47,705.099 2140.33,704.591 2147.19,704.066 2154.05,703.434 2160.91,702.718 2167.77,701.975 2174.63,701.172 2181.49,700.302 2188.35,699.293 2195.2,698.156 2202.06,697.113 2208.92,696.369 2215.78,695.758 2222.64,695.309 2229.5,694.751 2236.36,693.88 2243.22,692.607 2250.08,691.005 2256.94,689.358 2263.79,687.216 2270.65,684.204 2277.51,679.929 2284.37,674.741 2291.23,669.095 "/>
<path clip-path="url(#clip590)" d="M2010.47 250.738 L2280.29 250.738 L2280.29 95.2176 L2010.47 95.2176  Z" fill="#ffffff" fill-rule="evenodd" fill-opacity="1"/>
<polyline clip-path="url(#clip590)" style="stroke:#000000; stroke-linecap:round; stroke-linejoin:round; stroke-width:4; stroke-opacity:1; fill:none" points="2010.47,250.738 2280.29,250.738 2280.29,95.2176 2010.47,95.2176 2010.47,250.738 "/>
<polyline clip-path="url(#clip590)" style="stroke:#009af9; stroke-linecap:round; stroke-linejoin:round; stroke-width:4; stroke-opacity:1; fill:none" points="2034.63,147.058 2179.55,147.058 "/>
<path clip-path="url(#clip590)" d="M2217.55 166.745 Q2215.75 171.375 2214.03 172.787 Q2212.32 174.199 2209.45 174.199 L2206.05 174.199 L2206.05 170.634 L2208.55 170.634 Q2210.31 170.634 2211.28 169.8 Q2212.25 168.967 2213.43 165.865 L2214.19 163.921 L2203.71 138.412 L2208.22 138.412 L2216.32 158.689 L2224.43 138.412 L2228.94 138.412 L2217.55 166.745 Z" fill="#000000" fill-rule="nonzero" fill-opacity="1" /><path clip-path="url(#clip590)" d="M2236.23 160.402 L2243.87 160.402 L2243.87 134.037 L2235.56 135.703 L2235.56 131.444 L2243.82 129.778 L2248.5 129.778 L2248.5 160.402 L2256.14 160.402 L2256.14 164.338 L2236.23 164.338 L2236.23 160.402 Z" fill="#000000" fill-rule="nonzero" fill-opacity="1" /><polyline clip-path="url(#clip590)" style="stroke:#e26f46; stroke-linecap:round; stroke-linejoin:round; stroke-width:4; stroke-opacity:1; fill:none" points="2034.63,198.898 2179.55,198.898 "/>
<path clip-path="url(#clip590)" d="M2217.55 218.585 Q2215.75 223.215 2214.03 224.627 Q2212.32 226.039 2209.45 226.039 L2206.05 226.039 L2206.05 222.474 L2208.55 222.474 Q2210.31 222.474 2211.28 221.64 Q2212.25 220.807 2213.43 217.705 L2214.19 215.761 L2203.71 190.252 L2208.22 190.252 L2216.32 210.529 L2224.43 190.252 L2228.94 190.252 L2217.55 218.585 Z" fill="#000000" fill-rule="nonzero" fill-opacity="1" /><path clip-path="url(#clip590)" d="M2239.45 212.242 L2255.77 212.242 L2255.77 216.178 L2233.82 216.178 L2233.82 212.242 Q2236.49 209.488 2241.07 204.858 Q2245.68 200.205 2246.86 198.863 Q2249.1 196.34 2249.98 194.604 Q2250.88 192.844 2250.88 191.155 Q2250.88 188.4 2248.94 186.664 Q2247.02 184.928 2243.92 184.928 Q2241.72 184.928 2239.26 185.692 Q2236.83 186.455 2234.06 188.006 L2234.06 183.284 Q2236.88 182.15 2239.33 181.571 Q2241.79 180.993 2243.82 180.993 Q2249.19 180.993 2252.39 183.678 Q2255.58 186.363 2255.58 190.854 Q2255.58 192.983 2254.77 194.905 Q2253.99 196.803 2251.88 199.395 Q2251.3 200.067 2248.2 203.284 Q2245.1 206.479 2239.45 212.242 Z" fill="#000000" fill-rule="nonzero" fill-opacity="1" /></svg>
