<?xml version="1.0" encoding="utf-8"?>
<svg xmlns="http://www.w3.org/2000/svg" xmlns:xlink="http://www.w3.org/1999/xlink" width="600" height="400" viewBox="0 0 2400 1600">
<defs>
  <clipPath id="clip560">
    <rect x="0" y="0" width="2400" height="1600"/>
  </clipPath>
</defs>
<path clip-path="url(#clip560)" d="M0 1600 L2400 1600 L2400 0 L0 0  Z" fill="#ffffff" fill-rule="evenodd" fill-opacity="1"/>
<defs>
  <clipPath id="clip561">
    <rect x="480" y="0" width="1681" height="1600"/>
  </clipPath>
</defs>
<path clip-path="url(#clip560)" d="M178.867 1486.45 L2352.76 1486.45 L2352.76 47.2441 L178.867 47.2441  Z" fill="#ffffff" fill-rule="evenodd" fill-opacity="1"/>
<defs>
  <clipPath id="clip562">
    <rect x="178" y="47" width="2175" height="1440"/>
  </clipPath>
</defs>
<polyline clip-path="url(#clip562)" style="stroke:#000000; stroke-linecap:round; stroke-linejoin:round; stroke-width:2; stroke-opacity:0.1; fill:none" points="240.392,1486.45 240.392,47.2441 "/>
<polyline clip-path="url(#clip562)" style="stroke:#000000; stroke-linecap:round; stroke-linejoin:round; stroke-width:2; stroke-opacity:0.1; fill:none" points="924.005,1486.45 924.005,47.2441 "/>
<polyline clip-path="url(#clip562)" style="stroke:#000000; stroke-linecap:round; stroke-linejoin:round; stroke-width:2; stroke-opacity:0.1; fill:none" points="1607.62,1486.45 1607.62,47.2441 "/>
<polyline clip-path="url(#clip562)" style="stroke:#000000; stroke-linecap:round; stroke-linejoin:round; stroke-width:2; stroke-opacity:0.1; fill:none" points="2291.23,1486.45 2291.23,47.2441 "/>
<polyline clip-path="url(#clip560)" style="stroke:#000000; stroke-linecap:round; stroke-linejoin:round; stroke-width:4; stroke-opacity:1; fill:none" points="178.867,1486.45 2352.76,1486.45 "/>
<polyline clip-path="url(#clip560)" style="stroke:#000000; stroke-linecap:round; stroke-linejoin:round; stroke-width:4; stroke-opacity:1; fill:none" points="240.392,1486.45 240.392,1467.55 "/>
<polyline clip-path="url(#clip560)" style="stroke:#000000; stroke-linecap:round; stroke-linejoin:round; stroke-width:4; stroke-opacity:1; fill:none" points="924.005,1486.45 924.005,1467.55 "/>
<polyline clip-path="url(#clip560)" style="stroke:#000000; stroke-linecap:round; stroke-linejoin:round; stroke-width:4; stroke-opacity:1; fill:none" points="1607.62,1486.45 1607.62,1467.55 "/>
<polyline clip-path="url(#clip560)" style="stroke:#000000; stroke-linecap:round; stroke-linejoin:round; stroke-width:4; stroke-opacity:1; fill:none" points="2291.23,1486.45 2291.23,1467.55 "/>
<path clip-path="url(#clip560)" d="M217.776 1517.37 Q214.165 1517.37 212.336 1520.93 Q210.531 1524.47 210.531 1531.6 Q210.531 1538.71 212.336 1542.27 Q214.165 1545.82 217.776 1545.82 Q221.41 1545.82 223.216 1542.27 Q225.045 1538.71 225.045 1531.6 Q225.045 1524.47 223.216 1520.93 Q221.41 1517.37 217.776 1517.37 M217.776 1513.66 Q223.586 1513.66 226.642 1518.27 Q229.721 1522.85 229.721 1531.6 Q229.721 1540.33 226.642 1544.94 Q223.586 1549.52 217.776 1549.52 Q211.966 1549.52 208.887 1544.94 Q205.832 1540.33 205.832 1531.6 Q205.832 1522.85 208.887 1518.27 Q211.966 1513.66 217.776 1513.66 Z" fill="#000000" fill-rule="nonzero" fill-opacity="1" /><path clip-path="url(#clip560)" d="M237.938 1542.97 L242.822 1542.97 L242.822 1548.85 L237.938 1548.85 L237.938 1542.97 Z" fill="#000000" fill-rule="nonzero" fill-opacity="1" /><path clip-path="url(#clip560)" d="M263.007 1517.37 Q259.396 1517.37 257.568 1520.93 Q255.762 1524.47 255.762 1531.6 Q255.762 1538.71 257.568 1542.27 Q259.396 1545.82 263.007 1545.82 Q266.642 1545.82 268.447 1542.27 Q270.276 1538.71 270.276 1531.6 Q270.276 1524.47 268.447 1520.93 Q266.642 1517.37 263.007 1517.37 M263.007 1513.66 Q268.818 1513.66 271.873 1518.27 Q274.952 1522.85 274.952 1531.6 Q274.952 1540.33 271.873 1544.94 Q268.818 1549.52 263.007 1549.52 Q257.197 1549.52 254.119 1544.94 Q251.063 1540.33 251.063 1531.6 Q251.063 1522.85 254.119 1518.27 Q257.197 1513.66 263.007 1513.66 Z" fill="#000000" fill-rule="nonzero" fill-opacity="1" /><path clip-path="url(#clip560)" d="M901.887 1517.37 Q898.276 1517.37 896.447 1520.93 Q894.642 1524.47 894.642 1531.6 Q894.642 1538.71 896.447 1542.27 Q898.276 1545.82 901.887 1545.82 Q905.521 1545.82 907.327 1542.27 Q909.155 1538.71 909.155 1531.6 Q909.155 1524.47 907.327 1520.93 Q905.521 1517.37 901.887 1517.37 M901.887 1513.66 Q907.697 1513.66 910.753 1518.27 Q913.831 1522.85 913.831 1531.6 Q913.831 1540.33 910.753 1544.94 Q907.697 1549.52 901.887 1549.52 Q896.077 1549.52 892.998 1544.94 Q889.942 1540.33 889.942 1531.6 Q889.942 1522.85 892.998 1518.27 Q896.077 1513.66 901.887 1513.66 Z" fill="#000000" fill-rule="nonzero" fill-opacity="1" /><path clip-path="url(#clip560)" d="M922.049 1542.97 L926.933 1542.97 L926.933 1548.85 L922.049 1548.85 L922.049 1542.97 Z" fill="#000000" fill-rule="nonzero" fill-opacity="1" /><path clip-path="url(#clip560)" d="M937.164 1514.29 L955.521 1514.29 L955.521 1518.22 L941.447 1518.22 L941.447 1526.7 Q942.465 1526.35 943.484 1526.19 Q944.502 1526 945.521 1526 Q951.308 1526 954.687 1529.17 Q958.067 1532.34 958.067 1537.76 Q958.067 1543.34 954.595 1546.44 Q951.123 1549.52 944.803 1549.52 Q942.627 1549.52 940.359 1549.15 Q938.114 1548.78 935.706 1548.04 L935.706 1543.34 Q937.789 1544.47 940.012 1545.03 Q942.234 1545.58 944.711 1545.58 Q948.715 1545.58 951.053 1543.48 Q953.391 1541.37 953.391 1537.76 Q953.391 1534.15 951.053 1532.04 Q948.715 1529.94 944.711 1529.94 Q942.836 1529.94 940.961 1530.35 Q939.109 1530.77 937.164 1531.65 L937.164 1514.29 Z" fill="#000000" fill-rule="nonzero" fill-opacity="1" /><path clip-path="url(#clip560)" d="M1574.77 1544.91 L1582.41 1544.91 L1582.41 1518.55 L1574.1 1520.21 L1574.1 1515.95 L1582.36 1514.29 L1587.04 1514.29 L1587.04 1544.91 L1594.68 1544.91 L1594.68 1548.85 L1574.77 1548.85 L1574.77 1544.91 Z" fill="#000000" fill-rule="nonzero" fill-opacity="1" /><path clip-path="url(#clip560)" d="M1604.12 1542.97 L1609.01 1542.97 L1609.01 1548.85 L1604.12 1548.85 L1604.12 1542.97 Z" fill="#000000" fill-rule="nonzero" fill-opacity="1" /><path clip-path="url(#clip560)" d="M1629.19 1517.37 Q1625.58 1517.37 1623.75 1520.93 Q1621.95 1524.47 1621.95 1531.6 Q1621.95 1538.71 1623.75 1542.27 Q1625.58 1545.82 1629.19 1545.82 Q1632.83 1545.82 1634.63 1542.27 Q1636.46 1538.71 1636.46 1531.6 Q1636.46 1524.47 1634.63 1520.93 Q1632.83 1517.37 1629.19 1517.37 M1629.19 1513.66 Q1635 1513.66 1638.06 1518.27 Q1641.14 1522.85 1641.14 1531.6 Q1641.14 1540.33 1638.06 1544.94 Q1635 1549.52 1629.19 1549.52 Q1623.38 1549.52 1620.3 1544.94 Q1617.25 1540.33 1617.25 1531.6 Q1617.25 1522.85 1620.3 1518.27 Q1623.38 1513.66 1629.19 1513.66 Z" fill="#000000" fill-rule="nonzero" fill-opacity="1" /><path clip-path="url(#clip560)" d="M2258.88 1544.91 L2266.52 1544.91 L2266.52 1518.55 L2258.21 1520.21 L2258.21 1515.95 L2266.47 1514.29 L2271.15 1514.29 L2271.15 1544.91 L2278.79 1544.91 L2278.79 1548.85 L2258.88 1548.85 L2258.88 1544.91 Z" fill="#000000" fill-rule="nonzero" fill-opacity="1" /><path clip-path="url(#clip560)" d="M2288.23 1542.97 L2293.12 1542.97 L2293.12 1548.85 L2288.23 1548.85 L2288.23 1542.97 Z" fill="#000000" fill-rule="nonzero" fill-opacity="1" /><path clip-path="url(#clip560)" d="M2303.35 1514.29 L2321.71 1514.29 L2321.71 1518.22 L2307.63 1518.22 L2307.63 1526.7 Q2308.65 1526.35 2309.67 1526.19 Q2310.69 1526 2311.71 1526 Q2317.49 1526 2320.87 1529.17 Q2324.25 1532.34 2324.25 1537.76 Q2324.25 1543.34 2320.78 1546.44 Q2317.31 1549.52 2310.99 1549.52 Q2308.81 1549.52 2306.54 1549.15 Q2304.3 1548.78 2301.89 1548.04 L2301.89 1543.34 Q2303.97 1544.47 2306.2 1545.03 Q2308.42 1545.58 2310.89 1545.58 Q2314.9 1545.58 2317.24 1543.48 Q2319.58 1541.37 2319.58 1537.76 Q2319.58 1534.15 2317.24 1532.04 Q2314.9 1529.94 2310.89 1529.94 Q2309.02 1529.94 2307.15 1530.35 Q2305.29 1530.77 2303.35 1531.65 L2303.35 1514.29 Z" fill="#000000" fill-rule="nonzero" fill-opacity="1" /><polyline clip-path="url(#clip562)" style="stroke:#000000; stroke-linecap:round; stroke-linejoin:round; stroke-width:2; stroke-opacity:0.1; fill:none" points="178.867,1434.34 2352.76,1434.34 "/>
<polyline clip-path="url(#clip562)" style="stroke:#000000; stroke-linecap:round; stroke-linejoin:round; stroke-width:2; stroke-opacity:0.1; fill:none" points="178.867,974.607 2352.76,974.607 "/>
<polyline clip-path="url(#clip562)" style="stroke:#000000; stroke-linecap:round; stroke-linejoin:round; stroke-width:2; stroke-opacity:0.1; fill:none" points="178.867,514.872 2352.76,514.872 "/>
<polyline clip-path="url(#clip562)" style="stroke:#000000; stroke-linecap:round; stroke-linejoin:round; stroke-width:2; stroke-opacity:0.1; fill:none" points="178.867,55.1375 2352.76,55.1375 "/>
<polyline clip-path="url(#clip560)" style="stroke:#000000; stroke-linecap:round; stroke-linejoin:round; stroke-width:4; stroke-opacity:1; fill:none" points="178.867,1486.45 178.867,47.2441 "/>
<polyline clip-path="url(#clip560)" style="stroke:#000000; stroke-linecap:round; stroke-linejoin:round; stroke-width:4; stroke-opacity:1; fill:none" points="178.867,1434.34 197.764,1434.34 "/>
<polyline clip-path="url(#clip560)" style="stroke:#000000; stroke-linecap:round; stroke-linejoin:round; stroke-width:4; stroke-opacity:1; fill:none" points="178.867,974.607 197.764,974.607 "/>
<polyline clip-path="url(#clip560)" style="stroke:#000000; stroke-linecap:round; stroke-linejoin:round; stroke-width:4; stroke-opacity:1; fill:none" points="178.867,514.872 197.764,514.872 "/>
<polyline clip-path="url(#clip560)" style="stroke:#000000; stroke-linecap:round; stroke-linejoin:round; stroke-width:4; stroke-opacity:1; fill:none" points="178.867,55.1375 197.764,55.1375 "/>
<path clip-path="url(#clip560)" d="M50.9921 1434.79 L80.6679 1434.79 L80.6679 1438.73 L50.9921 1438.73 L50.9921 1434.79 Z" fill="#000000" fill-rule="nonzero" fill-opacity="1" /><path clip-path="url(#clip560)" d="M91.5706 1447.69 L99.2095 1447.69 L99.2095 1421.32 L90.8993 1422.99 L90.8993 1418.73 L99.1632 1417.06 L103.839 1417.06 L103.839 1447.69 L111.478 1447.69 L111.478 1451.62 L91.5706 1451.62 L91.5706 1447.69 Z" fill="#000000" fill-rule="nonzero" fill-opacity="1" /><path clip-path="url(#clip560)" d="M130.922 1420.14 Q127.311 1420.14 125.482 1423.7 Q123.677 1427.25 123.677 1434.38 Q123.677 1441.48 125.482 1445.05 Q127.311 1448.59 130.922 1448.59 Q134.556 1448.59 136.362 1445.05 Q138.191 1441.48 138.191 1434.38 Q138.191 1427.25 136.362 1423.7 Q134.556 1420.14 130.922 1420.14 M130.922 1416.44 Q136.732 1416.44 139.788 1421.04 Q142.867 1425.63 142.867 1434.38 Q142.867 1443.1 139.788 1447.71 Q136.732 1452.29 130.922 1452.29 Q125.112 1452.29 122.033 1447.71 Q118.978 1443.1 118.978 1434.38 Q118.978 1425.63 122.033 1421.04 Q125.112 1416.44 130.922 1416.44 Z" fill="#000000" fill-rule="nonzero" fill-opacity="1" /><path clip-path="url(#clip560)" d="M130.922 960.405 Q127.311 960.405 125.482 963.97 Q123.677 967.512 123.677 974.641 Q123.677 981.748 125.482 985.313 Q127.311 988.854 130.922 988.854 Q134.556 988.854 136.362 985.313 Q138.191 981.748 138.191 974.641 Q138.191 967.512 136.362 963.97 Q134.556 960.405 130.922 960.405 M130.922 956.702 Q136.732 956.702 139.788 961.308 Q142.867 965.891 142.867 974.641 Q142.867 983.368 139.788 987.975 Q136.732 992.558 130.922 992.558 Q125.112 992.558 122.033 987.975 Q118.978 983.368 118.978 974.641 Q118.978 965.891 122.033 961.308 Q125.112 956.702 130.922 956.702 Z" fill="#000000" fill-rule="nonzero" fill-opacity="1" /><path clip-path="url(#clip560)" d="M91.5706 528.217 L99.2095 528.217 L99.2095 501.851 L90.8993 503.518 L90.8993 499.259 L99.1632 497.592 L103.839 497.592 L103.839 528.217 L111.478 528.217 L111.478 532.152 L91.5706 532.152 L91.5706 528.217 Z" fill="#000000" fill-rule="nonzero" fill-opacity="1" /><path clip-path="url(#clip560)" d="M130.922 500.671 Q127.311 500.671 125.482 504.236 Q123.677 507.777 123.677 514.907 Q123.677 522.013 125.482 525.578 Q127.311 529.12 130.922 529.12 Q134.556 529.12 136.362 525.578 Q138.191 522.013 138.191 514.907 Q138.191 507.777 136.362 504.236 Q134.556 500.671 130.922 500.671 M130.922 496.967 Q136.732 496.967 139.788 501.573 Q142.867 506.157 142.867 514.907 Q142.867 523.634 139.788 528.24 Q136.732 532.823 130.922 532.823 Q125.112 532.823 122.033 528.24 Q118.978 523.634 118.978 514.907 Q118.978 506.157 122.033 501.573 Q125.112 496.967 130.922 496.967 Z" fill="#000000" fill-rule="nonzero" fill-opacity="1" /><path clip-path="url(#clip560)" d="M94.7882 68.4823 L111.108 68.4823 L111.108 72.4175 L89.1632 72.4175 L89.1632 68.4823 Q91.8252 65.7277 96.4085 61.0981 Q101.015 56.4453 102.196 55.1027 Q104.441 52.5796 105.321 50.8435 Q106.223 49.0843 106.223 47.3945 Q106.223 44.6398 104.279 42.9037 Q102.358 41.1676 99.2558 41.1676 Q97.0567 41.1676 94.603 41.9315 Q92.1725 42.6954 89.3947 44.2463 L89.3947 39.5241 Q92.2188 38.3899 94.6724 37.8112 Q97.1261 37.2325 99.1632 37.2325 Q104.534 37.2325 107.728 39.9176 Q110.922 42.6028 110.922 47.0935 Q110.922 49.2231 110.112 51.1444 Q109.325 53.0426 107.219 55.6351 Q106.64 56.3064 103.538 59.524 Q100.436 62.7184 94.7882 68.4823 Z" fill="#000000" fill-rule="nonzero" fill-opacity="1" /><path clip-path="url(#clip560)" d="M130.922 40.9362 Q127.311 40.9362 125.482 44.5009 Q123.677 48.0426 123.677 55.1722 Q123.677 62.2786 125.482 65.8434 Q127.311 69.3851 130.922 69.3851 Q134.556 69.3851 136.362 65.8434 Q138.191 62.2786 138.191 55.1722 Q138.191 48.0426 136.362 44.5009 Q134.556 40.9362 130.922 40.9362 M130.922 37.2325 Q136.732 37.2325 139.788 41.8389 Q142.867 46.4222 142.867 55.1722 Q142.867 63.899 139.788 68.5054 Q136.732 73.0888 130.922 73.0888 Q125.112 73.0888 122.033 68.5054 Q118.978 63.899 118.978 55.1722 Q118.978 46.4222 122.033 41.8389 Q125.112 37.2325 130.922 37.2325 Z" fill="#000000" fill-rule="nonzero" fill-opacity="1" /><polyline clip-path="url(#clip562)" style="stroke:#009af9; stroke-linecap:round; stroke-linejoin:round; stroke-width:4; stroke-opacity:1; fill:none" points="240.392,905.704 247.251,932.344 254.11,958.514 260.969,984.201 267.828,1008.92 274.687,1032.86 281.546,1056.37 288.405,1079.23 295.264,1100.92 302.123,1121.62 308.982,1141.21 315.841,1160.04 322.7,1178.23 329.559,1195.49 336.418,1212.42 343.277,1228.77 350.136,1244.34 356.995,1259.22 363.854,1273.51 370.713,1287.25 377.572,1300.25 384.431,1312.49 391.29,1324.13 398.149,1335.26 405.008,1345.88 411.867,1355.89 418.726,1365.26 425.585,1374.05 432.444,1382.27 439.303,1389.97 446.162,1397.14 453.021,1403.76 459.88,1409.84 466.739,1415.41 473.598,1420.45 480.457,1424.99 487.316,1429.06 494.175,1432.69 501.034,1435.86 507.893,1438.59 514.752,1440.86 521.611,1442.7 528.47,1444.1 535.328,1445.07 542.188,1445.61 549.046,1445.72 555.905,1445.31 562.764,1444.43 569.623,1443.16 576.482,1441.61 583.341,1439.82 590.2,1437.85 597.059,1435.72 603.918,1433.31 610.777,1430.39 617.636,1426.96 624.495,1423 631.354,1418.53 638.213,1413.59 645.072,1408.27 651.931,1402.56 658.79,1396.39 665.649,1389.83 672.508,1382.84 679.367,1375.46 686.226,1367.73 693.085,1359.7 699.944,1351.5 706.803,1343.07 713.662,1334.34 720.521,1325.34 727.38,1316.15 734.239,1306.89 741.098,1297.65 747.957,1288.41 754.816,1279.04 761.675,1269.57 768.534,1260.09 775.393,1250.66 782.252,1241.29 789.111,1231.87 795.97,1222.41 802.829,1212.99 809.688,1203.54 816.547,1194.08 823.406,1184.68 830.265,1175.35 837.124,1166.11 843.983,1157 850.842,1148.05 857.701,1139.19 864.56,1130.38 871.419,1121.58 878.278,1112.82 885.137,1104.2 891.996,1095.71 898.855,1087.32 905.714,1078.98 912.573,1070.66 919.432,1062.42 926.291,1054.27 933.15,1046.18 940.009,1038.2 946.868,1030.33 953.727,1022.58 960.586,1014.85 967.445,1007.12 974.304,999.482 981.163,992 988.022,984.636 994.881,977.352 1001.74,970.181 1008.6,963.095 1015.46,956.059 1022.32,949.088 1029.18,942.161 1036.04,935.221 1042.89,928.283 1049.75,921.287 1056.61,914.278 1063.47,907.306 1070.33,900.311 1077.19,893.316 1084.05,886.348 1090.91,879.482 1097.77,872.663 1104.62,865.793 1111.48,858.93 1118.34,852.167 1125.2,845.551 1132.06,838.991 1138.92,832.366 1145.78,825.709 1152.64,819.11 1159.5,812.596 1166.36,806.136 1173.21,799.778 1180.07,793.473 1186.93,787.183 1193.79,780.989 1200.65,774.875 1207.51,768.72 1214.37,762.511 1221.23,756.357 1228.09,750.297 1234.95,744.323 1241.8,738.389 1248.66,732.52 1255.52,726.733 1262.38,721.03 1269.24,715.485 1276.1,710.205 1282.96,705.191 1289.82,700.357 1296.68,695.634 1303.54,691.047 1310.39,686.559 1317.25,682.227 1324.11,678.081 1330.97,674.094 1337.83,670.307 1344.69,666.734 1351.55,663.405 1358.41,660.305 1365.27,657.426 1372.13,654.768 1378.98,652.391 1385.84,650.285 1392.7,648.395 1399.56,646.743 1406.42,645.285 1413.28,644.053 1420.14,643.08 1427,642.314 1433.86,641.77 1440.72,641.442 1447.57,641.349 1454.43,641.503 1461.29,641.843 1468.15,642.409 1475.01,643.324 1481.87,644.607 1488.73,646.162 1495.59,647.88 1502.45,649.81 1509.31,652.006 1516.16,654.429 1523.02,656.989 1529.88,659.693 1536.74,662.579 1543.6,665.596 1550.46,668.803 1557.32,672.218 1564.18,675.765 1571.04,679.408 1577.9,683.203 1584.75,687.135 1591.61,691.186 1598.47,695.432 1605.33,699.835 1612.19,704.361 1619.05,709.057 1625.91,713.945 1632.77,718.93 1639.63,724.006 1646.49,729.175 1653.34,734.453 1660.2,739.82 1667.06,745.226 1673.92,750.662 1680.78,756.21 1687.64,761.854 1694.5,767.42 1701.36,772.897 1708.22,778.385 1715.08,783.892 1721.93,789.422 1728.79,794.994 1735.65,800.595 1742.51,806.165 1749.37,811.689 1756.23,817.203 1763.09,822.731 1769.95,828.299 1776.81,833.879 1783.67,839.449 1790.52,844.998 1797.38,850.533 1804.24,856.063 1811.1,861.528 1817.96,866.89 1824.82,872.199 1831.68,877.476 1838.54,882.676 1845.4,887.75 1852.26,892.689 1859.11,897.563 1865.97,902.425 1872.83,907.169 1879.69,911.78 1886.55,916.321 1893.41,920.787 1900.27,925.162 1907.13,929.465 1913.99,933.652 1920.85,937.722 1927.7,941.7 1934.56,945.587 1941.42,949.371 1948.28,953.055 1955.14,956.63 1962,960.113 1968.86,963.504 1975.72,966.773 1982.58,969.914 1989.44,972.897 1996.29,975.695 2003.15,978.327 2010.01,980.814 2016.87,983.157 2023.73,985.343 2030.59,987.376 2037.45,989.274 2044.31,991.034 2051.17,992.671 2058.02,994.18 2064.88,995.561 2071.74,996.801 2078.6,997.909 2085.46,998.9 2092.32,999.793 2099.18,1000.62 2106.04,1001.42 2112.9,1002.17 2119.76,1002.89 2126.61,1003.59 2133.47,1004.25 2140.33,1004.93 2147.19,1005.67 2154.05,1006.36 2160.91,1006.93 2167.77,1007.32 2174.63,1007.67 2181.49,1007.94 2188.35,1008.12 2195.2,1008.54 2202.06,1009.43 2208.92,1010.74 2215.78,1012.3 2222.64,1014.18 2229.5,1016.74 2236.36,1019.76 2243.22,1023.03 2250.08,1026.13 2256.94,1029.26 2263.79,1032.06 2270.65,1034.73 2277.51,1038.05 2284.37,1041.55 2291.23,1044.98 "/>
<polyline clip-path="url(#clip562)" style="stroke:#e26f46; stroke-linecap:round; stroke-linejoin:round; stroke-width:4; stroke-opacity:1; fill:none" points="240.392,87.9763 247.251,114.091 254.11,141.146 260.969,168.324 267.828,195.464 274.687,222.438 281.546,248.352 288.405,273.192 295.264,297.375 302.123,321.222 308.982,344.959 315.841,368.16 322.7,390.703 329.559,412.712 336.418,433.924 343.277,454.355 350.136,474.256 356.995,493.64 363.854,512.556 370.713,531.023 377.572,549.079 384.431,566.745 391.29,584.134 398.149,601.268 405.008,618.112 411.867,634.654 418.726,650.841 425.585,666.624 432.444,682.046 439.303,697.161 446.162,711.973 453.021,726.491 459.88,740.718 466.739,754.66 473.598,768.339 480.457,781.786 487.316,795.014 494.175,808.008 501.034,820.823 507.893,833.485 514.752,846.006 521.611,858.406 528.47,870.666 535.328,882.775 542.188,894.76 549.046,906.641 555.905,918.435 562.764,930.194 569.623,941.945 576.482,953.687 583.341,965.407 590.2,977.115 597.059,988.884 603.918,1000.65 610.777,1012.25 617.636,1023.7 624.495,1034.97 631.354,1046.01 638.213,1056.87 645.072,1067.67 651.931,1078.35 658.79,1088.83 665.649,1099.12 672.508,1109.23 679.367,1119.17 686.226,1128.94 693.085,1138.55 699.944,1147.96 706.803,1157.21 713.662,1166.25 720.521,1175.07 727.38,1183.76 734.239,1192.22 741.098,1200.47 747.957,1208.54 754.816,1216.4 761.675,1224.14 768.534,1231.68 775.393,1239.11 782.252,1246.42 789.111,1253.61 795.97,1260.75 802.829,1267.83 809.688,1274.77 816.547,1281.59 823.406,1288.23 830.265,1294.62 837.124,1300.74 843.983,1306.54 850.842,1312.09 857.701,1317.46 864.56,1322.62 871.419,1327.56 878.278,1332.24 885.137,1336.62 891.996,1340.71 898.855,1344.56 905.714,1348.15 912.573,1351.48 919.432,1354.53 926.291,1357.2 933.15,1359.47 940.009,1361.43 946.868,1363.12 953.727,1364.49 960.586,1365.42 967.445,1365.96 974.304,1366.16 981.163,1366.03 988.022,1365.55 994.881,1364.76 1001.74,1363.62 1008.6,1362.08 1015.46,1360.18 1022.32,1357.95 1029.18,1355.41 1036.04,1352.61 1042.89,1349.54 1049.75,1346.2 1056.61,1342.57 1063.47,1338.56 1070.33,1334.23 1077.19,1329.59 1084.05,1324.6 1090.91,1319.28 1097.77,1313.66 1104.62,1307.79 1111.48,1301.66 1118.34,1295.33 1125.2,1288.86 1132.06,1282.3 1138.92,1275.61 1145.78,1268.73 1152.64,1261.65 1159.5,1254.48 1166.36,1247.26 1173.21,1239.97 1180.07,1232.65 1186.93,1225.31 1193.79,1217.91 1200.65,1210.41 1207.51,1202.87 1214.37,1195.41 1221.23,1187.98 1228.09,1180.48 1234.95,1173 1241.8,1165.54 1248.66,1158.13 1255.52,1150.85 1262.38,1143.73 1269.24,1136.75 1276.1,1129.92 1282.96,1123.13 1289.82,1116.34 1296.68,1109.62 1303.54,1102.96 1310.39,1096.37 1317.25,1089.85 1324.11,1083.46 1330.97,1077.15 1337.83,1070.95 1344.69,1064.92 1351.55,1059.03 1358.41,1053.23 1365.27,1047.52 1372.13,1041.89 1378.98,1036.36 1385.84,1030.92 1392.7,1025.54 1399.56,1020.28 1406.42,1015.16 1413.28,1010.15 1420.14,1005.26 1427,1000.46 1433.86,995.749 1440.72,991.209 1447.57,986.828 1454.43,982.512 1461.29,978.184 1468.15,973.852 1475.01,969.577 1481.87,965.318 1488.73,961.117 1495.59,957.001 1502.45,952.941 1509.31,948.899 1516.16,944.872 1523.02,940.842 1529.88,936.778 1536.74,932.703 1543.6,928.618 1550.46,924.54 1557.32,920.497 1564.18,916.528 1571.04,912.585 1577.9,908.583 1584.75,904.475 1591.61,900.366 1598.47,896.255 1605.33,892.093 1612.19,887.929 1619.05,883.748 1625.91,879.514 1632.77,875.237 1639.63,870.868 1646.49,866.411 1653.34,861.908 1660.2,857.371 1667.06,852.768 1673.92,848.17 1680.78,843.613 1687.64,839.109 1694.5,834.642 1701.36,830.183 1708.22,825.727 1715.08,821.293 1721.93,816.929 1728.79,812.62 1735.65,808.324 1742.51,804.062 1749.37,799.88 1756.23,795.74 1763.09,791.573 1769.95,787.432 1776.81,783.358 1783.67,779.309 1790.52,775.333 1797.38,771.463 1804.24,767.712 1811.1,764.07 1817.96,760.481 1824.82,756.956 1831.68,753.585 1838.54,750.335 1845.4,747.129 1852.26,743.97 1859.11,740.944 1865.97,738.091 1872.83,735.399 1879.69,732.854 1886.55,730.433 1893.41,728.059 1900.27,725.745 1907.13,723.565 1913.99,721.564 1920.85,719.778 1927.7,718.143 1934.56,716.652 1941.42,715.283 1948.28,714.039 1955.14,712.921 1962,711.911 1968.86,711.038 1975.72,710.27 1982.58,709.565 1989.44,708.936 1996.29,708.374 2003.15,707.926 2010.01,707.632 2016.87,707.441 2023.73,707.354 2030.59,707.382 2037.45,707.476 2044.31,707.597 2051.17,707.77 2058.02,707.998 2064.88,708.266 2071.74,708.581 2078.6,708.929 2085.46,709.301 2092.32,709.699 2099.18,710.13 2106.04,710.577 2112.9,710.988 2119.76,711.373 2126.61,711.795 2133.47,712.251 2140.33,712.772 2147.19,713.351 2154.05,713.949 2160.91,714.623 2167.77,715.569 2174.63,716.732 2181.49,717.907 2188.35,718.993 2195.2,719.885 2202.06,720.593 2208.92,721.085 2215.78,721.533 2222.64,722.109 2229.5,722.875 2236.36,723.75 2243.22,725.057 2250.08,726.847 2256.94,728.943 2263.79,731.372 2270.65,734.137 2277.51,737.141 2284.37,740.999 2291.23,745.916 "/>
<path clip-path="url(#clip560)" d="M2010.47 250.738 L2280.29 250.738 L2280.29 95.2176 L2010.47 95.2176  Z" fill="#ffffff" fill-rule="evenodd" fill-opacity="1"/>
<polyline clip-path="url(#clip560)" style="stroke:#000000; stroke-linecap:round; stroke-linejoin:round; stroke-width:4; stroke-opacity:1; fill:none" points="2010.47,250.738 2280.29,250.738 2280.29,95.2176 2010.47,95.2176 2010.47,250.738 "/>
<polyline clip-path="url(#clip560)" style="stroke:#009af9; stroke-linecap:round; stroke-linejoin:round; stroke-width:4; stroke-opacity:1; fill:none" points="2034.63,147.058 2179.55,147.058 "/>
<path clip-path="url(#clip560)" d="M2217.55 166.745 Q2215.75 171.375 2214.03 172.787 Q2212.32 174.199 2209.45 174.199 L2206.05 174.199 L2206.05 170.634 L2208.55 170.634 Q2210.31 170.634 2211.28 169.8 Q2212.25 168.967 2213.43 165.865 L2214.19 163.921 L2203.71 138.412 L2208.22 138.412 L2216.32 158.689 L2224.43 138.412 L2228.94 138.412 L2217.55 166.745 Z" fill="#000000" fill-rule="nonzero" fill-opacity="1" /><path clip-path="url(#clip560)" d="M2236.23 160.402 L2243.87 160.402 L2243.87 134.037 L2235.56 135.703 L2235.56 131.444 L2243.82 129.778 L2248.5 129.778 L2248.5 160.402 L2256.14 160.402 L2256.14 164.338 L2236.23 164.338 L2236.23 160.402 Z" fill="#000000" fill-rule="nonzero" fill-opacity="1" /><polyline clip-path="url(#clip560)" style="stroke:#e26f46; stroke-linecap:round; stroke-linejoin:round; stroke-width:4; stroke-opacity:1; fill:none" points="2034.63,198.898 2179.55,198.898 "/>
<path clip-path="url(#clip560)" d="M2217.55 218.585 Q2215.75 223.215 2214.03 224.627 Q2212.32 226.039 2209.45 226.039 L2206.05 226.039 L2206.05 222.474 L2208.55 222.474 Q2210.31 222.474 2211.28 221.64 Q2212.25 220.807 2213.43 217.705 L2214.19 215.761 L2203.71 190.252 L2208.22 190.252 L2216.32 210.529 L2224.43 190.252 L2228.94 190.252 L2217.55 218.585 Z" fill="#000000" fill-rule="nonzero" fill-opacity="1" /><path clip-path="url(#clip560)" d="M2239.45 212.242 L2255.77 212.242 L2255.77 216.178 L2233.82 216.178 L2233.82 212.242 Q2236.49 209.488 2241.07 204.858 Q2245.68 200.205 2246.86 198.863 Q2249.1 196.34 2249.98 194.604 Q2250.88 192.844 2250.88 191.155 Q2250.88 188.4 2248.94 186.664 Q2247.02 184.928 2243.92 184.928 Q2241.72 184.928 2239.26 185.692 Q2236.83 186.455 2234.06 188.006 L2234.06 183.284 Q2236.88 182.15 2239.33 181.571 Q2241.79 180.993 2243.82 180.993 Q2249.19 180.993 2252.39 183.678 Q2255.58 186.363 2255.58 190.854 Q2255.58 192.983 2254.77 194.905 Q2253.99 196.803 2251.88 199.395 Q2251.3 200.067 2248.2 203.284 Q2245.1 206.479 2239.45 212.242 Z" fill="#000000" fill-rule="nonzero" fill-opacity="1" /></svg>
