<?xml version="1.0" encoding="utf-8"?>
<svg xmlns="http://www.w3.org/2000/svg" xmlns:xlink="http://www.w3.org/1999/xlink" width="600" height="400" viewBox="0 0 2400 1600">
<defs>
  <clipPath id="clip500">
    <rect x="0" y="0" width="2400" height="1600"/>
  </clipPath>
</defs>
<path clip-path="url(#clip500)" d="M0 1600 L2400 1600 L2400 0 L0 0  Z" fill="#ffffff" fill-rule="evenodd" fill-opacity="1"/>
<defs>
  <clipPath id="clip501">
    <rect x="480" y="0" width="1681" height="1600"/>
  </clipPath>
</defs>
<path clip-path="url(#clip500)" d="M178.867 1486.45 L2352.76 1486.45 L2352.76 47.2441 L178.867 47.2441  Z" fill="#ffffff" fill-rule="evenodd" fill-opacity="1"/>
<defs>
  <clipPath id="clip502">
    <rect x="178" y="47" width="2175" height="1440"/>
  </clipPath>
</defs>
<polyline clip-path="url(#clip502)" style="stroke:#000000; stroke-linecap:round; stroke-linejoin:round; stroke-width:2; stroke-opacity:0.1; fill:none" points="240.392,1486.45 240.392,47.2441 "/>
<polyline clip-path="url(#clip502)" style="stroke:#000000; stroke-linecap:round; stroke-linejoin:round; stroke-width:2; stroke-opacity:0.1; fill:none" points="924.005,1486.45 924.005,47.2441 "/>
<polyline clip-path="url(#clip502)" style="stroke:#000000; stroke-linecap:round; stroke-linejoin:round; stroke-width:2; stroke-opacity:0.1; fill:none" points="1607.62,1486.45 1607.62,47.2441 "/>
<polyline clip-path="url(#clip502)" style="stroke:#000000; stroke-linecap:round; stroke-linejoin:round; stroke-width:2; stroke-opacity:0.1; fill:none" points="2291.23,1486.45 2291.23,47.2441 "/>
<polyline clip-path="url(#clip502)" style="stroke:#000000; stroke-linecap:round; stroke-linejoin:round; stroke-width:2; stroke-opacity:0.1; fill:none" points="178.867,1431.41 2352.76,1431.41 "/>
<polyline clip-path="url(#clip502)" style="stroke:#000000; stroke-linecap:round; stroke-linejoin:round; stroke-width:2; stroke-opacity:0.1; fill:none" points="178.867,973.797 2352.76,973.797 "/>
<polyline clip-path="url(#clip502)" style="stroke:#000000; stroke-linecap:round; stroke-linejoin:round; stroke-width:2; stroke-opacity:0.1; fill:none" points="178.867,516.187 2352.76,516.187 "/>
<polyline clip-path="url(#clip502)" style="stroke:#000000; stroke-linecap:round; stroke-linejoin:round; stroke-width:2; stroke-opacity:0.1; fill:none" points="178.867,58.5772 2352.76,58.5772 "/>
<polyline clip-path="url(#clip500)" style="stroke:#000000; stroke-linecap:round; stroke-linejoin:round; stroke-width:4; stroke-opacity:1; fill:none" points="178.867,1486.45 2352.76,1486.45 "/>
<polyline clip-path="url(#clip500)" style="stroke:#000000; stroke-linecap:round; stroke-linejoin:round; stroke-width:4; stroke-opacity:1; fill:none" points="240.392,1486.45 240.392,1467.55 "/>
<polyline clip-path="url(#clip500)" style="stroke:#000000; stroke-linecap:round; stroke-linejoin:round; stroke-width:4; stroke-opacity:1; fill:none" points="924.005,1486.45 924.005,1467.55 "/>
<polyline clip-path="url(#clip500)" style="stroke:#000000; stroke-linecap:round; stroke-linejoin:round; stroke-width:4; stroke-opacity:1; fill:none" points="1607.62,1486.45 1607.62,1467.55 "/>
<polyline clip-path="url(#clip500)" style="stroke:#000000; stroke-linecap:round; stroke-linejoin:round; stroke-width:4; stroke-opacity:1; fill:none" points="2291.23,1486.45 2291.23,1467.55 "/>
<path clip-path="url(#clip500)" d="M217.776 1517.37 Q214.165 1517.37 212.336 1520.93 Q210.531 1524.47 210.531 1531.6 Q210.531 1538.71 212.336 1542.27 Q214.165 1545.82 217.776 1545.82 Q221.41 1545.82 223.216 1542.27 Q225.045 1538.71 225.045 1531.6 Q225.045 1524.47 223.216 1520.93 Q221.41 1517.37 217.776 1517.37 M217.776 1513.66 Q223.586 1513.66 226.642 1518.27 Q229.721 1522.85 229.721 1531.6 Q229.721 1540.33 226.642 1544.94 Q223.586 1549.52 217.776 1549.52 Q211.966 1549.52 208.887 1544.94 Q205.832 1540.33 205.832 1531.6 Q205.832 1522.85 208.887 1518.27 Q211.966 1513.66 217.776 1513.66 Z" fill="#000000" fill-rule="nonzero" fill-opacity="1" /><path clip-path="url(#clip500)" d="M237.938 1542.97 L242.822 1542.97 L242.822 1548.85 L237.938 1548.85 L237.938 1542.97 Z" fill="#000000" fill-rule="nonzero" fill-opacity="1" /><path clip-path="url(#clip500)" d="M263.007 1517.37 Q259.396 1517.37 257.568 1520.93 Q255.762 1524.47 255.762 1531.6 Q255.762 1538.71 257.568 1542.27 Q259.396 1545.82 263.007 1545.82 Q266.642 1545.82 268.447 1542.27 Q270.276 1538.71 270.276 1531.6 Q270.276 1524.47 268.447 1520.93 Q266.642 1517.37 263.007 1517.37 M263.007 1513.66 Q268.818 1513.66 271.873 1518.27 Q274.952 1522.85 274.952 1531.6 Q274.952 1540.33 271.873 1544.94 Q268.818 1549.52 263.007 1549.52 Q257.197 1549.52 254.119 1544.94 Q251.063 1540.33 251.063 1531.6 Q251.063 1522.85 254.119 1518.27 Q257.197 1513.66 263.007 1513.66 Z" fill="#000000" fill-rule="nonzero" fill-opacity="1" /><path clip-path="url(#clip500)" d="M901.887 1517.37 Q898.276 1517.37 896.447 1520.93 Q894.642 1524.47 894.642 1531.6 Q894.642 1538.71 896.447 1542.27 Q898.276 1545.82 901.887 1545.82 Q905.521 1545.82 907.327 1542.27 Q909.155 1538.71 909.155 1531.6 Q909.155 1524.47 907.327 1520.93 Q905.521 1517.37 901.887 1517.37 M901.887 1513.66 Q907.697 1513.66 910.753 1518.27 Q913.831 1522.85 913.831 1531.6 Q913.831 1540.33 910.753 1544.94 Q907.697 1549.52 901.887 1549.52 Q896.077 1549.52 892.998 1544.94 Q889.942 1540.33 889.942 1531.6 Q889.942 1522.85 892.998 1518.27 Q896.077 1513.66 901.887 1513.66 Z" fill="#000000" fill-rule="nonzero" fill-opacity="1" /><path clip-path="url(#clip500)" d="M922.049 1542.97 L926.933 1542.97 L926.933 1548.85 L922.049 1548.85 L922.049 1542.97 Z" fill="#000000" fill-rule="nonzero" fill-opacity="1" /><path clip-path="url(#clip500)" d="M937.164 1514.29 L955.521 1514.29 L955.521 1518.22 L941.447 1518.22 L941.447 1526.7 Q942.465 1526.35 943.484 1526.19 Q944.502 1526 945.521 1526 Q951.308 1526 954.687 1529.17 Q958.067 1532.34 958.067 1537.76 Q958.067 1543.34 954.595 1546.44 Q951.123 1549.52 944.803 1549.52 Q942.627 1549.52 940.359 1549.15 Q938.114 1548.78 935.706 1548.04 L935.706 1543.34 Q937.789 1544.47 940.012 1545.03 Q942.234 1545.58 944.711 1545.58 Q948.715 1545.58 951.053 1543.48 Q953.391 1541.37 953.391 1537.76 Q953.391 1534.15 951.053 1532.04 Q948.715 1529.94 944.711 1529.94 Q942.836 1529.94 940.961 1530.35 Q939.109 1530.77 937.164 1531.65 L937.164 1514.29 Z" fill="#000000" fill-rule="nonzero" fill-opacity="1" /><path clip-path="url(#clip500)" d="M1574.77 1544.91 L1582.41 1544.91 L1582.41 1518.55 L1574.1 1520.21 L1574.1 1515.95 L1582.36 1514.29 L1587.04 1514.29 L1587.04 1544.91 L1594.68 1544.91 L1594.68 1548.85 L1574.77 1548.85 L1574.77 1544.91 Z" fill="#000000" fill-rule="nonzero" fill-opacity="1" /><path clip-path="url(#clip500)" d="M1604.12 1542.97 L1609.01 1542.97 L1609.01 1548.85 L1604.12 1548.85 L1604.12 1542.97 Z" fill="#000000" fill-rule="nonzero" fill-opacity="1" /><path clip-path="url(#clip500)" d="M1629.19 1517.37 Q1625.58 1517.37 1623.75 1520.93 Q1621.95 1524.47 1621.95 1531.6 Q1621.95 1538.71 1623.75 1542.27 Q1625.58 1545.82 1629.19 1545.82 Q1632.83 1545.82 1634.63 1542.27 Q1636.46 1538.71 1636.46 1531.6 Q1636.46 1524.47 1634.63 1520.93 Q1632.83 1517.37 1629.19 1517.37 M1629.19 1513.66 Q1635 1513.66 1638.06 1518.27 Q1641.14 1522.85 1641.14 1531.6 Q1641.14 1540.33 1638.06 1544.94 Q1635 1549.52 1629.19 1549.52 Q1623.38 1549.52 1620.3 1544.94 Q1617.25 1540.33 1617.25 1531.6 Q1617.25 1522.85 1620.3 1518.27 Q1623.38 1513.66 1629.19 1513.66 Z" fill="#000000" fill-rule="nonzero" fill-opacity="1" /><path clip-path="url(#clip500)" d="M2258.88 1544.91 L2266.52 1544.91 L2266.52 1518.55 L2258.21 1520.21 L2258.21 1515.95 L2266.47 1514.29 L2271.15 1514.29 L2271.15 1544.91 L2278.79 1544.91 L2278.79 1548.85 L2258.88 1548.85 L2258.88 1544.91 Z" fill="#000000" fill-rule="nonzero" fill-opacity="1" /><path clip-path="url(#clip500)" d="M2288.23 1542.97 L2293.12 1542.97 L2293.12 1548.85 L2288.23 1548.85 L2288.23 1542.97 Z" fill="#000000" fill-rule="nonzero" fill-opacity="1" /><path clip-path="url(#clip500)" d="M2303.35 1514.29 L2321.71 1514.29 L2321.71 1518.22 L2307.63 1518.22 L2307.63 1526.7 Q2308.65 1526.35 2309.67 1526.19 Q2310.69 1526 2311.71 1526 Q2317.49 1526 2320.87 1529.17 Q2324.25 1532.34 2324.25 1537.76 Q2324.25 1543.34 2320.78 1546.44 Q2317.31 1549.52 2310.99 1549.52 Q2308.81 1549.52 2306.54 1549.15 Q2304.3 1548.78 2301.89 1548.04 L2301.89 1543.34 Q2303.97 1544.47 2306.2 1545.03 Q2308.42 1545.58 2310.89 1545.58 Q2314.9 1545.58 2317.24 1543.48 Q2319.58 1541.37 2319.58 1537.76 Q2319.58 1534.15 2317.24 1532.04 Q2314.9 1529.94 2310.89 1529.94 Q2309.02 1529.94 2307.15 1530.35 Q2305.29 1530.77 2303.35 1531.65 L2303.35 1514.29 Z" fill="#000000" fill-rule="nonzero" fill-opacity="1" /><polyline clip-path="url(#clip500)" style="stroke:#000000; stroke-linecap:round; stroke-linejoin:round; stroke-width:4; stroke-opacity:1; fill:none" points="178.867,1486.45 178.867,47.2441 "/>
<polyline clip-path="url(#clip500)" style="stroke:#000000; stroke-linecap:round; stroke-linejoin:round; stroke-width:4; stroke-opacity:1; fill:none" points="178.867,1431.41 197.764,1431.41 "/>
<polyline clip-path="url(#clip500)" style="stroke:#000000; stroke-linecap:round; stroke-linejoin:round; stroke-width:4; stroke-opacity:1; fill:none" points="178.867,973.797 197.764,973.797 "/>
<polyline clip-path="url(#clip500)" style="stroke:#000000; stroke-linecap:round; stroke-linejoin:round; stroke-width:4; stroke-opacity:1; fill:none" points="178.867,516.187 197.764,516.187 "/>
<polyline clip-path="url(#clip500)" style="stroke:#000000; stroke-linecap:round; stroke-linejoin:round; stroke-width:4; stroke-opacity:1; fill:none" points="178.867,58.5772 197.764,58.5772 "/>
<path clip-path="url(#clip500)" d="M50.9921 1431.86 L80.6679 1431.86 L80.6679 1435.79 L50.9921 1435.79 L50.9921 1431.86 Z" fill="#000000" fill-rule="nonzero" fill-opacity="1" /><path clip-path="url(#clip500)" d="M91.5706 1444.75 L99.2095 1444.75 L99.2095 1418.39 L90.8993 1420.05 L90.8993 1415.79 L99.1632 1414.13 L103.839 1414.13 L103.839 1444.75 L111.478 1444.75 L111.478 1448.69 L91.5706 1448.69 L91.5706 1444.75 Z" fill="#000000" fill-rule="nonzero" fill-opacity="1" /><path clip-path="url(#clip500)" d="M130.922 1417.21 Q127.311 1417.21 125.482 1420.77 Q123.677 1424.31 123.677 1431.44 Q123.677 1438.55 125.482 1442.11 Q127.311 1445.65 130.922 1445.65 Q134.556 1445.65 136.362 1442.11 Q138.191 1438.55 138.191 1431.44 Q138.191 1424.31 136.362 1420.77 Q134.556 1417.21 130.922 1417.21 M130.922 1413.5 Q136.732 1413.5 139.788 1418.11 Q142.867 1422.69 142.867 1431.44 Q142.867 1440.17 139.788 1444.77 Q136.732 1449.36 130.922 1449.36 Q125.112 1449.36 122.033 1444.77 Q118.978 1440.17 118.978 1431.44 Q118.978 1422.69 122.033 1418.11 Q125.112 1413.5 130.922 1413.5 Z" fill="#000000" fill-rule="nonzero" fill-opacity="1" /><path clip-path="url(#clip500)" d="M130.922 959.596 Q127.311 959.596 125.482 963.16 Q123.677 966.702 123.677 973.832 Q123.677 980.938 125.482 984.503 Q127.311 988.045 130.922 988.045 Q134.556 988.045 136.362 984.503 Q138.191 980.938 138.191 973.832 Q138.191 966.702 136.362 963.16 Q134.556 959.596 130.922 959.596 M130.922 955.892 Q136.732 955.892 139.788 960.498 Q142.867 965.082 142.867 973.832 Q142.867 982.558 139.788 987.165 Q136.732 991.748 130.922 991.748 Q125.112 991.748 122.033 987.165 Q118.978 982.558 118.978 973.832 Q118.978 965.082 122.033 960.498 Q125.112 955.892 130.922 955.892 Z" fill="#000000" fill-rule="nonzero" fill-opacity="1" /><path clip-path="url(#clip500)" d="M91.5706 529.532 L99.2095 529.532 L99.2095 503.166 L90.8993 504.833 L90.8993 500.574 L99.1632 498.907 L103.839 498.907 L103.839 529.532 L111.478 529.532 L111.478 533.467 L91.5706 533.467 L91.5706 529.532 Z" fill="#000000" fill-rule="nonzero" fill-opacity="1" /><path clip-path="url(#clip500)" d="M130.922 501.986 Q127.311 501.986 125.482 505.551 Q123.677 509.092 123.677 516.222 Q123.677 523.328 125.482 526.893 Q127.311 530.435 130.922 530.435 Q134.556 530.435 136.362 526.893 Q138.191 523.328 138.191 516.222 Q138.191 509.092 136.362 505.551 Q134.556 501.986 130.922 501.986 M130.922 498.282 Q136.732 498.282 139.788 502.889 Q142.867 507.472 142.867 516.222 Q142.867 524.949 139.788 529.555 Q136.732 534.138 130.922 534.138 Q125.112 534.138 122.033 529.555 Q118.978 524.949 118.978 516.222 Q118.978 507.472 122.033 502.889 Q125.112 498.282 130.922 498.282 Z" fill="#000000" fill-rule="nonzero" fill-opacity="1" /><path clip-path="url(#clip500)" d="M94.7882 71.9221 L111.108 71.9221 L111.108 75.8572 L89.1632 75.8572 L89.1632 71.9221 Q91.8252 69.1675 96.4085 64.5379 Q101.015 59.8851 102.196 58.5425 Q104.441 56.0194 105.321 54.2833 Q106.223 52.524 106.223 50.8342 Q106.223 48.0796 104.279 46.3435 Q102.358 44.6074 99.2558 44.6074 Q97.0567 44.6074 94.603 45.3713 Q92.1725 46.1352 89.3947 47.6861 L89.3947 42.9639 Q92.2188 41.8296 94.6724 41.2509 Q97.1261 40.6722 99.1632 40.6722 Q104.534 40.6722 107.728 43.3574 Q110.922 46.0426 110.922 50.5333 Q110.922 52.6629 110.112 54.5842 Q109.325 56.4823 107.219 59.0749 Q106.64 59.7462 103.538 62.9638 Q100.436 66.1582 94.7882 71.9221 Z" fill="#000000" fill-rule="nonzero" fill-opacity="1" /><path clip-path="url(#clip500)" d="M130.922 44.3759 Q127.311 44.3759 125.482 47.9407 Q123.677 51.4824 123.677 58.612 Q123.677 65.7184 125.482 69.2832 Q127.311 72.8248 130.922 72.8248 Q134.556 72.8248 136.362 69.2832 Q138.191 65.7184 138.191 58.612 Q138.191 51.4824 136.362 47.9407 Q134.556 44.3759 130.922 44.3759 M130.922 40.6722 Q136.732 40.6722 139.788 45.2787 Q142.867 49.862 142.867 58.612 Q142.867 67.3388 139.788 71.9452 Q136.732 76.5285 130.922 76.5285 Q125.112 76.5285 122.033 71.9452 Q118.978 67.3388 118.978 58.612 Q118.978 49.862 122.033 45.2787 Q125.112 40.6722 130.922 40.6722 Z" fill="#000000" fill-rule="nonzero" fill-opacity="1" /><polyline clip-path="url(#clip502)" style="stroke:#009af9; stroke-linecap:round; stroke-linejoin:round; stroke-width:4; stroke-opacity:1; fill:none" points="240.392,832.053 247.251,859.904 254.11,887.412 260.969,914.657 267.828,942.363 274.687,970.612 281.546,998.694 288.405,1025.32 295.264,1050.36 302.123,1074.58 308.982,1097.93 315.841,1120.13 322.7,1140.99 329.559,1160.75 336.418,1179.55 343.277,1197.26 350.136,1214.29 356.995,1230.79 363.854,1246.58 370.713,1261.66 377.572,1276.25 384.431,1290.19 391.29,1303.37 398.149,1315.83 405.008,1327.65 411.867,1338.82 418.726,1349.35 425.585,1359.29 432.444,1368.68 439.303,1377.52 446.162,1385.78 453.021,1393.48 459.88,1400.64 466.739,1407.27 473.598,1413.35 480.457,1418.9 487.316,1423.89 494.175,1428.34 501.034,1432.23 507.893,1435.6 514.752,1438.47 521.611,1440.86 528.47,1442.76 535.328,1444.16 542.188,1445.1 549.046,1445.62 555.905,1445.72 562.764,1445.39 569.623,1444.7 576.482,1443.66 583.341,1442.32 590.2,1440.77 597.059,1439.1 603.918,1437.15 610.777,1434.67 617.636,1431.62 624.495,1428.05 631.354,1424 638.213,1419.47 645.072,1414.44 651.931,1408.91 658.79,1402.91 665.649,1396.41 672.508,1389.43 679.367,1382.1 686.226,1374.49 693.085,1366.52 699.944,1358.22 706.803,1349.67 713.662,1340.83 720.521,1331.71 727.38,1322.44 734.239,1313.04 741.098,1303.53 747.957,1293.92 754.816,1284.23 761.675,1274.44 768.534,1264.52 775.393,1254.58 782.252,1244.64 789.111,1234.8 795.97,1224.99 802.829,1215.18 809.688,1205.44 816.547,1195.74 823.406,1186.03 830.265,1176.4 837.124,1166.79 843.983,1157.19 850.842,1147.67 857.701,1138.2 864.56,1128.78 871.419,1119.44 878.278,1110.21 885.137,1101.07 891.996,1091.99 898.855,1082.97 905.714,1074.09 912.573,1065.33 919.432,1056.71 926.291,1048.21 933.15,1039.81 940.009,1031.46 946.868,1023.21 953.727,1015.05 960.586,1006.92 967.445,998.803 974.304,990.746 981.163,982.757 988.022,974.914 994.881,967.263 1001.74,959.828 1008.6,952.495 1015.46,945.173 1022.32,937.918 1029.18,930.829 1036.04,923.843 1042.89,916.925 1049.75,910.118 1056.61,903.376 1063.47,896.626 1070.33,889.892 1077.19,883.236 1084.05,876.625 1090.91,869.989 1097.77,863.426 1104.62,857.029 1111.48,850.702 1118.34,844.424 1125.2,838.235 1132.06,832.15 1138.92,826.113 1145.78,820.101 1152.64,814.139 1159.5,808.305 1166.36,802.511 1173.21,796.65 1180.07,790.799 1186.93,784.981 1193.79,779.167 1200.65,773.354 1207.51,767.608 1214.37,761.971 1221.23,756.486 1228.09,751.108 1234.95,745.746 1241.8,740.425 1248.66,735.177 1255.52,730.018 1262.38,724.957 1269.24,720.04 1276.1,715.265 1282.96,710.629 1289.82,706.126 1296.68,701.776 1303.54,697.562 1310.39,693.423 1317.25,689.373 1324.11,685.435 1330.97,681.651 1337.83,678.118 1344.69,674.863 1351.55,671.836 1358.41,668.968 1365.27,666.239 1372.13,663.672 1378.98,661.222 1385.84,658.989 1392.7,657.088 1399.56,655.488 1406.42,654.107 1413.28,652.937 1420.14,651.95 1427,651.175 1433.86,650.666 1440.72,650.447 1447.57,650.493 1454.43,650.711 1461.29,651.164 1468.15,651.867 1475.01,652.79 1481.87,653.933 1488.73,655.315 1495.59,656.959 1502.45,658.841 1509.31,660.89 1516.16,663.087 1523.02,665.491 1529.88,668.058 1536.74,670.813 1543.6,673.809 1550.46,676.903 1557.32,680.116 1564.18,683.517 1571.04,687.025 1577.9,690.685 1584.75,694.562 1591.61,698.627 1598.47,702.873 1605.33,707.268 1612.19,711.789 1619.05,716.427 1625.91,721.09 1632.77,725.814 1639.63,730.656 1646.49,735.526 1653.34,740.419 1660.2,745.392 1667.06,750.486 1673.92,755.657 1680.78,760.877 1687.64,766.148 1694.5,771.427 1701.36,776.67 1708.22,781.93 1715.08,787.184 1721.93,792.427 1728.79,797.677 1735.65,802.999 1742.51,808.392 1749.37,813.783 1756.23,819.084 1763.09,824.366 1769.95,829.59 1776.81,834.783 1783.67,840.017 1790.52,845.164 1797.38,850.218 1804.24,855.261 1811.1,860.35 1817.96,865.48 1824.82,870.526 1831.68,875.442 1838.54,880.292 1845.4,885.054 1852.26,889.681 1859.11,894.173 1865.97,898.529 1872.83,902.73 1879.69,906.749 1886.55,910.625 1893.41,914.398 1900.27,918.119 1907.13,921.831 1913.99,925.538 1920.85,929.221 1927.7,932.78 1934.56,936.187 1941.42,939.481 1948.28,942.654 1955.14,945.773 1962,948.845 1968.86,951.804 1975.72,954.698 1982.58,957.511 1989.44,960.16 1996.29,962.654 2003.15,965.044 2010.01,967.314 2016.87,969.473 2023.73,971.535 2030.59,973.521 2037.45,975.423 2044.31,977.238 2051.17,978.958 2058.02,980.556 2064.88,982.04 2071.74,983.439 2078.6,984.789 2085.46,986.106 2092.32,987.398 2099.18,988.641 2106.04,989.803 2112.9,990.936 2119.76,992.088 2126.61,993.252 2133.47,994.406 2140.33,995.512 2147.19,996.621 2154.05,997.817 2160.91,999.003 2167.77,1000.26 2174.63,1001.51 2181.49,1002.6 2188.35,1003.72 2195.2,1004.94 2202.06,1006.23 2208.92,1007.53 2215.78,1008.94 2222.64,1010.63 2229.5,1012.37 2236.36,1013.85 2243.22,1015.29 2250.08,1017.01 2256.94,1018.93 2263.79,1021.21 2270.65,1023.31 2277.51,1024.79 2284.37,1026.06 2291.23,1026.48 "/>
<polyline clip-path="url(#clip502)" style="stroke:#e26f46; stroke-linecap:round; stroke-linejoin:round; stroke-width:4; stroke-opacity:1; fill:none" points="240.392,87.9763 247.251,110.37 254.11,133.139 260.969,156.743 267.828,180.904 274.687,205.379 281.546,230.383 288.405,256.071 295.264,282.039 302.123,307.755 308.982,332.727 315.841,356.837 322.7,380.042 329.559,402.527 336.418,424.482 343.277,446.103 350.136,467.382 356.995,488.269 363.854,508.535 370.713,528.263 377.572,547.57 384.431,566.295 391.29,584.442 398.149,602.098 405.008,619.327 411.867,636.034 418.726,652.235 425.585,668.009 432.444,683.392 439.303,698.399 446.162,713.022 453.021,727.284 459.88,741.219 466.739,754.87 473.598,768.273 480.457,781.452 487.316,794.426 494.175,807.217 501.034,819.847 507.893,832.353 514.752,844.78 521.611,857.139 528.47,869.428 535.328,881.641 542.188,893.817 549.046,905.961 555.905,918.069 562.764,930.118 569.623,942.115 576.482,954.107 583.341,966.033 590.2,977.862 597.059,989.656 603.918,1001.38 610.777,1012.95 617.636,1024.34 624.495,1035.55 631.354,1046.57 638.213,1057.4 645.072,1067.98 651.931,1078.34 658.79,1088.47 665.649,1098.38 672.508,1108.13 679.367,1117.74 686.226,1127.15 693.085,1136.44 699.944,1145.62 706.803,1154.65 713.662,1163.48 720.521,1172.18 727.38,1180.72 734.239,1189.09 741.098,1197.36 747.957,1205.4 754.816,1213.24 761.675,1220.91 768.534,1228.46 775.393,1235.84 782.252,1243.01 789.111,1250.06 795.97,1256.98 802.829,1263.69 809.688,1270.26 816.547,1276.7 823.406,1283 830.265,1289.18 837.124,1295.21 843.983,1301.07 850.842,1306.74 857.701,1312.16 864.56,1317.33 871.419,1322.27 878.278,1327.05 885.137,1331.66 891.996,1336.01 898.855,1340.17 905.714,1344.08 912.573,1347.68 919.432,1351.01 926.291,1354.07 933.15,1356.79 940.009,1359.18 946.868,1361.22 953.727,1362.87 960.586,1364.09 967.445,1364.89 974.304,1365.29 981.163,1365.31 988.022,1364.98 994.881,1364.24 1001.74,1363.09 1008.6,1361.67 1015.46,1360 1022.32,1358.04 1029.18,1355.75 1036.04,1353.09 1042.89,1350.04 1049.75,1346.61 1056.61,1342.84 1063.47,1338.81 1070.33,1334.53 1077.19,1329.98 1084.05,1325.12 1090.91,1319.96 1097.77,1314.57 1104.62,1308.9 1111.48,1302.93 1118.34,1296.79 1125.2,1290.55 1132.06,1284.19 1138.92,1277.67 1145.78,1271 1152.64,1264.27 1159.5,1257.5 1166.36,1250.67 1173.21,1243.75 1180.07,1236.73 1186.93,1229.56 1193.79,1222.31 1200.65,1215.03 1207.51,1207.74 1214.37,1200.49 1221.23,1193.22 1228.09,1185.94 1234.95,1178.64 1241.8,1171.27 1248.66,1163.92 1255.52,1156.6 1262.38,1149.33 1269.24,1142.07 1276.1,1134.8 1282.96,1127.57 1289.82,1120.43 1296.68,1113.31 1303.54,1106.29 1310.39,1099.41 1317.25,1092.63 1324.11,1085.93 1330.97,1079.35 1337.83,1072.93 1344.69,1066.6 1351.55,1060.27 1358.41,1054.04 1365.27,1047.96 1372.13,1042.04 1378.98,1036.27 1385.84,1030.69 1392.7,1025.3 1399.56,1020.05 1406.42,1014.93 1413.28,1009.89 1420.14,1004.85 1427,999.903 1433.86,995.047 1440.72,990.266 1447.57,985.603 1454.43,981.013 1461.29,976.391 1468.15,971.837 1475.01,967.431 1481.87,963.174 1488.73,958.956 1495.59,954.762 1502.45,950.626 1509.31,946.469 1516.16,942.315 1523.02,938.217 1529.88,934.189 1536.74,930.215 1543.6,926.29 1550.46,922.378 1557.32,918.371 1564.18,914.287 1571.04,910.234 1577.9,906.218 1584.75,902.2 1591.61,898.186 1598.47,894.122 1605.33,889.993 1612.19,885.848 1619.05,881.634 1625.91,877.36 1632.77,873.056 1639.63,868.704 1646.49,864.322 1653.34,859.921 1660.2,855.477 1667.06,851.009 1673.92,846.529 1680.78,842.052 1687.64,837.622 1694.5,833.221 1701.36,828.861 1708.22,824.495 1715.08,820.12 1721.93,815.753 1728.79,811.326 1735.65,806.834 1742.51,802.393 1749.37,797.962 1756.23,793.552 1763.09,789.262 1769.95,785.073 1776.81,780.929 1783.67,776.808 1790.52,772.716 1797.38,768.714 1804.24,764.818 1811.1,761.046 1817.96,757.394 1824.82,753.925 1831.68,750.698 1838.54,747.635 1845.4,744.659 1852.26,741.777 1859.11,738.982 1865.97,736.293 1872.83,733.689 1879.69,731.19 1886.55,728.837 1893.41,726.596 1900.27,724.537 1907.13,722.696 1913.99,721.041 1920.85,719.502 1927.7,718.094 1934.56,716.801 1941.42,715.635 1948.28,714.572 1955.14,713.591 1962,712.753 1968.86,712.032 1975.72,711.409 1982.58,710.882 1989.44,710.457 1996.29,710.176 2003.15,710.016 2010.01,709.959 2016.87,710.014 2023.73,710.169 2030.59,710.429 2037.45,710.805 2044.31,711.286 2051.17,711.87 2058.02,712.531 2064.88,713.271 2071.74,714.08 2078.6,714.921 2085.46,715.774 2092.32,716.628 2099.18,717.469 2106.04,718.305 2112.9,719.152 2119.76,720.029 2126.61,720.954 2133.47,721.965 2140.33,722.977 2147.19,723.947 2154.05,724.914 2160.91,725.827 2167.77,726.836 2174.63,727.896 2181.49,728.782 2188.35,729.474 2195.2,730.207 2202.06,731.14 2208.92,732.138 2215.78,733.22 2222.64,734.508 2229.5,735.569 2236.36,736.516 2243.22,737.471 2250.08,738.508 2256.94,740.131 2263.79,742.171 2270.65,744.65 2277.51,746.634 2284.37,747.578 2291.23,748.28 "/>
<path clip-path="url(#clip500)" d="M2010.47 250.738 L2280.29 250.738 L2280.29 95.2176 L2010.47 95.2176  Z" fill="#ffffff" fill-rule="evenodd" fill-opacity="1"/>
<polyline clip-path="url(#clip500)" style="stroke:#000000; stroke-linecap:round; stroke-linejoin:round; stroke-width:4; stroke-opacity:1; fill:none" points="2010.47,250.738 2280.29,250.738 2280.29,95.2176 2010.47,95.2176 2010.47,250.738 "/>
<polyline clip-path="url(#clip500)" style="stroke:#009af9; stroke-linecap:round; stroke-linejoin:round; stroke-width:4; stroke-opacity:1; fill:none" points="2034.63,147.058 2179.55,147.058 "/>
<path clip-path="url(#clip500)" d="M2217.55 166.745 Q2215.75 171.375 2214.03 172.787 Q2212.32 174.199 2209.45 174.199 L2206.05 174.199 L2206.05 170.634 L2208.55 170.634 Q2210.31 170.634 2211.28 169.8 Q2212.25 168.967 2213.43 165.865 L2214.19 163.921 L2203.71 138.412 L2208.22 138.412 L2216.32 158.689 L2224.43 138.412 L2228.94 138.412 L2217.55 166.745 Z" fill="#000000" fill-rule="nonzero" fill-opacity="1" /><path clip-path="url(#clip500)" d="M2236.23 160.402 L2243.87 160.402 L2243.87 134.037 L2235.56 135.703 L2235.56 131.444 L2243.82 129.778 L2248.5 129.778 L2248.5 160.402 L2256.14 160.402 L2256.14 164.338 L2236.23 164.338 L2236.23 160.402 Z" fill="#000000" fill-rule="nonzero" fill-opacity="1" /><polyline clip-path="url(#clip500)" style="stroke:#e26f46; stroke-linecap:round; stroke-linejoin:round; stroke-width:4; stroke-opacity:1; fill:none" points="2034.63,198.898 2179.55,198.898 "/>
<path clip-path="url(#clip500)" d="M2217.55 218.585 Q2215.75 223.215 2214.03 224.627 Q2212.32 226.039 2209.45 226.039 L2206.05 226.039 L2206.05 222.474 L2208.55 222.474 Q2210.31 222.474 2211.28 221.64 Q2212.25 220.807 2213.43 217.705 L2214.19 215.761 L2203.71 190.252 L2208.22 190.252 L2216.32 210.529 L2224.43 190.252 L2228.94 190.252 L2217.55 218.585 Z" fill="#000000" fill-rule="nonzero" fill-opacity="1" /><path clip-path="url(#clip500)" d="M2239.45 212.242 L2255.77 212.242 L2255.77 216.178 L2233.82 216.178 L2233.82 212.242 Q2236.49 209.488 2241.07 204.858 Q2245.68 200.205 2246.86 198.863 Q2249.1 196.34 2249.98 194.604 Q2250.88 192.844 2250.88 191.155 Q2250.88 188.4 2248.94 186.664 Q2247.02 184.928 2243.92 184.928 Q2241.72 184.928 2239.26 185.692 Q2236.83 186.455 2234.06 188.006 L2234.06 183.284 Q2236.88 182.15 2239.33 181.571 Q2241.79 180.993 2243.82 180.993 Q2249.19 180.993 2252.39 183.678 Q2255.58 186.363 2255.58 190.854 Q2255.58 192.983 2254.77 194.905 Q2253.99 196.803 2251.88 199.395 Q2251.3 200.067 2248.2 203.284 Q2245.1 206.479 2239.45 212.242 Z" fill="#000000" fill-rule="nonzero" fill-opacity="1" /></svg>
