<?xml version="1.0" encoding="utf-8"?>
<svg xmlns="http://www.w3.org/2000/svg" xmlns:xlink="http://www.w3.org/1999/xlink" width="600" height="400" viewBox="0 0 2400 1600">
<defs>
  <clipPath id="clip260">
    <rect x="0" y="0" width="2400" height="1600"/>
  </clipPath>
</defs>
<path clip-path="url(#clip260)" d="M0 1600 L2400 1600 L2400 0 L0 0  Z" fill="#ffffff" fill-rule="evenodd" fill-opacity="1"/>
<defs>
  <clipPath id="clip261">
    <rect x="480" y="0" width="1681" height="1600"/>
  </clipPath>
</defs>
<path clip-path="url(#clip260)" d="M178.867 1486.45 L2352.76 1486.45 L2352.76 47.2441 L178.867 47.2441  Z" fill="#ffffff" fill-rule="evenodd" fill-opacity="1"/>
<defs>
  <clipPath id="clip262">
    <rect x="178" y="47" width="2175" height="1440"/>
  </clipPath>
</defs>
<polyline clip-path="url(#clip262)" style="stroke:#000000; stroke-linecap:round; stroke-linejoin:round; stroke-width:2; stroke-opacity:0.1; fill:none" points="240.392,1486.45 240.392,47.2441 "/>
<polyline clip-path="url(#clip262)" style="stroke:#000000; stroke-linecap:round; stroke-linejoin:round; stroke-width:2; stroke-opacity:0.1; fill:none" points="924.005,1486.45 924.005,47.2441 "/>
<polyline clip-path="url(#clip262)" style="stroke:#000000; stroke-linecap:round; stroke-linejoin:round; stroke-width:2; stroke-opacity:0.1; fill:none" points="1607.62,1486.45 1607.62,47.2441 "/>
<polyline clip-path="url(#clip262)" style="stroke:#000000; stroke-linecap:round; stroke-linejoin:round; stroke-width:2; stroke-opacity:0.1; fill:none" points="2291.23,1486.45 2291.23,47.2441 "/>
<polyline clip-path="url(#clip260)" style="stroke:#000000; stroke-linecap:round; stroke-linejoin:round; stroke-width:4; stroke-opacity:1; fill:none" points="178.867,1486.45 2352.76,1486.45 "/>
<polyline clip-path="url(#clip260)" style="stroke:#000000; stroke-linecap:round; stroke-linejoin:round; stroke-width:4; stroke-opacity:1; fill:none" points="240.392,1486.45 240.392,1467.55 "/>
<polyline clip-path="url(#clip260)" style="stroke:#000000; stroke-linecap:round; stroke-linejoin:round; stroke-width:4; stroke-opacity:1; fill:none" points="924.005,1486.45 924.005,1467.55 "/>
<polyline clip-path="url(#clip260)" style="stroke:#000000; stroke-linecap:round; stroke-linejoin:round; stroke-width:4; stroke-opacity:1; fill:none" points="1607.62,1486.45 1607.62,1467.55 "/>
<polyline clip-path="url(#clip260)" style="stroke:#000000; stroke-linecap:round; stroke-linejoin:round; stroke-width:4; stroke-opacity:1; fill:none" points="2291.23,1486.45 2291.23,1467.55 "/>
<path clip-path="url(#clip260)" d="M217.776 1517.37 Q214.165 1517.37 212.336 1520.93 Q210.531 1524.47 210.531 1531.6 Q210.531 1538.71 212.336 1542.27 Q214.165 1545.82 217.776 1545.82 Q221.41 1545.82 223.216 1542.27 Q225.045 1538.71 225.045 1531.6 Q225.045 1524.47 223.216 1520.93 Q221.41 1517.37 217.776 1517.37 M217.776 1513.66 Q223.586 1513.66 226.642 1518.27 Q229.721 1522.85 229.721 1531.6 Q229.721 1540.33 226.642 1544.94 Q223.586 1549.52 217.776 1549.52 Q211.966 1549.52 208.887 1544.94 Q205.832 1540.33 205.832 1531.6 Q205.832 1522.85 208.887 1518.27 Q211.966 1513.66 217.776 1513.66 Z" fill="#000000" fill-rule="nonzero" fill-opacity="1" /><path clip-path="url(#clip260)" d="M237.938 1542.97 L242.822 1542.97 L242.822 1548.85 L237.938 1548.85 L237.938 1542.97 Z" fill="#000000" fill-rule="nonzero" fill-opacity="1" /><path clip-path="url(#clip260)" d="M263.007 1517.37 Q259.396 1517.37 257.568 1520.93 Q255.762 1524.47 255.762 1531.6 Q255.762 1538.71 257.568 1542.27 Q259.396 1545.82 263.007 1545.82 Q266.642 1545.82 268.447 1542.27 Q270.276 1538.71 270.276 1531.6 Q270.276 1524.47 268.447 1520.93 Q266.642 1517.37 263.007 1517.37 M263.007 1513.66 Q268.818 1513.66 271.873 1518.27 Q274.952 1522.85 274.952 1531.6 Q274.952 1540.33 271.873 1544.94 Q268.818 1549.52 263.007 1549.52 Q257.197 1549.52 254.119 1544.94 Q251.063 1540.33 251.063 1531.6 Q251.063 1522.85 254.119 1518.27 Q257.197 1513.66 263.007 1513.66 Z" fill="#000000" fill-rule="nonzero" fill-opacity="1" /><path clip-path="url(#clip260)" d="M901.887 1517.37 Q898.276 1517.37 896.447 1520.93 Q894.642 1524.47 894.642 1531.6 Q894.642 1538.71 896.447 1542.27 Q898.276 1545.82 901.887 1545.82 Q905.521 1545.82 907.327 1542.27 Q909.155 1538.71 909.155 1531.6 Q909.155 1524.47 907.327 1520.93 Q905.521 1517.37 901.887 1517.37 M901.887 1513.66 Q907.697 1513.66 910.753 1518.27 Q913.831 1522.85 913.831 1531.6 Q913.831 1540.33 910.753 1544.94 Q907.697 1549.52 901.887 1549.52 Q896.077 1549.52 892.998 1544.94 Q889.942 1540.33 889.942 1531.6 Q889.942 1522.85 892.998 1518.27 Q896.077 1513.66 901.887 1513.66 Z" fill="#000000" fill-rule="nonzero" fill-opacity="1" /><path clip-path="url(#clip260)" d="M922.049 1542.97 L926.933 1542.97 L926.933 1548.85 L922.049 1548.85 L922.049 1542.97 Z" fill="#000000" fill-rule="nonzero" fill-opacity="1" /><path clip-path="url(#clip260)" d="M937.164 1514.29 L955.521 1514.29 L955.521 1518.22 L941.447 1518.22 L941.447 1526.7 Q942.465 1526.35 943.484 1526.19 Q944.502 1526 945.521 1526 Q951.308 1526 954.687 1529.17 Q958.067 1532.34 958.067 1537.76 Q958.067 1543.34 954.595 1546.44 Q951.123 1549.52 944.803 1549.52 Q942.627 1549.52 940.359 1549.15 Q938.114 1548.78 935.706 1548.04 L935.706 1543.34 Q937.789 1544.47 940.012 1545.03 Q942.234 1545.58 944.711 1545.58 Q948.715 1545.58 951.053 1543.48 Q953.391 1541.37 953.391 1537.76 Q953.391 1534.15 951.053 1532.04 Q948.715 1529.94 944.711 1529.94 Q942.836 1529.94 940.961 1530.35 Q939.109 1530.77 937.164 1531.65 L937.164 1514.29 Z" fill="#000000" fill-rule="nonzero" fill-opacity="1" /><path clip-path="url(#clip260)" d="M1574.77 1544.91 L1582.41 1544.91 L1582.41 1518.55 L1574.1 1520.21 L1574.1 1515.95 L1582.36 1514.29 L1587.04 1514.29 L1587.04 1544.91 L1594.68 1544.91 L1594.68 1548.85 L1574.77 1548.85 L1574.77 1544.91 Z" fill="#000000" fill-rule="nonzero" fill-opacity="1" /><path clip-path="url(#clip260)" d="M1604.12 1542.97 L1609.01 1542.97 L1609.01 1548.85 L1604.12 1548.85 L1604.12 1542.97 Z" fill="#000000" fill-rule="nonzero" fill-opacity="1" /><path clip-path="url(#clip260)" d="M1629.19 1517.37 Q1625.58 1517.37 1623.75 1520.93 Q1621.95 1524.47 1621.95 1531.6 Q1621.95 1538.71 1623.75 1542.27 Q1625.58 1545.82 1629.19 1545.82 Q1632.83 1545.82 1634.63 1542.27 Q1636.46 1538.71 1636.46 1531.6 Q1636.46 1524.47 1634.63 1520.93 Q1632.83 1517.37 1629.19 1517.37 M1629.19 1513.66 Q1635 1513.66 1638.06 1518.27 Q1641.14 1522.85 1641.14 1531.6 Q1641.14 1540.33 1638.06 1544.94 Q1635 1549.52 1629.19 1549.52 Q1623.38 1549.52 1620.3 1544.94 Q1617.25 1540.33 1617.25 1531.6 Q1617.25 1522.85 1620.3 1518.27 Q1623.38 1513.66 1629.19 1513.66 Z" fill="#000000" fill-rule="nonzero" fill-opacity="1" /><path clip-path="url(#clip260)" d="M2258.88 1544.91 L2266.52 1544.91 L2266.52 1518.55 L2258.21 1520.21 L2258.21 1515.95 L2266.47 1514.29 L2271.15 1514.29 L2271.15 1544.91 L2278.79 1544.91 L2278.79 1548.85 L2258.88 1548.85 L2258.88 1544.91 Z" fill="#000000" fill-rule="nonzero" fill-opacity="1" /><path clip-path="url(#clip260)" d="M2288.23 1542.97 L2293.12 1542.97 L2293.12 1548.85 L2288.23 1548.85 L2288.23 1542.97 Z" fill="#000000" fill-rule="nonzero" fill-opacity="1" /><path clip-path="url(#clip260)" d="M2303.35 1514.29 L2321.71 1514.29 L2321.71 1518.22 L2307.63 1518.22 L2307.63 1526.7 Q2308.65 1526.35 2309.67 1526.19 Q2310.69 1526 2311.71 1526 Q2317.49 1526 2320.87 1529.17 Q2324.25 1532.34 2324.25 1537.76 Q2324.25 1543.34 2320.78 1546.44 Q2317.31 1549.52 2310.99 1549.52 Q2308.81 1549.52 2306.54 1549.15 Q2304.3 1548.78 2301.89 1548.04 L2301.89 1543.34 Q2303.97 1544.47 2306.2 1545.03 Q2308.42 1545.58 2310.89 1545.58 Q2314.9 1545.58 2317.24 1543.48 Q2319.58 1541.37 2319.58 1537.76 Q2319.58 1534.15 2317.24 1532.04 Q2314.9 1529.94 2310.89 1529.94 Q2309.02 1529.94 2307.15 1530.35 Q2305.29 1530.77 2303.35 1531.65 L2303.35 1514.29 Z" fill="#000000" fill-rule="nonzero" fill-opacity="1" /><polyline clip-path="url(#clip262)" style="stroke:#000000; stroke-linecap:round; stroke-linejoin:round; stroke-width:2; stroke-opacity:0.1; fill:none" points="178.867,1429.43 2352.76,1429.43 "/>
<polyline clip-path="url(#clip262)" style="stroke:#000000; stroke-linecap:round; stroke-linejoin:round; stroke-width:2; stroke-opacity:0.1; fill:none" points="178.867,982.081 2352.76,982.081 "/>
<polyline clip-path="url(#clip262)" style="stroke:#000000; stroke-linecap:round; stroke-linejoin:round; stroke-width:2; stroke-opacity:0.1; fill:none" points="178.867,534.735 2352.76,534.735 "/>
<polyline clip-path="url(#clip262)" style="stroke:#000000; stroke-linecap:round; stroke-linejoin:round; stroke-width:2; stroke-opacity:0.1; fill:none" points="178.867,87.3891 2352.76,87.3891 "/>
<polyline clip-path="url(#clip260)" style="stroke:#000000; stroke-linecap:round; stroke-linejoin:round; stroke-width:4; stroke-opacity:1; fill:none" points="178.867,1486.45 178.867,47.2441 "/>
<polyline clip-path="url(#clip260)" style="stroke:#000000; stroke-linecap:round; stroke-linejoin:round; stroke-width:4; stroke-opacity:1; fill:none" points="178.867,1429.43 197.764,1429.43 "/>
<polyline clip-path="url(#clip260)" style="stroke:#000000; stroke-linecap:round; stroke-linejoin:round; stroke-width:4; stroke-opacity:1; fill:none" points="178.867,982.081 197.764,982.081 "/>
<polyline clip-path="url(#clip260)" style="stroke:#000000; stroke-linecap:round; stroke-linejoin:round; stroke-width:4; stroke-opacity:1; fill:none" points="178.867,534.735 197.764,534.735 "/>
<polyline clip-path="url(#clip260)" style="stroke:#000000; stroke-linecap:round; stroke-linejoin:round; stroke-width:4; stroke-opacity:1; fill:none" points="178.867,87.3891 197.764,87.3891 "/>
<path clip-path="url(#clip260)" d="M50.9921 1429.88 L80.6679 1429.88 L80.6679 1433.81 L50.9921 1433.81 L50.9921 1429.88 Z" fill="#000000" fill-rule="nonzero" fill-opacity="1" /><path clip-path="url(#clip260)" d="M91.5706 1442.77 L99.2095 1442.77 L99.2095 1416.41 L90.8993 1418.07 L90.8993 1413.81 L99.1632 1412.15 L103.839 1412.15 L103.839 1442.77 L111.478 1442.77 L111.478 1446.71 L91.5706 1446.71 L91.5706 1442.77 Z" fill="#000000" fill-rule="nonzero" fill-opacity="1" /><path clip-path="url(#clip260)" d="M130.922 1415.23 Q127.311 1415.23 125.482 1418.79 Q123.677 1422.33 123.677 1429.46 Q123.677 1436.57 125.482 1440.13 Q127.311 1443.67 130.922 1443.67 Q134.556 1443.67 136.362 1440.13 Q138.191 1436.57 138.191 1429.46 Q138.191 1422.33 136.362 1418.79 Q134.556 1415.23 130.922 1415.23 M130.922 1411.52 Q136.732 1411.52 139.788 1416.13 Q142.867 1420.71 142.867 1429.46 Q142.867 1438.19 139.788 1442.8 Q136.732 1447.38 130.922 1447.38 Q125.112 1447.38 122.033 1442.8 Q118.978 1438.19 118.978 1429.46 Q118.978 1420.71 122.033 1416.13 Q125.112 1411.52 130.922 1411.52 Z" fill="#000000" fill-rule="nonzero" fill-opacity="1" /><path clip-path="url(#clip260)" d="M130.922 967.88 Q127.311 967.88 125.482 971.445 Q123.677 974.986 123.677 982.116 Q123.677 989.222 125.482 992.787 Q127.311 996.329 130.922 996.329 Q134.556 996.329 136.362 992.787 Q138.191 989.222 138.191 982.116 Q138.191 974.986 136.362 971.445 Q134.556 967.88 130.922 967.88 M130.922 964.176 Q136.732 964.176 139.788 968.783 Q142.867 973.366 142.867 982.116 Q142.867 990.843 139.788 995.449 Q136.732 1000.03 130.922 1000.03 Q125.112 1000.03 122.033 995.449 Q118.978 990.843 118.978 982.116 Q118.978 973.366 122.033 968.783 Q125.112 964.176 130.922 964.176 Z" fill="#000000" fill-rule="nonzero" fill-opacity="1" /><path clip-path="url(#clip260)" d="M91.5706 548.08 L99.2095 548.08 L99.2095 521.714 L90.8993 523.381 L90.8993 519.122 L99.1632 517.455 L103.839 517.455 L103.839 548.08 L111.478 548.08 L111.478 552.015 L91.5706 552.015 L91.5706 548.08 Z" fill="#000000" fill-rule="nonzero" fill-opacity="1" /><path clip-path="url(#clip260)" d="M130.922 520.534 Q127.311 520.534 125.482 524.099 Q123.677 527.64 123.677 534.77 Q123.677 541.876 125.482 545.441 Q127.311 548.983 130.922 548.983 Q134.556 548.983 136.362 545.441 Q138.191 541.876 138.191 534.77 Q138.191 527.64 136.362 524.099 Q134.556 520.534 130.922 520.534 M130.922 516.83 Q136.732 516.83 139.788 521.437 Q142.867 526.02 142.867 534.77 Q142.867 543.497 139.788 548.103 Q136.732 552.686 130.922 552.686 Q125.112 552.686 122.033 548.103 Q118.978 543.497 118.978 534.77 Q118.978 526.02 122.033 521.437 Q125.112 516.83 130.922 516.83 Z" fill="#000000" fill-rule="nonzero" fill-opacity="1" /><path clip-path="url(#clip260)" d="M94.7882 100.734 L111.108 100.734 L111.108 104.669 L89.1632 104.669 L89.1632 100.734 Q91.8252 97.9794 96.4085 93.3498 Q101.015 88.697 102.196 87.3544 Q104.441 84.8313 105.321 83.0952 Q106.223 81.3359 106.223 79.6461 Q106.223 76.8915 104.279 75.1554 Q102.358 73.4193 99.2558 73.4193 Q97.0567 73.4193 94.603 74.1832 Q92.1725 74.9471 89.3947 76.498 L89.3947 71.7758 Q92.2188 70.6416 94.6724 70.0628 Q97.1261 69.4841 99.1632 69.4841 Q104.534 69.4841 107.728 72.1693 Q110.922 74.8545 110.922 79.3452 Q110.922 81.4748 110.112 83.3961 Q109.325 85.2942 107.219 87.8868 Q106.64 88.5581 103.538 91.7757 Q100.436 94.9701 94.7882 100.734 Z" fill="#000000" fill-rule="nonzero" fill-opacity="1" /><path clip-path="url(#clip260)" d="M130.922 73.1878 Q127.311 73.1878 125.482 76.7526 Q123.677 80.2943 123.677 87.4239 Q123.677 94.5303 125.482 98.0951 Q127.311 101.637 130.922 101.637 Q134.556 101.637 136.362 98.0951 Q138.191 94.5303 138.191 87.4239 Q138.191 80.2943 136.362 76.7526 Q134.556 73.1878 130.922 73.1878 M130.922 69.4841 Q136.732 69.4841 139.788 74.0906 Q142.867 78.6739 142.867 87.4239 Q142.867 96.1507 139.788 100.757 Q136.732 105.34 130.922 105.34 Q125.112 105.34 122.033 100.757 Q118.978 96.1507 118.978 87.4239 Q118.978 78.6739 122.033 74.0906 Q125.112 69.4841 130.922 69.4841 Z" fill="#000000" fill-rule="nonzero" fill-opacity="1" /><polyline clip-path="url(#clip262)" style="stroke:#009af9; stroke-linecap:round; stroke-linejoin:round; stroke-width:4; stroke-opacity:1; fill:none" points="240.392,915.471 247.251,940.604 254.11,964.804 260.969,988.236 267.828,1011.48 274.687,1033.97 281.546,1055.09 288.405,1075.11 295.264,1094.42 302.123,1112.81 308.982,1130.57 315.841,1148.08 322.7,1165.46 329.559,1182.55 336.418,1199.1 343.277,1214.97 350.136,1230.22 356.995,1244.89 363.854,1259.19 370.713,1273.09 377.572,1286.42 384.431,1299.22 391.29,1311.51 398.149,1323.23 405.008,1334.38 411.867,1344.97 418.726,1354.99 425.585,1364.43 432.444,1373.31 439.303,1381.65 446.162,1389.47 453.021,1396.79 459.88,1403.6 466.739,1409.89 473.598,1415.66 480.457,1420.9 487.316,1425.6 494.175,1429.77 501.034,1433.42 507.893,1436.61 514.752,1439.32 521.611,1441.57 528.47,1443.35 535.328,1444.63 542.188,1445.41 549.046,1445.72 555.905,1445.62 562.764,1445.17 569.623,1444.36 576.482,1443.2 583.341,1441.72 590.2,1439.97 597.059,1438.02 603.918,1435.84 610.777,1433.19 617.636,1430.04 624.495,1426.4 631.354,1422.32 638.213,1417.8 645.072,1412.81 651.931,1407.33 658.79,1401.37 665.649,1395.01 672.508,1388.28 679.367,1381.15 686.226,1373.64 693.085,1365.76 699.944,1357.56 706.803,1349.07 713.662,1340.31 720.521,1331.26 727.38,1321.96 734.239,1312.43 741.098,1302.71 747.957,1292.85 754.816,1283 761.675,1273.23 768.534,1263.45 775.393,1253.58 782.252,1243.68 789.111,1233.74 795.97,1223.8 802.829,1213.88 809.688,1203.98 816.547,1194.2 823.406,1184.62 830.265,1175.2 837.124,1165.89 843.983,1156.59 850.842,1147.29 857.701,1138.02 864.56,1128.86 871.419,1119.85 878.278,1110.95 885.137,1102.16 891.996,1093.45 898.855,1084.83 905.714,1076.29 912.573,1067.84 919.432,1059.5 926.291,1051.29 933.15,1043.14 940.009,1035.03 946.868,1027.02 953.727,1019.09 960.586,1011.22 967.445,1003.48 974.304,995.867 981.163,988.36 988.022,981.046 994.881,973.898 1001.74,966.869 1008.6,959.958 1015.46,953.15 1022.32,946.364 1029.18,939.55 1036.04,932.798 1042.89,926.188 1049.75,919.69 1056.61,913.234 1063.47,906.787 1070.33,900.383 1077.19,894.058 1084.05,887.826 1090.91,881.708 1097.77,875.662 1104.62,869.666 1111.48,863.751 1118.34,857.894 1125.2,852.086 1132.06,846.384 1138.92,840.762 1145.78,835.158 1152.64,829.486 1159.5,823.731 1166.36,817.967 1173.21,812.231 1180.07,806.528 1186.93,800.919 1193.79,795.417 1200.65,789.961 1207.51,784.553 1214.37,779.219 1221.23,773.955 1228.09,768.744 1234.95,763.552 1241.8,758.354 1248.66,753.244 1255.52,748.255 1262.38,743.376 1269.24,738.624 1276.1,733.955 1282.96,729.362 1289.82,724.875 1296.68,720.493 1303.54,716.288 1310.39,712.25 1317.25,708.326 1324.11,704.466 1330.97,700.642 1337.83,696.926 1344.69,693.361 1351.55,689.964 1358.41,686.775 1365.27,683.777 1372.13,681.015 1378.98,678.465 1385.84,676.117 1392.7,673.955 1399.56,671.972 1406.42,670.222 1413.28,668.636 1420.14,667.245 1427,666.148 1433.86,665.318 1440.72,664.731 1447.57,664.394 1454.43,664.354 1461.29,664.537 1468.15,664.906 1475.01,665.427 1481.87,666.076 1488.73,666.863 1495.59,667.885 1502.45,669.199 1509.31,670.812 1516.16,672.682 1523.02,674.761 1529.88,677.063 1536.74,679.545 1543.6,682.218 1550.46,685.087 1557.32,688.052 1564.18,691.176 1571.04,694.509 1577.9,697.99 1584.75,701.588 1591.61,705.31 1598.47,709.153 1605.33,713.125 1612.19,717.244 1619.05,721.459 1625.91,725.738 1632.77,730.095 1639.63,734.505 1646.49,738.987 1653.34,743.62 1660.2,748.422 1667.06,753.338 1673.92,758.357 1680.78,763.58 1687.64,768.964 1694.5,774.423 1701.36,779.964 1708.22,785.537 1715.08,791.164 1721.93,796.809 1728.79,802.425 1735.65,808.021 1742.51,813.62 1749.37,819.267 1756.23,824.889 1763.09,830.449 1769.95,835.995 1776.81,841.574 1783.67,847.2 1790.52,852.801 1797.38,858.354 1804.24,863.932 1811.1,869.508 1817.96,874.971 1824.82,880.349 1831.68,885.639 1838.54,890.834 1845.4,895.939 1852.26,900.877 1859.11,905.67 1865.97,910.33 1872.83,914.869 1879.69,919.353 1886.55,923.737 1893.41,928.007 1900.27,932.179 1907.13,936.22 1913.99,940.094 1920.85,943.871 1927.7,947.607 1934.56,951.208 1941.42,954.689 1948.28,958.045 1955.14,961.293 1962,964.465 1968.86,967.5 1975.72,970.357 1982.58,973.104 1989.44,975.706 1996.29,978.141 2003.15,980.412 2010.01,982.498 2016.87,984.425 2023.73,986.177 2030.59,987.761 2037.45,989.221 2044.31,990.554 2051.17,991.763 2058.02,992.839 2064.88,993.771 2071.74,994.558 2078.6,995.206 2085.46,995.746 2092.32,996.199 2099.18,996.579 2106.04,996.895 2112.9,997.175 2119.76,997.419 2126.61,997.655 2133.47,997.866 2140.33,997.976 2147.19,998.105 2154.05,998.351 2160.91,998.661 2167.77,998.953 2174.63,999.329 2181.49,999.812 2188.35,1000.24 2195.2,1000.6 2202.06,1000.82 2208.92,1000.81 2215.78,1000.57 2222.64,1000.41 2229.5,1000.43 2236.36,1000.47 2243.22,1000.33 2250.08,1000.14 2256.94,999.718 2263.79,999.77 2270.65,1000.86 2277.51,1001.78 2284.37,1002.55 2291.23,1004.01 "/>
<polyline clip-path="url(#clip262)" style="stroke:#e26f46; stroke-linecap:round; stroke-linejoin:round; stroke-width:4; stroke-opacity:1; fill:none" points="240.392,87.9763 247.251,113.02 254.11,138.903 260.969,165.307 267.828,191.366 274.687,216.568 281.546,241.686 288.405,266.625 295.264,290.881 302.123,315.249 308.982,339.724 315.841,364.33 322.7,388.736 329.559,412.822 336.418,436.246 343.277,459.025 350.136,481.365 356.995,503.227 363.854,524.386 370.713,544.833 377.572,564.608 384.431,583.708 391.29,602.212 398.149,620.144 405.008,637.504 411.867,654.298 418.726,670.545 425.585,686.296 432.444,701.629 439.303,716.569 446.162,731.112 453.021,745.283 459.88,759.115 466.739,772.644 473.598,785.895 480.457,798.903 487.316,811.704 494.175,824.324 501.034,836.805 507.893,849.16 514.752,861.39 521.611,873.492 528.47,885.475 535.328,897.409 542.188,909.26 549.046,920.984 555.905,932.622 562.764,944.177 569.623,955.7 576.482,967.198 583.341,978.627 590.2,990.057 597.059,1001.5 603.918,1012.89 610.777,1024.07 617.636,1035.04 624.495,1045.78 631.354,1056.3 638.213,1066.64 645.072,1076.84 651.931,1086.9 658.79,1096.82 665.649,1106.56 672.508,1116.03 679.367,1125.29 686.226,1134.43 693.085,1143.35 699.944,1152.07 706.803,1160.64 713.662,1169.11 720.521,1177.45 727.38,1185.67 734.239,1193.79 741.098,1201.81 747.957,1209.68 754.816,1217.39 761.675,1224.98 768.534,1232.43 775.393,1239.68 782.252,1246.7 789.111,1253.55 795.97,1260.26 802.829,1266.85 809.688,1273.33 816.547,1279.7 823.406,1285.87 830.265,1291.83 837.124,1297.55 843.983,1303.09 850.842,1308.47 857.701,1313.64 864.56,1318.58 871.419,1323.24 878.278,1327.63 885.137,1331.8 891.996,1335.77 898.855,1339.48 905.714,1342.95 912.573,1346.16 919.432,1349.08 926.291,1351.71 933.15,1354.05 940.009,1356.13 946.868,1357.89 953.727,1359.25 960.586,1360.21 967.445,1360.79 974.304,1361.05 981.163,1360.99 988.022,1360.52 994.881,1359.63 1001.74,1358.37 1008.6,1356.75 1015.46,1354.7 1022.32,1352.26 1029.18,1349.5 1036.04,1346.48 1042.89,1343.23 1049.75,1339.71 1056.61,1335.94 1063.47,1331.88 1070.33,1327.57 1077.19,1323.04 1084.05,1318.25 1090.91,1313.23 1097.77,1308.01 1104.62,1302.58 1111.48,1296.98 1118.34,1291.28 1125.2,1285.45 1132.06,1279.48 1138.92,1273.33 1145.78,1266.98 1152.64,1260.51 1159.5,1254.07 1166.36,1247.61 1173.21,1241.1 1180.07,1234.53 1186.93,1227.9 1193.79,1221.27 1200.65,1214.62 1207.51,1207.91 1214.37,1201.11 1221.23,1194.25 1228.09,1187.36 1234.95,1180.49 1241.8,1173.61 1248.66,1166.78 1255.52,1159.96 1262.38,1153.16 1269.24,1146.47 1276.1,1139.81 1282.96,1133.14 1289.82,1126.47 1296.68,1119.77 1303.54,1113.16 1310.39,1106.66 1317.25,1100.21 1324.11,1093.87 1330.97,1087.61 1337.83,1081.45 1344.69,1075.43 1351.55,1069.57 1358.41,1063.78 1365.27,1058.04 1372.13,1052.29 1378.98,1046.62 1385.84,1041.07 1392.7,1035.66 1399.56,1030.37 1406.42,1025.17 1413.28,1019.98 1420.14,1014.87 1427,1009.87 1433.86,1004.97 1440.72,1000.14 1447.57,995.401 1454.43,990.73 1461.29,986.085 1468.15,981.523 1475.01,977.066 1481.87,972.648 1488.73,968.265 1495.59,963.893 1502.45,959.531 1509.31,955.187 1516.16,950.89 1523.02,946.608 1529.88,942.31 1536.74,938.013 1543.6,933.769 1550.46,929.596 1557.32,925.468 1564.18,921.33 1571.04,917.183 1577.9,913.063 1584.75,908.993 1591.61,904.956 1598.47,900.924 1605.33,896.863 1612.19,892.728 1619.05,888.551 1625.91,884.361 1632.77,880.136 1639.63,875.851 1646.49,871.528 1653.34,867.192 1660.2,862.818 1667.06,858.391 1673.92,854.008 1680.78,849.714 1687.64,845.45 1694.5,841.186 1701.36,836.967 1708.22,832.829 1715.08,828.792 1721.93,824.817 1728.79,820.845 1735.65,816.908 1742.51,813.066 1749.37,809.251 1756.23,805.435 1763.09,801.664 1769.95,798.006 1776.81,794.393 1783.67,790.791 1790.52,787.24 1797.38,783.761 1804.24,780.399 1811.1,777.175 1817.96,774.045 1824.82,771.002 1831.68,768.057 1838.54,765.2 1845.4,762.397 1852.26,759.638 1859.11,756.972 1865.97,754.443 1872.83,752.042 1879.69,749.678 1886.55,747.35 1893.41,745.093 1900.27,742.975 1907.13,741.012 1913.99,739.193 1920.85,737.48 1927.7,735.834 1934.56,734.369 1941.42,733.033 1948.28,731.723 1955.14,730.46 1962,729.292 1968.86,728.212 1975.72,727.175 1982.58,726.203 1989.44,725.303 1996.29,724.514 2003.15,723.879 2010.01,723.386 2016.87,723.03 2023.73,722.774 2030.59,722.58 2037.45,722.455 2044.31,722.412 2051.17,722.436 2058.02,722.537 2064.88,722.721 2071.74,722.986 2078.6,723.344 2085.46,723.785 2092.32,724.289 2099.18,724.846 2106.04,725.487 2112.9,726.205 2119.76,726.979 2126.61,727.781 2133.47,728.571 2140.33,729.3 2147.19,730.086 2154.05,730.944 2160.91,731.891 2167.77,732.913 2174.63,734.004 2181.49,735.072 2188.35,736.2 2195.2,737.374 2202.06,738.636 2208.92,740.161 2215.78,741.761 2222.64,743.215 2229.5,744.598 2236.36,745.97 2243.22,747.174 2250.08,748.195 2256.94,749.082 2263.79,750.057 2270.65,751.205 2277.51,751.78 2284.37,752.082 2291.23,752.711 "/>
<path clip-path="url(#clip260)" d="M2010.47 250.738 L2280.29 250.738 L2280.29 95.2176 L2010.47 95.2176  Z" fill="#ffffff" fill-rule="evenodd" fill-opacity="1"/>
<polyline clip-path="url(#clip260)" style="stroke:#000000; stroke-linecap:round; stroke-linejoin:round; stroke-width:4; stroke-opacity:1; fill:none" points="2010.47,250.738 2280.29,250.738 2280.29,95.2176 2010.47,95.2176 2010.47,250.738 "/>
<polyline clip-path="url(#clip260)" style="stroke:#009af9; stroke-linecap:round; stroke-linejoin:round; stroke-width:4; stroke-opacity:1; fill:none" points="2034.63,147.058 2179.55,147.058 "/>
<path clip-path="url(#clip260)" d="M2217.55 166.745 Q2215.75 171.375 2214.03 172.787 Q2212.32 174.199 2209.45 174.199 L2206.05 174.199 L2206.05 170.634 L2208.55 170.634 Q2210.31 170.634 2211.28 169.8 Q2212.25 168.967 2213.43 165.865 L2214.19 163.921 L2203.71 138.412 L2208.22 138.412 L2216.32 158.689 L2224.43 138.412 L2228.94 138.412 L2217.55 166.745 Z" fill="#000000" fill-rule="nonzero" fill-opacity="1" /><path clip-path="url(#clip260)" d="M2236.23 160.402 L2243.87 160.402 L2243.87 134.037 L2235.56 135.703 L2235.56 131.444 L2243.82 129.778 L2248.5 129.778 L2248.5 160.402 L2256.14 160.402 L2256.14 164.338 L2236.23 164.338 L2236.23 160.402 Z" fill="#000000" fill-rule="nonzero" fill-opacity="1" /><polyline clip-path="url(#clip260)" style="stroke:#e26f46; stroke-linecap:round; stroke-linejoin:round; stroke-width:4; stroke-opacity:1; fill:none" points="2034.63,198.898 2179.55,198.898 "/>
<path clip-path="url(#clip260)" d="M2217.55 218.585 Q2215.75 223.215 2214.03 224.627 Q2212.32 226.039 2209.45 226.039 L2206.05 226.039 L2206.05 222.474 L2208.55 222.474 Q2210.31 222.474 2211.28 221.64 Q2212.25 220.807 2213.43 217.705 L2214.19 215.761 L2203.71 190.252 L2208.22 190.252 L2216.32 210.529 L2224.43 190.252 L2228.94 190.252 L2217.55 218.585 Z" fill="#000000" fill-rule="nonzero" fill-opacity="1" /><path clip-path="url(#clip260)" d="M2239.45 212.242 L2255.77 212.242 L2255.77 216.178 L2233.82 216.178 L2233.82 212.242 Q2236.49 209.488 2241.07 204.858 Q2245.68 200.205 2246.86 198.863 Q2249.1 196.34 2249.98 194.604 Q2250.88 192.844 2250.88 191.155 Q2250.88 188.4 2248.94 186.664 Q2247.02 184.928 2243.92 184.928 Q2241.72 184.928 2239.26 185.692 Q2236.83 186.455 2234.06 188.006 L2234.06 183.284 Q2236.88 182.15 2239.33 181.571 Q2241.79 180.993 2243.82 180.993 Q2249.19 180.993 2252.39 183.678 Q2255.58 186.363 2255.58 190.854 Q2255.58 192.983 2254.77 194.905 Q2253.99 196.803 2251.88 199.395 Q2251.3 200.067 2248.2 203.284 Q2245.1 206.479 2239.45 212.242 Z" fill="#000000" fill-rule="nonzero" fill-opacity="1" /></svg>
