<?xml version="1.0" encoding="utf-8"?>
<svg xmlns="http://www.w3.org/2000/svg" xmlns:xlink="http://www.w3.org/1999/xlink" width="600" height="400" viewBox="0 0 2400 1600">
<defs>
  <clipPath id="clip300">
    <rect x="0" y="0" width="2400" height="1600"/>
  </clipPath>
</defs>
<path clip-path="url(#clip300)" d="M0 1600 L2400 1600 L2400 0 L0 0  Z" fill="#ffffff" fill-rule="evenodd" fill-opacity="1"/>
<defs>
  <clipPath id="clip301">
    <rect x="480" y="0" width="1681" height="1600"/>
  </clipPath>
</defs>
<path clip-path="url(#clip300)" d="M178.867 1486.45 L2352.76 1486.45 L2352.76 47.2441 L178.867 47.2441  Z" fill="#ffffff" fill-rule="evenodd" fill-opacity="1"/>
<defs>
  <clipPath id="clip302">
    <rect x="178" y="47" width="2175" height="1440"/>
  </clipPath>
</defs>
<polyline clip-path="url(#clip302)" style="stroke:#000000; stroke-linecap:round; stroke-linejoin:round; stroke-width:2; stroke-opacity:0.1; fill:none" points="240.392,1486.45 240.392,47.2441 "/>
<polyline clip-path="url(#clip302)" style="stroke:#000000; stroke-linecap:round; stroke-linejoin:round; stroke-width:2; stroke-opacity:0.1; fill:none" points="924.005,1486.45 924.005,47.2441 "/>
<polyline clip-path="url(#clip302)" style="stroke:#000000; stroke-linecap:round; stroke-linejoin:round; stroke-width:2; stroke-opacity:0.1; fill:none" points="1607.62,1486.45 1607.62,47.2441 "/>
<polyline clip-path="url(#clip302)" style="stroke:#000000; stroke-linecap:round; stroke-linejoin:round; stroke-width:2; stroke-opacity:0.1; fill:none" points="2291.23,1486.45 2291.23,47.2441 "/>
<polyline clip-path="url(#clip300)" style="stroke:#000000; stroke-linecap:round; stroke-linejoin:round; stroke-width:4; stroke-opacity:1; fill:none" points="178.867,1486.45 2352.76,1486.45 "/>
<polyline clip-path="url(#clip300)" style="stroke:#000000; stroke-linecap:round; stroke-linejoin:round; stroke-width:4; stroke-opacity:1; fill:none" points="240.392,1486.45 240.392,1467.55 "/>
<polyline clip-path="url(#clip300)" style="stroke:#000000; stroke-linecap:round; stroke-linejoin:round; stroke-width:4; stroke-opacity:1; fill:none" points="924.005,1486.45 924.005,1467.55 "/>
<polyline clip-path="url(#clip300)" style="stroke:#000000; stroke-linecap:round; stroke-linejoin:round; stroke-width:4; stroke-opacity:1; fill:none" points="1607.62,1486.45 1607.62,1467.55 "/>
<polyline clip-path="url(#clip300)" style="stroke:#000000; stroke-linecap:round; stroke-linejoin:round; stroke-width:4; stroke-opacity:1; fill:none" points="2291.23,1486.45 2291.23,1467.55 "/>
<path clip-path="url(#clip300)" d="M217.776 1517.37 Q214.165 1517.37 212.336 1520.93 Q210.531 1524.47 210.531 1531.6 Q210.531 1538.71 212.336 1542.27 Q214.165 1545.82 217.776 1545.82 Q221.41 1545.82 223.216 1542.27 Q225.045 1538.71 225.045 1531.6 Q225.045 1524.47 223.216 1520.93 Q221.41 1517.37 217.776 1517.37 M217.776 1513.66 Q223.586 1513.66 226.642 1518.27 Q229.721 1522.85 229.721 1531.6 Q229.721 1540.33 226.642 1544.94 Q223.586 1549.52 217.776 1549.52 Q211.966 1549.52 208.887 1544.94 Q205.832 1540.33 205.832 1531.6 Q205.832 1522.85 208.887 1518.27 Q211.966 1513.66 217.776 1513.66 Z" fill="#000000" fill-rule="nonzero" fill-opacity="1" /><path clip-path="url(#clip300)" d="M237.938 1542.97 L242.822 1542.97 L242.822 1548.85 L237.938 1548.85 L237.938 1542.97 Z" fill="#000000" fill-rule="nonzero" fill-opacity="1" /><path clip-path="url(#clip300)" d="M263.007 1517.37 Q259.396 1517.37 257.568 1520.93 Q255.762 1524.47 255.762 1531.6 Q255.762 1538.71 257.568 1542.27 Q259.396 1545.82 263.007 1545.82 Q266.642 1545.82 268.447 1542.27 Q270.276 1538.71 270.276 1531.6 Q270.276 1524.47 268.447 1520.93 Q266.642 1517.37 263.007 1517.37 M263.007 1513.66 Q268.818 1513.66 271.873 1518.27 Q274.952 1522.85 274.952 1531.6 Q274.952 1540.33 271.873 1544.94 Q268.818 1549.52 263.007 1549.52 Q257.197 1549.52 254.119 1544.94 Q251.063 1540.33 251.063 1531.6 Q251.063 1522.85 254.119 1518.27 Q257.197 1513.66 263.007 1513.66 Z" fill="#000000" fill-rule="nonzero" fill-opacity="1" /><path clip-path="url(#clip300)" d="M901.887 1517.37 Q898.276 1517.37 896.447 1520.93 Q894.642 1524.47 894.642 1531.6 Q894.642 1538.71 896.447 1542.27 Q898.276 1545.82 901.887 1545.82 Q905.521 1545.82 907.327 1542.27 Q909.155 1538.71 909.155 1531.6 Q909.155 1524.47 907.327 1520.93 Q905.521 1517.37 901.887 1517.37 M901.887 1513.66 Q907.697 1513.66 910.753 1518.27 Q913.831 1522.85 913.831 1531.6 Q913.831 1540.33 910.753 1544.94 Q907.697 1549.52 901.887 1549.52 Q896.077 1549.52 892.998 1544.94 Q889.942 1540.33 889.942 1531.6 Q889.942 1522.85 892.998 1518.27 Q896.077 1513.66 901.887 1513.66 Z" fill="#000000" fill-rule="nonzero" fill-opacity="1" /><path clip-path="url(#clip300)" d="M922.049 1542.97 L926.933 1542.97 L926.933 1548.85 L922.049 1548.85 L922.049 1542.97 Z" fill="#000000" fill-rule="nonzero" fill-opacity="1" /><path clip-path="url(#clip300)" d="M937.164 1514.29 L955.521 1514.29 L955.521 1518.22 L941.447 1518.22 L941.447 1526.7 Q942.465 1526.35 943.484 1526.19 Q944.502 1526 945.521 1526 Q951.308 1526 954.687 1529.17 Q958.067 1532.34 958.067 1537.76 Q958.067 1543.34 954.595 1546.44 Q951.123 1549.52 944.803 1549.52 Q942.627 1549.52 940.359 1549.15 Q938.114 1548.78 935.706 1548.04 L935.706 1543.34 Q937.789 1544.47 940.012 1545.03 Q942.234 1545.58 944.711 1545.58 Q948.715 1545.58 951.053 1543.48 Q953.391 1541.37 953.391 1537.76 Q953.391 1534.15 951.053 1532.04 Q948.715 1529.94 944.711 1529.94 Q942.836 1529.94 940.961 1530.35 Q939.109 1530.77 937.164 1531.65 L937.164 1514.29 Z" fill="#000000" fill-rule="nonzero" fill-opacity="1" /><path clip-path="url(#clip300)" d="M1574.77 1544.91 L1582.41 1544.91 L1582.41 1518.55 L1574.1 1520.21 L1574.1 1515.95 L1582.36 1514.29 L1587.04 1514.29 L1587.04 1544.91 L1594.68 1544.91 L1594.68 1548.85 L1574.77 1548.85 L1574.77 1544.91 Z" fill="#000000" fill-rule="nonzero" fill-opacity="1" /><path clip-path="url(#clip300)" d="M1604.12 1542.97 L1609.01 1542.97 L1609.01 1548.85 L1604.12 1548.85 L1604.12 1542.97 Z" fill="#000000" fill-rule="nonzero" fill-opacity="1" /><path clip-path="url(#clip300)" d="M1629.19 1517.37 Q1625.58 1517.37 1623.75 1520.93 Q1621.95 1524.47 1621.95 1531.6 Q1621.95 1538.71 1623.75 1542.27 Q1625.58 1545.82 1629.19 1545.82 Q1632.83 1545.82 1634.63 1542.27 Q1636.46 1538.71 1636.46 1531.6 Q1636.46 1524.47 1634.63 1520.93 Q1632.83 1517.37 1629.19 1517.37 M1629.19 1513.66 Q1635 1513.66 1638.06 1518.27 Q1641.14 1522.85 1641.14 1531.6 Q1641.14 1540.33 1638.06 1544.94 Q1635 1549.52 1629.19 1549.52 Q1623.38 1549.52 1620.3 1544.94 Q1617.25 1540.33 1617.25 1531.6 Q1617.25 1522.85 1620.3 1518.27 Q1623.38 1513.66 1629.19 1513.66 Z" fill="#000000" fill-rule="nonzero" fill-opacity="1" /><path clip-path="url(#clip300)" d="M2258.88 1544.91 L2266.52 1544.91 L2266.52 1518.55 L2258.21 1520.21 L2258.21 1515.95 L2266.47 1514.29 L2271.15 1514.29 L2271.15 1544.91 L2278.79 1544.91 L2278.79 1548.85 L2258.88 1548.85 L2258.88 1544.91 Z" fill="#000000" fill-rule="nonzero" fill-opacity="1" /><path clip-path="url(#clip300)" d="M2288.23 1542.97 L2293.12 1542.97 L2293.12 1548.85 L2288.23 1548.85 L2288.23 1542.97 Z" fill="#000000" fill-rule="nonzero" fill-opacity="1" /><path clip-path="url(#clip300)" d="M2303.35 1514.29 L2321.71 1514.29 L2321.71 1518.22 L2307.63 1518.22 L2307.63 1526.7 Q2308.65 1526.35 2309.67 1526.19 Q2310.69 1526 2311.71 1526 Q2317.49 1526 2320.87 1529.17 Q2324.25 1532.34 2324.25 1537.76 Q2324.25 1543.34 2320.78 1546.44 Q2317.31 1549.52 2310.99 1549.52 Q2308.81 1549.52 2306.54 1549.15 Q2304.3 1548.78 2301.89 1548.04 L2301.89 1543.34 Q2303.97 1544.47 2306.2 1545.03 Q2308.42 1545.58 2310.89 1545.58 Q2314.9 1545.58 2317.24 1543.48 Q2319.58 1541.37 2319.58 1537.76 Q2319.58 1534.15 2317.24 1532.04 Q2314.9 1529.94 2310.89 1529.94 Q2309.02 1529.94 2307.15 1530.35 Q2305.29 1530.77 2303.35 1531.65 L2303.35 1514.29 Z" fill="#000000" fill-rule="nonzero" fill-opacity="1" /><polyline clip-path="url(#clip302)" style="stroke:#000000; stroke-linecap:round; stroke-linejoin:round; stroke-width:2; stroke-opacity:0.1; fill:none" points="178.867,1427.45 2352.76,1427.45 "/>
<polyline clip-path="url(#clip302)" style="stroke:#000000; stroke-linecap:round; stroke-linejoin:round; stroke-width:2; stroke-opacity:0.1; fill:none" points="178.867,974.86 2352.76,974.86 "/>
<polyline clip-path="url(#clip302)" style="stroke:#000000; stroke-linecap:round; stroke-linejoin:round; stroke-width:2; stroke-opacity:0.1; fill:none" points="178.867,522.267 2352.76,522.267 "/>
<polyline clip-path="url(#clip302)" style="stroke:#000000; stroke-linecap:round; stroke-linejoin:round; stroke-width:2; stroke-opacity:0.1; fill:none" points="178.867,69.674 2352.76,69.674 "/>
<polyline clip-path="url(#clip300)" style="stroke:#000000; stroke-linecap:round; stroke-linejoin:round; stroke-width:4; stroke-opacity:1; fill:none" points="178.867,1486.45 178.867,47.2441 "/>
<polyline clip-path="url(#clip300)" style="stroke:#000000; stroke-linecap:round; stroke-linejoin:round; stroke-width:4; stroke-opacity:1; fill:none" points="178.867,1427.45 197.764,1427.45 "/>
<polyline clip-path="url(#clip300)" style="stroke:#000000; stroke-linecap:round; stroke-linejoin:round; stroke-width:4; stroke-opacity:1; fill:none" points="178.867,974.86 197.764,974.86 "/>
<polyline clip-path="url(#clip300)" style="stroke:#000000; stroke-linecap:round; stroke-linejoin:round; stroke-width:4; stroke-opacity:1; fill:none" points="178.867,522.267 197.764,522.267 "/>
<polyline clip-path="url(#clip300)" style="stroke:#000000; stroke-linecap:round; stroke-linejoin:round; stroke-width:4; stroke-opacity:1; fill:none" points="178.867,69.674 197.764,69.674 "/>
<path clip-path="url(#clip300)" d="M50.9921 1427.9 L80.6679 1427.9 L80.6679 1431.84 L50.9921 1431.84 L50.9921 1427.9 Z" fill="#000000" fill-rule="nonzero" fill-opacity="1" /><path clip-path="url(#clip300)" d="M91.5706 1440.8 L99.2095 1440.8 L99.2095 1414.43 L90.8993 1416.1 L90.8993 1411.84 L99.1632 1410.17 L103.839 1410.17 L103.839 1440.8 L111.478 1440.8 L111.478 1444.73 L91.5706 1444.73 L91.5706 1440.8 Z" fill="#000000" fill-rule="nonzero" fill-opacity="1" /><path clip-path="url(#clip300)" d="M130.922 1413.25 Q127.311 1413.25 125.482 1416.82 Q123.677 1420.36 123.677 1427.49 Q123.677 1434.59 125.482 1438.16 Q127.311 1441.7 130.922 1441.7 Q134.556 1441.7 136.362 1438.16 Q138.191 1434.59 138.191 1427.49 Q138.191 1420.36 136.362 1416.82 Q134.556 1413.25 130.922 1413.25 M130.922 1409.55 Q136.732 1409.55 139.788 1414.15 Q142.867 1418.74 142.867 1427.49 Q142.867 1436.21 139.788 1440.82 Q136.732 1445.4 130.922 1445.4 Q125.112 1445.4 122.033 1440.82 Q118.978 1436.21 118.978 1427.49 Q118.978 1418.74 122.033 1414.15 Q125.112 1409.55 130.922 1409.55 Z" fill="#000000" fill-rule="nonzero" fill-opacity="1" /><path clip-path="url(#clip300)" d="M130.922 960.659 Q127.311 960.659 125.482 964.223 Q123.677 967.765 123.677 974.895 Q123.677 982.001 125.482 985.566 Q127.311 989.108 130.922 989.108 Q134.556 989.108 136.362 985.566 Q138.191 982.001 138.191 974.895 Q138.191 967.765 136.362 964.223 Q134.556 960.659 130.922 960.659 M130.922 956.955 Q136.732 956.955 139.788 961.561 Q142.867 966.145 142.867 974.895 Q142.867 983.621 139.788 988.228 Q136.732 992.811 130.922 992.811 Q125.112 992.811 122.033 988.228 Q118.978 983.621 118.978 974.895 Q118.978 966.145 122.033 961.561 Q125.112 956.955 130.922 956.955 Z" fill="#000000" fill-rule="nonzero" fill-opacity="1" /><path clip-path="url(#clip300)" d="M91.5706 535.612 L99.2095 535.612 L99.2095 509.246 L90.8993 510.913 L90.8993 506.654 L99.1632 504.987 L103.839 504.987 L103.839 535.612 L111.478 535.612 L111.478 539.547 L91.5706 539.547 L91.5706 535.612 Z" fill="#000000" fill-rule="nonzero" fill-opacity="1" /><path clip-path="url(#clip300)" d="M130.922 508.066 Q127.311 508.066 125.482 511.63 Q123.677 515.172 123.677 522.302 Q123.677 529.408 125.482 532.973 Q127.311 536.515 130.922 536.515 Q134.556 536.515 136.362 532.973 Q138.191 529.408 138.191 522.302 Q138.191 515.172 136.362 511.63 Q134.556 508.066 130.922 508.066 M130.922 504.362 Q136.732 504.362 139.788 508.968 Q142.867 513.552 142.867 522.302 Q142.867 531.029 139.788 535.635 Q136.732 540.218 130.922 540.218 Q125.112 540.218 122.033 535.635 Q118.978 531.029 118.978 522.302 Q118.978 513.552 122.033 508.968 Q125.112 504.362 130.922 504.362 Z" fill="#000000" fill-rule="nonzero" fill-opacity="1" /><path clip-path="url(#clip300)" d="M94.7882 83.0188 L111.108 83.0188 L111.108 86.954 L89.1632 86.954 L89.1632 83.0188 Q91.8252 80.2642 96.4085 75.6346 Q101.015 70.9818 102.196 69.6393 Q104.441 67.1161 105.321 65.38 Q106.223 63.6208 106.223 61.931 Q106.223 59.1764 104.279 57.4403 Q102.358 55.7042 99.2558 55.7042 Q97.0567 55.7042 94.603 56.468 Q92.1725 57.2319 89.3947 58.7828 L89.3947 54.0606 Q92.2188 52.9264 94.6724 52.3477 Q97.1261 51.769 99.1632 51.769 Q104.534 51.769 107.728 54.4542 Q110.922 57.1393 110.922 61.63 Q110.922 63.7597 110.112 65.681 Q109.325 67.5791 107.219 70.1717 Q106.64 70.843 103.538 74.0605 Q100.436 77.255 94.7882 83.0188 Z" fill="#000000" fill-rule="nonzero" fill-opacity="1" /><path clip-path="url(#clip300)" d="M130.922 55.4727 Q127.311 55.4727 125.482 59.0375 Q123.677 62.5791 123.677 69.7087 Q123.677 76.8152 125.482 80.3799 Q127.311 83.9216 130.922 83.9216 Q134.556 83.9216 136.362 80.3799 Q138.191 76.8152 138.191 69.7087 Q138.191 62.5791 136.362 59.0375 Q134.556 55.4727 130.922 55.4727 M130.922 51.769 Q136.732 51.769 139.788 56.3754 Q142.867 60.9588 142.867 69.7087 Q142.867 78.4355 139.788 83.042 Q136.732 87.6253 130.922 87.6253 Q125.112 87.6253 122.033 83.042 Q118.978 78.4355 118.978 69.7087 Q118.978 60.9588 122.033 56.3754 Q125.112 51.769 130.922 51.769 Z" fill="#000000" fill-rule="nonzero" fill-opacity="1" /><polyline clip-path="url(#clip302)" style="stroke:#009af9; stroke-linecap:round; stroke-linejoin:round; stroke-width:4; stroke-opacity:1; fill:none" points="240.392,925.686 247.251,948.123 254.11,969.727 260.969,990.44 267.828,1011.01 274.687,1031.47 281.546,1051.79 288.405,1071.65 295.264,1091.25 302.123,1110.84 308.982,1130.47 315.841,1149.92 322.7,1168.83 329.559,1186.96 336.418,1204.19 343.277,1220.52 350.136,1236.25 356.995,1251.54 363.854,1266.18 370.713,1280.09 377.572,1293.31 384.431,1305.74 391.29,1317.56 398.149,1328.89 405.008,1339.63 411.867,1349.82 418.726,1359.53 425.585,1368.72 432.444,1377.37 439.303,1385.46 446.162,1393.02 453.021,1400.06 459.88,1406.58 466.739,1412.6 473.598,1418.11 480.457,1423.11 487.316,1427.57 494.175,1431.52 501.034,1434.97 507.893,1437.89 514.752,1440.31 521.611,1442.26 528.47,1443.76 535.328,1444.84 542.188,1445.49 549.046,1445.72 555.905,1445.58 562.764,1445.07 569.623,1444.19 576.482,1443.01 583.341,1441.6 590.2,1439.9 597.059,1437.93 603.918,1435.71 610.777,1433.08 617.636,1429.97 624.495,1426.32 631.354,1422.09 638.213,1417.29 645.072,1412.03 651.931,1406.36 658.79,1400.25 665.649,1393.74 672.508,1386.82 679.367,1379.51 686.226,1371.88 693.085,1363.96 699.944,1355.71 706.803,1347.16 713.662,1338.41 720.521,1329.46 727.38,1320.33 734.239,1311.09 741.098,1301.67 747.957,1292.09 754.816,1282.39 761.675,1272.62 768.534,1262.82 775.393,1252.93 782.252,1243 789.111,1233.03 795.97,1223.05 802.829,1213.09 809.688,1203.12 816.547,1193.24 823.406,1183.43 830.265,1173.7 837.124,1164.06 843.983,1154.52 850.842,1145.09 857.701,1135.78 864.56,1126.57 871.419,1117.46 878.278,1108.43 885.137,1099.51 891.996,1090.73 898.855,1081.94 905.714,1073.08 912.573,1064.25 919.432,1055.48 926.291,1046.83 933.15,1038.35 940.009,1030.03 946.868,1021.86 953.727,1013.8 960.586,1005.85 967.445,998.05 974.304,990.322 981.163,982.642 988.022,975.081 994.881,967.667 1001.74,960.363 1008.6,953.141 1015.46,945.961 1022.32,938.842 1029.18,931.868 1036.04,925.063 1042.89,918.401 1049.75,911.793 1056.61,905.171 1063.47,898.53 1070.33,891.931 1077.19,885.489 1084.05,879.177 1090.91,872.946 1097.77,866.783 1104.62,860.636 1111.48,854.478 1118.34,848.405 1125.2,842.381 1132.06,836.376 1138.92,830.416 1145.78,824.489 1152.64,818.593 1159.5,812.737 1166.36,806.931 1173.21,801.14 1180.07,795.389 1186.93,789.645 1193.79,783.916 1200.65,778.261 1207.51,772.726 1214.37,767.247 1221.23,761.842 1228.09,756.572 1234.95,751.344 1241.8,746.105 1248.66,740.938 1255.52,735.849 1262.38,730.83 1269.24,725.937 1276.1,721.128 1282.96,716.4 1289.82,711.827 1296.68,707.354 1303.54,702.942 1310.39,698.7 1317.25,694.704 1324.11,690.911 1330.97,687.278 1337.83,683.808 1344.69,680.5 1351.55,677.395 1358.41,674.537 1365.27,671.927 1372.13,669.519 1378.98,667.324 1385.84,665.298 1392.7,663.435 1399.56,661.803 1406.42,660.418 1413.28,659.227 1420.14,658.238 1427,657.481 1433.86,656.913 1440.72,656.534 1447.57,656.382 1454.43,656.403 1461.29,656.59 1468.15,657.041 1475.01,657.739 1481.87,658.676 1488.73,659.825 1495.59,661.205 1502.45,662.79 1509.31,664.535 1516.16,666.519 1523.02,668.765 1529.88,671.203 1536.74,673.746 1543.6,676.394 1550.46,679.241 1557.32,682.296 1564.18,685.511 1571.04,688.892 1577.9,692.384 1584.75,695.961 1591.61,699.68 1598.47,703.572 1605.33,707.616 1612.19,711.817 1619.05,716.225 1625.91,720.845 1632.77,725.614 1639.63,730.544 1646.49,735.585 1653.34,740.655 1660.2,745.755 1667.06,750.871 1673.92,755.985 1680.78,761.06 1687.64,766.162 1694.5,771.312 1701.36,776.534 1708.22,781.803 1715.08,787.06 1721.93,792.281 1728.79,797.479 1735.65,802.656 1742.51,807.849 1749.37,813.026 1756.23,818.182 1763.09,823.305 1769.95,828.39 1776.81,833.514 1783.67,838.695 1790.52,843.949 1797.38,849.182 1804.24,854.325 1811.1,859.432 1817.96,864.488 1824.82,869.492 1831.68,874.469 1838.54,879.419 1845.4,884.231 1852.26,888.882 1859.11,893.45 1865.97,897.959 1872.83,902.387 1879.69,906.736 1886.55,910.937 1893.41,915.02 1900.27,919.04 1907.13,922.975 1913.99,926.832 1920.85,930.637 1927.7,934.374 1934.56,938.02 1941.42,941.576 1948.28,945.037 1955.14,948.485 1962,951.926 1968.86,955.285 1975.72,958.53 1982.58,961.679 1989.44,964.709 1996.29,967.604 2003.15,970.392 2010.01,973.056 2016.87,975.588 2023.73,978.019 2030.59,980.327 2037.45,982.517 2044.31,984.592 2051.17,986.56 2058.02,988.444 2064.88,990.256 2071.74,991.996 2078.6,993.669 2085.46,995.286 2092.32,996.865 2099.18,998.418 2106.04,999.939 2112.9,1001.42 2119.76,1002.9 2126.61,1004.4 2133.47,1005.98 2140.33,1007.62 2147.19,1009.32 2154.05,1011.06 2160.91,1012.83 2167.77,1014.72 2174.63,1016.68 2181.49,1018.49 2188.35,1020.29 2195.2,1022.21 2202.06,1024.16 2208.92,1026.22 2215.78,1028.31 2222.64,1030.4 2229.5,1032.2 2236.36,1034.04 2243.22,1036.49 2250.08,1039.26 2256.94,1041.56 2263.79,1043.45 2270.65,1045.11 2277.51,1047.34 2284.37,1049.27 2291.23,1050.6 "/>
<polyline clip-path="url(#clip302)" style="stroke:#e26f46; stroke-linecap:round; stroke-linejoin:round; stroke-width:4; stroke-opacity:1; fill:none" points="240.392,87.9763 247.251,115.029 254.11,142.498 260.969,169.128 267.828,195.387 274.687,221.652 281.546,247.202 288.405,272.329 295.264,297.318 302.123,322.41 308.982,347.058 315.841,371.045 322.7,394.472 329.559,417.242 336.418,439.227 343.277,460.749 350.136,481.947 356.995,502.631 363.854,522.757 370.713,542.374 377.572,561.5 384.431,580.152 391.29,598.198 398.149,615.681 405.008,632.749 411.867,649.358 418.726,665.538 425.585,681.325 432.444,696.736 439.303,711.782 446.162,726.465 453.021,740.784 459.88,754.76 466.739,768.441 473.598,781.846 480.457,794.994 487.316,807.909 494.175,820.586 501.034,833.042 507.893,845.31 514.752,857.398 521.611,869.341 528.47,881.194 535.328,892.924 542.188,904.543 549.046,916.058 555.905,927.472 562.764,938.789 569.623,950.022 576.482,961.218 583.341,972.427 590.2,983.664 597.059,994.902 603.918,1006.09 610.777,1017.14 617.636,1028.01 624.495,1038.63 631.354,1049 638.213,1059.21 645.072,1069.3 651.931,1079.23 658.79,1088.99 665.649,1098.66 672.508,1108.21 679.367,1117.54 686.226,1126.67 693.085,1135.55 699.944,1144.22 706.803,1152.76 713.662,1161.21 720.521,1169.52 727.38,1177.71 734.239,1185.76 741.098,1193.63 747.957,1201.36 754.816,1209.04 761.675,1216.56 768.534,1223.88 775.393,1231.07 782.252,1238.16 789.111,1245.2 795.97,1252.15 802.829,1259.02 809.688,1265.8 816.547,1272.48 823.406,1279.02 830.265,1285.32 837.124,1291.4 843.983,1297.27 850.842,1302.9 857.701,1308.34 864.56,1313.53 871.419,1318.5 878.278,1323.26 885.137,1327.76 891.996,1332.02 898.855,1335.99 905.714,1339.6 912.573,1342.95 919.432,1346.08 926.291,1348.93 933.15,1351.43 940.009,1353.63 946.868,1355.51 953.727,1357.03 960.586,1358.14 967.445,1358.91 974.304,1359.36 981.163,1359.45 988.022,1359.15 994.881,1358.56 1001.74,1357.59 1008.6,1356.23 1015.46,1354.53 1022.32,1352.54 1029.18,1350.21 1036.04,1347.53 1042.89,1344.52 1049.75,1341.18 1056.61,1337.46 1063.47,1333.34 1070.33,1328.97 1077.19,1324.34 1084.05,1319.44 1090.91,1314.26 1097.77,1308.84 1104.62,1303.22 1111.48,1297.38 1118.34,1291.3 1125.2,1285.11 1132.06,1278.79 1138.92,1272.29 1145.78,1265.69 1152.64,1258.97 1159.5,1252.17 1166.36,1245.34 1173.21,1238.49 1180.07,1231.52 1186.93,1224.42 1193.79,1217.25 1200.65,1210.01 1207.51,1202.71 1214.37,1195.4 1221.23,1188.08 1228.09,1180.79 1234.95,1173.52 1241.8,1166.29 1248.66,1159.02 1255.52,1151.76 1262.38,1144.61 1269.24,1137.54 1276.1,1130.55 1282.96,1123.67 1289.82,1116.9 1296.68,1110.17 1303.54,1103.45 1310.39,1096.73 1317.25,1090.15 1324.11,1083.74 1330.97,1077.44 1337.83,1071.25 1344.69,1065.16 1351.55,1059.16 1358.41,1053.27 1365.27,1047.5 1372.13,1041.84 1378.98,1036.28 1385.84,1030.8 1392.7,1025.43 1399.56,1020.17 1406.42,1015.01 1413.28,1009.9 1420.14,1004.88 1427,999.928 1433.86,995.041 1440.72,990.266 1447.57,985.636 1454.43,981.143 1461.29,976.818 1468.15,972.665 1475.01,968.605 1481.87,964.572 1488.73,960.606 1495.59,956.696 1502.45,952.852 1509.31,949.017 1516.16,945.126 1523.02,941.218 1529.88,937.244 1536.74,933.189 1543.6,929.061 1550.46,924.893 1557.32,920.73 1564.18,916.545 1571.04,912.37 1577.9,908.15 1584.75,903.877 1591.61,899.617 1598.47,895.357 1605.33,891.175 1612.19,887.038 1619.05,882.841 1625.91,878.677 1632.77,874.548 1639.63,870.337 1646.49,866.099 1653.34,861.884 1660.2,857.569 1667.06,853.191 1673.92,848.858 1680.78,844.586 1687.64,840.373 1694.5,836.174 1701.36,831.926 1708.22,827.643 1715.08,823.361 1721.93,819.089 1728.79,814.847 1735.65,810.669 1742.51,806.554 1749.37,802.52 1756.23,798.514 1763.09,794.507 1769.95,790.531 1776.81,786.656 1783.67,782.924 1790.52,779.257 1797.38,775.603 1804.24,772.076 1811.1,768.729 1817.96,765.562 1824.82,762.513 1831.68,759.551 1838.54,756.614 1845.4,753.72 1852.26,750.874 1859.11,748.114 1865.97,745.457 1872.83,742.894 1879.69,740.425 1886.55,738.044 1893.41,735.77 1900.27,733.609 1907.13,731.598 1913.99,729.758 1920.85,728.104 1927.7,726.603 1934.56,725.255 1941.42,724.04 1948.28,722.889 1955.14,721.828 1962,720.853 1968.86,719.988 1975.72,719.253 1982.58,718.585 1989.44,718.002 1996.29,717.525 2003.15,717.152 2010.01,716.882 2016.87,716.741 2023.73,716.734 2030.59,716.852 2037.45,717.04 2044.31,717.277 2051.17,717.593 2058.02,717.99 2064.88,718.468 2071.74,719.038 2078.6,719.692 2085.46,720.431 2092.32,721.256 2099.18,722.152 2106.04,723.116 2112.9,724.154 2119.76,725.247 2126.61,726.391 2133.47,727.536 2140.33,728.587 2147.19,729.578 2154.05,730.529 2160.91,731.442 2167.77,732.416 2174.63,733.511 2181.49,734.775 2188.35,736.228 2195.2,737.884 2202.06,739.534 2208.92,741.174 2215.78,743.054 2222.64,745.351 2229.5,748.279 2236.36,751.311 2243.22,754.519 2250.08,758.414 2256.94,762.512 2263.79,766.883 2270.65,771.238 2277.51,775.605 2284.37,780.534 2291.23,786.002 "/>
<path clip-path="url(#clip300)" d="M2010.47 250.738 L2280.29 250.738 L2280.29 95.2176 L2010.47 95.2176  Z" fill="#ffffff" fill-rule="evenodd" fill-opacity="1"/>
<polyline clip-path="url(#clip300)" style="stroke:#000000; stroke-linecap:round; stroke-linejoin:round; stroke-width:4; stroke-opacity:1; fill:none" points="2010.47,250.738 2280.29,250.738 2280.29,95.2176 2010.47,95.2176 2010.47,250.738 "/>
<polyline clip-path="url(#clip300)" style="stroke:#009af9; stroke-linecap:round; stroke-linejoin:round; stroke-width:4; stroke-opacity:1; fill:none" points="2034.63,147.058 2179.55,147.058 "/>
<path clip-path="url(#clip300)" d="M2217.55 166.745 Q2215.75 171.375 2214.03 172.787 Q2212.32 174.199 2209.45 174.199 L2206.05 174.199 L2206.05 170.634 L2208.55 170.634 Q2210.31 170.634 2211.28 169.8 Q2212.25 168.967 2213.43 165.865 L2214.19 163.921 L2203.71 138.412 L2208.22 138.412 L2216.32 158.689 L2224.43 138.412 L2228.94 138.412 L2217.55 166.745 Z" fill="#000000" fill-rule="nonzero" fill-opacity="1" /><path clip-path="url(#clip300)" d="M2236.23 160.402 L2243.87 160.402 L2243.87 134.037 L2235.56 135.703 L2235.56 131.444 L2243.82 129.778 L2248.5 129.778 L2248.5 160.402 L2256.14 160.402 L2256.14 164.338 L2236.23 164.338 L2236.23 160.402 Z" fill="#000000" fill-rule="nonzero" fill-opacity="1" /><polyline clip-path="url(#clip300)" style="stroke:#e26f46; stroke-linecap:round; stroke-linejoin:round; stroke-width:4; stroke-opacity:1; fill:none" points="2034.63,198.898 2179.55,198.898 "/>
<path clip-path="url(#clip300)" d="M2217.55 218.585 Q2215.75 223.215 2214.03 224.627 Q2212.32 226.039 2209.45 226.039 L2206.05 226.039 L2206.05 222.474 L2208.55 222.474 Q2210.31 222.474 2211.28 221.64 Q2212.25 220.807 2213.43 217.705 L2214.19 215.761 L2203.71 190.252 L2208.22 190.252 L2216.32 210.529 L2224.43 190.252 L2228.94 190.252 L2217.55 218.585 Z" fill="#000000" fill-rule="nonzero" fill-opacity="1" /><path clip-path="url(#clip300)" d="M2239.45 212.242 L2255.77 212.242 L2255.77 216.178 L2233.82 216.178 L2233.82 212.242 Q2236.49 209.488 2241.07 204.858 Q2245.68 200.205 2246.86 198.863 Q2249.1 196.34 2249.98 194.604 Q2250.88 192.844 2250.88 191.155 Q2250.88 188.4 2248.94 186.664 Q2247.02 184.928 2243.92 184.928 Q2241.72 184.928 2239.26 185.692 Q2236.83 186.455 2234.06 188.006 L2234.06 183.284 Q2236.88 182.15 2239.33 181.571 Q2241.79 180.993 2243.82 180.993 Q2249.19 180.993 2252.39 183.678 Q2255.58 186.363 2255.58 190.854 Q2255.58 192.983 2254.77 194.905 Q2253.99 196.803 2251.88 199.395 Q2251.3 200.067 2248.2 203.284 Q2245.1 206.479 2239.45 212.242 Z" fill="#000000" fill-rule="nonzero" fill-opacity="1" /></svg>
