<?xml version="1.0" encoding="utf-8"?>
<svg xmlns="http://www.w3.org/2000/svg" xmlns:xlink="http://www.w3.org/1999/xlink" width="600" height="400" viewBox="0 0 2400 1600">
<defs>
  <clipPath id="clip480">
    <rect x="0" y="0" width="2400" height="1600"/>
  </clipPath>
</defs>
<path clip-path="url(#clip480)" d="M0 1600 L2400 1600 L2400 0 L0 0  Z" fill="#ffffff" fill-rule="evenodd" fill-opacity="1"/>
<defs>
  <clipPath id="clip481">
    <rect x="480" y="0" width="1681" height="1600"/>
  </clipPath>
</defs>
<path clip-path="url(#clip480)" d="M257.204 1423.18 L2352.76 1423.18 L2352.76 47.2441 L257.204 47.2441  Z" fill="#ffffff" fill-rule="evenodd" fill-opacity="1"/>
<defs>
  <clipPath id="clip482">
    <rect x="257" y="47" width="2097" height="1377"/>
  </clipPath>
</defs>
<polyline clip-path="url(#clip482)" style="stroke:#000000; stroke-linecap:round; stroke-linejoin:round; stroke-width:2; stroke-opacity:0.1; fill:none" points="327.649,1423.18 327.649,47.2441 "/>
<polyline clip-path="url(#clip482)" style="stroke:#000000; stroke-linecap:round; stroke-linejoin:round; stroke-width:2; stroke-opacity:0.1; fill:none" points="819.099,1423.18 819.099,47.2441 "/>
<polyline clip-path="url(#clip482)" style="stroke:#000000; stroke-linecap:round; stroke-linejoin:round; stroke-width:2; stroke-opacity:0.1; fill:none" points="1310.55,1423.18 1310.55,47.2441 "/>
<polyline clip-path="url(#clip482)" style="stroke:#000000; stroke-linecap:round; stroke-linejoin:round; stroke-width:2; stroke-opacity:0.1; fill:none" points="1802,1423.18 1802,47.2441 "/>
<polyline clip-path="url(#clip482)" style="stroke:#000000; stroke-linecap:round; stroke-linejoin:round; stroke-width:2; stroke-opacity:0.1; fill:none" points="2293.45,1423.18 2293.45,47.2441 "/>
<polyline clip-path="url(#clip480)" style="stroke:#000000; stroke-linecap:round; stroke-linejoin:round; stroke-width:4; stroke-opacity:1; fill:none" points="257.204,1423.18 2352.76,1423.18 "/>
<polyline clip-path="url(#clip480)" style="stroke:#000000; stroke-linecap:round; stroke-linejoin:round; stroke-width:4; stroke-opacity:1; fill:none" points="327.649,1423.18 327.649,1404.28 "/>
<polyline clip-path="url(#clip480)" style="stroke:#000000; stroke-linecap:round; stroke-linejoin:round; stroke-width:4; stroke-opacity:1; fill:none" points="819.099,1423.18 819.099,1404.28 "/>
<polyline clip-path="url(#clip480)" style="stroke:#000000; stroke-linecap:round; stroke-linejoin:round; stroke-width:4; stroke-opacity:1; fill:none" points="1310.55,1423.18 1310.55,1404.28 "/>
<polyline clip-path="url(#clip480)" style="stroke:#000000; stroke-linecap:round; stroke-linejoin:round; stroke-width:4; stroke-opacity:1; fill:none" points="1802,1423.18 1802,1404.28 "/>
<polyline clip-path="url(#clip480)" style="stroke:#000000; stroke-linecap:round; stroke-linejoin:round; stroke-width:4; stroke-opacity:1; fill:none" points="2293.45,1423.18 2293.45,1404.28 "/>
<path clip-path="url(#clip480)" d="M274.177 1468.75 L303.853 1468.75 L303.853 1472.69 L274.177 1472.69 L274.177 1468.75 Z" fill="#000000" fill-rule="nonzero" fill-opacity="1" /><path clip-path="url(#clip480)" d="M314.756 1481.64 L322.395 1481.64 L322.395 1455.28 L314.084 1456.95 L314.084 1452.69 L322.348 1451.02 L327.024 1451.02 L327.024 1481.64 L334.663 1481.64 L334.663 1485.58 L314.756 1485.58 L314.756 1481.64 Z" fill="#000000" fill-rule="nonzero" fill-opacity="1" /><path clip-path="url(#clip480)" d="M344.107 1479.7 L348.992 1479.7 L348.992 1485.58 L344.107 1485.58 L344.107 1479.7 Z" fill="#000000" fill-rule="nonzero" fill-opacity="1" /><path clip-path="url(#clip480)" d="M369.177 1454.1 Q365.566 1454.1 363.737 1457.66 Q361.931 1461.2 361.931 1468.33 Q361.931 1475.44 363.737 1479.01 Q365.566 1482.55 369.177 1482.55 Q372.811 1482.55 374.617 1479.01 Q376.445 1475.44 376.445 1468.33 Q376.445 1461.2 374.617 1457.66 Q372.811 1454.1 369.177 1454.1 M369.177 1450.39 Q374.987 1450.39 378.042 1455 Q381.121 1459.58 381.121 1468.33 Q381.121 1477.06 378.042 1481.67 Q374.987 1486.25 369.177 1486.25 Q363.367 1486.25 360.288 1481.67 Q357.232 1477.06 357.232 1468.33 Q357.232 1459.58 360.288 1455 Q363.367 1450.39 369.177 1450.39 Z" fill="#000000" fill-rule="nonzero" fill-opacity="1" /><path clip-path="url(#clip480)" d="M766.125 1468.75 L795.801 1468.75 L795.801 1472.69 L766.125 1472.69 L766.125 1468.75 Z" fill="#000000" fill-rule="nonzero" fill-opacity="1" /><path clip-path="url(#clip480)" d="M815.893 1454.1 Q812.282 1454.1 810.453 1457.66 Q808.648 1461.2 808.648 1468.33 Q808.648 1475.44 810.453 1479.01 Q812.282 1482.55 815.893 1482.55 Q819.527 1482.55 821.333 1479.01 Q823.162 1475.44 823.162 1468.33 Q823.162 1461.2 821.333 1457.66 Q819.527 1454.1 815.893 1454.1 M815.893 1450.39 Q821.703 1450.39 824.759 1455 Q827.838 1459.58 827.838 1468.33 Q827.838 1477.06 824.759 1481.67 Q821.703 1486.25 815.893 1486.25 Q810.083 1486.25 807.004 1481.67 Q803.949 1477.06 803.949 1468.33 Q803.949 1459.58 807.004 1455 Q810.083 1450.39 815.893 1450.39 Z" fill="#000000" fill-rule="nonzero" fill-opacity="1" /><path clip-path="url(#clip480)" d="M836.055 1479.7 L840.939 1479.7 L840.939 1485.58 L836.055 1485.58 L836.055 1479.7 Z" fill="#000000" fill-rule="nonzero" fill-opacity="1" /><path clip-path="url(#clip480)" d="M851.171 1451.02 L869.527 1451.02 L869.527 1454.96 L855.453 1454.96 L855.453 1463.43 Q856.472 1463.08 857.49 1462.92 Q858.509 1462.73 859.527 1462.73 Q865.314 1462.73 868.694 1465.9 Q872.073 1469.08 872.073 1474.49 Q872.073 1480.07 868.601 1483.17 Q865.129 1486.25 858.81 1486.25 Q856.634 1486.25 854.365 1485.88 Q852.12 1485.51 849.712 1484.77 L849.712 1480.07 Q851.796 1481.2 854.018 1481.76 Q856.24 1482.32 858.717 1482.32 Q862.722 1482.32 865.06 1480.21 Q867.397 1478.1 867.397 1474.49 Q867.397 1470.88 865.06 1468.77 Q862.722 1466.67 858.717 1466.67 Q856.842 1466.67 854.967 1467.08 Q853.115 1467.5 851.171 1468.38 L851.171 1451.02 Z" fill="#000000" fill-rule="nonzero" fill-opacity="1" /><path clip-path="url(#clip480)" d="M1287.93 1454.1 Q1284.32 1454.1 1282.49 1457.66 Q1280.69 1461.2 1280.69 1468.33 Q1280.69 1475.44 1282.49 1479.01 Q1284.32 1482.55 1287.93 1482.55 Q1291.57 1482.55 1293.37 1479.01 Q1295.2 1475.44 1295.2 1468.33 Q1295.2 1461.2 1293.37 1457.66 Q1291.57 1454.1 1287.93 1454.1 M1287.93 1450.39 Q1293.74 1450.39 1296.8 1455 Q1299.88 1459.58 1299.88 1468.33 Q1299.88 1477.06 1296.8 1481.67 Q1293.74 1486.25 1287.93 1486.25 Q1282.12 1486.25 1279.04 1481.67 Q1275.99 1477.06 1275.99 1468.33 Q1275.99 1459.58 1279.04 1455 Q1282.12 1450.39 1287.93 1450.39 Z" fill="#000000" fill-rule="nonzero" fill-opacity="1" /><path clip-path="url(#clip480)" d="M1308.1 1479.7 L1312.98 1479.7 L1312.98 1485.58 L1308.1 1485.58 L1308.1 1479.7 Z" fill="#000000" fill-rule="nonzero" fill-opacity="1" /><path clip-path="url(#clip480)" d="M1333.16 1454.1 Q1329.55 1454.1 1327.72 1457.66 Q1325.92 1461.2 1325.92 1468.33 Q1325.92 1475.44 1327.72 1479.01 Q1329.55 1482.55 1333.16 1482.55 Q1336.8 1482.55 1338.6 1479.01 Q1340.43 1475.44 1340.43 1468.33 Q1340.43 1461.2 1338.6 1457.66 Q1336.8 1454.1 1333.16 1454.1 M1333.16 1450.39 Q1338.97 1450.39 1342.03 1455 Q1345.11 1459.58 1345.11 1468.33 Q1345.11 1477.06 1342.03 1481.67 Q1338.97 1486.25 1333.16 1486.25 Q1327.35 1486.25 1324.28 1481.67 Q1321.22 1477.06 1321.22 1468.33 Q1321.22 1459.58 1324.28 1455 Q1327.35 1450.39 1333.16 1450.39 Z" fill="#000000" fill-rule="nonzero" fill-opacity="1" /><path clip-path="url(#clip480)" d="M1779.88 1454.1 Q1776.27 1454.1 1774.44 1457.66 Q1772.64 1461.2 1772.64 1468.33 Q1772.64 1475.44 1774.44 1479.01 Q1776.27 1482.55 1779.88 1482.55 Q1783.52 1482.55 1785.32 1479.01 Q1787.15 1475.44 1787.15 1468.33 Q1787.15 1461.2 1785.32 1457.66 Q1783.52 1454.1 1779.88 1454.1 M1779.88 1450.39 Q1785.69 1450.39 1788.75 1455 Q1791.83 1459.58 1791.83 1468.33 Q1791.83 1477.06 1788.75 1481.67 Q1785.69 1486.25 1779.88 1486.25 Q1774.07 1486.25 1770.99 1481.67 Q1767.94 1477.06 1767.94 1468.33 Q1767.94 1459.58 1770.99 1455 Q1774.07 1450.39 1779.88 1450.39 Z" fill="#000000" fill-rule="nonzero" fill-opacity="1" /><path clip-path="url(#clip480)" d="M1800.04 1479.7 L1804.93 1479.7 L1804.93 1485.58 L1800.04 1485.58 L1800.04 1479.7 Z" fill="#000000" fill-rule="nonzero" fill-opacity="1" /><path clip-path="url(#clip480)" d="M1815.16 1451.02 L1833.52 1451.02 L1833.52 1454.96 L1819.44 1454.96 L1819.44 1463.43 Q1820.46 1463.08 1821.48 1462.92 Q1822.5 1462.73 1823.52 1462.73 Q1829.3 1462.73 1832.68 1465.9 Q1836.06 1469.08 1836.06 1474.49 Q1836.06 1480.07 1832.59 1483.17 Q1829.12 1486.25 1822.8 1486.25 Q1820.62 1486.25 1818.35 1485.88 Q1816.11 1485.51 1813.7 1484.77 L1813.7 1480.07 Q1815.78 1481.2 1818.01 1481.76 Q1820.23 1482.32 1822.7 1482.32 Q1826.71 1482.32 1829.05 1480.21 Q1831.39 1478.1 1831.39 1474.49 Q1831.39 1470.88 1829.05 1468.77 Q1826.71 1466.67 1822.7 1466.67 Q1820.83 1466.67 1818.95 1467.08 Q1817.1 1467.5 1815.16 1468.38 L1815.16 1451.02 Z" fill="#000000" fill-rule="nonzero" fill-opacity="1" /><path clip-path="url(#clip480)" d="M2260.6 1481.64 L2268.24 1481.64 L2268.24 1455.28 L2259.93 1456.95 L2259.93 1452.69 L2268.19 1451.02 L2272.87 1451.02 L2272.87 1481.64 L2280.51 1481.64 L2280.51 1485.58 L2260.6 1485.58 L2260.6 1481.64 Z" fill="#000000" fill-rule="nonzero" fill-opacity="1" /><path clip-path="url(#clip480)" d="M2289.95 1479.7 L2294.84 1479.7 L2294.84 1485.58 L2289.95 1485.58 L2289.95 1479.7 Z" fill="#000000" fill-rule="nonzero" fill-opacity="1" /><path clip-path="url(#clip480)" d="M2315.02 1454.1 Q2311.41 1454.1 2309.58 1457.66 Q2307.78 1461.2 2307.78 1468.33 Q2307.78 1475.44 2309.58 1479.01 Q2311.41 1482.55 2315.02 1482.55 Q2318.66 1482.55 2320.46 1479.01 Q2322.29 1475.44 2322.29 1468.33 Q2322.29 1461.2 2320.46 1457.66 Q2318.66 1454.1 2315.02 1454.1 M2315.02 1450.39 Q2320.83 1450.39 2323.89 1455 Q2326.97 1459.58 2326.97 1468.33 Q2326.97 1477.06 2323.89 1481.67 Q2320.83 1486.25 2315.02 1486.25 Q2309.21 1486.25 2306.13 1481.67 Q2303.08 1477.06 2303.08 1468.33 Q2303.08 1459.58 2306.13 1455 Q2309.21 1450.39 2315.02 1450.39 Z" fill="#000000" fill-rule="nonzero" fill-opacity="1" /><path clip-path="url(#clip480)" d="M1134.03 1525.81 L1134.03 1543.66 L1142.11 1543.66 Q1146.6 1543.66 1149.05 1541.34 Q1151.5 1539.02 1151.5 1534.72 Q1151.5 1530.45 1149.05 1528.13 Q1146.6 1525.81 1142.11 1525.81 L1134.03 1525.81 M1127.6 1520.52 L1142.11 1520.52 Q1150.1 1520.52 1154.18 1524.15 Q1158.28 1527.75 1158.28 1534.72 Q1158.28 1541.75 1154.18 1545.35 Q1150.1 1548.95 1142.11 1548.95 L1134.03 1548.95 L1134.03 1568.04 L1127.6 1568.04 L1127.6 1520.52 Z" fill="#000000" fill-rule="nonzero" fill-opacity="1" /><path clip-path="url(#clip480)" d="M1178.14 1536.5 Q1173.43 1536.5 1170.7 1540.19 Q1167.96 1543.85 1167.96 1550.25 Q1167.96 1556.65 1170.66 1560.34 Q1173.4 1564 1178.14 1564 Q1182.82 1564 1185.56 1560.31 Q1188.3 1556.62 1188.3 1550.25 Q1188.3 1543.92 1185.56 1540.23 Q1182.82 1536.5 1178.14 1536.5 M1178.14 1531.54 Q1185.78 1531.54 1190.14 1536.5 Q1194.5 1541.47 1194.5 1550.25 Q1194.5 1559 1190.14 1564 Q1185.78 1568.97 1178.14 1568.97 Q1170.47 1568.97 1166.11 1564 Q1161.78 1559 1161.78 1550.25 Q1161.78 1541.47 1166.11 1536.5 Q1170.47 1531.54 1178.14 1531.54 Z" fill="#000000" fill-rule="nonzero" fill-opacity="1" /><path clip-path="url(#clip480)" d="M1226.94 1533.45 L1226.94 1538.98 Q1224.45 1537.71 1221.78 1537.07 Q1219.11 1536.44 1216.24 1536.44 Q1211.88 1536.44 1209.69 1537.77 Q1207.52 1539.11 1207.52 1541.79 Q1207.52 1543.82 1209.08 1545 Q1210.64 1546.15 1215.35 1547.2 L1217.36 1547.64 Q1223.59 1548.98 1226.2 1551.43 Q1228.85 1553.85 1228.85 1558.21 Q1228.85 1563.17 1224.9 1566.07 Q1220.98 1568.97 1214.11 1568.97 Q1211.24 1568.97 1208.13 1568.39 Q1205.04 1567.85 1201.6 1566.74 L1201.6 1560.69 Q1204.85 1562.38 1208 1563.24 Q1211.15 1564.07 1214.24 1564.07 Q1218.37 1564.07 1220.6 1562.66 Q1222.83 1561.23 1222.83 1558.65 Q1222.83 1556.27 1221.21 1554.99 Q1219.62 1553.72 1214.17 1552.54 L1212.14 1552.07 Q1206.69 1550.92 1204.27 1548.56 Q1201.86 1546.18 1201.86 1542.04 Q1201.86 1537.01 1205.42 1534.27 Q1208.99 1531.54 1215.54 1531.54 Q1218.79 1531.54 1221.65 1532.01 Q1224.52 1532.49 1226.94 1533.45 Z" fill="#000000" fill-rule="nonzero" fill-opacity="1" /><path clip-path="url(#clip480)" d="M1238.17 1532.4 L1244.03 1532.4 L1244.03 1568.04 L1238.17 1568.04 L1238.17 1532.4 M1238.17 1518.52 L1244.03 1518.52 L1244.03 1525.93 L1238.17 1525.93 L1238.17 1518.52 Z" fill="#000000" fill-rule="nonzero" fill-opacity="1" /><path clip-path="url(#clip480)" d="M1262.08 1522.27 L1262.08 1532.4 L1274.14 1532.4 L1274.14 1536.95 L1262.08 1536.95 L1262.08 1556.3 Q1262.08 1560.66 1263.25 1561.9 Q1264.46 1563.14 1268.12 1563.14 L1274.14 1563.14 L1274.14 1568.04 L1268.12 1568.04 Q1261.34 1568.04 1258.76 1565.53 Q1256.19 1562.98 1256.19 1556.3 L1256.19 1536.95 L1251.89 1536.95 L1251.89 1532.4 L1256.19 1532.4 L1256.19 1522.27 L1262.08 1522.27 Z" fill="#000000" fill-rule="nonzero" fill-opacity="1" /><path clip-path="url(#clip480)" d="M1281.84 1532.4 L1287.7 1532.4 L1287.7 1568.04 L1281.84 1568.04 L1281.84 1532.4 M1281.84 1518.52 L1287.7 1518.52 L1287.7 1525.93 L1281.84 1525.93 L1281.84 1518.52 Z" fill="#000000" fill-rule="nonzero" fill-opacity="1" /><path clip-path="url(#clip480)" d="M1313.76 1536.5 Q1309.05 1536.5 1306.32 1540.19 Q1303.58 1543.85 1303.58 1550.25 Q1303.58 1556.65 1306.28 1560.34 Q1309.02 1564 1313.76 1564 Q1318.44 1564 1321.18 1560.31 Q1323.92 1556.62 1323.92 1550.25 Q1323.92 1543.92 1321.18 1540.23 Q1318.44 1536.5 1313.76 1536.5 M1313.76 1531.54 Q1321.4 1531.54 1325.76 1536.5 Q1330.12 1541.47 1330.12 1550.25 Q1330.12 1559 1325.76 1564 Q1321.4 1568.97 1313.76 1568.97 Q1306.09 1568.97 1301.73 1564 Q1297.4 1559 1297.4 1550.25 Q1297.4 1541.47 1301.73 1536.5 Q1306.09 1531.54 1313.76 1531.54 Z" fill="#000000" fill-rule="nonzero" fill-opacity="1" /><path clip-path="url(#clip480)" d="M1369.46 1546.53 L1369.46 1568.04 L1363.61 1568.04 L1363.61 1546.72 Q1363.61 1541.66 1361.63 1539.14 Q1359.66 1536.63 1355.71 1536.63 Q1350.97 1536.63 1348.23 1539.65 Q1345.5 1542.68 1345.5 1547.9 L1345.5 1568.04 L1339.61 1568.04 L1339.61 1532.4 L1345.5 1532.4 L1345.5 1537.93 Q1347.6 1534.72 1350.43 1533.13 Q1353.3 1531.54 1357.02 1531.54 Q1363.16 1531.54 1366.31 1535.36 Q1369.46 1539.14 1369.46 1546.53 Z" fill="#000000" fill-rule="nonzero" fill-opacity="1" /><path clip-path="url(#clip480)" d="M1415.93 1518.58 Q1411.67 1525.9 1409.6 1533.06 Q1407.53 1540.23 1407.53 1547.58 Q1407.53 1554.93 1409.6 1562.16 Q1411.7 1569.35 1415.93 1576.64 L1410.84 1576.64 Q1406.07 1569.16 1403.68 1561.93 Q1401.32 1554.71 1401.32 1547.58 Q1401.32 1540.48 1403.68 1533.29 Q1406.04 1526.09 1410.84 1518.58 L1415.93 1518.58 Z" fill="#000000" fill-rule="nonzero" fill-opacity="1" /><path clip-path="url(#clip480)" d="M1430.8 1550.25 Q1430.8 1556.71 1433.44 1560.4 Q1436.11 1564.07 1440.76 1564.07 Q1445.41 1564.07 1448.08 1560.4 Q1450.75 1556.71 1450.75 1550.25 Q1450.75 1543.79 1448.08 1540.13 Q1445.41 1536.44 1440.76 1536.44 Q1436.11 1536.44 1433.44 1540.13 Q1430.8 1543.79 1430.8 1550.25 M1450.75 1562.7 Q1448.91 1565.88 1446.08 1567.44 Q1443.27 1568.97 1439.33 1568.97 Q1432.87 1568.97 1428.79 1563.81 Q1424.75 1558.65 1424.75 1550.25 Q1424.75 1541.85 1428.79 1536.69 Q1432.87 1531.54 1439.33 1531.54 Q1443.27 1531.54 1446.08 1533.1 Q1448.91 1534.62 1450.75 1537.81 L1450.75 1532.4 L1456.61 1532.4 L1456.61 1581.6 L1450.75 1581.6 L1450.75 1562.7 Z" fill="#000000" fill-rule="nonzero" fill-opacity="1" /><path clip-path="url(#clip480)" d="M1467.75 1518.58 L1472.84 1518.58 Q1477.62 1526.09 1479.97 1533.29 Q1482.36 1540.48 1482.36 1547.58 Q1482.36 1554.71 1479.97 1561.93 Q1477.62 1569.16 1472.84 1576.64 L1467.75 1576.64 Q1471.98 1569.35 1474.05 1562.16 Q1476.15 1554.93 1476.15 1547.58 Q1476.15 1540.23 1474.05 1533.06 Q1471.98 1525.9 1467.75 1518.58 Z" fill="#000000" fill-rule="nonzero" fill-opacity="1" /><polyline clip-path="url(#clip482)" style="stroke:#000000; stroke-linecap:round; stroke-linejoin:round; stroke-width:2; stroke-opacity:0.1; fill:none" points="257.204,1383.02 2352.76,1383.02 "/>
<polyline clip-path="url(#clip482)" style="stroke:#000000; stroke-linecap:round; stroke-linejoin:round; stroke-width:2; stroke-opacity:0.1; fill:none" points="257.204,1061.25 2352.76,1061.25 "/>
<polyline clip-path="url(#clip482)" style="stroke:#000000; stroke-linecap:round; stroke-linejoin:round; stroke-width:2; stroke-opacity:0.1; fill:none" points="257.204,739.486 2352.76,739.486 "/>
<polyline clip-path="url(#clip482)" style="stroke:#000000; stroke-linecap:round; stroke-linejoin:round; stroke-width:2; stroke-opacity:0.1; fill:none" points="257.204,417.718 2352.76,417.718 "/>
<polyline clip-path="url(#clip482)" style="stroke:#000000; stroke-linecap:round; stroke-linejoin:round; stroke-width:2; stroke-opacity:0.1; fill:none" points="257.204,95.9493 2352.76,95.9493 "/>
<polyline clip-path="url(#clip480)" style="stroke:#000000; stroke-linecap:round; stroke-linejoin:round; stroke-width:4; stroke-opacity:1; fill:none" points="257.204,1423.18 257.204,47.2441 "/>
<polyline clip-path="url(#clip480)" style="stroke:#000000; stroke-linecap:round; stroke-linejoin:round; stroke-width:4; stroke-opacity:1; fill:none" points="257.204,1383.02 276.102,1383.02 "/>
<polyline clip-path="url(#clip480)" style="stroke:#000000; stroke-linecap:round; stroke-linejoin:round; stroke-width:4; stroke-opacity:1; fill:none" points="257.204,1061.25 276.102,1061.25 "/>
<polyline clip-path="url(#clip480)" style="stroke:#000000; stroke-linecap:round; stroke-linejoin:round; stroke-width:4; stroke-opacity:1; fill:none" points="257.204,739.486 276.102,739.486 "/>
<polyline clip-path="url(#clip480)" style="stroke:#000000; stroke-linecap:round; stroke-linejoin:round; stroke-width:4; stroke-opacity:1; fill:none" points="257.204,417.718 276.102,417.718 "/>
<polyline clip-path="url(#clip480)" style="stroke:#000000; stroke-linecap:round; stroke-linejoin:round; stroke-width:4; stroke-opacity:1; fill:none" points="257.204,95.9493 276.102,95.9493 "/>
<path clip-path="url(#clip480)" d="M114.26 1383.47 L143.936 1383.47 L143.936 1387.41 L114.26 1387.41 L114.26 1383.47 Z" fill="#000000" fill-rule="nonzero" fill-opacity="1" /><path clip-path="url(#clip480)" d="M154.839 1396.37 L162.477 1396.37 L162.477 1370 L154.167 1371.67 L154.167 1367.41 L162.431 1365.74 L167.107 1365.74 L167.107 1396.37 L174.746 1396.37 L174.746 1400.3 L154.839 1400.3 L154.839 1396.37 Z" fill="#000000" fill-rule="nonzero" fill-opacity="1" /><path clip-path="url(#clip480)" d="M184.19 1394.42 L189.075 1394.42 L189.075 1400.3 L184.19 1400.3 L184.19 1394.42 Z" fill="#000000" fill-rule="nonzero" fill-opacity="1" /><path clip-path="url(#clip480)" d="M209.26 1368.82 Q205.649 1368.82 203.82 1372.39 Q202.014 1375.93 202.014 1383.06 Q202.014 1390.16 203.82 1393.73 Q205.649 1397.27 209.26 1397.27 Q212.894 1397.27 214.699 1393.73 Q216.528 1390.16 216.528 1383.06 Q216.528 1375.93 214.699 1372.39 Q212.894 1368.82 209.26 1368.82 M209.26 1365.12 Q215.07 1365.12 218.125 1369.72 Q221.204 1374.31 221.204 1383.06 Q221.204 1391.78 218.125 1396.39 Q215.07 1400.97 209.26 1400.97 Q203.449 1400.97 200.371 1396.39 Q197.315 1391.78 197.315 1383.06 Q197.315 1374.31 200.371 1369.72 Q203.449 1365.12 209.26 1365.12 Z" fill="#000000" fill-rule="nonzero" fill-opacity="1" /><path clip-path="url(#clip480)" d="M115.256 1061.71 L144.931 1061.71 L144.931 1065.64 L115.256 1065.64 L115.256 1061.71 Z" fill="#000000" fill-rule="nonzero" fill-opacity="1" /><path clip-path="url(#clip480)" d="M165.024 1047.05 Q161.413 1047.05 159.584 1050.62 Q157.778 1054.16 157.778 1061.29 Q157.778 1068.4 159.584 1071.96 Q161.413 1075.5 165.024 1075.5 Q168.658 1075.5 170.464 1071.96 Q172.292 1068.4 172.292 1061.29 Q172.292 1054.16 170.464 1050.62 Q168.658 1047.05 165.024 1047.05 M165.024 1043.35 Q170.834 1043.35 173.889 1047.96 Q176.968 1052.54 176.968 1061.29 Q176.968 1070.02 173.889 1074.62 Q170.834 1079.21 165.024 1079.21 Q159.214 1079.21 156.135 1074.62 Q153.079 1070.02 153.079 1061.29 Q153.079 1052.54 156.135 1047.96 Q159.214 1043.35 165.024 1043.35 Z" fill="#000000" fill-rule="nonzero" fill-opacity="1" /><path clip-path="url(#clip480)" d="M185.186 1072.65 L190.07 1072.65 L190.07 1078.53 L185.186 1078.53 L185.186 1072.65 Z" fill="#000000" fill-rule="nonzero" fill-opacity="1" /><path clip-path="url(#clip480)" d="M200.301 1043.97 L218.658 1043.97 L218.658 1047.91 L204.584 1047.91 L204.584 1056.38 Q205.602 1056.03 206.621 1055.87 Q207.639 1055.69 208.658 1055.69 Q214.445 1055.69 217.824 1058.86 Q221.204 1062.03 221.204 1067.45 Q221.204 1073.03 217.732 1076.13 Q214.26 1079.21 207.94 1079.21 Q205.764 1079.21 203.496 1078.84 Q201.25 1078.46 198.843 1077.72 L198.843 1073.03 Q200.926 1074.16 203.149 1074.71 Q205.371 1075.27 207.848 1075.27 Q211.852 1075.27 214.19 1073.16 Q216.528 1071.06 216.528 1067.45 Q216.528 1063.84 214.19 1061.73 Q211.852 1059.62 207.848 1059.62 Q205.973 1059.62 204.098 1060.04 Q202.246 1060.46 200.301 1061.34 L200.301 1043.97 Z" fill="#000000" fill-rule="nonzero" fill-opacity="1" /><path clip-path="url(#clip480)" d="M164.028 725.285 Q160.417 725.285 158.589 728.85 Q156.783 732.391 156.783 739.521 Q156.783 746.627 158.589 750.192 Q160.417 753.734 164.028 753.734 Q167.663 753.734 169.468 750.192 Q171.297 746.627 171.297 739.521 Q171.297 732.391 169.468 728.85 Q167.663 725.285 164.028 725.285 M164.028 721.581 Q169.839 721.581 172.894 726.188 Q175.973 730.771 175.973 739.521 Q175.973 748.248 172.894 752.854 Q169.839 757.437 164.028 757.437 Q158.218 757.437 155.14 752.854 Q152.084 748.248 152.084 739.521 Q152.084 730.771 155.14 726.188 Q158.218 721.581 164.028 721.581 Z" fill="#000000" fill-rule="nonzero" fill-opacity="1" /><path clip-path="url(#clip480)" d="M184.19 750.886 L189.075 750.886 L189.075 756.766 L184.19 756.766 L184.19 750.886 Z" fill="#000000" fill-rule="nonzero" fill-opacity="1" /><path clip-path="url(#clip480)" d="M209.26 725.285 Q205.649 725.285 203.82 728.85 Q202.014 732.391 202.014 739.521 Q202.014 746.627 203.82 750.192 Q205.649 753.734 209.26 753.734 Q212.894 753.734 214.699 750.192 Q216.528 746.627 216.528 739.521 Q216.528 732.391 214.699 728.85 Q212.894 725.285 209.26 725.285 M209.26 721.581 Q215.07 721.581 218.125 726.188 Q221.204 730.771 221.204 739.521 Q221.204 748.248 218.125 752.854 Q215.07 757.437 209.26 757.437 Q203.449 757.437 200.371 752.854 Q197.315 748.248 197.315 739.521 Q197.315 730.771 200.371 726.188 Q203.449 721.581 209.26 721.581 Z" fill="#000000" fill-rule="nonzero" fill-opacity="1" /><path clip-path="url(#clip480)" d="M165.024 403.516 Q161.413 403.516 159.584 407.081 Q157.778 410.623 157.778 417.752 Q157.778 424.859 159.584 428.424 Q161.413 431.965 165.024 431.965 Q168.658 431.965 170.464 428.424 Q172.292 424.859 172.292 417.752 Q172.292 410.623 170.464 407.081 Q168.658 403.516 165.024 403.516 M165.024 399.813 Q170.834 399.813 173.889 404.419 Q176.968 409.002 176.968 417.752 Q176.968 426.479 173.889 431.086 Q170.834 435.669 165.024 435.669 Q159.214 435.669 156.135 431.086 Q153.079 426.479 153.079 417.752 Q153.079 409.002 156.135 404.419 Q159.214 399.813 165.024 399.813 Z" fill="#000000" fill-rule="nonzero" fill-opacity="1" /><path clip-path="url(#clip480)" d="M185.186 429.118 L190.07 429.118 L190.07 434.998 L185.186 434.998 L185.186 429.118 Z" fill="#000000" fill-rule="nonzero" fill-opacity="1" /><path clip-path="url(#clip480)" d="M200.301 400.438 L218.658 400.438 L218.658 404.373 L204.584 404.373 L204.584 412.845 Q205.602 412.498 206.621 412.336 Q207.639 412.151 208.658 412.151 Q214.445 412.151 217.824 415.322 Q221.204 418.493 221.204 423.91 Q221.204 429.488 217.732 432.59 Q214.26 435.669 207.94 435.669 Q205.764 435.669 203.496 435.299 Q201.25 434.928 198.843 434.188 L198.843 429.488 Q200.926 430.623 203.149 431.178 Q205.371 431.734 207.848 431.734 Q211.852 431.734 214.19 429.627 Q216.528 427.521 216.528 423.91 Q216.528 420.299 214.19 418.192 Q211.852 416.086 207.848 416.086 Q205.973 416.086 204.098 416.502 Q202.246 416.919 200.301 417.799 L200.301 400.438 Z" fill="#000000" fill-rule="nonzero" fill-opacity="1" /><path clip-path="url(#clip480)" d="M154.839 109.294 L162.477 109.294 L162.477 82.9286 L154.167 84.5952 L154.167 80.336 L162.431 78.6693 L167.107 78.6693 L167.107 109.294 L174.746 109.294 L174.746 113.229 L154.839 113.229 L154.839 109.294 Z" fill="#000000" fill-rule="nonzero" fill-opacity="1" /><path clip-path="url(#clip480)" d="M184.19 107.35 L189.075 107.35 L189.075 113.229 L184.19 113.229 L184.19 107.35 Z" fill="#000000" fill-rule="nonzero" fill-opacity="1" /><path clip-path="url(#clip480)" d="M209.26 81.748 Q205.649 81.748 203.82 85.3128 Q202.014 88.8545 202.014 95.9841 Q202.014 103.091 203.82 106.655 Q205.649 110.197 209.26 110.197 Q212.894 110.197 214.699 106.655 Q216.528 103.091 216.528 95.9841 Q216.528 88.8545 214.699 85.3128 Q212.894 81.748 209.26 81.748 M209.26 78.0443 Q215.07 78.0443 218.125 82.6508 Q221.204 87.2341 221.204 95.9841 Q221.204 104.711 218.125 109.317 Q215.07 113.901 209.26 113.901 Q203.449 113.901 200.371 109.317 Q197.315 104.711 197.315 95.9841 Q197.315 87.2341 200.371 82.6508 Q203.449 78.0443 209.26 78.0443 Z" fill="#000000" fill-rule="nonzero" fill-opacity="1" /><path clip-path="url(#clip480)" d="M16.4842 971.396 L16.4842 961.815 L48.8219 949.689 L16.4842 937.498 L16.4842 927.918 L64.0042 927.918 L64.0042 934.188 L22.277 934.188 L54.8694 946.442 L54.8694 952.903 L22.277 965.157 L64.0042 965.157 L64.0042 971.396 L16.4842 971.396 Z" fill="#000000" fill-rule="nonzero" fill-opacity="1" /><path clip-path="url(#clip480)" d="M32.4621 901.596 Q32.4621 906.306 36.1542 909.044 Q39.8145 911.781 46.212 911.781 Q52.6095 911.781 56.3017 909.075 Q59.9619 906.338 59.9619 901.596 Q59.9619 896.917 56.2698 894.18 Q52.5777 891.442 46.212 891.442 Q39.8781 891.442 36.186 894.18 Q32.4621 896.917 32.4621 901.596 M27.4968 901.596 Q27.4968 893.957 32.4621 889.596 Q37.4273 885.236 46.212 885.236 Q54.9649 885.236 59.9619 889.596 Q64.9272 893.957 64.9272 901.596 Q64.9272 909.266 59.9619 913.627 Q54.9649 917.955 46.212 917.955 Q37.4273 917.955 32.4621 913.627 Q27.4968 909.266 27.4968 901.596 Z" fill="#000000" fill-rule="nonzero" fill-opacity="1" /><path clip-path="url(#clip480)" d="M35.1993 847.774 Q31.2526 845.577 29.3747 842.522 Q27.4968 839.466 27.4968 835.329 Q27.4968 829.759 31.4117 826.735 Q35.2948 823.711 42.4881 823.711 L64.0042 823.711 L64.0042 829.599 L42.679 829.599 Q37.5546 829.599 35.072 831.414 Q32.5894 833.228 32.5894 836.952 Q32.5894 841.503 35.6131 844.145 Q38.6368 846.787 43.8567 846.787 L64.0042 846.787 L64.0042 852.675 L42.679 852.675 Q37.5228 852.675 35.072 854.489 Q32.5894 856.304 32.5894 860.091 Q32.5894 864.579 35.6449 867.221 Q38.6686 869.863 43.8567 869.863 L64.0042 869.863 L64.0042 875.751 L28.3562 875.751 L28.3562 869.863 L33.8944 869.863 Q30.616 867.857 29.0564 865.056 Q27.4968 862.256 27.4968 858.404 Q27.4968 854.521 29.4702 851.816 Q31.4436 849.079 35.1993 847.774 Z" fill="#000000" fill-rule="nonzero" fill-opacity="1" /><path clip-path="url(#clip480)" d="M44.7161 781.538 L47.5806 781.538 L47.5806 808.465 Q53.6281 808.083 56.8109 804.837 Q59.9619 801.559 59.9619 795.734 Q59.9619 792.36 59.1344 789.209 Q58.3069 786.026 56.6518 782.907 L62.1899 782.907 Q63.5267 786.058 64.227 789.368 Q64.9272 792.678 64.9272 796.084 Q64.9272 804.614 59.9619 809.611 Q54.9967 814.576 46.5303 814.576 Q37.7774 814.576 32.6531 809.866 Q27.4968 805.123 27.4968 797.103 Q27.4968 789.909 32.1438 785.74 Q36.7589 781.538 44.7161 781.538 M42.9973 787.395 Q38.1912 787.459 35.3266 790.1 Q32.4621 792.71 32.4621 797.039 Q32.4621 801.94 35.2312 804.901 Q38.0002 807.829 43.0292 808.274 L42.9973 787.395 Z" fill="#000000" fill-rule="nonzero" fill-opacity="1" /><path clip-path="url(#clip480)" d="M42.4881 742.294 L64.0042 742.294 L64.0042 748.15 L42.679 748.15 Q37.6183 748.15 35.1038 750.124 Q32.5894 752.097 32.5894 756.044 Q32.5894 760.786 35.6131 763.523 Q38.6368 766.261 43.8567 766.261 L64.0042 766.261 L64.0042 772.149 L28.3562 772.149 L28.3562 766.261 L33.8944 766.261 Q30.6797 764.16 29.0883 761.327 Q27.4968 758.463 27.4968 754.739 Q27.4968 748.596 31.3163 745.445 Q35.1038 742.294 42.4881 742.294 Z" fill="#000000" fill-rule="nonzero" fill-opacity="1" /><path clip-path="url(#clip480)" d="M18.2347 724.82 L28.3562 724.82 L28.3562 712.757 L32.9077 712.757 L32.9077 724.82 L52.2594 724.82 Q56.6199 724.82 57.8613 723.642 Q59.1026 722.433 59.1026 718.773 L59.1026 712.757 L64.0042 712.757 L64.0042 718.773 Q64.0042 725.552 61.4897 728.13 Q58.9434 730.708 52.2594 730.708 L32.9077 730.708 L32.9077 735.005 L28.3562 735.005 L28.3562 730.708 L18.2347 730.708 L18.2347 724.82 Z" fill="#000000" fill-rule="nonzero" fill-opacity="1" /><path clip-path="url(#clip480)" d="M49.9359 705.659 L28.3562 705.659 L28.3562 699.803 L49.7131 699.803 Q54.7739 699.803 57.3202 697.829 Q59.8346 695.856 59.8346 691.909 Q59.8346 687.167 56.8109 684.43 Q53.7872 681.66 48.5673 681.66 L28.3562 681.66 L28.3562 675.804 L64.0042 675.804 L64.0042 681.66 L58.5296 681.66 Q61.7762 683.793 63.3676 686.626 Q64.9272 689.427 64.9272 693.151 Q64.9272 699.293 61.1078 702.476 Q57.2883 705.659 49.9359 705.659 M27.4968 690.923 L27.4968 690.923 Z" fill="#000000" fill-rule="nonzero" fill-opacity="1" /><path clip-path="url(#clip480)" d="M35.1993 635.987 Q31.2526 633.79 29.3747 630.735 Q27.4968 627.679 27.4968 623.542 Q27.4968 617.972 31.4117 614.948 Q35.2948 611.924 42.4881 611.924 L64.0042 611.924 L64.0042 617.812 L42.679 617.812 Q37.5546 617.812 35.072 619.627 Q32.5894 621.441 32.5894 625.165 Q32.5894 629.716 35.6131 632.358 Q38.6368 635 43.8567 635 L64.0042 635 L64.0042 640.888 L42.679 640.888 Q37.5228 640.888 35.072 642.702 Q32.5894 644.517 32.5894 648.304 Q32.5894 652.792 35.6449 655.434 Q38.6686 658.076 43.8567 658.076 L64.0042 658.076 L64.0042 663.964 L28.3562 663.964 L28.3562 658.076 L33.8944 658.076 Q30.616 656.07 29.0564 653.269 Q27.4968 650.468 27.4968 646.617 Q27.4968 642.734 29.4702 640.029 Q31.4436 637.291 35.1993 635.987 Z" fill="#000000" fill-rule="nonzero" fill-opacity="1" /><path clip-path="url(#clip480)" d="M14.5426 565.454 Q21.8632 569.72 29.0246 571.788 Q36.186 573.857 43.5384 573.857 Q50.8908 573.857 58.1159 571.788 Q65.3091 569.688 72.5979 565.454 L72.5979 570.547 Q65.1182 575.321 57.8931 577.708 Q50.668 580.064 43.5384 580.064 Q36.4406 580.064 29.2474 577.708 Q22.0542 575.353 14.5426 570.547 L14.5426 565.454 Z" fill="#000000" fill-rule="nonzero" fill-opacity="1" /><path clip-path="url(#clip480)" d="M58.657 548.426 L77.5631 548.426 L77.5631 554.315 L28.3562 554.315 L28.3562 548.426 L33.7671 548.426 Q30.5842 546.58 29.0564 543.779 Q27.4968 540.947 27.4968 537.032 Q27.4968 530.539 32.6531 526.496 Q37.8093 522.422 46.212 522.422 Q54.6147 522.422 59.771 526.496 Q64.9272 530.539 64.9272 537.032 Q64.9272 540.947 63.3994 543.779 Q61.8398 546.58 58.657 548.426 M46.212 528.502 Q39.7508 528.502 36.0905 531.175 Q32.3984 533.817 32.3984 538.464 Q32.3984 543.111 36.0905 545.784 Q39.7508 548.426 46.212 548.426 Q52.6732 548.426 56.3653 545.784 Q60.0256 543.111 60.0256 538.464 Q60.0256 533.817 56.3653 531.175 Q52.6732 528.502 46.212 528.502 Z" fill="#000000" fill-rule="nonzero" fill-opacity="1" /><path clip-path="url(#clip480)" d="M14.5426 513.638 L14.5426 508.545 Q22.0542 503.771 29.2474 501.415 Q36.4406 499.028 43.5384 499.028 Q50.668 499.028 57.8931 501.415 Q65.1182 503.771 72.5979 508.545 L72.5979 513.638 Q65.3091 509.404 58.1159 507.336 Q50.8908 505.235 43.5384 505.235 Q36.186 505.235 29.0246 507.336 Q21.8632 509.404 14.5426 513.638 Z" fill="#000000" fill-rule="nonzero" fill-opacity="1" /><polyline clip-path="url(#clip482)" style="stroke:#009af9; stroke-linecap:round; stroke-linejoin:round; stroke-width:16; stroke-opacity:1; fill:none" points="1310.55,95.9493 1316.59,95.9615 1322.62,95.9979 1328.66,96.0586 1334.69,96.1435 1340.73,96.2528 1346.76,96.3863 1352.79,96.544 1358.82,96.726 1364.85,96.9323 1370.88,97.1628 1376.9,97.4175 1382.93,97.6964 1388.95,97.9996 1394.96,98.3269 1400.97,98.6785 1406.98,99.0542 1412.99,99.4541 1418.99,99.8781 1424.99,100.326 1430.98,100.798 1436.97,101.295 1442.96,101.815 1448.94,102.36 1454.91,102.928 1460.88,103.521 1466.84,104.137 1472.8,104.778 1478.75,105.442 1484.69,106.131 1490.63,106.843 1496.56,107.579 1502.49,108.339 1508.41,109.123 1514.31,109.93 1520.22,110.761 1526.11,111.616 1532,112.495 1537.87,113.397 1543.74,114.323 1549.6,115.273 1555.45,116.246 1561.3,117.243 1567.13,118.263 1572.95,119.306 1578.76,120.373 1584.57,121.463 1590.36,122.577 1596.14,123.714 1601.91,124.874 1607.67,126.057 1613.42,127.263 1619.16,128.493 1624.88,129.745 1630.6,131.021 1636.3,132.319 1641.99,133.641 1647.67,134.985 1653.33,136.352 1658.98,137.742 1664.62,139.154 1670.24,140.589 1675.86,142.047 1681.45,143.527 1687.04,145.03 1692.61,146.555 1698.16,148.103 1703.7,149.673 1709.23,151.265 1714.74,152.879 1720.23,154.516 1725.71,156.174 1731.18,157.855 1736.62,159.557 1742.06,161.281 1747.47,163.028 1752.87,164.795 1758.25,166.585 1763.62,168.396 1768.97,170.229 1774.3,172.083 1779.61,173.959 1784.91,175.855 1790.19,177.774 1795.45,179.713 1800.69,181.673 1805.91,183.655 1811.12,185.658 1816.31,187.681 1821.47,189.725 1826.62,191.79 1831.75,193.876 1836.86,195.982 1841.94,198.109 1847.01,200.256 1852.06,202.423 1857.09,204.611 1862.1,206.819 1867.08,209.047 1872.05,211.295 1876.99,213.563 1881.92,215.85 1886.82,218.158 1891.7,220.485 1896.55,222.832 1901.39,225.198 1906.2,227.584 1910.99,229.989 1915.76,232.413 1920.51,234.856 1925.23,237.318 1929.93,239.8 1934.6,242.3 1939.26,244.819 1943.89,247.356 1948.49,249.912 1953.07,252.487 1957.63,255.08 1962.16,257.691 1966.67,260.321 1971.15,262.968 1975.61,265.633 1980.04,268.317 1984.45,271.018 1988.83,273.737 1993.18,276.473 1997.51,279.227 2001.82,281.998 2006.1,284.786 2010.35,287.592 2014.58,290.415 2018.78,293.254 2022.95,296.111 2027.09,298.984 2031.21,301.873 2035.3,304.78 2039.37,307.702 2043.4,310.641 2047.41,313.596 2051.4,316.568 2055.35,319.555 2059.27,322.558 2063.17,325.576 2067.04,328.611 2070.88,331.661 2074.69,334.726 2078.47,337.806 2082.23,340.902 2085.95,344.012 2089.65,347.138 2093.31,350.278 2096.95,353.433 2100.56,356.603 2104.13,359.787 2107.68,362.986 2111.2,366.198 2114.68,369.425 2118.14,372.665 2121.56,375.92 2124.96,379.188 2128.32,382.47 2131.66,385.765 2134.96,389.074 2138.23,392.396 2141.47,395.73 2144.68,399.078 2147.86,402.439 2151,405.812 2154.12,409.198 2157.2,412.597 2160.25,416.008 2163.27,419.431 2166.26,422.866 2169.21,426.313 2172.13,429.772 2175.02,433.242 2177.88,436.724 2180.7,440.218 2183.49,443.723 2186.25,447.238 2188.98,450.765 2191.67,454.303 2194.33,457.852 2196.95,461.411 2199.54,464.981 2202.1,468.561 2204.63,472.151 2207.12,475.752 2209.57,479.362 2212,482.982 2214.39,486.612 2216.74,490.251 2219.06,493.9 2221.35,497.558 2223.6,501.225 2225.82,504.901 2228,508.586 2230.15,512.28 2232.27,515.982 2234.34,519.693 2236.39,523.412 2238.4,527.139 2240.37,530.874 2242.31,534.617 2244.22,538.368 2246.09,542.127 2247.92,545.892 2249.72,549.665 2251.48,553.446 2253.21,557.233 2254.9,561.027 2256.56,564.828 2258.18,568.635 2259.76,572.449 2261.31,576.27 2262.82,580.096 2264.3,583.928 2265.74,587.767 2267.15,591.611 2268.52,595.46 2269.85,599.315 2271.15,603.175 2272.41,607.041 2273.63,610.911 2274.82,614.786 2275.97,618.666 2277.09,622.551 2278.17,626.44 2279.21,630.333 2280.21,634.23 2281.18,638.132 2282.11,642.037 2283.01,645.945 2283.87,649.858 2284.69,653.774 2285.48,657.692 2286.23,661.614 2286.94,665.539 2287.61,669.467 2288.25,673.398 2288.85,677.33 2289.42,681.266 2289.95,685.203 2290.44,689.143 2290.89,693.084 2291.31,697.027 2291.69,700.972 2292.03,704.918 2292.34,708.865 2292.6,712.814 2292.84,716.764 2293.03,720.714 2293.19,724.665 2293.31,728.617 2293.39,732.569 2293.44,736.522 2293.45,740.474 2293.42,744.427 2293.36,748.379 2293.25,752.331 2293.11,756.283 2292.94,760.233 2292.72,764.184 2292.47,768.133 2292.19,772.081 2291.86,776.028 2291.5,779.973 2291.1,783.917 2290.67,787.859 2290.2,791.8 2289.69,795.738 2289.14,799.674 2288.56,803.608 2287.94,807.54 2287.28,811.469 2286.59,815.396 2285.86,819.319 2285.09,823.24 2284.29,827.157 2283.44,831.071 2282.57,834.982 2281.65,838.888 2280.7,842.792 2279.71,846.691 2278.69,850.586 2277.63,854.477 2276.53,858.364 2275.4,862.246 2274.23,866.124 2273.02,869.997 2271.78,873.865 2270.5,877.728 2269.19,881.585 2267.84,885.438 2266.45,889.284 2265.03,893.125 2263.57,896.961 2262.07,900.79 2260.54,904.614 2258.97,908.431 2257.37,912.241 2255.73,916.045 2254.06,919.843 2252.35,923.634 2250.6,927.418 2248.82,931.194 2247.01,934.964 2245.16,938.726 2243.27,942.48 2241.35,946.227 2239.39,949.966 2237.4,953.698 2235.37,957.421 2233.31,961.135 2231.21,964.842 2229.08,968.54 2226.92,972.229 2224.71,975.91 2222.48,979.582 2220.21,983.244 2217.91,986.898 2215.57,990.542 2213.2,994.176 2210.79,997.801 2208.35,1001.42 2205.88,1005.02 2203.37,1008.62 2200.83,1012.2 2198.25,1015.78 2195.64,1019.34 2193,1022.9 2190.33,1026.44 2187.62,1029.97 2184.88,1033.49 2182.1,1037 2179.29,1040.5 2176.45,1043.99 2173.58,1047.47 2170.68,1050.93 2167.74,1054.38 2164.77,1057.83 2161.77,1061.25 2158.73,1064.67 2155.66,1068.08 2152.57,1071.47 2149.44,1074.85 2146.27,1078.22 2143.08,1081.57 2139.86,1084.91 2136.6,1088.24 2133.31,1091.55 2129.99,1094.86 2126.65,1098.14 2123.27,1101.42 2119.86,1104.68 2116.41,1107.93 2112.94,1111.16 2109.44,1114.38 2105.91,1117.59 2102.35,1120.78 2098.76,1123.96 2095.13,1127.12 2091.48,1130.27 2087.8,1133.4 2084.09,1136.52 2080.35,1139.62 2076.59,1142.71 2072.79,1145.78 2068.96,1148.84 2065.11,1151.88 2061.23,1154.91 2057.31,1157.92 2053.38,1160.91 2049.41,1163.89 2045.41,1166.86 2041.39,1169.8 2037.34,1172.73 2033.26,1175.65 2029.16,1178.55 2025.02,1181.43 2020.86,1184.29 2016.68,1187.14 2012.47,1189.97 2008.23,1192.79 2003.96,1195.58 1999.67,1198.36 1995.35,1201.12 1991.01,1203.87 1986.64,1206.6 1982.25,1209.31 1977.83,1212 1973.38,1214.67 1968.91,1217.33 1964.42,1219.97 1959.9,1222.59 1955.35,1225.19 1950.78,1227.77 1946.19,1230.34 1941.57,1232.89 1936.93,1235.42 1932.27,1237.92 1927.58,1240.42 1922.87,1242.89 1918.14,1245.34 1913.38,1247.77 1908.6,1250.19 1903.8,1252.58 1898.97,1254.96 1894.13,1257.32 1889.26,1259.65 1884.37,1261.97 1879.46,1264.27 1874.52,1266.55 1869.57,1268.8 1864.59,1271.04 1859.6,1273.26 1854.58,1275.46 1849.54,1277.64 1844.48,1279.79 1839.4,1281.93 1834.3,1284.05 1829.19,1286.14 1824.05,1288.22 1818.89,1290.27 1813.71,1292.31 1808.52,1294.32 1803.31,1296.31 1798.07,1298.28 1792.82,1300.23 1787.55,1302.16 1782.26,1304.07 1776.96,1305.95 1771.64,1307.82 1766.3,1309.66 1760.94,1311.48 1755.57,1313.28 1750.17,1315.06 1744.77,1316.82 1739.34,1318.56 1733.9,1320.27 1728.45,1321.96 1722.97,1323.63 1717.49,1325.28 1711.98,1326.9 1706.47,1328.51 1700.93,1330.09 1695.39,1331.65 1689.82,1333.18 1684.25,1334.7 1678.66,1336.19 1673.05,1337.66 1667.43,1339.1 1661.8,1340.53 1656.16,1341.93 1650.5,1343.31 1644.83,1344.66 1639.15,1345.99 1633.45,1347.3 1627.74,1348.59 1622.02,1349.86 1616.29,1351.1 1610.55,1352.31 1604.79,1353.51 1599.03,1354.68 1593.25,1355.83 1587.46,1356.96 1581.67,1358.06 1575.86,1359.14 1570.04,1360.19 1564.21,1361.22 1558.38,1362.23 1552.53,1363.22 1546.67,1364.18 1540.81,1365.11 1534.94,1366.03 1529.05,1366.92 1523.16,1367.79 1517.27,1368.63 1511.36,1369.45 1505.45,1370.24 1499.53,1371.02 1493.6,1371.76 1487.66,1372.49 1481.72,1373.19 1475.78,1373.87 1469.82,1374.52 1463.86,1375.15 1457.9,1375.75 1451.92,1376.33 1445.95,1376.89 1439.97,1377.42 1433.98,1377.93 1427.99,1378.41 1421.99,1378.87 1415.99,1379.31 1409.99,1379.72 1403.98,1380.11 1397.97,1380.47 1391.95,1380.81 1385.94,1381.13 1379.92,1381.42 1373.89,1381.69 1367.87,1381.93 1361.84,1382.15 1355.81,1382.34 1349.78,1382.51 1343.75,1382.66 1337.71,1382.78 1331.68,1382.87 1325.64,1382.95 1319.6,1383 1313.57,1383.02 1307.53,1383.02 1301.49,1383 1295.46,1382.95 1289.42,1382.87 1283.39,1382.78 1277.35,1382.66 1271.32,1382.51 1265.29,1382.34 1259.26,1382.15 1253.23,1381.93 1247.21,1381.69 1241.18,1381.42 1235.16,1381.13 1229.14,1380.81 1223.13,1380.47 1217.12,1380.11 1211.11,1379.72 1205.11,1379.31 1199.11,1378.87 1193.11,1378.41 1187.12,1377.93 1181.13,1377.42 1175.15,1376.89 1169.17,1376.33 1163.2,1375.75 1157.24,1375.15 1151.28,1374.52 1145.32,1373.87 1139.37,1373.19 1133.43,1372.49 1127.5,1371.76 1121.57,1371.02 1115.65,1370.24 1109.74,1369.45 1103.83,1368.63 1097.93,1367.79 1092.04,1366.92 1086.16,1366.03 1080.29,1365.11 1074.42,1364.18 1068.57,1363.22 1062.72,1362.23 1056.88,1361.22 1051.06,1360.19 1045.24,1359.14 1039.43,1358.06 1033.63,1356.96 1027.85,1355.83 1022.07,1354.68 1016.3,1353.51 1010.55,1352.31 1004.81,1351.1 999.076,1349.86 993.356,1348.59 987.648,1347.3 981.952,1345.99 976.269,1344.66 970.598,1343.31 964.941,1341.93 959.296,1340.53 953.664,1339.1 948.046,1337.66 942.441,1336.19 936.851,1334.7 931.274,1333.18 925.712,1331.65 920.165,1330.09 914.632,1328.51 909.114,1326.9 903.611,1325.28 898.124,1323.63 892.651,1321.96 887.195,1320.27 881.755,1318.56 876.331,1316.82 870.923,1315.06 865.532,1313.28 860.158,1311.48 854.801,1309.66 849.461,1307.82 844.138,1305.95 838.833,1304.07 833.546,1302.16 828.276,1300.23 823.025,1298.28 817.793,1296.31 812.578,1294.32 807.383,1292.31 802.207,1290.27 797.05,1288.22 791.912,1286.14 786.794,1284.05 781.695,1281.93 776.617,1279.79 771.558,1277.64 766.52,1275.46 761.502,1273.26 756.506,1271.04 751.53,1268.8 746.575,1266.55 741.641,1264.27 736.729,1261.97 731.839,1259.65 726.97,1257.32 722.123,1254.96 717.299,1252.58 712.497,1250.19 707.717,1247.77 702.961,1245.34 698.227,1242.89 693.516,1240.42 688.829,1237.92 684.165,1235.42 679.524,1232.89 674.908,1230.34 670.315,1227.77 665.747,1225.19 661.203,1222.59 656.683,1219.97 652.188,1217.33 647.718,1214.67 643.273,1212 638.853,1209.31 634.458,1206.6 630.089,1203.87 625.746,1201.12 621.428,1198.36 617.137,1195.58 612.871,1192.79 608.632,1189.97 604.419,1187.14 600.233,1184.29 596.074,1181.43 591.942,1178.55 587.837,1175.65 583.759,1172.73 579.708,1169.8 575.685,1166.86 571.69,1163.89 567.723,1160.91 563.783,1157.92 559.873,1154.91 555.99,1151.88 552.135,1148.84 548.31,1145.78 544.513,1142.71 540.744,1139.62 537.005,1136.52 533.296,1133.4 529.615,1130.27 525.964,1127.12 522.342,1123.96 518.751,1120.78 515.189,1117.59 511.657,1114.38 508.155,1111.16 504.684,1107.93 501.243,1104.68 497.832,1101.42 494.452,1098.14 491.103,1094.86 487.785,1091.55 484.498,1088.24 481.242,1084.91 478.017,1081.57 474.824,1078.22 471.662,1074.85 468.532,1071.47 465.434,1068.08 462.367,1064.67 459.333,1061.25 456.33,1057.83 453.36,1054.38 450.422,1050.93 447.517,1047.47 444.644,1043.99 441.804,1040.5 438.997,1037 436.222,1033.49 433.481,1029.97 430.772,1026.44 428.097,1022.9 425.455,1019.34 422.847,1015.78 420.271,1012.2 417.73,1008.62 415.222,1005.02 412.748,1001.42 410.308,997.801 407.902,994.176 405.53,990.542 403.192,986.898 400.888,983.244 398.618,979.582 396.383,975.91 394.183,972.229 392.017,968.54 389.885,964.842 387.789,961.135 385.727,957.42 383.7,953.697 381.708,949.966 379.751,946.227 377.829,942.48 375.942,938.726 374.091,934.964 372.275,931.194 370.494,927.417 368.749,923.634 367.039,919.843 365.365,916.045 363.727,912.241 362.124,908.43 360.557,904.613 359.026,900.79 357.531,896.961 356.072,893.125 354.649,889.284 353.261,885.437 351.91,881.585 350.595,877.728 349.317,873.865 348.074,869.997 346.868,866.124 345.698,862.246 344.565,858.364 343.468,854.477 342.407,850.586 341.384,846.691 340.396,842.792 339.445,838.888 338.531,834.981 337.654,831.071 336.813,827.157 336.009,823.239 335.242,819.319 334.511,815.395 333.817,811.469 333.161,807.54 332.541,803.608 331.957,799.674 331.411,795.738 330.902,791.8 330.43,787.859 329.995,783.917 329.596,779.973 329.235,776.027 328.911,772.081 328.623,768.133 328.373,764.183 328.16,760.233 327.984,756.282 327.845,752.331 327.743,748.379 327.678,744.426 327.65,740.474 327.66,736.521 327.706,732.569 327.789,728.617 327.91,724.665 328.067,720.714 328.262,716.764 328.494,712.814 328.762,708.865 329.068,704.918 329.411,700.971 329.791,697.027 330.208,693.084 330.661,689.142 331.152,685.203 331.68,681.266 332.244,677.33 332.846,673.398 333.484,669.467 334.16,665.539 334.872,661.614 335.621,657.692 336.406,653.773 337.229,649.858 338.088,645.945 338.984,642.037 339.916,638.132 340.885,634.23 341.891,630.333 342.933,626.44 344.012,622.551 345.127,618.666 346.279,614.786 347.467,610.911 348.691,607.041 349.951,603.175 351.248,599.315 352.581,595.46 353.95,591.61 355.356,587.767 356.797,583.928 358.274,580.096 359.787,576.269 361.336,572.449 362.921,568.635 364.542,564.828 366.198,561.027 367.89,557.233 369.617,553.446 371.38,549.665 373.179,545.892 375.012,542.126 376.881,538.368 378.786,534.617 380.725,530.874 382.7,527.139 384.709,523.412 386.753,519.693 388.833,515.982 390.947,512.28 393.095,508.586 395.279,504.901 397.497,501.225 399.749,497.558 402.035,493.9 404.356,490.251 406.712,486.612 409.101,482.982 411.524,479.362 413.981,475.751 416.472,472.151 418.997,468.561 421.555,464.981 424.147,461.411 426.772,457.852 429.431,454.303 432.122,450.765 434.847,447.238 437.605,443.723 440.396,440.218 443.22,436.724 446.077,433.242 448.966,429.771 451.887,426.313 454.841,422.866 457.828,419.431 460.846,416.008 463.897,412.597 466.979,409.198 470.093,405.812 473.239,402.439 476.417,399.078 479.626,395.73 482.866,392.395 486.138,389.074 489.441,385.765 492.774,382.47 496.139,379.188 499.534,375.92 502.96,372.665 506.416,369.425 509.903,366.198 513.419,362.986 516.966,359.787 520.543,356.603 524.15,353.433 527.786,350.278 531.452,347.138 535.147,344.012 538.871,340.902 542.625,337.806 546.408,334.726 550.219,331.66 554.059,328.611 557.928,325.576 561.825,322.557 565.75,319.555 569.703,316.567 573.684,313.596 577.694,310.641 581.73,307.702 585.795,304.78 589.886,301.873 594.005,298.984 598.15,296.111 602.323,293.254 606.522,290.415 610.748,287.592 615.001,284.786 619.279,281.998 623.584,279.227 627.914,276.473 632.271,273.736 636.652,271.018 641.06,268.317 645.492,265.633 649.95,262.968 654.432,260.321 658.94,257.691 663.472,255.08 668.028,252.487 672.609,249.912 677.213,247.356 681.842,244.819 686.494,242.3 691.17,239.8 695.869,237.318 700.591,234.856 705.336,232.413 710.104,229.989 714.895,227.584 719.709,225.198 724.544,222.832 729.402,220.485 734.281,218.158 739.183,215.85 744.106,213.562 749.05,211.295 754.015,209.047 759.001,206.819 764.009,204.611 769.036,202.423 774.085,200.256 779.154,198.108 784.242,195.982 789.351,193.876 794.478,191.79 799.626,189.725 804.793,187.681 809.979,185.657 815.183,183.655 820.407,181.673 825.649,179.713 830.909,177.774 836.188,175.855 841.484,173.959 846.798,172.083 852.129,170.229 857.478,168.396 862.843,166.585 868.226,164.795 873.625,163.028 879.041,161.281 884.473,159.557 889.922,157.855 895.386,156.174 900.865,154.516 906.361,152.879 911.871,151.265 917.397,149.673 922.937,148.103 928.492,146.555 934.061,145.03 939.645,143.527 945.242,142.047 950.854,140.589 956.478,139.154 962.117,137.742 967.768,136.352 973.432,134.985 979.11,133.641 984.799,132.319 990.501,131.021 996.215,129.745 1001.94,128.493 1007.68,127.263 1013.43,126.057 1019.19,124.874 1024.96,123.714 1030.74,122.577 1036.53,121.463 1042.33,120.373 1048.15,119.306 1053.97,118.263 1059.8,117.243 1065.64,116.246 1071.5,115.273 1077.36,114.323 1083.22,113.397 1089.1,112.495 1094.99,111.616 1100.88,110.761 1106.78,109.93 1112.69,109.123 1118.61,108.339 1124.53,107.579 1130.47,106.843 1136.4,106.131 1142.35,105.442 1148.3,104.778 1154.26,104.137 1160.22,103.521 1166.19,102.928 1172.16,102.36 1178.14,101.815 1184.13,101.295 1190.11,100.798 1196.11,100.326 1202.11,99.8781 1208.11,99.454 1214.11,99.0542 1220.12,98.6785 1226.14,98.3269 1232.15,97.9996 1238.17,97.6965 1244.19,97.4175 1250.22,97.1627 1256.24,96.9323 1262.27,96.726 1268.3,96.544 1274.34,96.3863 1280.37,96.2527 1286.4,96.1435 1292.44,96.0586 1298.48,95.9979 1304.51,95.9615 1310.55,95.9493 "/>
<polyline clip-path="url(#clip482)" style="stroke:#e26f46; stroke-linecap:round; stroke-linejoin:round; stroke-width:16; stroke-opacity:1; fill:none" points="1310.55,95.9493 1316.59,96.2044 1322.62,96.5419 1328.67,96.608 1334.71,96.8063 1340.74,97.1716 1346.77,97.537 1352.81,97.9025 1358.84,98.2681 1364.88,98.6339 1370.91,98.9998 1376.95,99.3657 1382.98,99.7315 1389.01,100.097 1395.05,100.463 1401.08,100.829 1407.12,101.195 1413.15,101.561 1419.18,101.927 1425.22,102.293 1431.25,102.659 1437.29,103.024 1443.32,103.386 1449.37,103.744 1455.41,104.107 1461.45,104.484 1467.49,104.883 1473.51,105.31 1479.53,105.771 1485.53,106.269 1491.52,106.809 1497.49,107.394 1503.44,108.024 1509.38,108.701 1515.3,109.424 1521.21,110.191 1527.1,111 1532.97,111.848 1538.83,112.731 1544.68,113.642 1550.52,114.577 1556.36,115.526 1562.19,116.482 1568.03,117.436 1573.87,118.377 1579.69,119.345 1585.48,120.4 1591.23,121.542 1596.94,122.771 1602.6,124.083 1608.23,125.474 1613.82,126.939 1619.37,128.472 1624.88,130.064 1630.37,131.707 1635.84,133.391 1641.29,135.103 1646.73,136.831 1652.17,138.56 1657.62,140.279 1663.07,141.993 1668.52,143.708 1673.97,145.423 1679.42,147.138 1684.87,148.853 1690.32,150.568 1695.77,152.283 1701.22,153.998 1706.67,155.713 1712.12,157.428 1717.57,159.142 1723.02,160.857 1728.46,162.572 1733.91,164.287 1739.36,166.002 1744.81,167.717 1750.26,169.432 1755.72,171.14 1761.23,172.798 1766.78,174.412 1772.36,175.995 1777.96,177.558 1783.57,179.113 1789.18,180.671 1794.78,182.241 1800.35,183.832 1805.9,185.452 1811.41,187.109 1816.87,188.808 1822.29,190.555 1827.65,192.354 1832.96,194.211 1838.2,196.127 1843.39,198.105 1848.51,200.147 1853.56,202.253 1858.55,204.422 1863.48,206.654 1868.34,208.946 1873.15,211.297 1877.9,213.701 1882.6,216.156 1887.26,218.656 1891.88,221.194 1896.46,223.764 1901.02,226.359 1905.57,228.969 1910.1,231.585 1914.64,234.198 1919.2,236.796 1923.79,239.367 1928.4,241.91 1933.04,244.438 1937.68,246.96 1942.32,249.485 1946.95,252.018 1951.56,254.565 1956.14,257.13 1960.7,259.718 1965.23,262.329 1969.72,264.964 1974.18,267.624 1978.61,270.307 1983.01,273.01 1987.4,275.729 1991.76,278.459 1996.12,281.194 2000.49,283.927 2004.87,286.646 2009.32,289.331 2013.81,291.992 2018.31,294.642 2022.83,297.291 2027.32,299.948 2031.78,302.624 2036.2,305.324 2040.56,308.056 2044.86,310.824 2049.08,313.632 2053.23,316.482 2057.3,319.376 2061.29,322.314 2065.2,325.295 2069.04,328.316 2072.81,331.375 2076.53,334.466 2080.2,337.582 2083.83,340.719 2087.44,343.866 2091.05,347.014 2094.68,350.154 2098.34,353.279 2101.96,356.418 2105.55,359.575 2109.1,362.752 2112.61,365.948 2116.08,369.164 2119.5,372.4 2122.88,375.656 2126.22,378.931 2129.52,382.224 2132.78,385.536 2135.99,388.865 2139.18,392.209 2142.33,395.568 2145.45,398.94 2148.54,402.323 2151.62,405.715 2154.67,409.114 2157.72,412.517 2160.76,415.922 2163.81,419.327 2166.86,422.729 2169.87,426.147 2172.8,429.591 2175.67,433.061 2178.47,436.554 2181.2,440.071 2183.86,443.611 2186.45,447.172 2188.98,450.752 2191.44,454.353 2193.85,457.971 2196.19,461.607 2198.48,465.258 2200.71,468.924 2202.9,472.604 2205.04,476.296 2207.13,480 2209.19,483.713 2211.21,487.435 2213.2,491.164 2215.17,494.9 2217.11,498.64 2219.05,502.384 2220.97,506.13 2222.89,509.876 2224.82,513.621 2226.75,517.364 2228.74,521.098 2230.82,524.818 2232.96,528.529 2235.15,532.233 2237.35,535.934 2239.54,539.636 2241.72,543.342 2243.85,547.054 2245.92,550.776 2247.92,554.508 2249.84,558.253 2251.66,562.012 2253.39,565.787 2255,569.579 2256.5,573.387 2257.89,577.214 2259.17,581.058 2260.32,584.92 2261.37,588.798 2262.31,592.694 2263.16,596.604 2263.91,600.528 2264.58,604.465 2265.18,608.412 2265.74,612.367 2266.25,616.328 2266.75,620.292 2267.24,624.255 2267.76,628.215 2268.33,632.167 2268.93,636.116 2269.52,640.064 2270.11,644.013 2270.71,647.962 2271.3,651.91 2271.9,655.859 2272.49,659.807 2273.09,663.756 2273.68,667.704 2274.28,671.653 2274.87,675.601 2275.46,679.55 2276.06,683.498 2276.65,687.447 2277.25,691.395 2277.84,695.344 2278.44,699.292 2279.03,703.241 2279.63,707.189 2280.22,711.138 2280.81,715.086 2281.41,719.035 2282,722.984 2282.6,726.932 2283.19,730.88 2283.76,734.829 2284.25,738.777 2284.65,742.723 2284.98,746.669 2285.22,750.613 2285.39,754.556 2285.48,758.498 2285.5,762.437 2285.44,766.375 2285.32,770.31 2285.12,774.243 2284.86,778.174 2284.53,782.102 2284.14,786.027 2283.68,789.949 2283.17,793.868 2282.59,797.784 2281.95,801.697 2281.26,805.606 2280.51,809.512 2279.71,813.413 2278.86,817.311 2277.95,821.205 2276.99,825.095 2275.98,828.98 2274.93,832.861 2273.83,836.738 2272.68,840.609 2271.49,844.477 2270.25,848.339 2268.97,852.197 2267.65,856.049 2266.29,859.896 2264.89,863.739 2263.46,867.576 2261.98,871.407 2260.47,875.234 2258.92,879.054 2257.34,882.869 2255.73,886.679 2254.08,890.483 2252.4,894.281 2250.69,898.073 2248.95,901.859 2247.18,905.639 2245.38,909.414 2243.55,913.182 2241.69,916.944 2239.8,920.7 2237.89,924.45 2235.96,928.194 2233.99,931.931 2232.01,935.663 2229.99,939.387 2227.96,943.106 2225.9,946.818 2223.81,950.524 2221.7,954.224 2219.58,957.917 2217.42,961.604 2215.25,965.285 2213.06,968.959 2210.84,972.627 2208.6,976.288 2206.34,979.943 2204.06,983.592 2201.76,987.235 2199.44,990.871 2197.1,994.501 2194.74,998.125 2192.35,1001.74 2189.95,1005.35 2187.53,1008.96 2185.08,1012.56 2182.62,1016.15 2180.13,1019.74 2177.63,1023.32 2175.1,1026.9 2172.55,1030.47 2169.99,1034.03 2167.4,1037.59 2164.78,1041.14 2162.15,1044.69 2159.49,1048.23 2156.81,1051.77 2154.11,1055.3 2151.38,1058.82 2148.61,1062.33 2145.71,1065.78 2142.69,1069.17 2139.55,1072.5 2136.31,1075.78 2132.96,1079.02 2129.53,1082.22 2126.02,1085.38 2122.43,1088.51 2118.78,1091.61 2115.08,1094.68 2111.32,1097.74 2107.51,1100.78 2103.67,1103.8 2099.79,1106.81 2095.88,1109.81 2091.95,1112.81 2088,1115.8 2084.04,1118.79 2080.07,1121.77 2076.09,1124.76 2072.1,1127.75 2068.11,1130.74 2064.12,1133.74 2060.14,1136.74 2056.16,1139.75 2052.18,1142.77 2048.21,1145.78 2044.25,1148.81 2040.29,1151.84 2036.34,1154.87 2032.4,1157.91 2028.46,1160.95 2024.52,1163.99 2020.59,1167.03 2016.66,1170.08 2012.72,1173.11 2008.78,1176.14 2004.82,1179.17 2000.86,1182.18 1996.88,1185.18 1992.88,1188.17 1988.86,1191.13 1984.8,1194.07 1980.71,1196.99 1976.57,1199.88 1972.39,1202.73 1968.16,1205.54 1963.86,1208.32 1959.5,1211.04 1955.07,1213.72 1950.61,1216.38 1946.14,1219.04 1941.66,1221.69 1937.15,1224.31 1932.6,1226.91 1928.03,1229.49 1923.41,1232.02 1918.76,1234.53 1914.05,1236.99 1909.3,1239.41 1904.51,1241.78 1899.66,1244.11 1894.76,1246.39 1889.82,1248.63 1884.82,1250.83 1879.78,1252.98 1874.7,1255.09 1869.57,1257.16 1864.41,1259.2 1859.21,1261.21 1853.99,1263.19 1848.75,1265.15 1843.49,1267.09 1838.21,1269.03 1832.94,1270.96 1827.68,1272.91 1822.43,1274.86 1817.2,1276.84 1811.99,1278.85 1806.79,1280.87 1801.61,1282.91 1796.43,1284.96 1791.25,1287 1786.06,1289.05 1780.87,1291.08 1775.67,1293.1 1770.46,1295.1 1765.24,1297.09 1759.99,1299.05 1754.73,1300.98 1749.45,1302.89 1744.14,1304.77 1738.81,1306.61 1733.46,1308.43 1728.09,1310.21 1722.69,1311.96 1717.27,1313.67 1711.82,1315.36 1706.35,1317.02 1700.86,1318.64 1695.36,1320.24 1689.83,1321.82 1684.29,1323.37 1678.73,1324.91 1673.17,1326.43 1667.59,1327.95 1662.02,1329.45 1656.44,1330.96 1650.86,1332.47 1645.29,1333.99 1639.73,1335.51 1634.15,1336.95 1628.53,1338.31 1622.9,1339.6 1617.24,1340.84 1611.57,1342.04 1605.88,1343.21 1600.19,1344.37 1594.48,1345.53 1588.77,1346.68 1583.06,1347.85 1577.35,1349.04 1571.63,1350.25 1565.92,1351.49 1560.21,1352.75 1554.5,1354.05 1548.79,1355.37 1543.08,1356.73 1537.38,1358.11 1531.67,1359.51 1525.97,1360.94 1520.26,1362.37 1514.56,1363.81 1508.84,1365.24 1503.12,1366.67 1497.4,1368.06 1491.66,1369.42 1485.9,1370.73 1480.12,1371.98 1474.33,1373.14 1468.5,1374.21 1462.65,1375.16 1456.76,1375.97 1450.83,1376.63 1444.88,1377.18 1438.93,1377.78 1432.98,1378.43 1427.03,1379.1 1421.09,1379.78 1415.14,1380.44 1409.19,1381.08 1403.24,1381.68 1397.28,1382.24 1391.32,1382.73 1385.35,1383.17 1379.37,1383.53 1373.39,1383.82 1367.39,1384.04 1361.4,1384.18 1355.39,1384.24 1349.38,1384.23 1343.36,1384.15 1337.33,1384 1331.3,1383.8 1325.26,1383.56 1319.22,1383.28 1313.18,1382.97 1307.13,1382.66 1301.09,1382.35 1295.05,1382.07 1289.01,1381.81 1282.97,1381.54 1276.93,1381.27 1270.88,1380.98 1264.84,1380.68 1258.8,1380.38 1252.76,1380.06 1246.72,1379.73 1240.68,1379.38 1234.64,1379.03 1228.61,1378.66 1222.57,1378.28 1216.55,1377.88 1210.52,1377.48 1204.49,1377.06 1198.47,1376.63 1192.46,1376.18 1186.44,1375.73 1180.43,1375.26 1174.42,1374.79 1168.41,1374.3 1162.41,1373.81 1156.41,1373.31 1150.41,1372.8 1144.41,1372.29 1138.42,1371.77 1132.42,1371.26 1126.43,1370.73 1120.43,1370.21 1114.44,1369.69 1108.44,1369.18 1102.44,1368.66 1096.45,1368.11 1090.46,1367.55 1084.47,1366.96 1078.5,1366.33 1072.54,1365.67 1066.59,1364.98 1060.66,1364.25 1054.75,1363.47 1048.85,1362.66 1042.97,1361.79 1037.12,1360.88 1031.28,1359.93 1025.47,1358.92 1019.69,1357.87 1013.92,1356.77 1008.18,1355.61 1002.47,1354.41 996.778,1353.16 991.112,1351.86 985.47,1350.51 979.852,1349.12 974.257,1347.68 968.683,1346.2 963.132,1344.68 957.6,1343.12 952.087,1341.53 946.591,1339.9 941.111,1338.24 935.646,1336.56 930.191,1334.85 924.748,1333.12 919.312,1331.38 913.881,1329.63 908.454,1327.88 903.026,1326.12 897.595,1324.37 892.158,1322.63 886.713,1320.91 881.23,1319.23 875.703,1317.59 870.143,1315.98 864.561,1314.4 858.969,1312.83 853.375,1311.26 847.789,1309.68 842.218,1308.09 836.67,1306.47 831.153,1304.82 825.672,1303.14 820.232,1301.41 814.837,1299.64 809.492,1297.82 804.201,1295.94 798.963,1294.01 793.783,1292.03 788.66,1289.98 783.595,1287.88 778.586,1285.72 773.634,1283.51 768.734,1281.24 763.886,1278.92 759.084,1276.55 754.326,1274.14 749.605,1271.69 744.916,1269.21 740.253,1266.71 735.607,1264.18 730.973,1261.65 726.34,1259.11 721.699,1256.58 717.04,1254.07 712.359,1251.59 707.699,1249.09 703.064,1246.57 698.448,1244.05 693.848,1241.51 689.258,1238.96 684.675,1236.41 680.095,1233.85 675.516,1231.29 670.936,1228.73 666.353,1226.17 661.766,1223.6 657.174,1221.04 652.577,1218.48 647.976,1215.91 643.371,1213.35 638.764,1210.78 634.157,1208.21 629.552,1205.63 624.952,1203.05 620.361,1200.46 615.784,1197.87 611.223,1195.26 606.686,1192.63 602.176,1189.99 597.701,1187.32 593.268,1184.63 588.882,1181.91 584.553,1179.15 580.288,1176.36 576.096,1173.53 571.987,1170.65 567.968,1167.71 564.003,1164.75 560.066,1161.77 556.157,1158.78 552.277,1155.77 548.428,1152.75 544.609,1149.71 540.822,1146.66 537.067,1143.58 533.344,1140.5 529.654,1137.39 525.997,1134.27 522.373,1131.13 518.782,1127.98 515.225,1124.8 511.7,1121.61 508.208,1118.41 504.748,1115.19 501.32,1111.95 497.924,1108.7 494.559,1105.43 491.225,1102.15 487.919,1098.85 484.643,1095.54 481.394,1092.22 478.172,1088.88 474.976,1085.54 471.804,1082.18 468.656,1078.82 465.529,1075.44 462.422,1072.06 459.335,1068.67 456.264,1065.27 453.216,1061.87 450.214,1058.44 447.261,1055.01 444.357,1051.55 441.502,1048.07 438.696,1044.58 435.938,1041.07 433.227,1037.55 430.564,1034.01 427.948,1030.45 425.378,1026.89 422.853,1023.3 420.373,1019.71 417.936,1016.1 415.542,1012.47 413.188,1008.84 410.875,1005.2 408.6,1001.54 406.362,997.873 404.16,994.197 401.991,990.512 399.855,986.818 397.749,983.116 395.671,979.408 393.62,975.692 391.592,971.97 389.587,968.243 387.601,964.511 385.633,960.775 383.679,957.036 381.737,953.293 379.805,949.549 377.879,945.803 375.957,942.056 374.036,938.309 372.112,934.562 370.183,930.816 368.245,927.073 366.257,923.338 364.18,919.616 362.041,915.905 359.86,912.199 357.66,908.496 355.461,904.794 353.28,901.088 351.135,897.377 349.039,893.659 347.007,889.93 345.049,886.19 343.176,882.438 341.395,878.67 339.715,874.888 338.139,871.09 336.671,867.274 335.313,863.442 334.065,859.593 332.925,855.727 331.891,851.845 330.958,847.948 330.119,844.036 329.366,840.111 328.689,836.174 328.078,832.227 327.52,828.272 326.999,824.312 326.501,820.347 326.006,816.383 325.495,812.42 324.948,808.463 324.344,804.513 323.685,800.563 322.991,796.614 322.28,792.664 321.569,788.714 320.872,784.764 320.202,780.815 319.57,776.865 318.985,772.916 318.455,768.966 317.986,765.017 317.581,761.068 317.243,757.12 316.973,753.171 316.768,749.223 316.627,745.274 316.544,741.326 316.512,737.379 316.524,733.431 316.569,729.483 316.635,725.535 316.709,721.588 316.775,717.641 316.817,713.693 316.893,709.746 317.047,705.8 317.276,701.857 317.58,697.917 317.955,693.979 318.401,690.046 318.914,686.116 319.494,682.19 320.137,678.269 320.841,674.352 321.603,670.441 322.42,666.534 323.29,662.631 324.209,658.734 325.173,654.841 326.181,650.953 327.227,647.069 328.308,643.189 329.421,639.313 330.561,635.441 331.724,631.571 332.906,627.704 334.103,623.839 335.31,619.975 336.521,616.112 337.733,612.249 338.94,608.385 340.136,604.519 341.262,600.64 342.306,596.743 343.296,592.835 344.258,588.922 345.216,585.007 346.192,581.097 347.206,577.194 348.275,573.302 349.415,569.425 350.638,565.566 351.955,561.726 353.374,557.907 354.903,554.11 356.545,550.337 358.301,546.588 360.172,542.862 362.155,539.16 364.245,535.48 366.436,531.82 368.717,528.18 371.078,524.555 373.505,520.945 375.981,517.344 378.489,513.751 381.009,510.159 383.518,506.565 385.99,502.964 388.439,499.359 390.945,495.771 393.506,492.197 396.115,488.637 398.764,485.088 401.446,481.548 404.156,478.016 406.888,474.49 409.636,470.968 412.397,467.45 415.166,463.934 417.939,460.42 420.715,456.906 423.489,453.391 426.261,449.876 429.028,446.36 431.79,442.842 434.546,439.323 437.297,435.802 440.043,432.279 442.784,428.756 445.523,425.232 448.262,421.708 451.004,418.184 453.753,414.664 456.529,411.151 459.338,407.65 462.182,404.162 465.067,400.69 467.994,397.235 470.967,393.798 473.988,390.382 477.06,386.987 480.183,383.614 483.359,380.264 486.59,376.937 489.875,373.635 493.215,370.357 496.609,367.103 500.057,363.874 503.558,360.669 507.111,357.487 510.713,354.327 514.363,351.19 518.059,348.074 521.797,344.977 525.575,341.898 529.388,338.836 533.233,335.788 537.105,332.753 541.001,329.729 544.913,326.714 548.838,323.703 552.77,320.696 556.702,317.689 560.627,314.679 564.539,311.663 568.458,308.652 572.441,305.68 576.487,302.746 580.59,299.848 584.744,296.981 588.945,294.143 593.187,291.331 597.467,288.544 601.779,285.778 606.119,283.03 610.485,280.3 614.872,277.584 619.277,274.882 623.697,272.19 628.13,269.508 632.572,266.833 637.023,264.165 641.479,261.502 645.94,258.843 650.403,256.186 654.868,253.532 659.333,250.878 663.799,248.225 668.264,245.572 672.729,242.917 677.195,240.262 681.664,237.607 686.141,234.956 690.63,232.312 695.134,229.679 699.656,227.061 704.199,224.46 708.766,221.879 713.36,219.321 717.981,216.787 722.633,214.28 727.317,211.801 732.034,209.352 736.785,206.934 741.572,204.547 746.394,202.193 751.252,199.873 756.146,197.585 761.077,195.331 766.043,193.109 771.044,190.92 776.078,188.762 781.145,186.635 786.244,184.536 791.371,182.465 796.526,180.42 801.706,178.398 806.909,176.397 812.131,174.416 817.37,172.449 822.622,170.496 827.885,168.551 833.153,166.613 838.424,164.676 843.692,162.737 848.953,160.791 854.203,158.834 859.461,156.891 864.762,155.002 870.103,153.164 875.481,151.375 880.893,149.631 886.337,147.931 891.811,146.272 897.311,144.651 902.836,143.066 908.382,141.514 913.949,139.993 919.534,138.5 925.135,137.035 930.751,135.593 936.379,134.175 942.018,132.776 947.667,131.395 953.324,130.031 958.988,128.681 964.658,127.344 970.332,126.017 976.01,124.7 981.691,123.39 987.373,122.086 993.058,120.786 998.743,119.49 1004.43,118.195 1010.11,116.899 1015.8,115.603 1021.49,114.304 1027.18,113.023 1032.89,111.776 1038.62,110.567 1044.36,109.397 1050.12,108.266 1055.9,107.175 1061.69,106.125 1067.5,105.116 1073.32,104.148 1079.15,103.221 1085,102.335 1090.87,101.489 1096.74,100.682 1102.63,99.9117 1108.53,99.1779 1114.44,98.4784 1120.36,97.8113 1126.28,97.1744 1132.22,96.5651 1138.16,95.9805 1144.11,95.4178 1150.07,94.8736 1156.03,94.3443 1161.99,93.8262 1167.95,93.3154 1173.92,92.8073 1179.88,92.2975 1185.85,91.7812 1191.81,91.2402 1197.76,90.6234 1203.7,89.96 1209.65,89.2852 1215.6,88.6294 1221.55,88.0186 1227.51,87.4744 1233.47,87.0137 1239.45,86.6487 1245.44,86.3876 1251.43,86.2336 1257.44,86.1857 1263.46,86.238 1269.49,86.3805 1275.52,86.5982 1281.56,86.8722 1287.6,87.1784 1293.64,87.4888 1299.69,87.7702 "/>
<path clip-path="url(#clip480)" d="M327.056 248.629 L750.198 248.629 L750.198 93.1086 L327.056 93.1086  Z" fill="#ffffff" fill-rule="evenodd" fill-opacity="1"/>
<polyline clip-path="url(#clip480)" style="stroke:#000000; stroke-linecap:round; stroke-linejoin:round; stroke-width:4; stroke-opacity:1; fill:none" points="327.056,248.629 750.198,248.629 750.198,93.1086 327.056,93.1086 327.056,248.629 "/>
<polyline clip-path="url(#clip480)" style="stroke:#009af9; stroke-linecap:round; stroke-linejoin:round; stroke-width:16; stroke-opacity:1; fill:none" points="350.34,144.949 490.043,144.949 "/>
<path clip-path="url(#clip480)" d="M529.345 130.84 Q524.253 130.84 521.244 134.636 Q518.258 138.432 518.258 144.983 Q518.258 151.511 521.244 155.307 Q524.253 159.104 529.345 159.104 Q534.438 159.104 537.401 155.307 Q540.387 151.511 540.387 144.983 Q540.387 138.432 537.401 134.636 Q534.438 130.84 529.345 130.84 M529.345 127.044 Q536.614 127.044 540.966 131.928 Q545.318 136.789 545.318 144.983 Q545.318 153.155 540.966 158.039 Q536.614 162.9 529.345 162.9 Q522.054 162.9 517.679 158.039 Q513.327 153.178 513.327 144.983 Q513.327 136.789 517.679 131.928 Q522.054 127.044 529.345 127.044 Z" fill="#000000" fill-rule="nonzero" fill-opacity="1" /><path clip-path="url(#clip480)" d="M567.47 140.284 Q566.753 139.868 565.896 139.682 Q565.063 139.474 564.044 139.474 Q560.433 139.474 558.489 141.835 Q556.568 144.173 556.568 148.571 L556.568 162.229 L552.285 162.229 L552.285 136.303 L556.568 136.303 L556.568 140.331 Q557.91 137.969 560.063 136.835 Q562.216 135.678 565.294 135.678 Q565.734 135.678 566.267 135.747 Q566.799 135.794 567.447 135.909 L567.47 140.284 Z" fill="#000000" fill-rule="nonzero" fill-opacity="1" /><path clip-path="url(#clip480)" d="M571.938 136.303 L576.197 136.303 L576.197 162.229 L571.938 162.229 L571.938 136.303 M571.938 126.21 L576.197 126.21 L576.197 131.604 L571.938 131.604 L571.938 126.21 Z" fill="#000000" fill-rule="nonzero" fill-opacity="1" /><path clip-path="url(#clip480)" d="M602.169 148.965 Q602.169 144.335 600.248 141.789 Q598.35 139.243 594.901 139.243 Q591.475 139.243 589.553 141.789 Q587.655 144.335 587.655 148.965 Q587.655 153.571 589.553 156.118 Q591.475 158.664 594.901 158.664 Q598.35 158.664 600.248 156.118 Q602.169 153.571 602.169 148.965 M606.428 159.011 Q606.428 165.631 603.489 168.849 Q600.549 172.09 594.484 172.09 Q592.239 172.09 590.248 171.742 Q588.257 171.418 586.382 170.724 L586.382 166.58 Q588.257 167.599 590.086 168.085 Q591.915 168.571 593.813 168.571 Q598.003 168.571 600.086 166.372 Q602.169 164.196 602.169 159.775 L602.169 157.668 Q600.85 159.96 598.79 161.094 Q596.729 162.229 593.859 162.229 Q589.091 162.229 586.174 158.594 Q583.257 154.96 583.257 148.965 Q583.257 142.946 586.174 139.312 Q589.091 135.678 593.859 135.678 Q596.729 135.678 598.79 136.812 Q600.85 137.946 602.169 140.238 L602.169 136.303 L606.428 136.303 L606.428 159.011 Z" fill="#000000" fill-rule="nonzero" fill-opacity="1" /><path clip-path="url(#clip480)" d="M615.201 136.303 L619.461 136.303 L619.461 162.229 L615.201 162.229 L615.201 136.303 M615.201 126.21 L619.461 126.21 L619.461 131.604 L615.201 131.604 L615.201 126.21 Z" fill="#000000" fill-rule="nonzero" fill-opacity="1" /><path clip-path="url(#clip480)" d="M649.924 146.581 L649.924 162.229 L645.664 162.229 L645.664 146.719 Q645.664 143.039 644.229 141.21 Q642.794 139.382 639.924 139.382 Q636.475 139.382 634.484 141.581 Q632.493 143.78 632.493 147.576 L632.493 162.229 L628.211 162.229 L628.211 136.303 L632.493 136.303 L632.493 140.331 Q634.021 137.993 636.081 136.835 Q638.164 135.678 640.873 135.678 Q645.34 135.678 647.632 138.456 Q649.924 141.21 649.924 146.581 Z" fill="#000000" fill-rule="nonzero" fill-opacity="1" /><path clip-path="url(#clip480)" d="M670.201 149.196 Q665.039 149.196 663.048 150.377 Q661.058 151.557 661.058 154.405 Q661.058 156.673 662.539 158.016 Q664.044 159.335 666.613 159.335 Q670.155 159.335 672.285 156.835 Q674.437 154.312 674.437 150.145 L674.437 149.196 L670.201 149.196 M678.697 147.437 L678.697 162.229 L674.437 162.229 L674.437 158.293 Q672.979 160.655 670.803 161.789 Q668.627 162.9 665.479 162.9 Q661.498 162.9 659.136 160.678 Q656.798 158.432 656.798 154.682 Q656.798 150.307 659.715 148.085 Q662.655 145.863 668.465 145.863 L674.437 145.863 L674.437 145.446 Q674.437 142.507 672.493 140.909 Q670.572 139.289 667.076 139.289 Q664.854 139.289 662.748 139.821 Q660.641 140.354 658.697 141.419 L658.697 137.483 Q661.035 136.581 663.234 136.141 Q665.433 135.678 667.516 135.678 Q673.141 135.678 675.919 138.594 Q678.697 141.511 678.697 147.437 Z" fill="#000000" fill-rule="nonzero" fill-opacity="1" /><path clip-path="url(#clip480)" d="M687.47 126.21 L691.729 126.21 L691.729 162.229 L687.47 162.229 L687.47 126.21 Z" fill="#000000" fill-rule="nonzero" fill-opacity="1" /><polyline clip-path="url(#clip480)" style="stroke:#e26f46; stroke-linecap:round; stroke-linejoin:round; stroke-width:16; stroke-opacity:1; fill:none" points="350.34,196.789 490.043,196.789 "/>
<path clip-path="url(#clip480)" d="M518.003 183.351 L518.003 196.337 L523.883 196.337 Q527.146 196.337 528.929 194.647 Q530.711 192.958 530.711 189.833 Q530.711 186.731 528.929 185.041 Q527.146 183.351 523.883 183.351 L518.003 183.351 M513.327 179.509 L523.883 179.509 Q529.693 179.509 532.656 182.147 Q535.642 184.763 535.642 189.833 Q535.642 194.948 532.656 197.564 Q529.693 200.18 523.883 200.18 L518.003 200.18 L518.003 214.069 L513.327 214.069 L513.327 179.509 Z" fill="#000000" fill-rule="nonzero" fill-opacity="1" /><path clip-path="url(#clip480)" d="M555.919 192.124 Q555.202 191.708 554.345 191.522 Q553.512 191.314 552.493 191.314 Q548.882 191.314 546.938 193.675 Q545.017 196.013 545.017 200.411 L545.017 214.069 L540.734 214.069 L540.734 188.143 L545.017 188.143 L545.017 192.171 Q546.359 189.809 548.512 188.675 Q550.665 187.518 553.743 187.518 Q554.183 187.518 554.716 187.587 Q555.248 187.634 555.896 187.749 L555.919 192.124 Z" fill="#000000" fill-rule="nonzero" fill-opacity="1" /><path clip-path="url(#clip480)" d="M581.521 200.041 L581.521 202.124 L561.938 202.124 Q562.216 206.522 564.577 208.837 Q566.961 211.129 571.197 211.129 Q573.651 211.129 575.942 210.527 Q578.257 209.925 580.526 208.721 L580.526 212.749 Q578.234 213.721 575.827 214.231 Q573.419 214.74 570.942 214.74 Q564.739 214.74 561.105 211.129 Q557.493 207.518 557.493 201.36 Q557.493 194.995 560.919 191.268 Q564.368 187.518 570.202 187.518 Q575.433 187.518 578.466 190.897 Q581.521 194.254 581.521 200.041 M577.262 198.791 Q577.216 195.296 575.294 193.212 Q573.396 191.129 570.248 191.129 Q566.683 191.129 564.53 193.143 Q562.401 195.157 562.077 198.814 L577.262 198.791 Z" fill="#000000" fill-rule="nonzero" fill-opacity="1" /><path clip-path="url(#clip480)" d="M605.572 192.078 L605.572 178.05 L609.831 178.05 L609.831 214.069 L605.572 214.069 L605.572 210.18 Q604.229 212.495 602.169 213.629 Q600.132 214.74 597.262 214.74 Q592.563 214.74 589.6 210.99 Q586.66 207.24 586.66 201.129 Q586.66 195.018 589.6 191.268 Q592.563 187.518 597.262 187.518 Q600.132 187.518 602.169 188.652 Q604.229 189.763 605.572 192.078 M591.058 201.129 Q591.058 205.828 592.979 208.513 Q594.924 211.175 598.303 211.175 Q601.683 211.175 603.627 208.513 Q605.572 205.828 605.572 201.129 Q605.572 196.43 603.627 193.768 Q601.683 191.083 598.303 191.083 Q594.924 191.083 592.979 193.768 Q591.058 196.43 591.058 201.129 Z" fill="#000000" fill-rule="nonzero" fill-opacity="1" /><path clip-path="url(#clip480)" d="M618.604 188.143 L622.863 188.143 L622.863 214.069 L618.604 214.069 L618.604 188.143 M618.604 178.05 L622.863 178.05 L622.863 183.444 L618.604 183.444 L618.604 178.05 Z" fill="#000000" fill-rule="nonzero" fill-opacity="1" /><path clip-path="url(#clip480)" d="M650.433 189.138 L650.433 193.12 Q648.627 192.124 646.799 191.638 Q644.993 191.129 643.141 191.129 Q638.998 191.129 636.706 193.768 Q634.414 196.384 634.414 201.129 Q634.414 205.874 636.706 208.513 Q638.998 211.129 643.141 211.129 Q644.993 211.129 646.799 210.643 Q648.627 210.133 650.433 209.138 L650.433 213.073 Q648.65 213.907 646.729 214.323 Q644.831 214.74 642.678 214.74 Q636.822 214.74 633.373 211.059 Q629.924 207.379 629.924 201.129 Q629.924 194.786 633.396 191.152 Q636.891 187.518 642.956 187.518 Q644.924 187.518 646.799 187.935 Q648.674 188.328 650.433 189.138 Z" fill="#000000" fill-rule="nonzero" fill-opacity="1" /><path clip-path="url(#clip480)" d="M662.053 180.782 L662.053 188.143 L670.826 188.143 L670.826 191.453 L662.053 191.453 L662.053 205.527 Q662.053 208.698 662.91 209.601 Q663.789 210.504 666.451 210.504 L670.826 210.504 L670.826 214.069 L666.451 214.069 Q661.521 214.069 659.646 212.24 Q657.771 210.388 657.771 205.527 L657.771 191.453 L654.646 191.453 L654.646 188.143 L657.771 188.143 L657.771 180.782 L662.053 180.782 Z" fill="#000000" fill-rule="nonzero" fill-opacity="1" /><path clip-path="url(#clip480)" d="M698.604 200.041 L698.604 202.124 L679.021 202.124 Q679.298 206.522 681.659 208.837 Q684.044 211.129 688.28 211.129 Q690.733 211.129 693.025 210.527 Q695.34 209.925 697.608 208.721 L697.608 212.749 Q695.317 213.721 692.909 214.231 Q690.502 214.74 688.025 214.74 Q681.822 214.74 678.187 211.129 Q674.576 207.518 674.576 201.36 Q674.576 194.995 678.002 191.268 Q681.451 187.518 687.284 187.518 Q692.516 187.518 695.548 190.897 Q698.604 194.254 698.604 200.041 M694.345 198.791 Q694.298 195.296 692.377 193.212 Q690.479 191.129 687.331 191.129 Q683.766 191.129 681.613 193.143 Q679.484 195.157 679.159 198.814 L694.345 198.791 Z" fill="#000000" fill-rule="nonzero" fill-opacity="1" /><path clip-path="url(#clip480)" d="M722.655 192.078 L722.655 178.05 L726.914 178.05 L726.914 214.069 L722.655 214.069 L722.655 210.18 Q721.312 212.495 719.252 213.629 Q717.215 214.74 714.344 214.74 Q709.645 214.74 706.682 210.99 Q703.743 207.24 703.743 201.129 Q703.743 195.018 706.682 191.268 Q709.645 187.518 714.344 187.518 Q717.215 187.518 719.252 188.652 Q721.312 189.763 722.655 192.078 M708.141 201.129 Q708.141 205.828 710.062 208.513 Q712.007 211.175 715.386 211.175 Q718.766 211.175 720.71 208.513 Q722.655 205.828 722.655 201.129 Q722.655 196.43 720.71 193.768 Q718.766 191.083 715.386 191.083 Q712.007 191.083 710.062 193.768 Q708.141 196.43 708.141 201.129 Z" fill="#000000" fill-rule="nonzero" fill-opacity="1" /></svg>
