<?xml version="1.0" encoding="utf-8"?>
<svg xmlns="http://www.w3.org/2000/svg" xmlns:xlink="http://www.w3.org/1999/xlink" width="600" height="400" viewBox="0 0 2400 1600">
<defs>
  <clipPath id="clip420">
    <rect x="0" y="0" width="2400" height="1600"/>
  </clipPath>
</defs>
<path clip-path="url(#clip420)" d="M0 1600 L2400 1600 L2400 0 L0 0  Z" fill="#ffffff" fill-rule="evenodd" fill-opacity="1"/>
<defs>
  <clipPath id="clip421">
    <rect x="480" y="0" width="1681" height="1600"/>
  </clipPath>
</defs>
<path clip-path="url(#clip420)" d="M257.204 1423.18 L2352.76 1423.18 L2352.76 47.2441 L257.204 47.2441  Z" fill="#ffffff" fill-rule="evenodd" fill-opacity="1"/>
<defs>
  <clipPath id="clip422">
    <rect x="257" y="47" width="2097" height="1377"/>
  </clipPath>
</defs>
<polyline clip-path="url(#clip422)" style="stroke:#000000; stroke-linecap:round; stroke-linejoin:round; stroke-width:2; stroke-opacity:0.1; fill:none" points="341.138,1423.18 341.138,47.2441 "/>
<polyline clip-path="url(#clip422)" style="stroke:#000000; stroke-linecap:round; stroke-linejoin:round; stroke-width:2; stroke-opacity:0.1; fill:none" points="829.216,1423.18 829.216,47.2441 "/>
<polyline clip-path="url(#clip422)" style="stroke:#000000; stroke-linecap:round; stroke-linejoin:round; stroke-width:2; stroke-opacity:0.1; fill:none" points="1317.29,1423.18 1317.29,47.2441 "/>
<polyline clip-path="url(#clip422)" style="stroke:#000000; stroke-linecap:round; stroke-linejoin:round; stroke-width:2; stroke-opacity:0.1; fill:none" points="1805.37,1423.18 1805.37,47.2441 "/>
<polyline clip-path="url(#clip422)" style="stroke:#000000; stroke-linecap:round; stroke-linejoin:round; stroke-width:2; stroke-opacity:0.1; fill:none" points="2293.45,1423.18 2293.45,47.2441 "/>
<polyline clip-path="url(#clip420)" style="stroke:#000000; stroke-linecap:round; stroke-linejoin:round; stroke-width:4; stroke-opacity:1; fill:none" points="257.204,1423.18 2352.76,1423.18 "/>
<polyline clip-path="url(#clip420)" style="stroke:#000000; stroke-linecap:round; stroke-linejoin:round; stroke-width:4; stroke-opacity:1; fill:none" points="341.138,1423.18 341.138,1404.28 "/>
<polyline clip-path="url(#clip420)" style="stroke:#000000; stroke-linecap:round; stroke-linejoin:round; stroke-width:4; stroke-opacity:1; fill:none" points="829.216,1423.18 829.216,1404.28 "/>
<polyline clip-path="url(#clip420)" style="stroke:#000000; stroke-linecap:round; stroke-linejoin:round; stroke-width:4; stroke-opacity:1; fill:none" points="1317.29,1423.18 1317.29,1404.28 "/>
<polyline clip-path="url(#clip420)" style="stroke:#000000; stroke-linecap:round; stroke-linejoin:round; stroke-width:4; stroke-opacity:1; fill:none" points="1805.37,1423.18 1805.37,1404.28 "/>
<polyline clip-path="url(#clip420)" style="stroke:#000000; stroke-linecap:round; stroke-linejoin:round; stroke-width:4; stroke-opacity:1; fill:none" points="2293.45,1423.18 2293.45,1404.28 "/>
<path clip-path="url(#clip420)" d="M287.666 1468.75 L317.342 1468.75 L317.342 1472.69 L287.666 1472.69 L287.666 1468.75 Z" fill="#000000" fill-rule="nonzero" fill-opacity="1" /><path clip-path="url(#clip420)" d="M328.245 1481.64 L335.884 1481.64 L335.884 1455.28 L327.573 1456.95 L327.573 1452.69 L335.837 1451.02 L340.513 1451.02 L340.513 1481.64 L348.152 1481.64 L348.152 1485.58 L328.245 1485.58 L328.245 1481.64 Z" fill="#000000" fill-rule="nonzero" fill-opacity="1" /><path clip-path="url(#clip420)" d="M357.596 1479.7 L362.481 1479.7 L362.481 1485.58 L357.596 1485.58 L357.596 1479.7 Z" fill="#000000" fill-rule="nonzero" fill-opacity="1" /><path clip-path="url(#clip420)" d="M382.666 1454.1 Q379.055 1454.1 377.226 1457.66 Q375.42 1461.2 375.42 1468.33 Q375.42 1475.44 377.226 1479.01 Q379.055 1482.55 382.666 1482.55 Q386.3 1482.55 388.105 1479.01 Q389.934 1475.44 389.934 1468.33 Q389.934 1461.2 388.105 1457.66 Q386.3 1454.1 382.666 1454.1 M382.666 1450.39 Q388.476 1450.39 391.531 1455 Q394.61 1459.58 394.61 1468.33 Q394.61 1477.06 391.531 1481.67 Q388.476 1486.25 382.666 1486.25 Q376.856 1486.25 373.777 1481.67 Q370.721 1477.06 370.721 1468.33 Q370.721 1459.58 373.777 1455 Q376.856 1450.39 382.666 1450.39 Z" fill="#000000" fill-rule="nonzero" fill-opacity="1" /><path clip-path="url(#clip420)" d="M776.242 1468.75 L805.917 1468.75 L805.917 1472.69 L776.242 1472.69 L776.242 1468.75 Z" fill="#000000" fill-rule="nonzero" fill-opacity="1" /><path clip-path="url(#clip420)" d="M826.01 1454.1 Q822.399 1454.1 820.57 1457.66 Q818.764 1461.2 818.764 1468.33 Q818.764 1475.44 820.57 1479.01 Q822.399 1482.55 826.01 1482.55 Q829.644 1482.55 831.45 1479.01 Q833.278 1475.44 833.278 1468.33 Q833.278 1461.2 831.45 1457.66 Q829.644 1454.1 826.01 1454.1 M826.01 1450.39 Q831.82 1450.39 834.876 1455 Q837.954 1459.58 837.954 1468.33 Q837.954 1477.06 834.876 1481.67 Q831.82 1486.25 826.01 1486.25 Q820.2 1486.25 817.121 1481.67 Q814.065 1477.06 814.065 1468.33 Q814.065 1459.58 817.121 1455 Q820.2 1450.39 826.01 1450.39 Z" fill="#000000" fill-rule="nonzero" fill-opacity="1" /><path clip-path="url(#clip420)" d="M846.172 1479.7 L851.056 1479.7 L851.056 1485.58 L846.172 1485.58 L846.172 1479.7 Z" fill="#000000" fill-rule="nonzero" fill-opacity="1" /><path clip-path="url(#clip420)" d="M861.287 1451.02 L879.644 1451.02 L879.644 1454.96 L865.57 1454.96 L865.57 1463.43 Q866.588 1463.08 867.607 1462.92 Q868.625 1462.73 869.644 1462.73 Q875.431 1462.73 878.81 1465.9 Q882.19 1469.08 882.19 1474.49 Q882.19 1480.07 878.718 1483.17 Q875.246 1486.25 868.926 1486.25 Q866.75 1486.25 864.482 1485.88 Q862.236 1485.51 859.829 1484.77 L859.829 1480.07 Q861.912 1481.2 864.135 1481.76 Q866.357 1482.32 868.834 1482.32 Q872.838 1482.32 875.176 1480.21 Q877.514 1478.1 877.514 1474.49 Q877.514 1470.88 875.176 1468.77 Q872.838 1466.67 868.834 1466.67 Q866.959 1466.67 865.084 1467.08 Q863.232 1467.5 861.287 1468.38 L861.287 1451.02 Z" fill="#000000" fill-rule="nonzero" fill-opacity="1" /><path clip-path="url(#clip420)" d="M1294.68 1454.1 Q1291.07 1454.1 1289.24 1457.66 Q1287.43 1461.2 1287.43 1468.33 Q1287.43 1475.44 1289.24 1479.01 Q1291.07 1482.55 1294.68 1482.55 Q1298.31 1482.55 1300.12 1479.01 Q1301.95 1475.44 1301.95 1468.33 Q1301.95 1461.2 1300.12 1457.66 Q1298.31 1454.1 1294.68 1454.1 M1294.68 1450.39 Q1300.49 1450.39 1303.54 1455 Q1306.62 1459.58 1306.62 1468.33 Q1306.62 1477.06 1303.54 1481.67 Q1300.49 1486.25 1294.68 1486.25 Q1288.87 1486.25 1285.79 1481.67 Q1282.73 1477.06 1282.73 1468.33 Q1282.73 1459.58 1285.79 1455 Q1288.87 1450.39 1294.68 1450.39 Z" fill="#000000" fill-rule="nonzero" fill-opacity="1" /><path clip-path="url(#clip420)" d="M1314.84 1479.7 L1319.72 1479.7 L1319.72 1485.58 L1314.84 1485.58 L1314.84 1479.7 Z" fill="#000000" fill-rule="nonzero" fill-opacity="1" /><path clip-path="url(#clip420)" d="M1339.91 1454.1 Q1336.3 1454.1 1334.47 1457.66 Q1332.66 1461.2 1332.66 1468.33 Q1332.66 1475.44 1334.47 1479.01 Q1336.3 1482.55 1339.91 1482.55 Q1343.54 1482.55 1345.35 1479.01 Q1347.18 1475.44 1347.18 1468.33 Q1347.18 1461.2 1345.35 1457.66 Q1343.54 1454.1 1339.91 1454.1 M1339.91 1450.39 Q1345.72 1450.39 1348.77 1455 Q1351.85 1459.58 1351.85 1468.33 Q1351.85 1477.06 1348.77 1481.67 Q1345.72 1486.25 1339.91 1486.25 Q1334.1 1486.25 1331.02 1481.67 Q1327.96 1477.06 1327.96 1468.33 Q1327.96 1459.58 1331.02 1455 Q1334.1 1450.39 1339.91 1450.39 Z" fill="#000000" fill-rule="nonzero" fill-opacity="1" /><path clip-path="url(#clip420)" d="M1783.25 1454.1 Q1779.64 1454.1 1777.81 1457.66 Q1776.01 1461.2 1776.01 1468.33 Q1776.01 1475.44 1777.81 1479.01 Q1779.64 1482.55 1783.25 1482.55 Q1786.89 1482.55 1788.69 1479.01 Q1790.52 1475.44 1790.52 1468.33 Q1790.52 1461.2 1788.69 1457.66 Q1786.89 1454.1 1783.25 1454.1 M1783.25 1450.39 Q1789.06 1450.39 1792.12 1455 Q1795.2 1459.58 1795.2 1468.33 Q1795.2 1477.06 1792.12 1481.67 Q1789.06 1486.25 1783.25 1486.25 Q1777.44 1486.25 1774.36 1481.67 Q1771.31 1477.06 1771.31 1468.33 Q1771.31 1459.58 1774.36 1455 Q1777.44 1450.39 1783.25 1450.39 Z" fill="#000000" fill-rule="nonzero" fill-opacity="1" /><path clip-path="url(#clip420)" d="M1803.42 1479.7 L1808.3 1479.7 L1808.3 1485.58 L1803.42 1485.58 L1803.42 1479.7 Z" fill="#000000" fill-rule="nonzero" fill-opacity="1" /><path clip-path="url(#clip420)" d="M1818.53 1451.02 L1836.89 1451.02 L1836.89 1454.96 L1822.81 1454.96 L1822.81 1463.43 Q1823.83 1463.08 1824.85 1462.92 Q1825.87 1462.73 1826.89 1462.73 Q1832.67 1462.73 1836.05 1465.9 Q1839.43 1469.08 1839.43 1474.49 Q1839.43 1480.07 1835.96 1483.17 Q1832.49 1486.25 1826.17 1486.25 Q1823.99 1486.25 1821.73 1485.88 Q1819.48 1485.51 1817.07 1484.77 L1817.07 1480.07 Q1819.16 1481.2 1821.38 1481.76 Q1823.6 1482.32 1826.08 1482.32 Q1830.08 1482.32 1832.42 1480.21 Q1834.76 1478.1 1834.76 1474.49 Q1834.76 1470.88 1832.42 1468.77 Q1830.08 1466.67 1826.08 1466.67 Q1824.2 1466.67 1822.33 1467.08 Q1820.48 1467.5 1818.53 1468.38 L1818.53 1451.02 Z" fill="#000000" fill-rule="nonzero" fill-opacity="1" /><path clip-path="url(#clip420)" d="M2260.6 1481.64 L2268.24 1481.64 L2268.24 1455.28 L2259.93 1456.95 L2259.93 1452.69 L2268.19 1451.02 L2272.87 1451.02 L2272.87 1481.64 L2280.51 1481.64 L2280.51 1485.58 L2260.6 1485.58 L2260.6 1481.64 Z" fill="#000000" fill-rule="nonzero" fill-opacity="1" /><path clip-path="url(#clip420)" d="M2289.95 1479.7 L2294.84 1479.7 L2294.84 1485.58 L2289.95 1485.58 L2289.95 1479.7 Z" fill="#000000" fill-rule="nonzero" fill-opacity="1" /><path clip-path="url(#clip420)" d="M2315.02 1454.1 Q2311.41 1454.1 2309.58 1457.66 Q2307.78 1461.2 2307.78 1468.33 Q2307.78 1475.44 2309.58 1479.01 Q2311.41 1482.55 2315.02 1482.55 Q2318.66 1482.55 2320.46 1479.01 Q2322.29 1475.44 2322.29 1468.33 Q2322.29 1461.2 2320.46 1457.66 Q2318.66 1454.1 2315.02 1454.1 M2315.02 1450.39 Q2320.83 1450.39 2323.89 1455 Q2326.97 1459.58 2326.97 1468.33 Q2326.97 1477.06 2323.89 1481.67 Q2320.83 1486.25 2315.02 1486.25 Q2309.21 1486.25 2306.13 1481.67 Q2303.08 1477.06 2303.08 1468.33 Q2303.08 1459.58 2306.13 1455 Q2309.21 1450.39 2315.02 1450.39 Z" fill="#000000" fill-rule="nonzero" fill-opacity="1" /><path clip-path="url(#clip420)" d="M1134.03 1525.81 L1134.03 1543.66 L1142.11 1543.66 Q1146.6 1543.66 1149.05 1541.34 Q1151.5 1539.02 1151.5 1534.72 Q1151.5 1530.45 1149.05 1528.13 Q1146.6 1525.81 1142.11 1525.81 L1134.03 1525.81 M1127.6 1520.52 L1142.11 1520.52 Q1150.1 1520.52 1154.18 1524.15 Q1158.28 1527.75 1158.28 1534.72 Q1158.28 1541.75 1154.18 1545.35 Q1150.1 1548.95 1142.11 1548.95 L1134.03 1548.95 L1134.03 1568.04 L1127.6 1568.04 L1127.6 1520.52 Z" fill="#000000" fill-rule="nonzero" fill-opacity="1" /><path clip-path="url(#clip420)" d="M1178.14 1536.5 Q1173.43 1536.5 1170.7 1540.19 Q1167.96 1543.85 1167.96 1550.25 Q1167.96 1556.65 1170.66 1560.34 Q1173.4 1564 1178.14 1564 Q1182.82 1564 1185.56 1560.31 Q1188.3 1556.62 1188.3 1550.25 Q1188.3 1543.92 1185.56 1540.23 Q1182.82 1536.5 1178.14 1536.5 M1178.14 1531.54 Q1185.78 1531.54 1190.14 1536.5 Q1194.5 1541.47 1194.5 1550.25 Q1194.5 1559 1190.14 1564 Q1185.78 1568.97 1178.14 1568.97 Q1170.47 1568.97 1166.11 1564 Q1161.78 1559 1161.78 1550.25 Q1161.78 1541.47 1166.11 1536.5 Q1170.47 1531.54 1178.14 1531.54 Z" fill="#000000" fill-rule="nonzero" fill-opacity="1" /><path clip-path="url(#clip420)" d="M1226.94 1533.45 L1226.94 1538.98 Q1224.45 1537.71 1221.78 1537.07 Q1219.11 1536.44 1216.24 1536.44 Q1211.88 1536.44 1209.69 1537.77 Q1207.52 1539.11 1207.52 1541.79 Q1207.52 1543.82 1209.08 1545 Q1210.64 1546.15 1215.35 1547.2 L1217.36 1547.64 Q1223.59 1548.98 1226.2 1551.43 Q1228.85 1553.85 1228.85 1558.21 Q1228.85 1563.17 1224.9 1566.07 Q1220.98 1568.97 1214.11 1568.97 Q1211.24 1568.97 1208.13 1568.39 Q1205.04 1567.85 1201.6 1566.74 L1201.6 1560.69 Q1204.85 1562.38 1208 1563.24 Q1211.15 1564.07 1214.24 1564.07 Q1218.37 1564.07 1220.6 1562.66 Q1222.83 1561.23 1222.83 1558.65 Q1222.83 1556.27 1221.21 1554.99 Q1219.62 1553.72 1214.17 1552.54 L1212.14 1552.07 Q1206.69 1550.92 1204.27 1548.56 Q1201.86 1546.18 1201.86 1542.04 Q1201.86 1537.01 1205.42 1534.27 Q1208.99 1531.54 1215.54 1531.54 Q1218.79 1531.54 1221.65 1532.01 Q1224.52 1532.49 1226.94 1533.45 Z" fill="#000000" fill-rule="nonzero" fill-opacity="1" /><path clip-path="url(#clip420)" d="M1238.17 1532.4 L1244.03 1532.4 L1244.03 1568.04 L1238.17 1568.04 L1238.17 1532.4 M1238.17 1518.52 L1244.03 1518.52 L1244.03 1525.93 L1238.17 1525.93 L1238.17 1518.52 Z" fill="#000000" fill-rule="nonzero" fill-opacity="1" /><path clip-path="url(#clip420)" d="M1262.08 1522.27 L1262.08 1532.4 L1274.14 1532.4 L1274.14 1536.95 L1262.08 1536.95 L1262.08 1556.3 Q1262.08 1560.66 1263.25 1561.9 Q1264.46 1563.14 1268.12 1563.14 L1274.14 1563.14 L1274.14 1568.04 L1268.12 1568.04 Q1261.34 1568.04 1258.76 1565.53 Q1256.19 1562.98 1256.19 1556.3 L1256.19 1536.95 L1251.89 1536.95 L1251.89 1532.4 L1256.19 1532.4 L1256.19 1522.27 L1262.08 1522.27 Z" fill="#000000" fill-rule="nonzero" fill-opacity="1" /><path clip-path="url(#clip420)" d="M1281.84 1532.4 L1287.7 1532.4 L1287.7 1568.04 L1281.84 1568.04 L1281.84 1532.4 M1281.84 1518.52 L1287.7 1518.52 L1287.7 1525.93 L1281.84 1525.93 L1281.84 1518.52 Z" fill="#000000" fill-rule="nonzero" fill-opacity="1" /><path clip-path="url(#clip420)" d="M1313.76 1536.5 Q1309.05 1536.5 1306.32 1540.19 Q1303.58 1543.85 1303.58 1550.25 Q1303.58 1556.65 1306.28 1560.34 Q1309.02 1564 1313.76 1564 Q1318.44 1564 1321.18 1560.31 Q1323.92 1556.62 1323.92 1550.25 Q1323.92 1543.92 1321.18 1540.23 Q1318.44 1536.5 1313.76 1536.5 M1313.76 1531.54 Q1321.4 1531.54 1325.76 1536.5 Q1330.12 1541.47 1330.12 1550.25 Q1330.12 1559 1325.76 1564 Q1321.4 1568.97 1313.76 1568.97 Q1306.09 1568.97 1301.73 1564 Q1297.4 1559 1297.4 1550.25 Q1297.4 1541.47 1301.73 1536.5 Q1306.09 1531.54 1313.76 1531.54 Z" fill="#000000" fill-rule="nonzero" fill-opacity="1" /><path clip-path="url(#clip420)" d="M1369.46 1546.53 L1369.46 1568.04 L1363.61 1568.04 L1363.61 1546.72 Q1363.61 1541.66 1361.63 1539.14 Q1359.66 1536.63 1355.71 1536.63 Q1350.97 1536.63 1348.23 1539.65 Q1345.5 1542.68 1345.5 1547.9 L1345.5 1568.04 L1339.61 1568.04 L1339.61 1532.4 L1345.5 1532.4 L1345.5 1537.93 Q1347.6 1534.72 1350.43 1533.13 Q1353.3 1531.54 1357.02 1531.54 Q1363.16 1531.54 1366.31 1535.36 Q1369.46 1539.14 1369.46 1546.53 Z" fill="#000000" fill-rule="nonzero" fill-opacity="1" /><path clip-path="url(#clip420)" d="M1415.93 1518.58 Q1411.67 1525.9 1409.6 1533.06 Q1407.53 1540.23 1407.53 1547.58 Q1407.53 1554.93 1409.6 1562.16 Q1411.7 1569.35 1415.93 1576.64 L1410.84 1576.64 Q1406.07 1569.16 1403.68 1561.93 Q1401.32 1554.71 1401.32 1547.58 Q1401.32 1540.48 1403.68 1533.29 Q1406.04 1526.09 1410.84 1518.58 L1415.93 1518.58 Z" fill="#000000" fill-rule="nonzero" fill-opacity="1" /><path clip-path="url(#clip420)" d="M1430.8 1550.25 Q1430.8 1556.71 1433.44 1560.4 Q1436.11 1564.07 1440.76 1564.07 Q1445.41 1564.07 1448.08 1560.4 Q1450.75 1556.71 1450.75 1550.25 Q1450.75 1543.79 1448.08 1540.13 Q1445.41 1536.44 1440.76 1536.44 Q1436.11 1536.44 1433.44 1540.13 Q1430.8 1543.79 1430.8 1550.25 M1450.75 1562.7 Q1448.91 1565.88 1446.08 1567.44 Q1443.27 1568.97 1439.33 1568.97 Q1432.87 1568.97 1428.79 1563.81 Q1424.75 1558.65 1424.75 1550.25 Q1424.75 1541.85 1428.79 1536.69 Q1432.87 1531.54 1439.33 1531.54 Q1443.27 1531.54 1446.08 1533.1 Q1448.91 1534.62 1450.75 1537.81 L1450.75 1532.4 L1456.61 1532.4 L1456.61 1581.6 L1450.75 1581.6 L1450.75 1562.7 Z" fill="#000000" fill-rule="nonzero" fill-opacity="1" /><path clip-path="url(#clip420)" d="M1467.75 1518.58 L1472.84 1518.58 Q1477.62 1526.09 1479.97 1533.29 Q1482.36 1540.48 1482.36 1547.58 Q1482.36 1554.71 1479.97 1561.93 Q1477.62 1569.16 1472.84 1576.64 L1467.75 1576.64 Q1471.98 1569.35 1474.05 1562.16 Q1476.15 1554.93 1476.15 1547.58 Q1476.15 1540.23 1474.05 1533.06 Q1471.98 1525.9 1467.75 1518.58 Z" fill="#000000" fill-rule="nonzero" fill-opacity="1" /><polyline clip-path="url(#clip422)" style="stroke:#000000; stroke-linecap:round; stroke-linejoin:round; stroke-width:2; stroke-opacity:0.1; fill:none" points="257.204,1370.43 2352.76,1370.43 "/>
<polyline clip-path="url(#clip422)" style="stroke:#000000; stroke-linecap:round; stroke-linejoin:round; stroke-width:2; stroke-opacity:0.1; fill:none" points="257.204,1049.57 2352.76,1049.57 "/>
<polyline clip-path="url(#clip422)" style="stroke:#000000; stroke-linecap:round; stroke-linejoin:round; stroke-width:2; stroke-opacity:0.1; fill:none" points="257.204,728.712 2352.76,728.712 "/>
<polyline clip-path="url(#clip422)" style="stroke:#000000; stroke-linecap:round; stroke-linejoin:round; stroke-width:2; stroke-opacity:0.1; fill:none" points="257.204,407.852 2352.76,407.852 "/>
<polyline clip-path="url(#clip422)" style="stroke:#000000; stroke-linecap:round; stroke-linejoin:round; stroke-width:2; stroke-opacity:0.1; fill:none" points="257.204,86.9914 2352.76,86.9914 "/>
<polyline clip-path="url(#clip420)" style="stroke:#000000; stroke-linecap:round; stroke-linejoin:round; stroke-width:4; stroke-opacity:1; fill:none" points="257.204,1423.18 257.204,47.2441 "/>
<polyline clip-path="url(#clip420)" style="stroke:#000000; stroke-linecap:round; stroke-linejoin:round; stroke-width:4; stroke-opacity:1; fill:none" points="257.204,1370.43 276.102,1370.43 "/>
<polyline clip-path="url(#clip420)" style="stroke:#000000; stroke-linecap:round; stroke-linejoin:round; stroke-width:4; stroke-opacity:1; fill:none" points="257.204,1049.57 276.102,1049.57 "/>
<polyline clip-path="url(#clip420)" style="stroke:#000000; stroke-linecap:round; stroke-linejoin:round; stroke-width:4; stroke-opacity:1; fill:none" points="257.204,728.712 276.102,728.712 "/>
<polyline clip-path="url(#clip420)" style="stroke:#000000; stroke-linecap:round; stroke-linejoin:round; stroke-width:4; stroke-opacity:1; fill:none" points="257.204,407.852 276.102,407.852 "/>
<polyline clip-path="url(#clip420)" style="stroke:#000000; stroke-linecap:round; stroke-linejoin:round; stroke-width:4; stroke-opacity:1; fill:none" points="257.204,86.9914 276.102,86.9914 "/>
<path clip-path="url(#clip420)" d="M114.26 1370.88 L143.936 1370.88 L143.936 1374.82 L114.26 1374.82 L114.26 1370.88 Z" fill="#000000" fill-rule="nonzero" fill-opacity="1" /><path clip-path="url(#clip420)" d="M154.839 1383.78 L162.477 1383.78 L162.477 1357.41 L154.167 1359.08 L154.167 1354.82 L162.431 1353.15 L167.107 1353.15 L167.107 1383.78 L174.746 1383.78 L174.746 1387.71 L154.839 1387.71 L154.839 1383.78 Z" fill="#000000" fill-rule="nonzero" fill-opacity="1" /><path clip-path="url(#clip420)" d="M184.19 1381.83 L189.075 1381.83 L189.075 1387.71 L184.19 1387.71 L184.19 1381.83 Z" fill="#000000" fill-rule="nonzero" fill-opacity="1" /><path clip-path="url(#clip420)" d="M209.26 1356.23 Q205.649 1356.23 203.82 1359.8 Q202.014 1363.34 202.014 1370.47 Q202.014 1377.57 203.82 1381.14 Q205.649 1384.68 209.26 1384.68 Q212.894 1384.68 214.699 1381.14 Q216.528 1377.57 216.528 1370.47 Q216.528 1363.34 214.699 1359.8 Q212.894 1356.23 209.26 1356.23 M209.26 1352.53 Q215.07 1352.53 218.125 1357.13 Q221.204 1361.72 221.204 1370.47 Q221.204 1379.19 218.125 1383.8 Q215.07 1388.38 209.26 1388.38 Q203.449 1388.38 200.371 1383.8 Q197.315 1379.19 197.315 1370.47 Q197.315 1361.72 200.371 1357.13 Q203.449 1352.53 209.26 1352.53 Z" fill="#000000" fill-rule="nonzero" fill-opacity="1" /><path clip-path="url(#clip420)" d="M115.256 1050.02 L144.931 1050.02 L144.931 1053.96 L115.256 1053.96 L115.256 1050.02 Z" fill="#000000" fill-rule="nonzero" fill-opacity="1" /><path clip-path="url(#clip420)" d="M165.024 1035.37 Q161.413 1035.37 159.584 1038.94 Q157.778 1042.48 157.778 1049.61 Q157.778 1056.71 159.584 1060.28 Q161.413 1063.82 165.024 1063.82 Q168.658 1063.82 170.464 1060.28 Q172.292 1056.71 172.292 1049.61 Q172.292 1042.48 170.464 1038.94 Q168.658 1035.37 165.024 1035.37 M165.024 1031.67 Q170.834 1031.67 173.889 1036.27 Q176.968 1040.86 176.968 1049.61 Q176.968 1058.33 173.889 1062.94 Q170.834 1067.52 165.024 1067.52 Q159.214 1067.52 156.135 1062.94 Q153.079 1058.33 153.079 1049.61 Q153.079 1040.86 156.135 1036.27 Q159.214 1031.67 165.024 1031.67 Z" fill="#000000" fill-rule="nonzero" fill-opacity="1" /><path clip-path="url(#clip420)" d="M185.186 1060.97 L190.07 1060.97 L190.07 1066.85 L185.186 1066.85 L185.186 1060.97 Z" fill="#000000" fill-rule="nonzero" fill-opacity="1" /><path clip-path="url(#clip420)" d="M200.301 1032.29 L218.658 1032.29 L218.658 1036.23 L204.584 1036.23 L204.584 1044.7 Q205.602 1044.35 206.621 1044.19 Q207.639 1044 208.658 1044 Q214.445 1044 217.824 1047.18 Q221.204 1050.35 221.204 1055.76 Q221.204 1061.34 217.732 1064.44 Q214.26 1067.52 207.94 1067.52 Q205.764 1067.52 203.496 1067.15 Q201.25 1066.78 198.843 1066.04 L198.843 1061.34 Q200.926 1062.48 203.149 1063.03 Q205.371 1063.59 207.848 1063.59 Q211.852 1063.59 214.19 1061.48 Q216.528 1059.37 216.528 1055.76 Q216.528 1052.15 214.19 1050.05 Q211.852 1047.94 207.848 1047.94 Q205.973 1047.94 204.098 1048.36 Q202.246 1048.77 200.301 1049.65 L200.301 1032.29 Z" fill="#000000" fill-rule="nonzero" fill-opacity="1" /><path clip-path="url(#clip420)" d="M164.028 714.51 Q160.417 714.51 158.589 718.075 Q156.783 721.617 156.783 728.746 Q156.783 735.853 158.589 739.418 Q160.417 742.959 164.028 742.959 Q167.663 742.959 169.468 739.418 Q171.297 735.853 171.297 728.746 Q171.297 721.617 169.468 718.075 Q167.663 714.51 164.028 714.51 M164.028 710.807 Q169.839 710.807 172.894 715.413 Q175.973 719.996 175.973 728.746 Q175.973 737.473 172.894 742.08 Q169.839 746.663 164.028 746.663 Q158.218 746.663 155.14 742.08 Q152.084 737.473 152.084 728.746 Q152.084 719.996 155.14 715.413 Q158.218 710.807 164.028 710.807 Z" fill="#000000" fill-rule="nonzero" fill-opacity="1" /><path clip-path="url(#clip420)" d="M184.19 740.112 L189.075 740.112 L189.075 745.992 L184.19 745.992 L184.19 740.112 Z" fill="#000000" fill-rule="nonzero" fill-opacity="1" /><path clip-path="url(#clip420)" d="M209.26 714.51 Q205.649 714.51 203.82 718.075 Q202.014 721.617 202.014 728.746 Q202.014 735.853 203.82 739.418 Q205.649 742.959 209.26 742.959 Q212.894 742.959 214.699 739.418 Q216.528 735.853 216.528 728.746 Q216.528 721.617 214.699 718.075 Q212.894 714.51 209.26 714.51 M209.26 710.807 Q215.07 710.807 218.125 715.413 Q221.204 719.996 221.204 728.746 Q221.204 737.473 218.125 742.08 Q215.07 746.663 209.26 746.663 Q203.449 746.663 200.371 742.08 Q197.315 737.473 197.315 728.746 Q197.315 719.996 200.371 715.413 Q203.449 710.807 209.26 710.807 Z" fill="#000000" fill-rule="nonzero" fill-opacity="1" /><path clip-path="url(#clip420)" d="M165.024 393.65 Q161.413 393.65 159.584 397.215 Q157.778 400.757 157.778 407.886 Q157.778 414.993 159.584 418.558 Q161.413 422.099 165.024 422.099 Q168.658 422.099 170.464 418.558 Q172.292 414.993 172.292 407.886 Q172.292 400.757 170.464 397.215 Q168.658 393.65 165.024 393.65 M165.024 389.947 Q170.834 389.947 173.889 394.553 Q176.968 399.136 176.968 407.886 Q176.968 416.613 173.889 421.22 Q170.834 425.803 165.024 425.803 Q159.214 425.803 156.135 421.22 Q153.079 416.613 153.079 407.886 Q153.079 399.136 156.135 394.553 Q159.214 389.947 165.024 389.947 Z" fill="#000000" fill-rule="nonzero" fill-opacity="1" /><path clip-path="url(#clip420)" d="M185.186 419.252 L190.07 419.252 L190.07 425.132 L185.186 425.132 L185.186 419.252 Z" fill="#000000" fill-rule="nonzero" fill-opacity="1" /><path clip-path="url(#clip420)" d="M200.301 390.572 L218.658 390.572 L218.658 394.507 L204.584 394.507 L204.584 402.979 Q205.602 402.632 206.621 402.47 Q207.639 402.284 208.658 402.284 Q214.445 402.284 217.824 405.456 Q221.204 408.627 221.204 414.044 Q221.204 419.622 217.732 422.724 Q214.26 425.803 207.94 425.803 Q205.764 425.803 203.496 425.432 Q201.25 425.062 198.843 424.321 L198.843 419.622 Q200.926 420.757 203.149 421.312 Q205.371 421.868 207.848 421.868 Q211.852 421.868 214.19 419.761 Q216.528 417.655 216.528 414.044 Q216.528 410.433 214.19 408.326 Q211.852 406.22 207.848 406.22 Q205.973 406.22 204.098 406.636 Q202.246 407.053 200.301 407.933 L200.301 390.572 Z" fill="#000000" fill-rule="nonzero" fill-opacity="1" /><path clip-path="url(#clip420)" d="M154.839 100.336 L162.477 100.336 L162.477 73.9707 L154.167 75.6373 L154.167 71.3781 L162.431 69.7114 L167.107 69.7114 L167.107 100.336 L174.746 100.336 L174.746 104.271 L154.839 104.271 L154.839 100.336 Z" fill="#000000" fill-rule="nonzero" fill-opacity="1" /><path clip-path="url(#clip420)" d="M184.19 98.3918 L189.075 98.3918 L189.075 104.271 L184.19 104.271 L184.19 98.3918 Z" fill="#000000" fill-rule="nonzero" fill-opacity="1" /><path clip-path="url(#clip420)" d="M209.26 72.7901 Q205.649 72.7901 203.82 76.3549 Q202.014 79.8966 202.014 87.0262 Q202.014 94.1326 203.82 97.6974 Q205.649 101.239 209.26 101.239 Q212.894 101.239 214.699 97.6974 Q216.528 94.1326 216.528 87.0262 Q216.528 79.8966 214.699 76.3549 Q212.894 72.7901 209.26 72.7901 M209.26 69.0864 Q215.07 69.0864 218.125 73.6929 Q221.204 78.2762 221.204 87.0262 Q221.204 95.753 218.125 100.359 Q215.07 104.943 209.26 104.943 Q203.449 104.943 200.371 100.359 Q197.315 95.753 197.315 87.0262 Q197.315 78.2762 200.371 73.6929 Q203.449 69.0864 209.26 69.0864 Z" fill="#000000" fill-rule="nonzero" fill-opacity="1" /><path clip-path="url(#clip420)" d="M16.4842 971.396 L16.4842 961.815 L48.8219 949.689 L16.4842 937.498 L16.4842 927.918 L64.0042 927.918 L64.0042 934.188 L22.277 934.188 L54.8694 946.442 L54.8694 952.903 L22.277 965.157 L64.0042 965.157 L64.0042 971.396 L16.4842 971.396 Z" fill="#000000" fill-rule="nonzero" fill-opacity="1" /><path clip-path="url(#clip420)" d="M32.4621 901.596 Q32.4621 906.306 36.1542 909.044 Q39.8145 911.781 46.212 911.781 Q52.6095 911.781 56.3017 909.075 Q59.9619 906.338 59.9619 901.596 Q59.9619 896.917 56.2698 894.18 Q52.5777 891.442 46.212 891.442 Q39.8781 891.442 36.186 894.18 Q32.4621 896.917 32.4621 901.596 M27.4968 901.596 Q27.4968 893.957 32.4621 889.596 Q37.4273 885.236 46.212 885.236 Q54.9649 885.236 59.9619 889.596 Q64.9272 893.957 64.9272 901.596 Q64.9272 909.266 59.9619 913.627 Q54.9649 917.955 46.212 917.955 Q37.4273 917.955 32.4621 913.627 Q27.4968 909.266 27.4968 901.596 Z" fill="#000000" fill-rule="nonzero" fill-opacity="1" /><path clip-path="url(#clip420)" d="M35.1993 847.774 Q31.2526 845.577 29.3747 842.522 Q27.4968 839.466 27.4968 835.329 Q27.4968 829.759 31.4117 826.735 Q35.2948 823.711 42.4881 823.711 L64.0042 823.711 L64.0042 829.599 L42.679 829.599 Q37.5546 829.599 35.072 831.414 Q32.5894 833.228 32.5894 836.952 Q32.5894 841.503 35.6131 844.145 Q38.6368 846.787 43.8567 846.787 L64.0042 846.787 L64.0042 852.675 L42.679 852.675 Q37.5228 852.675 35.072 854.489 Q32.5894 856.304 32.5894 860.091 Q32.5894 864.579 35.6449 867.221 Q38.6686 869.863 43.8567 869.863 L64.0042 869.863 L64.0042 875.751 L28.3562 875.751 L28.3562 869.863 L33.8944 869.863 Q30.616 867.857 29.0564 865.056 Q27.4968 862.256 27.4968 858.404 Q27.4968 854.521 29.4702 851.816 Q31.4436 849.079 35.1993 847.774 Z" fill="#000000" fill-rule="nonzero" fill-opacity="1" /><path clip-path="url(#clip420)" d="M44.7161 781.538 L47.5806 781.538 L47.5806 808.465 Q53.6281 808.083 56.8109 804.837 Q59.9619 801.559 59.9619 795.734 Q59.9619 792.36 59.1344 789.209 Q58.3069 786.026 56.6518 782.907 L62.1899 782.907 Q63.5267 786.058 64.227 789.368 Q64.9272 792.678 64.9272 796.084 Q64.9272 804.614 59.9619 809.611 Q54.9967 814.576 46.5303 814.576 Q37.7774 814.576 32.6531 809.866 Q27.4968 805.123 27.4968 797.103 Q27.4968 789.909 32.1438 785.74 Q36.7589 781.538 44.7161 781.538 M42.9973 787.395 Q38.1912 787.459 35.3266 790.1 Q32.4621 792.71 32.4621 797.039 Q32.4621 801.94 35.2312 804.901 Q38.0002 807.829 43.0292 808.274 L42.9973 787.395 Z" fill="#000000" fill-rule="nonzero" fill-opacity="1" /><path clip-path="url(#clip420)" d="M42.4881 742.294 L64.0042 742.294 L64.0042 748.15 L42.679 748.15 Q37.6183 748.15 35.1038 750.124 Q32.5894 752.097 32.5894 756.044 Q32.5894 760.786 35.6131 763.523 Q38.6368 766.261 43.8567 766.261 L64.0042 766.261 L64.0042 772.149 L28.3562 772.149 L28.3562 766.261 L33.8944 766.261 Q30.6797 764.16 29.0883 761.327 Q27.4968 758.463 27.4968 754.739 Q27.4968 748.596 31.3163 745.445 Q35.1038 742.294 42.4881 742.294 Z" fill="#000000" fill-rule="nonzero" fill-opacity="1" /><path clip-path="url(#clip420)" d="M18.2347 724.82 L28.3562 724.82 L28.3562 712.757 L32.9077 712.757 L32.9077 724.82 L52.2594 724.82 Q56.6199 724.82 57.8613 723.642 Q59.1026 722.433 59.1026 718.773 L59.1026 712.757 L64.0042 712.757 L64.0042 718.773 Q64.0042 725.552 61.4897 728.13 Q58.9434 730.708 52.2594 730.708 L32.9077 730.708 L32.9077 735.005 L28.3562 735.005 L28.3562 730.708 L18.2347 730.708 L18.2347 724.82 Z" fill="#000000" fill-rule="nonzero" fill-opacity="1" /><path clip-path="url(#clip420)" d="M49.9359 705.659 L28.3562 705.659 L28.3562 699.803 L49.7131 699.803 Q54.7739 699.803 57.3202 697.829 Q59.8346 695.856 59.8346 691.909 Q59.8346 687.167 56.8109 684.43 Q53.7872 681.66 48.5673 681.66 L28.3562 681.66 L28.3562 675.804 L64.0042 675.804 L64.0042 681.66 L58.5296 681.66 Q61.7762 683.793 63.3676 686.626 Q64.9272 689.427 64.9272 693.151 Q64.9272 699.293 61.1078 702.476 Q57.2883 705.659 49.9359 705.659 M27.4968 690.923 L27.4968 690.923 Z" fill="#000000" fill-rule="nonzero" fill-opacity="1" /><path clip-path="url(#clip420)" d="M35.1993 635.987 Q31.2526 633.79 29.3747 630.735 Q27.4968 627.679 27.4968 623.542 Q27.4968 617.972 31.4117 614.948 Q35.2948 611.924 42.4881 611.924 L64.0042 611.924 L64.0042 617.812 L42.679 617.812 Q37.5546 617.812 35.072 619.627 Q32.5894 621.441 32.5894 625.165 Q32.5894 629.716 35.6131 632.358 Q38.6368 635 43.8567 635 L64.0042 635 L64.0042 640.888 L42.679 640.888 Q37.5228 640.888 35.072 642.702 Q32.5894 644.517 32.5894 648.304 Q32.5894 652.792 35.6449 655.434 Q38.6686 658.076 43.8567 658.076 L64.0042 658.076 L64.0042 663.964 L28.3562 663.964 L28.3562 658.076 L33.8944 658.076 Q30.616 656.07 29.0564 653.269 Q27.4968 650.468 27.4968 646.617 Q27.4968 642.734 29.4702 640.029 Q31.4436 637.291 35.1993 635.987 Z" fill="#000000" fill-rule="nonzero" fill-opacity="1" /><path clip-path="url(#clip420)" d="M14.5426 565.454 Q21.8632 569.72 29.0246 571.788 Q36.186 573.857 43.5384 573.857 Q50.8908 573.857 58.1159 571.788 Q65.3091 569.688 72.5979 565.454 L72.5979 570.547 Q65.1182 575.321 57.8931 577.708 Q50.668 580.064 43.5384 580.064 Q36.4406 580.064 29.2474 577.708 Q22.0542 575.353 14.5426 570.547 L14.5426 565.454 Z" fill="#000000" fill-rule="nonzero" fill-opacity="1" /><path clip-path="url(#clip420)" d="M58.657 548.426 L77.5631 548.426 L77.5631 554.315 L28.3562 554.315 L28.3562 548.426 L33.7671 548.426 Q30.5842 546.58 29.0564 543.779 Q27.4968 540.947 27.4968 537.032 Q27.4968 530.539 32.6531 526.496 Q37.8093 522.422 46.212 522.422 Q54.6147 522.422 59.771 526.496 Q64.9272 530.539 64.9272 537.032 Q64.9272 540.947 63.3994 543.779 Q61.8398 546.58 58.657 548.426 M46.212 528.502 Q39.7508 528.502 36.0905 531.175 Q32.3984 533.817 32.3984 538.464 Q32.3984 543.111 36.0905 545.784 Q39.7508 548.426 46.212 548.426 Q52.6732 548.426 56.3653 545.784 Q60.0256 543.111 60.0256 538.464 Q60.0256 533.817 56.3653 531.175 Q52.6732 528.502 46.212 528.502 Z" fill="#000000" fill-rule="nonzero" fill-opacity="1" /><path clip-path="url(#clip420)" d="M14.5426 513.638 L14.5426 508.545 Q22.0542 503.771 29.2474 501.415 Q36.4406 499.028 43.5384 499.028 Q50.668 499.028 57.8931 501.415 Q65.1182 503.771 72.5979 508.545 L72.5979 513.638 Q65.3091 509.404 58.1159 507.336 Q50.8908 505.235 43.5384 505.235 Q36.186 505.235 29.0246 507.336 Q21.8632 509.404 14.5426 513.638 Z" fill="#000000" fill-rule="nonzero" fill-opacity="1" /><polyline clip-path="url(#clip422)" style="stroke:#009af9; stroke-linecap:round; stroke-linejoin:round; stroke-width:16; stroke-opacity:1; fill:none" points="1317.29,86.9914 1323.29,87.0035 1329.28,87.0399 1335.28,87.1004 1341.27,87.1851 1347.27,87.294 1353.26,87.4271 1359.25,87.5844 1365.24,87.7659 1371.23,87.9716 1377.21,88.2015 1383.19,88.4554 1389.17,88.7336 1395.15,89.0359 1401.13,89.3623 1407.1,89.7129 1413.07,90.0875 1419.03,90.4863 1424.99,90.9091 1430.95,91.356 1436.9,91.8269 1442.85,92.3218 1448.79,92.8408 1454.73,93.3837 1460.66,93.9507 1466.59,94.5415 1472.51,95.1563 1478.43,95.7949 1484.34,96.4575 1490.24,97.1439 1496.14,97.8541 1502.03,98.5882 1507.92,99.346 1513.79,100.128 1519.66,100.933 1525.52,101.762 1531.38,102.614 1537.22,103.49 1543.06,104.39 1548.89,105.314 1554.71,106.26 1560.52,107.231 1566.32,108.225 1572.11,109.242 1577.89,110.282 1583.67,111.346 1589.43,112.433 1595.18,113.544 1600.93,114.677 1606.66,115.834 1612.38,117.014 1618.09,118.217 1623.78,119.443 1629.47,120.692 1635.15,121.964 1640.81,123.259 1646.46,124.576 1652.1,125.917 1657.72,127.28 1663.34,128.666 1668.93,130.074 1674.52,131.506 1680.09,132.959 1685.65,134.435 1691.2,135.934 1696.73,137.455 1702.25,138.998 1707.75,140.563 1713.24,142.151 1718.71,143.761 1724.17,145.392 1729.61,147.046 1735.03,148.722 1740.45,150.42 1745.84,152.139 1751.22,153.88 1756.58,155.643 1761.93,157.428 1767.26,159.234 1772.57,161.061 1777.86,162.91 1783.14,164.78 1788.4,166.672 1793.64,168.585 1798.87,170.519 1804.07,172.474 1809.26,174.45 1814.43,176.446 1819.58,178.464 1824.71,180.502 1829.82,182.562 1834.92,184.641 1839.99,186.742 1845.04,188.862 1850.08,191.003 1855.09,193.165 1860.08,195.346 1865.06,197.548 1870.01,199.77 1874.94,202.011 1879.85,204.273 1884.74,206.554 1889.61,208.855 1894.45,211.176 1899.28,213.516 1904.08,215.875 1908.86,218.254 1913.62,220.652 1918.35,223.07 1923.07,225.506 1927.76,227.961 1932.42,230.436 1937.07,232.929 1941.69,235.441 1946.28,237.971 1950.86,240.52 1955.41,243.087 1959.93,245.673 1964.43,248.277 1968.91,250.899 1973.36,253.539 1977.79,256.197 1982.19,258.872 1986.57,261.566 1990.92,264.277 1995.24,267.006 1999.55,269.752 2003.82,272.515 2008.07,275.295 2012.29,278.093 2016.49,280.908 2020.66,283.739 2024.8,286.588 2028.92,289.453 2033.01,292.334 2037.08,295.232 2041.11,298.147 2045.12,301.077 2049.1,304.024 2053.06,306.987 2056.98,309.966 2060.88,312.96 2064.75,315.97 2068.59,318.996 2072.41,322.037 2076.19,325.094 2079.95,328.166 2083.68,331.252 2087.38,334.354 2091.04,337.471 2094.69,340.603 2098.3,343.749 2101.88,346.909 2105.43,350.085 2108.95,353.274 2112.45,356.477 2115.91,359.695 2119.34,362.926 2122.74,366.172 2126.12,369.431 2129.46,372.703 2132.77,375.989 2136.05,379.288 2139.3,382.601 2142.52,385.926 2145.7,389.265 2148.86,392.616 2151.98,395.98 2155.08,399.356 2158.14,402.745 2161.17,406.146 2164.16,409.56 2167.13,412.985 2170.06,416.422 2172.96,419.872 2175.83,423.332 2178.67,426.804 2181.48,430.288 2184.25,433.783 2186.99,437.289 2189.69,440.806 2192.37,444.334 2195.01,447.872 2197.61,451.422 2200.19,454.981 2202.73,458.551 2205.24,462.131 2207.71,465.722 2210.15,469.322 2212.56,472.932 2214.93,476.551 2217.27,480.18 2219.57,483.819 2221.84,487.467 2224.08,491.123 2226.28,494.789 2228.45,498.464 2230.59,502.147 2232.69,505.839 2234.75,509.539 2236.78,513.248 2238.78,516.964 2240.74,520.689 2242.66,524.421 2244.55,528.162 2246.41,531.909 2248.23,535.664 2250.02,539.427 2251.77,543.196 2253.48,546.973 2255.16,550.756 2256.81,554.547 2258.42,558.343 2259.99,562.146 2261.53,565.956 2263.03,569.771 2264.5,573.593 2265.93,577.42 2267.33,581.254 2268.69,585.092 2270.01,588.936 2271.3,592.786 2272.55,596.64 2273.77,600.5 2274.95,604.364 2276.09,608.233 2277.2,612.107 2278.27,615.985 2279.31,619.867 2280.3,623.753 2281.27,627.643 2282.19,631.537 2283.08,635.435 2283.94,639.336 2284.75,643.241 2285.53,647.149 2286.28,651.06 2286.98,654.974 2287.65,658.89 2288.29,662.81 2288.89,666.731 2289.45,670.656 2289.97,674.582 2290.46,678.51 2290.91,682.441 2291.32,686.372 2291.7,690.306 2292.04,694.241 2292.34,698.177 2292.61,702.115 2292.84,706.053 2293.03,709.993 2293.19,713.933 2293.31,717.873 2293.39,721.814 2293.44,725.756 2293.45,729.697 2293.42,733.638 2293.36,737.58 2293.25,741.52 2293.12,745.461 2292.94,749.4 2292.73,753.339 2292.48,757.277 2292.2,761.214 2291.87,765.15 2291.52,769.084 2291.12,773.017 2290.69,776.948 2290.22,780.878 2289.71,784.805 2289.17,788.73 2288.59,792.653 2287.98,796.574 2287.32,800.492 2286.63,804.407 2285.91,808.319 2285.15,812.229 2284.35,816.135 2283.51,820.038 2282.64,823.938 2281.73,827.833 2280.79,831.726 2279.81,835.614 2278.79,839.498 2277.74,843.378 2276.65,847.254 2275.52,851.125 2274.36,854.992 2273.16,858.854 2271.93,862.711 2270.66,866.563 2269.35,870.41 2268.01,874.251 2266.63,878.087 2265.22,881.917 2263.77,885.742 2262.29,889.561 2260.77,893.373 2259.21,897.179 2257.62,900.979 2255.99,904.773 2254.33,908.559 2252.63,912.34 2250.9,916.113 2249.13,919.879 2247.33,923.637 2245.49,927.389 2243.61,931.133 2241.7,934.869 2239.76,938.598 2237.78,942.318 2235.77,946.031 2233.72,949.735 2231.64,953.431 2229.52,957.119 2227.37,960.798 2225.19,964.468 2222.97,968.129 2220.71,971.782 2218.42,975.425 2216.1,979.059 2213.75,982.683 2211.36,986.298 2208.93,989.903 2206.48,993.498 2203.99,997.083 2201.46,1000.66 2198.9,1004.22 2196.31,1007.78 2193.69,1011.32 2191.03,1014.85 2188.34,1018.38 2185.62,1021.89 2182.87,1025.39 2180.08,1028.88 2177.26,1032.36 2174.4,1035.82 2171.52,1039.28 2168.6,1042.72 2165.65,1046.15 2162.67,1049.57 2159.66,1052.98 2156.61,1056.37 2153.53,1059.76 2150.42,1063.13 2147.28,1066.48 2144.11,1069.83 2140.91,1073.16 2137.68,1076.48 2134.41,1079.79 2131.12,1083.08 2127.79,1086.36 2124.43,1089.62 2121.05,1092.88 2117.63,1096.11 2114.18,1099.34 2110.7,1102.55 2107.2,1105.75 2103.66,1108.93 2100.09,1112.1 2096.49,1115.25 2092.87,1118.39 2089.21,1121.51 2085.53,1124.62 2081.82,1127.72 2078.07,1130.8 2074.3,1133.86 2070.5,1136.91 2066.68,1139.94 2062.82,1142.96 2058.93,1145.96 2055.02,1148.95 2051.08,1151.92 2047.11,1154.87 2043.12,1157.81 2039.1,1160.74 2035.05,1163.64 2030.97,1166.53 2026.87,1169.41 2022.74,1172.26 2018.58,1175.1 2014.39,1177.92 2010.18,1180.73 2005.95,1183.52 2001.69,1186.29 1997.4,1189.05 1993.08,1191.78 1988.75,1194.5 1984.38,1197.21 1979.99,1199.89 1975.58,1202.56 1971.14,1205.21 1966.67,1207.84 1962.18,1210.45 1957.67,1213.05 1953.13,1215.62 1948.57,1218.18 1943.99,1220.72 1939.38,1223.24 1934.75,1225.74 1930.09,1228.23 1925.41,1230.69 1920.71,1233.14 1915.99,1235.56 1911.24,1237.97 1906.47,1240.36 1901.68,1242.73 1896.87,1245.08 1892.03,1247.41 1887.18,1249.72 1882.3,1252.01 1877.4,1254.28 1872.48,1256.54 1867.54,1258.77 1862.57,1260.98 1857.59,1263.17 1852.59,1265.34 1847.56,1267.49 1842.52,1269.62 1837.46,1271.73 1832.37,1273.82 1827.27,1275.89 1822.15,1277.94 1817.01,1279.97 1811.85,1281.98 1806.67,1283.96 1801.47,1285.93 1796.26,1287.87 1791.02,1289.8 1785.77,1291.7 1780.5,1293.58 1775.22,1295.44 1769.91,1297.28 1764.59,1299.1 1759.26,1300.89 1753.9,1302.66 1748.53,1304.42 1743.15,1306.15 1737.74,1307.86 1732.32,1309.54 1726.89,1311.21 1721.44,1312.85 1715.97,1314.47 1710.49,1316.07 1705,1317.65 1699.49,1319.2 1693.97,1320.73 1688.43,1322.24 1682.88,1323.73 1677.31,1325.19 1671.73,1326.64 1666.14,1328.06 1660.53,1329.45 1654.91,1330.83 1649.28,1332.18 1643.64,1333.51 1637.98,1334.81 1632.31,1336.1 1626.63,1337.36 1620.94,1338.6 1615.23,1339.81 1609.52,1341 1603.79,1342.17 1598.06,1343.32 1592.31,1344.44 1586.55,1345.54 1580.78,1346.61 1575,1347.66 1569.22,1348.69 1563.42,1349.7 1557.61,1350.68 1551.8,1351.64 1545.97,1352.57 1540.14,1353.49 1534.3,1354.37 1528.45,1355.24 1522.59,1356.08 1516.73,1356.9 1510.85,1357.69 1504.97,1358.46 1499.09,1359.21 1493.19,1359.93 1487.29,1360.63 1481.39,1361.3 1475.47,1361.95 1469.55,1362.58 1463.63,1363.18 1457.7,1363.76 1451.76,1364.31 1445.82,1364.85 1439.88,1365.35 1433.93,1365.83 1427.97,1366.29 1422.01,1366.73 1416.05,1367.14 1410.08,1367.53 1404.11,1367.89 1398.14,1368.23 1392.16,1368.54 1386.18,1368.83 1380.2,1369.1 1374.22,1369.34 1368.23,1369.56 1362.24,1369.75 1356.25,1369.92 1350.26,1370.07 1344.27,1370.19 1338.28,1370.28 1332.28,1370.36 1326.29,1370.4 1320.29,1370.43 1314.3,1370.43 1308.3,1370.4 1302.31,1370.36 1296.31,1370.28 1290.32,1370.19 1284.32,1370.07 1278.33,1369.92 1272.34,1369.75 1266.36,1369.56 1260.37,1369.34 1254.38,1369.1 1248.4,1368.83 1242.42,1368.54 1236.45,1368.23 1230.47,1367.89 1224.5,1367.53 1218.54,1367.14 1212.57,1366.73 1206.62,1366.29 1200.66,1365.83 1194.71,1365.35 1188.77,1364.85 1182.82,1364.31 1176.89,1363.76 1170.96,1363.18 1165.03,1362.58 1159.11,1361.95 1153.2,1361.3 1147.29,1360.63 1141.39,1359.93 1135.5,1359.21 1129.61,1358.46 1123.73,1357.69 1117.86,1356.9 1111.99,1356.08 1106.14,1355.24 1100.29,1354.37 1094.45,1353.49 1088.61,1352.57 1082.79,1351.64 1076.97,1350.68 1071.17,1349.7 1065.37,1348.69 1059.58,1347.66 1053.8,1346.61 1048.04,1345.54 1042.28,1344.44 1036.53,1343.32 1030.79,1342.17 1025.07,1341 1019.35,1339.81 1013.65,1338.6 1007.96,1337.36 1002.28,1336.1 996.608,1334.81 990.952,1333.51 985.307,1332.18 979.676,1330.83 974.057,1329.45 968.45,1328.06 962.857,1326.64 957.278,1325.19 951.712,1323.73 946.16,1322.24 940.621,1320.73 935.097,1319.2 929.588,1317.65 924.093,1316.07 918.613,1314.47 913.148,1312.85 907.698,1311.21 902.263,1309.54 896.845,1307.86 891.442,1306.15 886.055,1304.42 880.685,1302.66 875.331,1300.89 869.993,1299.1 864.673,1297.28 859.369,1295.44 854.083,1293.58 848.814,1291.7 843.563,1289.8 838.33,1287.87 833.115,1285.93 827.918,1283.96 822.74,1281.98 817.58,1279.97 812.439,1277.94 807.318,1275.89 802.215,1273.82 797.132,1271.73 792.068,1269.62 787.025,1267.49 782.001,1265.34 776.997,1263.17 772.014,1260.98 767.052,1258.77 762.11,1256.54 757.189,1254.28 752.289,1252.01 747.411,1249.72 742.554,1247.41 737.719,1245.08 732.905,1242.73 728.114,1240.36 723.345,1237.97 718.598,1235.56 713.874,1233.14 709.173,1230.69 704.494,1228.23 699.839,1225.74 695.207,1223.24 690.599,1220.72 686.014,1218.18 681.453,1215.62 676.916,1213.05 672.403,1210.45 667.914,1207.84 663.45,1205.21 659.01,1202.56 654.596,1199.89 650.206,1197.21 645.842,1194.5 641.503,1191.78 637.189,1189.05 632.901,1186.29 628.639,1183.52 624.403,1180.73 620.193,1177.92 616.009,1175.1 611.852,1172.26 607.721,1169.41 603.617,1166.53 599.54,1163.64 595.49,1160.74 591.468,1157.81 587.472,1154.87 583.505,1151.92 579.564,1148.95 575.652,1145.96 571.768,1142.96 567.912,1139.94 564.084,1136.91 560.284,1133.86 556.514,1130.8 552.771,1127.72 549.058,1124.62 545.373,1121.51 541.718,1118.39 538.092,1115.25 534.495,1112.1 530.928,1108.93 527.391,1105.75 523.883,1102.55 520.406,1099.34 516.958,1096.11 513.541,1092.88 510.154,1089.62 506.797,1086.36 503.47,1083.08 500.175,1079.79 496.91,1076.48 493.677,1073.16 490.474,1069.83 487.303,1066.48 484.163,1063.13 481.054,1059.76 477.977,1056.37 474.932,1052.98 471.918,1049.57 468.936,1046.15 465.987,1042.72 463.069,1039.28 460.183,1035.82 457.33,1032.36 454.51,1028.88 451.722,1025.39 448.966,1021.89 446.243,1018.38 443.554,1014.85 440.897,1011.32 438.273,1007.78 435.682,1004.22 433.125,1000.66 430.601,997.083 428.11,993.498 425.653,989.903 423.23,986.298 420.84,982.683 418.484,979.059 416.162,975.425 413.874,971.782 411.62,968.13 409.401,964.468 407.215,960.798 405.064,957.119 402.947,953.431 400.865,949.735 398.817,946.031 396.804,942.318 394.826,938.598 392.882,934.869 390.974,931.133 389.1,927.389 387.261,923.637 385.458,919.878 383.689,916.113 381.956,912.339 380.258,908.559 378.595,904.773 376.968,900.979 375.377,897.179 373.82,893.373 372.3,889.56 370.815,885.742 369.366,881.917 367.952,878.087 366.574,874.251 365.233,870.41 363.927,866.563 362.657,862.711 361.423,858.854 360.225,854.992 359.063,851.125 357.938,847.254 356.848,843.378 355.795,839.498 354.778,835.614 353.798,831.726 352.853,827.833 351.945,823.937 351.074,820.038 350.239,816.135 349.44,812.229 348.678,808.319 347.953,804.407 347.264,800.492 346.612,796.573 345.996,792.653 345.417,788.73 344.874,784.805 344.369,780.877 343.9,776.948 343.467,773.017 343.072,769.084 342.713,765.15 342.391,761.214 342.106,757.277 341.857,753.339 341.646,749.4 341.471,745.461 341.333,741.52 341.231,737.579 341.167,733.638 341.139,729.697 341.148,725.755 341.194,721.814 341.277,717.873 341.397,713.933 341.553,709.993 341.747,706.053 341.977,702.115 342.244,698.177 342.547,694.241 342.888,690.306 343.265,686.372 343.679,682.44 344.13,678.51 344.617,674.582 345.141,670.656 345.702,666.731 346.299,662.81 346.933,658.89 347.604,654.974 348.311,651.06 349.055,647.149 349.835,643.241 350.652,639.336 351.505,635.435 352.395,631.537 353.321,627.643 354.283,623.753 355.282,619.867 356.317,615.984 357.388,612.107 358.496,608.233 359.64,604.364 360.82,600.5 362.035,596.64 363.287,592.786 364.575,588.936 365.899,585.092 367.259,581.253 368.654,577.42 370.086,573.593 371.553,569.771 373.056,565.956 374.594,562.146 376.168,558.343 377.778,554.546 379.422,550.756 381.103,546.973 382.818,543.196 384.569,539.427 386.355,535.664 388.176,531.909 390.032,528.161 391.924,524.421 393.85,520.689 395.811,516.964 397.806,513.248 399.837,509.539 401.902,505.839 404.001,502.147 406.135,498.464 408.304,494.789 410.506,491.123 412.743,487.467 415.014,483.819 417.319,480.18 419.658,476.551 422.031,472.932 424.437,469.322 426.878,465.721 429.351,462.131 431.859,458.551 434.399,454.981 436.974,451.421 439.581,447.872 442.221,444.334 444.894,440.806 447.601,437.289 450.34,433.783 453.112,430.288 455.916,426.804 458.753,423.332 461.622,419.871 464.524,416.422 467.458,412.985 470.423,409.56 473.421,406.146 476.451,402.745 479.512,399.356 482.605,395.98 485.729,392.616 488.885,389.265 492.072,385.926 495.29,382.601 498.539,379.288 501.819,375.989 505.13,372.703 508.471,369.431 511.843,366.172 515.246,362.926 518.678,359.695 522.141,356.477 525.633,353.274 529.156,350.084 532.709,346.909 536.29,343.749 539.902,340.602 543.542,337.471 547.212,334.354 550.911,331.252 554.639,328.165 558.395,325.094 562.181,322.037 565.994,318.996 569.836,315.97 573.707,312.96 577.605,309.966 581.531,306.987 585.485,304.024 589.467,301.077 593.476,298.147 597.512,295.232 601.575,292.334 605.666,289.453 609.783,286.588 613.927,283.739 618.098,280.908 622.295,278.093 626.518,275.295 630.767,272.515 635.042,269.751 639.343,267.005 643.669,264.277 648.021,261.566 652.398,258.872 656.8,256.197 661.227,253.539 665.679,250.899 670.156,248.277 674.656,245.673 679.181,243.087 683.731,240.52 688.303,237.971 692.9,235.44 697.52,232.929 702.164,230.436 706.831,227.961 711.521,225.506 716.234,223.07 720.969,220.652 725.727,218.254 730.507,215.875 735.31,213.516 740.134,211.176 744.98,208.855 749.848,206.554 754.737,204.273 759.647,202.011 764.578,199.769 769.53,197.548 774.504,195.346 779.497,193.165 784.51,191.003 789.544,188.862 794.598,186.742 799.671,184.641 804.764,182.562 809.876,180.502 815.008,178.464 820.158,176.446 825.327,174.45 830.515,172.474 835.72,170.519 840.945,168.585 846.187,166.672 851.447,164.78 856.724,162.91 862.019,161.061 867.331,159.234 872.66,157.428 878.006,155.643 883.368,153.88 888.747,152.139 894.141,150.42 899.552,148.722 904.979,147.046 910.421,145.392 915.879,143.761 921.351,142.151 926.839,140.563 932.341,138.998 937.858,137.455 943.389,135.934 948.934,134.435 954.493,132.959 960.066,131.506 965.652,130.074 971.252,128.666 976.865,127.28 982.49,125.917 988.128,124.576 993.779,123.259 999.441,121.964 1005.12,120.692 1010.8,119.443 1016.5,118.217 1022.21,117.014 1027.93,115.834 1033.66,114.677 1039.4,113.544 1045.16,112.433 1050.92,111.346 1056.69,110.282 1062.48,109.242 1068.27,108.225 1074.07,107.231 1079.88,106.26 1085.7,105.314 1091.53,104.39 1097.37,103.49 1103.21,102.614 1109.06,101.762 1114.93,100.933 1120.8,100.127 1126.67,99.3459 1132.55,98.5882 1138.45,97.8541 1144.34,97.1439 1150.25,96.4575 1156.16,95.7949 1162.07,95.1563 1168,94.5415 1173.92,93.9506 1179.86,93.3837 1185.79,92.8408 1191.74,92.3218 1197.69,91.8269 1203.64,91.3559 1209.59,90.9091 1215.56,90.4863 1221.52,90.0875 1227.49,89.7129 1233.46,89.3623 1239.44,89.0359 1245.41,88.7336 1251.39,88.4554 1257.38,88.2014 1263.36,87.9716 1269.35,87.7659 1275.34,87.5844 1281.33,87.4271 1287.32,87.294 1293.31,87.1851 1299.31,87.1004 1305.3,87.0399 1311.3,87.0035 1317.29,86.9914 "/>
<polyline clip-path="url(#clip422)" style="stroke:#e26f46; stroke-linecap:round; stroke-linejoin:round; stroke-width:16; stroke-opacity:1; fill:none" points="1317.29,86.9914 1323.26,87.0087 1329.23,87.0259 1335.2,86.9922 1341.16,87.0692 1347.12,87.3628 1353.07,87.7394 1359.02,88.103 1364.97,88.4667 1370.92,88.8276 1376.88,89.1462 1382.84,89.451 1388.8,89.7856 1394.74,90.1809 1400.68,90.6549 1406.6,91.2125 1412.51,91.8459 1418.41,92.5346 1424.31,93.2449 1430.21,93.945 1436.11,94.6788 1442,95.4387 1447.89,96.2089 1453.78,96.9794 1459.67,97.7451 1465.56,98.5068 1471.45,99.269 1477.34,100.028 1483.23,100.786 1489.12,101.545 1495.01,102.308 1500.9,103.076 1506.78,103.852 1512.67,104.634 1518.55,105.422 1524.43,106.216 1530.31,107.013 1536.19,107.811 1542.07,108.601 1547.97,109.348 1553.88,110.073 1559.79,110.803 1565.68,111.562 1571.56,112.365 1577.41,113.227 1583.23,114.153 1589.03,115.147 1594.8,116.208 1600.54,117.327 1606.27,118.493 1611.98,119.689 1617.69,120.893 1623.41,122.079 1629.15,123.214 1634.91,124.325 1640.67,125.443 1646.4,126.595 1652.11,127.8 1657.77,129.072 1663.39,130.417 1668.96,131.833 1674.5,133.314 1680,134.845 1685.49,136.405 1690.98,137.966 1696.49,139.493 1702.02,140.979 1707.57,142.458 1713.1,143.957 1718.6,145.499 1724.05,147.097 1729.46,148.761 1734.82,150.493 1740.13,152.287 1745.4,154.132 1750.65,156.01 1755.89,157.898 1761.13,159.781 1766.29,161.766 1771.38,163.85 1776.41,166.007 1781.4,168.214 1786.37,170.45 1791.32,172.702 1796.28,174.955 1801.24,177.202 1806.2,179.437 1811.18,181.659 1816.17,183.871 1821.16,186.076 1826.15,188.285 1831.13,190.502 1836.12,192.719 1841.1,194.937 1846.08,197.154 1851.06,199.371 1856.05,201.588 1861.03,203.805 1866.01,206.022 1870.99,208.239 1875.98,210.456 1880.96,212.673 1885.94,214.89 1890.92,217.107 1895.91,219.324 1900.89,221.541 1905.87,223.758 1910.85,225.975 1915.82,228.204 1920.76,230.463 1925.66,232.751 1930.53,235.069 1935.36,237.416 1940.15,239.794 1944.91,242.2 1949.62,244.636 1954.3,247.102 1958.94,249.596 1963.54,252.119 1968.09,254.672 1972.61,257.252 1977.09,259.861 1981.52,262.498 1985.91,265.162 1990.27,267.854 1994.58,270.573 1998.85,273.318 2003.07,276.089 2007.26,278.886 2011.41,281.709 2015.51,284.555 2019.58,287.427 2023.6,290.321 2027.59,293.239 2031.54,296.179 2035.46,299.141 2039.33,302.125 2043.17,305.128 2046.98,308.152 2050.75,311.194 2054.49,314.255 2058.2,317.334 2061.88,320.429 2065.53,323.539 2069.16,326.665 2072.75,329.805 2076.33,332.958 2079.88,336.124 2083.41,339.3 2086.92,342.487 2090.41,345.683 2093.89,348.887 2097.35,352.099 2100.8,355.316 2104.24,358.539 2107.68,361.765 2111.11,364.993 2114.53,368.223 2117.96,371.454 2121.39,374.682 2124.82,377.909 2128.26,381.132 2131.71,384.35 2135.14,387.576 2138.52,390.821 2141.86,394.085 2145.14,397.368 2148.38,400.67 2151.56,403.992 2154.69,407.333 2157.77,410.694 2160.8,414.075 2163.78,417.475 2166.7,420.894 2169.57,424.333 2172.38,427.79 2175.15,431.265 2177.86,434.759 2180.52,438.269 2183.14,441.796 2185.71,445.34 2188.23,448.898 2190.71,452.471 2193.15,456.058 2195.55,459.657 2197.92,463.268 2200.25,466.889 2202.55,470.52 2204.83,474.159 2207.08,477.805 2209.31,481.456 2211.53,485.111 2213.73,488.769 2215.93,492.428 2218.11,496.091 2220.24,499.766 2222.32,503.453 2224.35,507.151 2226.33,510.86 2228.26,514.579 2230.15,518.31 2231.99,522.05 2233.78,525.801 2235.52,529.561 2237.22,533.331 2238.87,537.109 2240.48,540.897 2242.04,544.693 2243.57,548.498 2245.05,552.31 2246.49,556.13 2247.89,559.956 2249.25,563.79 2250.58,567.631 2251.87,571.477 2253.13,575.329 2254.36,579.187 2255.56,583.049 2256.74,586.916 2257.88,590.788 2259.01,594.663 2260.12,598.542 2261.2,602.423 2262.27,606.307 2263.33,610.193 2264.38,614.082 2265.42,617.97 2266.45,621.861 2267.48,625.752 2268.51,629.641 2269.55,633.531 2270.59,637.419 2271.65,641.307 2272.79,645.191 2274.02,649.073 2275.3,652.954 2276.62,656.833 2277.95,660.713 2279.27,664.592 2280.57,668.472 2281.84,672.353 2283.04,676.236 2284.18,680.12 2285.25,684.007 2286.22,687.895 2287.09,691.787 2287.86,695.681 2288.53,699.578 2289.08,703.479 2289.51,707.382 2289.83,711.288 2290.04,715.198 2290.14,719.11 2290.13,723.026 2290.02,726.943 2289.82,730.864 2289.53,734.786 2289.17,738.711 2288.76,742.637 2288.29,746.564 2287.8,750.492 2287.3,754.421 2286.8,758.349 2286.32,762.276 2285.9,766.203 2285.52,770.13 2285.16,774.06 2284.82,777.992 2284.48,781.924 2284.13,785.856 2283.77,789.788 2283.38,793.717 2282.96,797.645 2282.51,801.57 2282.01,805.491 2281.47,809.409 2280.88,813.324 2280.23,817.234 2279.53,821.14 2278.78,825.041 2277.97,828.938 2277.11,832.831 2276.2,836.72 2275.24,840.604 2274.24,844.485 2273.2,848.363 2272.12,852.238 2271.01,856.111 2269.88,859.982 2268.74,863.852 2267.6,867.722 2266.46,871.592 2265.34,875.464 2264.18,879.326 2262.86,883.156 2261.4,886.958 2259.8,890.737 2258.11,894.496 2256.32,898.241 2254.47,901.974 2252.56,905.699 2250.61,909.419 2248.63,913.136 2246.63,916.852 2244.63,920.57 2242.63,924.291 2240.63,928.017 2238.65,931.747 2236.69,935.484 2234.74,939.227 2232.82,942.975 2230.92,946.729 2229.03,950.488 2227.17,954.25 2225.32,958.015 2223.47,961.78 2221.63,965.544 2219.78,969.303 2217.91,973.055 2216.01,976.797 2214.07,980.525 2212.07,984.237 2210,987.927 2207.84,991.59 2205.58,995.223 2203.19,998.821 2200.69,1002.38 2198.08,1005.91 2195.38,1009.41 2192.59,1012.88 2189.72,1016.32 2186.78,1019.74 2183.77,1023.14 2180.71,1026.52 2177.61,1029.88 2174.46,1033.23 2171.27,1036.57 2168.06,1039.89 2164.82,1043.21 2161.55,1046.51 2158.27,1049.81 2154.98,1053.1 2151.68,1056.39 2148.37,1059.67 2145.06,1062.95 2141.74,1066.23 2138.42,1069.51 2135.1,1072.78 2131.78,1076.05 2128.46,1079.32 2125.14,1082.6 2121.81,1085.87 2118.49,1089.14 2115.16,1092.41 2111.85,1095.69 2108.55,1098.98 2105.26,1102.28 2101.97,1105.57 2098.66,1108.87 2095.34,1112.15 2091.99,1115.41 2088.6,1118.66 2085.18,1121.89 2081.71,1125.1 2078.2,1128.27 2074.63,1131.42 2071.01,1134.53 2067.32,1137.61 2063.57,1140.65 2059.76,1143.66 2055.89,1146.62 2051.95,1149.55 2047.94,1152.45 2043.87,1155.3 2039.73,1158.12 2035.53,1160.9 2031.27,1163.64 2026.96,1166.36 2022.59,1169.04 2018.17,1171.69 2013.7,1174.32 2009.2,1176.92 2004.67,1179.5 2000.1,1182.07 1995.52,1184.63 1990.92,1187.18 1986.32,1189.72 1981.73,1192.27 1977.15,1194.83 1972.59,1197.4 1968.04,1199.97 1963.46,1202.49 1958.85,1204.99 1954.22,1207.46 1949.57,1209.92 1944.93,1212.37 1940.28,1214.83 1935.64,1217.29 1931.01,1219.76 1926.38,1222.25 1921.77,1224.76 1917.18,1227.29 1912.6,1229.83 1908.04,1232.41 1903.49,1235 1898.96,1237.61 1894.44,1240.24 1889.92,1242.88 1885.41,1245.54 1880.89,1248.19 1876.37,1250.85 1871.83,1253.5 1867.28,1256.13 1862.69,1258.73 1858.07,1261.3 1853.4,1263.83 1848.68,1266.3 1843.88,1268.7 1839.01,1271.01 1834.04,1273.23 1828.97,1275.34 1823.78,1277.32 1818.56,1279.27 1813.34,1281.22 1808.12,1283.17 1802.89,1285.11 1797.67,1287.06 1792.45,1289.01 1787.23,1290.96 1782.01,1292.91 1776.79,1294.86 1771.57,1296.81 1766.34,1298.75 1761.12,1300.7 1755.9,1302.65 1750.68,1304.6 1745.46,1306.55 1740.22,1308.46 1734.94,1310.29 1729.61,1312.04 1724.25,1313.73 1718.86,1315.34 1713.43,1316.9 1707.97,1318.41 1702.49,1319.87 1696.97,1321.28 1691.44,1322.66 1685.87,1324 1680.29,1325.31 1674.69,1326.59 1669.07,1327.86 1663.44,1329.1 1657.79,1330.33 1652.12,1331.55 1646.45,1332.76 1640.77,1333.96 1635.07,1335.16 1629.37,1336.36 1623.66,1337.55 1617.94,1338.75 1612.22,1339.95 1606.5,1341.16 1600.77,1342.37 1595.04,1343.59 1589.3,1344.82 1583.57,1346.06 1577.83,1347.3 1572.09,1348.55 1566.35,1349.81 1560.61,1351.07 1554.87,1352.35 1549.13,1353.62 1543.39,1354.9 1537.65,1356.19 1531.91,1357.47 1526.17,1358.75 1520.43,1360.03 1514.69,1361.31 1508.94,1362.57 1503.2,1363.83 1497.45,1365.07 1491.7,1366.3 1485.94,1367.5 1480.18,1368.68 1474.41,1369.83 1468.64,1370.95 1462.86,1372.04 1457.07,1373.08 1451.27,1374.07 1445.46,1375.01 1439.63,1375.9 1433.79,1376.72 1427.94,1377.48 1422.07,1378.16 1416.18,1378.76 1410.27,1379.28 1404.34,1379.7 1398.39,1380.02 1392.43,1380.36 1386.47,1380.74 1380.5,1381.14 1374.54,1381.56 1368.58,1381.98 1362.62,1382.39 1356.66,1382.77 1350.69,1383.13 1344.73,1383.44 1338.77,1383.71 1332.81,1383.93 1326.86,1384.09 1320.9,1384.2 1314.94,1384.24 1308.98,1384.22 1303.03,1384.14 1297.07,1384 1291.12,1383.8 1285.16,1383.55 1279.21,1383.25 1273.26,1382.91 1267.31,1382.54 1261.35,1382.14 1255.4,1381.73 1249.45,1381.32 1243.5,1380.92 1237.55,1380.53 1231.61,1380.12 1225.69,1379.62 1219.78,1379.05 1213.89,1378.42 1208,1377.74 1202.13,1377.03 1196.25,1376.28 1190.38,1375.51 1184.51,1374.73 1178.63,1373.94 1172.75,1373.15 1166.86,1372.37 1160.97,1371.59 1155.07,1370.82 1149.16,1370.07 1143.25,1369.34 1137.33,1368.61 1131.4,1367.91 1125.47,1367.21 1119.53,1366.53 1113.59,1365.86 1107.66,1365.19 1101.72,1364.52 1095.79,1363.84 1089.86,1363.15 1083.94,1362.44 1078.04,1361.7 1072.15,1360.93 1066.29,1360.1 1060.45,1359.22 1054.64,1358.26 1048.86,1357.22 1043.12,1356.09 1037.39,1354.92 1031.64,1353.79 1025.89,1352.67 1020.13,1351.55 1014.36,1350.44 1008.6,1349.33 1002.85,1348.21 997.101,1347.07 991.364,1345.92 985.64,1344.75 979.931,1343.55 974.238,1342.33 968.562,1341.07 962.905,1339.79 957.267,1338.47 951.648,1337.13 946.049,1335.75 940.468,1334.34 934.905,1332.9 929.359,1331.43 923.828,1329.94 918.312,1328.43 912.807,1326.89 907.311,1325.34 901.822,1323.78 896.337,1322.22 890.852,1320.65 885.363,1319.09 879.867,1317.54 874.409,1315.94 869.028,1314.25 863.716,1312.46 858.466,1310.59 853.272,1308.65 848.128,1306.64 843.026,1304.58 837.962,1302.46 832.93,1300.31 827.925,1298.12 822.942,1295.9 817.977,1293.66 813.026,1291.4 808.085,1289.12 803.151,1286.84 798.221,1284.55 793.292,1282.26 788.363,1279.97 783.43,1277.69 778.492,1275.41 773.549,1273.14 768.598,1270.87 763.64,1268.62 758.674,1266.38 753.7,1264.15 748.719,1261.93 743.731,1259.72 738.737,1257.51 733.739,1255.31 728.74,1253.12 723.739,1250.92 718.74,1248.72 713.746,1246.52 708.76,1244.3 703.774,1242.08 698.791,1239.85 693.816,1237.62 688.857,1235.37 683.92,1233.1 679.009,1230.81 674.131,1228.5 669.289,1226.16 664.488,1223.79 659.731,1221.38 655.022,1218.95 650.363,1216.48 645.758,1213.97 641.207,1211.43 636.712,1208.84 632.275,1206.22 627.895,1203.56 623.573,1200.86 619.309,1198.12 615.102,1195.34 610.951,1192.53 606.853,1189.67 602.808,1186.79 598.812,1183.87 594.862,1180.92 590.955,1177.94 587.087,1174.94 583.254,1171.91 579.451,1168.86 575.672,1165.8 571.912,1162.72 568.166,1159.64 564.425,1156.55 560.684,1153.47 556.935,1150.38 553.169,1147.31 549.379,1144.26 545.558,1141.22 541.714,1138.19 537.859,1135.16 534.003,1132.14 530.153,1129.11 526.317,1126.08 522.502,1123.04 518.713,1119.98 514.954,1116.91 511.229,1113.83 507.54,1110.72 503.888,1107.6 500.274,1104.46 496.697,1101.3 493.154,1098.13 489.644,1094.94 486.161,1091.73 482.701,1088.52 479.259,1085.29 475.827,1082.07 472.396,1078.84 468.958,1075.61 465.51,1072.39 462.09,1069.16 458.714,1065.9 455.387,1062.63 452.115,1059.33 448.901,1056.02 445.751,1052.67 442.668,1049.31 439.653,1045.92 436.709,1042.5 433.836,1039.06 431.036,1035.6 428.307,1032.11 425.649,1028.6 423.059,1025.06 420.536,1021.51 418.076,1017.93 415.675,1014.34 413.327,1010.73 411.029,1007.1 408.774,1003.46 406.554,999.804 404.363,996.143 402.192,992.475 400.032,988.804 397.873,985.133 395.705,981.464 393.516,977.801 391.259,974.153 388.935,970.518 386.569,966.89 384.184,963.266 381.8,959.642 379.438,956.013 377.113,952.377 374.841,948.73 372.636,945.07 370.507,941.394 368.465,937.702 366.515,933.99 364.665,930.259 362.917,926.508 361.271,922.737 359.728,918.945 358.285,915.133 356.937,911.302 355.677,907.454 354.497,903.59 353.387,899.712 352.334,895.823 351.323,891.926 350.338,888.024 349.36,884.119 348.37,880.218 347.345,876.323 346.287,872.435 345.228,868.547 344.169,864.659 343.11,860.771 342.051,856.883 340.993,852.995 339.934,849.107 338.875,845.219 337.817,841.331 336.759,837.443 335.701,833.555 334.644,829.667 333.586,825.779 332.529,821.891 331.473,818.002 330.416,814.114 329.359,810.226 328.303,806.338 327.247,802.449 326.191,798.561 325.134,794.673 324.078,790.785 323.062,786.894 322.126,782.998 321.27,779.097 320.49,775.192 319.786,771.282 319.156,767.37 318.597,763.454 318.109,759.535 317.689,755.613 317.335,751.689 317.047,747.763 316.822,743.836 316.659,739.907 316.556,735.977 316.512,732.047 316.525,728.116 316.593,724.184 316.715,720.253 316.89,716.321 317.116,712.39 317.391,708.46 317.715,704.531 318.085,700.603 318.501,696.676 318.96,692.75 319.462,688.826 320.006,684.904 320.589,680.983 321.211,677.065 321.871,673.149 322.567,669.234 323.297,665.323 324.062,661.414 324.859,657.507 325.687,653.602 326.546,649.701 327.434,645.802 328.35,641.906 329.293,638.013 330.261,634.123 331.255,630.235 332.273,626.35 333.313,622.468 334.376,618.589 335.459,614.713 336.563,610.839 337.686,606.968 338.826,603.1 339.985,599.235 341.16,595.371 342.35,591.511 343.556,587.652 344.775,583.796 346.008,579.942 347.254,576.09 348.514,572.237 349.794,568.381 351.098,564.523 352.429,560.664 353.79,556.807 355.185,552.953 356.615,549.103 358.085,545.259 359.596,541.422 361.15,537.592 362.75,533.773 364.397,529.963 366.094,526.165 367.843,522.379 369.643,518.607 371.497,514.848 373.407,511.104 375.371,507.376 377.393,503.663 379.471,499.966 381.606,496.287 383.799,492.624 386.05,488.979 388.358,485.352 390.724,481.742 393.145,478.151 395.623,474.576 398.156,471.02 400.743,467.481 403.383,463.959 406.074,460.454 408.815,456.966 411.605,453.494 414.44,450.037 417.32,446.595 420.242,443.168 423.203,439.754 426.202,436.353 429.235,432.963 432.298,429.584 435.39,426.215 438.507,422.855 441.645,419.502 444.8,416.156 447.97,412.814 451.149,409.476 454.334,406.139 457.52,402.803 460.702,399.466 463.877,396.126 467.039,392.781 470.183,389.429 473.301,386.065 476.376,382.673 479.418,379.26 482.442,375.833 485.459,372.399 488.48,368.964 491.515,365.535 494.574,362.118 497.666,358.717 500.799,355.338 503.981,351.986 507.218,348.663 510.516,345.374 513.881,342.122 517.316,338.91 520.825,335.739 524.412,332.611 528.078,329.529 531.825,326.493 535.653,323.503 539.563,320.559 543.553,317.661 547.622,314.808 551.768,311.999 555.987,309.232 560.276,306.505 564.629,303.816 569.042,301.16 573.509,298.536 578.022,295.938 582.574,293.363 587.157,290.805 591.761,288.259 596.378,285.721 600.994,283.183 605.602,280.639 610.186,278.082 614.735,275.505 619.252,272.903 623.747,270.283 628.226,267.649 632.697,265.008 637.164,262.364 641.632,259.721 646.108,257.084 650.594,254.456 655.096,251.842 659.616,249.243 664.157,246.663 668.722,244.103 673.313,241.566 677.931,239.052 682.578,236.563 687.255,234.1 691.962,231.663 696.697,229.25 701.462,226.863 706.255,224.5 711.073,222.159 715.916,219.839 720.78,217.538 725.663,215.252 730.562,212.98 735.472,210.718 740.389,208.463 745.308,206.209 750.225,203.953 755.133,201.689 760.035,199.421 764.987,197.204 769.995,195.042 775.053,192.929 780.152,190.858 785.288,188.823 790.454,186.818 795.645,184.839 800.856,182.879 806.083,180.936 811.322,179.003 816.568,177.079 821.82,175.159 827.073,173.241 832.325,171.323 837.576,169.403 842.822,167.478 848.063,165.549 853.299,163.614 858.529,161.673 863.752,159.726 868.971,157.774 874.186,155.818 879.397,153.859 884.608,151.899 889.82,149.941 895.037,147.987 900.282,146.074 905.592,144.26 910.96,142.536 916.383,140.896 921.856,139.332 927.372,137.836 932.929,136.402 938.522,135.023 944.147,133.694 949.8,132.409 955.477,131.162 961.176,129.948 966.893,128.764 972.625,127.604 978.37,126.465 984.125,125.343 989.889,124.236 995.659,123.14 1001.43,122.053 1007.21,120.974 1012.99,119.899 1018.77,118.829 1024.56,117.763 1030.34,116.699 1036.12,115.637 1041.9,114.578 1047.69,113.523 1053.47,112.471 1059.25,111.425 1065.04,110.385 1070.83,109.355 1076.63,108.336 1082.42,107.302 1088.21,106.223 1093.98,105.113 1099.76,103.984 1105.53,102.849 1111.3,101.717 1117.08,100.6 1122.86,99.5047 1128.65,98.4406 1134.45,97.4142 1140.26,96.4317 1146.07,95.4979 1151.9,94.6171 1157.75,93.7924 1163.6,93.0259 1169.47,92.3191 1175.35,91.6719 1181.25,91.0838 1187.15,90.5532 1193.07,90.0774 1199.01,89.6529 1204.95,89.2751 1210.9,88.9386 1216.86,88.6368 1222.82,88.3624 1228.79,88.107 1234.76,87.8613 1240.73,87.615 1246.7,87.3568 1252.66,87.0747 1258.62,86.7783 1264.58,86.482 1270.54,86.1857 "/>
<path clip-path="url(#clip420)" d="M327.056 1377.32 L750.198 1377.32 L750.198 1221.8 L327.056 1221.8  Z" fill="#ffffff" fill-rule="evenodd" fill-opacity="1"/>
<polyline clip-path="url(#clip420)" style="stroke:#000000; stroke-linecap:round; stroke-linejoin:round; stroke-width:4; stroke-opacity:1; fill:none" points="327.056,1377.32 750.198,1377.32 750.198,1221.8 327.056,1221.8 327.056,1377.32 "/>
<polyline clip-path="url(#clip420)" style="stroke:#009af9; stroke-linecap:round; stroke-linejoin:round; stroke-width:16; stroke-opacity:1; fill:none" points="350.34,1273.64 490.043,1273.64 "/>
<path clip-path="url(#clip420)" d="M529.345 1259.53 Q524.253 1259.53 521.244 1263.32 Q518.258 1267.12 518.258 1273.67 Q518.258 1280.2 521.244 1283.99 Q524.253 1287.79 529.345 1287.79 Q534.438 1287.79 537.401 1283.99 Q540.387 1280.2 540.387 1273.67 Q540.387 1267.12 537.401 1263.32 Q534.438 1259.53 529.345 1259.53 M529.345 1255.73 Q536.614 1255.73 540.966 1260.61 Q545.318 1265.48 545.318 1273.67 Q545.318 1281.84 540.966 1286.73 Q536.614 1291.59 529.345 1291.59 Q522.054 1291.59 517.679 1286.73 Q513.327 1281.86 513.327 1273.67 Q513.327 1265.48 517.679 1260.61 Q522.054 1255.73 529.345 1255.73 Z" fill="#000000" fill-rule="nonzero" fill-opacity="1" /><path clip-path="url(#clip420)" d="M567.47 1268.97 Q566.753 1268.55 565.896 1268.37 Q565.063 1268.16 564.044 1268.16 Q560.433 1268.16 558.489 1270.52 Q556.568 1272.86 556.568 1277.26 L556.568 1290.92 L552.285 1290.92 L552.285 1264.99 L556.568 1264.99 L556.568 1269.02 Q557.91 1266.66 560.063 1265.52 Q562.216 1264.36 565.294 1264.36 Q565.734 1264.36 566.267 1264.43 Q566.799 1264.48 567.447 1264.6 L567.47 1268.97 Z" fill="#000000" fill-rule="nonzero" fill-opacity="1" /><path clip-path="url(#clip420)" d="M571.938 1264.99 L576.197 1264.99 L576.197 1290.92 L571.938 1290.92 L571.938 1264.99 M571.938 1254.9 L576.197 1254.9 L576.197 1260.29 L571.938 1260.29 L571.938 1254.9 Z" fill="#000000" fill-rule="nonzero" fill-opacity="1" /><path clip-path="url(#clip420)" d="M602.169 1277.65 Q602.169 1273.02 600.248 1270.48 Q598.35 1267.93 594.901 1267.93 Q591.475 1267.93 589.553 1270.48 Q587.655 1273.02 587.655 1277.65 Q587.655 1282.26 589.553 1284.8 Q591.475 1287.35 594.901 1287.35 Q598.35 1287.35 600.248 1284.8 Q602.169 1282.26 602.169 1277.65 M606.428 1287.7 Q606.428 1294.32 603.489 1297.54 Q600.549 1300.78 594.484 1300.78 Q592.239 1300.78 590.248 1300.43 Q588.257 1300.11 586.382 1299.41 L586.382 1295.27 Q588.257 1296.29 590.086 1296.77 Q591.915 1297.26 593.813 1297.26 Q598.003 1297.26 600.086 1295.06 Q602.169 1292.88 602.169 1288.46 L602.169 1286.36 Q600.85 1288.65 598.79 1289.78 Q596.729 1290.92 593.859 1290.92 Q589.091 1290.92 586.174 1287.28 Q583.257 1283.65 583.257 1277.65 Q583.257 1271.63 586.174 1268 Q589.091 1264.36 593.859 1264.36 Q596.729 1264.36 598.79 1265.5 Q600.85 1266.63 602.169 1268.92 L602.169 1264.99 L606.428 1264.99 L606.428 1287.7 Z" fill="#000000" fill-rule="nonzero" fill-opacity="1" /><path clip-path="url(#clip420)" d="M615.201 1264.99 L619.461 1264.99 L619.461 1290.92 L615.201 1290.92 L615.201 1264.99 M615.201 1254.9 L619.461 1254.9 L619.461 1260.29 L615.201 1260.29 L615.201 1254.9 Z" fill="#000000" fill-rule="nonzero" fill-opacity="1" /><path clip-path="url(#clip420)" d="M649.924 1275.27 L649.924 1290.92 L645.664 1290.92 L645.664 1275.41 Q645.664 1271.73 644.229 1269.9 Q642.794 1268.07 639.924 1268.07 Q636.475 1268.07 634.484 1270.27 Q632.493 1272.47 632.493 1276.26 L632.493 1290.92 L628.211 1290.92 L628.211 1264.99 L632.493 1264.99 L632.493 1269.02 Q634.021 1266.68 636.081 1265.52 Q638.164 1264.36 640.873 1264.36 Q645.34 1264.36 647.632 1267.14 Q649.924 1269.9 649.924 1275.27 Z" fill="#000000" fill-rule="nonzero" fill-opacity="1" /><path clip-path="url(#clip420)" d="M670.201 1277.88 Q665.039 1277.88 663.048 1279.06 Q661.058 1280.24 661.058 1283.09 Q661.058 1285.36 662.539 1286.7 Q664.044 1288.02 666.613 1288.02 Q670.155 1288.02 672.285 1285.52 Q674.437 1283 674.437 1278.83 L674.437 1277.88 L670.201 1277.88 M678.697 1276.12 L678.697 1290.92 L674.437 1290.92 L674.437 1286.98 Q672.979 1289.34 670.803 1290.48 Q668.627 1291.59 665.479 1291.59 Q661.498 1291.59 659.136 1289.36 Q656.798 1287.12 656.798 1283.37 Q656.798 1278.99 659.715 1276.77 Q662.655 1274.55 668.465 1274.55 L674.437 1274.55 L674.437 1274.13 Q674.437 1271.19 672.493 1269.6 Q670.572 1267.98 667.076 1267.98 Q664.854 1267.98 662.748 1268.51 Q660.641 1269.04 658.697 1270.11 L658.697 1266.17 Q661.035 1265.27 663.234 1264.83 Q665.433 1264.36 667.516 1264.36 Q673.141 1264.36 675.919 1267.28 Q678.697 1270.2 678.697 1276.12 Z" fill="#000000" fill-rule="nonzero" fill-opacity="1" /><path clip-path="url(#clip420)" d="M687.47 1254.9 L691.729 1254.9 L691.729 1290.92 L687.47 1290.92 L687.47 1254.9 Z" fill="#000000" fill-rule="nonzero" fill-opacity="1" /><polyline clip-path="url(#clip420)" style="stroke:#e26f46; stroke-linecap:round; stroke-linejoin:round; stroke-width:16; stroke-opacity:1; fill:none" points="350.34,1325.48 490.043,1325.48 "/>
<path clip-path="url(#clip420)" d="M518.003 1312.04 L518.003 1325.02 L523.883 1325.02 Q527.146 1325.02 528.929 1323.33 Q530.711 1321.64 530.711 1318.52 Q530.711 1315.42 528.929 1313.73 Q527.146 1312.04 523.883 1312.04 L518.003 1312.04 M513.327 1308.2 L523.883 1308.2 Q529.693 1308.2 532.656 1310.83 Q535.642 1313.45 535.642 1318.52 Q535.642 1323.64 532.656 1326.25 Q529.693 1328.87 523.883 1328.87 L518.003 1328.87 L518.003 1342.76 L513.327 1342.76 L513.327 1308.2 Z" fill="#000000" fill-rule="nonzero" fill-opacity="1" /><path clip-path="url(#clip420)" d="M555.919 1320.81 Q555.202 1320.39 554.345 1320.21 Q553.512 1320 552.493 1320 Q548.882 1320 546.938 1322.36 Q545.017 1324.7 545.017 1329.1 L545.017 1342.76 L540.734 1342.76 L540.734 1316.83 L545.017 1316.83 L545.017 1320.86 Q546.359 1318.5 548.512 1317.36 Q550.665 1316.2 553.743 1316.2 Q554.183 1316.2 554.716 1316.27 Q555.248 1316.32 555.896 1316.44 L555.919 1320.81 Z" fill="#000000" fill-rule="nonzero" fill-opacity="1" /><path clip-path="url(#clip420)" d="M581.521 1328.73 L581.521 1330.81 L561.938 1330.81 Q562.216 1335.21 564.577 1337.52 Q566.961 1339.82 571.197 1339.82 Q573.651 1339.82 575.942 1339.21 Q578.257 1338.61 580.526 1337.41 L580.526 1341.44 Q578.234 1342.41 575.827 1342.92 Q573.419 1343.43 570.942 1343.43 Q564.739 1343.43 561.105 1339.82 Q557.493 1336.2 557.493 1330.05 Q557.493 1323.68 560.919 1319.95 Q564.368 1316.2 570.202 1316.2 Q575.433 1316.2 578.466 1319.58 Q581.521 1322.94 581.521 1328.73 M577.262 1327.48 Q577.216 1323.98 575.294 1321.9 Q573.396 1319.82 570.248 1319.82 Q566.683 1319.82 564.53 1321.83 Q562.401 1323.84 562.077 1327.5 L577.262 1327.48 Z" fill="#000000" fill-rule="nonzero" fill-opacity="1" /><path clip-path="url(#clip420)" d="M605.572 1320.76 L605.572 1306.74 L609.831 1306.74 L609.831 1342.76 L605.572 1342.76 L605.572 1338.87 Q604.229 1341.18 602.169 1342.32 Q600.132 1343.43 597.262 1343.43 Q592.563 1343.43 589.6 1339.68 Q586.66 1335.93 586.66 1329.82 Q586.66 1323.7 589.6 1319.95 Q592.563 1316.2 597.262 1316.2 Q600.132 1316.2 602.169 1317.34 Q604.229 1318.45 605.572 1320.76 M591.058 1329.82 Q591.058 1334.51 592.979 1337.2 Q594.924 1339.86 598.303 1339.86 Q601.683 1339.86 603.627 1337.2 Q605.572 1334.51 605.572 1329.82 Q605.572 1325.12 603.627 1322.45 Q601.683 1319.77 598.303 1319.77 Q594.924 1319.77 592.979 1322.45 Q591.058 1325.12 591.058 1329.82 Z" fill="#000000" fill-rule="nonzero" fill-opacity="1" /><path clip-path="url(#clip420)" d="M618.604 1316.83 L622.863 1316.83 L622.863 1342.76 L618.604 1342.76 L618.604 1316.83 M618.604 1306.74 L622.863 1306.74 L622.863 1312.13 L618.604 1312.13 L618.604 1306.74 Z" fill="#000000" fill-rule="nonzero" fill-opacity="1" /><path clip-path="url(#clip420)" d="M650.433 1317.82 L650.433 1321.81 Q648.627 1320.81 646.799 1320.32 Q644.993 1319.82 643.141 1319.82 Q638.998 1319.82 636.706 1322.45 Q634.414 1325.07 634.414 1329.82 Q634.414 1334.56 636.706 1337.2 Q638.998 1339.82 643.141 1339.82 Q644.993 1339.82 646.799 1339.33 Q648.627 1338.82 650.433 1337.82 L650.433 1341.76 Q648.65 1342.59 646.729 1343.01 Q644.831 1343.43 642.678 1343.43 Q636.822 1343.43 633.373 1339.75 Q629.924 1336.07 629.924 1329.82 Q629.924 1323.47 633.396 1319.84 Q636.891 1316.2 642.956 1316.2 Q644.924 1316.2 646.799 1316.62 Q648.674 1317.01 650.433 1317.82 Z" fill="#000000" fill-rule="nonzero" fill-opacity="1" /><path clip-path="url(#clip420)" d="M662.053 1309.47 L662.053 1316.83 L670.826 1316.83 L670.826 1320.14 L662.053 1320.14 L662.053 1334.21 Q662.053 1337.38 662.91 1338.29 Q663.789 1339.19 666.451 1339.19 L670.826 1339.19 L670.826 1342.76 L666.451 1342.76 Q661.521 1342.76 659.646 1340.93 Q657.771 1339.07 657.771 1334.21 L657.771 1320.14 L654.646 1320.14 L654.646 1316.83 L657.771 1316.83 L657.771 1309.47 L662.053 1309.47 Z" fill="#000000" fill-rule="nonzero" fill-opacity="1" /><path clip-path="url(#clip420)" d="M698.604 1328.73 L698.604 1330.81 L679.021 1330.81 Q679.298 1335.21 681.659 1337.52 Q684.044 1339.82 688.28 1339.82 Q690.733 1339.82 693.025 1339.21 Q695.34 1338.61 697.608 1337.41 L697.608 1341.44 Q695.317 1342.41 692.909 1342.92 Q690.502 1343.43 688.025 1343.43 Q681.822 1343.43 678.187 1339.82 Q674.576 1336.2 674.576 1330.05 Q674.576 1323.68 678.002 1319.95 Q681.451 1316.2 687.284 1316.2 Q692.516 1316.2 695.548 1319.58 Q698.604 1322.94 698.604 1328.73 M694.345 1327.48 Q694.298 1323.98 692.377 1321.9 Q690.479 1319.82 687.331 1319.82 Q683.766 1319.82 681.613 1321.83 Q679.484 1323.84 679.159 1327.5 L694.345 1327.48 Z" fill="#000000" fill-rule="nonzero" fill-opacity="1" /><path clip-path="url(#clip420)" d="M722.655 1320.76 L722.655 1306.74 L726.914 1306.74 L726.914 1342.76 L722.655 1342.76 L722.655 1338.87 Q721.312 1341.18 719.252 1342.32 Q717.215 1343.43 714.344 1343.43 Q709.645 1343.43 706.682 1339.68 Q703.743 1335.93 703.743 1329.82 Q703.743 1323.7 706.682 1319.95 Q709.645 1316.2 714.344 1316.2 Q717.215 1316.2 719.252 1317.34 Q721.312 1318.45 722.655 1320.76 M708.141 1329.82 Q708.141 1334.51 710.062 1337.2 Q712.007 1339.86 715.386 1339.86 Q718.766 1339.86 720.71 1337.2 Q722.655 1334.51 722.655 1329.82 Q722.655 1325.12 720.71 1322.45 Q718.766 1319.77 715.386 1319.77 Q712.007 1319.77 710.062 1322.45 Q708.141 1325.12 708.141 1329.82 Z" fill="#000000" fill-rule="nonzero" fill-opacity="1" /></svg>
