<?xml version="1.0" encoding="utf-8"?>
<svg xmlns="http://www.w3.org/2000/svg" xmlns:xlink="http://www.w3.org/1999/xlink" width="600" height="400" viewBox="0 0 2400 1600">
<defs>
  <clipPath id="clip560">
    <rect x="0" y="0" width="2400" height="1600"/>
  </clipPath>
</defs>
<path clip-path="url(#clip560)" d="M0 1600 L2400 1600 L2400 0 L0 0  Z" fill="#ffffff" fill-rule="evenodd" fill-opacity="1"/>
<defs>
  <clipPath id="clip561">
    <rect x="480" y="0" width="1681" height="1600"/>
  </clipPath>
</defs>
<path clip-path="url(#clip560)" d="M178.867 1486.45 L2352.76 1486.45 L2352.76 47.2441 L178.867 47.2441  Z" fill="#ffffff" fill-rule="evenodd" fill-opacity="1"/>
<defs>
  <clipPath id="clip562">
    <rect x="178" y="47" width="2175" height="1440"/>
  </clipPath>
</defs>
<polyline clip-path="url(#clip562)" style="stroke:#000000; stroke-linecap:round; stroke-linejoin:round; stroke-width:2; stroke-opacity:0.1; fill:none" points="240.392,1486.45 240.392,47.2441 "/>
<polyline clip-path="url(#clip562)" style="stroke:#000000; stroke-linecap:round; stroke-linejoin:round; stroke-width:2; stroke-opacity:0.1; fill:none" points="924.005,1486.45 924.005,47.2441 "/>
<polyline clip-path="url(#clip562)" style="stroke:#000000; stroke-linecap:round; stroke-linejoin:round; stroke-width:2; stroke-opacity:0.1; fill:none" points="1607.62,1486.45 1607.62,47.2441 "/>
<polyline clip-path="url(#clip562)" style="stroke:#000000; stroke-linecap:round; stroke-linejoin:round; stroke-width:2; stroke-opacity:0.1; fill:none" points="2291.23,1486.45 2291.23,47.2441 "/>
<polyline clip-path="url(#clip560)" style="stroke:#000000; stroke-linecap:round; stroke-linejoin:round; stroke-width:4; stroke-opacity:1; fill:none" points="178.867,1486.45 2352.76,1486.45 "/>
<polyline clip-path="url(#clip560)" style="stroke:#000000; stroke-linecap:round; stroke-linejoin:round; stroke-width:4; stroke-opacity:1; fill:none" points="240.392,1486.45 240.392,1467.55 "/>
<polyline clip-path="url(#clip560)" style="stroke:#000000; stroke-linecap:round; stroke-linejoin:round; stroke-width:4; stroke-opacity:1; fill:none" points="924.005,1486.45 924.005,1467.55 "/>
<polyline clip-path="url(#clip560)" style="stroke:#000000; stroke-linecap:round; stroke-linejoin:round; stroke-width:4; stroke-opacity:1; fill:none" points="1607.62,1486.45 1607.62,1467.55 "/>
<polyline clip-path="url(#clip560)" style="stroke:#000000; stroke-linecap:round; stroke-linejoin:round; stroke-width:4; stroke-opacity:1; fill:none" points="2291.23,1486.45 2291.23,1467.55 "/>
<path clip-path="url(#clip560)" d="M217.776 1517.37 Q214.165 1517.37 212.336 1520.93 Q210.531 1524.47 210.531 1531.6 Q210.531 1538.71 212.336 1542.27 Q214.165 1545.82 217.776 1545.82 Q221.41 1545.82 223.216 1542.27 Q225.045 1538.71 225.045 1531.6 Q225.045 1524.47 223.216 1520.93 Q221.41 1517.37 217.776 1517.37 M217.776 1513.66 Q223.586 1513.66 226.642 1518.27 Q229.721 1522.85 229.721 1531.6 Q229.721 1540.33 226.642 1544.94 Q223.586 1549.52 217.776 1549.52 Q211.966 1549.52 208.887 1544.94 Q205.832 1540.33 205.832 1531.6 Q205.832 1522.85 208.887 1518.27 Q211.966 1513.66 217.776 1513.66 Z" fill="#000000" fill-rule="nonzero" fill-opacity="1" /><path clip-path="url(#clip560)" d="M237.938 1542.97 L242.822 1542.97 L242.822 1548.85 L237.938 1548.85 L237.938 1542.97 Z" fill="#000000" fill-rule="nonzero" fill-opacity="1" /><path clip-path="url(#clip560)" d="M263.007 1517.37 Q259.396 1517.37 257.568 1520.93 Q255.762 1524.47 255.762 1531.6 Q255.762 1538.71 257.568 1542.27 Q259.396 1545.82 263.007 1545.82 Q266.642 1545.82 268.447 1542.27 Q270.276 1538.71 270.276 1531.6 Q270.276 1524.47 268.447 1520.93 Q266.642 1517.37 263.007 1517.37 M263.007 1513.66 Q268.818 1513.66 271.873 1518.27 Q274.952 1522.85 274.952 1531.6 Q274.952 1540.33 271.873 1544.94 Q268.818 1549.52 263.007 1549.52 Q257.197 1549.52 254.119 1544.94 Q251.063 1540.33 251.063 1531.6 Q251.063 1522.85 254.119 1518.27 Q257.197 1513.66 263.007 1513.66 Z" fill="#000000" fill-rule="nonzero" fill-opacity="1" /><path clip-path="url(#clip560)" d="M901.887 1517.37 Q898.276 1517.37 896.447 1520.93 Q894.642 1524.47 894.642 1531.6 Q894.642 1538.71 896.447 1542.27 Q898.276 1545.82 901.887 1545.82 Q905.521 1545.82 907.327 1542.27 Q909.155 1538.71 909.155 1531.6 Q909.155 1524.47 907.327 1520.93 Q905.521 1517.37 901.887 1517.37 M901.887 1513.66 Q907.697 1513.66 910.753 1518.27 Q913.831 1522.85 913.831 1531.6 Q913.831 1540.33 910.753 1544.94 Q907.697 1549.52 901.887 1549.52 Q896.077 1549.52 892.998 1544.94 Q889.942 1540.33 889.942 1531.6 Q889.942 1522.85 892.998 1518.27 Q896.077 1513.66 901.887 1513.66 Z" fill="#000000" fill-rule="nonzero" fill-opacity="1" /><path clip-path="url(#clip560)" d="M922.049 1542.97 L926.933 1542.97 L926.933 1548.85 L922.049 1548.85 L922.049 1542.97 Z" fill="#000000" fill-rule="nonzero" fill-opacity="1" /><path clip-path="url(#clip560)" d="M937.164 1514.29 L955.521 1514.29 L955.521 1518.22 L941.447 1518.22 L941.447 1526.7 Q942.465 1526.35 943.484 1526.19 Q944.502 1526 945.521 1526 Q951.308 1526 954.687 1529.17 Q958.067 1532.34 958.067 1537.76 Q958.067 1543.34 954.595 1546.44 Q951.123 1549.52 944.803 1549.52 Q942.627 1549.52 940.359 1549.15 Q938.114 1548.78 935.706 1548.04 L935.706 1543.34 Q937.789 1544.47 940.012 1545.03 Q942.234 1545.58 944.711 1545.58 Q948.715 1545.58 951.053 1543.48 Q953.391 1541.37 953.391 1537.76 Q953.391 1534.15 951.053 1532.04 Q948.715 1529.94 944.711 1529.94 Q942.836 1529.94 940.961 1530.35 Q939.109 1530.77 937.164 1531.65 L937.164 1514.29 Z" fill="#000000" fill-rule="nonzero" fill-opacity="1" /><path clip-path="url(#clip560)" d="M1574.77 1544.91 L1582.41 1544.91 L1582.41 1518.55 L1574.1 1520.21 L1574.1 1515.95 L1582.36 1514.29 L1587.04 1514.29 L1587.04 1544.91 L1594.68 1544.91 L1594.68 1548.85 L1574.77 1548.85 L1574.77 1544.91 Z" fill="#000000" fill-rule="nonzero" fill-opacity="1" /><path clip-path="url(#clip560)" d="M1604.12 1542.97 L1609.01 1542.97 L1609.01 1548.85 L1604.12 1548.85 L1604.12 1542.97 Z" fill="#000000" fill-rule="nonzero" fill-opacity="1" /><path clip-path="url(#clip560)" d="M1629.19 1517.37 Q1625.58 1517.37 1623.75 1520.93 Q1621.95 1524.47 1621.95 1531.6 Q1621.95 1538.71 1623.75 1542.27 Q1625.58 1545.82 1629.19 1545.82 Q1632.83 1545.82 1634.63 1542.27 Q1636.46 1538.71 1636.46 1531.6 Q1636.46 1524.47 1634.63 1520.93 Q1632.83 1517.37 1629.19 1517.37 M1629.19 1513.66 Q1635 1513.66 1638.06 1518.27 Q1641.14 1522.85 1641.14 1531.6 Q1641.14 1540.33 1638.06 1544.94 Q1635 1549.52 1629.19 1549.52 Q1623.38 1549.52 1620.3 1544.94 Q1617.25 1540.33 1617.25 1531.6 Q1617.25 1522.85 1620.3 1518.27 Q1623.38 1513.66 1629.19 1513.66 Z" fill="#000000" fill-rule="nonzero" fill-opacity="1" /><path clip-path="url(#clip560)" d="M2258.88 1544.91 L2266.52 1544.91 L2266.52 1518.55 L2258.21 1520.21 L2258.21 1515.95 L2266.47 1514.29 L2271.15 1514.29 L2271.15 1544.91 L2278.79 1544.91 L2278.79 1548.85 L2258.88 1548.85 L2258.88 1544.91 Z" fill="#000000" fill-rule="nonzero" fill-opacity="1" /><path clip-path="url(#clip560)" d="M2288.23 1542.97 L2293.12 1542.97 L2293.12 1548.85 L2288.23 1548.85 L2288.23 1542.97 Z" fill="#000000" fill-rule="nonzero" fill-opacity="1" /><path clip-path="url(#clip560)" d="M2303.35 1514.29 L2321.71 1514.29 L2321.71 1518.22 L2307.63 1518.22 L2307.63 1526.7 Q2308.65 1526.35 2309.67 1526.19 Q2310.69 1526 2311.71 1526 Q2317.49 1526 2320.87 1529.17 Q2324.25 1532.34 2324.25 1537.76 Q2324.25 1543.34 2320.78 1546.44 Q2317.31 1549.52 2310.99 1549.52 Q2308.81 1549.52 2306.54 1549.15 Q2304.3 1548.78 2301.89 1548.04 L2301.89 1543.34 Q2303.97 1544.47 2306.2 1545.03 Q2308.42 1545.58 2310.89 1545.58 Q2314.9 1545.58 2317.24 1543.48 Q2319.58 1541.37 2319.58 1537.76 Q2319.58 1534.15 2317.24 1532.04 Q2314.9 1529.94 2310.89 1529.94 Q2309.02 1529.94 2307.15 1530.35 Q2305.29 1530.77 2303.35 1531.65 L2303.35 1514.29 Z" fill="#000000" fill-rule="nonzero" fill-opacity="1" /><polyline clip-path="url(#clip562)" style="stroke:#000000; stroke-linecap:round; stroke-linejoin:round; stroke-width:2; stroke-opacity:0.1; fill:none" points="178.867,1427.56 2352.76,1427.56 "/>
<polyline clip-path="url(#clip562)" style="stroke:#000000; stroke-linecap:round; stroke-linejoin:round; stroke-width:2; stroke-opacity:0.1; fill:none" points="178.867,984.822 2352.76,984.822 "/>
<polyline clip-path="url(#clip562)" style="stroke:#000000; stroke-linecap:round; stroke-linejoin:round; stroke-width:2; stroke-opacity:0.1; fill:none" points="178.867,542.084 2352.76,542.084 "/>
<polyline clip-path="url(#clip562)" style="stroke:#000000; stroke-linecap:round; stroke-linejoin:round; stroke-width:2; stroke-opacity:0.1; fill:none" points="178.867,99.3459 2352.76,99.3459 "/>
<polyline clip-path="url(#clip560)" style="stroke:#000000; stroke-linecap:round; stroke-linejoin:round; stroke-width:4; stroke-opacity:1; fill:none" points="178.867,1486.45 178.867,47.2441 "/>
<polyline clip-path="url(#clip560)" style="stroke:#000000; stroke-linecap:round; stroke-linejoin:round; stroke-width:4; stroke-opacity:1; fill:none" points="178.867,1427.56 197.764,1427.56 "/>
<polyline clip-path="url(#clip560)" style="stroke:#000000; stroke-linecap:round; stroke-linejoin:round; stroke-width:4; stroke-opacity:1; fill:none" points="178.867,984.822 197.764,984.822 "/>
<polyline clip-path="url(#clip560)" style="stroke:#000000; stroke-linecap:round; stroke-linejoin:round; stroke-width:4; stroke-opacity:1; fill:none" points="178.867,542.084 197.764,542.084 "/>
<polyline clip-path="url(#clip560)" style="stroke:#000000; stroke-linecap:round; stroke-linejoin:round; stroke-width:4; stroke-opacity:1; fill:none" points="178.867,99.3459 197.764,99.3459 "/>
<path clip-path="url(#clip560)" d="M50.9921 1428.01 L80.6679 1428.01 L80.6679 1431.95 L50.9921 1431.95 L50.9921 1428.01 Z" fill="#000000" fill-rule="nonzero" fill-opacity="1" /><path clip-path="url(#clip560)" d="M91.5706 1440.91 L99.2095 1440.91 L99.2095 1414.54 L90.8993 1416.21 L90.8993 1411.95 L99.1632 1410.28 L103.839 1410.28 L103.839 1440.91 L111.478 1440.91 L111.478 1444.84 L91.5706 1444.84 L91.5706 1440.91 Z" fill="#000000" fill-rule="nonzero" fill-opacity="1" /><path clip-path="url(#clip560)" d="M130.922 1413.36 Q127.311 1413.36 125.482 1416.92 Q123.677 1420.47 123.677 1427.59 Q123.677 1434.7 125.482 1438.27 Q127.311 1441.81 130.922 1441.81 Q134.556 1441.81 136.362 1438.27 Q138.191 1434.7 138.191 1427.59 Q138.191 1420.47 136.362 1416.92 Q134.556 1413.36 130.922 1413.36 M130.922 1409.66 Q136.732 1409.66 139.788 1414.26 Q142.867 1418.85 142.867 1427.59 Q142.867 1436.32 139.788 1440.93 Q136.732 1445.51 130.922 1445.51 Q125.112 1445.51 122.033 1440.93 Q118.978 1436.32 118.978 1427.59 Q118.978 1418.85 122.033 1414.26 Q125.112 1409.66 130.922 1409.66 Z" fill="#000000" fill-rule="nonzero" fill-opacity="1" /><path clip-path="url(#clip560)" d="M130.922 970.621 Q127.311 970.621 125.482 974.186 Q123.677 977.727 123.677 984.857 Q123.677 991.963 125.482 995.528 Q127.311 999.07 130.922 999.07 Q134.556 999.07 136.362 995.528 Q138.191 991.963 138.191 984.857 Q138.191 977.727 136.362 974.186 Q134.556 970.621 130.922 970.621 M130.922 966.917 Q136.732 966.917 139.788 971.524 Q142.867 976.107 142.867 984.857 Q142.867 993.584 139.788 998.19 Q136.732 1002.77 130.922 1002.77 Q125.112 1002.77 122.033 998.19 Q118.978 993.584 118.978 984.857 Q118.978 976.107 122.033 971.524 Q125.112 966.917 130.922 966.917 Z" fill="#000000" fill-rule="nonzero" fill-opacity="1" /><path clip-path="url(#clip560)" d="M91.5706 555.429 L99.2095 555.429 L99.2095 529.063 L90.8993 530.73 L90.8993 526.471 L99.1632 524.804 L103.839 524.804 L103.839 555.429 L111.478 555.429 L111.478 559.364 L91.5706 559.364 L91.5706 555.429 Z" fill="#000000" fill-rule="nonzero" fill-opacity="1" /><path clip-path="url(#clip560)" d="M130.922 527.883 Q127.311 527.883 125.482 531.448 Q123.677 534.989 123.677 542.119 Q123.677 549.225 125.482 552.79 Q127.311 556.332 130.922 556.332 Q134.556 556.332 136.362 552.79 Q138.191 549.225 138.191 542.119 Q138.191 534.989 136.362 531.448 Q134.556 527.883 130.922 527.883 M130.922 524.179 Q136.732 524.179 139.788 528.785 Q142.867 533.369 142.867 542.119 Q142.867 550.846 139.788 555.452 Q136.732 560.035 130.922 560.035 Q125.112 560.035 122.033 555.452 Q118.978 550.846 118.978 542.119 Q118.978 533.369 122.033 528.785 Q125.112 524.179 130.922 524.179 Z" fill="#000000" fill-rule="nonzero" fill-opacity="1" /><path clip-path="url(#clip560)" d="M94.7882 112.691 L111.108 112.691 L111.108 116.626 L89.1632 116.626 L89.1632 112.691 Q91.8252 109.936 96.4085 105.307 Q101.015 100.654 102.196 99.3112 Q104.441 96.7881 105.321 95.052 Q106.223 93.2927 106.223 91.6029 Q106.223 88.8483 104.279 87.1122 Q102.358 85.3761 99.2558 85.3761 Q97.0567 85.3761 94.603 86.14 Q92.1725 86.9039 89.3947 88.4548 L89.3947 83.7326 Q92.2188 82.5983 94.6724 82.0196 Q97.1261 81.4409 99.1632 81.4409 Q104.534 81.4409 107.728 84.1261 Q110.922 86.8113 110.922 91.302 Q110.922 93.4316 110.112 95.3529 Q109.325 97.251 107.219 99.8436 Q106.64 100.515 103.538 103.732 Q100.436 106.927 94.7882 112.691 Z" fill="#000000" fill-rule="nonzero" fill-opacity="1" /><path clip-path="url(#clip560)" d="M130.922 85.1446 Q127.311 85.1446 125.482 88.7094 Q123.677 92.2511 123.677 99.3806 Q123.677 106.487 125.482 110.052 Q127.311 113.594 130.922 113.594 Q134.556 113.594 136.362 110.052 Q138.191 106.487 138.191 99.3806 Q138.191 92.2511 136.362 88.7094 Q134.556 85.1446 130.922 85.1446 M130.922 81.4409 Q136.732 81.4409 139.788 86.0474 Q142.867 90.6307 142.867 99.3806 Q142.867 108.107 139.788 112.714 Q136.732 117.297 130.922 117.297 Q125.112 117.297 122.033 112.714 Q118.978 108.107 118.978 99.3806 Q118.978 90.6307 122.033 86.0474 Q125.112 81.4409 130.922 81.4409 Z" fill="#000000" fill-rule="nonzero" fill-opacity="1" /><polyline clip-path="url(#clip562)" style="stroke:#009af9; stroke-linecap:round; stroke-linejoin:round; stroke-width:4; stroke-opacity:1; fill:none" points="240.392,926.416 247.251,947.892 254.11,969.748 260.969,991.206 267.828,1011.89 274.687,1032.21 281.546,1052.65 288.405,1072.75 295.264,1092.23 302.123,1111.24 308.982,1130.03 315.841,1148.32 322.7,1166.17 329.559,1183.36 336.418,1199.87 343.277,1215.86 350.136,1231.44 356.995,1246.54 363.854,1261.23 370.713,1275.43 377.572,1289.04 384.431,1301.98 391.29,1314.31 398.149,1326.06 405.008,1337.23 411.867,1347.8 418.726,1357.82 425.585,1367.25 432.444,1376.1 439.303,1384.4 446.162,1392.15 453.021,1399.33 459.88,1405.96 466.739,1412.05 473.598,1417.6 480.457,1422.62 487.316,1427.11 494.175,1431.08 501.034,1434.54 507.893,1437.47 514.752,1439.92 521.611,1441.93 528.47,1443.53 535.328,1444.7 542.188,1445.43 549.046,1445.72 555.905,1445.6 562.764,1445.09 569.623,1444.21 576.482,1442.97 583.341,1441.44 590.2,1439.66 597.059,1437.68 603.918,1435.36 610.777,1432.47 617.636,1429.08 624.495,1425.14 631.354,1420.72 638.213,1415.91 645.072,1410.67 651.931,1405.03 658.79,1399.1 665.649,1392.8 672.508,1386.09 679.367,1379.03 686.226,1371.56 693.085,1363.72 699.944,1355.54 706.803,1347.12 713.662,1338.5 720.521,1329.68 727.38,1320.63 734.239,1311.41 741.098,1302.04 747.957,1292.59 754.816,1283.07 761.675,1273.53 768.534,1263.98 775.393,1254.4 782.252,1244.86 789.111,1235.26 795.97,1225.63 802.829,1216.08 809.688,1206.5 816.547,1196.9 823.406,1187.33 830.265,1177.86 837.124,1168.5 843.983,1159.21 850.842,1149.97 857.701,1140.79 864.56,1131.7 871.419,1122.75 878.278,1113.92 885.137,1105.18 891.996,1096.62 898.855,1088.18 905.714,1079.87 912.573,1071.71 919.432,1063.65 926.291,1055.7 933.15,1047.82 940.009,1040.06 946.868,1032.38 953.727,1024.79 960.586,1017.36 967.445,1010.07 974.304,1002.92 981.163,995.863 988.022,988.847 994.881,981.903 1001.74,975.099 1008.6,968.427 1015.46,961.797 1022.32,955.214 1029.18,948.754 1036.04,942.342 1042.89,935.923 1049.75,929.502 1056.61,923.016 1063.47,916.551 1070.33,910.208 1077.19,903.976 1084.05,897.778 1090.91,891.617 1097.77,885.493 1104.62,879.372 1111.48,873.24 1118.34,867.132 1125.2,861.023 1132.06,854.928 1138.92,848.837 1145.78,842.769 1152.64,836.697 1159.5,830.704 1166.36,824.838 1173.21,818.999 1180.07,813.104 1186.93,807.237 1193.79,801.426 1200.65,795.668 1207.51,789.997 1214.37,784.379 1221.23,778.814 1228.09,773.373 1234.95,768.045 1241.8,762.782 1248.66,757.548 1255.52,752.349 1262.38,747.242 1269.24,742.254 1276.1,737.381 1282.96,732.602 1289.82,727.908 1296.68,723.372 1303.54,719.048 1310.39,714.888 1317.25,710.903 1324.11,707.116 1330.97,703.551 1337.83,700.192 1344.69,697.039 1351.55,694.05 1358.41,691.205 1365.27,688.525 1372.13,685.994 1378.98,683.611 1385.84,681.434 1392.7,679.529 1399.56,677.844 1406.42,676.344 1413.28,675.038 1420.14,673.923 1427,672.998 1433.86,672.278 1440.72,671.823 1447.57,671.66 1454.43,671.767 1461.29,672.118 1468.15,672.727 1475.01,673.531 1481.87,674.47 1488.73,675.604 1495.59,676.969 1502.45,678.533 1509.31,680.341 1516.16,682.361 1523.02,684.472 1529.88,686.78 1536.74,689.339 1543.6,692.074 1550.46,694.93 1557.32,697.896 1564.18,701.02 1571.04,704.29 1577.9,707.753 1584.75,711.409 1591.61,715.163 1598.47,719.04 1605.33,723.049 1612.19,727.121 1619.05,731.295 1625.91,735.591 1632.77,739.912 1639.63,744.333 1646.49,748.898 1653.34,753.578 1660.2,758.365 1667.06,763.252 1673.92,768.258 1680.78,773.267 1687.64,778.26 1694.5,783.233 1701.36,788.258 1708.22,793.332 1715.08,798.413 1721.93,803.454 1728.79,808.499 1735.65,813.55 1742.51,818.571 1749.37,823.478 1756.23,828.335 1763.09,833.258 1769.95,838.204 1776.81,843.194 1783.67,848.188 1790.52,853.046 1797.38,857.824 1804.24,862.64 1811.1,867.513 1817.96,872.411 1824.82,877.257 1831.68,882.084 1838.54,886.84 1845.4,891.526 1852.26,896.182 1859.11,900.826 1865.97,905.44 1872.83,909.984 1879.69,914.475 1886.55,918.834 1893.41,923.081 1900.27,927.28 1907.13,931.392 1913.99,935.376 1920.85,939.292 1927.7,943.12 1934.56,946.804 1941.42,950.432 1948.28,954.017 1955.14,957.496 1962,960.859 1968.86,964.098 1975.72,967.246 1982.58,970.284 1989.44,973.189 1996.29,975.97 2003.15,978.622 2010.01,981.177 2016.87,983.606 2023.73,985.853 2030.59,987.941 2037.45,989.912 2044.31,991.763 2051.17,993.498 2058.02,995.132 2064.88,996.674 2071.74,998.123 2078.6,999.468 2085.46,1000.72 2092.32,1001.86 2099.18,1002.9 2106.04,1003.85 2112.9,1004.75 2119.76,1005.64 2126.61,1006.51 2133.47,1007.33 2140.33,1008.08 2147.19,1008.71 2154.05,1009.21 2160.91,1009.63 2167.77,1010.07 2174.63,1010.6 2181.49,1011.09 2188.35,1011.54 2195.2,1011.88 2202.06,1011.9 2208.92,1011.84 2215.78,1011.87 2222.64,1011.64 2229.5,1011.35 2236.36,1011.08 2243.22,1010.48 2250.08,1009.58 2256.94,1008.74 2263.79,1007.85 2270.65,1006.64 2277.51,1004.98 2284.37,1003.22 2291.23,1000.99 "/>
<polyline clip-path="url(#clip562)" style="stroke:#e26f46; stroke-linecap:round; stroke-linejoin:round; stroke-width:4; stroke-opacity:1; fill:none" points="240.392,87.9763 247.251,114.548 254.11,140.619 260.969,166.984 267.828,193.688 274.687,219.843 281.546,245.958 288.405,271.748 295.264,297.005 302.123,321.767 308.982,346.098 315.841,370.027 322.7,393.334 329.559,416.1 336.418,438.449 343.277,460.377 350.136,481.691 356.995,502.401 363.854,522.615 370.713,542.334 377.572,561.53 384.431,580.256 391.29,598.575 398.149,616.48 405.008,634.002 411.867,651.139 418.726,667.9 425.585,684.237 432.444,700.139 439.303,715.641 446.162,730.779 453.021,745.582 459.88,760.06 466.739,774.219 473.598,788.068 480.457,801.619 487.316,814.891 494.175,827.922 501.034,840.736 507.893,853.342 514.752,865.783 521.611,878.069 528.47,890.201 535.328,902.192 542.188,914.082 549.046,925.868 555.905,937.568 562.764,949.186 569.623,960.751 576.482,972.273 583.341,983.749 590.2,995.193 597.059,1006.65 603.918,1018.01 610.777,1029.13 617.636,1040.07 624.495,1050.78 631.354,1061.3 638.213,1071.59 645.072,1081.64 651.931,1091.49 658.79,1101.15 665.649,1110.68 672.508,1120.04 679.367,1129.23 686.226,1138.28 693.085,1147.23 699.944,1156.04 706.803,1164.67 713.662,1173.13 720.521,1181.42 727.38,1189.51 734.239,1197.44 741.098,1205.2 747.957,1212.79 754.816,1220.21 761.675,1227.49 768.534,1234.62 775.393,1241.57 782.252,1248.33 789.111,1254.92 795.97,1261.44 802.829,1267.9 809.688,1274.23 816.547,1280.45 823.406,1286.54 830.265,1292.4 837.124,1298.03 843.983,1303.42 850.842,1308.59 857.701,1313.57 864.56,1318.3 871.419,1322.8 878.278,1327.07 885.137,1331.14 891.996,1335 898.855,1338.62 905.714,1341.95 912.573,1345.02 919.432,1347.83 926.291,1350.29 933.15,1352.46 940.009,1354.35 946.868,1355.86 953.727,1357.06 960.586,1357.95 967.445,1358.54 974.304,1358.74 981.163,1358.61 988.022,1358.2 994.881,1357.47 1001.74,1356.41 1008.6,1355.01 1015.46,1353.28 1022.32,1351.25 1029.18,1348.89 1036.04,1346.18 1042.89,1343.13 1049.75,1339.71 1056.61,1335.97 1063.47,1331.94 1070.33,1327.61 1077.19,1322.93 1084.05,1318.01 1090.91,1312.87 1097.77,1307.46 1104.62,1301.79 1111.48,1295.89 1118.34,1289.82 1125.2,1283.63 1132.06,1277.32 1138.92,1270.9 1145.78,1264.37 1152.64,1257.69 1159.5,1250.87 1166.36,1243.96 1173.21,1236.94 1180.07,1229.88 1186.93,1222.77 1193.79,1215.67 1200.65,1208.61 1207.51,1201.57 1214.37,1194.53 1221.23,1187.47 1228.09,1180.47 1234.95,1173.49 1241.8,1166.52 1248.66,1159.59 1255.52,1152.73 1262.38,1145.91 1269.24,1139.12 1276.1,1132.38 1282.96,1125.74 1289.82,1119.2 1296.68,1112.68 1303.54,1106.23 1310.39,1099.86 1317.25,1093.56 1324.11,1087.36 1330.97,1081.31 1337.83,1075.35 1344.69,1069.48 1351.55,1063.76 1358.41,1058.2 1365.27,1052.76 1372.13,1047.42 1378.98,1042.19 1385.84,1037.02 1392.7,1031.93 1399.56,1026.94 1406.42,1022.03 1413.28,1017.24 1420.14,1012.61 1427,1008.11 1433.86,1003.74 1440.72,999.458 1447.57,995.25 1454.43,991.126 1461.29,987.118 1468.15,983.185 1475.01,979.261 1481.87,975.324 1488.73,971.407 1495.59,967.56 1502.45,963.793 1509.31,960.024 1516.16,956.188 1523.02,952.303 1529.88,948.424 1536.74,944.492 1543.6,940.471 1550.46,936.424 1557.32,932.353 1564.18,928.253 1571.04,924.167 1577.9,920.069 1584.75,916.009 1591.61,912.061 1598.47,908.125 1605.33,904.143 1612.19,900.109 1619.05,896.01 1625.91,891.88 1632.77,887.749 1639.63,883.594 1646.49,879.396 1653.34,875.135 1660.2,870.803 1667.06,866.5 1673.92,862.192 1680.78,857.855 1687.64,853.577 1694.5,849.376 1701.36,845.155 1708.22,840.868 1715.08,836.517 1721.93,832.114 1728.79,827.768 1735.65,823.436 1742.51,819.118 1749.37,814.872 1756.23,810.717 1763.09,806.652 1769.95,802.678 1776.81,798.809 1783.67,795.02 1790.52,791.338 1797.38,787.787 1804.24,784.324 1811.1,780.909 1817.96,777.613 1824.82,774.422 1831.68,771.348 1838.54,768.427 1845.4,765.604 1852.26,762.884 1859.11,760.331 1865.97,757.917 1872.83,755.607 1879.69,753.444 1886.55,751.393 1893.41,749.515 1900.27,747.749 1907.13,746.078 1913.99,744.575 1920.85,743.182 1927.7,741.906 1934.56,740.774 1941.42,739.763 1948.28,738.814 1955.14,737.942 1962,737.178 1968.86,736.53 1975.72,735.986 1982.58,735.551 1989.44,735.249 1996.29,735.07 2003.15,734.982 2010.01,734.975 2016.87,735.095 2023.73,735.34 2030.59,735.692 2037.45,736.143 2044.31,736.68 2051.17,737.289 2058.02,737.991 2064.88,738.782 2071.74,739.649 2078.6,740.591 2085.46,741.598 2092.32,742.644 2099.18,743.714 2106.04,744.814 2112.9,745.893 2119.76,746.924 2126.61,747.85 2133.47,748.7 2140.33,749.557 2147.19,750.4 2154.05,751.265 2160.91,752.128 2167.77,752.912 2174.63,753.674 2181.49,754.537 2188.35,755.487 2195.2,756.413 2202.06,757.272 2208.92,758.143 2215.78,759.29 2222.64,760.95 2229.5,762.929 2236.36,764.846 2243.22,766.899 2250.08,769.338 2256.94,772.063 2263.79,774.484 2270.65,777.128 2277.51,779.761 2284.37,781.929 2291.23,783.427 "/>
<path clip-path="url(#clip560)" d="M2010.47 250.738 L2280.29 250.738 L2280.29 95.2176 L2010.47 95.2176  Z" fill="#ffffff" fill-rule="evenodd" fill-opacity="1"/>
<polyline clip-path="url(#clip560)" style="stroke:#000000; stroke-linecap:round; stroke-linejoin:round; stroke-width:4; stroke-opacity:1; fill:none" points="2010.47,250.738 2280.29,250.738 2280.29,95.2176 2010.47,95.2176 2010.47,250.738 "/>
<polyline clip-path="url(#clip560)" style="stroke:#009af9; stroke-linecap:round; stroke-linejoin:round; stroke-width:4; stroke-opacity:1; fill:none" points="2034.63,147.058 2179.55,147.058 "/>
<path clip-path="url(#clip560)" d="M2217.55 166.745 Q2215.75 171.375 2214.03 172.787 Q2212.32 174.199 2209.45 174.199 L2206.05 174.199 L2206.05 170.634 L2208.55 170.634 Q2210.31 170.634 2211.28 169.8 Q2212.25 168.967 2213.43 165.865 L2214.19 163.921 L2203.71 138.412 L2208.22 138.412 L2216.32 158.689 L2224.43 138.412 L2228.94 138.412 L2217.55 166.745 Z" fill="#000000" fill-rule="nonzero" fill-opacity="1" /><path clip-path="url(#clip560)" d="M2236.23 160.402 L2243.87 160.402 L2243.87 134.037 L2235.56 135.703 L2235.56 131.444 L2243.82 129.778 L2248.5 129.778 L2248.5 160.402 L2256.14 160.402 L2256.14 164.338 L2236.23 164.338 L2236.23 160.402 Z" fill="#000000" fill-rule="nonzero" fill-opacity="1" /><polyline clip-path="url(#clip560)" style="stroke:#e26f46; stroke-linecap:round; stroke-linejoin:round; stroke-width:4; stroke-opacity:1; fill:none" points="2034.63,198.898 2179.55,198.898 "/>
<path clip-path="url(#clip560)" d="M2217.55 218.585 Q2215.75 223.215 2214.03 224.627 Q2212.32 226.039 2209.45 226.039 L2206.05 226.039 L2206.05 222.474 L2208.55 222.474 Q2210.31 222.474 2211.28 221.64 Q2212.25 220.807 2213.43 217.705 L2214.19 215.761 L2203.71 190.252 L2208.22 190.252 L2216.32 210.529 L2224.43 190.252 L2228.94 190.252 L2217.55 218.585 Z" fill="#000000" fill-rule="nonzero" fill-opacity="1" /><path clip-path="url(#clip560)" d="M2239.45 212.242 L2255.77 212.242 L2255.77 216.178 L2233.82 216.178 L2233.82 212.242 Q2236.49 209.488 2241.07 204.858 Q2245.68 200.205 2246.86 198.863 Q2249.1 196.34 2249.98 194.604 Q2250.88 192.844 2250.88 191.155 Q2250.88 188.4 2248.94 186.664 Q2247.02 184.928 2243.92 184.928 Q2241.72 184.928 2239.26 185.692 Q2236.83 186.455 2234.06 188.006 L2234.06 183.284 Q2236.88 182.15 2239.33 181.571 Q2241.79 180.993 2243.82 180.993 Q2249.19 180.993 2252.39 183.678 Q2255.58 186.363 2255.58 190.854 Q2255.58 192.983 2254.77 194.905 Q2253.99 196.803 2251.88 199.395 Q2251.3 200.067 2248.2 203.284 Q2245.1 206.479 2239.45 212.242 Z" fill="#000000" fill-rule="nonzero" fill-opacity="1" /></svg>
