<?xml version="1.0" encoding="utf-8"?>
<svg xmlns="http://www.w3.org/2000/svg" xmlns:xlink="http://www.w3.org/1999/xlink" width="600" height="400" viewBox="0 0 2400 1600">
<defs>
  <clipPath id="clip080">
    <rect x="0" y="0" width="2400" height="1600"/>
  </clipPath>
</defs>
<path clip-path="url(#clip080)" d="M0 1600 L2400 1600 L2400 0 L0 0  Z" fill="#ffffff" fill-rule="evenodd" fill-opacity="1"/>
<defs>
  <clipPath id="clip081">
    <rect x="480" y="0" width="1681" height="1600"/>
  </clipPath>
</defs>
<path clip-path="url(#clip080)" d="M178.867 1486.45 L2352.76 1486.45 L2352.76 47.2441 L178.867 47.2441  Z" fill="#ffffff" fill-rule="evenodd" fill-opacity="1"/>
<defs>
  <clipPath id="clip082">
    <rect x="178" y="47" width="2175" height="1440"/>
  </clipPath>
</defs>
<polyline clip-path="url(#clip082)" style="stroke:#000000; stroke-linecap:round; stroke-linejoin:round; stroke-width:2; stroke-opacity:0.1; fill:none" points="240.392,1486.45 240.392,47.2441 "/>
<polyline clip-path="url(#clip082)" style="stroke:#000000; stroke-linecap:round; stroke-linejoin:round; stroke-width:2; stroke-opacity:0.1; fill:none" points="924.005,1486.45 924.005,47.2441 "/>
<polyline clip-path="url(#clip082)" style="stroke:#000000; stroke-linecap:round; stroke-linejoin:round; stroke-width:2; stroke-opacity:0.1; fill:none" points="1607.62,1486.45 1607.62,47.2441 "/>
<polyline clip-path="url(#clip082)" style="stroke:#000000; stroke-linecap:round; stroke-linejoin:round; stroke-width:2; stroke-opacity:0.1; fill:none" points="2291.23,1486.45 2291.23,47.2441 "/>
<polyline clip-path="url(#clip082)" style="stroke:#000000; stroke-linecap:round; stroke-linejoin:round; stroke-width:2; stroke-opacity:0.1; fill:none" points="178.867,1429.44 2352.76,1429.44 "/>
<polyline clip-path="url(#clip082)" style="stroke:#000000; stroke-linecap:round; stroke-linejoin:round; stroke-width:2; stroke-opacity:0.1; fill:none" points="178.867,1191.32 2352.76,1191.32 "/>
<polyline clip-path="url(#clip082)" style="stroke:#000000; stroke-linecap:round; stroke-linejoin:round; stroke-width:2; stroke-opacity:0.1; fill:none" points="178.867,953.207 2352.76,953.207 "/>
<polyline clip-path="url(#clip082)" style="stroke:#000000; stroke-linecap:round; stroke-linejoin:round; stroke-width:2; stroke-opacity:0.1; fill:none" points="178.867,715.09 2352.76,715.09 "/>
<polyline clip-path="url(#clip082)" style="stroke:#000000; stroke-linecap:round; stroke-linejoin:round; stroke-width:2; stroke-opacity:0.1; fill:none" points="178.867,476.974 2352.76,476.974 "/>
<polyline clip-path="url(#clip082)" style="stroke:#000000; stroke-linecap:round; stroke-linejoin:round; stroke-width:2; stroke-opacity:0.1; fill:none" points="178.867,238.857 2352.76,238.857 "/>
<polyline clip-path="url(#clip080)" style="stroke:#000000; stroke-linecap:round; stroke-linejoin:round; stroke-width:4; stroke-opacity:1; fill:none" points="178.867,1486.45 2352.76,1486.45 "/>
<polyline clip-path="url(#clip080)" style="stroke:#000000; stroke-linecap:round; stroke-linejoin:round; stroke-width:4; stroke-opacity:1; fill:none" points="240.392,1486.45 240.392,1467.55 "/>
<polyline clip-path="url(#clip080)" style="stroke:#000000; stroke-linecap:round; stroke-linejoin:round; stroke-width:4; stroke-opacity:1; fill:none" points="924.005,1486.45 924.005,1467.55 "/>
<polyline clip-path="url(#clip080)" style="stroke:#000000; stroke-linecap:round; stroke-linejoin:round; stroke-width:4; stroke-opacity:1; fill:none" points="1607.62,1486.45 1607.62,1467.55 "/>
<polyline clip-path="url(#clip080)" style="stroke:#000000; stroke-linecap:round; stroke-linejoin:round; stroke-width:4; stroke-opacity:1; fill:none" points="2291.23,1486.45 2291.23,1467.55 "/>
<path clip-path="url(#clip080)" d="M217.776 1517.37 Q214.165 1517.37 212.336 1520.93 Q210.531 1524.47 210.531 1531.6 Q210.531 1538.71 212.336 1542.27 Q214.165 1545.82 217.776 1545.82 Q221.41 1545.82 223.216 1542.27 Q225.045 1538.71 225.045 1531.6 Q225.045 1524.47 223.216 1520.93 Q221.41 1517.37 217.776 1517.37 M217.776 1513.66 Q223.586 1513.66 226.642 1518.27 Q229.721 1522.85 229.721 1531.6 Q229.721 1540.33 226.642 1544.94 Q223.586 1549.52 217.776 1549.52 Q211.966 1549.52 208.887 1544.94 Q205.832 1540.33 205.832 1531.6 Q205.832 1522.85 208.887 1518.27 Q211.966 1513.66 217.776 1513.66 Z" fill="#000000" fill-rule="nonzero" fill-opacity="1" /><path clip-path="url(#clip080)" d="M237.938 1542.97 L242.822 1542.97 L242.822 1548.85 L237.938 1548.85 L237.938 1542.97 Z" fill="#000000" fill-rule="nonzero" fill-opacity="1" /><path clip-path="url(#clip080)" d="M263.007 1517.37 Q259.396 1517.37 257.568 1520.93 Q255.762 1524.47 255.762 1531.6 Q255.762 1538.71 257.568 1542.27 Q259.396 1545.82 263.007 1545.82 Q266.642 1545.82 268.447 1542.27 Q270.276 1538.71 270.276 1531.6 Q270.276 1524.47 268.447 1520.93 Q266.642 1517.37 263.007 1517.37 M263.007 1513.66 Q268.818 1513.66 271.873 1518.27 Q274.952 1522.85 274.952 1531.6 Q274.952 1540.33 271.873 1544.94 Q268.818 1549.52 263.007 1549.52 Q257.197 1549.52 254.119 1544.94 Q251.063 1540.33 251.063 1531.6 Q251.063 1522.85 254.119 1518.27 Q257.197 1513.66 263.007 1513.66 Z" fill="#000000" fill-rule="nonzero" fill-opacity="1" /><path clip-path="url(#clip080)" d="M901.887 1517.37 Q898.276 1517.37 896.447 1520.93 Q894.642 1524.47 894.642 1531.6 Q894.642 1538.71 896.447 1542.27 Q898.276 1545.82 901.887 1545.82 Q905.521 1545.82 907.327 1542.27 Q909.155 1538.71 909.155 1531.6 Q909.155 1524.47 907.327 1520.93 Q905.521 1517.37 901.887 1517.37 M901.887 1513.66 Q907.697 1513.66 910.753 1518.27 Q913.831 1522.85 913.831 1531.6 Q913.831 1540.33 910.753 1544.94 Q907.697 1549.52 901.887 1549.52 Q896.077 1549.52 892.998 1544.94 Q889.942 1540.33 889.942 1531.6 Q889.942 1522.85 892.998 1518.27 Q896.077 1513.66 901.887 1513.66 Z" fill="#000000" fill-rule="nonzero" fill-opacity="1" /><path clip-path="url(#clip080)" d="M922.049 1542.97 L926.933 1542.97 L926.933 1548.85 L922.049 1548.85 L922.049 1542.97 Z" fill="#000000" fill-rule="nonzero" fill-opacity="1" /><path clip-path="url(#clip080)" d="M937.164 1514.29 L955.521 1514.29 L955.521 1518.22 L941.447 1518.22 L941.447 1526.7 Q942.465 1526.35 943.484 1526.19 Q944.502 1526 945.521 1526 Q951.308 1526 954.687 1529.17 Q958.067 1532.34 958.067 1537.76 Q958.067 1543.34 954.595 1546.44 Q951.123 1549.52 944.803 1549.52 Q942.627 1549.52 940.359 1549.15 Q938.114 1548.78 935.706 1548.04 L935.706 1543.34 Q937.789 1544.47 940.012 1545.03 Q942.234 1545.58 944.711 1545.58 Q948.715 1545.58 951.053 1543.48 Q953.391 1541.37 953.391 1537.76 Q953.391 1534.15 951.053 1532.04 Q948.715 1529.94 944.711 1529.94 Q942.836 1529.94 940.961 1530.35 Q939.109 1530.77 937.164 1531.65 L937.164 1514.29 Z" fill="#000000" fill-rule="nonzero" fill-opacity="1" /><path clip-path="url(#clip080)" d="M1574.77 1544.91 L1582.41 1544.91 L1582.41 1518.55 L1574.1 1520.21 L1574.1 1515.95 L1582.36 1514.29 L1587.04 1514.29 L1587.04 1544.91 L1594.68 1544.91 L1594.68 1548.85 L1574.77 1548.85 L1574.77 1544.91 Z" fill="#000000" fill-rule="nonzero" fill-opacity="1" /><path clip-path="url(#clip080)" d="M1604.12 1542.97 L1609.01 1542.97 L1609.01 1548.85 L1604.12 1548.85 L1604.12 1542.97 Z" fill="#000000" fill-rule="nonzero" fill-opacity="1" /><path clip-path="url(#clip080)" d="M1629.19 1517.37 Q1625.58 1517.37 1623.75 1520.93 Q1621.95 1524.47 1621.95 1531.6 Q1621.95 1538.71 1623.75 1542.27 Q1625.58 1545.82 1629.19 1545.82 Q1632.83 1545.82 1634.63 1542.27 Q1636.46 1538.71 1636.46 1531.6 Q1636.46 1524.47 1634.63 1520.93 Q1632.83 1517.37 1629.19 1517.37 M1629.19 1513.66 Q1635 1513.66 1638.06 1518.27 Q1641.14 1522.85 1641.14 1531.6 Q1641.14 1540.33 1638.06 1544.94 Q1635 1549.52 1629.19 1549.52 Q1623.38 1549.52 1620.3 1544.94 Q1617.25 1540.33 1617.25 1531.6 Q1617.25 1522.85 1620.3 1518.27 Q1623.38 1513.66 1629.19 1513.66 Z" fill="#000000" fill-rule="nonzero" fill-opacity="1" /><path clip-path="url(#clip080)" d="M2258.88 1544.91 L2266.52 1544.91 L2266.52 1518.55 L2258.21 1520.21 L2258.21 1515.95 L2266.47 1514.29 L2271.15 1514.29 L2271.15 1544.91 L2278.79 1544.91 L2278.79 1548.85 L2258.88 1548.85 L2258.88 1544.91 Z" fill="#000000" fill-rule="nonzero" fill-opacity="1" /><path clip-path="url(#clip080)" d="M2288.23 1542.97 L2293.12 1542.97 L2293.12 1548.85 L2288.23 1548.85 L2288.23 1542.97 Z" fill="#000000" fill-rule="nonzero" fill-opacity="1" /><path clip-path="url(#clip080)" d="M2303.35 1514.29 L2321.71 1514.29 L2321.71 1518.22 L2307.63 1518.22 L2307.63 1526.7 Q2308.65 1526.35 2309.67 1526.19 Q2310.69 1526 2311.71 1526 Q2317.49 1526 2320.87 1529.17 Q2324.25 1532.34 2324.25 1537.76 Q2324.25 1543.34 2320.78 1546.44 Q2317.31 1549.52 2310.99 1549.52 Q2308.81 1549.52 2306.54 1549.15 Q2304.3 1548.78 2301.89 1548.04 L2301.89 1543.34 Q2303.97 1544.47 2306.2 1545.03 Q2308.42 1545.58 2310.89 1545.58 Q2314.9 1545.58 2317.24 1543.48 Q2319.58 1541.37 2319.58 1537.76 Q2319.58 1534.15 2317.24 1532.04 Q2314.9 1529.94 2310.89 1529.94 Q2309.02 1529.94 2307.15 1530.35 Q2305.29 1530.77 2303.35 1531.65 L2303.35 1514.29 Z" fill="#000000" fill-rule="nonzero" fill-opacity="1" /><polyline clip-path="url(#clip080)" style="stroke:#000000; stroke-linecap:round; stroke-linejoin:round; stroke-width:4; stroke-opacity:1; fill:none" points="178.867,1486.45 178.867,47.2441 "/>
<polyline clip-path="url(#clip080)" style="stroke:#000000; stroke-linecap:round; stroke-linejoin:round; stroke-width:4; stroke-opacity:1; fill:none" points="178.867,1429.44 197.764,1429.44 "/>
<polyline clip-path="url(#clip080)" style="stroke:#000000; stroke-linecap:round; stroke-linejoin:round; stroke-width:4; stroke-opacity:1; fill:none" points="178.867,1191.32 197.764,1191.32 "/>
<polyline clip-path="url(#clip080)" style="stroke:#000000; stroke-linecap:round; stroke-linejoin:round; stroke-width:4; stroke-opacity:1; fill:none" points="178.867,953.207 197.764,953.207 "/>
<polyline clip-path="url(#clip080)" style="stroke:#000000; stroke-linecap:round; stroke-linejoin:round; stroke-width:4; stroke-opacity:1; fill:none" points="178.867,715.09 197.764,715.09 "/>
<polyline clip-path="url(#clip080)" style="stroke:#000000; stroke-linecap:round; stroke-linejoin:round; stroke-width:4; stroke-opacity:1; fill:none" points="178.867,476.974 197.764,476.974 "/>
<polyline clip-path="url(#clip080)" style="stroke:#000000; stroke-linecap:round; stroke-linejoin:round; stroke-width:4; stroke-opacity:1; fill:none" points="178.867,238.857 197.764,238.857 "/>
<path clip-path="url(#clip080)" d="M50.9921 1429.89 L80.6679 1429.89 L80.6679 1433.83 L50.9921 1433.83 L50.9921 1429.89 Z" fill="#000000" fill-rule="nonzero" fill-opacity="1" /><path clip-path="url(#clip080)" d="M91.5706 1442.79 L99.2095 1442.79 L99.2095 1416.42 L90.8993 1418.09 L90.8993 1413.83 L99.1632 1412.16 L103.839 1412.16 L103.839 1442.79 L111.478 1442.79 L111.478 1446.72 L91.5706 1446.72 L91.5706 1442.79 Z" fill="#000000" fill-rule="nonzero" fill-opacity="1" /><path clip-path="url(#clip080)" d="M130.922 1415.24 Q127.311 1415.24 125.482 1418.8 Q123.677 1422.35 123.677 1429.48 Q123.677 1436.58 125.482 1440.15 Q127.311 1443.69 130.922 1443.69 Q134.556 1443.69 136.362 1440.15 Q138.191 1436.58 138.191 1429.48 Q138.191 1422.35 136.362 1418.8 Q134.556 1415.24 130.922 1415.24 M130.922 1411.54 Q136.732 1411.54 139.788 1416.14 Q142.867 1420.73 142.867 1429.48 Q142.867 1438.2 139.788 1442.81 Q136.732 1447.39 130.922 1447.39 Q125.112 1447.39 122.033 1442.81 Q118.978 1438.2 118.978 1429.48 Q118.978 1420.73 122.033 1416.14 Q125.112 1411.54 130.922 1411.54 Z" fill="#000000" fill-rule="nonzero" fill-opacity="1" /><path clip-path="url(#clip080)" d="M82.1494 1191.78 L111.825 1191.78 L111.825 1195.71 L82.1494 1195.71 L82.1494 1191.78 Z" fill="#000000" fill-rule="nonzero" fill-opacity="1" /><path clip-path="url(#clip080)" d="M121.964 1174.04 L140.32 1174.04 L140.32 1177.98 L126.246 1177.98 L126.246 1186.45 Q127.265 1186.1 128.283 1185.94 Q129.302 1185.76 130.32 1185.76 Q136.107 1185.76 139.487 1188.93 Q142.867 1192.1 142.867 1197.52 Q142.867 1203.09 139.394 1206.2 Q135.922 1209.28 129.603 1209.28 Q127.427 1209.28 125.158 1208.9 Q122.913 1208.53 120.506 1207.79 L120.506 1203.09 Q122.589 1204.23 124.811 1204.78 Q127.033 1205.34 129.51 1205.34 Q133.515 1205.34 135.853 1203.23 Q138.191 1201.13 138.191 1197.52 Q138.191 1193.91 135.853 1191.8 Q133.515 1189.69 129.51 1189.69 Q127.635 1189.69 125.76 1190.11 Q123.908 1190.53 121.964 1191.41 L121.964 1174.04 Z" fill="#000000" fill-rule="nonzero" fill-opacity="1" /><path clip-path="url(#clip080)" d="M130.922 939.006 Q127.311 939.006 125.482 942.571 Q123.677 946.112 123.677 953.242 Q123.677 960.348 125.482 963.913 Q127.311 967.455 130.922 967.455 Q134.556 967.455 136.362 963.913 Q138.191 960.348 138.191 953.242 Q138.191 946.112 136.362 942.571 Q134.556 939.006 130.922 939.006 M130.922 935.302 Q136.732 935.302 139.788 939.909 Q142.867 944.492 142.867 953.242 Q142.867 961.969 139.788 966.575 Q136.732 971.159 130.922 971.159 Q125.112 971.159 122.033 966.575 Q118.978 961.969 118.978 953.242 Q118.978 944.492 122.033 939.909 Q125.112 935.302 130.922 935.302 Z" fill="#000000" fill-rule="nonzero" fill-opacity="1" /><path clip-path="url(#clip080)" d="M121.964 697.81 L140.32 697.81 L140.32 701.746 L126.246 701.746 L126.246 710.218 Q127.265 709.871 128.283 709.709 Q129.302 709.523 130.32 709.523 Q136.107 709.523 139.487 712.695 Q142.867 715.866 142.867 721.283 Q142.867 726.861 139.394 729.963 Q135.922 733.042 129.603 733.042 Q127.427 733.042 125.158 732.671 Q122.913 732.301 120.506 731.56 L120.506 726.861 Q122.589 727.995 124.811 728.551 Q127.033 729.107 129.51 729.107 Q133.515 729.107 135.853 727 Q138.191 724.894 138.191 721.283 Q138.191 717.671 135.853 715.565 Q133.515 713.459 129.51 713.459 Q127.635 713.459 125.76 713.875 Q123.908 714.292 121.964 715.171 L121.964 697.81 Z" fill="#000000" fill-rule="nonzero" fill-opacity="1" /><path clip-path="url(#clip080)" d="M91.5706 490.319 L99.2095 490.319 L99.2095 463.953 L90.8993 465.62 L90.8993 461.36 L99.1632 459.694 L103.839 459.694 L103.839 490.319 L111.478 490.319 L111.478 494.254 L91.5706 494.254 L91.5706 490.319 Z" fill="#000000" fill-rule="nonzero" fill-opacity="1" /><path clip-path="url(#clip080)" d="M130.922 462.772 Q127.311 462.772 125.482 466.337 Q123.677 469.879 123.677 477.008 Q123.677 484.115 125.482 487.68 Q127.311 491.221 130.922 491.221 Q134.556 491.221 136.362 487.68 Q138.191 484.115 138.191 477.008 Q138.191 469.879 136.362 466.337 Q134.556 462.772 130.922 462.772 M130.922 459.069 Q136.732 459.069 139.788 463.675 Q142.867 468.258 142.867 477.008 Q142.867 485.735 139.788 490.342 Q136.732 494.925 130.922 494.925 Q125.112 494.925 122.033 490.342 Q118.978 485.735 118.978 477.008 Q118.978 468.258 122.033 463.675 Q125.112 459.069 130.922 459.069 Z" fill="#000000" fill-rule="nonzero" fill-opacity="1" /><path clip-path="url(#clip080)" d="M92.566 252.202 L100.205 252.202 L100.205 225.836 L91.8947 227.503 L91.8947 223.244 L100.159 221.577 L104.834 221.577 L104.834 252.202 L112.473 252.202 L112.473 256.137 L92.566 256.137 L92.566 252.202 Z" fill="#000000" fill-rule="nonzero" fill-opacity="1" /><path clip-path="url(#clip080)" d="M121.964 221.577 L140.32 221.577 L140.32 225.512 L126.246 225.512 L126.246 233.984 Q127.265 233.637 128.283 233.475 Q129.302 233.29 130.32 233.29 Q136.107 233.29 139.487 236.461 Q142.867 239.632 142.867 245.049 Q142.867 250.628 139.394 253.73 Q135.922 256.808 129.603 256.808 Q127.427 256.808 125.158 256.438 Q122.913 256.067 120.506 255.327 L120.506 250.628 Q122.589 251.762 124.811 252.317 Q127.033 252.873 129.51 252.873 Q133.515 252.873 135.853 250.767 Q138.191 248.66 138.191 245.049 Q138.191 241.438 135.853 239.331 Q133.515 237.225 129.51 237.225 Q127.635 237.225 125.76 237.642 Q123.908 238.058 121.964 238.938 L121.964 221.577 Z" fill="#000000" fill-rule="nonzero" fill-opacity="1" /><polyline clip-path="url(#clip082)" style="stroke:#009af9; stroke-linecap:round; stroke-linejoin:round; stroke-width:4; stroke-opacity:1; fill:none" points="240.392,876.964 247.251,903.78 254.11,930.027 260.969,955.882 267.828,980.557 274.687,1004.22 281.546,1027.26 288.405,1049.4 295.264,1070.87 302.123,1091.99 308.982,1112.54 315.841,1132.72 322.7,1152.21 329.559,1171.11 336.418,1189.26 343.277,1206.59 350.136,1223.33 356.995,1239.55 363.854,1255.1 370.713,1269.91 377.572,1284.07 384.431,1297.59 391.29,1310.38 398.149,1322.44 405.008,1333.86 411.867,1344.7 418.726,1354.93 425.585,1364.56 432.444,1373.61 439.303,1382.13 446.162,1390.1 453.021,1397.54 459.88,1404.44 466.739,1410.77 473.598,1416.54 480.457,1421.76 487.316,1426.44 494.175,1430.58 501.034,1434.19 507.893,1437.29 514.752,1439.87 521.611,1441.96 528.47,1443.58 535.328,1444.75 542.188,1445.46 549.046,1445.72 555.905,1445.5 562.764,1444.84 569.623,1443.8 576.482,1442.46 583.341,1440.81 590.2,1438.9 597.059,1436.81 603.918,1434.38 610.777,1431.41 617.636,1427.89 624.495,1423.87 631.354,1419.37 638.213,1414.39 645.072,1408.89 651.931,1402.91 658.79,1396.47 665.649,1389.54 672.508,1382.23 679.367,1374.57 686.226,1366.58 693.085,1358.3 699.944,1349.74 706.803,1340.87 713.662,1331.7 720.521,1322.29 727.38,1312.66 734.239,1302.82 741.098,1292.85 747.957,1282.73 754.816,1272.54 761.675,1262.33 768.534,1252.06 775.393,1241.71 782.252,1231.36 789.111,1221.08 795.97,1210.88 802.829,1200.75 809.688,1190.66 816.547,1180.57 823.406,1170.51 830.265,1160.51 837.124,1150.58 843.983,1140.68 850.842,1130.85 857.701,1121.16 864.56,1111.54 871.419,1101.9 878.278,1092.26 885.137,1082.68 891.996,1073.2 898.855,1063.86 905.714,1054.64 912.573,1045.56 919.432,1036.65 926.291,1027.86 933.15,1019.16 940.009,1010.57 946.868,1002.01 953.727,993.472 960.586,985.072 967.445,976.76 974.304,968.559 981.163,960.479 988.022,952.426 994.881,944.401 1001.74,936.502 1008.6,928.721 1015.46,921.033 1022.32,913.487 1029.18,906.063 1036.04,898.76 1042.89,891.552 1049.75,884.419 1056.61,877.389 1063.47,870.35 1070.33,863.367 1077.19,856.507 1084.05,849.745 1090.91,843.078 1097.77,836.506 1104.62,830.061 1111.48,823.687 1118.34,817.28 1125.2,810.895 1132.06,804.596 1138.92,798.312 1145.78,791.985 1152.64,785.597 1159.5,779.226 1166.36,772.918 1173.21,766.65 1180.07,760.462 1186.93,754.382 1193.79,748.42 1200.65,742.55 1207.51,736.787 1214.37,731.127 1221.23,725.538 1228.09,720.044 1234.95,714.668 1241.8,709.394 1248.66,704.168 1255.52,699.001 1262.38,693.909 1269.24,688.881 1276.1,683.999 1282.96,679.307 1289.82,674.741 1296.68,670.275 1303.54,665.899 1310.39,661.67 1317.25,657.597 1324.11,653.737 1330.97,650.08 1337.83,646.617 1344.69,643.319 1351.55,640.108 1358.41,637.002 1365.27,634.046 1372.13,631.268 1378.98,628.687 1385.84,626.399 1392.7,624.345 1399.56,622.543 1406.42,621.035 1413.28,619.777 1420.14,618.742 1427,617.953 1433.86,617.464 1440.72,617.238 1447.57,617.268 1454.43,617.598 1461.29,618.203 1468.15,619.046 1475.01,620.145 1481.87,621.449 1488.73,623.002 1495.59,624.78 1502.45,626.699 1509.31,628.746 1516.16,630.935 1523.02,633.311 1529.88,635.922 1536.74,638.726 1543.6,641.686 1550.46,644.787 1557.32,647.999 1564.18,651.35 1571.04,654.87 1577.9,658.587 1584.75,662.538 1591.61,666.69 1598.47,670.979 1605.33,675.362 1612.19,679.803 1619.05,684.342 1625.91,688.918 1632.77,693.54 1639.63,698.216 1646.49,702.954 1653.34,707.839 1660.2,712.86 1667.06,718.037 1673.92,723.404 1680.78,728.788 1687.64,734.149 1694.5,739.533 1701.36,745.006 1708.22,750.658 1715.08,756.453 1721.93,762.249 1728.79,767.967 1735.65,773.598 1742.51,779.136 1749.37,784.632 1756.23,790.142 1763.09,795.598 1769.95,801.007 1776.81,806.376 1783.67,811.727 1790.52,817.108 1797.38,822.459 1804.24,827.775 1811.1,832.986 1817.96,838.116 1824.82,843.212 1831.68,848.21 1838.54,853.128 1845.4,857.975 1852.26,862.771 1859.11,867.551 1865.97,872.288 1872.83,877.037 1879.69,881.739 1886.55,886.336 1893.41,890.874 1900.27,895.35 1907.13,899.757 1913.99,904.074 1920.85,908.288 1927.7,912.303 1934.56,916.153 1941.42,919.936 1948.28,923.632 1955.14,927.182 1962,930.61 1968.86,933.927 1975.72,937.127 1982.58,940.221 1989.44,943.234 1996.29,946.144 2003.15,948.915 2010.01,951.577 2016.87,954.134 2023.73,956.605 2030.59,959.006 2037.45,961.322 2044.31,963.552 2051.17,965.708 2058.02,967.829 2064.88,969.932 2071.74,972.036 2078.6,974.143 2085.46,976.236 2092.32,978.307 2099.18,980.345 2106.04,982.327 2112.9,984.255 2119.76,986.135 2126.61,988.033 2133.47,989.958 2140.33,991.864 2147.19,993.692 2154.05,995.457 2160.91,997.203 2167.77,998.914 2174.63,1000.74 2181.49,1002.83 2188.35,1005.16 2195.2,1007.73 2202.06,1010.67 2208.92,1013.86 2215.78,1017.3 2222.64,1020.63 2229.5,1023.76 2236.36,1026.9 2243.22,1030.09 2250.08,1033.57 2256.94,1037.14 2263.79,1040.55 2270.65,1043.71 2277.51,1046.18 2284.37,1047.62 2291.23,1048.8 "/>
<polyline clip-path="url(#clip082)" style="stroke:#e26f46; stroke-linecap:round; stroke-linejoin:round; stroke-width:4; stroke-opacity:1; fill:none" points="240.392,87.9763 247.251,109.117 254.11,130.711 260.969,152.842 267.828,175.166 274.687,197.845 281.546,220.656 288.405,243.305 295.264,266.26 302.123,288.647 308.982,310.488 315.841,331.991 322.7,353.347 329.559,374.735 336.418,395.916 343.277,416.677 350.136,437.215 356.995,457.517 363.854,477.444 370.713,496.948 377.572,515.969 384.431,534.533 391.29,552.723 398.149,570.547 405.008,587.915 411.867,604.852 418.726,621.442 425.585,637.697 432.444,653.603 439.303,669.186 446.162,684.452 453.021,699.394 459.88,714.012 466.739,728.334 473.598,742.393 480.457,756.209 487.316,769.801 494.175,783.204 501.034,796.439 507.893,809.497 514.752,822.406 521.611,835.186 528.47,847.829 535.328,860.372 542.188,872.818 549.046,885.185 555.905,897.469 562.764,909.659 569.623,921.831 576.482,934.007 583.341,946.147 590.2,958.261 597.059,970.355 603.918,982.404 610.777,994.329 617.636,1006.09 624.495,1017.74 631.354,1029.29 638.213,1040.67 645.072,1051.89 651.931,1062.98 658.79,1073.89 665.649,1084.56 672.508,1095.07 679.367,1105.44 686.226,1115.64 693.085,1125.68 699.944,1135.5 706.803,1145.1 713.662,1154.51 720.521,1163.69 727.38,1172.7 734.239,1181.58 741.098,1190.26 747.957,1198.72 754.816,1207.03 761.675,1215.21 768.534,1223.24 775.393,1231.14 782.252,1238.89 789.111,1246.47 795.97,1253.86 802.829,1261.09 809.688,1268.13 816.547,1274.9 823.406,1281.39 830.265,1287.71 837.124,1293.9 843.983,1299.91 850.842,1305.66 857.701,1311.18 864.56,1316.45 871.419,1321.42 878.278,1326.14 885.137,1330.61 891.996,1334.77 898.855,1338.64 905.714,1342.25 912.573,1345.62 919.432,1348.76 926.291,1351.67 933.15,1354.27 940.009,1356.53 946.868,1358.35 953.727,1359.71 960.586,1360.68 967.445,1361.25 974.304,1361.45 981.163,1361.27 988.022,1360.7 994.881,1359.78 1001.74,1358.52 1008.6,1356.91 1015.46,1354.94 1022.32,1352.57 1029.18,1349.81 1036.04,1346.67 1042.89,1343.1 1049.75,1339.22 1056.61,1335.07 1063.47,1330.58 1070.33,1325.74 1077.19,1320.62 1084.05,1315.25 1090.91,1309.62 1097.77,1303.75 1104.62,1297.61 1111.48,1291.23 1118.34,1284.66 1125.2,1277.88 1132.06,1270.88 1138.92,1263.69 1145.78,1256.38 1152.64,1248.95 1159.5,1241.41 1166.36,1233.8 1173.21,1226.17 1180.07,1218.53 1186.93,1210.83 1193.79,1203.08 1200.65,1195.29 1207.51,1187.51 1214.37,1179.76 1221.23,1172.05 1228.09,1164.4 1234.95,1156.79 1241.8,1149.17 1248.66,1141.57 1255.52,1134 1262.38,1126.49 1269.24,1119.06 1276.1,1111.75 1282.96,1104.66 1289.82,1097.74 1296.68,1090.86 1303.54,1084.08 1310.39,1077.43 1317.25,1070.92 1324.11,1064.51 1330.97,1058.19 1337.83,1051.92 1344.69,1045.69 1351.55,1039.51 1358.41,1033.46 1365.27,1027.5 1372.13,1021.63 1378.98,1015.95 1385.84,1010.48 1392.7,1005.1 1399.56,999.807 1406.42,994.63 1413.28,989.567 1420.14,984.587 1427,979.614 1433.86,974.705 1440.72,969.899 1447.57,965.201 1454.43,960.594 1461.29,956.075 1468.15,951.633 1475.01,947.283 1481.87,942.947 1488.73,938.613 1495.59,934.311 1502.45,930.004 1509.31,925.701 1516.16,921.401 1523.02,917.112 1529.88,912.86 1536.74,908.694 1543.6,904.636 1550.46,900.583 1557.32,896.468 1564.18,892.289 1571.04,888.08 1577.9,883.821 1584.75,879.473 1591.61,875.107 1598.47,870.717 1605.33,866.317 1612.19,861.894 1619.05,857.468 1625.91,852.992 1632.77,848.417 1639.63,843.78 1646.49,839.127 1653.34,834.415 1660.2,829.669 1667.06,824.885 1673.92,820.145 1680.78,815.431 1687.64,810.774 1694.5,806.169 1701.36,801.574 1708.22,797.012 1715.08,792.467 1721.93,787.966 1728.79,783.476 1735.65,778.992 1742.51,774.54 1749.37,770.119 1756.23,765.734 1763.09,761.457 1769.95,757.261 1776.81,753.038 1783.67,748.887 1790.52,744.838 1797.38,740.886 1804.24,737.037 1811.1,733.332 1817.96,729.759 1824.82,726.301 1831.68,722.977 1838.54,719.771 1845.4,716.671 1852.26,713.668 1859.11,710.817 1865.97,708.123 1872.83,705.531 1879.69,703.058 1886.55,700.727 1893.41,698.501 1900.27,696.364 1907.13,694.374 1913.99,692.54 1920.85,690.863 1927.7,689.376 1934.56,688.051 1941.42,686.783 1948.28,685.578 1955.14,684.487 1962,683.543 1968.86,682.766 1975.72,682.147 1982.58,681.657 1989.44,681.284 1996.29,681.005 2003.15,680.754 2010.01,680.529 2016.87,680.39 2023.73,680.349 2030.59,680.387 2037.45,680.51 2044.31,680.729 2051.17,681.038 2058.02,681.424 2064.88,681.868 2071.74,682.348 2078.6,682.856 2085.46,683.394 2092.32,683.951 2099.18,684.548 2106.04,685.206 2112.9,685.921 2119.76,686.66 2126.61,687.432 2133.47,688.241 2140.33,689.017 2147.19,689.661 2154.05,690.252 2160.91,690.78 2167.77,691.249 2174.63,691.814 2181.49,692.421 2188.35,693.116 2195.2,694.001 2202.06,694.985 2208.92,695.859 2215.78,696.862 2222.64,698.011 2229.5,699.167 2236.36,700.225 2243.22,701.038 2250.08,701.886 2256.94,703.309 2263.79,705.726 2270.65,708.566 2277.51,711.748 2284.37,715.285 2291.23,719.195 "/>
<path clip-path="url(#clip080)" d="M2010.47 250.738 L2280.29 250.738 L2280.29 95.2176 L2010.47 95.2176  Z" fill="#ffffff" fill-rule="evenodd" fill-opacity="1"/>
<polyline clip-path="url(#clip080)" style="stroke:#000000; stroke-linecap:round; stroke-linejoin:round; stroke-width:4; stroke-opacity:1; fill:none" points="2010.47,250.738 2280.29,250.738 2280.29,95.2176 2010.47,95.2176 2010.47,250.738 "/>
<polyline clip-path="url(#clip080)" style="stroke:#009af9; stroke-linecap:round; stroke-linejoin:round; stroke-width:4; stroke-opacity:1; fill:none" points="2034.63,147.058 2179.55,147.058 "/>
<path clip-path="url(#clip080)" d="M2217.55 166.745 Q2215.75 171.375 2214.03 172.787 Q2212.32 174.199 2209.45 174.199 L2206.05 174.199 L2206.05 170.634 L2208.55 170.634 Q2210.31 170.634 2211.28 169.8 Q2212.25 168.967 2213.43 165.865 L2214.19 163.921 L2203.71 138.412 L2208.22 138.412 L2216.32 158.689 L2224.43 138.412 L2228.94 138.412 L2217.55 166.745 Z" fill="#000000" fill-rule="nonzero" fill-opacity="1" /><path clip-path="url(#clip080)" d="M2236.23 160.402 L2243.87 160.402 L2243.87 134.037 L2235.56 135.703 L2235.56 131.444 L2243.82 129.778 L2248.5 129.778 L2248.5 160.402 L2256.14 160.402 L2256.14 164.338 L2236.23 164.338 L2236.23 160.402 Z" fill="#000000" fill-rule="nonzero" fill-opacity="1" /><polyline clip-path="url(#clip080)" style="stroke:#e26f46; stroke-linecap:round; stroke-linejoin:round; stroke-width:4; stroke-opacity:1; fill:none" points="2034.63,198.898 2179.55,198.898 "/>
<path clip-path="url(#clip080)" d="M2217.55 218.585 Q2215.75 223.215 2214.03 224.627 Q2212.32 226.039 2209.45 226.039 L2206.05 226.039 L2206.05 222.474 L2208.55 222.474 Q2210.31 222.474 2211.28 221.64 Q2212.25 220.807 2213.43 217.705 L2214.19 215.761 L2203.71 190.252 L2208.22 190.252 L2216.32 210.529 L2224.43 190.252 L2228.94 190.252 L2217.55 218.585 Z" fill="#000000" fill-rule="nonzero" fill-opacity="1" /><path clip-path="url(#clip080)" d="M2239.45 212.242 L2255.77 212.242 L2255.77 216.178 L2233.82 216.178 L2233.82 212.242 Q2236.49 209.488 2241.07 204.858 Q2245.68 200.205 2246.86 198.863 Q2249.1 196.34 2249.98 194.604 Q2250.88 192.844 2250.88 191.155 Q2250.88 188.4 2248.94 186.664 Q2247.02 184.928 2243.92 184.928 Q2241.72 184.928 2239.26 185.692 Q2236.83 186.455 2234.06 188.006 L2234.06 183.284 Q2236.88 182.15 2239.33 181.571 Q2241.79 180.993 2243.82 180.993 Q2249.19 180.993 2252.39 183.678 Q2255.58 186.363 2255.58 190.854 Q2255.58 192.983 2254.77 194.905 Q2253.99 196.803 2251.88 199.395 Q2251.3 200.067 2248.2 203.284 Q2245.1 206.479 2239.45 212.242 Z" fill="#000000" fill-rule="nonzero" fill-opacity="1" /></svg>
