<?xml version="1.0" encoding="utf-8"?>
<svg xmlns="http://www.w3.org/2000/svg" xmlns:xlink="http://www.w3.org/1999/xlink" width="600" height="400" viewBox="0 0 2400 1600">
<defs>
  <clipPath id="clip230">
    <rect x="0" y="0" width="2400" height="1600"/>
  </clipPath>
</defs>
<path clip-path="url(#clip230)" d="M0 1600 L2400 1600 L2400 0 L0 0  Z" fill="#ffffff" fill-rule="evenodd" fill-opacity="1"/>
<defs>
  <clipPath id="clip231">
    <rect x="480" y="0" width="1681" height="1600"/>
  </clipPath>
</defs>
<path clip-path="url(#clip230)" d="M178.867 1486.45 L2352.76 1486.45 L2352.76 47.2441 L178.867 47.2441  Z" fill="#ffffff" fill-rule="evenodd" fill-opacity="1"/>
<defs>
  <clipPath id="clip232">
    <rect x="178" y="47" width="2175" height="1440"/>
  </clipPath>
</defs>
<polyline clip-path="url(#clip232)" style="stroke:#000000; stroke-linecap:round; stroke-linejoin:round; stroke-width:2; stroke-opacity:0.1; fill:none" points="240.392,1486.45 240.392,47.2441 "/>
<polyline clip-path="url(#clip232)" style="stroke:#000000; stroke-linecap:round; stroke-linejoin:round; stroke-width:2; stroke-opacity:0.1; fill:none" points="924.005,1486.45 924.005,47.2441 "/>
<polyline clip-path="url(#clip232)" style="stroke:#000000; stroke-linecap:round; stroke-linejoin:round; stroke-width:2; stroke-opacity:0.1; fill:none" points="1607.62,1486.45 1607.62,47.2441 "/>
<polyline clip-path="url(#clip232)" style="stroke:#000000; stroke-linecap:round; stroke-linejoin:round; stroke-width:2; stroke-opacity:0.1; fill:none" points="2291.23,1486.45 2291.23,47.2441 "/>
<polyline clip-path="url(#clip232)" style="stroke:#000000; stroke-linecap:round; stroke-linejoin:round; stroke-width:2; stroke-opacity:0.1; fill:none" points="178.867,1434.34 2352.76,1434.34 "/>
<polyline clip-path="url(#clip232)" style="stroke:#000000; stroke-linecap:round; stroke-linejoin:round; stroke-width:2; stroke-opacity:0.1; fill:none" points="178.867,1199.9 2352.76,1199.9 "/>
<polyline clip-path="url(#clip232)" style="stroke:#000000; stroke-linecap:round; stroke-linejoin:round; stroke-width:2; stroke-opacity:0.1; fill:none" points="178.867,965.461 2352.76,965.461 "/>
<polyline clip-path="url(#clip232)" style="stroke:#000000; stroke-linecap:round; stroke-linejoin:round; stroke-width:2; stroke-opacity:0.1; fill:none" points="178.867,731.02 2352.76,731.02 "/>
<polyline clip-path="url(#clip232)" style="stroke:#000000; stroke-linecap:round; stroke-linejoin:round; stroke-width:2; stroke-opacity:0.1; fill:none" points="178.867,496.58 2352.76,496.58 "/>
<polyline clip-path="url(#clip232)" style="stroke:#000000; stroke-linecap:round; stroke-linejoin:round; stroke-width:2; stroke-opacity:0.1; fill:none" points="178.867,262.139 2352.76,262.139 "/>
<polyline clip-path="url(#clip230)" style="stroke:#000000; stroke-linecap:round; stroke-linejoin:round; stroke-width:4; stroke-opacity:1; fill:none" points="178.867,1486.45 2352.76,1486.45 "/>
<polyline clip-path="url(#clip230)" style="stroke:#000000; stroke-linecap:round; stroke-linejoin:round; stroke-width:4; stroke-opacity:1; fill:none" points="240.392,1486.45 240.392,1467.55 "/>
<polyline clip-path="url(#clip230)" style="stroke:#000000; stroke-linecap:round; stroke-linejoin:round; stroke-width:4; stroke-opacity:1; fill:none" points="924.005,1486.45 924.005,1467.55 "/>
<polyline clip-path="url(#clip230)" style="stroke:#000000; stroke-linecap:round; stroke-linejoin:round; stroke-width:4; stroke-opacity:1; fill:none" points="1607.62,1486.45 1607.62,1467.55 "/>
<polyline clip-path="url(#clip230)" style="stroke:#000000; stroke-linecap:round; stroke-linejoin:round; stroke-width:4; stroke-opacity:1; fill:none" points="2291.23,1486.45 2291.23,1467.55 "/>
<path clip-path="url(#clip230)" d="M217.776 1517.37 Q214.165 1517.37 212.336 1520.93 Q210.531 1524.47 210.531 1531.6 Q210.531 1538.71 212.336 1542.27 Q214.165 1545.82 217.776 1545.82 Q221.41 1545.82 223.216 1542.27 Q225.045 1538.71 225.045 1531.6 Q225.045 1524.47 223.216 1520.93 Q221.41 1517.37 217.776 1517.37 M217.776 1513.66 Q223.586 1513.66 226.642 1518.27 Q229.721 1522.85 229.721 1531.6 Q229.721 1540.33 226.642 1544.94 Q223.586 1549.52 217.776 1549.52 Q211.966 1549.52 208.887 1544.94 Q205.832 1540.33 205.832 1531.6 Q205.832 1522.85 208.887 1518.27 Q211.966 1513.66 217.776 1513.66 Z" fill="#000000" fill-rule="nonzero" fill-opacity="1" /><path clip-path="url(#clip230)" d="M237.938 1542.97 L242.822 1542.97 L242.822 1548.85 L237.938 1548.85 L237.938 1542.97 Z" fill="#000000" fill-rule="nonzero" fill-opacity="1" /><path clip-path="url(#clip230)" d="M263.007 1517.37 Q259.396 1517.37 257.568 1520.93 Q255.762 1524.47 255.762 1531.6 Q255.762 1538.71 257.568 1542.27 Q259.396 1545.82 263.007 1545.82 Q266.642 1545.82 268.447 1542.27 Q270.276 1538.71 270.276 1531.6 Q270.276 1524.47 268.447 1520.93 Q266.642 1517.37 263.007 1517.37 M263.007 1513.66 Q268.818 1513.66 271.873 1518.27 Q274.952 1522.85 274.952 1531.6 Q274.952 1540.33 271.873 1544.94 Q268.818 1549.52 263.007 1549.52 Q257.197 1549.52 254.119 1544.94 Q251.063 1540.33 251.063 1531.6 Q251.063 1522.85 254.119 1518.27 Q257.197 1513.66 263.007 1513.66 Z" fill="#000000" fill-rule="nonzero" fill-opacity="1" /><path clip-path="url(#clip230)" d="M901.887 1517.37 Q898.276 1517.37 896.447 1520.93 Q894.642 1524.47 894.642 1531.6 Q894.642 1538.71 896.447 1542.27 Q898.276 1545.82 901.887 1545.82 Q905.521 1545.82 907.327 1542.27 Q909.155 1538.71 909.155 1531.6 Q909.155 1524.47 907.327 1520.93 Q905.521 1517.37 901.887 1517.37 M901.887 1513.66 Q907.697 1513.66 910.753 1518.27 Q913.831 1522.85 913.831 1531.6 Q913.831 1540.33 910.753 1544.94 Q907.697 1549.52 901.887 1549.52 Q896.077 1549.52 892.998 1544.94 Q889.942 1540.33 889.942 1531.6 Q889.942 1522.85 892.998 1518.27 Q896.077 1513.66 901.887 1513.66 Z" fill="#000000" fill-rule="nonzero" fill-opacity="1" /><path clip-path="url(#clip230)" d="M922.049 1542.97 L926.933 1542.97 L926.933 1548.85 L922.049 1548.85 L922.049 1542.97 Z" fill="#000000" fill-rule="nonzero" fill-opacity="1" /><path clip-path="url(#clip230)" d="M937.164 1514.29 L955.521 1514.29 L955.521 1518.22 L941.447 1518.22 L941.447 1526.7 Q942.465 1526.35 943.484 1526.19 Q944.502 1526 945.521 1526 Q951.308 1526 954.687 1529.17 Q958.067 1532.34 958.067 1537.76 Q958.067 1543.34 954.595 1546.44 Q951.123 1549.52 944.803 1549.52 Q942.627 1549.52 940.359 1549.15 Q938.114 1548.78 935.706 1548.04 L935.706 1543.34 Q937.789 1544.47 940.012 1545.03 Q942.234 1545.58 944.711 1545.58 Q948.715 1545.58 951.053 1543.48 Q953.391 1541.37 953.391 1537.76 Q953.391 1534.15 951.053 1532.04 Q948.715 1529.94 944.711 1529.94 Q942.836 1529.94 940.961 1530.35 Q939.109 1530.77 937.164 1531.65 L937.164 1514.29 Z" fill="#000000" fill-rule="nonzero" fill-opacity="1" /><path clip-path="url(#clip230)" d="M1574.77 1544.91 L1582.41 1544.91 L1582.41 1518.55 L1574.1 1520.21 L1574.1 1515.95 L1582.36 1514.29 L1587.04 1514.29 L1587.04 1544.91 L1594.68 1544.91 L1594.68 1548.85 L1574.77 1548.85 L1574.77 1544.91 Z" fill="#000000" fill-rule="nonzero" fill-opacity="1" /><path clip-path="url(#clip230)" d="M1604.12 1542.97 L1609.01 1542.97 L1609.01 1548.85 L1604.12 1548.85 L1604.12 1542.97 Z" fill="#000000" fill-rule="nonzero" fill-opacity="1" /><path clip-path="url(#clip230)" d="M1629.19 1517.37 Q1625.58 1517.37 1623.75 1520.93 Q1621.95 1524.47 1621.95 1531.6 Q1621.95 1538.71 1623.75 1542.27 Q1625.58 1545.82 1629.19 1545.82 Q1632.83 1545.82 1634.63 1542.27 Q1636.46 1538.71 1636.46 1531.6 Q1636.46 1524.47 1634.63 1520.93 Q1632.83 1517.37 1629.19 1517.37 M1629.19 1513.66 Q1635 1513.66 1638.06 1518.27 Q1641.14 1522.85 1641.14 1531.6 Q1641.14 1540.33 1638.06 1544.94 Q1635 1549.52 1629.19 1549.52 Q1623.38 1549.52 1620.3 1544.94 Q1617.25 1540.33 1617.25 1531.6 Q1617.25 1522.85 1620.3 1518.27 Q1623.38 1513.66 1629.19 1513.66 Z" fill="#000000" fill-rule="nonzero" fill-opacity="1" /><path clip-path="url(#clip230)" d="M2258.88 1544.91 L2266.52 1544.91 L2266.52 1518.55 L2258.21 1520.21 L2258.21 1515.95 L2266.47 1514.29 L2271.15 1514.29 L2271.15 1544.91 L2278.79 1544.91 L2278.79 1548.85 L2258.88 1548.85 L2258.88 1544.91 Z" fill="#000000" fill-rule="nonzero" fill-opacity="1" /><path clip-path="url(#clip230)" d="M2288.23 1542.97 L2293.12 1542.97 L2293.12 1548.85 L2288.23 1548.85 L2288.23 1542.97 Z" fill="#000000" fill-rule="nonzero" fill-opacity="1" /><path clip-path="url(#clip230)" d="M2303.35 1514.29 L2321.71 1514.29 L2321.71 1518.22 L2307.63 1518.22 L2307.63 1526.7 Q2308.65 1526.35 2309.67 1526.19 Q2310.69 1526 2311.71 1526 Q2317.49 1526 2320.87 1529.17 Q2324.25 1532.34 2324.25 1537.76 Q2324.25 1543.34 2320.78 1546.44 Q2317.31 1549.52 2310.99 1549.52 Q2308.81 1549.52 2306.54 1549.15 Q2304.3 1548.78 2301.89 1548.04 L2301.89 1543.34 Q2303.97 1544.47 2306.2 1545.03 Q2308.42 1545.58 2310.89 1545.58 Q2314.9 1545.58 2317.24 1543.48 Q2319.58 1541.37 2319.58 1537.76 Q2319.58 1534.15 2317.24 1532.04 Q2314.9 1529.94 2310.89 1529.94 Q2309.02 1529.94 2307.15 1530.35 Q2305.29 1530.77 2303.35 1531.65 L2303.35 1514.29 Z" fill="#000000" fill-rule="nonzero" fill-opacity="1" /><polyline clip-path="url(#clip230)" style="stroke:#000000; stroke-linecap:round; stroke-linejoin:round; stroke-width:4; stroke-opacity:1; fill:none" points="178.867,1486.45 178.867,47.2441 "/>
<polyline clip-path="url(#clip230)" style="stroke:#000000; stroke-linecap:round; stroke-linejoin:round; stroke-width:4; stroke-opacity:1; fill:none" points="178.867,1434.34 197.764,1434.34 "/>
<polyline clip-path="url(#clip230)" style="stroke:#000000; stroke-linecap:round; stroke-linejoin:round; stroke-width:4; stroke-opacity:1; fill:none" points="178.867,1199.9 197.764,1199.9 "/>
<polyline clip-path="url(#clip230)" style="stroke:#000000; stroke-linecap:round; stroke-linejoin:round; stroke-width:4; stroke-opacity:1; fill:none" points="178.867,965.461 197.764,965.461 "/>
<polyline clip-path="url(#clip230)" style="stroke:#000000; stroke-linecap:round; stroke-linejoin:round; stroke-width:4; stroke-opacity:1; fill:none" points="178.867,731.02 197.764,731.02 "/>
<polyline clip-path="url(#clip230)" style="stroke:#000000; stroke-linecap:round; stroke-linejoin:round; stroke-width:4; stroke-opacity:1; fill:none" points="178.867,496.58 197.764,496.58 "/>
<polyline clip-path="url(#clip230)" style="stroke:#000000; stroke-linecap:round; stroke-linejoin:round; stroke-width:4; stroke-opacity:1; fill:none" points="178.867,262.139 197.764,262.139 "/>
<path clip-path="url(#clip230)" d="M50.9921 1434.79 L80.6679 1434.79 L80.6679 1438.73 L50.9921 1438.73 L50.9921 1434.79 Z" fill="#000000" fill-rule="nonzero" fill-opacity="1" /><path clip-path="url(#clip230)" d="M91.5706 1447.69 L99.2095 1447.69 L99.2095 1421.32 L90.8993 1422.99 L90.8993 1418.73 L99.1632 1417.06 L103.839 1417.06 L103.839 1447.69 L111.478 1447.69 L111.478 1451.62 L91.5706 1451.62 L91.5706 1447.69 Z" fill="#000000" fill-rule="nonzero" fill-opacity="1" /><path clip-path="url(#clip230)" d="M130.922 1420.14 Q127.311 1420.14 125.482 1423.7 Q123.677 1427.25 123.677 1434.38 Q123.677 1441.48 125.482 1445.05 Q127.311 1448.59 130.922 1448.59 Q134.556 1448.59 136.362 1445.05 Q138.191 1441.48 138.191 1434.38 Q138.191 1427.25 136.362 1423.7 Q134.556 1420.14 130.922 1420.14 M130.922 1416.44 Q136.732 1416.44 139.788 1421.04 Q142.867 1425.63 142.867 1434.38 Q142.867 1443.1 139.788 1447.71 Q136.732 1452.29 130.922 1452.29 Q125.112 1452.29 122.033 1447.71 Q118.978 1443.1 118.978 1434.38 Q118.978 1425.63 122.033 1421.04 Q125.112 1416.44 130.922 1416.44 Z" fill="#000000" fill-rule="nonzero" fill-opacity="1" /><path clip-path="url(#clip230)" d="M82.1494 1200.35 L111.825 1200.35 L111.825 1204.29 L82.1494 1204.29 L82.1494 1200.35 Z" fill="#000000" fill-rule="nonzero" fill-opacity="1" /><path clip-path="url(#clip230)" d="M121.964 1182.62 L140.32 1182.62 L140.32 1186.56 L126.246 1186.56 L126.246 1195.03 Q127.265 1194.68 128.283 1194.52 Q129.302 1194.33 130.32 1194.33 Q136.107 1194.33 139.487 1197.51 Q142.867 1200.68 142.867 1206.09 Q142.867 1211.67 139.394 1214.77 Q135.922 1217.85 129.603 1217.85 Q127.427 1217.85 125.158 1217.48 Q122.913 1217.11 120.506 1216.37 L120.506 1211.67 Q122.589 1212.81 124.811 1213.36 Q127.033 1213.92 129.51 1213.92 Q133.515 1213.92 135.853 1211.81 Q138.191 1209.7 138.191 1206.09 Q138.191 1202.48 135.853 1200.38 Q133.515 1198.27 129.51 1198.27 Q127.635 1198.27 125.76 1198.69 Q123.908 1199.1 121.964 1199.98 L121.964 1182.62 Z" fill="#000000" fill-rule="nonzero" fill-opacity="1" /><path clip-path="url(#clip230)" d="M130.922 951.259 Q127.311 951.259 125.482 954.824 Q123.677 958.366 123.677 965.495 Q123.677 972.602 125.482 976.167 Q127.311 979.708 130.922 979.708 Q134.556 979.708 136.362 976.167 Q138.191 972.602 138.191 965.495 Q138.191 958.366 136.362 954.824 Q134.556 951.259 130.922 951.259 M130.922 947.556 Q136.732 947.556 139.788 952.162 Q142.867 956.745 142.867 965.495 Q142.867 974.222 139.788 978.829 Q136.732 983.412 130.922 983.412 Q125.112 983.412 122.033 978.829 Q118.978 974.222 118.978 965.495 Q118.978 956.745 122.033 952.162 Q125.112 947.556 130.922 947.556 Z" fill="#000000" fill-rule="nonzero" fill-opacity="1" /><path clip-path="url(#clip230)" d="M121.964 713.74 L140.32 713.74 L140.32 717.675 L126.246 717.675 L126.246 726.147 Q127.265 725.8 128.283 725.638 Q129.302 725.453 130.32 725.453 Q136.107 725.453 139.487 728.624 Q142.867 731.796 142.867 737.212 Q142.867 742.791 139.394 745.893 Q135.922 748.971 129.603 748.971 Q127.427 748.971 125.158 748.601 Q122.913 748.231 120.506 747.49 L120.506 742.791 Q122.589 743.925 124.811 744.481 Q127.033 745.036 129.51 745.036 Q133.515 745.036 135.853 742.93 Q138.191 740.823 138.191 737.212 Q138.191 733.601 135.853 731.495 Q133.515 729.388 129.51 729.388 Q127.635 729.388 125.76 729.805 Q123.908 730.222 121.964 731.101 L121.964 713.74 Z" fill="#000000" fill-rule="nonzero" fill-opacity="1" /><path clip-path="url(#clip230)" d="M91.5706 509.925 L99.2095 509.925 L99.2095 483.559 L90.8993 485.226 L90.8993 480.966 L99.1632 479.3 L103.839 479.3 L103.839 509.925 L111.478 509.925 L111.478 513.86 L91.5706 513.86 L91.5706 509.925 Z" fill="#000000" fill-rule="nonzero" fill-opacity="1" /><path clip-path="url(#clip230)" d="M130.922 482.378 Q127.311 482.378 125.482 485.943 Q123.677 489.485 123.677 496.614 Q123.677 503.721 125.482 507.286 Q127.311 510.827 130.922 510.827 Q134.556 510.827 136.362 507.286 Q138.191 503.721 138.191 496.614 Q138.191 489.485 136.362 485.943 Q134.556 482.378 130.922 482.378 M130.922 478.675 Q136.732 478.675 139.788 483.281 Q142.867 487.864 142.867 496.614 Q142.867 505.341 139.788 509.948 Q136.732 514.531 130.922 514.531 Q125.112 514.531 122.033 509.948 Q118.978 505.341 118.978 496.614 Q118.978 487.864 122.033 483.281 Q125.112 478.675 130.922 478.675 Z" fill="#000000" fill-rule="nonzero" fill-opacity="1" /><path clip-path="url(#clip230)" d="M92.566 275.484 L100.205 275.484 L100.205 249.119 L91.8947 250.785 L91.8947 246.526 L100.159 244.859 L104.834 244.859 L104.834 275.484 L112.473 275.484 L112.473 279.419 L92.566 279.419 L92.566 275.484 Z" fill="#000000" fill-rule="nonzero" fill-opacity="1" /><path clip-path="url(#clip230)" d="M121.964 244.859 L140.32 244.859 L140.32 248.794 L126.246 248.794 L126.246 257.267 Q127.265 256.919 128.283 256.757 Q129.302 256.572 130.32 256.572 Q136.107 256.572 139.487 259.743 Q142.867 262.915 142.867 268.331 Q142.867 273.91 139.394 277.012 Q135.922 280.091 129.603 280.091 Q127.427 280.091 125.158 279.72 Q122.913 279.35 120.506 278.609 L120.506 273.91 Q122.589 275.044 124.811 275.6 Q127.033 276.155 129.51 276.155 Q133.515 276.155 135.853 274.049 Q138.191 271.942 138.191 268.331 Q138.191 264.72 135.853 262.614 Q133.515 260.507 129.51 260.507 Q127.635 260.507 125.76 260.924 Q123.908 261.341 121.964 262.22 L121.964 244.859 Z" fill="#000000" fill-rule="nonzero" fill-opacity="1" /><polyline clip-path="url(#clip232)" style="stroke:#009af9; stroke-linecap:round; stroke-linejoin:round; stroke-width:4; stroke-opacity:1; fill:none" points="240.392,906.389 247.251,926.448 254.11,948.169 260.969,970.567 267.828,993.492 274.687,1016.01 281.546,1037.84 288.405,1058.99 295.264,1079.25 302.123,1099.12 308.982,1118.41 315.841,1137.03 322.7,1155.19 329.559,1172.51 336.418,1188.92 343.277,1204.76 350.136,1220.19 356.995,1235.13 363.854,1249.53 370.713,1263.39 377.572,1276.7 384.431,1289.44 391.29,1301.65 398.149,1313.35 405.008,1324.47 411.867,1335.09 418.726,1345.22 425.585,1354.87 432.444,1364.09 439.303,1372.85 446.162,1381.1 453.021,1388.88 459.88,1396.19 466.739,1403 473.598,1409.33 480.457,1415.15 487.316,1420.45 494.175,1425.24 501.034,1429.53 507.893,1433.3 514.752,1436.56 521.611,1439.29 528.47,1441.52 535.328,1443.29 542.188,1444.57 549.046,1445.36 555.905,1445.72 562.764,1445.66 569.623,1445.22 576.482,1444.42 583.341,1443.33 590.2,1442.04 597.059,1440.56 603.918,1438.71 610.777,1436.33 617.636,1433.48 624.495,1430.08 631.354,1426.21 638.213,1421.88 645.072,1417.06 651.931,1411.78 658.79,1406.07 665.649,1399.92 672.508,1393.35 679.367,1386.47 686.226,1379.19 693.085,1371.53 699.944,1363.52 706.803,1355.22 713.662,1346.64 720.521,1337.77 727.38,1328.6 734.239,1319.18 741.098,1309.6 747.957,1299.9 754.816,1290.05 761.675,1280.04 768.534,1269.86 775.393,1259.57 782.252,1249.18 789.111,1238.7 795.97,1228.15 802.829,1217.61 809.688,1207.13 816.547,1196.76 823.406,1186.5 830.265,1176.28 837.124,1166.16 843.983,1156.23 850.842,1146.43 857.701,1136.68 864.56,1127.02 871.419,1117.43 878.278,1107.85 885.137,1098.32 891.996,1088.89 898.855,1079.52 905.714,1070.1 912.573,1060.74 919.432,1051.5 926.291,1042.32 933.15,1033.19 940.009,1024.1 946.868,1015.14 953.727,1006.32 960.586,997.584 967.445,988.895 974.304,980.359 981.163,971.977 988.022,963.731 994.881,955.652 1001.74,947.679 1008.6,939.82 1015.46,932.073 1022.32,924.498 1029.18,917.097 1036.04,909.808 1042.89,902.724 1049.75,895.771 1056.61,888.812 1063.47,881.918 1070.33,875.161 1077.19,868.49 1084.05,861.861 1090.91,855.331 1097.77,848.933 1104.62,842.6 1111.48,836.289 1118.34,829.979 1125.2,823.649 1132.06,817.36 1138.92,811.125 1145.78,804.865 1152.64,798.66 1159.5,792.543 1166.36,786.471 1173.21,780.422 1180.07,774.383 1186.93,768.415 1193.79,762.503 1200.65,756.602 1207.51,750.792 1214.37,745.077 1221.23,739.435 1228.09,733.909 1234.95,728.503 1241.8,723.238 1248.66,718.099 1255.52,712.974 1262.38,707.986 1269.24,703.141 1276.1,698.433 1282.96,693.872 1289.82,689.438 1296.68,685.175 1303.54,681.038 1310.39,676.952 1317.25,672.981 1324.11,669.221 1330.97,665.666 1337.83,662.251 1344.69,659.023 1351.55,656.003 1358.41,653.168 1365.27,650.522 1372.13,648.039 1378.98,645.7 1385.84,643.506 1392.7,641.505 1399.56,639.673 1406.42,638.084 1413.28,636.73 1420.14,635.559 1427,634.635 1433.86,633.918 1440.72,633.409 1447.57,633.163 1454.43,633.206 1461.29,633.484 1468.15,633.986 1475.01,634.702 1481.87,635.642 1488.73,636.855 1495.59,638.342 1502.45,640.036 1509.31,641.958 1516.16,644.121 1523.02,646.492 1529.88,649.031 1536.74,651.719 1543.6,654.569 1550.46,657.566 1557.32,660.701 1564.18,663.906 1571.04,667.252 1577.9,670.762 1584.75,674.378 1591.61,678.136 1598.47,681.983 1605.33,685.939 1612.19,689.977 1619.05,694.24 1625.91,698.748 1632.77,703.453 1639.63,708.277 1646.49,713.212 1653.34,718.293 1660.2,723.459 1667.06,728.729 1673.92,734.023 1680.78,739.293 1687.64,744.589 1694.5,749.931 1701.36,755.37 1708.22,760.912 1715.08,766.476 1721.93,772.143 1728.79,777.949 1735.65,783.786 1742.51,789.632 1749.37,795.438 1756.23,801.233 1763.09,806.986 1769.95,812.696 1776.81,818.445 1783.67,824.168 1790.52,829.824 1797.38,835.444 1804.24,841.049 1811.1,846.607 1817.96,852.121 1824.82,857.572 1831.68,863.002 1838.54,868.449 1845.4,873.825 1852.26,879.038 1859.11,884.132 1865.97,889.178 1872.83,894.185 1879.69,899.116 1886.55,903.877 1893.41,908.509 1900.27,913.054 1907.13,917.529 1913.99,921.933 1920.85,926.259 1927.7,930.469 1934.56,934.514 1941.42,938.453 1948.28,942.307 1955.14,946.065 1962,949.698 1968.86,953.217 1975.72,956.657 1982.58,959.977 1989.44,963.157 1996.29,966.195 2003.15,969.063 2010.01,971.783 2016.87,974.335 2023.73,976.733 2030.59,979.009 2037.45,981.154 2044.31,983.161 2051.17,985.04 2058.02,986.796 2064.88,988.432 2071.74,989.93 2078.6,991.3 2085.46,992.568 2092.32,993.749 2099.18,994.837 2106.04,995.823 2112.9,996.704 2119.76,997.465 2126.61,998.107 2133.47,998.649 2140.33,999.008 2147.19,999.246 2154.05,999.376 2160.91,999.286 2167.77,999.103 2174.63,998.911 2181.49,998.721 2188.35,998.619 2195.2,998.533 2202.06,998.324 2208.92,998.02 2215.78,997.604 2222.64,996.774 2229.5,995.598 2236.36,994.57 2243.22,993.45 2250.08,992.365 2256.94,991.09 2263.79,990.047 2270.65,989.431 2277.51,988.858 2284.37,988.098 2291.23,987.085 "/>
<polyline clip-path="url(#clip232)" style="stroke:#e26f46; stroke-linecap:round; stroke-linejoin:round; stroke-width:4; stroke-opacity:1; fill:none" points="240.392,87.9763 247.251,110.312 254.11,132.704 260.969,155.122 267.828,178.081 274.687,201.117 281.546,224.088 288.405,247.252 295.264,270.525 302.123,294.351 308.982,318.458 315.841,342.277 322.7,365.603 329.559,388.333 336.418,410.596 343.277,432.613 350.136,454.101 356.995,474.893 363.854,495.082 370.713,514.749 377.572,533.916 384.431,552.633 391.29,570.852 398.149,588.553 405.008,605.713 411.867,622.341 418.726,638.504 425.585,654.255 432.444,669.659 439.303,684.714 446.162,699.419 453.021,713.824 459.88,727.953 466.739,741.836 473.598,755.497 480.457,768.942 487.316,782.2 494.175,795.306 501.034,808.256 507.893,821.064 514.752,833.752 521.611,846.328 528.47,858.793 535.328,871.169 542.188,883.501 549.046,895.785 555.905,907.99 562.764,920.141 569.623,932.209 576.482,944.219 583.341,956.209 590.2,968.143 597.059,980.059 603.918,991.982 610.777,1003.81 617.636,1015.5 624.495,1027.04 631.354,1038.37 638.213,1049.49 645.072,1060.42 651.931,1071.2 658.79,1081.77 665.649,1092.1 672.508,1102.22 679.367,1112.18 686.226,1122 693.085,1131.68 699.944,1141.19 706.803,1150.48 713.662,1159.56 720.521,1168.41 727.38,1177.02 734.239,1185.45 741.098,1193.75 747.957,1201.93 754.816,1209.91 761.675,1217.69 768.534,1225.33 775.393,1232.87 782.252,1240.3 789.111,1247.57 795.97,1254.67 802.829,1261.63 809.688,1268.44 816.547,1275.07 823.406,1281.57 830.265,1287.93 837.124,1294.15 843.983,1300.18 850.842,1306.03 857.701,1311.68 864.56,1317.16 871.419,1322.4 878.278,1327.41 885.137,1332.21 891.996,1336.79 898.855,1341.07 905.714,1344.99 912.573,1348.64 919.432,1352 926.291,1355.03 933.15,1357.78 940.009,1360.18 946.868,1362.22 953.727,1363.89 960.586,1365.18 967.445,1366.07 974.304,1366.5 981.163,1366.49 988.022,1366.05 994.881,1365.19 1001.74,1363.9 1008.6,1362.22 1015.46,1360.13 1022.32,1357.76 1029.18,1355.12 1036.04,1352.14 1042.89,1348.78 1049.75,1345.06 1056.61,1341.04 1063.47,1336.75 1070.33,1332.16 1077.19,1327.3 1084.05,1322.19 1090.91,1316.86 1097.77,1311.42 1104.62,1305.79 1111.48,1299.96 1118.34,1293.93 1125.2,1287.72 1132.06,1281.32 1138.92,1274.79 1145.78,1268.11 1152.64,1261.25 1159.5,1254.3 1166.36,1247.21 1173.21,1240 1180.07,1232.75 1186.93,1225.44 1193.79,1218 1200.65,1210.51 1207.51,1203 1214.37,1195.45 1221.23,1187.91 1228.09,1180.37 1234.95,1172.78 1241.8,1165.19 1248.66,1157.66 1255.52,1150.16 1262.38,1142.64 1269.24,1135.15 1276.1,1127.7 1282.96,1120.26 1289.82,1112.84 1296.68,1105.47 1303.54,1098.13 1310.39,1090.87 1317.25,1083.72 1324.11,1076.64 1330.97,1069.56 1337.83,1062.47 1344.69,1055.43 1351.55,1048.52 1358.41,1041.79 1365.27,1035.21 1372.13,1028.79 1378.98,1022.51 1385.84,1016.36 1392.7,1010.41 1399.56,1004.58 1406.42,998.856 1413.28,993.334 1420.14,987.97 1427,982.751 1433.86,977.712 1440.72,972.866 1447.57,968.161 1454.43,963.504 1461.29,958.899 1468.15,954.341 1475.01,949.876 1481.87,945.567 1488.73,941.39 1495.59,937.309 1502.45,933.263 1509.31,929.256 1516.16,925.311 1523.02,921.367 1529.88,917.415 1536.74,913.524 1543.6,909.658 1550.46,905.716 1557.32,901.737 1564.18,897.751 1571.04,893.759 1577.9,889.81 1584.75,885.894 1591.61,881.996 1598.47,878.065 1605.33,874.11 1612.19,870.135 1619.05,866.099 1625.91,862.09 1632.77,858.052 1639.63,853.944 1646.49,849.865 1653.34,845.799 1660.2,841.722 1667.06,837.584 1673.92,833.373 1680.78,829.161 1687.64,825.005 1694.5,820.911 1701.36,816.89 1708.22,812.957 1715.08,809.073 1721.93,805.23 1728.79,801.414 1735.65,797.578 1742.51,793.703 1749.37,789.78 1756.23,785.879 1763.09,782.075 1769.95,778.395 1776.81,774.802 1783.67,771.31 1790.52,767.951 1797.38,764.604 1804.24,761.26 1811.1,757.911 1817.96,754.519 1824.82,751.219 1831.68,748.054 1838.54,744.983 1845.4,742.074 1852.26,739.303 1859.11,736.545 1865.97,733.817 1872.83,731.253 1879.69,728.812 1886.55,726.431 1893.41,724.139 1900.27,721.9 1907.13,719.735 1913.99,717.768 1920.85,715.966 1927.7,714.248 1934.56,712.631 1941.42,711.08 1948.28,709.587 1955.14,708.183 1962,706.871 1968.86,705.619 1975.72,704.448 1982.58,703.375 1989.44,702.388 1996.29,701.503 2003.15,700.768 2010.01,700.185 2016.87,699.756 2023.73,699.464 2030.59,699.301 2037.45,699.255 2044.31,699.306 2051.17,699.475 2058.02,699.768 2064.88,700.145 2071.74,700.567 2078.6,701.013 2085.46,701.471 2092.32,701.944 2099.18,702.423 2106.04,702.89 2112.9,703.356 2119.76,703.824 2126.61,704.267 2133.47,704.765 2140.33,705.341 2147.19,705.967 2154.05,706.718 2160.91,707.704 2167.77,708.877 2174.63,710.05 2181.49,711.121 2188.35,712.14 2195.2,713.209 2202.06,714.417 2208.92,715.763 2215.78,717.51 2222.64,719.532 2229.5,721.469 2236.36,723.82 2243.22,726.556 2250.08,728.914 2256.94,731.409 2263.79,734.51 2270.65,737.367 2277.51,739.687 2284.37,741.955 2291.23,743.933 "/>
<path clip-path="url(#clip230)" d="M2010.47 250.738 L2280.29 250.738 L2280.29 95.2176 L2010.47 95.2176  Z" fill="#ffffff" fill-rule="evenodd" fill-opacity="1"/>
<polyline clip-path="url(#clip230)" style="stroke:#000000; stroke-linecap:round; stroke-linejoin:round; stroke-width:4; stroke-opacity:1; fill:none" points="2010.47,250.738 2280.29,250.738 2280.29,95.2176 2010.47,95.2176 2010.47,250.738 "/>
<polyline clip-path="url(#clip230)" style="stroke:#009af9; stroke-linecap:round; stroke-linejoin:round; stroke-width:4; stroke-opacity:1; fill:none" points="2034.63,147.058 2179.55,147.058 "/>
<path clip-path="url(#clip230)" d="M2217.55 166.745 Q2215.75 171.375 2214.03 172.787 Q2212.32 174.199 2209.45 174.199 L2206.05 174.199 L2206.05 170.634 L2208.55 170.634 Q2210.31 170.634 2211.28 169.8 Q2212.25 168.967 2213.43 165.865 L2214.19 163.921 L2203.71 138.412 L2208.22 138.412 L2216.32 158.689 L2224.43 138.412 L2228.94 138.412 L2217.55 166.745 Z" fill="#000000" fill-rule="nonzero" fill-opacity="1" /><path clip-path="url(#clip230)" d="M2236.23 160.402 L2243.87 160.402 L2243.87 134.037 L2235.56 135.703 L2235.56 131.444 L2243.82 129.778 L2248.5 129.778 L2248.5 160.402 L2256.14 160.402 L2256.14 164.338 L2236.23 164.338 L2236.23 160.402 Z" fill="#000000" fill-rule="nonzero" fill-opacity="1" /><polyline clip-path="url(#clip230)" style="stroke:#e26f46; stroke-linecap:round; stroke-linejoin:round; stroke-width:4; stroke-opacity:1; fill:none" points="2034.63,198.898 2179.55,198.898 "/>
<path clip-path="url(#clip230)" d="M2217.55 218.585 Q2215.75 223.215 2214.03 224.627 Q2212.32 226.039 2209.45 226.039 L2206.05 226.039 L2206.05 222.474 L2208.55 222.474 Q2210.31 222.474 2211.28 221.64 Q2212.25 220.807 2213.43 217.705 L2214.19 215.761 L2203.71 190.252 L2208.22 190.252 L2216.32 210.529 L2224.43 190.252 L2228.94 190.252 L2217.55 218.585 Z" fill="#000000" fill-rule="nonzero" fill-opacity="1" /><path clip-path="url(#clip230)" d="M2239.45 212.242 L2255.77 212.242 L2255.77 216.178 L2233.82 216.178 L2233.82 212.242 Q2236.49 209.488 2241.07 204.858 Q2245.68 200.205 2246.86 198.863 Q2249.1 196.34 2249.98 194.604 Q2250.88 192.844 2250.88 191.155 Q2250.88 188.4 2248.94 186.664 Q2247.02 184.928 2243.92 184.928 Q2241.72 184.928 2239.26 185.692 Q2236.83 186.455 2234.06 188.006 L2234.06 183.284 Q2236.88 182.15 2239.33 181.571 Q2241.79 180.993 2243.82 180.993 Q2249.19 180.993 2252.39 183.678 Q2255.58 186.363 2255.58 190.854 Q2255.58 192.983 2254.77 194.905 Q2253.99 196.803 2251.88 199.395 Q2251.3 200.067 2248.2 203.284 Q2245.1 206.479 2239.45 212.242 Z" fill="#000000" fill-rule="nonzero" fill-opacity="1" /></svg>
