<?xml version="1.0" encoding="utf-8"?>
<svg xmlns="http://www.w3.org/2000/svg" xmlns:xlink="http://www.w3.org/1999/xlink" width="600" height="400" viewBox="0 0 2400 1600">
<defs>
  <clipPath id="clip260">
    <rect x="0" y="0" width="2400" height="1600"/>
  </clipPath>
</defs>
<path clip-path="url(#clip260)" d="M0 1600 L2400 1600 L2400 0 L0 0  Z" fill="#ffffff" fill-rule="evenodd" fill-opacity="1"/>
<defs>
  <clipPath id="clip261">
    <rect x="480" y="0" width="1681" height="1600"/>
  </clipPath>
</defs>
<path clip-path="url(#clip260)" d="M178.867 1486.45 L2352.76 1486.45 L2352.76 47.2441 L178.867 47.2441  Z" fill="#ffffff" fill-rule="evenodd" fill-opacity="1"/>
<defs>
  <clipPath id="clip262">
    <rect x="178" y="47" width="2175" height="1440"/>
  </clipPath>
</defs>
<polyline clip-path="url(#clip262)" style="stroke:#000000; stroke-linecap:round; stroke-linejoin:round; stroke-width:2; stroke-opacity:0.1; fill:none" points="240.392,1486.45 240.392,47.2441 "/>
<polyline clip-path="url(#clip262)" style="stroke:#000000; stroke-linecap:round; stroke-linejoin:round; stroke-width:2; stroke-opacity:0.1; fill:none" points="924.005,1486.45 924.005,47.2441 "/>
<polyline clip-path="url(#clip262)" style="stroke:#000000; stroke-linecap:round; stroke-linejoin:round; stroke-width:2; stroke-opacity:0.1; fill:none" points="1607.62,1486.45 1607.62,47.2441 "/>
<polyline clip-path="url(#clip262)" style="stroke:#000000; stroke-linecap:round; stroke-linejoin:round; stroke-width:2; stroke-opacity:0.1; fill:none" points="2291.23,1486.45 2291.23,47.2441 "/>
<polyline clip-path="url(#clip260)" style="stroke:#000000; stroke-linecap:round; stroke-linejoin:round; stroke-width:4; stroke-opacity:1; fill:none" points="178.867,1486.45 2352.76,1486.45 "/>
<polyline clip-path="url(#clip260)" style="stroke:#000000; stroke-linecap:round; stroke-linejoin:round; stroke-width:4; stroke-opacity:1; fill:none" points="240.392,1486.45 240.392,1467.55 "/>
<polyline clip-path="url(#clip260)" style="stroke:#000000; stroke-linecap:round; stroke-linejoin:round; stroke-width:4; stroke-opacity:1; fill:none" points="924.005,1486.45 924.005,1467.55 "/>
<polyline clip-path="url(#clip260)" style="stroke:#000000; stroke-linecap:round; stroke-linejoin:round; stroke-width:4; stroke-opacity:1; fill:none" points="1607.62,1486.45 1607.62,1467.55 "/>
<polyline clip-path="url(#clip260)" style="stroke:#000000; stroke-linecap:round; stroke-linejoin:round; stroke-width:4; stroke-opacity:1; fill:none" points="2291.23,1486.45 2291.23,1467.55 "/>
<path clip-path="url(#clip260)" d="M217.776 1517.37 Q214.165 1517.37 212.336 1520.93 Q210.531 1524.47 210.531 1531.6 Q210.531 1538.71 212.336 1542.27 Q214.165 1545.82 217.776 1545.82 Q221.41 1545.82 223.216 1542.27 Q225.045 1538.71 225.045 1531.6 Q225.045 1524.47 223.216 1520.93 Q221.41 1517.37 217.776 1517.37 M217.776 1513.66 Q223.586 1513.66 226.642 1518.27 Q229.721 1522.85 229.721 1531.6 Q229.721 1540.33 226.642 1544.94 Q223.586 1549.52 217.776 1549.52 Q211.966 1549.52 208.887 1544.94 Q205.832 1540.33 205.832 1531.6 Q205.832 1522.85 208.887 1518.27 Q211.966 1513.66 217.776 1513.66 Z" fill="#000000" fill-rule="nonzero" fill-opacity="1" /><path clip-path="url(#clip260)" d="M237.938 1542.97 L242.822 1542.97 L242.822 1548.85 L237.938 1548.85 L237.938 1542.97 Z" fill="#000000" fill-rule="nonzero" fill-opacity="1" /><path clip-path="url(#clip260)" d="M263.007 1517.37 Q259.396 1517.37 257.568 1520.93 Q255.762 1524.47 255.762 1531.6 Q255.762 1538.71 257.568 1542.27 Q259.396 1545.82 263.007 1545.82 Q266.642 1545.82 268.447 1542.27 Q270.276 1538.71 270.276 1531.6 Q270.276 1524.47 268.447 1520.93 Q266.642 1517.37 263.007 1517.37 M263.007 1513.66 Q268.818 1513.66 271.873 1518.27 Q274.952 1522.85 274.952 1531.6 Q274.952 1540.33 271.873 1544.94 Q268.818 1549.52 263.007 1549.52 Q257.197 1549.52 254.119 1544.94 Q251.063 1540.33 251.063 1531.6 Q251.063 1522.85 254.119 1518.27 Q257.197 1513.66 263.007 1513.66 Z" fill="#000000" fill-rule="nonzero" fill-opacity="1" /><path clip-path="url(#clip260)" d="M901.887 1517.37 Q898.276 1517.37 896.447 1520.93 Q894.642 1524.47 894.642 1531.6 Q894.642 1538.71 896.447 1542.27 Q898.276 1545.82 901.887 1545.82 Q905.521 1545.82 907.327 1542.27 Q909.155 1538.71 909.155 1531.6 Q909.155 1524.47 907.327 1520.93 Q905.521 1517.37 901.887 1517.37 M901.887 1513.66 Q907.697 1513.66 910.753 1518.27 Q913.831 1522.85 913.831 1531.6 Q913.831 1540.33 910.753 1544.94 Q907.697 1549.52 901.887 1549.52 Q896.077 1549.52 892.998 1544.94 Q889.942 1540.33 889.942 1531.6 Q889.942 1522.85 892.998 1518.27 Q896.077 1513.66 901.887 1513.66 Z" fill="#000000" fill-rule="nonzero" fill-opacity="1" /><path clip-path="url(#clip260)" d="M922.049 1542.97 L926.933 1542.97 L926.933 1548.85 L922.049 1548.85 L922.049 1542.97 Z" fill="#000000" fill-rule="nonzero" fill-opacity="1" /><path clip-path="url(#clip260)" d="M937.164 1514.29 L955.521 1514.29 L955.521 1518.22 L941.447 1518.22 L941.447 1526.7 Q942.465 1526.35 943.484 1526.19 Q944.502 1526 945.521 1526 Q951.308 1526 954.687 1529.17 Q958.067 1532.34 958.067 1537.76 Q958.067 1543.34 954.595 1546.44 Q951.123 1549.52 944.803 1549.52 Q942.627 1549.52 940.359 1549.15 Q938.114 1548.78 935.706 1548.04 L935.706 1543.34 Q937.789 1544.47 940.012 1545.03 Q942.234 1545.58 944.711 1545.58 Q948.715 1545.58 951.053 1543.48 Q953.391 1541.37 953.391 1537.76 Q953.391 1534.15 951.053 1532.04 Q948.715 1529.94 944.711 1529.94 Q942.836 1529.94 940.961 1530.35 Q939.109 1530.77 937.164 1531.65 L937.164 1514.29 Z" fill="#000000" fill-rule="nonzero" fill-opacity="1" /><path clip-path="url(#clip260)" d="M1574.77 1544.91 L1582.41 1544.91 L1582.41 1518.55 L1574.1 1520.21 L1574.1 1515.95 L1582.36 1514.29 L1587.04 1514.29 L1587.04 1544.91 L1594.68 1544.91 L1594.68 1548.85 L1574.77 1548.85 L1574.77 1544.91 Z" fill="#000000" fill-rule="nonzero" fill-opacity="1" /><path clip-path="url(#clip260)" d="M1604.12 1542.97 L1609.01 1542.97 L1609.01 1548.85 L1604.12 1548.85 L1604.12 1542.97 Z" fill="#000000" fill-rule="nonzero" fill-opacity="1" /><path clip-path="url(#clip260)" d="M1629.19 1517.37 Q1625.58 1517.37 1623.75 1520.93 Q1621.95 1524.47 1621.95 1531.6 Q1621.95 1538.71 1623.75 1542.27 Q1625.58 1545.82 1629.19 1545.82 Q1632.83 1545.82 1634.63 1542.27 Q1636.46 1538.71 1636.46 1531.6 Q1636.46 1524.47 1634.63 1520.93 Q1632.83 1517.37 1629.19 1517.37 M1629.19 1513.66 Q1635 1513.66 1638.06 1518.27 Q1641.14 1522.85 1641.14 1531.6 Q1641.14 1540.33 1638.06 1544.94 Q1635 1549.52 1629.19 1549.52 Q1623.38 1549.52 1620.3 1544.94 Q1617.25 1540.33 1617.25 1531.6 Q1617.25 1522.85 1620.3 1518.27 Q1623.38 1513.66 1629.19 1513.66 Z" fill="#000000" fill-rule="nonzero" fill-opacity="1" /><path clip-path="url(#clip260)" d="M2258.88 1544.91 L2266.52 1544.91 L2266.52 1518.55 L2258.21 1520.21 L2258.21 1515.95 L2266.47 1514.29 L2271.15 1514.29 L2271.15 1544.91 L2278.79 1544.91 L2278.79 1548.85 L2258.88 1548.85 L2258.88 1544.91 Z" fill="#000000" fill-rule="nonzero" fill-opacity="1" /><path clip-path="url(#clip260)" d="M2288.23 1542.97 L2293.12 1542.97 L2293.12 1548.85 L2288.23 1548.85 L2288.23 1542.97 Z" fill="#000000" fill-rule="nonzero" fill-opacity="1" /><path clip-path="url(#clip260)" d="M2303.35 1514.29 L2321.71 1514.29 L2321.71 1518.22 L2307.63 1518.22 L2307.63 1526.7 Q2308.65 1526.35 2309.67 1526.19 Q2310.69 1526 2311.71 1526 Q2317.49 1526 2320.87 1529.17 Q2324.25 1532.34 2324.25 1537.76 Q2324.25 1543.34 2320.78 1546.44 Q2317.31 1549.52 2310.99 1549.52 Q2308.81 1549.52 2306.54 1549.15 Q2304.3 1548.78 2301.89 1548.04 L2301.89 1543.34 Q2303.97 1544.47 2306.2 1545.03 Q2308.42 1545.58 2310.89 1545.58 Q2314.9 1545.58 2317.24 1543.48 Q2319.58 1541.37 2319.58 1537.76 Q2319.58 1534.15 2317.24 1532.04 Q2314.9 1529.94 2310.89 1529.94 Q2309.02 1529.94 2307.15 1530.35 Q2305.29 1530.77 2303.35 1531.65 L2303.35 1514.29 Z" fill="#000000" fill-rule="nonzero" fill-opacity="1" /><polyline clip-path="url(#clip262)" style="stroke:#000000; stroke-linecap:round; stroke-linejoin:round; stroke-width:2; stroke-opacity:0.1; fill:none" points="178.867,1427 2352.76,1427 "/>
<polyline clip-path="url(#clip262)" style="stroke:#000000; stroke-linecap:round; stroke-linejoin:round; stroke-width:2; stroke-opacity:0.1; fill:none" points="178.867,968.701 2352.76,968.701 "/>
<polyline clip-path="url(#clip262)" style="stroke:#000000; stroke-linecap:round; stroke-linejoin:round; stroke-width:2; stroke-opacity:0.1; fill:none" points="178.867,510.406 2352.76,510.406 "/>
<polyline clip-path="url(#clip262)" style="stroke:#000000; stroke-linecap:round; stroke-linejoin:round; stroke-width:2; stroke-opacity:0.1; fill:none" points="178.867,52.1112 2352.76,52.1112 "/>
<polyline clip-path="url(#clip260)" style="stroke:#000000; stroke-linecap:round; stroke-linejoin:round; stroke-width:4; stroke-opacity:1; fill:none" points="178.867,1486.45 178.867,47.2441 "/>
<polyline clip-path="url(#clip260)" style="stroke:#000000; stroke-linecap:round; stroke-linejoin:round; stroke-width:4; stroke-opacity:1; fill:none" points="178.867,1427 197.764,1427 "/>
<polyline clip-path="url(#clip260)" style="stroke:#000000; stroke-linecap:round; stroke-linejoin:round; stroke-width:4; stroke-opacity:1; fill:none" points="178.867,968.701 197.764,968.701 "/>
<polyline clip-path="url(#clip260)" style="stroke:#000000; stroke-linecap:round; stroke-linejoin:round; stroke-width:4; stroke-opacity:1; fill:none" points="178.867,510.406 197.764,510.406 "/>
<polyline clip-path="url(#clip260)" style="stroke:#000000; stroke-linecap:round; stroke-linejoin:round; stroke-width:4; stroke-opacity:1; fill:none" points="178.867,52.1112 197.764,52.1112 "/>
<path clip-path="url(#clip260)" d="M50.9921 1427.45 L80.6679 1427.45 L80.6679 1431.38 L50.9921 1431.38 L50.9921 1427.45 Z" fill="#000000" fill-rule="nonzero" fill-opacity="1" /><path clip-path="url(#clip260)" d="M91.5706 1440.34 L99.2095 1440.34 L99.2095 1413.98 L90.8993 1415.64 L90.8993 1411.38 L99.1632 1409.72 L103.839 1409.72 L103.839 1440.34 L111.478 1440.34 L111.478 1444.28 L91.5706 1444.28 L91.5706 1440.34 Z" fill="#000000" fill-rule="nonzero" fill-opacity="1" /><path clip-path="url(#clip260)" d="M130.922 1412.8 Q127.311 1412.8 125.482 1416.36 Q123.677 1419.9 123.677 1427.03 Q123.677 1434.14 125.482 1437.7 Q127.311 1441.24 130.922 1441.24 Q134.556 1441.24 136.362 1437.7 Q138.191 1434.14 138.191 1427.03 Q138.191 1419.9 136.362 1416.36 Q134.556 1412.8 130.922 1412.8 M130.922 1409.09 Q136.732 1409.09 139.788 1413.7 Q142.867 1418.28 142.867 1427.03 Q142.867 1435.76 139.788 1440.36 Q136.732 1444.95 130.922 1444.95 Q125.112 1444.95 122.033 1440.36 Q118.978 1435.76 118.978 1427.03 Q118.978 1418.28 122.033 1413.7 Q125.112 1409.09 130.922 1409.09 Z" fill="#000000" fill-rule="nonzero" fill-opacity="1" /><path clip-path="url(#clip260)" d="M130.922 954.5 Q127.311 954.5 125.482 958.065 Q123.677 961.607 123.677 968.736 Q123.677 975.843 125.482 979.407 Q127.311 982.949 130.922 982.949 Q134.556 982.949 136.362 979.407 Q138.191 975.843 138.191 968.736 Q138.191 961.607 136.362 958.065 Q134.556 954.5 130.922 954.5 M130.922 950.796 Q136.732 950.796 139.788 955.403 Q142.867 959.986 142.867 968.736 Q142.867 977.463 139.788 982.069 Q136.732 986.653 130.922 986.653 Q125.112 986.653 122.033 982.069 Q118.978 977.463 118.978 968.736 Q118.978 959.986 122.033 955.403 Q125.112 950.796 130.922 950.796 Z" fill="#000000" fill-rule="nonzero" fill-opacity="1" /><path clip-path="url(#clip260)" d="M91.5706 523.751 L99.2095 523.751 L99.2095 497.386 L90.8993 499.052 L90.8993 494.793 L99.1632 493.126 L103.839 493.126 L103.839 523.751 L111.478 523.751 L111.478 527.686 L91.5706 527.686 L91.5706 523.751 Z" fill="#000000" fill-rule="nonzero" fill-opacity="1" /><path clip-path="url(#clip260)" d="M130.922 496.205 Q127.311 496.205 125.482 499.77 Q123.677 503.311 123.677 510.441 Q123.677 517.548 125.482 521.112 Q127.311 524.654 130.922 524.654 Q134.556 524.654 136.362 521.112 Q138.191 517.548 138.191 510.441 Q138.191 503.311 136.362 499.77 Q134.556 496.205 130.922 496.205 M130.922 492.501 Q136.732 492.501 139.788 497.108 Q142.867 501.691 142.867 510.441 Q142.867 519.168 139.788 523.774 Q136.732 528.358 130.922 528.358 Q125.112 528.358 122.033 523.774 Q118.978 519.168 118.978 510.441 Q118.978 501.691 122.033 497.108 Q125.112 492.501 130.922 492.501 Z" fill="#000000" fill-rule="nonzero" fill-opacity="1" /><path clip-path="url(#clip260)" d="M94.7882 65.4561 L111.108 65.4561 L111.108 69.3912 L89.1632 69.3912 L89.1632 65.4561 Q91.8252 62.7015 96.4085 58.0719 Q101.015 53.4191 102.196 52.0765 Q104.441 49.5534 105.321 47.8173 Q106.223 46.058 106.223 44.3682 Q106.223 41.6136 104.279 39.8775 Q102.358 38.1414 99.2558 38.1414 Q97.0567 38.1414 94.603 38.9053 Q92.1725 39.6692 89.3947 41.2201 L89.3947 36.4979 Q92.2188 35.3636 94.6724 34.7849 Q97.1261 34.2062 99.1632 34.2062 Q104.534 34.2062 107.728 36.8914 Q110.922 39.5766 110.922 44.0673 Q110.922 46.1969 110.112 48.1182 Q109.325 50.0163 107.219 52.6089 Q106.64 53.2802 103.538 56.4978 Q100.436 59.6922 94.7882 65.4561 Z" fill="#000000" fill-rule="nonzero" fill-opacity="1" /><path clip-path="url(#clip260)" d="M130.922 37.9099 Q127.311 37.9099 125.482 41.4747 Q123.677 45.0164 123.677 52.146 Q123.677 59.2524 125.482 62.8172 Q127.311 66.3588 130.922 66.3588 Q134.556 66.3588 136.362 62.8172 Q138.191 59.2524 138.191 52.146 Q138.191 45.0164 136.362 41.4747 Q134.556 37.9099 130.922 37.9099 M130.922 34.2062 Q136.732 34.2062 139.788 38.8127 Q142.867 43.396 142.867 52.146 Q142.867 60.8728 139.788 65.4792 Q136.732 70.0625 130.922 70.0625 Q125.112 70.0625 122.033 65.4792 Q118.978 60.8728 118.978 52.146 Q118.978 43.396 122.033 38.8127 Q125.112 34.2062 130.922 34.2062 Z" fill="#000000" fill-rule="nonzero" fill-opacity="1" /><polyline clip-path="url(#clip262)" style="stroke:#009af9; stroke-linecap:round; stroke-linejoin:round; stroke-width:4; stroke-opacity:1; fill:none" points="240.392,896.118 247.251,920.241 254.11,944.536 260.969,968.428 267.828,991.328 274.687,1013.28 281.546,1034.87 288.405,1055.29 295.264,1075.01 302.123,1094.68 308.982,1114.11 315.841,1133.2 322.7,1151.59 329.559,1169.36 336.418,1186.81 343.277,1203.78 350.136,1220 356.995,1235.53 363.854,1250.65 370.713,1265.18 377.572,1279.05 384.431,1292.24 391.29,1304.73 398.149,1316.62 405.008,1328.01 411.867,1338.86 418.726,1349.15 425.585,1358.9 432.444,1368.12 439.303,1376.81 446.162,1385 453.021,1392.65 459.88,1399.75 466.739,1406.33 473.598,1412.37 480.457,1417.88 487.316,1422.85 494.175,1427.34 501.034,1431.33 507.893,1434.83 514.752,1437.82 521.611,1440.34 528.47,1442.39 535.328,1443.95 542.188,1445.03 549.046,1445.61 555.905,1445.72 562.764,1445.44 569.623,1444.79 576.482,1443.78 583.341,1442.45 590.2,1440.85 597.059,1439.07 603.918,1437.05 610.777,1434.56 617.636,1431.54 624.495,1428.01 631.354,1424.02 638.213,1419.55 645.072,1414.6 651.931,1409.08 658.79,1403.02 665.649,1396.53 672.508,1389.66 679.367,1382.44 686.226,1374.95 693.085,1367.16 699.944,1359.07 706.803,1350.76 713.662,1342.23 720.521,1333.44 727.38,1324.39 734.239,1315.07 741.098,1305.5 747.957,1295.82 754.816,1286.03 761.675,1276.07 768.534,1265.95 775.393,1255.79 782.252,1245.62 789.111,1235.38 795.97,1225.04 802.829,1214.65 809.688,1204.33 816.547,1194.1 823.406,1183.98 830.265,1173.97 837.124,1164.02 843.983,1154.05 850.842,1144.13 857.701,1134.31 864.56,1124.51 871.419,1114.79 878.278,1105.14 885.137,1095.58 891.996,1086.23 898.855,1077.02 905.714,1067.89 912.573,1058.84 919.432,1049.85 926.291,1040.96 933.15,1032.2 940.009,1023.58 946.868,1015.11 953.727,1006.74 960.586,998.437 967.445,990.383 974.304,982.581 981.163,974.904 988.022,967.312 994.881,959.744 1001.74,952.22 1008.6,944.773 1015.46,937.393 1022.32,930.14 1029.18,923.037 1036.04,916.045 1042.89,909.136 1049.75,902.301 1056.61,895.614 1063.47,889.071 1070.33,882.613 1077.19,876.216 1084.05,869.944 1090.91,863.806 1097.77,857.733 1104.62,851.682 1111.48,845.608 1118.34,839.587 1125.2,833.712 1132.06,827.92 1138.92,822.118 1145.78,816.319 1152.64,810.523 1159.5,804.743 1166.36,799.021 1173.21,793.359 1180.07,787.731 1186.93,782.133 1193.79,776.571 1200.65,771.036 1207.51,765.546 1214.37,760.056 1221.23,754.572 1228.09,749.128 1234.95,743.794 1241.8,738.623 1248.66,733.544 1255.52,728.626 1262.38,723.87 1269.24,719.29 1276.1,714.877 1282.96,710.536 1289.82,706.275 1296.68,702.129 1303.54,698.097 1310.39,694.244 1317.25,690.556 1324.11,686.957 1330.97,683.432 1337.83,680.023 1344.69,676.744 1351.55,673.537 1358.41,670.459 1365.27,667.569 1372.13,664.955 1378.98,662.643 1385.84,660.538 1392.7,658.562 1399.56,656.688 1406.42,655.012 1413.28,653.576 1420.14,652.374 1427,651.382 1433.86,650.544 1440.72,649.924 1447.57,649.537 1454.43,649.389 1461.29,649.466 1468.15,649.734 1475.01,650.286 1481.87,651.119 1488.73,652.184 1495.59,653.441 1502.45,654.859 1509.31,656.482 1516.16,658.375 1523.02,660.527 1529.88,662.871 1536.74,665.393 1543.6,668.1 1550.46,670.911 1557.32,673.864 1564.18,677.074 1571.04,680.546 1577.9,684.21 1584.75,688.062 1591.61,692.055 1598.47,696.168 1605.33,700.368 1612.19,704.579 1619.05,708.848 1625.91,713.254 1632.77,717.81 1639.63,722.518 1646.49,727.323 1653.34,732.153 1660.2,737.038 1667.06,742.029 1673.92,747.102 1680.78,752.265 1687.64,757.411 1694.5,762.488 1701.36,767.585 1708.22,772.748 1715.08,777.97 1721.93,783.307 1728.79,788.708 1735.65,794.144 1742.51,799.604 1749.37,805.006 1756.23,810.391 1763.09,815.821 1769.95,821.2 1776.81,826.504 1783.67,831.797 1790.52,837.07 1797.38,842.294 1804.24,847.485 1811.1,852.639 1817.96,857.753 1824.82,862.821 1831.68,867.866 1838.54,872.817 1845.4,877.585 1852.26,882.204 1859.11,886.708 1865.97,891.131 1872.83,895.467 1879.69,899.74 1886.55,903.932 1893.41,908.026 1900.27,912.008 1907.13,915.887 1913.99,919.722 1920.85,923.516 1927.7,927.242 1934.56,930.899 1941.42,934.504 1948.28,938.071 1955.14,941.549 1962,944.847 1968.86,947.984 1975.72,950.956 1982.58,953.745 1989.44,956.374 1996.29,958.861 2003.15,961.234 2010.01,963.493 2016.87,965.64 2023.73,967.689 2030.59,969.617 2037.45,971.429 2044.31,973.165 2051.17,974.843 2058.02,976.464 2064.88,978.027 2071.74,979.531 2078.6,980.963 2085.46,982.321 2092.32,983.616 2099.18,984.873 2106.04,986.105 2112.9,987.308 2119.76,988.441 2126.61,989.516 2133.47,990.572 2140.33,991.616 2147.19,992.696 2154.05,993.721 2160.91,994.674 2167.77,995.581 2174.63,996.4 2181.49,997.152 2188.35,997.752 2195.2,998.383 2202.06,999.163 2208.92,999.951 2215.78,1000.61 2222.64,1001.17 2229.5,1001.52 2236.36,1001.68 2243.22,1001.68 2250.08,1001.33 2256.94,1001 2263.79,1000.75 2270.65,999.841 2277.51,997.984 2284.37,996.472 2291.23,996.096 "/>
<polyline clip-path="url(#clip262)" style="stroke:#e26f46; stroke-linecap:round; stroke-linejoin:round; stroke-width:4; stroke-opacity:1; fill:none" points="240.392,87.9763 247.251,112.26 254.11,137.061 260.969,162.26 267.828,187.952 274.687,214.25 281.546,240.265 288.405,266.028 295.264,291.56 302.123,316.337 308.982,340.197 315.841,363.209 322.7,385.837 329.559,408.125 336.418,429.7 343.277,450.573 350.136,470.913 356.995,490.804 363.854,510.205 370.713,529.046 377.572,547.441 384.431,565.35 391.29,582.725 398.149,599.573 405.008,615.967 411.867,631.952 418.726,647.586 425.585,662.902 432.444,677.9 439.303,692.562 446.162,706.916 453.021,720.995 459.88,734.804 466.739,748.372 473.598,761.719 480.457,774.848 487.316,787.79 494.175,800.585 501.034,813.254 507.893,825.777 514.752,838.149 521.611,850.387 528.47,862.501 535.328,874.531 542.188,886.503 549.046,898.434 555.905,910.327 562.764,922.146 569.623,933.916 576.482,945.658 583.341,957.39 590.2,969.131 597.059,980.829 603.918,992.438 610.777,1003.93 617.636,1015.3 624.495,1026.49 631.354,1037.52 638.213,1048.38 645.072,1059.03 651.931,1069.51 658.79,1079.9 665.649,1090.15 672.508,1100.29 679.367,1110.3 686.226,1120.11 693.085,1129.64 699.944,1138.94 706.803,1148.09 713.662,1157.04 720.521,1165.77 727.38,1174.35 734.239,1182.78 741.098,1191.06 747.957,1199.23 754.816,1207.34 761.675,1215.38 768.534,1223.36 775.393,1231.22 782.252,1238.9 789.111,1246.33 795.97,1253.55 802.829,1260.59 809.688,1267.55 816.547,1274.4 823.406,1281.12 830.265,1287.69 837.124,1294.06 843.983,1300.18 850.842,1306.04 857.701,1311.68 864.56,1317.07 871.419,1322.16 878.278,1326.9 885.137,1331.4 891.996,1335.68 898.855,1339.76 905.714,1343.63 912.573,1347.25 919.432,1350.53 926.291,1353.5 933.15,1356.17 940.009,1358.52 946.868,1360.53 953.727,1362.12 960.586,1363.3 967.445,1364.09 974.304,1364.5 981.163,1364.51 988.022,1364.18 994.881,1363.56 1001.74,1362.58 1008.6,1361.22 1015.46,1359.58 1022.32,1357.59 1029.18,1355.25 1036.04,1352.51 1042.89,1349.38 1049.75,1345.95 1056.61,1342.17 1063.47,1338.02 1070.33,1333.59 1077.19,1328.86 1084.05,1323.86 1090.91,1318.6 1097.77,1313.17 1104.62,1307.57 1111.48,1301.71 1118.34,1295.62 1125.2,1289.33 1132.06,1282.87 1138.92,1276.2 1145.78,1269.4 1152.64,1262.55 1159.5,1255.59 1166.36,1248.47 1173.21,1241.26 1180.07,1233.99 1186.93,1226.56 1193.79,1219.03 1200.65,1211.46 1207.51,1203.84 1214.37,1196.16 1221.23,1188.43 1228.09,1180.78 1234.95,1173.19 1241.8,1165.65 1248.66,1158.19 1255.52,1150.76 1262.38,1143.31 1269.24,1135.88 1276.1,1128.48 1282.96,1121.12 1289.82,1113.81 1296.68,1106.56 1303.54,1099.39 1310.39,1092.24 1317.25,1085.21 1324.11,1078.29 1330.97,1071.44 1337.83,1064.65 1344.69,1057.96 1351.55,1051.38 1358.41,1044.92 1365.27,1038.6 1372.13,1032.44 1378.98,1026.4 1385.84,1020.43 1392.7,1014.55 1399.56,1008.72 1406.42,1003.01 1413.28,997.456 1420.14,992.065 1427,986.728 1433.86,981.506 1440.72,976.445 1447.57,971.516 1454.43,966.67 1461.29,961.897 1468.15,957.206 1475.01,952.566 1481.87,947.985 1488.73,943.462 1495.59,938.988 1502.45,934.588 1509.31,930.318 1516.16,926.144 1523.02,922.007 1529.88,917.866 1536.74,913.753 1543.6,909.679 1550.46,905.659 1557.32,901.749 1564.18,897.93 1571.04,894.14 1577.9,890.328 1584.75,886.521 1591.61,882.723 1598.47,878.947 1605.33,875.169 1612.19,871.322 1619.05,867.413 1625.91,863.434 1632.77,859.37 1639.63,855.233 1646.49,851.064 1653.34,846.864 1660.2,842.639 1667.06,838.427 1673.92,834.246 1680.78,830.036 1687.64,825.831 1694.5,821.639 1701.36,817.44 1708.22,813.257 1715.08,809.115 1721.93,805.011 1728.79,800.974 1735.65,797.001 1742.51,793.059 1749.37,789.121 1756.23,785.264 1763.09,781.558 1769.95,777.97 1776.81,774.498 1783.67,771.153 1790.52,767.83 1797.38,764.581 1804.24,761.487 1811.1,758.462 1817.96,755.491 1824.82,752.572 1831.68,749.755 1838.54,746.992 1845.4,744.249 1852.26,741.574 1859.11,739.033 1865.97,736.627 1872.83,734.295 1879.69,732.081 1886.55,730.043 1893.41,728.153 1900.27,726.413 1907.13,724.885 1913.99,723.576 1920.85,722.458 1927.7,721.485 1934.56,720.618 1941.42,719.824 1948.28,719.041 1955.14,718.307 1962,717.666 1968.86,717.103 1975.72,716.629 1982.58,716.289 1989.44,716.063 1996.29,715.943 2003.15,715.955 2010.01,716.114 2016.87,716.389 2023.73,716.766 2030.59,717.278 2037.45,717.911 2044.31,718.661 2051.17,719.53 2058.02,720.517 2064.88,721.62 2071.74,722.831 2078.6,724.144 2085.46,725.544 2092.32,727.015 2099.18,728.563 2106.04,730.171 2112.9,731.822 2119.76,733.508 2126.61,735.212 2133.47,736.93 2140.33,738.711 2147.19,740.464 2154.05,742.199 2160.91,744.05 2167.77,746.022 2174.63,748.105 2181.49,750.122 2188.35,752.068 2195.2,753.972 2202.06,755.841 2208.92,757.9 2215.78,759.953 2222.64,761.809 2229.5,763.702 2236.36,765.56 2243.22,766.84 2250.08,767.547 2256.94,768.081 2263.79,768.94 2270.65,769.63 2277.51,771.191 2284.37,774.527 2291.23,778.871 "/>
<path clip-path="url(#clip260)" d="M2010.47 250.738 L2280.29 250.738 L2280.29 95.2176 L2010.47 95.2176  Z" fill="#ffffff" fill-rule="evenodd" fill-opacity="1"/>
<polyline clip-path="url(#clip260)" style="stroke:#000000; stroke-linecap:round; stroke-linejoin:round; stroke-width:4; stroke-opacity:1; fill:none" points="2010.47,250.738 2280.29,250.738 2280.29,95.2176 2010.47,95.2176 2010.47,250.738 "/>
<polyline clip-path="url(#clip260)" style="stroke:#009af9; stroke-linecap:round; stroke-linejoin:round; stroke-width:4; stroke-opacity:1; fill:none" points="2034.63,147.058 2179.55,147.058 "/>
<path clip-path="url(#clip260)" d="M2217.55 166.745 Q2215.75 171.375 2214.03 172.787 Q2212.32 174.199 2209.45 174.199 L2206.05 174.199 L2206.05 170.634 L2208.55 170.634 Q2210.31 170.634 2211.28 169.8 Q2212.25 168.967 2213.43 165.865 L2214.19 163.921 L2203.71 138.412 L2208.22 138.412 L2216.32 158.689 L2224.43 138.412 L2228.94 138.412 L2217.55 166.745 Z" fill="#000000" fill-rule="nonzero" fill-opacity="1" /><path clip-path="url(#clip260)" d="M2236.23 160.402 L2243.87 160.402 L2243.87 134.037 L2235.56 135.703 L2235.56 131.444 L2243.82 129.778 L2248.5 129.778 L2248.5 160.402 L2256.14 160.402 L2256.14 164.338 L2236.23 164.338 L2236.23 160.402 Z" fill="#000000" fill-rule="nonzero" fill-opacity="1" /><polyline clip-path="url(#clip260)" style="stroke:#e26f46; stroke-linecap:round; stroke-linejoin:round; stroke-width:4; stroke-opacity:1; fill:none" points="2034.63,198.898 2179.55,198.898 "/>
<path clip-path="url(#clip260)" d="M2217.55 218.585 Q2215.75 223.215 2214.03 224.627 Q2212.32 226.039 2209.45 226.039 L2206.05 226.039 L2206.05 222.474 L2208.55 222.474 Q2210.31 222.474 2211.28 221.64 Q2212.25 220.807 2213.43 217.705 L2214.19 215.761 L2203.71 190.252 L2208.22 190.252 L2216.32 210.529 L2224.43 190.252 L2228.94 190.252 L2217.55 218.585 Z" fill="#000000" fill-rule="nonzero" fill-opacity="1" /><path clip-path="url(#clip260)" d="M2239.45 212.242 L2255.77 212.242 L2255.77 216.178 L2233.82 216.178 L2233.82 212.242 Q2236.49 209.488 2241.07 204.858 Q2245.68 200.205 2246.86 198.863 Q2249.1 196.34 2249.98 194.604 Q2250.88 192.844 2250.88 191.155 Q2250.88 188.4 2248.94 186.664 Q2247.02 184.928 2243.92 184.928 Q2241.72 184.928 2239.26 185.692 Q2236.83 186.455 2234.06 188.006 L2234.06 183.284 Q2236.88 182.15 2239.33 181.571 Q2241.79 180.993 2243.82 180.993 Q2249.19 180.993 2252.39 183.678 Q2255.58 186.363 2255.58 190.854 Q2255.58 192.983 2254.77 194.905 Q2253.99 196.803 2251.88 199.395 Q2251.3 200.067 2248.2 203.284 Q2245.1 206.479 2239.45 212.242 Z" fill="#000000" fill-rule="nonzero" fill-opacity="1" /></svg>
