<?xml version="1.0" encoding="utf-8"?>
<svg xmlns="http://www.w3.org/2000/svg" xmlns:xlink="http://www.w3.org/1999/xlink" width="600" height="400" viewBox="0 0 2400 1600">
<defs>
  <clipPath id="clip100">
    <rect x="0" y="0" width="2400" height="1600"/>
  </clipPath>
</defs>
<path clip-path="url(#clip100)" d="M0 1600 L2400 1600 L2400 0 L0 0  Z" fill="#ffffff" fill-rule="evenodd" fill-opacity="1"/>
<defs>
  <clipPath id="clip101">
    <rect x="480" y="0" width="1681" height="1600"/>
  </clipPath>
</defs>
<path clip-path="url(#clip100)" d="M178.867 1486.45 L2352.76 1486.45 L2352.76 47.2441 L178.867 47.2441  Z" fill="#ffffff" fill-rule="evenodd" fill-opacity="1"/>
<defs>
  <clipPath id="clip102">
    <rect x="178" y="47" width="2175" height="1440"/>
  </clipPath>
</defs>
<polyline clip-path="url(#clip102)" style="stroke:#000000; stroke-linecap:round; stroke-linejoin:round; stroke-width:2; stroke-opacity:0.1; fill:none" points="240.392,1486.45 240.392,47.2441 "/>
<polyline clip-path="url(#clip102)" style="stroke:#000000; stroke-linecap:round; stroke-linejoin:round; stroke-width:2; stroke-opacity:0.1; fill:none" points="924.005,1486.45 924.005,47.2441 "/>
<polyline clip-path="url(#clip102)" style="stroke:#000000; stroke-linecap:round; stroke-linejoin:round; stroke-width:2; stroke-opacity:0.1; fill:none" points="1607.62,1486.45 1607.62,47.2441 "/>
<polyline clip-path="url(#clip102)" style="stroke:#000000; stroke-linecap:round; stroke-linejoin:round; stroke-width:2; stroke-opacity:0.1; fill:none" points="2291.23,1486.45 2291.23,47.2441 "/>
<polyline clip-path="url(#clip100)" style="stroke:#000000; stroke-linecap:round; stroke-linejoin:round; stroke-width:4; stroke-opacity:1; fill:none" points="178.867,1486.45 2352.76,1486.45 "/>
<polyline clip-path="url(#clip100)" style="stroke:#000000; stroke-linecap:round; stroke-linejoin:round; stroke-width:4; stroke-opacity:1; fill:none" points="240.392,1486.45 240.392,1467.55 "/>
<polyline clip-path="url(#clip100)" style="stroke:#000000; stroke-linecap:round; stroke-linejoin:round; stroke-width:4; stroke-opacity:1; fill:none" points="924.005,1486.45 924.005,1467.55 "/>
<polyline clip-path="url(#clip100)" style="stroke:#000000; stroke-linecap:round; stroke-linejoin:round; stroke-width:4; stroke-opacity:1; fill:none" points="1607.62,1486.45 1607.62,1467.55 "/>
<polyline clip-path="url(#clip100)" style="stroke:#000000; stroke-linecap:round; stroke-linejoin:round; stroke-width:4; stroke-opacity:1; fill:none" points="2291.23,1486.45 2291.23,1467.55 "/>
<path clip-path="url(#clip100)" d="M217.776 1517.37 Q214.165 1517.37 212.336 1520.93 Q210.531 1524.47 210.531 1531.6 Q210.531 1538.71 212.336 1542.27 Q214.165 1545.82 217.776 1545.82 Q221.41 1545.82 223.216 1542.27 Q225.045 1538.71 225.045 1531.6 Q225.045 1524.47 223.216 1520.93 Q221.41 1517.37 217.776 1517.37 M217.776 1513.66 Q223.586 1513.66 226.642 1518.27 Q229.721 1522.85 229.721 1531.6 Q229.721 1540.33 226.642 1544.94 Q223.586 1549.52 217.776 1549.52 Q211.966 1549.52 208.887 1544.94 Q205.832 1540.33 205.832 1531.6 Q205.832 1522.85 208.887 1518.27 Q211.966 1513.66 217.776 1513.66 Z" fill="#000000" fill-rule="nonzero" fill-opacity="1" /><path clip-path="url(#clip100)" d="M237.938 1542.97 L242.822 1542.97 L242.822 1548.85 L237.938 1548.85 L237.938 1542.97 Z" fill="#000000" fill-rule="nonzero" fill-opacity="1" /><path clip-path="url(#clip100)" d="M263.007 1517.37 Q259.396 1517.37 257.568 1520.93 Q255.762 1524.47 255.762 1531.6 Q255.762 1538.71 257.568 1542.27 Q259.396 1545.82 263.007 1545.82 Q266.642 1545.82 268.447 1542.27 Q270.276 1538.71 270.276 1531.6 Q270.276 1524.47 268.447 1520.93 Q266.642 1517.37 263.007 1517.37 M263.007 1513.66 Q268.818 1513.66 271.873 1518.27 Q274.952 1522.85 274.952 1531.6 Q274.952 1540.33 271.873 1544.94 Q268.818 1549.52 263.007 1549.52 Q257.197 1549.52 254.119 1544.94 Q251.063 1540.33 251.063 1531.6 Q251.063 1522.85 254.119 1518.27 Q257.197 1513.66 263.007 1513.66 Z" fill="#000000" fill-rule="nonzero" fill-opacity="1" /><path clip-path="url(#clip100)" d="M901.887 1517.37 Q898.276 1517.37 896.447 1520.93 Q894.642 1524.47 894.642 1531.6 Q894.642 1538.71 896.447 1542.27 Q898.276 1545.82 901.887 1545.82 Q905.521 1545.82 907.327 1542.27 Q909.155 1538.71 909.155 1531.6 Q909.155 1524.47 907.327 1520.93 Q905.521 1517.37 901.887 1517.37 M901.887 1513.66 Q907.697 1513.66 910.753 1518.27 Q913.831 1522.85 913.831 1531.6 Q913.831 1540.33 910.753 1544.94 Q907.697 1549.52 901.887 1549.52 Q896.077 1549.52 892.998 1544.94 Q889.942 1540.33 889.942 1531.6 Q889.942 1522.85 892.998 1518.27 Q896.077 1513.66 901.887 1513.66 Z" fill="#000000" fill-rule="nonzero" fill-opacity="1" /><path clip-path="url(#clip100)" d="M922.049 1542.97 L926.933 1542.97 L926.933 1548.85 L922.049 1548.85 L922.049 1542.97 Z" fill="#000000" fill-rule="nonzero" fill-opacity="1" /><path clip-path="url(#clip100)" d="M937.164 1514.29 L955.521 1514.29 L955.521 1518.22 L941.447 1518.22 L941.447 1526.7 Q942.465 1526.35 943.484 1526.19 Q944.502 1526 945.521 1526 Q951.308 1526 954.687 1529.17 Q958.067 1532.34 958.067 1537.76 Q958.067 1543.34 954.595 1546.44 Q951.123 1549.52 944.803 1549.52 Q942.627 1549.52 940.359 1549.15 Q938.114 1548.78 935.706 1548.04 L935.706 1543.34 Q937.789 1544.47 940.012 1545.03 Q942.234 1545.58 944.711 1545.58 Q948.715 1545.58 951.053 1543.48 Q953.391 1541.37 953.391 1537.76 Q953.391 1534.15 951.053 1532.04 Q948.715 1529.94 944.711 1529.94 Q942.836 1529.94 940.961 1530.35 Q939.109 1530.77 937.164 1531.65 L937.164 1514.29 Z" fill="#000000" fill-rule="nonzero" fill-opacity="1" /><path clip-path="url(#clip100)" d="M1574.77 1544.91 L1582.41 1544.91 L1582.41 1518.55 L1574.1 1520.21 L1574.1 1515.95 L1582.36 1514.29 L1587.04 1514.29 L1587.04 1544.91 L1594.68 1544.91 L1594.68 1548.85 L1574.77 1548.85 L1574.77 1544.91 Z" fill="#000000" fill-rule="nonzero" fill-opacity="1" /><path clip-path="url(#clip100)" d="M1604.12 1542.97 L1609.01 1542.97 L1609.01 1548.85 L1604.12 1548.85 L1604.12 1542.97 Z" fill="#000000" fill-rule="nonzero" fill-opacity="1" /><path clip-path="url(#clip100)" d="M1629.19 1517.37 Q1625.58 1517.37 1623.75 1520.93 Q1621.95 1524.47 1621.95 1531.6 Q1621.95 1538.71 1623.75 1542.27 Q1625.58 1545.82 1629.19 1545.82 Q1632.83 1545.82 1634.63 1542.27 Q1636.46 1538.71 1636.46 1531.6 Q1636.46 1524.47 1634.63 1520.93 Q1632.83 1517.37 1629.19 1517.37 M1629.19 1513.66 Q1635 1513.66 1638.06 1518.27 Q1641.14 1522.85 1641.14 1531.6 Q1641.14 1540.33 1638.06 1544.94 Q1635 1549.52 1629.19 1549.52 Q1623.38 1549.52 1620.3 1544.94 Q1617.25 1540.33 1617.25 1531.6 Q1617.25 1522.85 1620.3 1518.27 Q1623.38 1513.66 1629.19 1513.66 Z" fill="#000000" fill-rule="nonzero" fill-opacity="1" /><path clip-path="url(#clip100)" d="M2258.88 1544.91 L2266.52 1544.91 L2266.52 1518.55 L2258.21 1520.21 L2258.21 1515.95 L2266.47 1514.29 L2271.15 1514.29 L2271.15 1544.91 L2278.79 1544.91 L2278.79 1548.85 L2258.88 1548.85 L2258.88 1544.91 Z" fill="#000000" fill-rule="nonzero" fill-opacity="1" /><path clip-path="url(#clip100)" d="M2288.23 1542.97 L2293.12 1542.97 L2293.12 1548.85 L2288.23 1548.85 L2288.23 1542.97 Z" fill="#000000" fill-rule="nonzero" fill-opacity="1" /><path clip-path="url(#clip100)" d="M2303.35 1514.29 L2321.71 1514.29 L2321.71 1518.22 L2307.63 1518.22 L2307.63 1526.7 Q2308.65 1526.35 2309.67 1526.19 Q2310.69 1526 2311.71 1526 Q2317.49 1526 2320.87 1529.17 Q2324.25 1532.34 2324.25 1537.76 Q2324.25 1543.34 2320.78 1546.44 Q2317.31 1549.52 2310.99 1549.52 Q2308.81 1549.52 2306.54 1549.15 Q2304.3 1548.78 2301.89 1548.04 L2301.89 1543.34 Q2303.97 1544.47 2306.2 1545.03 Q2308.42 1545.58 2310.89 1545.58 Q2314.9 1545.58 2317.24 1543.48 Q2319.58 1541.37 2319.58 1537.76 Q2319.58 1534.15 2317.24 1532.04 Q2314.9 1529.94 2310.89 1529.94 Q2309.02 1529.94 2307.15 1530.35 Q2305.29 1530.77 2303.35 1531.65 L2303.35 1514.29 Z" fill="#000000" fill-rule="nonzero" fill-opacity="1" /><polyline clip-path="url(#clip102)" style="stroke:#000000; stroke-linecap:round; stroke-linejoin:round; stroke-width:2; stroke-opacity:0.1; fill:none" points="178.867,1429.83 2352.76,1429.83 "/>
<polyline clip-path="url(#clip102)" style="stroke:#000000; stroke-linecap:round; stroke-linejoin:round; stroke-width:2; stroke-opacity:0.1; fill:none" points="178.867,1194.66 2352.76,1194.66 "/>
<polyline clip-path="url(#clip102)" style="stroke:#000000; stroke-linecap:round; stroke-linejoin:round; stroke-width:2; stroke-opacity:0.1; fill:none" points="178.867,959.494 2352.76,959.494 "/>
<polyline clip-path="url(#clip102)" style="stroke:#000000; stroke-linecap:round; stroke-linejoin:round; stroke-width:2; stroke-opacity:0.1; fill:none" points="178.867,724.328 2352.76,724.328 "/>
<polyline clip-path="url(#clip102)" style="stroke:#000000; stroke-linecap:round; stroke-linejoin:round; stroke-width:2; stroke-opacity:0.1; fill:none" points="178.867,489.162 2352.76,489.162 "/>
<polyline clip-path="url(#clip102)" style="stroke:#000000; stroke-linecap:round; stroke-linejoin:round; stroke-width:2; stroke-opacity:0.1; fill:none" points="178.867,253.996 2352.76,253.996 "/>
<polyline clip-path="url(#clip100)" style="stroke:#000000; stroke-linecap:round; stroke-linejoin:round; stroke-width:4; stroke-opacity:1; fill:none" points="178.867,1486.45 178.867,47.2441 "/>
<polyline clip-path="url(#clip100)" style="stroke:#000000; stroke-linecap:round; stroke-linejoin:round; stroke-width:4; stroke-opacity:1; fill:none" points="178.867,1429.83 197.764,1429.83 "/>
<polyline clip-path="url(#clip100)" style="stroke:#000000; stroke-linecap:round; stroke-linejoin:round; stroke-width:4; stroke-opacity:1; fill:none" points="178.867,1194.66 197.764,1194.66 "/>
<polyline clip-path="url(#clip100)" style="stroke:#000000; stroke-linecap:round; stroke-linejoin:round; stroke-width:4; stroke-opacity:1; fill:none" points="178.867,959.494 197.764,959.494 "/>
<polyline clip-path="url(#clip100)" style="stroke:#000000; stroke-linecap:round; stroke-linejoin:round; stroke-width:4; stroke-opacity:1; fill:none" points="178.867,724.328 197.764,724.328 "/>
<polyline clip-path="url(#clip100)" style="stroke:#000000; stroke-linecap:round; stroke-linejoin:round; stroke-width:4; stroke-opacity:1; fill:none" points="178.867,489.162 197.764,489.162 "/>
<polyline clip-path="url(#clip100)" style="stroke:#000000; stroke-linecap:round; stroke-linejoin:round; stroke-width:4; stroke-opacity:1; fill:none" points="178.867,253.996 197.764,253.996 "/>
<path clip-path="url(#clip100)" d="M50.9921 1430.28 L80.6679 1430.28 L80.6679 1434.21 L50.9921 1434.21 L50.9921 1430.28 Z" fill="#000000" fill-rule="nonzero" fill-opacity="1" /><path clip-path="url(#clip100)" d="M91.5706 1443.17 L99.2095 1443.17 L99.2095 1416.81 L90.8993 1418.47 L90.8993 1414.21 L99.1632 1412.55 L103.839 1412.55 L103.839 1443.17 L111.478 1443.17 L111.478 1447.11 L91.5706 1447.11 L91.5706 1443.17 Z" fill="#000000" fill-rule="nonzero" fill-opacity="1" /><path clip-path="url(#clip100)" d="M130.922 1415.63 Q127.311 1415.63 125.482 1419.19 Q123.677 1422.73 123.677 1429.86 Q123.677 1436.97 125.482 1440.53 Q127.311 1444.07 130.922 1444.07 Q134.556 1444.07 136.362 1440.53 Q138.191 1436.97 138.191 1429.86 Q138.191 1422.73 136.362 1419.19 Q134.556 1415.63 130.922 1415.63 M130.922 1411.92 Q136.732 1411.92 139.788 1416.53 Q142.867 1421.11 142.867 1429.86 Q142.867 1438.59 139.788 1443.19 Q136.732 1447.78 130.922 1447.78 Q125.112 1447.78 122.033 1443.19 Q118.978 1438.59 118.978 1429.86 Q118.978 1421.11 122.033 1416.53 Q125.112 1411.92 130.922 1411.92 Z" fill="#000000" fill-rule="nonzero" fill-opacity="1" /><path clip-path="url(#clip100)" d="M82.1494 1195.11 L111.825 1195.11 L111.825 1199.05 L82.1494 1199.05 L82.1494 1195.11 Z" fill="#000000" fill-rule="nonzero" fill-opacity="1" /><path clip-path="url(#clip100)" d="M121.964 1177.38 L140.32 1177.38 L140.32 1181.32 L126.246 1181.32 L126.246 1189.79 Q127.265 1189.44 128.283 1189.28 Q129.302 1189.09 130.32 1189.09 Q136.107 1189.09 139.487 1192.26 Q142.867 1195.44 142.867 1200.85 Q142.867 1206.43 139.394 1209.53 Q135.922 1212.61 129.603 1212.61 Q127.427 1212.61 125.158 1212.24 Q122.913 1211.87 120.506 1211.13 L120.506 1206.43 Q122.589 1207.57 124.811 1208.12 Q127.033 1208.68 129.51 1208.68 Q133.515 1208.68 135.853 1206.57 Q138.191 1204.46 138.191 1200.85 Q138.191 1197.24 135.853 1195.14 Q133.515 1193.03 129.51 1193.03 Q127.635 1193.03 125.76 1193.45 Q123.908 1193.86 121.964 1194.74 L121.964 1177.38 Z" fill="#000000" fill-rule="nonzero" fill-opacity="1" /><path clip-path="url(#clip100)" d="M130.922 945.293 Q127.311 945.293 125.482 948.858 Q123.677 952.4 123.677 959.529 Q123.677 966.636 125.482 970.2 Q127.311 973.742 130.922 973.742 Q134.556 973.742 136.362 970.2 Q138.191 966.636 138.191 959.529 Q138.191 952.4 136.362 948.858 Q134.556 945.293 130.922 945.293 M130.922 941.589 Q136.732 941.589 139.788 946.196 Q142.867 950.779 142.867 959.529 Q142.867 968.256 139.788 972.862 Q136.732 977.446 130.922 977.446 Q125.112 977.446 122.033 972.862 Q118.978 968.256 118.978 959.529 Q118.978 950.779 122.033 946.196 Q125.112 941.589 130.922 941.589 Z" fill="#000000" fill-rule="nonzero" fill-opacity="1" /><path clip-path="url(#clip100)" d="M121.964 707.048 L140.32 707.048 L140.32 710.984 L126.246 710.984 L126.246 719.456 Q127.265 719.108 128.283 718.946 Q129.302 718.761 130.32 718.761 Q136.107 718.761 139.487 721.933 Q142.867 725.104 142.867 730.52 Q142.867 736.099 139.394 739.201 Q135.922 742.28 129.603 742.28 Q127.427 742.28 125.158 741.909 Q122.913 741.539 120.506 740.798 L120.506 736.099 Q122.589 737.233 124.811 737.789 Q127.033 738.344 129.51 738.344 Q133.515 738.344 135.853 736.238 Q138.191 734.132 138.191 730.52 Q138.191 726.909 135.853 724.803 Q133.515 722.696 129.51 722.696 Q127.635 722.696 125.76 723.113 Q123.908 723.53 121.964 724.409 L121.964 707.048 Z" fill="#000000" fill-rule="nonzero" fill-opacity="1" /><path clip-path="url(#clip100)" d="M91.5706 502.507 L99.2095 502.507 L99.2095 476.142 L90.8993 477.808 L90.8993 473.549 L99.1632 471.882 L103.839 471.882 L103.839 502.507 L111.478 502.507 L111.478 506.442 L91.5706 506.442 L91.5706 502.507 Z" fill="#000000" fill-rule="nonzero" fill-opacity="1" /><path clip-path="url(#clip100)" d="M130.922 474.961 Q127.311 474.961 125.482 478.526 Q123.677 482.067 123.677 489.197 Q123.677 496.303 125.482 499.868 Q127.311 503.41 130.922 503.41 Q134.556 503.41 136.362 499.868 Q138.191 496.303 138.191 489.197 Q138.191 482.067 136.362 478.526 Q134.556 474.961 130.922 474.961 M130.922 471.257 Q136.732 471.257 139.788 475.864 Q142.867 480.447 142.867 489.197 Q142.867 497.924 139.788 502.53 Q136.732 507.114 130.922 507.114 Q125.112 507.114 122.033 502.53 Q118.978 497.924 118.978 489.197 Q118.978 480.447 122.033 475.864 Q125.112 471.257 130.922 471.257 Z" fill="#000000" fill-rule="nonzero" fill-opacity="1" /><path clip-path="url(#clip100)" d="M92.566 267.341 L100.205 267.341 L100.205 240.975 L91.8947 242.642 L91.8947 238.383 L100.159 236.716 L104.834 236.716 L104.834 267.341 L112.473 267.341 L112.473 271.276 L92.566 271.276 L92.566 267.341 Z" fill="#000000" fill-rule="nonzero" fill-opacity="1" /><path clip-path="url(#clip100)" d="M121.964 236.716 L140.32 236.716 L140.32 240.651 L126.246 240.651 L126.246 249.124 Q127.265 248.776 128.283 248.614 Q129.302 248.429 130.32 248.429 Q136.107 248.429 139.487 251.6 Q142.867 254.772 142.867 260.188 Q142.867 265.767 139.394 268.869 Q135.922 271.948 129.603 271.948 Q127.427 271.948 125.158 271.577 Q122.913 271.207 120.506 270.466 L120.506 265.767 Q122.589 266.901 124.811 267.457 Q127.033 268.012 129.51 268.012 Q133.515 268.012 135.853 265.906 Q138.191 263.799 138.191 260.188 Q138.191 256.577 135.853 254.471 Q133.515 252.364 129.51 252.364 Q127.635 252.364 125.76 252.781 Q123.908 253.198 121.964 254.077 L121.964 236.716 Z" fill="#000000" fill-rule="nonzero" fill-opacity="1" /><polyline clip-path="url(#clip102)" style="stroke:#009af9; stroke-linecap:round; stroke-linejoin:round; stroke-width:4; stroke-opacity:1; fill:none" points="240.392,921.152 247.251,942.065 254.11,963.317 260.969,984.681 267.828,1005.68 274.687,1026.72 281.546,1047.6 288.405,1067.85 295.264,1087.44 302.123,1106.16 308.982,1124.34 315.841,1141.83 322.7,1158.75 329.559,1175.25 336.418,1191.15 343.277,1206.33 350.136,1221.01 356.995,1235.37 363.854,1249.43 370.713,1263.09 377.572,1276.46 384.431,1289.38 391.29,1301.77 398.149,1313.66 405.008,1325.09 411.867,1336.05 418.726,1346.56 425.585,1356.59 432.444,1366.12 439.303,1375.17 446.162,1383.71 453.021,1391.7 459.88,1399.15 466.739,1406.02 473.598,1412.31 480.457,1418.04 487.316,1423.2 494.175,1427.82 501.034,1431.89 507.893,1435.44 514.752,1438.41 521.611,1440.81 528.47,1442.7 535.328,1444.13 542.188,1445.1 549.046,1445.62 555.905,1445.72 562.764,1445.36 569.623,1444.55 576.482,1443.36 583.341,1441.83 590.2,1440.06 597.059,1438.12 603.918,1435.91 610.777,1433.25 617.636,1430.13 624.495,1426.51 631.354,1422.4 638.213,1417.76 645.072,1412.6 651.931,1407.01 658.79,1401.03 665.649,1394.67 672.508,1387.88 679.367,1380.72 686.226,1373.24 693.085,1365.38 699.944,1357.13 706.803,1348.55 713.662,1339.68 720.521,1330.58 727.38,1321.3 734.239,1311.81 741.098,1302.13 747.957,1292.25 754.816,1282.26 761.675,1272.09 768.534,1261.76 775.393,1251.36 782.252,1240.97 789.111,1230.59 795.97,1220.23 802.829,1209.93 809.688,1199.63 816.547,1189.35 823.406,1179.02 830.265,1168.66 837.124,1158.37 843.983,1148.1 850.842,1137.88 857.701,1127.79 864.56,1117.83 871.419,1108.05 878.278,1098.44 885.137,1088.99 891.996,1079.68 898.855,1070.41 905.714,1061.17 912.573,1052.06 919.432,1043.05 926.291,1034.12 933.15,1025.36 940.009,1016.67 946.868,1008.12 953.727,999.712 960.586,991.367 967.445,983.102 974.304,974.919 981.163,966.846 988.022,958.891 994.881,951.092 1001.74,943.484 1008.6,936.017 1015.46,928.693 1022.32,921.485 1029.18,914.355 1036.04,907.278 1042.89,900.245 1049.75,893.299 1056.61,886.462 1063.47,879.648 1070.33,872.84 1077.19,866.099 1084.05,859.444 1090.91,852.861 1097.77,846.386 1104.62,839.987 1111.48,833.585 1118.34,827.2 1125.2,820.771 1132.06,814.306 1138.92,807.843 1145.78,801.43 1152.64,795.01 1159.5,788.624 1166.36,782.315 1173.21,775.994 1180.07,769.775 1186.93,763.762 1193.79,757.853 1200.65,752.025 1207.51,746.279 1214.37,740.602 1221.23,734.985 1228.09,729.43 1234.95,723.991 1241.8,718.764 1248.66,713.62 1255.52,708.526 1262.38,703.511 1269.24,698.554 1276.1,693.702 1282.96,689.058 1289.82,684.652 1296.68,680.381 1303.54,676.209 1310.39,672.174 1317.25,668.308 1324.11,664.618 1330.97,661.054 1337.83,657.582 1344.69,654.238 1351.55,651.039 1358.41,648.005 1365.27,645.199 1372.13,642.573 1378.98,640.208 1385.84,638.135 1392.7,636.272 1399.56,634.636 1406.42,633.258 1413.28,632.153 1420.14,631.319 1427,630.737 1433.86,630.37 1440.72,630.171 1447.57,630.085 1454.43,630.173 1461.29,630.434 1468.15,630.861 1475.01,631.516 1481.87,632.478 1488.73,633.755 1495.59,635.336 1502.45,637.149 1509.31,639.177 1516.16,641.442 1523.02,643.885 1529.88,646.521 1536.74,649.327 1543.6,652.299 1550.46,655.527 1557.32,659.02 1564.18,662.775 1571.04,666.76 1577.9,670.886 1584.75,675.058 1591.61,679.268 1598.47,683.573 1605.33,687.984 1612.19,692.506 1619.05,697.106 1625.91,701.769 1632.77,706.545 1639.63,711.471 1646.49,716.498 1653.34,721.584 1660.2,726.738 1667.06,731.933 1673.92,737.117 1680.78,742.339 1687.64,747.596 1694.5,752.877 1701.36,758.265 1708.22,763.746 1715.08,769.294 1721.93,774.855 1728.79,780.387 1735.65,785.925 1742.51,791.422 1749.37,796.876 1756.23,802.343 1763.09,807.825 1769.95,813.274 1776.81,818.624 1783.67,823.9 1790.52,829.2 1797.38,834.443 1804.24,839.555 1811.1,844.583 1817.96,849.513 1824.82,854.284 1831.68,858.957 1838.54,863.548 1845.4,868.116 1852.26,872.603 1859.11,877.026 1865.97,881.374 1872.83,885.586 1879.69,889.713 1886.55,893.721 1893.41,897.661 1900.27,901.549 1907.13,905.288 1913.99,908.939 1920.85,912.529 1927.7,916.019 1934.56,919.443 1941.42,922.825 1948.28,926.126 1955.14,929.326 1962,932.394 1968.86,935.336 1975.72,938.174 1982.58,940.889 1989.44,943.513 1996.29,946.023 2003.15,948.362 2010.01,950.554 2016.87,952.656 2023.73,954.709 2030.59,956.687 2037.45,958.563 2044.31,960.341 2051.17,962.045 2058.02,963.69 2064.88,965.295 2071.74,966.867 2078.6,968.401 2085.46,969.887 2092.32,971.339 2099.18,972.775 2106.04,974.247 2112.9,975.755 2119.76,977.315 2126.61,979.043 2133.47,981.006 2140.33,983.159 2147.19,985.533 2154.05,988.2 2160.91,991.14 2167.77,994.248 2174.63,997.506 2181.49,1000.81 2188.35,1003.96 2195.2,1007.12 2202.06,1010.5 2208.92,1014.06 2215.78,1017.88 2222.64,1022.22 2229.5,1026.98 2236.36,1032.36 2243.22,1038.12 2250.08,1044.39 2256.94,1050.71 2263.79,1056.67 2270.65,1062.65 2277.51,1069.35 2284.37,1077.5 2291.23,1087.03 "/>
<polyline clip-path="url(#clip102)" style="stroke:#e26f46; stroke-linecap:round; stroke-linejoin:round; stroke-width:4; stroke-opacity:1; fill:none" points="240.392,87.9763 247.251,109.355 254.11,130.665 260.969,151.932 267.828,173.424 274.687,195.237 281.546,217.262 288.405,239.904 295.264,263.013 302.123,285.811 308.982,308.244 315.841,330.395 322.7,352.308 329.559,374.112 336.418,395.717 343.277,416.953 350.136,437.913 356.995,458.455 363.854,478.478 370.713,498.156 377.572,517.464 384.431,536.379 391.29,554.746 398.149,572.591 405.008,590.009 411.867,607.041 418.726,623.653 425.585,639.872 432.444,655.732 439.303,671.251 446.162,686.435 453.021,701.297 459.88,715.864 466.739,730.172 473.598,744.241 480.457,758.083 487.316,771.714 494.175,785.151 501.034,798.391 507.893,811.476 514.752,824.42 521.611,837.217 528.47,849.899 535.328,862.465 542.188,874.96 549.046,887.423 555.905,899.871 562.764,912.266 569.623,924.591 576.482,936.861 583.341,949.1 590.2,961.31 597.059,973.483 603.918,985.563 610.777,997.456 617.636,1009.21 624.495,1020.76 631.354,1032.08 638.213,1043.25 645.072,1054.35 651.931,1065.34 658.79,1076.12 665.649,1086.68 672.508,1097.05 679.367,1107.2 686.226,1117.09 693.085,1126.8 699.944,1136.45 706.803,1146.01 713.662,1155.42 720.521,1164.63 727.38,1173.63 734.239,1182.41 741.098,1190.96 747.957,1199.39 754.816,1207.64 761.675,1215.71 768.534,1223.71 775.393,1231.53 782.252,1239.18 789.111,1246.68 795.97,1253.95 802.829,1261.07 809.688,1268.15 816.547,1275.09 823.406,1281.84 830.265,1288.33 837.124,1294.56 843.983,1300.6 850.842,1306.37 857.701,1311.86 864.56,1317.11 871.419,1322.14 878.278,1326.89 885.137,1331.29 891.996,1335.41 898.855,1339.31 905.714,1342.91 912.573,1346.23 919.432,1349.25 926.291,1351.98 933.15,1354.47 940.009,1356.61 946.868,1358.33 953.727,1359.6 960.586,1360.48 967.445,1361.08 974.304,1361.36 981.163,1361.22 988.022,1360.66 994.881,1359.73 1001.74,1358.48 1008.6,1356.93 1015.46,1355.07 1022.32,1352.81 1029.18,1350.14 1036.04,1347.07 1042.89,1343.63 1049.75,1339.88 1056.61,1335.85 1063.47,1331.48 1070.33,1326.82 1077.19,1321.89 1084.05,1316.66 1090.91,1311.18 1097.77,1305.48 1104.62,1299.59 1111.48,1293.54 1118.34,1287.25 1125.2,1280.73 1132.06,1273.99 1138.92,1267.12 1145.78,1260.06 1152.64,1252.84 1159.5,1245.53 1166.36,1238.14 1173.21,1230.7 1180.07,1223.15 1186.93,1215.54 1193.79,1207.94 1200.65,1200.34 1207.51,1192.72 1214.37,1185.09 1221.23,1177.5 1228.09,1169.95 1234.95,1162.45 1241.8,1155.03 1248.66,1147.62 1255.52,1140.26 1262.38,1133.01 1269.24,1125.81 1276.1,1118.63 1282.96,1111.48 1289.82,1104.39 1296.68,1097.37 1303.54,1090.35 1310.39,1083.4 1317.25,1076.58 1324.11,1069.91 1330.97,1063.44 1337.83,1057.1 1344.69,1050.82 1351.55,1044.63 1358.41,1038.52 1365.27,1032.4 1372.13,1026.39 1378.98,1020.51 1385.84,1014.69 1392.7,1008.91 1399.56,1003.23 1406.42,997.719 1413.28,992.369 1420.14,987.161 1427,982.088 1433.86,977.124 1440.72,972.267 1447.57,967.514 1454.43,962.871 1461.29,958.318 1468.15,953.812 1475.01,949.358 1481.87,944.973 1488.73,940.589 1495.59,936.239 1502.45,931.948 1509.31,927.709 1516.16,923.526 1523.02,919.383 1529.88,915.22 1536.74,910.972 1543.6,906.658 1550.46,902.391 1557.32,898.19 1564.18,894.025 1571.04,889.897 1577.9,885.766 1584.75,881.628 1591.61,877.463 1598.47,873.198 1605.33,868.939 1612.19,864.742 1619.05,860.556 1625.91,856.396 1632.77,852.244 1639.63,848.075 1646.49,843.893 1653.34,839.643 1660.2,835.385 1667.06,831.214 1673.92,827.054 1680.78,822.868 1687.64,818.596 1694.5,814.246 1701.36,809.893 1708.22,805.572 1715.08,801.257 1721.93,796.901 1728.79,792.521 1735.65,788.178 1742.51,783.961 1749.37,779.877 1756.23,775.892 1763.09,771.948 1769.95,768.001 1776.81,764.118 1783.67,760.344 1790.52,756.662 1797.38,753.044 1804.24,749.519 1811.1,746.118 1817.96,742.819 1824.82,739.575 1831.68,736.347 1838.54,733.144 1845.4,730.047 1852.26,727.123 1859.11,724.312 1865.97,721.608 1872.83,719.092 1879.69,716.691 1886.55,714.415 1893.41,712.285 1900.27,710.339 1907.13,708.541 1913.99,706.839 1920.85,705.294 1927.7,703.916 1934.56,702.684 1941.42,701.555 1948.28,700.483 1955.14,699.439 1962,698.453 1968.86,697.58 1975.72,696.809 1982.58,696.091 1989.44,695.396 1996.29,694.779 2003.15,694.266 2010.01,693.868 2016.87,693.584 2023.73,693.437 2030.59,693.414 2037.45,693.472 2044.31,693.627 2051.17,693.868 2058.02,694.221 2064.88,694.713 2071.74,695.336 2078.6,696.078 2085.46,696.926 2092.32,697.87 2099.18,698.932 2106.04,700.071 2112.9,701.233 2119.76,702.392 2126.61,703.552 2133.47,704.709 2140.33,705.898 2147.19,707.198 2154.05,708.624 2160.91,710.219 2167.77,711.989 2174.63,713.943 2181.49,716.021 2188.35,718.117 2195.2,720.22 2202.06,722.483 2208.92,724.986 2215.78,727.555 2222.64,730.261 2229.5,733.225 2236.36,736.345 2243.22,739.484 2250.08,742.703 2256.94,745.475 2263.79,747.703 2270.65,750.012 2277.51,752.977 2284.37,756.638 2291.23,760.856 "/>
<path clip-path="url(#clip100)" d="M2010.47 250.738 L2280.29 250.738 L2280.29 95.2176 L2010.47 95.2176  Z" fill="#ffffff" fill-rule="evenodd" fill-opacity="1"/>
<polyline clip-path="url(#clip100)" style="stroke:#000000; stroke-linecap:round; stroke-linejoin:round; stroke-width:4; stroke-opacity:1; fill:none" points="2010.47,250.738 2280.29,250.738 2280.29,95.2176 2010.47,95.2176 2010.47,250.738 "/>
<polyline clip-path="url(#clip100)" style="stroke:#009af9; stroke-linecap:round; stroke-linejoin:round; stroke-width:4; stroke-opacity:1; fill:none" points="2034.63,147.058 2179.55,147.058 "/>
<path clip-path="url(#clip100)" d="M2217.55 166.745 Q2215.75 171.375 2214.03 172.787 Q2212.32 174.199 2209.45 174.199 L2206.05 174.199 L2206.05 170.634 L2208.55 170.634 Q2210.31 170.634 2211.28 169.8 Q2212.25 168.967 2213.43 165.865 L2214.19 163.921 L2203.71 138.412 L2208.22 138.412 L2216.32 158.689 L2224.43 138.412 L2228.94 138.412 L2217.55 166.745 Z" fill="#000000" fill-rule="nonzero" fill-opacity="1" /><path clip-path="url(#clip100)" d="M2236.23 160.402 L2243.87 160.402 L2243.87 134.037 L2235.56 135.703 L2235.56 131.444 L2243.82 129.778 L2248.5 129.778 L2248.5 160.402 L2256.14 160.402 L2256.14 164.338 L2236.23 164.338 L2236.23 160.402 Z" fill="#000000" fill-rule="nonzero" fill-opacity="1" /><polyline clip-path="url(#clip100)" style="stroke:#e26f46; stroke-linecap:round; stroke-linejoin:round; stroke-width:4; stroke-opacity:1; fill:none" points="2034.63,198.898 2179.55,198.898 "/>
<path clip-path="url(#clip100)" d="M2217.55 218.585 Q2215.75 223.215 2214.03 224.627 Q2212.32 226.039 2209.45 226.039 L2206.05 226.039 L2206.05 222.474 L2208.55 222.474 Q2210.31 222.474 2211.28 221.64 Q2212.25 220.807 2213.43 217.705 L2214.19 215.761 L2203.71 190.252 L2208.22 190.252 L2216.32 210.529 L2224.43 190.252 L2228.94 190.252 L2217.55 218.585 Z" fill="#000000" fill-rule="nonzero" fill-opacity="1" /><path clip-path="url(#clip100)" d="M2239.45 212.242 L2255.77 212.242 L2255.77 216.178 L2233.82 216.178 L2233.82 212.242 Q2236.49 209.488 2241.07 204.858 Q2245.68 200.205 2246.86 198.863 Q2249.1 196.34 2249.98 194.604 Q2250.88 192.844 2250.88 191.155 Q2250.88 188.4 2248.94 186.664 Q2247.02 184.928 2243.92 184.928 Q2241.72 184.928 2239.26 185.692 Q2236.83 186.455 2234.06 188.006 L2234.06 183.284 Q2236.88 182.15 2239.33 181.571 Q2241.79 180.993 2243.82 180.993 Q2249.19 180.993 2252.39 183.678 Q2255.58 186.363 2255.58 190.854 Q2255.58 192.983 2254.77 194.905 Q2253.99 196.803 2251.88 199.395 Q2251.3 200.067 2248.2 203.284 Q2245.1 206.479 2239.45 212.242 Z" fill="#000000" fill-rule="nonzero" fill-opacity="1" /></svg>
