<?xml version="1.0" encoding="utf-8"?>
<svg xmlns="http://www.w3.org/2000/svg" xmlns:xlink="http://www.w3.org/1999/xlink" width="600" height="400" viewBox="0 0 2400 1600">
<defs>
  <clipPath id="clip350">
    <rect x="0" y="0" width="2400" height="1600"/>
  </clipPath>
</defs>
<path clip-path="url(#clip350)" d="M0 1600 L2400 1600 L2400 0 L0 0  Z" fill="#ffffff" fill-rule="evenodd" fill-opacity="1"/>
<defs>
  <clipPath id="clip351">
    <rect x="480" y="0" width="1681" height="1600"/>
  </clipPath>
</defs>
<path clip-path="url(#clip350)" d="M257.204 1423.18 L2352.76 1423.18 L2352.76 47.2441 L257.204 47.2441  Z" fill="#ffffff" fill-rule="evenodd" fill-opacity="1"/>
<defs>
  <clipPath id="clip352">
    <rect x="257" y="47" width="2097" height="1377"/>
  </clipPath>
</defs>
<polyline clip-path="url(#clip352)" style="stroke:#000000; stroke-linecap:round; stroke-linejoin:round; stroke-width:2; stroke-opacity:0.1; fill:none" points="316.511,1423.18 316.511,47.2441 "/>
<polyline clip-path="url(#clip352)" style="stroke:#000000; stroke-linecap:round; stroke-linejoin:round; stroke-width:2; stroke-opacity:0.1; fill:none" points="810.745,1423.18 810.745,47.2441 "/>
<polyline clip-path="url(#clip352)" style="stroke:#000000; stroke-linecap:round; stroke-linejoin:round; stroke-width:2; stroke-opacity:0.1; fill:none" points="1304.98,1423.18 1304.98,47.2441 "/>
<polyline clip-path="url(#clip352)" style="stroke:#000000; stroke-linecap:round; stroke-linejoin:round; stroke-width:2; stroke-opacity:0.1; fill:none" points="1799.21,1423.18 1799.21,47.2441 "/>
<polyline clip-path="url(#clip352)" style="stroke:#000000; stroke-linecap:round; stroke-linejoin:round; stroke-width:2; stroke-opacity:0.1; fill:none" points="2293.45,1423.18 2293.45,47.2441 "/>
<polyline clip-path="url(#clip352)" style="stroke:#000000; stroke-linecap:round; stroke-linejoin:round; stroke-width:2; stroke-opacity:0.1; fill:none" points="257.204,1384.24 2352.76,1384.24 "/>
<polyline clip-path="url(#clip352)" style="stroke:#000000; stroke-linecap:round; stroke-linejoin:round; stroke-width:2; stroke-opacity:0.1; fill:none" points="257.204,1060.22 2352.76,1060.22 "/>
<polyline clip-path="url(#clip352)" style="stroke:#000000; stroke-linecap:round; stroke-linejoin:round; stroke-width:2; stroke-opacity:0.1; fill:none" points="257.204,736.193 2352.76,736.193 "/>
<polyline clip-path="url(#clip352)" style="stroke:#000000; stroke-linecap:round; stroke-linejoin:round; stroke-width:2; stroke-opacity:0.1; fill:none" points="257.204,412.169 2352.76,412.169 "/>
<polyline clip-path="url(#clip352)" style="stroke:#000000; stroke-linecap:round; stroke-linejoin:round; stroke-width:2; stroke-opacity:0.1; fill:none" points="257.204,88.1448 2352.76,88.1448 "/>
<polyline clip-path="url(#clip350)" style="stroke:#000000; stroke-linecap:round; stroke-linejoin:round; stroke-width:4; stroke-opacity:1; fill:none" points="257.204,1423.18 2352.76,1423.18 "/>
<polyline clip-path="url(#clip350)" style="stroke:#000000; stroke-linecap:round; stroke-linejoin:round; stroke-width:4; stroke-opacity:1; fill:none" points="316.511,1423.18 316.511,1404.28 "/>
<polyline clip-path="url(#clip350)" style="stroke:#000000; stroke-linecap:round; stroke-linejoin:round; stroke-width:4; stroke-opacity:1; fill:none" points="810.745,1423.18 810.745,1404.28 "/>
<polyline clip-path="url(#clip350)" style="stroke:#000000; stroke-linecap:round; stroke-linejoin:round; stroke-width:4; stroke-opacity:1; fill:none" points="1304.98,1423.18 1304.98,1404.28 "/>
<polyline clip-path="url(#clip350)" style="stroke:#000000; stroke-linecap:round; stroke-linejoin:round; stroke-width:4; stroke-opacity:1; fill:none" points="1799.21,1423.18 1799.21,1404.28 "/>
<polyline clip-path="url(#clip350)" style="stroke:#000000; stroke-linecap:round; stroke-linejoin:round; stroke-width:4; stroke-opacity:1; fill:none" points="2293.45,1423.18 2293.45,1404.28 "/>
<path clip-path="url(#clip350)" d="M263.039 1468.75 L292.715 1468.75 L292.715 1472.69 L263.039 1472.69 L263.039 1468.75 Z" fill="#000000" fill-rule="nonzero" fill-opacity="1" /><path clip-path="url(#clip350)" d="M303.617 1481.64 L311.256 1481.64 L311.256 1455.28 L302.946 1456.95 L302.946 1452.69 L311.21 1451.02 L315.886 1451.02 L315.886 1481.64 L323.525 1481.64 L323.525 1485.58 L303.617 1485.58 L303.617 1481.64 Z" fill="#000000" fill-rule="nonzero" fill-opacity="1" /><path clip-path="url(#clip350)" d="M332.969 1479.7 L337.853 1479.7 L337.853 1485.58 L332.969 1485.58 L332.969 1479.7 Z" fill="#000000" fill-rule="nonzero" fill-opacity="1" /><path clip-path="url(#clip350)" d="M358.038 1454.1 Q354.427 1454.1 352.599 1457.66 Q350.793 1461.2 350.793 1468.33 Q350.793 1475.44 352.599 1479.01 Q354.427 1482.55 358.038 1482.55 Q361.673 1482.55 363.478 1479.01 Q365.307 1475.44 365.307 1468.33 Q365.307 1461.2 363.478 1457.66 Q361.673 1454.1 358.038 1454.1 M358.038 1450.39 Q363.849 1450.39 366.904 1455 Q369.983 1459.58 369.983 1468.33 Q369.983 1477.06 366.904 1481.67 Q363.849 1486.25 358.038 1486.25 Q352.228 1486.25 349.15 1481.67 Q346.094 1477.06 346.094 1468.33 Q346.094 1459.58 349.15 1455 Q352.228 1450.39 358.038 1450.39 Z" fill="#000000" fill-rule="nonzero" fill-opacity="1" /><path clip-path="url(#clip350)" d="M757.771 1468.75 L787.447 1468.75 L787.447 1472.69 L757.771 1472.69 L757.771 1468.75 Z" fill="#000000" fill-rule="nonzero" fill-opacity="1" /><path clip-path="url(#clip350)" d="M807.539 1454.1 Q803.928 1454.1 802.1 1457.66 Q800.294 1461.2 800.294 1468.33 Q800.294 1475.44 802.1 1479.01 Q803.928 1482.55 807.539 1482.55 Q811.174 1482.55 812.979 1479.01 Q814.808 1475.44 814.808 1468.33 Q814.808 1461.2 812.979 1457.66 Q811.174 1454.1 807.539 1454.1 M807.539 1450.39 Q813.35 1450.39 816.405 1455 Q819.484 1459.58 819.484 1468.33 Q819.484 1477.06 816.405 1481.67 Q813.35 1486.25 807.539 1486.25 Q801.729 1486.25 798.651 1481.67 Q795.595 1477.06 795.595 1468.33 Q795.595 1459.58 798.651 1455 Q801.729 1450.39 807.539 1450.39 Z" fill="#000000" fill-rule="nonzero" fill-opacity="1" /><path clip-path="url(#clip350)" d="M827.701 1479.7 L832.586 1479.7 L832.586 1485.58 L827.701 1485.58 L827.701 1479.7 Z" fill="#000000" fill-rule="nonzero" fill-opacity="1" /><path clip-path="url(#clip350)" d="M842.817 1451.02 L861.173 1451.02 L861.173 1454.96 L847.099 1454.96 L847.099 1463.43 Q848.118 1463.08 849.136 1462.92 Q850.155 1462.73 851.173 1462.73 Q856.96 1462.73 860.34 1465.9 Q863.72 1469.08 863.72 1474.49 Q863.72 1480.07 860.247 1483.17 Q856.775 1486.25 850.456 1486.25 Q848.28 1486.25 846.011 1485.88 Q843.766 1485.51 841.359 1484.77 L841.359 1480.07 Q843.442 1481.2 845.664 1481.76 Q847.886 1482.32 850.363 1482.32 Q854.368 1482.32 856.706 1480.21 Q859.044 1478.1 859.044 1474.49 Q859.044 1470.88 856.706 1468.77 Q854.368 1466.67 850.363 1466.67 Q848.488 1466.67 846.613 1467.08 Q844.761 1467.5 842.817 1468.38 L842.817 1451.02 Z" fill="#000000" fill-rule="nonzero" fill-opacity="1" /><path clip-path="url(#clip350)" d="M1282.36 1454.1 Q1278.75 1454.1 1276.92 1457.66 Q1275.12 1461.2 1275.12 1468.33 Q1275.12 1475.44 1276.92 1479.01 Q1278.75 1482.55 1282.36 1482.55 Q1286 1482.55 1287.8 1479.01 Q1289.63 1475.44 1289.63 1468.33 Q1289.63 1461.2 1287.8 1457.66 Q1286 1454.1 1282.36 1454.1 M1282.36 1450.39 Q1288.17 1450.39 1291.23 1455 Q1294.31 1459.58 1294.31 1468.33 Q1294.31 1477.06 1291.23 1481.67 Q1288.17 1486.25 1282.36 1486.25 Q1276.55 1486.25 1273.48 1481.67 Q1270.42 1477.06 1270.42 1468.33 Q1270.42 1459.58 1273.48 1455 Q1276.55 1450.39 1282.36 1450.39 Z" fill="#000000" fill-rule="nonzero" fill-opacity="1" /><path clip-path="url(#clip350)" d="M1302.53 1479.7 L1307.41 1479.7 L1307.41 1485.58 L1302.53 1485.58 L1302.53 1479.7 Z" fill="#000000" fill-rule="nonzero" fill-opacity="1" /><path clip-path="url(#clip350)" d="M1327.6 1454.1 Q1323.98 1454.1 1322.16 1457.66 Q1320.35 1461.2 1320.35 1468.33 Q1320.35 1475.44 1322.16 1479.01 Q1323.98 1482.55 1327.6 1482.55 Q1331.23 1482.55 1333.04 1479.01 Q1334.86 1475.44 1334.86 1468.33 Q1334.86 1461.2 1333.04 1457.66 Q1331.23 1454.1 1327.6 1454.1 M1327.6 1450.39 Q1333.41 1450.39 1336.46 1455 Q1339.54 1459.58 1339.54 1468.33 Q1339.54 1477.06 1336.46 1481.67 Q1333.41 1486.25 1327.6 1486.25 Q1321.79 1486.25 1318.71 1481.67 Q1315.65 1477.06 1315.65 1468.33 Q1315.65 1459.58 1318.71 1455 Q1321.79 1450.39 1327.6 1450.39 Z" fill="#000000" fill-rule="nonzero" fill-opacity="1" /><path clip-path="url(#clip350)" d="M1777.1 1454.1 Q1773.49 1454.1 1771.66 1457.66 Q1769.85 1461.2 1769.85 1468.33 Q1769.85 1475.44 1771.66 1479.01 Q1773.49 1482.55 1777.1 1482.55 Q1780.73 1482.55 1782.54 1479.01 Q1784.37 1475.44 1784.37 1468.33 Q1784.37 1461.2 1782.54 1457.66 Q1780.73 1454.1 1777.1 1454.1 M1777.1 1450.39 Q1782.91 1450.39 1785.96 1455 Q1789.04 1459.58 1789.04 1468.33 Q1789.04 1477.06 1785.96 1481.67 Q1782.91 1486.25 1777.1 1486.25 Q1771.29 1486.25 1768.21 1481.67 Q1765.15 1477.06 1765.15 1468.33 Q1765.15 1459.58 1768.21 1455 Q1771.29 1450.39 1777.1 1450.39 Z" fill="#000000" fill-rule="nonzero" fill-opacity="1" /><path clip-path="url(#clip350)" d="M1797.26 1479.7 L1802.14 1479.7 L1802.14 1485.58 L1797.26 1485.58 L1797.26 1479.7 Z" fill="#000000" fill-rule="nonzero" fill-opacity="1" /><path clip-path="url(#clip350)" d="M1812.37 1451.02 L1830.73 1451.02 L1830.73 1454.96 L1816.66 1454.96 L1816.66 1463.43 Q1817.68 1463.08 1818.69 1462.92 Q1819.71 1462.73 1820.73 1462.73 Q1826.52 1462.73 1829.9 1465.9 Q1833.28 1469.08 1833.28 1474.49 Q1833.28 1480.07 1829.8 1483.17 Q1826.33 1486.25 1820.01 1486.25 Q1817.84 1486.25 1815.57 1485.88 Q1813.32 1485.51 1810.92 1484.77 L1810.92 1480.07 Q1813 1481.2 1815.22 1481.76 Q1817.44 1482.32 1819.92 1482.32 Q1823.93 1482.32 1826.26 1480.21 Q1828.6 1478.1 1828.6 1474.49 Q1828.6 1470.88 1826.26 1468.77 Q1823.93 1466.67 1819.92 1466.67 Q1818.05 1466.67 1816.17 1467.08 Q1814.32 1467.5 1812.37 1468.38 L1812.37 1451.02 Z" fill="#000000" fill-rule="nonzero" fill-opacity="1" /><path clip-path="url(#clip350)" d="M2260.6 1481.64 L2268.24 1481.64 L2268.24 1455.28 L2259.93 1456.95 L2259.93 1452.69 L2268.19 1451.02 L2272.87 1451.02 L2272.87 1481.64 L2280.51 1481.64 L2280.51 1485.58 L2260.6 1485.58 L2260.6 1481.64 Z" fill="#000000" fill-rule="nonzero" fill-opacity="1" /><path clip-path="url(#clip350)" d="M2289.95 1479.7 L2294.84 1479.7 L2294.84 1485.58 L2289.95 1485.58 L2289.95 1479.7 Z" fill="#000000" fill-rule="nonzero" fill-opacity="1" /><path clip-path="url(#clip350)" d="M2315.02 1454.1 Q2311.41 1454.1 2309.58 1457.66 Q2307.78 1461.2 2307.78 1468.33 Q2307.78 1475.44 2309.58 1479.01 Q2311.41 1482.55 2315.02 1482.55 Q2318.66 1482.55 2320.46 1479.01 Q2322.29 1475.44 2322.29 1468.33 Q2322.29 1461.2 2320.46 1457.66 Q2318.66 1454.1 2315.02 1454.1 M2315.02 1450.39 Q2320.83 1450.39 2323.89 1455 Q2326.97 1459.58 2326.97 1468.33 Q2326.97 1477.06 2323.89 1481.67 Q2320.83 1486.25 2315.02 1486.25 Q2309.21 1486.25 2306.13 1481.67 Q2303.08 1477.06 2303.08 1468.33 Q2303.08 1459.58 2306.13 1455 Q2309.21 1450.39 2315.02 1450.39 Z" fill="#000000" fill-rule="nonzero" fill-opacity="1" /><path clip-path="url(#clip350)" d="M1134.03 1525.81 L1134.03 1543.66 L1142.11 1543.66 Q1146.6 1543.66 1149.05 1541.34 Q1151.5 1539.02 1151.5 1534.72 Q1151.5 1530.45 1149.05 1528.13 Q1146.6 1525.81 1142.11 1525.81 L1134.03 1525.81 M1127.6 1520.52 L1142.11 1520.52 Q1150.1 1520.52 1154.18 1524.15 Q1158.28 1527.75 1158.28 1534.72 Q1158.28 1541.75 1154.18 1545.35 Q1150.1 1548.95 1142.11 1548.95 L1134.03 1548.95 L1134.03 1568.04 L1127.6 1568.04 L1127.6 1520.52 Z" fill="#000000" fill-rule="nonzero" fill-opacity="1" /><path clip-path="url(#clip350)" d="M1178.14 1536.5 Q1173.43 1536.5 1170.7 1540.19 Q1167.96 1543.85 1167.96 1550.25 Q1167.96 1556.65 1170.66 1560.34 Q1173.4 1564 1178.14 1564 Q1182.82 1564 1185.56 1560.31 Q1188.3 1556.62 1188.3 1550.25 Q1188.3 1543.92 1185.56 1540.23 Q1182.82 1536.5 1178.14 1536.5 M1178.14 1531.54 Q1185.78 1531.54 1190.14 1536.5 Q1194.5 1541.47 1194.5 1550.25 Q1194.5 1559 1190.14 1564 Q1185.78 1568.97 1178.14 1568.97 Q1170.47 1568.97 1166.11 1564 Q1161.78 1559 1161.78 1550.25 Q1161.78 1541.47 1166.11 1536.5 Q1170.47 1531.54 1178.14 1531.54 Z" fill="#000000" fill-rule="nonzero" fill-opacity="1" /><path clip-path="url(#clip350)" d="M1226.94 1533.45 L1226.94 1538.98 Q1224.45 1537.71 1221.78 1537.07 Q1219.11 1536.44 1216.24 1536.44 Q1211.88 1536.44 1209.69 1537.77 Q1207.52 1539.11 1207.52 1541.79 Q1207.52 1543.82 1209.08 1545 Q1210.64 1546.15 1215.35 1547.2 L1217.36 1547.64 Q1223.59 1548.98 1226.2 1551.43 Q1228.85 1553.85 1228.85 1558.21 Q1228.85 1563.17 1224.9 1566.07 Q1220.98 1568.97 1214.11 1568.97 Q1211.24 1568.97 1208.13 1568.39 Q1205.04 1567.85 1201.6 1566.74 L1201.6 1560.69 Q1204.85 1562.38 1208 1563.24 Q1211.15 1564.07 1214.24 1564.07 Q1218.37 1564.07 1220.6 1562.66 Q1222.83 1561.23 1222.83 1558.65 Q1222.83 1556.27 1221.21 1554.99 Q1219.62 1553.72 1214.17 1552.54 L1212.14 1552.07 Q1206.69 1550.92 1204.27 1548.56 Q1201.86 1546.18 1201.86 1542.04 Q1201.86 1537.01 1205.42 1534.27 Q1208.99 1531.54 1215.54 1531.54 Q1218.79 1531.54 1221.65 1532.01 Q1224.52 1532.49 1226.94 1533.45 Z" fill="#000000" fill-rule="nonzero" fill-opacity="1" /><path clip-path="url(#clip350)" d="M1238.17 1532.4 L1244.03 1532.4 L1244.03 1568.04 L1238.17 1568.04 L1238.17 1532.4 M1238.17 1518.52 L1244.03 1518.52 L1244.03 1525.93 L1238.17 1525.93 L1238.17 1518.52 Z" fill="#000000" fill-rule="nonzero" fill-opacity="1" /><path clip-path="url(#clip350)" d="M1262.08 1522.27 L1262.08 1532.4 L1274.14 1532.4 L1274.14 1536.95 L1262.08 1536.95 L1262.08 1556.3 Q1262.08 1560.66 1263.25 1561.9 Q1264.46 1563.14 1268.12 1563.14 L1274.14 1563.14 L1274.14 1568.04 L1268.12 1568.04 Q1261.34 1568.04 1258.76 1565.53 Q1256.19 1562.98 1256.19 1556.3 L1256.19 1536.95 L1251.89 1536.95 L1251.89 1532.4 L1256.19 1532.4 L1256.19 1522.27 L1262.08 1522.27 Z" fill="#000000" fill-rule="nonzero" fill-opacity="1" /><path clip-path="url(#clip350)" d="M1281.84 1532.4 L1287.7 1532.4 L1287.7 1568.04 L1281.84 1568.04 L1281.84 1532.4 M1281.84 1518.52 L1287.7 1518.52 L1287.7 1525.93 L1281.84 1525.93 L1281.84 1518.52 Z" fill="#000000" fill-rule="nonzero" fill-opacity="1" /><path clip-path="url(#clip350)" d="M1313.76 1536.5 Q1309.05 1536.5 1306.32 1540.19 Q1303.58 1543.85 1303.58 1550.25 Q1303.58 1556.65 1306.28 1560.34 Q1309.02 1564 1313.76 1564 Q1318.44 1564 1321.18 1560.31 Q1323.92 1556.62 1323.92 1550.25 Q1323.92 1543.92 1321.18 1540.23 Q1318.44 1536.5 1313.76 1536.5 M1313.76 1531.54 Q1321.4 1531.54 1325.76 1536.5 Q1330.12 1541.47 1330.12 1550.25 Q1330.12 1559 1325.76 1564 Q1321.4 1568.97 1313.76 1568.97 Q1306.09 1568.97 1301.73 1564 Q1297.4 1559 1297.4 1550.25 Q1297.4 1541.47 1301.73 1536.5 Q1306.09 1531.54 1313.76 1531.54 Z" fill="#000000" fill-rule="nonzero" fill-opacity="1" /><path clip-path="url(#clip350)" d="M1369.46 1546.53 L1369.46 1568.04 L1363.61 1568.04 L1363.61 1546.72 Q1363.61 1541.66 1361.63 1539.14 Q1359.66 1536.63 1355.71 1536.63 Q1350.97 1536.63 1348.23 1539.65 Q1345.5 1542.68 1345.5 1547.9 L1345.5 1568.04 L1339.61 1568.04 L1339.61 1532.4 L1345.5 1532.4 L1345.5 1537.93 Q1347.6 1534.72 1350.43 1533.13 Q1353.3 1531.54 1357.02 1531.54 Q1363.16 1531.54 1366.31 1535.36 Q1369.46 1539.14 1369.46 1546.53 Z" fill="#000000" fill-rule="nonzero" fill-opacity="1" /><path clip-path="url(#clip350)" d="M1415.93 1518.58 Q1411.67 1525.9 1409.6 1533.06 Q1407.53 1540.23 1407.53 1547.58 Q1407.53 1554.93 1409.6 1562.16 Q1411.7 1569.35 1415.93 1576.64 L1410.84 1576.64 Q1406.07 1569.16 1403.68 1561.93 Q1401.32 1554.71 1401.32 1547.58 Q1401.32 1540.48 1403.68 1533.29 Q1406.04 1526.09 1410.84 1518.58 L1415.93 1518.58 Z" fill="#000000" fill-rule="nonzero" fill-opacity="1" /><path clip-path="url(#clip350)" d="M1430.8 1550.25 Q1430.8 1556.71 1433.44 1560.4 Q1436.11 1564.07 1440.76 1564.07 Q1445.41 1564.07 1448.08 1560.4 Q1450.75 1556.71 1450.75 1550.25 Q1450.75 1543.79 1448.08 1540.13 Q1445.41 1536.44 1440.76 1536.44 Q1436.11 1536.44 1433.44 1540.13 Q1430.8 1543.79 1430.8 1550.25 M1450.75 1562.7 Q1448.91 1565.88 1446.08 1567.44 Q1443.27 1568.97 1439.33 1568.97 Q1432.87 1568.97 1428.79 1563.81 Q1424.75 1558.65 1424.75 1550.25 Q1424.75 1541.85 1428.79 1536.69 Q1432.87 1531.54 1439.33 1531.54 Q1443.27 1531.54 1446.08 1533.1 Q1448.91 1534.62 1450.75 1537.81 L1450.75 1532.4 L1456.61 1532.4 L1456.61 1581.6 L1450.75 1581.6 L1450.75 1562.7 Z" fill="#000000" fill-rule="nonzero" fill-opacity="1" /><path clip-path="url(#clip350)" d="M1467.75 1518.58 L1472.84 1518.58 Q1477.62 1526.09 1479.97 1533.29 Q1482.36 1540.48 1482.36 1547.58 Q1482.36 1554.71 1479.97 1561.93 Q1477.62 1569.16 1472.84 1576.64 L1467.75 1576.64 Q1471.98 1569.35 1474.05 1562.16 Q1476.15 1554.93 1476.15 1547.58 Q1476.15 1540.23 1474.05 1533.06 Q1471.98 1525.9 1467.75 1518.58 Z" fill="#000000" fill-rule="nonzero" fill-opacity="1" /><polyline clip-path="url(#clip350)" style="stroke:#000000; stroke-linecap:round; stroke-linejoin:round; stroke-width:4; stroke-opacity:1; fill:none" points="257.204,1423.18 257.204,47.2441 "/>
<polyline clip-path="url(#clip350)" style="stroke:#000000; stroke-linecap:round; stroke-linejoin:round; stroke-width:4; stroke-opacity:1; fill:none" points="257.204,1384.24 276.102,1384.24 "/>
<polyline clip-path="url(#clip350)" style="stroke:#000000; stroke-linecap:round; stroke-linejoin:round; stroke-width:4; stroke-opacity:1; fill:none" points="257.204,1060.22 276.102,1060.22 "/>
<polyline clip-path="url(#clip350)" style="stroke:#000000; stroke-linecap:round; stroke-linejoin:round; stroke-width:4; stroke-opacity:1; fill:none" points="257.204,736.193 276.102,736.193 "/>
<polyline clip-path="url(#clip350)" style="stroke:#000000; stroke-linecap:round; stroke-linejoin:round; stroke-width:4; stroke-opacity:1; fill:none" points="257.204,412.169 276.102,412.169 "/>
<polyline clip-path="url(#clip350)" style="stroke:#000000; stroke-linecap:round; stroke-linejoin:round; stroke-width:4; stroke-opacity:1; fill:none" points="257.204,88.1448 276.102,88.1448 "/>
<path clip-path="url(#clip350)" d="M114.26 1384.69 L143.936 1384.69 L143.936 1388.63 L114.26 1388.63 L114.26 1384.69 Z" fill="#000000" fill-rule="nonzero" fill-opacity="1" /><path clip-path="url(#clip350)" d="M154.839 1397.59 L162.477 1397.59 L162.477 1371.22 L154.167 1372.89 L154.167 1368.63 L162.431 1366.96 L167.107 1366.96 L167.107 1397.59 L174.746 1397.59 L174.746 1401.52 L154.839 1401.52 L154.839 1397.59 Z" fill="#000000" fill-rule="nonzero" fill-opacity="1" /><path clip-path="url(#clip350)" d="M184.19 1395.64 L189.075 1395.64 L189.075 1401.52 L184.19 1401.52 L184.19 1395.64 Z" fill="#000000" fill-rule="nonzero" fill-opacity="1" /><path clip-path="url(#clip350)" d="M209.26 1370.04 Q205.649 1370.04 203.82 1373.6 Q202.014 1377.15 202.014 1384.28 Q202.014 1391.38 203.82 1394.95 Q205.649 1398.49 209.26 1398.49 Q212.894 1398.49 214.699 1394.95 Q216.528 1391.38 216.528 1384.28 Q216.528 1377.15 214.699 1373.6 Q212.894 1370.04 209.26 1370.04 M209.26 1366.34 Q215.07 1366.34 218.125 1370.94 Q221.204 1375.53 221.204 1384.28 Q221.204 1393 218.125 1397.61 Q215.07 1402.19 209.26 1402.19 Q203.449 1402.19 200.371 1397.61 Q197.315 1393 197.315 1384.28 Q197.315 1375.53 200.371 1370.94 Q203.449 1366.34 209.26 1366.34 Z" fill="#000000" fill-rule="nonzero" fill-opacity="1" /><path clip-path="url(#clip350)" d="M115.256 1060.67 L144.931 1060.67 L144.931 1064.6 L115.256 1064.6 L115.256 1060.67 Z" fill="#000000" fill-rule="nonzero" fill-opacity="1" /><path clip-path="url(#clip350)" d="M165.024 1046.02 Q161.413 1046.02 159.584 1049.58 Q157.778 1053.12 157.778 1060.25 Q157.778 1067.36 159.584 1070.92 Q161.413 1074.46 165.024 1074.46 Q168.658 1074.46 170.464 1070.92 Q172.292 1067.36 172.292 1060.25 Q172.292 1053.12 170.464 1049.58 Q168.658 1046.02 165.024 1046.02 M165.024 1042.31 Q170.834 1042.31 173.889 1046.92 Q176.968 1051.5 176.968 1060.25 Q176.968 1068.98 173.889 1073.59 Q170.834 1078.17 165.024 1078.17 Q159.214 1078.17 156.135 1073.59 Q153.079 1068.98 153.079 1060.25 Q153.079 1051.5 156.135 1046.92 Q159.214 1042.31 165.024 1042.31 Z" fill="#000000" fill-rule="nonzero" fill-opacity="1" /><path clip-path="url(#clip350)" d="M185.186 1071.62 L190.07 1071.62 L190.07 1077.5 L185.186 1077.5 L185.186 1071.62 Z" fill="#000000" fill-rule="nonzero" fill-opacity="1" /><path clip-path="url(#clip350)" d="M200.301 1042.94 L218.658 1042.94 L218.658 1046.87 L204.584 1046.87 L204.584 1055.34 Q205.602 1055 206.621 1054.84 Q207.639 1054.65 208.658 1054.65 Q214.445 1054.65 217.824 1057.82 Q221.204 1060.99 221.204 1066.41 Q221.204 1071.99 217.732 1075.09 Q214.26 1078.17 207.94 1078.17 Q205.764 1078.17 203.496 1077.8 Q201.25 1077.43 198.843 1076.69 L198.843 1071.99 Q200.926 1073.12 203.149 1073.68 Q205.371 1074.23 207.848 1074.23 Q211.852 1074.23 214.19 1072.13 Q216.528 1070.02 216.528 1066.41 Q216.528 1062.8 214.19 1060.69 Q211.852 1058.59 207.848 1058.59 Q205.973 1058.59 204.098 1059 Q202.246 1059.42 200.301 1060.3 L200.301 1042.94 Z" fill="#000000" fill-rule="nonzero" fill-opacity="1" /><path clip-path="url(#clip350)" d="M164.028 721.992 Q160.417 721.992 158.589 725.557 Q156.783 729.098 156.783 736.228 Q156.783 743.334 158.589 746.899 Q160.417 750.441 164.028 750.441 Q167.663 750.441 169.468 746.899 Q171.297 743.334 171.297 736.228 Q171.297 729.098 169.468 725.557 Q167.663 721.992 164.028 721.992 M164.028 718.288 Q169.839 718.288 172.894 722.895 Q175.973 727.478 175.973 736.228 Q175.973 744.955 172.894 749.561 Q169.839 754.144 164.028 754.144 Q158.218 754.144 155.14 749.561 Q152.084 744.955 152.084 736.228 Q152.084 727.478 155.14 722.895 Q158.218 718.288 164.028 718.288 Z" fill="#000000" fill-rule="nonzero" fill-opacity="1" /><path clip-path="url(#clip350)" d="M184.19 747.593 L189.075 747.593 L189.075 753.473 L184.19 753.473 L184.19 747.593 Z" fill="#000000" fill-rule="nonzero" fill-opacity="1" /><path clip-path="url(#clip350)" d="M209.26 721.992 Q205.649 721.992 203.82 725.557 Q202.014 729.098 202.014 736.228 Q202.014 743.334 203.82 746.899 Q205.649 750.441 209.26 750.441 Q212.894 750.441 214.699 746.899 Q216.528 743.334 216.528 736.228 Q216.528 729.098 214.699 725.557 Q212.894 721.992 209.26 721.992 M209.26 718.288 Q215.07 718.288 218.125 722.895 Q221.204 727.478 221.204 736.228 Q221.204 744.955 218.125 749.561 Q215.07 754.144 209.26 754.144 Q203.449 754.144 200.371 749.561 Q197.315 744.955 197.315 736.228 Q197.315 727.478 200.371 722.895 Q203.449 718.288 209.26 718.288 Z" fill="#000000" fill-rule="nonzero" fill-opacity="1" /><path clip-path="url(#clip350)" d="M165.024 397.968 Q161.413 397.968 159.584 401.532 Q157.778 405.074 157.778 412.204 Q157.778 419.31 159.584 422.875 Q161.413 426.417 165.024 426.417 Q168.658 426.417 170.464 422.875 Q172.292 419.31 172.292 412.204 Q172.292 405.074 170.464 401.532 Q168.658 397.968 165.024 397.968 M165.024 394.264 Q170.834 394.264 173.889 398.87 Q176.968 403.454 176.968 412.204 Q176.968 420.93 173.889 425.537 Q170.834 430.12 165.024 430.12 Q159.214 430.12 156.135 425.537 Q153.079 420.93 153.079 412.204 Q153.079 403.454 156.135 398.87 Q159.214 394.264 165.024 394.264 Z" fill="#000000" fill-rule="nonzero" fill-opacity="1" /><path clip-path="url(#clip350)" d="M185.186 423.569 L190.07 423.569 L190.07 429.449 L185.186 429.449 L185.186 423.569 Z" fill="#000000" fill-rule="nonzero" fill-opacity="1" /><path clip-path="url(#clip350)" d="M200.301 394.889 L218.658 394.889 L218.658 398.824 L204.584 398.824 L204.584 407.296 Q205.602 406.949 206.621 406.787 Q207.639 406.602 208.658 406.602 Q214.445 406.602 217.824 409.773 Q221.204 412.944 221.204 418.361 Q221.204 423.94 217.732 427.042 Q214.26 430.12 207.94 430.12 Q205.764 430.12 203.496 429.75 Q201.25 429.379 198.843 428.639 L198.843 423.94 Q200.926 425.074 203.149 425.63 Q205.371 426.185 207.848 426.185 Q211.852 426.185 214.19 424.079 Q216.528 421.972 216.528 418.361 Q216.528 414.75 214.19 412.643 Q211.852 410.537 207.848 410.537 Q205.973 410.537 204.098 410.954 Q202.246 411.37 200.301 412.25 L200.301 394.889 Z" fill="#000000" fill-rule="nonzero" fill-opacity="1" /><path clip-path="url(#clip350)" d="M154.839 101.49 L162.477 101.49 L162.477 75.1241 L154.167 76.7907 L154.167 72.5315 L162.431 70.8648 L167.107 70.8648 L167.107 101.49 L174.746 101.49 L174.746 105.425 L154.839 105.425 L154.839 101.49 Z" fill="#000000" fill-rule="nonzero" fill-opacity="1" /><path clip-path="url(#clip350)" d="M184.19 99.5452 L189.075 99.5452 L189.075 105.425 L184.19 105.425 L184.19 99.5452 Z" fill="#000000" fill-rule="nonzero" fill-opacity="1" /><path clip-path="url(#clip350)" d="M209.26 73.9435 Q205.649 73.9435 203.82 77.5083 Q202.014 81.0499 202.014 88.1795 Q202.014 95.286 203.82 98.8508 Q205.649 102.392 209.26 102.392 Q212.894 102.392 214.699 98.8508 Q216.528 95.286 216.528 88.1795 Q216.528 81.0499 214.699 77.5083 Q212.894 73.9435 209.26 73.9435 M209.26 70.2398 Q215.07 70.2398 218.125 74.8463 Q221.204 79.4296 221.204 88.1795 Q221.204 96.9063 218.125 101.513 Q215.07 106.096 209.26 106.096 Q203.449 106.096 200.371 101.513 Q197.315 96.9063 197.315 88.1795 Q197.315 79.4296 200.371 74.8463 Q203.449 70.2398 209.26 70.2398 Z" fill="#000000" fill-rule="nonzero" fill-opacity="1" /><path clip-path="url(#clip350)" d="M16.4842 971.396 L16.4842 961.815 L48.8219 949.689 L16.4842 937.498 L16.4842 927.918 L64.0042 927.918 L64.0042 934.188 L22.277 934.188 L54.8694 946.442 L54.8694 952.903 L22.277 965.157 L64.0042 965.157 L64.0042 971.396 L16.4842 971.396 Z" fill="#000000" fill-rule="nonzero" fill-opacity="1" /><path clip-path="url(#clip350)" d="M32.4621 901.596 Q32.4621 906.306 36.1542 909.044 Q39.8145 911.781 46.212 911.781 Q52.6095 911.781 56.3017 909.075 Q59.9619 906.338 59.9619 901.596 Q59.9619 896.917 56.2698 894.18 Q52.5777 891.442 46.212 891.442 Q39.8781 891.442 36.186 894.18 Q32.4621 896.917 32.4621 901.596 M27.4968 901.596 Q27.4968 893.957 32.4621 889.596 Q37.4273 885.236 46.212 885.236 Q54.9649 885.236 59.9619 889.596 Q64.9272 893.957 64.9272 901.596 Q64.9272 909.266 59.9619 913.627 Q54.9649 917.955 46.212 917.955 Q37.4273 917.955 32.4621 913.627 Q27.4968 909.266 27.4968 901.596 Z" fill="#000000" fill-rule="nonzero" fill-opacity="1" /><path clip-path="url(#clip350)" d="M35.1993 847.774 Q31.2526 845.577 29.3747 842.522 Q27.4968 839.466 27.4968 835.329 Q27.4968 829.759 31.4117 826.735 Q35.2948 823.711 42.4881 823.711 L64.0042 823.711 L64.0042 829.599 L42.679 829.599 Q37.5546 829.599 35.072 831.414 Q32.5894 833.228 32.5894 836.952 Q32.5894 841.503 35.6131 844.145 Q38.6368 846.787 43.8567 846.787 L64.0042 846.787 L64.0042 852.675 L42.679 852.675 Q37.5228 852.675 35.072 854.489 Q32.5894 856.304 32.5894 860.091 Q32.5894 864.579 35.6449 867.221 Q38.6686 869.863 43.8567 869.863 L64.0042 869.863 L64.0042 875.751 L28.3562 875.751 L28.3562 869.863 L33.8944 869.863 Q30.616 867.857 29.0564 865.056 Q27.4968 862.256 27.4968 858.404 Q27.4968 854.521 29.4702 851.816 Q31.4436 849.079 35.1993 847.774 Z" fill="#000000" fill-rule="nonzero" fill-opacity="1" /><path clip-path="url(#clip350)" d="M44.7161 781.538 L47.5806 781.538 L47.5806 808.465 Q53.6281 808.083 56.8109 804.837 Q59.9619 801.559 59.9619 795.734 Q59.9619 792.36 59.1344 789.209 Q58.3069 786.026 56.6518 782.907 L62.1899 782.907 Q63.5267 786.058 64.227 789.368 Q64.9272 792.678 64.9272 796.084 Q64.9272 804.614 59.9619 809.611 Q54.9967 814.576 46.5303 814.576 Q37.7774 814.576 32.6531 809.866 Q27.4968 805.123 27.4968 797.103 Q27.4968 789.909 32.1438 785.74 Q36.7589 781.538 44.7161 781.538 M42.9973 787.395 Q38.1912 787.459 35.3266 790.1 Q32.4621 792.71 32.4621 797.039 Q32.4621 801.94 35.2312 804.901 Q38.0002 807.829 43.0292 808.274 L42.9973 787.395 Z" fill="#000000" fill-rule="nonzero" fill-opacity="1" /><path clip-path="url(#clip350)" d="M42.4881 742.294 L64.0042 742.294 L64.0042 748.15 L42.679 748.15 Q37.6183 748.15 35.1038 750.124 Q32.5894 752.097 32.5894 756.044 Q32.5894 760.786 35.6131 763.523 Q38.6368 766.261 43.8567 766.261 L64.0042 766.261 L64.0042 772.149 L28.3562 772.149 L28.3562 766.261 L33.8944 766.261 Q30.6797 764.16 29.0883 761.327 Q27.4968 758.463 27.4968 754.739 Q27.4968 748.596 31.3163 745.445 Q35.1038 742.294 42.4881 742.294 Z" fill="#000000" fill-rule="nonzero" fill-opacity="1" /><path clip-path="url(#clip350)" d="M18.2347 724.82 L28.3562 724.82 L28.3562 712.757 L32.9077 712.757 L32.9077 724.82 L52.2594 724.82 Q56.6199 724.82 57.8613 723.642 Q59.1026 722.433 59.1026 718.773 L59.1026 712.757 L64.0042 712.757 L64.0042 718.773 Q64.0042 725.552 61.4897 728.13 Q58.9434 730.708 52.2594 730.708 L32.9077 730.708 L32.9077 735.005 L28.3562 735.005 L28.3562 730.708 L18.2347 730.708 L18.2347 724.82 Z" fill="#000000" fill-rule="nonzero" fill-opacity="1" /><path clip-path="url(#clip350)" d="M49.9359 705.659 L28.3562 705.659 L28.3562 699.803 L49.7131 699.803 Q54.7739 699.803 57.3202 697.829 Q59.8346 695.856 59.8346 691.909 Q59.8346 687.167 56.8109 684.43 Q53.7872 681.66 48.5673 681.66 L28.3562 681.66 L28.3562 675.804 L64.0042 675.804 L64.0042 681.66 L58.5296 681.66 Q61.7762 683.793 63.3676 686.626 Q64.9272 689.427 64.9272 693.151 Q64.9272 699.293 61.1078 702.476 Q57.2883 705.659 49.9359 705.659 M27.4968 690.923 L27.4968 690.923 Z" fill="#000000" fill-rule="nonzero" fill-opacity="1" /><path clip-path="url(#clip350)" d="M35.1993 635.987 Q31.2526 633.79 29.3747 630.735 Q27.4968 627.679 27.4968 623.542 Q27.4968 617.972 31.4117 614.948 Q35.2948 611.924 42.4881 611.924 L64.0042 611.924 L64.0042 617.812 L42.679 617.812 Q37.5546 617.812 35.072 619.627 Q32.5894 621.441 32.5894 625.165 Q32.5894 629.716 35.6131 632.358 Q38.6368 635 43.8567 635 L64.0042 635 L64.0042 640.888 L42.679 640.888 Q37.5228 640.888 35.072 642.702 Q32.5894 644.517 32.5894 648.304 Q32.5894 652.792 35.6449 655.434 Q38.6686 658.076 43.8567 658.076 L64.0042 658.076 L64.0042 663.964 L28.3562 663.964 L28.3562 658.076 L33.8944 658.076 Q30.616 656.07 29.0564 653.269 Q27.4968 650.468 27.4968 646.617 Q27.4968 642.734 29.4702 640.029 Q31.4436 637.291 35.1993 635.987 Z" fill="#000000" fill-rule="nonzero" fill-opacity="1" /><path clip-path="url(#clip350)" d="M14.5426 565.454 Q21.8632 569.72 29.0246 571.788 Q36.186 573.857 43.5384 573.857 Q50.8908 573.857 58.1159 571.788 Q65.3091 569.688 72.5979 565.454 L72.5979 570.547 Q65.1182 575.321 57.8931 577.708 Q50.668 580.064 43.5384 580.064 Q36.4406 580.064 29.2474 577.708 Q22.0542 575.353 14.5426 570.547 L14.5426 565.454 Z" fill="#000000" fill-rule="nonzero" fill-opacity="1" /><path clip-path="url(#clip350)" d="M58.657 548.426 L77.5631 548.426 L77.5631 554.315 L28.3562 554.315 L28.3562 548.426 L33.7671 548.426 Q30.5842 546.58 29.0564 543.779 Q27.4968 540.947 27.4968 537.032 Q27.4968 530.539 32.6531 526.496 Q37.8093 522.422 46.212 522.422 Q54.6147 522.422 59.771 526.496 Q64.9272 530.539 64.9272 537.032 Q64.9272 540.947 63.3994 543.779 Q61.8398 546.58 58.657 548.426 M46.212 528.502 Q39.7508 528.502 36.0905 531.175 Q32.3984 533.817 32.3984 538.464 Q32.3984 543.111 36.0905 545.784 Q39.7508 548.426 46.212 548.426 Q52.6732 548.426 56.3653 545.784 Q60.0256 543.111 60.0256 538.464 Q60.0256 533.817 56.3653 531.175 Q52.6732 528.502 46.212 528.502 Z" fill="#000000" fill-rule="nonzero" fill-opacity="1" /><path clip-path="url(#clip350)" d="M14.5426 513.638 L14.5426 508.545 Q22.0542 503.771 29.2474 501.415 Q36.4406 499.028 43.5384 499.028 Q50.668 499.028 57.8931 501.415 Q65.1182 503.771 72.5979 508.545 L72.5979 513.638 Q65.3091 509.404 58.1159 507.336 Q50.8908 505.235 43.5384 505.235 Q36.186 505.235 29.0246 507.336 Q21.8632 509.404 14.5426 513.638 Z" fill="#000000" fill-rule="nonzero" fill-opacity="1" /><polyline clip-path="url(#clip352)" style="stroke:#009af9; stroke-linecap:round; stroke-linejoin:round; stroke-width:16; stroke-opacity:1; fill:none" points="1304.98,88.1448 1311.05,88.157 1317.12,88.1937 1323.19,88.2548 1329.26,88.3404 1335.33,88.4504 1341.4,88.5848 1347.46,88.7436 1353.53,88.9269 1359.59,89.1347 1365.65,89.3668 1371.71,89.6233 1377.77,89.9041 1383.82,90.2095 1389.87,90.5391 1395.92,90.8931 1401.96,91.2715 1408,91.6741 1414.04,92.1011 1420.07,92.5524 1426.1,93.028 1432.12,93.5278 1438.14,94.0519 1444.15,94.6001 1450.16,95.1727 1456.16,95.7693 1462.16,96.3902 1468.15,97.0351 1474.13,97.7042 1480.11,98.3974 1486.08,99.1146 1492.05,99.8559 1498.01,100.621 1503.96,101.41 1509.9,102.224 1515.84,103.061 1521.76,103.922 1527.68,104.807 1533.59,105.715 1539.5,106.648 1545.39,107.604 1551.27,108.584 1557.15,109.587 1563.01,110.615 1568.87,111.665 1574.71,112.74 1580.55,113.838 1586.38,114.959 1592.19,116.104 1597.99,117.272 1603.79,118.463 1609.57,119.678 1615.34,120.916 1621.1,122.178 1626.84,123.462 1632.58,124.77 1638.3,126.1 1644.01,127.454 1649.7,128.831 1655.39,130.23 1661.06,131.653 1666.71,133.098 1672.36,134.566 1677.99,136.057 1683.6,137.57 1689.2,139.106 1694.79,140.664 1700.36,142.245 1705.92,143.848 1711.46,145.474 1716.98,147.122 1722.5,148.792 1727.99,150.484 1733.47,152.198 1738.93,153.935 1744.38,155.693 1749.81,157.473 1755.22,159.276 1760.62,161.099 1766,162.945 1771.36,164.812 1776.7,166.701 1782.03,168.611 1787.34,170.543 1792.63,172.496 1797.9,174.47 1803.15,176.465 1808.39,178.482 1813.6,180.519 1818.8,182.578 1823.97,184.657 1829.13,186.758 1834.27,188.879 1839.39,191.02 1844.48,193.182 1849.56,195.365 1854.62,197.568 1859.65,199.791 1864.67,202.035 1869.66,204.299 1874.63,206.583 1879.58,208.886 1884.51,211.21 1889.42,213.554 1894.31,215.917 1899.17,218.3 1904.01,220.702 1908.83,223.124 1913.62,225.565 1918.39,228.025 1923.14,230.505 1927.87,233.004 1932.57,235.521 1937.25,238.058 1941.9,240.613 1946.54,243.187 1951.14,245.78 1955.72,248.391 1960.28,251.02 1964.81,253.668 1969.32,256.334 1973.81,259.018 1978.26,261.721 1982.7,264.441 1987.1,267.179 1991.48,269.934 1995.84,272.707 2000.17,275.498 2004.47,278.306 2008.75,281.131 2013,283.973 2017.22,286.833 2021.42,289.709 2025.58,292.603 2029.73,295.513 2033.84,298.439 2037.93,301.382 2041.99,304.342 2046.02,307.318 2050.02,310.31 2054,313.318 2057.95,316.342 2061.87,319.382 2065.76,322.437 2069.62,325.508 2073.45,328.595 2077.26,331.697 2081.03,334.815 2084.78,337.947 2088.49,341.094 2092.18,344.257 2095.84,347.434 2099.46,350.626 2103.06,353.832 2106.63,357.053 2110.16,360.288 2113.67,363.538 2117.15,366.801 2120.59,370.078 2124.01,373.369 2127.39,376.674 2130.74,379.992 2134.06,383.324 2137.35,386.669 2140.61,390.028 2143.84,393.399 2147.03,396.783 2150.2,400.18 2153.33,403.59 2156.43,407.012 2159.5,410.447 2162.53,413.894 2165.54,417.353 2168.51,420.824 2171.45,424.307 2174.35,427.802 2177.22,431.309 2180.06,434.827 2182.87,438.356 2185.64,441.897 2188.38,445.448 2191.09,449.011 2193.76,452.585 2196.4,456.169 2199.01,459.763 2201.58,463.369 2204.12,466.984 2206.63,470.61 2209.1,474.245 2211.54,477.891 2213.94,481.546 2216.31,485.211 2218.64,488.885 2220.94,492.569 2223.21,496.262 2225.44,499.964 2227.63,503.675 2229.79,507.394 2231.92,511.123 2234.01,514.859 2236.07,518.604 2238.09,522.358 2240.07,526.119 2242.02,529.888 2243.94,533.665 2245.82,537.45 2247.66,541.242 2249.47,545.042 2251.24,548.848 2252.98,552.662 2254.68,556.483 2256.35,560.311 2257.98,564.145 2259.57,567.985 2261.13,571.832 2262.65,575.686 2264.14,579.545 2265.59,583.41 2267,587.281 2268.38,591.157 2269.72,595.039 2271.02,598.927 2272.29,602.819 2273.52,606.717 2274.71,610.619 2275.87,614.526 2276.99,618.438 2278.08,622.354 2279.13,626.275 2280.14,630.199 2281.11,634.128 2282.05,638.061 2282.95,641.997 2283.82,645.937 2284.64,649.88 2285.43,653.826 2286.19,657.776 2286.9,661.728 2287.58,665.683 2288.22,669.641 2288.83,673.602 2289.4,677.565 2289.93,681.53 2290.42,685.497 2290.88,689.466 2291.3,693.436 2291.68,697.409 2292.02,701.383 2292.33,705.358 2292.6,709.334 2292.83,713.311 2293.03,717.29 2293.19,721.268 2293.31,725.248 2293.39,729.228 2293.44,733.208 2293.45,737.188 2293.42,741.168 2293.35,745.148 2293.25,749.128 2293.11,753.107 2292.94,757.086 2292.72,761.064 2292.47,765.04 2292.18,769.016 2291.85,772.991 2291.49,776.964 2291.09,780.935 2290.65,784.905 2290.18,788.873 2289.67,792.839 2289.12,796.803 2288.53,800.765 2287.91,804.724 2287.25,808.681 2286.55,812.635 2285.81,816.586 2285.04,820.534 2284.23,824.478 2283.39,828.42 2282.51,832.358 2281.59,836.292 2280.63,840.223 2279.64,844.15 2278.61,848.072 2277.54,851.99 2276.44,855.905 2275.3,859.814 2274.12,863.719 2272.91,867.619 2271.66,871.514 2270.37,875.404 2269.05,879.289 2267.69,883.168 2266.3,887.042 2264.87,890.91 2263.4,894.772 2261.89,898.628 2260.35,902.478 2258.78,906.322 2257.17,910.159 2255.52,913.99 2253.84,917.814 2252.12,921.632 2250.36,925.442 2248.57,929.245 2246.74,933.041 2244.88,936.83 2242.98,940.61 2241.05,944.384 2239.08,948.149 2237.08,951.906 2235.04,955.655 2232.97,959.396 2230.86,963.129 2228.72,966.853 2226.54,970.568 2224.33,974.274 2222.08,977.972 2219.8,981.66 2217.48,985.339 2215.13,989.009 2212.74,992.669 2210.32,996.319 2207.87,999.96 2205.38,1003.59 2202.86,1007.21 2200.3,1010.82 2197.71,1014.42 2195.09,1018.01 2192.43,1021.59 2189.74,1025.16 2187.02,1028.72 2184.26,1032.26 2181.47,1035.8 2178.65,1039.32 2175.79,1042.83 2172.9,1046.33 2169.98,1049.82 2167.03,1053.3 2164.04,1056.76 2161.02,1060.22 2157.97,1063.66 2154.88,1067.09 2151.77,1070.5 2148.62,1073.91 2145.44,1077.3 2142.23,1080.67 2138.99,1084.04 2135.71,1087.39 2132.41,1090.73 2129.07,1094.05 2125.7,1097.37 2122.3,1100.66 2118.87,1103.95 2115.41,1107.22 2111.92,1110.48 2108.4,1113.72 2104.85,1116.95 2101.26,1120.16 2097.65,1123.36 2094.01,1126.54 2090.34,1129.71 2086.64,1132.87 2082.91,1136.01 2079.15,1139.13 2075.36,1142.24 2071.54,1145.34 2067.69,1148.42 2063.81,1151.48 2059.91,1154.53 2055.98,1157.56 2052.01,1160.57 2048.03,1163.57 2044.01,1166.56 2039.96,1169.53 2035.89,1172.48 2031.79,1175.41 2027.66,1178.33 2023.5,1181.23 2019.32,1184.12 2015.11,1186.99 2010.87,1189.84 2006.61,1192.67 2002.32,1195.49 1998.01,1198.29 1993.66,1201.07 1989.3,1203.83 1984.9,1206.58 1980.48,1209.31 1976.04,1212.02 1971.57,1214.71 1967.07,1217.39 1962.55,1220.04 1958.01,1222.68 1953.44,1225.3 1948.84,1227.9 1944.22,1230.49 1939.58,1233.05 1934.91,1235.6 1930.22,1238.13 1925.51,1240.63 1920.77,1243.12 1916.01,1245.59 1911.23,1248.04 1906.42,1250.48 1901.59,1252.89 1896.74,1255.28 1891.87,1257.65 1886.97,1260.01 1882.05,1262.34 1877.11,1264.65 1872.15,1266.95 1867.17,1269.22 1862.16,1271.48 1857.14,1273.71 1852.09,1275.92 1847.02,1278.11 1841.94,1280.29 1836.83,1282.44 1831.7,1284.57 1826.56,1286.68 1821.39,1288.77 1816.2,1290.84 1811,1292.89 1805.77,1294.92 1800.53,1296.92 1795.27,1298.91 1789.99,1300.87 1784.69,1302.81 1779.37,1304.73 1774.03,1306.63 1768.68,1308.51 1763.31,1310.37 1757.92,1312.2 1752.52,1314.01 1747.1,1315.81 1741.66,1317.57 1736.2,1319.32 1730.73,1321.05 1725.25,1322.75 1719.74,1324.43 1714.22,1326.09 1708.69,1327.73 1703.14,1329.34 1697.58,1330.93 1692,1332.5 1686.4,1334.05 1680.8,1335.58 1675.17,1337.08 1669.54,1338.56 1663.89,1340.01 1658.22,1341.45 1652.55,1342.86 1646.86,1344.25 1641.15,1345.61 1635.44,1346.95 1629.71,1348.27 1623.97,1349.57 1618.22,1350.84 1612.45,1352.09 1606.68,1353.32 1600.89,1354.52 1595.09,1355.7 1589.28,1356.86 1583.46,1357.99 1577.63,1359.1 1571.79,1360.19 1565.94,1361.25 1560.08,1362.29 1554.21,1363.3 1548.33,1364.3 1542.44,1365.26 1536.55,1366.21 1530.64,1367.13 1524.72,1368.03 1518.8,1368.9 1512.87,1369.75 1506.93,1370.57 1500.98,1371.37 1495.03,1372.15 1489.07,1372.9 1483.1,1373.63 1477.12,1374.34 1471.14,1375.02 1465.15,1375.68 1459.16,1376.31 1453.16,1376.92 1447.16,1377.5 1441.15,1378.06 1435.13,1378.6 1429.11,1379.11 1423.08,1379.6 1417.05,1380.06 1411.02,1380.5 1404.98,1380.92 1398.94,1381.31 1392.89,1381.67 1386.85,1382.01 1380.79,1382.33 1374.74,1382.63 1368.68,1382.89 1362.62,1383.14 1356.56,1383.36 1350.5,1383.55 1344.43,1383.72 1338.36,1383.87 1332.3,1383.99 1326.23,1384.09 1320.16,1384.16 1314.09,1384.21 1308.02,1384.24 1301.94,1384.24 1295.87,1384.21 1289.8,1384.16 1283.73,1384.09 1277.66,1383.99 1271.6,1383.87 1265.53,1383.72 1259.46,1383.55 1253.4,1383.36 1247.34,1383.14 1241.28,1382.89 1235.22,1382.63 1229.17,1382.33 1223.11,1382.01 1217.07,1381.67 1211.02,1381.31 1204.98,1380.92 1198.94,1380.5 1192.91,1380.06 1186.88,1379.6 1180.85,1379.11 1174.83,1378.6 1168.81,1378.06 1162.8,1377.5 1156.8,1376.92 1150.8,1376.31 1144.81,1375.68 1138.82,1375.02 1132.84,1374.34 1126.86,1373.63 1120.89,1372.9 1114.93,1372.15 1108.98,1371.37 1103.03,1370.57 1097.09,1369.75 1091.16,1368.9 1085.24,1368.02 1079.32,1367.13 1073.41,1366.21 1067.52,1365.26 1061.63,1364.3 1055.75,1363.3 1049.88,1362.29 1044.02,1361.25 1038.17,1360.19 1032.33,1359.1 1026.5,1357.99 1020.68,1356.86 1014.87,1355.7 1009.07,1354.52 1003.28,1353.32 997.506,1352.09 991.742,1350.84 985.99,1349.57 980.249,1348.27 974.521,1346.95 968.806,1345.61 963.103,1344.25 957.413,1342.86 951.736,1341.45 946.073,1340.01 940.423,1338.56 934.787,1337.08 929.164,1335.58 923.556,1334.05 917.963,1332.5 912.384,1330.93 906.819,1329.34 901.27,1327.73 895.736,1326.09 890.218,1324.43 884.714,1322.75 879.227,1321.05 873.756,1319.32 868.302,1317.57 862.863,1315.81 857.442,1314.01 852.037,1312.2 846.65,1310.37 841.279,1308.51 835.926,1306.63 830.591,1304.73 825.274,1302.81 819.975,1300.87 814.694,1298.91 809.431,1296.92 804.188,1294.92 798.963,1292.89 793.757,1290.84 788.571,1288.77 783.404,1286.68 778.257,1284.57 773.129,1282.44 768.022,1280.29 762.935,1278.11 757.868,1275.92 752.822,1273.71 747.797,1271.48 742.793,1269.22 737.81,1266.95 732.849,1264.65 727.909,1262.34 722.991,1260.01 718.094,1257.65 713.22,1255.28 708.368,1252.89 703.539,1250.48 698.732,1248.04 693.949,1245.59 689.188,1243.12 684.451,1240.63 679.737,1238.13 675.046,1235.6 670.38,1233.05 665.737,1230.49 661.118,1227.9 656.524,1225.3 651.954,1222.68 647.409,1220.04 642.888,1217.39 638.393,1214.71 633.923,1212.02 629.478,1209.31 625.058,1206.58 620.664,1203.83 616.296,1201.07 611.954,1198.29 607.638,1195.49 603.349,1192.67 599.086,1189.84 594.849,1186.99 590.639,1184.12 586.457,1181.23 582.301,1178.33 578.173,1175.41 574.072,1172.48 569.998,1169.53 565.952,1166.56 561.935,1163.57 557.945,1160.57 553.983,1157.56 550.05,1154.53 546.145,1151.48 542.269,1148.42 538.422,1145.34 534.603,1142.24 530.814,1139.13 527.053,1136.01 523.323,1132.87 519.621,1129.71 515.949,1126.54 512.307,1123.36 508.695,1120.16 505.113,1116.95 501.561,1113.72 498.04,1110.47 494.549,1107.22 491.088,1103.95 487.658,1100.66 484.259,1097.37 480.891,1094.05 477.554,1090.73 474.248,1087.39 470.974,1084.04 467.731,1080.67 464.52,1077.3 461.34,1073.91 458.192,1070.5 455.076,1067.09 451.992,1063.66 448.941,1060.22 445.921,1056.76 442.934,1053.3 439.98,1049.82 437.058,1046.33 434.169,1042.83 431.313,1039.32 428.489,1035.8 425.699,1032.26 422.942,1028.71 420.218,1025.16 417.528,1021.59 414.871,1018.01 412.248,1014.42 409.658,1010.82 407.102,1007.21 404.58,1003.59 402.092,999.96 399.638,996.319 397.218,992.669 394.833,989.009 392.481,985.339 390.164,981.66 387.882,977.972 385.634,974.274 383.421,970.568 381.243,966.853 379.1,963.129 376.991,959.396 374.918,955.655 372.879,951.906 370.876,948.149 368.908,944.384 366.975,940.61 365.078,936.83 363.216,933.041 361.39,929.245 359.599,925.442 357.844,921.631 356.124,917.814 354.441,913.99 352.793,910.159 351.181,906.322 349.606,902.478 348.066,898.628 346.562,894.772 345.094,890.909 343.663,887.042 342.268,883.168 340.909,879.288 339.587,875.404 338.301,871.514 337.052,867.619 335.839,863.719 334.662,859.814 333.522,855.904 332.419,851.991 331.353,848.072 330.323,844.15 329.33,840.223 328.374,836.292 327.455,832.358 326.572,828.42 325.727,824.478 324.918,820.534 324.146,816.586 323.412,812.635 322.714,808.681 322.054,804.724 321.43,800.765 320.844,796.803 320.294,792.839 319.782,788.873 319.307,784.905 318.87,780.935 318.469,776.964 318.106,772.991 317.78,769.016 317.491,765.04 317.239,761.063 317.025,757.086 316.848,753.107 316.708,749.128 316.605,745.148 316.54,741.168 316.512,737.188 316.521,733.208 316.568,729.228 316.652,725.248 316.773,721.268 316.932,717.289 317.127,713.311 317.36,709.334 317.631,705.358 317.938,701.382 318.283,697.408 318.665,693.436 319.084,689.465 319.54,685.497 320.034,681.529 320.564,677.564 321.132,673.602 321.737,669.641 322.379,665.683 323.058,661.728 323.774,657.775 324.528,653.826 325.318,649.88 326.145,645.936 327.009,641.997 327.91,638.06 328.847,634.128 329.822,630.199 330.833,626.275 331.881,622.354 332.966,618.438 334.088,614.526 335.246,610.619 336.441,606.717 337.672,602.819 338.94,598.927 340.244,595.039 341.584,591.157 342.961,587.281 344.374,583.41 345.824,579.545 347.309,575.686 348.831,571.832 350.389,567.985 351.983,564.145 353.613,560.31 355.278,556.483 356.98,552.662 358.717,548.848 360.49,545.041 362.298,541.242 364.143,537.45 366.022,533.665 367.937,529.888 369.887,526.119 371.873,522.357 373.894,518.604 375.95,514.859 378.041,511.122 380.167,507.394 382.328,503.674 384.524,499.964 386.754,496.262 389.019,492.569 391.319,488.885 393.653,485.211 396.021,481.546 398.424,477.891 400.861,474.245 403.332,470.61 405.837,466.984 408.376,463.368 410.949,459.763 413.555,456.169 416.195,452.584 418.869,449.011 421.576,445.448 424.317,441.897 427.09,438.356 429.897,434.827 432.737,431.309 435.609,427.802 438.515,424.307 441.453,420.824 444.424,417.353 447.427,413.894 450.463,410.447 453.53,407.012 456.63,403.59 459.762,400.18 462.926,396.783 466.121,393.399 469.349,390.027 472.607,386.669 475.897,383.324 479.219,379.992 482.571,376.674 485.955,373.369 489.369,370.078 492.815,366.801 496.29,363.538 499.797,360.288 503.334,357.053 506.901,353.832 510.498,350.626 514.125,347.434 517.782,344.257 521.468,341.094 525.185,337.947 528.93,334.814 532.705,331.697 536.509,328.595 540.342,325.508 544.203,322.437 548.094,319.382 552.013,316.342 555.961,313.318 559.937,310.31 563.94,307.318 567.972,304.342 572.032,301.382 576.119,298.439 580.233,295.513 584.376,292.602 588.545,289.709 592.741,286.833 596.964,283.973 601.214,281.131 605.491,278.306 609.793,275.498 614.122,272.707 618.477,269.934 622.858,267.178 627.265,264.441 631.697,261.721 636.155,259.018 640.638,256.334 645.146,253.668 649.679,251.02 654.236,248.391 658.818,245.78 663.425,243.187 668.055,240.613 672.71,238.058 677.389,235.521 682.091,233.004 686.817,230.505 691.566,228.025 696.338,225.565 701.133,223.124 705.951,220.702 710.792,218.3 715.655,215.917 720.54,213.553 725.447,211.21 730.376,208.886 735.327,206.582 740.299,204.299 745.293,202.035 750.307,199.791 755.343,197.568 760.399,195.365 765.476,193.182 770.574,191.02 775.691,188.879 780.828,186.758 785.985,184.657 791.162,182.578 796.358,180.519 801.573,178.482 806.807,176.465 812.061,174.47 817.332,172.496 822.622,170.543 827.931,168.611 833.257,166.701 838.601,164.812 843.962,162.945 849.342,161.099 854.738,159.276 860.151,157.473 865.581,155.693 871.027,153.935 876.49,152.198 881.969,150.484 887.464,148.792 892.975,147.122 898.502,145.474 904.043,143.848 909.6,142.245 915.171,140.664 920.758,139.106 926.359,137.57 931.974,136.056 937.603,134.566 943.246,133.098 948.903,131.653 954.573,130.23 960.257,128.831 965.953,127.454 971.663,126.1 977.384,124.77 983.118,123.462 988.864,122.178 994.623,120.916 1000.39,119.678 1006.17,118.463 1011.97,117.272 1017.77,116.104 1023.59,114.959 1029.41,113.838 1035.25,112.74 1041.09,111.665 1046.95,110.614 1052.81,109.587 1058.69,108.584 1064.57,107.604 1070.47,106.648 1076.37,105.715 1082.28,104.806 1088.2,103.922 1094.12,103.061 1100.06,102.224 1106,101.41 1111.95,100.621 1117.91,99.8559 1123.88,99.1146 1129.85,98.3974 1135.83,97.7042 1141.81,97.0351 1147.8,96.3901 1153.8,95.7693 1159.8,95.1726 1165.81,94.6001 1171.82,94.0518 1177.84,93.5278 1183.86,93.028 1189.89,92.5524 1195.92,92.1011 1201.96,91.6741 1208,91.2715 1214.04,90.8931 1220.09,90.5391 1226.14,90.2095 1232.19,89.9042 1238.25,89.6233 1244.31,89.3667 1250.37,89.1346 1256.43,88.9269 1262.5,88.7436 1268.56,88.5848 1274.63,88.4504 1280.7,88.3404 1286.77,88.2548 1292.84,88.1937 1298.91,88.157 1304.98,88.1448 "/>
<polyline clip-path="url(#clip352)" style="stroke:#e26f46; stroke-linecap:round; stroke-linejoin:round; stroke-width:16; stroke-opacity:1; fill:none" points="1304.98,88.1448 1309.3,87.6197 1313.59,87.369 1317.88,87.1837 1322.17,86.9985 1326.46,86.8131 1330.75,86.6113 1335.04,86.3767 1339.33,86.2161 1343.6,86.1857 1347.85,86.2741 1352.1,86.4034 1356.36,86.5171 1360.61,86.6308 1364.86,86.7445 1369.11,86.8582 1373.37,87.1089 1377.64,87.5715 1381.93,88.1237 1386.23,88.6658 1390.55,89.1216 1394.88,89.4377 1399.22,89.5842 1403.57,89.554 1407.94,89.3636 1412.31,89.0524 1416.69,88.6828 1421.07,88.3408 1425.46,88.1353 1429.83,88.1983 1434.2,88.6851 1438.57,89.4803 1442.93,90.3172 1447.29,91.1745 1451.65,92.037 1456.02,92.8961 1460.38,93.7493 1464.74,94.6007 1469.08,95.501 1473.38,96.4977 1477.66,97.5839 1481.92,98.7523 1486.18,99.9958 1490.44,101.307 1494.7,102.678 1498.98,104.103 1503.28,105.573 1507.59,107.081 1511.92,108.619 1516.26,110.18 1520.62,111.756 1524.98,113.339 1529.34,114.922 1533.7,116.498 1538.05,118.073 1542.4,119.647 1546.76,121.222 1551.11,122.797 1555.46,124.372 1559.82,125.947 1564.17,127.521 1568.52,129.096 1572.88,130.671 1577.23,132.246 1581.58,133.821 1585.94,135.395 1590.3,137.002 1594.69,138.755 1599.12,140.65 1603.57,142.675 1608.05,144.815 1612.54,147.06 1617.05,149.397 1621.57,151.815 1626.1,154.304 1630.63,156.854 1635.17,159.456 1639.71,162.102 1644.24,164.784 1648.78,167.495 1653.3,170.228 1657.82,172.979 1662.33,175.741 1666.83,178.511 1671.33,181.284 1675.81,184.059 1680.28,186.831 1684.75,189.6 1689.2,192.365 1693.65,195.125 1698.09,197.88 1702.53,200.631 1706.96,203.381 1711.38,206.13 1715.81,208.883 1720.24,211.642 1724.68,214.412 1729.12,217.198 1733.57,220.005 1738.04,222.839 1742.53,225.709 1747.04,228.62 1751.57,231.581 1756.15,234.607 1760.8,237.71 1765.48,240.856 1770.18,244.014 1774.87,247.156 1779.51,250.261 1784.11,253.316 1788.65,256.309 1793.13,259.238 1797.55,262.103 1801.91,264.913 1806.23,267.68 1810.52,270.423 1814.81,273.166 1819.12,275.94 1823.5,278.778 1827.97,281.724 1832.58,284.822 1837.27,288.005 1841.96,291.193 1846.67,294.384 1851.38,297.578 1856.09,300.775 1860.81,303.973 1865.52,307.172 1870.24,310.371 1874.96,313.571 1879.68,316.77 1884.39,319.969 1889.11,323.167 1893.82,326.365 1898.54,329.562 1903.25,332.759 1907.96,335.956 1912.68,339.154 1917.4,342.354 1922.14,345.556 1926.89,348.761 1931.65,351.968 1936.41,355.176 1941.18,358.385 1945.94,361.594 1950.7,364.803 1955.46,368.012 1960.21,371.22 1964.95,374.426 1969.68,377.631 1974.39,380.835 1979.09,384.036 1983.78,387.235 1988.45,390.432 1993.11,393.627 1997.75,396.819 2002.37,400.008 2006.97,403.194 2011.56,406.378 2016.13,409.56 2020.68,412.738 2025.22,415.915 2029.75,419.089 2034.26,422.26 2038.76,425.43 2043.24,428.598 2047.72,431.765 2052.19,434.93 2056.66,438.095 2061.12,441.259 2065.59,444.423 2070.05,447.587 2074.52,450.753 2079,453.919 2083.48,457.076 2087.95,460.219 2092.4,463.349 2096.83,466.468 2101.2,469.576 2105.53,472.674 2109.8,475.764 2114.01,478.845 2118.14,481.919 2122.19,484.987 2126.17,488.049 2130.06,491.106 2133.87,494.158 2137.59,497.207 2141.22,500.252 2144.77,503.295 2148.24,506.335 2151.62,509.373 2154.93,512.41 2158.18,515.446 2161.35,518.48 2164.48,521.514 2167.55,524.548 2170.58,527.581 2173.59,530.614 2176.58,533.647 2179.57,536.68 2182.56,539.712 2185.58,542.745 2188.6,545.777 2191.52,548.807 2194.32,551.835 2197.01,554.863 2199.57,557.89 2202,560.917 2204.29,563.945 2206.45,566.973 2208.46,570.002 2210.33,573.032 2212.06,576.063 2213.65,579.096 2215.1,582.131 2216.42,585.167 2217.61,588.205 2218.67,591.245 2219.61,594.287 2220.44,597.33 2221.17,600.375 2221.81,603.422 2222.36,606.471 2222.85,609.521 2223.28,612.571 2223.67,615.623 2224.03,618.675 2224.38,621.727 2224.73,624.78 2225.11,627.832 2225.53,630.883 2225.96,633.934 2226.38,636.985 2226.81,640.036 2227.23,643.086 2227.66,646.137 2228.08,649.188 2228.51,652.239 2228.93,655.29 2229.36,658.341 2229.78,661.392 2230.21,664.442 2230.63,667.493 2231.05,670.544 2231.48,673.595 2231.9,676.646 2232.33,679.697 2232.75,682.748 2233.18,685.799 2233.6,688.85 2234.03,691.9 2234.45,694.951 2234.88,698.002 2235.3,701.053 2235.73,704.104 2236.15,707.155 2236.58,710.206 2237,713.256 2237.43,716.308 2237.85,719.358 2238.28,722.409 2238.71,725.459 2239.15,728.508 2239.58,731.556 2240.01,734.603 2240.43,737.649 2240.83,740.695 2241.22,743.74 2241.59,746.784 2241.93,749.827 2242.24,752.869 2242.53,755.911 2242.78,758.951 2243,761.991 2243.18,765.03 2243.31,768.068 2243.41,771.106 2243.45,774.142 2243.45,777.178 2243.41,780.213 2243.3,783.247 2243.15,786.28 2242.94,789.312 2242.67,792.344 2242.35,795.374 2241.96,798.404 2241.52,801.433 2241.01,804.462 2240.44,807.489 2239.81,810.516 2239.12,813.542 2238.36,816.567 2237.53,819.592 2236.64,822.616 2235.69,825.639 2234.67,828.661 2233.58,831.683 2232.43,834.704 2231.22,837.724 2229.94,840.744 2228.6,843.763 2227.2,846.781 2225.73,849.799 2224.21,852.816 2222.62,855.832 2220.98,858.848 2219.28,861.863 2217.53,864.878 2215.72,867.892 2213.86,870.906 2211.95,873.919 2209.99,876.931 2207.98,879.944 2205.94,882.955 2203.85,885.966 2201.72,888.977 2199.55,891.988 2197.36,894.998 2195.13,898.008 2192.88,901.017 2190.6,904.026 2188.3,907.034 2185.98,910.043 2183.65,913.052 2181.31,916.06 2178.96,919.067 2176.61,922.075 2174.26,925.082 2171.92,928.09 2169.59,931.097 2167.27,934.104 2164.97,937.111 2162.69,940.118 2160.44,943.125 2158.23,946.134 2156.02,949.148 2153.82,952.168 2151.59,955.195 2149.34,958.228 2147.04,961.267 2144.68,964.313 2142.25,967.366 2139.74,970.425 2137.14,973.491 2134.45,976.564 2131.65,979.644 2128.74,982.73 2125.72,985.823 2122.58,988.922 2119.32,992.028 2115.93,995.139 2112.42,998.257 2108.79,1001.38 2105.04,1004.51 2101.17,1007.64 2097.18,1010.78 2093.08,1013.93 2088.88,1017.07 2084.58,1020.23 2080.19,1023.38 2075.72,1026.54 2071.18,1029.7 2066.58,1032.87 2061.94,1036.03 2057.26,1039.2 2052.56,1042.37 2047.85,1045.54 2043.16,1048.7 2038.5,1051.87 2033.89,1055.04 2029.26,1058.2 2024.6,1061.36 2019.91,1064.51 2015.19,1067.67 2010.44,1070.82 2005.67,1073.96 2000.89,1077.1 1996.09,1080.23 1991.28,1083.36 1986.46,1086.48 1981.63,1089.6 1976.8,1092.71 1971.97,1095.81 1967.15,1098.91 1962.32,1102.01 1957.5,1105.09 1952.68,1108.17 1947.87,1111.25 1943.06,1114.32 1938.27,1117.38 1933.48,1120.44 1928.71,1123.49 1923.94,1126.54 1919.18,1129.58 1914.44,1132.62 1909.7,1135.65 1904.97,1138.68 1900.25,1141.71 1895.54,1144.73 1890.83,1147.75 1886.13,1150.77 1881.43,1153.79 1876.73,1156.81 1872.03,1159.82 1867.33,1162.84 1862.62,1165.86 1857.91,1168.89 1853.18,1171.96 1848.43,1175.07 1843.67,1178.21 1838.91,1181.37 1834.14,1184.55 1829.36,1187.72 1824.59,1190.89 1819.81,1194.05 1815.04,1197.18 1810.28,1200.29 1805.52,1203.37 1800.78,1206.41 1796.04,1209.41 1791.31,1212.37 1786.6,1215.27 1781.9,1218.13 1777.21,1220.94 1772.54,1223.69 1767.88,1226.39 1763.23,1229.04 1758.6,1231.63 1753.99,1234.18 1749.39,1236.67 1744.8,1239.12 1740.22,1241.53 1735.65,1243.9 1731.09,1246.24 1726.54,1248.54 1722,1250.83 1717.46,1253.1 1712.92,1255.36 1708.38,1257.63 1703.84,1259.9 1699.29,1262.19 1694.74,1264.51 1690.19,1266.9 1685.64,1269.34 1681.08,1271.82 1676.53,1274.32 1671.98,1276.82 1667.42,1279.31 1662.87,1281.78 1658.32,1284.22 1653.76,1286.62 1649.21,1288.96 1644.66,1291.24 1640.1,1293.46 1635.55,1295.6 1631,1297.67 1626.44,1299.65 1621.89,1301.56 1617.33,1303.39 1612.78,1305.13 1608.22,1306.8 1603.67,1308.39 1599.11,1309.91 1594.56,1311.37 1590,1312.77 1585.45,1314.13 1580.89,1315.44 1576.33,1316.73 1571.78,1318 1567.22,1319.26 1562.66,1320.54 1558.11,1321.85 1553.55,1323.19 1548.99,1324.58 1544.43,1326 1539.87,1327.43 1535.3,1328.88 1530.74,1330.32 1526.18,1331.76 1521.62,1333.18 1517.06,1334.58 1512.5,1335.96 1507.94,1337.3 1503.39,1338.61 1498.84,1339.87 1494.29,1341.1 1489.74,1342.28 1485.2,1343.41 1480.67,1344.5 1476.13,1345.54 1471.6,1346.54 1467.07,1347.49 1462.55,1348.4 1458.03,1349.27 1453.51,1350.11 1448.99,1350.91 1444.48,1351.69 1439.96,1352.45 1435.45,1353.2 1430.94,1353.94 1426.43,1354.68 1421.92,1355.43 1417.4,1356.2 1412.89,1356.92 1408.39,1357.56 1403.89,1358.13 1399.4,1358.66 1394.91,1359.14 1390.42,1359.6 1385.93,1360.04 1381.44,1360.47 1376.96,1360.89 1372.47,1361.32 1367.98,1361.76 1363.49,1362.2 1359.01,1362.65 1354.52,1363.11 1350.03,1363.58 1345.54,1364.05 1341.05,1364.52 1336.56,1364.97 1332.07,1365.32 1327.59,1365.55 1323.11,1365.69 1318.65,1365.76 1314.2,1365.78 1309.76,1365.75 1305.34,1365.71 1300.94,1365.65 1296.55,1365.58 1292.18,1365.51 1287.82,1365.45 1283.48,1365.4 1279.16,1365.36 1274.85,1365.32 1270.55,1365.28 1266.26,1365.24 1261.97,1365.18 1257.68,1365.1 1253.4,1364.98 1249.1,1364.81 1244.8,1364.56 1240.48,1364.22 1236.14,1363.77 1231.77,1363.18 1227.37,1362.46 1222.96,1361.71 1218.53,1360.94 1214.1,1360.16 1209.66,1359.36 1205.23,1358.55 1200.79,1357.72 1196.35,1356.88 1191.92,1356.02 1187.49,1355.14 1183.06,1354.24 1178.63,1353.32 1174.2,1352.38 1169.77,1351.4 1165.33,1350.4 1160.89,1349.35 1156.46,1348.21 1152.05,1346.95 1147.66,1345.62 1143.27,1344.26 1138.87,1342.91 1134.46,1341.6 1130.03,1340.35 1125.56,1339.17 1121.07,1338.08 1116.53,1337.08 1111.96,1336.15 1107.35,1335.29 1102.7,1334.46 1098.01,1333.65 1093.29,1332.81 1088.55,1331.9 1083.78,1330.87 1078.99,1329.66 1074.21,1328.21 1069.42,1326.44 1064.65,1324.3 1059.88,1322.08 1055.12,1319.86 1050.35,1317.64 1045.59,1315.42 1040.82,1313.2 1036.05,1310.98 1031.29,1308.76 1026.52,1306.53 1021.75,1304.31 1016.99,1302.09 1012.22,1299.87 1007.46,1297.65 1002.69,1295.43 997.923,1293.21 993.157,1290.99 988.384,1288.75 983.596,1286.46 978.795,1284.13 973.98,1281.76 969.152,1279.35 964.312,1276.9 959.461,1274.41 954.599,1271.9 949.728,1269.35 944.847,1266.76 939.957,1264.15 935.059,1261.52 930.153,1258.85 925.24,1256.16 920.321,1253.45 915.396,1250.72 910.465,1247.97 905.53,1245.2 900.589,1242.41 895.645,1239.61 890.697,1236.79 885.746,1233.95 880.792,1231.11 875.836,1228.25 870.877,1225.39 865.917,1222.51 860.955,1219.63 855.992,1216.74 851.029,1213.84 846.065,1210.94 841.101,1208.03 836.136,1205.12 831.173,1202.21 826.209,1199.29 821.246,1196.37 816.284,1193.45 811.323,1190.54 806.363,1187.62 801.405,1184.7 796.448,1181.79 791.492,1178.87 786.538,1175.96 781.586,1173.05 776.635,1170.14 771.686,1167.24 766.739,1164.34 761.793,1161.44 756.849,1158.55 751.907,1155.66 746.966,1152.78 742.027,1149.89 737.089,1147.02 732.153,1144.14 727.218,1141.28 722.283,1138.41 717.35,1135.55 712.418,1132.69 707.486,1129.84 702.554,1126.98 697.623,1124.13 692.691,1121.29 687.758,1118.44 682.826,1115.6 677.892,1112.75 672.956,1109.91 668.021,1107.07 663.082,1104.22 658.141,1101.38 653.197,1098.53 648.25,1095.68 643.3,1092.83 638.345,1089.97 633.387,1087.11 628.422,1084.24 623.454,1081.36 618.479,1078.48 613.497,1075.59 608.51,1072.68 603.514,1069.77 598.511,1066.85 593.499,1063.91 588.477,1060.95 583.447,1057.98 578.431,1055.01 573.469,1052.04 568.554,1049.07 563.679,1046.11 558.84,1043.15 554.031,1040.2 549.248,1037.25 544.488,1034.3 539.746,1031.35 535.021,1028.4 530.311,1025.46 525.614,1022.51 520.929,1019.57 516.256,1016.63 511.595,1013.68 506.947,1010.74 502.313,1007.79 497.696,1004.85 493.098,1001.91 488.522,998.966 483.973,996.023 479.453,993.082 474.969,990.142 470.525,987.203 466.129,984.267 461.785,981.332 457.502,978.401 453.288,975.474 449.15,972.55 445.098,969.632 441.141,966.719 437.284,963.813 433.515,960.91 429.836,958.008 426.248,955.104 422.753,952.198 419.354,949.288 416.05,946.371 412.843,943.447 409.734,940.516 406.723,937.576 403.81,934.627 400.995,931.669 398.278,928.702 395.657,925.727 393.132,922.743 390.701,919.753 388.362,916.757 386.115,913.756 383.955,910.751 381.882,907.746 379.892,904.742 377.982,901.74 376.149,898.745 374.388,895.758 372.697,892.782 371.07,889.822 369.504,886.88 367.993,883.96 366.532,881.066 365.092,878.183 363.662,875.3 362.252,872.417 360.869,869.536 359.521,866.656 358.214,863.778 356.955,860.903 355.748,858.031 354.597,855.161 353.506,852.296 352.477,849.433 351.513,846.575 350.614,843.72 349.782,840.87 349.014,838.023 348.311,835.18 347.671,832.341 347.09,829.506 346.565,826.674 346.093,823.846 345.667,821.02 345.283,818.196 344.933,815.375 344.611,812.556 344.308,809.738 344.016,806.92 343.724,804.103 343.423,801.285 343.102,798.466 342.731,795.647 342.299,792.83 341.822,790.016 341.316,787.202 340.795,784.39 340.274,781.577 339.763,778.764 339.275,775.95 338.82,773.134 338.406,770.317 338.043,767.498 337.737,764.676 337.493,761.852 337.318,759.025 337.214,756.195 337.185,753.363 337.232,750.526 337.356,747.687 337.556,744.845 337.832,742 338.18,739.151 338.597,736.3 339.077,733.447 339.617,730.59 340.208,727.732 340.843,724.872 341.513,722.01 342.208,719.148 342.916,716.285 343.627,713.421 344.325,710.559 344.999,707.697 345.654,704.837 346.369,701.979 347.146,699.122 347.979,696.267 348.864,693.411 349.794,690.556 350.765,687.699 351.772,684.842 352.812,681.984 353.879,679.124 354.97,676.262 356.081,673.397 357.21,670.531 358.352,667.661 359.506,664.79 360.668,661.915 361.837,659.038 363.01,656.157 364.186,653.275 365.363,650.389 366.54,647.501 367.716,644.611 368.891,641.718 370.064,638.824 371.235,635.928 372.404,633.03 373.571,630.132 374.737,627.234 375.904,624.335 377.072,621.436 378.242,618.539 379.385,615.635 380.452,612.712 381.463,609.774 382.445,606.824 383.418,603.865 384.405,600.901 385.424,597.934 386.496,594.968 387.636,592.005 388.86,589.047 390.184,586.097 391.62,583.155 393.18,580.223 394.875,577.303 396.713,574.396 398.703,571.503 400.85,568.623 403.161,565.757 405.639,562.906 408.286,560.069 411.104,557.245 414.092,554.434 417.249,551.635 420.571,548.847 424.055,546.068 427.696,543.296 431.485,540.53 435.415,537.767 439.477,535.005 443.659,532.242 447.95,529.473 452.335,526.697 456.799,523.909 461.327,521.107 465.901,518.286 470.502,515.441 475.109,512.569 479.702,509.666 484.28,506.752 488.851,503.841 493.415,500.933 497.975,498.027 502.53,495.124 507.08,492.222 511.628,489.321 516.174,486.421 520.717,483.522 525.259,480.624 529.799,477.726 534.339,474.829 538.879,471.931 543.419,469.034 547.96,466.136 552.501,463.238 557.042,460.34 561.584,457.442 566.127,454.543 570.67,451.644 575.215,448.745 579.76,445.846 584.305,442.946 588.85,440.046 593.395,437.146 597.94,434.247 602.483,431.348 607.019,428.451 611.55,425.556 616.078,422.661 620.602,419.767 625.124,416.873 629.646,413.979 634.168,411.085 638.691,408.189 643.216,405.293 647.743,402.395 652.274,399.495 656.81,396.592 661.35,393.688 665.896,390.781 670.449,387.871 675.008,384.958 679.575,382.042 684.15,379.123 688.733,376.199 693.324,373.273 697.925,370.342 702.535,367.408 707.155,364.469 711.785,361.527 716.424,358.58 721.074,355.63 725.734,352.675 730.404,349.716 735.084,346.752 739.775,343.785 744.476,340.813 749.186,337.838 753.907,334.858 758.636,331.875 763.376,328.888 768.123,325.898 772.88,322.904 777.645,319.907 782.417,316.907 787.196,313.904 791.982,310.898 796.775,307.89 801.572,304.88 806.375,301.868 811.181,298.854 815.991,295.839 820.802,292.824 825.616,289.807 830.43,286.79 835.244,283.773 840.057,280.757 844.866,277.742 849.673,274.728 854.475,271.716 859.281,268.691 864.105,265.627 868.943,262.533 873.791,259.418 878.644,256.292 883.499,253.161 888.352,250.035 893.2,246.92 898.04,243.822 902.869,240.747 907.684,237.7 912.484,234.687 917.267,231.709 922.031,228.772 926.774,225.878 931.497,223.028 936.197,220.225 940.875,217.469 945.531,214.761 950.164,212.1 954.775,209.485 959.365,206.915 963.935,204.388 968.486,201.901 973.02,199.45 977.538,197.032 982.043,194.641 986.538,192.274 991.024,189.923 995.505,187.584 999.985,185.247 1004.47,182.907 1008.95,180.555 1013.45,178.183 1017.94,175.879 1022.4,173.689 1026.85,171.598 1031.28,169.594 1035.7,167.665 1040.11,165.801 1044.51,163.991 1048.92,162.226 1053.32,160.498 1057.72,158.801 1062.13,157.127 1066.54,155.471 1070.95,153.829 1075.37,152.197 1079.79,150.572 1084.22,148.953 1088.66,147.339 1093.1,145.73 1097.54,144.126 1101.99,142.53 1106.44,140.944 1110.89,139.372 1115.33,137.819 1119.77,136.291 1124.21,134.792 1128.63,133.331 1133.04,131.917 1137.43,130.557 1141.81,129.263 1146.16,128.045 1150.47,126.915 1154.77,125.864 1159.06,124.818 1163.35,123.773 1167.64,122.728 1171.93,121.683 1176.22,120.638 1180.51,119.593 "/>
<path clip-path="url(#clip350)" d="M327.056 248.629 L750.198 248.629 L750.198 93.1086 L327.056 93.1086  Z" fill="#ffffff" fill-rule="evenodd" fill-opacity="1"/>
<polyline clip-path="url(#clip350)" style="stroke:#000000; stroke-linecap:round; stroke-linejoin:round; stroke-width:4; stroke-opacity:1; fill:none" points="327.056,248.629 750.198,248.629 750.198,93.1086 327.056,93.1086 327.056,248.629 "/>
<polyline clip-path="url(#clip350)" style="stroke:#009af9; stroke-linecap:round; stroke-linejoin:round; stroke-width:16; stroke-opacity:1; fill:none" points="350.34,144.949 490.043,144.949 "/>
<path clip-path="url(#clip350)" d="M529.345 130.84 Q524.253 130.84 521.244 134.636 Q518.258 138.432 518.258 144.983 Q518.258 151.511 521.244 155.307 Q524.253 159.104 529.345 159.104 Q534.438 159.104 537.401 155.307 Q540.387 151.511 540.387 144.983 Q540.387 138.432 537.401 134.636 Q534.438 130.84 529.345 130.84 M529.345 127.044 Q536.614 127.044 540.966 131.928 Q545.318 136.789 545.318 144.983 Q545.318 153.155 540.966 158.039 Q536.614 162.9 529.345 162.9 Q522.054 162.9 517.679 158.039 Q513.327 153.178 513.327 144.983 Q513.327 136.789 517.679 131.928 Q522.054 127.044 529.345 127.044 Z" fill="#000000" fill-rule="nonzero" fill-opacity="1" /><path clip-path="url(#clip350)" d="M567.47 140.284 Q566.753 139.868 565.896 139.682 Q565.063 139.474 564.044 139.474 Q560.433 139.474 558.489 141.835 Q556.568 144.173 556.568 148.571 L556.568 162.229 L552.285 162.229 L552.285 136.303 L556.568 136.303 L556.568 140.331 Q557.91 137.969 560.063 136.835 Q562.216 135.678 565.294 135.678 Q565.734 135.678 566.267 135.747 Q566.799 135.794 567.447 135.909 L567.47 140.284 Z" fill="#000000" fill-rule="nonzero" fill-opacity="1" /><path clip-path="url(#clip350)" d="M571.938 136.303 L576.197 136.303 L576.197 162.229 L571.938 162.229 L571.938 136.303 M571.938 126.21 L576.197 126.21 L576.197 131.604 L571.938 131.604 L571.938 126.21 Z" fill="#000000" fill-rule="nonzero" fill-opacity="1" /><path clip-path="url(#clip350)" d="M602.169 148.965 Q602.169 144.335 600.248 141.789 Q598.35 139.243 594.901 139.243 Q591.475 139.243 589.553 141.789 Q587.655 144.335 587.655 148.965 Q587.655 153.571 589.553 156.118 Q591.475 158.664 594.901 158.664 Q598.35 158.664 600.248 156.118 Q602.169 153.571 602.169 148.965 M606.428 159.011 Q606.428 165.631 603.489 168.849 Q600.549 172.09 594.484 172.09 Q592.239 172.09 590.248 171.742 Q588.257 171.418 586.382 170.724 L586.382 166.58 Q588.257 167.599 590.086 168.085 Q591.915 168.571 593.813 168.571 Q598.003 168.571 600.086 166.372 Q602.169 164.196 602.169 159.775 L602.169 157.668 Q600.85 159.96 598.79 161.094 Q596.729 162.229 593.859 162.229 Q589.091 162.229 586.174 158.594 Q583.257 154.96 583.257 148.965 Q583.257 142.946 586.174 139.312 Q589.091 135.678 593.859 135.678 Q596.729 135.678 598.79 136.812 Q600.85 137.946 602.169 140.238 L602.169 136.303 L606.428 136.303 L606.428 159.011 Z" fill="#000000" fill-rule="nonzero" fill-opacity="1" /><path clip-path="url(#clip350)" d="M615.201 136.303 L619.461 136.303 L619.461 162.229 L615.201 162.229 L615.201 136.303 M615.201 126.21 L619.461 126.21 L619.461 131.604 L615.201 131.604 L615.201 126.21 Z" fill="#000000" fill-rule="nonzero" fill-opacity="1" /><path clip-path="url(#clip350)" d="M649.924 146.581 L649.924 162.229 L645.664 162.229 L645.664 146.719 Q645.664 143.039 644.229 141.21 Q642.794 139.382 639.924 139.382 Q636.475 139.382 634.484 141.581 Q632.493 143.78 632.493 147.576 L632.493 162.229 L628.211 162.229 L628.211 136.303 L632.493 136.303 L632.493 140.331 Q634.021 137.993 636.081 136.835 Q638.164 135.678 640.873 135.678 Q645.34 135.678 647.632 138.456 Q649.924 141.21 649.924 146.581 Z" fill="#000000" fill-rule="nonzero" fill-opacity="1" /><path clip-path="url(#clip350)" d="M670.201 149.196 Q665.039 149.196 663.048 150.377 Q661.058 151.557 661.058 154.405 Q661.058 156.673 662.539 158.016 Q664.044 159.335 666.613 159.335 Q670.155 159.335 672.285 156.835 Q674.437 154.312 674.437 150.145 L674.437 149.196 L670.201 149.196 M678.697 147.437 L678.697 162.229 L674.437 162.229 L674.437 158.293 Q672.979 160.655 670.803 161.789 Q668.627 162.9 665.479 162.9 Q661.498 162.9 659.136 160.678 Q656.798 158.432 656.798 154.682 Q656.798 150.307 659.715 148.085 Q662.655 145.863 668.465 145.863 L674.437 145.863 L674.437 145.446 Q674.437 142.507 672.493 140.909 Q670.572 139.289 667.076 139.289 Q664.854 139.289 662.748 139.821 Q660.641 140.354 658.697 141.419 L658.697 137.483 Q661.035 136.581 663.234 136.141 Q665.433 135.678 667.516 135.678 Q673.141 135.678 675.919 138.594 Q678.697 141.511 678.697 147.437 Z" fill="#000000" fill-rule="nonzero" fill-opacity="1" /><path clip-path="url(#clip350)" d="M687.47 126.21 L691.729 126.21 L691.729 162.229 L687.47 162.229 L687.47 126.21 Z" fill="#000000" fill-rule="nonzero" fill-opacity="1" /><polyline clip-path="url(#clip350)" style="stroke:#e26f46; stroke-linecap:round; stroke-linejoin:round; stroke-width:16; stroke-opacity:1; fill:none" points="350.34,196.789 490.043,196.789 "/>
<path clip-path="url(#clip350)" d="M518.003 183.351 L518.003 196.337 L523.883 196.337 Q527.146 196.337 528.929 194.647 Q530.711 192.958 530.711 189.833 Q530.711 186.731 528.929 185.041 Q527.146 183.351 523.883 183.351 L518.003 183.351 M513.327 179.509 L523.883 179.509 Q529.693 179.509 532.656 182.147 Q535.642 184.763 535.642 189.833 Q535.642 194.948 532.656 197.564 Q529.693 200.18 523.883 200.18 L518.003 200.18 L518.003 214.069 L513.327 214.069 L513.327 179.509 Z" fill="#000000" fill-rule="nonzero" fill-opacity="1" /><path clip-path="url(#clip350)" d="M555.919 192.124 Q555.202 191.708 554.345 191.522 Q553.512 191.314 552.493 191.314 Q548.882 191.314 546.938 193.675 Q545.017 196.013 545.017 200.411 L545.017 214.069 L540.734 214.069 L540.734 188.143 L545.017 188.143 L545.017 192.171 Q546.359 189.809 548.512 188.675 Q550.665 187.518 553.743 187.518 Q554.183 187.518 554.716 187.587 Q555.248 187.634 555.896 187.749 L555.919 192.124 Z" fill="#000000" fill-rule="nonzero" fill-opacity="1" /><path clip-path="url(#clip350)" d="M581.521 200.041 L581.521 202.124 L561.938 202.124 Q562.216 206.522 564.577 208.837 Q566.961 211.129 571.197 211.129 Q573.651 211.129 575.942 210.527 Q578.257 209.925 580.526 208.721 L580.526 212.749 Q578.234 213.721 575.827 214.231 Q573.419 214.74 570.942 214.74 Q564.739 214.74 561.105 211.129 Q557.493 207.518 557.493 201.36 Q557.493 194.995 560.919 191.268 Q564.368 187.518 570.202 187.518 Q575.433 187.518 578.466 190.897 Q581.521 194.254 581.521 200.041 M577.262 198.791 Q577.216 195.296 575.294 193.212 Q573.396 191.129 570.248 191.129 Q566.683 191.129 564.53 193.143 Q562.401 195.157 562.077 198.814 L577.262 198.791 Z" fill="#000000" fill-rule="nonzero" fill-opacity="1" /><path clip-path="url(#clip350)" d="M605.572 192.078 L605.572 178.05 L609.831 178.05 L609.831 214.069 L605.572 214.069 L605.572 210.18 Q604.229 212.495 602.169 213.629 Q600.132 214.74 597.262 214.74 Q592.563 214.74 589.6 210.99 Q586.66 207.24 586.66 201.129 Q586.66 195.018 589.6 191.268 Q592.563 187.518 597.262 187.518 Q600.132 187.518 602.169 188.652 Q604.229 189.763 605.572 192.078 M591.058 201.129 Q591.058 205.828 592.979 208.513 Q594.924 211.175 598.303 211.175 Q601.683 211.175 603.627 208.513 Q605.572 205.828 605.572 201.129 Q605.572 196.43 603.627 193.768 Q601.683 191.083 598.303 191.083 Q594.924 191.083 592.979 193.768 Q591.058 196.43 591.058 201.129 Z" fill="#000000" fill-rule="nonzero" fill-opacity="1" /><path clip-path="url(#clip350)" d="M618.604 188.143 L622.863 188.143 L622.863 214.069 L618.604 214.069 L618.604 188.143 M618.604 178.05 L622.863 178.05 L622.863 183.444 L618.604 183.444 L618.604 178.05 Z" fill="#000000" fill-rule="nonzero" fill-opacity="1" /><path clip-path="url(#clip350)" d="M650.433 189.138 L650.433 193.12 Q648.627 192.124 646.799 191.638 Q644.993 191.129 643.141 191.129 Q638.998 191.129 636.706 193.768 Q634.414 196.384 634.414 201.129 Q634.414 205.874 636.706 208.513 Q638.998 211.129 643.141 211.129 Q644.993 211.129 646.799 210.643 Q648.627 210.133 650.433 209.138 L650.433 213.073 Q648.65 213.907 646.729 214.323 Q644.831 214.74 642.678 214.74 Q636.822 214.74 633.373 211.059 Q629.924 207.379 629.924 201.129 Q629.924 194.786 633.396 191.152 Q636.891 187.518 642.956 187.518 Q644.924 187.518 646.799 187.935 Q648.674 188.328 650.433 189.138 Z" fill="#000000" fill-rule="nonzero" fill-opacity="1" /><path clip-path="url(#clip350)" d="M662.053 180.782 L662.053 188.143 L670.826 188.143 L670.826 191.453 L662.053 191.453 L662.053 205.527 Q662.053 208.698 662.91 209.601 Q663.789 210.504 666.451 210.504 L670.826 210.504 L670.826 214.069 L666.451 214.069 Q661.521 214.069 659.646 212.24 Q657.771 210.388 657.771 205.527 L657.771 191.453 L654.646 191.453 L654.646 188.143 L657.771 188.143 L657.771 180.782 L662.053 180.782 Z" fill="#000000" fill-rule="nonzero" fill-opacity="1" /><path clip-path="url(#clip350)" d="M698.604 200.041 L698.604 202.124 L679.021 202.124 Q679.298 206.522 681.659 208.837 Q684.044 211.129 688.28 211.129 Q690.733 211.129 693.025 210.527 Q695.34 209.925 697.608 208.721 L697.608 212.749 Q695.317 213.721 692.909 214.231 Q690.502 214.74 688.025 214.74 Q681.822 214.74 678.187 211.129 Q674.576 207.518 674.576 201.36 Q674.576 194.995 678.002 191.268 Q681.451 187.518 687.284 187.518 Q692.516 187.518 695.548 190.897 Q698.604 194.254 698.604 200.041 M694.345 198.791 Q694.298 195.296 692.377 193.212 Q690.479 191.129 687.331 191.129 Q683.766 191.129 681.613 193.143 Q679.484 195.157 679.159 198.814 L694.345 198.791 Z" fill="#000000" fill-rule="nonzero" fill-opacity="1" /><path clip-path="url(#clip350)" d="M722.655 192.078 L722.655 178.05 L726.914 178.05 L726.914 214.069 L722.655 214.069 L722.655 210.18 Q721.312 212.495 719.252 213.629 Q717.215 214.74 714.344 214.74 Q709.645 214.74 706.682 210.99 Q703.743 207.24 703.743 201.129 Q703.743 195.018 706.682 191.268 Q709.645 187.518 714.344 187.518 Q717.215 187.518 719.252 188.652 Q721.312 189.763 722.655 192.078 M708.141 201.129 Q708.141 205.828 710.062 208.513 Q712.007 211.175 715.386 211.175 Q718.766 211.175 720.71 208.513 Q722.655 205.828 722.655 201.129 Q722.655 196.43 720.71 193.768 Q718.766 191.083 715.386 191.083 Q712.007 191.083 710.062 193.768 Q708.141 196.43 708.141 201.129 Z" fill="#000000" fill-rule="nonzero" fill-opacity="1" /></svg>
