<?xml version="1.0" encoding="utf-8"?>
<svg xmlns="http://www.w3.org/2000/svg" xmlns:xlink="http://www.w3.org/1999/xlink" width="600" height="400" viewBox="0 0 2400 1600">
<defs>
  <clipPath id="clip540">
    <rect x="0" y="0" width="2400" height="1600"/>
  </clipPath>
</defs>
<path clip-path="url(#clip540)" d="M0 1600 L2400 1600 L2400 0 L0 0  Z" fill="#ffffff" fill-rule="evenodd" fill-opacity="1"/>
<defs>
  <clipPath id="clip541">
    <rect x="480" y="0" width="1681" height="1600"/>
  </clipPath>
</defs>
<path clip-path="url(#clip540)" d="M257.204 1423.18 L2352.76 1423.18 L2352.76 47.2441 L257.204 47.2441  Z" fill="#ffffff" fill-rule="evenodd" fill-opacity="1"/>
<defs>
  <clipPath id="clip542">
    <rect x="257" y="47" width="2097" height="1377"/>
  </clipPath>
</defs>
<polyline clip-path="url(#clip542)" style="stroke:#000000; stroke-linecap:round; stroke-linejoin:round; stroke-width:2; stroke-opacity:0.1; fill:none" points="316.511,1423.18 316.511,47.2441 "/>
<polyline clip-path="url(#clip542)" style="stroke:#000000; stroke-linecap:round; stroke-linejoin:round; stroke-width:2; stroke-opacity:0.1; fill:none" points="810.745,1423.18 810.745,47.2441 "/>
<polyline clip-path="url(#clip542)" style="stroke:#000000; stroke-linecap:round; stroke-linejoin:round; stroke-width:2; stroke-opacity:0.1; fill:none" points="1304.98,1423.18 1304.98,47.2441 "/>
<polyline clip-path="url(#clip542)" style="stroke:#000000; stroke-linecap:round; stroke-linejoin:round; stroke-width:2; stroke-opacity:0.1; fill:none" points="1799.21,1423.18 1799.21,47.2441 "/>
<polyline clip-path="url(#clip542)" style="stroke:#000000; stroke-linecap:round; stroke-linejoin:round; stroke-width:2; stroke-opacity:0.1; fill:none" points="2293.45,1423.18 2293.45,47.2441 "/>
<polyline clip-path="url(#clip540)" style="stroke:#000000; stroke-linecap:round; stroke-linejoin:round; stroke-width:4; stroke-opacity:1; fill:none" points="257.204,1423.18 2352.76,1423.18 "/>
<polyline clip-path="url(#clip540)" style="stroke:#000000; stroke-linecap:round; stroke-linejoin:round; stroke-width:4; stroke-opacity:1; fill:none" points="316.511,1423.18 316.511,1404.28 "/>
<polyline clip-path="url(#clip540)" style="stroke:#000000; stroke-linecap:round; stroke-linejoin:round; stroke-width:4; stroke-opacity:1; fill:none" points="810.745,1423.18 810.745,1404.28 "/>
<polyline clip-path="url(#clip540)" style="stroke:#000000; stroke-linecap:round; stroke-linejoin:round; stroke-width:4; stroke-opacity:1; fill:none" points="1304.98,1423.18 1304.98,1404.28 "/>
<polyline clip-path="url(#clip540)" style="stroke:#000000; stroke-linecap:round; stroke-linejoin:round; stroke-width:4; stroke-opacity:1; fill:none" points="1799.21,1423.18 1799.21,1404.28 "/>
<polyline clip-path="url(#clip540)" style="stroke:#000000; stroke-linecap:round; stroke-linejoin:round; stroke-width:4; stroke-opacity:1; fill:none" points="2293.45,1423.18 2293.45,1404.28 "/>
<path clip-path="url(#clip540)" d="M263.039 1468.75 L292.715 1468.75 L292.715 1472.69 L263.039 1472.69 L263.039 1468.75 Z" fill="#000000" fill-rule="nonzero" fill-opacity="1" /><path clip-path="url(#clip540)" d="M303.617 1481.64 L311.256 1481.64 L311.256 1455.28 L302.946 1456.95 L302.946 1452.69 L311.21 1451.02 L315.886 1451.02 L315.886 1481.64 L323.525 1481.64 L323.525 1485.58 L303.617 1485.58 L303.617 1481.64 Z" fill="#000000" fill-rule="nonzero" fill-opacity="1" /><path clip-path="url(#clip540)" d="M332.969 1479.7 L337.853 1479.7 L337.853 1485.58 L332.969 1485.58 L332.969 1479.7 Z" fill="#000000" fill-rule="nonzero" fill-opacity="1" /><path clip-path="url(#clip540)" d="M358.038 1454.1 Q354.427 1454.1 352.599 1457.66 Q350.793 1461.2 350.793 1468.33 Q350.793 1475.44 352.599 1479.01 Q354.427 1482.55 358.038 1482.55 Q361.673 1482.55 363.478 1479.01 Q365.307 1475.44 365.307 1468.33 Q365.307 1461.2 363.478 1457.66 Q361.673 1454.1 358.038 1454.1 M358.038 1450.39 Q363.849 1450.39 366.904 1455 Q369.983 1459.58 369.983 1468.33 Q369.983 1477.06 366.904 1481.67 Q363.849 1486.25 358.038 1486.25 Q352.228 1486.25 349.15 1481.67 Q346.094 1477.06 346.094 1468.33 Q346.094 1459.58 349.15 1455 Q352.228 1450.39 358.038 1450.39 Z" fill="#000000" fill-rule="nonzero" fill-opacity="1" /><path clip-path="url(#clip540)" d="M757.771 1468.75 L787.447 1468.75 L787.447 1472.69 L757.771 1472.69 L757.771 1468.75 Z" fill="#000000" fill-rule="nonzero" fill-opacity="1" /><path clip-path="url(#clip540)" d="M807.539 1454.1 Q803.928 1454.1 802.1 1457.66 Q800.294 1461.2 800.294 1468.33 Q800.294 1475.44 802.1 1479.01 Q803.928 1482.55 807.539 1482.55 Q811.174 1482.55 812.979 1479.01 Q814.808 1475.44 814.808 1468.33 Q814.808 1461.2 812.979 1457.66 Q811.174 1454.1 807.539 1454.1 M807.539 1450.39 Q813.35 1450.39 816.405 1455 Q819.484 1459.58 819.484 1468.33 Q819.484 1477.06 816.405 1481.67 Q813.35 1486.25 807.539 1486.25 Q801.729 1486.25 798.651 1481.67 Q795.595 1477.06 795.595 1468.33 Q795.595 1459.58 798.651 1455 Q801.729 1450.39 807.539 1450.39 Z" fill="#000000" fill-rule="nonzero" fill-opacity="1" /><path clip-path="url(#clip540)" d="M827.701 1479.7 L832.586 1479.7 L832.586 1485.58 L827.701 1485.58 L827.701 1479.7 Z" fill="#000000" fill-rule="nonzero" fill-opacity="1" /><path clip-path="url(#clip540)" d="M842.817 1451.02 L861.173 1451.02 L861.173 1454.96 L847.099 1454.96 L847.099 1463.43 Q848.118 1463.08 849.136 1462.92 Q850.155 1462.73 851.173 1462.73 Q856.96 1462.73 860.34 1465.9 Q863.72 1469.08 863.72 1474.49 Q863.72 1480.07 860.247 1483.17 Q856.775 1486.25 850.456 1486.25 Q848.28 1486.25 846.011 1485.88 Q843.766 1485.51 841.359 1484.77 L841.359 1480.07 Q843.442 1481.2 845.664 1481.76 Q847.886 1482.32 850.363 1482.32 Q854.368 1482.32 856.706 1480.21 Q859.044 1478.1 859.044 1474.49 Q859.044 1470.88 856.706 1468.77 Q854.368 1466.67 850.363 1466.67 Q848.488 1466.67 846.613 1467.08 Q844.761 1467.5 842.817 1468.38 L842.817 1451.02 Z" fill="#000000" fill-rule="nonzero" fill-opacity="1" /><path clip-path="url(#clip540)" d="M1282.36 1454.1 Q1278.75 1454.1 1276.92 1457.66 Q1275.12 1461.2 1275.12 1468.33 Q1275.12 1475.44 1276.92 1479.01 Q1278.75 1482.55 1282.36 1482.55 Q1286 1482.55 1287.8 1479.01 Q1289.63 1475.44 1289.63 1468.33 Q1289.63 1461.2 1287.8 1457.66 Q1286 1454.1 1282.36 1454.1 M1282.36 1450.39 Q1288.17 1450.39 1291.23 1455 Q1294.31 1459.58 1294.31 1468.33 Q1294.31 1477.06 1291.23 1481.67 Q1288.17 1486.25 1282.36 1486.25 Q1276.55 1486.25 1273.48 1481.67 Q1270.42 1477.06 1270.42 1468.33 Q1270.42 1459.58 1273.48 1455 Q1276.55 1450.39 1282.36 1450.39 Z" fill="#000000" fill-rule="nonzero" fill-opacity="1" /><path clip-path="url(#clip540)" d="M1302.53 1479.7 L1307.41 1479.7 L1307.41 1485.58 L1302.53 1485.58 L1302.53 1479.7 Z" fill="#000000" fill-rule="nonzero" fill-opacity="1" /><path clip-path="url(#clip540)" d="M1327.6 1454.1 Q1323.98 1454.1 1322.16 1457.66 Q1320.35 1461.2 1320.35 1468.33 Q1320.35 1475.44 1322.16 1479.01 Q1323.98 1482.55 1327.6 1482.55 Q1331.23 1482.55 1333.04 1479.01 Q1334.86 1475.44 1334.86 1468.33 Q1334.86 1461.2 1333.04 1457.66 Q1331.23 1454.1 1327.6 1454.1 M1327.6 1450.39 Q1333.41 1450.39 1336.46 1455 Q1339.54 1459.58 1339.54 1468.33 Q1339.54 1477.06 1336.46 1481.67 Q1333.41 1486.25 1327.6 1486.25 Q1321.79 1486.25 1318.71 1481.67 Q1315.65 1477.06 1315.65 1468.33 Q1315.65 1459.58 1318.71 1455 Q1321.79 1450.39 1327.6 1450.39 Z" fill="#000000" fill-rule="nonzero" fill-opacity="1" /><path clip-path="url(#clip540)" d="M1777.1 1454.1 Q1773.49 1454.1 1771.66 1457.66 Q1769.85 1461.2 1769.85 1468.33 Q1769.85 1475.44 1771.66 1479.01 Q1773.49 1482.55 1777.1 1482.55 Q1780.73 1482.55 1782.54 1479.01 Q1784.37 1475.44 1784.37 1468.33 Q1784.37 1461.2 1782.54 1457.66 Q1780.73 1454.1 1777.1 1454.1 M1777.1 1450.39 Q1782.91 1450.39 1785.96 1455 Q1789.04 1459.58 1789.04 1468.33 Q1789.04 1477.06 1785.96 1481.67 Q1782.91 1486.25 1777.1 1486.25 Q1771.29 1486.25 1768.21 1481.67 Q1765.15 1477.06 1765.15 1468.33 Q1765.15 1459.58 1768.21 1455 Q1771.29 1450.39 1777.1 1450.39 Z" fill="#000000" fill-rule="nonzero" fill-opacity="1" /><path clip-path="url(#clip540)" d="M1797.26 1479.7 L1802.14 1479.7 L1802.14 1485.58 L1797.26 1485.58 L1797.26 1479.7 Z" fill="#000000" fill-rule="nonzero" fill-opacity="1" /><path clip-path="url(#clip540)" d="M1812.37 1451.02 L1830.73 1451.02 L1830.73 1454.96 L1816.66 1454.96 L1816.66 1463.43 Q1817.68 1463.08 1818.69 1462.92 Q1819.71 1462.73 1820.73 1462.73 Q1826.52 1462.73 1829.9 1465.9 Q1833.28 1469.08 1833.28 1474.49 Q1833.28 1480.07 1829.8 1483.17 Q1826.33 1486.25 1820.01 1486.25 Q1817.84 1486.25 1815.57 1485.88 Q1813.32 1485.51 1810.92 1484.77 L1810.92 1480.07 Q1813 1481.2 1815.22 1481.76 Q1817.44 1482.32 1819.92 1482.32 Q1823.93 1482.32 1826.26 1480.21 Q1828.6 1478.1 1828.6 1474.49 Q1828.6 1470.88 1826.26 1468.77 Q1823.93 1466.67 1819.92 1466.67 Q1818.05 1466.67 1816.17 1467.08 Q1814.32 1467.5 1812.37 1468.38 L1812.37 1451.02 Z" fill="#000000" fill-rule="nonzero" fill-opacity="1" /><path clip-path="url(#clip540)" d="M2260.6 1481.64 L2268.24 1481.64 L2268.24 1455.28 L2259.93 1456.95 L2259.93 1452.69 L2268.19 1451.02 L2272.87 1451.02 L2272.87 1481.64 L2280.51 1481.64 L2280.51 1485.58 L2260.6 1485.58 L2260.6 1481.64 Z" fill="#000000" fill-rule="nonzero" fill-opacity="1" /><path clip-path="url(#clip540)" d="M2289.95 1479.7 L2294.84 1479.7 L2294.84 1485.58 L2289.95 1485.58 L2289.95 1479.7 Z" fill="#000000" fill-rule="nonzero" fill-opacity="1" /><path clip-path="url(#clip540)" d="M2315.02 1454.1 Q2311.41 1454.1 2309.58 1457.66 Q2307.78 1461.2 2307.78 1468.33 Q2307.78 1475.44 2309.58 1479.01 Q2311.41 1482.55 2315.02 1482.55 Q2318.66 1482.55 2320.46 1479.01 Q2322.29 1475.44 2322.29 1468.33 Q2322.29 1461.2 2320.46 1457.66 Q2318.66 1454.1 2315.02 1454.1 M2315.02 1450.39 Q2320.83 1450.39 2323.89 1455 Q2326.97 1459.58 2326.97 1468.33 Q2326.97 1477.06 2323.89 1481.67 Q2320.83 1486.25 2315.02 1486.25 Q2309.21 1486.25 2306.13 1481.67 Q2303.08 1477.06 2303.08 1468.33 Q2303.08 1459.58 2306.13 1455 Q2309.21 1450.39 2315.02 1450.39 Z" fill="#000000" fill-rule="nonzero" fill-opacity="1" /><path clip-path="url(#clip540)" d="M1134.03 1525.81 L1134.03 1543.66 L1142.11 1543.66 Q1146.6 1543.66 1149.05 1541.34 Q1151.5 1539.02 1151.5 1534.72 Q1151.5 1530.45 1149.05 1528.13 Q1146.6 1525.81 1142.11 1525.81 L1134.03 1525.81 M1127.6 1520.52 L1142.11 1520.52 Q1150.1 1520.52 1154.18 1524.15 Q1158.28 1527.75 1158.28 1534.72 Q1158.28 1541.75 1154.18 1545.35 Q1150.1 1548.95 1142.11 1548.95 L1134.03 1548.95 L1134.03 1568.04 L1127.6 1568.04 L1127.6 1520.52 Z" fill="#000000" fill-rule="nonzero" fill-opacity="1" /><path clip-path="url(#clip540)" d="M1178.14 1536.5 Q1173.43 1536.5 1170.7 1540.19 Q1167.96 1543.85 1167.96 1550.25 Q1167.96 1556.65 1170.66 1560.34 Q1173.4 1564 1178.14 1564 Q1182.82 1564 1185.56 1560.31 Q1188.3 1556.62 1188.3 1550.25 Q1188.3 1543.92 1185.56 1540.23 Q1182.82 1536.5 1178.14 1536.5 M1178.14 1531.54 Q1185.78 1531.54 1190.14 1536.5 Q1194.5 1541.47 1194.5 1550.25 Q1194.5 1559 1190.14 1564 Q1185.78 1568.97 1178.14 1568.97 Q1170.47 1568.97 1166.11 1564 Q1161.78 1559 1161.78 1550.25 Q1161.78 1541.47 1166.11 1536.5 Q1170.47 1531.54 1178.14 1531.54 Z" fill="#000000" fill-rule="nonzero" fill-opacity="1" /><path clip-path="url(#clip540)" d="M1226.94 1533.45 L1226.94 1538.98 Q1224.45 1537.71 1221.78 1537.07 Q1219.11 1536.44 1216.24 1536.44 Q1211.88 1536.44 1209.69 1537.77 Q1207.52 1539.11 1207.52 1541.79 Q1207.52 1543.82 1209.08 1545 Q1210.64 1546.15 1215.35 1547.2 L1217.36 1547.64 Q1223.59 1548.98 1226.2 1551.43 Q1228.85 1553.85 1228.85 1558.21 Q1228.85 1563.17 1224.9 1566.07 Q1220.98 1568.97 1214.11 1568.97 Q1211.24 1568.97 1208.13 1568.39 Q1205.04 1567.85 1201.6 1566.74 L1201.6 1560.69 Q1204.85 1562.38 1208 1563.24 Q1211.15 1564.07 1214.24 1564.07 Q1218.37 1564.07 1220.6 1562.66 Q1222.83 1561.23 1222.83 1558.65 Q1222.83 1556.27 1221.21 1554.99 Q1219.62 1553.72 1214.17 1552.54 L1212.14 1552.07 Q1206.69 1550.92 1204.27 1548.56 Q1201.86 1546.18 1201.86 1542.04 Q1201.86 1537.01 1205.42 1534.27 Q1208.99 1531.54 1215.54 1531.54 Q1218.79 1531.54 1221.65 1532.01 Q1224.52 1532.49 1226.94 1533.45 Z" fill="#000000" fill-rule="nonzero" fill-opacity="1" /><path clip-path="url(#clip540)" d="M1238.17 1532.4 L1244.03 1532.4 L1244.03 1568.04 L1238.17 1568.04 L1238.17 1532.4 M1238.17 1518.52 L1244.03 1518.52 L1244.03 1525.93 L1238.17 1525.93 L1238.17 1518.52 Z" fill="#000000" fill-rule="nonzero" fill-opacity="1" /><path clip-path="url(#clip540)" d="M1262.08 1522.27 L1262.08 1532.4 L1274.14 1532.4 L1274.14 1536.95 L1262.08 1536.95 L1262.08 1556.3 Q1262.08 1560.66 1263.25 1561.9 Q1264.46 1563.14 1268.12 1563.14 L1274.14 1563.14 L1274.14 1568.04 L1268.12 1568.04 Q1261.34 1568.04 1258.76 1565.53 Q1256.19 1562.98 1256.19 1556.3 L1256.19 1536.95 L1251.89 1536.95 L1251.89 1532.4 L1256.19 1532.4 L1256.19 1522.27 L1262.08 1522.27 Z" fill="#000000" fill-rule="nonzero" fill-opacity="1" /><path clip-path="url(#clip540)" d="M1281.84 1532.4 L1287.7 1532.4 L1287.7 1568.04 L1281.84 1568.04 L1281.84 1532.4 M1281.84 1518.52 L1287.7 1518.52 L1287.7 1525.93 L1281.84 1525.93 L1281.84 1518.52 Z" fill="#000000" fill-rule="nonzero" fill-opacity="1" /><path clip-path="url(#clip540)" d="M1313.76 1536.5 Q1309.05 1536.5 1306.32 1540.19 Q1303.58 1543.85 1303.58 1550.25 Q1303.58 1556.65 1306.28 1560.34 Q1309.02 1564 1313.76 1564 Q1318.44 1564 1321.18 1560.31 Q1323.92 1556.62 1323.92 1550.25 Q1323.92 1543.92 1321.18 1540.23 Q1318.44 1536.5 1313.76 1536.5 M1313.76 1531.54 Q1321.4 1531.54 1325.76 1536.5 Q1330.12 1541.47 1330.12 1550.25 Q1330.12 1559 1325.76 1564 Q1321.4 1568.97 1313.76 1568.97 Q1306.09 1568.97 1301.73 1564 Q1297.4 1559 1297.4 1550.25 Q1297.4 1541.47 1301.73 1536.5 Q1306.09 1531.54 1313.76 1531.54 Z" fill="#000000" fill-rule="nonzero" fill-opacity="1" /><path clip-path="url(#clip540)" d="M1369.46 1546.53 L1369.46 1568.04 L1363.61 1568.04 L1363.61 1546.72 Q1363.61 1541.66 1361.63 1539.14 Q1359.66 1536.63 1355.71 1536.63 Q1350.97 1536.63 1348.23 1539.65 Q1345.5 1542.68 1345.5 1547.9 L1345.5 1568.04 L1339.61 1568.04 L1339.61 1532.4 L1345.5 1532.4 L1345.5 1537.93 Q1347.6 1534.72 1350.43 1533.13 Q1353.3 1531.54 1357.02 1531.54 Q1363.16 1531.54 1366.31 1535.36 Q1369.46 1539.14 1369.46 1546.53 Z" fill="#000000" fill-rule="nonzero" fill-opacity="1" /><path clip-path="url(#clip540)" d="M1415.93 1518.58 Q1411.67 1525.9 1409.6 1533.06 Q1407.53 1540.23 1407.53 1547.58 Q1407.53 1554.93 1409.6 1562.16 Q1411.7 1569.35 1415.93 1576.64 L1410.84 1576.64 Q1406.07 1569.16 1403.68 1561.93 Q1401.32 1554.71 1401.32 1547.58 Q1401.32 1540.48 1403.68 1533.29 Q1406.04 1526.09 1410.84 1518.58 L1415.93 1518.58 Z" fill="#000000" fill-rule="nonzero" fill-opacity="1" /><path clip-path="url(#clip540)" d="M1430.8 1550.25 Q1430.8 1556.71 1433.44 1560.4 Q1436.11 1564.07 1440.76 1564.07 Q1445.41 1564.07 1448.08 1560.4 Q1450.75 1556.71 1450.75 1550.25 Q1450.75 1543.79 1448.08 1540.13 Q1445.41 1536.44 1440.76 1536.44 Q1436.11 1536.44 1433.44 1540.13 Q1430.8 1543.79 1430.8 1550.25 M1450.75 1562.7 Q1448.91 1565.88 1446.08 1567.44 Q1443.27 1568.97 1439.33 1568.97 Q1432.87 1568.97 1428.79 1563.81 Q1424.75 1558.65 1424.75 1550.25 Q1424.75 1541.85 1428.79 1536.69 Q1432.87 1531.54 1439.33 1531.54 Q1443.27 1531.54 1446.08 1533.1 Q1448.91 1534.62 1450.75 1537.81 L1450.75 1532.4 L1456.61 1532.4 L1456.61 1581.6 L1450.75 1581.6 L1450.75 1562.7 Z" fill="#000000" fill-rule="nonzero" fill-opacity="1" /><path clip-path="url(#clip540)" d="M1467.75 1518.58 L1472.84 1518.58 Q1477.62 1526.09 1479.97 1533.29 Q1482.36 1540.48 1482.36 1547.58 Q1482.36 1554.71 1479.97 1561.93 Q1477.62 1569.16 1472.84 1576.64 L1467.75 1576.64 Q1471.98 1569.35 1474.05 1562.16 Q1476.15 1554.93 1476.15 1547.58 Q1476.15 1540.23 1474.05 1533.06 Q1471.98 1525.9 1467.75 1518.58 Z" fill="#000000" fill-rule="nonzero" fill-opacity="1" /><polyline clip-path="url(#clip542)" style="stroke:#000000; stroke-linecap:round; stroke-linejoin:round; stroke-width:2; stroke-opacity:0.1; fill:none" points="257.204,1384.24 2352.76,1384.24 "/>
<polyline clip-path="url(#clip542)" style="stroke:#000000; stroke-linecap:round; stroke-linejoin:round; stroke-width:2; stroke-opacity:0.1; fill:none" points="257.204,1059.73 2352.76,1059.73 "/>
<polyline clip-path="url(#clip542)" style="stroke:#000000; stroke-linecap:round; stroke-linejoin:round; stroke-width:2; stroke-opacity:0.1; fill:none" points="257.204,735.213 2352.76,735.213 "/>
<polyline clip-path="url(#clip542)" style="stroke:#000000; stroke-linecap:round; stroke-linejoin:round; stroke-width:2; stroke-opacity:0.1; fill:none" points="257.204,410.7 2352.76,410.7 "/>
<polyline clip-path="url(#clip542)" style="stroke:#000000; stroke-linecap:round; stroke-linejoin:round; stroke-width:2; stroke-opacity:0.1; fill:none" points="257.204,86.1857 2352.76,86.1857 "/>
<polyline clip-path="url(#clip540)" style="stroke:#000000; stroke-linecap:round; stroke-linejoin:round; stroke-width:4; stroke-opacity:1; fill:none" points="257.204,1423.18 257.204,47.2441 "/>
<polyline clip-path="url(#clip540)" style="stroke:#000000; stroke-linecap:round; stroke-linejoin:round; stroke-width:4; stroke-opacity:1; fill:none" points="257.204,1384.24 276.102,1384.24 "/>
<polyline clip-path="url(#clip540)" style="stroke:#000000; stroke-linecap:round; stroke-linejoin:round; stroke-width:4; stroke-opacity:1; fill:none" points="257.204,1059.73 276.102,1059.73 "/>
<polyline clip-path="url(#clip540)" style="stroke:#000000; stroke-linecap:round; stroke-linejoin:round; stroke-width:4; stroke-opacity:1; fill:none" points="257.204,735.213 276.102,735.213 "/>
<polyline clip-path="url(#clip540)" style="stroke:#000000; stroke-linecap:round; stroke-linejoin:round; stroke-width:4; stroke-opacity:1; fill:none" points="257.204,410.7 276.102,410.7 "/>
<polyline clip-path="url(#clip540)" style="stroke:#000000; stroke-linecap:round; stroke-linejoin:round; stroke-width:4; stroke-opacity:1; fill:none" points="257.204,86.1857 276.102,86.1857 "/>
<path clip-path="url(#clip540)" d="M114.26 1384.69 L143.936 1384.69 L143.936 1388.63 L114.26 1388.63 L114.26 1384.69 Z" fill="#000000" fill-rule="nonzero" fill-opacity="1" /><path clip-path="url(#clip540)" d="M154.839 1397.59 L162.477 1397.59 L162.477 1371.22 L154.167 1372.89 L154.167 1368.63 L162.431 1366.96 L167.107 1366.96 L167.107 1397.59 L174.746 1397.59 L174.746 1401.52 L154.839 1401.52 L154.839 1397.59 Z" fill="#000000" fill-rule="nonzero" fill-opacity="1" /><path clip-path="url(#clip540)" d="M184.19 1395.64 L189.075 1395.64 L189.075 1401.52 L184.19 1401.52 L184.19 1395.64 Z" fill="#000000" fill-rule="nonzero" fill-opacity="1" /><path clip-path="url(#clip540)" d="M209.26 1370.04 Q205.649 1370.04 203.82 1373.6 Q202.014 1377.15 202.014 1384.28 Q202.014 1391.38 203.82 1394.95 Q205.649 1398.49 209.26 1398.49 Q212.894 1398.49 214.699 1394.95 Q216.528 1391.38 216.528 1384.28 Q216.528 1377.15 214.699 1373.6 Q212.894 1370.04 209.26 1370.04 M209.26 1366.34 Q215.07 1366.34 218.125 1370.94 Q221.204 1375.53 221.204 1384.28 Q221.204 1393 218.125 1397.61 Q215.07 1402.19 209.26 1402.19 Q203.449 1402.19 200.371 1397.61 Q197.315 1393 197.315 1384.28 Q197.315 1375.53 200.371 1370.94 Q203.449 1366.34 209.26 1366.34 Z" fill="#000000" fill-rule="nonzero" fill-opacity="1" /><path clip-path="url(#clip540)" d="M115.256 1060.18 L144.931 1060.18 L144.931 1064.11 L115.256 1064.11 L115.256 1060.18 Z" fill="#000000" fill-rule="nonzero" fill-opacity="1" /><path clip-path="url(#clip540)" d="M165.024 1045.53 Q161.413 1045.53 159.584 1049.09 Q157.778 1052.63 157.778 1059.76 Q157.778 1066.87 159.584 1070.43 Q161.413 1073.98 165.024 1073.98 Q168.658 1073.98 170.464 1070.43 Q172.292 1066.87 172.292 1059.76 Q172.292 1052.63 170.464 1049.09 Q168.658 1045.53 165.024 1045.53 M165.024 1041.82 Q170.834 1041.82 173.889 1046.43 Q176.968 1051.01 176.968 1059.76 Q176.968 1068.49 173.889 1073.1 Q170.834 1077.68 165.024 1077.68 Q159.214 1077.68 156.135 1073.1 Q153.079 1068.49 153.079 1059.76 Q153.079 1051.01 156.135 1046.43 Q159.214 1041.82 165.024 1041.82 Z" fill="#000000" fill-rule="nonzero" fill-opacity="1" /><path clip-path="url(#clip540)" d="M185.186 1071.13 L190.07 1071.13 L190.07 1077.01 L185.186 1077.01 L185.186 1071.13 Z" fill="#000000" fill-rule="nonzero" fill-opacity="1" /><path clip-path="url(#clip540)" d="M200.301 1042.45 L218.658 1042.45 L218.658 1046.38 L204.584 1046.38 L204.584 1054.85 Q205.602 1054.51 206.621 1054.35 Q207.639 1054.16 208.658 1054.16 Q214.445 1054.16 217.824 1057.33 Q221.204 1060.5 221.204 1065.92 Q221.204 1071.5 217.732 1074.6 Q214.26 1077.68 207.94 1077.68 Q205.764 1077.68 203.496 1077.31 Q201.25 1076.94 198.843 1076.2 L198.843 1071.5 Q200.926 1072.63 203.149 1073.19 Q205.371 1073.74 207.848 1073.74 Q211.852 1073.74 214.19 1071.64 Q216.528 1069.53 216.528 1065.92 Q216.528 1062.31 214.19 1060.2 Q211.852 1058.1 207.848 1058.1 Q205.973 1058.1 204.098 1058.51 Q202.246 1058.93 200.301 1059.81 L200.301 1042.45 Z" fill="#000000" fill-rule="nonzero" fill-opacity="1" /><path clip-path="url(#clip540)" d="M164.028 721.012 Q160.417 721.012 158.589 724.577 Q156.783 728.119 156.783 735.248 Q156.783 742.355 158.589 745.919 Q160.417 749.461 164.028 749.461 Q167.663 749.461 169.468 745.919 Q171.297 742.355 171.297 735.248 Q171.297 728.119 169.468 724.577 Q167.663 721.012 164.028 721.012 M164.028 717.308 Q169.839 717.308 172.894 721.915 Q175.973 726.498 175.973 735.248 Q175.973 743.975 172.894 748.581 Q169.839 753.165 164.028 753.165 Q158.218 753.165 155.14 748.581 Q152.084 743.975 152.084 735.248 Q152.084 726.498 155.14 721.915 Q158.218 717.308 164.028 717.308 Z" fill="#000000" fill-rule="nonzero" fill-opacity="1" /><path clip-path="url(#clip540)" d="M184.19 746.614 L189.075 746.614 L189.075 752.493 L184.19 752.493 L184.19 746.614 Z" fill="#000000" fill-rule="nonzero" fill-opacity="1" /><path clip-path="url(#clip540)" d="M209.26 721.012 Q205.649 721.012 203.82 724.577 Q202.014 728.119 202.014 735.248 Q202.014 742.355 203.82 745.919 Q205.649 749.461 209.26 749.461 Q212.894 749.461 214.699 745.919 Q216.528 742.355 216.528 735.248 Q216.528 728.119 214.699 724.577 Q212.894 721.012 209.26 721.012 M209.26 717.308 Q215.07 717.308 218.125 721.915 Q221.204 726.498 221.204 735.248 Q221.204 743.975 218.125 748.581 Q215.07 753.165 209.26 753.165 Q203.449 753.165 200.371 748.581 Q197.315 743.975 197.315 735.248 Q197.315 726.498 200.371 721.915 Q203.449 717.308 209.26 717.308 Z" fill="#000000" fill-rule="nonzero" fill-opacity="1" /><path clip-path="url(#clip540)" d="M165.024 396.498 Q161.413 396.498 159.584 400.063 Q157.778 403.605 157.778 410.734 Q157.778 417.841 159.584 421.406 Q161.413 424.947 165.024 424.947 Q168.658 424.947 170.464 421.406 Q172.292 417.841 172.292 410.734 Q172.292 403.605 170.464 400.063 Q168.658 396.498 165.024 396.498 M165.024 392.795 Q170.834 392.795 173.889 397.401 Q176.968 401.984 176.968 410.734 Q176.968 419.461 173.889 424.068 Q170.834 428.651 165.024 428.651 Q159.214 428.651 156.135 424.068 Q153.079 419.461 153.079 410.734 Q153.079 401.984 156.135 397.401 Q159.214 392.795 165.024 392.795 Z" fill="#000000" fill-rule="nonzero" fill-opacity="1" /><path clip-path="url(#clip540)" d="M185.186 422.1 L190.07 422.1 L190.07 427.98 L185.186 427.98 L185.186 422.1 Z" fill="#000000" fill-rule="nonzero" fill-opacity="1" /><path clip-path="url(#clip540)" d="M200.301 393.42 L218.658 393.42 L218.658 397.355 L204.584 397.355 L204.584 405.827 Q205.602 405.48 206.621 405.318 Q207.639 405.132 208.658 405.132 Q214.445 405.132 217.824 408.304 Q221.204 411.475 221.204 416.892 Q221.204 422.47 217.732 425.572 Q214.26 428.651 207.94 428.651 Q205.764 428.651 203.496 428.281 Q201.25 427.91 198.843 427.169 L198.843 422.47 Q200.926 423.605 203.149 424.16 Q205.371 424.716 207.848 424.716 Q211.852 424.716 214.19 422.609 Q216.528 420.503 216.528 416.892 Q216.528 413.281 214.19 411.174 Q211.852 409.068 207.848 409.068 Q205.973 409.068 204.098 409.484 Q202.246 409.901 200.301 410.781 L200.301 393.42 Z" fill="#000000" fill-rule="nonzero" fill-opacity="1" /><path clip-path="url(#clip540)" d="M154.839 99.5305 L162.477 99.5305 L162.477 73.1649 L154.167 74.8316 L154.167 70.5723 L162.431 68.9057 L167.107 68.9057 L167.107 99.5305 L174.746 99.5305 L174.746 103.466 L154.839 103.466 L154.839 99.5305 Z" fill="#000000" fill-rule="nonzero" fill-opacity="1" /><path clip-path="url(#clip540)" d="M184.19 97.5861 L189.075 97.5861 L189.075 103.466 L184.19 103.466 L184.19 97.5861 Z" fill="#000000" fill-rule="nonzero" fill-opacity="1" /><path clip-path="url(#clip540)" d="M209.26 71.9844 Q205.649 71.9844 203.82 75.5492 Q202.014 79.0908 202.014 86.2204 Q202.014 93.3268 203.82 96.8916 Q205.649 100.433 209.26 100.433 Q212.894 100.433 214.699 96.8916 Q216.528 93.3268 216.528 86.2204 Q216.528 79.0908 214.699 75.5492 Q212.894 71.9844 209.26 71.9844 M209.26 68.2807 Q215.07 68.2807 218.125 72.8871 Q221.204 77.4704 221.204 86.2204 Q221.204 94.9472 218.125 99.5537 Q215.07 104.137 209.26 104.137 Q203.449 104.137 200.371 99.5537 Q197.315 94.9472 197.315 86.2204 Q197.315 77.4704 200.371 72.8871 Q203.449 68.2807 209.26 68.2807 Z" fill="#000000" fill-rule="nonzero" fill-opacity="1" /><path clip-path="url(#clip540)" d="M16.4842 971.396 L16.4842 961.815 L48.8219 949.689 L16.4842 937.498 L16.4842 927.918 L64.0042 927.918 L64.0042 934.188 L22.277 934.188 L54.8694 946.442 L54.8694 952.903 L22.277 965.157 L64.0042 965.157 L64.0042 971.396 L16.4842 971.396 Z" fill="#000000" fill-rule="nonzero" fill-opacity="1" /><path clip-path="url(#clip540)" d="M32.4621 901.596 Q32.4621 906.306 36.1542 909.044 Q39.8145 911.781 46.212 911.781 Q52.6095 911.781 56.3017 909.075 Q59.9619 906.338 59.9619 901.596 Q59.9619 896.917 56.2698 894.18 Q52.5777 891.442 46.212 891.442 Q39.8781 891.442 36.186 894.18 Q32.4621 896.917 32.4621 901.596 M27.4968 901.596 Q27.4968 893.957 32.4621 889.596 Q37.4273 885.236 46.212 885.236 Q54.9649 885.236 59.9619 889.596 Q64.9272 893.957 64.9272 901.596 Q64.9272 909.266 59.9619 913.627 Q54.9649 917.955 46.212 917.955 Q37.4273 917.955 32.4621 913.627 Q27.4968 909.266 27.4968 901.596 Z" fill="#000000" fill-rule="nonzero" fill-opacity="1" /><path clip-path="url(#clip540)" d="M35.1993 847.774 Q31.2526 845.577 29.3747 842.522 Q27.4968 839.466 27.4968 835.329 Q27.4968 829.759 31.4117 826.735 Q35.2948 823.711 42.4881 823.711 L64.0042 823.711 L64.0042 829.599 L42.679 829.599 Q37.5546 829.599 35.072 831.414 Q32.5894 833.228 32.5894 836.952 Q32.5894 841.503 35.6131 844.145 Q38.6368 846.787 43.8567 846.787 L64.0042 846.787 L64.0042 852.675 L42.679 852.675 Q37.5228 852.675 35.072 854.489 Q32.5894 856.304 32.5894 860.091 Q32.5894 864.579 35.6449 867.221 Q38.6686 869.863 43.8567 869.863 L64.0042 869.863 L64.0042 875.751 L28.3562 875.751 L28.3562 869.863 L33.8944 869.863 Q30.616 867.857 29.0564 865.056 Q27.4968 862.256 27.4968 858.404 Q27.4968 854.521 29.4702 851.816 Q31.4436 849.079 35.1993 847.774 Z" fill="#000000" fill-rule="nonzero" fill-opacity="1" /><path clip-path="url(#clip540)" d="M44.7161 781.538 L47.5806 781.538 L47.5806 808.465 Q53.6281 808.083 56.8109 804.837 Q59.9619 801.559 59.9619 795.734 Q59.9619 792.36 59.1344 789.209 Q58.3069 786.026 56.6518 782.907 L62.1899 782.907 Q63.5267 786.058 64.227 789.368 Q64.9272 792.678 64.9272 796.084 Q64.9272 804.614 59.9619 809.611 Q54.9967 814.576 46.5303 814.576 Q37.7774 814.576 32.6531 809.866 Q27.4968 805.123 27.4968 797.103 Q27.4968 789.909 32.1438 785.74 Q36.7589 781.538 44.7161 781.538 M42.9973 787.395 Q38.1912 787.459 35.3266 790.1 Q32.4621 792.71 32.4621 797.039 Q32.4621 801.94 35.2312 804.901 Q38.0002 807.829 43.0292 808.274 L42.9973 787.395 Z" fill="#000000" fill-rule="nonzero" fill-opacity="1" /><path clip-path="url(#clip540)" d="M42.4881 742.294 L64.0042 742.294 L64.0042 748.15 L42.679 748.15 Q37.6183 748.15 35.1038 750.124 Q32.5894 752.097 32.5894 756.044 Q32.5894 760.786 35.6131 763.523 Q38.6368 766.261 43.8567 766.261 L64.0042 766.261 L64.0042 772.149 L28.3562 772.149 L28.3562 766.261 L33.8944 766.261 Q30.6797 764.16 29.0883 761.327 Q27.4968 758.463 27.4968 754.739 Q27.4968 748.596 31.3163 745.445 Q35.1038 742.294 42.4881 742.294 Z" fill="#000000" fill-rule="nonzero" fill-opacity="1" /><path clip-path="url(#clip540)" d="M18.2347 724.82 L28.3562 724.82 L28.3562 712.757 L32.9077 712.757 L32.9077 724.82 L52.2594 724.82 Q56.6199 724.82 57.8613 723.642 Q59.1026 722.433 59.1026 718.773 L59.1026 712.757 L64.0042 712.757 L64.0042 718.773 Q64.0042 725.552 61.4897 728.13 Q58.9434 730.708 52.2594 730.708 L32.9077 730.708 L32.9077 735.005 L28.3562 735.005 L28.3562 730.708 L18.2347 730.708 L18.2347 724.82 Z" fill="#000000" fill-rule="nonzero" fill-opacity="1" /><path clip-path="url(#clip540)" d="M49.9359 705.659 L28.3562 705.659 L28.3562 699.803 L49.7131 699.803 Q54.7739 699.803 57.3202 697.829 Q59.8346 695.856 59.8346 691.909 Q59.8346 687.167 56.8109 684.43 Q53.7872 681.66 48.5673 681.66 L28.3562 681.66 L28.3562 675.804 L64.0042 675.804 L64.0042 681.66 L58.5296 681.66 Q61.7762 683.793 63.3676 686.626 Q64.9272 689.427 64.9272 693.151 Q64.9272 699.293 61.1078 702.476 Q57.2883 705.659 49.9359 705.659 M27.4968 690.923 L27.4968 690.923 Z" fill="#000000" fill-rule="nonzero" fill-opacity="1" /><path clip-path="url(#clip540)" d="M35.1993 635.987 Q31.2526 633.79 29.3747 630.735 Q27.4968 627.679 27.4968 623.542 Q27.4968 617.972 31.4117 614.948 Q35.2948 611.924 42.4881 611.924 L64.0042 611.924 L64.0042 617.812 L42.679 617.812 Q37.5546 617.812 35.072 619.627 Q32.5894 621.441 32.5894 625.165 Q32.5894 629.716 35.6131 632.358 Q38.6368 635 43.8567 635 L64.0042 635 L64.0042 640.888 L42.679 640.888 Q37.5228 640.888 35.072 642.702 Q32.5894 644.517 32.5894 648.304 Q32.5894 652.792 35.6449 655.434 Q38.6686 658.076 43.8567 658.076 L64.0042 658.076 L64.0042 663.964 L28.3562 663.964 L28.3562 658.076 L33.8944 658.076 Q30.616 656.07 29.0564 653.269 Q27.4968 650.468 27.4968 646.617 Q27.4968 642.734 29.4702 640.029 Q31.4436 637.291 35.1993 635.987 Z" fill="#000000" fill-rule="nonzero" fill-opacity="1" /><path clip-path="url(#clip540)" d="M14.5426 565.454 Q21.8632 569.72 29.0246 571.788 Q36.186 573.857 43.5384 573.857 Q50.8908 573.857 58.1159 571.788 Q65.3091 569.688 72.5979 565.454 L72.5979 570.547 Q65.1182 575.321 57.8931 577.708 Q50.668 580.064 43.5384 580.064 Q36.4406 580.064 29.2474 577.708 Q22.0542 575.353 14.5426 570.547 L14.5426 565.454 Z" fill="#000000" fill-rule="nonzero" fill-opacity="1" /><path clip-path="url(#clip540)" d="M58.657 548.426 L77.5631 548.426 L77.5631 554.315 L28.3562 554.315 L28.3562 548.426 L33.7671 548.426 Q30.5842 546.58 29.0564 543.779 Q27.4968 540.947 27.4968 537.032 Q27.4968 530.539 32.6531 526.496 Q37.8093 522.422 46.212 522.422 Q54.6147 522.422 59.771 526.496 Q64.9272 530.539 64.9272 537.032 Q64.9272 540.947 63.3994 543.779 Q61.8398 546.58 58.657 548.426 M46.212 528.502 Q39.7508 528.502 36.0905 531.175 Q32.3984 533.817 32.3984 538.464 Q32.3984 543.111 36.0905 545.784 Q39.7508 548.426 46.212 548.426 Q52.6732 548.426 56.3653 545.784 Q60.0256 543.111 60.0256 538.464 Q60.0256 533.817 56.3653 531.175 Q52.6732 528.502 46.212 528.502 Z" fill="#000000" fill-rule="nonzero" fill-opacity="1" /><path clip-path="url(#clip540)" d="M14.5426 513.638 L14.5426 508.545 Q22.0542 503.771 29.2474 501.415 Q36.4406 499.028 43.5384 499.028 Q50.668 499.028 57.8931 501.415 Q65.1182 503.771 72.5979 508.545 L72.5979 513.638 Q65.3091 509.404 58.1159 507.336 Q50.8908 505.235 43.5384 505.235 Q36.186 505.235 29.0246 507.336 Q21.8632 509.404 14.5426 513.638 Z" fill="#000000" fill-rule="nonzero" fill-opacity="1" /><polyline clip-path="url(#clip542)" style="stroke:#009af9; stroke-linecap:round; stroke-linejoin:round; stroke-width:16; stroke-opacity:1; fill:none" points="1304.98,86.1857 1311.05,86.1979 1317.12,86.2346 1323.19,86.2958 1329.26,86.3815 1335.33,86.4917 1341.4,86.6263 1347.46,86.7854 1353.53,86.969 1359.59,87.177 1365.65,87.4095 1371.71,87.6663 1377.77,87.9477 1383.82,88.2534 1389.87,88.5836 1395.92,88.9381 1401.96,89.317 1408,89.7203 1414.04,90.148 1420.07,90.5999 1426.1,91.0762 1432.12,91.5768 1438.14,92.1017 1444.15,92.6508 1450.16,93.2242 1456.16,93.8217 1462.16,94.4435 1468.15,95.0894 1474.13,95.7595 1480.11,96.4537 1486.08,97.1721 1492.05,97.9144 1498.01,98.6809 1503.96,99.4713 1509.9,100.286 1515.84,101.124 1521.76,101.986 1527.68,102.873 1533.59,103.783 1539.5,104.716 1545.39,105.674 1551.27,106.655 1557.15,107.661 1563.01,108.689 1568.87,109.742 1574.71,110.818 1580.55,111.917 1586.38,113.04 1592.19,114.187 1597.99,115.357 1603.79,116.55 1609.57,117.767 1615.34,119.007 1621.1,120.27 1626.84,121.556 1632.58,122.866 1638.3,124.199 1644.01,125.554 1649.7,126.933 1655.39,128.335 1661.06,129.759 1666.71,131.207 1672.36,132.677 1677.99,134.17 1683.6,135.685 1689.2,137.224 1694.79,138.784 1700.36,140.368 1705.92,141.973 1711.46,143.601 1716.98,145.252 1722.5,146.924 1727.99,148.619 1733.47,150.336 1738.93,152.075 1744.38,153.836 1749.81,155.619 1755.22,157.424 1760.62,159.251 1766,161.099 1771.36,162.969 1776.7,164.861 1782.03,166.774 1787.34,168.708 1792.63,170.664 1797.9,172.641 1803.15,174.64 1808.39,176.659 1813.6,178.7 1818.8,180.762 1823.97,182.844 1829.13,184.948 1834.27,187.072 1839.39,189.217 1844.48,191.382 1849.56,193.568 1854.62,195.774 1859.65,198.001 1864.67,200.248 1869.66,202.515 1874.63,204.802 1879.58,207.11 1884.51,209.437 1889.42,211.784 1894.31,214.151 1899.17,216.537 1904.01,218.943 1908.83,221.369 1913.62,223.814 1918.39,226.278 1923.14,228.761 1927.87,231.263 1932.57,233.785 1937.25,236.325 1941.9,238.885 1946.54,241.462 1951.14,244.059 1955.72,246.674 1960.28,249.308 1964.81,251.959 1969.32,254.629 1973.81,257.318 1978.26,260.024 1982.7,262.748 1987.1,265.49 1991.48,268.25 1995.84,271.027 2000.17,273.822 2004.47,276.634 2008.75,279.464 2013,282.31 2017.22,285.174 2021.42,288.055 2025.58,290.952 2029.73,293.867 2033.84,296.798 2037.93,299.745 2041.99,302.71 2046.02,305.69 2050.02,308.686 2054,311.699 2057.95,314.728 2061.87,317.772 2065.76,320.832 2069.62,323.908 2073.45,326.999 2077.26,330.106 2081.03,333.228 2084.78,336.365 2088.49,339.518 2092.18,342.685 2095.84,345.867 2099.46,349.064 2103.06,352.275 2106.63,355.5 2110.16,358.74 2113.67,361.995 2117.15,365.263 2120.59,368.545 2124.01,371.841 2127.39,375.151 2130.74,378.474 2134.06,381.811 2137.35,385.161 2140.61,388.525 2143.84,391.901 2147.03,395.291 2150.2,398.693 2153.33,402.108 2156.43,405.535 2159.5,408.975 2162.53,412.427 2165.54,415.892 2168.51,419.368 2171.45,422.856 2174.35,426.357 2177.22,429.868 2180.06,433.392 2182.87,436.926 2185.64,440.472 2188.38,444.029 2191.09,447.597 2193.76,451.176 2196.4,454.766 2199.01,458.366 2201.58,461.977 2204.12,465.598 2206.63,469.229 2209.1,472.87 2211.54,476.521 2213.94,480.182 2216.31,483.852 2218.64,487.532 2220.94,491.221 2223.21,494.92 2225.44,498.627 2227.63,502.344 2229.79,506.069 2231.92,509.803 2234.01,513.545 2236.07,517.296 2238.09,521.055 2240.07,524.822 2242.02,528.597 2243.94,532.38 2245.82,536.17 2247.66,539.968 2249.47,543.773 2251.24,547.586 2252.98,551.405 2254.68,555.232 2256.35,559.065 2257.98,562.905 2259.57,566.751 2261.13,570.604 2262.65,574.463 2264.14,578.328 2265.59,582.199 2267,586.076 2268.38,589.959 2269.72,593.846 2271.02,597.74 2272.29,601.638 2273.52,605.542 2274.71,609.45 2275.87,613.363 2276.99,617.281 2278.08,621.203 2279.13,625.129 2280.14,629.06 2281.11,632.994 2282.05,636.933 2282.95,640.875 2283.82,644.821 2284.64,648.77 2285.43,652.722 2286.19,656.677 2286.9,660.636 2287.58,664.597 2288.22,668.561 2288.83,672.528 2289.4,676.496 2289.93,680.467 2290.42,684.44 2290.88,688.415 2291.3,692.392 2291.68,696.371 2292.02,700.35 2292.33,704.332 2292.6,708.314 2292.83,712.297 2293.03,716.281 2293.19,720.266 2293.31,724.252 2293.39,728.238 2293.44,732.224 2293.45,736.21 2293.42,740.196 2293.35,744.182 2293.25,748.168 2293.11,752.153 2292.94,756.138 2292.72,760.122 2292.47,764.105 2292.18,768.086 2291.85,772.067 2291.49,776.046 2291.09,780.023 2290.65,783.999 2290.18,787.973 2289.67,791.945 2289.12,795.915 2288.53,799.883 2287.91,803.848 2287.25,807.811 2286.55,811.771 2285.81,815.728 2285.04,819.682 2284.23,823.632 2283.39,827.58 2282.51,831.524 2281.59,835.464 2280.63,839.401 2279.64,843.333 2278.61,847.262 2277.54,851.186 2276.44,855.106 2275.3,859.021 2274.12,862.932 2272.91,866.838 2271.66,870.739 2270.37,874.635 2269.05,878.525 2267.69,882.41 2266.3,886.29 2264.87,890.164 2263.4,894.032 2261.89,897.894 2260.35,901.75 2258.78,905.6 2257.17,909.443 2255.52,913.279 2253.84,917.109 2252.12,920.932 2250.36,924.749 2248.57,928.557 2246.74,932.359 2244.88,936.153 2242.98,939.94 2241.05,943.719 2239.08,947.49 2237.08,951.253 2235.04,955.008 2232.97,958.754 2230.86,962.492 2228.72,966.222 2226.54,969.943 2224.33,973.655 2222.08,977.358 2219.8,981.052 2217.48,984.736 2215.13,988.411 2212.74,992.077 2210.32,995.733 2207.87,999.379 2205.38,1003.02 2202.86,1006.64 2200.3,1010.26 2197.71,1013.86 2195.09,1017.46 2192.43,1021.04 2189.74,1024.62 2187.02,1028.18 2184.26,1031.73 2181.47,1035.27 2178.65,1038.8 2175.79,1042.32 2172.9,1045.82 2169.98,1049.32 2167.03,1052.8 2164.04,1056.27 2161.02,1059.73 2157.97,1063.17 2154.88,1066.61 2151.77,1070.03 2148.62,1073.44 2145.44,1076.83 2142.23,1080.22 2138.99,1083.59 2135.71,1086.94 2132.41,1090.29 2129.07,1093.62 2125.7,1096.93 2122.3,1100.24 2118.87,1103.52 2115.41,1106.8 2111.92,1110.06 2108.4,1113.31 2104.85,1116.54 2101.26,1119.76 2097.65,1122.96 2094.01,1126.15 2090.34,1129.33 2086.64,1132.49 2082.91,1135.63 2079.15,1138.76 2075.36,1141.88 2071.54,1144.98 2067.69,1148.06 2063.81,1151.13 2059.91,1154.18 2055.98,1157.22 2052.01,1160.24 2048.03,1163.24 2044.01,1166.23 2039.96,1169.2 2035.89,1172.16 2031.79,1175.1 2027.66,1178.02 2023.5,1180.93 2019.32,1183.81 2015.11,1186.69 2010.87,1189.54 2006.61,1192.38 2002.32,1195.2 1998.01,1198 1993.66,1200.79 1989.3,1203.56 1984.9,1206.31 1980.48,1209.04 1976.04,1211.76 1971.57,1214.46 1967.07,1217.13 1962.55,1219.8 1958.01,1222.44 1953.44,1225.06 1948.84,1227.67 1944.22,1230.26 1939.58,1232.82 1934.91,1235.37 1930.22,1237.91 1925.51,1240.42 1920.77,1242.91 1916.01,1245.38 1911.23,1247.84 1906.42,1250.27 1901.59,1252.69 1896.74,1255.09 1891.87,1257.46 1886.97,1259.82 1882.05,1262.16 1877.11,1264.47 1872.15,1266.77 1867.17,1269.05 1862.16,1271.31 1857.14,1273.54 1852.09,1275.76 1847.02,1277.95 1841.94,1280.13 1836.83,1282.29 1831.7,1284.42 1826.56,1286.53 1821.39,1288.63 1816.2,1290.7 1811,1292.75 1805.77,1294.78 1800.53,1296.79 1795.27,1298.78 1789.99,1300.74 1784.69,1302.69 1779.37,1304.61 1774.03,1306.52 1768.68,1308.4 1763.31,1310.25 1757.92,1312.09 1752.52,1313.91 1747.1,1315.7 1741.66,1317.47 1736.2,1319.22 1730.73,1320.95 1725.25,1322.66 1719.74,1324.34 1714.22,1326 1708.69,1327.64 1703.14,1329.26 1697.58,1330.85 1692,1332.43 1686.4,1333.98 1680.8,1335.5 1675.17,1337.01 1669.54,1338.49 1663.89,1339.95 1658.22,1341.38 1652.55,1342.8 1646.86,1344.19 1641.15,1345.55 1635.44,1346.9 1629.71,1348.22 1623.97,1349.52 1618.22,1350.79 1612.45,1352.04 1606.68,1353.27 1600.89,1354.48 1595.09,1355.66 1589.28,1356.82 1583.46,1357.95 1577.63,1359.06 1571.79,1360.15 1565.94,1361.21 1560.08,1362.26 1554.21,1363.27 1548.33,1364.27 1542.44,1365.23 1536.55,1366.18 1530.64,1367.1 1524.72,1368 1518.8,1368.87 1512.87,1369.73 1506.93,1370.55 1500.98,1371.35 1495.03,1372.13 1489.07,1372.89 1483.1,1373.62 1477.12,1374.32 1471.14,1375.01 1465.15,1375.66 1459.16,1376.3 1453.16,1376.91 1447.16,1377.49 1441.15,1378.05 1435.13,1378.59 1429.11,1379.1 1423.08,1379.59 1417.05,1380.06 1411.02,1380.5 1404.98,1380.91 1398.94,1381.3 1392.89,1381.67 1386.85,1382.01 1380.79,1382.33 1374.74,1382.62 1368.68,1382.89 1362.62,1383.14 1356.56,1383.36 1350.5,1383.55 1344.43,1383.72 1338.36,1383.87 1332.3,1383.99 1326.23,1384.09 1320.16,1384.16 1314.09,1384.21 1308.02,1384.24 1301.94,1384.24 1295.87,1384.21 1289.8,1384.16 1283.73,1384.09 1277.66,1383.99 1271.6,1383.87 1265.53,1383.72 1259.46,1383.55 1253.4,1383.36 1247.34,1383.14 1241.28,1382.89 1235.22,1382.62 1229.17,1382.33 1223.11,1382.01 1217.07,1381.67 1211.02,1381.3 1204.98,1380.91 1198.94,1380.5 1192.91,1380.06 1186.88,1379.59 1180.85,1379.1 1174.83,1378.59 1168.81,1378.05 1162.8,1377.49 1156.8,1376.91 1150.8,1376.3 1144.81,1375.66 1138.82,1375.01 1132.84,1374.32 1126.86,1373.62 1120.89,1372.89 1114.93,1372.13 1108.98,1371.35 1103.03,1370.55 1097.09,1369.73 1091.16,1368.87 1085.24,1368 1079.32,1367.1 1073.41,1366.18 1067.52,1365.23 1061.63,1364.27 1055.75,1363.27 1049.88,1362.26 1044.02,1361.21 1038.17,1360.15 1032.33,1359.06 1026.5,1357.95 1020.68,1356.82 1014.87,1355.66 1009.07,1354.48 1003.28,1353.27 997.506,1352.04 991.742,1350.79 985.99,1349.52 980.249,1348.22 974.521,1346.9 968.806,1345.55 963.103,1344.19 957.413,1342.8 951.736,1341.38 946.073,1339.95 940.423,1338.49 934.787,1337.01 929.164,1335.5 923.556,1333.98 917.963,1332.43 912.384,1330.85 906.819,1329.26 901.27,1327.64 895.736,1326 890.218,1324.34 884.714,1322.66 879.227,1320.95 873.756,1319.22 868.302,1317.47 862.863,1315.7 857.442,1313.91 852.037,1312.09 846.65,1310.25 841.279,1308.4 835.926,1306.51 830.591,1304.61 825.274,1302.69 819.975,1300.74 814.694,1298.78 809.431,1296.79 804.188,1294.78 798.963,1292.75 793.757,1290.7 788.571,1288.63 783.404,1286.53 778.257,1284.42 773.129,1282.29 768.022,1280.13 762.935,1277.95 757.868,1275.76 752.822,1273.54 747.797,1271.3 742.793,1269.05 737.81,1266.77 732.849,1264.47 727.909,1262.16 722.991,1259.82 718.094,1257.46 713.22,1255.09 708.368,1252.69 703.539,1250.27 698.732,1247.84 693.949,1245.38 689.188,1242.91 684.451,1240.42 679.737,1237.91 675.046,1235.37 670.38,1232.82 665.737,1230.26 661.118,1227.67 656.524,1225.06 651.954,1222.44 647.409,1219.8 642.888,1217.13 638.393,1214.46 633.923,1211.76 629.478,1209.04 625.058,1206.31 620.664,1203.56 616.296,1200.79 611.954,1198 607.638,1195.2 603.349,1192.38 599.086,1189.54 594.849,1186.69 590.639,1183.81 586.457,1180.93 582.301,1178.02 578.173,1175.1 574.072,1172.16 569.998,1169.2 565.952,1166.23 561.935,1163.24 557.945,1160.24 553.983,1157.22 550.05,1154.18 546.145,1151.13 542.269,1148.06 538.422,1144.98 534.603,1141.88 530.814,1138.76 527.053,1135.63 523.323,1132.49 519.621,1129.33 515.949,1126.15 512.307,1122.96 508.695,1119.76 505.113,1116.54 501.561,1113.31 498.04,1110.06 494.549,1106.8 491.088,1103.52 487.658,1100.24 484.259,1096.93 480.891,1093.62 477.554,1090.29 474.248,1086.94 470.974,1083.59 467.731,1080.22 464.52,1076.83 461.34,1073.44 458.192,1070.03 455.076,1066.61 451.992,1063.17 448.941,1059.73 445.921,1056.27 442.934,1052.8 439.98,1049.32 437.058,1045.82 434.169,1042.32 431.313,1038.8 428.489,1035.27 425.699,1031.73 422.942,1028.18 420.218,1024.62 417.528,1021.04 414.871,1017.46 412.248,1013.86 409.658,1010.26 407.102,1006.64 404.58,1003.01 402.092,999.379 399.638,995.733 397.218,992.077 394.833,988.411 392.481,984.736 390.164,981.051 387.882,977.358 385.634,973.655 383.421,969.942 381.243,966.222 379.1,962.492 376.991,958.754 374.918,955.007 372.879,951.253 370.876,947.49 368.908,943.719 366.975,939.94 365.078,936.153 363.216,932.359 361.39,928.557 359.599,924.748 357.844,920.932 356.124,917.109 354.441,913.279 352.793,909.443 351.181,905.599 349.606,901.75 348.066,897.894 346.562,894.032 345.094,890.164 343.663,886.29 342.268,882.41 340.909,878.525 339.587,874.635 338.301,870.739 337.052,866.838 335.839,862.932 334.662,859.021 333.522,855.106 332.419,851.186 331.353,847.262 330.323,843.333 329.33,839.4 328.374,835.464 327.455,831.524 326.572,827.58 325.727,823.632 324.918,819.681 324.146,815.728 323.412,811.771 322.714,807.811 322.054,803.848 321.43,799.883 320.844,795.915 320.294,791.945 319.782,787.973 319.307,783.999 318.87,780.023 318.469,776.046 318.106,772.067 317.78,768.086 317.491,764.104 317.239,760.121 317.025,756.138 316.848,752.153 316.708,748.168 316.605,744.182 316.54,740.196 316.512,736.21 316.521,732.224 316.568,728.238 316.652,724.252 316.773,720.266 316.932,716.281 317.127,712.297 317.36,708.314 317.631,704.332 317.938,700.35 318.283,696.37 318.665,692.392 319.084,688.415 319.54,684.44 320.034,680.467 320.564,676.496 321.132,672.527 321.737,668.561 322.379,664.597 323.058,660.636 323.774,656.677 324.528,652.722 325.318,648.77 326.145,644.82 327.009,640.875 327.91,636.932 328.847,632.994 329.822,629.059 330.833,625.129 331.881,621.203 332.966,617.281 334.088,613.363 335.246,609.45 336.441,605.541 337.672,601.638 338.94,597.74 340.244,593.846 341.584,589.959 342.961,586.076 344.374,582.199 345.824,578.328 347.309,574.463 348.831,570.604 350.389,566.752 351.983,562.905 353.613,559.065 355.278,555.232 356.98,551.405 358.717,547.586 360.49,543.773 362.298,539.968 364.143,536.17 366.022,532.38 367.937,528.597 369.887,524.822 371.873,521.055 373.894,517.296 375.95,513.545 378.041,509.803 380.167,506.069 382.328,502.343 384.524,498.627 386.754,494.92 389.019,491.221 391.319,487.532 393.653,483.852 396.021,480.182 398.424,476.521 400.861,472.87 403.332,469.228 405.837,465.598 408.376,461.976 410.949,458.366 413.555,454.766 416.195,451.176 418.869,447.597 421.576,444.029 424.317,440.472 427.09,436.926 429.897,433.392 432.737,429.868 435.609,426.356 438.515,422.856 441.453,419.368 444.424,415.891 447.427,412.427 450.463,408.975 453.53,405.535 456.63,402.108 459.762,398.693 462.926,395.29 466.121,391.901 469.349,388.525 472.607,385.161 475.897,381.811 479.219,378.474 482.571,375.151 485.955,371.841 489.369,368.545 492.815,365.263 496.29,361.995 499.797,358.74 503.334,355.5 506.901,352.275 510.498,349.063 514.125,345.867 517.782,342.685 521.468,339.518 525.185,336.365 528.93,333.228 532.705,330.106 536.509,326.999 540.342,323.908 544.203,320.832 548.094,317.772 552.013,314.727 555.961,311.699 559.937,308.686 563.94,305.69 567.972,302.709 572.032,299.745 576.119,296.798 580.233,293.867 584.376,290.952 588.545,288.055 592.741,285.174 596.964,282.31 601.214,279.463 605.491,276.634 609.793,273.822 614.122,271.027 618.477,268.25 622.858,265.49 627.265,262.748 631.697,260.024 636.155,257.318 640.638,254.629 645.146,251.959 649.679,249.307 654.236,246.674 658.818,244.059 663.425,241.462 668.055,238.884 672.71,236.325 677.389,233.785 682.091,231.263 686.817,228.761 691.566,226.278 696.338,223.814 701.133,221.369 705.951,218.943 710.792,216.537 715.655,214.151 720.54,211.784 725.447,209.437 730.376,207.11 735.327,204.802 740.299,202.515 745.293,200.248 750.307,198.001 755.343,195.774 760.399,193.568 765.476,191.382 770.574,189.216 775.691,187.072 780.828,184.947 785.985,182.844 791.162,180.762 796.358,178.7 801.573,176.659 806.807,174.64 812.061,172.641 817.332,170.664 822.622,168.708 827.931,166.773 833.257,164.86 838.601,162.969 843.962,161.099 849.342,159.25 854.738,157.424 860.151,155.619 865.581,153.836 871.027,152.075 876.49,150.336 881.969,148.619 887.464,146.924 892.975,145.252 898.502,143.601 904.043,141.973 909.6,140.367 915.171,138.784 920.758,137.223 926.359,135.685 931.974,134.17 937.603,132.677 943.246,131.207 948.903,129.759 954.573,128.335 960.257,126.933 965.953,125.554 971.663,124.199 977.384,122.866 983.118,121.556 988.864,120.27 994.623,119.007 1000.39,117.767 1006.17,116.55 1011.97,115.357 1017.77,114.187 1023.59,113.04 1029.41,111.917 1035.25,110.818 1041.09,109.742 1046.95,108.689 1052.81,107.661 1058.69,106.655 1064.57,105.674 1070.47,104.716 1076.37,103.783 1082.28,102.873 1088.2,101.986 1094.12,101.124 1100.06,100.286 1106,99.4713 1111.95,98.6808 1117.91,97.9144 1123.88,97.172 1129.85,96.4537 1135.83,95.7595 1141.81,95.0894 1147.8,94.4435 1153.8,93.8217 1159.8,93.2241 1165.81,92.6507 1171.82,92.1016 1177.84,91.5767 1183.86,91.0762 1189.89,90.5999 1195.92,90.148 1201.96,89.7203 1208,89.317 1214.04,88.9381 1220.09,88.5836 1226.14,88.2534 1232.19,87.9477 1238.25,87.6663 1244.31,87.4094 1250.37,87.177 1256.43,86.969 1262.5,86.7854 1268.56,86.6263 1274.63,86.4917 1280.7,86.3815 1286.77,86.2958 1292.84,86.2346 1298.91,86.1979 1304.98,86.1857 "/>
<polyline clip-path="url(#clip542)" style="stroke:#e26f46; stroke-linecap:round; stroke-linejoin:round; stroke-width:16; stroke-opacity:1; fill:none" points="1304.98,86.1857 1311.03,86.2511 1317.08,86.4057 1323.13,86.5584 1329.17,86.7111 1335.22,86.8638 1341.27,87.0165 1347.32,87.1692 1353.37,87.3219 1359.41,87.5209 1365.44,87.8476 1371.46,88.2682 1377.48,88.7504 1383.49,89.2677 1389.5,89.7993 1395.51,90.3303 1401.52,90.8515 1407.53,91.3594 1413.54,91.8564 1419.55,92.3505 1425.57,92.8426 1431.59,93.313 1437.61,93.7903 1443.62,94.2983 1449.62,94.8513 1455.61,95.4545 1461.58,96.1033 1467.55,96.784 1473.51,97.4733 1479.46,98.2215 1485.36,99.1508 1491.22,100.209 1497.05,101.347 1502.88,102.526 1508.7,103.717 1514.52,104.9 1520.35,106.065 1526.18,107.213 1532.02,108.351 1537.85,109.497 1543.69,110.646 1549.52,111.795 1555.35,112.945 1561.18,114.094 1567.02,115.243 1572.85,116.392 1578.68,117.541 1584.52,118.69 1590.35,119.839 1596.18,120.988 1602.01,122.138 1607.86,123.277 1613.73,124.396 1619.61,125.5 1625.52,126.595 1631.43,127.687 1637.34,128.78 1643.25,129.88 1649.16,130.991 1655.06,132.118 1660.94,133.265 1666.81,134.436 1672.66,135.634 1678.48,136.864 1684.28,138.127 1690.05,139.428 1695.78,140.768 1701.48,142.15 1707.15,143.577 1712.77,145.05 1718.36,146.57 1723.91,148.14 1729.41,149.76 1734.87,151.431 1740.28,153.153 1745.65,154.927 1750.98,156.754 1756.26,158.632 1761.5,160.562 1766.69,162.542 1771.85,164.573 1776.95,166.652 1782.02,168.777 1787.05,170.949 1792.04,173.163 1797,175.419 1801.92,177.714 1806.81,180.044 1811.67,182.408 1816.5,184.8 1821.31,187.22 1826.1,189.661 1830.88,192.121 1835.64,194.594 1840.4,197.077 1845.15,199.565 1849.9,202.052 1854.66,204.533 1859.42,207.003 1864.21,209.456 1869.01,211.885 1873.85,214.281 1878.73,216.648 1883.63,218.997 1888.55,221.338 1893.46,223.681 1898.35,226.035 1903.23,228.408 1908.07,230.804 1912.87,233.23 1917.63,235.691 1922.33,238.189 1926.99,240.727 1931.59,243.307 1936.14,245.929 1940.63,248.592 1945.07,251.295 1949.46,254.034 1953.81,256.808 1958.12,259.61 1962.4,262.435 1966.66,265.277 1970.9,268.128 1975.15,270.979 1979.41,273.82 1983.69,276.645 1987.97,279.468 1992.24,282.289 1996.51,285.111 2000.78,287.932 2005.04,290.753 2009.31,293.574 2013.59,296.397 2017.86,299.22 2022.13,302.046 2026.4,304.875 2030.67,307.709 2034.94,310.549 2039.19,313.396 2043.44,316.251 2047.68,319.117 2051.89,321.996 2056.09,324.889 2060.25,327.799 2064.39,330.728 2068.48,333.679 2072.53,336.655 2076.53,339.657 2080.47,342.69 2084.34,345.757 2088.13,348.86 2091.84,352.003 2095.46,355.19 2098.97,358.424 2102.44,361.68 2105.88,364.951 2109.28,368.238 2112.64,371.543 2115.96,374.866 2119.23,378.209 2122.45,381.57 2125.63,384.952 2128.75,388.354 2131.82,391.776 2134.85,395.217 2137.82,398.677 2140.75,402.155 2143.63,405.65 2146.48,409.162 2149.28,412.687 2152.05,416.226 2154.79,419.775 2157.51,423.333 2160.21,426.898 2162.9,430.467 2165.58,434.037 2168.27,437.606 2170.97,441.17 2173.66,444.739 2176.32,448.324 2178.93,451.922 2181.5,455.535 2184.03,459.162 2186.52,462.802 2188.96,466.456 2191.35,470.122 2193.7,473.801 2196,477.492 2198.26,481.194 2200.47,484.908 2202.64,488.632 2204.76,492.366 2206.84,496.11 2208.88,499.862 2210.88,503.623 2212.84,507.391 2214.77,511.166 2216.67,514.947 2218.54,518.734 2220.39,522.525 2222.22,526.321 2224.03,530.119 2225.83,533.919 2227.62,537.721 2229.42,541.523 2231.21,545.324 2233.02,549.124 2234.87,552.918 2236.83,556.699 2238.86,560.471 2240.93,564.237 2243.03,568 2245.14,571.763 2247.22,575.529 2249.26,579.299 2251.25,583.076 2253.16,586.862 2254.99,590.658 2256.73,594.466 2258.36,598.287 2259.88,602.122 2261.28,605.971 2262.55,609.835 2263.71,613.715 2264.73,617.61 2265.64,621.52 2266.42,625.445 2267.1,629.383 2267.66,633.335 2268.13,637.298 2268.51,641.273 2268.82,645.256 2269.07,649.246 2269.28,653.242 2269.46,657.24 2269.64,661.239 2269.85,665.235 2270.09,669.226 2270.41,673.211 2270.78,677.197 2271.19,681.182 2271.63,685.169 2272.08,689.155 2272.51,693.141 2272.93,697.127 2273.32,701.112 2273.66,705.098 2273.95,709.082 2274.18,713.067 2274.34,717.051 2274.44,721.034 2274.46,725.017 2274.41,728.999 2274.28,732.981 2274.08,736.962 2273.81,740.942 2273.48,744.922 2273.08,748.902 2272.63,752.881 2272.14,756.86 2271.61,760.838 2271.06,764.817 2270.5,768.795 2269.94,772.773 2269.41,776.752 2268.91,780.731 2268.46,784.717 2268.05,788.706 2267.66,792.699 2267.28,796.693 2266.91,800.687 2266.52,804.681 2266.12,808.672 2265.7,812.66 2265.24,816.645 2264.75,820.624 2264.22,824.599 2263.63,828.568 2263,832.531 2262.32,836.487 2261.58,840.437 2260.79,844.379 2259.95,848.315 2259.04,852.244 2258.09,856.167 2257.09,860.083 2256.04,863.994 2254.95,867.9 2253.82,871.8 2252.66,875.697 2251.47,879.591 2250.27,883.483 2249.06,887.374 2247.85,891.265 2246.65,895.157 2245.48,899.053 2244.23,902.934 2242.82,906.789 2241.26,910.617 2239.58,914.421 2237.76,918.203 2235.83,921.962 2233.8,925.701 2231.67,929.42 2229.45,933.122 2227.15,936.807 2224.77,940.476 2222.33,944.13 2219.84,947.77 2217.29,951.399 2214.7,955.015 2212.06,958.621 2209.4,962.218 2206.7,965.806 2203.98,969.387 2201.24,972.96 2198.48,976.528 2195.71,980.091 2192.92,983.649 2190.13,987.204 2187.34,990.756 2184.54,994.305 2181.74,997.853 2178.93,1001.4 2176.13,1004.95 2173.32,1008.5 2170.52,1012.04 2167.73,1015.6 2165,1019.19 2162.33,1022.8 2159.7,1026.44 2157.09,1030.08 2154.51,1033.73 2151.93,1037.39 2149.35,1041.05 2146.75,1044.7 2144.14,1048.34 2141.5,1051.96 2138.82,1055.57 2136.1,1059.17 2133.34,1062.74 2130.52,1066.28 2127.64,1069.8 2124.7,1073.28 2121.7,1076.74 2118.63,1080.17 2115.48,1083.56 2112.27,1086.92 2108.98,1090.24 2105.62,1093.53 2102.19,1096.78 2098.68,1100 2095.1,1103.19 2091.46,1106.34 2087.75,1109.47 2083.97,1112.56 2080.14,1115.63 2076.25,1118.67 2072.31,1121.68 2068.33,1124.68 2064.31,1127.66 2060.26,1130.62 2056.19,1133.58 2052.11,1136.53 2048.02,1139.47 2043.94,1142.42 2039.87,1145.38 2035.82,1148.34 2031.82,1151.33 2027.87,1154.35 2023.98,1157.42 2020.12,1160.5 2016.29,1163.61 2012.46,1166.72 2008.63,1169.82 2004.78,1172.92 2000.91,1175.99 1997,1179.05 1993.05,1182.07 1989.05,1185.06 1984.99,1188 1980.87,1190.9 1976.68,1193.76 1972.43,1196.57 1968.1,1199.33 1963.69,1202.03 1959.22,1204.69 1954.67,1207.3 1950.05,1209.85 1945.37,1212.36 1940.62,1214.83 1935.82,1217.26 1930.96,1219.65 1926.07,1222.01 1921.13,1224.34 1916.17,1226.66 1911.2,1228.97 1906.22,1231.27 1901.25,1233.58 1896.3,1235.91 1891.38,1238.26 1886.5,1240.65 1881.64,1243.06 1876.8,1245.49 1871.97,1247.93 1867.13,1250.36 1862.29,1252.79 1857.44,1255.21 1852.56,1257.6 1847.67,1259.97 1842.74,1262.31 1837.79,1264.62 1832.81,1266.89 1827.78,1269.12 1822.73,1271.3 1817.63,1273.45 1812.5,1275.56 1807.34,1277.63 1802.13,1279.66 1796.9,1281.65 1791.63,1283.61 1786.34,1285.54 1781.03,1287.44 1775.7,1289.32 1770.35,1291.19 1765,1293.05 1759.65,1294.91 1754.31,1296.78 1748.98,1298.67 1743.62,1300.53 1738.23,1302.32 1732.79,1304.07 1727.31,1305.76 1721.8,1307.41 1716.26,1309.01 1710.68,1310.57 1705.08,1312.09 1699.45,1313.57 1693.8,1315.01 1688.13,1316.43 1682.44,1317.81 1676.73,1319.16 1671.01,1320.49 1665.28,1321.79 1659.54,1323.08 1653.78,1324.34 1648.02,1325.59 1642.25,1326.82 1636.47,1328.04 1630.69,1329.24 1624.9,1330.44 1619.12,1331.63 1613.33,1332.81 1607.54,1333.98 1601.74,1335.15 1595.95,1336.33 1590.16,1337.5 1584.36,1338.67 1578.57,1339.84 1572.78,1341.03 1567.01,1342.26 1561.25,1343.54 1555.5,1344.83 1549.75,1346.14 1544,1347.45 1538.25,1348.76 1532.49,1350.04 1526.72,1351.29 1520.94,1352.51 1515.15,1353.68 1509.34,1354.81 1503.52,1355.89 1497.68,1356.91 1491.81,1357.87 1485.93,1358.78 1480.03,1359.62 1474.11,1360.4 1468.17,1361.12 1462.21,1361.79 1456.23,1362.4 1450.24,1362.96 1444.23,1363.48 1438.21,1363.96 1432.18,1364.41 1426.14,1364.84 1420.1,1365.25 1414.05,1365.66 1408.01,1366.08 1401.98,1366.51 1395.95,1366.99 1389.93,1367.51 1383.9,1368.07 1377.88,1368.65 1371.86,1369.23 1365.84,1369.79 1359.81,1370.34 1353.79,1370.85 1347.76,1371.31 1341.73,1371.73 1335.7,1372.08 1329.67,1372.38 1323.64,1372.62 1317.6,1372.79 1311.56,1372.89 1305.52,1372.94 1299.48,1372.92 1293.44,1372.86 1287.39,1372.74 1281.35,1372.59 1275.3,1372.42 1269.25,1372.22 1263.2,1372.02 1257.15,1371.84 1251.11,1371.68 1245.05,1371.52 1238.99,1371.33 1232.93,1371.12 1226.87,1370.87 1220.82,1370.58 1214.78,1370.24 1208.74,1369.85 1202.71,1369.4 1196.7,1368.89 1190.71,1368.33 1184.73,1367.7 1178.76,1367.01 1172.81,1366.25 1166.88,1365.44 1160.97,1364.56 1155.07,1363.63 1149.19,1362.65 1143.33,1361.62 1137.47,1360.54 1131.63,1359.43 1125.8,1358.29 1119.97,1357.12 1114.15,1355.94 1108.33,1354.76 1102.51,1353.58 1096.69,1352.42 1090.85,1351.28 1085,1350.15 1079.15,1349.05 1073.29,1347.94 1067.43,1346.84 1061.57,1345.74 1055.72,1344.63 1049.87,1343.5 1044.03,1342.37 1038.21,1341.21 1032.39,1340.04 1026.59,1338.84 1020.8,1337.62 1015.02,1336.38 1009.26,1335.11 1003.51,1333.82 997.78,1332.5 992.06,1331.17 986.351,1329.81 980.653,1328.43 974.965,1327.04 969.284,1325.63 963.609,1324.22 957.936,1322.8 952.264,1321.38 946.589,1319.97 940.906,1318.56 935.184,1317.21 929.421,1315.9 923.629,1314.64 917.821,1313.39 912.009,1312.14 906.202,1310.89 900.409,1309.62 894.64,1308.33 888.902,1306.99 883.2,1305.61 877.542,1304.18 871.932,1302.69 866.373,1301.14 860.869,1299.52 855.422,1297.83 850.031,1296.07 844.699,1294.25 839.423,1292.35 834.203,1290.38 829.034,1288.36 823.915,1286.27 818.84,1284.13 813.804,1281.94 808.801,1279.71 803.823,1277.45 798.862,1275.17 793.908,1272.88 788.953,1270.59 783.985,1268.32 778.992,1266.08 773.992,1263.84 769.001,1261.59 764.024,1259.33 759.066,1257.04 754.13,1254.73 749.219,1252.4 744.338,1250.04 739.488,1247.65 734.672,1245.24 729.89,1242.8 725.145,1240.32 720.435,1237.82 715.763,1235.29 711.127,1232.73 706.526,1230.15 701.959,1227.54 697.424,1224.9 692.919,1222.24 688.44,1219.56 683.984,1216.86 679.549,1214.15 675.127,1211.43 670.717,1208.7 666.311,1205.96 661.905,1203.23 657.491,1200.5 653.066,1197.78 648.635,1195.06 644.205,1192.34 639.781,1189.61 635.367,1186.88 630.965,1184.13 626.58,1181.37 622.215,1178.6 617.872,1175.82 613.554,1173.02 609.261,1170.2 604.997,1167.37 600.763,1164.52 596.558,1161.65 592.385,1158.76 588.242,1155.86 584.13,1152.93 580.049,1149.99 575.997,1147.03 571.974,1144.05 567.977,1141.06 564.006,1138.05 560.057,1135.03 556.128,1132 552.217,1128.96 548.32,1125.91 544.433,1122.85 540.553,1119.79 536.675,1116.73 532.794,1113.67 528.906,1110.62 525.017,1107.56 521.213,1104.47 517.508,1101.33 513.897,1098.14 510.375,1094.91 506.936,1091.65 503.576,1088.35 500.29,1085.02 497.074,1081.65 493.921,1078.26 490.828,1074.85 487.791,1071.41 484.804,1067.95 481.863,1064.48 478.965,1060.98 476.104,1057.48 473.276,1053.96 470.478,1050.43 467.706,1046.89 464.955,1043.34 462.223,1039.79 459.504,1036.24 456.796,1032.68 454.094,1029.12 451.396,1025.55 448.698,1021.99 445.997,1018.43 443.292,1014.87 440.61,1011.29 437.959,1007.71 435.342,1004.11 432.76,1000.51 430.213,996.886 427.704,993.253 425.233,989.61 422.8,985.955 420.406,982.289 418.052,978.613 415.738,974.926 413.463,971.229 411.228,967.523 409.031,963.807 406.873,960.082 404.752,956.349 402.667,952.607 400.617,948.858 398.601,945.102 396.618,941.339 394.664,937.569 392.739,933.794 390.84,930.014 388.965,926.228 387.112,922.439 385.277,918.646 383.457,914.85 381.65,911.052 379.852,907.252 378.06,903.451 376.27,899.649 374.478,895.848 372.68,892.048 370.873,888.249 369.119,884.441 367.455,880.619 365.881,876.783 364.393,872.933 362.992,869.071 361.674,865.198 360.438,861.313 359.282,857.419 358.204,853.515 357.201,849.602 356.271,845.681 355.411,841.752 354.619,837.816 353.89,833.874 353.223,829.926 352.614,825.973 352.059,822.015 351.556,818.052 351.099,814.086 350.686,810.116 350.312,806.143 349.974,802.168 349.666,798.19 349.385,794.21 349.126,790.229 348.884,786.246 348.654,782.263 348.431,778.279 348.21,774.294 347.986,770.309 347.752,766.324 347.505,762.339 347.236,758.354 346.971,754.37 346.84,750.387 346.843,746.405 346.965,742.424 347.187,738.444 347.495,734.464 347.874,730.485 348.312,726.506 348.797,722.528 349.317,718.55 349.863,714.572 350.426,710.595 350.998,706.617 351.573,702.64 352.146,698.662 352.711,694.684 353.267,690.707 353.809,686.729 354.339,682.751 354.855,678.773 355.358,674.795 355.851,670.817 356.338,666.839 356.822,662.86 357.309,658.882 357.805,654.904 358.236,650.915 358.558,646.908 358.807,642.89 359.02,638.867 359.229,634.842 359.463,630.822 359.748,626.81 360.107,622.809 360.561,618.823 361.126,614.855 361.816,610.906 362.642,606.979 363.612,603.074 364.729,599.192 365.996,595.333 367.412,591.498 368.97,587.685 370.665,583.894 372.484,580.122 374.415,576.367 376.44,572.628 378.539,568.9 380.689,565.179 382.863,561.463 385.034,557.746 387.167,554.024 389.242,550.291 391.323,546.559 393.432,542.831 395.573,539.11 397.753,535.396 399.975,531.692 402.244,527.999 404.561,524.318 406.929,520.65 409.349,516.995 411.821,513.354 414.345,509.727 416.919,506.113 419.541,502.513 422.209,498.924 424.917,495.348 427.663,491.781 430.44,488.224 433.242,484.673 436.063,481.128 438.894,477.585 441.726,474.043 444.551,470.499 447.362,466.951 450.17,463.402 452.979,459.853 455.787,456.304 458.596,452.755 461.404,449.206 464.213,445.657 467.021,442.108 469.83,438.559 472.638,435.01 475.447,431.461 478.255,427.912 481.064,424.363 483.872,420.814 486.68,417.265 489.489,413.717 492.297,410.168 495.106,406.619 497.914,403.07 500.723,399.521 503.532,395.972 506.34,392.423 509.149,388.874 511.962,385.327 514.83,381.813 517.767,378.337 520.769,374.898 523.835,371.494 526.962,368.123 530.148,364.784 533.391,361.475 536.69,358.195 540.041,354.942 543.444,351.714 546.895,348.511 550.395,345.331 553.939,342.172 557.528,339.034 561.159,335.915 564.83,332.814 568.541,329.73 572.289,326.662 576.073,323.609 579.892,320.571 583.744,317.546 587.628,314.533 591.543,311.532 595.488,308.542 599.46,305.562 603.461,302.592 607.487,299.632 611.539,296.68 615.615,293.736 619.715,290.801 623.837,287.872 627.982,284.952 632.147,282.038 636.333,279.131 640.539,276.231 644.765,273.338 649.009,270.451 653.271,267.571 657.552,264.698 661.85,261.831 666.165,258.972 670.498,256.12 674.847,253.275 679.213,250.439 683.596,247.611 687.996,244.792 692.412,241.982 696.845,239.182 701.294,236.393 705.761,233.614 710.245,230.848 714.747,228.094 719.266,225.353 723.804,222.627 728.36,219.916 732.936,217.222 737.531,214.544 742.147,211.885 746.784,209.245 751.442,206.626 756.124,204.029 760.827,201.455 765.556,198.905 770.309,196.381 775.088,193.885 779.895,191.418 784.729,188.981 789.593,186.575 794.488,184.204 799.414,181.867 804.373,179.568 809.366,177.308 814.395,175.089 819.461,172.912 824.565,170.78 829.711,168.695 834.898,166.658 840.127,164.673 845.403,162.74 850.725,160.863 856.097,159.043 861.518,157.283 866.988,155.58 872.48,153.905 877.989,152.252 883.517,150.622 889.062,149.015 894.623,147.431 900.2,145.871 905.793,144.333 911.401,142.817 917.023,141.325 922.659,139.854 928.309,138.405 933.972,136.977 939.646,135.571 945.333,134.185 951.031,132.819 956.739,131.472 962.457,130.143 968.185,128.833 973.922,127.54 979.667,126.263 985.42,125.001 991.179,123.754 996.946,122.521 1002.72,121.299 1008.5,120.09 1014.28,118.89 1020.06,117.699 1025.85,116.516 1031.65,115.34 1037.44,114.168 1043.24,113 1049.04,111.834 1054.83,110.669 1060.63,109.503 1066.43,108.334 1072.22,107.161 1078.03,106.028 1083.86,104.957 1089.71,103.947 1095.58,102.993 1101.46,102.093 1107.37,101.243 1113.29,100.442 1119.22,99.6862 1125.17,98.9733 1131.13,98.3011 1137.1,97.6673 1143.09,97.0698 1149.08,96.5067 1155.09,95.9761 1161.1,95.4762 1167.13,95.0054 1173.16,94.5624 1179.2,94.1456 1185.24,93.754 1191.29,93.3864 1197.34,93.0417 1203.4,92.7192 1209.46,92.4182 1215.53,92.1379 1221.6,91.878 1227.66,91.6381 1233.74,91.4179 1239.81,91.2174 1245.88,91.0364 1251.95,90.8754 1258.02,90.7343 1264.1,90.6138 1270.17,90.5142 1276.23,90.4362 1282.3,90.3806 1288.37,90.3483 1294.43,90.3403 1300.49,90.3577 1306.54,90.4018 1312.6,90.474 1318.65,90.5757 1324.7,90.7087 1330.74,90.8747 1336.78,91.0756 1342.81,91.3134 1348.85,91.5902 1354.87,91.9083 1360.9,92.2701 1366.92,92.6781 1372.93,93.1349 1378.95,93.633 1384.96,94.1348 1390.97,94.6365 1396.98,95.1383 1403,95.6401 1409.01,96.1419 1415.02,96.6437 "/>
<path clip-path="url(#clip540)" d="M327.056 1377.32 L750.198 1377.32 L750.198 1221.8 L327.056 1221.8  Z" fill="#ffffff" fill-rule="evenodd" fill-opacity="1"/>
<polyline clip-path="url(#clip540)" style="stroke:#000000; stroke-linecap:round; stroke-linejoin:round; stroke-width:4; stroke-opacity:1; fill:none" points="327.056,1377.32 750.198,1377.32 750.198,1221.8 327.056,1221.8 327.056,1377.32 "/>
<polyline clip-path="url(#clip540)" style="stroke:#009af9; stroke-linecap:round; stroke-linejoin:round; stroke-width:16; stroke-opacity:1; fill:none" points="350.34,1273.64 490.043,1273.64 "/>
<path clip-path="url(#clip540)" d="M529.345 1259.53 Q524.253 1259.53 521.244 1263.32 Q518.258 1267.12 518.258 1273.67 Q518.258 1280.2 521.244 1283.99 Q524.253 1287.79 529.345 1287.79 Q534.438 1287.79 537.401 1283.99 Q540.387 1280.2 540.387 1273.67 Q540.387 1267.12 537.401 1263.32 Q534.438 1259.53 529.345 1259.53 M529.345 1255.73 Q536.614 1255.73 540.966 1260.61 Q545.318 1265.48 545.318 1273.67 Q545.318 1281.84 540.966 1286.73 Q536.614 1291.59 529.345 1291.59 Q522.054 1291.59 517.679 1286.73 Q513.327 1281.86 513.327 1273.67 Q513.327 1265.48 517.679 1260.61 Q522.054 1255.73 529.345 1255.73 Z" fill="#000000" fill-rule="nonzero" fill-opacity="1" /><path clip-path="url(#clip540)" d="M567.47 1268.97 Q566.753 1268.55 565.896 1268.37 Q565.063 1268.16 564.044 1268.16 Q560.433 1268.16 558.489 1270.52 Q556.568 1272.86 556.568 1277.26 L556.568 1290.92 L552.285 1290.92 L552.285 1264.99 L556.568 1264.99 L556.568 1269.02 Q557.91 1266.66 560.063 1265.52 Q562.216 1264.36 565.294 1264.36 Q565.734 1264.36 566.267 1264.43 Q566.799 1264.48 567.447 1264.6 L567.47 1268.97 Z" fill="#000000" fill-rule="nonzero" fill-opacity="1" /><path clip-path="url(#clip540)" d="M571.938 1264.99 L576.197 1264.99 L576.197 1290.92 L571.938 1290.92 L571.938 1264.99 M571.938 1254.9 L576.197 1254.9 L576.197 1260.29 L571.938 1260.29 L571.938 1254.9 Z" fill="#000000" fill-rule="nonzero" fill-opacity="1" /><path clip-path="url(#clip540)" d="M602.169 1277.65 Q602.169 1273.02 600.248 1270.48 Q598.35 1267.93 594.901 1267.93 Q591.475 1267.93 589.553 1270.48 Q587.655 1273.02 587.655 1277.65 Q587.655 1282.26 589.553 1284.8 Q591.475 1287.35 594.901 1287.35 Q598.35 1287.35 600.248 1284.8 Q602.169 1282.26 602.169 1277.65 M606.428 1287.7 Q606.428 1294.32 603.489 1297.54 Q600.549 1300.78 594.484 1300.78 Q592.239 1300.78 590.248 1300.43 Q588.257 1300.11 586.382 1299.41 L586.382 1295.27 Q588.257 1296.29 590.086 1296.77 Q591.915 1297.26 593.813 1297.26 Q598.003 1297.26 600.086 1295.06 Q602.169 1292.88 602.169 1288.46 L602.169 1286.36 Q600.85 1288.65 598.79 1289.78 Q596.729 1290.92 593.859 1290.92 Q589.091 1290.92 586.174 1287.28 Q583.257 1283.65 583.257 1277.65 Q583.257 1271.63 586.174 1268 Q589.091 1264.36 593.859 1264.36 Q596.729 1264.36 598.79 1265.5 Q600.85 1266.63 602.169 1268.92 L602.169 1264.99 L606.428 1264.99 L606.428 1287.7 Z" fill="#000000" fill-rule="nonzero" fill-opacity="1" /><path clip-path="url(#clip540)" d="M615.201 1264.99 L619.461 1264.99 L619.461 1290.92 L615.201 1290.92 L615.201 1264.99 M615.201 1254.9 L619.461 1254.9 L619.461 1260.29 L615.201 1260.29 L615.201 1254.9 Z" fill="#000000" fill-rule="nonzero" fill-opacity="1" /><path clip-path="url(#clip540)" d="M649.924 1275.27 L649.924 1290.92 L645.664 1290.92 L645.664 1275.41 Q645.664 1271.73 644.229 1269.9 Q642.794 1268.07 639.924 1268.07 Q636.475 1268.07 634.484 1270.27 Q632.493 1272.47 632.493 1276.26 L632.493 1290.92 L628.211 1290.92 L628.211 1264.99 L632.493 1264.99 L632.493 1269.02 Q634.021 1266.68 636.081 1265.52 Q638.164 1264.36 640.873 1264.36 Q645.34 1264.36 647.632 1267.14 Q649.924 1269.9 649.924 1275.27 Z" fill="#000000" fill-rule="nonzero" fill-opacity="1" /><path clip-path="url(#clip540)" d="M670.201 1277.88 Q665.039 1277.88 663.048 1279.06 Q661.058 1280.24 661.058 1283.09 Q661.058 1285.36 662.539 1286.7 Q664.044 1288.02 666.613 1288.02 Q670.155 1288.02 672.285 1285.52 Q674.437 1283 674.437 1278.83 L674.437 1277.88 L670.201 1277.88 M678.697 1276.12 L678.697 1290.92 L674.437 1290.92 L674.437 1286.98 Q672.979 1289.34 670.803 1290.48 Q668.627 1291.59 665.479 1291.59 Q661.498 1291.59 659.136 1289.36 Q656.798 1287.12 656.798 1283.37 Q656.798 1278.99 659.715 1276.77 Q662.655 1274.55 668.465 1274.55 L674.437 1274.55 L674.437 1274.13 Q674.437 1271.19 672.493 1269.6 Q670.572 1267.98 667.076 1267.98 Q664.854 1267.98 662.748 1268.51 Q660.641 1269.04 658.697 1270.11 L658.697 1266.17 Q661.035 1265.27 663.234 1264.83 Q665.433 1264.36 667.516 1264.36 Q673.141 1264.36 675.919 1267.28 Q678.697 1270.2 678.697 1276.12 Z" fill="#000000" fill-rule="nonzero" fill-opacity="1" /><path clip-path="url(#clip540)" d="M687.47 1254.9 L691.729 1254.9 L691.729 1290.92 L687.47 1290.92 L687.47 1254.9 Z" fill="#000000" fill-rule="nonzero" fill-opacity="1" /><polyline clip-path="url(#clip540)" style="stroke:#e26f46; stroke-linecap:round; stroke-linejoin:round; stroke-width:16; stroke-opacity:1; fill:none" points="350.34,1325.48 490.043,1325.48 "/>
<path clip-path="url(#clip540)" d="M518.003 1312.04 L518.003 1325.02 L523.883 1325.02 Q527.146 1325.02 528.929 1323.33 Q530.711 1321.64 530.711 1318.52 Q530.711 1315.42 528.929 1313.73 Q527.146 1312.04 523.883 1312.04 L518.003 1312.04 M513.327 1308.2 L523.883 1308.2 Q529.693 1308.2 532.656 1310.83 Q535.642 1313.45 535.642 1318.52 Q535.642 1323.64 532.656 1326.25 Q529.693 1328.87 523.883 1328.87 L518.003 1328.87 L518.003 1342.76 L513.327 1342.76 L513.327 1308.2 Z" fill="#000000" fill-rule="nonzero" fill-opacity="1" /><path clip-path="url(#clip540)" d="M555.919 1320.81 Q555.202 1320.39 554.345 1320.21 Q553.512 1320 552.493 1320 Q548.882 1320 546.938 1322.36 Q545.017 1324.7 545.017 1329.1 L545.017 1342.76 L540.734 1342.76 L540.734 1316.83 L545.017 1316.83 L545.017 1320.86 Q546.359 1318.5 548.512 1317.36 Q550.665 1316.2 553.743 1316.2 Q554.183 1316.2 554.716 1316.27 Q555.248 1316.32 555.896 1316.44 L555.919 1320.81 Z" fill="#000000" fill-rule="nonzero" fill-opacity="1" /><path clip-path="url(#clip540)" d="M581.521 1328.73 L581.521 1330.81 L561.938 1330.81 Q562.216 1335.21 564.577 1337.52 Q566.961 1339.82 571.197 1339.82 Q573.651 1339.82 575.942 1339.21 Q578.257 1338.61 580.526 1337.41 L580.526 1341.44 Q578.234 1342.41 575.827 1342.92 Q573.419 1343.43 570.942 1343.43 Q564.739 1343.43 561.105 1339.82 Q557.493 1336.2 557.493 1330.05 Q557.493 1323.68 560.919 1319.95 Q564.368 1316.2 570.202 1316.2 Q575.433 1316.2 578.466 1319.58 Q581.521 1322.94 581.521 1328.73 M577.262 1327.48 Q577.216 1323.98 575.294 1321.9 Q573.396 1319.82 570.248 1319.82 Q566.683 1319.82 564.53 1321.83 Q562.401 1323.84 562.077 1327.5 L577.262 1327.48 Z" fill="#000000" fill-rule="nonzero" fill-opacity="1" /><path clip-path="url(#clip540)" d="M605.572 1320.76 L605.572 1306.74 L609.831 1306.74 L609.831 1342.76 L605.572 1342.76 L605.572 1338.87 Q604.229 1341.18 602.169 1342.32 Q600.132 1343.43 597.262 1343.43 Q592.563 1343.43 589.6 1339.68 Q586.66 1335.93 586.66 1329.82 Q586.66 1323.7 589.6 1319.95 Q592.563 1316.2 597.262 1316.2 Q600.132 1316.2 602.169 1317.34 Q604.229 1318.45 605.572 1320.76 M591.058 1329.82 Q591.058 1334.51 592.979 1337.2 Q594.924 1339.86 598.303 1339.86 Q601.683 1339.86 603.627 1337.2 Q605.572 1334.51 605.572 1329.82 Q605.572 1325.12 603.627 1322.45 Q601.683 1319.77 598.303 1319.77 Q594.924 1319.77 592.979 1322.45 Q591.058 1325.12 591.058 1329.82 Z" fill="#000000" fill-rule="nonzero" fill-opacity="1" /><path clip-path="url(#clip540)" d="M618.604 1316.83 L622.863 1316.83 L622.863 1342.76 L618.604 1342.76 L618.604 1316.83 M618.604 1306.74 L622.863 1306.74 L622.863 1312.13 L618.604 1312.13 L618.604 1306.74 Z" fill="#000000" fill-rule="nonzero" fill-opacity="1" /><path clip-path="url(#clip540)" d="M650.433 1317.82 L650.433 1321.81 Q648.627 1320.81 646.799 1320.32 Q644.993 1319.82 643.141 1319.82 Q638.998 1319.82 636.706 1322.45 Q634.414 1325.07 634.414 1329.82 Q634.414 1334.56 636.706 1337.2 Q638.998 1339.82 643.141 1339.82 Q644.993 1339.82 646.799 1339.33 Q648.627 1338.82 650.433 1337.82 L650.433 1341.76 Q648.65 1342.59 646.729 1343.01 Q644.831 1343.43 642.678 1343.43 Q636.822 1343.43 633.373 1339.75 Q629.924 1336.07 629.924 1329.82 Q629.924 1323.47 633.396 1319.84 Q636.891 1316.2 642.956 1316.2 Q644.924 1316.2 646.799 1316.62 Q648.674 1317.01 650.433 1317.82 Z" fill="#000000" fill-rule="nonzero" fill-opacity="1" /><path clip-path="url(#clip540)" d="M662.053 1309.47 L662.053 1316.83 L670.826 1316.83 L670.826 1320.14 L662.053 1320.14 L662.053 1334.21 Q662.053 1337.38 662.91 1338.29 Q663.789 1339.19 666.451 1339.19 L670.826 1339.19 L670.826 1342.76 L666.451 1342.76 Q661.521 1342.76 659.646 1340.93 Q657.771 1339.07 657.771 1334.21 L657.771 1320.14 L654.646 1320.14 L654.646 1316.83 L657.771 1316.83 L657.771 1309.47 L662.053 1309.47 Z" fill="#000000" fill-rule="nonzero" fill-opacity="1" /><path clip-path="url(#clip540)" d="M698.604 1328.73 L698.604 1330.81 L679.021 1330.81 Q679.298 1335.21 681.659 1337.52 Q684.044 1339.82 688.28 1339.82 Q690.733 1339.82 693.025 1339.21 Q695.34 1338.61 697.608 1337.41 L697.608 1341.44 Q695.317 1342.41 692.909 1342.92 Q690.502 1343.43 688.025 1343.43 Q681.822 1343.43 678.187 1339.82 Q674.576 1336.2 674.576 1330.05 Q674.576 1323.68 678.002 1319.95 Q681.451 1316.2 687.284 1316.2 Q692.516 1316.2 695.548 1319.58 Q698.604 1322.94 698.604 1328.73 M694.345 1327.48 Q694.298 1323.98 692.377 1321.9 Q690.479 1319.82 687.331 1319.82 Q683.766 1319.82 681.613 1321.83 Q679.484 1323.84 679.159 1327.5 L694.345 1327.48 Z" fill="#000000" fill-rule="nonzero" fill-opacity="1" /><path clip-path="url(#clip540)" d="M722.655 1320.76 L722.655 1306.74 L726.914 1306.74 L726.914 1342.76 L722.655 1342.76 L722.655 1338.87 Q721.312 1341.18 719.252 1342.32 Q717.215 1343.43 714.344 1343.43 Q709.645 1343.43 706.682 1339.68 Q703.743 1335.93 703.743 1329.82 Q703.743 1323.7 706.682 1319.95 Q709.645 1316.2 714.344 1316.2 Q717.215 1316.2 719.252 1317.34 Q721.312 1318.45 722.655 1320.76 M708.141 1329.82 Q708.141 1334.51 710.062 1337.2 Q712.007 1339.86 715.386 1339.86 Q718.766 1339.86 720.71 1337.2 Q722.655 1334.51 722.655 1329.82 Q722.655 1325.12 720.71 1322.45 Q718.766 1319.77 715.386 1319.77 Q712.007 1319.77 710.062 1322.45 Q708.141 1325.12 708.141 1329.82 Z" fill="#000000" fill-rule="nonzero" fill-opacity="1" /></svg>
