<?xml version="1.0" encoding="utf-8"?>
<svg xmlns="http://www.w3.org/2000/svg" xmlns:xlink="http://www.w3.org/1999/xlink" width="600" height="400" viewBox="0 0 2400 1600">
<defs>
  <clipPath id="clip480">
    <rect x="0" y="0" width="2400" height="1600"/>
  </clipPath>
</defs>
<path clip-path="url(#clip480)" d="M0 1600 L2400 1600 L2400 0 L0 0  Z" fill="#ffffff" fill-rule="evenodd" fill-opacity="1"/>
<defs>
  <clipPath id="clip481">
    <rect x="480" y="0" width="1681" height="1600"/>
  </clipPath>
</defs>
<path clip-path="url(#clip480)" d="M257.204 1423.18 L2352.76 1423.18 L2352.76 47.2441 L257.204 47.2441  Z" fill="#ffffff" fill-rule="evenodd" fill-opacity="1"/>
<defs>
  <clipPath id="clip482">
    <rect x="257" y="47" width="2097" height="1377"/>
  </clipPath>
</defs>
<polyline clip-path="url(#clip482)" style="stroke:#000000; stroke-linecap:round; stroke-linejoin:round; stroke-width:2; stroke-opacity:0.1; fill:none" points="316.511,1423.18 316.511,47.2441 "/>
<polyline clip-path="url(#clip482)" style="stroke:#000000; stroke-linecap:round; stroke-linejoin:round; stroke-width:2; stroke-opacity:0.1; fill:none" points="810.422,1423.18 810.422,47.2441 "/>
<polyline clip-path="url(#clip482)" style="stroke:#000000; stroke-linecap:round; stroke-linejoin:round; stroke-width:2; stroke-opacity:0.1; fill:none" points="1304.33,1423.18 1304.33,47.2441 "/>
<polyline clip-path="url(#clip482)" style="stroke:#000000; stroke-linecap:round; stroke-linejoin:round; stroke-width:2; stroke-opacity:0.1; fill:none" points="1798.24,1423.18 1798.24,47.2441 "/>
<polyline clip-path="url(#clip482)" style="stroke:#000000; stroke-linecap:round; stroke-linejoin:round; stroke-width:2; stroke-opacity:0.1; fill:none" points="2292.15,1423.18 2292.15,47.2441 "/>
<polyline clip-path="url(#clip480)" style="stroke:#000000; stroke-linecap:round; stroke-linejoin:round; stroke-width:4; stroke-opacity:1; fill:none" points="257.204,1423.18 2352.76,1423.18 "/>
<polyline clip-path="url(#clip480)" style="stroke:#000000; stroke-linecap:round; stroke-linejoin:round; stroke-width:4; stroke-opacity:1; fill:none" points="316.511,1423.18 316.511,1404.28 "/>
<polyline clip-path="url(#clip480)" style="stroke:#000000; stroke-linecap:round; stroke-linejoin:round; stroke-width:4; stroke-opacity:1; fill:none" points="810.422,1423.18 810.422,1404.28 "/>
<polyline clip-path="url(#clip480)" style="stroke:#000000; stroke-linecap:round; stroke-linejoin:round; stroke-width:4; stroke-opacity:1; fill:none" points="1304.33,1423.18 1304.33,1404.28 "/>
<polyline clip-path="url(#clip480)" style="stroke:#000000; stroke-linecap:round; stroke-linejoin:round; stroke-width:4; stroke-opacity:1; fill:none" points="1798.24,1423.18 1798.24,1404.28 "/>
<polyline clip-path="url(#clip480)" style="stroke:#000000; stroke-linecap:round; stroke-linejoin:round; stroke-width:4; stroke-opacity:1; fill:none" points="2292.15,1423.18 2292.15,1404.28 "/>
<path clip-path="url(#clip480)" d="M263.039 1468.75 L292.715 1468.75 L292.715 1472.69 L263.039 1472.69 L263.039 1468.75 Z" fill="#000000" fill-rule="nonzero" fill-opacity="1" /><path clip-path="url(#clip480)" d="M303.617 1481.64 L311.256 1481.64 L311.256 1455.28 L302.946 1456.95 L302.946 1452.69 L311.21 1451.02 L315.886 1451.02 L315.886 1481.64 L323.525 1481.64 L323.525 1485.58 L303.617 1485.58 L303.617 1481.64 Z" fill="#000000" fill-rule="nonzero" fill-opacity="1" /><path clip-path="url(#clip480)" d="M332.969 1479.7 L337.853 1479.7 L337.853 1485.58 L332.969 1485.58 L332.969 1479.7 Z" fill="#000000" fill-rule="nonzero" fill-opacity="1" /><path clip-path="url(#clip480)" d="M358.038 1454.1 Q354.427 1454.1 352.599 1457.66 Q350.793 1461.2 350.793 1468.33 Q350.793 1475.44 352.599 1479.01 Q354.427 1482.55 358.038 1482.55 Q361.673 1482.55 363.478 1479.01 Q365.307 1475.44 365.307 1468.33 Q365.307 1461.2 363.478 1457.66 Q361.673 1454.1 358.038 1454.1 M358.038 1450.39 Q363.849 1450.39 366.904 1455 Q369.983 1459.58 369.983 1468.33 Q369.983 1477.06 366.904 1481.67 Q363.849 1486.25 358.038 1486.25 Q352.228 1486.25 349.15 1481.67 Q346.094 1477.06 346.094 1468.33 Q346.094 1459.58 349.15 1455 Q352.228 1450.39 358.038 1450.39 Z" fill="#000000" fill-rule="nonzero" fill-opacity="1" /><path clip-path="url(#clip480)" d="M757.448 1468.75 L787.123 1468.75 L787.123 1472.69 L757.448 1472.69 L757.448 1468.75 Z" fill="#000000" fill-rule="nonzero" fill-opacity="1" /><path clip-path="url(#clip480)" d="M807.216 1454.1 Q803.605 1454.1 801.776 1457.66 Q799.971 1461.2 799.971 1468.33 Q799.971 1475.44 801.776 1479.01 Q803.605 1482.55 807.216 1482.55 Q810.85 1482.55 812.656 1479.01 Q814.484 1475.44 814.484 1468.33 Q814.484 1461.2 812.656 1457.66 Q810.85 1454.1 807.216 1454.1 M807.216 1450.39 Q813.026 1450.39 816.082 1455 Q819.16 1459.58 819.16 1468.33 Q819.16 1477.06 816.082 1481.67 Q813.026 1486.25 807.216 1486.25 Q801.406 1486.25 798.327 1481.67 Q795.272 1477.06 795.272 1468.33 Q795.272 1459.58 798.327 1455 Q801.406 1450.39 807.216 1450.39 Z" fill="#000000" fill-rule="nonzero" fill-opacity="1" /><path clip-path="url(#clip480)" d="M827.378 1479.7 L832.262 1479.7 L832.262 1485.58 L827.378 1485.58 L827.378 1479.7 Z" fill="#000000" fill-rule="nonzero" fill-opacity="1" /><path clip-path="url(#clip480)" d="M842.493 1451.02 L860.85 1451.02 L860.85 1454.96 L846.776 1454.96 L846.776 1463.43 Q847.794 1463.08 848.813 1462.92 Q849.831 1462.73 850.85 1462.73 Q856.637 1462.73 860.017 1465.9 Q863.396 1469.08 863.396 1474.49 Q863.396 1480.07 859.924 1483.17 Q856.452 1486.25 850.132 1486.25 Q847.956 1486.25 845.688 1485.88 Q843.443 1485.51 841.035 1484.77 L841.035 1480.07 Q843.118 1481.2 845.341 1481.76 Q847.563 1482.32 850.04 1482.32 Q854.044 1482.32 856.382 1480.21 Q858.72 1478.1 858.72 1474.49 Q858.72 1470.88 856.382 1468.77 Q854.044 1466.67 850.04 1466.67 Q848.165 1466.67 846.29 1467.08 Q844.438 1467.5 842.493 1468.38 L842.493 1451.02 Z" fill="#000000" fill-rule="nonzero" fill-opacity="1" /><path clip-path="url(#clip480)" d="M1281.72 1454.1 Q1278.11 1454.1 1276.28 1457.66 Q1274.47 1461.2 1274.47 1468.33 Q1274.47 1475.44 1276.28 1479.01 Q1278.11 1482.55 1281.72 1482.55 Q1285.35 1482.55 1287.16 1479.01 Q1288.99 1475.44 1288.99 1468.33 Q1288.99 1461.2 1287.16 1457.66 Q1285.35 1454.1 1281.72 1454.1 M1281.72 1450.39 Q1287.53 1450.39 1290.58 1455 Q1293.66 1459.58 1293.66 1468.33 Q1293.66 1477.06 1290.58 1481.67 Q1287.53 1486.25 1281.72 1486.25 Q1275.91 1486.25 1272.83 1481.67 Q1269.77 1477.06 1269.77 1468.33 Q1269.77 1459.58 1272.83 1455 Q1275.91 1450.39 1281.72 1450.39 Z" fill="#000000" fill-rule="nonzero" fill-opacity="1" /><path clip-path="url(#clip480)" d="M1301.88 1479.7 L1306.76 1479.7 L1306.76 1485.58 L1301.88 1485.58 L1301.88 1479.7 Z" fill="#000000" fill-rule="nonzero" fill-opacity="1" /><path clip-path="url(#clip480)" d="M1326.95 1454.1 Q1323.34 1454.1 1321.51 1457.66 Q1319.7 1461.2 1319.7 1468.33 Q1319.7 1475.44 1321.51 1479.01 Q1323.34 1482.55 1326.95 1482.55 Q1330.58 1482.55 1332.39 1479.01 Q1334.22 1475.44 1334.22 1468.33 Q1334.22 1461.2 1332.39 1457.66 Q1330.58 1454.1 1326.95 1454.1 M1326.95 1450.39 Q1332.76 1450.39 1335.81 1455 Q1338.89 1459.58 1338.89 1468.33 Q1338.89 1477.06 1335.81 1481.67 Q1332.76 1486.25 1326.95 1486.25 Q1321.14 1486.25 1318.06 1481.67 Q1315 1477.06 1315 1468.33 Q1315 1459.58 1318.06 1455 Q1321.14 1450.39 1326.95 1450.39 Z" fill="#000000" fill-rule="nonzero" fill-opacity="1" /><path clip-path="url(#clip480)" d="M1776.13 1454.1 Q1772.51 1454.1 1770.69 1457.66 Q1768.88 1461.2 1768.88 1468.33 Q1768.88 1475.44 1770.69 1479.01 Q1772.51 1482.55 1776.13 1482.55 Q1779.76 1482.55 1781.57 1479.01 Q1783.39 1475.44 1783.39 1468.33 Q1783.39 1461.2 1781.57 1457.66 Q1779.76 1454.1 1776.13 1454.1 M1776.13 1450.39 Q1781.94 1450.39 1784.99 1455 Q1788.07 1459.58 1788.07 1468.33 Q1788.07 1477.06 1784.99 1481.67 Q1781.94 1486.25 1776.13 1486.25 Q1770.32 1486.25 1767.24 1481.67 Q1764.18 1477.06 1764.18 1468.33 Q1764.18 1459.58 1767.24 1455 Q1770.32 1450.39 1776.13 1450.39 Z" fill="#000000" fill-rule="nonzero" fill-opacity="1" /><path clip-path="url(#clip480)" d="M1796.29 1479.7 L1801.17 1479.7 L1801.17 1485.58 L1796.29 1485.58 L1796.29 1479.7 Z" fill="#000000" fill-rule="nonzero" fill-opacity="1" /><path clip-path="url(#clip480)" d="M1811.4 1451.02 L1829.76 1451.02 L1829.76 1454.96 L1815.69 1454.96 L1815.69 1463.43 Q1816.7 1463.08 1817.72 1462.92 Q1818.74 1462.73 1819.76 1462.73 Q1825.55 1462.73 1828.93 1465.9 Q1832.31 1469.08 1832.31 1474.49 Q1832.31 1480.07 1828.83 1483.17 Q1825.36 1486.25 1819.04 1486.25 Q1816.87 1486.25 1814.6 1485.88 Q1812.35 1485.51 1809.95 1484.77 L1809.95 1480.07 Q1812.03 1481.2 1814.25 1481.76 Q1816.47 1482.32 1818.95 1482.32 Q1822.95 1482.32 1825.29 1480.21 Q1827.63 1478.1 1827.63 1474.49 Q1827.63 1470.88 1825.29 1468.77 Q1822.95 1466.67 1818.95 1466.67 Q1817.07 1466.67 1815.2 1467.08 Q1813.35 1467.5 1811.4 1468.38 L1811.4 1451.02 Z" fill="#000000" fill-rule="nonzero" fill-opacity="1" /><path clip-path="url(#clip480)" d="M2259.31 1481.64 L2266.95 1481.64 L2266.95 1455.28 L2258.64 1456.95 L2258.64 1452.69 L2266.9 1451.02 L2271.58 1451.02 L2271.58 1481.64 L2279.22 1481.64 L2279.22 1485.58 L2259.31 1485.58 L2259.31 1481.64 Z" fill="#000000" fill-rule="nonzero" fill-opacity="1" /><path clip-path="url(#clip480)" d="M2288.66 1479.7 L2293.54 1479.7 L2293.54 1485.58 L2288.66 1485.58 L2288.66 1479.7 Z" fill="#000000" fill-rule="nonzero" fill-opacity="1" /><path clip-path="url(#clip480)" d="M2313.73 1454.1 Q2310.12 1454.1 2308.29 1457.66 Q2306.48 1461.2 2306.48 1468.33 Q2306.48 1475.44 2308.29 1479.01 Q2310.12 1482.55 2313.73 1482.55 Q2317.36 1482.55 2319.17 1479.01 Q2321 1475.44 2321 1468.33 Q2321 1461.2 2319.17 1457.66 Q2317.36 1454.1 2313.73 1454.1 M2313.73 1450.39 Q2319.54 1450.39 2322.59 1455 Q2325.67 1459.58 2325.67 1468.33 Q2325.67 1477.06 2322.59 1481.67 Q2319.54 1486.25 2313.73 1486.25 Q2307.92 1486.25 2304.84 1481.67 Q2301.78 1477.06 2301.78 1468.33 Q2301.78 1459.58 2304.84 1455 Q2307.92 1450.39 2313.73 1450.39 Z" fill="#000000" fill-rule="nonzero" fill-opacity="1" /><path clip-path="url(#clip480)" d="M1134.03 1525.81 L1134.03 1543.66 L1142.11 1543.66 Q1146.6 1543.66 1149.05 1541.34 Q1151.5 1539.02 1151.5 1534.72 Q1151.5 1530.45 1149.05 1528.13 Q1146.6 1525.81 1142.11 1525.81 L1134.03 1525.81 M1127.6 1520.52 L1142.11 1520.52 Q1150.1 1520.52 1154.18 1524.15 Q1158.28 1527.75 1158.28 1534.72 Q1158.28 1541.75 1154.18 1545.35 Q1150.1 1548.95 1142.11 1548.95 L1134.03 1548.95 L1134.03 1568.04 L1127.6 1568.04 L1127.6 1520.52 Z" fill="#000000" fill-rule="nonzero" fill-opacity="1" /><path clip-path="url(#clip480)" d="M1178.14 1536.5 Q1173.43 1536.5 1170.7 1540.19 Q1167.96 1543.85 1167.96 1550.25 Q1167.96 1556.65 1170.66 1560.34 Q1173.4 1564 1178.14 1564 Q1182.82 1564 1185.56 1560.31 Q1188.3 1556.62 1188.3 1550.25 Q1188.3 1543.92 1185.56 1540.23 Q1182.82 1536.5 1178.14 1536.5 M1178.14 1531.54 Q1185.78 1531.54 1190.14 1536.5 Q1194.5 1541.47 1194.5 1550.25 Q1194.5 1559 1190.14 1564 Q1185.78 1568.97 1178.14 1568.97 Q1170.47 1568.97 1166.11 1564 Q1161.78 1559 1161.78 1550.25 Q1161.78 1541.47 1166.11 1536.5 Q1170.47 1531.54 1178.14 1531.54 Z" fill="#000000" fill-rule="nonzero" fill-opacity="1" /><path clip-path="url(#clip480)" d="M1226.94 1533.45 L1226.94 1538.98 Q1224.45 1537.71 1221.78 1537.07 Q1219.11 1536.44 1216.24 1536.44 Q1211.88 1536.44 1209.69 1537.77 Q1207.52 1539.11 1207.52 1541.79 Q1207.52 1543.82 1209.08 1545 Q1210.64 1546.15 1215.35 1547.2 L1217.36 1547.64 Q1223.59 1548.98 1226.2 1551.43 Q1228.85 1553.85 1228.85 1558.21 Q1228.85 1563.17 1224.9 1566.07 Q1220.98 1568.97 1214.11 1568.97 Q1211.24 1568.97 1208.13 1568.39 Q1205.04 1567.85 1201.6 1566.74 L1201.6 1560.69 Q1204.85 1562.38 1208 1563.24 Q1211.15 1564.07 1214.24 1564.07 Q1218.37 1564.07 1220.6 1562.66 Q1222.83 1561.23 1222.83 1558.65 Q1222.83 1556.27 1221.21 1554.99 Q1219.62 1553.72 1214.17 1552.54 L1212.14 1552.07 Q1206.69 1550.92 1204.27 1548.56 Q1201.86 1546.18 1201.86 1542.04 Q1201.86 1537.01 1205.42 1534.27 Q1208.99 1531.54 1215.54 1531.54 Q1218.79 1531.54 1221.65 1532.01 Q1224.52 1532.49 1226.94 1533.45 Z" fill="#000000" fill-rule="nonzero" fill-opacity="1" /><path clip-path="url(#clip480)" d="M1238.17 1532.4 L1244.03 1532.4 L1244.03 1568.04 L1238.17 1568.04 L1238.17 1532.4 M1238.17 1518.52 L1244.03 1518.52 L1244.03 1525.93 L1238.17 1525.93 L1238.17 1518.52 Z" fill="#000000" fill-rule="nonzero" fill-opacity="1" /><path clip-path="url(#clip480)" d="M1262.08 1522.27 L1262.08 1532.4 L1274.14 1532.4 L1274.14 1536.95 L1262.08 1536.95 L1262.08 1556.3 Q1262.08 1560.66 1263.25 1561.9 Q1264.46 1563.14 1268.12 1563.14 L1274.14 1563.14 L1274.14 1568.04 L1268.12 1568.04 Q1261.34 1568.04 1258.76 1565.53 Q1256.19 1562.98 1256.19 1556.3 L1256.19 1536.95 L1251.89 1536.95 L1251.89 1532.4 L1256.19 1532.4 L1256.19 1522.27 L1262.08 1522.27 Z" fill="#000000" fill-rule="nonzero" fill-opacity="1" /><path clip-path="url(#clip480)" d="M1281.84 1532.4 L1287.7 1532.4 L1287.7 1568.04 L1281.84 1568.04 L1281.84 1532.4 M1281.84 1518.52 L1287.7 1518.52 L1287.7 1525.93 L1281.84 1525.93 L1281.84 1518.52 Z" fill="#000000" fill-rule="nonzero" fill-opacity="1" /><path clip-path="url(#clip480)" d="M1313.76 1536.5 Q1309.05 1536.5 1306.32 1540.19 Q1303.58 1543.85 1303.58 1550.25 Q1303.58 1556.65 1306.28 1560.34 Q1309.02 1564 1313.76 1564 Q1318.44 1564 1321.18 1560.31 Q1323.92 1556.62 1323.92 1550.25 Q1323.92 1543.92 1321.18 1540.23 Q1318.44 1536.5 1313.76 1536.5 M1313.76 1531.54 Q1321.4 1531.54 1325.76 1536.5 Q1330.12 1541.47 1330.12 1550.25 Q1330.12 1559 1325.76 1564 Q1321.4 1568.97 1313.76 1568.97 Q1306.09 1568.97 1301.73 1564 Q1297.4 1559 1297.4 1550.25 Q1297.4 1541.47 1301.73 1536.5 Q1306.09 1531.54 1313.76 1531.54 Z" fill="#000000" fill-rule="nonzero" fill-opacity="1" /><path clip-path="url(#clip480)" d="M1369.46 1546.53 L1369.46 1568.04 L1363.61 1568.04 L1363.61 1546.72 Q1363.61 1541.66 1361.63 1539.14 Q1359.66 1536.63 1355.71 1536.63 Q1350.97 1536.63 1348.23 1539.65 Q1345.5 1542.68 1345.5 1547.9 L1345.5 1568.04 L1339.61 1568.04 L1339.61 1532.4 L1345.5 1532.4 L1345.5 1537.93 Q1347.6 1534.72 1350.43 1533.13 Q1353.3 1531.54 1357.02 1531.54 Q1363.16 1531.54 1366.31 1535.36 Q1369.46 1539.14 1369.46 1546.53 Z" fill="#000000" fill-rule="nonzero" fill-opacity="1" /><path clip-path="url(#clip480)" d="M1415.93 1518.58 Q1411.67 1525.9 1409.6 1533.06 Q1407.53 1540.23 1407.53 1547.58 Q1407.53 1554.93 1409.6 1562.16 Q1411.7 1569.35 1415.93 1576.64 L1410.84 1576.64 Q1406.07 1569.16 1403.68 1561.93 Q1401.32 1554.71 1401.32 1547.58 Q1401.32 1540.48 1403.68 1533.29 Q1406.04 1526.09 1410.84 1518.58 L1415.93 1518.58 Z" fill="#000000" fill-rule="nonzero" fill-opacity="1" /><path clip-path="url(#clip480)" d="M1430.8 1550.25 Q1430.8 1556.71 1433.44 1560.4 Q1436.11 1564.07 1440.76 1564.07 Q1445.41 1564.07 1448.08 1560.4 Q1450.75 1556.71 1450.75 1550.25 Q1450.75 1543.79 1448.08 1540.13 Q1445.41 1536.44 1440.76 1536.44 Q1436.11 1536.44 1433.44 1540.13 Q1430.8 1543.79 1430.8 1550.25 M1450.75 1562.7 Q1448.91 1565.88 1446.08 1567.44 Q1443.27 1568.97 1439.33 1568.97 Q1432.87 1568.97 1428.79 1563.81 Q1424.75 1558.65 1424.75 1550.25 Q1424.75 1541.85 1428.79 1536.69 Q1432.87 1531.54 1439.33 1531.54 Q1443.27 1531.54 1446.08 1533.1 Q1448.91 1534.62 1450.75 1537.81 L1450.75 1532.4 L1456.61 1532.4 L1456.61 1581.6 L1450.75 1581.6 L1450.75 1562.7 Z" fill="#000000" fill-rule="nonzero" fill-opacity="1" /><path clip-path="url(#clip480)" d="M1467.75 1518.58 L1472.84 1518.58 Q1477.62 1526.09 1479.97 1533.29 Q1482.36 1540.48 1482.36 1547.58 Q1482.36 1554.71 1479.97 1561.93 Q1477.62 1569.16 1472.84 1576.64 L1467.75 1576.64 Q1471.98 1569.35 1474.05 1562.16 Q1476.15 1554.93 1476.15 1547.58 Q1476.15 1540.23 1474.05 1533.06 Q1471.98 1525.9 1467.75 1518.58 Z" fill="#000000" fill-rule="nonzero" fill-opacity="1" /><polyline clip-path="url(#clip482)" style="stroke:#000000; stroke-linecap:round; stroke-linejoin:round; stroke-width:2; stroke-opacity:0.1; fill:none" points="257.204,1384.24 2352.76,1384.24 "/>
<polyline clip-path="url(#clip482)" style="stroke:#000000; stroke-linecap:round; stroke-linejoin:round; stroke-width:2; stroke-opacity:0.1; fill:none" points="257.204,1059.73 2352.76,1059.73 "/>
<polyline clip-path="url(#clip482)" style="stroke:#000000; stroke-linecap:round; stroke-linejoin:round; stroke-width:2; stroke-opacity:0.1; fill:none" points="257.204,735.213 2352.76,735.213 "/>
<polyline clip-path="url(#clip482)" style="stroke:#000000; stroke-linecap:round; stroke-linejoin:round; stroke-width:2; stroke-opacity:0.1; fill:none" points="257.204,410.7 2352.76,410.7 "/>
<polyline clip-path="url(#clip482)" style="stroke:#000000; stroke-linecap:round; stroke-linejoin:round; stroke-width:2; stroke-opacity:0.1; fill:none" points="257.204,86.1857 2352.76,86.1857 "/>
<polyline clip-path="url(#clip480)" style="stroke:#000000; stroke-linecap:round; stroke-linejoin:round; stroke-width:4; stroke-opacity:1; fill:none" points="257.204,1423.18 257.204,47.2441 "/>
<polyline clip-path="url(#clip480)" style="stroke:#000000; stroke-linecap:round; stroke-linejoin:round; stroke-width:4; stroke-opacity:1; fill:none" points="257.204,1384.24 276.102,1384.24 "/>
<polyline clip-path="url(#clip480)" style="stroke:#000000; stroke-linecap:round; stroke-linejoin:round; stroke-width:4; stroke-opacity:1; fill:none" points="257.204,1059.73 276.102,1059.73 "/>
<polyline clip-path="url(#clip480)" style="stroke:#000000; stroke-linecap:round; stroke-linejoin:round; stroke-width:4; stroke-opacity:1; fill:none" points="257.204,735.213 276.102,735.213 "/>
<polyline clip-path="url(#clip480)" style="stroke:#000000; stroke-linecap:round; stroke-linejoin:round; stroke-width:4; stroke-opacity:1; fill:none" points="257.204,410.7 276.102,410.7 "/>
<polyline clip-path="url(#clip480)" style="stroke:#000000; stroke-linecap:round; stroke-linejoin:round; stroke-width:4; stroke-opacity:1; fill:none" points="257.204,86.1857 276.102,86.1857 "/>
<path clip-path="url(#clip480)" d="M114.26 1384.69 L143.936 1384.69 L143.936 1388.63 L114.26 1388.63 L114.26 1384.69 Z" fill="#000000" fill-rule="nonzero" fill-opacity="1" /><path clip-path="url(#clip480)" d="M154.839 1397.59 L162.477 1397.59 L162.477 1371.22 L154.167 1372.89 L154.167 1368.63 L162.431 1366.96 L167.107 1366.96 L167.107 1397.59 L174.746 1397.59 L174.746 1401.52 L154.839 1401.52 L154.839 1397.59 Z" fill="#000000" fill-rule="nonzero" fill-opacity="1" /><path clip-path="url(#clip480)" d="M184.19 1395.64 L189.075 1395.64 L189.075 1401.52 L184.19 1401.52 L184.19 1395.64 Z" fill="#000000" fill-rule="nonzero" fill-opacity="1" /><path clip-path="url(#clip480)" d="M209.26 1370.04 Q205.649 1370.04 203.82 1373.6 Q202.014 1377.15 202.014 1384.28 Q202.014 1391.38 203.82 1394.95 Q205.649 1398.49 209.26 1398.49 Q212.894 1398.49 214.699 1394.95 Q216.528 1391.38 216.528 1384.28 Q216.528 1377.15 214.699 1373.6 Q212.894 1370.04 209.26 1370.04 M209.26 1366.34 Q215.07 1366.34 218.125 1370.94 Q221.204 1375.53 221.204 1384.28 Q221.204 1393 218.125 1397.61 Q215.07 1402.19 209.26 1402.19 Q203.449 1402.19 200.371 1397.61 Q197.315 1393 197.315 1384.28 Q197.315 1375.53 200.371 1370.94 Q203.449 1366.34 209.26 1366.34 Z" fill="#000000" fill-rule="nonzero" fill-opacity="1" /><path clip-path="url(#clip480)" d="M115.256 1060.18 L144.931 1060.18 L144.931 1064.11 L115.256 1064.11 L115.256 1060.18 Z" fill="#000000" fill-rule="nonzero" fill-opacity="1" /><path clip-path="url(#clip480)" d="M165.024 1045.53 Q161.413 1045.53 159.584 1049.09 Q157.778 1052.63 157.778 1059.76 Q157.778 1066.87 159.584 1070.43 Q161.413 1073.98 165.024 1073.98 Q168.658 1073.98 170.464 1070.43 Q172.292 1066.87 172.292 1059.76 Q172.292 1052.63 170.464 1049.09 Q168.658 1045.53 165.024 1045.53 M165.024 1041.82 Q170.834 1041.82 173.889 1046.43 Q176.968 1051.01 176.968 1059.76 Q176.968 1068.49 173.889 1073.1 Q170.834 1077.68 165.024 1077.68 Q159.214 1077.68 156.135 1073.1 Q153.079 1068.49 153.079 1059.76 Q153.079 1051.01 156.135 1046.43 Q159.214 1041.82 165.024 1041.82 Z" fill="#000000" fill-rule="nonzero" fill-opacity="1" /><path clip-path="url(#clip480)" d="M185.186 1071.13 L190.07 1071.13 L190.07 1077.01 L185.186 1077.01 L185.186 1071.13 Z" fill="#000000" fill-rule="nonzero" fill-opacity="1" /><path clip-path="url(#clip480)" d="M200.301 1042.45 L218.658 1042.45 L218.658 1046.38 L204.584 1046.38 L204.584 1054.85 Q205.602 1054.51 206.621 1054.35 Q207.639 1054.16 208.658 1054.16 Q214.445 1054.16 217.824 1057.33 Q221.204 1060.5 221.204 1065.92 Q221.204 1071.5 217.732 1074.6 Q214.26 1077.68 207.94 1077.68 Q205.764 1077.68 203.496 1077.31 Q201.25 1076.94 198.843 1076.2 L198.843 1071.5 Q200.926 1072.63 203.149 1073.19 Q205.371 1073.74 207.848 1073.74 Q211.852 1073.74 214.19 1071.64 Q216.528 1069.53 216.528 1065.92 Q216.528 1062.31 214.19 1060.2 Q211.852 1058.1 207.848 1058.1 Q205.973 1058.1 204.098 1058.51 Q202.246 1058.93 200.301 1059.81 L200.301 1042.45 Z" fill="#000000" fill-rule="nonzero" fill-opacity="1" /><path clip-path="url(#clip480)" d="M164.028 721.012 Q160.417 721.012 158.589 724.577 Q156.783 728.119 156.783 735.248 Q156.783 742.355 158.589 745.919 Q160.417 749.461 164.028 749.461 Q167.663 749.461 169.468 745.919 Q171.297 742.355 171.297 735.248 Q171.297 728.119 169.468 724.577 Q167.663 721.012 164.028 721.012 M164.028 717.308 Q169.839 717.308 172.894 721.915 Q175.973 726.498 175.973 735.248 Q175.973 743.975 172.894 748.581 Q169.839 753.165 164.028 753.165 Q158.218 753.165 155.14 748.581 Q152.084 743.975 152.084 735.248 Q152.084 726.498 155.14 721.915 Q158.218 717.308 164.028 717.308 Z" fill="#000000" fill-rule="nonzero" fill-opacity="1" /><path clip-path="url(#clip480)" d="M184.19 746.614 L189.075 746.614 L189.075 752.493 L184.19 752.493 L184.19 746.614 Z" fill="#000000" fill-rule="nonzero" fill-opacity="1" /><path clip-path="url(#clip480)" d="M209.26 721.012 Q205.649 721.012 203.82 724.577 Q202.014 728.119 202.014 735.248 Q202.014 742.355 203.82 745.919 Q205.649 749.461 209.26 749.461 Q212.894 749.461 214.699 745.919 Q216.528 742.355 216.528 735.248 Q216.528 728.119 214.699 724.577 Q212.894 721.012 209.26 721.012 M209.26 717.308 Q215.07 717.308 218.125 721.915 Q221.204 726.498 221.204 735.248 Q221.204 743.975 218.125 748.581 Q215.07 753.165 209.26 753.165 Q203.449 753.165 200.371 748.581 Q197.315 743.975 197.315 735.248 Q197.315 726.498 200.371 721.915 Q203.449 717.308 209.26 717.308 Z" fill="#000000" fill-rule="nonzero" fill-opacity="1" /><path clip-path="url(#clip480)" d="M165.024 396.498 Q161.413 396.498 159.584 400.063 Q157.778 403.605 157.778 410.734 Q157.778 417.841 159.584 421.406 Q161.413 424.947 165.024 424.947 Q168.658 424.947 170.464 421.406 Q172.292 417.841 172.292 410.734 Q172.292 403.605 170.464 400.063 Q168.658 396.498 165.024 396.498 M165.024 392.795 Q170.834 392.795 173.889 397.401 Q176.968 401.984 176.968 410.734 Q176.968 419.461 173.889 424.068 Q170.834 428.651 165.024 428.651 Q159.214 428.651 156.135 424.068 Q153.079 419.461 153.079 410.734 Q153.079 401.984 156.135 397.401 Q159.214 392.795 165.024 392.795 Z" fill="#000000" fill-rule="nonzero" fill-opacity="1" /><path clip-path="url(#clip480)" d="M185.186 422.1 L190.07 422.1 L190.07 427.98 L185.186 427.98 L185.186 422.1 Z" fill="#000000" fill-rule="nonzero" fill-opacity="1" /><path clip-path="url(#clip480)" d="M200.301 393.42 L218.658 393.42 L218.658 397.355 L204.584 397.355 L204.584 405.827 Q205.602 405.48 206.621 405.318 Q207.639 405.132 208.658 405.132 Q214.445 405.132 217.824 408.304 Q221.204 411.475 221.204 416.892 Q221.204 422.47 217.732 425.572 Q214.26 428.651 207.94 428.651 Q205.764 428.651 203.496 428.281 Q201.25 427.91 198.843 427.169 L198.843 422.47 Q200.926 423.605 203.149 424.16 Q205.371 424.716 207.848 424.716 Q211.852 424.716 214.19 422.609 Q216.528 420.503 216.528 416.892 Q216.528 413.281 214.19 411.174 Q211.852 409.068 207.848 409.068 Q205.973 409.068 204.098 409.484 Q202.246 409.901 200.301 410.781 L200.301 393.42 Z" fill="#000000" fill-rule="nonzero" fill-opacity="1" /><path clip-path="url(#clip480)" d="M154.839 99.5305 L162.477 99.5305 L162.477 73.1649 L154.167 74.8316 L154.167 70.5723 L162.431 68.9057 L167.107 68.9057 L167.107 99.5305 L174.746 99.5305 L174.746 103.466 L154.839 103.466 L154.839 99.5305 Z" fill="#000000" fill-rule="nonzero" fill-opacity="1" /><path clip-path="url(#clip480)" d="M184.19 97.5861 L189.075 97.5861 L189.075 103.466 L184.19 103.466 L184.19 97.5861 Z" fill="#000000" fill-rule="nonzero" fill-opacity="1" /><path clip-path="url(#clip480)" d="M209.26 71.9844 Q205.649 71.9844 203.82 75.5492 Q202.014 79.0908 202.014 86.2204 Q202.014 93.3268 203.82 96.8916 Q205.649 100.433 209.26 100.433 Q212.894 100.433 214.699 96.8916 Q216.528 93.3268 216.528 86.2204 Q216.528 79.0908 214.699 75.5492 Q212.894 71.9844 209.26 71.9844 M209.26 68.2807 Q215.07 68.2807 218.125 72.8871 Q221.204 77.4704 221.204 86.2204 Q221.204 94.9472 218.125 99.5537 Q215.07 104.137 209.26 104.137 Q203.449 104.137 200.371 99.5537 Q197.315 94.9472 197.315 86.2204 Q197.315 77.4704 200.371 72.8871 Q203.449 68.2807 209.26 68.2807 Z" fill="#000000" fill-rule="nonzero" fill-opacity="1" /><path clip-path="url(#clip480)" d="M16.4842 971.396 L16.4842 961.815 L48.8219 949.689 L16.4842 937.498 L16.4842 927.918 L64.0042 927.918 L64.0042 934.188 L22.277 934.188 L54.8694 946.442 L54.8694 952.903 L22.277 965.157 L64.0042 965.157 L64.0042 971.396 L16.4842 971.396 Z" fill="#000000" fill-rule="nonzero" fill-opacity="1" /><path clip-path="url(#clip480)" d="M32.4621 901.596 Q32.4621 906.306 36.1542 909.044 Q39.8145 911.781 46.212 911.781 Q52.6095 911.781 56.3017 909.075 Q59.9619 906.338 59.9619 901.596 Q59.9619 896.917 56.2698 894.18 Q52.5777 891.442 46.212 891.442 Q39.8781 891.442 36.186 894.18 Q32.4621 896.917 32.4621 901.596 M27.4968 901.596 Q27.4968 893.957 32.4621 889.596 Q37.4273 885.236 46.212 885.236 Q54.9649 885.236 59.9619 889.596 Q64.9272 893.957 64.9272 901.596 Q64.9272 909.266 59.9619 913.627 Q54.9649 917.955 46.212 917.955 Q37.4273 917.955 32.4621 913.627 Q27.4968 909.266 27.4968 901.596 Z" fill="#000000" fill-rule="nonzero" fill-opacity="1" /><path clip-path="url(#clip480)" d="M35.1993 847.774 Q31.2526 845.577 29.3747 842.522 Q27.4968 839.466 27.4968 835.329 Q27.4968 829.759 31.4117 826.735 Q35.2948 823.711 42.4881 823.711 L64.0042 823.711 L64.0042 829.599 L42.679 829.599 Q37.5546 829.599 35.072 831.414 Q32.5894 833.228 32.5894 836.952 Q32.5894 841.503 35.6131 844.145 Q38.6368 846.787 43.8567 846.787 L64.0042 846.787 L64.0042 852.675 L42.679 852.675 Q37.5228 852.675 35.072 854.489 Q32.5894 856.304 32.5894 860.091 Q32.5894 864.579 35.6449 867.221 Q38.6686 869.863 43.8567 869.863 L64.0042 869.863 L64.0042 875.751 L28.3562 875.751 L28.3562 869.863 L33.8944 869.863 Q30.616 867.857 29.0564 865.056 Q27.4968 862.256 27.4968 858.404 Q27.4968 854.521 29.4702 851.816 Q31.4436 849.079 35.1993 847.774 Z" fill="#000000" fill-rule="nonzero" fill-opacity="1" /><path clip-path="url(#clip480)" d="M44.7161 781.538 L47.5806 781.538 L47.5806 808.465 Q53.6281 808.083 56.8109 804.837 Q59.9619 801.559 59.9619 795.734 Q59.9619 792.36 59.1344 789.209 Q58.3069 786.026 56.6518 782.907 L62.1899 782.907 Q63.5267 786.058 64.227 789.368 Q64.9272 792.678 64.9272 796.084 Q64.9272 804.614 59.9619 809.611 Q54.9967 814.576 46.5303 814.576 Q37.7774 814.576 32.6531 809.866 Q27.4968 805.123 27.4968 797.103 Q27.4968 789.909 32.1438 785.74 Q36.7589 781.538 44.7161 781.538 M42.9973 787.395 Q38.1912 787.459 35.3266 790.1 Q32.4621 792.71 32.4621 797.039 Q32.4621 801.94 35.2312 804.901 Q38.0002 807.829 43.0292 808.274 L42.9973 787.395 Z" fill="#000000" fill-rule="nonzero" fill-opacity="1" /><path clip-path="url(#clip480)" d="M42.4881 742.294 L64.0042 742.294 L64.0042 748.15 L42.679 748.15 Q37.6183 748.15 35.1038 750.124 Q32.5894 752.097 32.5894 756.044 Q32.5894 760.786 35.6131 763.523 Q38.6368 766.261 43.8567 766.261 L64.0042 766.261 L64.0042 772.149 L28.3562 772.149 L28.3562 766.261 L33.8944 766.261 Q30.6797 764.16 29.0883 761.327 Q27.4968 758.463 27.4968 754.739 Q27.4968 748.596 31.3163 745.445 Q35.1038 742.294 42.4881 742.294 Z" fill="#000000" fill-rule="nonzero" fill-opacity="1" /><path clip-path="url(#clip480)" d="M18.2347 724.82 L28.3562 724.82 L28.3562 712.757 L32.9077 712.757 L32.9077 724.82 L52.2594 724.82 Q56.6199 724.82 57.8613 723.642 Q59.1026 722.433 59.1026 718.773 L59.1026 712.757 L64.0042 712.757 L64.0042 718.773 Q64.0042 725.552 61.4897 728.13 Q58.9434 730.708 52.2594 730.708 L32.9077 730.708 L32.9077 735.005 L28.3562 735.005 L28.3562 730.708 L18.2347 730.708 L18.2347 724.82 Z" fill="#000000" fill-rule="nonzero" fill-opacity="1" /><path clip-path="url(#clip480)" d="M49.9359 705.659 L28.3562 705.659 L28.3562 699.803 L49.7131 699.803 Q54.7739 699.803 57.3202 697.829 Q59.8346 695.856 59.8346 691.909 Q59.8346 687.167 56.8109 684.43 Q53.7872 681.66 48.5673 681.66 L28.3562 681.66 L28.3562 675.804 L64.0042 675.804 L64.0042 681.66 L58.5296 681.66 Q61.7762 683.793 63.3676 686.626 Q64.9272 689.427 64.9272 693.151 Q64.9272 699.293 61.1078 702.476 Q57.2883 705.659 49.9359 705.659 M27.4968 690.923 L27.4968 690.923 Z" fill="#000000" fill-rule="nonzero" fill-opacity="1" /><path clip-path="url(#clip480)" d="M35.1993 635.987 Q31.2526 633.79 29.3747 630.735 Q27.4968 627.679 27.4968 623.542 Q27.4968 617.972 31.4117 614.948 Q35.2948 611.924 42.4881 611.924 L64.0042 611.924 L64.0042 617.812 L42.679 617.812 Q37.5546 617.812 35.072 619.627 Q32.5894 621.441 32.5894 625.165 Q32.5894 629.716 35.6131 632.358 Q38.6368 635 43.8567 635 L64.0042 635 L64.0042 640.888 L42.679 640.888 Q37.5228 640.888 35.072 642.702 Q32.5894 644.517 32.5894 648.304 Q32.5894 652.792 35.6449 655.434 Q38.6686 658.076 43.8567 658.076 L64.0042 658.076 L64.0042 663.964 L28.3562 663.964 L28.3562 658.076 L33.8944 658.076 Q30.616 656.07 29.0564 653.269 Q27.4968 650.468 27.4968 646.617 Q27.4968 642.734 29.4702 640.029 Q31.4436 637.291 35.1993 635.987 Z" fill="#000000" fill-rule="nonzero" fill-opacity="1" /><path clip-path="url(#clip480)" d="M14.5426 565.454 Q21.8632 569.72 29.0246 571.788 Q36.186 573.857 43.5384 573.857 Q50.8908 573.857 58.1159 571.788 Q65.3091 569.688 72.5979 565.454 L72.5979 570.547 Q65.1182 575.321 57.8931 577.708 Q50.668 580.064 43.5384 580.064 Q36.4406 580.064 29.2474 577.708 Q22.0542 575.353 14.5426 570.547 L14.5426 565.454 Z" fill="#000000" fill-rule="nonzero" fill-opacity="1" /><path clip-path="url(#clip480)" d="M58.657 548.426 L77.5631 548.426 L77.5631 554.315 L28.3562 554.315 L28.3562 548.426 L33.7671 548.426 Q30.5842 546.58 29.0564 543.779 Q27.4968 540.947 27.4968 537.032 Q27.4968 530.539 32.6531 526.496 Q37.8093 522.422 46.212 522.422 Q54.6147 522.422 59.771 526.496 Q64.9272 530.539 64.9272 537.032 Q64.9272 540.947 63.3994 543.779 Q61.8398 546.58 58.657 548.426 M46.212 528.502 Q39.7508 528.502 36.0905 531.175 Q32.3984 533.817 32.3984 538.464 Q32.3984 543.111 36.0905 545.784 Q39.7508 548.426 46.212 548.426 Q52.6732 548.426 56.3653 545.784 Q60.0256 543.111 60.0256 538.464 Q60.0256 533.817 56.3653 531.175 Q52.6732 528.502 46.212 528.502 Z" fill="#000000" fill-rule="nonzero" fill-opacity="1" /><path clip-path="url(#clip480)" d="M14.5426 513.638 L14.5426 508.545 Q22.0542 503.771 29.2474 501.415 Q36.4406 499.028 43.5384 499.028 Q50.668 499.028 57.8931 501.415 Q65.1182 503.771 72.5979 508.545 L72.5979 513.638 Q65.3091 509.404 58.1159 507.336 Q50.8908 505.235 43.5384 505.235 Q36.186 505.235 29.0246 507.336 Q21.8632 509.404 14.5426 513.638 Z" fill="#000000" fill-rule="nonzero" fill-opacity="1" /><polyline clip-path="url(#clip482)" style="stroke:#009af9; stroke-linecap:round; stroke-linejoin:round; stroke-width:16; stroke-opacity:1; fill:none" points="1304.33,86.1857 1310.4,86.1979 1316.47,86.2346 1322.53,86.2958 1328.6,86.3815 1334.66,86.4917 1340.73,86.6263 1346.79,86.7854 1352.85,86.969 1358.91,87.177 1364.97,87.4095 1371.02,87.6663 1377.07,87.9477 1383.12,88.2534 1389.17,88.5836 1395.21,88.9381 1401.25,89.317 1407.29,89.7203 1413.32,90.148 1419.35,90.5999 1425.37,91.0762 1431.39,91.5768 1437.4,92.1017 1443.41,92.6508 1449.42,93.2242 1455.42,93.8217 1461.41,94.4435 1467.4,95.0894 1473.38,95.7595 1479.35,96.4537 1485.32,97.1721 1491.28,97.9144 1497.23,98.6809 1503.18,99.4713 1509.12,100.286 1515.05,101.124 1520.97,101.986 1526.89,102.873 1532.8,103.783 1538.69,104.716 1544.58,105.674 1550.46,106.655 1556.34,107.661 1562.2,108.689 1568.05,109.742 1573.89,110.818 1579.72,111.917 1585.54,113.04 1591.35,114.187 1597.15,115.357 1602.94,116.55 1608.72,117.767 1614.49,119.007 1620.24,120.27 1625.98,121.556 1631.71,122.866 1637.43,124.199 1643.14,125.554 1648.83,126.933 1654.51,128.335 1660.18,129.759 1665.83,131.207 1671.47,132.677 1677.09,134.17 1682.71,135.685 1688.3,137.224 1693.89,138.784 1699.45,140.368 1705.01,141.973 1710.55,143.601 1716.07,145.252 1721.58,146.924 1727.07,148.619 1732.54,150.336 1738,152.075 1743.44,153.836 1748.87,155.619 1754.28,157.424 1759.67,159.251 1765.05,161.099 1770.41,162.969 1775.75,164.861 1781.07,166.774 1786.37,168.708 1791.66,170.664 1796.93,172.641 1802.18,174.64 1807.41,176.659 1812.62,178.7 1817.81,180.762 1822.99,182.844 1828.14,184.948 1833.28,187.072 1838.39,189.217 1843.48,191.382 1848.56,193.568 1853.61,195.774 1858.64,198.001 1863.65,200.248 1868.64,202.515 1873.61,204.802 1878.56,207.11 1883.49,209.437 1888.39,211.784 1893.27,214.151 1898.13,216.537 1902.97,218.943 1907.78,221.369 1912.58,223.814 1917.35,226.278 1922.09,228.761 1926.81,231.263 1931.51,233.785 1936.19,236.325 1940.84,238.885 1945.47,241.462 1950.07,244.059 1954.65,246.674 1959.21,249.308 1963.74,251.959 1968.24,254.629 1972.72,257.318 1977.17,260.024 1981.6,262.748 1986.01,265.49 1990.39,268.25 1994.74,271.027 1999.06,273.822 2003.36,276.634 2007.64,279.464 2011.89,282.31 2016.11,285.174 2020.3,288.055 2024.47,290.952 2028.61,293.867 2032.72,296.798 2036.8,299.745 2040.86,302.71 2044.89,305.69 2048.89,308.686 2052.86,311.699 2056.81,314.728 2060.72,317.772 2064.61,320.832 2068.47,323.908 2072.3,326.999 2076.1,330.106 2079.87,333.228 2083.62,336.365 2087.33,339.518 2091.02,342.685 2094.67,345.867 2098.3,349.064 2101.89,352.275 2105.45,355.5 2108.99,358.74 2112.49,361.995 2115.97,365.263 2119.41,368.545 2122.82,371.841 2126.2,375.151 2129.55,378.474 2132.87,381.811 2136.16,385.161 2139.42,388.525 2142.64,391.901 2145.84,395.291 2149,398.693 2152.13,402.108 2155.23,405.535 2158.29,408.975 2161.32,412.427 2164.33,415.892 2167.29,419.368 2170.23,422.856 2173.13,426.357 2176.01,429.868 2178.84,433.392 2181.65,436.926 2184.42,440.472 2187.16,444.029 2189.86,447.597 2192.54,451.176 2195.17,454.766 2197.78,458.366 2200.35,461.977 2202.89,465.598 2205.39,469.229 2207.86,472.87 2210.3,476.521 2212.7,480.182 2215.06,483.852 2217.4,487.532 2219.69,491.221 2221.96,494.92 2224.19,498.627 2226.38,502.344 2228.54,506.069 2230.67,509.803 2232.75,513.545 2234.81,517.296 2236.83,521.055 2238.81,524.822 2240.76,528.597 2242.68,532.38 2244.55,536.17 2246.4,539.968 2248.2,543.773 2249.98,547.586 2251.71,551.405 2253.41,555.232 2255.08,559.065 2256.71,562.905 2258.3,566.751 2259.86,570.604 2261.38,574.463 2262.86,578.328 2264.31,582.199 2265.72,586.076 2267.1,589.959 2268.44,593.846 2269.74,597.74 2271.01,601.638 2272.24,605.542 2273.43,609.45 2274.59,613.363 2275.71,617.281 2276.79,621.203 2277.84,625.129 2278.85,629.06 2279.83,632.994 2280.76,636.933 2281.66,640.875 2282.53,644.821 2283.35,648.77 2284.14,652.722 2284.9,656.677 2285.61,660.636 2286.29,664.597 2286.93,668.561 2287.54,672.528 2288.1,676.496 2288.63,680.467 2289.13,684.44 2289.58,688.415 2290,692.392 2290.38,696.371 2290.73,700.35 2291.04,704.332 2291.31,708.314 2291.54,712.297 2291.73,716.281 2291.89,720.266 2292.01,724.252 2292.1,728.238 2292.14,732.224 2292.15,736.21 2292.13,740.196 2292.06,744.182 2291.96,748.168 2291.82,752.153 2291.64,756.138 2291.43,760.122 2291.18,764.105 2290.89,768.086 2290.56,772.067 2290.2,776.046 2289.8,780.023 2289.36,783.999 2288.89,787.973 2288.37,791.945 2287.82,795.915 2287.24,799.883 2286.62,803.848 2285.96,807.811 2285.26,811.771 2284.52,815.728 2283.75,819.682 2282.95,823.632 2282.1,827.58 2281.22,831.524 2280.3,835.464 2279.34,839.401 2278.35,843.333 2277.32,847.262 2276.26,851.186 2275.15,855.106 2274.02,859.021 2272.84,862.932 2271.63,866.838 2270.38,870.739 2269.09,874.635 2267.77,878.525 2266.41,882.41 2265.02,886.29 2263.59,890.164 2262.12,894.032 2260.62,897.894 2259.08,901.75 2257.51,905.6 2255.9,909.443 2254.25,913.279 2252.57,917.109 2250.85,920.932 2249.1,924.749 2247.31,928.557 2245.48,932.359 2243.62,936.153 2241.72,939.94 2239.79,943.719 2237.83,947.49 2235.82,951.253 2233.79,955.008 2231.71,958.754 2229.61,962.492 2227.47,966.222 2225.29,969.943 2223.08,973.655 2220.83,977.358 2218.55,981.052 2216.23,984.736 2213.88,988.411 2211.5,992.077 2209.08,995.733 2206.63,999.379 2204.14,1003.02 2201.62,1006.64 2199.07,1010.26 2196.48,1013.86 2193.86,1017.46 2191.2,1021.04 2188.52,1024.62 2185.79,1028.18 2183.04,1031.73 2180.25,1035.27 2177.43,1038.8 2174.57,1042.32 2171.69,1045.82 2168.77,1049.32 2165.81,1052.8 2162.83,1056.27 2159.81,1059.73 2156.76,1063.17 2153.68,1066.61 2150.57,1070.03 2147.42,1073.44 2144.24,1076.83 2141.03,1080.22 2137.79,1083.59 2134.52,1086.94 2131.22,1090.29 2127.88,1093.62 2124.52,1096.93 2121.12,1100.24 2117.69,1103.52 2114.23,1106.8 2110.74,1110.06 2107.23,1113.31 2103.68,1116.54 2100.1,1119.76 2096.49,1122.96 2092.85,1126.15 2089.18,1129.33 2085.48,1132.49 2081.75,1135.63 2077.99,1138.76 2074.21,1141.88 2070.39,1144.98 2066.54,1148.06 2062.67,1151.13 2058.77,1154.18 2054.84,1157.22 2050.88,1160.24 2046.89,1163.24 2042.88,1166.23 2038.83,1169.2 2034.76,1172.16 2030.66,1175.1 2026.54,1178.02 2022.39,1180.93 2018.21,1183.81 2014,1186.69 2009.77,1189.54 2005.5,1192.38 2001.22,1195.2 1996.9,1198 1992.57,1200.79 1988.2,1203.56 1983.81,1206.31 1979.39,1209.04 1974.95,1211.76 1970.48,1214.46 1965.99,1217.13 1961.47,1219.8 1956.93,1222.44 1952.36,1225.06 1947.77,1227.67 1943.16,1230.26 1938.52,1232.82 1933.85,1235.37 1929.17,1237.91 1924.46,1240.42 1919.72,1242.91 1914.96,1245.38 1910.18,1247.84 1905.38,1250.27 1900.55,1252.69 1895.71,1255.09 1890.83,1257.46 1885.94,1259.82 1881.03,1262.16 1876.09,1264.47 1871.13,1266.77 1866.15,1269.05 1861.15,1271.31 1856.13,1273.54 1851.09,1275.76 1846.02,1277.95 1840.94,1280.13 1835.84,1282.29 1830.71,1284.42 1825.57,1286.53 1820.4,1288.63 1815.22,1290.7 1810.02,1292.75 1804.8,1294.78 1799.56,1296.79 1794.3,1298.78 1789.02,1300.74 1783.72,1302.69 1778.41,1304.61 1773.08,1306.52 1767.73,1308.4 1762.36,1310.25 1756.98,1312.09 1751.58,1313.91 1746.16,1315.7 1740.73,1317.47 1735.27,1319.22 1729.81,1320.95 1724.32,1322.66 1718.82,1324.34 1713.31,1326 1707.78,1327.64 1702.23,1329.26 1696.67,1330.85 1691.1,1332.43 1685.51,1333.98 1679.9,1335.5 1674.28,1337.01 1668.65,1338.49 1663,1339.95 1657.35,1341.38 1651.67,1342.8 1645.99,1344.19 1640.29,1345.55 1634.57,1346.9 1628.85,1348.22 1623.11,1349.52 1617.37,1350.79 1611.61,1352.04 1605.83,1353.27 1600.05,1354.48 1594.26,1355.66 1588.45,1356.82 1582.63,1357.95 1576.81,1359.06 1570.97,1360.15 1565.12,1361.21 1559.27,1362.26 1553.4,1363.27 1547.53,1364.27 1541.64,1365.23 1535.75,1366.18 1529.84,1367.1 1523.93,1368 1518.01,1368.87 1512.09,1369.73 1506.15,1370.55 1500.21,1371.35 1494.26,1372.13 1488.3,1372.89 1482.34,1373.62 1476.36,1374.32 1470.39,1375.01 1464.4,1375.66 1458.41,1376.3 1452.42,1376.91 1446.42,1377.49 1440.41,1378.05 1434.4,1378.59 1428.38,1379.1 1422.36,1379.59 1416.33,1380.06 1410.3,1380.5 1404.27,1380.91 1398.23,1381.3 1392.19,1381.67 1386.15,1382.01 1380.1,1382.33 1374.05,1382.62 1367.99,1382.89 1361.94,1383.14 1355.88,1383.36 1349.82,1383.55 1343.76,1383.72 1337.7,1383.87 1331.63,1383.99 1325.57,1384.09 1319.5,1384.16 1313.43,1384.21 1307.37,1384.24 1301.3,1384.24 1295.23,1384.21 1289.17,1384.16 1283.1,1384.09 1277.03,1383.99 1270.97,1383.87 1264.91,1383.72 1258.85,1383.55 1252.79,1383.36 1246.73,1383.14 1240.67,1382.89 1234.62,1382.62 1228.57,1382.33 1222.52,1382.01 1216.48,1381.67 1210.43,1381.3 1204.4,1380.91 1198.36,1380.5 1192.33,1380.06 1186.31,1379.59 1180.29,1379.1 1174.27,1378.59 1168.26,1378.05 1162.25,1377.49 1156.25,1376.91 1150.25,1376.3 1144.26,1375.66 1138.28,1375.01 1132.3,1374.32 1126.33,1373.62 1120.37,1372.89 1114.41,1372.13 1108.46,1371.35 1102.52,1370.55 1096.58,1369.73 1090.65,1368.87 1084.73,1368 1078.82,1367.1 1072.92,1366.18 1067.03,1365.23 1061.14,1364.27 1055.26,1363.27 1049.4,1362.26 1043.54,1361.21 1037.69,1360.15 1031.86,1359.06 1026.03,1357.95 1020.21,1356.82 1014.41,1355.66 1008.62,1354.48 1002.83,1353.27 997.06,1352.04 991.3,1350.79 985.551,1349.52 979.815,1348.22 974.091,1346.9 968.379,1345.55 962.68,1344.19 956.994,1342.8 951.32,1341.38 945.661,1339.95 940.014,1338.49 934.382,1337.01 928.763,1335.5 923.159,1333.98 917.569,1332.43 911.994,1330.85 906.433,1329.26 900.887,1327.64 895.357,1326 889.842,1324.34 884.343,1322.66 878.859,1320.95 873.392,1319.22 867.94,1317.47 862.506,1315.7 857.088,1313.91 851.687,1312.09 846.303,1310.25 840.936,1308.4 835.586,1306.51 830.255,1304.61 824.941,1302.69 819.645,1300.74 814.368,1298.78 809.109,1296.79 803.869,1294.78 798.647,1292.75 793.445,1290.7 788.262,1288.63 783.098,1286.53 777.954,1284.42 772.831,1282.29 767.727,1280.13 762.643,1277.95 757.579,1275.76 752.537,1273.54 747.515,1271.3 742.514,1269.05 737.534,1266.77 732.576,1264.47 727.639,1262.16 722.724,1259.82 717.831,1257.46 712.961,1255.09 708.112,1252.69 703.286,1250.27 698.482,1247.84 693.702,1245.38 688.944,1242.91 684.21,1240.42 679.499,1237.91 674.812,1235.37 670.148,1232.82 665.508,1230.26 660.893,1227.67 656.302,1225.06 651.735,1222.44 647.192,1219.8 642.675,1217.13 638.182,1214.46 633.715,1211.76 629.273,1209.04 624.856,1206.31 620.465,1203.56 616.1,1200.79 611.761,1198 607.448,1195.2 603.161,1192.38 598.901,1189.54 594.667,1186.69 590.46,1183.81 586.28,1180.93 582.127,1178.02 578.001,1175.1 573.903,1172.16 569.832,1169.2 565.789,1166.23 561.774,1163.24 557.787,1160.24 553.828,1157.22 549.897,1154.18 545.995,1151.13 542.121,1148.06 538.276,1144.98 534.46,1141.88 530.673,1138.76 526.915,1135.63 523.187,1132.49 519.488,1129.33 515.819,1126.15 512.179,1122.96 508.57,1119.76 504.99,1116.54 501.44,1113.31 497.921,1110.06 494.432,1106.8 490.974,1103.52 487.546,1100.24 484.149,1096.93 480.783,1093.62 477.449,1090.29 474.145,1086.94 470.873,1083.59 467.632,1080.22 464.423,1076.83 461.245,1073.44 458.099,1070.03 454.985,1066.61 451.904,1063.17 448.854,1059.73 445.836,1056.27 442.852,1052.8 439.899,1049.32 436.979,1045.82 434.092,1042.32 431.238,1038.8 428.416,1035.27 425.628,1031.73 422.872,1028.18 420.151,1024.62 417.462,1021.04 414.807,1017.46 412.185,1013.86 409.597,1010.26 407.043,1006.64 404.522,1003.01 402.036,999.379 399.584,995.733 397.165,992.077 394.781,988.411 392.432,984.736 390.116,981.051 387.835,977.358 385.589,973.655 383.377,969.942 381.201,966.222 379.059,962.492 376.952,958.754 374.879,955.007 372.842,951.253 370.84,947.49 368.874,943.719 366.942,939.94 365.046,936.153 363.185,932.359 361.36,928.557 359.571,924.748 357.817,920.932 356.098,917.109 354.416,913.279 352.769,909.443 351.159,905.599 349.584,901.75 348.045,897.894 346.542,894.032 345.076,890.164 343.645,886.29 342.251,882.41 340.893,878.525 339.572,874.635 338.287,870.739 337.038,866.838 335.826,862.932 334.65,859.021 333.511,855.106 332.409,851.186 331.343,847.262 330.314,843.333 329.322,839.4 328.366,835.464 327.447,831.524 326.565,827.58 325.721,823.632 324.912,819.681 324.141,815.728 323.407,811.771 322.71,807.811 322.05,803.848 321.427,799.883 320.841,795.915 320.292,791.945 319.78,787.973 319.306,783.999 318.868,780.023 318.468,776.046 318.105,772.067 317.779,768.086 317.49,764.104 317.239,760.121 317.024,756.138 316.847,752.153 316.708,748.168 316.605,744.182 316.54,740.196 316.512,736.21 316.521,732.224 316.568,728.238 316.652,724.252 316.773,720.266 316.931,716.281 317.127,712.297 317.36,708.314 317.63,704.332 317.937,700.35 318.282,696.37 318.663,692.392 319.082,688.415 319.538,684.44 320.031,680.467 320.562,676.496 321.129,672.527 321.734,668.561 322.375,664.597 323.054,660.636 323.77,656.677 324.522,652.722 325.312,648.77 326.138,644.82 327.002,640.875 327.902,636.932 328.839,632.994 329.813,629.059 330.824,625.129 331.871,621.203 332.955,617.281 334.076,613.363 335.234,609.45 336.428,605.541 337.658,601.638 338.925,597.74 340.228,593.846 341.568,589.959 342.944,586.076 344.356,582.199 345.805,578.328 347.289,574.463 348.81,570.604 350.367,566.752 351.96,562.905 353.588,559.065 355.253,555.232 356.953,551.405 358.689,547.586 360.461,543.773 362.268,539.968 364.111,536.17 365.99,532.38 367.903,528.597 369.853,524.822 371.837,521.055 373.856,517.296 375.911,513.545 378.001,509.803 380.125,506.069 382.285,502.343 384.479,498.627 386.708,494.92 388.972,491.221 391.27,487.532 393.602,483.852 395.969,480.182 398.37,476.521 400.806,472.87 403.275,469.228 405.778,465.598 408.316,461.976 410.887,458.366 413.492,454.766 416.13,451.176 418.802,447.597 421.507,444.029 424.246,440.472 427.018,436.926 429.823,433.392 432.661,429.868 435.531,426.356 438.435,422.856 441.371,419.368 444.34,415.891 447.341,412.427 450.375,408.975 453.441,405.535 456.539,402.108 459.668,398.693 462.83,395.29 466.023,391.901 469.249,388.525 472.505,385.161 475.793,381.811 479.112,378.474 482.463,375.151 485.844,371.841 489.256,368.545 492.699,365.263 496.173,361.995 499.677,358.74 503.211,355.5 506.776,352.275 510.371,349.063 513.995,345.867 517.65,342.685 521.334,339.518 525.048,336.365 528.791,333.228 532.563,330.106 536.365,326.999 540.195,323.908 544.054,320.832 547.943,317.772 551.859,314.727 555.804,311.699 559.777,308.686 563.778,305.69 567.807,302.709 571.864,299.745 575.949,296.798 580.061,293.867 584.2,290.952 588.367,288.055 592.56,285.174 596.78,282.31 601.028,279.463 605.301,276.634 609.601,273.822 613.928,271.027 618.28,268.25 622.658,265.49 627.062,262.748 631.491,260.024 635.946,257.318 640.426,254.629 644.931,251.959 649.461,249.307 654.015,246.674 658.594,244.059 663.198,241.462 667.825,238.884 672.477,236.325 677.153,233.785 681.852,231.263 686.574,228.761 691.32,226.278 696.089,223.814 700.881,221.369 705.696,218.943 710.534,216.537 715.394,214.151 720.275,211.784 725.179,209.437 730.105,207.11 735.053,204.802 740.022,202.515 745.012,200.248 750.023,198.001 755.056,195.774 760.109,193.568 765.182,191.382 770.276,189.216 775.39,187.072 780.524,184.947 785.678,182.844 790.851,180.762 796.044,178.7 801.256,176.659 806.486,174.64 811.736,172.641 817.004,170.664 822.291,168.708 827.596,166.773 832.918,164.86 838.259,162.969 843.617,161.099 848.993,159.25 854.385,157.424 859.795,155.619 865.221,153.836 870.664,152.075 876.123,150.336 881.599,148.619 887.09,146.924 892.598,145.252 898.121,143.601 903.658,141.973 909.212,140.367 914.78,138.784 920.363,137.223 925.96,135.685 931.571,134.17 937.197,132.677 942.836,131.207 948.489,129.759 954.156,128.335 959.836,126.933 965.528,125.554 971.234,124.199 976.951,122.866 982.682,121.556 988.424,120.27 994.179,119.007 999.945,117.767 1005.72,116.55 1011.51,115.357 1017.31,114.187 1023.12,113.04 1028.94,111.917 1034.78,110.818 1040.62,109.742 1046.47,108.689 1052.33,107.661 1058.2,106.655 1064.08,105.674 1069.97,104.716 1075.87,103.783 1081.78,102.873 1087.69,101.986 1093.62,101.124 1099.55,100.286 1105.49,99.4713 1111.43,98.6808 1117.39,97.9144 1123.35,97.172 1129.32,96.4537 1135.29,95.7595 1141.27,95.0894 1147.26,94.4435 1153.25,93.8217 1159.25,93.2241 1165.25,92.6507 1171.26,92.1016 1177.28,91.5767 1183.3,91.0762 1189.32,90.5999 1195.35,90.148 1201.38,89.7203 1207.42,89.317 1213.45,88.9381 1219.5,88.5836 1225.54,88.2534 1231.59,87.9477 1237.65,87.6663 1243.7,87.4094 1249.76,87.177 1255.82,86.969 1261.88,86.7854 1267.94,86.6263 1274,86.4917 1280.07,86.3815 1286.13,86.2958 1292.2,86.2346 1298.27,86.1979 1304.33,86.1857 "/>
<polyline clip-path="url(#clip482)" style="stroke:#e26f46; stroke-linecap:round; stroke-linejoin:round; stroke-width:16; stroke-opacity:1; fill:none" points="1304.33,86.1857 1310.38,86.282 1316.42,86.4346 1322.47,86.5873 1328.51,86.74 1334.56,86.8927 1340.6,87.0454 1346.64,87.1981 1352.69,87.3509 1358.73,87.5036 1364.78,87.6612 1370.81,87.9385 1376.83,88.3428 1382.84,88.8264 1388.84,89.3515 1394.85,89.8893 1400.85,90.4206 1406.86,90.9357 1412.87,91.4341 1418.88,91.9248 1424.89,92.419 1430.91,92.8911 1436.92,93.3669 1442.93,93.874 1448.92,94.4288 1454.9,95.0367 1460.87,95.6915 1466.84,96.3762 1472.8,97.0636 1478.72,97.8792 1484.6,98.8728 1490.44,99.9795 1496.26,101.148 1502.08,102.338 1507.9,103.523 1513.72,104.69 1519.55,105.837 1525.38,106.975 1531.21,108.123 1537.04,109.272 1542.87,110.421 1548.7,111.57 1554.53,112.719 1560.36,113.868 1566.19,115.018 1572.02,116.167 1577.85,117.316 1583.68,118.465 1589.5,119.614 1595.34,120.75 1601.19,121.867 1607.04,122.973 1612.9,124.074 1618.76,125.177 1624.61,126.288 1630.45,127.412 1636.29,128.553 1642.11,129.714 1647.92,130.898 1653.71,132.108 1659.49,133.345 1665.25,134.609 1671,135.9 1676.73,137.218 1682.44,138.561 1688.14,139.926 1693.83,141.311 1699.52,142.712 1705.19,144.125 1710.86,145.545 1716.53,146.965 1722.21,148.379 1727.86,149.813 1733.37,151.405 1738.79,153.108 1744.17,154.856 1749.56,156.598 1754.99,158.296 1760.5,159.924 1766.09,161.47 1771.76,162.936 1777.49,164.336 1783.27,165.698 1789.04,167.063 1794.77,168.485 1800.39,170.032 1805.83,171.783 1810.99,173.834 1816.01,176.047 1821.04,178.242 1826.08,180.44 1831.09,182.657 1836.08,184.904 1841.02,187.189 1845.92,189.515 1850.79,191.879 1855.62,194.278 1860.42,196.7 1865.22,199.131 1870.02,201.56 1874.71,204.066 1879.31,206.644 1883.87,209.251 1888.44,211.847 1893.06,214.406 1897.77,216.903 1902.58,219.325 1907.49,221.665 1912.51,223.924 1917.63,226.11 1922.83,228.24 1928.07,230.336 1933.31,232.43 1938.51,234.562 1943.59,236.776 1948.5,239.128 1953.15,241.678 1957.59,244.387 1962.04,247.089 1966.49,249.789 1970.94,252.497 1975.36,255.218 1979.76,257.957 1984.12,260.717 1988.46,263.498 1992.78,266.298 1997.07,269.114 2001.34,271.94 2005.61,274.769 2009.9,277.591 2014.21,280.391 2018.56,283.176 2022.91,285.955 2027.26,288.737 2031.59,291.529 2035.9,294.337 2040.17,297.165 2044.4,300.018 2048.58,302.899 2052.72,305.808 2056.8,308.747 2060.84,311.715 2064.83,314.71 2068.78,317.729 2072.69,320.768 2076.58,323.822 2080.46,326.885 2084.33,329.95 2088.22,333.007 2092.09,336.068 2095.9,339.163 2099.64,342.29 2103.32,345.449 2106.93,348.639 2110.48,351.856 2113.97,355.101 2117.4,358.371 2120.78,361.664 2124.11,364.978 2127.4,368.311 2130.65,371.66 2133.86,375.024 2137.05,378.399 2140.22,381.784 2143.37,385.175 2146.51,388.569 2149.64,391.964 2152.79,395.357 2155.92,398.756 2158.99,402.179 2162.01,405.626 2164.97,409.095 2167.87,412.586 2170.72,416.098 2173.51,419.63 2176.25,423.18 2178.94,426.748 2181.58,430.333 2184.17,433.934 2186.72,437.549 2189.22,441.178 2191.69,444.819 2194.12,448.471 2196.51,452.133 2198.88,455.804 2201.22,459.482 2203.54,463.165 2205.85,466.854 2208.14,470.546 2210.43,474.239 2212.71,477.934 2215,481.627 2217.3,485.317 2219.64,488.999 2222.01,492.674 2224.39,496.345 2226.78,500.015 2229.17,503.685 2231.55,507.359 2233.9,511.038 2236.22,514.723 2238.51,518.416 2240.75,522.118 2242.96,525.83 2245.11,529.552 2247.22,533.285 2249.28,537.029 2251.29,540.784 2253.25,544.549 2255.17,548.324 2257.05,552.107 2258.89,555.899 2260.71,559.697 2262.5,563.499 2264.28,567.305 2266.06,571.111 2267.85,574.916 2269.65,578.717 2271.38,582.527 2272.98,586.357 2274.46,590.204 2275.83,594.067 2277.08,597.945 2278.22,601.837 2279.27,605.742 2280.23,609.659 2281.09,613.585 2281.88,617.522 2282.59,621.466 2283.24,625.418 2283.82,629.377 2284.34,633.342 2284.81,637.311 2285.24,641.285 2285.63,645.262 2285.98,649.242 2286.31,653.225 2286.61,657.209 2286.9,661.194 2287.18,665.179 2287.46,669.166 2287.73,673.151 2288.02,677.137 2288.32,681.122 2288.67,685.108 2289.06,689.093 2289.48,693.079 2289.91,697.065 2290.35,701.052 2290.79,705.038 2291.21,709.024 2291.62,713.01 2292,716.996 2292.34,720.981 2292.65,724.966 2292.91,728.951 2293.13,732.936 2293.29,736.92 2293.4,740.903 2293.45,744.886 2293.44,748.869 2293.38,752.851 2293.25,756.833 2293.07,760.814 2292.83,764.795 2292.54,768.776 2292.2,772.756 2291.8,776.735 2291.37,780.715 2290.9,784.693 2290.39,788.672 2289.86,792.65 2289.32,796.629 2288.76,800.607 2288.2,804.585 2287.65,808.564 2287.11,812.542 2286.62,816.523 2286.23,820.519 2285.93,824.529 2285.69,828.548 2285.47,832.572 2285.27,836.597 2285.04,840.619 2284.78,844.635 2284.46,848.642 2284.06,852.637 2283.57,856.617 2282.98,860.582 2282.27,864.528 2281.44,868.456 2280.49,872.363 2279.4,876.25 2278.17,880.115 2276.82,883.96 2275.33,887.785 2273.72,891.589 2271.99,895.376 2270.15,899.145 2268.22,902.898 2266.2,906.639 2264.11,910.369 2261.97,914.091 2259.81,917.809 2257.63,921.526 2255.48,925.245 2253.37,928.971 2251.3,932.705 2249.22,936.438 2247.12,940.167 2244.99,943.891 2242.83,947.61 2240.64,951.32 2238.41,955.022 2236.14,958.715 2233.83,962.398 2231.48,966.071 2229.09,969.732 2226.65,973.382 2224.17,977.02 2221.65,980.647 2219.08,984.263 2216.47,987.868 2213.83,991.462 2211.15,995.046 2208.43,998.62 2205.69,1002.19 2202.92,1005.75 2200.12,1009.3 2197.31,1012.85 2194.49,1016.39 2191.66,1019.93 2188.83,1023.48 2186.01,1027.02 2183.2,1030.57 2180.46,1034.15 2177.79,1037.76 2175.17,1041.4 2172.57,1045.05 2169.99,1048.7 2167.41,1052.36 2164.82,1056.01 2162.19,1059.64 2159.53,1063.26 2156.81,1066.85 2154.03,1070.41 2151.19,1073.94 2148.26,1077.43 2145.26,1080.89 2142.17,1084.31 2139,1087.68 2135.73,1091.01 2132.37,1094.3 2128.91,1097.54 2125.37,1100.75 2121.74,1103.91 2118.03,1107.03 2114.24,1110.11 2110.38,1113.17 2106.45,1116.19 2102.47,1119.18 2098.44,1122.16 2094.39,1125.12 2090.31,1128.07 2086.22,1131.01 2082.14,1133.96 2078.09,1136.92 2074.08,1139.9 2070.11,1142.92 2066.19,1145.95 2062.29,1149 2058.4,1152.06 2054.51,1155.13 2050.62,1158.18 2046.71,1161.23 2042.78,1164.26 2038.82,1167.28 2034.82,1170.26 2030.79,1173.22 2026.7,1176.16 2022.57,1179.05 2018.39,1181.92 2014.16,1184.75 2009.87,1187.54 2005.54,1190.3 2001.15,1193.03 1996.71,1195.73 1992.24,1198.39 1987.71,1201.03 1983.16,1203.64 1978.57,1206.24 1973.96,1208.81 1969.34,1211.38 1964.71,1213.95 1960.09,1216.52 1955.48,1219.09 1950.88,1221.68 1946.23,1224.23 1941.53,1226.73 1936.77,1229.2 1931.98,1231.64 1927.15,1234.04 1922.29,1236.43 1917.4,1238.8 1912.49,1241.15 1907.57,1243.5 1902.64,1245.83 1897.71,1248.16 1892.76,1250.49 1887.82,1252.81 1882.88,1255.14 1877.94,1257.47 1873.01,1259.8 1868.08,1262.14 1863.16,1264.48 1858.24,1266.83 1853.33,1269.18 1848.43,1271.53 1843.53,1273.89 1838.63,1276.25 1833.73,1278.61 1828.83,1280.97 1823.93,1283.32 1818.99,1285.64 1814.01,1287.93 1809,1290.18 1803.95,1292.39 1798.86,1294.55 1793.73,1296.68 1788.57,1298.76 1783.37,1300.81 1778.14,1302.81 1772.87,1304.77 1767.57,1306.69 1762.24,1308.57 1756.88,1310.41 1751.49,1312.21 1746.07,1313.97 1740.62,1315.69 1735.14,1317.38 1729.64,1319.04 1724.12,1320.66 1718.57,1322.25 1713.01,1323.81 1707.42,1325.35 1701.82,1326.86 1696.21,1328.35 1690.58,1329.81 1684.94,1331.26 1679.28,1332.7 1673.63,1334.12 1667.96,1335.54 1662.3,1336.95 1656.63,1338.36 1650.96,1339.77 1645.3,1341.19 1639.64,1342.61 1633.98,1344.04 1628.31,1345.47 1622.63,1346.88 1616.94,1348.28 1611.24,1349.65 1605.53,1351 1599.8,1352.33 1594.06,1353.62 1588.3,1354.88 1582.53,1356.1 1576.74,1357.28 1570.94,1358.42 1565.12,1359.52 1559.29,1360.57 1553.43,1361.58 1547.57,1362.55 1541.68,1363.47 1535.79,1364.34 1529.87,1365.17 1523.95,1365.95 1518,1366.69 1512.05,1367.4 1506.08,1368.06 1500.11,1368.69 1494.12,1369.28 1488.12,1369.84 1482.11,1370.37 1476.1,1370.89 1470.09,1371.38 1464.06,1371.85 1458.04,1372.32 1452.02,1372.78 1446,1373.25 1439.97,1373.75 1433.95,1374.28 1427.94,1374.84 1421.92,1375.41 1415.9,1375.99 1409.88,1376.57 1403.86,1377.14 1397.84,1377.7 1391.82,1378.24 1385.8,1378.75 1379.78,1379.23 1373.76,1379.68 1367.73,1380.09 1361.71,1380.47 1355.68,1380.8 1349.65,1381.08 1343.62,1381.32 1337.59,1381.52 1331.56,1381.67 1325.52,1381.77 1319.49,1381.83 1313.45,1381.85 1307.41,1381.82 1301.37,1381.76 1295.33,1381.67 1289.29,1381.54 1283.25,1381.39 1277.2,1381.22 1271.16,1381.03 1265.12,1380.84 1259.07,1380.64 1253.03,1380.45 1246.98,1380.27 1240.94,1380.11 1234.89,1379.95 1228.84,1379.77 1222.78,1379.58 1216.73,1379.36 1210.67,1379.11 1204.62,1378.84 1198.57,1378.52 1192.54,1378.17 1186.5,1377.77 1180.48,1377.33 1174.47,1376.84 1168.47,1376.31 1162.48,1375.73 1156.5,1375.1 1150.54,1374.42 1144.59,1373.69 1138.65,1372.91 1132.73,1372.08 1126.82,1371.21 1120.92,1370.29 1115.04,1369.33 1109.17,1368.33 1103.31,1367.29 1097.46,1366.22 1091.62,1365.12 1085.78,1363.99 1079.96,1362.84 1074.14,1361.67 1068.32,1360.49 1062.5,1359.31 1056.69,1358.12 1050.87,1356.95 1045.05,1355.78 1039.22,1354.64 1033.38,1353.52 1027.53,1352.4 1021.67,1351.3 1015.82,1350.2 1009.96,1349.1 1004.11,1347.99 998.263,1346.88 992.422,1345.75 986.59,1344.61 980.768,1343.45 974.957,1342.27 969.158,1341.08 963.371,1339.86 957.598,1338.62 951.837,1337.36 946.089,1336.07 940.355,1334.76 934.633,1333.43 928.922,1332.09 923.222,1330.72 917.532,1329.34 911.85,1327.94 906.174,1326.53 900.503,1325.12 894.835,1323.7 889.166,1322.28 883.495,1320.86 877.818,1319.46 872.173,1318.01 866.586,1316.49 861.053,1314.89 855.574,1313.22 850.146,1311.49 844.767,1309.7 839.435,1307.85 834.149,1305.95 828.906,1303.99 823.704,1301.99 818.542,1299.94 813.417,1297.85 808.327,1295.71 803.271,1293.55 798.246,1291.34 793.25,1289.11 788.282,1286.85 783.339,1284.56 778.419,1282.25 773.521,1279.92 768.642,1277.57 763.78,1275.2 758.933,1272.82 754.099,1270.42 749.276,1268.02 744.463,1265.61 739.657,1263.19 734.855,1260.77 730.057,1258.35 725.26,1255.92 720.461,1253.5 715.659,1251.08 710.853,1248.66 706.063,1246.22 701.294,1243.76 696.548,1241.29 691.829,1238.78 687.139,1236.26 682.479,1233.71 677.851,1231.14 673.256,1228.54 668.697,1225.91 664.173,1223.26 659.687,1220.59 655.237,1217.88 650.826,1215.16 646.453,1212.4 642.119,1209.62 637.822,1206.82 633.564,1203.99 629.343,1201.14 625.158,1198.27 621.009,1195.37 616.894,1192.45 612.812,1189.52 608.761,1186.56 604.74,1183.58 600.747,1180.59 596.779,1177.59 592.834,1174.57 588.91,1171.53 585.002,1168.49 581.109,1165.44 577.228,1162.38 573.354,1159.32 569.484,1156.25 565.615,1153.19 561.741,1150.13 557.86,1147.07 553.965,1144.02 550.02,1140.99 546.023,1137.99 541.995,1135 537.955,1132.02 533.918,1129.03 529.9,1126.04 525.914,1123.03 521.972,1120 518.083,1116.95 514.255,1113.87 510.495,1110.76 506.807,1107.62 503.194,1104.44 499.657,1101.22 496.195,1097.98 492.805,1094.7 489.484,1091.39 486.225,1088.05 483.022,1084.68 479.863,1081.3 476.739,1077.89 473.636,1074.48 470.54,1071.07 467.434,1067.66 464.3,1064.26 461.18,1060.86 458.116,1057.43 455.108,1053.99 452.155,1050.52 449.258,1047.02 446.415,1043.51 443.625,1039.98 440.887,1036.43 438.2,1032.86 435.561,1029.28 432.969,1025.68 430.421,1022.06 427.915,1018.44 425.447,1014.8 423.016,1011.15 420.617,1007.49 418.248,1003.82 415.903,1000.14 413.58,996.461 411.274,992.774 408.981,989.083 406.696,985.39 404.413,981.697 402.128,978.004 399.835,974.313 397.534,970.625 395.231,966.94 392.926,963.257 390.621,959.575 388.319,955.892 386.021,952.208 383.73,948.522 381.446,944.833 379.173,941.14 376.912,937.443 374.664,933.74 372.433,930.033 370.22,926.319 368.027,922.599 365.857,918.872 363.711,915.138 361.591,911.397 359.5,907.649 357.439,903.893 355.412,900.13 353.42,896.36 351.465,892.582 349.55,888.798 347.677,885.007 345.848,881.21 344.066,877.407 342.378,873.59 340.817,869.755 339.377,865.903 338.053,862.035 336.837,858.152 335.725,854.256 334.71,850.348 333.786,846.428 332.946,842.499 332.186,838.56 331.498,834.614 330.878,830.66 330.318,826.7 329.814,822.734 329.358,818.764 328.946,814.79 328.571,810.812 328.227,806.832 327.908,802.85 327.609,798.867 327.324,794.882 327.046,790.897 326.771,786.912 326.491,782.927 326.2,778.943 325.865,774.958 325.485,770.973 325.073,766.988 324.642,763.002 324.204,759.016 323.77,755.031 323.349,751.045 322.95,747.06 322.583,743.075 322.253,739.09 321.968,735.106 321.732,731.122 321.55,727.138 321.426,723.155 321.363,719.172 321.362,715.19 321.424,711.209 321.549,707.227 321.736,703.247 321.984,699.267 322.289,695.287 322.649,691.308 323.058,687.329 323.512,683.35 324.003,679.372 324.525,675.394 325.069,671.416 325.627,667.439 326.188,663.461 326.742,659.484 327.277,655.506 327.769,651.525 328.154,647.529 328.45,643.518 328.69,639.499 328.9,635.475 329.109,631.451 329.34,627.43 329.614,623.416 329.953,619.412 330.372,615.421 330.886,611.445 331.509,607.485 332.251,603.544 333.118,599.624 334.118,595.723 335.253,591.844 336.524,587.987 337.93,584.15 339.467,580.334 341.129,576.538 342.908,572.76 344.793,568.998 346.771,565.251 348.828,561.517 350.944,557.792 353.101,554.073 355.275,550.357 357.443,546.64 359.578,542.918 361.656,539.186 363.729,535.453 365.824,531.723 367.945,527.998 370.096,524.278 372.28,520.566 374.501,516.862 376.761,513.167 379.062,509.482 381.406,505.808 383.793,502.146 386.226,498.495 388.702,494.855 391.223,491.227 393.786,487.611 396.392,484.007 399.037,480.413 401.719,476.829 404.435,473.255 407.182,469.689 409.956,466.131 412.752,462.579 415.565,459.033 418.39,455.489 421.22,451.947 424.051,448.405 426.873,444.861 429.673,441.308 432.398,437.721 435.059,434.103 437.675,430.464 440.265,426.813 442.844,423.157 445.43,419.504 448.036,415.861 450.676,412.233 453.362,408.627 456.103,405.047 458.91,401.499 461.791,397.984 464.751,394.508 467.797,391.072 470.932,387.677 474.16,384.327 477.481,381.02 480.896,377.758 484.403,374.539 488.001,371.363 491.686,368.228 495.452,365.131 499.293,362.069 503.202,359.04 507.17,356.038 511.186,353.059 515.239,350.097 519.316,347.147 523.404,344.202 527.486,341.254 531.546,338.295 535.566,335.318 539.535,332.311 543.466,329.278 547.371,326.228 551.261,323.168 555.148,320.106 559.041,317.049 562.951,314.002 566.884,310.971 570.848,307.96 574.849,304.975 578.893,302.017 582.982,299.091 587.121,296.197 591.312,293.339 595.556,290.515 599.853,287.728 604.202,284.975 608.602,282.257 613.051,279.571 617.544,276.914 622.077,274.285 626.645,271.678 631.24,269.091 635.856,266.517 640.484,263.95 645.114,261.386 649.737,258.816 654.34,256.234 658.959,253.667 663.647,251.157 668.393,248.694 673.188,246.269 678.023,243.875 682.889,241.505 687.78,239.152 692.688,236.81 697.607,234.474 702.532,232.139 707.458,229.802 712.383,227.459 717.301,225.109 722.212,222.748 727.113,220.377 732.004,217.995 736.884,215.602 741.754,213.198 746.614,210.787 751.468,208.369 756.317,205.949 761.166,203.529 766.018,201.115 770.878,198.71 775.752,196.322 780.645,193.956 785.566,191.62 790.522,189.321 795.521,187.068 800.573,184.87 805.681,182.729 810.807,180.604 815.945,178.489 821.1,176.391 826.273,174.312 831.468,172.258 836.685,170.233 841.928,168.239 847.198,166.279 852.496,164.355 857.823,162.47 863.18,160.624 868.566,158.819 873.983,157.055 879.43,155.332 884.906,153.649 890.41,152.005 895.942,150.4 901.5,148.831 907.082,147.295 912.685,145.791 918.308,144.314 923.949,142.862 929.603,141.429 935.268,140.011 940.94,138.604 946.615,137.201 952.289,135.797 957.958,134.384 963.617,132.958 969.279,131.524 974.949,130.093 980.627,128.67 986.317,127.262 992.019,125.875 997.734,124.514 1003.46,123.183 1009.21,121.887 1014.97,120.629 1020.74,119.412 1026.53,118.24 1032.34,117.114 1038.17,116.035 1044.02,115.006 1049.88,114.026 1055.75,113.097 1061.65,112.216 1067.56,111.384 1073.49,110.6 1079.43,109.86 1085.38,109.163 1091.35,108.507 1097.33,107.887 1103.32,107.299 1109.32,106.74 1115.32,106.205 1121.33,105.687 1127.35,105.181 1133.37,104.681 1139.38,104.179 1145.4,103.669 1151.41,103.142 1157.41,102.596 1163.42,102.039 1169.43,101.481 1175.45,100.927 1181.46,100.384 1187.48,99.858 1193.5,99.3541 1199.52,98.8762 1205.55,98.4277 1211.57,98.0113 1217.6,97.6288 1223.64,97.2814 1229.67,96.9693 1235.71,96.6922 1241.75,96.4488 1247.79,96.2374 1253.83,96.0551 1259.87,95.8985 1265.92,95.7635 1271.96,95.645 1278.01,95.5373 1284.05,95.4339 1290.1,95.3276 1296.14,95.2103 1302.19,95.0489 1308.23,95.0274 1314.28,95.1785 "/>
<path clip-path="url(#clip480)" d="M327.056 1377.32 L750.198 1377.32 L750.198 1221.8 L327.056 1221.8  Z" fill="#ffffff" fill-rule="evenodd" fill-opacity="1"/>
<polyline clip-path="url(#clip480)" style="stroke:#000000; stroke-linecap:round; stroke-linejoin:round; stroke-width:4; stroke-opacity:1; fill:none" points="327.056,1377.32 750.198,1377.32 750.198,1221.8 327.056,1221.8 327.056,1377.32 "/>
<polyline clip-path="url(#clip480)" style="stroke:#009af9; stroke-linecap:round; stroke-linejoin:round; stroke-width:16; stroke-opacity:1; fill:none" points="350.34,1273.64 490.043,1273.64 "/>
<path clip-path="url(#clip480)" d="M529.345 1259.53 Q524.253 1259.53 521.244 1263.32 Q518.258 1267.12 518.258 1273.67 Q518.258 1280.2 521.244 1283.99 Q524.253 1287.79 529.345 1287.79 Q534.438 1287.79 537.401 1283.99 Q540.387 1280.2 540.387 1273.67 Q540.387 1267.12 537.401 1263.32 Q534.438 1259.53 529.345 1259.53 M529.345 1255.73 Q536.614 1255.73 540.966 1260.61 Q545.318 1265.48 545.318 1273.67 Q545.318 1281.84 540.966 1286.73 Q536.614 1291.59 529.345 1291.59 Q522.054 1291.59 517.679 1286.73 Q513.327 1281.86 513.327 1273.67 Q513.327 1265.48 517.679 1260.61 Q522.054 1255.73 529.345 1255.73 Z" fill="#000000" fill-rule="nonzero" fill-opacity="1" /><path clip-path="url(#clip480)" d="M567.47 1268.97 Q566.753 1268.55 565.896 1268.37 Q565.063 1268.16 564.044 1268.16 Q560.433 1268.16 558.489 1270.52 Q556.568 1272.86 556.568 1277.26 L556.568 1290.92 L552.285 1290.92 L552.285 1264.99 L556.568 1264.99 L556.568 1269.02 Q557.91 1266.66 560.063 1265.52 Q562.216 1264.36 565.294 1264.36 Q565.734 1264.36 566.267 1264.43 Q566.799 1264.48 567.447 1264.6 L567.47 1268.97 Z" fill="#000000" fill-rule="nonzero" fill-opacity="1" /><path clip-path="url(#clip480)" d="M571.938 1264.99 L576.197 1264.99 L576.197 1290.92 L571.938 1290.92 L571.938 1264.99 M571.938 1254.9 L576.197 1254.9 L576.197 1260.29 L571.938 1260.29 L571.938 1254.9 Z" fill="#000000" fill-rule="nonzero" fill-opacity="1" /><path clip-path="url(#clip480)" d="M602.169 1277.65 Q602.169 1273.02 600.248 1270.48 Q598.35 1267.93 594.901 1267.93 Q591.475 1267.93 589.553 1270.48 Q587.655 1273.02 587.655 1277.65 Q587.655 1282.26 589.553 1284.8 Q591.475 1287.35 594.901 1287.35 Q598.35 1287.35 600.248 1284.8 Q602.169 1282.26 602.169 1277.65 M606.428 1287.7 Q606.428 1294.32 603.489 1297.54 Q600.549 1300.78 594.484 1300.78 Q592.239 1300.78 590.248 1300.43 Q588.257 1300.11 586.382 1299.41 L586.382 1295.27 Q588.257 1296.29 590.086 1296.77 Q591.915 1297.26 593.813 1297.26 Q598.003 1297.26 600.086 1295.06 Q602.169 1292.88 602.169 1288.46 L602.169 1286.36 Q600.85 1288.65 598.79 1289.78 Q596.729 1290.92 593.859 1290.92 Q589.091 1290.92 586.174 1287.28 Q583.257 1283.65 583.257 1277.65 Q583.257 1271.63 586.174 1268 Q589.091 1264.36 593.859 1264.36 Q596.729 1264.36 598.79 1265.5 Q600.85 1266.63 602.169 1268.92 L602.169 1264.99 L606.428 1264.99 L606.428 1287.7 Z" fill="#000000" fill-rule="nonzero" fill-opacity="1" /><path clip-path="url(#clip480)" d="M615.201 1264.99 L619.461 1264.99 L619.461 1290.92 L615.201 1290.92 L615.201 1264.99 M615.201 1254.9 L619.461 1254.9 L619.461 1260.29 L615.201 1260.29 L615.201 1254.9 Z" fill="#000000" fill-rule="nonzero" fill-opacity="1" /><path clip-path="url(#clip480)" d="M649.924 1275.27 L649.924 1290.92 L645.664 1290.92 L645.664 1275.41 Q645.664 1271.73 644.229 1269.9 Q642.794 1268.07 639.924 1268.07 Q636.475 1268.07 634.484 1270.27 Q632.493 1272.47 632.493 1276.26 L632.493 1290.92 L628.211 1290.92 L628.211 1264.99 L632.493 1264.99 L632.493 1269.02 Q634.021 1266.68 636.081 1265.52 Q638.164 1264.36 640.873 1264.36 Q645.34 1264.36 647.632 1267.14 Q649.924 1269.9 649.924 1275.27 Z" fill="#000000" fill-rule="nonzero" fill-opacity="1" /><path clip-path="url(#clip480)" d="M670.201 1277.88 Q665.039 1277.88 663.048 1279.06 Q661.058 1280.24 661.058 1283.09 Q661.058 1285.36 662.539 1286.7 Q664.044 1288.02 666.613 1288.02 Q670.155 1288.02 672.285 1285.52 Q674.437 1283 674.437 1278.83 L674.437 1277.88 L670.201 1277.88 M678.697 1276.12 L678.697 1290.92 L674.437 1290.92 L674.437 1286.98 Q672.979 1289.34 670.803 1290.48 Q668.627 1291.59 665.479 1291.59 Q661.498 1291.59 659.136 1289.36 Q656.798 1287.12 656.798 1283.37 Q656.798 1278.99 659.715 1276.77 Q662.655 1274.55 668.465 1274.55 L674.437 1274.55 L674.437 1274.13 Q674.437 1271.19 672.493 1269.6 Q670.572 1267.98 667.076 1267.98 Q664.854 1267.98 662.748 1268.51 Q660.641 1269.04 658.697 1270.11 L658.697 1266.17 Q661.035 1265.27 663.234 1264.83 Q665.433 1264.36 667.516 1264.36 Q673.141 1264.36 675.919 1267.28 Q678.697 1270.2 678.697 1276.12 Z" fill="#000000" fill-rule="nonzero" fill-opacity="1" /><path clip-path="url(#clip480)" d="M687.47 1254.9 L691.729 1254.9 L691.729 1290.92 L687.47 1290.92 L687.47 1254.9 Z" fill="#000000" fill-rule="nonzero" fill-opacity="1" /><polyline clip-path="url(#clip480)" style="stroke:#e26f46; stroke-linecap:round; stroke-linejoin:round; stroke-width:16; stroke-opacity:1; fill:none" points="350.34,1325.48 490.043,1325.48 "/>
<path clip-path="url(#clip480)" d="M518.003 1312.04 L518.003 1325.02 L523.883 1325.02 Q527.146 1325.02 528.929 1323.33 Q530.711 1321.64 530.711 1318.52 Q530.711 1315.42 528.929 1313.73 Q527.146 1312.04 523.883 1312.04 L518.003 1312.04 M513.327 1308.2 L523.883 1308.2 Q529.693 1308.2 532.656 1310.83 Q535.642 1313.45 535.642 1318.52 Q535.642 1323.64 532.656 1326.25 Q529.693 1328.87 523.883 1328.87 L518.003 1328.87 L518.003 1342.76 L513.327 1342.76 L513.327 1308.2 Z" fill="#000000" fill-rule="nonzero" fill-opacity="1" /><path clip-path="url(#clip480)" d="M555.919 1320.81 Q555.202 1320.39 554.345 1320.21 Q553.512 1320 552.493 1320 Q548.882 1320 546.938 1322.36 Q545.017 1324.7 545.017 1329.1 L545.017 1342.76 L540.734 1342.76 L540.734 1316.83 L545.017 1316.83 L545.017 1320.86 Q546.359 1318.5 548.512 1317.36 Q550.665 1316.2 553.743 1316.2 Q554.183 1316.2 554.716 1316.27 Q555.248 1316.32 555.896 1316.44 L555.919 1320.81 Z" fill="#000000" fill-rule="nonzero" fill-opacity="1" /><path clip-path="url(#clip480)" d="M581.521 1328.73 L581.521 1330.81 L561.938 1330.81 Q562.216 1335.21 564.577 1337.52 Q566.961 1339.82 571.197 1339.82 Q573.651 1339.82 575.942 1339.21 Q578.257 1338.61 580.526 1337.41 L580.526 1341.44 Q578.234 1342.41 575.827 1342.92 Q573.419 1343.43 570.942 1343.43 Q564.739 1343.43 561.105 1339.82 Q557.493 1336.2 557.493 1330.05 Q557.493 1323.68 560.919 1319.95 Q564.368 1316.2 570.202 1316.2 Q575.433 1316.2 578.466 1319.58 Q581.521 1322.94 581.521 1328.73 M577.262 1327.48 Q577.216 1323.98 575.294 1321.9 Q573.396 1319.82 570.248 1319.82 Q566.683 1319.82 564.53 1321.83 Q562.401 1323.84 562.077 1327.5 L577.262 1327.48 Z" fill="#000000" fill-rule="nonzero" fill-opacity="1" /><path clip-path="url(#clip480)" d="M605.572 1320.76 L605.572 1306.74 L609.831 1306.74 L609.831 1342.76 L605.572 1342.76 L605.572 1338.87 Q604.229 1341.18 602.169 1342.32 Q600.132 1343.43 597.262 1343.43 Q592.563 1343.43 589.6 1339.68 Q586.66 1335.93 586.66 1329.82 Q586.66 1323.7 589.6 1319.95 Q592.563 1316.2 597.262 1316.2 Q600.132 1316.2 602.169 1317.34 Q604.229 1318.45 605.572 1320.76 M591.058 1329.82 Q591.058 1334.51 592.979 1337.2 Q594.924 1339.86 598.303 1339.86 Q601.683 1339.86 603.627 1337.2 Q605.572 1334.51 605.572 1329.82 Q605.572 1325.12 603.627 1322.45 Q601.683 1319.77 598.303 1319.77 Q594.924 1319.77 592.979 1322.45 Q591.058 1325.12 591.058 1329.82 Z" fill="#000000" fill-rule="nonzero" fill-opacity="1" /><path clip-path="url(#clip480)" d="M618.604 1316.83 L622.863 1316.83 L622.863 1342.76 L618.604 1342.76 L618.604 1316.83 M618.604 1306.74 L622.863 1306.74 L622.863 1312.13 L618.604 1312.13 L618.604 1306.74 Z" fill="#000000" fill-rule="nonzero" fill-opacity="1" /><path clip-path="url(#clip480)" d="M650.433 1317.82 L650.433 1321.81 Q648.627 1320.81 646.799 1320.32 Q644.993 1319.82 643.141 1319.82 Q638.998 1319.82 636.706 1322.45 Q634.414 1325.07 634.414 1329.82 Q634.414 1334.56 636.706 1337.2 Q638.998 1339.82 643.141 1339.82 Q644.993 1339.82 646.799 1339.33 Q648.627 1338.82 650.433 1337.82 L650.433 1341.76 Q648.65 1342.59 646.729 1343.01 Q644.831 1343.43 642.678 1343.43 Q636.822 1343.43 633.373 1339.75 Q629.924 1336.07 629.924 1329.82 Q629.924 1323.47 633.396 1319.84 Q636.891 1316.2 642.956 1316.2 Q644.924 1316.2 646.799 1316.62 Q648.674 1317.01 650.433 1317.82 Z" fill="#000000" fill-rule="nonzero" fill-opacity="1" /><path clip-path="url(#clip480)" d="M662.053 1309.47 L662.053 1316.83 L670.826 1316.83 L670.826 1320.14 L662.053 1320.14 L662.053 1334.21 Q662.053 1337.38 662.91 1338.29 Q663.789 1339.19 666.451 1339.19 L670.826 1339.19 L670.826 1342.76 L666.451 1342.76 Q661.521 1342.76 659.646 1340.93 Q657.771 1339.07 657.771 1334.21 L657.771 1320.14 L654.646 1320.14 L654.646 1316.83 L657.771 1316.83 L657.771 1309.47 L662.053 1309.47 Z" fill="#000000" fill-rule="nonzero" fill-opacity="1" /><path clip-path="url(#clip480)" d="M698.604 1328.73 L698.604 1330.81 L679.021 1330.81 Q679.298 1335.21 681.659 1337.52 Q684.044 1339.82 688.28 1339.82 Q690.733 1339.82 693.025 1339.21 Q695.34 1338.61 697.608 1337.41 L697.608 1341.44 Q695.317 1342.41 692.909 1342.92 Q690.502 1343.43 688.025 1343.43 Q681.822 1343.43 678.187 1339.82 Q674.576 1336.2 674.576 1330.05 Q674.576 1323.68 678.002 1319.95 Q681.451 1316.2 687.284 1316.2 Q692.516 1316.2 695.548 1319.58 Q698.604 1322.94 698.604 1328.73 M694.345 1327.48 Q694.298 1323.98 692.377 1321.9 Q690.479 1319.82 687.331 1319.82 Q683.766 1319.82 681.613 1321.83 Q679.484 1323.84 679.159 1327.5 L694.345 1327.48 Z" fill="#000000" fill-rule="nonzero" fill-opacity="1" /><path clip-path="url(#clip480)" d="M722.655 1320.76 L722.655 1306.74 L726.914 1306.74 L726.914 1342.76 L722.655 1342.76 L722.655 1338.87 Q721.312 1341.18 719.252 1342.32 Q717.215 1343.43 714.344 1343.43 Q709.645 1343.43 706.682 1339.68 Q703.743 1335.93 703.743 1329.82 Q703.743 1323.7 706.682 1319.95 Q709.645 1316.2 714.344 1316.2 Q717.215 1316.2 719.252 1317.34 Q721.312 1318.45 722.655 1320.76 M708.141 1329.82 Q708.141 1334.51 710.062 1337.2 Q712.007 1339.86 715.386 1339.86 Q718.766 1339.86 720.71 1337.2 Q722.655 1334.51 722.655 1329.82 Q722.655 1325.12 720.71 1322.45 Q718.766 1319.77 715.386 1319.77 Q712.007 1319.77 710.062 1322.45 Q708.141 1325.12 708.141 1329.82 Z" fill="#000000" fill-rule="nonzero" fill-opacity="1" /></svg>
