<?xml version="1.0" encoding="utf-8"?>
<svg xmlns="http://www.w3.org/2000/svg" xmlns:xlink="http://www.w3.org/1999/xlink" width="600" height="400" viewBox="0 0 2400 1600">
<defs>
  <clipPath id="clip250">
    <rect x="0" y="0" width="2400" height="1600"/>
  </clipPath>
</defs>
<path clip-path="url(#clip250)" d="M0 1600 L2400 1600 L2400 0 L0 0  Z" fill="#ffffff" fill-rule="evenodd" fill-opacity="1"/>
<defs>
  <clipPath id="clip251">
    <rect x="480" y="0" width="1681" height="1600"/>
  </clipPath>
</defs>
<path clip-path="url(#clip250)" d="M257.204 1423.18 L2352.76 1423.18 L2352.76 47.2441 L257.204 47.2441  Z" fill="#ffffff" fill-rule="evenodd" fill-opacity="1"/>
<defs>
  <clipPath id="clip252">
    <rect x="257" y="47" width="2097" height="1377"/>
  </clipPath>
</defs>
<polyline clip-path="url(#clip252)" style="stroke:#000000; stroke-linecap:round; stroke-linejoin:round; stroke-width:2; stroke-opacity:0.1; fill:none" points="316.511,1423.18 316.511,47.2441 "/>
<polyline clip-path="url(#clip252)" style="stroke:#000000; stroke-linecap:round; stroke-linejoin:round; stroke-width:2; stroke-opacity:0.1; fill:none" points="810.745,1423.18 810.745,47.2441 "/>
<polyline clip-path="url(#clip252)" style="stroke:#000000; stroke-linecap:round; stroke-linejoin:round; stroke-width:2; stroke-opacity:0.1; fill:none" points="1304.98,1423.18 1304.98,47.2441 "/>
<polyline clip-path="url(#clip252)" style="stroke:#000000; stroke-linecap:round; stroke-linejoin:round; stroke-width:2; stroke-opacity:0.1; fill:none" points="1799.21,1423.18 1799.21,47.2441 "/>
<polyline clip-path="url(#clip252)" style="stroke:#000000; stroke-linecap:round; stroke-linejoin:round; stroke-width:2; stroke-opacity:0.1; fill:none" points="2293.45,1423.18 2293.45,47.2441 "/>
<polyline clip-path="url(#clip250)" style="stroke:#000000; stroke-linecap:round; stroke-linejoin:round; stroke-width:4; stroke-opacity:1; fill:none" points="257.204,1423.18 2352.76,1423.18 "/>
<polyline clip-path="url(#clip250)" style="stroke:#000000; stroke-linecap:round; stroke-linejoin:round; stroke-width:4; stroke-opacity:1; fill:none" points="316.511,1423.18 316.511,1404.28 "/>
<polyline clip-path="url(#clip250)" style="stroke:#000000; stroke-linecap:round; stroke-linejoin:round; stroke-width:4; stroke-opacity:1; fill:none" points="810.745,1423.18 810.745,1404.28 "/>
<polyline clip-path="url(#clip250)" style="stroke:#000000; stroke-linecap:round; stroke-linejoin:round; stroke-width:4; stroke-opacity:1; fill:none" points="1304.98,1423.18 1304.98,1404.28 "/>
<polyline clip-path="url(#clip250)" style="stroke:#000000; stroke-linecap:round; stroke-linejoin:round; stroke-width:4; stroke-opacity:1; fill:none" points="1799.21,1423.18 1799.21,1404.28 "/>
<polyline clip-path="url(#clip250)" style="stroke:#000000; stroke-linecap:round; stroke-linejoin:round; stroke-width:4; stroke-opacity:1; fill:none" points="2293.45,1423.18 2293.45,1404.28 "/>
<path clip-path="url(#clip250)" d="M263.039 1468.75 L292.715 1468.75 L292.715 1472.69 L263.039 1472.69 L263.039 1468.75 Z" fill="#000000" fill-rule="nonzero" fill-opacity="1" /><path clip-path="url(#clip250)" d="M303.617 1481.64 L311.256 1481.64 L311.256 1455.28 L302.946 1456.95 L302.946 1452.69 L311.21 1451.02 L315.886 1451.02 L315.886 1481.64 L323.525 1481.64 L323.525 1485.58 L303.617 1485.58 L303.617 1481.64 Z" fill="#000000" fill-rule="nonzero" fill-opacity="1" /><path clip-path="url(#clip250)" d="M332.969 1479.7 L337.853 1479.7 L337.853 1485.58 L332.969 1485.58 L332.969 1479.7 Z" fill="#000000" fill-rule="nonzero" fill-opacity="1" /><path clip-path="url(#clip250)" d="M358.038 1454.1 Q354.427 1454.1 352.599 1457.66 Q350.793 1461.2 350.793 1468.33 Q350.793 1475.44 352.599 1479.01 Q354.427 1482.55 358.038 1482.55 Q361.673 1482.55 363.478 1479.01 Q365.307 1475.44 365.307 1468.33 Q365.307 1461.2 363.478 1457.66 Q361.673 1454.1 358.038 1454.1 M358.038 1450.39 Q363.849 1450.39 366.904 1455 Q369.983 1459.58 369.983 1468.33 Q369.983 1477.06 366.904 1481.67 Q363.849 1486.25 358.038 1486.25 Q352.228 1486.25 349.15 1481.67 Q346.094 1477.06 346.094 1468.33 Q346.094 1459.58 349.15 1455 Q352.228 1450.39 358.038 1450.39 Z" fill="#000000" fill-rule="nonzero" fill-opacity="1" /><path clip-path="url(#clip250)" d="M757.771 1468.75 L787.447 1468.75 L787.447 1472.69 L757.771 1472.69 L757.771 1468.75 Z" fill="#000000" fill-rule="nonzero" fill-opacity="1" /><path clip-path="url(#clip250)" d="M807.539 1454.1 Q803.928 1454.1 802.1 1457.66 Q800.294 1461.2 800.294 1468.33 Q800.294 1475.44 802.1 1479.01 Q803.928 1482.55 807.539 1482.55 Q811.174 1482.55 812.979 1479.01 Q814.808 1475.44 814.808 1468.33 Q814.808 1461.2 812.979 1457.66 Q811.174 1454.1 807.539 1454.1 M807.539 1450.39 Q813.35 1450.39 816.405 1455 Q819.484 1459.58 819.484 1468.33 Q819.484 1477.06 816.405 1481.67 Q813.35 1486.25 807.539 1486.25 Q801.729 1486.25 798.651 1481.67 Q795.595 1477.06 795.595 1468.33 Q795.595 1459.58 798.651 1455 Q801.729 1450.39 807.539 1450.39 Z" fill="#000000" fill-rule="nonzero" fill-opacity="1" /><path clip-path="url(#clip250)" d="M827.701 1479.7 L832.586 1479.7 L832.586 1485.58 L827.701 1485.58 L827.701 1479.7 Z" fill="#000000" fill-rule="nonzero" fill-opacity="1" /><path clip-path="url(#clip250)" d="M842.817 1451.02 L861.173 1451.02 L861.173 1454.96 L847.099 1454.96 L847.099 1463.43 Q848.118 1463.08 849.136 1462.92 Q850.155 1462.73 851.173 1462.73 Q856.96 1462.73 860.34 1465.9 Q863.72 1469.08 863.72 1474.49 Q863.72 1480.07 860.247 1483.17 Q856.775 1486.25 850.456 1486.25 Q848.28 1486.25 846.011 1485.88 Q843.766 1485.51 841.359 1484.77 L841.359 1480.07 Q843.442 1481.2 845.664 1481.76 Q847.886 1482.32 850.363 1482.32 Q854.368 1482.32 856.706 1480.21 Q859.044 1478.1 859.044 1474.49 Q859.044 1470.88 856.706 1468.77 Q854.368 1466.67 850.363 1466.67 Q848.488 1466.67 846.613 1467.08 Q844.761 1467.5 842.817 1468.38 L842.817 1451.02 Z" fill="#000000" fill-rule="nonzero" fill-opacity="1" /><path clip-path="url(#clip250)" d="M1282.36 1454.1 Q1278.75 1454.1 1276.92 1457.66 Q1275.12 1461.2 1275.12 1468.33 Q1275.12 1475.44 1276.92 1479.01 Q1278.75 1482.55 1282.36 1482.55 Q1286 1482.55 1287.8 1479.01 Q1289.63 1475.44 1289.63 1468.33 Q1289.63 1461.2 1287.8 1457.66 Q1286 1454.1 1282.36 1454.1 M1282.36 1450.39 Q1288.17 1450.39 1291.23 1455 Q1294.31 1459.58 1294.31 1468.33 Q1294.31 1477.06 1291.23 1481.67 Q1288.17 1486.25 1282.36 1486.25 Q1276.55 1486.25 1273.48 1481.67 Q1270.42 1477.06 1270.42 1468.33 Q1270.42 1459.58 1273.48 1455 Q1276.55 1450.39 1282.36 1450.39 Z" fill="#000000" fill-rule="nonzero" fill-opacity="1" /><path clip-path="url(#clip250)" d="M1302.53 1479.7 L1307.41 1479.7 L1307.41 1485.58 L1302.53 1485.58 L1302.53 1479.7 Z" fill="#000000" fill-rule="nonzero" fill-opacity="1" /><path clip-path="url(#clip250)" d="M1327.6 1454.1 Q1323.98 1454.1 1322.16 1457.66 Q1320.35 1461.2 1320.35 1468.33 Q1320.35 1475.44 1322.16 1479.01 Q1323.98 1482.55 1327.6 1482.55 Q1331.23 1482.55 1333.04 1479.01 Q1334.86 1475.44 1334.86 1468.33 Q1334.86 1461.2 1333.04 1457.66 Q1331.23 1454.1 1327.6 1454.1 M1327.6 1450.39 Q1333.41 1450.39 1336.46 1455 Q1339.54 1459.58 1339.54 1468.33 Q1339.54 1477.06 1336.46 1481.67 Q1333.41 1486.25 1327.6 1486.25 Q1321.79 1486.25 1318.71 1481.67 Q1315.65 1477.06 1315.65 1468.33 Q1315.65 1459.58 1318.71 1455 Q1321.79 1450.39 1327.6 1450.39 Z" fill="#000000" fill-rule="nonzero" fill-opacity="1" /><path clip-path="url(#clip250)" d="M1777.1 1454.1 Q1773.49 1454.1 1771.66 1457.66 Q1769.85 1461.2 1769.85 1468.33 Q1769.85 1475.44 1771.66 1479.01 Q1773.49 1482.55 1777.1 1482.55 Q1780.73 1482.55 1782.54 1479.01 Q1784.37 1475.44 1784.37 1468.33 Q1784.37 1461.2 1782.54 1457.66 Q1780.73 1454.1 1777.1 1454.1 M1777.1 1450.39 Q1782.91 1450.39 1785.96 1455 Q1789.04 1459.58 1789.04 1468.33 Q1789.04 1477.06 1785.96 1481.67 Q1782.91 1486.25 1777.1 1486.25 Q1771.29 1486.25 1768.21 1481.67 Q1765.15 1477.06 1765.15 1468.33 Q1765.15 1459.58 1768.21 1455 Q1771.29 1450.39 1777.1 1450.39 Z" fill="#000000" fill-rule="nonzero" fill-opacity="1" /><path clip-path="url(#clip250)" d="M1797.26 1479.7 L1802.14 1479.7 L1802.14 1485.58 L1797.26 1485.58 L1797.26 1479.7 Z" fill="#000000" fill-rule="nonzero" fill-opacity="1" /><path clip-path="url(#clip250)" d="M1812.37 1451.02 L1830.73 1451.02 L1830.73 1454.96 L1816.66 1454.96 L1816.66 1463.43 Q1817.68 1463.08 1818.69 1462.92 Q1819.71 1462.73 1820.73 1462.73 Q1826.52 1462.73 1829.9 1465.9 Q1833.28 1469.08 1833.28 1474.49 Q1833.28 1480.07 1829.8 1483.17 Q1826.33 1486.25 1820.01 1486.25 Q1817.84 1486.25 1815.57 1485.88 Q1813.32 1485.51 1810.92 1484.77 L1810.92 1480.07 Q1813 1481.2 1815.22 1481.76 Q1817.44 1482.32 1819.92 1482.32 Q1823.93 1482.32 1826.26 1480.21 Q1828.6 1478.1 1828.6 1474.49 Q1828.6 1470.88 1826.26 1468.77 Q1823.93 1466.67 1819.92 1466.67 Q1818.05 1466.67 1816.17 1467.08 Q1814.32 1467.5 1812.37 1468.38 L1812.37 1451.02 Z" fill="#000000" fill-rule="nonzero" fill-opacity="1" /><path clip-path="url(#clip250)" d="M2260.6 1481.64 L2268.24 1481.64 L2268.24 1455.28 L2259.93 1456.95 L2259.93 1452.69 L2268.19 1451.02 L2272.87 1451.02 L2272.87 1481.64 L2280.51 1481.64 L2280.51 1485.58 L2260.6 1485.58 L2260.6 1481.64 Z" fill="#000000" fill-rule="nonzero" fill-opacity="1" /><path clip-path="url(#clip250)" d="M2289.95 1479.7 L2294.84 1479.7 L2294.84 1485.58 L2289.95 1485.58 L2289.95 1479.7 Z" fill="#000000" fill-rule="nonzero" fill-opacity="1" /><path clip-path="url(#clip250)" d="M2315.02 1454.1 Q2311.41 1454.1 2309.58 1457.66 Q2307.78 1461.2 2307.78 1468.33 Q2307.78 1475.44 2309.58 1479.01 Q2311.41 1482.55 2315.02 1482.55 Q2318.66 1482.55 2320.46 1479.01 Q2322.29 1475.44 2322.29 1468.33 Q2322.29 1461.2 2320.46 1457.66 Q2318.66 1454.1 2315.02 1454.1 M2315.02 1450.39 Q2320.83 1450.39 2323.89 1455 Q2326.97 1459.58 2326.97 1468.33 Q2326.97 1477.06 2323.89 1481.67 Q2320.83 1486.25 2315.02 1486.25 Q2309.21 1486.25 2306.13 1481.67 Q2303.08 1477.06 2303.08 1468.33 Q2303.08 1459.58 2306.13 1455 Q2309.21 1450.39 2315.02 1450.39 Z" fill="#000000" fill-rule="nonzero" fill-opacity="1" /><path clip-path="url(#clip250)" d="M1134.03 1525.81 L1134.03 1543.66 L1142.11 1543.66 Q1146.6 1543.66 1149.05 1541.34 Q1151.5 1539.02 1151.5 1534.72 Q1151.5 1530.45 1149.05 1528.13 Q1146.6 1525.81 1142.11 1525.81 L1134.03 1525.81 M1127.6 1520.52 L1142.11 1520.52 Q1150.1 1520.52 1154.18 1524.15 Q1158.28 1527.75 1158.28 1534.72 Q1158.28 1541.75 1154.18 1545.35 Q1150.1 1548.95 1142.11 1548.95 L1134.03 1548.95 L1134.03 1568.04 L1127.6 1568.04 L1127.6 1520.52 Z" fill="#000000" fill-rule="nonzero" fill-opacity="1" /><path clip-path="url(#clip250)" d="M1178.14 1536.5 Q1173.43 1536.5 1170.7 1540.19 Q1167.96 1543.85 1167.96 1550.25 Q1167.96 1556.65 1170.66 1560.34 Q1173.4 1564 1178.14 1564 Q1182.82 1564 1185.56 1560.31 Q1188.3 1556.62 1188.3 1550.25 Q1188.3 1543.92 1185.56 1540.23 Q1182.82 1536.5 1178.14 1536.5 M1178.14 1531.54 Q1185.78 1531.54 1190.14 1536.5 Q1194.5 1541.47 1194.5 1550.25 Q1194.5 1559 1190.14 1564 Q1185.78 1568.97 1178.14 1568.97 Q1170.47 1568.97 1166.11 1564 Q1161.78 1559 1161.78 1550.25 Q1161.78 1541.47 1166.11 1536.5 Q1170.47 1531.54 1178.14 1531.54 Z" fill="#000000" fill-rule="nonzero" fill-opacity="1" /><path clip-path="url(#clip250)" d="M1226.94 1533.45 L1226.94 1538.98 Q1224.45 1537.71 1221.78 1537.07 Q1219.11 1536.44 1216.24 1536.44 Q1211.88 1536.44 1209.69 1537.77 Q1207.52 1539.11 1207.52 1541.79 Q1207.52 1543.82 1209.08 1545 Q1210.64 1546.15 1215.35 1547.2 L1217.36 1547.64 Q1223.59 1548.98 1226.2 1551.43 Q1228.85 1553.85 1228.85 1558.21 Q1228.85 1563.17 1224.9 1566.07 Q1220.98 1568.97 1214.11 1568.97 Q1211.24 1568.97 1208.13 1568.39 Q1205.04 1567.85 1201.6 1566.74 L1201.6 1560.69 Q1204.85 1562.38 1208 1563.24 Q1211.15 1564.07 1214.24 1564.07 Q1218.37 1564.07 1220.6 1562.66 Q1222.83 1561.23 1222.83 1558.65 Q1222.83 1556.27 1221.21 1554.99 Q1219.62 1553.72 1214.17 1552.54 L1212.14 1552.07 Q1206.69 1550.92 1204.27 1548.56 Q1201.86 1546.18 1201.86 1542.04 Q1201.86 1537.01 1205.42 1534.27 Q1208.99 1531.54 1215.54 1531.54 Q1218.79 1531.54 1221.65 1532.01 Q1224.52 1532.49 1226.94 1533.45 Z" fill="#000000" fill-rule="nonzero" fill-opacity="1" /><path clip-path="url(#clip250)" d="M1238.17 1532.4 L1244.03 1532.4 L1244.03 1568.04 L1238.17 1568.04 L1238.17 1532.4 M1238.17 1518.52 L1244.03 1518.52 L1244.03 1525.93 L1238.17 1525.93 L1238.17 1518.52 Z" fill="#000000" fill-rule="nonzero" fill-opacity="1" /><path clip-path="url(#clip250)" d="M1262.08 1522.27 L1262.08 1532.4 L1274.14 1532.4 L1274.14 1536.95 L1262.08 1536.95 L1262.08 1556.3 Q1262.08 1560.66 1263.25 1561.9 Q1264.46 1563.14 1268.12 1563.14 L1274.14 1563.14 L1274.14 1568.04 L1268.12 1568.04 Q1261.34 1568.04 1258.76 1565.53 Q1256.19 1562.98 1256.19 1556.3 L1256.19 1536.95 L1251.89 1536.95 L1251.89 1532.4 L1256.19 1532.4 L1256.19 1522.27 L1262.08 1522.27 Z" fill="#000000" fill-rule="nonzero" fill-opacity="1" /><path clip-path="url(#clip250)" d="M1281.84 1532.4 L1287.7 1532.4 L1287.7 1568.04 L1281.84 1568.04 L1281.84 1532.4 M1281.84 1518.52 L1287.7 1518.52 L1287.7 1525.93 L1281.84 1525.93 L1281.84 1518.52 Z" fill="#000000" fill-rule="nonzero" fill-opacity="1" /><path clip-path="url(#clip250)" d="M1313.76 1536.5 Q1309.05 1536.5 1306.32 1540.19 Q1303.58 1543.85 1303.58 1550.25 Q1303.58 1556.65 1306.28 1560.34 Q1309.02 1564 1313.76 1564 Q1318.44 1564 1321.18 1560.31 Q1323.92 1556.62 1323.92 1550.25 Q1323.92 1543.92 1321.18 1540.23 Q1318.44 1536.5 1313.76 1536.5 M1313.76 1531.54 Q1321.4 1531.54 1325.76 1536.5 Q1330.12 1541.47 1330.12 1550.25 Q1330.12 1559 1325.76 1564 Q1321.4 1568.97 1313.76 1568.97 Q1306.09 1568.97 1301.73 1564 Q1297.4 1559 1297.4 1550.25 Q1297.4 1541.47 1301.73 1536.5 Q1306.09 1531.54 1313.76 1531.54 Z" fill="#000000" fill-rule="nonzero" fill-opacity="1" /><path clip-path="url(#clip250)" d="M1369.46 1546.53 L1369.46 1568.04 L1363.61 1568.04 L1363.61 1546.72 Q1363.61 1541.66 1361.63 1539.14 Q1359.66 1536.63 1355.71 1536.63 Q1350.97 1536.63 1348.23 1539.65 Q1345.5 1542.68 1345.5 1547.9 L1345.5 1568.04 L1339.61 1568.04 L1339.61 1532.4 L1345.5 1532.4 L1345.5 1537.93 Q1347.6 1534.72 1350.43 1533.13 Q1353.3 1531.54 1357.02 1531.54 Q1363.16 1531.54 1366.31 1535.36 Q1369.46 1539.14 1369.46 1546.53 Z" fill="#000000" fill-rule="nonzero" fill-opacity="1" /><path clip-path="url(#clip250)" d="M1415.93 1518.58 Q1411.67 1525.9 1409.6 1533.06 Q1407.53 1540.23 1407.53 1547.58 Q1407.53 1554.93 1409.6 1562.16 Q1411.7 1569.35 1415.93 1576.64 L1410.84 1576.64 Q1406.07 1569.16 1403.68 1561.93 Q1401.32 1554.71 1401.32 1547.58 Q1401.32 1540.48 1403.68 1533.29 Q1406.04 1526.09 1410.84 1518.58 L1415.93 1518.58 Z" fill="#000000" fill-rule="nonzero" fill-opacity="1" /><path clip-path="url(#clip250)" d="M1430.8 1550.25 Q1430.8 1556.71 1433.44 1560.4 Q1436.11 1564.07 1440.76 1564.07 Q1445.41 1564.07 1448.08 1560.4 Q1450.75 1556.71 1450.75 1550.25 Q1450.75 1543.79 1448.08 1540.13 Q1445.41 1536.44 1440.76 1536.44 Q1436.11 1536.44 1433.44 1540.13 Q1430.8 1543.79 1430.8 1550.25 M1450.75 1562.7 Q1448.91 1565.88 1446.08 1567.44 Q1443.27 1568.97 1439.33 1568.97 Q1432.87 1568.97 1428.79 1563.81 Q1424.75 1558.65 1424.75 1550.25 Q1424.75 1541.85 1428.79 1536.69 Q1432.87 1531.54 1439.33 1531.54 Q1443.27 1531.54 1446.08 1533.1 Q1448.91 1534.62 1450.75 1537.81 L1450.75 1532.4 L1456.61 1532.4 L1456.61 1581.6 L1450.75 1581.6 L1450.75 1562.7 Z" fill="#000000" fill-rule="nonzero" fill-opacity="1" /><path clip-path="url(#clip250)" d="M1467.75 1518.58 L1472.84 1518.58 Q1477.62 1526.09 1479.97 1533.29 Q1482.36 1540.48 1482.36 1547.58 Q1482.36 1554.71 1479.97 1561.93 Q1477.62 1569.16 1472.84 1576.64 L1467.75 1576.64 Q1471.98 1569.35 1474.05 1562.16 Q1476.15 1554.93 1476.15 1547.58 Q1476.15 1540.23 1474.05 1533.06 Q1471.98 1525.9 1467.75 1518.58 Z" fill="#000000" fill-rule="nonzero" fill-opacity="1" /><polyline clip-path="url(#clip252)" style="stroke:#000000; stroke-linecap:round; stroke-linejoin:round; stroke-width:2; stroke-opacity:0.1; fill:none" points="257.204,1384.24 2352.76,1384.24 "/>
<polyline clip-path="url(#clip252)" style="stroke:#000000; stroke-linecap:round; stroke-linejoin:round; stroke-width:2; stroke-opacity:0.1; fill:none" points="257.204,1059.73 2352.76,1059.73 "/>
<polyline clip-path="url(#clip252)" style="stroke:#000000; stroke-linecap:round; stroke-linejoin:round; stroke-width:2; stroke-opacity:0.1; fill:none" points="257.204,735.213 2352.76,735.213 "/>
<polyline clip-path="url(#clip252)" style="stroke:#000000; stroke-linecap:round; stroke-linejoin:round; stroke-width:2; stroke-opacity:0.1; fill:none" points="257.204,410.7 2352.76,410.7 "/>
<polyline clip-path="url(#clip252)" style="stroke:#000000; stroke-linecap:round; stroke-linejoin:round; stroke-width:2; stroke-opacity:0.1; fill:none" points="257.204,86.1857 2352.76,86.1857 "/>
<polyline clip-path="url(#clip250)" style="stroke:#000000; stroke-linecap:round; stroke-linejoin:round; stroke-width:4; stroke-opacity:1; fill:none" points="257.204,1423.18 257.204,47.2441 "/>
<polyline clip-path="url(#clip250)" style="stroke:#000000; stroke-linecap:round; stroke-linejoin:round; stroke-width:4; stroke-opacity:1; fill:none" points="257.204,1384.24 276.102,1384.24 "/>
<polyline clip-path="url(#clip250)" style="stroke:#000000; stroke-linecap:round; stroke-linejoin:round; stroke-width:4; stroke-opacity:1; fill:none" points="257.204,1059.73 276.102,1059.73 "/>
<polyline clip-path="url(#clip250)" style="stroke:#000000; stroke-linecap:round; stroke-linejoin:round; stroke-width:4; stroke-opacity:1; fill:none" points="257.204,735.213 276.102,735.213 "/>
<polyline clip-path="url(#clip250)" style="stroke:#000000; stroke-linecap:round; stroke-linejoin:round; stroke-width:4; stroke-opacity:1; fill:none" points="257.204,410.7 276.102,410.7 "/>
<polyline clip-path="url(#clip250)" style="stroke:#000000; stroke-linecap:round; stroke-linejoin:round; stroke-width:4; stroke-opacity:1; fill:none" points="257.204,86.1857 276.102,86.1857 "/>
<path clip-path="url(#clip250)" d="M114.26 1384.69 L143.936 1384.69 L143.936 1388.63 L114.26 1388.63 L114.26 1384.69 Z" fill="#000000" fill-rule="nonzero" fill-opacity="1" /><path clip-path="url(#clip250)" d="M154.839 1397.59 L162.477 1397.59 L162.477 1371.22 L154.167 1372.89 L154.167 1368.63 L162.431 1366.96 L167.107 1366.96 L167.107 1397.59 L174.746 1397.59 L174.746 1401.52 L154.839 1401.52 L154.839 1397.59 Z" fill="#000000" fill-rule="nonzero" fill-opacity="1" /><path clip-path="url(#clip250)" d="M184.19 1395.64 L189.075 1395.64 L189.075 1401.52 L184.19 1401.52 L184.19 1395.64 Z" fill="#000000" fill-rule="nonzero" fill-opacity="1" /><path clip-path="url(#clip250)" d="M209.26 1370.04 Q205.649 1370.04 203.82 1373.6 Q202.014 1377.15 202.014 1384.28 Q202.014 1391.38 203.82 1394.95 Q205.649 1398.49 209.26 1398.49 Q212.894 1398.49 214.699 1394.95 Q216.528 1391.38 216.528 1384.28 Q216.528 1377.15 214.699 1373.6 Q212.894 1370.04 209.26 1370.04 M209.26 1366.34 Q215.07 1366.34 218.125 1370.94 Q221.204 1375.53 221.204 1384.28 Q221.204 1393 218.125 1397.61 Q215.07 1402.19 209.26 1402.19 Q203.449 1402.19 200.371 1397.61 Q197.315 1393 197.315 1384.28 Q197.315 1375.53 200.371 1370.94 Q203.449 1366.34 209.26 1366.34 Z" fill="#000000" fill-rule="nonzero" fill-opacity="1" /><path clip-path="url(#clip250)" d="M115.256 1060.18 L144.931 1060.18 L144.931 1064.11 L115.256 1064.11 L115.256 1060.18 Z" fill="#000000" fill-rule="nonzero" fill-opacity="1" /><path clip-path="url(#clip250)" d="M165.024 1045.53 Q161.413 1045.53 159.584 1049.09 Q157.778 1052.63 157.778 1059.76 Q157.778 1066.87 159.584 1070.43 Q161.413 1073.98 165.024 1073.98 Q168.658 1073.98 170.464 1070.43 Q172.292 1066.87 172.292 1059.76 Q172.292 1052.63 170.464 1049.09 Q168.658 1045.53 165.024 1045.53 M165.024 1041.82 Q170.834 1041.82 173.889 1046.43 Q176.968 1051.01 176.968 1059.76 Q176.968 1068.49 173.889 1073.1 Q170.834 1077.68 165.024 1077.68 Q159.214 1077.68 156.135 1073.1 Q153.079 1068.49 153.079 1059.76 Q153.079 1051.01 156.135 1046.43 Q159.214 1041.82 165.024 1041.82 Z" fill="#000000" fill-rule="nonzero" fill-opacity="1" /><path clip-path="url(#clip250)" d="M185.186 1071.13 L190.07 1071.13 L190.07 1077.01 L185.186 1077.01 L185.186 1071.13 Z" fill="#000000" fill-rule="nonzero" fill-opacity="1" /><path clip-path="url(#clip250)" d="M200.301 1042.45 L218.658 1042.45 L218.658 1046.38 L204.584 1046.38 L204.584 1054.85 Q205.602 1054.51 206.621 1054.35 Q207.639 1054.16 208.658 1054.16 Q214.445 1054.16 217.824 1057.33 Q221.204 1060.5 221.204 1065.92 Q221.204 1071.5 217.732 1074.6 Q214.26 1077.68 207.94 1077.68 Q205.764 1077.68 203.496 1077.31 Q201.25 1076.94 198.843 1076.2 L198.843 1071.5 Q200.926 1072.63 203.149 1073.19 Q205.371 1073.74 207.848 1073.74 Q211.852 1073.74 214.19 1071.64 Q216.528 1069.53 216.528 1065.92 Q216.528 1062.31 214.19 1060.2 Q211.852 1058.1 207.848 1058.1 Q205.973 1058.1 204.098 1058.51 Q202.246 1058.93 200.301 1059.81 L200.301 1042.45 Z" fill="#000000" fill-rule="nonzero" fill-opacity="1" /><path clip-path="url(#clip250)" d="M164.028 721.012 Q160.417 721.012 158.589 724.577 Q156.783 728.119 156.783 735.248 Q156.783 742.355 158.589 745.919 Q160.417 749.461 164.028 749.461 Q167.663 749.461 169.468 745.919 Q171.297 742.355 171.297 735.248 Q171.297 728.119 169.468 724.577 Q167.663 721.012 164.028 721.012 M164.028 717.308 Q169.839 717.308 172.894 721.915 Q175.973 726.498 175.973 735.248 Q175.973 743.975 172.894 748.581 Q169.839 753.165 164.028 753.165 Q158.218 753.165 155.14 748.581 Q152.084 743.975 152.084 735.248 Q152.084 726.498 155.14 721.915 Q158.218 717.308 164.028 717.308 Z" fill="#000000" fill-rule="nonzero" fill-opacity="1" /><path clip-path="url(#clip250)" d="M184.19 746.614 L189.075 746.614 L189.075 752.493 L184.19 752.493 L184.19 746.614 Z" fill="#000000" fill-rule="nonzero" fill-opacity="1" /><path clip-path="url(#clip250)" d="M209.26 721.012 Q205.649 721.012 203.82 724.577 Q202.014 728.119 202.014 735.248 Q202.014 742.355 203.82 745.919 Q205.649 749.461 209.26 749.461 Q212.894 749.461 214.699 745.919 Q216.528 742.355 216.528 735.248 Q216.528 728.119 214.699 724.577 Q212.894 721.012 209.26 721.012 M209.26 717.308 Q215.07 717.308 218.125 721.915 Q221.204 726.498 221.204 735.248 Q221.204 743.975 218.125 748.581 Q215.07 753.165 209.26 753.165 Q203.449 753.165 200.371 748.581 Q197.315 743.975 197.315 735.248 Q197.315 726.498 200.371 721.915 Q203.449 717.308 209.26 717.308 Z" fill="#000000" fill-rule="nonzero" fill-opacity="1" /><path clip-path="url(#clip250)" d="M165.024 396.498 Q161.413 396.498 159.584 400.063 Q157.778 403.605 157.778 410.734 Q157.778 417.841 159.584 421.406 Q161.413 424.947 165.024 424.947 Q168.658 424.947 170.464 421.406 Q172.292 417.841 172.292 410.734 Q172.292 403.605 170.464 400.063 Q168.658 396.498 165.024 396.498 M165.024 392.795 Q170.834 392.795 173.889 397.401 Q176.968 401.984 176.968 410.734 Q176.968 419.461 173.889 424.068 Q170.834 428.651 165.024 428.651 Q159.214 428.651 156.135 424.068 Q153.079 419.461 153.079 410.734 Q153.079 401.984 156.135 397.401 Q159.214 392.795 165.024 392.795 Z" fill="#000000" fill-rule="nonzero" fill-opacity="1" /><path clip-path="url(#clip250)" d="M185.186 422.1 L190.07 422.1 L190.07 427.98 L185.186 427.98 L185.186 422.1 Z" fill="#000000" fill-rule="nonzero" fill-opacity="1" /><path clip-path="url(#clip250)" d="M200.301 393.42 L218.658 393.42 L218.658 397.355 L204.584 397.355 L204.584 405.827 Q205.602 405.48 206.621 405.318 Q207.639 405.132 208.658 405.132 Q214.445 405.132 217.824 408.304 Q221.204 411.475 221.204 416.892 Q221.204 422.47 217.732 425.572 Q214.26 428.651 207.94 428.651 Q205.764 428.651 203.496 428.281 Q201.25 427.91 198.843 427.169 L198.843 422.47 Q200.926 423.605 203.149 424.16 Q205.371 424.716 207.848 424.716 Q211.852 424.716 214.19 422.609 Q216.528 420.503 216.528 416.892 Q216.528 413.281 214.19 411.174 Q211.852 409.068 207.848 409.068 Q205.973 409.068 204.098 409.484 Q202.246 409.901 200.301 410.781 L200.301 393.42 Z" fill="#000000" fill-rule="nonzero" fill-opacity="1" /><path clip-path="url(#clip250)" d="M154.839 99.5305 L162.477 99.5305 L162.477 73.1649 L154.167 74.8316 L154.167 70.5723 L162.431 68.9057 L167.107 68.9057 L167.107 99.5305 L174.746 99.5305 L174.746 103.466 L154.839 103.466 L154.839 99.5305 Z" fill="#000000" fill-rule="nonzero" fill-opacity="1" /><path clip-path="url(#clip250)" d="M184.19 97.5861 L189.075 97.5861 L189.075 103.466 L184.19 103.466 L184.19 97.5861 Z" fill="#000000" fill-rule="nonzero" fill-opacity="1" /><path clip-path="url(#clip250)" d="M209.26 71.9844 Q205.649 71.9844 203.82 75.5492 Q202.014 79.0908 202.014 86.2204 Q202.014 93.3268 203.82 96.8916 Q205.649 100.433 209.26 100.433 Q212.894 100.433 214.699 96.8916 Q216.528 93.3268 216.528 86.2204 Q216.528 79.0908 214.699 75.5492 Q212.894 71.9844 209.26 71.9844 M209.26 68.2807 Q215.07 68.2807 218.125 72.8871 Q221.204 77.4704 221.204 86.2204 Q221.204 94.9472 218.125 99.5537 Q215.07 104.137 209.26 104.137 Q203.449 104.137 200.371 99.5537 Q197.315 94.9472 197.315 86.2204 Q197.315 77.4704 200.371 72.8871 Q203.449 68.2807 209.26 68.2807 Z" fill="#000000" fill-rule="nonzero" fill-opacity="1" /><path clip-path="url(#clip250)" d="M16.4842 971.396 L16.4842 961.815 L48.8219 949.689 L16.4842 937.498 L16.4842 927.918 L64.0042 927.918 L64.0042 934.188 L22.277 934.188 L54.8694 946.442 L54.8694 952.903 L22.277 965.157 L64.0042 965.157 L64.0042 971.396 L16.4842 971.396 Z" fill="#000000" fill-rule="nonzero" fill-opacity="1" /><path clip-path="url(#clip250)" d="M32.4621 901.596 Q32.4621 906.306 36.1542 909.044 Q39.8145 911.781 46.212 911.781 Q52.6095 911.781 56.3017 909.075 Q59.9619 906.338 59.9619 901.596 Q59.9619 896.917 56.2698 894.18 Q52.5777 891.442 46.212 891.442 Q39.8781 891.442 36.186 894.18 Q32.4621 896.917 32.4621 901.596 M27.4968 901.596 Q27.4968 893.957 32.4621 889.596 Q37.4273 885.236 46.212 885.236 Q54.9649 885.236 59.9619 889.596 Q64.9272 893.957 64.9272 901.596 Q64.9272 909.266 59.9619 913.627 Q54.9649 917.955 46.212 917.955 Q37.4273 917.955 32.4621 913.627 Q27.4968 909.266 27.4968 901.596 Z" fill="#000000" fill-rule="nonzero" fill-opacity="1" /><path clip-path="url(#clip250)" d="M35.1993 847.774 Q31.2526 845.577 29.3747 842.522 Q27.4968 839.466 27.4968 835.329 Q27.4968 829.759 31.4117 826.735 Q35.2948 823.711 42.4881 823.711 L64.0042 823.711 L64.0042 829.599 L42.679 829.599 Q37.5546 829.599 35.072 831.414 Q32.5894 833.228 32.5894 836.952 Q32.5894 841.503 35.6131 844.145 Q38.6368 846.787 43.8567 846.787 L64.0042 846.787 L64.0042 852.675 L42.679 852.675 Q37.5228 852.675 35.072 854.489 Q32.5894 856.304 32.5894 860.091 Q32.5894 864.579 35.6449 867.221 Q38.6686 869.863 43.8567 869.863 L64.0042 869.863 L64.0042 875.751 L28.3562 875.751 L28.3562 869.863 L33.8944 869.863 Q30.616 867.857 29.0564 865.056 Q27.4968 862.256 27.4968 858.404 Q27.4968 854.521 29.4702 851.816 Q31.4436 849.079 35.1993 847.774 Z" fill="#000000" fill-rule="nonzero" fill-opacity="1" /><path clip-path="url(#clip250)" d="M44.7161 781.538 L47.5806 781.538 L47.5806 808.465 Q53.6281 808.083 56.8109 804.837 Q59.9619 801.559 59.9619 795.734 Q59.9619 792.36 59.1344 789.209 Q58.3069 786.026 56.6518 782.907 L62.1899 782.907 Q63.5267 786.058 64.227 789.368 Q64.9272 792.678 64.9272 796.084 Q64.9272 804.614 59.9619 809.611 Q54.9967 814.576 46.5303 814.576 Q37.7774 814.576 32.6531 809.866 Q27.4968 805.123 27.4968 797.103 Q27.4968 789.909 32.1438 785.74 Q36.7589 781.538 44.7161 781.538 M42.9973 787.395 Q38.1912 787.459 35.3266 790.1 Q32.4621 792.71 32.4621 797.039 Q32.4621 801.94 35.2312 804.901 Q38.0002 807.829 43.0292 808.274 L42.9973 787.395 Z" fill="#000000" fill-rule="nonzero" fill-opacity="1" /><path clip-path="url(#clip250)" d="M42.4881 742.294 L64.0042 742.294 L64.0042 748.15 L42.679 748.15 Q37.6183 748.15 35.1038 750.124 Q32.5894 752.097 32.5894 756.044 Q32.5894 760.786 35.6131 763.523 Q38.6368 766.261 43.8567 766.261 L64.0042 766.261 L64.0042 772.149 L28.3562 772.149 L28.3562 766.261 L33.8944 766.261 Q30.6797 764.16 29.0883 761.327 Q27.4968 758.463 27.4968 754.739 Q27.4968 748.596 31.3163 745.445 Q35.1038 742.294 42.4881 742.294 Z" fill="#000000" fill-rule="nonzero" fill-opacity="1" /><path clip-path="url(#clip250)" d="M18.2347 724.82 L28.3562 724.82 L28.3562 712.757 L32.9077 712.757 L32.9077 724.82 L52.2594 724.82 Q56.6199 724.82 57.8613 723.642 Q59.1026 722.433 59.1026 718.773 L59.1026 712.757 L64.0042 712.757 L64.0042 718.773 Q64.0042 725.552 61.4897 728.13 Q58.9434 730.708 52.2594 730.708 L32.9077 730.708 L32.9077 735.005 L28.3562 735.005 L28.3562 730.708 L18.2347 730.708 L18.2347 724.82 Z" fill="#000000" fill-rule="nonzero" fill-opacity="1" /><path clip-path="url(#clip250)" d="M49.9359 705.659 L28.3562 705.659 L28.3562 699.803 L49.7131 699.803 Q54.7739 699.803 57.3202 697.829 Q59.8346 695.856 59.8346 691.909 Q59.8346 687.167 56.8109 684.43 Q53.7872 681.66 48.5673 681.66 L28.3562 681.66 L28.3562 675.804 L64.0042 675.804 L64.0042 681.66 L58.5296 681.66 Q61.7762 683.793 63.3676 686.626 Q64.9272 689.427 64.9272 693.151 Q64.9272 699.293 61.1078 702.476 Q57.2883 705.659 49.9359 705.659 M27.4968 690.923 L27.4968 690.923 Z" fill="#000000" fill-rule="nonzero" fill-opacity="1" /><path clip-path="url(#clip250)" d="M35.1993 635.987 Q31.2526 633.79 29.3747 630.735 Q27.4968 627.679 27.4968 623.542 Q27.4968 617.972 31.4117 614.948 Q35.2948 611.924 42.4881 611.924 L64.0042 611.924 L64.0042 617.812 L42.679 617.812 Q37.5546 617.812 35.072 619.627 Q32.5894 621.441 32.5894 625.165 Q32.5894 629.716 35.6131 632.358 Q38.6368 635 43.8567 635 L64.0042 635 L64.0042 640.888 L42.679 640.888 Q37.5228 640.888 35.072 642.702 Q32.5894 644.517 32.5894 648.304 Q32.5894 652.792 35.6449 655.434 Q38.6686 658.076 43.8567 658.076 L64.0042 658.076 L64.0042 663.964 L28.3562 663.964 L28.3562 658.076 L33.8944 658.076 Q30.616 656.07 29.0564 653.269 Q27.4968 650.468 27.4968 646.617 Q27.4968 642.734 29.4702 640.029 Q31.4436 637.291 35.1993 635.987 Z" fill="#000000" fill-rule="nonzero" fill-opacity="1" /><path clip-path="url(#clip250)" d="M14.5426 565.454 Q21.8632 569.72 29.0246 571.788 Q36.186 573.857 43.5384 573.857 Q50.8908 573.857 58.1159 571.788 Q65.3091 569.688 72.5979 565.454 L72.5979 570.547 Q65.1182 575.321 57.8931 577.708 Q50.668 580.064 43.5384 580.064 Q36.4406 580.064 29.2474 577.708 Q22.0542 575.353 14.5426 570.547 L14.5426 565.454 Z" fill="#000000" fill-rule="nonzero" fill-opacity="1" /><path clip-path="url(#clip250)" d="M58.657 548.426 L77.5631 548.426 L77.5631 554.315 L28.3562 554.315 L28.3562 548.426 L33.7671 548.426 Q30.5842 546.58 29.0564 543.779 Q27.4968 540.947 27.4968 537.032 Q27.4968 530.539 32.6531 526.496 Q37.8093 522.422 46.212 522.422 Q54.6147 522.422 59.771 526.496 Q64.9272 530.539 64.9272 537.032 Q64.9272 540.947 63.3994 543.779 Q61.8398 546.58 58.657 548.426 M46.212 528.502 Q39.7508 528.502 36.0905 531.175 Q32.3984 533.817 32.3984 538.464 Q32.3984 543.111 36.0905 545.784 Q39.7508 548.426 46.212 548.426 Q52.6732 548.426 56.3653 545.784 Q60.0256 543.111 60.0256 538.464 Q60.0256 533.817 56.3653 531.175 Q52.6732 528.502 46.212 528.502 Z" fill="#000000" fill-rule="nonzero" fill-opacity="1" /><path clip-path="url(#clip250)" d="M14.5426 513.638 L14.5426 508.545 Q22.0542 503.771 29.2474 501.415 Q36.4406 499.028 43.5384 499.028 Q50.668 499.028 57.8931 501.415 Q65.1182 503.771 72.5979 508.545 L72.5979 513.638 Q65.3091 509.404 58.1159 507.336 Q50.8908 505.235 43.5384 505.235 Q36.186 505.235 29.0246 507.336 Q21.8632 509.404 14.5426 513.638 Z" fill="#000000" fill-rule="nonzero" fill-opacity="1" /><polyline clip-path="url(#clip252)" style="stroke:#009af9; stroke-linecap:round; stroke-linejoin:round; stroke-width:16; stroke-opacity:1; fill:none" points="1304.98,86.1857 1311.05,86.1979 1317.12,86.2346 1323.19,86.2958 1329.26,86.3815 1335.33,86.4917 1341.4,86.6263 1347.46,86.7854 1353.53,86.969 1359.59,87.177 1365.65,87.4095 1371.71,87.6663 1377.77,87.9477 1383.82,88.2534 1389.87,88.5836 1395.92,88.9381 1401.96,89.317 1408,89.7203 1414.04,90.148 1420.07,90.5999 1426.1,91.0762 1432.12,91.5768 1438.14,92.1017 1444.15,92.6508 1450.16,93.2242 1456.16,93.8217 1462.16,94.4435 1468.15,95.0894 1474.13,95.7595 1480.11,96.4537 1486.08,97.1721 1492.05,97.9144 1498.01,98.6809 1503.96,99.4713 1509.9,100.286 1515.84,101.124 1521.76,101.986 1527.68,102.873 1533.59,103.783 1539.5,104.716 1545.39,105.674 1551.27,106.655 1557.15,107.661 1563.01,108.689 1568.87,109.742 1574.71,110.818 1580.55,111.917 1586.38,113.04 1592.19,114.187 1597.99,115.357 1603.79,116.55 1609.57,117.767 1615.34,119.007 1621.1,120.27 1626.84,121.556 1632.58,122.866 1638.3,124.199 1644.01,125.554 1649.7,126.933 1655.39,128.335 1661.06,129.759 1666.71,131.207 1672.36,132.677 1677.99,134.17 1683.6,135.685 1689.2,137.224 1694.79,138.784 1700.36,140.368 1705.92,141.973 1711.46,143.601 1716.98,145.252 1722.5,146.924 1727.99,148.619 1733.47,150.336 1738.93,152.075 1744.38,153.836 1749.81,155.619 1755.22,157.424 1760.62,159.251 1766,161.099 1771.36,162.969 1776.7,164.861 1782.03,166.774 1787.34,168.708 1792.63,170.664 1797.9,172.641 1803.15,174.64 1808.39,176.659 1813.6,178.7 1818.8,180.762 1823.97,182.844 1829.13,184.948 1834.27,187.072 1839.39,189.217 1844.48,191.382 1849.56,193.568 1854.62,195.774 1859.65,198.001 1864.67,200.248 1869.66,202.515 1874.63,204.802 1879.58,207.11 1884.51,209.437 1889.42,211.784 1894.31,214.151 1899.17,216.537 1904.01,218.943 1908.83,221.369 1913.62,223.814 1918.39,226.278 1923.14,228.761 1927.87,231.263 1932.57,233.785 1937.25,236.325 1941.9,238.885 1946.54,241.462 1951.14,244.059 1955.72,246.674 1960.28,249.308 1964.81,251.959 1969.32,254.629 1973.81,257.318 1978.26,260.024 1982.7,262.748 1987.1,265.49 1991.48,268.25 1995.84,271.027 2000.17,273.822 2004.47,276.634 2008.75,279.464 2013,282.31 2017.22,285.174 2021.42,288.055 2025.58,290.952 2029.73,293.867 2033.84,296.798 2037.93,299.745 2041.99,302.71 2046.02,305.69 2050.02,308.686 2054,311.699 2057.95,314.728 2061.87,317.772 2065.76,320.832 2069.62,323.908 2073.45,326.999 2077.26,330.106 2081.03,333.228 2084.78,336.365 2088.49,339.518 2092.18,342.685 2095.84,345.867 2099.46,349.064 2103.06,352.275 2106.63,355.5 2110.16,358.74 2113.67,361.995 2117.15,365.263 2120.59,368.545 2124.01,371.841 2127.39,375.151 2130.74,378.474 2134.06,381.811 2137.35,385.161 2140.61,388.525 2143.84,391.901 2147.03,395.291 2150.2,398.693 2153.33,402.108 2156.43,405.535 2159.5,408.975 2162.53,412.427 2165.54,415.892 2168.51,419.368 2171.45,422.856 2174.35,426.357 2177.22,429.868 2180.06,433.392 2182.87,436.926 2185.64,440.472 2188.38,444.029 2191.09,447.597 2193.76,451.176 2196.4,454.766 2199.01,458.366 2201.58,461.977 2204.12,465.598 2206.63,469.229 2209.1,472.87 2211.54,476.521 2213.94,480.182 2216.31,483.852 2218.64,487.532 2220.94,491.221 2223.21,494.92 2225.44,498.627 2227.63,502.344 2229.79,506.069 2231.92,509.803 2234.01,513.545 2236.07,517.296 2238.09,521.055 2240.07,524.822 2242.02,528.597 2243.94,532.38 2245.82,536.17 2247.66,539.968 2249.47,543.773 2251.24,547.586 2252.98,551.405 2254.68,555.232 2256.35,559.065 2257.98,562.905 2259.57,566.751 2261.13,570.604 2262.65,574.463 2264.14,578.328 2265.59,582.199 2267,586.076 2268.38,589.959 2269.72,593.846 2271.02,597.74 2272.29,601.638 2273.52,605.542 2274.71,609.45 2275.87,613.363 2276.99,617.281 2278.08,621.203 2279.13,625.129 2280.14,629.06 2281.11,632.994 2282.05,636.933 2282.95,640.875 2283.82,644.821 2284.64,648.77 2285.43,652.722 2286.19,656.677 2286.9,660.636 2287.58,664.597 2288.22,668.561 2288.83,672.528 2289.4,676.496 2289.93,680.467 2290.42,684.44 2290.88,688.415 2291.3,692.392 2291.68,696.371 2292.02,700.35 2292.33,704.332 2292.6,708.314 2292.83,712.297 2293.03,716.281 2293.19,720.266 2293.31,724.252 2293.39,728.238 2293.44,732.224 2293.45,736.21 2293.42,740.196 2293.35,744.182 2293.25,748.168 2293.11,752.153 2292.94,756.138 2292.72,760.122 2292.47,764.105 2292.18,768.086 2291.85,772.067 2291.49,776.046 2291.09,780.023 2290.65,783.999 2290.18,787.973 2289.67,791.945 2289.12,795.915 2288.53,799.883 2287.91,803.848 2287.25,807.811 2286.55,811.771 2285.81,815.728 2285.04,819.682 2284.23,823.632 2283.39,827.58 2282.51,831.524 2281.59,835.464 2280.63,839.401 2279.64,843.333 2278.61,847.262 2277.54,851.186 2276.44,855.106 2275.3,859.021 2274.12,862.932 2272.91,866.838 2271.66,870.739 2270.37,874.635 2269.05,878.525 2267.69,882.41 2266.3,886.29 2264.87,890.164 2263.4,894.032 2261.89,897.894 2260.35,901.75 2258.78,905.6 2257.17,909.443 2255.52,913.279 2253.84,917.109 2252.12,920.932 2250.36,924.749 2248.57,928.557 2246.74,932.359 2244.88,936.153 2242.98,939.94 2241.05,943.719 2239.08,947.49 2237.08,951.253 2235.04,955.008 2232.97,958.754 2230.86,962.492 2228.72,966.222 2226.54,969.943 2224.33,973.655 2222.08,977.358 2219.8,981.052 2217.48,984.736 2215.13,988.411 2212.74,992.077 2210.32,995.733 2207.87,999.379 2205.38,1003.02 2202.86,1006.64 2200.3,1010.26 2197.71,1013.86 2195.09,1017.46 2192.43,1021.04 2189.74,1024.62 2187.02,1028.18 2184.26,1031.73 2181.47,1035.27 2178.65,1038.8 2175.79,1042.32 2172.9,1045.82 2169.98,1049.32 2167.03,1052.8 2164.04,1056.27 2161.02,1059.73 2157.97,1063.17 2154.88,1066.61 2151.77,1070.03 2148.62,1073.44 2145.44,1076.83 2142.23,1080.22 2138.99,1083.59 2135.71,1086.94 2132.41,1090.29 2129.07,1093.62 2125.7,1096.93 2122.3,1100.24 2118.87,1103.52 2115.41,1106.8 2111.92,1110.06 2108.4,1113.31 2104.85,1116.54 2101.26,1119.76 2097.65,1122.96 2094.01,1126.15 2090.34,1129.33 2086.64,1132.49 2082.91,1135.63 2079.15,1138.76 2075.36,1141.88 2071.54,1144.98 2067.69,1148.06 2063.81,1151.13 2059.91,1154.18 2055.98,1157.22 2052.01,1160.24 2048.03,1163.24 2044.01,1166.23 2039.96,1169.2 2035.89,1172.16 2031.79,1175.1 2027.66,1178.02 2023.5,1180.93 2019.32,1183.81 2015.11,1186.69 2010.87,1189.54 2006.61,1192.38 2002.32,1195.2 1998.01,1198 1993.66,1200.79 1989.3,1203.56 1984.9,1206.31 1980.48,1209.04 1976.04,1211.76 1971.57,1214.46 1967.07,1217.13 1962.55,1219.8 1958.01,1222.44 1953.44,1225.06 1948.84,1227.67 1944.22,1230.26 1939.58,1232.82 1934.91,1235.37 1930.22,1237.91 1925.51,1240.42 1920.77,1242.91 1916.01,1245.38 1911.23,1247.84 1906.42,1250.27 1901.59,1252.69 1896.74,1255.09 1891.87,1257.46 1886.97,1259.82 1882.05,1262.16 1877.11,1264.47 1872.15,1266.77 1867.17,1269.05 1862.16,1271.31 1857.14,1273.54 1852.09,1275.76 1847.02,1277.95 1841.94,1280.13 1836.83,1282.29 1831.7,1284.42 1826.56,1286.53 1821.39,1288.63 1816.2,1290.7 1811,1292.75 1805.77,1294.78 1800.53,1296.79 1795.27,1298.78 1789.99,1300.74 1784.69,1302.69 1779.37,1304.61 1774.03,1306.52 1768.68,1308.4 1763.31,1310.25 1757.92,1312.09 1752.52,1313.91 1747.1,1315.7 1741.66,1317.47 1736.2,1319.22 1730.73,1320.95 1725.25,1322.66 1719.74,1324.34 1714.22,1326 1708.69,1327.64 1703.14,1329.26 1697.58,1330.85 1692,1332.43 1686.4,1333.98 1680.8,1335.5 1675.17,1337.01 1669.54,1338.49 1663.89,1339.95 1658.22,1341.38 1652.55,1342.8 1646.86,1344.19 1641.15,1345.55 1635.44,1346.9 1629.71,1348.22 1623.97,1349.52 1618.22,1350.79 1612.45,1352.04 1606.68,1353.27 1600.89,1354.48 1595.09,1355.66 1589.28,1356.82 1583.46,1357.95 1577.63,1359.06 1571.79,1360.15 1565.94,1361.21 1560.08,1362.26 1554.21,1363.27 1548.33,1364.27 1542.44,1365.23 1536.55,1366.18 1530.64,1367.1 1524.72,1368 1518.8,1368.87 1512.87,1369.73 1506.93,1370.55 1500.98,1371.35 1495.03,1372.13 1489.07,1372.89 1483.1,1373.62 1477.12,1374.32 1471.14,1375.01 1465.15,1375.66 1459.16,1376.3 1453.16,1376.91 1447.16,1377.49 1441.15,1378.05 1435.13,1378.59 1429.11,1379.1 1423.08,1379.59 1417.05,1380.06 1411.02,1380.5 1404.98,1380.91 1398.94,1381.3 1392.89,1381.67 1386.85,1382.01 1380.79,1382.33 1374.74,1382.62 1368.68,1382.89 1362.62,1383.14 1356.56,1383.36 1350.5,1383.55 1344.43,1383.72 1338.36,1383.87 1332.3,1383.99 1326.23,1384.09 1320.16,1384.16 1314.09,1384.21 1308.02,1384.24 1301.94,1384.24 1295.87,1384.21 1289.8,1384.16 1283.73,1384.09 1277.66,1383.99 1271.6,1383.87 1265.53,1383.72 1259.46,1383.55 1253.4,1383.36 1247.34,1383.14 1241.28,1382.89 1235.22,1382.62 1229.17,1382.33 1223.11,1382.01 1217.07,1381.67 1211.02,1381.3 1204.98,1380.91 1198.94,1380.5 1192.91,1380.06 1186.88,1379.59 1180.85,1379.1 1174.83,1378.59 1168.81,1378.05 1162.8,1377.49 1156.8,1376.91 1150.8,1376.3 1144.81,1375.66 1138.82,1375.01 1132.84,1374.32 1126.86,1373.62 1120.89,1372.89 1114.93,1372.13 1108.98,1371.35 1103.03,1370.55 1097.09,1369.73 1091.16,1368.87 1085.24,1368 1079.32,1367.1 1073.41,1366.18 1067.52,1365.23 1061.63,1364.27 1055.75,1363.27 1049.88,1362.26 1044.02,1361.21 1038.17,1360.15 1032.33,1359.06 1026.5,1357.95 1020.68,1356.82 1014.87,1355.66 1009.07,1354.48 1003.28,1353.27 997.506,1352.04 991.742,1350.79 985.99,1349.52 980.249,1348.22 974.521,1346.9 968.806,1345.55 963.103,1344.19 957.413,1342.8 951.736,1341.38 946.073,1339.95 940.423,1338.49 934.787,1337.01 929.164,1335.5 923.556,1333.98 917.963,1332.43 912.384,1330.85 906.819,1329.26 901.27,1327.64 895.736,1326 890.218,1324.34 884.714,1322.66 879.227,1320.95 873.756,1319.22 868.302,1317.47 862.863,1315.7 857.442,1313.91 852.037,1312.09 846.65,1310.25 841.279,1308.4 835.926,1306.51 830.591,1304.61 825.274,1302.69 819.975,1300.74 814.694,1298.78 809.431,1296.79 804.188,1294.78 798.963,1292.75 793.757,1290.7 788.571,1288.63 783.404,1286.53 778.257,1284.42 773.129,1282.29 768.022,1280.13 762.935,1277.95 757.868,1275.76 752.822,1273.54 747.797,1271.3 742.793,1269.05 737.81,1266.77 732.849,1264.47 727.909,1262.16 722.991,1259.82 718.094,1257.46 713.22,1255.09 708.368,1252.69 703.539,1250.27 698.732,1247.84 693.949,1245.38 689.188,1242.91 684.451,1240.42 679.737,1237.91 675.046,1235.37 670.38,1232.82 665.737,1230.26 661.118,1227.67 656.524,1225.06 651.954,1222.44 647.409,1219.8 642.888,1217.13 638.393,1214.46 633.923,1211.76 629.478,1209.04 625.058,1206.31 620.664,1203.56 616.296,1200.79 611.954,1198 607.638,1195.2 603.349,1192.38 599.086,1189.54 594.849,1186.69 590.639,1183.81 586.457,1180.93 582.301,1178.02 578.173,1175.1 574.072,1172.16 569.998,1169.2 565.952,1166.23 561.935,1163.24 557.945,1160.24 553.983,1157.22 550.05,1154.18 546.145,1151.13 542.269,1148.06 538.422,1144.98 534.603,1141.88 530.814,1138.76 527.053,1135.63 523.323,1132.49 519.621,1129.33 515.949,1126.15 512.307,1122.96 508.695,1119.76 505.113,1116.54 501.561,1113.31 498.04,1110.06 494.549,1106.8 491.088,1103.52 487.658,1100.24 484.259,1096.93 480.891,1093.62 477.554,1090.29 474.248,1086.94 470.974,1083.59 467.731,1080.22 464.52,1076.83 461.34,1073.44 458.192,1070.03 455.076,1066.61 451.992,1063.17 448.941,1059.73 445.921,1056.27 442.934,1052.8 439.98,1049.32 437.058,1045.82 434.169,1042.32 431.313,1038.8 428.489,1035.27 425.699,1031.73 422.942,1028.18 420.218,1024.62 417.528,1021.04 414.871,1017.46 412.248,1013.86 409.658,1010.26 407.102,1006.64 404.58,1003.01 402.092,999.379 399.638,995.733 397.218,992.077 394.833,988.411 392.481,984.736 390.164,981.051 387.882,977.358 385.634,973.655 383.421,969.942 381.243,966.222 379.1,962.492 376.991,958.754 374.918,955.007 372.879,951.253 370.876,947.49 368.908,943.719 366.975,939.94 365.078,936.153 363.216,932.359 361.39,928.557 359.599,924.748 357.844,920.932 356.124,917.109 354.441,913.279 352.793,909.443 351.181,905.599 349.606,901.75 348.066,897.894 346.562,894.032 345.094,890.164 343.663,886.29 342.268,882.41 340.909,878.525 339.587,874.635 338.301,870.739 337.052,866.838 335.839,862.932 334.662,859.021 333.522,855.106 332.419,851.186 331.353,847.262 330.323,843.333 329.33,839.4 328.374,835.464 327.455,831.524 326.572,827.58 325.727,823.632 324.918,819.681 324.146,815.728 323.412,811.771 322.714,807.811 322.054,803.848 321.43,799.883 320.844,795.915 320.294,791.945 319.782,787.973 319.307,783.999 318.87,780.023 318.469,776.046 318.106,772.067 317.78,768.086 317.491,764.104 317.239,760.121 317.025,756.138 316.848,752.153 316.708,748.168 316.605,744.182 316.54,740.196 316.512,736.21 316.521,732.224 316.568,728.238 316.652,724.252 316.773,720.266 316.932,716.281 317.127,712.297 317.36,708.314 317.631,704.332 317.938,700.35 318.283,696.37 318.665,692.392 319.084,688.415 319.54,684.44 320.034,680.467 320.564,676.496 321.132,672.527 321.737,668.561 322.379,664.597 323.058,660.636 323.774,656.677 324.528,652.722 325.318,648.77 326.145,644.82 327.009,640.875 327.91,636.932 328.847,632.994 329.822,629.059 330.833,625.129 331.881,621.203 332.966,617.281 334.088,613.363 335.246,609.45 336.441,605.541 337.672,601.638 338.94,597.74 340.244,593.846 341.584,589.959 342.961,586.076 344.374,582.199 345.824,578.328 347.309,574.463 348.831,570.604 350.389,566.752 351.983,562.905 353.613,559.065 355.278,555.232 356.98,551.405 358.717,547.586 360.49,543.773 362.298,539.968 364.143,536.17 366.022,532.38 367.937,528.597 369.887,524.822 371.873,521.055 373.894,517.296 375.95,513.545 378.041,509.803 380.167,506.069 382.328,502.343 384.524,498.627 386.754,494.92 389.019,491.221 391.319,487.532 393.653,483.852 396.021,480.182 398.424,476.521 400.861,472.87 403.332,469.228 405.837,465.598 408.376,461.976 410.949,458.366 413.555,454.766 416.195,451.176 418.869,447.597 421.576,444.029 424.317,440.472 427.09,436.926 429.897,433.392 432.737,429.868 435.609,426.356 438.515,422.856 441.453,419.368 444.424,415.891 447.427,412.427 450.463,408.975 453.53,405.535 456.63,402.108 459.762,398.693 462.926,395.29 466.121,391.901 469.349,388.525 472.607,385.161 475.897,381.811 479.219,378.474 482.571,375.151 485.955,371.841 489.369,368.545 492.815,365.263 496.29,361.995 499.797,358.74 503.334,355.5 506.901,352.275 510.498,349.063 514.125,345.867 517.782,342.685 521.468,339.518 525.185,336.365 528.93,333.228 532.705,330.106 536.509,326.999 540.342,323.908 544.203,320.832 548.094,317.772 552.013,314.727 555.961,311.699 559.937,308.686 563.94,305.69 567.972,302.709 572.032,299.745 576.119,296.798 580.233,293.867 584.376,290.952 588.545,288.055 592.741,285.174 596.964,282.31 601.214,279.463 605.491,276.634 609.793,273.822 614.122,271.027 618.477,268.25 622.858,265.49 627.265,262.748 631.697,260.024 636.155,257.318 640.638,254.629 645.146,251.959 649.679,249.307 654.236,246.674 658.818,244.059 663.425,241.462 668.055,238.884 672.71,236.325 677.389,233.785 682.091,231.263 686.817,228.761 691.566,226.278 696.338,223.814 701.133,221.369 705.951,218.943 710.792,216.537 715.655,214.151 720.54,211.784 725.447,209.437 730.376,207.11 735.327,204.802 740.299,202.515 745.293,200.248 750.307,198.001 755.343,195.774 760.399,193.568 765.476,191.382 770.574,189.216 775.691,187.072 780.828,184.947 785.985,182.844 791.162,180.762 796.358,178.7 801.573,176.659 806.807,174.64 812.061,172.641 817.332,170.664 822.622,168.708 827.931,166.773 833.257,164.86 838.601,162.969 843.962,161.099 849.342,159.25 854.738,157.424 860.151,155.619 865.581,153.836 871.027,152.075 876.49,150.336 881.969,148.619 887.464,146.924 892.975,145.252 898.502,143.601 904.043,141.973 909.6,140.367 915.171,138.784 920.758,137.223 926.359,135.685 931.974,134.17 937.603,132.677 943.246,131.207 948.903,129.759 954.573,128.335 960.257,126.933 965.953,125.554 971.663,124.199 977.384,122.866 983.118,121.556 988.864,120.27 994.623,119.007 1000.39,117.767 1006.17,116.55 1011.97,115.357 1017.77,114.187 1023.59,113.04 1029.41,111.917 1035.25,110.818 1041.09,109.742 1046.95,108.689 1052.81,107.661 1058.69,106.655 1064.57,105.674 1070.47,104.716 1076.37,103.783 1082.28,102.873 1088.2,101.986 1094.12,101.124 1100.06,100.286 1106,99.4713 1111.95,98.6808 1117.91,97.9144 1123.88,97.172 1129.85,96.4537 1135.83,95.7595 1141.81,95.0894 1147.8,94.4435 1153.8,93.8217 1159.8,93.2241 1165.81,92.6507 1171.82,92.1016 1177.84,91.5767 1183.86,91.0762 1189.89,90.5999 1195.92,90.148 1201.96,89.7203 1208,89.317 1214.04,88.9381 1220.09,88.5836 1226.14,88.2534 1232.19,87.9477 1238.25,87.6663 1244.31,87.4094 1250.37,87.177 1256.43,86.969 1262.5,86.7854 1268.56,86.6263 1274.63,86.4917 1280.7,86.3815 1286.77,86.2958 1292.84,86.2346 1298.91,86.1979 1304.98,86.1857 "/>
<polyline clip-path="url(#clip252)" style="stroke:#e26f46; stroke-linecap:round; stroke-linejoin:round; stroke-width:16; stroke-opacity:1; fill:none" points="1304.98,86.1857 1311.06,86.2934 1317.15,86.4011 1323.23,86.5087 1329.32,86.6164 1335.4,86.7241 1341.49,86.8318 1347.57,86.9395 1353.66,87.0471 1359.74,87.1548 1365.83,87.2625 1371.91,87.3702 1378,87.4778 1384.08,87.5811 1390.18,87.6396 1396.28,87.6617 1402.38,87.6681 1408.49,87.677 1414.59,87.7045 1420.68,87.7644 1426.76,87.8682 1432.84,88.0248 1438.9,88.2414 1444.96,88.5223 1450.99,88.8698 1457.02,89.2838 1463.03,89.7622 1469.04,90.3001 1475.03,90.8907 1481.01,91.5248 1486.99,92.1906 1492.97,92.8747 1498.94,93.5605 1504.92,94.2299 1510.9,94.878 1516.88,95.5254 1522.86,96.1729 1528.84,96.8203 1534.83,97.4677 1540.81,98.1152 1546.79,98.7627 1552.77,99.4101 1558.75,100.058 1564.73,100.705 1570.72,101.352 1576.7,102 1582.68,102.648 1588.64,103.352 1594.56,104.147 1600.45,105.029 1606.31,105.995 1612.13,107.041 1617.92,108.162 1623.68,109.357 1629.4,110.62 1635.1,111.95 1640.76,113.341 1646.4,114.792 1652,116.3 1657.58,117.86 1663.13,119.471 1668.66,121.128 1674.15,122.831 1679.63,124.575 1685.08,126.359 1690.5,128.179 1695.9,130.034 1701.29,131.92 1706.64,133.837 1711.98,135.78 1717.3,137.75 1722.61,139.742 1727.89,141.756 1733.15,143.789 1738.41,145.841 1743.64,147.908 1748.86,149.991 1754.07,152.086 1759.26,154.192 1764.44,156.309 1769.62,158.436 1774.78,160.569 1779.93,162.71 1785.08,164.857 1790.22,167.008 1795.35,169.164 1800.47,171.322 1805.6,173.484 1810.72,175.647 1815.83,177.812 1820.95,179.978 1826.07,182.145 1831.18,184.312 1836.3,186.48 1841.42,188.648 1846.55,190.813 1851.71,192.953 1856.9,195.073 1862.09,197.182 1867.3,199.287 1872.5,201.395 1877.69,203.512 1882.86,205.643 1888.01,207.793 1893.13,209.966 1898.21,212.166 1903.26,214.395 1908.28,216.654 1913.25,218.946 1918.19,221.27 1923.08,223.627 1927.94,226.016 1932.76,228.434 1937.55,230.881 1942.3,233.352 1947.03,235.844 1951.74,238.353 1956.44,240.874 1961.12,243.401 1965.81,245.926 1970.51,248.445 1975.23,250.95 1979.95,253.452 1984.68,255.96 1989.39,258.48 1994.08,261.017 1998.74,263.576 2003.36,266.161 2007.93,268.777 2012.45,271.426 2016.91,274.111 2021.31,276.833 2025.64,279.595 2029.9,282.396 2034.1,285.238 2038.24,288.12 2042.3,291.041 2046.3,293.999 2050.25,296.992 2054.13,300.018 2057.97,303.074 2061.76,306.156 2065.51,309.259 2069.23,312.378 2072.94,315.508 2076.64,318.643 2080.34,321.776 2084.06,324.9 2087.82,328.004 2091.64,331.077 2095.52,334.128 2099.42,337.166 2103.34,340.2 2107.25,343.236 2111.14,346.282 2114.99,349.344 2118.79,352.428 2122.53,355.537 2126.21,358.676 2129.81,361.847 2133.33,365.054 2136.77,368.297 2140.12,371.579 2143.39,374.898 2146.57,378.254 2149.67,381.645 2152.69,385.07 2155.64,388.526 2158.54,392.009 2161.38,395.514 2164.18,399.036 2166.96,402.57 2169.72,406.109 2172.49,409.644 2175.29,413.169 2178.09,416.688 2180.79,420.242 2183.4,423.829 2185.91,427.446 2188.35,431.09 2190.73,434.755 2193.05,438.438 2195.32,442.137 2197.56,445.848 2199.78,449.568 2201.97,453.296 2204.15,457.028 2206.32,460.763 2208.48,464.499 2210.65,468.234 2212.82,471.969 2215,475.7 2217.19,479.429 2219.39,483.154 2221.6,486.875 2223.82,490.593 2226.05,494.307 2228.29,498.019 2230.53,501.73 2232.77,505.44 2235.01,509.151 2237.24,512.865 2239.4,516.595 2241.4,520.355 2243.26,524.141 2245,527.952 2246.63,531.784 2248.17,535.635 2249.62,539.502 2251,543.384 2252.31,547.278 2253.58,551.182 2254.8,555.095 2255.99,559.014 2257.16,562.939 2258.31,566.867 2259.44,570.798 2260.58,574.731 2261.71,578.663 2262.84,582.595 2263.98,586.526 2265.13,590.456 2266.3,594.383 2267.48,598.307 2268.67,602.229 2269.87,606.148 2271.09,610.064 2272.33,613.978 2273.57,617.89 2274.82,621.8 2276.07,625.71 2277.32,629.619 2278.56,633.53 2279.79,637.442 2281,641.358 2282.13,645.279 2283.17,649.207 2284.12,653.139 2285,657.077 2285.8,661.019 2286.53,664.966 2287.18,668.916 2287.77,672.87 2288.29,676.826 2288.76,680.786 2289.17,684.748 2289.52,688.712 2289.82,692.678 2290.07,696.645 2290.28,700.614 2290.45,704.584 2290.58,708.555 2290.67,712.527 2290.73,716.5 2290.77,720.473 2290.78,724.447 2290.77,728.42 2290.74,732.394 2290.7,736.368 2290.64,740.342 2290.58,744.316 2290.51,748.29 2290.44,752.264 2290.37,756.239 2290.31,760.213 2290.25,764.186 2290.11,768.159 2289.87,772.13 2289.53,776.098 2289.11,780.062 2288.59,784.023 2287.99,787.979 2287.31,791.93 2286.54,795.876 2285.7,799.815 2284.79,803.749 2283.8,807.676 2282.75,811.596 2281.62,815.508 2280.44,819.414 2279.2,823.311 2277.89,827.202 2276.54,831.084 2275.13,834.959 2273.67,838.826 2272.17,842.685 2270.62,846.536 2269.04,850.38 2267.41,854.217 2265.75,858.046 2264.05,861.869 2262.33,865.684 2260.57,869.494 2258.8,873.297 2257,877.095 2255.18,880.889 2253.34,884.677 2251.49,888.462 2249.62,892.242 2247.75,896.021 2245.87,899.797 2243.98,903.572 2242.09,907.345 2240.2,911.119 2238.32,914.894 2236.44,918.671 2234.56,922.45 2232.72,926.241 2230.93,930.045 2229.17,933.859 2227.42,937.678 2225.67,941.497 2223.91,945.312 2222.12,949.12 2220.29,952.917 2218.41,956.7 2216.47,960.467 2214.47,964.216 2212.4,967.944 2210.26,971.65 2208.03,975.334 2205.73,978.994 2203.34,982.63 2200.86,986.242 2198.31,989.83 2195.68,993.395 2192.97,996.939 2190.19,1000.46 2187.35,1003.97 2184.45,1007.46 2181.51,1010.93 2178.53,1014.39 2175.52,1017.85 2172.5,1021.3 2169.48,1024.76 2166.48,1028.22 2163.51,1031.68 2160.52,1035.14 2157.47,1038.58 2154.35,1041.99 2151.17,1045.39 2147.95,1048.76 2144.67,1052.12 2141.35,1055.46 2137.99,1058.79 2134.59,1062.1 2131.16,1065.39 2127.69,1068.67 2124.2,1071.94 2120.69,1075.2 2117.15,1078.45 2113.59,1081.69 2110.02,1084.92 2106.43,1088.15 2102.83,1091.37 2099.22,1094.58 2095.6,1097.78 2091.97,1100.99 2088.34,1104.19 2084.71,1107.38 2081.07,1110.58 2077.43,1113.77 2073.79,1116.96 2070.14,1120.15 2066.5,1123.34 2062.86,1126.54 2059.18,1129.71 2055.45,1132.86 2051.67,1135.99 2047.83,1139.09 2043.95,1142.16 2040.02,1145.2 2036.04,1148.21 2032.01,1151.19 2027.93,1154.14 2023.81,1157.06 2019.64,1159.96 2015.43,1162.82 2011.17,1165.65 2006.88,1168.45 2002.54,1171.23 1998.17,1173.98 1993.76,1176.7 1989.32,1179.4 1984.85,1182.08 1980.35,1184.73 1975.83,1187.37 1971.28,1189.98 1966.72,1192.58 1962.13,1195.17 1957.54,1197.75 1952.93,1200.32 1948.31,1202.88 1943.7,1205.44 1939.08,1208 1934.47,1210.56 1929.86,1213.14 1925.27,1215.71 1920.66,1218.29 1916.05,1220.86 1911.43,1223.42 1906.79,1225.96 1902.12,1228.49 1897.44,1230.99 1892.72,1233.46 1887.97,1235.91 1883.19,1238.33 1878.37,1240.72 1873.52,1243.07 1868.63,1245.38 1863.7,1247.67 1858.73,1249.91 1853.72,1252.12 1848.68,1254.3 1843.6,1256.44 1838.48,1258.55 1833.34,1260.63 1828.16,1262.68 1822.95,1264.7 1817.72,1266.7 1812.47,1268.68 1807.2,1270.64 1801.92,1272.6 1796.63,1274.54 1791.34,1276.49 1786.06,1278.43 1780.78,1280.39 1775.51,1282.35 1770.19,1284.25 1764.81,1286.09 1759.4,1287.88 1753.94,1289.62 1748.46,1291.31 1742.94,1292.97 1737.39,1294.6 1731.83,1296.21 1726.24,1297.79 1720.65,1299.36 1715.04,1300.92 1709.43,1302.46 1703.81,1304 1698.19,1305.54 1692.56,1307.08 1686.94,1308.62 1681.32,1310.16 1675.71,1311.7 1670.1,1313.25 1664.49,1314.81 1658.9,1316.38 1653.3,1317.95 1647.71,1319.53 1642.13,1321.11 1636.55,1322.7 1630.97,1324.28 1625.39,1325.88 1619.81,1327.46 1614.23,1329.05 1608.64,1330.63 1603.04,1332.17 1597.42,1333.68 1591.78,1335.16 1586.12,1336.59 1580.44,1337.97 1574.74,1339.31 1569.02,1340.61 1563.28,1341.85 1557.52,1343.05 1551.73,1344.2 1545.93,1345.3 1540.11,1346.36 1534.28,1347.36 1528.42,1348.32 1522.54,1349.24 1516.65,1350.11 1510.74,1350.94 1504.82,1351.74 1498.89,1352.5 1492.94,1353.23 1486.99,1353.94 1481.02,1354.62 1475.05,1355.28 1469.08,1355.93 1463.1,1356.58 1457.12,1357.22 1451.14,1357.86 1445.16,1358.52 1439.19,1359.18 1433.22,1359.81 1427.23,1360.42 1421.24,1360.99 1415.25,1361.53 1409.25,1362.04 1403.24,1362.5 1397.23,1362.93 1391.21,1363.32 1385.19,1363.67 1379.16,1363.98 1373.12,1364.24 1367.08,1364.47 1361.04,1364.65 1354.99,1364.8 1348.93,1364.91 1342.87,1364.98 1336.8,1365.02 1330.73,1365.03 1324.66,1365 1318.59,1364.95 1312.51,1364.88 1306.43,1364.79 1300.34,1364.68 1294.26,1364.56 1288.18,1364.43 1282.09,1364.3 1276.01,1364.17 1269.92,1364.05 1263.84,1363.94 1257.75,1363.87 1251.65,1363.83 1245.55,1363.81 1239.45,1363.8 1233.35,1363.8 1227.25,1363.79 1221.15,1363.77 1215.05,1363.73 1208.96,1363.68 1202.87,1363.6 1196.79,1363.49 1190.71,1363.34 1184.65,1363.16 1178.58,1362.93 1172.53,1362.67 1166.49,1362.36 1160.45,1362.02 1154.42,1361.62 1148.4,1361.19 1142.39,1360.72 1136.38,1360.2 1130.39,1359.65 1124.39,1359.07 1118.41,1358.45 1112.43,1357.81 1106.45,1357.15 1100.48,1356.48 1094.5,1355.79 1088.53,1355.1 1082.56,1354.42 1076.58,1353.75 1070.61,1353.09 1064.67,1352.34 1058.77,1351.48 1052.91,1350.53 1047.09,1349.5 1041.3,1348.39 1035.53,1347.2 1029.8,1345.96 1024.09,1344.65 1018.4,1343.3 1012.74,1341.9 1007.09,1340.46 1001.46,1338.99 995.852,1337.48 990.253,1335.95 984.666,1334.4 979.09,1332.83 973.525,1331.25 967.968,1329.65 962.419,1328.04 956.877,1326.42 951.34,1324.8 945.81,1323.17 940.284,1321.53 934.763,1319.89 929.247,1318.24 923.734,1316.59 918.226,1314.93 912.722,1313.26 907.222,1311.58 901.727,1309.89 896.248,1308.17 890.811,1306.39 885.415,1304.57 880.057,1302.7 874.732,1300.78 869.437,1298.83 864.169,1296.84 858.926,1294.82 853.704,1292.77 848.501,1290.7 843.313,1288.61 838.14,1286.51 832.979,1284.38 827.827,1282.25 822.684,1280.1 817.547,1277.95 812.415,1275.79 807.287,1273.63 802.162,1271.46 797.038,1269.3 791.915,1267.13 786.793,1264.96 781.67,1262.79 776.547,1260.62 771.422,1258.45 766.283,1256.3 761.126,1254.16 755.956,1252.04 750.775,1249.93 745.588,1247.82 740.397,1245.71 735.206,1243.61 730.017,1241.51 724.834,1239.4 719.659,1237.28 714.495,1235.15 709.345,1233.01 704.211,1230.85 699.097,1228.68 694.004,1226.49 688.934,1224.27 683.891,1222.04 678.877,1219.78 673.892,1217.49 668.941,1215.18 664.024,1212.84 659.143,1210.47 654.301,1208.06 649.499,1205.63 644.739,1203.16 640.022,1200.66 635.35,1198.13 630.724,1195.56 626.146,1192.96 621.616,1190.32 617.137,1187.65 612.709,1184.94 608.333,1182.2 604.01,1179.42 599.742,1176.61 595.528,1173.77 591.369,1170.89 587.268,1167.98 583.223,1165.04 579.234,1162.06 575.303,1159.06 571.377,1156.05 567.422,1153.05 563.449,1150.06 559.468,1147.07 555.488,1144.07 551.516,1141.07 547.562,1138.06 543.631,1135.04 539.731,1132 535.868,1128.95 532.047,1125.88 528.272,1122.78 524.548,1119.66 520.879,1116.52 517.267,1113.35 513.715,1110.16 510.224,1106.94 506.795,1103.69 503.43,1100.41 500.128,1097.11 496.888,1093.77 493.709,1090.42 490.589,1087.03 487.525,1083.63 484.515,1080.19 481.554,1076.74 478.639,1073.27 475.765,1069.78 472.925,1066.27 470.113,1062.76 467.324,1059.23 464.549,1055.7 461.781,1052.16 459.011,1048.63 456.229,1045.1 453.427,1041.58 450.631,1038.06 447.986,1034.5 445.484,1030.9 443.099,1027.26 440.806,1023.6 438.583,1019.91 436.409,1016.21 434.267,1012.5 432.14,1008.77 430.013,1005.04 427.874,1001.31 425.711,997.581 423.517,993.855 421.284,990.134 419.007,986.421 416.685,982.715 414.315,979.019 411.898,975.332 409.438,971.653 406.939,967.983 404.408,964.32 401.854,960.663 399.288,957.009 396.721,953.357 394.168,949.703 391.647,946.045 389.174,942.378 386.771,938.698 384.46,935.001 382.265,931.282 380.212,927.535 378.329,923.755 376.646,919.935 375.196,916.068 373.961,912.157 372.75,908.241 371.539,904.326 370.327,900.41 369.115,896.495 367.904,892.579 366.692,888.664 365.48,884.748 364.269,880.833 363.058,876.917 361.848,873.001 360.638,869.086 359.428,865.17 358.22,861.254 357.011,857.338 355.804,853.422 354.597,849.507 353.39,845.591 352.184,841.675 350.979,837.758 349.774,833.842 348.57,829.926 347.366,826.01 346.163,822.093 344.96,818.177 343.757,814.261 342.554,810.344 341.351,806.428 340.148,802.512 338.946,798.596 337.805,794.678 336.751,790.759 335.78,786.837 334.889,782.913 334.075,778.986 333.334,775.057 332.663,771.126 332.06,767.192 331.521,763.255 331.044,759.316 330.625,755.374 330.263,751.429 329.955,747.481 329.697,743.531 329.489,739.578 329.328,735.622 329.212,731.664 329.138,727.703 329.106,723.739 329.113,719.773 329.157,715.805 329.238,711.834 329.354,707.862 329.502,703.887 329.683,699.91 329.896,695.932 330.138,691.952 330.409,687.97 330.709,683.988 331.036,680.004 331.391,676.019 331.772,672.033 332.18,668.048 332.614,664.062 333.073,660.076 333.559,656.09 334.07,652.105 334.608,648.121 335.172,644.138 335.763,640.156 336.381,636.176 337.027,632.198 337.701,628.223 338.405,624.25 339.139,620.281 339.905,616.315 340.703,612.353 341.535,608.395 342.402,604.442 343.305,600.495 344.246,596.552 345.227,592.616 346.25,588.686 347.316,584.764 348.427,580.848 349.586,576.941 350.794,573.041 352.054,569.151 353.369,565.27 354.74,561.399 356.172,557.539 357.665,553.688 359.223,549.851 360.85,546.025 362.547,542.213 364.318,538.414 366.166,534.628 368.066,530.851 370.01,527.082 372,523.322 374.04,519.573 376.132,515.837 378.278,512.115 380.48,508.407 382.74,504.716 385.06,501.042 387.44,497.386 389.882,493.748 392.386,490.13 394.953,486.532 397.582,482.954 400.274,479.397 403.028,475.86 405.843,472.344 408.718,468.848 411.652,465.372 414.643,461.917 417.689,458.481 420.789,455.063 423.939,451.664 427.138,448.282 430.382,444.917 433.668,441.567 436.992,438.231 440.351,434.907 443.74,431.595 447.155,428.293 450.592,424.998 454.046,421.71 457.511,418.427 460.982,415.145 464.453,411.864 467.918,408.581 471.372,405.292 474.807,401.997 478.231,398.696 481.653,395.392 485.079,392.087 488.509,388.784 491.948,385.483 495.397,382.187 498.86,378.897 502.339,375.615 505.836,372.342 509.352,369.079 512.89,365.827 516.451,362.588 520.037,359.362 523.649,356.151 527.288,352.954 530.956,349.773 534.653,346.608 538.379,343.46 542.135,340.329 545.921,337.215 549.738,334.118 553.586,331.039 557.463,327.977 561.371,324.932 565.308,321.904 569.273,318.892 573.266,315.897 577.285,312.916 581.33,309.951 585.399,306.999 589.491,304.06 593.602,301.134 597.733,298.218 601.88,295.312 606.042,292.414 610.216,289.523 614.399,286.638 618.588,283.757 622.782,280.878 626.976,277.999 631.167,275.119 635.353,272.236 639.529,269.346 643.695,266.452 647.89,263.581 652.12,260.739 656.385,257.924 660.683,255.135 665.015,252.372 669.378,249.631 673.771,246.914 678.195,244.218 682.648,241.544 687.13,238.89 691.64,236.255 696.177,233.64 700.742,231.044 705.333,228.466 709.951,225.907 714.594,223.366 719.264,220.844 723.96,218.34 728.681,215.855 733.428,213.39 738.201,210.943 743,208.518 747.825,206.113 752.678,203.729 757.556,201.369 762.463,199.032 767.397,196.719 772.36,194.432 777.351,192.173 782.373,189.942 787.426,187.741 792.51,185.571 797.625,183.435 802.775,181.334 807.959,179.27 813.179,177.246 818.435,175.262 823.729,173.322 829.063,171.428 834.437,169.583 839.854,167.787 845.314,166.046 850.819,164.361 856.372,162.735 861.957,161.147 867.531,159.536 873.096,157.904 878.652,156.255 884.202,154.595 889.749,152.928 895.295,151.258 900.842,149.591 906.391,147.929 911.944,146.276 917.504,144.637 923.071,143.014 928.647,141.411 934.233,139.83 939.831,138.275 945.442,136.747 951.066,135.248 956.705,133.782 962.359,132.349 968.03,130.952 973.716,129.591 979.42,128.267 985.142,126.982 990.881,125.736 996.638,124.53 1002.41,123.364 1008.2,122.238 1014.01,121.151 1019.84,120.104 1025.68,119.095 1031.54,118.124 1037.42,117.189 1043.31,116.29 1049.21,115.425 1055.13,114.592 1061.06,113.788 1067,113.013 1072.95,112.263 1078.91,111.535 1084.87,110.828 1090.84,110.137 1096.81,109.46 1102.78,108.783 1108.74,108.071 1114.7,107.324 1120.66,106.552 1126.61,105.759 1132.57,104.953 1138.52,104.139 1144.47,103.323 1150.42,102.511 1156.37,101.706 1162.32,100.915 1168.28,100.141 1174.24,99.3881 1180.2,98.6603 1186.17,97.9609 1192.14,97.293 1198.12,96.6593 1204.1,96.0621 1210.09,95.5037 1216.09,94.9856 1222.09,94.5094 1228.09,94.0762 1234.1,93.6867 1240.12,93.3415 1246.15,93.0407 1252.18,92.7841 1258.22,92.5712 1264.26,92.4012 1270.31,92.2729 1276.37,92.1849 1282.43,92.1354 1288.5,92.1222 1294.57,92.143 1300.65,92.1949 1306.73,92.275 1312.81,92.3797 1318.9,92.5053 1324.99,92.6478 1331.08,92.8028 1337.17,92.9657 1343.27,93.1313 1349.36,93.2944 1355.45,93.4493 1361.54,93.5899 1367.63,93.7101 "/>
<path clip-path="url(#clip250)" d="M1859.76 1377.32 L2282.9 1377.32 L2282.9 1221.8 L1859.76 1221.8  Z" fill="#ffffff" fill-rule="evenodd" fill-opacity="1"/>
<polyline clip-path="url(#clip250)" style="stroke:#000000; stroke-linecap:round; stroke-linejoin:round; stroke-width:4; stroke-opacity:1; fill:none" points="1859.76,1377.32 2282.9,1377.32 2282.9,1221.8 1859.76,1221.8 1859.76,1377.32 "/>
<polyline clip-path="url(#clip250)" style="stroke:#009af9; stroke-linecap:round; stroke-linejoin:round; stroke-width:16; stroke-opacity:1; fill:none" points="1883.05,1273.64 2022.75,1273.64 "/>
<path clip-path="url(#clip250)" d="M2062.05 1259.53 Q2056.96 1259.53 2053.95 1263.32 Q2050.96 1267.12 2050.96 1273.67 Q2050.96 1280.2 2053.95 1283.99 Q2056.96 1287.79 2062.05 1287.79 Q2067.14 1287.79 2070.11 1283.99 Q2073.09 1280.2 2073.09 1273.67 Q2073.09 1267.12 2070.11 1263.32 Q2067.14 1259.53 2062.05 1259.53 M2062.05 1255.73 Q2069.32 1255.73 2073.67 1260.61 Q2078.02 1265.48 2078.02 1273.67 Q2078.02 1281.84 2073.67 1286.73 Q2069.32 1291.59 2062.05 1291.59 Q2054.76 1291.59 2050.39 1286.73 Q2046.03 1281.86 2046.03 1273.67 Q2046.03 1265.48 2050.39 1260.61 Q2054.76 1255.73 2062.05 1255.73 Z" fill="#000000" fill-rule="nonzero" fill-opacity="1" /><path clip-path="url(#clip250)" d="M2100.18 1268.97 Q2099.46 1268.55 2098.6 1268.37 Q2097.77 1268.16 2096.75 1268.16 Q2093.14 1268.16 2091.2 1270.52 Q2089.27 1272.86 2089.27 1277.26 L2089.27 1290.92 L2084.99 1290.92 L2084.99 1264.99 L2089.27 1264.99 L2089.27 1269.02 Q2090.62 1266.66 2092.77 1265.52 Q2094.92 1264.36 2098 1264.36 Q2098.44 1264.36 2098.97 1264.43 Q2099.51 1264.48 2100.15 1264.6 L2100.18 1268.97 Z" fill="#000000" fill-rule="nonzero" fill-opacity="1" /><path clip-path="url(#clip250)" d="M2104.64 1264.99 L2108.9 1264.99 L2108.9 1290.92 L2104.64 1290.92 L2104.64 1264.99 M2104.64 1254.9 L2108.9 1254.9 L2108.9 1260.29 L2104.64 1260.29 L2104.64 1254.9 Z" fill="#000000" fill-rule="nonzero" fill-opacity="1" /><path clip-path="url(#clip250)" d="M2134.88 1277.65 Q2134.88 1273.02 2132.95 1270.48 Q2131.06 1267.93 2127.61 1267.93 Q2124.18 1267.93 2122.26 1270.48 Q2120.36 1273.02 2120.36 1277.65 Q2120.36 1282.26 2122.26 1284.8 Q2124.18 1287.35 2127.61 1287.35 Q2131.06 1287.35 2132.95 1284.8 Q2134.88 1282.26 2134.88 1277.65 M2139.13 1287.7 Q2139.13 1294.32 2136.2 1297.54 Q2133.26 1300.78 2127.19 1300.78 Q2124.95 1300.78 2122.95 1300.43 Q2120.96 1300.11 2119.09 1299.41 L2119.09 1295.27 Q2120.96 1296.29 2122.79 1296.77 Q2124.62 1297.26 2126.52 1297.26 Q2130.71 1297.26 2132.79 1295.06 Q2134.88 1292.88 2134.88 1288.46 L2134.88 1286.36 Q2133.56 1288.65 2131.5 1289.78 Q2129.44 1290.92 2126.57 1290.92 Q2121.8 1290.92 2118.88 1287.28 Q2115.96 1283.65 2115.96 1277.65 Q2115.96 1271.63 2118.88 1268 Q2121.8 1264.36 2126.57 1264.36 Q2129.44 1264.36 2131.5 1265.5 Q2133.56 1266.63 2134.88 1268.92 L2134.88 1264.99 L2139.13 1264.99 L2139.13 1287.7 Z" fill="#000000" fill-rule="nonzero" fill-opacity="1" /><path clip-path="url(#clip250)" d="M2147.91 1264.99 L2152.17 1264.99 L2152.17 1290.92 L2147.91 1290.92 L2147.91 1264.99 M2147.91 1254.9 L2152.17 1254.9 L2152.17 1260.29 L2147.91 1260.29 L2147.91 1254.9 Z" fill="#000000" fill-rule="nonzero" fill-opacity="1" /><path clip-path="url(#clip250)" d="M2182.63 1275.27 L2182.63 1290.92 L2178.37 1290.92 L2178.37 1275.41 Q2178.37 1271.73 2176.94 1269.9 Q2175.5 1268.07 2172.63 1268.07 Q2169.18 1268.07 2167.19 1270.27 Q2165.2 1272.47 2165.2 1276.26 L2165.2 1290.92 L2160.92 1290.92 L2160.92 1264.99 L2165.2 1264.99 L2165.2 1269.02 Q2166.73 1266.68 2168.79 1265.52 Q2170.87 1264.36 2173.58 1264.36 Q2178.05 1264.36 2180.34 1267.14 Q2182.63 1269.9 2182.63 1275.27 Z" fill="#000000" fill-rule="nonzero" fill-opacity="1" /><path clip-path="url(#clip250)" d="M2202.91 1277.88 Q2197.75 1277.88 2195.75 1279.06 Q2193.76 1280.24 2193.76 1283.09 Q2193.76 1285.36 2195.25 1286.7 Q2196.75 1288.02 2199.32 1288.02 Q2202.86 1288.02 2204.99 1285.52 Q2207.14 1283 2207.14 1278.83 L2207.14 1277.88 L2202.91 1277.88 M2211.4 1276.12 L2211.4 1290.92 L2207.14 1290.92 L2207.14 1286.98 Q2205.69 1289.34 2203.51 1290.48 Q2201.33 1291.59 2198.19 1291.59 Q2194.2 1291.59 2191.84 1289.36 Q2189.5 1287.12 2189.5 1283.37 Q2189.5 1278.99 2192.42 1276.77 Q2195.36 1274.55 2201.17 1274.55 L2207.14 1274.55 L2207.14 1274.13 Q2207.14 1271.19 2205.2 1269.6 Q2203.28 1267.98 2199.78 1267.98 Q2197.56 1267.98 2195.45 1268.51 Q2193.35 1269.04 2191.4 1270.11 L2191.4 1266.17 Q2193.74 1265.27 2195.94 1264.83 Q2198.14 1264.36 2200.22 1264.36 Q2205.85 1264.36 2208.63 1267.28 Q2211.4 1270.2 2211.4 1276.12 Z" fill="#000000" fill-rule="nonzero" fill-opacity="1" /><path clip-path="url(#clip250)" d="M2220.18 1254.9 L2224.44 1254.9 L2224.44 1290.92 L2220.18 1290.92 L2220.18 1254.9 Z" fill="#000000" fill-rule="nonzero" fill-opacity="1" /><polyline clip-path="url(#clip250)" style="stroke:#e26f46; stroke-linecap:round; stroke-linejoin:round; stroke-width:16; stroke-opacity:1; fill:none" points="1883.05,1325.48 2022.75,1325.48 "/>
<path clip-path="url(#clip250)" d="M2050.71 1312.04 L2050.71 1325.02 L2056.59 1325.02 Q2059.85 1325.02 2061.64 1323.33 Q2063.42 1321.64 2063.42 1318.52 Q2063.42 1315.42 2061.64 1313.73 Q2059.85 1312.04 2056.59 1312.04 L2050.71 1312.04 M2046.03 1308.2 L2056.59 1308.2 Q2062.4 1308.2 2065.36 1310.83 Q2068.35 1313.45 2068.35 1318.52 Q2068.35 1323.64 2065.36 1326.25 Q2062.4 1328.87 2056.59 1328.87 L2050.71 1328.87 L2050.71 1342.76 L2046.03 1342.76 L2046.03 1308.2 Z" fill="#000000" fill-rule="nonzero" fill-opacity="1" /><path clip-path="url(#clip250)" d="M2088.63 1320.81 Q2087.91 1320.39 2087.05 1320.21 Q2086.22 1320 2085.2 1320 Q2081.59 1320 2079.64 1322.36 Q2077.72 1324.7 2077.72 1329.1 L2077.72 1342.76 L2073.44 1342.76 L2073.44 1316.83 L2077.72 1316.83 L2077.72 1320.86 Q2079.07 1318.5 2081.22 1317.36 Q2083.37 1316.2 2086.45 1316.2 Q2086.89 1316.2 2087.42 1316.27 Q2087.95 1316.32 2088.6 1316.44 L2088.63 1320.81 Z" fill="#000000" fill-rule="nonzero" fill-opacity="1" /><path clip-path="url(#clip250)" d="M2114.23 1328.73 L2114.23 1330.81 L2094.64 1330.81 Q2094.92 1335.21 2097.28 1337.52 Q2099.67 1339.82 2103.9 1339.82 Q2106.36 1339.82 2108.65 1339.21 Q2110.96 1338.61 2113.23 1337.41 L2113.23 1341.44 Q2110.94 1342.41 2108.53 1342.92 Q2106.13 1343.43 2103.65 1343.43 Q2097.45 1343.43 2093.81 1339.82 Q2090.2 1336.2 2090.2 1330.05 Q2090.2 1323.68 2093.63 1319.95 Q2097.07 1316.2 2102.91 1316.2 Q2108.14 1316.2 2111.17 1319.58 Q2114.23 1322.94 2114.23 1328.73 M2109.97 1327.48 Q2109.92 1323.98 2108 1321.9 Q2106.1 1319.82 2102.95 1319.82 Q2099.39 1319.82 2097.24 1321.83 Q2095.11 1323.84 2094.78 1327.5 L2109.97 1327.48 Z" fill="#000000" fill-rule="nonzero" fill-opacity="1" /><path clip-path="url(#clip250)" d="M2138.28 1320.76 L2138.28 1306.74 L2142.54 1306.74 L2142.54 1342.76 L2138.28 1342.76 L2138.28 1338.87 Q2136.94 1341.18 2134.88 1342.32 Q2132.84 1343.43 2129.97 1343.43 Q2125.27 1343.43 2122.31 1339.68 Q2119.37 1335.93 2119.37 1329.82 Q2119.37 1323.7 2122.31 1319.95 Q2125.27 1316.2 2129.97 1316.2 Q2132.84 1316.2 2134.88 1317.34 Q2136.94 1318.45 2138.28 1320.76 M2123.76 1329.82 Q2123.76 1334.51 2125.69 1337.2 Q2127.63 1339.86 2131.01 1339.86 Q2134.39 1339.86 2136.33 1337.2 Q2138.28 1334.51 2138.28 1329.82 Q2138.28 1325.12 2136.33 1322.45 Q2134.39 1319.77 2131.01 1319.77 Q2127.63 1319.77 2125.69 1322.45 Q2123.76 1325.12 2123.76 1329.82 Z" fill="#000000" fill-rule="nonzero" fill-opacity="1" /><path clip-path="url(#clip250)" d="M2151.31 1316.83 L2155.57 1316.83 L2155.57 1342.76 L2151.31 1342.76 L2151.31 1316.83 M2151.31 1306.74 L2155.57 1306.74 L2155.57 1312.13 L2151.31 1312.13 L2151.31 1306.74 Z" fill="#000000" fill-rule="nonzero" fill-opacity="1" /><path clip-path="url(#clip250)" d="M2183.14 1317.82 L2183.14 1321.81 Q2181.33 1320.81 2179.5 1320.32 Q2177.7 1319.82 2175.85 1319.82 Q2171.7 1319.82 2169.41 1322.45 Q2167.12 1325.07 2167.12 1329.82 Q2167.12 1334.56 2169.41 1337.2 Q2171.7 1339.82 2175.85 1339.82 Q2177.7 1339.82 2179.5 1339.33 Q2181.33 1338.82 2183.14 1337.82 L2183.14 1341.76 Q2181.36 1342.59 2179.44 1343.01 Q2177.54 1343.43 2175.38 1343.43 Q2169.53 1343.43 2166.08 1339.75 Q2162.63 1336.07 2162.63 1329.82 Q2162.63 1323.47 2166.1 1319.84 Q2169.6 1316.2 2175.66 1316.2 Q2177.63 1316.2 2179.5 1316.62 Q2181.38 1317.01 2183.14 1317.82 Z" fill="#000000" fill-rule="nonzero" fill-opacity="1" /><path clip-path="url(#clip250)" d="M2194.76 1309.47 L2194.76 1316.83 L2203.53 1316.83 L2203.53 1320.14 L2194.76 1320.14 L2194.76 1334.21 Q2194.76 1337.38 2195.62 1338.29 Q2196.5 1339.19 2199.16 1339.19 L2203.53 1339.19 L2203.53 1342.76 L2199.16 1342.76 Q2194.23 1342.76 2192.35 1340.93 Q2190.48 1339.07 2190.48 1334.21 L2190.48 1320.14 L2187.35 1320.14 L2187.35 1316.83 L2190.48 1316.83 L2190.48 1309.47 L2194.76 1309.47 Z" fill="#000000" fill-rule="nonzero" fill-opacity="1" /><path clip-path="url(#clip250)" d="M2231.31 1328.73 L2231.31 1330.81 L2211.73 1330.81 Q2212 1335.21 2214.37 1337.52 Q2216.75 1339.82 2220.99 1339.82 Q2223.44 1339.82 2225.73 1339.21 Q2228.05 1338.61 2230.31 1337.41 L2230.31 1341.44 Q2228.02 1342.41 2225.62 1342.92 Q2223.21 1343.43 2220.73 1343.43 Q2214.53 1343.43 2210.89 1339.82 Q2207.28 1336.2 2207.28 1330.05 Q2207.28 1323.68 2210.71 1319.95 Q2214.16 1316.2 2219.99 1316.2 Q2225.22 1316.2 2228.25 1319.58 Q2231.31 1322.94 2231.31 1328.73 M2227.05 1327.48 Q2227 1323.98 2225.08 1321.9 Q2223.19 1319.82 2220.04 1319.82 Q2216.47 1319.82 2214.32 1321.83 Q2212.19 1323.84 2211.87 1327.5 L2227.05 1327.48 Z" fill="#000000" fill-rule="nonzero" fill-opacity="1" /><path clip-path="url(#clip250)" d="M2255.36 1320.76 L2255.36 1306.74 L2259.62 1306.74 L2259.62 1342.76 L2255.36 1342.76 L2255.36 1338.87 Q2254.02 1341.18 2251.96 1342.32 Q2249.92 1343.43 2247.05 1343.43 Q2242.35 1343.43 2239.39 1339.68 Q2236.45 1335.93 2236.45 1329.82 Q2236.45 1323.7 2239.39 1319.95 Q2242.35 1316.2 2247.05 1316.2 Q2249.92 1316.2 2251.96 1317.34 Q2254.02 1318.45 2255.36 1320.76 M2240.85 1329.82 Q2240.85 1334.51 2242.77 1337.2 Q2244.71 1339.86 2248.09 1339.86 Q2251.47 1339.86 2253.42 1337.2 Q2255.36 1334.51 2255.36 1329.82 Q2255.36 1325.12 2253.42 1322.45 Q2251.47 1319.77 2248.09 1319.77 Q2244.71 1319.77 2242.77 1322.45 Q2240.85 1325.12 2240.85 1329.82 Z" fill="#000000" fill-rule="nonzero" fill-opacity="1" /></svg>
