<?xml version="1.0" encoding="utf-8"?>
<svg xmlns="http://www.w3.org/2000/svg" xmlns:xlink="http://www.w3.org/1999/xlink" width="600" height="400" viewBox="0 0 2400 1600">
<defs>
  <clipPath id="clip310">
    <rect x="0" y="0" width="2400" height="1600"/>
  </clipPath>
</defs>
<path clip-path="url(#clip310)" d="M0 1600 L2400 1600 L2400 0 L0 0  Z" fill="#ffffff" fill-rule="evenodd" fill-opacity="1"/>
<defs>
  <clipPath id="clip311">
    <rect x="480" y="0" width="1681" height="1600"/>
  </clipPath>
</defs>
<path clip-path="url(#clip310)" d="M257.204 1423.18 L2352.76 1423.18 L2352.76 47.2441 L257.204 47.2441  Z" fill="#ffffff" fill-rule="evenodd" fill-opacity="1"/>
<defs>
  <clipPath id="clip312">
    <rect x="257" y="47" width="2097" height="1377"/>
  </clipPath>
</defs>
<polyline clip-path="url(#clip312)" style="stroke:#000000; stroke-linecap:round; stroke-linejoin:round; stroke-width:2; stroke-opacity:0.1; fill:none" points="321.637,1423.18 321.637,47.2441 "/>
<polyline clip-path="url(#clip312)" style="stroke:#000000; stroke-linecap:round; stroke-linejoin:round; stroke-width:2; stroke-opacity:0.1; fill:none" points="811.631,1423.18 811.631,47.2441 "/>
<polyline clip-path="url(#clip312)" style="stroke:#000000; stroke-linecap:round; stroke-linejoin:round; stroke-width:2; stroke-opacity:0.1; fill:none" points="1301.63,1423.18 1301.63,47.2441 "/>
<polyline clip-path="url(#clip312)" style="stroke:#000000; stroke-linecap:round; stroke-linejoin:round; stroke-width:2; stroke-opacity:0.1; fill:none" points="1791.62,1423.18 1791.62,47.2441 "/>
<polyline clip-path="url(#clip312)" style="stroke:#000000; stroke-linecap:round; stroke-linejoin:round; stroke-width:2; stroke-opacity:0.1; fill:none" points="2281.61,1423.18 2281.61,47.2441 "/>
<polyline clip-path="url(#clip310)" style="stroke:#000000; stroke-linecap:round; stroke-linejoin:round; stroke-width:4; stroke-opacity:1; fill:none" points="257.204,1423.18 2352.76,1423.18 "/>
<polyline clip-path="url(#clip310)" style="stroke:#000000; stroke-linecap:round; stroke-linejoin:round; stroke-width:4; stroke-opacity:1; fill:none" points="321.637,1423.18 321.637,1404.28 "/>
<polyline clip-path="url(#clip310)" style="stroke:#000000; stroke-linecap:round; stroke-linejoin:round; stroke-width:4; stroke-opacity:1; fill:none" points="811.631,1423.18 811.631,1404.28 "/>
<polyline clip-path="url(#clip310)" style="stroke:#000000; stroke-linecap:round; stroke-linejoin:round; stroke-width:4; stroke-opacity:1; fill:none" points="1301.63,1423.18 1301.63,1404.28 "/>
<polyline clip-path="url(#clip310)" style="stroke:#000000; stroke-linecap:round; stroke-linejoin:round; stroke-width:4; stroke-opacity:1; fill:none" points="1791.62,1423.18 1791.62,1404.28 "/>
<polyline clip-path="url(#clip310)" style="stroke:#000000; stroke-linecap:round; stroke-linejoin:round; stroke-width:4; stroke-opacity:1; fill:none" points="2281.61,1423.18 2281.61,1404.28 "/>
<path clip-path="url(#clip310)" d="M268.165 1468.75 L297.841 1468.75 L297.841 1472.69 L268.165 1472.69 L268.165 1468.75 Z" fill="#000000" fill-rule="nonzero" fill-opacity="1" /><path clip-path="url(#clip310)" d="M308.744 1481.64 L316.383 1481.64 L316.383 1455.28 L308.073 1456.95 L308.073 1452.69 L316.336 1451.02 L321.012 1451.02 L321.012 1481.64 L328.651 1481.64 L328.651 1485.58 L308.744 1485.58 L308.744 1481.64 Z" fill="#000000" fill-rule="nonzero" fill-opacity="1" /><path clip-path="url(#clip310)" d="M338.096 1479.7 L342.98 1479.7 L342.98 1485.58 L338.096 1485.58 L338.096 1479.7 Z" fill="#000000" fill-rule="nonzero" fill-opacity="1" /><path clip-path="url(#clip310)" d="M363.165 1454.1 Q359.554 1454.1 357.725 1457.66 Q355.92 1461.2 355.92 1468.33 Q355.92 1475.44 357.725 1479.01 Q359.554 1482.55 363.165 1482.55 Q366.799 1482.55 368.605 1479.01 Q370.433 1475.44 370.433 1468.33 Q370.433 1461.2 368.605 1457.66 Q366.799 1454.1 363.165 1454.1 M363.165 1450.39 Q368.975 1450.39 372.031 1455 Q375.109 1459.58 375.109 1468.33 Q375.109 1477.06 372.031 1481.67 Q368.975 1486.25 363.165 1486.25 Q357.355 1486.25 354.276 1481.67 Q351.221 1477.06 351.221 1468.33 Q351.221 1459.58 354.276 1455 Q357.355 1450.39 363.165 1450.39 Z" fill="#000000" fill-rule="nonzero" fill-opacity="1" /><path clip-path="url(#clip310)" d="M758.657 1468.75 L788.333 1468.75 L788.333 1472.69 L758.657 1472.69 L758.657 1468.75 Z" fill="#000000" fill-rule="nonzero" fill-opacity="1" /><path clip-path="url(#clip310)" d="M808.425 1454.1 Q804.814 1454.1 802.985 1457.66 Q801.18 1461.2 801.18 1468.33 Q801.18 1475.44 802.985 1479.01 Q804.814 1482.55 808.425 1482.55 Q812.06 1482.55 813.865 1479.01 Q815.694 1475.44 815.694 1468.33 Q815.694 1461.2 813.865 1457.66 Q812.06 1454.1 808.425 1454.1 M808.425 1450.39 Q814.235 1450.39 817.291 1455 Q820.37 1459.58 820.37 1468.33 Q820.37 1477.06 817.291 1481.67 Q814.235 1486.25 808.425 1486.25 Q802.615 1486.25 799.536 1481.67 Q796.481 1477.06 796.481 1468.33 Q796.481 1459.58 799.536 1455 Q802.615 1450.39 808.425 1450.39 Z" fill="#000000" fill-rule="nonzero" fill-opacity="1" /><path clip-path="url(#clip310)" d="M828.587 1479.7 L833.471 1479.7 L833.471 1485.58 L828.587 1485.58 L828.587 1479.7 Z" fill="#000000" fill-rule="nonzero" fill-opacity="1" /><path clip-path="url(#clip310)" d="M843.703 1451.02 L862.059 1451.02 L862.059 1454.96 L847.985 1454.96 L847.985 1463.43 Q849.004 1463.08 850.022 1462.92 Q851.041 1462.73 852.059 1462.73 Q857.846 1462.73 861.226 1465.9 Q864.606 1469.08 864.606 1474.49 Q864.606 1480.07 861.133 1483.17 Q857.661 1486.25 851.342 1486.25 Q849.166 1486.25 846.897 1485.88 Q844.652 1485.51 842.245 1484.77 L842.245 1480.07 Q844.328 1481.2 846.55 1481.76 Q848.772 1482.32 851.249 1482.32 Q855.254 1482.32 857.592 1480.21 Q859.93 1478.1 859.93 1474.49 Q859.93 1470.88 857.592 1468.77 Q855.254 1466.67 851.249 1466.67 Q849.374 1466.67 847.499 1467.08 Q845.647 1467.5 843.703 1468.38 L843.703 1451.02 Z" fill="#000000" fill-rule="nonzero" fill-opacity="1" /><path clip-path="url(#clip310)" d="M1279.01 1454.1 Q1275.4 1454.1 1273.57 1457.66 Q1271.76 1461.2 1271.76 1468.33 Q1271.76 1475.44 1273.57 1479.01 Q1275.4 1482.55 1279.01 1482.55 Q1282.64 1482.55 1284.45 1479.01 Q1286.28 1475.44 1286.28 1468.33 Q1286.28 1461.2 1284.45 1457.66 Q1282.64 1454.1 1279.01 1454.1 M1279.01 1450.39 Q1284.82 1450.39 1287.88 1455 Q1290.95 1459.58 1290.95 1468.33 Q1290.95 1477.06 1287.88 1481.67 Q1284.82 1486.25 1279.01 1486.25 Q1273.2 1486.25 1270.12 1481.67 Q1267.07 1477.06 1267.07 1468.33 Q1267.07 1459.58 1270.12 1455 Q1273.2 1450.39 1279.01 1450.39 Z" fill="#000000" fill-rule="nonzero" fill-opacity="1" /><path clip-path="url(#clip310)" d="M1299.17 1479.7 L1304.06 1479.7 L1304.06 1485.58 L1299.17 1485.58 L1299.17 1479.7 Z" fill="#000000" fill-rule="nonzero" fill-opacity="1" /><path clip-path="url(#clip310)" d="M1324.24 1454.1 Q1320.63 1454.1 1318.8 1457.66 Q1317 1461.2 1317 1468.33 Q1317 1475.44 1318.8 1479.01 Q1320.63 1482.55 1324.24 1482.55 Q1327.88 1482.55 1329.68 1479.01 Q1331.51 1475.44 1331.51 1468.33 Q1331.51 1461.2 1329.68 1457.66 Q1327.88 1454.1 1324.24 1454.1 M1324.24 1450.39 Q1330.05 1450.39 1333.11 1455 Q1336.19 1459.58 1336.19 1468.33 Q1336.19 1477.06 1333.11 1481.67 Q1330.05 1486.25 1324.24 1486.25 Q1318.43 1486.25 1315.35 1481.67 Q1312.3 1477.06 1312.3 1468.33 Q1312.3 1459.58 1315.35 1455 Q1318.43 1450.39 1324.24 1450.39 Z" fill="#000000" fill-rule="nonzero" fill-opacity="1" /><path clip-path="url(#clip310)" d="M1769.5 1454.1 Q1765.89 1454.1 1764.06 1457.66 Q1762.26 1461.2 1762.26 1468.33 Q1762.26 1475.44 1764.06 1479.01 Q1765.89 1482.55 1769.5 1482.55 Q1773.14 1482.55 1774.94 1479.01 Q1776.77 1475.44 1776.77 1468.33 Q1776.77 1461.2 1774.94 1457.66 Q1773.14 1454.1 1769.5 1454.1 M1769.5 1450.39 Q1775.31 1450.39 1778.37 1455 Q1781.45 1459.58 1781.45 1468.33 Q1781.45 1477.06 1778.37 1481.67 Q1775.31 1486.25 1769.5 1486.25 Q1763.69 1486.25 1760.61 1481.67 Q1757.56 1477.06 1757.56 1468.33 Q1757.56 1459.58 1760.61 1455 Q1763.69 1450.39 1769.5 1450.39 Z" fill="#000000" fill-rule="nonzero" fill-opacity="1" /><path clip-path="url(#clip310)" d="M1789.66 1479.7 L1794.55 1479.7 L1794.55 1485.58 L1789.66 1485.58 L1789.66 1479.7 Z" fill="#000000" fill-rule="nonzero" fill-opacity="1" /><path clip-path="url(#clip310)" d="M1804.78 1451.02 L1823.14 1451.02 L1823.14 1454.96 L1809.06 1454.96 L1809.06 1463.43 Q1810.08 1463.08 1811.1 1462.92 Q1812.12 1462.73 1813.14 1462.73 Q1818.92 1462.73 1822.3 1465.9 Q1825.68 1469.08 1825.68 1474.49 Q1825.68 1480.07 1822.21 1483.17 Q1818.74 1486.25 1812.42 1486.25 Q1810.24 1486.25 1807.97 1485.88 Q1805.73 1485.51 1803.32 1484.77 L1803.32 1480.07 Q1805.4 1481.2 1807.63 1481.76 Q1809.85 1482.32 1812.32 1482.32 Q1816.33 1482.32 1818.67 1480.21 Q1821.01 1478.1 1821.01 1474.49 Q1821.01 1470.88 1818.67 1468.77 Q1816.33 1466.67 1812.32 1466.67 Q1810.45 1466.67 1808.57 1467.08 Q1806.72 1467.5 1804.78 1468.38 L1804.78 1451.02 Z" fill="#000000" fill-rule="nonzero" fill-opacity="1" /><path clip-path="url(#clip310)" d="M2248.77 1481.64 L2256.4 1481.64 L2256.4 1455.28 L2248.09 1456.95 L2248.09 1452.69 L2256.36 1451.02 L2261.03 1451.02 L2261.03 1481.64 L2268.67 1481.64 L2268.67 1485.58 L2248.77 1485.58 L2248.77 1481.64 Z" fill="#000000" fill-rule="nonzero" fill-opacity="1" /><path clip-path="url(#clip310)" d="M2278.12 1479.7 L2283 1479.7 L2283 1485.58 L2278.12 1485.58 L2278.12 1479.7 Z" fill="#000000" fill-rule="nonzero" fill-opacity="1" /><path clip-path="url(#clip310)" d="M2303.19 1454.1 Q2299.58 1454.1 2297.75 1457.66 Q2295.94 1461.2 2295.94 1468.33 Q2295.94 1475.44 2297.75 1479.01 Q2299.58 1482.55 2303.19 1482.55 Q2306.82 1482.55 2308.63 1479.01 Q2310.46 1475.44 2310.46 1468.33 Q2310.46 1461.2 2308.63 1457.66 Q2306.82 1454.1 2303.19 1454.1 M2303.19 1450.39 Q2309 1450.39 2312.05 1455 Q2315.13 1459.58 2315.13 1468.33 Q2315.13 1477.06 2312.05 1481.67 Q2309 1486.25 2303.19 1486.25 Q2297.38 1486.25 2294.3 1481.67 Q2291.24 1477.06 2291.24 1468.33 Q2291.24 1459.58 2294.3 1455 Q2297.38 1450.39 2303.19 1450.39 Z" fill="#000000" fill-rule="nonzero" fill-opacity="1" /><path clip-path="url(#clip310)" d="M1134.03 1525.81 L1134.03 1543.66 L1142.11 1543.66 Q1146.6 1543.66 1149.05 1541.34 Q1151.5 1539.02 1151.5 1534.72 Q1151.5 1530.45 1149.05 1528.13 Q1146.6 1525.81 1142.11 1525.81 L1134.03 1525.81 M1127.6 1520.52 L1142.11 1520.52 Q1150.1 1520.52 1154.18 1524.15 Q1158.28 1527.75 1158.28 1534.72 Q1158.28 1541.75 1154.18 1545.35 Q1150.1 1548.95 1142.11 1548.95 L1134.03 1548.95 L1134.03 1568.04 L1127.6 1568.04 L1127.6 1520.52 Z" fill="#000000" fill-rule="nonzero" fill-opacity="1" /><path clip-path="url(#clip310)" d="M1178.14 1536.5 Q1173.43 1536.5 1170.7 1540.19 Q1167.96 1543.85 1167.96 1550.25 Q1167.96 1556.65 1170.66 1560.34 Q1173.4 1564 1178.14 1564 Q1182.82 1564 1185.56 1560.31 Q1188.3 1556.62 1188.3 1550.25 Q1188.3 1543.92 1185.56 1540.23 Q1182.82 1536.5 1178.14 1536.5 M1178.14 1531.54 Q1185.78 1531.54 1190.14 1536.5 Q1194.5 1541.47 1194.5 1550.25 Q1194.5 1559 1190.14 1564 Q1185.78 1568.97 1178.14 1568.97 Q1170.47 1568.97 1166.11 1564 Q1161.78 1559 1161.78 1550.25 Q1161.78 1541.47 1166.11 1536.5 Q1170.47 1531.54 1178.14 1531.54 Z" fill="#000000" fill-rule="nonzero" fill-opacity="1" /><path clip-path="url(#clip310)" d="M1226.94 1533.45 L1226.94 1538.98 Q1224.45 1537.71 1221.78 1537.07 Q1219.11 1536.44 1216.24 1536.44 Q1211.88 1536.44 1209.69 1537.77 Q1207.52 1539.11 1207.52 1541.79 Q1207.52 1543.82 1209.08 1545 Q1210.64 1546.15 1215.35 1547.2 L1217.36 1547.64 Q1223.59 1548.98 1226.2 1551.43 Q1228.85 1553.85 1228.85 1558.21 Q1228.85 1563.17 1224.9 1566.07 Q1220.98 1568.97 1214.11 1568.97 Q1211.24 1568.97 1208.13 1568.39 Q1205.04 1567.85 1201.6 1566.74 L1201.6 1560.69 Q1204.85 1562.38 1208 1563.24 Q1211.15 1564.07 1214.24 1564.07 Q1218.37 1564.07 1220.6 1562.66 Q1222.83 1561.23 1222.83 1558.65 Q1222.83 1556.27 1221.21 1554.99 Q1219.62 1553.72 1214.17 1552.54 L1212.14 1552.07 Q1206.69 1550.92 1204.27 1548.56 Q1201.86 1546.18 1201.86 1542.04 Q1201.86 1537.01 1205.42 1534.27 Q1208.99 1531.54 1215.54 1531.54 Q1218.79 1531.54 1221.65 1532.01 Q1224.52 1532.49 1226.94 1533.45 Z" fill="#000000" fill-rule="nonzero" fill-opacity="1" /><path clip-path="url(#clip310)" d="M1238.17 1532.4 L1244.03 1532.4 L1244.03 1568.04 L1238.17 1568.04 L1238.17 1532.4 M1238.17 1518.52 L1244.03 1518.52 L1244.03 1525.93 L1238.17 1525.93 L1238.17 1518.52 Z" fill="#000000" fill-rule="nonzero" fill-opacity="1" /><path clip-path="url(#clip310)" d="M1262.08 1522.27 L1262.08 1532.4 L1274.14 1532.4 L1274.14 1536.95 L1262.08 1536.95 L1262.08 1556.3 Q1262.08 1560.66 1263.25 1561.9 Q1264.46 1563.14 1268.12 1563.14 L1274.14 1563.14 L1274.14 1568.04 L1268.12 1568.04 Q1261.34 1568.04 1258.76 1565.53 Q1256.19 1562.98 1256.19 1556.3 L1256.19 1536.95 L1251.89 1536.95 L1251.89 1532.4 L1256.19 1532.4 L1256.19 1522.27 L1262.08 1522.27 Z" fill="#000000" fill-rule="nonzero" fill-opacity="1" /><path clip-path="url(#clip310)" d="M1281.84 1532.4 L1287.7 1532.4 L1287.7 1568.04 L1281.84 1568.04 L1281.84 1532.4 M1281.84 1518.52 L1287.7 1518.52 L1287.7 1525.93 L1281.84 1525.93 L1281.84 1518.52 Z" fill="#000000" fill-rule="nonzero" fill-opacity="1" /><path clip-path="url(#clip310)" d="M1313.76 1536.5 Q1309.05 1536.5 1306.32 1540.19 Q1303.58 1543.85 1303.58 1550.25 Q1303.58 1556.65 1306.28 1560.34 Q1309.02 1564 1313.76 1564 Q1318.44 1564 1321.18 1560.31 Q1323.92 1556.62 1323.92 1550.25 Q1323.92 1543.92 1321.18 1540.23 Q1318.44 1536.5 1313.76 1536.5 M1313.76 1531.54 Q1321.4 1531.54 1325.76 1536.5 Q1330.12 1541.47 1330.12 1550.25 Q1330.12 1559 1325.76 1564 Q1321.4 1568.97 1313.76 1568.97 Q1306.09 1568.97 1301.73 1564 Q1297.4 1559 1297.4 1550.25 Q1297.4 1541.47 1301.73 1536.5 Q1306.09 1531.54 1313.76 1531.54 Z" fill="#000000" fill-rule="nonzero" fill-opacity="1" /><path clip-path="url(#clip310)" d="M1369.46 1546.53 L1369.46 1568.04 L1363.61 1568.04 L1363.61 1546.72 Q1363.61 1541.66 1361.63 1539.14 Q1359.66 1536.63 1355.71 1536.63 Q1350.97 1536.63 1348.23 1539.65 Q1345.5 1542.68 1345.5 1547.9 L1345.5 1568.04 L1339.61 1568.04 L1339.61 1532.4 L1345.5 1532.4 L1345.5 1537.93 Q1347.6 1534.72 1350.43 1533.13 Q1353.3 1531.54 1357.02 1531.54 Q1363.16 1531.54 1366.31 1535.36 Q1369.46 1539.14 1369.46 1546.53 Z" fill="#000000" fill-rule="nonzero" fill-opacity="1" /><path clip-path="url(#clip310)" d="M1415.93 1518.58 Q1411.67 1525.9 1409.6 1533.06 Q1407.53 1540.23 1407.53 1547.58 Q1407.53 1554.93 1409.6 1562.16 Q1411.7 1569.35 1415.93 1576.64 L1410.84 1576.64 Q1406.07 1569.16 1403.68 1561.93 Q1401.32 1554.71 1401.32 1547.58 Q1401.32 1540.48 1403.68 1533.29 Q1406.04 1526.09 1410.84 1518.58 L1415.93 1518.58 Z" fill="#000000" fill-rule="nonzero" fill-opacity="1" /><path clip-path="url(#clip310)" d="M1430.8 1550.25 Q1430.8 1556.71 1433.44 1560.4 Q1436.11 1564.07 1440.76 1564.07 Q1445.41 1564.07 1448.08 1560.4 Q1450.75 1556.71 1450.75 1550.25 Q1450.75 1543.79 1448.08 1540.13 Q1445.41 1536.44 1440.76 1536.44 Q1436.11 1536.44 1433.44 1540.13 Q1430.8 1543.79 1430.8 1550.25 M1450.75 1562.7 Q1448.91 1565.88 1446.08 1567.44 Q1443.27 1568.97 1439.33 1568.97 Q1432.87 1568.97 1428.79 1563.81 Q1424.75 1558.65 1424.75 1550.25 Q1424.75 1541.85 1428.79 1536.69 Q1432.87 1531.54 1439.33 1531.54 Q1443.27 1531.54 1446.08 1533.1 Q1448.91 1534.62 1450.75 1537.81 L1450.75 1532.4 L1456.61 1532.4 L1456.61 1581.6 L1450.75 1581.6 L1450.75 1562.7 Z" fill="#000000" fill-rule="nonzero" fill-opacity="1" /><path clip-path="url(#clip310)" d="M1467.75 1518.58 L1472.84 1518.58 Q1477.62 1526.09 1479.97 1533.29 Q1482.36 1540.48 1482.36 1547.58 Q1482.36 1554.71 1479.97 1561.93 Q1477.62 1569.16 1472.84 1576.64 L1467.75 1576.64 Q1471.98 1569.35 1474.05 1562.16 Q1476.15 1554.93 1476.15 1547.58 Q1476.15 1540.23 1474.05 1533.06 Q1471.98 1525.9 1467.75 1518.58 Z" fill="#000000" fill-rule="nonzero" fill-opacity="1" /><polyline clip-path="url(#clip312)" style="stroke:#000000; stroke-linecap:round; stroke-linejoin:round; stroke-width:2; stroke-opacity:0.1; fill:none" points="257.204,1376.14 2352.76,1376.14 "/>
<polyline clip-path="url(#clip312)" style="stroke:#000000; stroke-linecap:round; stroke-linejoin:round; stroke-width:2; stroke-opacity:0.1; fill:none" points="257.204,1053.65 2352.76,1053.65 "/>
<polyline clip-path="url(#clip312)" style="stroke:#000000; stroke-linecap:round; stroke-linejoin:round; stroke-width:2; stroke-opacity:0.1; fill:none" points="257.204,731.165 2352.76,731.165 "/>
<polyline clip-path="url(#clip312)" style="stroke:#000000; stroke-linecap:round; stroke-linejoin:round; stroke-width:2; stroke-opacity:0.1; fill:none" points="257.204,408.675 2352.76,408.675 "/>
<polyline clip-path="url(#clip312)" style="stroke:#000000; stroke-linecap:round; stroke-linejoin:round; stroke-width:2; stroke-opacity:0.1; fill:none" points="257.204,86.1857 2352.76,86.1857 "/>
<polyline clip-path="url(#clip310)" style="stroke:#000000; stroke-linecap:round; stroke-linejoin:round; stroke-width:4; stroke-opacity:1; fill:none" points="257.204,1423.18 257.204,47.2441 "/>
<polyline clip-path="url(#clip310)" style="stroke:#000000; stroke-linecap:round; stroke-linejoin:round; stroke-width:4; stroke-opacity:1; fill:none" points="257.204,1376.14 276.102,1376.14 "/>
<polyline clip-path="url(#clip310)" style="stroke:#000000; stroke-linecap:round; stroke-linejoin:round; stroke-width:4; stroke-opacity:1; fill:none" points="257.204,1053.65 276.102,1053.65 "/>
<polyline clip-path="url(#clip310)" style="stroke:#000000; stroke-linecap:round; stroke-linejoin:round; stroke-width:4; stroke-opacity:1; fill:none" points="257.204,731.165 276.102,731.165 "/>
<polyline clip-path="url(#clip310)" style="stroke:#000000; stroke-linecap:round; stroke-linejoin:round; stroke-width:4; stroke-opacity:1; fill:none" points="257.204,408.675 276.102,408.675 "/>
<polyline clip-path="url(#clip310)" style="stroke:#000000; stroke-linecap:round; stroke-linejoin:round; stroke-width:4; stroke-opacity:1; fill:none" points="257.204,86.1857 276.102,86.1857 "/>
<path clip-path="url(#clip310)" d="M114.26 1376.6 L143.936 1376.6 L143.936 1380.53 L114.26 1380.53 L114.26 1376.6 Z" fill="#000000" fill-rule="nonzero" fill-opacity="1" /><path clip-path="url(#clip310)" d="M154.839 1389.49 L162.477 1389.49 L162.477 1363.12 L154.167 1364.79 L154.167 1360.53 L162.431 1358.86 L167.107 1358.86 L167.107 1389.49 L174.746 1389.49 L174.746 1393.42 L154.839 1393.42 L154.839 1389.49 Z" fill="#000000" fill-rule="nonzero" fill-opacity="1" /><path clip-path="url(#clip310)" d="M184.19 1387.54 L189.075 1387.54 L189.075 1393.42 L184.19 1393.42 L184.19 1387.54 Z" fill="#000000" fill-rule="nonzero" fill-opacity="1" /><path clip-path="url(#clip310)" d="M209.26 1361.94 Q205.649 1361.94 203.82 1365.51 Q202.014 1369.05 202.014 1376.18 Q202.014 1383.29 203.82 1386.85 Q205.649 1390.39 209.26 1390.39 Q212.894 1390.39 214.699 1386.85 Q216.528 1383.29 216.528 1376.18 Q216.528 1369.05 214.699 1365.51 Q212.894 1361.94 209.26 1361.94 M209.26 1358.24 Q215.07 1358.24 218.125 1362.85 Q221.204 1367.43 221.204 1376.18 Q221.204 1384.91 218.125 1389.51 Q215.07 1394.1 209.26 1394.1 Q203.449 1394.1 200.371 1389.51 Q197.315 1384.91 197.315 1376.18 Q197.315 1367.43 200.371 1362.85 Q203.449 1358.24 209.26 1358.24 Z" fill="#000000" fill-rule="nonzero" fill-opacity="1" /><path clip-path="url(#clip310)" d="M115.256 1054.11 L144.931 1054.11 L144.931 1058.04 L115.256 1058.04 L115.256 1054.11 Z" fill="#000000" fill-rule="nonzero" fill-opacity="1" /><path clip-path="url(#clip310)" d="M165.024 1039.45 Q161.413 1039.45 159.584 1043.02 Q157.778 1046.56 157.778 1053.69 Q157.778 1060.8 159.584 1064.36 Q161.413 1067.9 165.024 1067.9 Q168.658 1067.9 170.464 1064.36 Q172.292 1060.8 172.292 1053.69 Q172.292 1046.56 170.464 1043.02 Q168.658 1039.45 165.024 1039.45 M165.024 1035.75 Q170.834 1035.75 173.889 1040.36 Q176.968 1044.94 176.968 1053.69 Q176.968 1062.42 173.889 1067.02 Q170.834 1071.61 165.024 1071.61 Q159.214 1071.61 156.135 1067.02 Q153.079 1062.42 153.079 1053.69 Q153.079 1044.94 156.135 1040.36 Q159.214 1035.75 165.024 1035.75 Z" fill="#000000" fill-rule="nonzero" fill-opacity="1" /><path clip-path="url(#clip310)" d="M185.186 1065.05 L190.07 1065.05 L190.07 1070.93 L185.186 1070.93 L185.186 1065.05 Z" fill="#000000" fill-rule="nonzero" fill-opacity="1" /><path clip-path="url(#clip310)" d="M200.301 1036.37 L218.658 1036.37 L218.658 1040.31 L204.584 1040.31 L204.584 1048.78 Q205.602 1048.43 206.621 1048.27 Q207.639 1048.09 208.658 1048.09 Q214.445 1048.09 217.824 1051.26 Q221.204 1054.43 221.204 1059.85 Q221.204 1065.43 217.732 1068.53 Q214.26 1071.61 207.94 1071.61 Q205.764 1071.61 203.496 1071.24 Q201.25 1070.86 198.843 1070.12 L198.843 1065.43 Q200.926 1066.56 203.149 1067.12 Q205.371 1067.67 207.848 1067.67 Q211.852 1067.67 214.19 1065.56 Q216.528 1063.46 216.528 1059.85 Q216.528 1056.24 214.19 1054.13 Q211.852 1052.02 207.848 1052.02 Q205.973 1052.02 204.098 1052.44 Q202.246 1052.86 200.301 1053.74 L200.301 1036.37 Z" fill="#000000" fill-rule="nonzero" fill-opacity="1" /><path clip-path="url(#clip310)" d="M164.028 716.964 Q160.417 716.964 158.589 720.528 Q156.783 724.07 156.783 731.2 Q156.783 738.306 158.589 741.871 Q160.417 745.412 164.028 745.412 Q167.663 745.412 169.468 741.871 Q171.297 738.306 171.297 731.2 Q171.297 724.07 169.468 720.528 Q167.663 716.964 164.028 716.964 M164.028 713.26 Q169.839 713.26 172.894 717.866 Q175.973 722.45 175.973 731.2 Q175.973 739.926 172.894 744.533 Q169.839 749.116 164.028 749.116 Q158.218 749.116 155.14 744.533 Q152.084 739.926 152.084 731.2 Q152.084 722.45 155.14 717.866 Q158.218 713.26 164.028 713.26 Z" fill="#000000" fill-rule="nonzero" fill-opacity="1" /><path clip-path="url(#clip310)" d="M184.19 742.565 L189.075 742.565 L189.075 748.445 L184.19 748.445 L184.19 742.565 Z" fill="#000000" fill-rule="nonzero" fill-opacity="1" /><path clip-path="url(#clip310)" d="M209.26 716.964 Q205.649 716.964 203.82 720.528 Q202.014 724.07 202.014 731.2 Q202.014 738.306 203.82 741.871 Q205.649 745.412 209.26 745.412 Q212.894 745.412 214.699 741.871 Q216.528 738.306 216.528 731.2 Q216.528 724.07 214.699 720.528 Q212.894 716.964 209.26 716.964 M209.26 713.26 Q215.07 713.26 218.125 717.866 Q221.204 722.45 221.204 731.2 Q221.204 739.926 218.125 744.533 Q215.07 749.116 209.26 749.116 Q203.449 749.116 200.371 744.533 Q197.315 739.926 197.315 731.2 Q197.315 722.45 200.371 717.866 Q203.449 713.26 209.26 713.26 Z" fill="#000000" fill-rule="nonzero" fill-opacity="1" /><path clip-path="url(#clip310)" d="M165.024 394.474 Q161.413 394.474 159.584 398.039 Q157.778 401.58 157.778 408.71 Q157.778 415.816 159.584 419.381 Q161.413 422.923 165.024 422.923 Q168.658 422.923 170.464 419.381 Q172.292 415.816 172.292 408.71 Q172.292 401.58 170.464 398.039 Q168.658 394.474 165.024 394.474 M165.024 390.77 Q170.834 390.77 173.889 395.377 Q176.968 399.96 176.968 408.71 Q176.968 417.437 173.889 422.043 Q170.834 426.627 165.024 426.627 Q159.214 426.627 156.135 422.043 Q153.079 417.437 153.079 408.71 Q153.079 399.96 156.135 395.377 Q159.214 390.77 165.024 390.77 Z" fill="#000000" fill-rule="nonzero" fill-opacity="1" /><path clip-path="url(#clip310)" d="M185.186 420.076 L190.07 420.076 L190.07 425.955 L185.186 425.955 L185.186 420.076 Z" fill="#000000" fill-rule="nonzero" fill-opacity="1" /><path clip-path="url(#clip310)" d="M200.301 391.395 L218.658 391.395 L218.658 395.33 L204.584 395.33 L204.584 403.803 Q205.602 403.455 206.621 403.293 Q207.639 403.108 208.658 403.108 Q214.445 403.108 217.824 406.279 Q221.204 409.451 221.204 414.867 Q221.204 420.446 217.732 423.548 Q214.26 426.627 207.94 426.627 Q205.764 426.627 203.496 426.256 Q201.25 425.886 198.843 425.145 L198.843 420.446 Q200.926 421.58 203.149 422.136 Q205.371 422.691 207.848 422.691 Q211.852 422.691 214.19 420.585 Q216.528 418.478 216.528 414.867 Q216.528 411.256 214.19 409.15 Q211.852 407.043 207.848 407.043 Q205.973 407.043 204.098 407.46 Q202.246 407.877 200.301 408.756 L200.301 391.395 Z" fill="#000000" fill-rule="nonzero" fill-opacity="1" /><path clip-path="url(#clip310)" d="M154.839 99.5305 L162.477 99.5305 L162.477 73.1649 L154.167 74.8316 L154.167 70.5723 L162.431 68.9057 L167.107 68.9057 L167.107 99.5305 L174.746 99.5305 L174.746 103.466 L154.839 103.466 L154.839 99.5305 Z" fill="#000000" fill-rule="nonzero" fill-opacity="1" /><path clip-path="url(#clip310)" d="M184.19 97.5861 L189.075 97.5861 L189.075 103.466 L184.19 103.466 L184.19 97.5861 Z" fill="#000000" fill-rule="nonzero" fill-opacity="1" /><path clip-path="url(#clip310)" d="M209.26 71.9844 Q205.649 71.9844 203.82 75.5492 Q202.014 79.0908 202.014 86.2204 Q202.014 93.3268 203.82 96.8916 Q205.649 100.433 209.26 100.433 Q212.894 100.433 214.699 96.8916 Q216.528 93.3268 216.528 86.2204 Q216.528 79.0908 214.699 75.5492 Q212.894 71.9844 209.26 71.9844 M209.26 68.2807 Q215.07 68.2807 218.125 72.8871 Q221.204 77.4704 221.204 86.2204 Q221.204 94.9472 218.125 99.5537 Q215.07 104.137 209.26 104.137 Q203.449 104.137 200.371 99.5537 Q197.315 94.9472 197.315 86.2204 Q197.315 77.4704 200.371 72.8871 Q203.449 68.2807 209.26 68.2807 Z" fill="#000000" fill-rule="nonzero" fill-opacity="1" /><path clip-path="url(#clip310)" d="M16.4842 971.396 L16.4842 961.815 L48.8219 949.689 L16.4842 937.498 L16.4842 927.918 L64.0042 927.918 L64.0042 934.188 L22.277 934.188 L54.8694 946.442 L54.8694 952.903 L22.277 965.157 L64.0042 965.157 L64.0042 971.396 L16.4842 971.396 Z" fill="#000000" fill-rule="nonzero" fill-opacity="1" /><path clip-path="url(#clip310)" d="M32.4621 901.596 Q32.4621 906.306 36.1542 909.044 Q39.8145 911.781 46.212 911.781 Q52.6095 911.781 56.3017 909.075 Q59.9619 906.338 59.9619 901.596 Q59.9619 896.917 56.2698 894.18 Q52.5777 891.442 46.212 891.442 Q39.8781 891.442 36.186 894.18 Q32.4621 896.917 32.4621 901.596 M27.4968 901.596 Q27.4968 893.957 32.4621 889.596 Q37.4273 885.236 46.212 885.236 Q54.9649 885.236 59.9619 889.596 Q64.9272 893.957 64.9272 901.596 Q64.9272 909.266 59.9619 913.627 Q54.9649 917.955 46.212 917.955 Q37.4273 917.955 32.4621 913.627 Q27.4968 909.266 27.4968 901.596 Z" fill="#000000" fill-rule="nonzero" fill-opacity="1" /><path clip-path="url(#clip310)" d="M35.1993 847.774 Q31.2526 845.577 29.3747 842.522 Q27.4968 839.466 27.4968 835.329 Q27.4968 829.759 31.4117 826.735 Q35.2948 823.711 42.4881 823.711 L64.0042 823.711 L64.0042 829.599 L42.679 829.599 Q37.5546 829.599 35.072 831.414 Q32.5894 833.228 32.5894 836.952 Q32.5894 841.503 35.6131 844.145 Q38.6368 846.787 43.8567 846.787 L64.0042 846.787 L64.0042 852.675 L42.679 852.675 Q37.5228 852.675 35.072 854.489 Q32.5894 856.304 32.5894 860.091 Q32.5894 864.579 35.6449 867.221 Q38.6686 869.863 43.8567 869.863 L64.0042 869.863 L64.0042 875.751 L28.3562 875.751 L28.3562 869.863 L33.8944 869.863 Q30.616 867.857 29.0564 865.056 Q27.4968 862.256 27.4968 858.404 Q27.4968 854.521 29.4702 851.816 Q31.4436 849.079 35.1993 847.774 Z" fill="#000000" fill-rule="nonzero" fill-opacity="1" /><path clip-path="url(#clip310)" d="M44.7161 781.538 L47.5806 781.538 L47.5806 808.465 Q53.6281 808.083 56.8109 804.837 Q59.9619 801.559 59.9619 795.734 Q59.9619 792.36 59.1344 789.209 Q58.3069 786.026 56.6518 782.907 L62.1899 782.907 Q63.5267 786.058 64.227 789.368 Q64.9272 792.678 64.9272 796.084 Q64.9272 804.614 59.9619 809.611 Q54.9967 814.576 46.5303 814.576 Q37.7774 814.576 32.6531 809.866 Q27.4968 805.123 27.4968 797.103 Q27.4968 789.909 32.1438 785.74 Q36.7589 781.538 44.7161 781.538 M42.9973 787.395 Q38.1912 787.459 35.3266 790.1 Q32.4621 792.71 32.4621 797.039 Q32.4621 801.94 35.2312 804.901 Q38.0002 807.829 43.0292 808.274 L42.9973 787.395 Z" fill="#000000" fill-rule="nonzero" fill-opacity="1" /><path clip-path="url(#clip310)" d="M42.4881 742.294 L64.0042 742.294 L64.0042 748.15 L42.679 748.15 Q37.6183 748.15 35.1038 750.124 Q32.5894 752.097 32.5894 756.044 Q32.5894 760.786 35.6131 763.523 Q38.6368 766.261 43.8567 766.261 L64.0042 766.261 L64.0042 772.149 L28.3562 772.149 L28.3562 766.261 L33.8944 766.261 Q30.6797 764.16 29.0883 761.327 Q27.4968 758.463 27.4968 754.739 Q27.4968 748.596 31.3163 745.445 Q35.1038 742.294 42.4881 742.294 Z" fill="#000000" fill-rule="nonzero" fill-opacity="1" /><path clip-path="url(#clip310)" d="M18.2347 724.82 L28.3562 724.82 L28.3562 712.757 L32.9077 712.757 L32.9077 724.82 L52.2594 724.82 Q56.6199 724.82 57.8613 723.642 Q59.1026 722.433 59.1026 718.773 L59.1026 712.757 L64.0042 712.757 L64.0042 718.773 Q64.0042 725.552 61.4897 728.13 Q58.9434 730.708 52.2594 730.708 L32.9077 730.708 L32.9077 735.005 L28.3562 735.005 L28.3562 730.708 L18.2347 730.708 L18.2347 724.82 Z" fill="#000000" fill-rule="nonzero" fill-opacity="1" /><path clip-path="url(#clip310)" d="M49.9359 705.659 L28.3562 705.659 L28.3562 699.803 L49.7131 699.803 Q54.7739 699.803 57.3202 697.829 Q59.8346 695.856 59.8346 691.909 Q59.8346 687.167 56.8109 684.43 Q53.7872 681.66 48.5673 681.66 L28.3562 681.66 L28.3562 675.804 L64.0042 675.804 L64.0042 681.66 L58.5296 681.66 Q61.7762 683.793 63.3676 686.626 Q64.9272 689.427 64.9272 693.151 Q64.9272 699.293 61.1078 702.476 Q57.2883 705.659 49.9359 705.659 M27.4968 690.923 L27.4968 690.923 Z" fill="#000000" fill-rule="nonzero" fill-opacity="1" /><path clip-path="url(#clip310)" d="M35.1993 635.987 Q31.2526 633.79 29.3747 630.735 Q27.4968 627.679 27.4968 623.542 Q27.4968 617.972 31.4117 614.948 Q35.2948 611.924 42.4881 611.924 L64.0042 611.924 L64.0042 617.812 L42.679 617.812 Q37.5546 617.812 35.072 619.627 Q32.5894 621.441 32.5894 625.165 Q32.5894 629.716 35.6131 632.358 Q38.6368 635 43.8567 635 L64.0042 635 L64.0042 640.888 L42.679 640.888 Q37.5228 640.888 35.072 642.702 Q32.5894 644.517 32.5894 648.304 Q32.5894 652.792 35.6449 655.434 Q38.6686 658.076 43.8567 658.076 L64.0042 658.076 L64.0042 663.964 L28.3562 663.964 L28.3562 658.076 L33.8944 658.076 Q30.616 656.07 29.0564 653.269 Q27.4968 650.468 27.4968 646.617 Q27.4968 642.734 29.4702 640.029 Q31.4436 637.291 35.1993 635.987 Z" fill="#000000" fill-rule="nonzero" fill-opacity="1" /><path clip-path="url(#clip310)" d="M14.5426 565.454 Q21.8632 569.72 29.0246 571.788 Q36.186 573.857 43.5384 573.857 Q50.8908 573.857 58.1159 571.788 Q65.3091 569.688 72.5979 565.454 L72.5979 570.547 Q65.1182 575.321 57.8931 577.708 Q50.668 580.064 43.5384 580.064 Q36.4406 580.064 29.2474 577.708 Q22.0542 575.353 14.5426 570.547 L14.5426 565.454 Z" fill="#000000" fill-rule="nonzero" fill-opacity="1" /><path clip-path="url(#clip310)" d="M58.657 548.426 L77.5631 548.426 L77.5631 554.315 L28.3562 554.315 L28.3562 548.426 L33.7671 548.426 Q30.5842 546.58 29.0564 543.779 Q27.4968 540.947 27.4968 537.032 Q27.4968 530.539 32.6531 526.496 Q37.8093 522.422 46.212 522.422 Q54.6147 522.422 59.771 526.496 Q64.9272 530.539 64.9272 537.032 Q64.9272 540.947 63.3994 543.779 Q61.8398 546.58 58.657 548.426 M46.212 528.502 Q39.7508 528.502 36.0905 531.175 Q32.3984 533.817 32.3984 538.464 Q32.3984 543.111 36.0905 545.784 Q39.7508 548.426 46.212 548.426 Q52.6732 548.426 56.3653 545.784 Q60.0256 543.111 60.0256 538.464 Q60.0256 533.817 56.3653 531.175 Q52.6732 528.502 46.212 528.502 Z" fill="#000000" fill-rule="nonzero" fill-opacity="1" /><path clip-path="url(#clip310)" d="M14.5426 513.638 L14.5426 508.545 Q22.0542 503.771 29.2474 501.415 Q36.4406 499.028 43.5384 499.028 Q50.668 499.028 57.8931 501.415 Q65.1182 503.771 72.5979 508.545 L72.5979 513.638 Q65.3091 509.404 58.1159 507.336 Q50.8908 505.235 43.5384 505.235 Q36.186 505.235 29.0246 507.336 Q21.8632 509.404 14.5426 513.638 Z" fill="#000000" fill-rule="nonzero" fill-opacity="1" /><polyline clip-path="url(#clip312)" style="stroke:#009af9; stroke-linecap:round; stroke-linejoin:round; stroke-width:16; stroke-opacity:1; fill:none" points="1301.63,86.1857 1307.64,86.1978 1313.66,86.2343 1319.68,86.2952 1325.7,86.3803 1331.72,86.4898 1337.73,86.6236 1343.75,86.7817 1349.76,86.9641 1355.77,87.1708 1361.78,87.4018 1367.78,87.6571 1373.79,87.9367 1379.79,88.2405 1385.79,88.5686 1391.78,88.9209 1397.77,89.2975 1403.76,89.6983 1409.75,90.1232 1415.73,90.5724 1421.7,91.0457 1427.67,91.5432 1433.64,92.0648 1439.6,92.6104 1445.56,93.1802 1451.51,93.7741 1457.46,94.392 1463.39,95.0339 1469.33,95.6998 1475.25,96.3897 1481.18,97.1035 1487.09,97.8413 1493,98.6029 1498.9,99.3884 1504.79,100.198 1510.67,101.031 1516.55,101.888 1522.42,102.768 1528.28,103.673 1534.13,104.601 1539.97,105.553 1545.8,106.528 1551.63,107.527 1557.44,108.549 1563.25,109.595 1569.05,110.664 1574.83,111.757 1580.61,112.873 1586.37,114.012 1592.12,115.175 1597.87,116.361 1603.6,117.57 1609.32,118.802 1615.03,120.057 1620.73,121.336 1626.41,122.637 1632.08,123.962 1637.74,125.309 1643.39,126.679 1649.03,128.072 1654.65,129.487 1660.26,130.926 1665.85,132.387 1671.43,133.87 1677,135.377 1682.55,136.905 1688.09,138.456 1693.61,140.03 1699.12,141.625 1704.62,143.243 1710.1,144.883 1715.56,146.545 1721.01,148.23 1726.44,149.936 1731.85,151.664 1737.25,153.414 1742.64,155.186 1748,156.98 1753.35,158.795 1758.69,160.632 1764,162.49 1769.3,164.37 1774.58,166.271 1779.84,168.193 1785.09,170.137 1790.32,172.102 1795.52,174.088 1800.71,176.095 1805.88,178.123 1811.03,180.172 1816.17,182.241 1821.28,184.332 1826.37,186.442 1831.45,188.574 1836.5,190.726 1841.53,192.898 1846.55,195.091 1851.54,197.304 1856.51,199.537 1861.46,201.79 1866.39,204.063 1871.3,206.355 1876.19,208.668 1881.05,211 1885.89,213.352 1890.72,215.724 1895.51,218.115 1900.29,220.525 1905.04,222.955 1909.78,225.404 1914.48,227.872 1919.17,230.358 1923.83,232.864 1928.47,235.389 1933.08,237.932 1937.68,240.494 1942.24,243.074 1946.79,245.673 1951.3,248.29 1955.8,250.925 1960.27,253.579 1964.71,256.25 1969.13,258.939 1973.53,261.647 1977.89,264.371 1982.24,267.114 1986.56,269.874 1990.85,272.651 1995.11,275.446 1999.35,278.258 2003.57,281.087 2007.75,283.933 2011.91,286.796 2016.05,289.675 2020.15,292.571 2024.23,295.484 2028.28,298.413 2032.31,301.359 2036.31,304.321 2040.28,307.298 2044.22,310.292 2048.13,313.302 2052.02,316.327 2055.87,319.369 2059.7,322.425 2063.5,325.497 2067.27,328.585 2071.02,331.687 2074.73,334.805 2078.41,337.937 2082.07,341.085 2085.69,344.247 2089.29,347.424 2092.86,350.615 2096.39,353.82 2099.9,357.04 2103.38,360.274 2106.82,363.522 2110.24,366.784 2113.62,370.059 2116.98,373.348 2120.3,376.651 2123.59,379.967 2126.86,383.296 2130.09,386.639 2133.29,389.994 2136.45,393.362 2139.59,396.743 2142.7,400.137 2145.77,403.543 2148.81,406.961 2151.82,410.392 2154.8,413.835 2157.74,417.29 2160.66,420.756 2163.54,424.235 2166.38,427.724 2169.2,431.226 2171.98,434.738 2174.73,438.262 2177.45,441.797 2180.13,445.343 2182.78,448.899 2185.4,452.467 2187.99,456.044 2190.54,459.632 2193.05,463.231 2195.54,466.839 2197.99,470.458 2200.4,474.086 2202.78,477.724 2205.13,481.371 2207.45,485.028 2209.73,488.695 2211.97,492.37 2214.18,496.054 2216.36,499.748 2218.5,503.45 2220.61,507.16 2222.68,510.879 2224.72,514.607 2226.73,518.342 2228.69,522.086 2230.63,525.837 2232.53,529.596 2234.39,533.363 2236.22,537.137 2238.01,540.919 2239.77,544.707 2241.49,548.503 2243.18,552.306 2244.83,556.115 2246.45,559.931 2248.03,563.754 2249.57,567.582 2251.08,571.417 2252.55,575.258 2253.99,579.105 2255.39,582.958 2256.75,586.816 2258.08,590.68 2259.38,594.549 2260.63,598.423 2261.85,602.302 2263.04,606.186 2264.19,610.074 2265.3,613.968 2266.37,617.865 2267.41,621.767 2268.42,625.673 2269.38,629.583 2270.31,633.497 2271.21,637.415 2272.06,641.336 2272.88,645.26 2273.67,649.188 2274.41,653.119 2275.12,657.052 2275.8,660.989 2276.43,664.928 2277.03,668.87 2277.59,672.814 2278.12,676.76 2278.61,680.708 2279.06,684.659 2279.48,688.611 2279.86,692.564 2280.2,696.519 2280.5,700.476 2280.77,704.433 2281,708.392 2281.2,712.351 2281.35,716.311 2281.47,720.272 2281.56,724.233 2281.6,728.194 2281.61,732.155 2281.58,736.117 2281.52,740.078 2281.42,744.039 2281.28,747.999 2281.1,751.959 2280.89,755.918 2280.64,759.876 2280.36,763.833 2280.03,767.788 2279.67,771.743 2279.27,775.695 2278.84,779.646 2278.37,783.596 2277.86,787.543 2277.32,791.488 2276.74,795.431 2276.12,799.371 2275.46,803.309 2274.77,807.245 2274.04,811.177 2273.28,815.106 2272.48,819.032 2271.64,822.955 2270.76,826.874 2269.85,830.79 2268.9,834.702 2267.92,838.61 2266.9,842.514 2265.84,846.414 2264.75,850.309 2263.62,854.2 2262.45,858.087 2261.25,861.968 2260.01,865.845 2258.73,869.716 2257.42,873.583 2256.08,877.443 2254.69,881.299 2253.27,885.149 2251.82,888.993 2250.33,892.831 2248.8,896.662 2247.24,900.488 2245.64,904.307 2244.01,908.12 2242.34,911.926 2240.63,915.725 2238.89,919.518 2237.12,923.303 2235.31,927.081 2233.46,930.851 2231.58,934.614 2229.67,938.369 2227.71,942.117 2225.73,945.856 2223.71,949.588 2221.65,953.311 2219.56,957.026 2217.44,960.732 2215.28,964.43 2213.08,968.119 2210.85,971.799 2208.59,975.469 2206.29,979.131 2203.96,982.783 2201.6,986.426 2199.2,990.059 2196.77,993.682 2194.3,997.296 2191.8,1000.9 2189.26,1004.49 2186.7,1008.08 2184.1,1011.65 2181.46,1015.21 2178.8,1018.76 2176.09,1022.3 2173.36,1025.83 2170.6,1029.35 2167.8,1032.86 2164.96,1036.35 2162.1,1039.84 2159.2,1043.31 2156.27,1046.77 2153.31,1050.22 2150.32,1053.65 2147.29,1057.08 2144.24,1060.49 2141.15,1063.89 2138.03,1067.28 2134.87,1070.65 2131.69,1074.02 2128.48,1077.36 2125.23,1080.7 2121.95,1084.02 2118.64,1087.33 2115.3,1090.63 2111.93,1093.91 2108.53,1097.18 2105.1,1100.43 2101.64,1103.67 2098.15,1106.9 2094.63,1110.11 2091.08,1113.31 2087.5,1116.5 2083.89,1119.67 2080.25,1122.82 2076.58,1125.96 2072.88,1129.09 2069.15,1132.2 2065.39,1135.29 2061.61,1138.37 2057.79,1141.43 2053.95,1144.48 2050.08,1147.52 2046.18,1150.53 2042.25,1153.54 2038.29,1156.52 2034.31,1159.49 2030.3,1162.45 2026.26,1165.38 2022.2,1168.3 2018.1,1171.21 2013.98,1174.1 2009.84,1176.97 2005.66,1179.82 2001.46,1182.66 1997.24,1185.48 1992.98,1188.28 1988.7,1191.07 1984.4,1193.84 1980.07,1196.59 1975.71,1199.32 1971.33,1202.04 1966.92,1204.74 1962.49,1207.42 1958.04,1210.08 1953.55,1212.72 1949.05,1215.35 1944.52,1217.96 1939.96,1220.55 1935.38,1223.12 1930.78,1225.67 1926.15,1228.21 1921.5,1230.72 1916.83,1233.22 1912.13,1235.69 1907.41,1238.15 1902.67,1240.59 1897.91,1243.01 1893.12,1245.41 1888.31,1247.79 1883.48,1250.16 1878.62,1252.5 1873.74,1254.82 1868.85,1257.12 1863.93,1259.41 1858.99,1261.67 1854.03,1263.91 1849.05,1266.14 1844.04,1268.34 1839.02,1270.52 1833.98,1272.68 1828.91,1274.82 1823.83,1276.95 1818.73,1279.05 1813.6,1281.13 1808.46,1283.19 1803.3,1285.22 1798.12,1287.24 1792.92,1289.24 1787.7,1291.21 1782.47,1293.17 1777.22,1295.1 1771.94,1297.01 1766.65,1298.9 1761.35,1300.77 1756.02,1302.62 1750.68,1304.45 1745.32,1306.25 1739.95,1308.03 1734.56,1309.79 1729.15,1311.53 1723.72,1313.25 1718.28,1314.94 1712.83,1316.62 1707.36,1318.27 1701.87,1319.9 1696.37,1321.51 1690.85,1323.09 1685.32,1324.65 1679.78,1326.19 1674.22,1327.71 1668.64,1329.2 1663.05,1330.68 1657.45,1332.13 1651.84,1333.55 1646.21,1334.96 1640.57,1336.34 1634.91,1337.7 1629.25,1339.03 1623.57,1340.35 1617.88,1341.64 1612.18,1342.9 1606.46,1344.15 1600.73,1345.37 1595,1346.56 1589.25,1347.74 1583.49,1348.89 1577.72,1350.02 1571.94,1351.12 1566.15,1352.2 1560.35,1353.26 1554.54,1354.29 1548.72,1355.31 1542.89,1356.29 1537.05,1357.26 1531.2,1358.2 1525.35,1359.11 1519.48,1360 1513.61,1360.87 1507.73,1361.72 1501.84,1362.54 1495.95,1363.34 1490.04,1364.11 1484.13,1364.86 1478.22,1365.59 1472.29,1366.29 1466.36,1366.97 1460.43,1367.62 1454.48,1368.25 1448.53,1368.86 1442.58,1369.44 1436.62,1370 1430.66,1370.53 1424.69,1371.04 1418.72,1371.52 1412.74,1371.98 1406.75,1372.42 1400.77,1372.83 1394.78,1373.22 1388.79,1373.59 1382.79,1373.93 1376.79,1374.24 1370.79,1374.54 1364.78,1374.8 1358.77,1375.05 1352.76,1375.27 1346.75,1375.46 1340.74,1375.63 1334.72,1375.78 1328.71,1375.9 1322.69,1376 1316.67,1376.07 1310.65,1376.12 1304.63,1376.14 1298.62,1376.14 1292.6,1376.12 1286.58,1376.07 1280.56,1376 1274.54,1375.9 1268.53,1375.78 1262.51,1375.63 1256.5,1375.46 1250.49,1375.27 1244.48,1375.05 1238.47,1374.8 1232.46,1374.54 1226.46,1374.24 1220.46,1373.93 1214.46,1373.59 1208.47,1373.22 1202.48,1372.83 1196.5,1372.42 1190.51,1371.98 1184.53,1371.52 1178.56,1371.04 1172.59,1370.53 1166.63,1370 1160.67,1369.44 1154.72,1368.86 1148.77,1368.25 1142.82,1367.62 1136.89,1366.97 1130.96,1366.29 1125.03,1365.59 1119.12,1364.86 1113.21,1364.11 1107.3,1363.34 1101.41,1362.54 1095.52,1361.72 1089.64,1360.87 1083.77,1360 1077.9,1359.11 1072.05,1358.2 1066.2,1357.26 1060.36,1356.29 1054.53,1355.31 1048.71,1354.29 1042.9,1353.26 1037.1,1352.2 1031.31,1351.12 1025.53,1350.02 1019.76,1348.89 1014,1347.74 1008.25,1346.56 1002.52,1345.37 996.789,1344.15 991.075,1342.9 985.372,1341.64 979.681,1340.35 974.002,1339.03 968.336,1337.7 962.682,1336.34 957.041,1334.96 951.412,1333.55 945.797,1332.13 940.196,1330.68 934.608,1329.2 929.034,1327.71 923.474,1326.19 917.929,1324.65 912.397,1323.09 906.881,1321.51 901.379,1319.9 895.893,1318.27 890.422,1316.62 884.966,1314.94 879.526,1313.25 874.102,1311.53 868.694,1309.79 863.302,1308.03 857.927,1306.25 852.569,1304.45 847.227,1302.62 841.903,1300.77 836.596,1298.9 831.307,1297.01 826.035,1295.1 820.781,1293.17 815.546,1291.21 810.329,1289.24 805.13,1287.24 799.95,1285.22 794.789,1283.19 789.647,1281.13 784.524,1279.05 779.421,1276.95 774.338,1274.82 769.275,1272.68 764.231,1270.52 759.208,1268.34 754.205,1266.14 749.223,1263.91 744.262,1261.67 739.322,1259.41 734.403,1257.12 729.505,1254.82 724.629,1252.5 719.775,1250.16 714.943,1247.79 710.133,1245.41 705.345,1243.01 700.579,1240.59 695.837,1238.15 691.117,1235.69 686.42,1233.22 681.747,1230.72 677.097,1228.21 672.47,1225.67 667.867,1223.12 663.288,1220.55 658.733,1217.96 654.203,1215.35 649.696,1212.72 645.215,1210.08 640.758,1207.42 636.326,1204.74 631.919,1202.04 627.537,1199.32 623.181,1196.59 618.851,1193.84 614.546,1191.07 610.267,1188.28 606.014,1185.48 601.787,1182.66 597.587,1179.82 593.414,1176.97 589.267,1174.1 585.147,1171.21 581.054,1168.3 576.988,1165.38 572.95,1162.45 568.939,1159.49 564.955,1156.52 561,1153.54 557.072,1150.53 553.173,1147.52 549.301,1144.48 545.458,1141.43 541.644,1138.37 537.858,1135.29 534.101,1132.2 530.373,1129.09 526.675,1125.96 523.005,1122.82 519.365,1119.67 515.754,1116.5 512.173,1113.31 508.621,1110.11 505.1,1106.9 501.609,1103.67 498.148,1100.43 494.717,1097.18 491.316,1093.91 487.946,1090.63 484.607,1087.33 481.299,1084.02 478.021,1080.7 474.775,1077.36 471.56,1074.01 468.376,1070.65 465.224,1067.28 462.103,1063.89 459.014,1060.49 455.956,1057.08 452.931,1053.65 449.937,1050.22 446.976,1046.77 444.047,1043.31 441.15,1039.84 438.286,1036.35 435.454,1032.86 432.655,1029.35 429.889,1025.83 427.155,1022.3 424.455,1018.76 421.788,1015.21 419.153,1011.65 416.553,1008.08 413.985,1004.49 411.451,1000.9 408.951,997.296 406.484,993.682 404.051,990.059 401.652,986.426 399.287,982.783 396.956,979.131 394.659,975.469 392.396,971.799 390.168,968.119 387.974,964.43 385.814,960.732 383.689,957.026 381.599,953.311 379.543,949.588 377.522,945.856 375.536,942.117 373.585,938.369 371.669,934.614 369.788,930.851 367.942,927.08 366.131,923.302 364.356,919.517 362.616,915.725 360.911,911.926 359.242,908.12 357.608,904.307 356.01,900.488 354.448,896.662 352.921,892.83 351.431,888.993 349.976,885.149 348.557,881.299 347.174,877.443 345.826,873.582 344.515,869.716 343.241,865.845 342.002,861.968 340.799,858.086 339.633,854.2 338.503,850.309 337.409,846.414 336.352,842.514 335.331,838.61 334.347,834.702 333.399,830.79 332.487,826.874 331.612,822.955 330.774,819.032 329.972,815.106 329.207,811.177 328.479,807.244 327.787,803.309 327.132,799.371 326.514,795.431 325.933,791.488 325.388,787.543 324.881,783.596 324.41,779.646 323.976,775.695 323.579,771.742 323.219,767.788 322.895,763.832 322.609,759.876 322.359,755.917 322.147,751.959 321.971,747.999 321.833,744.039 321.731,740.078 321.666,736.116 321.639,732.155 321.648,728.194 321.694,724.232 321.777,720.271 321.897,716.311 322.054,712.351 322.248,708.391 322.479,704.433 322.747,700.476 323.052,696.519 323.394,692.564 323.773,688.611 324.188,684.658 324.641,680.708 325.13,676.76 325.656,672.814 326.219,668.87 326.819,664.928 327.455,660.989 328.129,657.052 328.839,653.119 329.585,649.188 330.369,645.26 331.189,641.336 332.045,637.415 332.938,633.497 333.868,629.583 334.834,625.673 335.837,621.767 336.876,617.865 337.952,613.968 339.063,610.074 340.212,606.186 341.396,602.302 342.617,598.422 343.874,594.549 345.167,590.679 346.496,586.816 347.861,582.958 349.262,579.105 350.699,575.258 352.172,571.417 353.68,567.582 355.225,563.754 356.805,559.931 358.421,556.115 360.072,552.306 361.759,548.503 363.481,544.707 365.239,540.919 367.032,537.137 368.86,533.363 370.724,529.596 372.622,525.837 374.556,522.086 376.525,518.342 378.528,514.607 380.567,510.879 382.64,507.16 384.747,503.45 386.89,499.747 389.066,496.054 391.278,492.37 393.523,488.695 395.803,485.028 398.117,481.371 400.465,477.724 402.847,474.086 405.264,470.458 407.714,466.839 410.197,463.231 412.714,459.632 415.265,456.044 417.849,452.466 420.466,448.899 423.117,445.343 425.801,441.797 428.518,438.262 431.268,434.738 434.051,431.226 436.866,427.724 439.714,424.234 442.595,420.756 445.507,417.29 448.453,413.835 451.43,410.392 454.44,406.961 457.481,403.543 460.554,400.137 463.659,396.743 466.796,393.362 469.964,389.994 473.164,386.639 476.395,383.296 479.656,379.967 482.949,376.651 486.273,373.348 489.628,370.059 493.013,366.784 496.428,363.522 499.874,360.274 503.351,357.04 506.857,353.82 510.394,350.615 513.96,347.423 517.556,344.247 521.181,341.085 524.836,337.937 528.521,334.805 532.234,331.687 535.976,328.584 539.748,325.497 543.548,322.425 547.376,319.369 551.234,316.327 555.119,313.302 559.033,310.292 562.974,307.298 566.944,304.32 570.941,301.359 574.966,298.413 579.018,295.484 583.097,292.571 587.204,289.675 591.337,286.796 595.497,283.933 599.684,281.087 603.898,278.258 608.138,275.446 612.403,272.651 616.695,269.874 621.013,267.114 625.356,264.371 629.725,261.647 634.119,258.939 638.539,256.25 642.983,253.579 647.452,250.925 651.946,248.29 656.465,245.673 661.008,243.074 665.575,240.494 670.166,237.932 674.781,235.389 679.419,232.864 684.081,230.358 688.766,227.872 693.474,225.404 698.205,222.955 702.96,220.525 707.736,218.115 712.535,215.724 717.357,213.352 722.2,211 727.065,208.668 731.951,206.355 736.86,204.062 741.789,201.79 746.74,199.536 751.712,197.304 756.704,195.091 761.717,192.898 766.75,190.726 771.804,188.574 776.877,186.442 781.971,184.331 787.083,182.241 792.216,180.172 797.367,178.123 802.538,176.095 807.727,174.088 812.935,172.102 818.161,170.137 823.406,168.193 828.669,166.271 833.949,164.37 839.248,162.49 844.563,160.632 849.896,158.795 855.246,156.98 860.613,155.186 865.996,153.414 871.396,151.664 876.812,149.936 882.244,148.23 887.692,146.545 893.155,144.883 898.634,143.243 904.128,141.625 909.638,140.029 915.161,138.456 920.7,136.905 926.253,135.377 931.82,133.87 937.4,132.387 942.995,130.926 948.603,129.488 954.225,128.072 959.86,126.679 965.507,125.309 971.168,123.961 976.84,122.637 982.525,121.336 988.222,120.057 993.931,118.802 999.651,117.57 1005.38,116.361 1011.13,115.175 1016.88,114.012 1022.64,112.873 1028.42,111.757 1034.21,110.664 1040,109.595 1045.81,108.549 1051.62,107.527 1057.45,106.528 1063.28,105.553 1069.12,104.601 1074.97,103.673 1080.83,102.768 1086.7,101.888 1092.58,101.031 1098.46,100.198 1104.36,99.3884 1110.25,98.6029 1116.16,97.8413 1122.08,97.1035 1128,96.3897 1133.92,95.6998 1139.86,95.0339 1145.8,94.392 1151.74,93.7741 1157.69,93.1802 1163.65,92.6104 1169.61,92.0647 1175.58,91.5431 1181.55,91.0457 1187.52,90.5723 1193.5,90.1232 1199.49,89.6982 1205.48,89.2975 1211.47,88.9209 1217.46,88.5686 1223.46,88.2405 1229.46,87.9367 1235.47,87.6571 1241.47,87.4018 1247.48,87.1708 1253.49,86.9641 1259.51,86.7817 1265.52,86.6236 1271.53,86.4898 1277.55,86.3803 1283.57,86.2952 1289.59,86.2343 1295.61,86.1978 1301.63,86.1857 "/>
<polyline clip-path="url(#clip312)" style="stroke:#e26f46; stroke-linecap:round; stroke-linejoin:round; stroke-width:16; stroke-opacity:1; fill:none" points="1301.63,86.1857 1307.64,86.3147 1313.66,86.4436 1319.67,86.5725 1325.69,86.7099 1331.7,86.863 1337.72,87.0188 1343.73,87.1722 1349.75,87.3257 1355.76,87.4793 1361.78,87.633 1367.79,87.7866 1373.81,87.9402 1379.82,88.0939 1385.83,88.3196 1391.81,88.7187 1397.77,89.2505 1403.72,89.877 1409.66,90.5657 1415.6,91.2895 1421.53,92.0267 1427.46,92.7613 1433.4,93.4825 1439.34,94.1849 1445.28,94.8687 1451.22,95.5394 1457.16,96.2081 1463.1,96.8885 1469.05,97.5707 1474.99,98.2526 1480.93,98.9358 1486.87,99.6214 1492.81,100.31 1498.75,101.002 1504.68,101.698 1510.62,102.396 1516.55,103.095 1522.49,103.796 1528.37,104.597 1534.19,105.498 1540,106.439 1545.81,107.372 1551.64,108.258 1557.52,109.069 1563.45,109.787 1569.43,110.406 1575.48,110.93 1581.56,111.371 1587.69,111.755 1593.83,112.117 1599.96,112.501 1606.06,112.964 1612.08,113.572 1617.99,114.403 1623.73,115.541 1629.42,116.805 1635.12,118.037 1640.8,119.3 1646.44,120.638 1652.03,122.079 1657.55,123.63 1663.01,125.281 1668.43,127.007 1673.84,128.761 1679.26,130.492 1684.68,132.218 1690.1,133.943 1695.52,135.669 1700.94,137.394 1706.36,139.119 1711.78,140.845 1717.2,142.57 1722.63,144.296 1728.05,146.021 1733.47,147.747 1738.89,149.472 1744.31,151.197 1749.73,152.923 1755.16,154.645 1760.58,156.366 1766.01,158.086 1771.43,159.809 1776.85,161.536 1782.26,163.27 1787.67,165.013 1793.07,166.767 1798.45,168.534 1803.83,170.315 1809.19,172.112 1814.54,173.927 1819.87,175.761 1825.18,177.616 1830.47,179.493 1835.74,181.394 1840.99,183.319 1846.21,185.27 1851.41,187.248 1856.59,189.253 1861.74,191.287 1866.86,193.35 1871.96,195.443 1877.03,197.566 1882.06,199.721 1887.07,201.907 1892.04,204.124 1896.99,206.374 1901.9,208.655 1906.77,210.969 1911.62,213.315 1916.43,215.693 1921.2,218.103 1925.94,220.544 1930.65,223.016 1935.32,225.519 1939.96,228.053 1944.56,230.615 1949.13,233.207 1953.66,235.827 1958.15,238.474 1962.61,241.146 1967.04,243.844 1971.43,246.566 1975.78,249.31 1980.1,252.076 1984.39,254.862 1988.67,257.653 1992.98,260.424 1997.32,263.182 2001.68,265.932 2006.04,268.679 2010.4,271.429 2014.75,274.186 2019.08,276.953 2023.38,279.736 2027.65,282.538 2031.88,285.36 2036.07,288.206 2040.21,291.078 2044.31,293.978 2048.35,296.906 2052.34,299.864 2056.27,302.852 2060.15,305.87 2063.98,308.918 2067.75,311.994 2071.48,315.098 2075.15,318.228 2078.79,321.382 2082.38,324.558 2085.94,327.752 2089.48,330.961 2092.99,334.182 2096.49,337.41 2099.99,340.641 2103.49,343.87 2107,347.091 2110.54,350.299 2114.16,353.476 2117.85,356.627 2121.59,359.759 2125.36,362.882 2129.13,366.002 2132.9,369.127 2136.63,372.262 2140.32,375.414 2143.95,378.588 2147.5,381.787 2150.98,385.015 2154.37,388.276 2157.66,391.572 2160.85,394.904 2163.93,398.275 2166.91,401.683 2169.78,405.13 2172.55,408.613 2175.22,412.133 2177.8,415.687 2180.29,419.271 2182.71,422.883 2185.06,426.519 2187.36,430.175 2189.62,433.843 2191.85,437.52 2194.09,441.198 2196.34,444.87 2198.63,448.528 2200.93,452.18 2203.18,455.846 2205.38,459.526 2207.53,463.219 2209.65,466.922 2211.73,470.635 2213.78,474.357 2215.8,478.086 2217.8,481.821 2219.77,485.562 2221.73,489.308 2223.67,493.058 2225.6,496.81 2227.53,500.565 2229.44,504.322 2231.35,508.081 2233.25,511.84 2235.15,515.599 2237.05,519.359 2238.95,523.118 2240.85,526.877 2242.75,530.636 2244.65,534.394 2246.55,538.152 2248.46,541.909 2250.36,545.666 2252.26,549.424 2254.17,553.181 2256.02,556.943 2257.67,560.723 2259.12,564.52 2260.39,568.335 2261.51,572.165 2262.49,576.009 2263.38,579.868 2264.17,583.738 2264.9,587.621 2265.58,591.514 2266.22,595.416 2266.85,599.328 2267.46,603.247 2268.09,607.174 2268.73,611.107 2269.4,615.046 2270.1,618.99 2270.83,622.939 2271.62,626.891 2272.45,630.847 2273.33,634.805 2274.27,638.766 2275.25,642.729 2276.28,646.693 2277.36,650.658 2278.47,654.623 2279.62,658.589 2280.8,662.555 2281.99,666.521 2283.19,670.487 2284.38,674.453 2285.55,678.418 2286.69,682.382 2287.78,686.346 2288.8,690.309 2289.73,694.272 2290.56,698.234 2291.26,702.196 2291.81,706.158 2292.18,710.119 2292.35,714.078 2292.32,718.024 2292.15,721.961 2291.88,725.893 2291.55,729.823 2291.19,733.754 2290.85,737.688 2290.54,741.626 2290.29,745.572 2290.11,749.525 2290.02,753.486 2290.03,757.457 2290.12,761.437 2290.32,765.426 2290.6,769.423 2290.95,773.427 2291.36,777.436 2291.8,781.449 2292.26,785.464 2292.69,789.477 2293.06,793.486 2293.33,797.486 2293.45,801.476 2293.37,805.449 2293.04,809.402 2292.4,813.33 2291.56,817.243 2290.78,821.163 2290.03,825.088 2289.3,829.014 2288.56,832.94 2287.8,836.863 2287.02,840.783 2286.18,844.696 2285.29,848.603 2284.34,852.502 2283.32,856.392 2282.22,860.272 2281.05,864.144 2279.81,868.006 2278.49,871.858 2277.1,875.702 2275.65,879.538 2274.14,883.367 2272.58,887.19 2270.99,891.009 2269.38,894.825 2267.77,898.64 2266.17,902.457 2264.6,906.279 2263.1,910.116 2261.65,913.965 2260.23,917.823 2258.84,921.686 2257.45,925.55 2256.05,929.412 2254.64,933.27 2253.19,937.119 2251.69,940.958 2250.15,944.785 2248.55,948.598 2246.88,952.395 2245.15,956.175 2243.34,959.937 2241.45,963.681 2239.49,967.406 2237.45,971.113 2235.33,974.8 2233.14,978.47 2230.88,982.123 2228.55,985.76 2226.16,989.383 2223.72,992.992 2221.24,996.592 2218.72,1000.18 2216.18,1003.77 2213.63,1007.35 2211.09,1010.94 2208.56,1014.52 2206.06,1018.12 2203.5,1021.69 2200.84,1025.23 2198.07,1028.74 2195.23,1032.22 2192.3,1035.67 2189.3,1039.09 2186.24,1042.5 2183.12,1045.88 2179.95,1049.24 2176.74,1052.59 2173.49,1055.92 2170.2,1059.24 2166.89,1062.55 2163.55,1065.85 2160.19,1069.14 2156.82,1072.42 2153.44,1075.69 2150.04,1078.97 2146.64,1082.23 2143.24,1085.5 2139.83,1088.76 2136.42,1092.02 2133.01,1095.28 2129.6,1098.53 2126.19,1101.79 2122.79,1105.05 2119.38,1108.31 2115.97,1111.56 2112.56,1114.82 2109.11,1118.06 2105.6,1121.28 2102.03,1124.47 2098.4,1127.63 2094.72,1130.76 2090.98,1133.87 2087.19,1136.94 2083.35,1140 2079.45,1143.02 2075.51,1146.02 2071.52,1148.99 2067.48,1151.93 2063.4,1154.85 2059.28,1157.74 2055.11,1160.6 2050.91,1163.44 2046.67,1166.26 2042.39,1169.05 2038.08,1171.82 2033.73,1174.56 2029.35,1177.28 2024.95,1179.99 2020.51,1182.67 2016.05,1185.33 2011.56,1187.97 2007.06,1190.6 2002.53,1193.21 1997.98,1195.81 1993.42,1198.39 1988.83,1200.96 1984.24,1203.52 1979.64,1206.07 1975.02,1208.61 1970.4,1211.14 1965.77,1213.67 1961.14,1216.2 1956.5,1218.72 1951.87,1221.25 1947.23,1223.77 1942.61,1226.3 1937.98,1228.84 1933.38,1231.39 1928.8,1233.97 1924.24,1236.57 1919.7,1239.19 1915.16,1241.81 1910.63,1244.44 1906.09,1247.06 1901.54,1249.67 1896.98,1252.27 1892.4,1254.86 1887.79,1257.42 1883.16,1259.95 1878.5,1262.46 1873.81,1264.93 1869.08,1267.37 1864.32,1269.78 1859.51,1272.15 1854.67,1274.47 1849.78,1276.76 1844.86,1279.01 1839.89,1281.22 1834.88,1283.39 1829.83,1285.52 1824.74,1287.61 1819.61,1289.66 1814.45,1291.68 1809.25,1293.67 1804.02,1295.62 1798.76,1297.55 1793.48,1299.45 1788.17,1301.33 1782.85,1303.2 1777.52,1305.05 1772.18,1306.9 1766.84,1308.75 1761.5,1310.59 1756.17,1312.45 1750.86,1314.33 1745.55,1316.2 1740.22,1318.04 1734.86,1319.84 1729.47,1321.6 1724.06,1323.33 1718.62,1325.02 1713.16,1326.67 1707.68,1328.29 1702.18,1329.87 1696.65,1331.42 1691.11,1332.94 1685.55,1334.43 1679.96,1335.88 1674.36,1337.31 1668.75,1338.71 1663.12,1340.09 1657.48,1341.44 1651.82,1342.77 1646.15,1344.08 1640.47,1345.37 1634.79,1346.64 1629.09,1347.91 1623.39,1349.16 1617.69,1350.41 1611.98,1351.64 1606.27,1352.88 1600.57,1354.12 1594.86,1355.36 1589.16,1356.61 1583.45,1357.85 1577.73,1359.08 1572.01,1360.29 1566.28,1361.49 1560.53,1362.66 1554.78,1363.8 1549.01,1364.92 1543.23,1366 1537.44,1367.06 1531.64,1368.08 1525.83,1369.06 1520.01,1370 1514.17,1370.91 1508.33,1371.77 1502.47,1372.6 1496.6,1373.39 1490.72,1374.13 1484.82,1374.83 1478.92,1375.5 1473,1376.12 1467.08,1376.71 1461.14,1377.26 1455.2,1377.77 1449.25,1378.24 1443.28,1378.69 1437.31,1379.1 1431.34,1379.49 1425.35,1379.85 1419.37,1380.19 1413.37,1380.5 1407.37,1380.8 1401.37,1381.09 1395.37,1381.37 1389.37,1381.65 1383.36,1381.92 1377.36,1382.2 1371.36,1382.49 1365.36,1382.79 1359.36,1383.09 1353.35,1383.35 1347.34,1383.59 1341.32,1383.79 1335.3,1383.96 1329.28,1384.09 1323.26,1384.18 1317.23,1384.23 1311.21,1384.24 1305.19,1384.2 1299.17,1384.13 1293.15,1384.01 1287.14,1383.84 1281.13,1383.63 1275.13,1383.38 1269.13,1383.09 1263.13,1382.75 1257.14,1382.37 1251.16,1381.95 1245.18,1381.49 1239.21,1381 1233.24,1380.47 1227.28,1379.91 1221.32,1379.32 1215.37,1378.7 1209.42,1378.05 1203.48,1377.39 1197.54,1376.7 1191.6,1376 1185.67,1375.29 1179.73,1374.58 1173.8,1373.86 1167.86,1373.15 1161.93,1372.44 1155.99,1371.74 1150.04,1371.08 1144.08,1370.44 1138.11,1369.82 1132.14,1369.21 1126.16,1368.61 1120.19,1368 1114.22,1367.38 1108.26,1366.74 1102.31,1366.08 1096.37,1365.39 1090.44,1364.67 1084.53,1363.91 1078.64,1363.12 1072.76,1362.29 1066.9,1361.41 1061.05,1360.5 1055.23,1359.55 1049.41,1358.56 1043.62,1357.54 1037.84,1356.48 1032.06,1355.39 1026.31,1354.28 1020.55,1353.15 1014.81,1352 1009.07,1350.85 1003.32,1349.69 997.579,1348.55 991.827,1347.42 986.105,1346.23 980.425,1344.97 974.785,1343.64 969.179,1342.24 963.603,1340.78 958.055,1339.28 952.531,1337.73 947.028,1336.14 941.542,1334.52 936.071,1332.88 930.613,1331.21 925.166,1329.53 919.726,1327.83 914.293,1326.13 908.865,1324.41 903.44,1322.69 898.018,1320.96 892.596,1319.24 887.176,1317.51 881.755,1315.78 876.335,1314.06 870.908,1312.33 865.458,1310.63 859.991,1308.94 854.515,1307.25 849.038,1305.56 843.567,1303.86 838.109,1302.14 832.67,1300.41 827.256,1298.65 821.873,1296.86 816.523,1295.03 811.212,1293.16 805.943,1291.26 800.72,1289.31 795.544,1287.31 790.417,1285.26 785.341,1283.16 780.317,1281.02 775.345,1278.82 770.425,1276.58 765.557,1274.28 760.738,1271.94 755.967,1269.55 751.243,1267.11 746.562,1264.64 741.92,1262.12 737.314,1259.57 732.74,1257 728.192,1254.39 723.665,1251.77 719.154,1249.13 714.65,1246.49 710.148,1243.84 705.64,1241.2 701.117,1238.58 696.571,1235.97 691.996,1233.39 687.399,1230.82 682.787,1228.26 678.17,1225.71 673.555,1223.15 668.948,1220.59 664.355,1218.02 659.782,1215.44 655.232,1212.84 650.709,1210.22 646.216,1207.58 641.755,1204.92 637.327,1202.23 632.933,1199.52 628.572,1196.79 624.244,1194.04 619.947,1191.26 615.677,1188.46 611.433,1185.65 607.21,1182.82 603.003,1179.98 598.806,1177.14 594.613,1174.29 590.418,1171.44 586.212,1168.6 582.006,1165.76 577.832,1162.9 573.691,1160.02 569.585,1157.11 565.512,1154.19 561.474,1151.24 557.472,1148.28 553.504,1145.29 549.57,1142.29 545.671,1139.27 541.806,1136.22 537.974,1133.16 534.175,1130.09 530.406,1126.99 526.668,1123.89 522.959,1120.76 519.276,1117.62 515.62,1114.47 511.987,1111.31 508.376,1108.14 504.784,1104.96 501.21,1101.77 497.65,1098.57 494.103,1095.36 490.565,1092.15 487.033,1088.94 483.504,1085.73 479.975,1082.52 476.442,1079.31 472.902,1076.1 469.37,1072.88 465.859,1069.66 462.378,1066.42 458.935,1063.16 455.537,1059.89 452.19,1056.6 448.899,1053.28 445.67,1049.95 442.507,1046.59 439.414,1043.2 436.394,1039.79 433.45,1036.36 430.582,1032.9 427.793,1029.42 425.082,1025.9 422.45,1022.37 419.896,1018.81 417.418,1015.22 415.014,1011.61 412.681,1007.98 410.417,1004.33 408.216,1000.65 406.075,996.963 403.987,993.254 401.947,989.531 399.948,985.795 397.983,982.049 396.044,978.295 394.122,974.535 392.207,970.773 390.291,967.012 388.362,963.254 386.41,959.504 384.408,955.764 382.344,952.032 380.237,948.306 378.104,944.584 375.964,940.862 373.832,937.138 371.723,933.41 369.65,929.676 367.625,925.935 365.657,922.184 363.756,918.423 361.931,914.651 360.186,910.866 358.527,907.068 356.957,903.257 355.48,899.431 354.095,895.591 352.802,891.737 351.599,887.87 350.484,883.989 349.451,880.096 348.495,876.191 347.608,872.276 346.781,868.352 346.005,864.42 345.269,860.482 344.558,856.541 343.861,852.597 343.16,848.654 342.438,844.713 341.681,840.779 340.99,836.849 340.417,832.922 339.928,828.996 339.495,825.072 339.089,821.148 338.688,817.224 338.27,813.299 337.816,809.373 337.31,805.445 336.741,801.516 336.097,797.584 335.372,793.649 334.56,789.712 333.661,785.772 332.676,781.829 331.608,777.882 330.464,773.933 329.253,769.98 327.989,766.025 326.685,762.067 325.36,758.106 324.035,754.143 322.733,750.177 321.481,746.211 320.307,742.243 319.243,738.274 318.325,734.305 317.589,730.337 317.076,726.369 316.829,722.403 316.845,718.439 316.843,714.471 316.792,710.5 316.716,706.527 316.632,702.554 316.56,698.582 316.516,694.612 316.512,690.644 316.562,686.679 316.674,682.719 316.858,678.763 317.118,674.812 317.459,670.866 317.883,666.926 318.39,662.99 318.976,659.06 319.64,655.135 320.374,651.215 321.17,647.298 322.018,643.385 322.907,639.474 323.822,635.565 324.747,631.656 325.663,627.748 326.552,623.837 327.455,619.928 328.435,616.025 329.492,612.129 330.622,608.241 331.825,604.361 333.097,600.49 334.437,596.629 335.842,592.777 337.31,588.936 338.838,585.104 340.424,581.283 342.066,577.472 343.76,573.672 345.503,569.882 347.293,566.101 349.127,562.331 351.002,558.57 352.915,554.818 354.863,551.075 356.841,547.339 358.848,543.611 360.879,539.89 362.931,536.175 365.001,532.464 367.085,528.757 369.179,525.054 371.279,521.352 373.381,517.651 375.482,513.949 377.577,510.246 379.665,506.539 381.76,502.831 383.873,499.125 386.009,495.422 388.173,491.725 390.368,488.036 392.6,484.357 394.872,480.689 397.187,477.033 399.548,473.392 401.957,469.765 404.417,466.155 406.929,462.562 409.493,458.986 412.112,455.428 414.785,451.889 417.512,448.368 420.293,444.865 423.127,441.381 426.012,437.915 428.947,434.467 431.929,431.035 434.957,427.619 438.027,424.218 441.135,420.831 444.278,417.457 447.452,414.094 450.652,410.739 453.873,407.393 457.109,404.052 460.355,400.715 463.604,397.378 466.85,394.041 470.085,390.7 473.302,387.351 476.498,383.992 479.682,380.624 482.861,377.253 486.044,373.881 489.239,370.514 492.452,367.156 495.691,363.809 498.96,360.477 502.265,357.163 505.611,353.869 509.001,350.598 512.438,347.351 515.926,344.129 519.467,340.934 523.062,337.768 526.711,334.629 530.416,331.52 534.176,328.438 537.991,325.385 541.857,322.359 545.774,319.36 549.739,316.385 553.748,313.434 557.797,310.504 561.882,307.592 565.998,304.697 570.139,301.814 574.299,298.941 578.47,296.075 582.645,293.21 586.816,290.343 590.974,287.47 595.111,284.586 599.274,281.72 603.487,278.889 607.746,276.089 612.049,273.32 616.392,270.579 620.774,267.865 625.191,265.175 629.641,262.509 634.12,259.865 638.627,257.241 643.159,254.635 647.715,252.046 652.29,249.473 656.884,246.913 661.495,244.367 666.12,241.831 670.757,239.305 675.405,236.788 680.062,234.278 684.726,231.774 689.396,229.275 694.07,226.779 698.747,224.286 703.426,221.794 708.105,219.302 712.782,216.81 717.458,214.316 722.148,211.834 726.876,209.386 731.642,206.974 736.445,204.596 741.285,202.253 746.16,199.943 751.071,197.666 756.015,195.422 760.992,193.209 766.002,191.027 771.041,188.875 776.11,186.752 781.207,184.657 786.33,182.588 791.479,180.544 796.651,178.524 801.845,176.526 807.059,174.549 812.292,172.59 817.542,170.649 822.806,168.723 828.083,166.81 833.371,164.909 838.667,163.016 843.97,161.13 849.278,159.249 854.586,157.37 859.895,155.49 865.201,153.607 870.502,151.719 875.821,149.857 881.168,148.035 886.544,146.254 891.946,144.512 897.374,142.809 902.828,141.145 908.307,139.518 913.809,137.929 919.333,136.376 924.879,134.857 930.446,133.372 936.032,131.919 941.636,130.496 947.256,129.101 952.893,127.733 958.543,126.39 964.206,125.069 969.881,123.768 975.565,122.484 981.258,121.215 986.957,119.958 992.661,118.71 998.368,117.469 1004.08,116.23 1009.79,114.99 1015.49,113.747 1021.2,112.499 1026.91,111.28 1032.65,110.099 1038.4,108.959 1044.16,107.863 1049.95,106.813 1055.75,105.81 1061.57,104.855 1067.4,103.948 1073.26,103.09 1079.13,102.28 1085.01,101.516 1090.91,100.798 1096.82,100.122 1102.75,99.4871 1108.69,98.8887 1114.64,98.3235 1120.6,97.7873 1126.56,97.2753 1132.54,96.7821 1138.51,96.302 1144.49,95.8287 1150.47,95.3552 1156.44,94.8742 1162.42,94.3765 1168.39,93.8581 1174.35,93.3302 1180.32,92.8038 1186.29,92.288 1192.26,91.7901 1198.24,91.3156 1204.21,90.8684 1210.2,90.4504 1216.18,90.062 1222.17,89.7015 1228.16,89.3657 1234.16,89.0496 1240.16,88.7462 1246.15,88.447 1252.15,88.1417 "/>
<path clip-path="url(#clip310)" d="M327.056 1377.32 L750.198 1377.32 L750.198 1221.8 L327.056 1221.8  Z" fill="#ffffff" fill-rule="evenodd" fill-opacity="1"/>
<polyline clip-path="url(#clip310)" style="stroke:#000000; stroke-linecap:round; stroke-linejoin:round; stroke-width:4; stroke-opacity:1; fill:none" points="327.056,1377.32 750.198,1377.32 750.198,1221.8 327.056,1221.8 327.056,1377.32 "/>
<polyline clip-path="url(#clip310)" style="stroke:#009af9; stroke-linecap:round; stroke-linejoin:round; stroke-width:16; stroke-opacity:1; fill:none" points="350.34,1273.64 490.043,1273.64 "/>
<path clip-path="url(#clip310)" d="M529.345 1259.53 Q524.253 1259.53 521.244 1263.32 Q518.258 1267.12 518.258 1273.67 Q518.258 1280.2 521.244 1283.99 Q524.253 1287.79 529.345 1287.79 Q534.438 1287.79 537.401 1283.99 Q540.387 1280.2 540.387 1273.67 Q540.387 1267.12 537.401 1263.32 Q534.438 1259.53 529.345 1259.53 M529.345 1255.73 Q536.614 1255.73 540.966 1260.61 Q545.318 1265.48 545.318 1273.67 Q545.318 1281.84 540.966 1286.73 Q536.614 1291.59 529.345 1291.59 Q522.054 1291.59 517.679 1286.73 Q513.327 1281.86 513.327 1273.67 Q513.327 1265.48 517.679 1260.61 Q522.054 1255.73 529.345 1255.73 Z" fill="#000000" fill-rule="nonzero" fill-opacity="1" /><path clip-path="url(#clip310)" d="M567.47 1268.97 Q566.753 1268.55 565.896 1268.37 Q565.063 1268.16 564.044 1268.16 Q560.433 1268.16 558.489 1270.52 Q556.568 1272.86 556.568 1277.26 L556.568 1290.92 L552.285 1290.92 L552.285 1264.99 L556.568 1264.99 L556.568 1269.02 Q557.91 1266.66 560.063 1265.52 Q562.216 1264.36 565.294 1264.36 Q565.734 1264.36 566.267 1264.43 Q566.799 1264.48 567.447 1264.6 L567.47 1268.97 Z" fill="#000000" fill-rule="nonzero" fill-opacity="1" /><path clip-path="url(#clip310)" d="M571.938 1264.99 L576.197 1264.99 L576.197 1290.92 L571.938 1290.92 L571.938 1264.99 M571.938 1254.9 L576.197 1254.9 L576.197 1260.29 L571.938 1260.29 L571.938 1254.9 Z" fill="#000000" fill-rule="nonzero" fill-opacity="1" /><path clip-path="url(#clip310)" d="M602.169 1277.65 Q602.169 1273.02 600.248 1270.48 Q598.35 1267.93 594.901 1267.93 Q591.475 1267.93 589.553 1270.48 Q587.655 1273.02 587.655 1277.65 Q587.655 1282.26 589.553 1284.8 Q591.475 1287.35 594.901 1287.35 Q598.35 1287.35 600.248 1284.8 Q602.169 1282.26 602.169 1277.65 M606.428 1287.7 Q606.428 1294.32 603.489 1297.54 Q600.549 1300.78 594.484 1300.78 Q592.239 1300.78 590.248 1300.43 Q588.257 1300.11 586.382 1299.41 L586.382 1295.27 Q588.257 1296.29 590.086 1296.77 Q591.915 1297.26 593.813 1297.26 Q598.003 1297.26 600.086 1295.06 Q602.169 1292.88 602.169 1288.46 L602.169 1286.36 Q600.85 1288.65 598.79 1289.78 Q596.729 1290.92 593.859 1290.92 Q589.091 1290.92 586.174 1287.28 Q583.257 1283.65 583.257 1277.65 Q583.257 1271.63 586.174 1268 Q589.091 1264.36 593.859 1264.36 Q596.729 1264.36 598.79 1265.5 Q600.85 1266.63 602.169 1268.92 L602.169 1264.99 L606.428 1264.99 L606.428 1287.7 Z" fill="#000000" fill-rule="nonzero" fill-opacity="1" /><path clip-path="url(#clip310)" d="M615.201 1264.99 L619.461 1264.99 L619.461 1290.92 L615.201 1290.92 L615.201 1264.99 M615.201 1254.9 L619.461 1254.9 L619.461 1260.29 L615.201 1260.29 L615.201 1254.9 Z" fill="#000000" fill-rule="nonzero" fill-opacity="1" /><path clip-path="url(#clip310)" d="M649.924 1275.27 L649.924 1290.92 L645.664 1290.92 L645.664 1275.41 Q645.664 1271.73 644.229 1269.9 Q642.794 1268.07 639.924 1268.07 Q636.475 1268.07 634.484 1270.27 Q632.493 1272.47 632.493 1276.26 L632.493 1290.92 L628.211 1290.92 L628.211 1264.99 L632.493 1264.99 L632.493 1269.02 Q634.021 1266.68 636.081 1265.52 Q638.164 1264.36 640.873 1264.36 Q645.34 1264.36 647.632 1267.14 Q649.924 1269.9 649.924 1275.27 Z" fill="#000000" fill-rule="nonzero" fill-opacity="1" /><path clip-path="url(#clip310)" d="M670.201 1277.88 Q665.039 1277.88 663.048 1279.06 Q661.058 1280.24 661.058 1283.09 Q661.058 1285.36 662.539 1286.7 Q664.044 1288.02 666.613 1288.02 Q670.155 1288.02 672.285 1285.52 Q674.437 1283 674.437 1278.83 L674.437 1277.88 L670.201 1277.88 M678.697 1276.12 L678.697 1290.92 L674.437 1290.92 L674.437 1286.98 Q672.979 1289.34 670.803 1290.48 Q668.627 1291.59 665.479 1291.59 Q661.498 1291.59 659.136 1289.36 Q656.798 1287.12 656.798 1283.37 Q656.798 1278.99 659.715 1276.77 Q662.655 1274.55 668.465 1274.55 L674.437 1274.55 L674.437 1274.13 Q674.437 1271.19 672.493 1269.6 Q670.572 1267.98 667.076 1267.98 Q664.854 1267.98 662.748 1268.51 Q660.641 1269.04 658.697 1270.11 L658.697 1266.17 Q661.035 1265.27 663.234 1264.83 Q665.433 1264.36 667.516 1264.36 Q673.141 1264.36 675.919 1267.28 Q678.697 1270.2 678.697 1276.12 Z" fill="#000000" fill-rule="nonzero" fill-opacity="1" /><path clip-path="url(#clip310)" d="M687.47 1254.9 L691.729 1254.9 L691.729 1290.92 L687.47 1290.92 L687.47 1254.9 Z" fill="#000000" fill-rule="nonzero" fill-opacity="1" /><polyline clip-path="url(#clip310)" style="stroke:#e26f46; stroke-linecap:round; stroke-linejoin:round; stroke-width:16; stroke-opacity:1; fill:none" points="350.34,1325.48 490.043,1325.48 "/>
<path clip-path="url(#clip310)" d="M518.003 1312.04 L518.003 1325.02 L523.883 1325.02 Q527.146 1325.02 528.929 1323.33 Q530.711 1321.64 530.711 1318.52 Q530.711 1315.42 528.929 1313.73 Q527.146 1312.04 523.883 1312.04 L518.003 1312.04 M513.327 1308.2 L523.883 1308.2 Q529.693 1308.2 532.656 1310.83 Q535.642 1313.45 535.642 1318.52 Q535.642 1323.64 532.656 1326.25 Q529.693 1328.87 523.883 1328.87 L518.003 1328.87 L518.003 1342.76 L513.327 1342.76 L513.327 1308.2 Z" fill="#000000" fill-rule="nonzero" fill-opacity="1" /><path clip-path="url(#clip310)" d="M555.919 1320.81 Q555.202 1320.39 554.345 1320.21 Q553.512 1320 552.493 1320 Q548.882 1320 546.938 1322.36 Q545.017 1324.7 545.017 1329.1 L545.017 1342.76 L540.734 1342.76 L540.734 1316.83 L545.017 1316.83 L545.017 1320.86 Q546.359 1318.5 548.512 1317.36 Q550.665 1316.2 553.743 1316.2 Q554.183 1316.2 554.716 1316.27 Q555.248 1316.32 555.896 1316.44 L555.919 1320.81 Z" fill="#000000" fill-rule="nonzero" fill-opacity="1" /><path clip-path="url(#clip310)" d="M581.521 1328.73 L581.521 1330.81 L561.938 1330.81 Q562.216 1335.21 564.577 1337.52 Q566.961 1339.82 571.197 1339.82 Q573.651 1339.82 575.942 1339.21 Q578.257 1338.61 580.526 1337.41 L580.526 1341.44 Q578.234 1342.41 575.827 1342.92 Q573.419 1343.43 570.942 1343.43 Q564.739 1343.43 561.105 1339.82 Q557.493 1336.2 557.493 1330.05 Q557.493 1323.68 560.919 1319.95 Q564.368 1316.2 570.202 1316.2 Q575.433 1316.2 578.466 1319.58 Q581.521 1322.94 581.521 1328.73 M577.262 1327.48 Q577.216 1323.98 575.294 1321.9 Q573.396 1319.82 570.248 1319.82 Q566.683 1319.82 564.53 1321.83 Q562.401 1323.84 562.077 1327.5 L577.262 1327.48 Z" fill="#000000" fill-rule="nonzero" fill-opacity="1" /><path clip-path="url(#clip310)" d="M605.572 1320.76 L605.572 1306.74 L609.831 1306.74 L609.831 1342.76 L605.572 1342.76 L605.572 1338.87 Q604.229 1341.18 602.169 1342.32 Q600.132 1343.43 597.262 1343.43 Q592.563 1343.43 589.6 1339.68 Q586.66 1335.93 586.66 1329.82 Q586.66 1323.7 589.6 1319.95 Q592.563 1316.2 597.262 1316.2 Q600.132 1316.2 602.169 1317.34 Q604.229 1318.45 605.572 1320.76 M591.058 1329.82 Q591.058 1334.51 592.979 1337.2 Q594.924 1339.86 598.303 1339.86 Q601.683 1339.86 603.627 1337.2 Q605.572 1334.51 605.572 1329.82 Q605.572 1325.12 603.627 1322.45 Q601.683 1319.77 598.303 1319.77 Q594.924 1319.77 592.979 1322.45 Q591.058 1325.12 591.058 1329.82 Z" fill="#000000" fill-rule="nonzero" fill-opacity="1" /><path clip-path="url(#clip310)" d="M618.604 1316.83 L622.863 1316.83 L622.863 1342.76 L618.604 1342.76 L618.604 1316.83 M618.604 1306.74 L622.863 1306.74 L622.863 1312.13 L618.604 1312.13 L618.604 1306.74 Z" fill="#000000" fill-rule="nonzero" fill-opacity="1" /><path clip-path="url(#clip310)" d="M650.433 1317.82 L650.433 1321.81 Q648.627 1320.81 646.799 1320.32 Q644.993 1319.82 643.141 1319.82 Q638.998 1319.82 636.706 1322.45 Q634.414 1325.07 634.414 1329.82 Q634.414 1334.56 636.706 1337.2 Q638.998 1339.82 643.141 1339.82 Q644.993 1339.82 646.799 1339.33 Q648.627 1338.82 650.433 1337.82 L650.433 1341.76 Q648.65 1342.59 646.729 1343.01 Q644.831 1343.43 642.678 1343.43 Q636.822 1343.43 633.373 1339.75 Q629.924 1336.07 629.924 1329.82 Q629.924 1323.47 633.396 1319.84 Q636.891 1316.2 642.956 1316.2 Q644.924 1316.2 646.799 1316.62 Q648.674 1317.01 650.433 1317.82 Z" fill="#000000" fill-rule="nonzero" fill-opacity="1" /><path clip-path="url(#clip310)" d="M662.053 1309.47 L662.053 1316.83 L670.826 1316.83 L670.826 1320.14 L662.053 1320.14 L662.053 1334.21 Q662.053 1337.38 662.91 1338.29 Q663.789 1339.19 666.451 1339.19 L670.826 1339.19 L670.826 1342.76 L666.451 1342.76 Q661.521 1342.76 659.646 1340.93 Q657.771 1339.07 657.771 1334.21 L657.771 1320.14 L654.646 1320.14 L654.646 1316.83 L657.771 1316.83 L657.771 1309.47 L662.053 1309.47 Z" fill="#000000" fill-rule="nonzero" fill-opacity="1" /><path clip-path="url(#clip310)" d="M698.604 1328.73 L698.604 1330.81 L679.021 1330.81 Q679.298 1335.21 681.659 1337.52 Q684.044 1339.82 688.28 1339.82 Q690.733 1339.82 693.025 1339.21 Q695.34 1338.61 697.608 1337.41 L697.608 1341.44 Q695.317 1342.41 692.909 1342.92 Q690.502 1343.43 688.025 1343.43 Q681.822 1343.43 678.187 1339.82 Q674.576 1336.2 674.576 1330.05 Q674.576 1323.68 678.002 1319.95 Q681.451 1316.2 687.284 1316.2 Q692.516 1316.2 695.548 1319.58 Q698.604 1322.94 698.604 1328.73 M694.345 1327.48 Q694.298 1323.98 692.377 1321.9 Q690.479 1319.82 687.331 1319.82 Q683.766 1319.82 681.613 1321.83 Q679.484 1323.84 679.159 1327.5 L694.345 1327.48 Z" fill="#000000" fill-rule="nonzero" fill-opacity="1" /><path clip-path="url(#clip310)" d="M722.655 1320.76 L722.655 1306.74 L726.914 1306.74 L726.914 1342.76 L722.655 1342.76 L722.655 1338.87 Q721.312 1341.18 719.252 1342.32 Q717.215 1343.43 714.344 1343.43 Q709.645 1343.43 706.682 1339.68 Q703.743 1335.93 703.743 1329.82 Q703.743 1323.7 706.682 1319.95 Q709.645 1316.2 714.344 1316.2 Q717.215 1316.2 719.252 1317.34 Q721.312 1318.45 722.655 1320.76 M708.141 1329.82 Q708.141 1334.51 710.062 1337.2 Q712.007 1339.86 715.386 1339.86 Q718.766 1339.86 720.71 1337.2 Q722.655 1334.51 722.655 1329.82 Q722.655 1325.12 720.71 1322.45 Q718.766 1319.77 715.386 1319.77 Q712.007 1319.77 710.062 1322.45 Q708.141 1325.12 708.141 1329.82 Z" fill="#000000" fill-rule="nonzero" fill-opacity="1" /></svg>
