<?xml version="1.0" encoding="utf-8"?>
<svg xmlns="http://www.w3.org/2000/svg" xmlns:xlink="http://www.w3.org/1999/xlink" width="600" height="400" viewBox="0 0 2400 1600">
<defs>
  <clipPath id="clip650">
    <rect x="0" y="0" width="2400" height="1600"/>
  </clipPath>
</defs>
<path clip-path="url(#clip650)" d="M0 1600 L2400 1600 L2400 0 L0 0  Z" fill="#ffffff" fill-rule="evenodd" fill-opacity="1"/>
<defs>
  <clipPath id="clip651">
    <rect x="480" y="0" width="1681" height="1600"/>
  </clipPath>
</defs>
<path clip-path="url(#clip650)" d="M148.057 1486.45 L2352.76 1486.45 L2352.76 47.2441 L148.057 47.2441  Z" fill="#ffffff" fill-rule="evenodd" fill-opacity="1"/>
<defs>
  <clipPath id="clip652">
    <rect x="148" y="47" width="2206" height="1440"/>
  </clipPath>
</defs>
<polyline clip-path="url(#clip652)" style="stroke:#000000; stroke-linecap:round; stroke-linejoin:round; stroke-width:2; stroke-opacity:0.1; fill:none" points="210.454,1486.45 210.454,47.2441 "/>
<polyline clip-path="url(#clip652)" style="stroke:#000000; stroke-linecap:round; stroke-linejoin:round; stroke-width:2; stroke-opacity:0.1; fill:none" points="730.43,1486.45 730.43,47.2441 "/>
<polyline clip-path="url(#clip652)" style="stroke:#000000; stroke-linecap:round; stroke-linejoin:round; stroke-width:2; stroke-opacity:0.1; fill:none" points="1250.41,1486.45 1250.41,47.2441 "/>
<polyline clip-path="url(#clip652)" style="stroke:#000000; stroke-linecap:round; stroke-linejoin:round; stroke-width:2; stroke-opacity:0.1; fill:none" points="1770.38,1486.45 1770.38,47.2441 "/>
<polyline clip-path="url(#clip652)" style="stroke:#000000; stroke-linecap:round; stroke-linejoin:round; stroke-width:2; stroke-opacity:0.1; fill:none" points="2290.36,1486.45 2290.36,47.2441 "/>
<polyline clip-path="url(#clip652)" style="stroke:#000000; stroke-linecap:round; stroke-linejoin:round; stroke-width:2; stroke-opacity:0.1; fill:none" points="148.057,1433.25 2352.76,1433.25 "/>
<polyline clip-path="url(#clip652)" style="stroke:#000000; stroke-linecap:round; stroke-linejoin:round; stroke-width:2; stroke-opacity:0.1; fill:none" points="148.057,1206.48 2352.76,1206.48 "/>
<polyline clip-path="url(#clip652)" style="stroke:#000000; stroke-linecap:round; stroke-linejoin:round; stroke-width:2; stroke-opacity:0.1; fill:none" points="148.057,979.708 2352.76,979.708 "/>
<polyline clip-path="url(#clip652)" style="stroke:#000000; stroke-linecap:round; stroke-linejoin:round; stroke-width:2; stroke-opacity:0.1; fill:none" points="148.057,752.935 2352.76,752.935 "/>
<polyline clip-path="url(#clip652)" style="stroke:#000000; stroke-linecap:round; stroke-linejoin:round; stroke-width:2; stroke-opacity:0.1; fill:none" points="148.057,526.162 2352.76,526.162 "/>
<polyline clip-path="url(#clip652)" style="stroke:#000000; stroke-linecap:round; stroke-linejoin:round; stroke-width:2; stroke-opacity:0.1; fill:none" points="148.057,299.389 2352.76,299.389 "/>
<polyline clip-path="url(#clip652)" style="stroke:#000000; stroke-linecap:round; stroke-linejoin:round; stroke-width:2; stroke-opacity:0.1; fill:none" points="148.057,72.6166 2352.76,72.6166 "/>
<polyline clip-path="url(#clip650)" style="stroke:#000000; stroke-linecap:round; stroke-linejoin:round; stroke-width:4; stroke-opacity:1; fill:none" points="148.057,1486.45 2352.76,1486.45 "/>
<polyline clip-path="url(#clip650)" style="stroke:#000000; stroke-linecap:round; stroke-linejoin:round; stroke-width:4; stroke-opacity:1; fill:none" points="210.454,1486.45 210.454,1467.55 "/>
<polyline clip-path="url(#clip650)" style="stroke:#000000; stroke-linecap:round; stroke-linejoin:round; stroke-width:4; stroke-opacity:1; fill:none" points="730.43,1486.45 730.43,1467.55 "/>
<polyline clip-path="url(#clip650)" style="stroke:#000000; stroke-linecap:round; stroke-linejoin:round; stroke-width:4; stroke-opacity:1; fill:none" points="1250.41,1486.45 1250.41,1467.55 "/>
<polyline clip-path="url(#clip650)" style="stroke:#000000; stroke-linecap:round; stroke-linejoin:round; stroke-width:4; stroke-opacity:1; fill:none" points="1770.38,1486.45 1770.38,1467.55 "/>
<polyline clip-path="url(#clip650)" style="stroke:#000000; stroke-linecap:round; stroke-linejoin:round; stroke-width:4; stroke-opacity:1; fill:none" points="2290.36,1486.45 2290.36,1467.55 "/>
<path clip-path="url(#clip650)" d="M172.757 1517.37 Q169.146 1517.37 167.317 1520.93 Q165.512 1524.47 165.512 1531.6 Q165.512 1538.71 167.317 1542.27 Q169.146 1545.82 172.757 1545.82 Q176.391 1545.82 178.197 1542.27 Q180.026 1538.71 180.026 1531.6 Q180.026 1524.47 178.197 1520.93 Q176.391 1517.37 172.757 1517.37 M172.757 1513.66 Q178.567 1513.66 181.623 1518.27 Q184.702 1522.85 184.702 1531.6 Q184.702 1540.33 181.623 1544.94 Q178.567 1549.52 172.757 1549.52 Q166.947 1549.52 163.868 1544.94 Q160.813 1540.33 160.813 1531.6 Q160.813 1522.85 163.868 1518.27 Q166.947 1513.66 172.757 1513.66 Z" fill="#000000" fill-rule="nonzero" fill-opacity="1" /><path clip-path="url(#clip650)" d="M192.919 1542.97 L197.803 1542.97 L197.803 1548.85 L192.919 1548.85 L192.919 1542.97 Z" fill="#000000" fill-rule="nonzero" fill-opacity="1" /><path clip-path="url(#clip650)" d="M217.988 1517.37 Q214.377 1517.37 212.549 1520.93 Q210.743 1524.47 210.743 1531.6 Q210.743 1538.71 212.549 1542.27 Q214.377 1545.82 217.988 1545.82 Q221.623 1545.82 223.428 1542.27 Q225.257 1538.71 225.257 1531.6 Q225.257 1524.47 223.428 1520.93 Q221.623 1517.37 217.988 1517.37 M217.988 1513.66 Q223.799 1513.66 226.854 1518.27 Q229.933 1522.85 229.933 1531.6 Q229.933 1540.33 226.854 1544.94 Q223.799 1549.52 217.988 1549.52 Q212.178 1549.52 209.1 1544.94 Q206.044 1540.33 206.044 1531.6 Q206.044 1522.85 209.1 1518.27 Q212.178 1513.66 217.988 1513.66 Z" fill="#000000" fill-rule="nonzero" fill-opacity="1" /><path clip-path="url(#clip650)" d="M248.15 1517.37 Q244.539 1517.37 242.711 1520.93 Q240.905 1524.47 240.905 1531.6 Q240.905 1538.71 242.711 1542.27 Q244.539 1545.82 248.15 1545.82 Q251.785 1545.82 253.59 1542.27 Q255.419 1538.71 255.419 1531.6 Q255.419 1524.47 253.59 1520.93 Q251.785 1517.37 248.15 1517.37 M248.15 1513.66 Q253.96 1513.66 257.016 1518.27 Q260.095 1522.85 260.095 1531.6 Q260.095 1540.33 257.016 1544.94 Q253.96 1549.52 248.15 1549.52 Q242.34 1549.52 239.261 1544.94 Q236.206 1540.33 236.206 1531.6 Q236.206 1522.85 239.261 1518.27 Q242.34 1513.66 248.15 1513.66 Z" fill="#000000" fill-rule="nonzero" fill-opacity="1" /><path clip-path="url(#clip650)" d="M693.231 1517.37 Q689.62 1517.37 687.791 1520.93 Q685.986 1524.47 685.986 1531.6 Q685.986 1538.71 687.791 1542.27 Q689.62 1545.82 693.231 1545.82 Q696.865 1545.82 698.671 1542.27 Q700.5 1538.71 700.5 1531.6 Q700.5 1524.47 698.671 1520.93 Q696.865 1517.37 693.231 1517.37 M693.231 1513.66 Q699.041 1513.66 702.097 1518.27 Q705.176 1522.85 705.176 1531.6 Q705.176 1540.33 702.097 1544.94 Q699.041 1549.52 693.231 1549.52 Q687.421 1549.52 684.342 1544.94 Q681.287 1540.33 681.287 1531.6 Q681.287 1522.85 684.342 1518.27 Q687.421 1513.66 693.231 1513.66 Z" fill="#000000" fill-rule="nonzero" fill-opacity="1" /><path clip-path="url(#clip650)" d="M713.393 1542.97 L718.277 1542.97 L718.277 1548.85 L713.393 1548.85 L713.393 1542.97 Z" fill="#000000" fill-rule="nonzero" fill-opacity="1" /><path clip-path="url(#clip650)" d="M732.49 1544.91 L748.81 1544.91 L748.81 1548.85 L726.865 1548.85 L726.865 1544.91 Q729.527 1542.16 734.111 1537.53 Q738.717 1532.88 739.898 1531.53 Q742.143 1529.01 743.023 1527.27 Q743.925 1525.51 743.925 1523.82 Q743.925 1521.07 741.981 1519.33 Q740.06 1517.6 736.958 1517.6 Q734.759 1517.6 732.305 1518.36 Q729.874 1519.13 727.097 1520.68 L727.097 1515.95 Q729.921 1514.82 732.374 1514.24 Q734.828 1513.66 736.865 1513.66 Q742.236 1513.66 745.43 1516.35 Q748.624 1519.03 748.624 1523.52 Q748.624 1525.65 747.814 1527.57 Q747.027 1529.47 744.921 1532.07 Q744.342 1532.74 741.24 1535.95 Q738.138 1539.15 732.49 1544.91 Z" fill="#000000" fill-rule="nonzero" fill-opacity="1" /><path clip-path="url(#clip650)" d="M758.671 1514.29 L777.027 1514.29 L777.027 1518.22 L762.953 1518.22 L762.953 1526.7 Q763.971 1526.35 764.99 1526.19 Q766.009 1526 767.027 1526 Q772.814 1526 776.194 1529.17 Q779.573 1532.34 779.573 1537.76 Q779.573 1543.34 776.101 1546.44 Q772.629 1549.52 766.309 1549.52 Q764.134 1549.52 761.865 1549.15 Q759.62 1548.78 757.212 1548.04 L757.212 1543.34 Q759.296 1544.47 761.518 1545.03 Q763.74 1545.58 766.217 1545.58 Q770.221 1545.58 772.559 1543.48 Q774.897 1541.37 774.897 1537.76 Q774.897 1534.15 772.559 1532.04 Q770.221 1529.94 766.217 1529.94 Q764.342 1529.94 762.467 1530.35 Q760.615 1530.77 758.671 1531.65 L758.671 1514.29 Z" fill="#000000" fill-rule="nonzero" fill-opacity="1" /><path clip-path="url(#clip650)" d="M1212.71 1517.37 Q1209.1 1517.37 1207.27 1520.93 Q1205.46 1524.47 1205.46 1531.6 Q1205.46 1538.71 1207.27 1542.27 Q1209.1 1545.82 1212.71 1545.82 Q1216.34 1545.82 1218.15 1542.27 Q1219.98 1538.71 1219.98 1531.6 Q1219.98 1524.47 1218.15 1520.93 Q1216.34 1517.37 1212.71 1517.37 M1212.71 1513.66 Q1218.52 1513.66 1221.58 1518.27 Q1224.65 1522.85 1224.65 1531.6 Q1224.65 1540.33 1221.58 1544.94 Q1218.52 1549.52 1212.71 1549.52 Q1206.9 1549.52 1203.82 1544.94 Q1200.77 1540.33 1200.77 1531.6 Q1200.77 1522.85 1203.82 1518.27 Q1206.9 1513.66 1212.71 1513.66 Z" fill="#000000" fill-rule="nonzero" fill-opacity="1" /><path clip-path="url(#clip650)" d="M1232.87 1542.97 L1237.76 1542.97 L1237.76 1548.85 L1232.87 1548.85 L1232.87 1542.97 Z" fill="#000000" fill-rule="nonzero" fill-opacity="1" /><path clip-path="url(#clip650)" d="M1247.99 1514.29 L1266.34 1514.29 L1266.34 1518.22 L1252.27 1518.22 L1252.27 1526.7 Q1253.29 1526.35 1254.31 1526.19 Q1255.33 1526 1256.34 1526 Q1262.13 1526 1265.51 1529.17 Q1268.89 1532.34 1268.89 1537.76 Q1268.89 1543.34 1265.42 1546.44 Q1261.95 1549.52 1255.63 1549.52 Q1253.45 1549.52 1251.18 1549.15 Q1248.94 1548.78 1246.53 1548.04 L1246.53 1543.34 Q1248.61 1544.47 1250.83 1545.03 Q1253.06 1545.58 1255.53 1545.58 Q1259.54 1545.58 1261.88 1543.48 Q1264.21 1541.37 1264.21 1537.76 Q1264.21 1534.15 1261.88 1532.04 Q1259.54 1529.94 1255.53 1529.94 Q1253.66 1529.94 1251.78 1530.35 Q1249.93 1530.77 1247.99 1531.65 L1247.99 1514.29 Z" fill="#000000" fill-rule="nonzero" fill-opacity="1" /><path clip-path="url(#clip650)" d="M1288.1 1517.37 Q1284.49 1517.37 1282.66 1520.93 Q1280.86 1524.47 1280.86 1531.6 Q1280.86 1538.71 1282.66 1542.27 Q1284.49 1545.82 1288.1 1545.82 Q1291.74 1545.82 1293.54 1542.27 Q1295.37 1538.71 1295.37 1531.6 Q1295.37 1524.47 1293.54 1520.93 Q1291.74 1517.37 1288.1 1517.37 M1288.1 1513.66 Q1293.91 1513.66 1296.97 1518.27 Q1300.05 1522.85 1300.05 1531.6 Q1300.05 1540.33 1296.97 1544.94 Q1293.91 1549.52 1288.1 1549.52 Q1282.29 1549.52 1279.21 1544.94 Q1276.16 1540.33 1276.16 1531.6 Q1276.16 1522.85 1279.21 1518.27 Q1282.29 1513.66 1288.1 1513.66 Z" fill="#000000" fill-rule="nonzero" fill-opacity="1" /><path clip-path="url(#clip650)" d="M1733.18 1517.37 Q1729.57 1517.37 1727.74 1520.93 Q1725.94 1524.47 1725.94 1531.6 Q1725.94 1538.71 1727.74 1542.27 Q1729.57 1545.82 1733.18 1545.82 Q1736.82 1545.82 1738.62 1542.27 Q1740.45 1538.71 1740.45 1531.6 Q1740.45 1524.47 1738.62 1520.93 Q1736.82 1517.37 1733.18 1517.37 M1733.18 1513.66 Q1738.99 1513.66 1742.05 1518.27 Q1745.13 1522.85 1745.13 1531.6 Q1745.13 1540.33 1742.05 1544.94 Q1738.99 1549.52 1733.18 1549.52 Q1727.37 1549.52 1724.29 1544.94 Q1721.24 1540.33 1721.24 1531.6 Q1721.24 1522.85 1724.29 1518.27 Q1727.37 1513.66 1733.18 1513.66 Z" fill="#000000" fill-rule="nonzero" fill-opacity="1" /><path clip-path="url(#clip650)" d="M1753.35 1542.97 L1758.23 1542.97 L1758.23 1548.85 L1753.35 1548.85 L1753.35 1542.97 Z" fill="#000000" fill-rule="nonzero" fill-opacity="1" /><path clip-path="url(#clip650)" d="M1767.23 1514.29 L1789.46 1514.29 L1789.46 1516.28 L1776.91 1548.85 L1772.03 1548.85 L1783.83 1518.22 L1767.23 1518.22 L1767.23 1514.29 Z" fill="#000000" fill-rule="nonzero" fill-opacity="1" /><path clip-path="url(#clip650)" d="M1798.62 1514.29 L1816.98 1514.29 L1816.98 1518.22 L1802.91 1518.22 L1802.91 1526.7 Q1803.92 1526.35 1804.94 1526.19 Q1805.96 1526 1806.98 1526 Q1812.77 1526 1816.15 1529.17 Q1819.53 1532.34 1819.53 1537.76 Q1819.53 1543.34 1816.05 1546.44 Q1812.58 1549.52 1806.26 1549.52 Q1804.09 1549.52 1801.82 1549.15 Q1799.57 1548.78 1797.16 1548.04 L1797.16 1543.34 Q1799.25 1544.47 1801.47 1545.03 Q1803.69 1545.58 1806.17 1545.58 Q1810.17 1545.58 1812.51 1543.48 Q1814.85 1541.37 1814.85 1537.76 Q1814.85 1534.15 1812.51 1532.04 Q1810.17 1529.94 1806.17 1529.94 Q1804.29 1529.94 1802.42 1530.35 Q1800.57 1530.77 1798.62 1531.65 L1798.62 1514.29 Z" fill="#000000" fill-rule="nonzero" fill-opacity="1" /><path clip-path="url(#clip650)" d="M2242.43 1544.91 L2250.07 1544.91 L2250.07 1518.55 L2241.76 1520.21 L2241.76 1515.95 L2250.02 1514.29 L2254.7 1514.29 L2254.7 1544.91 L2262.34 1544.91 L2262.34 1548.85 L2242.43 1548.85 L2242.43 1544.91 Z" fill="#000000" fill-rule="nonzero" fill-opacity="1" /><path clip-path="url(#clip650)" d="M2271.78 1542.97 L2276.67 1542.97 L2276.67 1548.85 L2271.78 1548.85 L2271.78 1542.97 Z" fill="#000000" fill-rule="nonzero" fill-opacity="1" /><path clip-path="url(#clip650)" d="M2296.85 1517.37 Q2293.24 1517.37 2291.41 1520.93 Q2289.61 1524.47 2289.61 1531.6 Q2289.61 1538.71 2291.41 1542.27 Q2293.24 1545.82 2296.85 1545.82 Q2300.49 1545.82 2302.29 1542.27 Q2304.12 1538.71 2304.12 1531.6 Q2304.12 1524.47 2302.29 1520.93 Q2300.49 1517.37 2296.85 1517.37 M2296.85 1513.66 Q2302.66 1513.66 2305.72 1518.27 Q2308.8 1522.85 2308.8 1531.6 Q2308.8 1540.33 2305.72 1544.94 Q2302.66 1549.52 2296.85 1549.52 Q2291.04 1549.52 2287.96 1544.94 Q2284.91 1540.33 2284.91 1531.6 Q2284.91 1522.85 2287.96 1518.27 Q2291.04 1513.66 2296.85 1513.66 Z" fill="#000000" fill-rule="nonzero" fill-opacity="1" /><path clip-path="url(#clip650)" d="M2327.01 1517.37 Q2323.4 1517.37 2321.57 1520.93 Q2319.77 1524.47 2319.77 1531.6 Q2319.77 1538.71 2321.57 1542.27 Q2323.4 1545.82 2327.01 1545.82 Q2330.65 1545.82 2332.45 1542.27 Q2334.28 1538.71 2334.28 1531.6 Q2334.28 1524.47 2332.45 1520.93 Q2330.65 1517.37 2327.01 1517.37 M2327.01 1513.66 Q2332.82 1513.66 2335.88 1518.27 Q2338.96 1522.85 2338.96 1531.6 Q2338.96 1540.33 2335.88 1544.94 Q2332.82 1549.52 2327.01 1549.52 Q2321.2 1549.52 2318.12 1544.94 Q2315.07 1540.33 2315.07 1531.6 Q2315.07 1522.85 2318.12 1518.27 Q2321.2 1513.66 2327.01 1513.66 Z" fill="#000000" fill-rule="nonzero" fill-opacity="1" /><polyline clip-path="url(#clip650)" style="stroke:#000000; stroke-linecap:round; stroke-linejoin:round; stroke-width:4; stroke-opacity:1; fill:none" points="148.057,1486.45 148.057,47.2441 "/>
<polyline clip-path="url(#clip650)" style="stroke:#000000; stroke-linecap:round; stroke-linejoin:round; stroke-width:4; stroke-opacity:1; fill:none" points="148.057,1433.25 166.954,1433.25 "/>
<polyline clip-path="url(#clip650)" style="stroke:#000000; stroke-linecap:round; stroke-linejoin:round; stroke-width:4; stroke-opacity:1; fill:none" points="148.057,1206.48 166.954,1206.48 "/>
<polyline clip-path="url(#clip650)" style="stroke:#000000; stroke-linecap:round; stroke-linejoin:round; stroke-width:4; stroke-opacity:1; fill:none" points="148.057,979.708 166.954,979.708 "/>
<polyline clip-path="url(#clip650)" style="stroke:#000000; stroke-linecap:round; stroke-linejoin:round; stroke-width:4; stroke-opacity:1; fill:none" points="148.057,752.935 166.954,752.935 "/>
<polyline clip-path="url(#clip650)" style="stroke:#000000; stroke-linecap:round; stroke-linejoin:round; stroke-width:4; stroke-opacity:1; fill:none" points="148.057,526.162 166.954,526.162 "/>
<polyline clip-path="url(#clip650)" style="stroke:#000000; stroke-linecap:round; stroke-linejoin:round; stroke-width:4; stroke-opacity:1; fill:none" points="148.057,299.389 166.954,299.389 "/>
<polyline clip-path="url(#clip650)" style="stroke:#000000; stroke-linecap:round; stroke-linejoin:round; stroke-width:4; stroke-opacity:1; fill:none" points="148.057,72.6166 166.954,72.6166 "/>
<path clip-path="url(#clip650)" d="M50.9921 1433.71 L80.6679 1433.71 L80.6679 1437.64 L50.9921 1437.64 L50.9921 1433.71 Z" fill="#000000" fill-rule="nonzero" fill-opacity="1" /><path clip-path="url(#clip650)" d="M104.927 1431.9 Q108.283 1432.62 110.158 1434.89 Q112.057 1437.15 112.057 1440.49 Q112.057 1445.6 108.538 1448.4 Q105.02 1451.21 98.5382 1451.21 Q96.3623 1451.21 94.0475 1450.77 Q91.7558 1450.35 89.3021 1449.49 L89.3021 1444.98 Q91.2465 1446.11 93.5613 1446.69 Q95.8761 1447.27 98.3993 1447.27 Q102.797 1447.27 105.089 1445.53 Q107.404 1443.8 107.404 1440.49 Q107.404 1437.43 105.251 1435.72 Q103.121 1433.98 99.3021 1433.98 L95.2743 1433.98 L95.2743 1430.14 L99.4872 1430.14 Q102.936 1430.14 104.765 1428.77 Q106.594 1427.39 106.594 1424.79 Q106.594 1422.13 104.696 1420.72 Q102.821 1419.28 99.3021 1419.28 Q97.3808 1419.28 95.1817 1419.7 Q92.9826 1420.12 90.3438 1421 L90.3438 1416.83 Q93.0058 1416.09 95.3206 1415.72 Q97.6585 1415.35 99.7187 1415.35 Q105.043 1415.35 108.145 1417.78 Q111.246 1420.19 111.246 1424.31 Q111.246 1427.18 109.603 1429.17 Q107.959 1431.14 104.927 1431.9 Z" fill="#000000" fill-rule="nonzero" fill-opacity="1" /><path clip-path="url(#clip650)" d="M51.9412 1206.93 L81.617 1206.93 L81.617 1210.87 L51.9412 1210.87 L51.9412 1206.93 Z" fill="#000000" fill-rule="nonzero" fill-opacity="1" /><path clip-path="url(#clip650)" d="M95.7373 1219.83 L112.057 1219.83 L112.057 1223.76 L90.1123 1223.76 L90.1123 1219.83 Q92.7743 1217.07 97.3576 1212.44 Q101.964 1207.79 103.145 1206.45 Q105.39 1203.92 106.27 1202.19 Q107.172 1200.43 107.172 1198.74 Q107.172 1195.98 105.228 1194.25 Q103.307 1192.51 100.205 1192.51 Q98.0058 1192.51 95.5521 1193.27 Q93.1215 1194.04 90.3438 1195.59 L90.3438 1190.87 Q93.1678 1189.73 95.6215 1189.15 Q98.0752 1188.58 100.112 1188.58 Q105.483 1188.58 108.677 1191.26 Q111.871 1193.95 111.871 1198.44 Q111.871 1200.57 111.061 1202.49 Q110.274 1204.39 108.168 1206.98 Q107.589 1207.65 104.487 1210.87 Q101.385 1214.06 95.7373 1219.83 Z" fill="#000000" fill-rule="nonzero" fill-opacity="1" /><path clip-path="url(#clip650)" d="M51.5708 980.159 L81.2466 980.159 L81.2466 984.095 L51.5708 984.095 L51.5708 980.159 Z" fill="#000000" fill-rule="nonzero" fill-opacity="1" /><path clip-path="url(#clip650)" d="M92.1493 993.053 L99.7882 993.053 L99.7882 966.687 L91.478 968.354 L91.478 964.095 L99.7419 962.428 L104.418 962.428 L104.418 993.053 L112.057 993.053 L112.057 996.988 L92.1493 996.988 L92.1493 993.053 Z" fill="#000000" fill-rule="nonzero" fill-opacity="1" /><path clip-path="url(#clip650)" d="M100.112 738.734 Q96.5011 738.734 94.6724 742.299 Q92.8669 745.84 92.8669 752.97 Q92.8669 760.076 94.6724 763.641 Q96.5011 767.183 100.112 767.183 Q103.746 767.183 105.552 763.641 Q107.381 760.076 107.381 752.97 Q107.381 745.84 105.552 742.299 Q103.746 738.734 100.112 738.734 M100.112 735.03 Q105.922 735.03 108.978 739.637 Q112.057 744.22 112.057 752.97 Q112.057 761.697 108.978 766.303 Q105.922 770.886 100.112 770.886 Q94.3021 770.886 91.2234 766.303 Q88.1679 761.697 88.1679 752.97 Q88.1679 744.22 91.2234 739.637 Q94.3021 735.03 100.112 735.03 Z" fill="#000000" fill-rule="nonzero" fill-opacity="1" /><path clip-path="url(#clip650)" d="M92.1493 539.507 L99.7882 539.507 L99.7882 513.142 L91.478 514.808 L91.478 510.549 L99.7419 508.882 L104.418 508.882 L104.418 539.507 L112.057 539.507 L112.057 543.442 L92.1493 543.442 L92.1493 539.507 Z" fill="#000000" fill-rule="nonzero" fill-opacity="1" /><path clip-path="url(#clip650)" d="M95.7373 312.734 L112.057 312.734 L112.057 316.669 L90.1123 316.669 L90.1123 312.734 Q92.7743 309.98 97.3576 305.35 Q101.964 300.697 103.145 299.355 Q105.39 296.832 106.27 295.095 Q107.172 293.336 107.172 291.646 Q107.172 288.892 105.228 287.156 Q103.307 285.42 100.205 285.42 Q98.0058 285.42 95.5521 286.183 Q93.1215 286.947 90.3438 288.498 L90.3438 283.776 Q93.1678 282.642 95.6215 282.063 Q98.0752 281.484 100.112 281.484 Q105.483 281.484 108.677 284.17 Q111.871 286.855 111.871 291.346 Q111.871 293.475 111.061 295.396 Q110.274 297.295 108.168 299.887 Q107.589 300.558 104.487 303.776 Q101.385 306.97 95.7373 312.734 Z" fill="#000000" fill-rule="nonzero" fill-opacity="1" /><path clip-path="url(#clip650)" d="M104.927 71.2624 Q108.283 71.98 110.158 74.2485 Q112.057 76.517 112.057 79.8503 Q112.057 84.9661 108.538 87.767 Q105.02 90.5679 98.5382 90.5679 Q96.3623 90.5679 94.0475 90.1281 Q91.7558 89.7114 89.3021 88.8549 L89.3021 84.3411 Q91.2465 85.4753 93.5613 86.054 Q95.8761 86.6327 98.3993 86.6327 Q102.797 86.6327 105.089 84.8966 Q107.404 83.1605 107.404 79.8503 Q107.404 76.7948 105.251 75.0818 Q103.121 73.3457 99.3021 73.3457 L95.2743 73.3457 L95.2743 69.5032 L99.4872 69.5032 Q102.936 69.5032 104.765 68.1374 Q106.594 66.7486 106.594 64.156 Q106.594 61.494 104.696 60.0819 Q102.821 58.6468 99.3021 58.6468 Q97.3808 58.6468 95.1817 59.0634 Q92.9826 59.4801 90.3438 60.3597 L90.3438 56.1931 Q93.0058 55.4523 95.3206 55.082 Q97.6585 54.7116 99.7187 54.7116 Q105.043 54.7116 108.145 57.1421 Q111.246 59.5495 111.246 63.6699 Q111.246 66.5402 109.603 68.531 Q107.959 70.4985 104.927 71.2624 Z" fill="#000000" fill-rule="nonzero" fill-opacity="1" /><circle clip-path="url(#clip652)" cx="210.454" cy="299.389" r="14.4" fill="#009af9" fill-rule="evenodd" fill-opacity="1" stroke="#000000" stroke-opacity="1" stroke-width="3.2"/>
<circle clip-path="url(#clip652)" cx="282.175" cy="318.075" r="14.4" fill="#009af9" fill-rule="evenodd" fill-opacity="1" stroke="#000000" stroke-opacity="1" stroke-width="3.2"/>
<circle clip-path="url(#clip652)" cx="353.895" cy="337.347" r="14.4" fill="#009af9" fill-rule="evenodd" fill-opacity="1" stroke="#000000" stroke-opacity="1" stroke-width="3.2"/>
<circle clip-path="url(#clip652)" cx="425.616" cy="383.16" r="14.4" fill="#009af9" fill-rule="evenodd" fill-opacity="1" stroke="#000000" stroke-opacity="1" stroke-width="3.2"/>
<circle clip-path="url(#clip652)" cx="497.337" cy="455.942" r="14.4" fill="#009af9" fill-rule="evenodd" fill-opacity="1" stroke="#000000" stroke-opacity="1" stroke-width="3.2"/>
<circle clip-path="url(#clip652)" cx="569.058" cy="544.375" r="14.4" fill="#009af9" fill-rule="evenodd" fill-opacity="1" stroke="#000000" stroke-opacity="1" stroke-width="3.2"/>
<circle clip-path="url(#clip652)" cx="640.779" cy="637.291" r="14.4" fill="#009af9" fill-rule="evenodd" fill-opacity="1" stroke="#000000" stroke-opacity="1" stroke-width="3.2"/>
<circle clip-path="url(#clip652)" cx="712.5" cy="727.431" r="14.4" fill="#009af9" fill-rule="evenodd" fill-opacity="1" stroke="#000000" stroke-opacity="1" stroke-width="3.2"/>
<circle clip-path="url(#clip652)" cx="784.221" cy="809.68" r="14.4" fill="#009af9" fill-rule="evenodd" fill-opacity="1" stroke="#000000" stroke-opacity="1" stroke-width="3.2"/>
<circle clip-path="url(#clip652)" cx="855.941" cy="880.883" r="14.4" fill="#009af9" fill-rule="evenodd" fill-opacity="1" stroke="#000000" stroke-opacity="1" stroke-width="3.2"/>
<circle clip-path="url(#clip652)" cx="927.662" cy="938.971" r="14.4" fill="#009af9" fill-rule="evenodd" fill-opacity="1" stroke="#000000" stroke-opacity="1" stroke-width="3.2"/>
<circle clip-path="url(#clip652)" cx="999.383" cy="983.247" r="14.4" fill="#009af9" fill-rule="evenodd" fill-opacity="1" stroke="#000000" stroke-opacity="1" stroke-width="3.2"/>
<circle clip-path="url(#clip652)" cx="1071.1" cy="1014.01" r="14.4" fill="#009af9" fill-rule="evenodd" fill-opacity="1" stroke="#000000" stroke-opacity="1" stroke-width="3.2"/>
<circle clip-path="url(#clip652)" cx="1142.82" cy="1032.46" r="14.4" fill="#009af9" fill-rule="evenodd" fill-opacity="1" stroke="#000000" stroke-opacity="1" stroke-width="3.2"/>
<circle clip-path="url(#clip652)" cx="1214.55" cy="1040.58" r="14.4" fill="#009af9" fill-rule="evenodd" fill-opacity="1" stroke="#000000" stroke-opacity="1" stroke-width="3.2"/>
<circle clip-path="url(#clip652)" cx="1286.27" cy="1039.78" r="14.4" fill="#009af9" fill-rule="evenodd" fill-opacity="1" stroke="#000000" stroke-opacity="1" stroke-width="3.2"/>
<circle clip-path="url(#clip652)" cx="1357.99" cy="1031.24" r="14.4" fill="#009af9" fill-rule="evenodd" fill-opacity="1" stroke="#000000" stroke-opacity="1" stroke-width="3.2"/>
<circle clip-path="url(#clip652)" cx="1429.71" cy="1016.38" r="14.4" fill="#009af9" fill-rule="evenodd" fill-opacity="1" stroke="#000000" stroke-opacity="1" stroke-width="3.2"/>
<circle clip-path="url(#clip652)" cx="1501.43" cy="996.251" r="14.4" fill="#009af9" fill-rule="evenodd" fill-opacity="1" stroke="#000000" stroke-opacity="1" stroke-width="3.2"/>
<circle clip-path="url(#clip652)" cx="1573.15" cy="972.14" r="14.4" fill="#009af9" fill-rule="evenodd" fill-opacity="1" stroke="#000000" stroke-opacity="1" stroke-width="3.2"/>
<circle clip-path="url(#clip652)" cx="1644.87" cy="945.147" r="14.4" fill="#009af9" fill-rule="evenodd" fill-opacity="1" stroke="#000000" stroke-opacity="1" stroke-width="3.2"/>
<circle clip-path="url(#clip652)" cx="1716.59" cy="916.566" r="14.4" fill="#009af9" fill-rule="evenodd" fill-opacity="1" stroke="#000000" stroke-opacity="1" stroke-width="3.2"/>
<circle clip-path="url(#clip652)" cx="1788.31" cy="887.353" r="14.4" fill="#009af9" fill-rule="evenodd" fill-opacity="1" stroke="#000000" stroke-opacity="1" stroke-width="3.2"/>
<circle clip-path="url(#clip652)" cx="1860.03" cy="858.265" r="14.4" fill="#009af9" fill-rule="evenodd" fill-opacity="1" stroke="#000000" stroke-opacity="1" stroke-width="3.2"/>
<circle clip-path="url(#clip652)" cx="1931.75" cy="830.492" r="14.4" fill="#009af9" fill-rule="evenodd" fill-opacity="1" stroke="#000000" stroke-opacity="1" stroke-width="3.2"/>
<circle clip-path="url(#clip652)" cx="2003.48" cy="804.346" r="14.4" fill="#009af9" fill-rule="evenodd" fill-opacity="1" stroke="#000000" stroke-opacity="1" stroke-width="3.2"/>
<circle clip-path="url(#clip652)" cx="2075.2" cy="780.414" r="14.4" fill="#009af9" fill-rule="evenodd" fill-opacity="1" stroke="#000000" stroke-opacity="1" stroke-width="3.2"/>
<circle clip-path="url(#clip652)" cx="2146.92" cy="758.628" r="14.4" fill="#009af9" fill-rule="evenodd" fill-opacity="1" stroke="#000000" stroke-opacity="1" stroke-width="3.2"/>
<circle clip-path="url(#clip652)" cx="2218.64" cy="739.033" r="14.4" fill="#009af9" fill-rule="evenodd" fill-opacity="1" stroke="#000000" stroke-opacity="1" stroke-width="3.2"/>
<circle clip-path="url(#clip652)" cx="2290.36" cy="721.812" r="14.4" fill="#009af9" fill-rule="evenodd" fill-opacity="1" stroke="#000000" stroke-opacity="1" stroke-width="3.2"/>
<circle clip-path="url(#clip652)" cx="210.454" cy="299.389" r="14.4" fill="#e26f46" fill-rule="evenodd" fill-opacity="1" stroke="#000000" stroke-opacity="1" stroke-width="3.2"/>
<circle clip-path="url(#clip652)" cx="282.175" cy="295.29" r="14.4" fill="#e26f46" fill-rule="evenodd" fill-opacity="1" stroke="#000000" stroke-opacity="1" stroke-width="3.2"/>
<circle clip-path="url(#clip652)" cx="353.895" cy="271.385" r="14.4" fill="#e26f46" fill-rule="evenodd" fill-opacity="1" stroke="#000000" stroke-opacity="1" stroke-width="3.2"/>
<circle clip-path="url(#clip652)" cx="425.616" cy="316.859" r="14.4" fill="#e26f46" fill-rule="evenodd" fill-opacity="1" stroke="#000000" stroke-opacity="1" stroke-width="3.2"/>
<circle clip-path="url(#clip652)" cx="497.337" cy="373.299" r="14.4" fill="#e26f46" fill-rule="evenodd" fill-opacity="1" stroke="#000000" stroke-opacity="1" stroke-width="3.2"/>
<circle clip-path="url(#clip652)" cx="569.058" cy="325.342" r="14.4" fill="#e26f46" fill-rule="evenodd" fill-opacity="1" stroke="#000000" stroke-opacity="1" stroke-width="3.2"/>
<circle clip-path="url(#clip652)" cx="640.779" cy="285.792" r="14.4" fill="#e26f46" fill-rule="evenodd" fill-opacity="1" stroke="#000000" stroke-opacity="1" stroke-width="3.2"/>
<circle clip-path="url(#clip652)" cx="712.5" cy="293.465" r="14.4" fill="#e26f46" fill-rule="evenodd" fill-opacity="1" stroke="#000000" stroke-opacity="1" stroke-width="3.2"/>
<circle clip-path="url(#clip652)" cx="784.221" cy="282.959" r="14.4" fill="#e26f46" fill-rule="evenodd" fill-opacity="1" stroke="#000000" stroke-opacity="1" stroke-width="3.2"/>
<circle clip-path="url(#clip652)" cx="855.941" cy="193.793" r="14.4" fill="#e26f46" fill-rule="evenodd" fill-opacity="1" stroke="#000000" stroke-opacity="1" stroke-width="3.2"/>
<circle clip-path="url(#clip652)" cx="927.662" cy="87.9763" r="14.4" fill="#e26f46" fill-rule="evenodd" fill-opacity="1" stroke="#000000" stroke-opacity="1" stroke-width="3.2"/>
<circle clip-path="url(#clip652)" cx="999.383" cy="172.343" r="14.4" fill="#e26f46" fill-rule="evenodd" fill-opacity="1" stroke="#000000" stroke-opacity="1" stroke-width="3.2"/>
<circle clip-path="url(#clip652)" cx="1071.1" cy="324.365" r="14.4" fill="#e26f46" fill-rule="evenodd" fill-opacity="1" stroke="#000000" stroke-opacity="1" stroke-width="3.2"/>
<circle clip-path="url(#clip652)" cx="1142.82" cy="316.601" r="14.4" fill="#e26f46" fill-rule="evenodd" fill-opacity="1" stroke="#000000" stroke-opacity="1" stroke-width="3.2"/>
<circle clip-path="url(#clip652)" cx="1214.55" cy="323.759" r="14.4" fill="#e26f46" fill-rule="evenodd" fill-opacity="1" stroke="#000000" stroke-opacity="1" stroke-width="3.2"/>
<circle clip-path="url(#clip652)" cx="1286.27" cy="393.573" r="14.4" fill="#e26f46" fill-rule="evenodd" fill-opacity="1" stroke="#000000" stroke-opacity="1" stroke-width="3.2"/>
<circle clip-path="url(#clip652)" cx="1357.99" cy="445.174" r="14.4" fill="#e26f46" fill-rule="evenodd" fill-opacity="1" stroke="#000000" stroke-opacity="1" stroke-width="3.2"/>
<circle clip-path="url(#clip652)" cx="1429.71" cy="431.81" r="14.4" fill="#e26f46" fill-rule="evenodd" fill-opacity="1" stroke="#000000" stroke-opacity="1" stroke-width="3.2"/>
<circle clip-path="url(#clip652)" cx="1501.43" cy="471.806" r="14.4" fill="#e26f46" fill-rule="evenodd" fill-opacity="1" stroke="#000000" stroke-opacity="1" stroke-width="3.2"/>
<circle clip-path="url(#clip652)" cx="1573.15" cy="532.604" r="14.4" fill="#e26f46" fill-rule="evenodd" fill-opacity="1" stroke="#000000" stroke-opacity="1" stroke-width="3.2"/>
<circle clip-path="url(#clip652)" cx="1644.87" cy="574.618" r="14.4" fill="#e26f46" fill-rule="evenodd" fill-opacity="1" stroke="#000000" stroke-opacity="1" stroke-width="3.2"/>
<circle clip-path="url(#clip652)" cx="1716.59" cy="730.904" r="14.4" fill="#e26f46" fill-rule="evenodd" fill-opacity="1" stroke="#000000" stroke-opacity="1" stroke-width="3.2"/>
<circle clip-path="url(#clip652)" cx="1788.31" cy="898.12" r="14.4" fill="#e26f46" fill-rule="evenodd" fill-opacity="1" stroke="#000000" stroke-opacity="1" stroke-width="3.2"/>
<circle clip-path="url(#clip652)" cx="1860.03" cy="1067.38" r="14.4" fill="#e26f46" fill-rule="evenodd" fill-opacity="1" stroke="#000000" stroke-opacity="1" stroke-width="3.2"/>
<circle clip-path="url(#clip652)" cx="1931.75" cy="1222.7" r="14.4" fill="#e26f46" fill-rule="evenodd" fill-opacity="1" stroke="#000000" stroke-opacity="1" stroke-width="3.2"/>
<circle clip-path="url(#clip652)" cx="2003.48" cy="1342.33" r="14.4" fill="#e26f46" fill-rule="evenodd" fill-opacity="1" stroke="#000000" stroke-opacity="1" stroke-width="3.2"/>
<circle clip-path="url(#clip652)" cx="2075.2" cy="1415.45" r="14.4" fill="#e26f46" fill-rule="evenodd" fill-opacity="1" stroke="#000000" stroke-opacity="1" stroke-width="3.2"/>
<circle clip-path="url(#clip652)" cx="2146.92" cy="1445.72" r="14.4" fill="#e26f46" fill-rule="evenodd" fill-opacity="1" stroke="#000000" stroke-opacity="1" stroke-width="3.2"/>
<circle clip-path="url(#clip652)" cx="2218.64" cy="1421.26" r="14.4" fill="#e26f46" fill-rule="evenodd" fill-opacity="1" stroke="#000000" stroke-opacity="1" stroke-width="3.2"/>
<circle clip-path="url(#clip652)" cx="2290.36" cy="1368.34" r="14.4" fill="#e26f46" fill-rule="evenodd" fill-opacity="1" stroke="#000000" stroke-opacity="1" stroke-width="3.2"/>
<path clip-path="url(#clip650)" d="M1829.28 250.738 L2279.27 250.738 L2279.27 95.2176 L1829.28 95.2176  Z" fill="#ffffff" fill-rule="evenodd" fill-opacity="1"/>
<polyline clip-path="url(#clip650)" style="stroke:#000000; stroke-linecap:round; stroke-linejoin:round; stroke-width:4; stroke-opacity:1; fill:none" points="1829.28,250.738 2279.27,250.738 2279.27,95.2176 1829.28,95.2176 1829.28,250.738 "/>
<circle clip-path="url(#clip650)" cx="1927.27" cy="147.058" r="20.48" fill="#009af9" fill-rule="evenodd" fill-opacity="1" stroke="#000000" stroke-opacity="1" stroke-width="4.55111"/>
<path clip-path="url(#clip650)" d="M2044.17 142.347 L2044.17 128.319 L2048.43 128.319 L2048.43 164.338 L2044.17 164.338 L2044.17 160.449 Q2042.83 162.763 2040.77 163.898 Q2038.73 165.009 2035.86 165.009 Q2031.16 165.009 2028.2 161.259 Q2025.26 157.509 2025.26 151.398 Q2025.26 145.287 2028.2 141.537 Q2031.16 137.787 2035.86 137.787 Q2038.73 137.787 2040.77 138.921 Q2042.83 140.032 2044.17 142.347 M2029.65 151.398 Q2029.65 156.097 2031.58 158.782 Q2033.52 161.444 2036.9 161.444 Q2040.28 161.444 2042.22 158.782 Q2044.17 156.097 2044.17 151.398 Q2044.17 146.699 2042.22 144.037 Q2040.28 141.352 2036.9 141.352 Q2033.52 141.352 2031.58 144.037 Q2029.65 146.699 2029.65 151.398 Z" fill="#000000" fill-rule="nonzero" fill-opacity="1" /><path clip-path="url(#clip650)" d="M2068.98 151.305 Q2063.82 151.305 2061.83 152.486 Q2059.84 153.666 2059.84 156.514 Q2059.84 158.782 2061.32 160.125 Q2062.83 161.444 2065.4 161.444 Q2068.94 161.444 2071.07 158.944 Q2073.22 156.421 2073.22 152.254 L2073.22 151.305 L2068.98 151.305 M2077.48 149.546 L2077.48 164.338 L2073.22 164.338 L2073.22 160.402 Q2071.76 162.763 2069.59 163.898 Q2067.41 165.009 2064.26 165.009 Q2060.28 165.009 2057.92 162.787 Q2055.58 160.541 2055.58 156.791 Q2055.58 152.416 2058.5 150.194 Q2061.44 147.972 2067.25 147.972 L2073.22 147.972 L2073.22 147.555 Q2073.22 144.615 2071.27 143.018 Q2069.35 141.398 2065.86 141.398 Q2063.64 141.398 2061.53 141.93 Q2059.42 142.463 2057.48 143.527 L2057.48 139.592 Q2059.82 138.69 2062.02 138.25 Q2064.21 137.787 2066.3 137.787 Q2071.92 137.787 2074.7 140.703 Q2077.48 143.62 2077.48 149.546 Z" fill="#000000" fill-rule="nonzero" fill-opacity="1" /><path clip-path="url(#clip650)" d="M2090.46 131.051 L2090.46 138.412 L2099.24 138.412 L2099.24 141.722 L2090.46 141.722 L2090.46 155.796 Q2090.46 158.967 2091.32 159.87 Q2092.2 160.773 2094.86 160.773 L2099.24 160.773 L2099.24 164.338 L2094.86 164.338 Q2089.93 164.338 2088.06 162.509 Q2086.18 160.657 2086.18 155.796 L2086.18 141.722 L2083.06 141.722 L2083.06 138.412 L2086.18 138.412 L2086.18 131.051 L2090.46 131.051 Z" fill="#000000" fill-rule="nonzero" fill-opacity="1" /><path clip-path="url(#clip650)" d="M2116.62 151.305 Q2111.46 151.305 2109.47 152.486 Q2107.48 153.666 2107.48 156.514 Q2107.48 158.782 2108.96 160.125 Q2110.46 161.444 2113.03 161.444 Q2116.58 161.444 2118.71 158.944 Q2120.86 156.421 2120.86 152.254 L2120.86 151.305 L2116.62 151.305 M2125.12 149.546 L2125.12 164.338 L2120.86 164.338 L2120.86 160.402 Q2119.4 162.763 2117.22 163.898 Q2115.05 165.009 2111.9 165.009 Q2107.92 165.009 2105.56 162.787 Q2103.22 160.541 2103.22 156.791 Q2103.22 152.416 2106.14 150.194 Q2109.08 147.972 2114.89 147.972 L2120.86 147.972 L2120.86 147.555 Q2120.86 144.615 2118.91 143.018 Q2116.99 141.398 2113.5 141.398 Q2111.27 141.398 2109.17 141.93 Q2107.06 142.463 2105.12 143.527 L2105.12 139.592 Q2107.46 138.69 2109.65 138.25 Q2111.85 137.787 2113.94 137.787 Q2119.56 137.787 2122.34 140.703 Q2125.12 143.62 2125.12 149.546 Z" fill="#000000" fill-rule="nonzero" fill-opacity="1" /><circle clip-path="url(#clip650)" cx="1927.27" cy="198.898" r="20.48" fill="#e26f46" fill-rule="evenodd" fill-opacity="1" stroke="#000000" stroke-opacity="1" stroke-width="4.55111"/>
<path clip-path="url(#clip650)" d="M2029.54 212.289 L2029.54 226.039 L2025.26 226.039 L2025.26 190.252 L2029.54 190.252 L2029.54 194.187 Q2030.88 191.872 2032.92 190.761 Q2034.98 189.627 2037.83 189.627 Q2042.55 189.627 2045.49 193.377 Q2048.45 197.127 2048.45 203.238 Q2048.45 209.349 2045.49 213.099 Q2042.55 216.849 2037.83 216.849 Q2034.98 216.849 2032.92 215.738 Q2030.88 214.603 2029.54 212.289 M2044.03 203.238 Q2044.03 198.539 2042.09 195.877 Q2040.16 193.192 2036.78 193.192 Q2033.4 193.192 2031.46 195.877 Q2029.54 198.539 2029.54 203.238 Q2029.54 207.937 2031.46 210.622 Q2033.4 213.284 2036.78 213.284 Q2040.16 213.284 2042.09 210.622 Q2044.03 207.937 2044.03 203.238 Z" fill="#000000" fill-rule="nonzero" fill-opacity="1" /><path clip-path="url(#clip650)" d="M2070.53 194.233 Q2069.82 193.817 2068.96 193.631 Q2068.13 193.423 2067.11 193.423 Q2063.5 193.423 2061.55 195.784 Q2059.63 198.122 2059.63 202.52 L2059.63 216.178 L2055.35 216.178 L2055.35 190.252 L2059.63 190.252 L2059.63 194.28 Q2060.97 191.918 2063.13 190.784 Q2065.28 189.627 2068.36 189.627 Q2068.8 189.627 2069.33 189.696 Q2069.86 189.743 2070.51 189.858 L2070.53 194.233 Z" fill="#000000" fill-rule="nonzero" fill-opacity="1" /><path clip-path="url(#clip650)" d="M2096.14 202.15 L2096.14 204.233 L2076.55 204.233 Q2076.83 208.631 2079.19 210.946 Q2081.58 213.238 2085.81 213.238 Q2088.27 213.238 2090.56 212.636 Q2092.87 212.034 2095.14 210.83 L2095.14 214.858 Q2092.85 215.83 2090.44 216.34 Q2088.03 216.849 2085.56 216.849 Q2079.35 216.849 2075.72 213.238 Q2072.11 209.627 2072.11 203.469 Q2072.11 197.104 2075.53 193.377 Q2078.98 189.627 2084.82 189.627 Q2090.05 189.627 2093.08 193.006 Q2096.14 196.363 2096.14 202.15 M2091.88 200.9 Q2091.83 197.405 2089.91 195.321 Q2088.01 193.238 2084.86 193.238 Q2081.3 193.238 2079.15 195.252 Q2077.02 197.266 2076.69 200.923 L2091.88 200.9 Z" fill="#000000" fill-rule="nonzero" fill-opacity="1" /><path clip-path="url(#clip650)" d="M2120.19 194.187 L2120.19 180.159 L2124.45 180.159 L2124.45 216.178 L2120.19 216.178 L2120.19 212.289 Q2118.84 214.603 2116.78 215.738 Q2114.75 216.849 2111.88 216.849 Q2107.18 216.849 2104.21 213.099 Q2101.27 209.349 2101.27 203.238 Q2101.27 197.127 2104.21 193.377 Q2107.18 189.627 2111.88 189.627 Q2114.75 189.627 2116.78 190.761 Q2118.84 191.872 2120.19 194.187 M2105.67 203.238 Q2105.67 207.937 2107.59 210.622 Q2109.54 213.284 2112.92 213.284 Q2116.3 213.284 2118.24 210.622 Q2120.19 207.937 2120.19 203.238 Q2120.19 198.539 2118.24 195.877 Q2116.3 193.192 2112.92 193.192 Q2109.54 193.192 2107.59 195.877 Q2105.67 198.539 2105.67 203.238 Z" fill="#000000" fill-rule="nonzero" fill-opacity="1" /><path clip-path="url(#clip650)" d="M2133.22 190.252 L2137.48 190.252 L2137.48 216.178 L2133.22 216.178 L2133.22 190.252 M2133.22 180.159 L2137.48 180.159 L2137.48 185.553 L2133.22 185.553 L2133.22 180.159 Z" fill="#000000" fill-rule="nonzero" fill-opacity="1" /><path clip-path="url(#clip650)" d="M2165.05 191.247 L2165.05 195.229 Q2163.24 194.233 2161.41 193.747 Q2159.61 193.238 2157.76 193.238 Q2153.61 193.238 2151.32 195.877 Q2149.03 198.492 2149.03 203.238 Q2149.03 207.983 2151.32 210.622 Q2153.61 213.238 2157.76 213.238 Q2159.61 213.238 2161.41 212.752 Q2163.24 212.242 2165.05 211.247 L2165.05 215.182 Q2163.27 216.016 2161.34 216.432 Q2159.45 216.849 2157.29 216.849 Q2151.44 216.849 2147.99 213.168 Q2144.54 209.488 2144.54 203.238 Q2144.54 196.895 2148.01 193.261 Q2151.51 189.627 2157.57 189.627 Q2159.54 189.627 2161.41 190.043 Q2163.29 190.437 2165.05 191.247 Z" fill="#000000" fill-rule="nonzero" fill-opacity="1" /><path clip-path="url(#clip650)" d="M2176.67 182.891 L2176.67 190.252 L2185.44 190.252 L2185.44 193.562 L2176.67 193.562 L2176.67 207.636 Q2176.67 210.807 2177.52 211.71 Q2178.4 212.613 2181.07 212.613 L2185.44 212.613 L2185.44 216.178 L2181.07 216.178 Q2176.14 216.178 2174.26 214.349 Q2172.39 212.497 2172.39 207.636 L2172.39 193.562 L2169.26 193.562 L2169.26 190.252 L2172.39 190.252 L2172.39 182.891 L2176.67 182.891 Z" fill="#000000" fill-rule="nonzero" fill-opacity="1" /><path clip-path="url(#clip650)" d="M2191.04 190.252 L2195.3 190.252 L2195.3 216.178 L2191.04 216.178 L2191.04 190.252 M2191.04 180.159 L2195.3 180.159 L2195.3 185.553 L2191.04 185.553 L2191.04 180.159 Z" fill="#000000" fill-rule="nonzero" fill-opacity="1" /><path clip-path="url(#clip650)" d="M2214.26 193.238 Q2210.83 193.238 2208.84 195.923 Q2206.85 198.585 2206.85 203.238 Q2206.85 207.891 2208.82 210.576 Q2210.81 213.238 2214.26 213.238 Q2217.66 213.238 2219.65 210.553 Q2221.64 207.867 2221.64 203.238 Q2221.64 198.631 2219.65 195.946 Q2217.66 193.238 2214.26 193.238 M2214.26 189.627 Q2219.82 189.627 2222.99 193.238 Q2226.16 196.849 2226.16 203.238 Q2226.16 209.604 2222.99 213.238 Q2219.82 216.849 2214.26 216.849 Q2208.68 216.849 2205.51 213.238 Q2202.36 209.604 2202.36 203.238 Q2202.36 196.849 2205.51 193.238 Q2208.68 189.627 2214.26 189.627 Z" fill="#000000" fill-rule="nonzero" fill-opacity="1" /><path clip-path="url(#clip650)" d="M2254.77 200.529 L2254.77 216.178 L2250.51 216.178 L2250.51 200.668 Q2250.51 196.988 2249.07 195.159 Q2247.64 193.33 2244.77 193.33 Q2241.32 193.33 2239.33 195.53 Q2237.34 197.729 2237.34 201.525 L2237.34 216.178 L2233.06 216.178 L2233.06 190.252 L2237.34 190.252 L2237.34 194.28 Q2238.87 191.942 2240.93 190.784 Q2243.01 189.627 2245.72 189.627 Q2250.19 189.627 2252.48 192.405 Q2254.77 195.159 2254.77 200.529 Z" fill="#000000" fill-rule="nonzero" fill-opacity="1" /></svg>
