<?xml version="1.0" encoding="utf-8"?>
<svg xmlns="http://www.w3.org/2000/svg" xmlns:xlink="http://www.w3.org/1999/xlink" width="600" height="400" viewBox="0 0 2400 1600">
<defs>
  <clipPath id="clip220">
    <rect x="0" y="0" width="2400" height="1600"/>
  </clipPath>
</defs>
<path clip-path="url(#clip220)" d="M0 1600 L2400 1600 L2400 0 L0 0  Z" fill="#ffffff" fill-rule="evenodd" fill-opacity="1"/>
<defs>
  <clipPath id="clip221">
    <rect x="480" y="0" width="1681" height="1600"/>
  </clipPath>
</defs>
<path clip-path="url(#clip220)" d="M178.867 1486.45 L2352.76 1486.45 L2352.76 47.2441 L178.867 47.2441  Z" fill="#ffffff" fill-rule="evenodd" fill-opacity="1"/>
<defs>
  <clipPath id="clip222">
    <rect x="178" y="47" width="2175" height="1440"/>
  </clipPath>
</defs>
<polyline clip-path="url(#clip222)" style="stroke:#000000; stroke-linecap:round; stroke-linejoin:round; stroke-width:2; stroke-opacity:0.1; fill:none" points="240.392,1486.45 240.392,47.2441 "/>
<polyline clip-path="url(#clip222)" style="stroke:#000000; stroke-linecap:round; stroke-linejoin:round; stroke-width:2; stroke-opacity:0.1; fill:none" points="924.005,1486.45 924.005,47.2441 "/>
<polyline clip-path="url(#clip222)" style="stroke:#000000; stroke-linecap:round; stroke-linejoin:round; stroke-width:2; stroke-opacity:0.1; fill:none" points="1607.62,1486.45 1607.62,47.2441 "/>
<polyline clip-path="url(#clip222)" style="stroke:#000000; stroke-linecap:round; stroke-linejoin:round; stroke-width:2; stroke-opacity:0.1; fill:none" points="2291.23,1486.45 2291.23,47.2441 "/>
<polyline clip-path="url(#clip220)" style="stroke:#000000; stroke-linecap:round; stroke-linejoin:round; stroke-width:4; stroke-opacity:1; fill:none" points="178.867,1486.45 2352.76,1486.45 "/>
<polyline clip-path="url(#clip220)" style="stroke:#000000; stroke-linecap:round; stroke-linejoin:round; stroke-width:4; stroke-opacity:1; fill:none" points="240.392,1486.45 240.392,1467.55 "/>
<polyline clip-path="url(#clip220)" style="stroke:#000000; stroke-linecap:round; stroke-linejoin:round; stroke-width:4; stroke-opacity:1; fill:none" points="924.005,1486.45 924.005,1467.55 "/>
<polyline clip-path="url(#clip220)" style="stroke:#000000; stroke-linecap:round; stroke-linejoin:round; stroke-width:4; stroke-opacity:1; fill:none" points="1607.62,1486.45 1607.62,1467.55 "/>
<polyline clip-path="url(#clip220)" style="stroke:#000000; stroke-linecap:round; stroke-linejoin:round; stroke-width:4; stroke-opacity:1; fill:none" points="2291.23,1486.45 2291.23,1467.55 "/>
<path clip-path="url(#clip220)" d="M217.776 1517.37 Q214.165 1517.37 212.336 1520.93 Q210.531 1524.47 210.531 1531.6 Q210.531 1538.71 212.336 1542.27 Q214.165 1545.82 217.776 1545.82 Q221.41 1545.82 223.216 1542.27 Q225.045 1538.71 225.045 1531.6 Q225.045 1524.47 223.216 1520.93 Q221.41 1517.37 217.776 1517.37 M217.776 1513.66 Q223.586 1513.66 226.642 1518.27 Q229.721 1522.85 229.721 1531.6 Q229.721 1540.33 226.642 1544.94 Q223.586 1549.52 217.776 1549.52 Q211.966 1549.52 208.887 1544.94 Q205.832 1540.33 205.832 1531.6 Q205.832 1522.85 208.887 1518.27 Q211.966 1513.66 217.776 1513.66 Z" fill="#000000" fill-rule="nonzero" fill-opacity="1" /><path clip-path="url(#clip220)" d="M237.938 1542.97 L242.822 1542.97 L242.822 1548.85 L237.938 1548.85 L237.938 1542.97 Z" fill="#000000" fill-rule="nonzero" fill-opacity="1" /><path clip-path="url(#clip220)" d="M263.007 1517.37 Q259.396 1517.37 257.568 1520.93 Q255.762 1524.47 255.762 1531.6 Q255.762 1538.71 257.568 1542.27 Q259.396 1545.82 263.007 1545.82 Q266.642 1545.82 268.447 1542.27 Q270.276 1538.71 270.276 1531.6 Q270.276 1524.47 268.447 1520.93 Q266.642 1517.37 263.007 1517.37 M263.007 1513.66 Q268.818 1513.66 271.873 1518.27 Q274.952 1522.85 274.952 1531.6 Q274.952 1540.33 271.873 1544.94 Q268.818 1549.52 263.007 1549.52 Q257.197 1549.52 254.119 1544.94 Q251.063 1540.33 251.063 1531.6 Q251.063 1522.85 254.119 1518.27 Q257.197 1513.66 263.007 1513.66 Z" fill="#000000" fill-rule="nonzero" fill-opacity="1" /><path clip-path="url(#clip220)" d="M901.887 1517.37 Q898.276 1517.37 896.447 1520.93 Q894.642 1524.47 894.642 1531.6 Q894.642 1538.71 896.447 1542.27 Q898.276 1545.82 901.887 1545.82 Q905.521 1545.82 907.327 1542.27 Q909.155 1538.71 909.155 1531.6 Q909.155 1524.47 907.327 1520.93 Q905.521 1517.37 901.887 1517.37 M901.887 1513.66 Q907.697 1513.66 910.753 1518.27 Q913.831 1522.85 913.831 1531.6 Q913.831 1540.33 910.753 1544.94 Q907.697 1549.52 901.887 1549.52 Q896.077 1549.52 892.998 1544.94 Q889.942 1540.33 889.942 1531.6 Q889.942 1522.85 892.998 1518.27 Q896.077 1513.66 901.887 1513.66 Z" fill="#000000" fill-rule="nonzero" fill-opacity="1" /><path clip-path="url(#clip220)" d="M922.049 1542.97 L926.933 1542.97 L926.933 1548.85 L922.049 1548.85 L922.049 1542.97 Z" fill="#000000" fill-rule="nonzero" fill-opacity="1" /><path clip-path="url(#clip220)" d="M937.164 1514.29 L955.521 1514.29 L955.521 1518.22 L941.447 1518.22 L941.447 1526.7 Q942.465 1526.35 943.484 1526.19 Q944.502 1526 945.521 1526 Q951.308 1526 954.687 1529.17 Q958.067 1532.34 958.067 1537.76 Q958.067 1543.34 954.595 1546.44 Q951.123 1549.52 944.803 1549.52 Q942.627 1549.52 940.359 1549.15 Q938.114 1548.78 935.706 1548.04 L935.706 1543.34 Q937.789 1544.47 940.012 1545.03 Q942.234 1545.58 944.711 1545.58 Q948.715 1545.58 951.053 1543.48 Q953.391 1541.37 953.391 1537.76 Q953.391 1534.15 951.053 1532.04 Q948.715 1529.94 944.711 1529.94 Q942.836 1529.94 940.961 1530.35 Q939.109 1530.77 937.164 1531.65 L937.164 1514.29 Z" fill="#000000" fill-rule="nonzero" fill-opacity="1" /><path clip-path="url(#clip220)" d="M1574.77 1544.91 L1582.41 1544.91 L1582.41 1518.55 L1574.1 1520.21 L1574.1 1515.95 L1582.36 1514.29 L1587.04 1514.29 L1587.04 1544.91 L1594.68 1544.91 L1594.68 1548.85 L1574.77 1548.85 L1574.77 1544.91 Z" fill="#000000" fill-rule="nonzero" fill-opacity="1" /><path clip-path="url(#clip220)" d="M1604.12 1542.97 L1609.01 1542.97 L1609.01 1548.85 L1604.12 1548.85 L1604.12 1542.97 Z" fill="#000000" fill-rule="nonzero" fill-opacity="1" /><path clip-path="url(#clip220)" d="M1629.19 1517.37 Q1625.58 1517.37 1623.75 1520.93 Q1621.95 1524.47 1621.95 1531.6 Q1621.95 1538.71 1623.75 1542.27 Q1625.58 1545.82 1629.19 1545.82 Q1632.83 1545.82 1634.63 1542.27 Q1636.46 1538.71 1636.46 1531.6 Q1636.46 1524.47 1634.63 1520.93 Q1632.83 1517.37 1629.19 1517.37 M1629.19 1513.66 Q1635 1513.66 1638.06 1518.27 Q1641.14 1522.85 1641.14 1531.6 Q1641.14 1540.33 1638.06 1544.94 Q1635 1549.52 1629.19 1549.52 Q1623.38 1549.52 1620.3 1544.94 Q1617.25 1540.33 1617.25 1531.6 Q1617.25 1522.85 1620.3 1518.27 Q1623.38 1513.66 1629.19 1513.66 Z" fill="#000000" fill-rule="nonzero" fill-opacity="1" /><path clip-path="url(#clip220)" d="M2258.88 1544.91 L2266.52 1544.91 L2266.52 1518.55 L2258.21 1520.21 L2258.21 1515.95 L2266.47 1514.29 L2271.15 1514.29 L2271.15 1544.91 L2278.79 1544.91 L2278.79 1548.85 L2258.88 1548.85 L2258.88 1544.91 Z" fill="#000000" fill-rule="nonzero" fill-opacity="1" /><path clip-path="url(#clip220)" d="M2288.23 1542.97 L2293.12 1542.97 L2293.12 1548.85 L2288.23 1548.85 L2288.23 1542.97 Z" fill="#000000" fill-rule="nonzero" fill-opacity="1" /><path clip-path="url(#clip220)" d="M2303.35 1514.29 L2321.71 1514.29 L2321.71 1518.22 L2307.63 1518.22 L2307.63 1526.7 Q2308.65 1526.35 2309.67 1526.19 Q2310.69 1526 2311.71 1526 Q2317.49 1526 2320.87 1529.17 Q2324.25 1532.34 2324.25 1537.76 Q2324.25 1543.34 2320.78 1546.44 Q2317.31 1549.52 2310.99 1549.52 Q2308.81 1549.52 2306.54 1549.15 Q2304.3 1548.78 2301.89 1548.04 L2301.89 1543.34 Q2303.97 1544.47 2306.2 1545.03 Q2308.42 1545.58 2310.89 1545.58 Q2314.9 1545.58 2317.24 1543.48 Q2319.58 1541.37 2319.58 1537.76 Q2319.58 1534.15 2317.24 1532.04 Q2314.9 1529.94 2310.89 1529.94 Q2309.02 1529.94 2307.15 1530.35 Q2305.29 1530.77 2303.35 1531.65 L2303.35 1514.29 Z" fill="#000000" fill-rule="nonzero" fill-opacity="1" /><polyline clip-path="url(#clip222)" style="stroke:#000000; stroke-linecap:round; stroke-linejoin:round; stroke-width:2; stroke-opacity:0.1; fill:none" points="178.867,1435.35 2352.76,1435.35 "/>
<polyline clip-path="url(#clip222)" style="stroke:#000000; stroke-linecap:round; stroke-linejoin:round; stroke-width:2; stroke-opacity:0.1; fill:none" points="178.867,980.07 2352.76,980.07 "/>
<polyline clip-path="url(#clip222)" style="stroke:#000000; stroke-linecap:round; stroke-linejoin:round; stroke-width:2; stroke-opacity:0.1; fill:none" points="178.867,524.791 2352.76,524.791 "/>
<polyline clip-path="url(#clip222)" style="stroke:#000000; stroke-linecap:round; stroke-linejoin:round; stroke-width:2; stroke-opacity:0.1; fill:none" points="178.867,69.5125 2352.76,69.5125 "/>
<polyline clip-path="url(#clip220)" style="stroke:#000000; stroke-linecap:round; stroke-linejoin:round; stroke-width:4; stroke-opacity:1; fill:none" points="178.867,1486.45 178.867,47.2441 "/>
<polyline clip-path="url(#clip220)" style="stroke:#000000; stroke-linecap:round; stroke-linejoin:round; stroke-width:4; stroke-opacity:1; fill:none" points="178.867,1435.35 197.764,1435.35 "/>
<polyline clip-path="url(#clip220)" style="stroke:#000000; stroke-linecap:round; stroke-linejoin:round; stroke-width:4; stroke-opacity:1; fill:none" points="178.867,980.07 197.764,980.07 "/>
<polyline clip-path="url(#clip220)" style="stroke:#000000; stroke-linecap:round; stroke-linejoin:round; stroke-width:4; stroke-opacity:1; fill:none" points="178.867,524.791 197.764,524.791 "/>
<polyline clip-path="url(#clip220)" style="stroke:#000000; stroke-linecap:round; stroke-linejoin:round; stroke-width:4; stroke-opacity:1; fill:none" points="178.867,69.5125 197.764,69.5125 "/>
<path clip-path="url(#clip220)" d="M50.9921 1435.8 L80.6679 1435.8 L80.6679 1439.74 L50.9921 1439.74 L50.9921 1435.8 Z" fill="#000000" fill-rule="nonzero" fill-opacity="1" /><path clip-path="url(#clip220)" d="M91.5706 1448.69 L99.2095 1448.69 L99.2095 1422.33 L90.8993 1423.99 L90.8993 1419.74 L99.1632 1418.07 L103.839 1418.07 L103.839 1448.69 L111.478 1448.69 L111.478 1452.63 L91.5706 1452.63 L91.5706 1448.69 Z" fill="#000000" fill-rule="nonzero" fill-opacity="1" /><path clip-path="url(#clip220)" d="M130.922 1421.15 Q127.311 1421.15 125.482 1424.71 Q123.677 1428.25 123.677 1435.38 Q123.677 1442.49 125.482 1446.05 Q127.311 1449.6 130.922 1449.6 Q134.556 1449.6 136.362 1446.05 Q138.191 1442.49 138.191 1435.38 Q138.191 1428.25 136.362 1424.71 Q134.556 1421.15 130.922 1421.15 M130.922 1417.44 Q136.732 1417.44 139.788 1422.05 Q142.867 1426.63 142.867 1435.38 Q142.867 1444.11 139.788 1448.72 Q136.732 1453.3 130.922 1453.3 Q125.112 1453.3 122.033 1448.72 Q118.978 1444.11 118.978 1435.38 Q118.978 1426.63 122.033 1422.05 Q125.112 1417.44 130.922 1417.44 Z" fill="#000000" fill-rule="nonzero" fill-opacity="1" /><path clip-path="url(#clip220)" d="M130.922 965.869 Q127.311 965.869 125.482 969.433 Q123.677 972.975 123.677 980.105 Q123.677 987.211 125.482 990.776 Q127.311 994.317 130.922 994.317 Q134.556 994.317 136.362 990.776 Q138.191 987.211 138.191 980.105 Q138.191 972.975 136.362 969.433 Q134.556 965.869 130.922 965.869 M130.922 962.165 Q136.732 962.165 139.788 966.771 Q142.867 971.355 142.867 980.105 Q142.867 988.831 139.788 993.438 Q136.732 998.021 130.922 998.021 Q125.112 998.021 122.033 993.438 Q118.978 988.831 118.978 980.105 Q118.978 971.355 122.033 966.771 Q125.112 962.165 130.922 962.165 Z" fill="#000000" fill-rule="nonzero" fill-opacity="1" /><path clip-path="url(#clip220)" d="M91.5706 538.136 L99.2095 538.136 L99.2095 511.77 L90.8993 513.437 L90.8993 509.178 L99.1632 507.511 L103.839 507.511 L103.839 538.136 L111.478 538.136 L111.478 542.071 L91.5706 542.071 L91.5706 538.136 Z" fill="#000000" fill-rule="nonzero" fill-opacity="1" /><path clip-path="url(#clip220)" d="M130.922 510.59 Q127.311 510.59 125.482 514.155 Q123.677 517.696 123.677 524.826 Q123.677 531.932 125.482 535.497 Q127.311 539.039 130.922 539.039 Q134.556 539.039 136.362 535.497 Q138.191 531.932 138.191 524.826 Q138.191 517.696 136.362 514.155 Q134.556 510.59 130.922 510.59 M130.922 506.886 Q136.732 506.886 139.788 511.493 Q142.867 516.076 142.867 524.826 Q142.867 533.553 139.788 538.159 Q136.732 542.742 130.922 542.742 Q125.112 542.742 122.033 538.159 Q118.978 533.553 118.978 524.826 Q118.978 516.076 122.033 511.493 Q125.112 506.886 130.922 506.886 Z" fill="#000000" fill-rule="nonzero" fill-opacity="1" /><path clip-path="url(#clip220)" d="M94.7882 82.8573 L111.108 82.8573 L111.108 86.7925 L89.1632 86.7925 L89.1632 82.8573 Q91.8252 80.1027 96.4085 75.4731 Q101.015 70.8204 102.196 69.4778 Q104.441 66.9547 105.321 65.2186 Q106.223 63.4593 106.223 61.7695 Q106.223 59.0149 104.279 57.2788 Q102.358 55.5427 99.2558 55.5427 Q97.0567 55.5427 94.603 56.3066 Q92.1725 57.0704 89.3947 58.6214 L89.3947 53.8992 Q92.2188 52.7649 94.6724 52.1862 Q97.1261 51.6075 99.1632 51.6075 Q104.534 51.6075 107.728 54.2927 Q110.922 56.9779 110.922 61.4686 Q110.922 63.5982 110.112 65.5195 Q109.325 67.4176 107.219 70.0102 Q106.64 70.6815 103.538 73.8991 Q100.436 77.0935 94.7882 82.8573 Z" fill="#000000" fill-rule="nonzero" fill-opacity="1" /><path clip-path="url(#clip220)" d="M130.922 55.3112 Q127.311 55.3112 125.482 58.876 Q123.677 62.4176 123.677 69.5472 Q123.677 76.6537 125.482 80.2185 Q127.311 83.7601 130.922 83.7601 Q134.556 83.7601 136.362 80.2185 Q138.191 76.6537 138.191 69.5472 Q138.191 62.4176 136.362 58.876 Q134.556 55.3112 130.922 55.3112 M130.922 51.6075 Q136.732 51.6075 139.788 56.214 Q142.867 60.7973 142.867 69.5472 Q142.867 78.274 139.788 82.8805 Q136.732 87.4638 130.922 87.4638 Q125.112 87.4638 122.033 82.8805 Q118.978 78.274 118.978 69.5472 Q118.978 60.7973 122.033 56.214 Q125.112 51.6075 130.922 51.6075 Z" fill="#000000" fill-rule="nonzero" fill-opacity="1" /><polyline clip-path="url(#clip222)" style="stroke:#009af9; stroke-linecap:round; stroke-linejoin:round; stroke-width:4; stroke-opacity:1; fill:none" points="240.392,964.989 247.251,985.525 254.11,1004.84 260.969,1023.83 267.828,1042.98 274.687,1061.87 281.546,1080.29 288.405,1098.11 295.264,1115.53 302.123,1132.92 308.982,1149.94 315.841,1166.43 322.7,1182.54 329.559,1198.23 336.418,1213.54 343.277,1228.44 350.136,1242.69 356.995,1256.22 363.854,1269.26 370.713,1281.83 377.572,1293.88 384.431,1305.41 391.29,1316.4 398.149,1326.95 405.008,1337.08 411.867,1346.8 418.726,1356.08 425.585,1364.91 432.444,1373.28 439.303,1381.21 446.162,1388.7 453.021,1395.73 459.88,1402.33 466.739,1408.46 473.598,1414.13 480.457,1419.35 487.316,1424.1 494.175,1428.38 501.034,1432.2 507.893,1435.58 514.752,1438.49 521.611,1440.91 528.47,1442.82 535.328,1444.25 542.188,1445.19 549.046,1445.66 555.905,1445.72 562.764,1445.4 569.623,1444.72 576.482,1443.7 583.341,1442.39 590.2,1440.83 597.059,1439.09 603.918,1437.12 610.777,1434.66 617.636,1431.69 624.495,1428.23 631.354,1424.25 638.213,1419.78 645.072,1414.87 651.931,1409.49 658.79,1403.66 665.649,1397.44 672.508,1390.87 679.367,1384 686.226,1376.84 693.085,1369.37 699.944,1361.57 706.803,1353.45 713.662,1345 720.521,1336.23 727.38,1327.24 734.239,1318.1 741.098,1308.82 747.957,1299.48 754.816,1290.05 761.675,1280.49 768.534,1270.84 775.393,1261.05 782.252,1251.19 789.111,1241.28 795.97,1231.37 802.829,1221.47 809.688,1211.58 816.547,1201.73 823.406,1191.95 830.265,1182.21 837.124,1172.49 843.983,1162.83 850.842,1153.27 857.701,1143.77 864.56,1134.31 871.419,1124.86 878.278,1115.46 885.137,1106.16 891.996,1096.96 898.855,1087.87 905.714,1078.84 912.573,1069.91 919.432,1061.07 926.291,1052.33 933.15,1043.74 940.009,1035.27 946.868,1026.95 953.727,1018.74 960.586,1010.58 967.445,1002.49 974.304,994.463 981.163,986.517 988.022,978.665 994.881,970.926 1001.74,963.33 1008.6,955.867 1015.46,948.508 1022.32,941.277 1029.18,934.206 1036.04,927.256 1042.89,920.436 1049.75,913.723 1056.61,907.108 1063.47,900.627 1070.33,894.258 1077.19,887.953 1084.05,881.708 1090.91,875.572 1097.77,869.53 1104.62,863.537 1111.48,857.556 1118.34,851.558 1125.2,845.584 1132.06,839.637 1138.92,833.725 1145.78,827.856 1152.64,822.048 1159.5,816.32 1166.36,810.612 1173.21,804.845 1180.07,799.021 1186.93,793.264 1193.79,787.568 1200.65,781.904 1207.51,776.288 1214.37,770.747 1221.23,765.264 1228.09,759.798 1234.95,754.357 1241.8,748.981 1248.66,743.733 1255.52,738.616 1262.38,733.555 1269.24,728.578 1276.1,723.653 1282.96,718.808 1289.82,714.119 1296.68,709.595 1303.54,705.178 1310.39,700.877 1317.25,696.746 1324.11,692.76 1330.97,688.908 1337.83,685.234 1344.69,681.776 1351.55,678.519 1358.41,675.455 1365.27,672.621 1372.13,670.078 1378.98,667.87 1385.84,665.883 1392.7,664.084 1399.56,662.466 1406.42,660.995 1413.28,659.783 1420.14,658.874 1427,658.176 1433.86,657.692 1440.72,657.491 1447.57,657.556 1454.43,657.842 1461.29,658.332 1468.15,659.023 1475.01,659.965 1481.87,661.164 1488.73,662.543 1495.59,664.149 1502.45,666.005 1509.31,668.111 1516.16,670.415 1523.02,672.857 1529.88,675.464 1536.74,678.253 1543.6,681.227 1550.46,684.351 1557.32,687.667 1564.18,691.139 1571.04,694.684 1577.9,698.349 1584.75,702.159 1591.61,706.096 1598.47,710.153 1605.33,714.324 1612.19,718.572 1619.05,722.895 1625.91,727.342 1632.77,731.906 1639.63,736.518 1646.49,741.19 1653.34,745.905 1660.2,750.691 1667.06,755.516 1673.92,760.411 1680.78,765.466 1687.64,770.631 1694.5,775.864 1701.36,781.193 1708.22,786.632 1715.08,792.141 1721.93,797.651 1728.79,803.114 1735.65,808.582 1742.51,814.042 1749.37,819.463 1756.23,824.839 1763.09,830.153 1769.95,835.429 1776.81,840.689 1783.67,845.933 1790.52,851.134 1797.38,856.251 1804.24,861.344 1811.1,866.35 1817.96,871.209 1824.82,875.977 1831.68,880.637 1838.54,885.171 1845.4,889.61 1852.26,893.938 1859.11,898.155 1865.97,902.267 1872.83,906.323 1879.69,910.307 1886.55,914.242 1893.41,918.173 1900.27,922.117 1907.13,926.024 1913.99,929.852 1920.85,933.59 1927.7,937.201 1934.56,940.667 1941.42,944.008 1948.28,947.27 1955.14,950.474 1962,953.633 1968.86,956.716 1975.72,959.689 1982.58,962.644 1989.44,965.591 1996.29,968.5 2003.15,971.355 2010.01,974.102 2016.87,976.754 2023.73,979.342 2030.59,981.878 2037.45,984.338 2044.31,986.721 2051.17,989.044 2058.02,991.311 2064.88,993.523 2071.74,995.678 2078.6,997.768 2085.46,999.79 2092.32,1001.76 2099.18,1003.7 2106.04,1005.62 2112.9,1007.5 2119.76,1009.34 2126.61,1011.14 2133.47,1012.94 2140.33,1014.82 2147.19,1016.69 2154.05,1018.47 2160.91,1020.27 2167.77,1022.1 2174.63,1023.85 2181.49,1025.49 2188.35,1027.09 2195.2,1028.89 2202.06,1030.91 2208.92,1032.84 2215.78,1034.72 2222.64,1036.86 2229.5,1039.19 2236.36,1041.49 2243.22,1043.97 2250.08,1046.8 2256.94,1049.72 2263.79,1052.79 2270.65,1056.02 2277.51,1059.77 2284.37,1064.35 2291.23,1069.29 "/>
<polyline clip-path="url(#clip222)" style="stroke:#e26f46; stroke-linecap:round; stroke-linejoin:round; stroke-width:4; stroke-opacity:1; fill:none" points="240.392,87.9763 247.251,113.813 254.11,140.504 260.969,167.421 267.828,193.906 274.687,220.585 281.546,247.134 288.405,273.171 295.264,298.547 302.123,323.404 308.982,347.686 315.841,371.275 322.7,394.277 329.559,416.811 336.418,438.622 343.277,459.907 350.136,480.706 356.995,500.947 363.854,520.727 370.713,540 377.572,558.839 384.431,577.238 391.29,595.148 398.149,612.608 405.008,629.604 411.867,646.14 418.726,662.211 425.585,677.823 432.444,693.007 439.303,707.813 446.162,722.271 453.021,736.414 459.88,750.292 466.739,763.929 473.598,777.319 480.457,790.464 487.316,803.404 494.175,816.155 501.034,828.727 507.893,841.131 514.752,853.36 521.611,865.464 528.47,877.452 535.328,889.321 542.188,901.08 549.046,912.754 555.905,924.392 562.764,936.024 569.623,947.64 576.482,959.268 583.341,970.898 590.2,982.522 597.059,994.155 603.918,1005.74 610.777,1017.21 617.636,1028.59 624.495,1039.83 631.354,1050.98 638.213,1062 645.072,1072.81 651.931,1083.41 658.79,1093.83 665.649,1104.02 672.508,1113.99 679.367,1123.8 686.226,1133.44 693.085,1142.9 699.944,1152.18 706.803,1161.31 713.662,1170.31 720.521,1179.17 727.38,1187.95 734.239,1196.61 741.098,1205.1 747.957,1213.39 754.816,1221.54 761.675,1229.55 768.534,1237.34 775.393,1244.97 782.252,1252.54 789.111,1260.02 795.97,1267.32 802.829,1274.44 809.688,1281.35 816.547,1288.04 823.406,1294.54 830.265,1300.82 837.124,1306.86 843.983,1312.77 850.842,1318.48 857.701,1323.92 864.56,1329.08 871.419,1334.01 878.278,1338.72 885.137,1343.19 891.996,1347.42 898.855,1351.34 905.714,1354.93 912.573,1358.17 919.432,1361.1 926.291,1363.72 933.15,1366.05 940.009,1367.98 946.868,1369.43 953.727,1370.46 960.586,1371.12 967.445,1371.48 974.304,1371.5 981.163,1371.14 988.022,1370.41 994.881,1369.38 1001.74,1368.09 1008.6,1366.49 1015.46,1364.52 1022.32,1362.21 1029.18,1359.6 1036.04,1356.61 1042.89,1353.27 1049.75,1349.59 1056.61,1345.58 1063.47,1341.27 1070.33,1336.68 1077.19,1331.76 1084.05,1326.55 1090.91,1321.09 1097.77,1315.39 1104.62,1309.52 1111.48,1303.51 1118.34,1297.35 1125.2,1291.03 1132.06,1284.6 1138.92,1278.05 1145.78,1271.29 1152.64,1264.34 1159.5,1257.26 1166.36,1250.03 1173.21,1242.61 1180.07,1235.04 1186.93,1227.44 1193.79,1219.87 1200.65,1212.37 1207.51,1204.89 1214.37,1197.38 1221.23,1189.84 1228.09,1182.33 1234.95,1174.88 1241.8,1167.48 1248.66,1160.09 1255.52,1152.8 1262.38,1145.6 1269.24,1138.49 1276.1,1131.49 1282.96,1124.49 1289.82,1117.52 1296.68,1110.62 1303.54,1103.78 1310.39,1097.12 1317.25,1090.64 1324.11,1084.29 1330.97,1078.05 1337.83,1071.94 1344.69,1065.94 1351.55,1060.02 1358.41,1054.18 1365.27,1048.52 1372.13,1043.07 1378.98,1037.75 1385.84,1032.53 1392.7,1027.38 1399.56,1022.27 1406.42,1017.21 1413.28,1012.28 1420.14,1007.45 1427,1002.69 1433.86,998.017 1440.72,993.464 1447.57,989 1454.43,984.575 1461.29,980.28 1468.15,976.086 1475.01,971.881 1481.87,967.673 1488.73,963.539 1495.59,959.512 1502.45,955.531 1509.31,951.588 1516.16,947.772 1523.02,944.069 1529.88,940.375 1536.74,936.598 1543.6,932.799 1550.46,929.025 1557.32,925.286 1564.18,921.522 1571.04,917.689 1577.9,913.866 1584.75,910.051 1591.61,906.204 1598.47,902.312 1605.33,898.358 1612.19,894.34 1619.05,890.291 1625.91,886.206 1632.77,882.115 1639.63,878.002 1646.49,873.879 1653.34,869.741 1660.2,865.578 1667.06,861.444 1673.92,857.321 1680.78,853.163 1687.64,848.931 1694.5,844.687 1701.36,840.469 1708.22,836.26 1715.08,832.002 1721.93,827.73 1728.79,823.452 1735.65,819.231 1742.51,815.031 1749.37,810.823 1756.23,806.645 1763.09,802.51 1769.95,798.442 1776.81,794.389 1783.67,790.346 1790.52,786.392 1797.38,782.577 1804.24,778.903 1811.1,775.344 1817.96,771.894 1824.82,768.519 1831.68,765.212 1838.54,761.97 1845.4,758.782 1852.26,755.648 1859.11,752.575 1865.97,749.671 1872.83,746.953 1879.69,744.335 1886.55,741.807 1893.41,739.426 1900.27,737.146 1907.13,734.952 1913.99,732.845 1920.85,730.842 1927.7,728.939 1934.56,727.221 1941.42,725.664 1948.28,724.213 1955.14,722.874 1962,721.654 1968.86,720.572 1975.72,719.63 1982.58,718.812 1989.44,718.139 1996.29,717.57 2003.15,717.149 2010.01,716.898 2016.87,716.771 2023.73,716.762 2030.59,716.826 2037.45,716.939 2044.31,717.139 2051.17,717.419 2058.02,717.762 2064.88,718.165 2071.74,718.62 2078.6,719.112 2085.46,719.638 2092.32,720.218 2099.18,720.895 2106.04,721.678 2112.9,722.525 2119.76,723.384 2126.61,724.258 2133.47,725.189 2140.33,726.165 2147.19,727.064 2154.05,727.891 2160.91,728.673 2167.77,729.502 2174.63,730.333 2181.49,731.185 2188.35,732.142 2195.2,732.837 2202.06,733.174 2208.92,733.185 2215.78,733.014 2222.64,732.77 2229.5,732.292 2236.36,731.983 2243.22,732.271 2250.08,732.721 2256.94,732.493 2263.79,731.604 2270.65,730.709 2277.51,729.873 2284.37,728.993 2291.23,727.931 "/>
<path clip-path="url(#clip220)" d="M2010.47 250.738 L2280.29 250.738 L2280.29 95.2176 L2010.47 95.2176  Z" fill="#ffffff" fill-rule="evenodd" fill-opacity="1"/>
<polyline clip-path="url(#clip220)" style="stroke:#000000; stroke-linecap:round; stroke-linejoin:round; stroke-width:4; stroke-opacity:1; fill:none" points="2010.47,250.738 2280.29,250.738 2280.29,95.2176 2010.47,95.2176 2010.47,250.738 "/>
<polyline clip-path="url(#clip220)" style="stroke:#009af9; stroke-linecap:round; stroke-linejoin:round; stroke-width:4; stroke-opacity:1; fill:none" points="2034.63,147.058 2179.55,147.058 "/>
<path clip-path="url(#clip220)" d="M2217.55 166.745 Q2215.75 171.375 2214.03 172.787 Q2212.32 174.199 2209.45 174.199 L2206.05 174.199 L2206.05 170.634 L2208.55 170.634 Q2210.31 170.634 2211.28 169.8 Q2212.25 168.967 2213.43 165.865 L2214.19 163.921 L2203.71 138.412 L2208.22 138.412 L2216.32 158.689 L2224.43 138.412 L2228.94 138.412 L2217.55 166.745 Z" fill="#000000" fill-rule="nonzero" fill-opacity="1" /><path clip-path="url(#clip220)" d="M2236.23 160.402 L2243.87 160.402 L2243.87 134.037 L2235.56 135.703 L2235.56 131.444 L2243.82 129.778 L2248.5 129.778 L2248.5 160.402 L2256.14 160.402 L2256.14 164.338 L2236.23 164.338 L2236.23 160.402 Z" fill="#000000" fill-rule="nonzero" fill-opacity="1" /><polyline clip-path="url(#clip220)" style="stroke:#e26f46; stroke-linecap:round; stroke-linejoin:round; stroke-width:4; stroke-opacity:1; fill:none" points="2034.63,198.898 2179.55,198.898 "/>
<path clip-path="url(#clip220)" d="M2217.55 218.585 Q2215.75 223.215 2214.03 224.627 Q2212.32 226.039 2209.45 226.039 L2206.05 226.039 L2206.05 222.474 L2208.55 222.474 Q2210.31 222.474 2211.28 221.64 Q2212.25 220.807 2213.43 217.705 L2214.19 215.761 L2203.71 190.252 L2208.22 190.252 L2216.32 210.529 L2224.43 190.252 L2228.94 190.252 L2217.55 218.585 Z" fill="#000000" fill-rule="nonzero" fill-opacity="1" /><path clip-path="url(#clip220)" d="M2239.45 212.242 L2255.77 212.242 L2255.77 216.178 L2233.82 216.178 L2233.82 212.242 Q2236.49 209.488 2241.07 204.858 Q2245.68 200.205 2246.86 198.863 Q2249.1 196.34 2249.98 194.604 Q2250.88 192.844 2250.88 191.155 Q2250.88 188.4 2248.94 186.664 Q2247.02 184.928 2243.92 184.928 Q2241.72 184.928 2239.26 185.692 Q2236.83 186.455 2234.06 188.006 L2234.06 183.284 Q2236.88 182.15 2239.33 181.571 Q2241.79 180.993 2243.82 180.993 Q2249.19 180.993 2252.39 183.678 Q2255.58 186.363 2255.58 190.854 Q2255.58 192.983 2254.77 194.905 Q2253.99 196.803 2251.88 199.395 Q2251.3 200.067 2248.2 203.284 Q2245.1 206.479 2239.45 212.242 Z" fill="#000000" fill-rule="nonzero" fill-opacity="1" /></svg>
