<?xml version="1.0" encoding="utf-8"?>
<svg xmlns="http://www.w3.org/2000/svg" xmlns:xlink="http://www.w3.org/1999/xlink" width="600" height="400" viewBox="0 0 2400 1600">
<defs>
  <clipPath id="clip370">
    <rect x="0" y="0" width="2400" height="1600"/>
  </clipPath>
</defs>
<path clip-path="url(#clip370)" d="M0 1600 L2400 1600 L2400 0 L0 0  Z" fill="#ffffff" fill-rule="evenodd" fill-opacity="1"/>
<defs>
  <clipPath id="clip371">
    <rect x="480" y="0" width="1681" height="1600"/>
  </clipPath>
</defs>
<path clip-path="url(#clip370)" d="M178.867 1486.45 L2352.76 1486.45 L2352.76 47.2441 L178.867 47.2441  Z" fill="#ffffff" fill-rule="evenodd" fill-opacity="1"/>
<defs>
  <clipPath id="clip372">
    <rect x="178" y="47" width="2175" height="1440"/>
  </clipPath>
</defs>
<polyline clip-path="url(#clip372)" style="stroke:#000000; stroke-linecap:round; stroke-linejoin:round; stroke-width:2; stroke-opacity:0.1; fill:none" points="240.392,1486.45 240.392,47.2441 "/>
<polyline clip-path="url(#clip372)" style="stroke:#000000; stroke-linecap:round; stroke-linejoin:round; stroke-width:2; stroke-opacity:0.1; fill:none" points="924.005,1486.45 924.005,47.2441 "/>
<polyline clip-path="url(#clip372)" style="stroke:#000000; stroke-linecap:round; stroke-linejoin:round; stroke-width:2; stroke-opacity:0.1; fill:none" points="1607.62,1486.45 1607.62,47.2441 "/>
<polyline clip-path="url(#clip372)" style="stroke:#000000; stroke-linecap:round; stroke-linejoin:round; stroke-width:2; stroke-opacity:0.1; fill:none" points="2291.23,1486.45 2291.23,47.2441 "/>
<polyline clip-path="url(#clip370)" style="stroke:#000000; stroke-linecap:round; stroke-linejoin:round; stroke-width:4; stroke-opacity:1; fill:none" points="178.867,1486.45 2352.76,1486.45 "/>
<polyline clip-path="url(#clip370)" style="stroke:#000000; stroke-linecap:round; stroke-linejoin:round; stroke-width:4; stroke-opacity:1; fill:none" points="240.392,1486.45 240.392,1467.55 "/>
<polyline clip-path="url(#clip370)" style="stroke:#000000; stroke-linecap:round; stroke-linejoin:round; stroke-width:4; stroke-opacity:1; fill:none" points="924.005,1486.45 924.005,1467.55 "/>
<polyline clip-path="url(#clip370)" style="stroke:#000000; stroke-linecap:round; stroke-linejoin:round; stroke-width:4; stroke-opacity:1; fill:none" points="1607.62,1486.45 1607.62,1467.55 "/>
<polyline clip-path="url(#clip370)" style="stroke:#000000; stroke-linecap:round; stroke-linejoin:round; stroke-width:4; stroke-opacity:1; fill:none" points="2291.23,1486.45 2291.23,1467.55 "/>
<path clip-path="url(#clip370)" d="M217.776 1517.37 Q214.165 1517.37 212.336 1520.93 Q210.531 1524.47 210.531 1531.6 Q210.531 1538.71 212.336 1542.27 Q214.165 1545.82 217.776 1545.82 Q221.41 1545.82 223.216 1542.27 Q225.045 1538.71 225.045 1531.6 Q225.045 1524.47 223.216 1520.93 Q221.41 1517.37 217.776 1517.37 M217.776 1513.66 Q223.586 1513.66 226.642 1518.27 Q229.721 1522.85 229.721 1531.6 Q229.721 1540.33 226.642 1544.94 Q223.586 1549.52 217.776 1549.52 Q211.966 1549.52 208.887 1544.94 Q205.832 1540.33 205.832 1531.6 Q205.832 1522.85 208.887 1518.27 Q211.966 1513.66 217.776 1513.66 Z" fill="#000000" fill-rule="nonzero" fill-opacity="1" /><path clip-path="url(#clip370)" d="M237.938 1542.97 L242.822 1542.97 L242.822 1548.85 L237.938 1548.85 L237.938 1542.97 Z" fill="#000000" fill-rule="nonzero" fill-opacity="1" /><path clip-path="url(#clip370)" d="M263.007 1517.37 Q259.396 1517.37 257.568 1520.93 Q255.762 1524.47 255.762 1531.6 Q255.762 1538.71 257.568 1542.27 Q259.396 1545.82 263.007 1545.82 Q266.642 1545.82 268.447 1542.27 Q270.276 1538.71 270.276 1531.6 Q270.276 1524.47 268.447 1520.93 Q266.642 1517.37 263.007 1517.37 M263.007 1513.66 Q268.818 1513.66 271.873 1518.27 Q274.952 1522.85 274.952 1531.6 Q274.952 1540.33 271.873 1544.94 Q268.818 1549.52 263.007 1549.52 Q257.197 1549.52 254.119 1544.94 Q251.063 1540.33 251.063 1531.6 Q251.063 1522.85 254.119 1518.27 Q257.197 1513.66 263.007 1513.66 Z" fill="#000000" fill-rule="nonzero" fill-opacity="1" /><path clip-path="url(#clip370)" d="M901.887 1517.37 Q898.276 1517.37 896.447 1520.93 Q894.642 1524.47 894.642 1531.6 Q894.642 1538.71 896.447 1542.27 Q898.276 1545.82 901.887 1545.82 Q905.521 1545.82 907.327 1542.27 Q909.155 1538.71 909.155 1531.6 Q909.155 1524.47 907.327 1520.93 Q905.521 1517.37 901.887 1517.37 M901.887 1513.66 Q907.697 1513.66 910.753 1518.27 Q913.831 1522.85 913.831 1531.6 Q913.831 1540.33 910.753 1544.94 Q907.697 1549.52 901.887 1549.52 Q896.077 1549.52 892.998 1544.94 Q889.942 1540.33 889.942 1531.6 Q889.942 1522.85 892.998 1518.27 Q896.077 1513.66 901.887 1513.66 Z" fill="#000000" fill-rule="nonzero" fill-opacity="1" /><path clip-path="url(#clip370)" d="M922.049 1542.97 L926.933 1542.97 L926.933 1548.85 L922.049 1548.85 L922.049 1542.97 Z" fill="#000000" fill-rule="nonzero" fill-opacity="1" /><path clip-path="url(#clip370)" d="M937.164 1514.29 L955.521 1514.29 L955.521 1518.22 L941.447 1518.22 L941.447 1526.7 Q942.465 1526.35 943.484 1526.19 Q944.502 1526 945.521 1526 Q951.308 1526 954.687 1529.17 Q958.067 1532.34 958.067 1537.76 Q958.067 1543.34 954.595 1546.44 Q951.123 1549.52 944.803 1549.52 Q942.627 1549.52 940.359 1549.15 Q938.114 1548.78 935.706 1548.04 L935.706 1543.34 Q937.789 1544.47 940.012 1545.03 Q942.234 1545.58 944.711 1545.58 Q948.715 1545.58 951.053 1543.48 Q953.391 1541.37 953.391 1537.76 Q953.391 1534.15 951.053 1532.04 Q948.715 1529.94 944.711 1529.94 Q942.836 1529.94 940.961 1530.35 Q939.109 1530.77 937.164 1531.65 L937.164 1514.29 Z" fill="#000000" fill-rule="nonzero" fill-opacity="1" /><path clip-path="url(#clip370)" d="M1574.77 1544.91 L1582.41 1544.91 L1582.41 1518.55 L1574.1 1520.21 L1574.1 1515.95 L1582.36 1514.29 L1587.04 1514.29 L1587.04 1544.91 L1594.68 1544.91 L1594.68 1548.85 L1574.77 1548.85 L1574.77 1544.91 Z" fill="#000000" fill-rule="nonzero" fill-opacity="1" /><path clip-path="url(#clip370)" d="M1604.12 1542.97 L1609.01 1542.97 L1609.01 1548.85 L1604.12 1548.85 L1604.12 1542.97 Z" fill="#000000" fill-rule="nonzero" fill-opacity="1" /><path clip-path="url(#clip370)" d="M1629.19 1517.37 Q1625.58 1517.37 1623.75 1520.93 Q1621.95 1524.47 1621.95 1531.6 Q1621.95 1538.71 1623.75 1542.27 Q1625.58 1545.82 1629.19 1545.82 Q1632.83 1545.82 1634.63 1542.27 Q1636.46 1538.71 1636.46 1531.6 Q1636.46 1524.47 1634.63 1520.93 Q1632.83 1517.37 1629.19 1517.37 M1629.19 1513.66 Q1635 1513.66 1638.06 1518.27 Q1641.14 1522.85 1641.14 1531.6 Q1641.14 1540.33 1638.06 1544.94 Q1635 1549.52 1629.19 1549.52 Q1623.38 1549.52 1620.3 1544.94 Q1617.25 1540.33 1617.25 1531.6 Q1617.25 1522.85 1620.3 1518.27 Q1623.38 1513.66 1629.19 1513.66 Z" fill="#000000" fill-rule="nonzero" fill-opacity="1" /><path clip-path="url(#clip370)" d="M2258.88 1544.91 L2266.52 1544.91 L2266.52 1518.55 L2258.21 1520.21 L2258.21 1515.95 L2266.47 1514.29 L2271.15 1514.29 L2271.15 1544.91 L2278.79 1544.91 L2278.79 1548.85 L2258.88 1548.85 L2258.88 1544.91 Z" fill="#000000" fill-rule="nonzero" fill-opacity="1" /><path clip-path="url(#clip370)" d="M2288.23 1542.97 L2293.12 1542.97 L2293.12 1548.85 L2288.23 1548.85 L2288.23 1542.97 Z" fill="#000000" fill-rule="nonzero" fill-opacity="1" /><path clip-path="url(#clip370)" d="M2303.35 1514.29 L2321.71 1514.29 L2321.71 1518.22 L2307.63 1518.22 L2307.63 1526.7 Q2308.65 1526.35 2309.67 1526.19 Q2310.69 1526 2311.71 1526 Q2317.49 1526 2320.87 1529.17 Q2324.25 1532.34 2324.25 1537.76 Q2324.25 1543.34 2320.78 1546.44 Q2317.31 1549.52 2310.99 1549.52 Q2308.81 1549.52 2306.54 1549.15 Q2304.3 1548.78 2301.89 1548.04 L2301.89 1543.34 Q2303.97 1544.47 2306.2 1545.03 Q2308.42 1545.58 2310.89 1545.58 Q2314.9 1545.58 2317.24 1543.48 Q2319.58 1541.37 2319.58 1537.76 Q2319.58 1534.15 2317.24 1532.04 Q2314.9 1529.94 2310.89 1529.94 Q2309.02 1529.94 2307.15 1530.35 Q2305.29 1530.77 2303.35 1531.65 L2303.35 1514.29 Z" fill="#000000" fill-rule="nonzero" fill-opacity="1" /><polyline clip-path="url(#clip372)" style="stroke:#000000; stroke-linecap:round; stroke-linejoin:round; stroke-width:2; stroke-opacity:0.1; fill:none" points="178.867,1425.93 2352.76,1425.93 "/>
<polyline clip-path="url(#clip372)" style="stroke:#000000; stroke-linecap:round; stroke-linejoin:round; stroke-width:2; stroke-opacity:0.1; fill:none" points="178.867,1194.46 2352.76,1194.46 "/>
<polyline clip-path="url(#clip372)" style="stroke:#000000; stroke-linecap:round; stroke-linejoin:round; stroke-width:2; stroke-opacity:0.1; fill:none" points="178.867,962.987 2352.76,962.987 "/>
<polyline clip-path="url(#clip372)" style="stroke:#000000; stroke-linecap:round; stroke-linejoin:round; stroke-width:2; stroke-opacity:0.1; fill:none" points="178.867,731.514 2352.76,731.514 "/>
<polyline clip-path="url(#clip372)" style="stroke:#000000; stroke-linecap:round; stroke-linejoin:round; stroke-width:2; stroke-opacity:0.1; fill:none" points="178.867,500.041 2352.76,500.041 "/>
<polyline clip-path="url(#clip372)" style="stroke:#000000; stroke-linecap:round; stroke-linejoin:round; stroke-width:2; stroke-opacity:0.1; fill:none" points="178.867,268.568 2352.76,268.568 "/>
<polyline clip-path="url(#clip370)" style="stroke:#000000; stroke-linecap:round; stroke-linejoin:round; stroke-width:4; stroke-opacity:1; fill:none" points="178.867,1486.45 178.867,47.2441 "/>
<polyline clip-path="url(#clip370)" style="stroke:#000000; stroke-linecap:round; stroke-linejoin:round; stroke-width:4; stroke-opacity:1; fill:none" points="178.867,1425.93 197.764,1425.93 "/>
<polyline clip-path="url(#clip370)" style="stroke:#000000; stroke-linecap:round; stroke-linejoin:round; stroke-width:4; stroke-opacity:1; fill:none" points="178.867,1194.46 197.764,1194.46 "/>
<polyline clip-path="url(#clip370)" style="stroke:#000000; stroke-linecap:round; stroke-linejoin:round; stroke-width:4; stroke-opacity:1; fill:none" points="178.867,962.987 197.764,962.987 "/>
<polyline clip-path="url(#clip370)" style="stroke:#000000; stroke-linecap:round; stroke-linejoin:round; stroke-width:4; stroke-opacity:1; fill:none" points="178.867,731.514 197.764,731.514 "/>
<polyline clip-path="url(#clip370)" style="stroke:#000000; stroke-linecap:round; stroke-linejoin:round; stroke-width:4; stroke-opacity:1; fill:none" points="178.867,500.041 197.764,500.041 "/>
<polyline clip-path="url(#clip370)" style="stroke:#000000; stroke-linecap:round; stroke-linejoin:round; stroke-width:4; stroke-opacity:1; fill:none" points="178.867,268.568 197.764,268.568 "/>
<path clip-path="url(#clip370)" d="M50.9921 1426.38 L80.6679 1426.38 L80.6679 1430.32 L50.9921 1430.32 L50.9921 1426.38 Z" fill="#000000" fill-rule="nonzero" fill-opacity="1" /><path clip-path="url(#clip370)" d="M91.5706 1439.28 L99.2095 1439.28 L99.2095 1412.91 L90.8993 1414.58 L90.8993 1410.32 L99.1632 1408.65 L103.839 1408.65 L103.839 1439.28 L111.478 1439.28 L111.478 1443.21 L91.5706 1443.21 L91.5706 1439.28 Z" fill="#000000" fill-rule="nonzero" fill-opacity="1" /><path clip-path="url(#clip370)" d="M130.922 1411.73 Q127.311 1411.73 125.482 1415.3 Q123.677 1418.84 123.677 1425.97 Q123.677 1433.07 125.482 1436.64 Q127.311 1440.18 130.922 1440.18 Q134.556 1440.18 136.362 1436.64 Q138.191 1433.07 138.191 1425.97 Q138.191 1418.84 136.362 1415.3 Q134.556 1411.73 130.922 1411.73 M130.922 1408.03 Q136.732 1408.03 139.788 1412.63 Q142.867 1417.22 142.867 1425.97 Q142.867 1434.7 139.788 1439.3 Q136.732 1443.88 130.922 1443.88 Q125.112 1443.88 122.033 1439.3 Q118.978 1434.7 118.978 1425.97 Q118.978 1417.22 122.033 1412.63 Q125.112 1408.03 130.922 1408.03 Z" fill="#000000" fill-rule="nonzero" fill-opacity="1" /><path clip-path="url(#clip370)" d="M82.1494 1194.91 L111.825 1194.91 L111.825 1198.85 L82.1494 1198.85 L82.1494 1194.91 Z" fill="#000000" fill-rule="nonzero" fill-opacity="1" /><path clip-path="url(#clip370)" d="M121.964 1177.18 L140.32 1177.18 L140.32 1181.12 L126.246 1181.12 L126.246 1189.59 Q127.265 1189.24 128.283 1189.08 Q129.302 1188.89 130.32 1188.89 Q136.107 1188.89 139.487 1192.06 Q142.867 1195.24 142.867 1200.65 Q142.867 1206.23 139.394 1209.33 Q135.922 1212.41 129.603 1212.41 Q127.427 1212.41 125.158 1212.04 Q122.913 1211.67 120.506 1210.93 L120.506 1206.23 Q122.589 1207.37 124.811 1207.92 Q127.033 1208.48 129.51 1208.48 Q133.515 1208.48 135.853 1206.37 Q138.191 1204.26 138.191 1200.65 Q138.191 1197.04 135.853 1194.93 Q133.515 1192.83 129.51 1192.83 Q127.635 1192.83 125.76 1193.25 Q123.908 1193.66 121.964 1194.54 L121.964 1177.18 Z" fill="#000000" fill-rule="nonzero" fill-opacity="1" /><path clip-path="url(#clip370)" d="M130.922 948.786 Q127.311 948.786 125.482 952.351 Q123.677 955.892 123.677 963.022 Q123.677 970.128 125.482 973.693 Q127.311 977.235 130.922 977.235 Q134.556 977.235 136.362 973.693 Q138.191 970.128 138.191 963.022 Q138.191 955.892 136.362 952.351 Q134.556 948.786 130.922 948.786 M130.922 945.082 Q136.732 945.082 139.788 949.689 Q142.867 954.272 142.867 963.022 Q142.867 971.749 139.788 976.355 Q136.732 980.938 130.922 980.938 Q125.112 980.938 122.033 976.355 Q118.978 971.749 118.978 963.022 Q118.978 954.272 122.033 949.689 Q125.112 945.082 130.922 945.082 Z" fill="#000000" fill-rule="nonzero" fill-opacity="1" /><path clip-path="url(#clip370)" d="M121.964 714.234 L140.32 714.234 L140.32 718.169 L126.246 718.169 L126.246 726.641 Q127.265 726.294 128.283 726.132 Q129.302 725.947 130.32 725.947 Q136.107 725.947 139.487 729.118 Q142.867 732.289 142.867 737.706 Q142.867 743.285 139.394 746.387 Q135.922 749.465 129.603 749.465 Q127.427 749.465 125.158 749.095 Q122.913 748.724 120.506 747.984 L120.506 743.285 Q122.589 744.419 124.811 744.975 Q127.033 745.53 129.51 745.53 Q133.515 745.53 135.853 743.424 Q138.191 741.317 138.191 737.706 Q138.191 734.095 135.853 731.988 Q133.515 729.882 129.51 729.882 Q127.635 729.882 125.76 730.299 Q123.908 730.715 121.964 731.595 L121.964 714.234 Z" fill="#000000" fill-rule="nonzero" fill-opacity="1" /><path clip-path="url(#clip370)" d="M91.5706 513.386 L99.2095 513.386 L99.2095 487.02 L90.8993 488.687 L90.8993 484.427 L99.1632 482.761 L103.839 482.761 L103.839 513.386 L111.478 513.386 L111.478 517.321 L91.5706 517.321 L91.5706 513.386 Z" fill="#000000" fill-rule="nonzero" fill-opacity="1" /><path clip-path="url(#clip370)" d="M130.922 485.839 Q127.311 485.839 125.482 489.404 Q123.677 492.946 123.677 500.075 Q123.677 507.182 125.482 510.747 Q127.311 514.288 130.922 514.288 Q134.556 514.288 136.362 510.747 Q138.191 507.182 138.191 500.075 Q138.191 492.946 136.362 489.404 Q134.556 485.839 130.922 485.839 M130.922 482.136 Q136.732 482.136 139.788 486.742 Q142.867 491.326 142.867 500.075 Q142.867 508.802 139.788 513.409 Q136.732 517.992 130.922 517.992 Q125.112 517.992 122.033 513.409 Q118.978 508.802 118.978 500.075 Q118.978 491.326 122.033 486.742 Q125.112 482.136 130.922 482.136 Z" fill="#000000" fill-rule="nonzero" fill-opacity="1" /><path clip-path="url(#clip370)" d="M92.566 281.912 L100.205 281.912 L100.205 255.547 L91.8947 257.213 L91.8947 252.954 L100.159 251.288 L104.834 251.288 L104.834 281.912 L112.473 281.912 L112.473 285.848 L92.566 285.848 L92.566 281.912 Z" fill="#000000" fill-rule="nonzero" fill-opacity="1" /><path clip-path="url(#clip370)" d="M121.964 251.288 L140.32 251.288 L140.32 255.223 L126.246 255.223 L126.246 263.695 Q127.265 263.348 128.283 263.186 Q129.302 263 130.32 263 Q136.107 263 139.487 266.172 Q142.867 269.343 142.867 274.76 Q142.867 280.338 139.394 283.44 Q135.922 286.519 129.603 286.519 Q127.427 286.519 125.158 286.148 Q122.913 285.778 120.506 285.037 L120.506 280.338 Q122.589 281.473 124.811 282.028 Q127.033 282.584 129.51 282.584 Q133.515 282.584 135.853 280.477 Q138.191 278.371 138.191 274.76 Q138.191 271.149 135.853 269.042 Q133.515 266.936 129.51 266.936 Q127.635 266.936 125.76 267.352 Q123.908 267.769 121.964 268.649 L121.964 251.288 Z" fill="#000000" fill-rule="nonzero" fill-opacity="1" /><polyline clip-path="url(#clip372)" style="stroke:#009af9; stroke-linecap:round; stroke-linejoin:round; stroke-width:4; stroke-opacity:1; fill:none" points="240.392,841.059 247.251,867.704 254.11,894.04 260.969,919.335 267.828,944.273 274.687,969.64 281.546,994.825 288.405,1019.87 295.264,1044.39 302.123,1067.89 308.982,1090.42 315.841,1111.86 322.7,1132.51 329.559,1152.39 336.418,1171.24 343.277,1189.24 350.136,1206.63 356.995,1223.56 363.854,1239.86 370.713,1255.37 377.572,1270.08 384.431,1284.15 391.29,1297.63 398.149,1310.59 405.008,1323.03 411.867,1334.84 418.726,1346.01 425.585,1356.58 432.444,1366.52 439.303,1375.8 446.162,1384.49 453.021,1392.58 459.88,1400.07 466.739,1406.97 473.598,1413.27 480.457,1419 487.316,1424.14 494.175,1428.68 501.034,1432.66 507.893,1436.1 514.752,1439.01 521.611,1441.4 528.47,1443.24 535.328,1444.55 542.188,1445.37 549.046,1445.72 555.905,1445.59 562.764,1445.04 569.623,1444.08 576.482,1442.74 583.341,1441.09 590.2,1439.22 597.059,1437.14 603.918,1434.69 610.777,1431.71 617.636,1428.26 624.495,1424.27 631.354,1419.74 638.213,1414.76 645.072,1409.33 651.931,1403.51 658.79,1397.3 665.649,1390.64 672.508,1383.48 679.367,1375.87 686.226,1367.9 693.085,1359.63 699.944,1351.06 706.803,1342.2 713.662,1333.14 720.521,1323.92 727.38,1314.53 734.239,1304.94 741.098,1295.16 747.957,1285.31 754.816,1275.43 761.675,1265.5 768.534,1255.49 775.393,1245.37 782.252,1235.22 789.111,1225.1 795.97,1215 802.829,1204.87 809.688,1194.77 816.547,1184.7 823.406,1174.68 830.265,1164.63 837.124,1154.57 843.983,1144.56 850.842,1134.6 857.701,1124.69 864.56,1114.81 871.419,1105.05 878.278,1095.38 885.137,1085.77 891.996,1076.25 898.855,1066.86 905.714,1057.6 912.573,1048.45 919.432,1039.41 926.291,1030.58 933.15,1021.97 940.009,1013.54 946.868,1005.25 953.727,997.035 960.586,988.899 967.445,980.871 974.304,972.971 981.163,965.14 988.022,957.415 994.881,949.873 1001.74,942.463 1008.6,935.17 1015.46,928.041 1022.32,921.087 1029.18,914.273 1036.04,907.512 1042.89,900.883 1049.75,894.387 1056.61,887.941 1063.47,881.551 1070.33,875.244 1077.19,869.047 1084.05,862.933 1090.91,856.839 1097.77,850.711 1104.62,844.602 1111.48,838.521 1118.34,832.427 1125.2,826.384 1132.06,820.378 1138.92,814.38 1145.78,808.493 1152.64,802.729 1159.5,796.908 1166.36,791.018 1173.21,785.165 1180.07,779.384 1186.93,773.588 1193.79,767.789 1200.65,761.996 1207.51,756.217 1214.37,750.528 1221.23,744.857 1228.09,739.173 1234.95,733.518 1241.8,727.949 1248.66,722.508 1255.52,717.209 1262.38,712.024 1269.24,706.948 1276.1,702.006 1282.96,697.2 1289.82,692.536 1296.68,688.049 1303.54,683.709 1310.39,679.506 1317.25,675.55 1324.11,671.867 1330.97,668.388 1337.83,665 1344.69,661.752 1351.55,658.718 1358.41,655.865 1365.27,653.202 1372.13,650.754 1378.98,648.496 1385.84,646.41 1392.7,644.56 1399.56,643.001 1406.42,641.655 1413.28,640.476 1420.14,639.508 1427,638.781 1433.86,638.271 1440.72,637.995 1447.57,637.884 1454.43,637.929 1461.29,638.205 1468.15,638.716 1475.01,639.446 1481.87,640.356 1488.73,641.46 1495.59,642.858 1502.45,644.453 1509.31,646.18 1516.16,648.126 1523.02,650.315 1529.88,652.681 1536.74,655.175 1543.6,657.872 1550.46,660.825 1557.32,664.074 1564.18,667.546 1571.04,671.193 1577.9,675.068 1584.75,679.07 1591.61,683.191 1598.47,687.458 1605.33,691.873 1612.19,696.499 1619.05,701.349 1625.91,706.351 1632.77,711.488 1639.63,716.734 1646.49,722.038 1653.34,727.382 1660.2,732.774 1667.06,738.132 1673.92,743.484 1680.78,748.89 1687.64,754.38 1694.5,759.932 1701.36,765.503 1708.22,771.076 1715.08,776.594 1721.93,782.061 1728.79,787.564 1735.65,793.148 1742.51,798.764 1749.37,804.41 1756.23,810.071 1763.09,815.637 1769.95,821.096 1776.81,826.486 1783.67,831.748 1790.52,836.925 1797.38,842.019 1804.24,847.04 1811.1,852.008 1817.96,856.921 1824.82,861.755 1831.68,866.475 1838.54,871.134 1845.4,875.733 1852.26,880.293 1859.11,884.794 1865.97,889.151 1872.83,893.311 1879.69,897.359 1886.55,901.366 1893.41,905.254 1900.27,908.991 1907.13,912.622 1913.99,916.151 1920.85,919.55 1927.7,922.89 1934.56,926.133 1941.42,929.326 1948.28,932.507 1955.14,935.635 1962,938.67 1968.86,941.582 1975.72,944.376 1982.58,947.053 1989.44,949.612 1996.29,952.057 2003.15,954.385 2010.01,956.595 2016.87,958.689 2023.73,960.672 2030.59,962.538 2037.45,964.265 2044.31,965.861 2051.17,967.353 2058.02,968.759 2064.88,970.08 2071.74,971.308 2078.6,972.457 2085.46,973.532 2092.32,974.544 2099.18,975.508 2106.04,976.413 2112.9,977.256 2119.76,978.068 2126.61,978.855 2133.47,979.64 2140.33,980.448 2147.19,981.308 2154.05,982.192 2160.91,983.199 2167.77,984.35 2174.63,985.39 2181.49,986.376 2188.35,987.446 2195.2,988.499 2202.06,989.4 2208.92,990.163 2215.78,990.871 2222.64,991.363 2229.5,991.267 2236.36,990.917 2243.22,990.45 2250.08,989.747 2256.94,988.322 2263.79,986.263 2270.65,983.91 2277.51,981.642 2284.37,979.814 2291.23,978.654 "/>
<polyline clip-path="url(#clip372)" style="stroke:#e26f46; stroke-linecap:round; stroke-linejoin:round; stroke-width:4; stroke-opacity:1; fill:none" points="240.392,87.9763 247.251,109.568 254.11,131.784 260.969,154.582 267.828,178.133 274.687,201.805 281.546,224.654 288.405,247.524 295.264,270.601 302.123,293.33 308.982,315.667 315.841,337.518 322.7,359.238 329.559,381.094 336.418,402.781 343.277,424.211 350.136,445.367 356.995,466.143 363.854,486.522 370.713,506.384 377.572,525.737 384.431,544.692 391.29,563.172 398.149,581.134 405.008,598.607 411.867,615.67 418.726,632.29 425.585,648.476 432.444,664.308 439.303,679.809 446.162,694.977 453.021,709.815 459.88,724.356 466.739,738.632 473.598,752.667 480.457,766.471 487.316,780.073 494.175,793.496 501.034,806.759 507.893,819.867 514.752,832.845 521.611,845.752 528.47,858.585 535.328,871.324 542.188,883.971 549.046,896.511 555.905,908.96 562.764,921.418 569.623,933.907 576.482,946.365 583.341,958.719 590.2,971.038 597.059,983.322 603.918,995.481 610.777,1007.43 617.636,1019.22 624.495,1030.84 631.354,1042.34 638.213,1053.68 645.072,1064.93 651.931,1076.09 658.79,1087.08 665.649,1097.86 672.508,1108.44 679.367,1118.72 686.226,1128.73 693.085,1138.55 699.944,1148.22 706.803,1157.69 713.662,1166.85 720.521,1175.75 727.38,1184.49 734.239,1193.05 741.098,1201.38 747.957,1209.38 754.816,1217.16 761.675,1224.78 768.534,1232.23 775.393,1239.54 782.252,1246.73 789.111,1253.77 795.97,1260.64 802.829,1267.27 809.688,1273.64 816.547,1279.83 823.406,1285.83 830.265,1291.67 837.124,1297.29 843.983,1302.7 850.842,1307.89 857.701,1312.88 864.56,1317.6 871.419,1322.05 878.278,1326.27 885.137,1330.17 891.996,1333.76 898.855,1337.13 905.714,1340.25 912.573,1343.07 919.432,1345.52 926.291,1347.62 933.15,1349.41 940.009,1350.89 946.868,1352.05 953.727,1352.93 960.586,1353.49 967.445,1353.63 974.304,1353.41 981.163,1352.88 988.022,1352.09 994.881,1351.01 1001.74,1349.55 1008.6,1347.73 1015.46,1345.61 1022.32,1343.14 1029.18,1340.33 1036.04,1337.17 1042.89,1333.62 1049.75,1329.86 1056.61,1325.82 1063.47,1321.49 1070.33,1316.91 1077.19,1312.06 1084.05,1307.01 1090.91,1301.74 1097.77,1296.23 1104.62,1290.58 1111.48,1284.81 1118.34,1278.84 1125.2,1272.67 1132.06,1266.43 1138.92,1260.05 1145.78,1253.46 1152.64,1246.8 1159.5,1240.11 1166.36,1233.38 1173.21,1226.54 1180.07,1219.6 1186.93,1212.6 1193.79,1205.5 1200.65,1198.44 1207.51,1191.34 1214.37,1184.18 1221.23,1177.01 1228.09,1169.88 1234.95,1162.79 1241.8,1155.66 1248.66,1148.5 1255.52,1141.4 1262.38,1134.39 1269.24,1127.47 1276.1,1120.62 1282.96,1113.76 1289.82,1106.88 1296.68,1100 1303.54,1093.17 1310.39,1086.49 1317.25,1079.91 1324.11,1073.5 1330.97,1067.26 1337.83,1061.12 1344.69,1055.06 1351.55,1049.09 1358.41,1043.21 1365.27,1037.42 1372.13,1031.66 1378.98,1025.95 1385.84,1020.38 1392.7,1014.86 1399.56,1009.41 1406.42,1004.1 1413.28,998.892 1420.14,993.757 1427,988.667 1433.86,983.717 1440.72,978.93 1447.57,974.233 1454.43,969.569 1461.29,964.91 1468.15,960.38 1475.01,956.032 1481.87,951.766 1488.73,947.561 1495.59,943.359 1502.45,939.154 1509.31,934.96 1516.16,930.778 1523.02,926.606 1529.88,922.431 1536.74,918.252 1543.6,914.062 1550.46,909.86 1557.32,905.69 1564.18,901.568 1571.04,897.485 1577.9,893.395 1584.75,889.255 1591.61,885.071 1598.47,880.824 1605.33,876.579 1612.19,872.303 1619.05,867.974 1625.91,863.578 1632.77,859.115 1639.63,854.612 1646.49,850.102 1653.34,845.568 1660.2,841.064 1667.06,836.641 1673.92,832.234 1680.78,827.886 1687.64,823.659 1694.5,819.479 1701.36,815.299 1708.22,811.064 1715.08,806.823 1721.93,802.653 1728.79,798.502 1735.65,794.395 1742.51,790.306 1749.37,786.177 1756.23,782.051 1763.09,778.006 1769.95,773.985 1776.81,770.018 1783.67,766.078 1790.52,762.169 1797.38,758.417 1804.24,754.8 1811.1,751.285 1817.96,747.884 1824.82,744.559 1831.68,741.326 1838.54,738.24 1845.4,735.297 1852.26,732.442 1859.11,729.699 1865.97,727.094 1872.83,724.509 1879.69,722.005 1886.55,719.585 1893.41,717.279 1900.27,715.105 1907.13,713.015 1913.99,711.093 1920.85,709.335 1927.7,707.673 1934.56,706.126 1941.42,704.666 1948.28,703.301 1955.14,702.015 1962,700.86 1968.86,699.838 1975.72,698.926 1982.58,698.1 1989.44,697.38 1996.29,696.796 2003.15,696.348 2010.01,695.998 2016.87,695.774 2023.73,695.7 2030.59,695.704 2037.45,695.766 2044.31,695.896 2051.17,696.076 2058.02,696.325 2064.88,696.626 2071.74,696.953 2078.6,697.29 2085.46,697.633 2092.32,697.983 2099.18,698.317 2106.04,698.639 2112.9,698.931 2119.76,699.131 2126.61,699.202 2133.47,699.169 2140.33,699.004 2147.19,698.609 2154.05,697.975 2160.91,697.216 2167.77,696.272 2174.63,695.095 2181.49,693.514 2188.35,691.567 2195.2,689.577 2202.06,687.557 2208.92,685.477 2215.78,683.331 2222.64,681.042 2229.5,678.687 2236.36,676.176 2243.22,673.668 2250.08,670.379 2256.94,666.495 2263.79,662.422 2270.65,657.583 2277.51,652.243 2284.37,647.237 2291.23,643.306 "/>
<path clip-path="url(#clip370)" d="M2010.47 250.738 L2280.29 250.738 L2280.29 95.2176 L2010.47 95.2176  Z" fill="#ffffff" fill-rule="evenodd" fill-opacity="1"/>
<polyline clip-path="url(#clip370)" style="stroke:#000000; stroke-linecap:round; stroke-linejoin:round; stroke-width:4; stroke-opacity:1; fill:none" points="2010.47,250.738 2280.29,250.738 2280.29,95.2176 2010.47,95.2176 2010.47,250.738 "/>
<polyline clip-path="url(#clip370)" style="stroke:#009af9; stroke-linecap:round; stroke-linejoin:round; stroke-width:4; stroke-opacity:1; fill:none" points="2034.63,147.058 2179.55,147.058 "/>
<path clip-path="url(#clip370)" d="M2217.55 166.745 Q2215.75 171.375 2214.03 172.787 Q2212.32 174.199 2209.45 174.199 L2206.05 174.199 L2206.05 170.634 L2208.55 170.634 Q2210.31 170.634 2211.28 169.8 Q2212.25 168.967 2213.43 165.865 L2214.19 163.921 L2203.71 138.412 L2208.22 138.412 L2216.32 158.689 L2224.43 138.412 L2228.94 138.412 L2217.55 166.745 Z" fill="#000000" fill-rule="nonzero" fill-opacity="1" /><path clip-path="url(#clip370)" d="M2236.23 160.402 L2243.87 160.402 L2243.87 134.037 L2235.56 135.703 L2235.56 131.444 L2243.82 129.778 L2248.5 129.778 L2248.5 160.402 L2256.14 160.402 L2256.14 164.338 L2236.23 164.338 L2236.23 160.402 Z" fill="#000000" fill-rule="nonzero" fill-opacity="1" /><polyline clip-path="url(#clip370)" style="stroke:#e26f46; stroke-linecap:round; stroke-linejoin:round; stroke-width:4; stroke-opacity:1; fill:none" points="2034.63,198.898 2179.55,198.898 "/>
<path clip-path="url(#clip370)" d="M2217.55 218.585 Q2215.75 223.215 2214.03 224.627 Q2212.32 226.039 2209.45 226.039 L2206.05 226.039 L2206.05 222.474 L2208.55 222.474 Q2210.31 222.474 2211.28 221.64 Q2212.25 220.807 2213.43 217.705 L2214.19 215.761 L2203.71 190.252 L2208.22 190.252 L2216.32 210.529 L2224.43 190.252 L2228.94 190.252 L2217.55 218.585 Z" fill="#000000" fill-rule="nonzero" fill-opacity="1" /><path clip-path="url(#clip370)" d="M2239.45 212.242 L2255.77 212.242 L2255.77 216.178 L2233.82 216.178 L2233.82 212.242 Q2236.49 209.488 2241.07 204.858 Q2245.68 200.205 2246.86 198.863 Q2249.1 196.34 2249.98 194.604 Q2250.88 192.844 2250.88 191.155 Q2250.88 188.4 2248.94 186.664 Q2247.02 184.928 2243.92 184.928 Q2241.72 184.928 2239.26 185.692 Q2236.83 186.455 2234.06 188.006 L2234.06 183.284 Q2236.88 182.15 2239.33 181.571 Q2241.79 180.993 2243.82 180.993 Q2249.19 180.993 2252.39 183.678 Q2255.58 186.363 2255.58 190.854 Q2255.58 192.983 2254.77 194.905 Q2253.99 196.803 2251.88 199.395 Q2251.3 200.067 2248.2 203.284 Q2245.1 206.479 2239.45 212.242 Z" fill="#000000" fill-rule="nonzero" fill-opacity="1" /></svg>
