<?xml version="1.0" encoding="utf-8"?>
<svg xmlns="http://www.w3.org/2000/svg" xmlns:xlink="http://www.w3.org/1999/xlink" width="600" height="400" viewBox="0 0 2400 1600">
<defs>
  <clipPath id="clip250">
    <rect x="0" y="0" width="2400" height="1600"/>
  </clipPath>
</defs>
<path clip-path="url(#clip250)" d="M0 1600 L2400 1600 L2400 0 L0 0  Z" fill="#ffffff" fill-rule="evenodd" fill-opacity="1"/>
<defs>
  <clipPath id="clip251">
    <rect x="480" y="0" width="1681" height="1600"/>
  </clipPath>
</defs>
<path clip-path="url(#clip250)" d="M257.204 1423.18 L2352.76 1423.18 L2352.76 47.2441 L257.204 47.2441  Z" fill="#ffffff" fill-rule="evenodd" fill-opacity="1"/>
<defs>
  <clipPath id="clip252">
    <rect x="257" y="47" width="2097" height="1377"/>
  </clipPath>
</defs>
<polyline clip-path="url(#clip252)" style="stroke:#000000; stroke-linecap:round; stroke-linejoin:round; stroke-width:2; stroke-opacity:0.1; fill:none" points="321.967,1423.18 321.967,47.2441 "/>
<polyline clip-path="url(#clip252)" style="stroke:#000000; stroke-linecap:round; stroke-linejoin:round; stroke-width:2; stroke-opacity:0.1; fill:none" points="813.732,1423.18 813.732,47.2441 "/>
<polyline clip-path="url(#clip252)" style="stroke:#000000; stroke-linecap:round; stroke-linejoin:round; stroke-width:2; stroke-opacity:0.1; fill:none" points="1305.5,1423.18 1305.5,47.2441 "/>
<polyline clip-path="url(#clip252)" style="stroke:#000000; stroke-linecap:round; stroke-linejoin:round; stroke-width:2; stroke-opacity:0.1; fill:none" points="1797.26,1423.18 1797.26,47.2441 "/>
<polyline clip-path="url(#clip252)" style="stroke:#000000; stroke-linecap:round; stroke-linejoin:round; stroke-width:2; stroke-opacity:0.1; fill:none" points="2289.03,1423.18 2289.03,47.2441 "/>
<polyline clip-path="url(#clip250)" style="stroke:#000000; stroke-linecap:round; stroke-linejoin:round; stroke-width:4; stroke-opacity:1; fill:none" points="257.204,1423.18 2352.76,1423.18 "/>
<polyline clip-path="url(#clip250)" style="stroke:#000000; stroke-linecap:round; stroke-linejoin:round; stroke-width:4; stroke-opacity:1; fill:none" points="321.967,1423.18 321.967,1404.28 "/>
<polyline clip-path="url(#clip250)" style="stroke:#000000; stroke-linecap:round; stroke-linejoin:round; stroke-width:4; stroke-opacity:1; fill:none" points="813.732,1423.18 813.732,1404.28 "/>
<polyline clip-path="url(#clip250)" style="stroke:#000000; stroke-linecap:round; stroke-linejoin:round; stroke-width:4; stroke-opacity:1; fill:none" points="1305.5,1423.18 1305.5,1404.28 "/>
<polyline clip-path="url(#clip250)" style="stroke:#000000; stroke-linecap:round; stroke-linejoin:round; stroke-width:4; stroke-opacity:1; fill:none" points="1797.26,1423.18 1797.26,1404.28 "/>
<polyline clip-path="url(#clip250)" style="stroke:#000000; stroke-linecap:round; stroke-linejoin:round; stroke-width:4; stroke-opacity:1; fill:none" points="2289.03,1423.18 2289.03,1404.28 "/>
<path clip-path="url(#clip250)" d="M268.495 1468.75 L298.171 1468.75 L298.171 1472.69 L268.495 1472.69 L268.495 1468.75 Z" fill="#000000" fill-rule="nonzero" fill-opacity="1" /><path clip-path="url(#clip250)" d="M309.074 1481.64 L316.713 1481.64 L316.713 1455.28 L308.402 1456.95 L308.402 1452.69 L316.666 1451.02 L321.342 1451.02 L321.342 1481.64 L328.981 1481.64 L328.981 1485.58 L309.074 1485.58 L309.074 1481.64 Z" fill="#000000" fill-rule="nonzero" fill-opacity="1" /><path clip-path="url(#clip250)" d="M338.425 1479.7 L343.31 1479.7 L343.31 1485.58 L338.425 1485.58 L338.425 1479.7 Z" fill="#000000" fill-rule="nonzero" fill-opacity="1" /><path clip-path="url(#clip250)" d="M363.495 1454.1 Q359.884 1454.1 358.055 1457.66 Q356.249 1461.2 356.249 1468.33 Q356.249 1475.44 358.055 1479.01 Q359.884 1482.55 363.495 1482.55 Q367.129 1482.55 368.935 1479.01 Q370.763 1475.44 370.763 1468.33 Q370.763 1461.2 368.935 1457.66 Q367.129 1454.1 363.495 1454.1 M363.495 1450.39 Q369.305 1450.39 372.36 1455 Q375.439 1459.58 375.439 1468.33 Q375.439 1477.06 372.36 1481.67 Q369.305 1486.25 363.495 1486.25 Q357.685 1486.25 354.606 1481.67 Q351.55 1477.06 351.55 1468.33 Q351.55 1459.58 354.606 1455 Q357.685 1450.39 363.495 1450.39 Z" fill="#000000" fill-rule="nonzero" fill-opacity="1" /><path clip-path="url(#clip250)" d="M760.758 1468.75 L790.433 1468.75 L790.433 1472.69 L760.758 1472.69 L760.758 1468.75 Z" fill="#000000" fill-rule="nonzero" fill-opacity="1" /><path clip-path="url(#clip250)" d="M810.526 1454.1 Q806.915 1454.1 805.086 1457.66 Q803.281 1461.2 803.281 1468.33 Q803.281 1475.44 805.086 1479.01 Q806.915 1482.55 810.526 1482.55 Q814.16 1482.55 815.966 1479.01 Q817.794 1475.44 817.794 1468.33 Q817.794 1461.2 815.966 1457.66 Q814.16 1454.1 810.526 1454.1 M810.526 1450.39 Q816.336 1450.39 819.392 1455 Q822.47 1459.58 822.47 1468.33 Q822.47 1477.06 819.392 1481.67 Q816.336 1486.25 810.526 1486.25 Q804.716 1486.25 801.637 1481.67 Q798.582 1477.06 798.582 1468.33 Q798.582 1459.58 801.637 1455 Q804.716 1450.39 810.526 1450.39 Z" fill="#000000" fill-rule="nonzero" fill-opacity="1" /><path clip-path="url(#clip250)" d="M830.688 1479.7 L835.572 1479.7 L835.572 1485.58 L830.688 1485.58 L830.688 1479.7 Z" fill="#000000" fill-rule="nonzero" fill-opacity="1" /><path clip-path="url(#clip250)" d="M845.803 1451.02 L864.16 1451.02 L864.16 1454.96 L850.086 1454.96 L850.086 1463.43 Q851.104 1463.08 852.123 1462.92 Q853.141 1462.73 854.16 1462.73 Q859.947 1462.73 863.327 1465.9 Q866.706 1469.08 866.706 1474.49 Q866.706 1480.07 863.234 1483.17 Q859.762 1486.25 853.442 1486.25 Q851.266 1486.25 848.998 1485.88 Q846.753 1485.51 844.345 1484.77 L844.345 1480.07 Q846.428 1481.2 848.651 1481.76 Q850.873 1482.32 853.35 1482.32 Q857.354 1482.32 859.692 1480.21 Q862.03 1478.1 862.03 1474.49 Q862.03 1470.88 859.692 1468.77 Q857.354 1466.67 853.35 1466.67 Q851.475 1466.67 849.6 1467.08 Q847.748 1467.5 845.803 1468.38 L845.803 1451.02 Z" fill="#000000" fill-rule="nonzero" fill-opacity="1" /><path clip-path="url(#clip250)" d="M1282.88 1454.1 Q1279.27 1454.1 1277.44 1457.66 Q1275.64 1461.2 1275.64 1468.33 Q1275.64 1475.44 1277.44 1479.01 Q1279.27 1482.55 1282.88 1482.55 Q1286.52 1482.55 1288.32 1479.01 Q1290.15 1475.44 1290.15 1468.33 Q1290.15 1461.2 1288.32 1457.66 Q1286.52 1454.1 1282.88 1454.1 M1282.88 1450.39 Q1288.69 1450.39 1291.75 1455 Q1294.83 1459.58 1294.83 1468.33 Q1294.83 1477.06 1291.75 1481.67 Q1288.69 1486.25 1282.88 1486.25 Q1277.07 1486.25 1273.99 1481.67 Q1270.94 1477.06 1270.94 1468.33 Q1270.94 1459.58 1273.99 1455 Q1277.07 1450.39 1282.88 1450.39 Z" fill="#000000" fill-rule="nonzero" fill-opacity="1" /><path clip-path="url(#clip250)" d="M1303.04 1479.7 L1307.93 1479.7 L1307.93 1485.58 L1303.04 1485.58 L1303.04 1479.7 Z" fill="#000000" fill-rule="nonzero" fill-opacity="1" /><path clip-path="url(#clip250)" d="M1328.11 1454.1 Q1324.5 1454.1 1322.67 1457.66 Q1320.87 1461.2 1320.87 1468.33 Q1320.87 1475.44 1322.67 1479.01 Q1324.5 1482.55 1328.11 1482.55 Q1331.75 1482.55 1333.55 1479.01 Q1335.38 1475.44 1335.38 1468.33 Q1335.38 1461.2 1333.55 1457.66 Q1331.75 1454.1 1328.11 1454.1 M1328.11 1450.39 Q1333.92 1450.39 1336.98 1455 Q1340.06 1459.58 1340.06 1468.33 Q1340.06 1477.06 1336.98 1481.67 Q1333.92 1486.25 1328.11 1486.25 Q1322.3 1486.25 1319.22 1481.67 Q1316.17 1477.06 1316.17 1468.33 Q1316.17 1459.58 1319.22 1455 Q1322.3 1450.39 1328.11 1450.39 Z" fill="#000000" fill-rule="nonzero" fill-opacity="1" /><path clip-path="url(#clip250)" d="M1775.14 1454.1 Q1771.53 1454.1 1769.7 1457.66 Q1767.9 1461.2 1767.9 1468.33 Q1767.9 1475.44 1769.7 1479.01 Q1771.53 1482.55 1775.14 1482.55 Q1778.78 1482.55 1780.58 1479.01 Q1782.41 1475.44 1782.41 1468.33 Q1782.41 1461.2 1780.58 1457.66 Q1778.78 1454.1 1775.14 1454.1 M1775.14 1450.39 Q1780.95 1450.39 1784.01 1455 Q1787.09 1459.58 1787.09 1468.33 Q1787.09 1477.06 1784.01 1481.67 Q1780.95 1486.25 1775.14 1486.25 Q1769.33 1486.25 1766.25 1481.67 Q1763.2 1477.06 1763.2 1468.33 Q1763.2 1459.58 1766.25 1455 Q1769.33 1450.39 1775.14 1450.39 Z" fill="#000000" fill-rule="nonzero" fill-opacity="1" /><path clip-path="url(#clip250)" d="M1795.31 1479.7 L1800.19 1479.7 L1800.19 1485.58 L1795.31 1485.58 L1795.31 1479.7 Z" fill="#000000" fill-rule="nonzero" fill-opacity="1" /><path clip-path="url(#clip250)" d="M1810.42 1451.02 L1828.78 1451.02 L1828.78 1454.96 L1814.7 1454.96 L1814.7 1463.43 Q1815.72 1463.08 1816.74 1462.92 Q1817.76 1462.73 1818.78 1462.73 Q1824.56 1462.73 1827.94 1465.9 Q1831.32 1469.08 1831.32 1474.49 Q1831.32 1480.07 1827.85 1483.17 Q1824.38 1486.25 1818.06 1486.25 Q1815.88 1486.25 1813.62 1485.88 Q1811.37 1485.51 1808.96 1484.77 L1808.96 1480.07 Q1811.05 1481.2 1813.27 1481.76 Q1815.49 1482.32 1817.97 1482.32 Q1821.97 1482.32 1824.31 1480.21 Q1826.65 1478.1 1826.65 1474.49 Q1826.65 1470.88 1824.31 1468.77 Q1821.97 1466.67 1817.97 1466.67 Q1816.09 1466.67 1814.22 1467.08 Q1812.37 1467.5 1810.42 1468.38 L1810.42 1451.02 Z" fill="#000000" fill-rule="nonzero" fill-opacity="1" /><path clip-path="url(#clip250)" d="M2256.18 1481.64 L2263.82 1481.64 L2263.82 1455.28 L2255.51 1456.95 L2255.51 1452.69 L2263.77 1451.02 L2268.45 1451.02 L2268.45 1481.64 L2276.09 1481.64 L2276.09 1485.58 L2256.18 1485.58 L2256.18 1481.64 Z" fill="#000000" fill-rule="nonzero" fill-opacity="1" /><path clip-path="url(#clip250)" d="M2285.53 1479.7 L2290.41 1479.7 L2290.41 1485.58 L2285.53 1485.58 L2285.53 1479.7 Z" fill="#000000" fill-rule="nonzero" fill-opacity="1" /><path clip-path="url(#clip250)" d="M2310.6 1454.1 Q2306.99 1454.1 2305.16 1457.66 Q2303.35 1461.2 2303.35 1468.33 Q2303.35 1475.44 2305.16 1479.01 Q2306.99 1482.55 2310.6 1482.55 Q2314.23 1482.55 2316.04 1479.01 Q2317.87 1475.44 2317.87 1468.33 Q2317.87 1461.2 2316.04 1457.66 Q2314.23 1454.1 2310.6 1454.1 M2310.6 1450.39 Q2316.41 1450.39 2319.47 1455 Q2322.54 1459.58 2322.54 1468.33 Q2322.54 1477.06 2319.47 1481.67 Q2316.41 1486.25 2310.6 1486.25 Q2304.79 1486.25 2301.71 1481.67 Q2298.66 1477.06 2298.66 1468.33 Q2298.66 1459.58 2301.71 1455 Q2304.79 1450.39 2310.6 1450.39 Z" fill="#000000" fill-rule="nonzero" fill-opacity="1" /><path clip-path="url(#clip250)" d="M1134.03 1525.81 L1134.03 1543.66 L1142.11 1543.66 Q1146.6 1543.66 1149.05 1541.34 Q1151.5 1539.02 1151.5 1534.72 Q1151.5 1530.45 1149.05 1528.13 Q1146.6 1525.81 1142.11 1525.81 L1134.03 1525.81 M1127.6 1520.52 L1142.11 1520.52 Q1150.1 1520.52 1154.18 1524.15 Q1158.28 1527.75 1158.28 1534.72 Q1158.28 1541.75 1154.18 1545.35 Q1150.1 1548.95 1142.11 1548.95 L1134.03 1548.95 L1134.03 1568.04 L1127.6 1568.04 L1127.6 1520.52 Z" fill="#000000" fill-rule="nonzero" fill-opacity="1" /><path clip-path="url(#clip250)" d="M1178.14 1536.5 Q1173.43 1536.5 1170.7 1540.19 Q1167.96 1543.85 1167.96 1550.25 Q1167.96 1556.65 1170.66 1560.34 Q1173.4 1564 1178.14 1564 Q1182.82 1564 1185.56 1560.31 Q1188.3 1556.62 1188.3 1550.25 Q1188.3 1543.92 1185.56 1540.23 Q1182.82 1536.5 1178.14 1536.5 M1178.14 1531.54 Q1185.78 1531.54 1190.14 1536.5 Q1194.5 1541.47 1194.5 1550.25 Q1194.5 1559 1190.14 1564 Q1185.78 1568.97 1178.14 1568.97 Q1170.47 1568.97 1166.11 1564 Q1161.78 1559 1161.78 1550.25 Q1161.78 1541.47 1166.11 1536.5 Q1170.47 1531.54 1178.14 1531.54 Z" fill="#000000" fill-rule="nonzero" fill-opacity="1" /><path clip-path="url(#clip250)" d="M1226.94 1533.45 L1226.94 1538.98 Q1224.45 1537.71 1221.78 1537.07 Q1219.11 1536.44 1216.24 1536.44 Q1211.88 1536.44 1209.69 1537.77 Q1207.52 1539.11 1207.52 1541.79 Q1207.52 1543.82 1209.08 1545 Q1210.64 1546.15 1215.35 1547.2 L1217.36 1547.64 Q1223.59 1548.98 1226.2 1551.43 Q1228.85 1553.85 1228.85 1558.21 Q1228.85 1563.17 1224.9 1566.07 Q1220.98 1568.97 1214.11 1568.97 Q1211.24 1568.97 1208.13 1568.39 Q1205.04 1567.85 1201.6 1566.74 L1201.6 1560.69 Q1204.85 1562.38 1208 1563.24 Q1211.15 1564.07 1214.24 1564.07 Q1218.37 1564.07 1220.6 1562.66 Q1222.83 1561.23 1222.83 1558.65 Q1222.83 1556.27 1221.21 1554.99 Q1219.62 1553.72 1214.17 1552.54 L1212.14 1552.07 Q1206.69 1550.92 1204.27 1548.56 Q1201.86 1546.18 1201.86 1542.04 Q1201.86 1537.01 1205.42 1534.27 Q1208.99 1531.54 1215.54 1531.54 Q1218.79 1531.54 1221.65 1532.01 Q1224.52 1532.49 1226.94 1533.45 Z" fill="#000000" fill-rule="nonzero" fill-opacity="1" /><path clip-path="url(#clip250)" d="M1238.17 1532.4 L1244.03 1532.4 L1244.03 1568.04 L1238.17 1568.04 L1238.17 1532.4 M1238.17 1518.52 L1244.03 1518.52 L1244.03 1525.93 L1238.17 1525.93 L1238.17 1518.52 Z" fill="#000000" fill-rule="nonzero" fill-opacity="1" /><path clip-path="url(#clip250)" d="M1262.08 1522.27 L1262.08 1532.4 L1274.14 1532.4 L1274.14 1536.95 L1262.08 1536.95 L1262.08 1556.3 Q1262.08 1560.66 1263.25 1561.9 Q1264.46 1563.14 1268.12 1563.14 L1274.14 1563.14 L1274.14 1568.04 L1268.12 1568.04 Q1261.34 1568.04 1258.76 1565.53 Q1256.19 1562.98 1256.19 1556.3 L1256.19 1536.95 L1251.89 1536.95 L1251.89 1532.4 L1256.19 1532.4 L1256.19 1522.27 L1262.08 1522.27 Z" fill="#000000" fill-rule="nonzero" fill-opacity="1" /><path clip-path="url(#clip250)" d="M1281.84 1532.4 L1287.7 1532.4 L1287.7 1568.04 L1281.84 1568.04 L1281.84 1532.4 M1281.84 1518.52 L1287.7 1518.52 L1287.7 1525.93 L1281.84 1525.93 L1281.84 1518.52 Z" fill="#000000" fill-rule="nonzero" fill-opacity="1" /><path clip-path="url(#clip250)" d="M1313.76 1536.5 Q1309.05 1536.5 1306.32 1540.19 Q1303.58 1543.85 1303.58 1550.25 Q1303.58 1556.65 1306.28 1560.34 Q1309.02 1564 1313.76 1564 Q1318.44 1564 1321.18 1560.31 Q1323.92 1556.62 1323.92 1550.25 Q1323.92 1543.92 1321.18 1540.23 Q1318.44 1536.5 1313.76 1536.5 M1313.76 1531.54 Q1321.4 1531.54 1325.76 1536.5 Q1330.12 1541.47 1330.12 1550.25 Q1330.12 1559 1325.76 1564 Q1321.4 1568.97 1313.76 1568.97 Q1306.09 1568.97 1301.73 1564 Q1297.4 1559 1297.4 1550.25 Q1297.4 1541.47 1301.73 1536.5 Q1306.09 1531.54 1313.76 1531.54 Z" fill="#000000" fill-rule="nonzero" fill-opacity="1" /><path clip-path="url(#clip250)" d="M1369.46 1546.53 L1369.46 1568.04 L1363.61 1568.04 L1363.61 1546.72 Q1363.61 1541.66 1361.63 1539.14 Q1359.66 1536.63 1355.71 1536.63 Q1350.97 1536.63 1348.23 1539.65 Q1345.5 1542.68 1345.5 1547.9 L1345.5 1568.04 L1339.61 1568.04 L1339.61 1532.4 L1345.5 1532.4 L1345.5 1537.93 Q1347.6 1534.72 1350.43 1533.13 Q1353.3 1531.54 1357.02 1531.54 Q1363.16 1531.54 1366.31 1535.36 Q1369.46 1539.14 1369.46 1546.53 Z" fill="#000000" fill-rule="nonzero" fill-opacity="1" /><path clip-path="url(#clip250)" d="M1415.93 1518.58 Q1411.67 1525.9 1409.6 1533.06 Q1407.53 1540.23 1407.53 1547.58 Q1407.53 1554.93 1409.6 1562.16 Q1411.7 1569.35 1415.93 1576.64 L1410.84 1576.64 Q1406.07 1569.16 1403.68 1561.93 Q1401.32 1554.71 1401.32 1547.58 Q1401.32 1540.48 1403.68 1533.29 Q1406.04 1526.09 1410.84 1518.58 L1415.93 1518.58 Z" fill="#000000" fill-rule="nonzero" fill-opacity="1" /><path clip-path="url(#clip250)" d="M1430.8 1550.25 Q1430.8 1556.71 1433.44 1560.4 Q1436.11 1564.07 1440.76 1564.07 Q1445.41 1564.07 1448.08 1560.4 Q1450.75 1556.71 1450.75 1550.25 Q1450.75 1543.79 1448.08 1540.13 Q1445.41 1536.44 1440.76 1536.44 Q1436.11 1536.44 1433.44 1540.13 Q1430.8 1543.79 1430.8 1550.25 M1450.75 1562.7 Q1448.91 1565.88 1446.08 1567.44 Q1443.27 1568.97 1439.33 1568.97 Q1432.87 1568.97 1428.79 1563.81 Q1424.75 1558.65 1424.75 1550.25 Q1424.75 1541.85 1428.79 1536.69 Q1432.87 1531.54 1439.33 1531.54 Q1443.27 1531.54 1446.08 1533.1 Q1448.91 1534.62 1450.75 1537.81 L1450.75 1532.4 L1456.61 1532.4 L1456.61 1581.6 L1450.75 1581.6 L1450.75 1562.7 Z" fill="#000000" fill-rule="nonzero" fill-opacity="1" /><path clip-path="url(#clip250)" d="M1467.75 1518.58 L1472.84 1518.58 Q1477.62 1526.09 1479.97 1533.29 Q1482.36 1540.48 1482.36 1547.58 Q1482.36 1554.71 1479.97 1561.93 Q1477.62 1569.16 1472.84 1576.64 L1467.75 1576.64 Q1471.98 1569.35 1474.05 1562.16 Q1476.15 1554.93 1476.15 1547.58 Q1476.15 1540.23 1474.05 1533.06 Q1471.98 1525.9 1467.75 1518.58 Z" fill="#000000" fill-rule="nonzero" fill-opacity="1" /><polyline clip-path="url(#clip252)" style="stroke:#000000; stroke-linecap:round; stroke-linejoin:round; stroke-width:2; stroke-opacity:0.1; fill:none" points="257.204,1379.83 2352.76,1379.83 "/>
<polyline clip-path="url(#clip252)" style="stroke:#000000; stroke-linecap:round; stroke-linejoin:round; stroke-width:2; stroke-opacity:0.1; fill:none" points="257.204,1056.42 2352.76,1056.42 "/>
<polyline clip-path="url(#clip252)" style="stroke:#000000; stroke-linecap:round; stroke-linejoin:round; stroke-width:2; stroke-opacity:0.1; fill:none" points="257.204,733.009 2352.76,733.009 "/>
<polyline clip-path="url(#clip252)" style="stroke:#000000; stroke-linecap:round; stroke-linejoin:round; stroke-width:2; stroke-opacity:0.1; fill:none" points="257.204,409.597 2352.76,409.597 "/>
<polyline clip-path="url(#clip252)" style="stroke:#000000; stroke-linecap:round; stroke-linejoin:round; stroke-width:2; stroke-opacity:0.1; fill:none" points="257.204,86.1857 2352.76,86.1857 "/>
<polyline clip-path="url(#clip250)" style="stroke:#000000; stroke-linecap:round; stroke-linejoin:round; stroke-width:4; stroke-opacity:1; fill:none" points="257.204,1423.18 257.204,47.2441 "/>
<polyline clip-path="url(#clip250)" style="stroke:#000000; stroke-linecap:round; stroke-linejoin:round; stroke-width:4; stroke-opacity:1; fill:none" points="257.204,1379.83 276.102,1379.83 "/>
<polyline clip-path="url(#clip250)" style="stroke:#000000; stroke-linecap:round; stroke-linejoin:round; stroke-width:4; stroke-opacity:1; fill:none" points="257.204,1056.42 276.102,1056.42 "/>
<polyline clip-path="url(#clip250)" style="stroke:#000000; stroke-linecap:round; stroke-linejoin:round; stroke-width:4; stroke-opacity:1; fill:none" points="257.204,733.009 276.102,733.009 "/>
<polyline clip-path="url(#clip250)" style="stroke:#000000; stroke-linecap:round; stroke-linejoin:round; stroke-width:4; stroke-opacity:1; fill:none" points="257.204,409.597 276.102,409.597 "/>
<polyline clip-path="url(#clip250)" style="stroke:#000000; stroke-linecap:round; stroke-linejoin:round; stroke-width:4; stroke-opacity:1; fill:none" points="257.204,86.1857 276.102,86.1857 "/>
<path clip-path="url(#clip250)" d="M114.26 1380.28 L143.936 1380.28 L143.936 1384.22 L114.26 1384.22 L114.26 1380.28 Z" fill="#000000" fill-rule="nonzero" fill-opacity="1" /><path clip-path="url(#clip250)" d="M154.839 1393.18 L162.477 1393.18 L162.477 1366.81 L154.167 1368.48 L154.167 1364.22 L162.431 1362.55 L167.107 1362.55 L167.107 1393.18 L174.746 1393.18 L174.746 1397.11 L154.839 1397.11 L154.839 1393.18 Z" fill="#000000" fill-rule="nonzero" fill-opacity="1" /><path clip-path="url(#clip250)" d="M184.19 1391.23 L189.075 1391.23 L189.075 1397.11 L184.19 1397.11 L184.19 1391.23 Z" fill="#000000" fill-rule="nonzero" fill-opacity="1" /><path clip-path="url(#clip250)" d="M209.26 1365.63 Q205.649 1365.63 203.82 1369.2 Q202.014 1372.74 202.014 1379.87 Q202.014 1386.97 203.82 1390.54 Q205.649 1394.08 209.26 1394.08 Q212.894 1394.08 214.699 1390.54 Q216.528 1386.97 216.528 1379.87 Q216.528 1372.74 214.699 1369.2 Q212.894 1365.63 209.26 1365.63 M209.26 1361.93 Q215.07 1361.93 218.125 1366.53 Q221.204 1371.12 221.204 1379.87 Q221.204 1388.59 218.125 1393.2 Q215.07 1397.78 209.26 1397.78 Q203.449 1397.78 200.371 1393.2 Q197.315 1388.59 197.315 1379.87 Q197.315 1371.12 200.371 1366.53 Q203.449 1361.93 209.26 1361.93 Z" fill="#000000" fill-rule="nonzero" fill-opacity="1" /><path clip-path="url(#clip250)" d="M115.256 1056.87 L144.931 1056.87 L144.931 1060.81 L115.256 1060.81 L115.256 1056.87 Z" fill="#000000" fill-rule="nonzero" fill-opacity="1" /><path clip-path="url(#clip250)" d="M165.024 1042.22 Q161.413 1042.22 159.584 1045.78 Q157.778 1049.33 157.778 1056.46 Q157.778 1063.56 159.584 1067.13 Q161.413 1070.67 165.024 1070.67 Q168.658 1070.67 170.464 1067.13 Q172.292 1063.56 172.292 1056.46 Q172.292 1049.33 170.464 1045.78 Q168.658 1042.22 165.024 1042.22 M165.024 1038.52 Q170.834 1038.52 173.889 1043.12 Q176.968 1047.71 176.968 1056.46 Q176.968 1065.18 173.889 1069.79 Q170.834 1074.37 165.024 1074.37 Q159.214 1074.37 156.135 1069.79 Q153.079 1065.18 153.079 1056.46 Q153.079 1047.71 156.135 1043.12 Q159.214 1038.52 165.024 1038.52 Z" fill="#000000" fill-rule="nonzero" fill-opacity="1" /><path clip-path="url(#clip250)" d="M185.186 1067.82 L190.07 1067.82 L190.07 1073.7 L185.186 1073.7 L185.186 1067.82 Z" fill="#000000" fill-rule="nonzero" fill-opacity="1" /><path clip-path="url(#clip250)" d="M200.301 1039.14 L218.658 1039.14 L218.658 1043.08 L204.584 1043.08 L204.584 1051.55 Q205.602 1051.2 206.621 1051.04 Q207.639 1050.85 208.658 1050.85 Q214.445 1050.85 217.824 1054.03 Q221.204 1057.2 221.204 1062.61 Q221.204 1068.19 217.732 1071.29 Q214.26 1074.37 207.94 1074.37 Q205.764 1074.37 203.496 1074 Q201.25 1073.63 198.843 1072.89 L198.843 1068.19 Q200.926 1069.33 203.149 1069.88 Q205.371 1070.44 207.848 1070.44 Q211.852 1070.44 214.19 1068.33 Q216.528 1066.22 216.528 1062.61 Q216.528 1059 214.19 1056.9 Q211.852 1054.79 207.848 1054.79 Q205.973 1054.79 204.098 1055.21 Q202.246 1055.62 200.301 1056.5 L200.301 1039.14 Z" fill="#000000" fill-rule="nonzero" fill-opacity="1" /><path clip-path="url(#clip250)" d="M164.028 718.808 Q160.417 718.808 158.589 722.373 Q156.783 725.914 156.783 733.044 Q156.783 740.15 158.589 743.715 Q160.417 747.257 164.028 747.257 Q167.663 747.257 169.468 743.715 Q171.297 740.15 171.297 733.044 Q171.297 725.914 169.468 722.373 Q167.663 718.808 164.028 718.808 M164.028 715.104 Q169.839 715.104 172.894 719.711 Q175.973 724.294 175.973 733.044 Q175.973 741.771 172.894 746.377 Q169.839 750.96 164.028 750.96 Q158.218 750.96 155.14 746.377 Q152.084 741.771 152.084 733.044 Q152.084 724.294 155.14 719.711 Q158.218 715.104 164.028 715.104 Z" fill="#000000" fill-rule="nonzero" fill-opacity="1" /><path clip-path="url(#clip250)" d="M184.19 744.41 L189.075 744.41 L189.075 750.289 L184.19 750.289 L184.19 744.41 Z" fill="#000000" fill-rule="nonzero" fill-opacity="1" /><path clip-path="url(#clip250)" d="M209.26 718.808 Q205.649 718.808 203.82 722.373 Q202.014 725.914 202.014 733.044 Q202.014 740.15 203.82 743.715 Q205.649 747.257 209.26 747.257 Q212.894 747.257 214.699 743.715 Q216.528 740.15 216.528 733.044 Q216.528 725.914 214.699 722.373 Q212.894 718.808 209.26 718.808 M209.26 715.104 Q215.07 715.104 218.125 719.711 Q221.204 724.294 221.204 733.044 Q221.204 741.771 218.125 746.377 Q215.07 750.96 209.26 750.96 Q203.449 750.96 200.371 746.377 Q197.315 741.771 197.315 733.044 Q197.315 724.294 200.371 719.711 Q203.449 715.104 209.26 715.104 Z" fill="#000000" fill-rule="nonzero" fill-opacity="1" /><path clip-path="url(#clip250)" d="M165.024 395.396 Q161.413 395.396 159.584 398.961 Q157.778 402.503 157.778 409.632 Q157.778 416.739 159.584 420.303 Q161.413 423.845 165.024 423.845 Q168.658 423.845 170.464 420.303 Q172.292 416.739 172.292 409.632 Q172.292 402.503 170.464 398.961 Q168.658 395.396 165.024 395.396 M165.024 391.692 Q170.834 391.692 173.889 396.299 Q176.968 400.882 176.968 409.632 Q176.968 418.359 173.889 422.965 Q170.834 427.549 165.024 427.549 Q159.214 427.549 156.135 422.965 Q153.079 418.359 153.079 409.632 Q153.079 400.882 156.135 396.299 Q159.214 391.692 165.024 391.692 Z" fill="#000000" fill-rule="nonzero" fill-opacity="1" /><path clip-path="url(#clip250)" d="M185.186 420.998 L190.07 420.998 L190.07 426.877 L185.186 426.877 L185.186 420.998 Z" fill="#000000" fill-rule="nonzero" fill-opacity="1" /><path clip-path="url(#clip250)" d="M200.301 392.317 L218.658 392.317 L218.658 396.253 L204.584 396.253 L204.584 404.725 Q205.602 404.378 206.621 404.215 Q207.639 404.03 208.658 404.03 Q214.445 404.03 217.824 407.202 Q221.204 410.373 221.204 415.789 Q221.204 421.368 217.732 424.47 Q214.26 427.549 207.94 427.549 Q205.764 427.549 203.496 427.178 Q201.25 426.808 198.843 426.067 L198.843 421.368 Q200.926 422.502 203.149 423.058 Q205.371 423.614 207.848 423.614 Q211.852 423.614 214.19 421.507 Q216.528 419.401 216.528 415.789 Q216.528 412.178 214.19 410.072 Q211.852 407.965 207.848 407.965 Q205.973 407.965 204.098 408.382 Q202.246 408.799 200.301 409.678 L200.301 392.317 Z" fill="#000000" fill-rule="nonzero" fill-opacity="1" /><path clip-path="url(#clip250)" d="M154.839 99.5305 L162.477 99.5305 L162.477 73.1649 L154.167 74.8316 L154.167 70.5723 L162.431 68.9057 L167.107 68.9057 L167.107 99.5305 L174.746 99.5305 L174.746 103.466 L154.839 103.466 L154.839 99.5305 Z" fill="#000000" fill-rule="nonzero" fill-opacity="1" /><path clip-path="url(#clip250)" d="M184.19 97.5861 L189.075 97.5861 L189.075 103.466 L184.19 103.466 L184.19 97.5861 Z" fill="#000000" fill-rule="nonzero" fill-opacity="1" /><path clip-path="url(#clip250)" d="M209.26 71.9844 Q205.649 71.9844 203.82 75.5492 Q202.014 79.0908 202.014 86.2204 Q202.014 93.3268 203.82 96.8916 Q205.649 100.433 209.26 100.433 Q212.894 100.433 214.699 96.8916 Q216.528 93.3268 216.528 86.2204 Q216.528 79.0908 214.699 75.5492 Q212.894 71.9844 209.26 71.9844 M209.26 68.2807 Q215.07 68.2807 218.125 72.8871 Q221.204 77.4704 221.204 86.2204 Q221.204 94.9472 218.125 99.5537 Q215.07 104.137 209.26 104.137 Q203.449 104.137 200.371 99.5537 Q197.315 94.9472 197.315 86.2204 Q197.315 77.4704 200.371 72.8871 Q203.449 68.2807 209.26 68.2807 Z" fill="#000000" fill-rule="nonzero" fill-opacity="1" /><path clip-path="url(#clip250)" d="M16.4842 971.396 L16.4842 961.815 L48.8219 949.689 L16.4842 937.498 L16.4842 927.918 L64.0042 927.918 L64.0042 934.188 L22.277 934.188 L54.8694 946.442 L54.8694 952.903 L22.277 965.157 L64.0042 965.157 L64.0042 971.396 L16.4842 971.396 Z" fill="#000000" fill-rule="nonzero" fill-opacity="1" /><path clip-path="url(#clip250)" d="M32.4621 901.596 Q32.4621 906.306 36.1542 909.044 Q39.8145 911.781 46.212 911.781 Q52.6095 911.781 56.3017 909.075 Q59.9619 906.338 59.9619 901.596 Q59.9619 896.917 56.2698 894.18 Q52.5777 891.442 46.212 891.442 Q39.8781 891.442 36.186 894.18 Q32.4621 896.917 32.4621 901.596 M27.4968 901.596 Q27.4968 893.957 32.4621 889.596 Q37.4273 885.236 46.212 885.236 Q54.9649 885.236 59.9619 889.596 Q64.9272 893.957 64.9272 901.596 Q64.9272 909.266 59.9619 913.627 Q54.9649 917.955 46.212 917.955 Q37.4273 917.955 32.4621 913.627 Q27.4968 909.266 27.4968 901.596 Z" fill="#000000" fill-rule="nonzero" fill-opacity="1" /><path clip-path="url(#clip250)" d="M35.1993 847.774 Q31.2526 845.577 29.3747 842.522 Q27.4968 839.466 27.4968 835.329 Q27.4968 829.759 31.4117 826.735 Q35.2948 823.711 42.4881 823.711 L64.0042 823.711 L64.0042 829.599 L42.679 829.599 Q37.5546 829.599 35.072 831.414 Q32.5894 833.228 32.5894 836.952 Q32.5894 841.503 35.6131 844.145 Q38.6368 846.787 43.8567 846.787 L64.0042 846.787 L64.0042 852.675 L42.679 852.675 Q37.5228 852.675 35.072 854.489 Q32.5894 856.304 32.5894 860.091 Q32.5894 864.579 35.6449 867.221 Q38.6686 869.863 43.8567 869.863 L64.0042 869.863 L64.0042 875.751 L28.3562 875.751 L28.3562 869.863 L33.8944 869.863 Q30.616 867.857 29.0564 865.056 Q27.4968 862.256 27.4968 858.404 Q27.4968 854.521 29.4702 851.816 Q31.4436 849.079 35.1993 847.774 Z" fill="#000000" fill-rule="nonzero" fill-opacity="1" /><path clip-path="url(#clip250)" d="M44.7161 781.538 L47.5806 781.538 L47.5806 808.465 Q53.6281 808.083 56.8109 804.837 Q59.9619 801.559 59.9619 795.734 Q59.9619 792.36 59.1344 789.209 Q58.3069 786.026 56.6518 782.907 L62.1899 782.907 Q63.5267 786.058 64.227 789.368 Q64.9272 792.678 64.9272 796.084 Q64.9272 804.614 59.9619 809.611 Q54.9967 814.576 46.5303 814.576 Q37.7774 814.576 32.6531 809.866 Q27.4968 805.123 27.4968 797.103 Q27.4968 789.909 32.1438 785.74 Q36.7589 781.538 44.7161 781.538 M42.9973 787.395 Q38.1912 787.459 35.3266 790.1 Q32.4621 792.71 32.4621 797.039 Q32.4621 801.94 35.2312 804.901 Q38.0002 807.829 43.0292 808.274 L42.9973 787.395 Z" fill="#000000" fill-rule="nonzero" fill-opacity="1" /><path clip-path="url(#clip250)" d="M42.4881 742.294 L64.0042 742.294 L64.0042 748.15 L42.679 748.15 Q37.6183 748.15 35.1038 750.124 Q32.5894 752.097 32.5894 756.044 Q32.5894 760.786 35.6131 763.523 Q38.6368 766.261 43.8567 766.261 L64.0042 766.261 L64.0042 772.149 L28.3562 772.149 L28.3562 766.261 L33.8944 766.261 Q30.6797 764.16 29.0883 761.327 Q27.4968 758.463 27.4968 754.739 Q27.4968 748.596 31.3163 745.445 Q35.1038 742.294 42.4881 742.294 Z" fill="#000000" fill-rule="nonzero" fill-opacity="1" /><path clip-path="url(#clip250)" d="M18.2347 724.82 L28.3562 724.82 L28.3562 712.757 L32.9077 712.757 L32.9077 724.82 L52.2594 724.82 Q56.6199 724.82 57.8613 723.642 Q59.1026 722.433 59.1026 718.773 L59.1026 712.757 L64.0042 712.757 L64.0042 718.773 Q64.0042 725.552 61.4897 728.13 Q58.9434 730.708 52.2594 730.708 L32.9077 730.708 L32.9077 735.005 L28.3562 735.005 L28.3562 730.708 L18.2347 730.708 L18.2347 724.82 Z" fill="#000000" fill-rule="nonzero" fill-opacity="1" /><path clip-path="url(#clip250)" d="M49.9359 705.659 L28.3562 705.659 L28.3562 699.803 L49.7131 699.803 Q54.7739 699.803 57.3202 697.829 Q59.8346 695.856 59.8346 691.909 Q59.8346 687.167 56.8109 684.43 Q53.7872 681.66 48.5673 681.66 L28.3562 681.66 L28.3562 675.804 L64.0042 675.804 L64.0042 681.66 L58.5296 681.66 Q61.7762 683.793 63.3676 686.626 Q64.9272 689.427 64.9272 693.151 Q64.9272 699.293 61.1078 702.476 Q57.2883 705.659 49.9359 705.659 M27.4968 690.923 L27.4968 690.923 Z" fill="#000000" fill-rule="nonzero" fill-opacity="1" /><path clip-path="url(#clip250)" d="M35.1993 635.987 Q31.2526 633.79 29.3747 630.735 Q27.4968 627.679 27.4968 623.542 Q27.4968 617.972 31.4117 614.948 Q35.2948 611.924 42.4881 611.924 L64.0042 611.924 L64.0042 617.812 L42.679 617.812 Q37.5546 617.812 35.072 619.627 Q32.5894 621.441 32.5894 625.165 Q32.5894 629.716 35.6131 632.358 Q38.6368 635 43.8567 635 L64.0042 635 L64.0042 640.888 L42.679 640.888 Q37.5228 640.888 35.072 642.702 Q32.5894 644.517 32.5894 648.304 Q32.5894 652.792 35.6449 655.434 Q38.6686 658.076 43.8567 658.076 L64.0042 658.076 L64.0042 663.964 L28.3562 663.964 L28.3562 658.076 L33.8944 658.076 Q30.616 656.07 29.0564 653.269 Q27.4968 650.468 27.4968 646.617 Q27.4968 642.734 29.4702 640.029 Q31.4436 637.291 35.1993 635.987 Z" fill="#000000" fill-rule="nonzero" fill-opacity="1" /><path clip-path="url(#clip250)" d="M14.5426 565.454 Q21.8632 569.72 29.0246 571.788 Q36.186 573.857 43.5384 573.857 Q50.8908 573.857 58.1159 571.788 Q65.3091 569.688 72.5979 565.454 L72.5979 570.547 Q65.1182 575.321 57.8931 577.708 Q50.668 580.064 43.5384 580.064 Q36.4406 580.064 29.2474 577.708 Q22.0542 575.353 14.5426 570.547 L14.5426 565.454 Z" fill="#000000" fill-rule="nonzero" fill-opacity="1" /><path clip-path="url(#clip250)" d="M58.657 548.426 L77.5631 548.426 L77.5631 554.315 L28.3562 554.315 L28.3562 548.426 L33.7671 548.426 Q30.5842 546.58 29.0564 543.779 Q27.4968 540.947 27.4968 537.032 Q27.4968 530.539 32.6531 526.496 Q37.8093 522.422 46.212 522.422 Q54.6147 522.422 59.771 526.496 Q64.9272 530.539 64.9272 537.032 Q64.9272 540.947 63.3994 543.779 Q61.8398 546.58 58.657 548.426 M46.212 528.502 Q39.7508 528.502 36.0905 531.175 Q32.3984 533.817 32.3984 538.464 Q32.3984 543.111 36.0905 545.784 Q39.7508 548.426 46.212 548.426 Q52.6732 548.426 56.3653 545.784 Q60.0256 543.111 60.0256 538.464 Q60.0256 533.817 56.3653 531.175 Q52.6732 528.502 46.212 528.502 Z" fill="#000000" fill-rule="nonzero" fill-opacity="1" /><path clip-path="url(#clip250)" d="M14.5426 513.638 L14.5426 508.545 Q22.0542 503.771 29.2474 501.415 Q36.4406 499.028 43.5384 499.028 Q50.668 499.028 57.8931 501.415 Q65.1182 503.771 72.5979 508.545 L72.5979 513.638 Q65.3091 509.404 58.1159 507.336 Q50.8908 505.235 43.5384 505.235 Q36.186 505.235 29.0246 507.336 Q21.8632 509.404 14.5426 513.638 Z" fill="#000000" fill-rule="nonzero" fill-opacity="1" /><polyline clip-path="url(#clip252)" style="stroke:#009af9; stroke-linecap:round; stroke-linejoin:round; stroke-width:16; stroke-opacity:1; fill:none" points="1305.5,86.1857 1311.54,86.1979 1317.58,86.2345 1323.62,86.2955 1329.66,86.3809 1335.7,86.4907 1341.73,86.6248 1347.77,86.7834 1353.8,86.9663 1359.84,87.1736 1365.87,87.4053 1371.89,87.6613 1377.92,87.9417 1383.94,88.2464 1389.96,88.5754 1395.98,88.9288 1401.99,89.3064 1408,89.7083 1414.01,90.1345 1420.01,90.5849 1426.01,91.0596 1432,91.5585 1437.99,92.0816 1443.97,92.6288 1449.95,93.2002 1455.92,93.7958 1461.89,94.4155 1467.85,95.0592 1473.81,95.727 1479.75,96.4189 1485.7,97.1348 1491.63,97.8746 1497.56,98.6384 1503.48,99.4262 1509.39,100.238 1515.3,101.073 1521.2,101.933 1527.09,102.816 1532.97,103.723 1538.84,104.654 1544.7,105.608 1550.56,106.586 1556.4,107.588 1562.24,108.613 1568.07,109.662 1573.88,110.734 1579.69,111.83 1585.49,112.949 1591.27,114.092 1597.05,115.258 1602.81,116.447 1608.56,117.66 1614.3,118.895 1620.03,120.154 1625.75,121.436 1631.46,122.741 1637.15,124.07 1642.83,125.421 1648.5,126.795 1654.15,128.192 1659.79,129.611 1665.42,131.054 1671.04,132.519 1676.64,134.007 1682.23,135.517 1687.8,137.05 1693.36,138.606 1698.9,140.184 1704.43,141.784 1709.94,143.406 1715.44,145.051 1720.93,146.718 1726.39,148.407 1731.85,150.118 1737.28,151.851 1742.7,153.606 1748.1,155.383 1753.49,157.182 1758.86,159.002 1764.21,160.844 1769.55,162.708 1774.86,164.593 1780.16,166.5 1785.44,168.428 1790.71,170.377 1795.95,172.348 1801.18,174.339 1806.39,176.352 1811.58,178.386 1816.75,180.44 1821.9,182.516 1827.03,184.612 1832.14,186.729 1837.23,188.867 1842.3,191.025 1847.36,193.203 1852.39,195.402 1857.4,197.621 1862.39,199.861 1867.36,202.12 1872.3,204.4 1877.23,206.699 1882.13,209.018 1887.02,211.357 1891.88,213.716 1896.72,216.094 1901.53,218.492 1906.33,220.91 1911.1,223.346 1915.85,225.802 1920.57,228.277 1925.27,230.771 1929.95,233.284 1934.61,235.815 1939.24,238.366 1943.85,240.935 1948.43,243.523 1952.99,246.129 1957.52,248.754 1962.03,251.396 1966.52,254.057 1970.98,256.736 1975.41,259.433 1979.82,262.148 1984.21,264.881 1988.57,267.631 1992.9,270.399 1997.21,273.184 2001.49,275.987 2005.75,278.807 2009.97,281.644 2014.18,284.498 2018.35,287.369 2022.5,290.257 2026.62,293.162 2030.72,296.083 2034.78,299.02 2038.82,301.974 2042.83,304.944 2046.82,307.931 2050.77,310.933 2054.7,313.951 2058.6,316.985 2062.47,320.035 2066.31,323.101 2070.13,326.182 2073.91,329.278 2077.67,332.389 2081.4,335.516 2085.09,338.657 2088.76,341.814 2092.4,344.985 2096.01,348.171 2099.59,351.371 2103.14,354.586 2106.66,357.815 2110.14,361.058 2113.6,364.315 2117.03,367.586 2120.43,370.871 2123.8,374.17 2127.13,377.482 2130.44,380.807 2133.71,384.146 2136.95,387.498 2140.16,390.863 2143.34,394.241 2146.49,397.631 2149.61,401.035 2152.69,404.45 2155.74,407.879 2158.76,411.319 2161.75,414.772 2164.71,418.236 2167.63,421.713 2170.52,425.201 2173.38,428.701 2176.21,432.212 2179,435.735 2181.76,439.269 2184.49,442.814 2187.18,446.37 2189.84,449.937 2192.47,453.514 2195.06,457.102 2197.62,460.7 2200.15,464.309 2202.64,467.928 2205.1,471.557 2207.52,475.195 2209.91,478.843 2212.27,482.501 2214.59,486.169 2216.88,489.846 2219.13,493.531 2221.35,497.226 2223.54,500.93 2225.69,504.643 2227.8,508.364 2229.88,512.094 2231.93,515.832 2233.94,519.578 2235.92,523.332 2237.86,527.094 2239.76,530.864 2241.63,534.642 2243.47,538.427 2245.27,542.219 2247.03,546.019 2248.76,549.825 2250.45,553.639 2252.11,557.459 2253.73,561.286 2255.32,565.119 2256.87,568.959 2258.38,572.805 2259.86,576.657 2261.3,580.515 2262.71,584.378 2264.08,588.248 2265.41,592.122 2266.71,596.002 2267.97,599.887 2269.2,603.778 2270.38,607.673 2271.54,611.572 2272.65,615.477 2273.73,619.386 2274.78,623.299 2275.78,627.216 2276.75,631.137 2277.68,635.062 2278.58,638.991 2279.44,642.923 2280.26,646.859 2281.05,650.798 2281.8,654.74 2282.51,658.685 2283.19,662.633 2283.83,666.583 2284.43,670.536 2284.99,674.491 2285.52,678.449 2286.01,682.408 2286.47,686.37 2286.88,690.333 2287.26,694.298 2287.61,698.264 2287.91,702.232 2288.18,706.201 2288.41,710.171 2288.61,714.141 2288.77,718.113 2288.89,722.085 2288.97,726.057 2289.02,730.03 2289.02,734.002 2289,737.975 2288.93,741.948 2288.83,745.92 2288.69,749.891 2288.51,753.862 2288.3,757.833 2288.05,761.802 2287.76,765.77 2287.44,769.737 2287.08,773.703 2286.68,777.667 2286.24,781.629 2285.77,785.59 2285.26,789.548 2284.71,793.505 2284.13,797.459 2283.51,801.411 2282.85,805.36 2282.16,809.306 2281.43,813.25 2280.66,817.19 2279.86,821.128 2279.02,825.062 2278.14,828.992 2277.22,832.919 2276.27,836.842 2275.28,840.762 2274.26,844.677 2273.2,848.588 2272.1,852.494 2270.97,856.396 2269.79,860.294 2268.59,864.186 2267.34,868.074 2266.07,871.957 2264.75,875.834 2263.4,879.706 2262.01,883.572 2260.59,887.433 2259.13,891.288 2257.63,895.137 2256.1,898.98 2254.53,902.817 2252.93,906.647 2251.29,910.47 2249.61,914.287 2247.9,918.097 2246.15,921.9 2244.37,925.696 2242.55,929.485 2240.7,933.266 2238.81,937.04 2236.89,940.806 2234.93,944.564 2232.94,948.315 2230.91,952.057 2228.85,955.791 2226.75,959.516 2224.62,963.233 2222.45,966.941 2220.25,970.64 2218.01,974.331 2215.74,978.012 2213.44,981.684 2211.1,985.347 2208.72,989 2206.31,992.644 2203.87,996.277 2201.4,999.901 2198.89,1003.51 2196.34,1007.12 2193.77,1010.71 2191.16,1014.29 2188.51,1017.87 2185.84,1021.43 2183.13,1024.98 2180.38,1028.52 2177.61,1032.05 2174.8,1035.56 2171.96,1039.07 2169.08,1042.56 2166.17,1046.05 2163.23,1049.52 2160.26,1052.97 2157.26,1056.42 2154.22,1059.86 2151.15,1063.28 2148.05,1066.69 2144.92,1070.08 2141.76,1073.47 2138.56,1076.84 2135.33,1080.2 2132.08,1083.54 2128.79,1086.88 2125.47,1090.19 2122.12,1093.5 2118.73,1096.79 2115.32,1100.07 2111.88,1103.33 2108.4,1106.58 2104.9,1109.82 2101.37,1113.04 2097.8,1116.25 2094.21,1119.44 2090.58,1122.62 2086.93,1125.78 2083.25,1128.93 2079.54,1132.07 2075.79,1135.19 2072.02,1138.29 2068.22,1141.38 2064.4,1144.45 2060.54,1147.51 2056.65,1150.55 2052.74,1153.58 2048.8,1156.59 2044.83,1159.58 2040.83,1162.56 2036.81,1165.52 2032.75,1168.47 2028.67,1171.4 2024.56,1174.31 2020.43,1177.21 2016.27,1180.09 2012.08,1182.95 2007.86,1185.79 2003.62,1188.62 1999.35,1191.43 1995.06,1194.23 1990.74,1197.01 1986.39,1199.76 1982.02,1202.51 1977.62,1205.23 1973.2,1207.94 1968.75,1210.62 1964.28,1213.29 1959.78,1215.95 1955.26,1218.58 1950.71,1221.19 1946.14,1223.79 1941.54,1226.37 1936.93,1228.93 1932.28,1231.47 1927.62,1233.99 1922.92,1236.5 1918.21,1238.98 1913.47,1241.45 1908.71,1243.89 1903.93,1246.32 1899.13,1248.73 1894.3,1251.12 1889.45,1253.48 1884.58,1255.83 1879.68,1258.16 1874.77,1260.47 1869.83,1262.76 1864.87,1265.03 1859.89,1267.28 1854.89,1269.51 1849.87,1271.72 1844.83,1273.91 1839.77,1276.08 1834.69,1278.22 1829.59,1280.35 1824.47,1282.46 1819.32,1284.54 1814.16,1286.61 1808.98,1288.65 1803.79,1290.68 1798.57,1292.68 1793.33,1294.66 1788.08,1296.62 1782.81,1298.56 1777.51,1300.47 1772.21,1302.37 1766.88,1304.24 1761.54,1306.1 1756.18,1307.93 1750.8,1309.74 1745.4,1311.53 1739.99,1313.29 1734.57,1315.04 1729.12,1316.76 1723.66,1318.46 1718.19,1320.14 1712.7,1321.79 1707.19,1323.43 1701.67,1325.04 1696.13,1326.63 1690.58,1328.19 1685.01,1329.74 1679.43,1331.26 1673.84,1332.76 1668.23,1334.23 1662.61,1335.69 1656.97,1337.12 1651.33,1338.53 1645.66,1339.91 1639.99,1341.28 1634.3,1342.62 1628.6,1343.93 1622.89,1345.23 1617.17,1346.5 1611.43,1347.74 1605.69,1348.97 1599.93,1350.17 1594.16,1351.35 1588.38,1352.5 1582.59,1353.63 1576.79,1354.74 1570.98,1355.82 1565.15,1356.88 1559.32,1357.92 1553.48,1358.93 1547.63,1359.92 1541.77,1360.89 1535.9,1361.83 1530.03,1362.75 1524.14,1363.65 1518.25,1364.52 1512.35,1365.37 1506.44,1366.19 1500.52,1366.99 1494.6,1367.76 1488.66,1368.52 1482.73,1369.24 1476.78,1369.95 1470.83,1370.63 1464.87,1371.28 1458.91,1371.92 1452.94,1372.52 1446.96,1373.11 1440.98,1373.67 1435,1374.2 1429.01,1374.71 1423.01,1375.2 1417.01,1375.66 1411.01,1376.1 1405,1376.51 1398.99,1376.9 1392.97,1377.27 1386.95,1377.61 1380.93,1377.93 1374.91,1378.22 1368.88,1378.49 1362.85,1378.73 1356.82,1378.95 1350.79,1379.15 1344.75,1379.32 1338.71,1379.46 1332.68,1379.59 1326.64,1379.68 1320.6,1379.76 1314.56,1379.81 1308.52,1379.83 1302.48,1379.83 1296.44,1379.81 1290.4,1379.76 1284.36,1379.68 1278.32,1379.59 1272.28,1379.46 1266.24,1379.32 1260.21,1379.15 1254.17,1378.95 1248.14,1378.73 1242.11,1378.49 1236.09,1378.22 1230.06,1377.93 1224.04,1377.61 1218.02,1377.27 1212.01,1376.9 1205.99,1376.51 1199.99,1376.1 1193.98,1375.66 1187.98,1375.2 1181.99,1374.71 1176,1374.2 1170.01,1373.67 1164.03,1373.11 1158.06,1372.52 1152.09,1371.92 1146.12,1371.28 1140.16,1370.63 1134.21,1369.95 1128.27,1369.24 1122.33,1368.52 1116.4,1367.76 1110.47,1366.99 1104.56,1366.19 1098.65,1365.37 1092.74,1364.52 1086.85,1363.65 1080.97,1362.75 1075.09,1361.83 1069.22,1360.89 1063.36,1359.92 1057.51,1358.93 1051.67,1357.92 1045.84,1356.88 1040.02,1355.82 1034.21,1354.74 1028.4,1353.63 1022.61,1352.5 1016.83,1351.35 1011.06,1350.17 1005.31,1348.97 999.559,1347.74 993.824,1346.5 988.1,1345.23 982.389,1343.93 976.689,1342.62 971.003,1341.28 965.328,1339.91 959.667,1338.53 954.018,1337.12 948.383,1335.69 942.761,1334.23 937.153,1332.76 931.559,1331.26 925.979,1329.74 920.413,1328.19 914.862,1326.63 909.326,1325.04 903.804,1323.43 898.298,1321.79 892.807,1320.14 887.331,1318.46 881.872,1316.76 876.428,1315.04 871.001,1313.29 865.589,1311.53 860.195,1309.74 854.817,1307.93 849.457,1306.1 844.113,1304.24 838.787,1302.37 833.479,1300.47 828.188,1298.56 822.915,1296.62 817.661,1294.66 812.424,1292.68 807.207,1290.68 802.008,1288.65 796.829,1286.61 791.668,1284.54 786.527,1282.46 781.406,1280.35 776.304,1278.22 771.222,1276.08 766.16,1273.91 761.119,1271.72 756.098,1269.51 751.098,1267.28 746.119,1265.03 741.161,1262.76 736.224,1260.47 731.309,1258.16 726.416,1255.83 721.544,1253.48 716.694,1251.12 711.867,1248.73 707.061,1246.32 702.279,1243.89 697.519,1241.45 692.782,1238.98 688.068,1236.5 683.378,1233.99 678.711,1231.47 674.068,1228.93 669.448,1226.37 664.853,1223.79 660.281,1221.19 655.734,1218.58 651.212,1215.95 646.714,1213.29 642.241,1210.62 637.793,1207.94 633.37,1205.23 628.973,1202.51 624.601,1199.76 620.255,1197.01 615.934,1194.23 611.64,1191.43 607.372,1188.62 603.13,1185.79 598.914,1182.95 594.726,1180.09 590.564,1177.21 586.429,1174.31 582.321,1171.4 578.241,1168.47 574.188,1165.52 570.162,1162.56 566.164,1159.58 562.195,1156.59 558.253,1153.58 554.339,1150.55 550.454,1147.51 546.597,1144.45 542.769,1141.38 538.97,1138.29 535.199,1135.19 531.457,1132.07 527.745,1128.93 524.062,1125.78 520.409,1122.62 516.785,1119.44 513.191,1116.25 509.627,1113.04 506.093,1109.82 502.589,1106.58 499.115,1103.33 495.672,1100.07 492.259,1096.79 488.877,1093.5 485.526,1090.19 482.206,1086.88 478.916,1083.54 475.658,1080.2 472.431,1076.84 469.236,1073.47 466.072,1070.08 462.94,1066.69 459.84,1063.28 456.772,1059.86 453.735,1056.42 450.731,1052.97 447.759,1049.52 444.819,1046.04 441.912,1042.56 439.037,1039.07 436.195,1035.56 433.386,1032.05 430.61,1028.52 427.866,1024.98 425.156,1021.43 422.479,1017.87 419.836,1014.29 417.226,1010.71 414.649,1007.12 412.106,1003.51 409.596,999.901 407.121,996.277 404.679,992.644 402.271,989 399.897,985.347 397.558,981.684 395.253,978.012 392.982,974.331 390.745,970.64 388.543,966.941 386.376,963.233 384.243,959.516 382.145,955.791 380.082,952.057 378.054,948.315 376.06,944.564 374.102,940.806 372.179,937.04 370.291,933.266 368.439,929.485 366.622,925.696 364.84,921.9 363.093,918.097 361.383,914.287 359.707,910.47 358.068,906.647 356.464,902.816 354.896,898.98 353.364,895.137 351.868,891.288 350.408,887.433 348.984,883.573 347.596,879.706 346.244,875.834 344.928,871.957 343.648,868.074 342.405,864.186 341.198,860.294 340.028,856.396 338.894,852.494 337.796,848.588 336.735,844.677 335.71,840.762 334.722,836.842 333.771,832.919 332.856,828.992 331.978,825.062 331.137,821.128 330.332,817.19 329.564,813.25 328.833,809.306 328.139,805.36 327.482,801.411 326.862,797.459 326.278,793.505 325.732,789.548 325.222,785.59 324.75,781.629 324.314,777.667 323.916,773.703 323.554,769.737 323.23,765.77 322.942,761.802 322.692,757.833 322.478,753.862 322.302,749.891 322.163,745.92 322.061,741.947 321.996,737.975 321.968,734.002 321.978,730.029 322.024,726.057 322.107,722.084 322.228,718.113 322.386,714.141 322.58,710.171 322.812,706.201 323.081,702.232 323.387,698.264 323.73,694.298 324.11,690.333 324.527,686.37 324.981,682.408 325.472,678.449 326,674.491 326.565,670.536 327.167,666.583 327.806,662.632 328.482,658.685 329.194,654.74 329.944,650.798 330.73,646.859 331.553,642.923 332.413,638.991 333.309,635.062 334.242,631.137 335.212,627.216 336.218,623.299 337.261,619.385 338.34,615.477 339.456,611.572 340.609,607.673 341.797,603.777 343.022,599.887 344.284,596.002 345.581,592.122 346.915,588.248 348.285,584.378 349.691,580.515 351.134,576.657 352.612,572.805 354.126,568.959 355.676,565.119 357.262,561.286 358.883,557.459 360.541,553.639 362.234,549.825 363.962,546.019 365.726,542.219 367.526,538.427 369.361,534.641 371.231,530.864 373.136,527.094 375.077,523.332 377.053,519.578 379.063,515.832 381.109,512.094 383.19,508.364 385.305,504.643 387.455,500.93 389.64,497.226 391.859,493.531 394.113,489.846 396.401,486.169 398.723,482.501 401.08,478.843 403.471,475.195 405.896,471.556 408.354,467.928 410.847,464.309 413.373,460.7 415.933,457.102 418.527,453.514 421.153,449.937 423.814,446.37 426.507,442.814 429.234,439.269 431.994,435.735 434.787,432.212 437.612,428.701 440.471,425.201 443.362,421.713 446.285,418.236 449.241,414.772 452.229,411.319 455.249,407.879 458.302,404.45 461.386,401.035 464.502,397.631 467.651,394.241 470.83,390.863 474.041,387.498 477.284,384.146 480.557,380.807 483.862,377.481 487.198,374.17 490.565,370.871 493.962,367.586 497.39,364.315 500.848,361.058 504.337,357.815 507.856,354.586 511.406,351.371 514.985,348.17 518.594,344.985 522.232,341.814 525.9,338.657 529.598,335.516 533.325,332.389 537.081,329.278 540.866,326.182 544.68,323.101 548.522,320.035 552.393,316.985 556.293,313.951 560.22,310.933 564.176,307.93 568.16,304.944 572.172,301.974 576.211,299.02 580.278,296.082 584.372,293.161 588.493,290.257 592.642,287.369 596.817,284.498 601.019,281.644 605.248,278.807 609.503,275.987 613.784,273.184 618.091,270.399 622.425,267.631 626.784,264.881 631.168,262.148 635.579,259.433 640.014,256.736 644.474,254.057 648.96,251.396 653.47,248.753 658.005,246.129 662.564,243.523 667.148,240.935 671.755,238.366 676.387,235.815 681.042,233.284 685.72,230.771 690.422,228.277 695.148,225.802 699.896,223.346 704.667,220.909 709.461,218.492 714.278,216.094 719.116,213.716 723.977,211.357 728.86,209.018 733.764,206.699 738.69,204.399 743.638,202.12 748.606,199.861 753.596,197.621 758.606,195.402 763.637,193.203 768.689,191.025 773.761,188.866 778.852,186.729 783.964,184.612 789.095,182.516 794.246,180.44 799.416,178.386 804.606,176.352 809.814,174.339 815.041,172.348 820.286,170.377 825.549,168.428 830.831,166.5 836.131,164.593 841.448,162.708 846.783,160.844 852.135,159.002 857.504,157.182 862.89,155.383 868.293,153.606 873.713,151.851 879.148,150.118 884.6,148.407 890.067,146.718 895.551,145.051 901.05,143.406 906.563,141.784 912.092,140.183 917.636,138.606 923.195,137.05 928.767,135.517 934.355,134.007 939.956,132.519 945.571,131.054 951.199,129.611 956.841,128.192 962.496,126.795 968.164,125.421 973.845,124.069 979.538,122.741 985.243,121.436 990.961,120.154 996.69,118.895 1002.43,117.66 1008.18,116.447 1013.95,115.258 1019.72,114.092 1025.51,112.949 1031.3,111.83 1037.11,110.734 1042.93,109.662 1048.75,108.613 1054.59,107.588 1060.44,106.586 1066.29,105.608 1072.15,104.653 1078.03,103.723 1083.91,102.816 1089.8,101.933 1095.69,101.073 1101.6,100.238 1107.51,99.4262 1113.43,98.6384 1119.36,97.8746 1125.3,97.1347 1131.24,96.4189 1137.19,95.727 1143.14,95.0592 1149.1,94.4154 1155.07,93.7958 1161.04,93.2002 1167.02,92.6288 1173,92.0815 1178.99,91.5584 1184.99,91.0596 1190.98,90.5849 1196.98,90.1345 1202.99,89.7083 1209,89.3064 1215.01,88.9287 1221.03,88.5754 1227.05,88.2464 1233.07,87.9417 1239.1,87.6613 1245.13,87.4053 1251.16,87.1736 1257.19,86.9663 1263.22,86.7834 1269.26,86.6248 1275.3,86.4906 1281.34,86.3809 1287.38,86.2955 1293.42,86.2345 1299.46,86.1979 1305.5,86.1857 "/>
<polyline clip-path="url(#clip252)" style="stroke:#e26f46; stroke-linecap:round; stroke-linejoin:round; stroke-width:16; stroke-opacity:1; fill:none" points="1305.5,86.1857 1311.53,86.2962 1317.56,86.4085 1323.59,86.5252 1329.62,86.6418 1335.65,86.7585 1341.68,86.8751 1347.71,86.9918 1353.74,87.1084 1359.78,87.225 1365.81,87.3417 1371.84,87.4583 1377.87,87.5759 1383.9,87.7086 1389.93,87.8773 1395.94,88.0986 1401.95,88.3847 1407.95,88.7431 1413.93,89.1775 1419.89,89.6868 1425.84,90.2655 1431.78,90.904 1437.72,91.5881 1443.64,92.2992 1449.57,93.0145 1455.49,93.7408 1461.37,94.624 1467.22,95.6305 1473.06,96.707 1478.89,97.8127 1484.72,98.9189 1490.55,100.009 1496.39,101.08 1502.23,102.138 1508.07,103.203 1513.91,104.274 1519.75,105.343 1525.59,106.414 1531.43,107.483 1537.26,108.554 1543.1,109.623 1548.94,110.693 1554.78,111.763 1560.62,112.833 1566.46,113.903 1572.29,114.973 1578.13,116.043 1583.98,117.102 1589.83,118.147 1595.69,119.183 1601.55,120.211 1607.41,121.235 1613.28,122.258 1619.14,123.282 1625,124.309 1630.86,125.343 1636.72,126.386 1642.57,127.44 1648.41,128.507 1654.24,129.589 1660.07,130.688 1665.88,131.806 1671.68,132.946 1677.47,134.107 1683.25,135.293 1689.01,136.504 1694.75,137.742 1700.48,139.008 1706.19,140.303 1711.88,141.628 1717.55,142.985 1723.2,144.373 1728.83,145.795 1734.44,147.249 1740.03,148.738 1745.59,150.26 1751.14,151.818 1756.65,153.41 1762.14,155.037 1767.61,156.699 1773.05,158.396 1778.47,160.127 1783.86,161.893 1789.23,163.692 1794.56,165.525 1799.87,167.391 1805.16,169.289 1810.41,171.218 1815.64,173.177 1820.84,175.166 1826.02,177.183 1831.16,179.227 1836.28,181.296 1841.37,183.389 1846.41,185.53 1851.37,187.752 1856.24,190.048 1861.05,192.409 1865.8,194.828 1870.5,197.297 1875.15,199.81 1879.76,202.36 1884.34,204.941 1888.89,207.549 1893.42,210.176 1897.93,212.82 1902.43,215.475 1906.92,218.138 1911.41,220.806 1915.9,223.474 1920.39,226.142 1924.88,228.806 1929.38,231.465 1933.88,234.117 1938.39,236.762 1942.91,239.4 1947.44,242.029 1951.97,244.652 1956.52,247.267 1961.06,249.877 1965.61,252.484 1970.17,255.088 1974.72,257.694 1979.27,260.304 1983.81,262.92 1988.37,265.534 1992.94,268.144 1997.51,270.757 2002.07,273.379 2006.62,276.014 2011.13,278.667 2015.62,281.341 2020.06,284.042 2024.46,286.772 2028.8,289.533 2033.08,292.329 2037.29,295.162 2041.45,298.033 2045.53,300.942 2049.54,303.892 2053.48,306.882 2057.35,309.913 2061.15,312.983 2064.88,316.092 2068.54,319.238 2072.14,322.42 2075.68,325.636 2079.16,328.882 2082.59,332.155 2085.98,335.453 2089.33,338.771 2092.66,342.105 2095.96,345.45 2099.25,348.801 2102.54,352.152 2105.85,355.497 2109.17,358.83 2112.54,362.144 2115.95,365.442 2119.39,368.728 2122.85,372.007 2126.32,375.281 2129.79,378.556 2133.26,381.835 2136.7,385.12 2140.12,388.415 2143.5,391.722 2146.85,395.043 2150.15,398.38 2153.4,401.735 2156.61,405.108 2159.76,408.5 2162.85,411.912 2165.9,415.344 2168.88,418.796 2171.82,422.268 2174.7,425.758 2177.54,429.265 2180.33,432.789 2183.08,436.326 2185.8,439.876 2188.5,443.435 2191.17,447.002 2193.84,450.572 2196.5,454.143 2199.18,457.71 2201.87,461.269 2204.58,464.823 2207.29,468.376 2209.99,471.932 2212.68,475.491 2215.36,479.055 2218.01,482.625 2220.63,486.202 2223.23,489.787 2225.8,493.381 2228.32,496.985 2230.81,500.6 2233.26,504.226 2235.65,507.865 2238,511.516 2240.3,515.18 2242.55,518.858 2244.74,522.55 2246.87,526.255 2248.95,529.975 2250.97,533.708 2252.92,537.456 2254.82,541.218 2256.65,544.993 2258.42,548.781 2260.13,552.582 2261.77,556.396 2263.36,560.221 2264.88,564.057 2266.35,567.904 2267.75,571.76 2269.1,575.624 2270.38,579.496 2271.66,583.373 2272.95,587.251 2274.25,591.133 2275.55,595.016 2276.85,598.902 2278.13,602.791 2279.39,606.682 2280.62,610.576 2281.82,614.473 2282.98,618.373 2284.09,622.276 2285.15,626.182 2286.16,630.091 2287.11,634.003 2288,637.918 2288.83,641.837 2289.59,645.758 2290.28,649.682 2290.91,653.609 2291.46,657.539 2291.95,661.472 2292.36,665.408 2292.7,669.346 2292.98,673.287 2293.19,677.23 2293.34,681.176 2293.42,685.123 2293.45,689.073 2293.42,693.025 2293.34,696.978 2293.21,700.933 2293.05,704.889 2292.85,708.847 2292.61,712.805 2292.36,716.764 2292.09,720.724 2291.81,724.684 2291.54,728.644 2291.27,732.604 2291.01,736.563 2290.79,740.521 2290.58,744.479 2290.36,748.439 2290.12,752.399 2289.86,756.359 2289.57,760.318 2289.25,764.277 2288.89,768.234 2288.5,772.189 2288.07,776.142 2287.59,780.092 2287.07,784.039 2286.51,787.982 2285.9,791.923 2285.23,795.859 2284.53,799.792 2283.77,803.721 2282.96,807.645 2282.1,811.566 2281.2,815.482 2280.25,819.394 2279.25,823.303 2278.22,827.207 2277.14,831.108 2276.02,835.005 2274.87,838.899 2273.68,842.79 2272.47,846.678 2271.23,850.564 2269.97,854.448 2268.69,858.33 2267.41,862.212 2266.12,866.092 2264.83,869.973 2263.54,873.854 2262.27,877.737 2261.02,881.622 2259.77,885.51 2258.53,889.399 2257.28,893.288 2256.02,897.176 2254.74,901.06 2253.43,904.94 2252.1,908.814 2250.73,912.681 2249.31,916.539 2247.86,920.389 2246.35,924.228 2244.79,928.057 2243.18,931.874 2241.51,935.679 2239.78,939.472 2237.99,943.251 2236.14,947.017 2234.23,950.77 2232.25,954.509 2230.21,958.235 2228.11,961.947 2225.95,965.646 2223.73,969.332 2221.45,973.006 2219.11,976.667 2216.73,980.318 2214.29,983.957 2211.82,987.587 2209.3,991.208 2206.74,994.82 2204.15,998.426 2201.54,1002.03 2198.91,1005.62 2196.26,1009.22 2193.61,1012.81 2190.96,1016.4 2188.32,1019.99 2185.7,1023.59 2183.1,1027.19 2180.56,1030.82 2178.1,1034.48 2175.68,1038.16 2173.3,1041.86 2170.94,1045.56 2168.6,1049.27 2166.25,1052.98 2163.88,1056.68 2161.49,1060.37 2159.06,1064.05 2156.59,1067.7 2154.06,1071.34 2151.47,1074.94 2148.82,1078.52 2146.1,1082.07 2143.3,1085.58 2140.42,1089.06 2137.46,1092.51 2134.41,1095.92 2131.28,1099.29 2128.07,1102.62 2124.76,1105.92 2121.38,1109.18 2117.91,1112.41 2114.36,1115.6 2110.75,1118.77 2107.06,1121.9 2103.31,1125 2099.5,1128.08 2095.65,1131.14 2091.76,1134.19 2087.84,1137.22 2083.9,1140.24 2079.94,1143.26 2076,1146.28 2072.07,1149.31 2068.17,1152.35 2064.32,1155.41 2060.52,1158.51 2056.76,1161.63 2053.02,1164.77 2049.29,1167.91 2045.55,1171.05 2041.8,1174.17 2038.02,1177.28 2034.21,1180.37 2030.35,1183.43 2026.44,1186.45 2022.47,1189.44 2018.44,1192.38 2014.35,1195.29 2010.2,1198.15 2005.98,1200.98 2001.7,1203.76 1997.36,1206.5 1992.96,1209.21 1988.51,1211.88 1984.02,1214.52 1979.5,1217.15 1974.95,1219.75 1970.38,1222.35 1965.81,1224.94 1961.25,1227.54 1956.71,1230.16 1952.2,1232.79 1947.7,1235.44 1943.2,1238.08 1938.69,1240.73 1934.18,1243.36 1929.64,1245.98 1925.08,1248.58 1920.49,1251.14 1915.86,1253.68 1911.2,1256.19 1906.49,1258.65 1901.75,1261.08 1896.95,1263.47 1892.12,1265.81 1887.24,1268.12 1882.31,1270.38 1877.34,1272.6 1872.32,1274.78 1867.26,1276.92 1862.17,1279.03 1857.04,1281.11 1851.89,1283.16 1846.71,1285.19 1841.5,1287.2 1836.29,1289.19 1831.07,1291.19 1825.85,1293.18 1820.65,1295.18 1815.46,1297.2 1810.26,1299.22 1805.06,1301.24 1799.85,1303.24 1794.62,1305.22 1789.38,1307.19 1784.11,1309.13 1778.83,1311.05 1773.53,1312.94 1768.2,1314.8 1762.85,1316.63 1757.48,1318.42 1752.08,1320.19 1746.65,1321.91 1741.21,1323.6 1735.73,1325.26 1730.24,1326.89 1724.72,1328.48 1719.18,1330.04 1713.62,1331.57 1708.04,1333.07 1702.45,1334.54 1696.83,1336 1691.21,1337.43 1685.57,1338.85 1679.93,1340.25 1674.28,1341.65 1668.63,1343.05 1662.98,1344.45 1657.34,1345.85 1651.7,1347.27 1646.05,1348.66 1640.38,1350.03 1634.69,1351.36 1628.97,1352.67 1623.24,1353.94 1617.5,1355.17 1611.73,1356.38 1605.95,1357.54 1600.16,1358.68 1594.35,1359.78 1588.52,1360.84 1582.68,1361.87 1576.83,1362.86 1570.97,1363.83 1565.09,1364.75 1559.21,1365.65 1553.31,1366.52 1547.41,1367.35 1541.5,1368.16 1535.57,1368.95 1529.65,1369.7 1523.71,1370.44 1517.77,1371.15 1511.83,1371.85 1505.88,1372.53 1499.93,1373.2 1493.97,1373.86 1488.01,1374.51 1482.06,1375.16 1476.1,1375.81 1470.14,1376.46 1464.19,1377.11 1458.23,1377.77 1452.27,1378.4 1446.3,1379 1440.33,1379.57 1434.35,1380.11 1428.36,1380.61 1422.37,1381.08 1416.37,1381.52 1410.38,1381.93 1404.37,1382.3 1398.37,1382.63 1392.36,1382.93 1386.34,1383.2 1380.33,1383.44 1374.31,1383.64 1368.29,1383.82 1362.27,1383.96 1356.25,1384.07 1350.22,1384.15 1344.19,1384.21 1338.17,1384.23 1332.14,1384.24 1326.11,1384.22 1320.08,1384.18 1314.05,1384.12 1308.02,1384.04 1301.99,1383.94 1295.96,1383.83 1289.92,1383.72 1283.89,1383.59 1277.86,1383.45 1271.83,1383.32 1265.8,1383.18 1259.77,1383.05 1253.73,1382.92 1247.7,1382.8 1241.67,1382.64 1235.65,1382.44 1229.64,1382.19 1223.63,1381.89 1217.62,1381.55 1211.63,1381.17 1205.64,1380.74 1199.65,1380.27 1193.68,1379.76 1187.71,1379.21 1181.76,1378.62 1175.81,1377.99 1169.87,1377.32 1163.93,1376.62 1158.01,1375.89 1152.09,1375.12 1146.18,1374.31 1140.28,1373.48 1134.39,1372.62 1128.51,1371.73 1122.63,1370.81 1116.76,1369.87 1110.9,1368.91 1105.04,1367.92 1099.19,1366.92 1093.34,1365.89 1087.5,1364.85 1081.66,1363.8 1075.83,1362.73 1070,1361.65 1064.18,1360.57 1058.35,1359.47 1052.53,1358.38 1046.7,1357.28 1040.88,1356.18 1035.06,1355.08 1029.23,1353.98 1023.4,1352.9 1017.56,1351.82 1011.71,1350.76 1005.85,1349.73 999.97,1348.71 994.089,1347.7 988.213,1346.68 982.347,1345.63 976.499,1344.56 970.673,1343.46 964.874,1342.31 959.105,1341.11 953.368,1339.86 947.665,1338.56 941.998,1337.2 936.366,1335.79 930.768,1334.32 925.203,1332.81 919.668,1331.24 914.159,1329.63 908.673,1327.99 903.205,1326.32 897.749,1324.63 892.297,1322.94 886.843,1321.25 881.378,1319.57 875.893,1317.92 870.393,1316.3 864.886,1314.67 859.38,1313.05 853.881,1311.42 848.395,1309.78 842.927,1308.11 837.479,1306.42 832.055,1304.69 826.654,1302.94 821.278,1301.17 815.924,1299.36 810.592,1297.52 805.277,1295.67 799.977,1293.8 794.684,1291.92 789.393,1290.03 784.097,1288.15 778.793,1286.28 773.495,1284.4 768.215,1282.5 762.963,1280.57 757.748,1278.6 752.578,1276.58 747.459,1274.52 742.395,1272.4 737.391,1270.22 732.449,1267.98 727.568,1265.69 722.75,1263.33 717.991,1260.92 713.289,1258.46 708.639,1255.94 704.034,1253.38 699.469,1250.79 694.933,1248.17 690.417,1245.52 685.91,1242.87 681.398,1240.23 676.868,1237.6 672.31,1234.99 667.731,1232.4 663.143,1229.81 658.554,1227.23 653.972,1224.64 649.403,1222.04 644.854,1219.42 640.33,1216.79 635.833,1214.15 631.366,1211.48 626.932,1208.79 622.529,1206.07 618.159,1203.34 613.818,1200.58 609.505,1197.81 605.215,1195.02 600.944,1192.22 596.685,1189.41 592.432,1186.59 588.176,1183.78 583.91,1180.98 579.67,1178.15 575.48,1175.3 571.342,1172.42 567.258,1169.5 563.23,1166.55 559.26,1163.57 555.346,1160.56 551.491,1157.51 547.692,1154.43 543.95,1151.32 540.262,1148.18 536.627,1145.01 533.042,1141.82 529.505,1138.6 526.011,1135.35 522.557,1132.09 519.138,1128.8 515.749,1125.5 512.385,1122.19 509.04,1118.86 505.707,1115.54 502.379,1112.2 499.049,1108.87 495.708,1105.55 492.335,1102.24 488.914,1098.94 485.461,1095.66 481.992,1092.38 478.518,1089.11 475.054,1085.83 471.609,1082.54 468.193,1079.25 464.814,1075.94 461.481,1072.61 458.199,1069.27 454.971,1065.9 451.803,1062.51 448.695,1059.1 445.649,1055.67 442.664,1052.22 439.738,1048.74 436.869,1045.25 434.052,1041.73 431.281,1038.2 428.55,1034.65 425.851,1031.09 423.174,1027.53 420.508,1023.96 417.843,1020.39 415.164,1016.82 412.457,1013.26 409.715,1009.72 406.956,1006.17 404.198,1002.62 401.455,999.067 398.744,995.505 396.077,991.932 393.465,988.345 390.918,984.742 388.444,981.122 386.049,977.484 383.738,973.826 381.515,970.147 379.379,966.449 377.333,962.73 375.373,958.991 373.495,955.233 371.696,951.457 369.967,947.665 368.301,943.859 366.688,940.041 365.115,936.213 363.57,932.38 362.037,928.544 360.5,924.709 358.94,920.878 357.341,917.056 355.708,913.24 354.058,909.427 352.402,905.614 350.753,901.8 349.12,897.984 347.512,894.164 345.936,890.338 344.397,886.507 342.898,882.669 341.441,878.824 340.027,874.973 338.655,871.115 337.321,867.25 336.022,863.38 334.752,859.506 333.502,855.628 332.264,851.748 331.027,847.868 329.779,843.99 328.575,840.108 327.493,836.212 326.523,832.305 325.655,828.387 324.877,824.461 324.18,820.527 323.554,816.588 322.992,812.643 322.485,808.694 322.025,804.741 321.605,800.787 321.218,796.831 320.86,792.874 320.523,788.916 320.204,784.959 319.897,781.002 319.599,777.045 319.306,773.089 319.016,769.134 318.727,765.179 318.436,761.225 318.142,757.271 317.845,753.317 317.544,749.363 317.262,745.405 317.018,741.445 316.817,737.483 316.663,733.52 316.56,729.556 316.512,725.592 316.521,721.629 316.591,717.666 316.721,713.705 316.915,709.746 317.172,705.789 317.493,701.835 317.878,697.883 318.326,693.935 318.834,689.989 319.403,686.047 320.028,682.108 320.707,678.171 321.437,674.238 322.214,670.308 323.033,666.38 323.889,662.455 324.777,658.532 325.69,654.61 326.622,650.69 327.566,646.77 328.513,642.851 329.457,638.931 330.387,635.011 331.318,631.091 332.325,627.179 333.405,623.275 334.543,619.377 335.729,615.485 336.952,611.597 338.202,607.711 339.472,603.828 340.752,599.946 342.039,596.065 343.325,592.183 344.608,588.302 345.885,584.419 347.154,580.536 348.414,576.652 349.665,572.767 350.91,568.881 352.151,564.994 353.391,561.108 354.636,557.222 355.971,553.354 357.538,549.535 359.314,545.759 361.274,542.021 363.393,538.317 365.648,534.642 368.02,530.99 370.487,527.358 373.031,523.743 375.637,520.14 378.288,516.547 380.972,512.961 383.676,509.379 386.39,505.799 389.104,502.219 391.81,498.638 394.504,495.054 397.181,491.466 399.836,487.874 402.47,484.278 405.081,480.676 407.672,477.071 410.245,473.462 412.806,469.85 415.359,466.237 417.914,462.624 420.478,459.013 423.077,455.412 425.892,451.898 428.88,448.453 431.942,445.038 434.989,441.618 437.953,438.163 440.777,434.652 443.422,431.069 445.863,427.403 448.092,423.652 450.116,419.818 451.955,415.909 453.648,411.942 455.248,407.936 456.823,403.921 458.456,399.929 460.247,396.001 462.311,392.183 464.778,388.527 467.701,385.057 470.845,381.68 474.16,378.376 477.614,375.132 481.182,371.938 484.841,368.784 488.568,365.661 492.346,362.562 496.16,359.48 499.996,356.41 503.845,353.346 507.699,350.286 511.555,347.227 515.41,344.167 519.265,341.108 523.121,338.048 526.976,334.988 530.831,331.928 534.687,328.868 538.542,325.808 542.397,322.748 546.253,319.688 550.108,316.629 553.964,313.569 557.819,310.509 561.674,307.449 565.53,304.389 569.385,301.329 573.242,298.27 577.127,295.223 581.048,292.193 585.007,289.182 589.004,286.19 593.039,283.221 597.113,280.273 601.226,277.35 605.378,274.452 609.569,271.58 613.801,268.735 618.072,265.917 622.382,263.128 626.733,260.368 631.123,257.638 635.552,254.938 640.02,252.269 644.527,249.631 649.073,247.024 653.657,244.448 658.277,241.904 662.936,239.391 667.63,236.909 672.36,234.458 677.125,232.038 681.924,229.648 686.756,227.288 691.62,224.958 696.515,222.656 701.442,220.382 706.396,218.135 711.379,215.915 716.388,213.72 721.423,211.549 726.481,209.401 731.562,207.275 736.664,205.17 741.785,203.084 746.925,201.015 752.08,198.962 757.249,196.924 762.431,194.898 767.624,192.882 772.825,190.876 778.032,188.876 783.244,186.882 788.459,184.889 793.674,182.897 798.886,180.902 804.095,178.903 809.297,176.896 814.488,174.88 819.676,172.857 824.873,170.841 830.083,168.837 835.309,166.849 840.552,164.882 845.814,162.938 851.097,161.02 856.403,159.132 861.733,157.275 867.086,155.451 872.465,153.661 877.869,151.907 883.298,150.189 888.753,148.506 894.232,146.859 899.735,145.247 905.262,143.668 910.81,142.122 916.378,140.605 921.965,139.116 927.569,137.652 933.187,136.209 938.817,134.783 944.455,133.372 950.1,131.969 955.748,130.57 961.394,129.17 967.037,127.763 972.674,126.347 978.327,124.953 984,123.589 989.693,122.256 995.406,120.956 1001.14,119.69 1006.89,118.459 1012.65,117.262 1018.44,116.101 1024.24,114.976 1030.05,113.886 1035.88,112.833 1041.72,111.814 1047.58,110.831 1053.44,109.882 1059.32,108.966 1065.21,108.082 1071.11,107.229 1077.02,106.405 1082.93,105.61 1088.86,104.84 1094.79,104.095 1100.73,103.371 1106.67,102.667 1112.62,101.98 1118.57,101.307 1124.52,100.645 1130.48,99.9919 1136.43,99.3433 1142.39,98.6961 1148.35,98.0467 1154.3,97.391 1160.25,96.7203 1166.2,96.0115 1172.15,95.2789 1178.09,94.5401 1184.03,93.8102 1189.98,93.1024 1195.93,92.4274 1201.89,91.7937 1207.85,91.2075 1213.83,90.6728 1219.81,90.1914 1225.8,89.7626 1231.79,89.3837 1237.8,89.0496 1243.8,88.7532 1249.82,88.4846 1255.83,88.2323 1261.85,87.982 1267.86,87.7174 "/>
<path clip-path="url(#clip250)" d="M327.056 1377.32 L750.198 1377.32 L750.198 1221.8 L327.056 1221.8  Z" fill="#ffffff" fill-rule="evenodd" fill-opacity="1"/>
<polyline clip-path="url(#clip250)" style="stroke:#000000; stroke-linecap:round; stroke-linejoin:round; stroke-width:4; stroke-opacity:1; fill:none" points="327.056,1377.32 750.198,1377.32 750.198,1221.8 327.056,1221.8 327.056,1377.32 "/>
<polyline clip-path="url(#clip250)" style="stroke:#009af9; stroke-linecap:round; stroke-linejoin:round; stroke-width:16; stroke-opacity:1; fill:none" points="350.34,1273.64 490.043,1273.64 "/>
<path clip-path="url(#clip250)" d="M529.345 1259.53 Q524.253 1259.53 521.244 1263.32 Q518.258 1267.12 518.258 1273.67 Q518.258 1280.2 521.244 1283.99 Q524.253 1287.79 529.345 1287.79 Q534.438 1287.79 537.401 1283.99 Q540.387 1280.2 540.387 1273.67 Q540.387 1267.12 537.401 1263.32 Q534.438 1259.53 529.345 1259.53 M529.345 1255.73 Q536.614 1255.73 540.966 1260.61 Q545.318 1265.48 545.318 1273.67 Q545.318 1281.84 540.966 1286.73 Q536.614 1291.59 529.345 1291.59 Q522.054 1291.59 517.679 1286.73 Q513.327 1281.86 513.327 1273.67 Q513.327 1265.48 517.679 1260.61 Q522.054 1255.73 529.345 1255.73 Z" fill="#000000" fill-rule="nonzero" fill-opacity="1" /><path clip-path="url(#clip250)" d="M567.47 1268.97 Q566.753 1268.55 565.896 1268.37 Q565.063 1268.16 564.044 1268.16 Q560.433 1268.16 558.489 1270.52 Q556.568 1272.86 556.568 1277.26 L556.568 1290.92 L552.285 1290.92 L552.285 1264.99 L556.568 1264.99 L556.568 1269.02 Q557.91 1266.66 560.063 1265.52 Q562.216 1264.36 565.294 1264.36 Q565.734 1264.36 566.267 1264.43 Q566.799 1264.48 567.447 1264.6 L567.47 1268.97 Z" fill="#000000" fill-rule="nonzero" fill-opacity="1" /><path clip-path="url(#clip250)" d="M571.938 1264.99 L576.197 1264.99 L576.197 1290.92 L571.938 1290.92 L571.938 1264.99 M571.938 1254.9 L576.197 1254.9 L576.197 1260.29 L571.938 1260.29 L571.938 1254.9 Z" fill="#000000" fill-rule="nonzero" fill-opacity="1" /><path clip-path="url(#clip250)" d="M602.169 1277.65 Q602.169 1273.02 600.248 1270.48 Q598.35 1267.93 594.901 1267.93 Q591.475 1267.93 589.553 1270.48 Q587.655 1273.02 587.655 1277.65 Q587.655 1282.26 589.553 1284.8 Q591.475 1287.35 594.901 1287.35 Q598.35 1287.35 600.248 1284.8 Q602.169 1282.26 602.169 1277.65 M606.428 1287.7 Q606.428 1294.32 603.489 1297.54 Q600.549 1300.78 594.484 1300.78 Q592.239 1300.78 590.248 1300.43 Q588.257 1300.11 586.382 1299.41 L586.382 1295.27 Q588.257 1296.29 590.086 1296.77 Q591.915 1297.26 593.813 1297.26 Q598.003 1297.26 600.086 1295.06 Q602.169 1292.88 602.169 1288.46 L602.169 1286.36 Q600.85 1288.65 598.79 1289.78 Q596.729 1290.92 593.859 1290.92 Q589.091 1290.92 586.174 1287.28 Q583.257 1283.65 583.257 1277.65 Q583.257 1271.63 586.174 1268 Q589.091 1264.36 593.859 1264.36 Q596.729 1264.36 598.79 1265.5 Q600.85 1266.63 602.169 1268.92 L602.169 1264.99 L606.428 1264.99 L606.428 1287.7 Z" fill="#000000" fill-rule="nonzero" fill-opacity="1" /><path clip-path="url(#clip250)" d="M615.201 1264.99 L619.461 1264.99 L619.461 1290.92 L615.201 1290.92 L615.201 1264.99 M615.201 1254.9 L619.461 1254.9 L619.461 1260.29 L615.201 1260.29 L615.201 1254.9 Z" fill="#000000" fill-rule="nonzero" fill-opacity="1" /><path clip-path="url(#clip250)" d="M649.924 1275.27 L649.924 1290.92 L645.664 1290.92 L645.664 1275.41 Q645.664 1271.73 644.229 1269.9 Q642.794 1268.07 639.924 1268.07 Q636.475 1268.07 634.484 1270.27 Q632.493 1272.47 632.493 1276.26 L632.493 1290.92 L628.211 1290.92 L628.211 1264.99 L632.493 1264.99 L632.493 1269.02 Q634.021 1266.68 636.081 1265.52 Q638.164 1264.36 640.873 1264.36 Q645.34 1264.36 647.632 1267.14 Q649.924 1269.9 649.924 1275.27 Z" fill="#000000" fill-rule="nonzero" fill-opacity="1" /><path clip-path="url(#clip250)" d="M670.201 1277.88 Q665.039 1277.88 663.048 1279.06 Q661.058 1280.24 661.058 1283.09 Q661.058 1285.36 662.539 1286.7 Q664.044 1288.02 666.613 1288.02 Q670.155 1288.02 672.285 1285.52 Q674.437 1283 674.437 1278.83 L674.437 1277.88 L670.201 1277.88 M678.697 1276.12 L678.697 1290.92 L674.437 1290.92 L674.437 1286.98 Q672.979 1289.34 670.803 1290.48 Q668.627 1291.59 665.479 1291.59 Q661.498 1291.59 659.136 1289.36 Q656.798 1287.12 656.798 1283.37 Q656.798 1278.99 659.715 1276.77 Q662.655 1274.55 668.465 1274.55 L674.437 1274.55 L674.437 1274.13 Q674.437 1271.19 672.493 1269.6 Q670.572 1267.98 667.076 1267.98 Q664.854 1267.98 662.748 1268.51 Q660.641 1269.04 658.697 1270.11 L658.697 1266.17 Q661.035 1265.27 663.234 1264.83 Q665.433 1264.36 667.516 1264.36 Q673.141 1264.36 675.919 1267.28 Q678.697 1270.2 678.697 1276.12 Z" fill="#000000" fill-rule="nonzero" fill-opacity="1" /><path clip-path="url(#clip250)" d="M687.47 1254.9 L691.729 1254.9 L691.729 1290.92 L687.47 1290.92 L687.47 1254.9 Z" fill="#000000" fill-rule="nonzero" fill-opacity="1" /><polyline clip-path="url(#clip250)" style="stroke:#e26f46; stroke-linecap:round; stroke-linejoin:round; stroke-width:16; stroke-opacity:1; fill:none" points="350.34,1325.48 490.043,1325.48 "/>
<path clip-path="url(#clip250)" d="M518.003 1312.04 L518.003 1325.02 L523.883 1325.02 Q527.146 1325.02 528.929 1323.33 Q530.711 1321.64 530.711 1318.52 Q530.711 1315.42 528.929 1313.73 Q527.146 1312.04 523.883 1312.04 L518.003 1312.04 M513.327 1308.2 L523.883 1308.2 Q529.693 1308.2 532.656 1310.83 Q535.642 1313.45 535.642 1318.52 Q535.642 1323.64 532.656 1326.25 Q529.693 1328.87 523.883 1328.87 L518.003 1328.87 L518.003 1342.76 L513.327 1342.76 L513.327 1308.2 Z" fill="#000000" fill-rule="nonzero" fill-opacity="1" /><path clip-path="url(#clip250)" d="M555.919 1320.81 Q555.202 1320.39 554.345 1320.21 Q553.512 1320 552.493 1320 Q548.882 1320 546.938 1322.36 Q545.017 1324.7 545.017 1329.1 L545.017 1342.76 L540.734 1342.76 L540.734 1316.83 L545.017 1316.83 L545.017 1320.86 Q546.359 1318.5 548.512 1317.36 Q550.665 1316.2 553.743 1316.2 Q554.183 1316.2 554.716 1316.27 Q555.248 1316.32 555.896 1316.44 L555.919 1320.81 Z" fill="#000000" fill-rule="nonzero" fill-opacity="1" /><path clip-path="url(#clip250)" d="M581.521 1328.73 L581.521 1330.81 L561.938 1330.81 Q562.216 1335.21 564.577 1337.52 Q566.961 1339.82 571.197 1339.82 Q573.651 1339.82 575.942 1339.21 Q578.257 1338.61 580.526 1337.41 L580.526 1341.44 Q578.234 1342.41 575.827 1342.92 Q573.419 1343.43 570.942 1343.43 Q564.739 1343.43 561.105 1339.82 Q557.493 1336.2 557.493 1330.05 Q557.493 1323.68 560.919 1319.95 Q564.368 1316.2 570.202 1316.2 Q575.433 1316.2 578.466 1319.58 Q581.521 1322.94 581.521 1328.73 M577.262 1327.48 Q577.216 1323.98 575.294 1321.9 Q573.396 1319.82 570.248 1319.82 Q566.683 1319.82 564.53 1321.83 Q562.401 1323.84 562.077 1327.5 L577.262 1327.48 Z" fill="#000000" fill-rule="nonzero" fill-opacity="1" /><path clip-path="url(#clip250)" d="M605.572 1320.76 L605.572 1306.74 L609.831 1306.74 L609.831 1342.76 L605.572 1342.76 L605.572 1338.87 Q604.229 1341.18 602.169 1342.32 Q600.132 1343.43 597.262 1343.43 Q592.563 1343.43 589.6 1339.68 Q586.66 1335.93 586.66 1329.82 Q586.66 1323.7 589.6 1319.95 Q592.563 1316.2 597.262 1316.2 Q600.132 1316.2 602.169 1317.34 Q604.229 1318.45 605.572 1320.76 M591.058 1329.82 Q591.058 1334.51 592.979 1337.2 Q594.924 1339.86 598.303 1339.86 Q601.683 1339.86 603.627 1337.2 Q605.572 1334.51 605.572 1329.82 Q605.572 1325.12 603.627 1322.45 Q601.683 1319.77 598.303 1319.77 Q594.924 1319.77 592.979 1322.45 Q591.058 1325.12 591.058 1329.82 Z" fill="#000000" fill-rule="nonzero" fill-opacity="1" /><path clip-path="url(#clip250)" d="M618.604 1316.83 L622.863 1316.83 L622.863 1342.76 L618.604 1342.76 L618.604 1316.83 M618.604 1306.74 L622.863 1306.74 L622.863 1312.13 L618.604 1312.13 L618.604 1306.74 Z" fill="#000000" fill-rule="nonzero" fill-opacity="1" /><path clip-path="url(#clip250)" d="M650.433 1317.82 L650.433 1321.81 Q648.627 1320.81 646.799 1320.32 Q644.993 1319.82 643.141 1319.82 Q638.998 1319.82 636.706 1322.45 Q634.414 1325.07 634.414 1329.82 Q634.414 1334.56 636.706 1337.2 Q638.998 1339.82 643.141 1339.82 Q644.993 1339.82 646.799 1339.33 Q648.627 1338.82 650.433 1337.82 L650.433 1341.76 Q648.65 1342.59 646.729 1343.01 Q644.831 1343.43 642.678 1343.43 Q636.822 1343.43 633.373 1339.75 Q629.924 1336.07 629.924 1329.82 Q629.924 1323.47 633.396 1319.84 Q636.891 1316.2 642.956 1316.2 Q644.924 1316.2 646.799 1316.62 Q648.674 1317.01 650.433 1317.82 Z" fill="#000000" fill-rule="nonzero" fill-opacity="1" /><path clip-path="url(#clip250)" d="M662.053 1309.47 L662.053 1316.83 L670.826 1316.83 L670.826 1320.14 L662.053 1320.14 L662.053 1334.21 Q662.053 1337.38 662.91 1338.29 Q663.789 1339.19 666.451 1339.19 L670.826 1339.19 L670.826 1342.76 L666.451 1342.76 Q661.521 1342.76 659.646 1340.93 Q657.771 1339.07 657.771 1334.21 L657.771 1320.14 L654.646 1320.14 L654.646 1316.83 L657.771 1316.83 L657.771 1309.47 L662.053 1309.47 Z" fill="#000000" fill-rule="nonzero" fill-opacity="1" /><path clip-path="url(#clip250)" d="M698.604 1328.73 L698.604 1330.81 L679.021 1330.81 Q679.298 1335.21 681.659 1337.52 Q684.044 1339.82 688.28 1339.82 Q690.733 1339.82 693.025 1339.21 Q695.34 1338.61 697.608 1337.41 L697.608 1341.44 Q695.317 1342.41 692.909 1342.92 Q690.502 1343.43 688.025 1343.43 Q681.822 1343.43 678.187 1339.82 Q674.576 1336.2 674.576 1330.05 Q674.576 1323.68 678.002 1319.95 Q681.451 1316.2 687.284 1316.2 Q692.516 1316.2 695.548 1319.58 Q698.604 1322.94 698.604 1328.73 M694.345 1327.48 Q694.298 1323.98 692.377 1321.9 Q690.479 1319.82 687.331 1319.82 Q683.766 1319.82 681.613 1321.83 Q679.484 1323.84 679.159 1327.5 L694.345 1327.48 Z" fill="#000000" fill-rule="nonzero" fill-opacity="1" /><path clip-path="url(#clip250)" d="M722.655 1320.76 L722.655 1306.74 L726.914 1306.74 L726.914 1342.76 L722.655 1342.76 L722.655 1338.87 Q721.312 1341.18 719.252 1342.32 Q717.215 1343.43 714.344 1343.43 Q709.645 1343.43 706.682 1339.68 Q703.743 1335.93 703.743 1329.82 Q703.743 1323.7 706.682 1319.95 Q709.645 1316.2 714.344 1316.2 Q717.215 1316.2 719.252 1317.34 Q721.312 1318.45 722.655 1320.76 M708.141 1329.82 Q708.141 1334.51 710.062 1337.2 Q712.007 1339.86 715.386 1339.86 Q718.766 1339.86 720.71 1337.2 Q722.655 1334.51 722.655 1329.82 Q722.655 1325.12 720.71 1322.45 Q718.766 1319.77 715.386 1319.77 Q712.007 1319.77 710.062 1322.45 Q708.141 1325.12 708.141 1329.82 Z" fill="#000000" fill-rule="nonzero" fill-opacity="1" /></svg>
