<?xml version="1.0" encoding="utf-8"?>
<svg xmlns="http://www.w3.org/2000/svg" xmlns:xlink="http://www.w3.org/1999/xlink" width="600" height="400" viewBox="0 0 2400 1600">
<defs>
  <clipPath id="clip110">
    <rect x="0" y="0" width="2400" height="1600"/>
  </clipPath>
</defs>
<path clip-path="url(#clip110)" d="M0 1600 L2400 1600 L2400 0 L0 0  Z" fill="#ffffff" fill-rule="evenodd" fill-opacity="1"/>
<defs>
  <clipPath id="clip111">
    <rect x="480" y="0" width="1681" height="1600"/>
  </clipPath>
</defs>
<path clip-path="url(#clip110)" d="M178.867 1486.45 L2352.76 1486.45 L2352.76 47.2441 L178.867 47.2441  Z" fill="#ffffff" fill-rule="evenodd" fill-opacity="1"/>
<defs>
  <clipPath id="clip112">
    <rect x="178" y="47" width="2175" height="1440"/>
  </clipPath>
</defs>
<polyline clip-path="url(#clip112)" style="stroke:#000000; stroke-linecap:round; stroke-linejoin:round; stroke-width:2; stroke-opacity:0.1; fill:none" points="240.392,1486.45 240.392,47.2441 "/>
<polyline clip-path="url(#clip112)" style="stroke:#000000; stroke-linecap:round; stroke-linejoin:round; stroke-width:2; stroke-opacity:0.1; fill:none" points="924.005,1486.45 924.005,47.2441 "/>
<polyline clip-path="url(#clip112)" style="stroke:#000000; stroke-linecap:round; stroke-linejoin:round; stroke-width:2; stroke-opacity:0.1; fill:none" points="1607.62,1486.45 1607.62,47.2441 "/>
<polyline clip-path="url(#clip112)" style="stroke:#000000; stroke-linecap:round; stroke-linejoin:round; stroke-width:2; stroke-opacity:0.1; fill:none" points="2291.23,1486.45 2291.23,47.2441 "/>
<polyline clip-path="url(#clip112)" style="stroke:#000000; stroke-linecap:round; stroke-linejoin:round; stroke-width:2; stroke-opacity:0.1; fill:none" points="178.867,1436.37 2352.76,1436.37 "/>
<polyline clip-path="url(#clip112)" style="stroke:#000000; stroke-linecap:round; stroke-linejoin:round; stroke-width:2; stroke-opacity:0.1; fill:none" points="178.867,980.791 2352.76,980.791 "/>
<polyline clip-path="url(#clip112)" style="stroke:#000000; stroke-linecap:round; stroke-linejoin:round; stroke-width:2; stroke-opacity:0.1; fill:none" points="178.867,525.21 2352.76,525.21 "/>
<polyline clip-path="url(#clip112)" style="stroke:#000000; stroke-linecap:round; stroke-linejoin:round; stroke-width:2; stroke-opacity:0.1; fill:none" points="178.867,69.6295 2352.76,69.6295 "/>
<polyline clip-path="url(#clip110)" style="stroke:#000000; stroke-linecap:round; stroke-linejoin:round; stroke-width:4; stroke-opacity:1; fill:none" points="178.867,1486.45 2352.76,1486.45 "/>
<polyline clip-path="url(#clip110)" style="stroke:#000000; stroke-linecap:round; stroke-linejoin:round; stroke-width:4; stroke-opacity:1; fill:none" points="240.392,1486.45 240.392,1467.55 "/>
<polyline clip-path="url(#clip110)" style="stroke:#000000; stroke-linecap:round; stroke-linejoin:round; stroke-width:4; stroke-opacity:1; fill:none" points="924.005,1486.45 924.005,1467.55 "/>
<polyline clip-path="url(#clip110)" style="stroke:#000000; stroke-linecap:round; stroke-linejoin:round; stroke-width:4; stroke-opacity:1; fill:none" points="1607.62,1486.45 1607.62,1467.55 "/>
<polyline clip-path="url(#clip110)" style="stroke:#000000; stroke-linecap:round; stroke-linejoin:round; stroke-width:4; stroke-opacity:1; fill:none" points="2291.23,1486.45 2291.23,1467.55 "/>
<path clip-path="url(#clip110)" d="M217.776 1517.37 Q214.165 1517.37 212.336 1520.93 Q210.531 1524.47 210.531 1531.6 Q210.531 1538.71 212.336 1542.27 Q214.165 1545.82 217.776 1545.82 Q221.41 1545.82 223.216 1542.27 Q225.045 1538.71 225.045 1531.6 Q225.045 1524.47 223.216 1520.93 Q221.41 1517.37 217.776 1517.37 M217.776 1513.66 Q223.586 1513.66 226.642 1518.27 Q229.721 1522.85 229.721 1531.6 Q229.721 1540.33 226.642 1544.94 Q223.586 1549.52 217.776 1549.52 Q211.966 1549.52 208.887 1544.94 Q205.832 1540.33 205.832 1531.6 Q205.832 1522.85 208.887 1518.27 Q211.966 1513.66 217.776 1513.66 Z" fill="#000000" fill-rule="nonzero" fill-opacity="1" /><path clip-path="url(#clip110)" d="M237.938 1542.97 L242.822 1542.97 L242.822 1548.85 L237.938 1548.85 L237.938 1542.97 Z" fill="#000000" fill-rule="nonzero" fill-opacity="1" /><path clip-path="url(#clip110)" d="M263.007 1517.37 Q259.396 1517.37 257.568 1520.93 Q255.762 1524.47 255.762 1531.6 Q255.762 1538.71 257.568 1542.27 Q259.396 1545.82 263.007 1545.82 Q266.642 1545.82 268.447 1542.27 Q270.276 1538.71 270.276 1531.6 Q270.276 1524.47 268.447 1520.93 Q266.642 1517.37 263.007 1517.37 M263.007 1513.66 Q268.818 1513.66 271.873 1518.27 Q274.952 1522.85 274.952 1531.6 Q274.952 1540.33 271.873 1544.94 Q268.818 1549.52 263.007 1549.52 Q257.197 1549.52 254.119 1544.94 Q251.063 1540.33 251.063 1531.6 Q251.063 1522.85 254.119 1518.27 Q257.197 1513.66 263.007 1513.66 Z" fill="#000000" fill-rule="nonzero" fill-opacity="1" /><path clip-path="url(#clip110)" d="M901.887 1517.37 Q898.276 1517.37 896.447 1520.93 Q894.642 1524.47 894.642 1531.6 Q894.642 1538.71 896.447 1542.27 Q898.276 1545.82 901.887 1545.82 Q905.521 1545.82 907.327 1542.27 Q909.155 1538.71 909.155 1531.6 Q909.155 1524.47 907.327 1520.93 Q905.521 1517.37 901.887 1517.37 M901.887 1513.66 Q907.697 1513.66 910.753 1518.27 Q913.831 1522.85 913.831 1531.6 Q913.831 1540.33 910.753 1544.94 Q907.697 1549.52 901.887 1549.52 Q896.077 1549.52 892.998 1544.94 Q889.942 1540.33 889.942 1531.6 Q889.942 1522.85 892.998 1518.27 Q896.077 1513.66 901.887 1513.66 Z" fill="#000000" fill-rule="nonzero" fill-opacity="1" /><path clip-path="url(#clip110)" d="M922.049 1542.97 L926.933 1542.97 L926.933 1548.85 L922.049 1548.85 L922.049 1542.97 Z" fill="#000000" fill-rule="nonzero" fill-opacity="1" /><path clip-path="url(#clip110)" d="M937.164 1514.29 L955.521 1514.29 L955.521 1518.22 L941.447 1518.22 L941.447 1526.7 Q942.465 1526.35 943.484 1526.19 Q944.502 1526 945.521 1526 Q951.308 1526 954.687 1529.17 Q958.067 1532.34 958.067 1537.76 Q958.067 1543.34 954.595 1546.44 Q951.123 1549.52 944.803 1549.52 Q942.627 1549.52 940.359 1549.15 Q938.114 1548.78 935.706 1548.04 L935.706 1543.34 Q937.789 1544.47 940.012 1545.03 Q942.234 1545.58 944.711 1545.58 Q948.715 1545.58 951.053 1543.48 Q953.391 1541.37 953.391 1537.76 Q953.391 1534.15 951.053 1532.04 Q948.715 1529.94 944.711 1529.94 Q942.836 1529.94 940.961 1530.35 Q939.109 1530.77 937.164 1531.65 L937.164 1514.29 Z" fill="#000000" fill-rule="nonzero" fill-opacity="1" /><path clip-path="url(#clip110)" d="M1574.77 1544.91 L1582.41 1544.91 L1582.41 1518.55 L1574.1 1520.21 L1574.1 1515.95 L1582.36 1514.29 L1587.04 1514.29 L1587.04 1544.91 L1594.68 1544.91 L1594.68 1548.85 L1574.77 1548.85 L1574.77 1544.91 Z" fill="#000000" fill-rule="nonzero" fill-opacity="1" /><path clip-path="url(#clip110)" d="M1604.12 1542.97 L1609.01 1542.97 L1609.01 1548.85 L1604.12 1548.85 L1604.12 1542.97 Z" fill="#000000" fill-rule="nonzero" fill-opacity="1" /><path clip-path="url(#clip110)" d="M1629.19 1517.37 Q1625.58 1517.37 1623.75 1520.93 Q1621.95 1524.47 1621.95 1531.6 Q1621.95 1538.71 1623.75 1542.27 Q1625.58 1545.82 1629.19 1545.82 Q1632.83 1545.82 1634.63 1542.27 Q1636.46 1538.71 1636.46 1531.6 Q1636.46 1524.47 1634.63 1520.93 Q1632.83 1517.37 1629.19 1517.37 M1629.19 1513.66 Q1635 1513.66 1638.06 1518.27 Q1641.14 1522.85 1641.14 1531.6 Q1641.14 1540.33 1638.06 1544.94 Q1635 1549.52 1629.19 1549.52 Q1623.38 1549.52 1620.3 1544.94 Q1617.25 1540.33 1617.25 1531.6 Q1617.25 1522.85 1620.3 1518.27 Q1623.38 1513.66 1629.19 1513.66 Z" fill="#000000" fill-rule="nonzero" fill-opacity="1" /><path clip-path="url(#clip110)" d="M2258.88 1544.91 L2266.52 1544.91 L2266.52 1518.55 L2258.21 1520.21 L2258.21 1515.95 L2266.47 1514.29 L2271.15 1514.29 L2271.15 1544.91 L2278.79 1544.91 L2278.79 1548.85 L2258.88 1548.85 L2258.88 1544.91 Z" fill="#000000" fill-rule="nonzero" fill-opacity="1" /><path clip-path="url(#clip110)" d="M2288.23 1542.97 L2293.12 1542.97 L2293.12 1548.85 L2288.23 1548.85 L2288.23 1542.97 Z" fill="#000000" fill-rule="nonzero" fill-opacity="1" /><path clip-path="url(#clip110)" d="M2303.35 1514.29 L2321.71 1514.29 L2321.71 1518.22 L2307.63 1518.22 L2307.63 1526.7 Q2308.65 1526.35 2309.67 1526.19 Q2310.69 1526 2311.71 1526 Q2317.49 1526 2320.87 1529.17 Q2324.25 1532.34 2324.25 1537.76 Q2324.25 1543.34 2320.78 1546.44 Q2317.31 1549.52 2310.99 1549.52 Q2308.81 1549.52 2306.54 1549.15 Q2304.3 1548.78 2301.89 1548.04 L2301.89 1543.34 Q2303.97 1544.47 2306.2 1545.03 Q2308.42 1545.58 2310.89 1545.58 Q2314.9 1545.58 2317.24 1543.48 Q2319.58 1541.37 2319.58 1537.76 Q2319.58 1534.15 2317.24 1532.04 Q2314.9 1529.94 2310.89 1529.94 Q2309.02 1529.94 2307.15 1530.35 Q2305.29 1530.77 2303.35 1531.65 L2303.35 1514.29 Z" fill="#000000" fill-rule="nonzero" fill-opacity="1" /><polyline clip-path="url(#clip110)" style="stroke:#000000; stroke-linecap:round; stroke-linejoin:round; stroke-width:4; stroke-opacity:1; fill:none" points="178.867,1486.45 178.867,47.2441 "/>
<polyline clip-path="url(#clip110)" style="stroke:#000000; stroke-linecap:round; stroke-linejoin:round; stroke-width:4; stroke-opacity:1; fill:none" points="178.867,1436.37 197.764,1436.37 "/>
<polyline clip-path="url(#clip110)" style="stroke:#000000; stroke-linecap:round; stroke-linejoin:round; stroke-width:4; stroke-opacity:1; fill:none" points="178.867,980.791 197.764,980.791 "/>
<polyline clip-path="url(#clip110)" style="stroke:#000000; stroke-linecap:round; stroke-linejoin:round; stroke-width:4; stroke-opacity:1; fill:none" points="178.867,525.21 197.764,525.21 "/>
<polyline clip-path="url(#clip110)" style="stroke:#000000; stroke-linecap:round; stroke-linejoin:round; stroke-width:4; stroke-opacity:1; fill:none" points="178.867,69.6295 197.764,69.6295 "/>
<path clip-path="url(#clip110)" d="M50.9921 1436.82 L80.6679 1436.82 L80.6679 1440.76 L50.9921 1440.76 L50.9921 1436.82 Z" fill="#000000" fill-rule="nonzero" fill-opacity="1" /><path clip-path="url(#clip110)" d="M91.5706 1449.72 L99.2095 1449.72 L99.2095 1423.35 L90.8993 1425.02 L90.8993 1420.76 L99.1632 1419.09 L103.839 1419.09 L103.839 1449.72 L111.478 1449.72 L111.478 1453.65 L91.5706 1453.65 L91.5706 1449.72 Z" fill="#000000" fill-rule="nonzero" fill-opacity="1" /><path clip-path="url(#clip110)" d="M130.922 1422.17 Q127.311 1422.17 125.482 1425.74 Q123.677 1429.28 123.677 1436.41 Q123.677 1443.51 125.482 1447.08 Q127.311 1450.62 130.922 1450.62 Q134.556 1450.62 136.362 1447.08 Q138.191 1443.51 138.191 1436.41 Q138.191 1429.28 136.362 1425.74 Q134.556 1422.17 130.922 1422.17 M130.922 1418.47 Q136.732 1418.47 139.788 1423.07 Q142.867 1427.66 142.867 1436.41 Q142.867 1445.13 139.788 1449.74 Q136.732 1454.32 130.922 1454.32 Q125.112 1454.32 122.033 1449.74 Q118.978 1445.13 118.978 1436.41 Q118.978 1427.66 122.033 1423.07 Q125.112 1418.47 130.922 1418.47 Z" fill="#000000" fill-rule="nonzero" fill-opacity="1" /><path clip-path="url(#clip110)" d="M130.922 966.59 Q127.311 966.59 125.482 970.155 Q123.677 973.697 123.677 980.826 Q123.677 987.933 125.482 991.497 Q127.311 995.039 130.922 995.039 Q134.556 995.039 136.362 991.497 Q138.191 987.933 138.191 980.826 Q138.191 973.697 136.362 970.155 Q134.556 966.59 130.922 966.59 M130.922 962.886 Q136.732 962.886 139.788 967.493 Q142.867 972.076 142.867 980.826 Q142.867 989.553 139.788 994.159 Q136.732 998.743 130.922 998.743 Q125.112 998.743 122.033 994.159 Q118.978 989.553 118.978 980.826 Q118.978 972.076 122.033 967.493 Q125.112 962.886 130.922 962.886 Z" fill="#000000" fill-rule="nonzero" fill-opacity="1" /><path clip-path="url(#clip110)" d="M91.5706 538.555 L99.2095 538.555 L99.2095 512.19 L90.8993 513.856 L90.8993 509.597 L99.1632 507.93 L103.839 507.93 L103.839 538.555 L111.478 538.555 L111.478 542.49 L91.5706 542.49 L91.5706 538.555 Z" fill="#000000" fill-rule="nonzero" fill-opacity="1" /><path clip-path="url(#clip110)" d="M130.922 511.009 Q127.311 511.009 125.482 514.574 Q123.677 518.116 123.677 525.245 Q123.677 532.352 125.482 535.916 Q127.311 539.458 130.922 539.458 Q134.556 539.458 136.362 535.916 Q138.191 532.352 138.191 525.245 Q138.191 518.116 136.362 514.574 Q134.556 511.009 130.922 511.009 M130.922 507.305 Q136.732 507.305 139.788 511.912 Q142.867 516.495 142.867 525.245 Q142.867 533.972 139.788 538.578 Q136.732 543.162 130.922 543.162 Q125.112 543.162 122.033 538.578 Q118.978 533.972 118.978 525.245 Q118.978 516.495 122.033 511.912 Q125.112 507.305 130.922 507.305 Z" fill="#000000" fill-rule="nonzero" fill-opacity="1" /><path clip-path="url(#clip110)" d="M94.7882 82.9744 L111.108 82.9744 L111.108 86.9095 L89.1632 86.9095 L89.1632 82.9744 Q91.8252 80.2198 96.4085 75.5902 Q101.015 70.9374 102.196 69.5948 Q104.441 67.0717 105.321 65.3356 Q106.223 63.5763 106.223 61.8865 Q106.223 59.1319 104.279 57.3958 Q102.358 55.6597 99.2558 55.6597 Q97.0567 55.6597 94.603 56.4236 Q92.1725 57.1875 89.3947 58.7384 L89.3947 54.0162 Q92.2188 52.8819 94.6724 52.3032 Q97.1261 51.7245 99.1632 51.7245 Q104.534 51.7245 107.728 54.4097 Q110.922 57.0949 110.922 61.5856 Q110.922 63.7152 110.112 65.6365 Q109.325 67.5346 107.219 70.1272 Q106.64 70.7985 103.538 74.0161 Q100.436 77.2105 94.7882 82.9744 Z" fill="#000000" fill-rule="nonzero" fill-opacity="1" /><path clip-path="url(#clip110)" d="M130.922 55.4282 Q127.311 55.4282 125.482 58.993 Q123.677 62.5347 123.677 69.6643 Q123.677 76.7707 125.482 80.3355 Q127.311 83.8772 130.922 83.8772 Q134.556 83.8772 136.362 80.3355 Q138.191 76.7707 138.191 69.6643 Q138.191 62.5347 136.362 58.993 Q134.556 55.4282 130.922 55.4282 M130.922 51.7245 Q136.732 51.7245 139.788 56.331 Q142.867 60.9143 142.867 69.6643 Q142.867 78.3911 139.788 82.9975 Q136.732 87.5808 130.922 87.5808 Q125.112 87.5808 122.033 82.9975 Q118.978 78.3911 118.978 69.6643 Q118.978 60.9143 122.033 56.331 Q125.112 51.7245 130.922 51.7245 Z" fill="#000000" fill-rule="nonzero" fill-opacity="1" /><polyline clip-path="url(#clip112)" style="stroke:#009af9; stroke-linecap:round; stroke-linejoin:round; stroke-width:4; stroke-opacity:1; fill:none" points="240.392,862.338 247.251,890.227 254.11,917.908 260.969,945.411 267.828,972.26 274.687,998.358 281.546,1023.31 288.405,1047.42 295.264,1070.9 302.123,1093.48 308.982,1115.12 315.841,1135.98 322.7,1156.13 329.559,1175.4 336.418,1193.76 343.277,1211.18 350.136,1227.76 356.995,1243.54 363.854,1258.59 370.713,1272.94 377.572,1286.5 384.431,1299.34 391.29,1311.47 398.149,1322.94 405.008,1333.81 411.867,1344.16 418.726,1354.03 425.585,1363.42 432.444,1372.32 439.303,1380.71 446.162,1388.57 453.021,1395.91 459.88,1402.73 466.739,1409.02 473.598,1414.77 480.457,1420 487.316,1424.72 494.175,1428.91 501.034,1432.61 507.893,1435.85 514.752,1438.6 521.611,1440.87 528.47,1442.71 535.328,1444.1 542.188,1445.04 549.046,1445.58 555.905,1445.72 562.764,1445.4 569.623,1444.69 576.482,1443.62 583.341,1442.22 590.2,1440.63 597.059,1438.89 603.918,1436.86 610.777,1434.33 617.636,1431.29 624.495,1427.75 631.354,1423.78 638.213,1419.31 645.072,1414.37 651.931,1408.96 658.79,1403.04 665.649,1396.69 672.508,1390.03 679.367,1383 686.226,1375.63 693.085,1367.87 699.944,1359.77 706.803,1351.39 713.662,1342.84 720.521,1334.09 727.38,1325.09 734.239,1315.88 741.098,1306.57 747.957,1297.13 754.816,1287.61 761.675,1278.09 768.534,1268.58 775.393,1259.12 782.252,1249.67 789.111,1240.19 795.97,1230.64 802.829,1221.11 809.688,1211.6 816.547,1202.1 823.406,1192.67 830.265,1183.28 837.124,1173.92 843.983,1164.66 850.842,1155.51 857.701,1146.4 864.56,1137.33 871.419,1128.32 878.278,1119.35 885.137,1110.46 891.996,1101.58 898.855,1092.77 905.714,1084.04 912.573,1075.42 919.432,1066.89 926.291,1058.5 933.15,1050.27 940.009,1042.19 946.868,1034.14 953.727,1026.17 960.586,1018.31 967.445,1010.49 974.304,1002.71 981.163,995.044 988.022,987.443 994.881,979.931 1001.74,972.471 1008.6,965.022 1015.46,957.672 1022.32,950.431 1029.18,943.3 1036.04,936.296 1042.89,929.441 1049.75,922.696 1056.61,916.019 1063.47,909.429 1070.33,902.92 1077.19,896.532 1084.05,890.254 1090.91,884.031 1097.77,877.751 1104.62,871.43 1111.48,865.149 1118.34,858.883 1125.2,852.605 1132.06,846.302 1138.92,840.038 1145.78,833.845 1152.64,827.724 1159.5,821.674 1166.36,815.622 1173.21,809.564 1180.07,803.562 1186.93,797.571 1193.79,791.62 1200.65,785.694 1207.51,779.814 1214.37,774.053 1221.23,768.317 1228.09,762.515 1234.95,756.744 1241.8,751.065 1248.66,745.453 1255.52,739.913 1262.38,734.512 1269.24,729.205 1276.1,724.017 1282.96,719.02 1289.82,714.227 1296.68,709.624 1303.54,705.246 1310.39,701.035 1317.25,696.96 1324.11,693.064 1330.97,689.331 1337.83,685.786 1344.69,682.439 1351.55,679.244 1358.41,676.217 1365.27,673.39 1372.13,670.74 1378.98,668.361 1385.84,666.219 1392.7,664.225 1399.56,662.458 1406.42,660.967 1413.28,659.703 1420.14,658.652 1427,657.811 1433.86,657.236 1440.72,656.942 1447.57,656.916 1454.43,657.179 1461.29,657.657 1468.15,658.381 1475.01,659.337 1481.87,660.47 1488.73,661.822 1495.59,663.362 1502.45,665.012 1509.31,666.809 1516.16,668.8 1523.02,670.985 1529.88,673.451 1536.74,676.181 1543.6,679.081 1550.46,682.198 1557.32,685.527 1564.18,689.004 1571.04,692.616 1577.9,696.426 1584.75,700.44 1591.61,704.63 1598.47,709.001 1605.33,713.539 1612.19,718.238 1619.05,723.058 1625.91,727.966 1632.77,732.919 1639.63,737.863 1646.49,742.798 1653.34,747.79 1660.2,752.888 1667.06,758.078 1673.92,763.346 1680.78,768.562 1687.64,773.805 1694.5,779.11 1701.36,784.403 1708.22,789.693 1715.08,795.015 1721.93,800.353 1728.79,805.781 1735.65,811.232 1742.51,816.635 1749.37,822.018 1756.23,827.355 1763.09,832.599 1769.95,837.781 1776.81,842.968 1783.67,848.126 1790.52,853.155 1797.38,858.016 1804.24,862.733 1811.1,867.35 1817.96,871.947 1824.82,876.565 1831.68,881.13 1838.54,885.624 1845.4,890.07 1852.26,894.497 1859.11,898.879 1865.97,903.127 1872.83,907.204 1879.69,911.206 1886.55,915.146 1893.41,918.99 1900.27,922.731 1907.13,926.409 1913.99,929.999 1920.85,933.507 1927.7,936.935 1934.56,940.287 1941.42,943.631 1948.28,946.986 1955.14,950.326 1962,953.6 1968.86,956.781 1975.72,959.867 1982.58,962.835 1989.44,965.684 1996.29,968.418 2003.15,971.029 2010.01,973.515 2016.87,975.868 2023.73,978.096 2030.59,980.199 2037.45,982.203 2044.31,984.121 2051.17,985.958 2058.02,987.71 2064.88,989.4 2071.74,991.064 2078.6,992.717 2085.46,994.363 2092.32,996.005 2099.18,997.649 2106.04,999.308 2112.9,1001 2119.76,1002.75 2126.61,1004.61 2133.47,1006.55 2140.33,1008.56 2147.19,1010.63 2154.05,1012.77 2160.91,1015.1 2167.77,1017.58 2174.63,1020.23 2181.49,1023.13 2188.35,1026.25 2195.2,1029.71 2202.06,1033.42 2208.92,1037.49 2215.78,1042.03 2222.64,1046.73 2229.5,1051.08 2236.36,1055.24 2243.22,1059.03 2250.08,1063.15 2256.94,1067.92 2263.79,1072.72 2270.65,1077.62 2277.51,1082.43 2284.37,1086.88 2291.23,1090.56 "/>
<polyline clip-path="url(#clip112)" style="stroke:#e26f46; stroke-linecap:round; stroke-linejoin:round; stroke-width:4; stroke-opacity:1; fill:none" points="240.392,87.9763 247.251,113.766 254.11,139.329 260.969,165.044 267.828,191.045 274.687,217.155 281.546,242.889 288.405,267.863 295.264,292.351 302.123,316.408 308.982,340.409 315.841,364.482 322.7,388.074 329.559,411.073 336.418,433.516 343.277,455.406 350.136,476.714 356.995,497.386 363.854,517.332 370.713,536.766 377.572,555.674 384.431,574.122 391.29,592.122 398.149,609.68 405.008,626.739 411.867,643.355 418.726,659.576 425.585,675.396 432.444,690.821 439.303,705.896 446.162,720.647 453.021,735.096 459.88,749.265 466.739,763.172 473.598,776.814 480.457,790.182 487.316,803.295 494.175,816.182 501.034,828.874 507.893,841.377 514.752,853.684 521.611,865.854 528.47,877.908 535.328,889.839 542.188,901.694 549.046,913.487 555.905,925.19 562.764,936.817 569.623,948.377 576.482,959.917 583.341,971.479 590.2,983.021 597.059,994.58 603.918,1006.1 610.777,1017.48 617.636,1028.63 624.495,1039.59 631.354,1050.39 638.213,1061.01 645.072,1071.51 651.931,1081.87 658.79,1092.08 665.649,1102.12 672.508,1111.96 679.367,1121.61 686.226,1131.09 693.085,1140.38 699.944,1149.49 706.803,1158.48 713.662,1167.3 720.521,1175.94 727.38,1184.4 734.239,1192.67 741.098,1200.8 747.957,1208.76 754.816,1216.54 761.675,1224.16 768.534,1231.65 775.393,1239.04 782.252,1246.27 789.111,1253.27 795.97,1260.1 802.829,1266.85 809.688,1273.55 816.547,1280.15 823.406,1286.56 830.265,1292.8 837.124,1298.88 843.983,1304.77 850.842,1310.49 857.701,1316.01 864.56,1321.31 871.419,1326.39 878.278,1331.24 885.137,1335.84 891.996,1340.19 898.855,1344.27 905.714,1348.09 912.573,1351.64 919.432,1354.85 926.291,1357.73 933.15,1360.31 940.009,1362.55 946.868,1364.47 953.727,1366 960.586,1367.18 967.445,1368.04 974.304,1368.54 981.163,1368.66 988.022,1368.43 994.881,1367.85 1001.74,1366.89 1008.6,1365.53 1015.46,1363.84 1022.32,1361.81 1029.18,1359.45 1036.04,1356.83 1042.89,1353.89 1049.75,1350.59 1056.61,1346.97 1063.47,1343.03 1070.33,1338.86 1077.19,1334.45 1084.05,1329.72 1090.91,1324.69 1097.77,1319.37 1104.62,1313.81 1111.48,1308.04 1118.34,1302.02 1125.2,1295.78 1132.06,1289.36 1138.92,1282.81 1145.78,1276.13 1152.64,1269.29 1159.5,1262.3 1166.36,1255.16 1173.21,1247.9 1180.07,1240.57 1186.93,1233.18 1193.79,1225.74 1200.65,1218.3 1207.51,1210.91 1214.37,1203.49 1221.23,1195.99 1228.09,1188.45 1234.95,1181.01 1241.8,1173.57 1248.66,1166.13 1255.52,1158.73 1262.38,1151.36 1269.24,1144.04 1276.1,1136.79 1282.96,1129.66 1289.82,1122.65 1296.68,1115.73 1303.54,1108.85 1310.39,1102.07 1317.25,1095.37 1324.11,1088.77 1330.97,1082.29 1337.83,1075.96 1344.69,1069.74 1351.55,1063.66 1358.41,1057.73 1365.27,1051.85 1372.13,1046.05 1378.98,1040.37 1385.84,1034.75 1392.7,1029.21 1399.56,1023.82 1406.42,1018.55 1413.28,1013.4 1420.14,1008.37 1427,1003.43 1433.86,998.573 1440.72,993.803 1447.57,989.175 1454.43,984.664 1461.29,980.171 1468.15,975.726 1475.01,971.444 1481.87,967.289 1488.73,963.215 1495.59,959.191 1502.45,955.172 1509.31,951.231 1516.16,947.393 1523.02,943.602 1529.88,939.813 1536.74,935.997 1543.6,932.165 1550.46,928.356 1557.32,924.569 1564.18,920.765 1571.04,916.915 1577.9,913.028 1584.75,909.12 1591.61,905.237 1598.47,901.366 1605.33,897.49 1612.19,893.632 1619.05,889.758 1625.91,885.822 1632.77,881.809 1639.63,877.773 1646.49,873.732 1653.34,869.629 1660.2,865.497 1667.06,861.33 1673.92,857.132 1680.78,852.933 1687.64,848.749 1694.5,844.64 1701.36,840.537 1708.22,836.437 1715.08,832.404 1721.93,828.396 1728.79,824.445 1735.65,820.48 1742.51,816.454 1749.37,812.368 1756.23,808.281 1763.09,804.248 1769.95,800.285 1776.81,796.373 1783.67,792.454 1790.52,788.524 1797.38,784.598 1804.24,780.704 1811.1,776.873 1817.96,773.154 1824.82,769.514 1831.68,765.967 1838.54,762.606 1845.4,759.393 1852.26,756.25 1859.11,753.162 1865.97,750.151 1872.83,747.259 1879.69,744.5 1886.55,741.841 1893.41,739.309 1900.27,736.834 1907.13,734.413 1913.99,732.101 1920.85,729.936 1927.7,727.894 1934.56,725.996 1941.42,724.275 1948.28,722.675 1955.14,721.147 1962,719.719 1968.86,718.42 1975.72,717.226 1982.58,716.157 1989.44,715.175 1996.29,714.287 2003.15,713.492 2010.01,712.761 2016.87,712.12 2023.73,711.557 2030.59,711.076 2037.45,710.674 2044.31,710.341 2051.17,710.058 2058.02,709.825 2064.88,709.649 2071.74,709.522 2078.6,709.458 2085.46,709.461 2092.32,709.522 2099.18,709.638 2106.04,709.812 2112.9,710.008 2119.76,710.234 2126.61,710.492 2133.47,710.78 2140.33,711.122 2147.19,711.535 2154.05,712.007 2160.91,712.529 2167.77,713.205 2174.63,714.056 2181.49,714.865 2188.35,715.576 2195.2,716.447 2202.06,717.597 2208.92,719.037 2215.78,720.622 2222.64,722.094 2229.5,723.57 2236.36,725.242 2243.22,727.15 2250.08,729.339 2256.94,732.129 2263.79,735.257 2270.65,738.443 2277.51,742.212 2284.37,746.442 2291.23,750.399 "/>
<path clip-path="url(#clip110)" d="M2010.47 250.738 L2280.29 250.738 L2280.29 95.2176 L2010.47 95.2176  Z" fill="#ffffff" fill-rule="evenodd" fill-opacity="1"/>
<polyline clip-path="url(#clip110)" style="stroke:#000000; stroke-linecap:round; stroke-linejoin:round; stroke-width:4; stroke-opacity:1; fill:none" points="2010.47,250.738 2280.29,250.738 2280.29,95.2176 2010.47,95.2176 2010.47,250.738 "/>
<polyline clip-path="url(#clip110)" style="stroke:#009af9; stroke-linecap:round; stroke-linejoin:round; stroke-width:4; stroke-opacity:1; fill:none" points="2034.63,147.058 2179.55,147.058 "/>
<path clip-path="url(#clip110)" d="M2217.55 166.745 Q2215.75 171.375 2214.03 172.787 Q2212.32 174.199 2209.45 174.199 L2206.05 174.199 L2206.05 170.634 L2208.55 170.634 Q2210.31 170.634 2211.28 169.8 Q2212.25 168.967 2213.43 165.865 L2214.19 163.921 L2203.71 138.412 L2208.22 138.412 L2216.32 158.689 L2224.43 138.412 L2228.94 138.412 L2217.55 166.745 Z" fill="#000000" fill-rule="nonzero" fill-opacity="1" /><path clip-path="url(#clip110)" d="M2236.23 160.402 L2243.87 160.402 L2243.87 134.037 L2235.56 135.703 L2235.56 131.444 L2243.82 129.778 L2248.5 129.778 L2248.5 160.402 L2256.14 160.402 L2256.14 164.338 L2236.23 164.338 L2236.23 160.402 Z" fill="#000000" fill-rule="nonzero" fill-opacity="1" /><polyline clip-path="url(#clip110)" style="stroke:#e26f46; stroke-linecap:round; stroke-linejoin:round; stroke-width:4; stroke-opacity:1; fill:none" points="2034.63,198.898 2179.55,198.898 "/>
<path clip-path="url(#clip110)" d="M2217.55 218.585 Q2215.75 223.215 2214.03 224.627 Q2212.32 226.039 2209.45 226.039 L2206.05 226.039 L2206.05 222.474 L2208.55 222.474 Q2210.31 222.474 2211.28 221.64 Q2212.25 220.807 2213.43 217.705 L2214.19 215.761 L2203.71 190.252 L2208.22 190.252 L2216.32 210.529 L2224.43 190.252 L2228.94 190.252 L2217.55 218.585 Z" fill="#000000" fill-rule="nonzero" fill-opacity="1" /><path clip-path="url(#clip110)" d="M2239.45 212.242 L2255.77 212.242 L2255.77 216.178 L2233.82 216.178 L2233.82 212.242 Q2236.49 209.488 2241.07 204.858 Q2245.68 200.205 2246.86 198.863 Q2249.1 196.34 2249.98 194.604 Q2250.88 192.844 2250.88 191.155 Q2250.88 188.4 2248.94 186.664 Q2247.02 184.928 2243.92 184.928 Q2241.72 184.928 2239.26 185.692 Q2236.83 186.455 2234.06 188.006 L2234.06 183.284 Q2236.88 182.15 2239.33 181.571 Q2241.79 180.993 2243.82 180.993 Q2249.19 180.993 2252.39 183.678 Q2255.58 186.363 2255.58 190.854 Q2255.58 192.983 2254.77 194.905 Q2253.99 196.803 2251.88 199.395 Q2251.3 200.067 2248.2 203.284 Q2245.1 206.479 2239.45 212.242 Z" fill="#000000" fill-rule="nonzero" fill-opacity="1" /></svg>
