<?xml version="1.0" encoding="utf-8"?>
<svg xmlns="http://www.w3.org/2000/svg" xmlns:xlink="http://www.w3.org/1999/xlink" width="600" height="400" viewBox="0 0 2400 1600">
<defs>
  <clipPath id="clip820">
    <rect x="0" y="0" width="2400" height="1600"/>
  </clipPath>
</defs>
<path clip-path="url(#clip820)" d="M0 1600 L2400 1600 L2400 0 L0 0  Z" fill="#ffffff" fill-rule="evenodd" fill-opacity="1"/>
<defs>
  <clipPath id="clip821">
    <rect x="480" y="0" width="1681" height="1600"/>
  </clipPath>
</defs>
<path clip-path="url(#clip820)" d="M257.204 1423.18 L2352.76 1423.18 L2352.76 47.2441 L257.204 47.2441  Z" fill="#ffffff" fill-rule="evenodd" fill-opacity="1"/>
<defs>
  <clipPath id="clip822">
    <rect x="257" y="47" width="2097" height="1377"/>
  </clipPath>
</defs>
<polyline clip-path="url(#clip822)" style="stroke:#000000; stroke-linecap:round; stroke-linejoin:round; stroke-width:2; stroke-opacity:0.1; fill:none" points="323.885,1423.18 323.885,47.2441 "/>
<polyline clip-path="url(#clip822)" style="stroke:#000000; stroke-linecap:round; stroke-linejoin:round; stroke-width:2; stroke-opacity:0.1; fill:none" points="812.895,1423.18 812.895,47.2441 "/>
<polyline clip-path="url(#clip822)" style="stroke:#000000; stroke-linecap:round; stroke-linejoin:round; stroke-width:2; stroke-opacity:0.1; fill:none" points="1301.91,1423.18 1301.91,47.2441 "/>
<polyline clip-path="url(#clip822)" style="stroke:#000000; stroke-linecap:round; stroke-linejoin:round; stroke-width:2; stroke-opacity:0.1; fill:none" points="1790.92,1423.18 1790.92,47.2441 "/>
<polyline clip-path="url(#clip822)" style="stroke:#000000; stroke-linecap:round; stroke-linejoin:round; stroke-width:2; stroke-opacity:0.1; fill:none" points="2279.93,1423.18 2279.93,47.2441 "/>
<polyline clip-path="url(#clip822)" style="stroke:#000000; stroke-linecap:round; stroke-linejoin:round; stroke-width:2; stroke-opacity:0.1; fill:none" points="257.204,1379.64 2352.76,1379.64 "/>
<polyline clip-path="url(#clip822)" style="stroke:#000000; stroke-linecap:round; stroke-linejoin:round; stroke-width:2; stroke-opacity:0.1; fill:none" points="257.204,1057.47 2352.76,1057.47 "/>
<polyline clip-path="url(#clip822)" style="stroke:#000000; stroke-linecap:round; stroke-linejoin:round; stroke-width:2; stroke-opacity:0.1; fill:none" points="257.204,735.303 2352.76,735.303 "/>
<polyline clip-path="url(#clip822)" style="stroke:#000000; stroke-linecap:round; stroke-linejoin:round; stroke-width:2; stroke-opacity:0.1; fill:none" points="257.204,413.135 2352.76,413.135 "/>
<polyline clip-path="url(#clip822)" style="stroke:#000000; stroke-linecap:round; stroke-linejoin:round; stroke-width:2; stroke-opacity:0.1; fill:none" points="257.204,90.9678 2352.76,90.9678 "/>
<polyline clip-path="url(#clip820)" style="stroke:#000000; stroke-linecap:round; stroke-linejoin:round; stroke-width:4; stroke-opacity:1; fill:none" points="257.204,1423.18 2352.76,1423.18 "/>
<polyline clip-path="url(#clip820)" style="stroke:#000000; stroke-linecap:round; stroke-linejoin:round; stroke-width:4; stroke-opacity:1; fill:none" points="323.885,1423.18 323.885,1404.28 "/>
<polyline clip-path="url(#clip820)" style="stroke:#000000; stroke-linecap:round; stroke-linejoin:round; stroke-width:4; stroke-opacity:1; fill:none" points="812.895,1423.18 812.895,1404.28 "/>
<polyline clip-path="url(#clip820)" style="stroke:#000000; stroke-linecap:round; stroke-linejoin:round; stroke-width:4; stroke-opacity:1; fill:none" points="1301.91,1423.18 1301.91,1404.28 "/>
<polyline clip-path="url(#clip820)" style="stroke:#000000; stroke-linecap:round; stroke-linejoin:round; stroke-width:4; stroke-opacity:1; fill:none" points="1790.92,1423.18 1790.92,1404.28 "/>
<polyline clip-path="url(#clip820)" style="stroke:#000000; stroke-linecap:round; stroke-linejoin:round; stroke-width:4; stroke-opacity:1; fill:none" points="2279.93,1423.18 2279.93,1404.28 "/>
<path clip-path="url(#clip820)" d="M270.413 1468.75 L300.089 1468.75 L300.089 1472.69 L270.413 1472.69 L270.413 1468.75 Z" fill="#000000" fill-rule="nonzero" fill-opacity="1" /><path clip-path="url(#clip820)" d="M310.992 1481.64 L318.63 1481.64 L318.63 1455.28 L310.32 1456.95 L310.32 1452.69 L318.584 1451.02 L323.26 1451.02 L323.26 1481.64 L330.899 1481.64 L330.899 1485.58 L310.992 1485.58 L310.992 1481.64 Z" fill="#000000" fill-rule="nonzero" fill-opacity="1" /><path clip-path="url(#clip820)" d="M340.343 1479.7 L345.228 1479.7 L345.228 1485.58 L340.343 1485.58 L340.343 1479.7 Z" fill="#000000" fill-rule="nonzero" fill-opacity="1" /><path clip-path="url(#clip820)" d="M365.413 1454.1 Q361.802 1454.1 359.973 1457.66 Q358.167 1461.2 358.167 1468.33 Q358.167 1475.44 359.973 1479.01 Q361.802 1482.55 365.413 1482.55 Q369.047 1482.55 370.852 1479.01 Q372.681 1475.44 372.681 1468.33 Q372.681 1461.2 370.852 1457.66 Q369.047 1454.1 365.413 1454.1 M365.413 1450.39 Q371.223 1450.39 374.278 1455 Q377.357 1459.58 377.357 1468.33 Q377.357 1477.06 374.278 1481.67 Q371.223 1486.25 365.413 1486.25 Q359.602 1486.25 356.524 1481.67 Q353.468 1477.06 353.468 1468.33 Q353.468 1459.58 356.524 1455 Q359.602 1450.39 365.413 1450.39 Z" fill="#000000" fill-rule="nonzero" fill-opacity="1" /><path clip-path="url(#clip820)" d="M759.921 1468.75 L789.597 1468.75 L789.597 1472.69 L759.921 1472.69 L759.921 1468.75 Z" fill="#000000" fill-rule="nonzero" fill-opacity="1" /><path clip-path="url(#clip820)" d="M809.689 1454.1 Q806.078 1454.1 804.25 1457.66 Q802.444 1461.2 802.444 1468.33 Q802.444 1475.44 804.25 1479.01 Q806.078 1482.55 809.689 1482.55 Q813.324 1482.55 815.129 1479.01 Q816.958 1475.44 816.958 1468.33 Q816.958 1461.2 815.129 1457.66 Q813.324 1454.1 809.689 1454.1 M809.689 1450.39 Q815.5 1450.39 818.555 1455 Q821.634 1459.58 821.634 1468.33 Q821.634 1477.06 818.555 1481.67 Q815.5 1486.25 809.689 1486.25 Q803.879 1486.25 800.801 1481.67 Q797.745 1477.06 797.745 1468.33 Q797.745 1459.58 800.801 1455 Q803.879 1450.39 809.689 1450.39 Z" fill="#000000" fill-rule="nonzero" fill-opacity="1" /><path clip-path="url(#clip820)" d="M829.851 1479.7 L834.736 1479.7 L834.736 1485.58 L829.851 1485.58 L829.851 1479.7 Z" fill="#000000" fill-rule="nonzero" fill-opacity="1" /><path clip-path="url(#clip820)" d="M844.967 1451.02 L863.323 1451.02 L863.323 1454.96 L849.249 1454.96 L849.249 1463.43 Q850.268 1463.08 851.286 1462.92 Q852.305 1462.73 853.323 1462.73 Q859.11 1462.73 862.49 1465.9 Q865.87 1469.08 865.87 1474.49 Q865.87 1480.07 862.397 1483.17 Q858.925 1486.25 852.606 1486.25 Q850.43 1486.25 848.161 1485.88 Q845.916 1485.51 843.509 1484.77 L843.509 1480.07 Q845.592 1481.2 847.814 1481.76 Q850.036 1482.32 852.513 1482.32 Q856.518 1482.32 858.856 1480.21 Q861.194 1478.1 861.194 1474.49 Q861.194 1470.88 858.856 1468.77 Q856.518 1466.67 852.513 1466.67 Q850.638 1466.67 848.763 1467.08 Q846.911 1467.5 844.967 1468.38 L844.967 1451.02 Z" fill="#000000" fill-rule="nonzero" fill-opacity="1" /><path clip-path="url(#clip820)" d="M1279.29 1454.1 Q1275.68 1454.1 1273.85 1457.66 Q1272.04 1461.2 1272.04 1468.33 Q1272.04 1475.44 1273.85 1479.01 Q1275.68 1482.55 1279.29 1482.55 Q1282.92 1482.55 1284.73 1479.01 Q1286.56 1475.44 1286.56 1468.33 Q1286.56 1461.2 1284.73 1457.66 Q1282.92 1454.1 1279.29 1454.1 M1279.29 1450.39 Q1285.1 1450.39 1288.16 1455 Q1291.23 1459.58 1291.23 1468.33 Q1291.23 1477.06 1288.16 1481.67 Q1285.1 1486.25 1279.29 1486.25 Q1273.48 1486.25 1270.4 1481.67 Q1267.35 1477.06 1267.35 1468.33 Q1267.35 1459.58 1270.4 1455 Q1273.48 1450.39 1279.29 1450.39 Z" fill="#000000" fill-rule="nonzero" fill-opacity="1" /><path clip-path="url(#clip820)" d="M1299.45 1479.7 L1304.34 1479.7 L1304.34 1485.58 L1299.45 1485.58 L1299.45 1479.7 Z" fill="#000000" fill-rule="nonzero" fill-opacity="1" /><path clip-path="url(#clip820)" d="M1324.52 1454.1 Q1320.91 1454.1 1319.08 1457.66 Q1317.28 1461.2 1317.28 1468.33 Q1317.28 1475.44 1319.08 1479.01 Q1320.91 1482.55 1324.52 1482.55 Q1328.16 1482.55 1329.96 1479.01 Q1331.79 1475.44 1331.79 1468.33 Q1331.79 1461.2 1329.96 1457.66 Q1328.16 1454.1 1324.52 1454.1 M1324.52 1450.39 Q1330.33 1450.39 1333.39 1455 Q1336.47 1459.58 1336.47 1468.33 Q1336.47 1477.06 1333.39 1481.67 Q1330.33 1486.25 1324.52 1486.25 Q1318.71 1486.25 1315.63 1481.67 Q1312.58 1477.06 1312.58 1468.33 Q1312.58 1459.58 1315.63 1455 Q1318.71 1450.39 1324.52 1450.39 Z" fill="#000000" fill-rule="nonzero" fill-opacity="1" /><path clip-path="url(#clip820)" d="M1768.8 1454.1 Q1765.19 1454.1 1763.36 1457.66 Q1761.55 1461.2 1761.55 1468.33 Q1761.55 1475.44 1763.36 1479.01 Q1765.19 1482.55 1768.8 1482.55 Q1772.43 1482.55 1774.24 1479.01 Q1776.07 1475.44 1776.07 1468.33 Q1776.07 1461.2 1774.24 1457.66 Q1772.43 1454.1 1768.8 1454.1 M1768.8 1450.39 Q1774.61 1450.39 1777.66 1455 Q1780.74 1459.58 1780.74 1468.33 Q1780.74 1477.06 1777.66 1481.67 Q1774.61 1486.25 1768.8 1486.25 Q1762.99 1486.25 1759.91 1481.67 Q1756.85 1477.06 1756.85 1468.33 Q1756.85 1459.58 1759.91 1455 Q1762.99 1450.39 1768.8 1450.39 Z" fill="#000000" fill-rule="nonzero" fill-opacity="1" /><path clip-path="url(#clip820)" d="M1788.96 1479.7 L1793.84 1479.7 L1793.84 1485.58 L1788.96 1485.58 L1788.96 1479.7 Z" fill="#000000" fill-rule="nonzero" fill-opacity="1" /><path clip-path="url(#clip820)" d="M1804.08 1451.02 L1822.43 1451.02 L1822.43 1454.96 L1808.36 1454.96 L1808.36 1463.43 Q1809.38 1463.08 1810.4 1462.92 Q1811.41 1462.73 1812.43 1462.73 Q1818.22 1462.73 1821.6 1465.9 Q1824.98 1469.08 1824.98 1474.49 Q1824.98 1480.07 1821.51 1483.17 Q1818.03 1486.25 1811.71 1486.25 Q1809.54 1486.25 1807.27 1485.88 Q1805.02 1485.51 1802.62 1484.77 L1802.62 1480.07 Q1804.7 1481.2 1806.92 1481.76 Q1809.15 1482.32 1811.62 1482.32 Q1815.63 1482.32 1817.96 1480.21 Q1820.3 1478.1 1820.3 1474.49 Q1820.3 1470.88 1817.96 1468.77 Q1815.63 1466.67 1811.62 1466.67 Q1809.75 1466.67 1807.87 1467.08 Q1806.02 1467.5 1804.08 1468.38 L1804.08 1451.02 Z" fill="#000000" fill-rule="nonzero" fill-opacity="1" /><path clip-path="url(#clip820)" d="M2247.08 1481.64 L2254.72 1481.64 L2254.72 1455.28 L2246.41 1456.95 L2246.41 1452.69 L2254.67 1451.02 L2259.35 1451.02 L2259.35 1481.64 L2266.99 1481.64 L2266.99 1485.58 L2247.08 1485.58 L2247.08 1481.64 Z" fill="#000000" fill-rule="nonzero" fill-opacity="1" /><path clip-path="url(#clip820)" d="M2276.43 1479.7 L2281.32 1479.7 L2281.32 1485.58 L2276.43 1485.58 L2276.43 1479.7 Z" fill="#000000" fill-rule="nonzero" fill-opacity="1" /><path clip-path="url(#clip820)" d="M2301.5 1454.1 Q2297.89 1454.1 2296.06 1457.66 Q2294.26 1461.2 2294.26 1468.33 Q2294.26 1475.44 2296.06 1479.01 Q2297.89 1482.55 2301.5 1482.55 Q2305.13 1482.55 2306.94 1479.01 Q2308.77 1475.44 2308.77 1468.33 Q2308.77 1461.2 2306.94 1457.66 Q2305.13 1454.1 2301.5 1454.1 M2301.5 1450.39 Q2307.31 1450.39 2310.37 1455 Q2313.44 1459.58 2313.44 1468.33 Q2313.44 1477.06 2310.37 1481.67 Q2307.31 1486.25 2301.5 1486.25 Q2295.69 1486.25 2292.61 1481.67 Q2289.56 1477.06 2289.56 1468.33 Q2289.56 1459.58 2292.61 1455 Q2295.69 1450.39 2301.5 1450.39 Z" fill="#000000" fill-rule="nonzero" fill-opacity="1" /><path clip-path="url(#clip820)" d="M1134.03 1525.81 L1134.03 1543.66 L1142.11 1543.66 Q1146.6 1543.66 1149.05 1541.34 Q1151.5 1539.02 1151.5 1534.72 Q1151.5 1530.45 1149.05 1528.13 Q1146.6 1525.81 1142.11 1525.81 L1134.03 1525.81 M1127.6 1520.52 L1142.11 1520.52 Q1150.1 1520.52 1154.18 1524.15 Q1158.28 1527.75 1158.28 1534.72 Q1158.28 1541.75 1154.18 1545.35 Q1150.1 1548.95 1142.11 1548.95 L1134.03 1548.95 L1134.03 1568.04 L1127.6 1568.04 L1127.6 1520.52 Z" fill="#000000" fill-rule="nonzero" fill-opacity="1" /><path clip-path="url(#clip820)" d="M1178.14 1536.5 Q1173.43 1536.5 1170.7 1540.19 Q1167.96 1543.85 1167.96 1550.25 Q1167.96 1556.65 1170.66 1560.34 Q1173.4 1564 1178.14 1564 Q1182.82 1564 1185.56 1560.31 Q1188.3 1556.62 1188.3 1550.25 Q1188.3 1543.92 1185.56 1540.23 Q1182.82 1536.5 1178.14 1536.5 M1178.14 1531.54 Q1185.78 1531.54 1190.14 1536.5 Q1194.5 1541.47 1194.5 1550.25 Q1194.5 1559 1190.14 1564 Q1185.78 1568.97 1178.14 1568.97 Q1170.47 1568.97 1166.11 1564 Q1161.78 1559 1161.78 1550.25 Q1161.78 1541.47 1166.11 1536.5 Q1170.47 1531.54 1178.14 1531.54 Z" fill="#000000" fill-rule="nonzero" fill-opacity="1" /><path clip-path="url(#clip820)" d="M1226.94 1533.45 L1226.94 1538.98 Q1224.45 1537.71 1221.78 1537.07 Q1219.11 1536.44 1216.24 1536.44 Q1211.88 1536.44 1209.69 1537.77 Q1207.52 1539.11 1207.52 1541.79 Q1207.52 1543.82 1209.08 1545 Q1210.64 1546.15 1215.35 1547.2 L1217.36 1547.64 Q1223.59 1548.98 1226.2 1551.43 Q1228.85 1553.85 1228.85 1558.21 Q1228.85 1563.17 1224.9 1566.07 Q1220.98 1568.97 1214.11 1568.97 Q1211.24 1568.97 1208.13 1568.39 Q1205.04 1567.85 1201.6 1566.74 L1201.6 1560.69 Q1204.85 1562.38 1208 1563.24 Q1211.15 1564.07 1214.24 1564.07 Q1218.37 1564.07 1220.6 1562.66 Q1222.83 1561.23 1222.83 1558.65 Q1222.83 1556.27 1221.21 1554.99 Q1219.62 1553.72 1214.17 1552.54 L1212.14 1552.07 Q1206.69 1550.92 1204.27 1548.56 Q1201.86 1546.18 1201.86 1542.04 Q1201.86 1537.01 1205.42 1534.27 Q1208.99 1531.54 1215.54 1531.54 Q1218.79 1531.54 1221.65 1532.01 Q1224.52 1532.49 1226.94 1533.45 Z" fill="#000000" fill-rule="nonzero" fill-opacity="1" /><path clip-path="url(#clip820)" d="M1238.17 1532.4 L1244.03 1532.4 L1244.03 1568.04 L1238.17 1568.04 L1238.17 1532.4 M1238.17 1518.52 L1244.03 1518.52 L1244.03 1525.93 L1238.17 1525.93 L1238.17 1518.52 Z" fill="#000000" fill-rule="nonzero" fill-opacity="1" /><path clip-path="url(#clip820)" d="M1262.08 1522.27 L1262.08 1532.4 L1274.14 1532.4 L1274.14 1536.95 L1262.08 1536.95 L1262.08 1556.3 Q1262.08 1560.66 1263.25 1561.9 Q1264.46 1563.14 1268.12 1563.14 L1274.14 1563.14 L1274.14 1568.04 L1268.12 1568.04 Q1261.34 1568.04 1258.76 1565.53 Q1256.19 1562.98 1256.19 1556.3 L1256.19 1536.95 L1251.89 1536.95 L1251.89 1532.4 L1256.19 1532.4 L1256.19 1522.27 L1262.08 1522.27 Z" fill="#000000" fill-rule="nonzero" fill-opacity="1" /><path clip-path="url(#clip820)" d="M1281.84 1532.4 L1287.7 1532.4 L1287.7 1568.04 L1281.84 1568.04 L1281.84 1532.4 M1281.84 1518.52 L1287.7 1518.52 L1287.7 1525.93 L1281.84 1525.93 L1281.84 1518.52 Z" fill="#000000" fill-rule="nonzero" fill-opacity="1" /><path clip-path="url(#clip820)" d="M1313.76 1536.5 Q1309.05 1536.5 1306.32 1540.19 Q1303.58 1543.85 1303.58 1550.25 Q1303.58 1556.65 1306.28 1560.34 Q1309.02 1564 1313.76 1564 Q1318.44 1564 1321.18 1560.31 Q1323.92 1556.62 1323.92 1550.25 Q1323.92 1543.92 1321.18 1540.23 Q1318.44 1536.5 1313.76 1536.5 M1313.76 1531.54 Q1321.4 1531.54 1325.76 1536.5 Q1330.12 1541.47 1330.12 1550.25 Q1330.12 1559 1325.76 1564 Q1321.4 1568.97 1313.76 1568.97 Q1306.09 1568.97 1301.73 1564 Q1297.4 1559 1297.4 1550.25 Q1297.4 1541.47 1301.73 1536.5 Q1306.09 1531.54 1313.76 1531.54 Z" fill="#000000" fill-rule="nonzero" fill-opacity="1" /><path clip-path="url(#clip820)" d="M1369.46 1546.53 L1369.46 1568.04 L1363.61 1568.04 L1363.61 1546.72 Q1363.61 1541.66 1361.63 1539.14 Q1359.66 1536.63 1355.71 1536.63 Q1350.97 1536.63 1348.23 1539.65 Q1345.5 1542.68 1345.5 1547.9 L1345.5 1568.04 L1339.61 1568.04 L1339.61 1532.4 L1345.5 1532.4 L1345.5 1537.93 Q1347.6 1534.72 1350.43 1533.13 Q1353.3 1531.54 1357.02 1531.54 Q1363.16 1531.54 1366.31 1535.36 Q1369.46 1539.14 1369.46 1546.53 Z" fill="#000000" fill-rule="nonzero" fill-opacity="1" /><path clip-path="url(#clip820)" d="M1415.93 1518.58 Q1411.67 1525.9 1409.6 1533.06 Q1407.53 1540.23 1407.53 1547.58 Q1407.53 1554.93 1409.6 1562.16 Q1411.7 1569.35 1415.93 1576.64 L1410.84 1576.64 Q1406.07 1569.16 1403.68 1561.93 Q1401.32 1554.71 1401.32 1547.58 Q1401.32 1540.48 1403.68 1533.29 Q1406.04 1526.09 1410.84 1518.58 L1415.93 1518.58 Z" fill="#000000" fill-rule="nonzero" fill-opacity="1" /><path clip-path="url(#clip820)" d="M1430.8 1550.25 Q1430.8 1556.71 1433.44 1560.4 Q1436.11 1564.07 1440.76 1564.07 Q1445.41 1564.07 1448.08 1560.4 Q1450.75 1556.71 1450.75 1550.25 Q1450.75 1543.79 1448.08 1540.13 Q1445.41 1536.44 1440.76 1536.44 Q1436.11 1536.44 1433.44 1540.13 Q1430.8 1543.79 1430.8 1550.25 M1450.75 1562.7 Q1448.91 1565.88 1446.08 1567.44 Q1443.27 1568.97 1439.33 1568.97 Q1432.87 1568.97 1428.79 1563.81 Q1424.75 1558.65 1424.75 1550.25 Q1424.75 1541.85 1428.79 1536.69 Q1432.87 1531.54 1439.33 1531.54 Q1443.27 1531.54 1446.08 1533.1 Q1448.91 1534.62 1450.75 1537.81 L1450.75 1532.4 L1456.61 1532.4 L1456.61 1581.6 L1450.75 1581.6 L1450.75 1562.7 Z" fill="#000000" fill-rule="nonzero" fill-opacity="1" /><path clip-path="url(#clip820)" d="M1467.75 1518.58 L1472.84 1518.58 Q1477.62 1526.09 1479.97 1533.29 Q1482.36 1540.48 1482.36 1547.58 Q1482.36 1554.71 1479.97 1561.93 Q1477.62 1569.16 1472.84 1576.64 L1467.75 1576.64 Q1471.98 1569.35 1474.05 1562.16 Q1476.15 1554.93 1476.15 1547.58 Q1476.15 1540.23 1474.05 1533.06 Q1471.98 1525.9 1467.75 1518.58 Z" fill="#000000" fill-rule="nonzero" fill-opacity="1" /><polyline clip-path="url(#clip820)" style="stroke:#000000; stroke-linecap:round; stroke-linejoin:round; stroke-width:4; stroke-opacity:1; fill:none" points="257.204,1423.18 257.204,47.2441 "/>
<polyline clip-path="url(#clip820)" style="stroke:#000000; stroke-linecap:round; stroke-linejoin:round; stroke-width:4; stroke-opacity:1; fill:none" points="257.204,1379.64 276.102,1379.64 "/>
<polyline clip-path="url(#clip820)" style="stroke:#000000; stroke-linecap:round; stroke-linejoin:round; stroke-width:4; stroke-opacity:1; fill:none" points="257.204,1057.47 276.102,1057.47 "/>
<polyline clip-path="url(#clip820)" style="stroke:#000000; stroke-linecap:round; stroke-linejoin:round; stroke-width:4; stroke-opacity:1; fill:none" points="257.204,735.303 276.102,735.303 "/>
<polyline clip-path="url(#clip820)" style="stroke:#000000; stroke-linecap:round; stroke-linejoin:round; stroke-width:4; stroke-opacity:1; fill:none" points="257.204,413.135 276.102,413.135 "/>
<polyline clip-path="url(#clip820)" style="stroke:#000000; stroke-linecap:round; stroke-linejoin:round; stroke-width:4; stroke-opacity:1; fill:none" points="257.204,90.9678 276.102,90.9678 "/>
<path clip-path="url(#clip820)" d="M114.26 1380.09 L143.936 1380.09 L143.936 1384.02 L114.26 1384.02 L114.26 1380.09 Z" fill="#000000" fill-rule="nonzero" fill-opacity="1" /><path clip-path="url(#clip820)" d="M154.839 1392.98 L162.477 1392.98 L162.477 1366.62 L154.167 1368.28 L154.167 1364.02 L162.431 1362.36 L167.107 1362.36 L167.107 1392.98 L174.746 1392.98 L174.746 1396.92 L154.839 1396.92 L154.839 1392.98 Z" fill="#000000" fill-rule="nonzero" fill-opacity="1" /><path clip-path="url(#clip820)" d="M184.19 1391.04 L189.075 1391.04 L189.075 1396.92 L184.19 1396.92 L184.19 1391.04 Z" fill="#000000" fill-rule="nonzero" fill-opacity="1" /><path clip-path="url(#clip820)" d="M209.26 1365.44 Q205.649 1365.44 203.82 1369 Q202.014 1372.54 202.014 1379.67 Q202.014 1386.78 203.82 1390.34 Q205.649 1393.89 209.26 1393.89 Q212.894 1393.89 214.699 1390.34 Q216.528 1386.78 216.528 1379.67 Q216.528 1372.54 214.699 1369 Q212.894 1365.44 209.26 1365.44 M209.26 1361.73 Q215.07 1361.73 218.125 1366.34 Q221.204 1370.92 221.204 1379.67 Q221.204 1388.4 218.125 1393.01 Q215.07 1397.59 209.26 1397.59 Q203.449 1397.59 200.371 1393.01 Q197.315 1388.4 197.315 1379.67 Q197.315 1370.92 200.371 1366.34 Q203.449 1361.73 209.26 1361.73 Z" fill="#000000" fill-rule="nonzero" fill-opacity="1" /><path clip-path="url(#clip820)" d="M115.256 1057.92 L144.931 1057.92 L144.931 1061.86 L115.256 1061.86 L115.256 1057.92 Z" fill="#000000" fill-rule="nonzero" fill-opacity="1" /><path clip-path="url(#clip820)" d="M165.024 1043.27 Q161.413 1043.27 159.584 1046.83 Q157.778 1050.38 157.778 1057.51 Q157.778 1064.61 159.584 1068.18 Q161.413 1071.72 165.024 1071.72 Q168.658 1071.72 170.464 1068.18 Q172.292 1064.61 172.292 1057.51 Q172.292 1050.38 170.464 1046.83 Q168.658 1043.27 165.024 1043.27 M165.024 1039.57 Q170.834 1039.57 173.889 1044.17 Q176.968 1048.76 176.968 1057.51 Q176.968 1066.23 173.889 1070.84 Q170.834 1075.42 165.024 1075.42 Q159.214 1075.42 156.135 1070.84 Q153.079 1066.23 153.079 1057.51 Q153.079 1048.76 156.135 1044.17 Q159.214 1039.57 165.024 1039.57 Z" fill="#000000" fill-rule="nonzero" fill-opacity="1" /><path clip-path="url(#clip820)" d="M185.186 1068.87 L190.07 1068.87 L190.07 1074.75 L185.186 1074.75 L185.186 1068.87 Z" fill="#000000" fill-rule="nonzero" fill-opacity="1" /><path clip-path="url(#clip820)" d="M200.301 1040.19 L218.658 1040.19 L218.658 1044.13 L204.584 1044.13 L204.584 1052.6 Q205.602 1052.25 206.621 1052.09 Q207.639 1051.9 208.658 1051.9 Q214.445 1051.9 217.824 1055.07 Q221.204 1058.25 221.204 1063.66 Q221.204 1069.24 217.732 1072.34 Q214.26 1075.42 207.94 1075.42 Q205.764 1075.42 203.496 1075.05 Q201.25 1074.68 198.843 1073.94 L198.843 1069.24 Q200.926 1070.38 203.149 1070.93 Q205.371 1071.49 207.848 1071.49 Q211.852 1071.49 214.19 1069.38 Q216.528 1067.27 216.528 1063.66 Q216.528 1060.05 214.19 1057.95 Q211.852 1055.84 207.848 1055.84 Q205.973 1055.84 204.098 1056.26 Q202.246 1056.67 200.301 1057.55 L200.301 1040.19 Z" fill="#000000" fill-rule="nonzero" fill-opacity="1" /><path clip-path="url(#clip820)" d="M164.028 721.102 Q160.417 721.102 158.589 724.667 Q156.783 728.208 156.783 735.338 Q156.783 742.444 158.589 746.009 Q160.417 749.551 164.028 749.551 Q167.663 749.551 169.468 746.009 Q171.297 742.444 171.297 735.338 Q171.297 728.208 169.468 724.667 Q167.663 721.102 164.028 721.102 M164.028 717.398 Q169.839 717.398 172.894 722.004 Q175.973 726.588 175.973 735.338 Q175.973 744.065 172.894 748.671 Q169.839 753.254 164.028 753.254 Q158.218 753.254 155.14 748.671 Q152.084 744.065 152.084 735.338 Q152.084 726.588 155.14 722.004 Q158.218 717.398 164.028 717.398 Z" fill="#000000" fill-rule="nonzero" fill-opacity="1" /><path clip-path="url(#clip820)" d="M184.19 746.703 L189.075 746.703 L189.075 752.583 L184.19 752.583 L184.19 746.703 Z" fill="#000000" fill-rule="nonzero" fill-opacity="1" /><path clip-path="url(#clip820)" d="M209.26 721.102 Q205.649 721.102 203.82 724.667 Q202.014 728.208 202.014 735.338 Q202.014 742.444 203.82 746.009 Q205.649 749.551 209.26 749.551 Q212.894 749.551 214.699 746.009 Q216.528 742.444 216.528 735.338 Q216.528 728.208 214.699 724.667 Q212.894 721.102 209.26 721.102 M209.26 717.398 Q215.07 717.398 218.125 722.004 Q221.204 726.588 221.204 735.338 Q221.204 744.065 218.125 748.671 Q215.07 753.254 209.26 753.254 Q203.449 753.254 200.371 748.671 Q197.315 744.065 197.315 735.338 Q197.315 726.588 200.371 722.004 Q203.449 717.398 209.26 717.398 Z" fill="#000000" fill-rule="nonzero" fill-opacity="1" /><path clip-path="url(#clip820)" d="M165.024 398.934 Q161.413 398.934 159.584 402.499 Q157.778 406.041 157.778 413.17 Q157.778 420.277 159.584 423.841 Q161.413 427.383 165.024 427.383 Q168.658 427.383 170.464 423.841 Q172.292 420.277 172.292 413.17 Q172.292 406.041 170.464 402.499 Q168.658 398.934 165.024 398.934 M165.024 395.23 Q170.834 395.23 173.889 399.837 Q176.968 404.42 176.968 413.17 Q176.968 421.897 173.889 426.503 Q170.834 431.087 165.024 431.087 Q159.214 431.087 156.135 426.503 Q153.079 421.897 153.079 413.17 Q153.079 404.42 156.135 399.837 Q159.214 395.23 165.024 395.23 Z" fill="#000000" fill-rule="nonzero" fill-opacity="1" /><path clip-path="url(#clip820)" d="M185.186 424.536 L190.07 424.536 L190.07 430.415 L185.186 430.415 L185.186 424.536 Z" fill="#000000" fill-rule="nonzero" fill-opacity="1" /><path clip-path="url(#clip820)" d="M200.301 395.855 L218.658 395.855 L218.658 399.791 L204.584 399.791 L204.584 408.263 Q205.602 407.916 206.621 407.753 Q207.639 407.568 208.658 407.568 Q214.445 407.568 217.824 410.74 Q221.204 413.911 221.204 419.327 Q221.204 424.906 217.732 428.008 Q214.26 431.087 207.94 431.087 Q205.764 431.087 203.496 430.716 Q201.25 430.346 198.843 429.605 L198.843 424.906 Q200.926 426.04 203.149 426.596 Q205.371 427.152 207.848 427.152 Q211.852 427.152 214.19 425.045 Q216.528 422.939 216.528 419.327 Q216.528 415.716 214.19 413.61 Q211.852 411.503 207.848 411.503 Q205.973 411.503 204.098 411.92 Q202.246 412.337 200.301 413.216 L200.301 395.855 Z" fill="#000000" fill-rule="nonzero" fill-opacity="1" /><path clip-path="url(#clip820)" d="M154.839 104.313 L162.477 104.313 L162.477 77.947 L154.167 79.6137 L154.167 75.3544 L162.431 73.6878 L167.107 73.6878 L167.107 104.313 L174.746 104.313 L174.746 108.248 L154.839 108.248 L154.839 104.313 Z" fill="#000000" fill-rule="nonzero" fill-opacity="1" /><path clip-path="url(#clip820)" d="M184.19 102.368 L189.075 102.368 L189.075 108.248 L184.19 108.248 L184.19 102.368 Z" fill="#000000" fill-rule="nonzero" fill-opacity="1" /><path clip-path="url(#clip820)" d="M209.26 76.7664 Q205.649 76.7664 203.82 80.3312 Q202.014 83.8729 202.014 91.0025 Q202.014 98.1089 203.82 101.674 Q205.649 105.215 209.26 105.215 Q212.894 105.215 214.699 101.674 Q216.528 98.1089 216.528 91.0025 Q216.528 83.8729 214.699 80.3312 Q212.894 76.7664 209.26 76.7664 M209.26 73.0628 Q215.07 73.0628 218.125 77.6692 Q221.204 82.2525 221.204 91.0025 Q221.204 99.7293 218.125 104.336 Q215.07 108.919 209.26 108.919 Q203.449 108.919 200.371 104.336 Q197.315 99.7293 197.315 91.0025 Q197.315 82.2525 200.371 77.6692 Q203.449 73.0628 209.26 73.0628 Z" fill="#000000" fill-rule="nonzero" fill-opacity="1" /><path clip-path="url(#clip820)" d="M16.4842 971.396 L16.4842 961.815 L48.8219 949.689 L16.4842 937.498 L16.4842 927.918 L64.0042 927.918 L64.0042 934.188 L22.277 934.188 L54.8694 946.442 L54.8694 952.903 L22.277 965.157 L64.0042 965.157 L64.0042 971.396 L16.4842 971.396 Z" fill="#000000" fill-rule="nonzero" fill-opacity="1" /><path clip-path="url(#clip820)" d="M32.4621 901.596 Q32.4621 906.306 36.1542 909.044 Q39.8145 911.781 46.212 911.781 Q52.6095 911.781 56.3017 909.075 Q59.9619 906.338 59.9619 901.596 Q59.9619 896.917 56.2698 894.18 Q52.5777 891.442 46.212 891.442 Q39.8781 891.442 36.186 894.18 Q32.4621 896.917 32.4621 901.596 M27.4968 901.596 Q27.4968 893.957 32.4621 889.596 Q37.4273 885.236 46.212 885.236 Q54.9649 885.236 59.9619 889.596 Q64.9272 893.957 64.9272 901.596 Q64.9272 909.266 59.9619 913.627 Q54.9649 917.955 46.212 917.955 Q37.4273 917.955 32.4621 913.627 Q27.4968 909.266 27.4968 901.596 Z" fill="#000000" fill-rule="nonzero" fill-opacity="1" /><path clip-path="url(#clip820)" d="M35.1993 847.774 Q31.2526 845.577 29.3747 842.522 Q27.4968 839.466 27.4968 835.329 Q27.4968 829.759 31.4117 826.735 Q35.2948 823.711 42.4881 823.711 L64.0042 823.711 L64.0042 829.599 L42.679 829.599 Q37.5546 829.599 35.072 831.414 Q32.5894 833.228 32.5894 836.952 Q32.5894 841.503 35.6131 844.145 Q38.6368 846.787 43.8567 846.787 L64.0042 846.787 L64.0042 852.675 L42.679 852.675 Q37.5228 852.675 35.072 854.489 Q32.5894 856.304 32.5894 860.091 Q32.5894 864.579 35.6449 867.221 Q38.6686 869.863 43.8567 869.863 L64.0042 869.863 L64.0042 875.751 L28.3562 875.751 L28.3562 869.863 L33.8944 869.863 Q30.616 867.857 29.0564 865.056 Q27.4968 862.256 27.4968 858.404 Q27.4968 854.521 29.4702 851.816 Q31.4436 849.079 35.1993 847.774 Z" fill="#000000" fill-rule="nonzero" fill-opacity="1" /><path clip-path="url(#clip820)" d="M44.7161 781.538 L47.5806 781.538 L47.5806 808.465 Q53.6281 808.083 56.8109 804.837 Q59.9619 801.559 59.9619 795.734 Q59.9619 792.36 59.1344 789.209 Q58.3069 786.026 56.6518 782.907 L62.1899 782.907 Q63.5267 786.058 64.227 789.368 Q64.9272 792.678 64.9272 796.084 Q64.9272 804.614 59.9619 809.611 Q54.9967 814.576 46.5303 814.576 Q37.7774 814.576 32.6531 809.866 Q27.4968 805.123 27.4968 797.103 Q27.4968 789.909 32.1438 785.74 Q36.7589 781.538 44.7161 781.538 M42.9973 787.395 Q38.1912 787.459 35.3266 790.1 Q32.4621 792.71 32.4621 797.039 Q32.4621 801.94 35.2312 804.901 Q38.0002 807.829 43.0292 808.274 L42.9973 787.395 Z" fill="#000000" fill-rule="nonzero" fill-opacity="1" /><path clip-path="url(#clip820)" d="M42.4881 742.294 L64.0042 742.294 L64.0042 748.15 L42.679 748.15 Q37.6183 748.15 35.1038 750.124 Q32.5894 752.097 32.5894 756.044 Q32.5894 760.786 35.6131 763.523 Q38.6368 766.261 43.8567 766.261 L64.0042 766.261 L64.0042 772.149 L28.3562 772.149 L28.3562 766.261 L33.8944 766.261 Q30.6797 764.16 29.0883 761.327 Q27.4968 758.463 27.4968 754.739 Q27.4968 748.596 31.3163 745.445 Q35.1038 742.294 42.4881 742.294 Z" fill="#000000" fill-rule="nonzero" fill-opacity="1" /><path clip-path="url(#clip820)" d="M18.2347 724.82 L28.3562 724.82 L28.3562 712.757 L32.9077 712.757 L32.9077 724.82 L52.2594 724.82 Q56.6199 724.82 57.8613 723.642 Q59.1026 722.433 59.1026 718.773 L59.1026 712.757 L64.0042 712.757 L64.0042 718.773 Q64.0042 725.552 61.4897 728.13 Q58.9434 730.708 52.2594 730.708 L32.9077 730.708 L32.9077 735.005 L28.3562 735.005 L28.3562 730.708 L18.2347 730.708 L18.2347 724.82 Z" fill="#000000" fill-rule="nonzero" fill-opacity="1" /><path clip-path="url(#clip820)" d="M49.9359 705.659 L28.3562 705.659 L28.3562 699.803 L49.7131 699.803 Q54.7739 699.803 57.3202 697.829 Q59.8346 695.856 59.8346 691.909 Q59.8346 687.167 56.8109 684.43 Q53.7872 681.66 48.5673 681.66 L28.3562 681.66 L28.3562 675.804 L64.0042 675.804 L64.0042 681.66 L58.5296 681.66 Q61.7762 683.793 63.3676 686.626 Q64.9272 689.427 64.9272 693.151 Q64.9272 699.293 61.1078 702.476 Q57.2883 705.659 49.9359 705.659 M27.4968 690.923 L27.4968 690.923 Z" fill="#000000" fill-rule="nonzero" fill-opacity="1" /><path clip-path="url(#clip820)" d="M35.1993 635.987 Q31.2526 633.79 29.3747 630.735 Q27.4968 627.679 27.4968 623.542 Q27.4968 617.972 31.4117 614.948 Q35.2948 611.924 42.4881 611.924 L64.0042 611.924 L64.0042 617.812 L42.679 617.812 Q37.5546 617.812 35.072 619.627 Q32.5894 621.441 32.5894 625.165 Q32.5894 629.716 35.6131 632.358 Q38.6368 635 43.8567 635 L64.0042 635 L64.0042 640.888 L42.679 640.888 Q37.5228 640.888 35.072 642.702 Q32.5894 644.517 32.5894 648.304 Q32.5894 652.792 35.6449 655.434 Q38.6686 658.076 43.8567 658.076 L64.0042 658.076 L64.0042 663.964 L28.3562 663.964 L28.3562 658.076 L33.8944 658.076 Q30.616 656.07 29.0564 653.269 Q27.4968 650.468 27.4968 646.617 Q27.4968 642.734 29.4702 640.029 Q31.4436 637.291 35.1993 635.987 Z" fill="#000000" fill-rule="nonzero" fill-opacity="1" /><path clip-path="url(#clip820)" d="M14.5426 565.454 Q21.8632 569.72 29.0246 571.788 Q36.186 573.857 43.5384 573.857 Q50.8908 573.857 58.1159 571.788 Q65.3091 569.688 72.5979 565.454 L72.5979 570.547 Q65.1182 575.321 57.8931 577.708 Q50.668 580.064 43.5384 580.064 Q36.4406 580.064 29.2474 577.708 Q22.0542 575.353 14.5426 570.547 L14.5426 565.454 Z" fill="#000000" fill-rule="nonzero" fill-opacity="1" /><path clip-path="url(#clip820)" d="M58.657 548.426 L77.5631 548.426 L77.5631 554.315 L28.3562 554.315 L28.3562 548.426 L33.7671 548.426 Q30.5842 546.58 29.0564 543.779 Q27.4968 540.947 27.4968 537.032 Q27.4968 530.539 32.6531 526.496 Q37.8093 522.422 46.212 522.422 Q54.6147 522.422 59.771 526.496 Q64.9272 530.539 64.9272 537.032 Q64.9272 540.947 63.3994 543.779 Q61.8398 546.58 58.657 548.426 M46.212 528.502 Q39.7508 528.502 36.0905 531.175 Q32.3984 533.817 32.3984 538.464 Q32.3984 543.111 36.0905 545.784 Q39.7508 548.426 46.212 548.426 Q52.6732 548.426 56.3653 545.784 Q60.0256 543.111 60.0256 538.464 Q60.0256 533.817 56.3653 531.175 Q52.6732 528.502 46.212 528.502 Z" fill="#000000" fill-rule="nonzero" fill-opacity="1" /><path clip-path="url(#clip820)" d="M14.5426 513.638 L14.5426 508.545 Q22.0542 503.771 29.2474 501.415 Q36.4406 499.028 43.5384 499.028 Q50.668 499.028 57.8931 501.415 Q65.1182 503.771 72.5979 508.545 L72.5979 513.638 Q65.3091 509.404 58.1159 507.336 Q50.8908 505.235 43.5384 505.235 Q36.186 505.235 29.0246 507.336 Q21.8632 509.404 14.5426 513.638 Z" fill="#000000" fill-rule="nonzero" fill-opacity="1" /><polyline clip-path="url(#clip822)" style="stroke:#009af9; stroke-linecap:round; stroke-linejoin:round; stroke-width:16; stroke-opacity:1; fill:none" points="1301.91,90.9678 1307.91,90.9799 1313.92,91.0164 1319.93,91.0771 1325.93,91.1622 1331.94,91.2716 1337.94,91.4052 1343.94,91.5632 1349.94,91.7454 1355.94,91.9519 1361.94,92.1827 1367.93,92.4377 1373.92,92.717 1379.91,93.0206 1385.9,93.3483 1391.88,93.7003 1397.86,94.0765 1403.84,94.4769 1409.81,94.9014 1415.78,95.3501 1421.74,95.8229 1427.7,96.3199 1433.66,96.841 1439.61,97.3861 1445.55,97.9553 1451.49,98.5486 1457.42,99.1659 1463.35,99.8071 1469.27,100.472 1475.19,101.162 1481.1,101.875 1487,102.612 1492.89,103.373 1498.78,104.157 1504.66,104.966 1510.53,105.798 1516.4,106.654 1522.25,107.534 1528.1,108.437 1533.94,109.365 1539.77,110.315 1545.6,111.29 1551.41,112.287 1557.21,113.309 1563.01,114.353 1568.79,115.422 1574.56,116.513 1580.33,117.628 1586.08,118.766 1591.82,119.928 1597.55,121.113 1603.27,122.321 1608.98,123.552 1614.68,124.806 1620.37,126.083 1626.04,127.383 1631.7,128.706 1637.35,130.052 1642.99,131.421 1648.61,132.812 1654.22,134.226 1659.82,135.663 1665.4,137.123 1670.97,138.605 1676.52,140.11 1682.07,141.637 1687.59,143.186 1693.11,144.758 1698.6,146.352 1704.09,147.968 1709.56,149.607 1715.01,151.267 1720.45,152.95 1725.87,154.654 1731.27,156.381 1736.66,158.129 1742.03,159.899 1747.39,161.691 1752.73,163.504 1758.05,165.339 1763.36,167.196 1768.64,169.074 1773.91,170.973 1779.16,172.894 1784.4,174.835 1789.61,176.798 1794.81,178.782 1799.99,180.787 1805.15,182.813 1810.29,184.86 1815.41,186.927 1820.52,189.016 1825.6,191.124 1830.66,193.254 1835.71,195.403 1840.73,197.574 1845.73,199.764 1850.72,201.975 1855.68,204.205 1860.62,206.456 1865.54,208.727 1870.44,211.018 1875.31,213.328 1880.17,215.658 1885,218.008 1889.81,220.377 1894.6,222.765 1899.37,225.173 1904.11,227.601 1908.84,230.047 1913.53,232.512 1918.21,234.997 1922.86,237.5 1927.49,240.022 1932.1,242.563 1936.68,245.122 1941.24,247.7 1945.77,250.296 1950.28,252.91 1954.77,255.543 1959.23,258.194 1963.66,260.862 1968.07,263.549 1972.46,266.254 1976.82,268.976 1981.15,271.715 1985.46,274.473 1989.74,277.247 1994,280.039 1998.23,282.848 2002.44,285.674 2006.62,288.517 2010.77,291.377 2014.89,294.254 2018.99,297.147 2023.06,300.057 2027.11,302.984 2031.12,305.926 2035.11,308.885 2039.07,311.86 2043.01,314.851 2046.91,317.857 2050.79,320.88 2054.64,323.918 2058.46,326.971 2062.25,330.04 2066.02,333.125 2069.75,336.224 2073.46,339.339 2077.14,342.468 2080.78,345.612 2084.4,348.771 2087.99,351.945 2091.55,355.133 2095.08,358.335 2098.58,361.552 2102.05,364.783 2105.49,368.027 2108.9,371.286 2112.27,374.558 2115.62,377.844 2118.94,381.143 2122.22,384.456 2125.48,387.782 2128.7,391.121 2131.9,394.473 2135.06,397.838 2138.19,401.215 2141.29,404.606 2144.36,408.008 2147.39,411.423 2150.39,414.851 2153.37,418.29 2156.31,421.741 2159.21,425.204 2162.09,428.679 2164.93,432.166 2167.74,435.663 2170.52,439.172 2173.26,442.693 2175.97,446.224 2178.65,449.766 2181.3,453.319 2183.91,456.883 2186.49,460.457 2189.03,464.042 2191.54,467.637 2194.02,471.241 2196.47,474.856 2198.88,478.481 2201.26,482.115 2203.6,485.759 2205.91,489.412 2208.18,493.075 2210.43,496.747 2212.63,500.427 2214.81,504.117 2216.94,507.815 2219.05,511.522 2221.12,515.237 2223.15,518.961 2225.15,522.693 2227.11,526.432 2229.04,530.18 2230.94,533.936 2232.8,537.699 2234.62,541.469 2236.41,545.247 2238.17,549.032 2239.89,552.824 2241.57,556.623 2243.22,560.428 2244.83,564.24 2246.41,568.059 2247.95,571.884 2249.45,575.715 2250.92,579.552 2252.36,583.395 2253.76,587.244 2255.12,591.098 2256.44,594.958 2257.73,598.823 2258.99,602.693 2260.21,606.569 2261.39,610.449 2262.54,614.333 2263.65,618.223 2264.72,622.117 2265.76,626.015 2266.76,629.917 2267.72,633.823 2268.65,637.733 2269.54,641.646 2270.39,645.564 2271.21,649.484 2271.99,653.408 2272.74,657.335 2273.45,661.265 2274.12,665.197 2274.76,669.133 2275.35,673.07 2275.92,677.01 2276.44,680.953 2276.93,684.897 2277.38,688.843 2277.8,692.791 2278.17,696.741 2278.51,700.692 2278.82,704.644 2279.09,708.598 2279.32,712.552 2279.51,716.508 2279.67,720.464 2279.79,724.421 2279.87,728.378 2279.92,732.335 2279.93,736.292 2279.9,740.25 2279.83,744.207 2279.73,748.164 2279.59,752.12 2279.42,756.076 2279.21,760.031 2278.96,763.985 2278.67,767.938 2278.35,771.89 2277.99,775.84 2277.59,779.789 2277.16,783.736 2276.69,787.682 2276.18,791.625 2275.64,795.566 2275.06,799.505 2274.44,803.442 2273.79,807.376 2273.1,811.307 2272.37,815.235 2271.61,819.16 2270.81,823.083 2269.97,827.001 2269.1,830.917 2268.19,834.829 2267.24,838.737 2266.26,842.641 2265.24,846.541 2264.19,850.437 2263.09,854.329 2261.97,858.216 2260.8,862.098 2259.6,865.976 2258.37,869.848 2257.09,873.716 2255.79,877.579 2254.44,881.436 2253.06,885.287 2251.64,889.133 2250.19,892.973 2248.71,896.807 2247.18,900.635 2245.62,904.457 2244.03,908.273 2242.4,912.082 2240.73,915.884 2239.03,919.679 2237.29,923.468 2235.52,927.249 2233.72,931.023 2231.87,934.79 2230,938.549 2228.08,942.301 2226.14,946.044 2224.15,949.78 2222.14,953.508 2220.09,957.227 2218,960.939 2215.88,964.641 2213.72,968.335 2211.53,972.02 2209.31,975.696 2207.05,979.364 2204.76,983.022 2202.43,986.67 2200.07,990.309 2197.68,993.939 2195.25,997.559 2192.79,1001.17 2190.29,1004.77 2187.76,1008.36 2185.2,1011.94 2182.61,1015.51 2179.98,1019.06 2177.32,1022.61 2174.62,1026.15 2171.89,1029.67 2169.13,1033.19 2166.34,1036.69 2163.51,1040.19 2160.65,1043.67 2157.76,1047.13 2154.84,1050.59 2151.88,1054.04 2148.9,1057.47 2145.88,1060.89 2142.83,1064.3 2139.74,1067.7 2136.63,1071.08 2133.48,1074.45 2130.3,1077.81 2127.1,1081.16 2123.86,1084.49 2120.59,1087.81 2117.28,1091.11 2113.95,1094.41 2110.59,1097.69 2107.19,1100.95 2103.77,1104.2 2100.32,1107.44 2096.83,1110.66 2093.32,1113.87 2089.77,1117.07 2086.2,1120.25 2082.6,1123.42 2078.96,1126.57 2075.3,1129.7 2071.61,1132.83 2067.89,1135.93 2064.14,1139.03 2060.36,1142.1 2056.55,1145.16 2052.72,1148.21 2048.86,1151.24 2044.96,1154.25 2041.04,1157.25 2037.1,1160.24 2033.12,1163.2 2029.12,1166.15 2025.09,1169.09 2021.03,1172.01 2016.95,1174.91 2012.83,1177.79 2008.7,1180.66 2004.53,1183.51 2000.34,1186.35 1996.12,1189.16 1991.88,1191.97 1987.61,1194.75 1983.31,1197.51 1978.99,1200.26 1974.64,1202.99 1970.27,1205.71 1965.87,1208.4 1961.45,1211.08 1957,1213.74 1952.53,1216.38 1948.03,1219.01 1943.51,1221.61 1938.96,1224.2 1934.39,1226.77 1929.8,1229.32 1925.18,1231.85 1920.54,1234.36 1915.88,1236.85 1911.19,1239.33 1906.48,1241.78 1901.74,1244.22 1896.99,1246.64 1892.21,1249.04 1887.41,1251.42 1882.59,1253.78 1877.74,1256.12 1872.88,1258.44 1867.99,1260.74 1863.08,1263.02 1858.15,1265.28 1853.2,1267.52 1848.23,1269.74 1843.23,1271.94 1838.22,1274.12 1833.19,1276.28 1828.13,1278.42 1823.06,1280.54 1817.97,1282.64 1812.86,1284.72 1807.72,1286.77 1802.57,1288.81 1797.4,1290.82 1792.22,1292.82 1787.01,1294.79 1781.78,1296.74 1776.54,1298.68 1771.28,1300.59 1766,1302.47 1760.7,1304.34 1755.39,1306.19 1750.06,1308.01 1744.71,1309.81 1739.35,1311.59 1733.97,1313.35 1728.57,1315.09 1723.16,1316.81 1717.73,1318.5 1712.28,1320.17 1706.82,1321.82 1701.35,1323.45 1695.86,1325.05 1690.35,1326.64 1684.83,1328.2 1679.3,1329.74 1673.75,1331.25 1668.19,1332.74 1662.61,1334.22 1657.02,1335.66 1651.42,1337.09 1645.8,1338.49 1640.17,1339.87 1634.53,1341.23 1628.87,1342.56 1623.2,1343.88 1617.52,1345.16 1611.83,1346.43 1606.13,1347.67 1600.41,1348.89 1594.69,1350.09 1588.95,1351.26 1583.2,1352.41 1577.45,1353.54 1571.68,1354.64 1565.9,1355.72 1560.11,1356.78 1554.31,1357.81 1548.5,1358.82 1542.69,1359.81 1536.86,1360.77 1531.02,1361.71 1525.18,1362.62 1519.33,1363.51 1513.47,1364.38 1507.6,1365.23 1501.72,1366.05 1495.84,1366.84 1489.95,1367.62 1484.05,1368.37 1478.14,1369.09 1472.23,1369.79 1466.31,1370.47 1460.39,1371.12 1454.46,1371.75 1448.52,1372.36 1442.58,1372.94 1436.63,1373.5 1430.68,1374.03 1424.72,1374.54 1418.76,1375.02 1412.79,1375.48 1406.82,1375.92 1400.85,1376.33 1394.87,1376.72 1388.89,1377.08 1382.91,1377.42 1376.92,1377.74 1370.93,1378.03 1364.93,1378.3 1358.94,1378.54 1352.94,1378.76 1346.94,1378.95 1340.94,1379.12 1334.94,1379.27 1328.93,1379.39 1322.93,1379.49 1316.92,1379.56 1310.92,1379.61 1304.91,1379.64 1298.9,1379.64 1292.9,1379.61 1286.89,1379.56 1280.88,1379.49 1274.88,1379.39 1268.87,1379.27 1262.87,1379.12 1256.87,1378.95 1250.87,1378.76 1244.87,1378.54 1238.88,1378.3 1232.88,1378.03 1226.89,1377.74 1220.9,1377.42 1214.92,1377.08 1208.94,1376.72 1202.96,1376.33 1196.99,1375.92 1191.02,1375.48 1185.05,1375.02 1179.09,1374.54 1173.13,1374.03 1167.18,1373.5 1161.23,1372.94 1155.29,1372.36 1149.35,1371.75 1143.42,1371.12 1137.5,1370.47 1131.58,1369.79 1125.67,1369.09 1119.76,1368.37 1113.87,1367.62 1107.97,1366.84 1102.09,1366.05 1096.21,1365.23 1090.35,1364.38 1084.48,1363.51 1078.63,1362.62 1072.79,1361.71 1066.95,1360.77 1061.13,1359.81 1055.31,1358.82 1049.5,1357.81 1043.7,1356.78 1037.91,1355.72 1032.13,1354.64 1026.37,1353.54 1020.61,1352.41 1014.86,1351.26 1009.12,1350.09 1003.4,1348.89 997.682,1347.67 991.979,1346.43 986.287,1345.16 980.608,1343.88 974.94,1342.56 969.285,1341.23 963.643,1339.87 958.013,1338.49 952.396,1337.09 946.792,1335.66 941.202,1334.22 935.625,1332.74 930.063,1331.25 924.514,1329.74 918.979,1328.2 913.459,1326.64 907.954,1325.05 902.463,1323.45 896.988,1321.82 891.528,1320.17 886.083,1318.5 880.654,1316.81 875.24,1315.09 869.843,1313.35 864.463,1311.59 859.098,1309.81 853.751,1308.01 848.42,1306.19 843.106,1304.34 837.81,1302.47 832.531,1300.59 827.27,1298.68 822.027,1296.74 816.802,1294.79 811.595,1292.82 806.407,1290.82 801.238,1288.81 796.087,1286.77 790.955,1284.71 785.843,1282.64 780.75,1280.54 775.677,1278.42 770.624,1276.28 765.59,1274.12 760.577,1271.94 755.585,1269.74 750.612,1267.52 745.661,1265.28 740.731,1263.02 735.822,1260.74 730.934,1258.44 726.068,1256.12 721.224,1253.78 716.401,1251.42 711.601,1249.04 706.822,1246.64 702.066,1244.22 697.333,1241.78 692.623,1239.33 687.936,1236.85 683.272,1234.36 678.631,1231.85 674.013,1229.32 669.42,1226.77 664.85,1224.2 660.304,1221.61 655.783,1219.01 651.285,1216.38 646.813,1213.74 642.365,1211.08 637.942,1208.4 633.544,1205.71 629.171,1202.99 624.824,1200.26 620.502,1197.51 616.206,1194.75 611.935,1191.97 607.691,1189.16 603.473,1186.35 599.281,1183.51 595.116,1180.66 590.977,1177.79 586.866,1174.91 582.781,1172.01 578.723,1169.09 574.693,1166.15 570.69,1163.2 566.715,1160.24 562.767,1157.25 558.847,1154.25 554.956,1151.24 551.092,1148.21 547.257,1145.16 543.45,1142.1 539.672,1139.03 535.923,1135.93 532.202,1132.83 528.511,1129.7 524.848,1126.57 521.215,1123.42 517.612,1120.25 514.038,1117.07 510.494,1113.87 506.98,1110.66 503.495,1107.44 500.041,1104.2 496.617,1100.95 493.223,1097.69 489.86,1094.41 486.528,1091.11 483.226,1087.81 479.955,1084.49 476.715,1081.16 473.507,1077.81 470.329,1074.45 467.183,1071.08 464.069,1067.7 460.986,1064.3 457.934,1060.89 454.915,1057.47 451.927,1054.04 448.972,1050.59 446.049,1047.13 443.158,1043.67 440.299,1040.19 437.473,1036.69 434.68,1033.19 431.919,1029.67 429.191,1026.15 426.496,1022.61 423.834,1019.06 421.205,1015.51 418.61,1011.94 416.047,1008.36 413.519,1004.77 411.023,1001.17 408.562,997.559 406.133,993.939 403.739,990.309 401.379,986.67 399.052,983.022 396.76,979.364 394.502,975.697 392.278,972.02 390.088,968.335 387.933,964.641 385.812,960.938 383.726,957.227 381.674,953.508 379.658,949.78 377.675,946.044 375.728,942.301 373.816,938.549 371.939,934.79 370.096,931.023 368.289,927.249 366.518,923.468 364.781,919.679 363.08,915.884 361.414,912.081 359.784,908.273 358.189,904.457 356.63,900.635 355.106,896.807 353.619,892.973 352.166,889.133 350.75,885.287 349.37,881.436 348.026,877.578 346.717,873.716 345.445,869.848 344.209,865.976 343.008,862.098 341.845,858.216 340.717,854.328 339.625,850.437 338.57,846.541 337.551,842.641 336.569,838.737 335.623,834.829 334.713,830.917 333.84,827.001 333.003,823.083 332.203,819.16 331.44,815.235 330.713,811.307 330.023,807.375 329.369,803.441 328.752,799.505 328.172,795.566 327.629,791.625 327.122,787.681 326.652,783.736 326.219,779.789 325.823,775.84 325.463,771.89 325.14,767.938 324.855,763.985 324.606,760.031 324.393,756.076 324.218,752.12 324.08,748.164 323.978,744.207 323.914,740.25 323.886,736.292 323.895,732.335 323.942,728.378 324.025,724.42 324.144,720.464 324.301,716.508 324.495,712.552 324.725,708.598 324.993,704.644 325.297,700.692 325.638,696.741 326.016,692.791 326.431,688.843 326.882,684.897 327.371,680.952 327.896,677.01 328.458,673.07 329.056,669.133 329.691,665.197 330.363,661.265 331.072,657.335 331.817,653.408 332.599,649.484 333.417,645.563 334.272,641.646 335.163,637.733 336.091,633.823 337.055,629.917 338.056,626.015 339.093,622.116 340.166,618.223 341.276,614.333 342.422,610.449 343.604,606.568 344.822,602.693 346.077,598.823 347.367,594.958 348.693,591.098 350.056,587.244 351.454,583.395 352.888,579.552 354.358,575.715 355.864,571.884 357.405,568.059 358.982,564.24 360.595,560.428 362.243,556.623 363.926,552.824 365.645,549.032 367.399,545.247 369.189,541.469 371.013,537.698 372.873,533.936 374.768,530.18 376.697,526.433 378.662,522.693 380.662,518.961 382.696,515.237 384.765,511.522 386.868,507.815 389.006,504.117 391.179,500.427 393.386,496.746 395.627,493.075 397.902,489.412 400.211,485.759 402.555,482.115 404.932,478.481 407.343,474.856 409.788,471.241 412.267,467.636 414.779,464.042 417.325,460.457 419.904,456.883 422.516,453.319 425.161,449.766 427.84,446.224 430.551,442.693 433.295,439.173 436.073,435.663 438.882,432.165 441.725,428.679 444.6,425.204 447.507,421.741 450.446,418.29 453.417,414.851 456.421,411.423 459.456,408.008 462.523,404.605 465.622,401.215 468.752,397.838 471.914,394.473 475.107,391.121 478.332,387.782 481.587,384.456 484.873,381.143 488.19,377.844 491.538,374.558 494.916,371.286 498.325,368.027 501.764,364.783 505.234,361.552 508.733,358.335 512.262,355.133 515.822,351.945 519.41,348.771 523.028,345.612 526.676,342.468 530.353,339.339 534.059,336.224 537.794,333.125 541.557,330.04 545.35,326.971 549.171,323.918 553.02,320.88 556.898,317.857 560.804,314.851 564.738,311.86 568.699,308.885 572.688,305.926 576.705,302.983 580.749,300.057 584.82,297.147 588.918,294.254 593.043,291.377 597.195,288.517 601.374,285.674 605.579,282.848 609.81,280.039 614.067,277.247 618.351,274.472 622.66,271.715 626.994,268.976 631.354,266.253 635.74,263.549 640.15,260.862 644.586,258.194 649.046,255.543 653.531,252.91 658.041,250.296 662.574,247.7 667.132,245.122 671.714,242.562 676.319,240.022 680.948,237.5 685.601,234.996 690.277,232.512 694.976,230.047 699.697,227.601 704.442,225.173 709.209,222.765 713.998,220.377 718.81,218.007 723.643,215.658 728.499,213.328 733.376,211.018 738.274,208.727 743.194,206.456 748.135,204.205 753.096,201.975 758.079,199.764 763.081,197.574 768.105,195.403 773.148,193.254 778.211,191.124 783.294,189.015 788.397,186.927 793.519,184.86 798.66,182.813 803.82,180.787 808.999,178.782 814.197,176.798 819.412,174.835 824.647,172.894 829.899,170.973 835.169,169.074 840.456,167.196 845.761,165.339 851.084,163.504 856.422,161.691 861.779,159.899 867.151,158.129 872.54,156.381 877.945,154.654 883.366,152.95 888.803,151.267 894.256,149.607 899.724,147.968 905.207,146.352 910.705,144.758 916.218,143.186 921.745,141.637 927.287,140.11 932.843,138.605 938.412,137.123 943.996,135.663 949.593,134.226 955.203,132.812 960.827,131.42 966.463,130.052 972.112,128.706 977.773,127.383 983.446,126.083 989.132,124.806 994.829,123.552 1000.54,122.321 1006.26,121.113 1011.99,119.928 1017.73,118.766 1023.49,117.628 1029.25,116.513 1035.02,115.422 1040.81,114.353 1046.6,113.309 1052.4,112.287 1058.22,111.289 1064.04,110.315 1069.87,109.365 1075.71,108.437 1081.56,107.534 1087.41,106.654 1093.28,105.798 1099.15,104.966 1105.03,104.157 1110.92,103.373 1116.81,102.612 1122.72,101.875 1128.62,101.162 1134.54,100.472 1140.46,99.8071 1146.39,99.1658 1152.32,98.5486 1158.26,97.9553 1164.21,97.3861 1170.16,96.8409 1176.11,96.3199 1182.07,95.8229 1188.03,95.35 1194,94.9014 1199.97,94.4768 1205.95,94.0765 1211.93,93.7003 1217.91,93.3483 1223.9,93.0206 1229.89,92.717 1235.88,92.4377 1241.87,92.1827 1247.87,91.9519 1253.87,91.7454 1259.87,91.5632 1265.87,91.4052 1271.88,91.2715 1277.88,91.1622 1283.89,91.0771 1289.89,91.0164 1295.9,90.9799 1301.91,90.9678 "/>
<polyline clip-path="url(#clip822)" style="stroke:#e26f46; stroke-linecap:round; stroke-linejoin:round; stroke-width:16; stroke-opacity:1; fill:none" points="1301.91,90.9678 1307.77,90.945 1313.62,90.9618 1319.46,90.9568 1325.32,91.0179 1331.18,91.197 1337.05,91.3793 1342.92,91.5368 1348.79,91.6917 1354.66,91.8658 1360.51,92.061 1366.36,92.2635 1372.21,92.4335 1378.07,92.6605 1383.93,93.0017 1389.79,93.4215 1395.65,93.8362 1401.52,94.2498 1407.38,94.6629 1413.25,95.0753 1419.12,95.4872 1424.98,95.879 1430.81,96.2347 1436.63,96.587 1442.45,96.9601 1448.26,97.3683 1454.07,97.816 1459.89,98.2978 1465.72,98.7984 1471.53,99.3065 1477.24,99.9285 1482.87,100.584 1488.49,101.18 1494.12,101.677 1499.77,102.088 1505.44,102.483 1511.08,102.983 1516.66,103.749 1522.21,104.611 1527.77,105.478 1533.32,106.368 1538.87,107.292 1544.43,108.244 1549.98,109.212 1555.54,110.098 1561.11,110.753 1566.68,111.354 1572.27,112.058 1577.85,112.97 1583.44,114.146 1589.02,115.594 1594.6,117.268 1600.15,119.076 1605.67,120.877 1611.15,122.476 1616.58,123.681 1621.95,124.762 1627.31,125.91 1632.68,127.192 1638.07,128.615 1643.46,130.123 1648.82,131.599 1654.13,132.876 1659.44,133.988 1664.74,135.172 1669.99,136.583 1675.19,138.288 1680.31,140.265 1685.37,142.4 1690.36,144.489 1695.31,146.24 1700.25,147.725 1705.17,149.316 1710.07,150.954 1714.95,152.606 1719.82,154.264 1724.68,155.948 1729.55,157.705 1734.42,159.576 1739.23,161.493 1744.04,163.504 1748.9,165.651 1753.85,167.944 1758.87,170.365 1763.94,172.865 1769,175.366 1773.97,177.76 1778.75,179.919 1783.48,182.016 1788.21,184.16 1792.94,186.337 1797.63,188.534 1802.28,190.74 1806.9,192.947 1811.48,195.149 1816.04,197.343 1820.64,199.615 1825.31,202.109 1830,204.733 1834.67,207.402 1839.28,210.053 1843.81,212.644 1848.25,215.147 1852.6,217.56 1856.88,219.895 1861.11,222.186 1865.33,224.488 1869.59,226.871 1873.94,229.429 1878.45,232.226 1882.99,235.025 1887.54,237.84 1892.12,240.728 1896.73,243.721 1901.37,246.828 1906.03,250.031 1910.69,253.285 1915.32,256.521 1919.9,259.645 1924.48,262.659 1929.09,265.64 1933.7,268.601 1938.28,271.554 1942.83,274.508 1947.34,277.471 1951.83,280.447 1956.29,283.441 1960.77,286.454 1965.29,289.486 1969.91,292.536 1974.61,295.6 1979.32,298.69 1984.09,301.826 1988.94,305.02 1993.89,308.275 1998.93,311.588 2004.06,314.946 2009.23,318.329 2014.39,321.708 2019.49,325.046 2024.45,328.299 2029.3,331.491 2034.14,334.68 2038.89,337.819 2043.48,340.873 2047.87,343.823 2052.06,346.663 2056.06,349.405 2059.92,352.072 2063.7,354.707 2067.53,357.362 2071.51,360.109 2075.7,362.993 2079.84,365.912 2083.97,368.855 2088.17,371.822 2092.47,374.812 2096.88,377.821 2101.39,380.847 2105.95,383.882 2110.5,386.922 2114.92,389.957 2119.1,392.978 2122.88,395.973 2126.41,398.95 2129.9,401.93 2133.4,404.93 2136.94,407.962 2140.54,411.033 2144.21,414.146 2147.91,417.299 2151.63,420.484 2155.3,423.691 2158.87,426.904 2162.23,430.102 2165.42,433.281 2168.6,436.466 2171.75,439.652 2174.84,442.835 2177.86,446.011 2180.77,449.178 2183.57,452.337 2186.25,455.487 2188.81,458.633 2191.26,461.778 2193.59,464.929 2195.8,468.089 2197.69,471.235 2199.38,474.393 2201.04,477.598 2202.79,480.873 2204.72,484.236 2206.87,487.693 2209.24,491.241 2211.81,494.871 2214.48,498.561 2217.15,502.283 2219.63,505.999 2221.74,509.661 2223.26,513.306 2224.45,516.984 2225.7,520.66 2227.28,524.312 2229.35,527.926 2231.94,531.5 2234.95,535.043 2238.16,538.574 2241.23,542.123 2243.7,545.73 2245.42,549.407 2246.95,553.094 2248.33,556.782 2249.59,560.463 2250.76,564.135 2251.88,567.797 2252.99,571.453 2254.13,575.111 2255.33,578.779 2256.66,582.473 2258.06,586.186 2259.48,589.909 2260.9,593.643 2262.32,597.386 2263.73,601.139 2265.12,604.9 2266.48,608.669 2267.78,612.444 2269.03,616.225 2270.19,620.01 2271.26,623.798 2272.22,627.586 2272.93,631.351 2273.44,635.095 2273.9,638.842 2274.44,642.609 2275.13,646.409 2276.04,650.25 2277.17,654.134 2278.53,658.059 2280.05,662.016 2281.66,665.992 2283.24,669.969 2284.64,673.923 2285.68,677.827 2286.26,681.664 2286.6,685.475 2286.89,689.287 2287.25,693.118 2287.76,696.981 2288.48,700.88 2289.37,704.812 2290.37,708.768 2291.39,712.731 2292.26,716.676 2292.79,720.582 2293.13,724.501 2293.35,728.442 2293.45,732.389 2293.44,736.333 2293.35,740.267 2293.18,744.187 2292.95,748.095 2292.69,751.995 2292.43,755.894 2292.14,759.787 2291.75,763.66 2291.31,767.515 2290.82,771.354 2290.31,775.18 2289.78,778.995 2289.26,782.801 2288.74,786.601 2288.23,790.397 2287.72,794.19 2287.22,797.982 2286.67,801.776 2285.99,805.57 2285.21,809.361 2284.37,813.145 2283.51,816.921 2282.64,820.688 2281.79,824.443 2280.96,828.188 2280.15,831.921 2279.37,835.645 2278.59,839.359 2277.8,843.067 2276.99,846.77 2276.1,850.472 2275.11,854.177 2273.97,857.888 2272.74,861.606 2271.56,865.325 2270.39,869.042 2269.21,872.755 2267.98,876.461 2266.7,880.16 2265.36,883.851 2263.96,887.534 2262.51,891.21 2261.02,894.882 2259.52,898.55 2258.05,902.217 2256.64,905.888 2255.26,909.568 2253.84,913.256 2252.35,916.945 2250.79,920.627 2249.15,924.298 2247.43,927.952 2245.64,931.588 2243.76,935.204 2241.81,938.798 2239.79,942.373 2237.71,945.929 2235.59,949.471 2233.44,953.002 2231.27,956.528 2229.11,960.057 2227,963.572 2224.99,967.035 2223.03,970.464 2221.11,973.876 2219.18,977.283 2217.22,980.699 2215.21,984.129 2213.12,987.581 2210.95,991.057 2208.68,994.556 2206.29,998.074 2203.78,1001.61 2201.16,1005.14 2198.41,1008.67 2195.55,1012.18 2192.57,1015.64 2189.49,1019.05 2186.34,1022.38 2183.18,1025.7 2180,1029.03 2176.77,1032.35 2173.48,1035.67 2170.11,1039 2166.66,1042.32 2163.13,1045.64 2159.53,1048.94 2155.86,1052.24 2152.15,1055.53 2148.42,1058.79 2144.68,1062.03 2140.99,1065.24 2137.37,1068.42 2133.9,1071.55 2130.51,1074.66 2127.12,1077.76 2123.65,1080.84 2120.05,1083.93 2116.28,1087.02 2112.3,1090.12 2108.1,1093.23 2103.68,1096.36 2099.05,1099.5 2094.24,1102.65 2089.29,1105.82 2084.25,1108.99 2079.2,1112.17 2074.21,1115.34 2069.38,1118.5 2064.83,1121.64 2060.67,1124.73 2056.84,1127.7 2053.15,1130.58 2049.47,1133.44 2045.66,1136.33 2041.65,1139.27 2037.38,1142.29 2032.81,1145.4 2027.98,1148.59 2022.9,1151.85 2017.67,1155.16 2012.38,1158.47 2007.17,1161.74 2002.21,1164.9 1997.67,1167.87 1993.42,1170.69 1989.29,1173.44 1985.15,1176.18 1980.9,1178.96 1976.47,1181.81 1971.85,1184.76 1967.01,1187.81 1962,1190.94 1956.87,1194.12 1951.71,1197.31 1946.66,1200.45 1941.86,1203.45 1937.38,1206.26 1933.06,1208.97 1928.79,1211.65 1924.49,1214.37 1920.1,1217.15 1915.59,1220.04 1910.95,1223.04 1906.18,1226.12 1901.31,1229.28 1896.4,1232.45 1891.52,1235.58 1886.77,1238.58 1882.26,1241.32 1877.92,1243.75 1873.67,1246.03 1869.41,1248.33 1865.1,1250.77 1860.67,1253.43 1856.12,1256.34 1851.42,1259.5 1846.59,1262.86 1841.66,1266.34 1836.68,1269.79 1831.69,1273.06 1826.79,1275.93 1821.95,1278.56 1817.11,1281.18 1812.27,1283.76 1807.41,1286.28 1802.54,1288.73 1797.65,1291.11 1792.75,1293.42 1787.84,1295.68 1782.91,1297.88 1777.97,1300.07 1773.04,1302.25 1768.09,1304.4 1763.11,1306.4 1758.09,1308.3 1753.04,1310.14 1747.96,1311.96 1742.86,1313.8 1737.73,1315.66 1732.58,1317.56 1727.41,1319.5 1722.23,1321.48 1717.04,1323.49 1711.85,1325.51 1706.65,1327.52 1701.45,1329.47 1696.26,1331.32 1691.09,1333.03 1685.91,1334.67 1680.66,1336.51 1675.37,1338.44 1670.04,1340.3 1664.67,1342.02 1659.29,1343.52 1653.89,1344.77 1648.48,1345.77 1643.06,1346.55 1637.62,1347.16 1632.17,1347.71 1626.71,1348.32 1621.21,1349.14 1615.71,1350.2 1610.27,1351.14 1604.86,1352 1599.46,1352.87 1594.04,1353.77 1588.59,1354.74 1583.1,1355.8 1577.58,1356.95 1572.02,1358.15 1566.44,1359.38 1560.85,1360.58 1555.29,1361.68 1549.76,1362.69 1544.21,1363.8 1538.62,1364.93 1533,1366.03 1527.36,1367.05 1521.71,1367.95 1516.03,1368.73 1510.35,1369.38 1504.67,1369.93 1498.98,1370.42 1493.3,1370.92 1487.63,1371.49 1481.97,1372.22 1476.3,1373 1470.61,1373.74 1464.91,1374.46 1459.2,1375.14 1453.5,1375.81 1447.79,1376.44 1442.09,1377.06 1436.39,1377.67 1430.69,1378.26 1424.98,1378.85 1419.26,1379.43 1413.52,1380.02 1407.77,1380.67 1402.04,1381.37 1396.3,1382.05 1390.56,1382.69 1384.8,1383.24 1379.02,1383.68 1373.21,1383.99 1367.38,1384.18 1361.53,1384.24 1355.66,1384.19 1349.77,1384.06 1343.88,1383.89 1337.98,1383.72 1332.09,1383.63 1326.19,1383.61 1320.3,1383.57 1314.43,1383.45 1308.57,1383.21 1302.73,1382.85 1296.9,1382.38 1291.09,1381.86 1285.27,1381.38 1279.43,1381.06 1273.55,1380.71 1267.66,1380.28 1261.78,1379.9 1255.95,1379.65 1250.17,1379.56 1244.44,1379.58 1238.74,1379.63 1233.02,1379.54 1227.24,1379.23 1221.44,1379.11 1215.65,1378.98 1209.87,1378.63 1204.1,1377.97 1198.34,1377.04 1192.58,1376 1186.8,1375.12 1181,1374.59 1175.22,1374 1169.45,1373.38 1163.68,1372.74 1157.91,1372.12 1152.13,1371.51 1146.34,1370.92 1140.55,1370.34 1134.77,1369.77 1129,1369.23 1123.23,1368.7 1117.47,1368.18 1111.72,1367.63 1105.98,1367.06 1100.25,1366.46 1094.52,1365.82 1088.8,1365.15 1083.08,1364.46 1077.36,1363.74 1071.65,1363.01 1065.93,1362.25 1060.19,1361.34 1054.47,1360.34 1048.79,1359.32 1043.17,1358.34 1037.62,1357.43 1032.15,1356.61 1026.76,1355.9 1021.44,1355.29 1016.19,1354.76 1010.97,1354.28 1005.77,1353.8 1000.56,1353.25 995.305,1352.55 989.959,1351.62 984.555,1350.43 979.148,1349.09 973.783,1347.68 968.489,1346.28 963.283,1344.92 958.168,1343.59 953.133,1342.26 948.153,1340.89 943.19,1339.39 938.192,1337.64 933.099,1335.61 927.939,1333.48 922.787,1331.34 917.697,1329.22 912.706,1327.16 907.831,1325.17 903.069,1323.25 898.396,1321.38 893.773,1319.54 889.136,1317.66 884.405,1315.7 879.561,1313.64 874.725,1311.58 869.898,1309.51 865.078,1307.41 860.262,1305.28 855.449,1303.12 850.64,1300.91 845.835,1298.67 841.036,1296.42 836.246,1294.15 831.468,1291.91 826.65,1289.61 821.777,1287.23 816.875,1284.81 811.962,1282.35 807.056,1279.89 802.17,1277.43 797.315,1275 792.498,1272.6 787.721,1270.24 782.986,1267.92 778.288,1265.63 773.621,1263.38 768.974,1261.16 764.336,1258.95 759.729,1256.75 755.327,1254.59 751.011,1252.35 746.649,1249.95 742.144,1247.31 737.432,1244.4 732.485,1241.21 727.311,1237.75 721.949,1234.08 716.477,1230.27 711.005,1226.44 705.677,1222.73 700.676,1219.29 696.079,1216.21 691.605,1213.23 687.164,1210.28 682.699,1207.31 678.177,1204.29 673.583,1201.21 668.925,1198.09 664.232,1194.93 659.553,1191.79 654.961,1188.73 650.531,1185.78 646.22,1182.9 641.934,1180.05 637.608,1177.17 633.208,1174.27 628.727,1171.33 624.191,1168.37 619.654,1165.41 615.2,1162.49 610.941,1159.66 606.953,1156.95 602.925,1154.2 598.784,1151.39 594.523,1148.52 590.147,1145.6 585.671,1142.65 581.121,1139.66 576.533,1136.67 571.956,1133.68 567.448,1130.71 563.065,1127.8 558.768,1124.98 554.501,1122.18 550.225,1119.35 545.915,1116.43 541.558,1113.41 537.151,1110.29 532.706,1107.08 528.245,1103.81 523.805,1100.56 519.422,1097.35 515.062,1094.15 510.683,1090.93 506.257,1087.71 501.766,1084.48 497.209,1081.24 492.595,1078 487.947,1074.76 483.3,1071.53 478.704,1068.33 474.219,1065.17 469.942,1062.07 466.06,1059.1 462.406,1056.19 458.788,1053.25 455.063,1050.21 451.142,1047.04 446.989,1043.7 442.616,1040.2 438.089,1036.57 433.526,1032.84 429.095,1029.09 425.019,1025.39 421.57,1021.87 418.733,1018.52 415.89,1015.07 413.081,1011.59 410.366,1008.11 407.784,1004.66 405.351,1001.25 403.063,997.87 400.897,994.499 398.805,991.095 396.71,987.634 394.581,984.151 392.452,980.653 390.355,977.146 388.309,973.634 386.328,970.121 384.418,966.61 382.577,963.101 380.793,959.596 379.051,956.093 377.322,952.591 375.585,949.088 373.907,945.587 372.291,942.086 370.718,938.582 369.172,935.074 367.639,931.562 366.107,928.042 364.569,924.517 363.016,920.984 361.445,917.444 359.855,913.899 358.244,910.349 356.617,906.796 354.977,903.242 353.334,899.689 351.745,896.135 350.416,892.554 349.286,888.937 348.272,885.282 347.303,881.589 346.319,877.855 345.275,874.083 344.134,870.273 342.875,866.428 341.487,862.551 339.972,858.649 338.345,854.725 336.632,850.788 334.871,846.844 333.114,842.903 331.422,838.975 329.873,835.071 328.552,831.203 327.557,827.382 326.874,823.6 326.355,819.835 325.87,816.071 325.323,812.294 324.651,808.495 323.821,804.669 322.834,800.816 321.723,796.937 320.553,793.039 319.419,789.133 318.453,785.234 317.815,781.36 317.494,777.524 317.133,773.703 316.805,769.883 316.583,766.051 316.512,762.201 316.612,758.328 316.876,754.431 317.271,750.513 317.741,746.58 318.199,742.642 318.536,738.712 318.62,734.808 318.62,730.927 318.672,727.062 318.766,723.205 318.897,719.354 319.062,715.504 319.263,711.655 319.507,707.804 319.802,703.952 320.162,700.099 320.604,696.248 321.149,692.4 321.776,688.561 322.334,684.733 322.832,680.908 323.296,677.08 323.75,673.244 324.213,669.396 324.703,665.533 325.233,661.652 325.814,657.752 326.455,653.835 327.16,649.9 327.931,645.952 328.768,641.993 329.666,638.027 330.619,634.062 331.615,630.103 332.64,626.151 333.685,622.2 334.757,618.257 335.862,614.325 337.003,610.407 338.18,606.505 339.392,602.618 340.636,598.746 341.906,594.887 343.194,591.035 344.49,587.186 345.783,583.332 347.082,579.468 348.624,575.609 350.355,571.774 352.145,567.973 353.889,564.216 355.507,560.508 356.947,556.854 358.182,553.252 359.21,549.701 360.057,546.196 360.774,542.729 361.439,539.289 362.154,535.862 363.048,532.433 364.278,528.983 366.02,525.489 368.065,521.974 370.181,518.462 372.34,514.951 374.524,511.44 376.718,507.931 378.912,504.422 381.102,500.916 383.29,497.412 385.483,493.914 387.691,490.422 389.933,486.939 392.33,483.445 395.076,479.897 398.035,476.316 401.077,472.723 404.093,469.136 407,465.571 409.736,462.04 412.261,458.55 414.558,455.107 416.636,451.711 418.524,448.361 420.273,445.052 421.961,441.775 423.684,438.518 425.565,435.265 427.747,431.997 430.398,428.692 433.58,425.358 437.006,422.047 440.498,418.752 443.931,415.468 447.222,412.187 450.336,408.909 453.279,405.632 456.102,402.359 458.901,399.093 461.817,395.842 465.034,392.614 468.779,389.421 472.857,386.375 477.093,383.433 481.592,380.446 486.416,377.311 491.593,373.958 497.111,370.362 502.918,366.534 508.926,362.524 515.008,358.423 520.999,354.361 526.693,350.507 531.849,347.068 536.496,344.031 541.034,341.075 545.537,338.166 550.054,335.279 554.609,332.399 559.208,329.524 563.835,326.656 568.454,323.811 573.007,321.011 577.415,318.289 581.525,315.728 585.299,313.366 588.942,311.083 592.626,308.779 596.484,306.376 600.605,303.821 605.037,301.085 609.787,298.163 614.823,295.071 620.069,291.852 625.409,288.573 630.685,285.321 635.698,282.211 640.247,279.36 644.564,276.647 648.853,273.952 653.217,271.209 657.719,268.376 662.382,265.439 667.191,262.406 672.091,259.312 676.988,256.216 681.75,253.203 686.252,250.349 690.773,247.462 695.352,244.525 699.953,241.573 704.545,238.631 709.11,235.717 713.638,232.839 718.129,229.995 722.594,227.176 727.052,224.363 731.52,221.564 735.979,218.842 740.422,216.181 744.849,213.562 749.26,210.971 753.658,208.391 758.048,205.809 762.439,203.214 766.84,200.595 771.264,197.944 775.727,195.253 780.246,192.518 784.84,189.733 789.537,186.891 794.439,183.824 799.5,180.614 804.613,177.444 809.694,174.457 814.682,171.758 819.538,169.41 824.246,167.438 828.81,165.826 833.258,164.518 837.639,163.417 842.025,162.389 846.512,161.258 851.214,159.808 856.218,157.93 861.383,155.967 866.596,153.997 871.783,152.06 876.897,150.18 881.917,148.372 886.856,146.635 891.75,144.958 896.668,143.318 901.703,141.677 906.841,140.049 911.962,138.478 917.088,136.941 922.238,135.419 927.422,133.896 932.648,132.361 937.917,130.806 943.226,129.227 948.564,127.625 953.917,126.005 959.265,124.373 964.647,122.66 970.073,120.883 975.513,119.115 980.946,117.418 986.355,115.837 991.729,114.403 997.064,113.133 1002.36,112.031 1007.63,111.083 1012.88,110.263 1018.13,109.531 1023.4,108.831 1028.74,108.093 1034.16,107.232 1039.66,106.279 1045.16,105.32 1050.69,104.363 1056.25,103.414 1061.84,102.48 1067.46,101.568 1073.12,100.684 1078.81,99.8338 1084.53,99.0254 1090.28,98.2651 1096.04,97.5596 1101.82,96.9292 1107.59,96.4441 1113.37,96.0613 1119.16,95.7273 1124.99,95.3985 1130.85,95.0411 1136.74,94.6317 1142.67,94.1562 1148.63,93.6109 1154.63,93.002 1160.63,92.3454 1166.65,91.6673 1172.65,91.0035 1178.62,90.4 1184.54,89.9127 1190.43,89.5141 1196.32,89.1344 1202.21,88.777 1208.1,88.4445 1213.98,88.138 1219.86,87.8577 1225.73,87.6022 1231.6,87.3692 1237.46,87.155 1243.33,86.955 1249.18,86.7631 1255.04,86.572 1260.9,86.3752 1266.77,86.1857 "/>
<path clip-path="url(#clip820)" d="M1859.76 248.629 L2282.9 248.629 L2282.9 93.1086 L1859.76 93.1086  Z" fill="#ffffff" fill-rule="evenodd" fill-opacity="1"/>
<polyline clip-path="url(#clip820)" style="stroke:#000000; stroke-linecap:round; stroke-linejoin:round; stroke-width:4; stroke-opacity:1; fill:none" points="1859.76,248.629 2282.9,248.629 2282.9,93.1086 1859.76,93.1086 1859.76,248.629 "/>
<polyline clip-path="url(#clip820)" style="stroke:#009af9; stroke-linecap:round; stroke-linejoin:round; stroke-width:16; stroke-opacity:1; fill:none" points="1883.05,144.949 2022.75,144.949 "/>
<path clip-path="url(#clip820)" d="M2062.05 130.84 Q2056.96 130.84 2053.95 134.636 Q2050.96 138.432 2050.96 144.983 Q2050.96 151.511 2053.95 155.307 Q2056.96 159.104 2062.05 159.104 Q2067.14 159.104 2070.11 155.307 Q2073.09 151.511 2073.09 144.983 Q2073.09 138.432 2070.11 134.636 Q2067.14 130.84 2062.05 130.84 M2062.05 127.044 Q2069.32 127.044 2073.67 131.928 Q2078.02 136.789 2078.02 144.983 Q2078.02 153.155 2073.67 158.039 Q2069.32 162.9 2062.05 162.9 Q2054.76 162.9 2050.39 158.039 Q2046.03 153.178 2046.03 144.983 Q2046.03 136.789 2050.39 131.928 Q2054.76 127.044 2062.05 127.044 Z" fill="#000000" fill-rule="nonzero" fill-opacity="1" /><path clip-path="url(#clip820)" d="M2100.18 140.284 Q2099.46 139.868 2098.6 139.682 Q2097.77 139.474 2096.75 139.474 Q2093.14 139.474 2091.2 141.835 Q2089.27 144.173 2089.27 148.571 L2089.27 162.229 L2084.99 162.229 L2084.99 136.303 L2089.27 136.303 L2089.27 140.331 Q2090.62 137.969 2092.77 136.835 Q2094.92 135.678 2098 135.678 Q2098.44 135.678 2098.97 135.747 Q2099.51 135.794 2100.15 135.909 L2100.18 140.284 Z" fill="#000000" fill-rule="nonzero" fill-opacity="1" /><path clip-path="url(#clip820)" d="M2104.64 136.303 L2108.9 136.303 L2108.9 162.229 L2104.64 162.229 L2104.64 136.303 M2104.64 126.21 L2108.9 126.21 L2108.9 131.604 L2104.64 131.604 L2104.64 126.21 Z" fill="#000000" fill-rule="nonzero" fill-opacity="1" /><path clip-path="url(#clip820)" d="M2134.88 148.965 Q2134.88 144.335 2132.95 141.789 Q2131.06 139.243 2127.61 139.243 Q2124.18 139.243 2122.26 141.789 Q2120.36 144.335 2120.36 148.965 Q2120.36 153.571 2122.26 156.118 Q2124.18 158.664 2127.61 158.664 Q2131.06 158.664 2132.95 156.118 Q2134.88 153.571 2134.88 148.965 M2139.13 159.011 Q2139.13 165.631 2136.2 168.849 Q2133.26 172.09 2127.19 172.09 Q2124.95 172.09 2122.95 171.742 Q2120.96 171.418 2119.09 170.724 L2119.09 166.58 Q2120.96 167.599 2122.79 168.085 Q2124.62 168.571 2126.52 168.571 Q2130.71 168.571 2132.79 166.372 Q2134.88 164.196 2134.88 159.775 L2134.88 157.668 Q2133.56 159.96 2131.5 161.094 Q2129.44 162.229 2126.57 162.229 Q2121.8 162.229 2118.88 158.594 Q2115.96 154.96 2115.96 148.965 Q2115.96 142.946 2118.88 139.312 Q2121.8 135.678 2126.57 135.678 Q2129.44 135.678 2131.5 136.812 Q2133.56 137.946 2134.88 140.238 L2134.88 136.303 L2139.13 136.303 L2139.13 159.011 Z" fill="#000000" fill-rule="nonzero" fill-opacity="1" /><path clip-path="url(#clip820)" d="M2147.91 136.303 L2152.17 136.303 L2152.17 162.229 L2147.91 162.229 L2147.91 136.303 M2147.91 126.21 L2152.17 126.21 L2152.17 131.604 L2147.91 131.604 L2147.91 126.21 Z" fill="#000000" fill-rule="nonzero" fill-opacity="1" /><path clip-path="url(#clip820)" d="M2182.63 146.581 L2182.63 162.229 L2178.37 162.229 L2178.37 146.719 Q2178.37 143.039 2176.94 141.21 Q2175.5 139.382 2172.63 139.382 Q2169.18 139.382 2167.19 141.581 Q2165.2 143.78 2165.2 147.576 L2165.2 162.229 L2160.92 162.229 L2160.92 136.303 L2165.2 136.303 L2165.2 140.331 Q2166.73 137.993 2168.79 136.835 Q2170.87 135.678 2173.58 135.678 Q2178.05 135.678 2180.34 138.456 Q2182.63 141.21 2182.63 146.581 Z" fill="#000000" fill-rule="nonzero" fill-opacity="1" /><path clip-path="url(#clip820)" d="M2202.91 149.196 Q2197.75 149.196 2195.75 150.377 Q2193.76 151.557 2193.76 154.405 Q2193.76 156.673 2195.25 158.016 Q2196.75 159.335 2199.32 159.335 Q2202.86 159.335 2204.99 156.835 Q2207.14 154.312 2207.14 150.145 L2207.14 149.196 L2202.91 149.196 M2211.4 147.437 L2211.4 162.229 L2207.14 162.229 L2207.14 158.293 Q2205.69 160.655 2203.51 161.789 Q2201.33 162.9 2198.19 162.9 Q2194.2 162.9 2191.84 160.678 Q2189.5 158.432 2189.5 154.682 Q2189.5 150.307 2192.42 148.085 Q2195.36 145.863 2201.17 145.863 L2207.14 145.863 L2207.14 145.446 Q2207.14 142.507 2205.2 140.909 Q2203.28 139.289 2199.78 139.289 Q2197.56 139.289 2195.45 139.821 Q2193.35 140.354 2191.4 141.419 L2191.4 137.483 Q2193.74 136.581 2195.94 136.141 Q2198.14 135.678 2200.22 135.678 Q2205.85 135.678 2208.63 138.594 Q2211.4 141.511 2211.4 147.437 Z" fill="#000000" fill-rule="nonzero" fill-opacity="1" /><path clip-path="url(#clip820)" d="M2220.18 126.21 L2224.44 126.21 L2224.44 162.229 L2220.18 162.229 L2220.18 126.21 Z" fill="#000000" fill-rule="nonzero" fill-opacity="1" /><polyline clip-path="url(#clip820)" style="stroke:#e26f46; stroke-linecap:round; stroke-linejoin:round; stroke-width:16; stroke-opacity:1; fill:none" points="1883.05,196.789 2022.75,196.789 "/>
<path clip-path="url(#clip820)" d="M2050.71 183.351 L2050.71 196.337 L2056.59 196.337 Q2059.85 196.337 2061.64 194.647 Q2063.42 192.958 2063.42 189.833 Q2063.42 186.731 2061.64 185.041 Q2059.85 183.351 2056.59 183.351 L2050.71 183.351 M2046.03 179.509 L2056.59 179.509 Q2062.4 179.509 2065.36 182.147 Q2068.35 184.763 2068.35 189.833 Q2068.35 194.948 2065.36 197.564 Q2062.4 200.18 2056.59 200.18 L2050.71 200.18 L2050.71 214.069 L2046.03 214.069 L2046.03 179.509 Z" fill="#000000" fill-rule="nonzero" fill-opacity="1" /><path clip-path="url(#clip820)" d="M2088.63 192.124 Q2087.91 191.708 2087.05 191.522 Q2086.22 191.314 2085.2 191.314 Q2081.59 191.314 2079.64 193.675 Q2077.72 196.013 2077.72 200.411 L2077.72 214.069 L2073.44 214.069 L2073.44 188.143 L2077.72 188.143 L2077.72 192.171 Q2079.07 189.809 2081.22 188.675 Q2083.37 187.518 2086.45 187.518 Q2086.89 187.518 2087.42 187.587 Q2087.95 187.634 2088.6 187.749 L2088.63 192.124 Z" fill="#000000" fill-rule="nonzero" fill-opacity="1" /><path clip-path="url(#clip820)" d="M2114.23 200.041 L2114.23 202.124 L2094.64 202.124 Q2094.92 206.522 2097.28 208.837 Q2099.67 211.129 2103.9 211.129 Q2106.36 211.129 2108.65 210.527 Q2110.96 209.925 2113.23 208.721 L2113.23 212.749 Q2110.94 213.721 2108.53 214.231 Q2106.13 214.74 2103.65 214.74 Q2097.45 214.74 2093.81 211.129 Q2090.2 207.518 2090.2 201.36 Q2090.2 194.995 2093.63 191.268 Q2097.07 187.518 2102.91 187.518 Q2108.14 187.518 2111.17 190.897 Q2114.23 194.254 2114.23 200.041 M2109.97 198.791 Q2109.92 195.296 2108 193.212 Q2106.1 191.129 2102.95 191.129 Q2099.39 191.129 2097.24 193.143 Q2095.11 195.157 2094.78 198.814 L2109.97 198.791 Z" fill="#000000" fill-rule="nonzero" fill-opacity="1" /><path clip-path="url(#clip820)" d="M2138.28 192.078 L2138.28 178.05 L2142.54 178.05 L2142.54 214.069 L2138.28 214.069 L2138.28 210.18 Q2136.94 212.495 2134.88 213.629 Q2132.84 214.74 2129.97 214.74 Q2125.27 214.74 2122.31 210.99 Q2119.37 207.24 2119.37 201.129 Q2119.37 195.018 2122.31 191.268 Q2125.27 187.518 2129.97 187.518 Q2132.84 187.518 2134.88 188.652 Q2136.94 189.763 2138.28 192.078 M2123.76 201.129 Q2123.76 205.828 2125.69 208.513 Q2127.63 211.175 2131.01 211.175 Q2134.39 211.175 2136.33 208.513 Q2138.28 205.828 2138.28 201.129 Q2138.28 196.43 2136.33 193.768 Q2134.39 191.083 2131.01 191.083 Q2127.63 191.083 2125.69 193.768 Q2123.76 196.43 2123.76 201.129 Z" fill="#000000" fill-rule="nonzero" fill-opacity="1" /><path clip-path="url(#clip820)" d="M2151.31 188.143 L2155.57 188.143 L2155.57 214.069 L2151.31 214.069 L2151.31 188.143 M2151.31 178.05 L2155.57 178.05 L2155.57 183.444 L2151.31 183.444 L2151.31 178.05 Z" fill="#000000" fill-rule="nonzero" fill-opacity="1" /><path clip-path="url(#clip820)" d="M2183.14 189.138 L2183.14 193.12 Q2181.33 192.124 2179.5 191.638 Q2177.7 191.129 2175.85 191.129 Q2171.7 191.129 2169.41 193.768 Q2167.12 196.384 2167.12 201.129 Q2167.12 205.874 2169.41 208.513 Q2171.7 211.129 2175.85 211.129 Q2177.7 211.129 2179.5 210.643 Q2181.33 210.133 2183.14 209.138 L2183.14 213.073 Q2181.36 213.907 2179.44 214.323 Q2177.54 214.74 2175.38 214.74 Q2169.53 214.74 2166.08 211.059 Q2162.63 207.379 2162.63 201.129 Q2162.63 194.786 2166.1 191.152 Q2169.6 187.518 2175.66 187.518 Q2177.63 187.518 2179.5 187.935 Q2181.38 188.328 2183.14 189.138 Z" fill="#000000" fill-rule="nonzero" fill-opacity="1" /><path clip-path="url(#clip820)" d="M2194.76 180.782 L2194.76 188.143 L2203.53 188.143 L2203.53 191.453 L2194.76 191.453 L2194.76 205.527 Q2194.76 208.698 2195.62 209.601 Q2196.5 210.504 2199.16 210.504 L2203.53 210.504 L2203.53 214.069 L2199.16 214.069 Q2194.23 214.069 2192.35 212.24 Q2190.48 210.388 2190.48 205.527 L2190.48 191.453 L2187.35 191.453 L2187.35 188.143 L2190.48 188.143 L2190.48 180.782 L2194.76 180.782 Z" fill="#000000" fill-rule="nonzero" fill-opacity="1" /><path clip-path="url(#clip820)" d="M2231.31 200.041 L2231.31 202.124 L2211.73 202.124 Q2212 206.522 2214.37 208.837 Q2216.75 211.129 2220.99 211.129 Q2223.44 211.129 2225.73 210.527 Q2228.05 209.925 2230.31 208.721 L2230.31 212.749 Q2228.02 213.721 2225.62 214.231 Q2223.21 214.74 2220.73 214.74 Q2214.53 214.74 2210.89 211.129 Q2207.28 207.518 2207.28 201.36 Q2207.28 194.995 2210.71 191.268 Q2214.16 187.518 2219.99 187.518 Q2225.22 187.518 2228.25 190.897 Q2231.31 194.254 2231.31 200.041 M2227.05 198.791 Q2227 195.296 2225.08 193.212 Q2223.19 191.129 2220.04 191.129 Q2216.47 191.129 2214.32 193.143 Q2212.19 195.157 2211.87 198.814 L2227.05 198.791 Z" fill="#000000" fill-rule="nonzero" fill-opacity="1" /><path clip-path="url(#clip820)" d="M2255.36 192.078 L2255.36 178.05 L2259.62 178.05 L2259.62 214.069 L2255.36 214.069 L2255.36 210.18 Q2254.02 212.495 2251.96 213.629 Q2249.92 214.74 2247.05 214.74 Q2242.35 214.74 2239.39 210.99 Q2236.45 207.24 2236.45 201.129 Q2236.45 195.018 2239.39 191.268 Q2242.35 187.518 2247.05 187.518 Q2249.92 187.518 2251.96 188.652 Q2254.02 189.763 2255.36 192.078 M2240.85 201.129 Q2240.85 205.828 2242.77 208.513 Q2244.71 211.175 2248.09 211.175 Q2251.47 211.175 2253.42 208.513 Q2255.36 205.828 2255.36 201.129 Q2255.36 196.43 2253.42 193.768 Q2251.47 191.083 2248.09 191.083 Q2244.71 191.083 2242.77 193.768 Q2240.85 196.43 2240.85 201.129 Z" fill="#000000" fill-rule="nonzero" fill-opacity="1" /></svg>
