<?xml version="1.0" encoding="utf-8"?>
<svg xmlns="http://www.w3.org/2000/svg" xmlns:xlink="http://www.w3.org/1999/xlink" width="600" height="400" viewBox="0 0 2400 1600">
<defs>
  <clipPath id="clip620">
    <rect x="0" y="0" width="2400" height="1600"/>
  </clipPath>
</defs>
<path clip-path="url(#clip620)" d="M0 1600 L2400 1600 L2400 0 L0 0  Z" fill="#ffffff" fill-rule="evenodd" fill-opacity="1"/>
<defs>
  <clipPath id="clip621">
    <rect x="480" y="0" width="1681" height="1600"/>
  </clipPath>
</defs>
<path clip-path="url(#clip620)" d="M192.941 1486.45 L2352.76 1486.45 L2352.76 47.2441 L192.941 47.2441  Z" fill="#ffffff" fill-rule="evenodd" fill-opacity="1"/>
<defs>
  <clipPath id="clip622">
    <rect x="192" y="47" width="2161" height="1440"/>
  </clipPath>
</defs>
<polyline clip-path="url(#clip622)" style="stroke:#000000; stroke-linecap:round; stroke-linejoin:round; stroke-width:2; stroke-opacity:0.1; fill:none" points="254.067,1486.45 254.067,47.2441 "/>
<polyline clip-path="url(#clip622)" style="stroke:#000000; stroke-linecap:round; stroke-linejoin:round; stroke-width:2; stroke-opacity:0.1; fill:none" points="763.458,1486.45 763.458,47.2441 "/>
<polyline clip-path="url(#clip622)" style="stroke:#000000; stroke-linecap:round; stroke-linejoin:round; stroke-width:2; stroke-opacity:0.1; fill:none" points="1272.85,1486.45 1272.85,47.2441 "/>
<polyline clip-path="url(#clip622)" style="stroke:#000000; stroke-linecap:round; stroke-linejoin:round; stroke-width:2; stroke-opacity:0.1; fill:none" points="1782.24,1486.45 1782.24,47.2441 "/>
<polyline clip-path="url(#clip622)" style="stroke:#000000; stroke-linecap:round; stroke-linejoin:round; stroke-width:2; stroke-opacity:0.1; fill:none" points="2291.63,1486.45 2291.63,47.2441 "/>
<polyline clip-path="url(#clip620)" style="stroke:#000000; stroke-linecap:round; stroke-linejoin:round; stroke-width:4; stroke-opacity:1; fill:none" points="192.941,1486.45 2352.76,1486.45 "/>
<polyline clip-path="url(#clip620)" style="stroke:#000000; stroke-linecap:round; stroke-linejoin:round; stroke-width:4; stroke-opacity:1; fill:none" points="254.067,1486.45 254.067,1467.55 "/>
<polyline clip-path="url(#clip620)" style="stroke:#000000; stroke-linecap:round; stroke-linejoin:round; stroke-width:4; stroke-opacity:1; fill:none" points="763.458,1486.45 763.458,1467.55 "/>
<polyline clip-path="url(#clip620)" style="stroke:#000000; stroke-linecap:round; stroke-linejoin:round; stroke-width:4; stroke-opacity:1; fill:none" points="1272.85,1486.45 1272.85,1467.55 "/>
<polyline clip-path="url(#clip620)" style="stroke:#000000; stroke-linecap:round; stroke-linejoin:round; stroke-width:4; stroke-opacity:1; fill:none" points="1782.24,1486.45 1782.24,1467.55 "/>
<polyline clip-path="url(#clip620)" style="stroke:#000000; stroke-linecap:round; stroke-linejoin:round; stroke-width:4; stroke-opacity:1; fill:none" points="2291.63,1486.45 2291.63,1467.55 "/>
<path clip-path="url(#clip620)" d="M231.452 1517.37 Q227.841 1517.37 226.012 1520.93 Q224.207 1524.47 224.207 1531.6 Q224.207 1538.71 226.012 1542.27 Q227.841 1545.82 231.452 1545.82 Q235.086 1545.82 236.892 1542.27 Q238.72 1538.71 238.72 1531.6 Q238.72 1524.47 236.892 1520.93 Q235.086 1517.37 231.452 1517.37 M231.452 1513.66 Q237.262 1513.66 240.318 1518.27 Q243.396 1522.85 243.396 1531.6 Q243.396 1540.33 240.318 1544.94 Q237.262 1549.52 231.452 1549.52 Q225.642 1549.52 222.563 1544.94 Q219.507 1540.33 219.507 1531.6 Q219.507 1522.85 222.563 1518.27 Q225.642 1513.66 231.452 1513.66 Z" fill="#000000" fill-rule="nonzero" fill-opacity="1" /><path clip-path="url(#clip620)" d="M251.614 1542.97 L256.498 1542.97 L256.498 1548.85 L251.614 1548.85 L251.614 1542.97 Z" fill="#000000" fill-rule="nonzero" fill-opacity="1" /><path clip-path="url(#clip620)" d="M276.683 1517.37 Q273.072 1517.37 271.243 1520.93 Q269.438 1524.47 269.438 1531.6 Q269.438 1538.71 271.243 1542.27 Q273.072 1545.82 276.683 1545.82 Q280.317 1545.82 282.123 1542.27 Q283.952 1538.71 283.952 1531.6 Q283.952 1524.47 282.123 1520.93 Q280.317 1517.37 276.683 1517.37 M276.683 1513.66 Q282.493 1513.66 285.549 1518.27 Q288.627 1522.85 288.627 1531.6 Q288.627 1540.33 285.549 1544.94 Q282.493 1549.52 276.683 1549.52 Q270.873 1549.52 267.794 1544.94 Q264.739 1540.33 264.739 1531.6 Q264.739 1522.85 267.794 1518.27 Q270.873 1513.66 276.683 1513.66 Z" fill="#000000" fill-rule="nonzero" fill-opacity="1" /><path clip-path="url(#clip620)" d="M735.194 1544.91 L751.513 1544.91 L751.513 1548.85 L729.569 1548.85 L729.569 1544.91 Q732.231 1542.16 736.814 1537.53 Q741.421 1532.88 742.602 1531.53 Q744.847 1529.01 745.726 1527.27 Q746.629 1525.51 746.629 1523.82 Q746.629 1521.07 744.685 1519.33 Q742.764 1517.6 739.662 1517.6 Q737.463 1517.6 735.009 1518.36 Q732.578 1519.13 729.801 1520.68 L729.801 1515.95 Q732.625 1514.82 735.078 1514.24 Q737.532 1513.66 739.569 1513.66 Q744.939 1513.66 748.134 1516.35 Q751.328 1519.03 751.328 1523.52 Q751.328 1525.65 750.518 1527.57 Q749.731 1529.47 747.625 1532.07 Q747.046 1532.74 743.944 1535.95 Q740.842 1539.15 735.194 1544.91 Z" fill="#000000" fill-rule="nonzero" fill-opacity="1" /><path clip-path="url(#clip620)" d="M761.328 1542.97 L766.212 1542.97 L766.212 1548.85 L761.328 1548.85 L761.328 1542.97 Z" fill="#000000" fill-rule="nonzero" fill-opacity="1" /><path clip-path="url(#clip620)" d="M776.444 1514.29 L794.8 1514.29 L794.8 1518.22 L780.726 1518.22 L780.726 1526.7 Q781.745 1526.35 782.763 1526.19 Q783.782 1526 784.8 1526 Q790.587 1526 793.967 1529.17 Q797.347 1532.34 797.347 1537.76 Q797.347 1543.34 793.874 1546.44 Q790.402 1549.52 784.083 1549.52 Q781.907 1549.52 779.638 1549.15 Q777.393 1548.78 774.986 1548.04 L774.986 1543.34 Q777.069 1544.47 779.291 1545.03 Q781.513 1545.58 783.99 1545.58 Q787.995 1545.58 790.333 1543.48 Q792.671 1541.37 792.671 1537.76 Q792.671 1534.15 790.333 1532.04 Q787.995 1529.94 783.99 1529.94 Q782.115 1529.94 780.24 1530.35 Q778.388 1530.77 776.444 1531.65 L776.444 1514.29 Z" fill="#000000" fill-rule="nonzero" fill-opacity="1" /><path clip-path="url(#clip620)" d="M1240.01 1514.29 L1258.37 1514.29 L1258.37 1518.22 L1244.3 1518.22 L1244.3 1526.7 Q1245.31 1526.35 1246.33 1526.19 Q1247.35 1526 1248.37 1526 Q1254.16 1526 1257.54 1529.17 Q1260.92 1532.34 1260.92 1537.76 Q1260.92 1543.34 1257.44 1546.44 Q1253.97 1549.52 1247.65 1549.52 Q1245.48 1549.52 1243.21 1549.15 Q1240.96 1548.78 1238.55 1548.04 L1238.55 1543.34 Q1240.64 1544.47 1242.86 1545.03 Q1245.08 1545.58 1247.56 1545.58 Q1251.56 1545.58 1253.9 1543.48 Q1256.24 1541.37 1256.24 1537.76 Q1256.24 1534.15 1253.9 1532.04 Q1251.56 1529.94 1247.56 1529.94 Q1245.68 1529.94 1243.81 1530.35 Q1241.96 1530.77 1240.01 1531.65 L1240.01 1514.29 Z" fill="#000000" fill-rule="nonzero" fill-opacity="1" /><path clip-path="url(#clip620)" d="M1270.13 1542.97 L1275.01 1542.97 L1275.01 1548.85 L1270.13 1548.85 L1270.13 1542.97 Z" fill="#000000" fill-rule="nonzero" fill-opacity="1" /><path clip-path="url(#clip620)" d="M1295.2 1517.37 Q1291.59 1517.37 1289.76 1520.93 Q1287.95 1524.47 1287.95 1531.6 Q1287.95 1538.71 1289.76 1542.27 Q1291.59 1545.82 1295.2 1545.82 Q1298.83 1545.82 1300.64 1542.27 Q1302.47 1538.71 1302.47 1531.6 Q1302.47 1524.47 1300.64 1520.93 Q1298.83 1517.37 1295.2 1517.37 M1295.2 1513.66 Q1301.01 1513.66 1304.06 1518.27 Q1307.14 1522.85 1307.14 1531.6 Q1307.14 1540.33 1304.06 1544.94 Q1301.01 1549.52 1295.2 1549.52 Q1289.39 1549.52 1286.31 1544.94 Q1283.25 1540.33 1283.25 1531.6 Q1283.25 1522.85 1286.31 1518.27 Q1289.39 1513.66 1295.2 1513.66 Z" fill="#000000" fill-rule="nonzero" fill-opacity="1" /><path clip-path="url(#clip620)" d="M1748.56 1514.29 L1770.78 1514.29 L1770.78 1516.28 L1758.23 1548.85 L1753.35 1548.85 L1765.16 1518.22 L1748.56 1518.22 L1748.56 1514.29 Z" fill="#000000" fill-rule="nonzero" fill-opacity="1" /><path clip-path="url(#clip620)" d="M1779.9 1542.97 L1784.78 1542.97 L1784.78 1548.85 L1779.9 1548.85 L1779.9 1542.97 Z" fill="#000000" fill-rule="nonzero" fill-opacity="1" /><path clip-path="url(#clip620)" d="M1795.02 1514.29 L1813.37 1514.29 L1813.37 1518.22 L1799.3 1518.22 L1799.3 1526.7 Q1800.32 1526.35 1801.34 1526.19 Q1802.35 1526 1803.37 1526 Q1809.16 1526 1812.54 1529.17 Q1815.92 1532.34 1815.92 1537.76 Q1815.92 1543.34 1812.45 1546.44 Q1808.97 1549.52 1802.66 1549.52 Q1800.48 1549.52 1798.21 1549.15 Q1795.97 1548.78 1793.56 1548.04 L1793.56 1543.34 Q1795.64 1544.47 1797.86 1545.03 Q1800.09 1545.58 1802.56 1545.58 Q1806.57 1545.58 1808.91 1543.48 Q1811.24 1541.37 1811.24 1537.76 Q1811.24 1534.15 1808.91 1532.04 Q1806.57 1529.94 1802.56 1529.94 Q1800.69 1529.94 1798.81 1530.35 Q1796.96 1530.77 1795.02 1531.65 L1795.02 1514.29 Z" fill="#000000" fill-rule="nonzero" fill-opacity="1" /><path clip-path="url(#clip620)" d="M2243.7 1544.91 L2251.34 1544.91 L2251.34 1518.55 L2243.03 1520.21 L2243.03 1515.95 L2251.29 1514.29 L2255.97 1514.29 L2255.97 1544.91 L2263.61 1544.91 L2263.61 1548.85 L2243.7 1548.85 L2243.7 1544.91 Z" fill="#000000" fill-rule="nonzero" fill-opacity="1" /><path clip-path="url(#clip620)" d="M2283.05 1517.37 Q2279.44 1517.37 2277.61 1520.93 Q2275.81 1524.47 2275.81 1531.6 Q2275.81 1538.71 2277.61 1542.27 Q2279.44 1545.82 2283.05 1545.82 Q2286.69 1545.82 2288.49 1542.27 Q2290.32 1538.71 2290.32 1531.6 Q2290.32 1524.47 2288.49 1520.93 Q2286.69 1517.37 2283.05 1517.37 M2283.05 1513.66 Q2288.86 1513.66 2291.92 1518.27 Q2295 1522.85 2295 1531.6 Q2295 1540.33 2291.92 1544.94 Q2288.86 1549.52 2283.05 1549.52 Q2277.24 1549.52 2274.16 1544.94 Q2271.11 1540.33 2271.11 1531.6 Q2271.11 1522.85 2274.16 1518.27 Q2277.24 1513.66 2283.05 1513.66 Z" fill="#000000" fill-rule="nonzero" fill-opacity="1" /><path clip-path="url(#clip620)" d="M2303.21 1542.97 L2308.1 1542.97 L2308.1 1548.85 L2303.21 1548.85 L2303.21 1542.97 Z" fill="#000000" fill-rule="nonzero" fill-opacity="1" /><path clip-path="url(#clip620)" d="M2328.28 1517.37 Q2324.67 1517.37 2322.84 1520.93 Q2321.04 1524.47 2321.04 1531.6 Q2321.04 1538.71 2322.84 1542.27 Q2324.67 1545.82 2328.28 1545.82 Q2331.92 1545.82 2333.72 1542.27 Q2335.55 1538.71 2335.55 1531.6 Q2335.55 1524.47 2333.72 1520.93 Q2331.92 1517.37 2328.28 1517.37 M2328.28 1513.66 Q2334.09 1513.66 2337.15 1518.27 Q2340.23 1522.85 2340.23 1531.6 Q2340.23 1540.33 2337.15 1544.94 Q2334.09 1549.52 2328.28 1549.52 Q2322.47 1549.52 2319.4 1544.94 Q2316.34 1540.33 2316.34 1531.6 Q2316.34 1522.85 2319.4 1518.27 Q2322.47 1513.66 2328.28 1513.66 Z" fill="#000000" fill-rule="nonzero" fill-opacity="1" /><polyline clip-path="url(#clip622)" style="stroke:#000000; stroke-linecap:round; stroke-linejoin:round; stroke-width:2; stroke-opacity:0.1; fill:none" points="192.941,1217.17 2352.76,1217.17 "/>
<polyline clip-path="url(#clip622)" style="stroke:#000000; stroke-linecap:round; stroke-linejoin:round; stroke-width:2; stroke-opacity:0.1; fill:none" points="192.941,840.775 2352.76,840.775 "/>
<polyline clip-path="url(#clip622)" style="stroke:#000000; stroke-linecap:round; stroke-linejoin:round; stroke-width:2; stroke-opacity:0.1; fill:none" points="192.941,464.376 2352.76,464.376 "/>
<polyline clip-path="url(#clip622)" style="stroke:#000000; stroke-linecap:round; stroke-linejoin:round; stroke-width:2; stroke-opacity:0.1; fill:none" points="192.941,87.9763 2352.76,87.9763 "/>
<polyline clip-path="url(#clip620)" style="stroke:#000000; stroke-linecap:round; stroke-linejoin:round; stroke-width:4; stroke-opacity:1; fill:none" points="192.941,1486.45 192.941,47.2441 "/>
<polyline clip-path="url(#clip620)" style="stroke:#000000; stroke-linecap:round; stroke-linejoin:round; stroke-width:4; stroke-opacity:1; fill:none" points="192.941,1217.17 211.838,1217.17 "/>
<polyline clip-path="url(#clip620)" style="stroke:#000000; stroke-linecap:round; stroke-linejoin:round; stroke-width:4; stroke-opacity:1; fill:none" points="192.941,840.775 211.838,840.775 "/>
<polyline clip-path="url(#clip620)" style="stroke:#000000; stroke-linecap:round; stroke-linejoin:round; stroke-width:4; stroke-opacity:1; fill:none" points="192.941,464.376 211.838,464.376 "/>
<polyline clip-path="url(#clip620)" style="stroke:#000000; stroke-linecap:round; stroke-linejoin:round; stroke-width:4; stroke-opacity:1; fill:none" points="192.941,87.9763 211.838,87.9763 "/>
<path clip-path="url(#clip620)" d="M50.9921 1217.63 L80.6679 1217.63 L80.6679 1221.56 L50.9921 1221.56 L50.9921 1217.63 Z" fill="#000000" fill-rule="nonzero" fill-opacity="1" /><path clip-path="url(#clip620)" d="M100.76 1202.97 Q97.1493 1202.97 95.3206 1206.54 Q93.515 1210.08 93.515 1217.21 Q93.515 1224.32 95.3206 1227.88 Q97.1493 1231.42 100.76 1231.42 Q104.395 1231.42 106.2 1227.88 Q108.029 1224.32 108.029 1217.21 Q108.029 1210.08 106.2 1206.54 Q104.395 1202.97 100.76 1202.97 M100.76 1199.27 Q106.571 1199.27 109.626 1203.88 Q112.705 1208.46 112.705 1217.21 Q112.705 1225.94 109.626 1230.54 Q106.571 1235.13 100.76 1235.13 Q94.9502 1235.13 91.8715 1230.54 Q88.816 1225.94 88.816 1217.21 Q88.816 1208.46 91.8715 1203.88 Q94.9502 1199.27 100.76 1199.27 Z" fill="#000000" fill-rule="nonzero" fill-opacity="1" /><path clip-path="url(#clip620)" d="M120.922 1228.57 L125.807 1228.57 L125.807 1234.45 L120.922 1234.45 L120.922 1228.57 Z" fill="#000000" fill-rule="nonzero" fill-opacity="1" /><path clip-path="url(#clip620)" d="M136.038 1199.89 L154.394 1199.89 L154.394 1203.83 L140.32 1203.83 L140.32 1212.3 Q141.339 1211.95 142.357 1211.79 Q143.376 1211.61 144.394 1211.61 Q150.181 1211.61 153.561 1214.78 Q156.941 1217.95 156.941 1223.37 Q156.941 1228.95 153.468 1232.05 Q149.996 1235.13 143.677 1235.13 Q141.501 1235.13 139.232 1234.76 Q136.987 1234.38 134.58 1233.64 L134.58 1228.95 Q136.663 1230.08 138.885 1230.63 Q141.107 1231.19 143.584 1231.19 Q147.589 1231.19 149.927 1229.08 Q152.265 1226.98 152.265 1223.37 Q152.265 1219.76 149.927 1217.65 Q147.589 1215.54 143.584 1215.54 Q141.709 1215.54 139.834 1215.96 Q137.982 1216.38 136.038 1217.26 L136.038 1199.89 Z" fill="#000000" fill-rule="nonzero" fill-opacity="1" /><path clip-path="url(#clip620)" d="M99.765 826.574 Q96.1539 826.574 94.3252 830.138 Q92.5197 833.68 92.5197 840.81 Q92.5197 847.916 94.3252 851.481 Q96.1539 855.023 99.765 855.023 Q103.399 855.023 105.205 851.481 Q107.033 847.916 107.033 840.81 Q107.033 833.68 105.205 830.138 Q103.399 826.574 99.765 826.574 M99.765 822.87 Q105.575 822.87 108.631 827.476 Q111.709 832.06 111.709 840.81 Q111.709 849.536 108.631 854.143 Q105.575 858.726 99.765 858.726 Q93.9549 858.726 90.8762 854.143 Q87.8206 849.536 87.8206 840.81 Q87.8206 832.06 90.8762 827.476 Q93.9549 822.87 99.765 822.87 Z" fill="#000000" fill-rule="nonzero" fill-opacity="1" /><path clip-path="url(#clip620)" d="M119.927 852.175 L124.811 852.175 L124.811 858.055 L119.927 858.055 L119.927 852.175 Z" fill="#000000" fill-rule="nonzero" fill-opacity="1" /><path clip-path="url(#clip620)" d="M144.996 826.574 Q141.385 826.574 139.556 830.138 Q137.751 833.68 137.751 840.81 Q137.751 847.916 139.556 851.481 Q141.385 855.023 144.996 855.023 Q148.63 855.023 150.436 851.481 Q152.265 847.916 152.265 840.81 Q152.265 833.68 150.436 830.138 Q148.63 826.574 144.996 826.574 M144.996 822.87 Q150.806 822.87 153.862 827.476 Q156.941 832.06 156.941 840.81 Q156.941 849.536 153.862 854.143 Q150.806 858.726 144.996 858.726 Q139.186 858.726 136.107 854.143 Q133.052 849.536 133.052 840.81 Q133.052 832.06 136.107 827.476 Q139.186 822.87 144.996 822.87 Z" fill="#000000" fill-rule="nonzero" fill-opacity="1" /><path clip-path="url(#clip620)" d="M100.76 450.174 Q97.1493 450.174 95.3206 453.739 Q93.515 457.281 93.515 464.41 Q93.515 471.517 95.3206 475.082 Q97.1493 478.623 100.76 478.623 Q104.395 478.623 106.2 475.082 Q108.029 471.517 108.029 464.41 Q108.029 457.281 106.2 453.739 Q104.395 450.174 100.76 450.174 M100.76 446.471 Q106.571 446.471 109.626 451.077 Q112.705 455.66 112.705 464.41 Q112.705 473.137 109.626 477.744 Q106.571 482.327 100.76 482.327 Q94.9502 482.327 91.8715 477.744 Q88.816 473.137 88.816 464.41 Q88.816 455.66 91.8715 451.077 Q94.9502 446.471 100.76 446.471 Z" fill="#000000" fill-rule="nonzero" fill-opacity="1" /><path clip-path="url(#clip620)" d="M120.922 475.776 L125.807 475.776 L125.807 481.656 L120.922 481.656 L120.922 475.776 Z" fill="#000000" fill-rule="nonzero" fill-opacity="1" /><path clip-path="url(#clip620)" d="M136.038 447.096 L154.394 447.096 L154.394 451.031 L140.32 451.031 L140.32 459.503 Q141.339 459.156 142.357 458.994 Q143.376 458.809 144.394 458.809 Q150.181 458.809 153.561 461.98 Q156.941 465.151 156.941 470.568 Q156.941 476.146 153.468 479.248 Q149.996 482.327 143.677 482.327 Q141.501 482.327 139.232 481.957 Q136.987 481.586 134.58 480.845 L134.58 476.146 Q136.663 477.281 138.885 477.836 Q141.107 478.392 143.584 478.392 Q147.589 478.392 149.927 476.285 Q152.265 474.179 152.265 470.568 Q152.265 466.957 149.927 464.85 Q147.589 462.744 143.584 462.744 Q141.709 462.744 139.834 463.16 Q137.982 463.577 136.038 464.457 L136.038 447.096 Z" fill="#000000" fill-rule="nonzero" fill-opacity="1" /><path clip-path="url(#clip620)" d="M90.5752 101.321 L98.2141 101.321 L98.2141 74.9555 L89.904 76.6222 L89.904 72.3629 L98.1678 70.6963 L102.844 70.6963 L102.844 101.321 L110.483 101.321 L110.483 105.256 L90.5752 105.256 L90.5752 101.321 Z" fill="#000000" fill-rule="nonzero" fill-opacity="1" /><path clip-path="url(#clip620)" d="M119.927 99.3767 L124.811 99.3767 L124.811 105.256 L119.927 105.256 L119.927 99.3767 Z" fill="#000000" fill-rule="nonzero" fill-opacity="1" /><path clip-path="url(#clip620)" d="M144.996 73.775 Q141.385 73.775 139.556 77.3398 Q137.751 80.8814 137.751 88.011 Q137.751 95.1174 139.556 98.6822 Q141.385 102.224 144.996 102.224 Q148.63 102.224 150.436 98.6822 Q152.265 95.1174 152.265 88.011 Q152.265 80.8814 150.436 77.3398 Q148.63 73.775 144.996 73.775 M144.996 70.0713 Q150.806 70.0713 153.862 74.6777 Q156.941 79.261 156.941 88.011 Q156.941 96.7378 153.862 101.344 Q150.806 105.928 144.996 105.928 Q139.186 105.928 136.107 101.344 Q133.052 96.7378 133.052 88.011 Q133.052 79.261 136.107 74.6777 Q139.186 70.0713 144.996 70.0713 Z" fill="#000000" fill-rule="nonzero" fill-opacity="1" /><polyline clip-path="url(#clip622)" style="stroke:#009af9; stroke-linecap:round; stroke-linejoin:round; stroke-width:4; stroke-opacity:1; fill:none" points="254.067,87.9763 274.443,92.0846 294.819,104.244 315.194,124.121 335.57,151.263 355.946,185.106 376.321,224.991 396.697,270.175 417.072,319.87 437.448,373.26 457.824,429.529 478.199,487.883 498.575,547.57 518.95,607.887 539.326,668.186 559.702,727.874 580.077,786.413 600.453,843.32 620.829,898.164 641.204,950.548 661.58,1000.11 681.955,1046.52 702.331,1089.49 722.707,1128.76 743.082,1164.09 763.458,1195.27 783.833,1222.11 804.209,1244.47 824.585,1262.24 844.96,1275.34 865.336,1283.74 885.712,1287.43 906.087,1286.47 926.463,1280.97 946.838,1271.07 967.214,1256.99 987.59,1238.96 1007.97,1217.29 1028.34,1192.3 1048.72,1164.34 1069.09,1133.8 1089.47,1101.1 1109.84,1066.63 1130.22,1030.83 1150.59,994.094 1170.97,956.826 1191.35,919.414 1211.72,882.238 1232.1,845.648 1252.47,809.98 1272.85,775.552 1293.22,742.658 1313.6,711.564 1333.98,682.512 1354.35,655.716 1374.73,631.373 1395.1,609.662 1415.48,590.739 1435.85,574.724 1456.23,561.711 1476.6,551.763 1496.98,544.911 1517.36,541.163 1537.73,540.497 1558.11,542.864 1578.48,548.18 1598.86,556.333 1619.23,567.177 1639.61,580.538 1659.98,596.218 1680.36,614.007 1700.74,633.669 1721.11,654.961 1741.49,677.628 1761.86,701.407 1782.24,726.027 1802.61,751.211 1822.99,776.703 1843.37,802.235 1863.74,827.554 1884.12,852.416 1904.49,876.592 1924.87,899.865 1945.24,922.033 1965.62,942.906 1985.99,962.315 2006.37,980.099 2026.75,996.119 2047.12,1010.26 2067.5,1022.42 2087.87,1032.52 2108.25,1040.51 2128.62,1046.37 2149,1050.05 2169.38,1051.58 2189.75,1050.97 2210.13,1048.27 2230.5,1043.55 2250.88,1036.91 2271.25,1028.45 2291.63,1018.3 "/>
<polyline clip-path="url(#clip622)" style="stroke:#e26f46; stroke-linecap:round; stroke-linejoin:round; stroke-width:4; stroke-opacity:1; fill:none" points="254.067,840.775 274.443,922.576 294.819,1001.61 315.194,1076.72 335.57,1146.73 355.946,1210.59 376.321,1267.4 396.697,1316.52 417.072,1357.57 437.448,1390.41 457.824,1415.18 478.199,1432.21 498.575,1441.93 518.95,1444.87 539.326,1441.63 559.702,1432.75 580.077,1418.79 600.453,1400.23 620.829,1377.51 641.204,1351.03 661.58,1321.14 681.955,1288.17 702.331,1252.41 722.707,1214.13 743.082,1173.63 763.458,1131.16 783.833,1087.05 804.209,1041.62 824.585,995.219 844.96,948.246 865.336,901.128 885.712,854.316 906.087,808.283 926.463,763.517 946.838,720.525 967.214,679.78 987.59,641.746 1007.97,606.834 1028.34,575.387 1048.72,547.682 1069.09,523.929 1089.47,504.263 1109.84,488.737 1130.22,477.35 1150.59,470.05 1170.97,466.736 1191.35,467.258 1211.72,471.416 1232.1,479.014 1252.47,489.85 1272.85,503.707 1293.22,520.362 1313.6,539.586 1333.98,561.146 1354.35,584.802 1374.73,610.311 1395.1,637.427 1415.48,665.897 1435.85,695.453 1456.23,725.818 1476.6,756.702 1496.98,787.805 1517.36,818.832 1537.73,849.465 1558.11,879.393 1578.48,908.317 1598.86,935.953 1619.23,962.029 1639.61,986.285 1659.98,1008.49 1680.36,1028.46 1700.74,1046.02 1721.11,1061.04 1741.49,1073.44 1761.86,1083.16 1782.24,1090.19 1802.61,1094.55 1822.99,1096.27 1843.37,1095.42 1863.74,1092.1 1884.12,1086.39 1904.49,1078.42 1924.87,1068.33 1945.24,1056.27 1965.62,1042.42 1985.99,1026.93 2006.37,1009.98 2026.75,991.759 2047.12,972.447 2067.5,952.247 2087.87,931.365 2108.25,910.011 2128.62,888.395 2149,866.735 2169.38,845.249 2189.75,824.145 2210.13,803.626 2230.5,783.89 2250.88,765.127 2271.25,747.518 2291.63,731.223 "/>
<polyline clip-path="url(#clip622)" style="stroke:#3da44d; stroke-linecap:round; stroke-linejoin:round; stroke-width:4; stroke-opacity:1; fill:none" points="254.067,87.9763 274.443,105.28 294.819,132.508 315.194,160.454 335.57,188.601 355.946,217.937 376.321,249.927 396.697,286.227 417.072,328.344 437.448,376.826 457.824,430.792 478.199,488.521 498.575,548.24 518.95,608.68 539.326,669.045 559.702,728.806 580.077,787.541 600.453,844.757 620.829,899.905 641.204,952.43 661.58,1001.81 681.955,1047.69 702.331,1089.93 722.707,1128.62 743.082,1163.77 763.458,1195.36 783.833,1223.08 804.209,1246.42 824.585,1264.79 844.96,1277.65 865.336,1284.84 885.712,1286.63 906.087,1283.63 926.463,1276.57 946.838,1265.95 967.214,1252.09 987.59,1235.15 1007.97,1215.11 1028.34,1191.89 1048.72,1165.52 1069.09,1136.09 1089.47,1103.93 1109.84,1069.47 1130.22,1033.26 1150.59,995.856 1170.97,957.838 1191.35,919.723 1211.72,881.988 1232.1,845.065 1252.47,809.32 1272.85,775.054 1293.22,742.507 1313.6,711.843 1333.98,683.164 1354.35,656.569 1374.73,632.173 1395.1,610.105 1415.48,590.506 1435.85,573.59 1456.23,559.716 1476.6,549.172 1496.98,542.161 1517.36,538.803 1537.73,538.994 1558.11,542.448 1578.48,548.869 1598.86,557.957 1619.23,569.42 1639.61,583.069 1659.98,598.775 1680.36,616.408 1700.74,635.84 1721.11,656.943 1741.49,679.535 1761.86,703.333 1782.24,728.032 1802.61,753.312 1822.99,778.839 1843.37,804.268 1863.74,829.277 1884.12,853.594 1904.49,876.995 1924.87,899.307 1945.24,920.406 1965.62,940.215 1985.99,958.683 2006.37,975.763 2026.75,991.411 2047.12,1005.58 2067.5,1018.24 2087.87,1029.3 2108.25,1038.62 2128.62,1046.01 2149,1051.2 2169.38,1053.84 2189.75,1053.55 2210.13,1049.85 2230.5,1042.14 2250.88,1030.06 2271.25,1013.61 2291.63,993.107 "/>
<polyline clip-path="url(#clip622)" style="stroke:#c271d2; stroke-linecap:round; stroke-linejoin:round; stroke-width:4; stroke-opacity:1; fill:none" points="254.067,840.775 274.443,1096.9 294.819,1119.96 315.194,1120.24 335.57,1126.02 355.946,1144.74 376.321,1179.41 396.697,1230.81 417.072,1294.06 437.448,1355.52 457.824,1402.42 478.199,1430.73 498.575,1443.31 518.95,1445.72 539.326,1442.05 559.702,1433.99 580.077,1421.35 600.453,1403.55 620.829,1380.13 641.204,1351.07 661.58,1317.47 681.955,1281.42 702.331,1245.21 722.707,1209.86 743.082,1174.79 763.458,1138.01 783.833,1097.13 804.209,1050.33 824.585,997.597 844.96,940.742 865.336,884.651 885.712,833.725 906.087,789.602 926.463,751.622 946.838,717.994 967.214,686.687 987.59,655.899 1007.97,624.621 1028.34,592.822 1048.72,561.442 1069.09,532.192 1089.47,506.819 1109.84,486.499 1130.22,471.8 1150.59,462.773 1170.97,459.207 1191.35,460.729 1211.72,466.805 1232.1,476.858 1252.47,490.27 1272.85,506.386 1293.22,524.527 1313.6,544.044 1333.98,564.531 1354.35,585.838 1374.73,608.105 1395.1,631.769 1415.48,657.556 1435.85,686.221 1456.23,718.04 1476.6,752.706 1496.98,789.106 1517.36,825.328 1537.73,859.518 1558.11,890.785 1578.48,918.815 1598.86,943.863 1619.23,966.64 1639.61,987.704 1659.98,1007.54 1680.36,1026.3 1700.74,1043.81 1721.11,1059.57 1741.49,1073.07 1761.86,1083.8 1782.24,1091.34 1802.61,1095.47 1822.99,1096.13 1843.37,1093.46 1863.74,1087.81 1884.12,1079.69 1904.49,1069.59 1924.87,1058.01 1945.24,1045.4 1965.62,1032.13 1985.99,1018.43 2006.37,1004.4 2026.75,990.035 2047.12,975.191 2067.5,959.6 2087.87,942.9 2108.25,924.608 2128.62,904.102 2149,880.653 2169.38,853.427 2189.75,821.487 2210.13,784.164 2230.5,742.383 2250.88,698.314 2271.25,655.222 2291.63,617.462 "/>
<path clip-path="url(#clip620)" d="M1880.96 354.418 L2280.76 354.418 L2280.76 95.2176 L1880.96 95.2176  Z" fill="#ffffff" fill-rule="evenodd" fill-opacity="1"/>
<polyline clip-path="url(#clip620)" style="stroke:#000000; stroke-linecap:round; stroke-linejoin:round; stroke-width:4; stroke-opacity:1; fill:none" points="1880.96,354.418 2280.76,354.418 2280.76,95.2176 1880.96,95.2176 1880.96,354.418 "/>
<polyline clip-path="url(#clip620)" style="stroke:#009af9; stroke-linecap:round; stroke-linejoin:round; stroke-width:4; stroke-opacity:1; fill:none" points="1904.96,147.058 2048.95,147.058 "/>
<path clip-path="url(#clip620)" d="M2074.52 129.778 L2079.54 129.778 L2088.13 142.625 L2096.76 129.778 L2101.79 129.778 L2090.68 146.375 L2102.53 164.338 L2097.51 164.338 L2087.78 149.639 L2077.99 164.338 L2072.95 164.338 L2085.28 145.889 L2074.52 129.778 Z" fill="#000000" fill-rule="nonzero" fill-opacity="1" /><path clip-path="url(#clip620)" d="M2133.78 128.366 Q2130.68 133.69 2129.17 138.898 Q2127.67 144.106 2127.67 149.453 Q2127.67 154.801 2129.17 160.055 Q2130.7 165.287 2133.78 170.588 L2130.07 170.588 Q2126.6 165.148 2124.87 159.893 Q2123.15 154.639 2123.15 149.453 Q2123.15 144.291 2124.87 139.06 Q2126.58 133.828 2130.07 128.366 L2133.78 128.366 Z" fill="#000000" fill-rule="nonzero" fill-opacity="1" /><path clip-path="url(#clip620)" d="M2156.26 132.949 Q2151.16 132.949 2148.15 136.745 Q2145.17 140.541 2145.17 147.092 Q2145.17 153.62 2148.15 157.416 Q2151.16 161.213 2156.26 161.213 Q2161.35 161.213 2164.31 157.416 Q2167.3 153.62 2167.3 147.092 Q2167.3 140.541 2164.31 136.745 Q2161.35 132.949 2156.26 132.949 M2156.26 129.153 Q2163.52 129.153 2167.88 134.037 Q2172.23 138.898 2172.23 147.092 Q2172.23 155.264 2167.88 160.148 Q2163.52 165.009 2156.26 165.009 Q2148.96 165.009 2144.59 160.148 Q2140.24 155.287 2140.24 147.092 Q2140.24 138.898 2144.59 134.037 Q2148.96 129.153 2156.26 129.153 Z" fill="#000000" fill-rule="nonzero" fill-opacity="1" /><path clip-path="url(#clip620)" d="M2184.22 133.62 L2184.22 160.495 L2189.87 160.495 Q2197.02 160.495 2200.33 157.254 Q2203.66 154.014 2203.66 147.023 Q2203.66 140.078 2200.33 136.861 Q2197.02 133.62 2189.87 133.62 L2184.22 133.62 M2179.54 129.778 L2189.15 129.778 Q2199.19 129.778 2203.89 133.967 Q2208.59 138.134 2208.59 147.023 Q2208.59 155.958 2203.87 160.148 Q2199.15 164.338 2189.15 164.338 L2179.54 164.338 L2179.54 129.778 Z" fill="#000000" fill-rule="nonzero" fill-opacity="1" /><path clip-path="url(#clip620)" d="M2216.05 129.778 L2237.9 129.778 L2237.9 133.713 L2220.72 133.713 L2220.72 143.944 L2237.18 143.944 L2237.18 147.879 L2220.72 147.879 L2220.72 160.402 L2238.32 160.402 L2238.32 164.338 L2216.05 164.338 L2216.05 129.778 Z" fill="#000000" fill-rule="nonzero" fill-opacity="1" /><path clip-path="url(#clip620)" d="M2245.14 128.366 L2248.85 128.366 Q2252.32 133.828 2254.03 139.06 Q2255.77 144.291 2255.77 149.453 Q2255.77 154.639 2254.03 159.893 Q2252.32 165.148 2248.85 170.588 L2245.14 170.588 Q2248.22 165.287 2249.73 160.055 Q2251.25 154.801 2251.25 149.453 Q2251.25 144.106 2249.73 138.898 Q2248.22 133.69 2245.14 128.366 Z" fill="#000000" fill-rule="nonzero" fill-opacity="1" /><polyline clip-path="url(#clip620)" style="stroke:#e26f46; stroke-linecap:round; stroke-linejoin:round; stroke-width:4; stroke-opacity:1; fill:none" points="1904.96,198.898 2048.95,198.898 "/>
<path clip-path="url(#clip620)" d="M2086.14 216.178 L2072.95 181.618 L2077.83 181.618 L2088.78 210.715 L2099.75 181.618 L2104.61 181.618 L2091.44 216.178 L2086.14 216.178 Z" fill="#000000" fill-rule="nonzero" fill-opacity="1" /><path clip-path="url(#clip620)" d="M2134.77 180.206 Q2131.67 185.53 2130.17 190.738 Q2128.66 195.946 2128.66 201.293 Q2128.66 206.641 2130.17 211.895 Q2131.7 217.127 2134.77 222.428 L2131.07 222.428 Q2127.6 216.988 2125.86 211.733 Q2124.15 206.479 2124.15 201.293 Q2124.15 196.131 2125.86 190.9 Q2127.57 185.668 2131.07 180.206 L2134.77 180.206 Z" fill="#000000" fill-rule="nonzero" fill-opacity="1" /><path clip-path="url(#clip620)" d="M2157.25 184.789 Q2152.16 184.789 2149.15 188.585 Q2146.16 192.381 2146.16 198.932 Q2146.16 205.46 2149.15 209.256 Q2152.16 213.053 2157.25 213.053 Q2162.34 213.053 2165.31 209.256 Q2168.29 205.46 2168.29 198.932 Q2168.29 192.381 2165.31 188.585 Q2162.34 184.789 2157.25 184.789 M2157.25 180.993 Q2164.52 180.993 2168.87 185.877 Q2173.22 190.738 2173.22 198.932 Q2173.22 207.104 2168.87 211.988 Q2164.52 216.849 2157.25 216.849 Q2149.96 216.849 2145.58 211.988 Q2141.23 207.127 2141.23 198.932 Q2141.23 190.738 2145.58 185.877 Q2149.96 180.993 2157.25 180.993 Z" fill="#000000" fill-rule="nonzero" fill-opacity="1" /><path clip-path="url(#clip620)" d="M2185.21 185.46 L2185.21 212.335 L2190.86 212.335 Q2198.01 212.335 2201.32 209.094 Q2204.66 205.854 2204.66 198.863 Q2204.66 191.918 2201.32 188.701 Q2198.01 185.46 2190.86 185.46 L2185.21 185.46 M2180.54 181.618 L2190.14 181.618 Q2200.19 181.618 2204.89 185.807 Q2209.59 189.974 2209.59 198.863 Q2209.59 207.798 2204.87 211.988 Q2200.14 216.178 2190.14 216.178 L2180.54 216.178 L2180.54 181.618 Z" fill="#000000" fill-rule="nonzero" fill-opacity="1" /><path clip-path="url(#clip620)" d="M2217.04 181.618 L2238.89 181.618 L2238.89 185.553 L2221.72 185.553 L2221.72 195.784 L2238.18 195.784 L2238.18 199.719 L2221.72 199.719 L2221.72 212.242 L2239.31 212.242 L2239.31 216.178 L2217.04 216.178 L2217.04 181.618 Z" fill="#000000" fill-rule="nonzero" fill-opacity="1" /><path clip-path="url(#clip620)" d="M2246.14 180.206 L2249.84 180.206 Q2253.32 185.668 2255.03 190.9 Q2256.76 196.131 2256.76 201.293 Q2256.76 206.479 2255.03 211.733 Q2253.32 216.988 2249.84 222.428 L2246.14 222.428 Q2249.22 217.127 2250.72 211.895 Q2252.25 206.641 2252.25 201.293 Q2252.25 195.946 2250.72 190.738 Q2249.22 185.53 2246.14 180.206 Z" fill="#000000" fill-rule="nonzero" fill-opacity="1" /><polyline clip-path="url(#clip620)" style="stroke:#3da44d; stroke-linecap:round; stroke-linejoin:round; stroke-width:4; stroke-opacity:1; fill:none" points="1904.96,250.738 2048.95,250.738 "/>
<path clip-path="url(#clip620)" d="M2074.52 233.458 L2079.54 233.458 L2088.13 246.305 L2096.76 233.458 L2101.79 233.458 L2090.68 250.055 L2102.53 268.018 L2097.51 268.018 L2087.78 253.319 L2077.99 268.018 L2072.95 268.018 L2085.28 249.569 L2074.52 233.458 Z" fill="#000000" fill-rule="nonzero" fill-opacity="1" /><path clip-path="url(#clip620)" d="M2133.78 232.046 Q2130.68 237.37 2129.17 242.578 Q2127.67 247.786 2127.67 253.133 Q2127.67 258.481 2129.17 263.735 Q2130.7 268.967 2133.78 274.268 L2130.07 274.268 Q2126.6 268.828 2124.87 263.573 Q2123.15 258.319 2123.15 253.133 Q2123.15 247.971 2124.87 242.74 Q2126.58 237.508 2130.07 232.046 L2133.78 232.046 Z" fill="#000000" fill-rule="nonzero" fill-opacity="1" /><path clip-path="url(#clip620)" d="M2142.23 233.458 L2148.52 233.458 L2163.85 262.369 L2163.85 233.458 L2168.38 233.458 L2168.38 268.018 L2162.09 268.018 L2146.76 239.106 L2146.76 268.018 L2142.23 268.018 L2142.23 233.458 Z" fill="#000000" fill-rule="nonzero" fill-opacity="1" /><path clip-path="url(#clip620)" d="M2177.69 233.458 L2183.99 233.458 L2199.31 262.369 L2199.31 233.458 L2203.85 233.458 L2203.85 268.018 L2197.55 268.018 L2182.23 239.106 L2182.23 268.018 L2177.69 268.018 L2177.69 233.458 Z" fill="#000000" fill-rule="nonzero" fill-opacity="1" /><path clip-path="url(#clip620)" d="M2212.3 232.046 L2216 232.046 Q2219.47 237.508 2221.19 242.74 Q2222.92 247.971 2222.92 253.133 Q2222.92 258.319 2221.19 263.573 Q2219.47 268.828 2216 274.268 L2212.3 274.268 Q2215.38 268.967 2216.88 263.735 Q2218.41 258.481 2218.41 253.133 Q2218.41 247.786 2216.88 242.578 Q2215.38 237.37 2212.3 232.046 Z" fill="#000000" fill-rule="nonzero" fill-opacity="1" /><polyline clip-path="url(#clip620)" style="stroke:#c271d2; stroke-linecap:round; stroke-linejoin:round; stroke-width:4; stroke-opacity:1; fill:none" points="1904.96,302.578 2048.95,302.578 "/>
<path clip-path="url(#clip620)" d="M2086.14 319.858 L2072.95 285.298 L2077.83 285.298 L2088.78 314.395 L2099.75 285.298 L2104.61 285.298 L2091.44 319.858 L2086.14 319.858 Z" fill="#000000" fill-rule="nonzero" fill-opacity="1" /><path clip-path="url(#clip620)" d="M2134.77 283.886 Q2131.67 289.21 2130.17 294.418 Q2128.66 299.626 2128.66 304.973 Q2128.66 310.321 2130.17 315.575 Q2131.7 320.807 2134.77 326.108 L2131.07 326.108 Q2127.6 320.668 2125.86 315.413 Q2124.15 310.159 2124.15 304.973 Q2124.15 299.811 2125.86 294.58 Q2127.57 289.348 2131.07 283.886 L2134.77 283.886 Z" fill="#000000" fill-rule="nonzero" fill-opacity="1" /><path clip-path="url(#clip620)" d="M2143.22 285.298 L2149.52 285.298 L2164.84 314.209 L2164.84 285.298 L2169.38 285.298 L2169.38 319.858 L2163.08 319.858 L2147.76 290.946 L2147.76 319.858 L2143.22 319.858 L2143.22 285.298 Z" fill="#000000" fill-rule="nonzero" fill-opacity="1" /><path clip-path="url(#clip620)" d="M2178.69 285.298 L2184.98 285.298 L2200.31 314.209 L2200.31 285.298 L2204.84 285.298 L2204.84 319.858 L2198.55 319.858 L2183.22 290.946 L2183.22 319.858 L2178.69 319.858 L2178.69 285.298 Z" fill="#000000" fill-rule="nonzero" fill-opacity="1" /><path clip-path="url(#clip620)" d="M2213.29 283.886 L2217 283.886 Q2220.47 289.348 2222.18 294.58 Q2223.92 299.811 2223.92 304.973 Q2223.92 310.159 2222.18 315.413 Q2220.47 320.668 2217 326.108 L2213.29 326.108 Q2216.37 320.807 2217.88 315.575 Q2219.4 310.321 2219.4 304.973 Q2219.4 299.626 2217.88 294.418 Q2216.37 289.21 2213.29 283.886 Z" fill="#000000" fill-rule="nonzero" fill-opacity="1" /></svg>
