<?xml version="1.0" encoding="utf-8"?>
<svg xmlns="http://www.w3.org/2000/svg" xmlns:xlink="http://www.w3.org/1999/xlink" width="600" height="400" viewBox="0 0 2400 1600">
<defs>
  <clipPath id="clip070">
    <rect x="0" y="0" width="2400" height="1600"/>
  </clipPath>
</defs>
<path clip-path="url(#clip070)" d="M0 1600 L2400 1600 L2400 0 L0 0  Z" fill="#ffffff" fill-rule="evenodd" fill-opacity="1"/>
<defs>
  <clipPath id="clip071">
    <rect x="480" y="0" width="1681" height="1600"/>
  </clipPath>
</defs>
<path clip-path="url(#clip070)" d="M178.867 1486.45 L2352.76 1486.45 L2352.76 47.2441 L178.867 47.2441  Z" fill="#ffffff" fill-rule="evenodd" fill-opacity="1"/>
<defs>
  <clipPath id="clip072">
    <rect x="178" y="47" width="2175" height="1440"/>
  </clipPath>
</defs>
<polyline clip-path="url(#clip072)" style="stroke:#000000; stroke-linecap:round; stroke-linejoin:round; stroke-width:2; stroke-opacity:0.1; fill:none" points="240.392,1486.45 240.392,47.2441 "/>
<polyline clip-path="url(#clip072)" style="stroke:#000000; stroke-linecap:round; stroke-linejoin:round; stroke-width:2; stroke-opacity:0.1; fill:none" points="924.005,1486.45 924.005,47.2441 "/>
<polyline clip-path="url(#clip072)" style="stroke:#000000; stroke-linecap:round; stroke-linejoin:round; stroke-width:2; stroke-opacity:0.1; fill:none" points="1607.62,1486.45 1607.62,47.2441 "/>
<polyline clip-path="url(#clip072)" style="stroke:#000000; stroke-linecap:round; stroke-linejoin:round; stroke-width:2; stroke-opacity:0.1; fill:none" points="2291.23,1486.45 2291.23,47.2441 "/>
<polyline clip-path="url(#clip070)" style="stroke:#000000; stroke-linecap:round; stroke-linejoin:round; stroke-width:4; stroke-opacity:1; fill:none" points="178.867,1486.45 2352.76,1486.45 "/>
<polyline clip-path="url(#clip070)" style="stroke:#000000; stroke-linecap:round; stroke-linejoin:round; stroke-width:4; stroke-opacity:1; fill:none" points="240.392,1486.45 240.392,1467.55 "/>
<polyline clip-path="url(#clip070)" style="stroke:#000000; stroke-linecap:round; stroke-linejoin:round; stroke-width:4; stroke-opacity:1; fill:none" points="924.005,1486.45 924.005,1467.55 "/>
<polyline clip-path="url(#clip070)" style="stroke:#000000; stroke-linecap:round; stroke-linejoin:round; stroke-width:4; stroke-opacity:1; fill:none" points="1607.62,1486.45 1607.62,1467.55 "/>
<polyline clip-path="url(#clip070)" style="stroke:#000000; stroke-linecap:round; stroke-linejoin:round; stroke-width:4; stroke-opacity:1; fill:none" points="2291.23,1486.45 2291.23,1467.55 "/>
<path clip-path="url(#clip070)" d="M217.776 1517.37 Q214.165 1517.37 212.336 1520.93 Q210.531 1524.47 210.531 1531.6 Q210.531 1538.71 212.336 1542.27 Q214.165 1545.82 217.776 1545.82 Q221.41 1545.82 223.216 1542.27 Q225.045 1538.71 225.045 1531.6 Q225.045 1524.47 223.216 1520.93 Q221.41 1517.37 217.776 1517.37 M217.776 1513.66 Q223.586 1513.66 226.642 1518.27 Q229.721 1522.85 229.721 1531.6 Q229.721 1540.33 226.642 1544.94 Q223.586 1549.52 217.776 1549.52 Q211.966 1549.52 208.887 1544.94 Q205.832 1540.33 205.832 1531.6 Q205.832 1522.85 208.887 1518.27 Q211.966 1513.66 217.776 1513.66 Z" fill="#000000" fill-rule="nonzero" fill-opacity="1" /><path clip-path="url(#clip070)" d="M237.938 1542.97 L242.822 1542.97 L242.822 1548.85 L237.938 1548.85 L237.938 1542.97 Z" fill="#000000" fill-rule="nonzero" fill-opacity="1" /><path clip-path="url(#clip070)" d="M263.007 1517.37 Q259.396 1517.37 257.568 1520.93 Q255.762 1524.47 255.762 1531.6 Q255.762 1538.71 257.568 1542.27 Q259.396 1545.82 263.007 1545.82 Q266.642 1545.82 268.447 1542.27 Q270.276 1538.71 270.276 1531.6 Q270.276 1524.47 268.447 1520.93 Q266.642 1517.37 263.007 1517.37 M263.007 1513.66 Q268.818 1513.66 271.873 1518.27 Q274.952 1522.85 274.952 1531.6 Q274.952 1540.33 271.873 1544.94 Q268.818 1549.52 263.007 1549.52 Q257.197 1549.52 254.119 1544.94 Q251.063 1540.33 251.063 1531.6 Q251.063 1522.85 254.119 1518.27 Q257.197 1513.66 263.007 1513.66 Z" fill="#000000" fill-rule="nonzero" fill-opacity="1" /><path clip-path="url(#clip070)" d="M901.887 1517.37 Q898.276 1517.37 896.447 1520.93 Q894.642 1524.47 894.642 1531.6 Q894.642 1538.71 896.447 1542.27 Q898.276 1545.82 901.887 1545.82 Q905.521 1545.82 907.327 1542.27 Q909.155 1538.71 909.155 1531.6 Q909.155 1524.47 907.327 1520.93 Q905.521 1517.37 901.887 1517.37 M901.887 1513.66 Q907.697 1513.66 910.753 1518.27 Q913.831 1522.85 913.831 1531.6 Q913.831 1540.33 910.753 1544.94 Q907.697 1549.52 901.887 1549.52 Q896.077 1549.52 892.998 1544.94 Q889.942 1540.33 889.942 1531.6 Q889.942 1522.85 892.998 1518.27 Q896.077 1513.66 901.887 1513.66 Z" fill="#000000" fill-rule="nonzero" fill-opacity="1" /><path clip-path="url(#clip070)" d="M922.049 1542.97 L926.933 1542.97 L926.933 1548.85 L922.049 1548.85 L922.049 1542.97 Z" fill="#000000" fill-rule="nonzero" fill-opacity="1" /><path clip-path="url(#clip070)" d="M937.164 1514.29 L955.521 1514.29 L955.521 1518.22 L941.447 1518.22 L941.447 1526.7 Q942.465 1526.35 943.484 1526.19 Q944.502 1526 945.521 1526 Q951.308 1526 954.687 1529.17 Q958.067 1532.34 958.067 1537.76 Q958.067 1543.34 954.595 1546.44 Q951.123 1549.52 944.803 1549.52 Q942.627 1549.52 940.359 1549.15 Q938.114 1548.78 935.706 1548.04 L935.706 1543.34 Q937.789 1544.47 940.012 1545.03 Q942.234 1545.58 944.711 1545.58 Q948.715 1545.58 951.053 1543.48 Q953.391 1541.37 953.391 1537.76 Q953.391 1534.15 951.053 1532.04 Q948.715 1529.94 944.711 1529.94 Q942.836 1529.94 940.961 1530.35 Q939.109 1530.77 937.164 1531.65 L937.164 1514.29 Z" fill="#000000" fill-rule="nonzero" fill-opacity="1" /><path clip-path="url(#clip070)" d="M1574.77 1544.91 L1582.41 1544.91 L1582.41 1518.55 L1574.1 1520.21 L1574.1 1515.95 L1582.36 1514.29 L1587.04 1514.29 L1587.04 1544.91 L1594.68 1544.91 L1594.68 1548.85 L1574.77 1548.85 L1574.77 1544.91 Z" fill="#000000" fill-rule="nonzero" fill-opacity="1" /><path clip-path="url(#clip070)" d="M1604.12 1542.97 L1609.01 1542.97 L1609.01 1548.85 L1604.12 1548.85 L1604.12 1542.97 Z" fill="#000000" fill-rule="nonzero" fill-opacity="1" /><path clip-path="url(#clip070)" d="M1629.19 1517.37 Q1625.58 1517.37 1623.75 1520.93 Q1621.95 1524.47 1621.95 1531.6 Q1621.95 1538.71 1623.75 1542.27 Q1625.58 1545.82 1629.19 1545.82 Q1632.83 1545.82 1634.63 1542.27 Q1636.46 1538.71 1636.46 1531.6 Q1636.46 1524.47 1634.63 1520.93 Q1632.83 1517.37 1629.19 1517.37 M1629.19 1513.66 Q1635 1513.66 1638.06 1518.27 Q1641.14 1522.85 1641.14 1531.6 Q1641.14 1540.33 1638.06 1544.94 Q1635 1549.52 1629.19 1549.52 Q1623.38 1549.52 1620.3 1544.94 Q1617.25 1540.33 1617.25 1531.6 Q1617.25 1522.85 1620.3 1518.27 Q1623.38 1513.66 1629.19 1513.66 Z" fill="#000000" fill-rule="nonzero" fill-opacity="1" /><path clip-path="url(#clip070)" d="M2258.88 1544.91 L2266.52 1544.91 L2266.52 1518.55 L2258.21 1520.21 L2258.21 1515.95 L2266.47 1514.29 L2271.15 1514.29 L2271.15 1544.91 L2278.79 1544.91 L2278.79 1548.85 L2258.88 1548.85 L2258.88 1544.91 Z" fill="#000000" fill-rule="nonzero" fill-opacity="1" /><path clip-path="url(#clip070)" d="M2288.23 1542.97 L2293.12 1542.97 L2293.12 1548.85 L2288.23 1548.85 L2288.23 1542.97 Z" fill="#000000" fill-rule="nonzero" fill-opacity="1" /><path clip-path="url(#clip070)" d="M2303.35 1514.29 L2321.71 1514.29 L2321.71 1518.22 L2307.63 1518.22 L2307.63 1526.7 Q2308.65 1526.35 2309.67 1526.19 Q2310.69 1526 2311.71 1526 Q2317.49 1526 2320.87 1529.17 Q2324.25 1532.34 2324.25 1537.76 Q2324.25 1543.34 2320.78 1546.44 Q2317.31 1549.52 2310.99 1549.52 Q2308.81 1549.52 2306.54 1549.15 Q2304.3 1548.78 2301.89 1548.04 L2301.89 1543.34 Q2303.97 1544.47 2306.2 1545.03 Q2308.42 1545.58 2310.89 1545.58 Q2314.9 1545.58 2317.24 1543.48 Q2319.58 1541.37 2319.58 1537.76 Q2319.58 1534.15 2317.24 1532.04 Q2314.9 1529.94 2310.89 1529.94 Q2309.02 1529.94 2307.15 1530.35 Q2305.29 1530.77 2303.35 1531.65 L2303.35 1514.29 Z" fill="#000000" fill-rule="nonzero" fill-opacity="1" /><polyline clip-path="url(#clip072)" style="stroke:#000000; stroke-linecap:round; stroke-linejoin:round; stroke-width:2; stroke-opacity:0.1; fill:none" points="178.867,1432.49 2352.76,1432.49 "/>
<polyline clip-path="url(#clip072)" style="stroke:#000000; stroke-linecap:round; stroke-linejoin:round; stroke-width:2; stroke-opacity:0.1; fill:none" points="178.867,996.822 2352.76,996.822 "/>
<polyline clip-path="url(#clip072)" style="stroke:#000000; stroke-linecap:round; stroke-linejoin:round; stroke-width:2; stroke-opacity:0.1; fill:none" points="178.867,561.15 2352.76,561.15 "/>
<polyline clip-path="url(#clip072)" style="stroke:#000000; stroke-linecap:round; stroke-linejoin:round; stroke-width:2; stroke-opacity:0.1; fill:none" points="178.867,125.479 2352.76,125.479 "/>
<polyline clip-path="url(#clip070)" style="stroke:#000000; stroke-linecap:round; stroke-linejoin:round; stroke-width:4; stroke-opacity:1; fill:none" points="178.867,1486.45 178.867,47.2441 "/>
<polyline clip-path="url(#clip070)" style="stroke:#000000; stroke-linecap:round; stroke-linejoin:round; stroke-width:4; stroke-opacity:1; fill:none" points="178.867,1432.49 197.764,1432.49 "/>
<polyline clip-path="url(#clip070)" style="stroke:#000000; stroke-linecap:round; stroke-linejoin:round; stroke-width:4; stroke-opacity:1; fill:none" points="178.867,996.822 197.764,996.822 "/>
<polyline clip-path="url(#clip070)" style="stroke:#000000; stroke-linecap:round; stroke-linejoin:round; stroke-width:4; stroke-opacity:1; fill:none" points="178.867,561.15 197.764,561.15 "/>
<polyline clip-path="url(#clip070)" style="stroke:#000000; stroke-linecap:round; stroke-linejoin:round; stroke-width:4; stroke-opacity:1; fill:none" points="178.867,125.479 197.764,125.479 "/>
<path clip-path="url(#clip070)" d="M50.9921 1432.94 L80.6679 1432.94 L80.6679 1436.88 L50.9921 1436.88 L50.9921 1432.94 Z" fill="#000000" fill-rule="nonzero" fill-opacity="1" /><path clip-path="url(#clip070)" d="M91.5706 1445.84 L99.2095 1445.84 L99.2095 1419.47 L90.8993 1421.14 L90.8993 1416.88 L99.1632 1415.21 L103.839 1415.21 L103.839 1445.84 L111.478 1445.84 L111.478 1449.77 L91.5706 1449.77 L91.5706 1445.84 Z" fill="#000000" fill-rule="nonzero" fill-opacity="1" /><path clip-path="url(#clip070)" d="M130.922 1418.29 Q127.311 1418.29 125.482 1421.86 Q123.677 1425.4 123.677 1432.53 Q123.677 1439.63 125.482 1443.2 Q127.311 1446.74 130.922 1446.74 Q134.556 1446.74 136.362 1443.2 Q138.191 1439.63 138.191 1432.53 Q138.191 1425.4 136.362 1421.86 Q134.556 1418.29 130.922 1418.29 M130.922 1414.59 Q136.732 1414.59 139.788 1419.19 Q142.867 1423.78 142.867 1432.53 Q142.867 1441.25 139.788 1445.86 Q136.732 1450.44 130.922 1450.44 Q125.112 1450.44 122.033 1445.86 Q118.978 1441.25 118.978 1432.53 Q118.978 1423.78 122.033 1419.19 Q125.112 1414.59 130.922 1414.59 Z" fill="#000000" fill-rule="nonzero" fill-opacity="1" /><path clip-path="url(#clip070)" d="M130.922 982.62 Q127.311 982.62 125.482 986.185 Q123.677 989.727 123.677 996.856 Q123.677 1003.96 125.482 1007.53 Q127.311 1011.07 130.922 1011.07 Q134.556 1011.07 136.362 1007.53 Q138.191 1003.96 138.191 996.856 Q138.191 989.727 136.362 986.185 Q134.556 982.62 130.922 982.62 M130.922 978.917 Q136.732 978.917 139.788 983.523 Q142.867 988.106 142.867 996.856 Q142.867 1005.58 139.788 1010.19 Q136.732 1014.77 130.922 1014.77 Q125.112 1014.77 122.033 1010.19 Q118.978 1005.58 118.978 996.856 Q118.978 988.106 122.033 983.523 Q125.112 978.917 130.922 978.917 Z" fill="#000000" fill-rule="nonzero" fill-opacity="1" /><path clip-path="url(#clip070)" d="M91.5706 574.495 L99.2095 574.495 L99.2095 548.13 L90.8993 549.796 L90.8993 545.537 L99.1632 543.87 L103.839 543.87 L103.839 574.495 L111.478 574.495 L111.478 578.43 L91.5706 578.43 L91.5706 574.495 Z" fill="#000000" fill-rule="nonzero" fill-opacity="1" /><path clip-path="url(#clip070)" d="M130.922 546.949 Q127.311 546.949 125.482 550.514 Q123.677 554.055 123.677 561.185 Q123.677 568.291 125.482 571.856 Q127.311 575.398 130.922 575.398 Q134.556 575.398 136.362 571.856 Q138.191 568.291 138.191 561.185 Q138.191 554.055 136.362 550.514 Q134.556 546.949 130.922 546.949 M130.922 543.245 Q136.732 543.245 139.788 547.852 Q142.867 552.435 142.867 561.185 Q142.867 569.912 139.788 574.518 Q136.732 579.102 130.922 579.102 Q125.112 579.102 122.033 574.518 Q118.978 569.912 118.978 561.185 Q118.978 552.435 122.033 547.852 Q125.112 543.245 130.922 543.245 Z" fill="#000000" fill-rule="nonzero" fill-opacity="1" /><path clip-path="url(#clip070)" d="M94.7882 138.824 L111.108 138.824 L111.108 142.759 L89.1632 142.759 L89.1632 138.824 Q91.8252 136.069 96.4085 131.44 Q101.015 126.787 102.196 125.444 Q104.441 122.921 105.321 121.185 Q106.223 119.426 106.223 117.736 Q106.223 114.981 104.279 113.245 Q102.358 111.509 99.2558 111.509 Q97.0567 111.509 94.603 112.273 Q92.1725 113.037 89.3947 114.588 L89.3947 109.866 Q92.2188 108.731 94.6724 108.153 Q97.1261 107.574 99.1632 107.574 Q104.534 107.574 107.728 110.259 Q110.922 112.944 110.922 117.435 Q110.922 119.565 110.112 121.486 Q109.325 123.384 107.219 125.977 Q106.64 126.648 103.538 129.866 Q100.436 133.06 94.7882 138.824 Z" fill="#000000" fill-rule="nonzero" fill-opacity="1" /><path clip-path="url(#clip070)" d="M130.922 111.278 Q127.311 111.278 125.482 114.842 Q123.677 118.384 123.677 125.514 Q123.677 132.62 125.482 136.185 Q127.311 139.727 130.922 139.727 Q134.556 139.727 136.362 136.185 Q138.191 132.62 138.191 125.514 Q138.191 118.384 136.362 114.842 Q134.556 111.278 130.922 111.278 M130.922 107.574 Q136.732 107.574 139.788 112.18 Q142.867 116.764 142.867 125.514 Q142.867 134.241 139.788 138.847 Q136.732 143.43 130.922 143.43 Q125.112 143.43 122.033 138.847 Q118.978 134.241 118.978 125.514 Q118.978 116.764 122.033 112.18 Q125.112 107.574 130.922 107.574 Z" fill="#000000" fill-rule="nonzero" fill-opacity="1" /><polyline clip-path="url(#clip072)" style="stroke:#009af9; stroke-linecap:round; stroke-linejoin:round; stroke-width:4; stroke-opacity:1; fill:none" points="240.392,923.742 247.251,946.119 254.11,969.245 260.969,993.046 267.828,1016.58 274.687,1039.85 281.546,1062.1 288.405,1083.48 295.264,1103.93 302.123,1123.63 308.982,1142.67 315.841,1161.06 322.7,1178.76 329.559,1195.67 336.418,1212.04 343.277,1227.82 350.136,1242.96 356.995,1257.55 363.854,1271.58 370.713,1285.12 377.572,1298.15 384.431,1310.7 391.29,1322.69 398.149,1334.04 405.008,1344.75 411.867,1354.82 418.726,1364.32 425.585,1373.23 432.444,1381.58 439.303,1389.34 446.162,1396.53 453.021,1403.16 459.88,1409.28 466.739,1414.9 473.598,1420.01 480.457,1424.64 487.316,1428.8 494.175,1432.5 501.034,1435.72 507.893,1438.46 514.752,1440.75 521.611,1442.61 528.47,1444 535.328,1444.97 542.188,1445.56 549.046,1445.72 555.905,1445.44 562.764,1444.82 569.623,1443.9 576.482,1442.72 583.341,1441.26 590.2,1439.51 597.059,1437.54 603.918,1435.27 610.777,1432.52 617.636,1429.34 624.495,1425.68 631.354,1421.6 638.213,1417.06 645.072,1412.07 651.931,1406.69 658.79,1400.9 665.649,1394.66 672.508,1388.09 679.367,1381.2 686.226,1373.93 693.085,1366.36 699.944,1358.53 706.803,1350.5 713.662,1342.26 720.521,1333.79 727.38,1325.14 734.239,1316.31 741.098,1307.38 747.957,1298.39 754.816,1289.37 761.675,1280.26 768.534,1271.05 775.393,1261.77 782.252,1252.44 789.111,1243.13 795.97,1233.81 802.829,1224.48 809.688,1215.09 816.547,1205.72 823.406,1196.37 830.265,1187.1 837.124,1177.98 843.983,1169 850.842,1160.05 857.701,1151.15 864.56,1142.4 871.419,1133.76 878.278,1125.23 885.137,1116.81 891.996,1108.49 898.855,1100.26 905.714,1092.12 912.573,1084.04 919.432,1076.05 926.291,1068.16 933.15,1060.31 940.009,1052.57 946.868,1044.91 953.727,1037.29 960.586,1029.75 967.445,1022.28 974.304,1014.84 981.163,1007.52 988.022,1000.37 994.881,993.354 1001.74,986.423 1008.6,979.586 1015.46,972.827 1022.32,966.084 1029.18,959.391 1036.04,952.741 1042.89,946.158 1049.75,939.629 1056.61,933.151 1063.47,926.74 1070.33,920.386 1077.19,914.094 1084.05,907.838 1090.91,901.552 1097.77,895.338 1104.62,889.296 1111.48,883.39 1118.34,877.532 1125.2,871.74 1132.06,866.035 1138.92,860.418 1145.78,854.867 1152.64,849.412 1159.5,844.098 1166.36,838.817 1173.21,833.481 1180.07,828.092 1186.93,822.726 1193.79,817.432 1200.65,812.189 1207.51,806.93 1214.37,801.682 1221.23,796.452 1228.09,791.252 1234.95,786.047 1241.8,780.817 1248.66,775.711 1255.52,770.722 1262.38,765.764 1269.24,760.869 1276.1,756.098 1282.96,751.396 1289.82,746.761 1296.68,742.225 1303.54,737.82 1310.39,733.637 1317.25,729.67 1324.11,725.905 1330.97,722.313 1337.83,718.843 1344.69,715.564 1351.55,712.481 1358.41,709.57 1365.27,706.88 1372.13,704.408 1378.98,702.148 1385.84,700.151 1392.7,698.381 1399.56,696.781 1406.42,695.433 1413.28,694.317 1420.14,693.425 1427,692.753 1433.86,692.236 1440.72,691.893 1447.57,691.729 1454.43,691.765 1461.29,691.963 1468.15,692.315 1475.01,692.898 1481.87,693.691 1488.73,694.666 1495.59,695.834 1502.45,697.183 1509.31,698.689 1516.16,700.338 1523.02,702.132 1529.88,704.142 1536.74,706.373 1543.6,708.757 1550.46,711.312 1557.32,713.941 1564.18,716.649 1571.04,719.536 1577.9,722.603 1584.75,725.783 1591.61,729.125 1598.47,732.657 1605.33,736.306 1612.19,740.067 1619.05,743.97 1625.91,748.018 1632.77,752.184 1639.63,756.47 1646.49,760.878 1653.34,765.401 1660.2,770.011 1667.06,774.678 1673.92,779.41 1680.78,784.164 1687.64,788.941 1694.5,793.807 1701.36,798.785 1708.22,803.764 1715.08,808.779 1721.93,813.842 1728.79,818.885 1735.65,823.954 1742.51,829.078 1749.37,834.279 1756.23,839.564 1763.09,844.899 1769.95,850.207 1776.81,855.511 1783.67,860.811 1790.52,866.071 1797.38,871.295 1804.24,876.506 1811.1,881.723 1817.96,886.92 1824.82,892.012 1831.68,896.985 1838.54,901.901 1845.4,906.764 1852.26,911.497 1859.11,916.083 1865.97,920.552 1872.83,924.925 1879.69,929.168 1886.55,933.285 1893.41,937.364 1900.27,941.428 1907.13,945.438 1913.99,949.366 1920.85,953.207 1927.7,956.988 1934.56,960.674 1941.42,964.291 1948.28,967.906 1955.14,971.534 1962,975.166 1968.86,978.717 1975.72,982.152 1982.58,985.52 1989.44,988.845 1996.29,992.116 2003.15,995.327 2010.01,998.46 2016.87,1001.48 2023.73,1004.39 2030.59,1007.19 2037.45,1009.89 2044.31,1012.49 2051.17,1014.99 2058.02,1017.39 2064.88,1019.68 2071.74,1021.83 2078.6,1023.85 2085.46,1025.73 2092.32,1027.48 2099.18,1029.12 2106.04,1030.62 2112.9,1032.03 2119.76,1033.35 2126.61,1034.62 2133.47,1035.87 2140.33,1037.12 2147.19,1038.41 2154.05,1039.75 2160.91,1041.07 2167.77,1042.31 2174.63,1043.55 2181.49,1044.82 2188.35,1046.23 2195.2,1048 2202.06,1050.14 2208.92,1052.58 2215.78,1055.38 2222.64,1058.43 2229.5,1061.8 2236.36,1065.53 2243.22,1069.27 2250.08,1073.17 2256.94,1077.52 2263.79,1082.08 2270.65,1086.99 2277.51,1091.89 2284.37,1096.15 2291.23,1100.05 "/>
<polyline clip-path="url(#clip072)" style="stroke:#e26f46; stroke-linecap:round; stroke-linejoin:round; stroke-width:4; stroke-opacity:1; fill:none" points="240.392,87.9763 247.251,115.043 254.11,142.231 260.969,169.365 267.828,196.244 274.687,222.711 281.546,248.726 288.405,274.219 295.264,299.357 302.123,324.372 308.982,348.69 315.841,372.62 322.7,396.462 329.559,420.061 336.418,443.057 343.277,465.568 350.136,487.7 356.995,509.16 363.854,529.956 370.713,550.092 377.572,569.656 384.431,588.725 391.29,607.271 398.149,625.358 405.008,642.903 411.867,659.937 418.726,676.488 425.585,692.536 432.444,708.099 439.303,723.235 446.162,737.989 453.021,752.41 459.88,766.534 466.739,780.373 473.598,793.952 480.457,807.285 487.316,820.388 494.175,833.293 501.034,846.025 507.893,858.583 514.752,870.978 521.611,883.229 528.47,895.354 535.328,907.371 542.188,919.294 549.046,931.119 555.905,942.888 562.764,954.589 569.623,966.219 576.482,977.789 583.341,989.293 590.2,1000.77 597.059,1012.26 603.918,1023.7 610.777,1035.03 617.636,1046.23 624.495,1057.23 631.354,1068.04 638.213,1078.67 645.072,1089.06 651.931,1099.17 658.79,1109.12 665.649,1118.94 672.508,1128.61 679.367,1138.12 686.226,1147.48 693.085,1156.64 699.944,1165.61 706.803,1174.41 713.662,1183.03 720.521,1191.46 727.38,1199.76 734.239,1207.94 741.098,1215.95 747.957,1223.79 754.816,1231.49 761.675,1239.09 768.534,1246.55 775.393,1253.84 782.252,1261 789.111,1268 795.97,1274.83 802.829,1281.45 809.688,1287.87 816.547,1294.11 823.406,1300.27 830.265,1306.29 837.124,1312.07 843.983,1317.63 850.842,1323.01 857.701,1328.14 864.56,1332.96 871.419,1337.58 878.278,1341.94 885.137,1346 891.996,1349.81 898.855,1353.33 905.714,1356.58 912.573,1359.61 919.432,1362.37 926.291,1364.77 933.15,1366.85 940.009,1368.64 946.868,1370.13 953.727,1371.29 960.586,1372.06 967.445,1372.46 974.304,1372.51 981.163,1372.29 988.022,1371.81 994.881,1370.95 1001.74,1369.73 1008.6,1368.15 1015.46,1366.2 1022.32,1363.92 1029.18,1361.23 1036.04,1358.12 1042.89,1354.72 1049.75,1351.04 1056.61,1347.07 1063.47,1342.84 1070.33,1338.4 1077.19,1333.7 1084.05,1328.76 1090.91,1323.58 1097.77,1318.17 1104.62,1312.6 1111.48,1306.87 1118.34,1301 1125.2,1294.98 1132.06,1288.84 1138.92,1282.56 1145.78,1276.11 1152.64,1269.57 1159.5,1263 1166.36,1256.37 1173.21,1249.64 1180.07,1242.82 1186.93,1235.9 1193.79,1228.92 1200.65,1221.92 1207.51,1214.95 1214.37,1207.95 1221.23,1200.88 1228.09,1193.81 1234.95,1186.77 1241.8,1179.77 1248.66,1172.79 1255.52,1165.82 1262.38,1158.85 1269.24,1151.91 1276.1,1145 1282.96,1138.13 1289.82,1131.36 1296.68,1124.74 1303.54,1118.25 1310.39,1111.86 1317.25,1105.53 1324.11,1099.25 1330.97,1092.98 1337.83,1086.8 1344.69,1080.73 1351.55,1074.76 1358.41,1068.89 1365.27,1063.15 1372.13,1057.54 1378.98,1052.02 1385.84,1046.59 1392.7,1041.29 1399.56,1036.15 1406.42,1031.1 1413.28,1026.11 1420.14,1021.17 1427,1016.36 1433.86,1011.71 1440.72,1007.18 1447.57,1002.77 1454.43,998.453 1461.29,994.239 1468.15,990.062 1475.01,985.858 1481.87,981.673 1488.73,977.531 1495.59,973.483 1502.45,969.51 1509.31,965.584 1516.16,961.633 1523.02,957.71 1529.88,953.87 1536.74,950.048 1543.6,946.175 1550.46,942.278 1557.32,938.431 1564.18,934.652 1571.04,930.874 1577.9,927.123 1584.75,923.423 1591.61,919.693 1598.47,915.973 1605.33,912.269 1612.19,908.551 1619.05,904.839 1625.91,901.1 1632.77,897.292 1639.63,893.464 1646.49,889.579 1653.34,885.621 1660.2,881.568 1667.06,877.442 1673.92,873.337 1680.78,869.258 1687.64,865.19 1694.5,861.168 1701.36,857.181 1708.22,853.167 1715.08,849.173 1721.93,845.177 1728.79,841.179 1735.65,837.178 1742.51,833.216 1749.37,829.312 1756.23,825.457 1763.09,821.681 1769.95,817.928 1776.81,814.21 1783.67,810.571 1790.52,807.065 1797.38,803.667 1804.24,800.324 1811.1,797.048 1817.96,793.818 1824.82,790.65 1831.68,787.559 1838.54,784.509 1845.4,781.55 1852.26,778.666 1859.11,775.946 1865.97,773.41 1872.83,770.926 1879.69,768.5 1886.55,766.143 1893.41,763.889 1900.27,761.747 1907.13,759.816 1913.99,758.108 1920.85,756.513 1927.7,755.053 1934.56,753.724 1941.42,752.489 1948.28,751.327 1955.14,750.25 1962,749.255 1968.86,748.37 1975.72,747.614 1982.58,747.018 1989.44,746.569 1996.29,746.273 2003.15,746.126 2010.01,746.102 2016.87,746.182 2023.73,746.381 2030.59,746.736 2037.45,747.245 2044.31,747.923 2051.17,748.761 2058.02,749.724 2064.88,750.804 2071.74,752.01 2078.6,753.336 2085.46,754.788 2092.32,756.371 2099.18,758.058 2106.04,759.831 2112.9,761.7 2119.76,763.69 2126.61,765.844 2133.47,768.083 2140.33,770.349 2147.19,772.664 2154.05,775.092 2160.91,777.556 2167.77,780.152 2174.63,782.982 2181.49,786.118 2188.35,789.333 2195.2,792.402 2202.06,795.246 2208.92,798.04 2215.78,800.932 2222.64,804.182 2229.5,807.785 2236.36,811.378 2243.22,814.877 2250.08,818.559 2256.94,822.143 2263.79,825.4 2270.65,828.081 2277.51,830.581 2284.37,833.259 2291.23,836.403 "/>
<path clip-path="url(#clip070)" d="M2010.47 250.738 L2280.29 250.738 L2280.29 95.2176 L2010.47 95.2176  Z" fill="#ffffff" fill-rule="evenodd" fill-opacity="1"/>
<polyline clip-path="url(#clip070)" style="stroke:#000000; stroke-linecap:round; stroke-linejoin:round; stroke-width:4; stroke-opacity:1; fill:none" points="2010.47,250.738 2280.29,250.738 2280.29,95.2176 2010.47,95.2176 2010.47,250.738 "/>
<polyline clip-path="url(#clip070)" style="stroke:#009af9; stroke-linecap:round; stroke-linejoin:round; stroke-width:4; stroke-opacity:1; fill:none" points="2034.63,147.058 2179.55,147.058 "/>
<path clip-path="url(#clip070)" d="M2217.55 166.745 Q2215.75 171.375 2214.03 172.787 Q2212.32 174.199 2209.45 174.199 L2206.05 174.199 L2206.05 170.634 L2208.55 170.634 Q2210.31 170.634 2211.28 169.8 Q2212.25 168.967 2213.43 165.865 L2214.19 163.921 L2203.71 138.412 L2208.22 138.412 L2216.32 158.689 L2224.43 138.412 L2228.94 138.412 L2217.55 166.745 Z" fill="#000000" fill-rule="nonzero" fill-opacity="1" /><path clip-path="url(#clip070)" d="M2236.23 160.402 L2243.87 160.402 L2243.87 134.037 L2235.56 135.703 L2235.56 131.444 L2243.82 129.778 L2248.5 129.778 L2248.5 160.402 L2256.14 160.402 L2256.14 164.338 L2236.23 164.338 L2236.23 160.402 Z" fill="#000000" fill-rule="nonzero" fill-opacity="1" /><polyline clip-path="url(#clip070)" style="stroke:#e26f46; stroke-linecap:round; stroke-linejoin:round; stroke-width:4; stroke-opacity:1; fill:none" points="2034.63,198.898 2179.55,198.898 "/>
<path clip-path="url(#clip070)" d="M2217.55 218.585 Q2215.75 223.215 2214.03 224.627 Q2212.32 226.039 2209.45 226.039 L2206.05 226.039 L2206.05 222.474 L2208.55 222.474 Q2210.31 222.474 2211.28 221.64 Q2212.25 220.807 2213.43 217.705 L2214.19 215.761 L2203.71 190.252 L2208.22 190.252 L2216.32 210.529 L2224.43 190.252 L2228.94 190.252 L2217.55 218.585 Z" fill="#000000" fill-rule="nonzero" fill-opacity="1" /><path clip-path="url(#clip070)" d="M2239.45 212.242 L2255.77 212.242 L2255.77 216.178 L2233.82 216.178 L2233.82 212.242 Q2236.49 209.488 2241.07 204.858 Q2245.68 200.205 2246.86 198.863 Q2249.1 196.34 2249.98 194.604 Q2250.88 192.844 2250.88 191.155 Q2250.88 188.4 2248.94 186.664 Q2247.02 184.928 2243.92 184.928 Q2241.72 184.928 2239.26 185.692 Q2236.83 186.455 2234.06 188.006 L2234.06 183.284 Q2236.88 182.15 2239.33 181.571 Q2241.79 180.993 2243.82 180.993 Q2249.19 180.993 2252.39 183.678 Q2255.58 186.363 2255.58 190.854 Q2255.58 192.983 2254.77 194.905 Q2253.99 196.803 2251.88 199.395 Q2251.3 200.067 2248.2 203.284 Q2245.1 206.479 2239.45 212.242 Z" fill="#000000" fill-rule="nonzero" fill-opacity="1" /></svg>
