<?xml version="1.0" encoding="utf-8"?>
<svg xmlns="http://www.w3.org/2000/svg" xmlns:xlink="http://www.w3.org/1999/xlink" width="600" height="400" viewBox="0 0 2400 1600">
<defs>
  <clipPath id="clip270">
    <rect x="0" y="0" width="2400" height="1600"/>
  </clipPath>
</defs>
<path clip-path="url(#clip270)" d="M0 1600 L2400 1600 L2400 0 L0 0  Z" fill="#ffffff" fill-rule="evenodd" fill-opacity="1"/>
<defs>
  <clipPath id="clip271">
    <rect x="257" y="47" width="2097" height="1377"/>
  </clipPath>
</defs>
<path clip-path="url(#clip270)" d="M257.204 1423.18 L2352.76 1423.18 L2352.76 47.2441 L257.204 47.2441  Z" fill="#ffffff" fill-rule="evenodd" fill-opacity="1"/>
<polyline clip-path="url(#clip271)" style="stroke:#000000; stroke-linecap:round; stroke-linejoin:round; stroke-width:2; stroke-opacity:0.1; fill:none" points="316.511,1423.18 316.511,47.2441 "/>
<polyline clip-path="url(#clip271)" style="stroke:#000000; stroke-linecap:round; stroke-linejoin:round; stroke-width:2; stroke-opacity:0.1; fill:none" points="810.745,1423.18 810.745,47.2441 "/>
<polyline clip-path="url(#clip271)" style="stroke:#000000; stroke-linecap:round; stroke-linejoin:round; stroke-width:2; stroke-opacity:0.1; fill:none" points="1304.98,1423.18 1304.98,47.2441 "/>
<polyline clip-path="url(#clip271)" style="stroke:#000000; stroke-linecap:round; stroke-linejoin:round; stroke-width:2; stroke-opacity:0.1; fill:none" points="1799.21,1423.18 1799.21,47.2441 "/>
<polyline clip-path="url(#clip271)" style="stroke:#000000; stroke-linecap:round; stroke-linejoin:round; stroke-width:2; stroke-opacity:0.1; fill:none" points="2293.45,1423.18 2293.45,47.2441 "/>
<polyline clip-path="url(#clip271)" style="stroke:#000000; stroke-linecap:round; stroke-linejoin:round; stroke-width:2; stroke-opacity:0.1; fill:none" points="257.204,1384.15 2352.76,1384.15 "/>
<polyline clip-path="url(#clip271)" style="stroke:#000000; stroke-linecap:round; stroke-linejoin:round; stroke-width:2; stroke-opacity:0.1; fill:none" points="257.204,1059.68 2352.76,1059.68 "/>
<polyline clip-path="url(#clip271)" style="stroke:#000000; stroke-linecap:round; stroke-linejoin:round; stroke-width:2; stroke-opacity:0.1; fill:none" points="257.204,735.203 2352.76,735.203 "/>
<polyline clip-path="url(#clip271)" style="stroke:#000000; stroke-linecap:round; stroke-linejoin:round; stroke-width:2; stroke-opacity:0.1; fill:none" points="257.204,410.729 2352.76,410.729 "/>
<polyline clip-path="url(#clip271)" style="stroke:#000000; stroke-linecap:round; stroke-linejoin:round; stroke-width:2; stroke-opacity:0.1; fill:none" points="257.204,86.2555 2352.76,86.2555 "/>
<polyline clip-path="url(#clip270)" style="stroke:#000000; stroke-linecap:round; stroke-linejoin:round; stroke-width:4; stroke-opacity:1; fill:none" points="257.204,1423.18 2352.76,1423.18 "/>
<polyline clip-path="url(#clip270)" style="stroke:#000000; stroke-linecap:round; stroke-linejoin:round; stroke-width:4; stroke-opacity:1; fill:none" points="316.511,1423.18 316.511,1404.28 "/>
<polyline clip-path="url(#clip270)" style="stroke:#000000; stroke-linecap:round; stroke-linejoin:round; stroke-width:4; stroke-opacity:1; fill:none" points="810.745,1423.18 810.745,1404.28 "/>
<polyline clip-path="url(#clip270)" style="stroke:#000000; stroke-linecap:round; stroke-linejoin:round; stroke-width:4; stroke-opacity:1; fill:none" points="1304.98,1423.18 1304.98,1404.28 "/>
<polyline clip-path="url(#clip270)" style="stroke:#000000; stroke-linecap:round; stroke-linejoin:round; stroke-width:4; stroke-opacity:1; fill:none" points="1799.21,1423.18 1799.21,1404.28 "/>
<polyline clip-path="url(#clip270)" style="stroke:#000000; stroke-linecap:round; stroke-linejoin:round; stroke-width:4; stroke-opacity:1; fill:none" points="2293.45,1423.18 2293.45,1404.28 "/>
<path clip-path="url(#clip270)" d="M263.039 1468.75 L292.715 1468.75 L292.715 1472.69 L263.039 1472.69 L263.039 1468.75 Z" fill="#000000" fill-rule="nonzero" fill-opacity="1" /><path clip-path="url(#clip270)" d="M303.617 1481.64 L311.256 1481.64 L311.256 1455.28 L302.946 1456.95 L302.946 1452.69 L311.21 1451.02 L315.886 1451.02 L315.886 1481.64 L323.525 1481.64 L323.525 1485.58 L303.617 1485.58 L303.617 1481.64 Z" fill="#000000" fill-rule="nonzero" fill-opacity="1" /><path clip-path="url(#clip270)" d="M332.969 1479.7 L337.853 1479.7 L337.853 1485.58 L332.969 1485.58 L332.969 1479.7 Z" fill="#000000" fill-rule="nonzero" fill-opacity="1" /><path clip-path="url(#clip270)" d="M358.038 1454.1 Q354.427 1454.1 352.599 1457.66 Q350.793 1461.2 350.793 1468.33 Q350.793 1475.44 352.599 1479.01 Q354.427 1482.55 358.038 1482.55 Q361.673 1482.55 363.478 1479.01 Q365.307 1475.44 365.307 1468.33 Q365.307 1461.2 363.478 1457.66 Q361.673 1454.1 358.038 1454.1 M358.038 1450.39 Q363.849 1450.39 366.904 1455 Q369.983 1459.58 369.983 1468.33 Q369.983 1477.06 366.904 1481.67 Q363.849 1486.25 358.038 1486.25 Q352.228 1486.25 349.15 1481.67 Q346.094 1477.06 346.094 1468.33 Q346.094 1459.58 349.15 1455 Q352.228 1450.39 358.038 1450.39 Z" fill="#000000" fill-rule="nonzero" fill-opacity="1" /><path clip-path="url(#clip270)" d="M757.771 1468.75 L787.447 1468.75 L787.447 1472.69 L757.771 1472.69 L757.771 1468.75 Z" fill="#000000" fill-rule="nonzero" fill-opacity="1" /><path clip-path="url(#clip270)" d="M807.539 1454.1 Q803.928 1454.1 802.1 1457.66 Q800.294 1461.2 800.294 1468.33 Q800.294 1475.44 802.1 1479.01 Q803.928 1482.55 807.539 1482.55 Q811.174 1482.55 812.979 1479.01 Q814.808 1475.44 814.808 1468.33 Q814.808 1461.2 812.979 1457.66 Q811.174 1454.1 807.539 1454.1 M807.539 1450.39 Q813.35 1450.39 816.405 1455 Q819.484 1459.58 819.484 1468.33 Q819.484 1477.06 816.405 1481.67 Q813.35 1486.25 807.539 1486.25 Q801.729 1486.25 798.651 1481.67 Q795.595 1477.06 795.595 1468.33 Q795.595 1459.58 798.651 1455 Q801.729 1450.39 807.539 1450.39 Z" fill="#000000" fill-rule="nonzero" fill-opacity="1" /><path clip-path="url(#clip270)" d="M827.701 1479.7 L832.586 1479.7 L832.586 1485.58 L827.701 1485.58 L827.701 1479.7 Z" fill="#000000" fill-rule="nonzero" fill-opacity="1" /><path clip-path="url(#clip270)" d="M842.817 1451.02 L861.173 1451.02 L861.173 1454.96 L847.099 1454.96 L847.099 1463.43 Q848.118 1463.08 849.136 1462.92 Q850.155 1462.73 851.173 1462.73 Q856.96 1462.73 860.34 1465.9 Q863.72 1469.08 863.72 1474.49 Q863.72 1480.07 860.247 1483.17 Q856.775 1486.25 850.456 1486.25 Q848.28 1486.25 846.011 1485.88 Q843.766 1485.51 841.359 1484.77 L841.359 1480.07 Q843.442 1481.2 845.664 1481.76 Q847.886 1482.32 850.363 1482.32 Q854.368 1482.32 856.706 1480.21 Q859.044 1478.1 859.044 1474.49 Q859.044 1470.88 856.706 1468.77 Q854.368 1466.67 850.363 1466.67 Q848.488 1466.67 846.613 1467.08 Q844.761 1467.5 842.817 1468.38 L842.817 1451.02 Z" fill="#000000" fill-rule="nonzero" fill-opacity="1" /><path clip-path="url(#clip270)" d="M1282.36 1454.1 Q1278.75 1454.1 1276.92 1457.66 Q1275.12 1461.2 1275.12 1468.33 Q1275.12 1475.44 1276.92 1479.01 Q1278.75 1482.55 1282.36 1482.55 Q1286 1482.55 1287.8 1479.01 Q1289.63 1475.44 1289.63 1468.33 Q1289.63 1461.2 1287.8 1457.66 Q1286 1454.1 1282.36 1454.1 M1282.36 1450.39 Q1288.17 1450.39 1291.23 1455 Q1294.31 1459.58 1294.31 1468.33 Q1294.31 1477.06 1291.23 1481.67 Q1288.17 1486.25 1282.36 1486.25 Q1276.55 1486.25 1273.48 1481.67 Q1270.42 1477.06 1270.42 1468.33 Q1270.42 1459.58 1273.48 1455 Q1276.55 1450.39 1282.36 1450.39 Z" fill="#000000" fill-rule="nonzero" fill-opacity="1" /><path clip-path="url(#clip270)" d="M1302.53 1479.7 L1307.41 1479.7 L1307.41 1485.58 L1302.53 1485.58 L1302.53 1479.7 Z" fill="#000000" fill-rule="nonzero" fill-opacity="1" /><path clip-path="url(#clip270)" d="M1327.6 1454.1 Q1323.98 1454.1 1322.16 1457.66 Q1320.35 1461.2 1320.35 1468.33 Q1320.35 1475.44 1322.16 1479.01 Q1323.98 1482.55 1327.6 1482.55 Q1331.23 1482.55 1333.04 1479.01 Q1334.86 1475.44 1334.86 1468.33 Q1334.86 1461.2 1333.04 1457.66 Q1331.23 1454.1 1327.6 1454.1 M1327.6 1450.39 Q1333.41 1450.39 1336.46 1455 Q1339.54 1459.58 1339.54 1468.33 Q1339.54 1477.06 1336.46 1481.67 Q1333.41 1486.25 1327.6 1486.25 Q1321.79 1486.25 1318.71 1481.67 Q1315.65 1477.06 1315.65 1468.33 Q1315.65 1459.58 1318.71 1455 Q1321.79 1450.39 1327.6 1450.39 Z" fill="#000000" fill-rule="nonzero" fill-opacity="1" /><path clip-path="url(#clip270)" d="M1777.1 1454.1 Q1773.49 1454.1 1771.66 1457.66 Q1769.85 1461.2 1769.85 1468.33 Q1769.85 1475.44 1771.66 1479.01 Q1773.49 1482.55 1777.1 1482.55 Q1780.73 1482.55 1782.54 1479.01 Q1784.37 1475.44 1784.37 1468.33 Q1784.37 1461.2 1782.54 1457.66 Q1780.73 1454.1 1777.1 1454.1 M1777.1 1450.39 Q1782.91 1450.39 1785.96 1455 Q1789.04 1459.58 1789.04 1468.33 Q1789.04 1477.06 1785.96 1481.67 Q1782.91 1486.25 1777.1 1486.25 Q1771.29 1486.25 1768.21 1481.67 Q1765.15 1477.06 1765.15 1468.33 Q1765.15 1459.58 1768.21 1455 Q1771.29 1450.39 1777.1 1450.39 Z" fill="#000000" fill-rule="nonzero" fill-opacity="1" /><path clip-path="url(#clip270)" d="M1797.26 1479.7 L1802.14 1479.7 L1802.14 1485.58 L1797.26 1485.58 L1797.26 1479.7 Z" fill="#000000" fill-rule="nonzero" fill-opacity="1" /><path clip-path="url(#clip270)" d="M1812.37 1451.02 L1830.73 1451.02 L1830.73 1454.96 L1816.66 1454.96 L1816.66 1463.43 Q1817.68 1463.08 1818.69 1462.92 Q1819.71 1462.73 1820.73 1462.73 Q1826.52 1462.73 1829.9 1465.9 Q1833.28 1469.08 1833.28 1474.49 Q1833.28 1480.07 1829.8 1483.17 Q1826.33 1486.25 1820.01 1486.25 Q1817.84 1486.25 1815.57 1485.88 Q1813.32 1485.51 1810.92 1484.77 L1810.92 1480.07 Q1813 1481.2 1815.22 1481.76 Q1817.44 1482.32 1819.92 1482.32 Q1823.93 1482.32 1826.26 1480.21 Q1828.6 1478.1 1828.6 1474.49 Q1828.6 1470.88 1826.26 1468.77 Q1823.93 1466.67 1819.92 1466.67 Q1818.05 1466.67 1816.17 1467.08 Q1814.32 1467.5 1812.37 1468.38 L1812.37 1451.02 Z" fill="#000000" fill-rule="nonzero" fill-opacity="1" /><path clip-path="url(#clip270)" d="M2260.6 1481.64 L2268.24 1481.64 L2268.24 1455.28 L2259.93 1456.95 L2259.93 1452.69 L2268.19 1451.02 L2272.87 1451.02 L2272.87 1481.64 L2280.51 1481.64 L2280.51 1485.58 L2260.6 1485.58 L2260.6 1481.64 Z" fill="#000000" fill-rule="nonzero" fill-opacity="1" /><path clip-path="url(#clip270)" d="M2289.95 1479.7 L2294.84 1479.7 L2294.84 1485.58 L2289.95 1485.58 L2289.95 1479.7 Z" fill="#000000" fill-rule="nonzero" fill-opacity="1" /><path clip-path="url(#clip270)" d="M2315.02 1454.1 Q2311.41 1454.1 2309.58 1457.66 Q2307.78 1461.2 2307.78 1468.33 Q2307.78 1475.44 2309.58 1479.01 Q2311.41 1482.55 2315.02 1482.55 Q2318.66 1482.55 2320.46 1479.01 Q2322.29 1475.44 2322.29 1468.33 Q2322.29 1461.2 2320.46 1457.66 Q2318.66 1454.1 2315.02 1454.1 M2315.02 1450.39 Q2320.83 1450.39 2323.89 1455 Q2326.97 1459.58 2326.97 1468.33 Q2326.97 1477.06 2323.89 1481.67 Q2320.83 1486.25 2315.02 1486.25 Q2309.21 1486.25 2306.13 1481.67 Q2303.08 1477.06 2303.08 1468.33 Q2303.08 1459.58 2306.13 1455 Q2309.21 1450.39 2315.02 1450.39 Z" fill="#000000" fill-rule="nonzero" fill-opacity="1" /><path clip-path="url(#clip270)" d="M1134.03 1525.81 L1134.03 1543.66 L1142.11 1543.66 Q1146.6 1543.66 1149.05 1541.34 Q1151.5 1539.02 1151.5 1534.72 Q1151.5 1530.45 1149.05 1528.13 Q1146.6 1525.81 1142.11 1525.81 L1134.03 1525.81 M1127.6 1520.52 L1142.11 1520.52 Q1150.1 1520.52 1154.18 1524.15 Q1158.28 1527.75 1158.28 1534.72 Q1158.28 1541.75 1154.18 1545.35 Q1150.1 1548.95 1142.11 1548.95 L1134.03 1548.95 L1134.03 1568.04 L1127.6 1568.04 L1127.6 1520.52 Z" fill="#000000" fill-rule="nonzero" fill-opacity="1" /><path clip-path="url(#clip270)" d="M1178.14 1536.5 Q1173.43 1536.5 1170.7 1540.19 Q1167.96 1543.85 1167.96 1550.25 Q1167.96 1556.65 1170.66 1560.34 Q1173.4 1564 1178.14 1564 Q1182.82 1564 1185.56 1560.31 Q1188.3 1556.62 1188.3 1550.25 Q1188.3 1543.92 1185.56 1540.23 Q1182.82 1536.5 1178.14 1536.5 M1178.14 1531.54 Q1185.78 1531.54 1190.14 1536.5 Q1194.5 1541.47 1194.5 1550.25 Q1194.5 1559 1190.14 1564 Q1185.78 1568.97 1178.14 1568.97 Q1170.47 1568.97 1166.11 1564 Q1161.78 1559 1161.78 1550.25 Q1161.78 1541.47 1166.11 1536.5 Q1170.47 1531.54 1178.14 1531.54 Z" fill="#000000" fill-rule="nonzero" fill-opacity="1" /><path clip-path="url(#clip270)" d="M1226.94 1533.45 L1226.94 1538.98 Q1224.45 1537.71 1221.78 1537.07 Q1219.11 1536.44 1216.24 1536.44 Q1211.88 1536.44 1209.69 1537.77 Q1207.52 1539.11 1207.52 1541.79 Q1207.52 1543.82 1209.08 1545 Q1210.64 1546.15 1215.35 1547.2 L1217.36 1547.64 Q1223.59 1548.98 1226.2 1551.43 Q1228.85 1553.85 1228.85 1558.21 Q1228.85 1563.17 1224.9 1566.07 Q1220.98 1568.97 1214.11 1568.97 Q1211.24 1568.97 1208.13 1568.39 Q1205.04 1567.85 1201.6 1566.74 L1201.6 1560.69 Q1204.85 1562.38 1208 1563.24 Q1211.15 1564.07 1214.24 1564.07 Q1218.37 1564.07 1220.6 1562.66 Q1222.83 1561.23 1222.83 1558.65 Q1222.83 1556.27 1221.21 1554.99 Q1219.62 1553.72 1214.17 1552.54 L1212.14 1552.07 Q1206.69 1550.92 1204.27 1548.56 Q1201.86 1546.18 1201.86 1542.04 Q1201.86 1537.01 1205.42 1534.27 Q1208.99 1531.54 1215.54 1531.54 Q1218.79 1531.54 1221.65 1532.01 Q1224.52 1532.49 1226.94 1533.45 Z" fill="#000000" fill-rule="nonzero" fill-opacity="1" /><path clip-path="url(#clip270)" d="M1238.17 1532.4 L1244.03 1532.4 L1244.03 1568.04 L1238.17 1568.04 L1238.17 1532.4 M1238.17 1518.52 L1244.03 1518.52 L1244.03 1525.93 L1238.17 1525.93 L1238.17 1518.52 Z" fill="#000000" fill-rule="nonzero" fill-opacity="1" /><path clip-path="url(#clip270)" d="M1262.08 1522.27 L1262.08 1532.4 L1274.14 1532.4 L1274.14 1536.95 L1262.08 1536.95 L1262.08 1556.3 Q1262.08 1560.66 1263.25 1561.9 Q1264.46 1563.14 1268.12 1563.14 L1274.14 1563.14 L1274.14 1568.04 L1268.12 1568.04 Q1261.34 1568.04 1258.76 1565.53 Q1256.19 1562.98 1256.19 1556.3 L1256.19 1536.95 L1251.89 1536.95 L1251.89 1532.4 L1256.19 1532.4 L1256.19 1522.27 L1262.08 1522.27 Z" fill="#000000" fill-rule="nonzero" fill-opacity="1" /><path clip-path="url(#clip270)" d="M1281.84 1532.4 L1287.7 1532.4 L1287.7 1568.04 L1281.84 1568.04 L1281.84 1532.4 M1281.84 1518.52 L1287.7 1518.52 L1287.7 1525.93 L1281.84 1525.93 L1281.84 1518.52 Z" fill="#000000" fill-rule="nonzero" fill-opacity="1" /><path clip-path="url(#clip270)" d="M1313.76 1536.5 Q1309.05 1536.5 1306.32 1540.19 Q1303.58 1543.85 1303.58 1550.25 Q1303.58 1556.65 1306.28 1560.34 Q1309.02 1564 1313.76 1564 Q1318.44 1564 1321.18 1560.31 Q1323.92 1556.62 1323.92 1550.25 Q1323.92 1543.92 1321.18 1540.23 Q1318.44 1536.5 1313.76 1536.5 M1313.76 1531.54 Q1321.4 1531.54 1325.76 1536.5 Q1330.12 1541.47 1330.12 1550.25 Q1330.12 1559 1325.76 1564 Q1321.4 1568.97 1313.76 1568.97 Q1306.09 1568.97 1301.73 1564 Q1297.4 1559 1297.4 1550.25 Q1297.4 1541.47 1301.73 1536.5 Q1306.09 1531.54 1313.76 1531.54 Z" fill="#000000" fill-rule="nonzero" fill-opacity="1" /><path clip-path="url(#clip270)" d="M1369.46 1546.53 L1369.46 1568.04 L1363.61 1568.04 L1363.61 1546.72 Q1363.61 1541.66 1361.63 1539.14 Q1359.66 1536.63 1355.71 1536.63 Q1350.97 1536.63 1348.23 1539.65 Q1345.5 1542.68 1345.5 1547.9 L1345.5 1568.04 L1339.61 1568.04 L1339.61 1532.4 L1345.5 1532.4 L1345.5 1537.93 Q1347.6 1534.72 1350.43 1533.13 Q1353.3 1531.54 1357.02 1531.54 Q1363.16 1531.54 1366.31 1535.36 Q1369.46 1539.14 1369.46 1546.53 Z" fill="#000000" fill-rule="nonzero" fill-opacity="1" /><path clip-path="url(#clip270)" d="M1415.93 1518.58 Q1411.67 1525.9 1409.6 1533.06 Q1407.53 1540.23 1407.53 1547.58 Q1407.53 1554.93 1409.6 1562.16 Q1411.7 1569.35 1415.93 1576.64 L1410.84 1576.64 Q1406.07 1569.16 1403.68 1561.93 Q1401.32 1554.71 1401.32 1547.58 Q1401.32 1540.48 1403.68 1533.29 Q1406.04 1526.09 1410.84 1518.58 L1415.93 1518.58 Z" fill="#000000" fill-rule="nonzero" fill-opacity="1" /><path clip-path="url(#clip270)" d="M1430.8 1550.25 Q1430.8 1556.71 1433.44 1560.4 Q1436.11 1564.07 1440.76 1564.07 Q1445.41 1564.07 1448.08 1560.4 Q1450.75 1556.71 1450.75 1550.25 Q1450.75 1543.79 1448.08 1540.13 Q1445.41 1536.44 1440.76 1536.44 Q1436.11 1536.44 1433.44 1540.13 Q1430.8 1543.79 1430.8 1550.25 M1450.75 1562.7 Q1448.91 1565.88 1446.08 1567.44 Q1443.27 1568.97 1439.33 1568.97 Q1432.87 1568.97 1428.79 1563.81 Q1424.75 1558.65 1424.75 1550.25 Q1424.75 1541.85 1428.79 1536.69 Q1432.87 1531.54 1439.33 1531.54 Q1443.27 1531.54 1446.08 1533.1 Q1448.91 1534.62 1450.75 1537.81 L1450.75 1532.4 L1456.61 1532.4 L1456.61 1581.6 L1450.75 1581.6 L1450.75 1562.7 Z" fill="#000000" fill-rule="nonzero" fill-opacity="1" /><path clip-path="url(#clip270)" d="M1467.75 1518.58 L1472.84 1518.58 Q1477.62 1526.09 1479.97 1533.29 Q1482.36 1540.48 1482.36 1547.58 Q1482.36 1554.71 1479.97 1561.93 Q1477.62 1569.16 1472.84 1576.64 L1467.75 1576.64 Q1471.98 1569.35 1474.05 1562.16 Q1476.15 1554.93 1476.15 1547.58 Q1476.15 1540.23 1474.05 1533.06 Q1471.98 1525.9 1467.75 1518.58 Z" fill="#000000" fill-rule="nonzero" fill-opacity="1" /><polyline clip-path="url(#clip270)" style="stroke:#000000; stroke-linecap:round; stroke-linejoin:round; stroke-width:4; stroke-opacity:1; fill:none" points="257.204,1423.18 257.204,47.2441 "/>
<polyline clip-path="url(#clip270)" style="stroke:#000000; stroke-linecap:round; stroke-linejoin:round; stroke-width:4; stroke-opacity:1; fill:none" points="257.204,1384.15 276.102,1384.15 "/>
<polyline clip-path="url(#clip270)" style="stroke:#000000; stroke-linecap:round; stroke-linejoin:round; stroke-width:4; stroke-opacity:1; fill:none" points="257.204,1059.68 276.102,1059.68 "/>
<polyline clip-path="url(#clip270)" style="stroke:#000000; stroke-linecap:round; stroke-linejoin:round; stroke-width:4; stroke-opacity:1; fill:none" points="257.204,735.203 276.102,735.203 "/>
<polyline clip-path="url(#clip270)" style="stroke:#000000; stroke-linecap:round; stroke-linejoin:round; stroke-width:4; stroke-opacity:1; fill:none" points="257.204,410.729 276.102,410.729 "/>
<polyline clip-path="url(#clip270)" style="stroke:#000000; stroke-linecap:round; stroke-linejoin:round; stroke-width:4; stroke-opacity:1; fill:none" points="257.204,86.2555 276.102,86.2555 "/>
<path clip-path="url(#clip270)" d="M114.26 1384.6 L143.936 1384.6 L143.936 1388.54 L114.26 1388.54 L114.26 1384.6 Z" fill="#000000" fill-rule="nonzero" fill-opacity="1" /><path clip-path="url(#clip270)" d="M154.839 1397.49 L162.477 1397.49 L162.477 1371.13 L154.167 1372.8 L154.167 1368.54 L162.431 1366.87 L167.107 1366.87 L167.107 1397.49 L174.746 1397.49 L174.746 1401.43 L154.839 1401.43 L154.839 1397.49 Z" fill="#000000" fill-rule="nonzero" fill-opacity="1" /><path clip-path="url(#clip270)" d="M184.19 1395.55 L189.075 1395.55 L189.075 1401.43 L184.19 1401.43 L184.19 1395.55 Z" fill="#000000" fill-rule="nonzero" fill-opacity="1" /><path clip-path="url(#clip270)" d="M209.26 1369.95 Q205.649 1369.95 203.82 1373.51 Q202.014 1377.05 202.014 1384.18 Q202.014 1391.29 203.82 1394.86 Q205.649 1398.4 209.26 1398.4 Q212.894 1398.4 214.699 1394.86 Q216.528 1391.29 216.528 1384.18 Q216.528 1377.05 214.699 1373.51 Q212.894 1369.95 209.26 1369.95 M209.26 1366.24 Q215.07 1366.24 218.125 1370.85 Q221.204 1375.43 221.204 1384.18 Q221.204 1392.91 218.125 1397.52 Q215.07 1402.1 209.26 1402.1 Q203.449 1402.1 200.371 1397.52 Q197.315 1392.91 197.315 1384.18 Q197.315 1375.43 200.371 1370.85 Q203.449 1366.24 209.26 1366.24 Z" fill="#000000" fill-rule="nonzero" fill-opacity="1" /><path clip-path="url(#clip270)" d="M115.256 1060.13 L144.931 1060.13 L144.931 1064.06 L115.256 1064.06 L115.256 1060.13 Z" fill="#000000" fill-rule="nonzero" fill-opacity="1" /><path clip-path="url(#clip270)" d="M165.024 1045.47 Q161.413 1045.47 159.584 1049.04 Q157.778 1052.58 157.778 1059.71 Q157.778 1066.82 159.584 1070.38 Q161.413 1073.92 165.024 1073.92 Q168.658 1073.92 170.464 1070.38 Q172.292 1066.82 172.292 1059.71 Q172.292 1052.58 170.464 1049.04 Q168.658 1045.47 165.024 1045.47 M165.024 1041.77 Q170.834 1041.77 173.889 1046.38 Q176.968 1050.96 176.968 1059.71 Q176.968 1068.44 173.889 1073.04 Q170.834 1077.63 165.024 1077.63 Q159.214 1077.63 156.135 1073.04 Q153.079 1068.44 153.079 1059.71 Q153.079 1050.96 156.135 1046.38 Q159.214 1041.77 165.024 1041.77 Z" fill="#000000" fill-rule="nonzero" fill-opacity="1" /><path clip-path="url(#clip270)" d="M185.186 1071.08 L190.07 1071.08 L190.07 1076.96 L185.186 1076.96 L185.186 1071.08 Z" fill="#000000" fill-rule="nonzero" fill-opacity="1" /><path clip-path="url(#clip270)" d="M200.301 1042.4 L218.658 1042.4 L218.658 1046.33 L204.584 1046.33 L204.584 1054.8 Q205.602 1054.46 206.621 1054.29 Q207.639 1054.11 208.658 1054.11 Q214.445 1054.11 217.824 1057.28 Q221.204 1060.45 221.204 1065.87 Q221.204 1071.45 217.732 1074.55 Q214.26 1077.63 207.94 1077.63 Q205.764 1077.63 203.496 1077.26 Q201.25 1076.89 198.843 1076.15 L198.843 1071.45 Q200.926 1072.58 203.149 1073.14 Q205.371 1073.69 207.848 1073.69 Q211.852 1073.69 214.19 1071.59 Q216.528 1069.48 216.528 1065.87 Q216.528 1062.26 214.19 1060.15 Q211.852 1058.04 207.848 1058.04 Q205.973 1058.04 204.098 1058.46 Q202.246 1058.88 200.301 1059.76 L200.301 1042.4 Z" fill="#000000" fill-rule="nonzero" fill-opacity="1" /><path clip-path="url(#clip270)" d="M164.028 721.001 Q160.417 721.001 158.589 724.566 Q156.783 728.108 156.783 735.237 Q156.783 742.344 158.589 745.908 Q160.417 749.45 164.028 749.45 Q167.663 749.45 169.468 745.908 Q171.297 742.344 171.297 735.237 Q171.297 728.108 169.468 724.566 Q167.663 721.001 164.028 721.001 M164.028 717.298 Q169.839 717.298 172.894 721.904 Q175.973 726.487 175.973 735.237 Q175.973 743.964 172.894 748.571 Q169.839 753.154 164.028 753.154 Q158.218 753.154 155.14 748.571 Q152.084 743.964 152.084 735.237 Q152.084 726.487 155.14 721.904 Q158.218 717.298 164.028 717.298 Z" fill="#000000" fill-rule="nonzero" fill-opacity="1" /><path clip-path="url(#clip270)" d="M184.19 746.603 L189.075 746.603 L189.075 752.483 L184.19 752.483 L184.19 746.603 Z" fill="#000000" fill-rule="nonzero" fill-opacity="1" /><path clip-path="url(#clip270)" d="M209.26 721.001 Q205.649 721.001 203.82 724.566 Q202.014 728.108 202.014 735.237 Q202.014 742.344 203.82 745.908 Q205.649 749.45 209.26 749.45 Q212.894 749.45 214.699 745.908 Q216.528 742.344 216.528 735.237 Q216.528 728.108 214.699 724.566 Q212.894 721.001 209.26 721.001 M209.26 717.298 Q215.07 717.298 218.125 721.904 Q221.204 726.487 221.204 735.237 Q221.204 743.964 218.125 748.571 Q215.07 753.154 209.26 753.154 Q203.449 753.154 200.371 748.571 Q197.315 743.964 197.315 735.237 Q197.315 726.487 200.371 721.904 Q203.449 717.298 209.26 717.298 Z" fill="#000000" fill-rule="nonzero" fill-opacity="1" /><path clip-path="url(#clip270)" d="M165.024 396.528 Q161.413 396.528 159.584 400.093 Q157.778 403.634 157.778 410.764 Q157.778 417.87 159.584 421.435 Q161.413 424.977 165.024 424.977 Q168.658 424.977 170.464 421.435 Q172.292 417.87 172.292 410.764 Q172.292 403.634 170.464 400.093 Q168.658 396.528 165.024 396.528 M165.024 392.824 Q170.834 392.824 173.889 397.43 Q176.968 402.014 176.968 410.764 Q176.968 419.491 173.889 424.097 Q170.834 428.68 165.024 428.68 Q159.214 428.68 156.135 424.097 Q153.079 419.491 153.079 410.764 Q153.079 402.014 156.135 397.43 Q159.214 392.824 165.024 392.824 Z" fill="#000000" fill-rule="nonzero" fill-opacity="1" /><path clip-path="url(#clip270)" d="M185.186 422.129 L190.07 422.129 L190.07 428.009 L185.186 428.009 L185.186 422.129 Z" fill="#000000" fill-rule="nonzero" fill-opacity="1" /><path clip-path="url(#clip270)" d="M200.301 393.449 L218.658 393.449 L218.658 397.384 L204.584 397.384 L204.584 405.856 Q205.602 405.509 206.621 405.347 Q207.639 405.162 208.658 405.162 Q214.445 405.162 217.824 408.333 Q221.204 411.504 221.204 416.921 Q221.204 422.5 217.732 425.602 Q214.26 428.68 207.94 428.68 Q205.764 428.68 203.496 428.31 Q201.25 427.94 198.843 427.199 L198.843 422.5 Q200.926 423.634 203.149 424.19 Q205.371 424.745 207.848 424.745 Q211.852 424.745 214.19 422.639 Q216.528 420.532 216.528 416.921 Q216.528 413.31 214.19 411.204 Q211.852 409.097 207.848 409.097 Q205.973 409.097 204.098 409.514 Q202.246 409.93 200.301 410.81 L200.301 393.449 Z" fill="#000000" fill-rule="nonzero" fill-opacity="1" /><path clip-path="url(#clip270)" d="M154.839 99.6004 L162.477 99.6004 L162.477 73.2348 L154.167 74.9014 L154.167 70.6422 L162.431 68.9755 L167.107 68.9755 L167.107 99.6004 L174.746 99.6004 L174.746 103.536 L154.839 103.536 L154.839 99.6004 Z" fill="#000000" fill-rule="nonzero" fill-opacity="1" /><path clip-path="url(#clip270)" d="M184.19 97.6559 L189.075 97.6559 L189.075 103.536 L184.19 103.536 L184.19 97.6559 Z" fill="#000000" fill-rule="nonzero" fill-opacity="1" /><path clip-path="url(#clip270)" d="M209.26 72.0542 Q205.649 72.0542 203.82 75.619 Q202.014 79.1607 202.014 86.2903 Q202.014 93.3967 203.82 96.9615 Q205.649 100.503 209.26 100.503 Q212.894 100.503 214.699 96.9615 Q216.528 93.3967 216.528 86.2903 Q216.528 79.1607 214.699 75.619 Q212.894 72.0542 209.26 72.0542 M209.26 68.3505 Q215.07 68.3505 218.125 72.957 Q221.204 77.5403 221.204 86.2903 Q221.204 95.0171 218.125 99.6235 Q215.07 104.207 209.26 104.207 Q203.449 104.207 200.371 99.6235 Q197.315 95.0171 197.315 86.2903 Q197.315 77.5403 200.371 72.957 Q203.449 68.3505 209.26 68.3505 Z" fill="#000000" fill-rule="nonzero" fill-opacity="1" /><path clip-path="url(#clip270)" d="M16.4842 971.396 L16.4842 961.815 L48.8219 949.689 L16.4842 937.498 L16.4842 927.918 L64.0042 927.918 L64.0042 934.188 L22.277 934.188 L54.8694 946.442 L54.8694 952.903 L22.277 965.157 L64.0042 965.157 L64.0042 971.396 L16.4842 971.396 Z" fill="#000000" fill-rule="nonzero" fill-opacity="1" /><path clip-path="url(#clip270)" d="M32.4621 901.596 Q32.4621 906.306 36.1542 909.044 Q39.8145 911.781 46.212 911.781 Q52.6095 911.781 56.3017 909.075 Q59.9619 906.338 59.9619 901.596 Q59.9619 896.917 56.2698 894.18 Q52.5777 891.442 46.212 891.442 Q39.8781 891.442 36.186 894.18 Q32.4621 896.917 32.4621 901.596 M27.4968 901.596 Q27.4968 893.957 32.4621 889.596 Q37.4273 885.236 46.212 885.236 Q54.9649 885.236 59.9619 889.596 Q64.9272 893.957 64.9272 901.596 Q64.9272 909.266 59.9619 913.627 Q54.9649 917.955 46.212 917.955 Q37.4273 917.955 32.4621 913.627 Q27.4968 909.266 27.4968 901.596 Z" fill="#000000" fill-rule="nonzero" fill-opacity="1" /><path clip-path="url(#clip270)" d="M35.1993 847.774 Q31.2526 845.577 29.3747 842.522 Q27.4968 839.466 27.4968 835.329 Q27.4968 829.759 31.4117 826.735 Q35.2948 823.711 42.4881 823.711 L64.0042 823.711 L64.0042 829.599 L42.679 829.599 Q37.5546 829.599 35.072 831.414 Q32.5894 833.228 32.5894 836.952 Q32.5894 841.503 35.6131 844.145 Q38.6368 846.787 43.8567 846.787 L64.0042 846.787 L64.0042 852.675 L42.679 852.675 Q37.5228 852.675 35.072 854.489 Q32.5894 856.304 32.5894 860.091 Q32.5894 864.579 35.6449 867.221 Q38.6686 869.863 43.8567 869.863 L64.0042 869.863 L64.0042 875.751 L28.3562 875.751 L28.3562 869.863 L33.8944 869.863 Q30.616 867.857 29.0564 865.056 Q27.4968 862.256 27.4968 858.404 Q27.4968 854.521 29.4702 851.816 Q31.4436 849.079 35.1993 847.774 Z" fill="#000000" fill-rule="nonzero" fill-opacity="1" /><path clip-path="url(#clip270)" d="M44.7161 781.538 L47.5806 781.538 L47.5806 808.465 Q53.6281 808.083 56.8109 804.837 Q59.9619 801.559 59.9619 795.734 Q59.9619 792.36 59.1344 789.209 Q58.3069 786.026 56.6518 782.907 L62.1899 782.907 Q63.5267 786.058 64.227 789.368 Q64.9272 792.678 64.9272 796.084 Q64.9272 804.614 59.9619 809.611 Q54.9967 814.576 46.5303 814.576 Q37.7774 814.576 32.6531 809.866 Q27.4968 805.123 27.4968 797.103 Q27.4968 789.909 32.1438 785.74 Q36.7589 781.538 44.7161 781.538 M42.9973 787.395 Q38.1912 787.459 35.3266 790.1 Q32.4621 792.71 32.4621 797.039 Q32.4621 801.94 35.2312 804.901 Q38.0002 807.829 43.0292 808.274 L42.9973 787.395 Z" fill="#000000" fill-rule="nonzero" fill-opacity="1" /><path clip-path="url(#clip270)" d="M42.4881 742.294 L64.0042 742.294 L64.0042 748.15 L42.679 748.15 Q37.6183 748.15 35.1038 750.124 Q32.5894 752.097 32.5894 756.044 Q32.5894 760.786 35.6131 763.523 Q38.6368 766.261 43.8567 766.261 L64.0042 766.261 L64.0042 772.149 L28.3562 772.149 L28.3562 766.261 L33.8944 766.261 Q30.6797 764.16 29.0883 761.327 Q27.4968 758.463 27.4968 754.739 Q27.4968 748.596 31.3163 745.445 Q35.1038 742.294 42.4881 742.294 Z" fill="#000000" fill-rule="nonzero" fill-opacity="1" /><path clip-path="url(#clip270)" d="M18.2347 724.82 L28.3562 724.82 L28.3562 712.757 L32.9077 712.757 L32.9077 724.82 L52.2594 724.82 Q56.6199 724.82 57.8613 723.642 Q59.1026 722.433 59.1026 718.773 L59.1026 712.757 L64.0042 712.757 L64.0042 718.773 Q64.0042 725.552 61.4897 728.13 Q58.9434 730.708 52.2594 730.708 L32.9077 730.708 L32.9077 735.005 L28.3562 735.005 L28.3562 730.708 L18.2347 730.708 L18.2347 724.82 Z" fill="#000000" fill-rule="nonzero" fill-opacity="1" /><path clip-path="url(#clip270)" d="M49.9359 705.659 L28.3562 705.659 L28.3562 699.803 L49.7131 699.803 Q54.7739 699.803 57.3202 697.829 Q59.8346 695.856 59.8346 691.909 Q59.8346 687.167 56.8109 684.43 Q53.7872 681.66 48.5673 681.66 L28.3562 681.66 L28.3562 675.804 L64.0042 675.804 L64.0042 681.66 L58.5296 681.66 Q61.7762 683.793 63.3676 686.626 Q64.9272 689.427 64.9272 693.151 Q64.9272 699.293 61.1078 702.476 Q57.2883 705.659 49.9359 705.659 M27.4968 690.923 L27.4968 690.923 Z" fill="#000000" fill-rule="nonzero" fill-opacity="1" /><path clip-path="url(#clip270)" d="M35.1993 635.987 Q31.2526 633.79 29.3747 630.735 Q27.4968 627.679 27.4968 623.542 Q27.4968 617.972 31.4117 614.948 Q35.2948 611.924 42.4881 611.924 L64.0042 611.924 L64.0042 617.812 L42.679 617.812 Q37.5546 617.812 35.072 619.627 Q32.5894 621.441 32.5894 625.165 Q32.5894 629.716 35.6131 632.358 Q38.6368 635 43.8567 635 L64.0042 635 L64.0042 640.888 L42.679 640.888 Q37.5228 640.888 35.072 642.702 Q32.5894 644.517 32.5894 648.304 Q32.5894 652.792 35.6449 655.434 Q38.6686 658.076 43.8567 658.076 L64.0042 658.076 L64.0042 663.964 L28.3562 663.964 L28.3562 658.076 L33.8944 658.076 Q30.616 656.07 29.0564 653.269 Q27.4968 650.468 27.4968 646.617 Q27.4968 642.734 29.4702 640.029 Q31.4436 637.291 35.1993 635.987 Z" fill="#000000" fill-rule="nonzero" fill-opacity="1" /><path clip-path="url(#clip270)" d="M14.5426 565.454 Q21.8632 569.72 29.0246 571.788 Q36.186 573.857 43.5384 573.857 Q50.8908 573.857 58.1159 571.788 Q65.3091 569.688 72.5979 565.454 L72.5979 570.547 Q65.1182 575.321 57.8931 577.708 Q50.668 580.064 43.5384 580.064 Q36.4406 580.064 29.2474 577.708 Q22.0542 575.353 14.5426 570.547 L14.5426 565.454 Z" fill="#000000" fill-rule="nonzero" fill-opacity="1" /><path clip-path="url(#clip270)" d="M58.657 548.426 L77.5631 548.426 L77.5631 554.315 L28.3562 554.315 L28.3562 548.426 L33.7671 548.426 Q30.5842 546.58 29.0564 543.779 Q27.4968 540.947 27.4968 537.032 Q27.4968 530.539 32.6531 526.496 Q37.8093 522.422 46.212 522.422 Q54.6147 522.422 59.771 526.496 Q64.9272 530.539 64.9272 537.032 Q64.9272 540.947 63.3994 543.779 Q61.8398 546.58 58.657 548.426 M46.212 528.502 Q39.7508 528.502 36.0905 531.175 Q32.3984 533.817 32.3984 538.464 Q32.3984 543.111 36.0905 545.784 Q39.7508 548.426 46.212 548.426 Q52.6732 548.426 56.3653 545.784 Q60.0256 543.111 60.0256 538.464 Q60.0256 533.817 56.3653 531.175 Q52.6732 528.502 46.212 528.502 Z" fill="#000000" fill-rule="nonzero" fill-opacity="1" /><path clip-path="url(#clip270)" d="M14.5426 513.638 L14.5426 508.545 Q22.0542 503.771 29.2474 501.415 Q36.4406 499.028 43.5384 499.028 Q50.668 499.028 57.8931 501.415 Q65.1182 503.771 72.5979 508.545 L72.5979 513.638 Q65.3091 509.404 58.1159 507.336 Q50.8908 505.235 43.5384 505.235 Q36.186 505.235 29.0246 507.336 Q21.8632 509.404 14.5426 513.638 Z" fill="#000000" fill-rule="nonzero" fill-opacity="1" /><polyline clip-path="url(#clip271)" style="stroke:#009af9; stroke-linecap:round; stroke-linejoin:round; stroke-width:16; stroke-opacity:1; fill:none" points="1304.98,86.2555 1311.05,86.2678 1317.12,86.3045 1323.19,86.3657 1329.26,86.4514 1335.33,86.5615 1341.4,86.6961 1347.46,86.8552 1353.53,87.0387 1359.59,87.2467 1365.65,87.4792 1371.71,87.736 1377.77,88.0173 1383.82,88.323 1389.87,88.6531 1395.92,89.0076 1401.96,89.3865 1408,89.7897 1414.04,90.2173 1420.07,90.6692 1426.1,91.1454 1432.12,91.646 1438.14,92.1708 1444.15,92.7198 1450.16,93.2931 1456.16,93.8906 1462.16,94.5123 1468.15,95.1582 1474.13,95.8282 1480.11,96.5223 1486.08,97.2406 1492.05,97.9828 1498.01,98.7492 1503.96,99.5395 1509.9,100.354 1515.84,101.192 1521.76,102.054 1527.68,102.94 1533.59,103.85 1539.5,104.784 1545.39,105.742 1551.27,106.723 1557.15,107.728 1563.01,108.756 1568.87,109.809 1574.71,110.885 1580.55,111.984 1586.38,113.107 1592.19,114.253 1597.99,115.423 1603.79,116.616 1609.57,117.833 1615.34,119.073 1621.1,120.336 1626.84,121.622 1632.58,122.931 1638.3,124.264 1644.01,125.619 1649.7,126.998 1655.39,128.399 1661.06,129.824 1666.71,131.271 1672.36,132.741 1677.99,134.234 1683.6,135.749 1689.2,137.287 1694.79,138.848 1700.36,140.431 1705.92,142.036 1711.46,143.664 1716.98,145.314 1722.5,146.987 1727.99,148.681 1733.47,150.398 1738.93,152.137 1744.38,153.898 1749.81,155.68 1755.22,157.485 1760.62,159.311 1766,161.159 1771.36,163.029 1776.7,164.921 1782.03,166.833 1787.34,168.768 1792.63,170.723 1797.9,172.7 1803.15,174.699 1808.39,176.718 1813.6,178.758 1818.8,180.82 1823.97,182.902 1829.13,185.005 1834.27,187.129 1839.39,189.274 1844.48,191.439 1849.56,193.624 1854.62,195.831 1859.65,198.057 1864.67,200.304 1869.66,202.571 1874.63,204.858 1879.58,207.165 1884.51,209.491 1889.42,211.838 1894.31,214.205 1899.17,216.591 1904.01,218.996 1908.83,221.422 1913.62,223.866 1918.39,226.33 1923.14,228.813 1927.87,231.315 1932.57,233.836 1937.25,236.376 1941.9,238.935 1946.54,241.513 1951.14,244.109 1955.72,246.724 1960.28,249.357 1964.81,252.009 1969.32,254.678 1973.81,257.366 1978.26,260.072 1982.7,262.796 1987.1,265.538 1991.48,268.297 1995.84,271.074 2000.17,273.868 2004.47,276.68 2008.75,279.509 2013,282.356 2017.22,285.219 2021.42,288.1 2025.58,290.997 2029.73,293.911 2033.84,296.842 2037.93,299.789 2041.99,302.752 2046.02,305.732 2050.02,308.728 2054,311.741 2057.95,314.769 2061.87,317.813 2065.76,320.873 2069.62,323.948 2073.45,327.039 2077.26,330.146 2081.03,333.267 2084.78,336.404 2088.49,339.556 2092.18,342.723 2095.84,345.904 2099.46,349.101 2103.06,352.311 2106.63,355.537 2110.16,358.776 2113.67,362.03 2117.15,365.298 2120.59,368.58 2124.01,371.876 2127.39,375.185 2130.74,378.508 2134.06,381.844 2137.35,385.194 2140.61,388.557 2143.84,391.933 2147.03,395.322 2150.2,398.724 2153.33,402.138 2156.43,405.565 2159.5,409.005 2162.53,412.456 2165.54,415.92 2168.51,419.396 2171.45,422.884 2174.35,426.384 2177.22,429.895 2180.06,433.418 2182.87,436.952 2185.64,440.498 2188.38,444.055 2191.09,447.622 2193.76,451.201 2196.4,454.79 2199.01,458.39 2201.58,462 2204.12,465.62 2206.63,469.251 2209.1,472.892 2211.54,476.542 2213.94,480.202 2216.31,483.872 2218.64,487.552 2220.94,491.241 2223.21,494.939 2225.44,498.646 2227.63,502.362 2229.79,506.086 2231.92,509.82 2234.01,513.562 2236.07,517.312 2238.09,521.07 2240.07,524.837 2242.02,528.612 2243.94,532.394 2245.82,536.184 2247.66,539.981 2249.47,543.786 2251.24,547.598 2252.98,551.417 2254.68,555.243 2256.35,559.076 2257.98,562.916 2259.57,566.762 2261.13,570.614 2262.65,574.472 2264.14,578.337 2265.59,582.208 2267,586.084 2268.38,589.966 2269.72,593.853 2271.02,597.746 2272.29,601.644 2273.52,605.547 2274.71,609.455 2275.87,613.367 2276.99,617.284 2278.08,621.206 2279.13,625.132 2280.14,629.062 2281.11,632.996 2282.05,636.934 2282.95,640.876 2283.82,644.821 2284.64,648.769 2285.43,652.721 2286.19,656.676 2286.9,660.634 2287.58,664.595 2288.22,668.558 2288.83,672.524 2289.4,676.493 2289.93,680.463 2290.42,684.436 2290.88,688.41 2291.3,692.387 2291.68,696.364 2292.02,700.344 2292.33,704.324 2292.6,708.306 2292.83,712.289 2293.03,716.273 2293.19,720.257 2293.31,724.242 2293.39,728.228 2293.44,732.213 2293.45,736.199 2293.42,740.185 2293.35,744.17 2293.25,748.155 2293.11,752.14 2292.94,756.124 2292.72,760.108 2292.47,764.09 2292.18,768.071 2291.85,772.051 2291.49,776.03 2291.09,780.007 2290.65,783.982 2290.18,787.956 2289.67,791.927 2289.12,795.897 2288.53,799.864 2287.91,803.829 2287.25,807.791 2286.55,811.75 2285.81,815.707 2285.04,819.66 2284.23,823.61 2283.39,827.557 2282.51,831.501 2281.59,835.441 2280.63,839.377 2279.64,843.309 2278.61,847.237 2277.54,851.161 2276.44,855.08 2275.3,858.995 2274.12,862.905 2272.91,866.811 2271.66,870.711 2270.37,874.606 2269.05,878.496 2267.69,882.381 2266.3,886.26 2264.87,890.134 2263.4,894.001 2261.89,897.863 2260.35,901.718 2258.78,905.567 2257.17,909.41 2255.52,913.246 2253.84,917.076 2252.12,920.898 2250.36,924.714 2248.57,928.522 2246.74,932.324 2244.88,936.117 2242.98,939.903 2241.05,943.682 2239.08,947.452 2237.08,951.215 2235.04,954.969 2232.97,958.715 2230.86,962.453 2228.72,966.182 2226.54,969.903 2224.33,973.614 2222.08,977.317 2219.8,981.01 2217.48,984.694 2215.13,988.369 2212.74,992.034 2210.32,995.689 2207.87,999.335 2205.38,1002.97 2202.86,1006.6 2200.3,1010.21 2197.71,1013.82 2195.09,1017.41 2192.43,1021 2189.74,1024.57 2187.02,1028.13 2184.26,1031.68 2181.47,1035.22 2178.65,1038.75 2175.79,1042.27 2172.9,1045.77 2169.98,1049.27 2167.03,1052.75 2164.04,1056.22 2161.02,1059.68 2157.97,1063.12 2154.88,1066.55 2151.77,1069.98 2148.62,1073.38 2145.44,1076.78 2142.23,1080.16 2138.99,1083.53 2135.71,1086.89 2132.41,1090.23 2129.07,1093.56 2125.7,1096.88 2122.3,1100.18 2118.87,1103.47 2115.41,1106.74 2111.92,1110 2108.4,1113.25 2104.85,1116.48 2101.26,1119.7 2097.65,1122.9 2094.01,1126.09 2090.34,1129.27 2086.64,1132.43 2082.91,1135.57 2079.15,1138.7 2075.36,1141.81 2071.54,1144.91 2067.69,1148 2063.81,1151.06 2059.91,1154.12 2055.98,1157.15 2052.01,1160.17 2048.03,1163.18 2044.01,1166.16 2039.96,1169.14 2035.89,1172.09 2031.79,1175.03 2027.66,1177.95 2023.5,1180.86 2019.32,1183.75 2015.11,1186.62 2010.87,1189.47 2006.61,1192.31 2002.32,1195.13 1998.01,1197.94 1993.66,1200.72 1989.3,1203.49 1984.9,1206.24 1980.48,1208.97 1976.04,1211.69 1971.57,1214.39 1967.07,1217.06 1962.55,1219.72 1958.01,1222.37 1953.44,1224.99 1948.84,1227.6 1944.22,1230.18 1939.58,1232.75 1934.91,1235.3 1930.22,1237.83 1925.51,1240.34 1920.77,1242.84 1916.01,1245.31 1911.23,1247.76 1906.42,1250.2 1901.59,1252.61 1896.74,1255.01 1891.87,1257.39 1886.97,1259.74 1882.05,1262.08 1877.11,1264.4 1872.15,1266.69 1867.17,1268.97 1862.16,1271.23 1857.14,1273.46 1852.09,1275.68 1847.02,1277.88 1841.94,1280.05 1836.83,1282.21 1831.7,1284.34 1826.56,1286.45 1821.39,1288.55 1816.2,1290.62 1811,1292.67 1805.77,1294.7 1800.53,1296.71 1795.27,1298.7 1789.99,1300.66 1784.69,1302.61 1779.37,1304.53 1774.03,1306.43 1768.68,1308.31 1763.31,1310.17 1757.92,1312.01 1752.52,1313.83 1747.1,1315.62 1741.66,1317.39 1736.2,1319.14 1730.73,1320.87 1725.25,1322.57 1719.74,1324.26 1714.22,1325.92 1708.69,1327.56 1703.14,1329.17 1697.58,1330.77 1692,1332.34 1686.4,1333.89 1680.8,1335.42 1675.17,1336.92 1669.54,1338.4 1663.89,1339.86 1658.22,1341.3 1652.55,1342.71 1646.86,1344.1 1641.15,1345.47 1635.44,1346.81 1629.71,1348.13 1623.97,1349.43 1618.22,1350.7 1612.45,1351.96 1606.68,1353.18 1600.89,1354.39 1595.09,1355.57 1589.28,1356.73 1583.46,1357.86 1577.63,1358.97 1571.79,1360.06 1565.94,1361.13 1560.08,1362.17 1554.21,1363.18 1548.33,1364.18 1542.44,1365.15 1536.55,1366.09 1530.64,1367.01 1524.72,1367.91 1518.8,1368.78 1512.87,1369.64 1506.93,1370.46 1500.98,1371.26 1495.03,1372.04 1489.07,1372.8 1483.1,1373.53 1477.12,1374.23 1471.14,1374.91 1465.15,1375.57 1459.16,1376.21 1453.16,1376.82 1447.16,1377.4 1441.15,1377.96 1435.13,1378.5 1429.11,1379.01 1423.08,1379.5 1417.05,1379.96 1411.02,1380.4 1404.98,1380.82 1398.94,1381.21 1392.89,1381.58 1386.85,1381.92 1380.79,1382.24 1374.74,1382.53 1368.68,1382.8 1362.62,1383.05 1356.56,1383.27 1350.5,1383.46 1344.43,1383.63 1338.36,1383.78 1332.3,1383.9 1326.23,1384 1320.16,1384.07 1314.09,1384.12 1308.02,1384.15 1301.94,1384.15 1295.87,1384.12 1289.8,1384.07 1283.73,1384 1277.66,1383.9 1271.6,1383.78 1265.53,1383.63 1259.46,1383.46 1253.4,1383.27 1247.34,1383.05 1241.28,1382.8 1235.22,1382.53 1229.17,1382.24 1223.11,1381.92 1217.07,1381.58 1211.02,1381.21 1204.98,1380.82 1198.94,1380.4 1192.91,1379.96 1186.88,1379.5 1180.85,1379.01 1174.83,1378.5 1168.81,1377.96 1162.8,1377.4 1156.8,1376.82 1150.8,1376.21 1144.81,1375.57 1138.82,1374.91 1132.84,1374.23 1126.86,1373.53 1120.89,1372.8 1114.93,1372.04 1108.98,1371.26 1103.03,1370.46 1097.09,1369.64 1091.16,1368.78 1085.24,1367.91 1079.32,1367.01 1073.41,1366.09 1067.52,1365.15 1061.63,1364.18 1055.75,1363.18 1049.88,1362.17 1044.02,1361.13 1038.17,1360.06 1032.33,1358.97 1026.5,1357.86 1020.68,1356.73 1014.87,1355.57 1009.07,1354.39 1003.28,1353.18 997.506,1351.96 991.742,1350.7 985.99,1349.43 980.249,1348.13 974.521,1346.81 968.806,1345.47 963.103,1344.1 957.413,1342.71 951.736,1341.3 946.073,1339.86 940.423,1338.4 934.787,1336.92 929.164,1335.42 923.556,1333.89 917.963,1332.34 912.384,1330.77 906.819,1329.17 901.27,1327.56 895.736,1325.92 890.218,1324.26 884.714,1322.57 879.227,1320.87 873.756,1319.14 868.302,1317.39 862.863,1315.62 857.442,1313.83 852.037,1312.01 846.65,1310.17 841.279,1308.31 835.926,1306.43 830.591,1304.53 825.274,1302.61 819.975,1300.66 814.694,1298.7 809.431,1296.71 804.188,1294.7 798.963,1292.67 793.757,1290.62 788.571,1288.55 783.404,1286.45 778.257,1284.34 773.129,1282.21 768.022,1280.05 762.935,1277.88 757.868,1275.68 752.822,1273.46 747.797,1271.23 742.793,1268.97 737.81,1266.69 732.849,1264.4 727.909,1262.08 722.991,1259.74 718.094,1257.39 713.22,1255.01 708.368,1252.61 703.539,1250.2 698.732,1247.76 693.949,1245.31 689.188,1242.84 684.451,1240.34 679.737,1237.83 675.046,1235.3 670.38,1232.75 665.737,1230.18 661.118,1227.6 656.524,1224.99 651.954,1222.37 647.409,1219.72 642.888,1217.06 638.393,1214.38 633.923,1211.69 629.478,1208.97 625.058,1206.24 620.664,1203.49 616.296,1200.72 611.954,1197.94 607.638,1195.13 603.349,1192.31 599.086,1189.47 594.849,1186.62 590.639,1183.75 586.457,1180.86 582.301,1177.95 578.173,1175.03 574.072,1172.09 569.998,1169.14 565.952,1166.16 561.935,1163.18 557.945,1160.17 553.983,1157.15 550.05,1154.12 546.145,1151.06 542.269,1148 538.422,1144.91 534.603,1141.81 530.814,1138.7 527.053,1135.57 523.323,1132.43 519.621,1129.27 515.949,1126.09 512.307,1122.9 508.695,1119.7 505.113,1116.48 501.561,1113.25 498.04,1110 494.549,1106.74 491.088,1103.47 487.658,1100.18 484.259,1096.88 480.891,1093.56 477.554,1090.23 474.248,1086.89 470.974,1083.53 467.731,1080.16 464.52,1076.78 461.34,1073.38 458.192,1069.98 455.076,1066.55 451.992,1063.12 448.941,1059.68 445.921,1056.22 442.934,1052.75 439.98,1049.27 437.058,1045.77 434.169,1042.27 431.313,1038.75 428.489,1035.22 425.699,1031.68 422.942,1028.13 420.218,1024.57 417.528,1020.99 414.871,1017.41 412.248,1013.82 409.658,1010.21 407.102,1006.6 404.58,1002.97 402.092,999.335 399.638,995.689 397.218,992.034 394.833,988.369 392.481,984.694 390.164,981.01 387.882,977.317 385.634,973.614 383.421,969.902 381.243,966.182 379.1,962.453 376.991,958.715 374.918,954.969 372.879,951.215 370.876,947.452 368.908,943.682 366.975,939.903 365.078,936.117 363.216,932.323 361.39,928.522 359.599,924.714 357.844,920.898 356.124,917.076 354.441,913.246 352.793,909.41 351.181,905.567 349.606,901.718 348.066,897.863 346.562,894.001 345.094,890.133 343.663,886.26 342.268,882.381 340.909,878.496 339.587,874.606 338.301,870.711 337.052,866.81 335.839,862.905 334.662,858.995 333.522,855.08 332.419,851.161 331.353,847.237 330.323,843.309 329.33,839.377 328.374,835.44 327.455,831.501 326.572,827.557 325.727,823.61 324.918,819.66 324.146,815.707 323.412,811.75 322.714,807.791 322.054,803.829 321.43,799.864 320.844,795.897 320.294,791.927 319.782,787.956 319.307,783.982 318.87,780.007 318.469,776.03 318.106,772.051 317.78,768.071 317.491,764.09 317.239,760.107 317.025,756.124 316.848,752.14 316.708,748.156 316.605,744.17 316.54,740.184 316.512,736.199 316.521,732.213 316.568,728.228 316.652,724.242 316.773,720.257 316.932,716.273 317.127,712.289 317.36,708.306 317.631,704.324 317.938,700.344 318.283,696.364 318.665,692.386 319.084,688.41 319.54,684.436 320.034,680.463 320.564,676.493 321.132,672.524 321.737,668.558 322.379,664.595 323.058,660.634 323.774,656.676 324.528,652.721 325.318,648.769 326.145,644.821 327.009,640.876 327.91,636.934 328.847,632.996 329.822,629.062 330.833,625.132 331.881,621.206 332.966,617.284 334.088,613.367 335.246,609.455 336.441,605.547 337.672,601.643 338.94,597.746 340.244,593.853 341.584,589.966 342.961,586.084 344.374,582.207 345.824,578.337 347.309,574.472 348.831,570.614 350.389,566.762 351.983,562.915 353.613,559.076 355.278,555.243 356.98,551.417 358.717,547.598 360.49,543.786 362.298,539.981 364.143,536.184 366.022,532.394 367.937,528.611 369.887,524.837 371.873,521.07 373.894,517.312 375.95,513.562 378.041,509.82 380.167,506.086 382.328,502.361 384.524,498.646 386.754,494.938 389.019,491.241 391.319,487.552 393.653,483.872 396.021,480.202 398.424,476.542 400.861,472.891 403.332,469.251 405.837,465.62 408.376,462 410.949,458.39 413.555,454.79 416.195,451.201 418.869,447.622 421.576,444.055 424.317,440.498 427.09,436.953 429.897,433.418 432.737,429.895 435.609,426.384 438.515,422.884 441.453,419.396 444.424,415.92 447.427,412.456 450.463,409.005 453.53,405.565 456.63,402.138 459.762,398.724 462.926,395.322 466.121,391.933 469.349,388.557 472.607,385.194 475.897,381.844 479.219,378.508 482.571,375.185 485.955,371.875 489.369,368.58 492.815,365.298 496.29,362.03 499.797,358.776 503.334,355.537 506.901,352.311 510.498,349.1 514.125,345.904 517.782,342.723 521.468,339.556 525.185,336.404 528.93,333.267 532.705,330.146 536.509,327.039 540.342,323.948 544.203,320.873 548.094,317.813 552.013,314.769 555.961,311.741 559.937,308.728 563.94,305.732 567.972,302.752 572.032,299.789 576.119,296.841 580.233,293.911 584.376,290.997 588.545,288.1 592.741,285.219 596.964,282.356 601.214,279.509 605.491,276.68 609.793,273.868 614.122,271.074 618.477,268.297 622.858,265.537 627.265,262.796 631.697,260.072 636.155,257.366 640.638,254.678 645.146,252.009 649.679,249.357 654.236,246.724 658.818,244.109 663.425,241.513 668.055,238.935 672.71,236.376 677.389,233.836 682.091,231.315 686.817,228.813 691.566,226.33 696.338,223.866 701.133,221.422 705.951,218.997 710.792,216.591 715.655,214.205 720.54,211.838 725.447,209.491 730.376,207.165 735.327,204.857 740.299,202.571 745.293,200.304 750.307,198.057 755.343,195.83 760.399,193.624 765.476,191.439 770.574,189.273 775.691,187.129 780.828,185.005 785.985,182.902 791.162,180.82 796.358,178.758 801.573,176.718 806.807,174.699 812.061,172.7 817.332,170.723 822.622,168.768 827.931,166.833 833.257,164.921 838.601,163.029 843.962,161.159 849.342,159.311 854.738,157.485 860.151,155.68 865.581,153.898 871.027,152.137 876.49,150.398 881.969,148.681 887.464,146.987 892.975,145.314 898.502,143.664 904.043,142.036 909.6,140.431 915.171,138.848 920.758,137.287 926.359,135.749 931.974,134.234 937.603,132.741 943.246,131.271 948.903,129.824 954.573,128.399 960.257,126.998 965.953,125.619 971.663,124.264 977.384,122.931 983.118,121.622 988.864,120.336 994.623,119.073 1000.39,117.833 1006.17,116.616 1011.97,115.423 1017.77,114.253 1023.59,113.107 1029.41,111.984 1035.25,110.884 1041.09,109.809 1046.95,108.756 1052.81,107.728 1058.69,106.723 1064.57,105.742 1070.47,104.784 1076.37,103.85 1082.28,102.94 1088.2,102.054 1094.12,101.192 1100.06,100.354 1106,99.5395 1111.95,98.7491 1117.91,97.9828 1123.88,97.2405 1129.85,96.5223 1135.83,95.8282 1141.81,95.1582 1147.8,94.5123 1153.8,93.8906 1159.8,93.2931 1165.81,92.7198 1171.82,92.1707 1177.84,91.6459 1183.86,91.1454 1189.89,90.6692 1195.92,90.2173 1201.96,89.7897 1208,89.3865 1214.04,89.0076 1220.09,88.6531 1226.14,88.323 1232.19,88.0173 1238.25,87.736 1244.31,87.4791 1250.37,87.2467 1256.43,87.0387 1262.5,86.8552 1268.56,86.6961 1274.63,86.5615 1280.7,86.4514 1286.77,86.3657 1292.84,86.3045 1298.91,86.2678 1304.98,86.2555 "/>
<polyline clip-path="url(#clip271)" style="stroke:#e26f46; stroke-linecap:round; stroke-linejoin:round; stroke-width:16; stroke-opacity:1; fill:none" points="1304.98,86.2555 1311,86.2678 1317.03,86.3046 1323.05,86.3661 1329.08,86.4521 1335.1,86.5628 1341.12,86.698 1347.14,86.8578 1353.16,87.0422 1359.18,87.2511 1365.2,87.4846 1371.22,87.7427 1377.23,88.0252 1383.25,88.3323 1389.26,88.6639 1395.27,89.02 1401.27,89.4005 1407.28,89.8055 1413.28,90.2349 1419.27,90.6886 1425.27,91.1668 1431.26,91.6693 1437.24,92.196 1443.23,92.7471 1449.21,93.3223 1455.18,93.9218 1461.15,94.5455 1467.12,95.1933 1473.08,95.8652 1479.03,96.5612 1484.98,97.2812 1490.93,98.0252 1496.86,98.7931 1502.8,99.5849 1508.72,100.401 1514.65,101.24 1520.56,102.103 1526.47,102.99 1532.37,103.901 1538.26,104.835 1544.15,105.793 1550.03,106.774 1555.9,107.779 1561.76,108.807 1567.61,109.859 1573.46,110.934 1579.3,112.032 1585.13,113.153 1590.95,114.298 1596.76,115.466 1602.56,116.656 1608.35,117.87 1614.13,119.106 1619.9,120.366 1625.66,121.648 1631.41,122.953 1637.15,124.28 1642.88,125.631 1648.6,127.003 1654.3,128.399 1660,129.817 1665.68,131.257 1671.35,132.719 1677.01,134.204 1682.66,135.711 1688.29,137.241 1693.91,138.792 1699.51,140.365 1705.11,141.961 1710.69,143.578 1716.25,145.217 1721.8,146.878 1727.34,148.561 1732.86,150.266 1738.37,151.992 1743.86,153.74 1749.34,155.509 1754.8,157.3 1760.24,159.112 1765.67,160.946 1771.08,162.8 1776.48,164.676 1781.86,166.574 1787.22,168.492 1792.57,170.431 1797.89,172.392 1803.2,174.373 1808.5,176.375 1813.77,178.398 1819.03,180.442 1824.26,182.507 1829.48,184.592 1834.68,186.698 1839.86,188.825 1845.02,190.972 1850.16,193.14 1855.27,195.328 1860.37,197.536 1865.45,199.765 1870.51,202.014 1875.54,204.282 1880.56,206.572 1885.55,208.881 1890.52,211.21 1895.47,213.559 1900.4,215.928 1905.3,218.316 1910.18,220.725 1915.04,223.153 1919.88,225.6 1924.69,228.067 1929.48,230.554 1934.24,233.06 1938.98,235.585 1943.7,238.13 1948.39,240.693 1953.06,243.276 1957.7,245.878 1962.31,248.498 1966.9,251.138 1971.47,253.796 1976.01,256.473 1980.52,259.169 1985,261.883 1989.46,264.616 1993.9,267.367 1998.3,270.137 2002.68,272.925 2007.03,275.731 2011.35,278.555 2015.65,281.397 2019.91,284.257 2024.15,287.135 2028.36,290.03 2032.54,292.943 2036.7,295.874 2040.82,298.822 2044.91,301.787 2048.98,304.77 2053.01,307.769 2057.02,310.786 2060.99,313.819 2064.94,316.869 2068.85,319.936 2072.73,323.019 2076.59,326.118 2080.41,329.234 2084.2,332.367 2087.96,335.515 2091.69,338.679 2095.38,341.859 2099.05,345.054 2102.68,348.265 2106.28,351.492 2109.85,354.734 2113.39,357.991 2116.89,361.263 2120.36,364.55 2123.8,367.852 2127.21,371.168 2130.58,374.499 2133.92,377.844 2137.23,381.204 2140.5,384.577 2143.74,387.964 2146.95,391.366 2150.12,394.78 2153.26,398.208 2156.37,401.65 2159.44,405.105 2162.48,408.572 2165.48,412.053 2168.45,415.546 2171.39,419.052 2174.29,422.57 2177.16,426.101 2179.99,429.643 2182.79,433.198 2185.55,436.764 2188.28,440.341 2190.97,443.93 2193.63,447.53 2196.26,451.142 2198.85,454.764 2201.4,458.397 2203.92,462.04 2206.4,465.694 2208.85,469.358 2211.26,473.032 2213.64,476.715 2215.99,480.409 2218.29,484.112 2220.57,487.825 2222.8,491.547 2225,495.278 2227.17,499.017 2229.3,502.766 2231.4,506.523 2233.46,510.288 2235.48,514.061 2237.47,517.843 2239.43,521.632 2241.34,525.429 2243.23,529.234 2245.08,533.045 2246.89,536.864 2248.67,540.69 2250.41,544.523 2252.12,548.362 2253.79,552.208 2255.43,556.06 2257.03,559.918 2258.6,563.782 2260.13,567.652 2261.62,571.527 2263.08,575.408 2264.51,579.295 2265.9,583.186 2267.25,587.082 2268.57,590.984 2269.86,594.889 2271.11,598.8 2272.32,602.715 2273.5,606.633 2274.65,610.556 2275.76,614.483 2276.83,618.413 2277.87,622.348 2278.87,626.285 2279.84,630.225 2280.77,634.169 2281.67,638.116 2282.54,642.065 2283.36,646.017 2284.16,649.972 2284.91,653.929 2285.64,657.888 2286.32,661.849 2286.98,665.812 2287.59,669.776 2288.17,673.742 2288.72,677.71 2289.23,681.679 2289.71,685.649 2290.15,689.62 2290.56,693.593 2290.93,697.565 2291.27,701.539 2291.57,705.511 2291.83,709.486 2292.06,713.459 2292.26,717.434 2292.42,721.408 2292.55,725.381 2292.64,729.355 2292.69,733.327 2292.71,737.299 2292.7,741.271 2292.65,745.241 2292.57,749.21 2292.45,753.177 2292.3,757.144 2292.11,761.108 2291.89,765.072 2291.63,769.033 2291.34,772.993 2291.01,776.95 2290.65,780.906 2290.25,784.859 2289.82,788.81 2289.35,792.759 2288.84,796.705 2288.3,800.648 2287.73,804.589 2287.12,808.526 2286.47,812.461 2285.79,816.392 2285.07,820.32 2284.32,824.245 2283.53,828.166 2282.7,832.083 2281.84,835.997 2280.94,839.907 2280,843.813 2279.03,847.714 2278.03,851.612 2276.99,855.505 2275.91,859.393 2274.79,863.277 2273.64,867.156 2272.45,871.031 2271.23,874.9 2269.97,878.764 2268.68,882.623 2267.34,886.476 2265.98,890.325 2264.57,894.167 2263.13,898.004 2261.65,901.835 2260.14,905.66 2258.59,909.479 2257,913.291 2255.38,917.097 2253.72,920.897 2252.03,924.691 2250.29,928.477 2248.53,932.257 2246.72,936.03 2244.88,939.795 2243.01,943.554 2241.09,947.305 2239.14,951.049 2237.16,954.785 2235.14,958.513 2233.08,962.234 2230.99,965.946 2228.86,969.651 2226.69,973.347 2224.49,977.035 2222.25,980.715 2219.98,984.386 2217.67,988.048 2215.33,991.701 2212.95,995.346 2210.53,998.981 2208.08,1002.61 2205.59,1006.22 2203.07,1009.83 2200.51,1013.43 2197.91,1017.02 2195.29,1020.6 2192.62,1024.16 2189.92,1027.72 2187.18,1031.27 2184.41,1034.81 2181.61,1038.33 2178.77,1041.85 2175.89,1045.36 2172.98,1048.85 2170.04,1052.34 2167.06,1055.81 2164.04,1059.27 2160.99,1062.72 2157.91,1066.16 2154.79,1069.59 2151.64,1073 2148.45,1076.41 2145.23,1079.8 2141.98,1083.18 2138.69,1086.54 2135.37,1089.9 2132.01,1093.24 2128.62,1096.57 2125.2,1099.89 2121.74,1103.19 2118.25,1106.48 2114.73,1109.76 2111.18,1113.02 2107.59,1116.28 2103.97,1119.51 2100.31,1122.74 2096.63,1125.94 2092.91,1129.14 2089.16,1132.32 2085.38,1135.49 2081.57,1138.64 2077.72,1141.77 2073.85,1144.9 2069.94,1148 2066.01,1151.09 2062.04,1154.17 2058.04,1157.23 2054.02,1160.27 2049.96,1163.3 2045.87,1166.32 2041.76,1169.31 2037.61,1172.29 2033.44,1175.26 2029.24,1178.21 2025,1181.14 2020.74,1184.05 2016.46,1186.95 2012.14,1189.83 2007.8,1192.69 2003.43,1195.54 1999.03,1198.36 1994.6,1201.18 1990.15,1203.97 1985.67,1206.74 1981.17,1209.5 1976.64,1212.24 1972.08,1214.96 1967.5,1217.66 1962.89,1220.35 1958.26,1223.01 1953.6,1225.66 1948.92,1228.29 1944.21,1230.89 1939.48,1233.48 1934.73,1236.05 1929.95,1238.61 1925.15,1241.14 1920.32,1243.65 1915.47,1246.14 1910.6,1248.62 1905.71,1251.07 1900.79,1253.5 1895.85,1255.92 1890.9,1258.31 1885.91,1260.68 1880.91,1263.03 1875.89,1265.37 1870.85,1267.68 1865.78,1269.97 1860.7,1272.24 1855.59,1274.49 1850.47,1276.72 1845.33,1278.92 1840.16,1281.11 1834.98,1283.27 1829.78,1285.42 1824.56,1287.54 1819.33,1289.64 1814.07,1291.72 1808.8,1293.78 1803.51,1295.81 1798.21,1297.82 1792.88,1299.82 1787.55,1301.79 1782.19,1303.73 1776.82,1305.66 1771.43,1307.56 1766.03,1309.44 1760.62,1311.3 1755.18,1313.14 1749.74,1314.95 1744.28,1316.74 1738.81,1318.51 1733.32,1320.25 1727.82,1321.98 1722.3,1323.68 1716.77,1325.35 1711.23,1327.01 1705.67,1328.64 1700.11,1330.25 1694.53,1331.83 1688.94,1333.39 1683.33,1334.93 1677.72,1336.45 1672.09,1337.94 1666.45,1339.41 1660.8,1340.86 1655.14,1342.28 1649.46,1343.68 1643.78,1345.06 1638.09,1346.41 1632.38,1347.74 1626.67,1349.05 1620.95,1350.33 1615.21,1351.59 1609.47,1352.83 1603.72,1354.04 1597.96,1355.23 1592.19,1356.39 1586.41,1357.53 1580.62,1358.65 1574.82,1359.75 1569.02,1360.82 1563.21,1361.86 1557.39,1362.89 1551.56,1363.89 1545.72,1364.86 1539.88,1365.81 1534.03,1366.74 1528.18,1367.65 1522.32,1368.53 1516.45,1369.38 1510.57,1370.22 1504.69,1371.02 1498.8,1371.81 1492.91,1372.57 1487.01,1373.31 1481.11,1374.02 1475.2,1374.71 1469.28,1375.37 1463.36,1376.01 1457.44,1376.63 1451.51,1377.22 1445.58,1377.79 1439.64,1378.34 1433.7,1378.86 1427.76,1379.36 1421.81,1379.83 1415.86,1380.28 1409.9,1380.7 1403.94,1381.1 1397.98,1381.48 1392.02,1381.83 1386.05,1382.16 1380.08,1382.46 1374.11,1382.74 1368.14,1383 1362.16,1383.23 1356.19,1383.44 1350.21,1383.62 1344.23,1383.78 1338.24,1383.92 1332.26,1384.03 1326.28,1384.12 1320.29,1384.18 1314.31,1384.22 1308.32,1384.24 1302.33,1384.23 1296.35,1384.2 1290.36,1384.14 1284.37,1384.06 1278.39,1383.96 1272.4,1383.83 1266.41,1383.68 1260.43,1383.5 1254.44,1383.3 1248.46,1383.07 1242.48,1382.83 1236.5,1382.55 1230.52,1382.26 1224.54,1381.94 1218.57,1381.6 1212.59,1381.23 1206.62,1380.84 1200.65,1380.42 1194.68,1379.98 1188.72,1379.52 1182.75,1379.04 1176.79,1378.53 1170.84,1377.99 1164.88,1377.44 1158.93,1376.86 1152.98,1376.25 1147.04,1375.62 1141.1,1374.97 1135.16,1374.3 1129.23,1373.6 1123.3,1372.88 1117.37,1372.13 1111.45,1371.37 1105.54,1370.57 1099.63,1369.76 1093.72,1368.92 1087.82,1368.06 1081.93,1367.17 1076.04,1366.26 1070.16,1365.33 1064.29,1364.37 1058.42,1363.39 1052.56,1362.39 1046.71,1361.36 1040.86,1360.31 1035.02,1359.24 1029.19,1358.14 1023.37,1357.02 1017.56,1355.88 1011.75,1354.71 1005.96,1353.52 1000.17,1352.31 994.397,1351.08 988.631,1349.82 982.874,1348.53 977.127,1347.23 971.391,1345.9 965.666,1344.55 959.952,1343.18 954.248,1341.78 948.557,1340.36 942.877,1338.92 937.209,1337.45 931.553,1335.96 925.909,1334.45 920.278,1332.92 914.66,1331.36 909.056,1329.78 903.464,1328.18 897.886,1326.56 892.323,1324.91 886.773,1323.24 881.238,1321.55 875.717,1319.84 870.212,1318.1 864.721,1316.35 859.246,1314.57 853.786,1312.76 848.342,1310.94 842.915,1309.09 837.504,1307.23 832.109,1305.34 826.732,1303.42 821.371,1301.49 816.028,1299.54 810.703,1297.56 805.395,1295.56 800.106,1293.54 794.835,1291.5 789.583,1289.44 784.349,1287.35 779.135,1285.25 773.94,1283.12 768.765,1280.98 763.61,1278.81 758.474,1276.62 753.36,1274.41 748.266,1272.18 743.193,1269.93 738.141,1267.66 733.11,1265.36 728.101,1263.05 723.114,1260.72 718.149,1258.36 713.207,1255.99 708.288,1253.6 703.392,1251.18 698.518,1248.75 693.669,1246.29 688.841,1243.82 684.04,1241.33 679.262,1238.81 674.509,1236.28 669.781,1233.73 665.077,1231.16 660.399,1228.57 655.745,1225.96 651.118,1223.33 646.518,1220.68 641.943,1218.01 637.396,1215.32 632.875,1212.62 628.381,1209.89 623.914,1207.15 619.474,1204.38 615.062,1201.6 610.677,1198.8 606.32,1195.98 601.992,1193.15 597.691,1190.29 593.419,1187.42 589.175,1184.53 584.959,1181.62 580.773,1178.7 576.615,1175.75 572.487,1172.79 568.387,1169.82 564.317,1166.83 560.277,1163.82 556.266,1160.79 552.285,1157.75 548.334,1154.69 544.414,1151.61 540.523,1148.52 536.663,1145.42 532.833,1142.3 529.034,1139.16 525.266,1136.01 521.529,1132.84 517.823,1129.66 514.148,1126.46 510.504,1123.25 506.891,1120.02 503.311,1116.78 499.761,1113.52 496.244,1110.25 492.759,1106.97 489.305,1103.68 485.884,1100.36 482.495,1097.04 479.138,1093.7 475.813,1090.35 472.521,1086.99 469.262,1083.61 466.036,1080.22 462.842,1076.82 459.681,1073.41 456.553,1069.98 453.459,1066.54 450.398,1063.09 447.369,1059.63 444.375,1056.16 441.414,1052.67 438.486,1049.18 435.592,1045.67 432.731,1042.15 429.905,1038.62 427.112,1035.08 424.353,1031.52 421.629,1027.96 418.938,1024.39 416.282,1020.81 413.659,1017.21 411.071,1013.61 408.518,1010 405.998,1006.37 403.513,1002.74 401.063,999.101 398.647,995.45 396.266,991.791 393.92,988.122 391.608,984.444 389.331,980.758 387.089,977.064 384.882,973.36 382.709,969.649 380.572,965.929 378.469,962.202 376.402,958.467 374.369,954.724 372.372,950.974 370.41,947.216 368.483,943.451 366.591,939.679 364.734,935.9 362.912,932.114 361.126,928.322 359.375,924.522 357.659,920.716 355.979,916.905 354.333,913.087 352.723,909.263 351.149,905.434 349.61,901.598 348.106,897.758 346.637,893.911 345.204,890.06 343.806,886.203 342.443,882.341 341.116,878.475 339.824,874.603 338.568,870.727 337.346,866.846 336.16,862.961 335.01,859.073 333.894,855.179 332.814,851.283 331.769,847.384 330.759,843.478 329.784,839.57 328.845,835.66 327.941,831.746 327.072,827.828 326.238,823.908 325.439,819.985 324.675,816.059 323.945,812.131 323.25,808.199 322.59,804.266 321.964,800.33 321.373,796.392 320.817,792.451 320.296,788.508 319.81,784.564 319.36,780.617 318.944,776.668 318.564,772.718 318.219,768.767 317.909,764.813 317.635,760.859 317.397,756.903 317.194,752.946 317.027,748.988 316.896,745.029 316.801,741.069 316.742,737.108 316.718,733.147 316.731,729.186 316.78,725.224 316.864,721.262 316.985,717.299 317.143,713.337 317.336,709.375 317.566,705.413 317.832,701.452 318.135,697.491 318.474,693.53 318.85,689.571 319.262,685.612 319.711,681.655 320.196,677.698 320.718,673.743 321.277,669.789 321.872,665.837 322.504,661.886 323.172,657.937 323.878,653.99 324.62,650.045 325.399,646.103 326.215,642.162 327.067,638.225 327.956,634.289 328.883,630.357 329.846,626.427 330.845,622.501 331.882,618.578 332.956,614.658 334.066,610.741 335.213,606.828 336.397,602.919 337.618,599.014 338.875,595.113 340.17,591.216 341.501,587.323 342.868,583.435 344.273,579.552 345.714,575.673 347.192,571.799 348.707,567.931 350.258,564.068 351.846,560.21 353.471,556.358 355.132,552.511 356.83,548.671 358.564,544.836 360.334,541.008 362.141,537.186 363.985,533.371 365.865,529.562 367.78,525.761 369.733,521.966 371.722,518.178 373.746,514.399 375.807,510.626 377.903,506.861 380.037,503.104 382.204,499.356 384.41,495.614 386.65,491.882 388.926,488.159 391.237,484.444 393.585,480.738 395.967,477.041 398.386,473.354 400.84,469.675 403.329,466.007 405.853,462.348 408.412,458.699 411.007,455.06 413.636,451.433 416.301,447.815 419,444.208 421.733,440.612 424.502,437.027 427.305,433.454 430.143,429.891 433.014,426.341 435.921,422.802 438.861,419.275 441.835,415.76 444.842,412.26 447.886,408.769 450.96,405.294 454.07,401.83 457.213,398.379 460.389,394.942 463.599,391.519 466.841,388.11 470.117,384.713 473.425,381.333 476.767,377.966 480.141,374.613 483.547,371.275 486.986,367.953 490.456,364.646 493.959,361.354 497.493,358.077 501.058,354.816 504.655,351.57 508.283,348.34 511.942,345.126 515.632,341.928 519.352,338.745 523.103,335.579 526.883,332.429 530.694,329.295 534.535,326.178 538.405,323.077 542.304,319.993 546.233,316.925 550.191,313.874 554.178,310.84 558.194,307.823 562.238,304.823 566.31,301.84 570.41,298.874 574.538,295.926 578.695,292.995 582.878,290.081 587.089,287.186 591.327,284.307 595.592,281.447 599.884,278.605 604.203,275.78 608.547,272.973 612.918,270.185 617.315,267.415 621.738,264.663 626.186,261.929 630.66,259.214 635.159,256.518 639.683,253.84 644.232,251.181 648.805,248.54 653.403,245.919 658.025,243.316 662.671,240.733 667.341,238.168 672.035,235.623 676.752,233.097 681.492,230.59 686.255,228.103 691.041,225.635 695.849,223.187 700.681,220.758 705.534,218.349 710.409,215.96 715.306,213.591 720.225,211.241 725.165,208.912 730.126,206.603 735.108,204.313 740.112,202.044 745.135,199.796 750.179,197.567 755.243,195.359 760.328,193.171 765.432,191.004 770.555,188.857 775.698,186.732 780.859,184.626 786.04,182.542 791.24,180.478 796.458,178.435 801.694,176.414 806.949,174.413 812.221,172.433 817.511,170.475 822.818,168.537 828.142,166.621 833.485,164.726 838.843,162.852 844.218,161 849.61,159.17 855.017,157.361 860.44,155.573 865.879,153.807 871.335,152.062 876.805,150.34 882.29,148.639 887.79,146.96 893.305,145.302 898.834,143.667 904.377,142.054 909.935,140.462 915.507,138.892 921.091,137.345 926.689,135.82 932.301,134.317 937.924,132.837 943.562,131.378 949.211,129.942 954.872,128.528 960.546,127.136 966.232,125.767 971.929,124.42 977.637,123.096 983.356,121.795 989.087,120.515 994.829,119.259 1000.58,118.025 1006.34,116.814 1012.11,115.625 1017.9,114.46 1023.69,113.317 1029.49,112.197 1035.3,111.099 1041.12,110.025 1046.94,108.973 1052.78,107.945 1058.62,106.938 1064.47,105.956 1070.34,104.996 1076.2,104.06 1082.08,103.146 1087.96,102.256 1093.85,101.389 1099.75,100.546 1105.65,99.7264 1111.56,98.9305 1117.48,98.1584 1123.4,97.41 1129.33,96.6854 1135.27,95.9846 1141.21,95.3078 1147.15,94.6548 1153.11,94.0258 1159.06,93.4208 1165.02,92.8399 1170.99,92.283 1176.96,91.7503 1182.94,91.2417 1188.92,90.7573 1194.9,90.2972 1200.89,89.8612 1206.88,89.4496 1212.88,89.0623 1218.88,88.6993 1224.88,88.3607 1230.88,88.0465 1236.89,87.7567 1242.9,87.4913 1248.91,87.2504 1254.93,87.034 1260.94,86.842 1266.96,86.6746 1272.98,86.5317 1279,86.4134 1285.02,86.3196 1291.04,86.2503 1297.07,86.2057 1303.09,86.1857 "/>
<path clip-path="url(#clip270)" d="M1859.76 1377.32 L2282.9 1377.32 L2282.9 1221.8 L1859.76 1221.8  Z" fill="#ffffff" fill-rule="evenodd" fill-opacity="1"/>
<polyline clip-path="url(#clip270)" style="stroke:#000000; stroke-linecap:round; stroke-linejoin:round; stroke-width:4; stroke-opacity:1; fill:none" points="1859.76,1377.32 2282.9,1377.32 2282.9,1221.8 1859.76,1221.8 1859.76,1377.32 "/>
<polyline clip-path="url(#clip270)" style="stroke:#009af9; stroke-linecap:round; stroke-linejoin:round; stroke-width:16; stroke-opacity:1; fill:none" points="1883.05,1273.64 2022.75,1273.64 "/>
<path clip-path="url(#clip270)" d="M2062.05 1259.53 Q2056.96 1259.53 2053.95 1263.32 Q2050.96 1267.12 2050.96 1273.67 Q2050.96 1280.2 2053.95 1283.99 Q2056.96 1287.79 2062.05 1287.79 Q2067.14 1287.79 2070.11 1283.99 Q2073.09 1280.2 2073.09 1273.67 Q2073.09 1267.12 2070.11 1263.32 Q2067.14 1259.53 2062.05 1259.53 M2062.05 1255.73 Q2069.32 1255.73 2073.67 1260.61 Q2078.02 1265.48 2078.02 1273.67 Q2078.02 1281.84 2073.67 1286.73 Q2069.32 1291.59 2062.05 1291.59 Q2054.76 1291.59 2050.39 1286.73 Q2046.03 1281.86 2046.03 1273.67 Q2046.03 1265.48 2050.39 1260.61 Q2054.76 1255.73 2062.05 1255.73 Z" fill="#000000" fill-rule="nonzero" fill-opacity="1" /><path clip-path="url(#clip270)" d="M2100.18 1268.97 Q2099.46 1268.55 2098.6 1268.37 Q2097.77 1268.16 2096.75 1268.16 Q2093.14 1268.16 2091.2 1270.52 Q2089.27 1272.86 2089.27 1277.26 L2089.27 1290.92 L2084.99 1290.92 L2084.99 1264.99 L2089.27 1264.99 L2089.27 1269.02 Q2090.62 1266.66 2092.77 1265.52 Q2094.92 1264.36 2098 1264.36 Q2098.44 1264.36 2098.97 1264.43 Q2099.51 1264.48 2100.15 1264.6 L2100.18 1268.97 Z" fill="#000000" fill-rule="nonzero" fill-opacity="1" /><path clip-path="url(#clip270)" d="M2104.64 1264.99 L2108.9 1264.99 L2108.9 1290.92 L2104.64 1290.92 L2104.64 1264.99 M2104.64 1254.9 L2108.9 1254.9 L2108.9 1260.29 L2104.64 1260.29 L2104.64 1254.9 Z" fill="#000000" fill-rule="nonzero" fill-opacity="1" /><path clip-path="url(#clip270)" d="M2134.88 1277.65 Q2134.88 1273.02 2132.95 1270.48 Q2131.06 1267.93 2127.61 1267.93 Q2124.18 1267.93 2122.26 1270.48 Q2120.36 1273.02 2120.36 1277.65 Q2120.36 1282.26 2122.26 1284.8 Q2124.18 1287.35 2127.61 1287.35 Q2131.06 1287.35 2132.95 1284.8 Q2134.88 1282.26 2134.88 1277.65 M2139.13 1287.7 Q2139.13 1294.32 2136.2 1297.54 Q2133.26 1300.78 2127.19 1300.78 Q2124.95 1300.78 2122.95 1300.43 Q2120.96 1300.11 2119.09 1299.41 L2119.09 1295.27 Q2120.96 1296.29 2122.79 1296.77 Q2124.62 1297.26 2126.52 1297.26 Q2130.71 1297.26 2132.79 1295.06 Q2134.88 1292.88 2134.88 1288.46 L2134.88 1286.36 Q2133.56 1288.65 2131.5 1289.78 Q2129.44 1290.92 2126.57 1290.92 Q2121.8 1290.92 2118.88 1287.28 Q2115.96 1283.65 2115.96 1277.65 Q2115.96 1271.63 2118.88 1268 Q2121.8 1264.36 2126.57 1264.36 Q2129.44 1264.36 2131.5 1265.5 Q2133.56 1266.63 2134.88 1268.92 L2134.88 1264.99 L2139.13 1264.99 L2139.13 1287.7 Z" fill="#000000" fill-rule="nonzero" fill-opacity="1" /><path clip-path="url(#clip270)" d="M2147.91 1264.99 L2152.17 1264.99 L2152.17 1290.92 L2147.91 1290.92 L2147.91 1264.99 M2147.91 1254.9 L2152.17 1254.9 L2152.17 1260.29 L2147.91 1260.29 L2147.91 1254.9 Z" fill="#000000" fill-rule="nonzero" fill-opacity="1" /><path clip-path="url(#clip270)" d="M2182.63 1275.27 L2182.63 1290.92 L2178.37 1290.92 L2178.37 1275.41 Q2178.37 1271.73 2176.94 1269.9 Q2175.5 1268.07 2172.63 1268.07 Q2169.18 1268.07 2167.19 1270.27 Q2165.2 1272.47 2165.2 1276.26 L2165.2 1290.92 L2160.92 1290.92 L2160.92 1264.99 L2165.2 1264.99 L2165.2 1269.02 Q2166.73 1266.68 2168.79 1265.52 Q2170.87 1264.36 2173.58 1264.36 Q2178.05 1264.36 2180.34 1267.14 Q2182.63 1269.9 2182.63 1275.27 Z" fill="#000000" fill-rule="nonzero" fill-opacity="1" /><path clip-path="url(#clip270)" d="M2202.91 1277.88 Q2197.75 1277.88 2195.75 1279.06 Q2193.76 1280.24 2193.76 1283.09 Q2193.76 1285.36 2195.25 1286.7 Q2196.75 1288.02 2199.32 1288.02 Q2202.86 1288.02 2204.99 1285.52 Q2207.14 1283 2207.14 1278.83 L2207.14 1277.88 L2202.91 1277.88 M2211.4 1276.12 L2211.4 1290.92 L2207.14 1290.92 L2207.14 1286.98 Q2205.69 1289.34 2203.51 1290.48 Q2201.33 1291.59 2198.19 1291.59 Q2194.2 1291.59 2191.84 1289.36 Q2189.5 1287.12 2189.5 1283.37 Q2189.5 1278.99 2192.42 1276.77 Q2195.36 1274.55 2201.17 1274.55 L2207.14 1274.55 L2207.14 1274.13 Q2207.14 1271.19 2205.2 1269.6 Q2203.28 1267.98 2199.78 1267.98 Q2197.56 1267.98 2195.45 1268.51 Q2193.35 1269.04 2191.4 1270.11 L2191.4 1266.17 Q2193.74 1265.27 2195.94 1264.83 Q2198.14 1264.36 2200.22 1264.36 Q2205.85 1264.36 2208.63 1267.28 Q2211.4 1270.2 2211.4 1276.12 Z" fill="#000000" fill-rule="nonzero" fill-opacity="1" /><path clip-path="url(#clip270)" d="M2220.18 1254.9 L2224.44 1254.9 L2224.44 1290.92 L2220.18 1290.92 L2220.18 1254.9 Z" fill="#000000" fill-rule="nonzero" fill-opacity="1" /><polyline clip-path="url(#clip270)" style="stroke:#e26f46; stroke-linecap:round; stroke-linejoin:round; stroke-width:16; stroke-opacity:1; fill:none" points="1883.05,1325.48 2022.75,1325.48 "/>
<path clip-path="url(#clip270)" d="M2050.71 1312.04 L2050.71 1325.02 L2056.59 1325.02 Q2059.85 1325.02 2061.64 1323.33 Q2063.42 1321.64 2063.42 1318.52 Q2063.42 1315.42 2061.64 1313.73 Q2059.85 1312.04 2056.59 1312.04 L2050.71 1312.04 M2046.03 1308.2 L2056.59 1308.2 Q2062.4 1308.2 2065.36 1310.83 Q2068.35 1313.45 2068.35 1318.52 Q2068.35 1323.64 2065.36 1326.25 Q2062.4 1328.87 2056.59 1328.87 L2050.71 1328.87 L2050.71 1342.76 L2046.03 1342.76 L2046.03 1308.2 Z" fill="#000000" fill-rule="nonzero" fill-opacity="1" /><path clip-path="url(#clip270)" d="M2088.63 1320.81 Q2087.91 1320.39 2087.05 1320.21 Q2086.22 1320 2085.2 1320 Q2081.59 1320 2079.64 1322.36 Q2077.72 1324.7 2077.72 1329.1 L2077.72 1342.76 L2073.44 1342.76 L2073.44 1316.83 L2077.72 1316.83 L2077.72 1320.86 Q2079.07 1318.5 2081.22 1317.36 Q2083.37 1316.2 2086.45 1316.2 Q2086.89 1316.2 2087.42 1316.27 Q2087.95 1316.32 2088.6 1316.44 L2088.63 1320.81 Z" fill="#000000" fill-rule="nonzero" fill-opacity="1" /><path clip-path="url(#clip270)" d="M2114.23 1328.73 L2114.23 1330.81 L2094.64 1330.81 Q2094.92 1335.21 2097.28 1337.52 Q2099.67 1339.82 2103.9 1339.82 Q2106.36 1339.82 2108.65 1339.21 Q2110.96 1338.61 2113.23 1337.41 L2113.23 1341.44 Q2110.94 1342.41 2108.53 1342.92 Q2106.13 1343.43 2103.65 1343.43 Q2097.45 1343.43 2093.81 1339.82 Q2090.2 1336.2 2090.2 1330.05 Q2090.2 1323.68 2093.63 1319.95 Q2097.07 1316.2 2102.91 1316.2 Q2108.14 1316.2 2111.17 1319.58 Q2114.23 1322.94 2114.23 1328.73 M2109.97 1327.48 Q2109.92 1323.98 2108 1321.9 Q2106.1 1319.82 2102.95 1319.82 Q2099.39 1319.82 2097.24 1321.83 Q2095.11 1323.84 2094.78 1327.5 L2109.97 1327.48 Z" fill="#000000" fill-rule="nonzero" fill-opacity="1" /><path clip-path="url(#clip270)" d="M2138.28 1320.76 L2138.28 1306.74 L2142.54 1306.74 L2142.54 1342.76 L2138.28 1342.76 L2138.28 1338.87 Q2136.94 1341.18 2134.88 1342.32 Q2132.84 1343.43 2129.97 1343.43 Q2125.27 1343.43 2122.31 1339.68 Q2119.37 1335.93 2119.37 1329.82 Q2119.37 1323.7 2122.31 1319.95 Q2125.27 1316.2 2129.97 1316.2 Q2132.84 1316.2 2134.88 1317.34 Q2136.94 1318.45 2138.28 1320.76 M2123.76 1329.82 Q2123.76 1334.51 2125.69 1337.2 Q2127.63 1339.86 2131.01 1339.86 Q2134.39 1339.86 2136.33 1337.2 Q2138.28 1334.51 2138.28 1329.82 Q2138.28 1325.12 2136.33 1322.45 Q2134.39 1319.77 2131.01 1319.77 Q2127.63 1319.77 2125.69 1322.45 Q2123.76 1325.12 2123.76 1329.82 Z" fill="#000000" fill-rule="nonzero" fill-opacity="1" /><path clip-path="url(#clip270)" d="M2151.31 1316.83 L2155.57 1316.83 L2155.57 1342.76 L2151.31 1342.76 L2151.31 1316.83 M2151.31 1306.74 L2155.57 1306.74 L2155.57 1312.13 L2151.31 1312.13 L2151.31 1306.74 Z" fill="#000000" fill-rule="nonzero" fill-opacity="1" /><path clip-path="url(#clip270)" d="M2183.14 1317.82 L2183.14 1321.81 Q2181.33 1320.81 2179.5 1320.32 Q2177.7 1319.82 2175.85 1319.82 Q2171.7 1319.82 2169.41 1322.45 Q2167.12 1325.07 2167.12 1329.82 Q2167.12 1334.56 2169.41 1337.2 Q2171.7 1339.82 2175.85 1339.82 Q2177.7 1339.82 2179.5 1339.33 Q2181.33 1338.82 2183.14 1337.82 L2183.14 1341.76 Q2181.36 1342.59 2179.44 1343.01 Q2177.54 1343.43 2175.38 1343.43 Q2169.53 1343.43 2166.08 1339.75 Q2162.63 1336.07 2162.63 1329.82 Q2162.63 1323.47 2166.1 1319.84 Q2169.6 1316.2 2175.66 1316.2 Q2177.63 1316.2 2179.5 1316.62 Q2181.38 1317.01 2183.14 1317.82 Z" fill="#000000" fill-rule="nonzero" fill-opacity="1" /><path clip-path="url(#clip270)" d="M2194.76 1309.47 L2194.76 1316.83 L2203.53 1316.83 L2203.53 1320.14 L2194.76 1320.14 L2194.76 1334.21 Q2194.76 1337.38 2195.62 1338.29 Q2196.5 1339.19 2199.16 1339.19 L2203.53 1339.19 L2203.53 1342.76 L2199.16 1342.76 Q2194.23 1342.76 2192.35 1340.93 Q2190.48 1339.07 2190.48 1334.21 L2190.48 1320.14 L2187.35 1320.14 L2187.35 1316.83 L2190.48 1316.83 L2190.48 1309.47 L2194.76 1309.47 Z" fill="#000000" fill-rule="nonzero" fill-opacity="1" /><path clip-path="url(#clip270)" d="M2231.31 1328.73 L2231.31 1330.81 L2211.73 1330.81 Q2212 1335.21 2214.37 1337.52 Q2216.75 1339.82 2220.99 1339.82 Q2223.44 1339.82 2225.73 1339.21 Q2228.05 1338.61 2230.31 1337.41 L2230.31 1341.44 Q2228.02 1342.41 2225.62 1342.92 Q2223.21 1343.43 2220.73 1343.43 Q2214.53 1343.43 2210.89 1339.82 Q2207.28 1336.2 2207.28 1330.05 Q2207.28 1323.68 2210.71 1319.95 Q2214.16 1316.2 2219.99 1316.2 Q2225.22 1316.2 2228.25 1319.58 Q2231.31 1322.94 2231.31 1328.73 M2227.05 1327.48 Q2227 1323.98 2225.08 1321.9 Q2223.19 1319.82 2220.04 1319.82 Q2216.47 1319.82 2214.32 1321.83 Q2212.19 1323.84 2211.87 1327.5 L2227.05 1327.48 Z" fill="#000000" fill-rule="nonzero" fill-opacity="1" /><path clip-path="url(#clip270)" d="M2255.36 1320.76 L2255.36 1306.74 L2259.62 1306.74 L2259.62 1342.76 L2255.36 1342.76 L2255.36 1338.87 Q2254.02 1341.18 2251.96 1342.32 Q2249.92 1343.43 2247.05 1343.43 Q2242.35 1343.43 2239.39 1339.68 Q2236.45 1335.93 2236.45 1329.82 Q2236.45 1323.7 2239.39 1319.95 Q2242.35 1316.2 2247.05 1316.2 Q2249.92 1316.2 2251.96 1317.34 Q2254.02 1318.45 2255.36 1320.76 M2240.85 1329.82 Q2240.85 1334.51 2242.77 1337.2 Q2244.71 1339.86 2248.09 1339.86 Q2251.47 1339.86 2253.42 1337.2 Q2255.36 1334.51 2255.36 1329.82 Q2255.36 1325.12 2253.42 1322.45 Q2251.47 1319.77 2248.09 1319.77 Q2244.71 1319.77 2242.77 1322.45 Q2240.85 1325.12 2240.85 1329.82 Z" fill="#000000" fill-rule="nonzero" fill-opacity="1" /></svg>
