<?xml version="1.0" encoding="utf-8"?>
<svg xmlns="http://www.w3.org/2000/svg" xmlns:xlink="http://www.w3.org/1999/xlink" width="600" height="400" viewBox="0 0 2400 1600">
<defs>
  <clipPath id="clip880">
    <rect x="0" y="0" width="2400" height="1600"/>
  </clipPath>
</defs>
<path clip-path="url(#clip880)" d="M0 1600 L2400 1600 L2400 0 L0 0  Z" fill="#ffffff" fill-rule="evenodd" fill-opacity="1"/>
<defs>
  <clipPath id="clip881">
    <rect x="480" y="0" width="1681" height="1600"/>
  </clipPath>
</defs>
<path clip-path="url(#clip880)" d="M178.867 1486.45 L2352.76 1486.45 L2352.76 47.2441 L178.867 47.2441  Z" fill="#ffffff" fill-rule="evenodd" fill-opacity="1"/>
<defs>
  <clipPath id="clip882">
    <rect x="178" y="47" width="2175" height="1440"/>
  </clipPath>
</defs>
<polyline clip-path="url(#clip882)" style="stroke:#000000; stroke-linecap:round; stroke-linejoin:round; stroke-width:2; stroke-opacity:0.1; fill:none" points="240.392,1486.45 240.392,47.2441 "/>
<polyline clip-path="url(#clip882)" style="stroke:#000000; stroke-linecap:round; stroke-linejoin:round; stroke-width:2; stroke-opacity:0.1; fill:none" points="924.005,1486.45 924.005,47.2441 "/>
<polyline clip-path="url(#clip882)" style="stroke:#000000; stroke-linecap:round; stroke-linejoin:round; stroke-width:2; stroke-opacity:0.1; fill:none" points="1607.62,1486.45 1607.62,47.2441 "/>
<polyline clip-path="url(#clip882)" style="stroke:#000000; stroke-linecap:round; stroke-linejoin:round; stroke-width:2; stroke-opacity:0.1; fill:none" points="2291.23,1486.45 2291.23,47.2441 "/>
<polyline clip-path="url(#clip880)" style="stroke:#000000; stroke-linecap:round; stroke-linejoin:round; stroke-width:4; stroke-opacity:1; fill:none" points="178.867,1486.45 2352.76,1486.45 "/>
<polyline clip-path="url(#clip880)" style="stroke:#000000; stroke-linecap:round; stroke-linejoin:round; stroke-width:4; stroke-opacity:1; fill:none" points="240.392,1486.45 240.392,1467.55 "/>
<polyline clip-path="url(#clip880)" style="stroke:#000000; stroke-linecap:round; stroke-linejoin:round; stroke-width:4; stroke-opacity:1; fill:none" points="924.005,1486.45 924.005,1467.55 "/>
<polyline clip-path="url(#clip880)" style="stroke:#000000; stroke-linecap:round; stroke-linejoin:round; stroke-width:4; stroke-opacity:1; fill:none" points="1607.62,1486.45 1607.62,1467.55 "/>
<polyline clip-path="url(#clip880)" style="stroke:#000000; stroke-linecap:round; stroke-linejoin:round; stroke-width:4; stroke-opacity:1; fill:none" points="2291.23,1486.45 2291.23,1467.55 "/>
<path clip-path="url(#clip880)" d="M217.776 1517.37 Q214.165 1517.37 212.336 1520.93 Q210.531 1524.47 210.531 1531.6 Q210.531 1538.71 212.336 1542.27 Q214.165 1545.82 217.776 1545.82 Q221.41 1545.82 223.216 1542.27 Q225.045 1538.71 225.045 1531.6 Q225.045 1524.47 223.216 1520.93 Q221.41 1517.37 217.776 1517.37 M217.776 1513.66 Q223.586 1513.66 226.642 1518.27 Q229.721 1522.85 229.721 1531.6 Q229.721 1540.33 226.642 1544.94 Q223.586 1549.52 217.776 1549.52 Q211.966 1549.52 208.887 1544.94 Q205.832 1540.33 205.832 1531.6 Q205.832 1522.85 208.887 1518.27 Q211.966 1513.66 217.776 1513.66 Z" fill="#000000" fill-rule="nonzero" fill-opacity="1" /><path clip-path="url(#clip880)" d="M237.938 1542.97 L242.822 1542.97 L242.822 1548.85 L237.938 1548.85 L237.938 1542.97 Z" fill="#000000" fill-rule="nonzero" fill-opacity="1" /><path clip-path="url(#clip880)" d="M263.007 1517.37 Q259.396 1517.37 257.568 1520.93 Q255.762 1524.47 255.762 1531.6 Q255.762 1538.71 257.568 1542.27 Q259.396 1545.82 263.007 1545.82 Q266.642 1545.82 268.447 1542.27 Q270.276 1538.71 270.276 1531.6 Q270.276 1524.47 268.447 1520.93 Q266.642 1517.37 263.007 1517.37 M263.007 1513.66 Q268.818 1513.66 271.873 1518.27 Q274.952 1522.85 274.952 1531.6 Q274.952 1540.33 271.873 1544.94 Q268.818 1549.52 263.007 1549.52 Q257.197 1549.52 254.119 1544.94 Q251.063 1540.33 251.063 1531.6 Q251.063 1522.85 254.119 1518.27 Q257.197 1513.66 263.007 1513.66 Z" fill="#000000" fill-rule="nonzero" fill-opacity="1" /><path clip-path="url(#clip880)" d="M901.887 1517.37 Q898.276 1517.37 896.447 1520.93 Q894.642 1524.47 894.642 1531.6 Q894.642 1538.71 896.447 1542.27 Q898.276 1545.82 901.887 1545.82 Q905.521 1545.82 907.327 1542.27 Q909.155 1538.71 909.155 1531.6 Q909.155 1524.47 907.327 1520.93 Q905.521 1517.37 901.887 1517.37 M901.887 1513.66 Q907.697 1513.66 910.753 1518.27 Q913.831 1522.85 913.831 1531.6 Q913.831 1540.33 910.753 1544.94 Q907.697 1549.52 901.887 1549.52 Q896.077 1549.52 892.998 1544.94 Q889.942 1540.33 889.942 1531.6 Q889.942 1522.85 892.998 1518.27 Q896.077 1513.66 901.887 1513.66 Z" fill="#000000" fill-rule="nonzero" fill-opacity="1" /><path clip-path="url(#clip880)" d="M922.049 1542.97 L926.933 1542.97 L926.933 1548.85 L922.049 1548.85 L922.049 1542.97 Z" fill="#000000" fill-rule="nonzero" fill-opacity="1" /><path clip-path="url(#clip880)" d="M937.164 1514.29 L955.521 1514.29 L955.521 1518.22 L941.447 1518.22 L941.447 1526.7 Q942.465 1526.35 943.484 1526.19 Q944.502 1526 945.521 1526 Q951.308 1526 954.687 1529.17 Q958.067 1532.34 958.067 1537.76 Q958.067 1543.34 954.595 1546.44 Q951.123 1549.52 944.803 1549.52 Q942.627 1549.52 940.359 1549.15 Q938.114 1548.78 935.706 1548.04 L935.706 1543.34 Q937.789 1544.47 940.012 1545.03 Q942.234 1545.58 944.711 1545.58 Q948.715 1545.58 951.053 1543.48 Q953.391 1541.37 953.391 1537.76 Q953.391 1534.15 951.053 1532.04 Q948.715 1529.94 944.711 1529.94 Q942.836 1529.94 940.961 1530.35 Q939.109 1530.77 937.164 1531.65 L937.164 1514.29 Z" fill="#000000" fill-rule="nonzero" fill-opacity="1" /><path clip-path="url(#clip880)" d="M1574.77 1544.91 L1582.41 1544.91 L1582.41 1518.55 L1574.1 1520.21 L1574.1 1515.95 L1582.36 1514.29 L1587.04 1514.29 L1587.04 1544.91 L1594.68 1544.91 L1594.68 1548.85 L1574.77 1548.85 L1574.77 1544.91 Z" fill="#000000" fill-rule="nonzero" fill-opacity="1" /><path clip-path="url(#clip880)" d="M1604.12 1542.97 L1609.01 1542.97 L1609.01 1548.85 L1604.12 1548.85 L1604.12 1542.97 Z" fill="#000000" fill-rule="nonzero" fill-opacity="1" /><path clip-path="url(#clip880)" d="M1629.19 1517.37 Q1625.58 1517.37 1623.75 1520.93 Q1621.95 1524.47 1621.95 1531.6 Q1621.95 1538.71 1623.75 1542.27 Q1625.58 1545.82 1629.19 1545.82 Q1632.83 1545.82 1634.63 1542.27 Q1636.46 1538.71 1636.46 1531.6 Q1636.46 1524.47 1634.63 1520.93 Q1632.83 1517.37 1629.19 1517.37 M1629.19 1513.66 Q1635 1513.66 1638.06 1518.27 Q1641.14 1522.85 1641.14 1531.6 Q1641.14 1540.33 1638.06 1544.94 Q1635 1549.52 1629.19 1549.52 Q1623.38 1549.52 1620.3 1544.94 Q1617.25 1540.33 1617.25 1531.6 Q1617.25 1522.85 1620.3 1518.27 Q1623.38 1513.66 1629.19 1513.66 Z" fill="#000000" fill-rule="nonzero" fill-opacity="1" /><path clip-path="url(#clip880)" d="M2258.88 1544.91 L2266.52 1544.91 L2266.52 1518.55 L2258.21 1520.21 L2258.21 1515.95 L2266.47 1514.29 L2271.15 1514.29 L2271.15 1544.91 L2278.79 1544.91 L2278.79 1548.85 L2258.88 1548.85 L2258.88 1544.91 Z" fill="#000000" fill-rule="nonzero" fill-opacity="1" /><path clip-path="url(#clip880)" d="M2288.23 1542.97 L2293.12 1542.97 L2293.12 1548.85 L2288.23 1548.85 L2288.23 1542.97 Z" fill="#000000" fill-rule="nonzero" fill-opacity="1" /><path clip-path="url(#clip880)" d="M2303.35 1514.29 L2321.71 1514.29 L2321.71 1518.22 L2307.63 1518.22 L2307.63 1526.7 Q2308.65 1526.35 2309.67 1526.19 Q2310.69 1526 2311.71 1526 Q2317.49 1526 2320.87 1529.17 Q2324.25 1532.34 2324.25 1537.76 Q2324.25 1543.34 2320.78 1546.44 Q2317.31 1549.52 2310.99 1549.52 Q2308.81 1549.52 2306.54 1549.15 Q2304.3 1548.78 2301.89 1548.04 L2301.89 1543.34 Q2303.97 1544.47 2306.2 1545.03 Q2308.42 1545.58 2310.89 1545.58 Q2314.9 1545.58 2317.24 1543.48 Q2319.58 1541.37 2319.58 1537.76 Q2319.58 1534.15 2317.24 1532.04 Q2314.9 1529.94 2310.89 1529.94 Q2309.02 1529.94 2307.15 1530.35 Q2305.29 1530.77 2303.35 1531.65 L2303.35 1514.29 Z" fill="#000000" fill-rule="nonzero" fill-opacity="1" /><polyline clip-path="url(#clip882)" style="stroke:#000000; stroke-linecap:round; stroke-linejoin:round; stroke-width:2; stroke-opacity:0.1; fill:none" points="178.867,1430.46 2352.76,1430.46 "/>
<polyline clip-path="url(#clip882)" style="stroke:#000000; stroke-linecap:round; stroke-linejoin:round; stroke-width:2; stroke-opacity:0.1; fill:none" points="178.867,984.489 2352.76,984.489 "/>
<polyline clip-path="url(#clip882)" style="stroke:#000000; stroke-linecap:round; stroke-linejoin:round; stroke-width:2; stroke-opacity:0.1; fill:none" points="178.867,538.519 2352.76,538.519 "/>
<polyline clip-path="url(#clip882)" style="stroke:#000000; stroke-linecap:round; stroke-linejoin:round; stroke-width:2; stroke-opacity:0.1; fill:none" points="178.867,92.5497 2352.76,92.5497 "/>
<polyline clip-path="url(#clip880)" style="stroke:#000000; stroke-linecap:round; stroke-linejoin:round; stroke-width:4; stroke-opacity:1; fill:none" points="178.867,1486.45 178.867,47.2441 "/>
<polyline clip-path="url(#clip880)" style="stroke:#000000; stroke-linecap:round; stroke-linejoin:round; stroke-width:4; stroke-opacity:1; fill:none" points="178.867,1430.46 197.764,1430.46 "/>
<polyline clip-path="url(#clip880)" style="stroke:#000000; stroke-linecap:round; stroke-linejoin:round; stroke-width:4; stroke-opacity:1; fill:none" points="178.867,984.489 197.764,984.489 "/>
<polyline clip-path="url(#clip880)" style="stroke:#000000; stroke-linecap:round; stroke-linejoin:round; stroke-width:4; stroke-opacity:1; fill:none" points="178.867,538.519 197.764,538.519 "/>
<polyline clip-path="url(#clip880)" style="stroke:#000000; stroke-linecap:round; stroke-linejoin:round; stroke-width:4; stroke-opacity:1; fill:none" points="178.867,92.5497 197.764,92.5497 "/>
<path clip-path="url(#clip880)" d="M50.9921 1430.91 L80.6679 1430.91 L80.6679 1434.85 L50.9921 1434.85 L50.9921 1430.91 Z" fill="#000000" fill-rule="nonzero" fill-opacity="1" /><path clip-path="url(#clip880)" d="M91.5706 1443.8 L99.2095 1443.8 L99.2095 1417.44 L90.8993 1419.1 L90.8993 1414.85 L99.1632 1413.18 L103.839 1413.18 L103.839 1443.8 L111.478 1443.8 L111.478 1447.74 L91.5706 1447.74 L91.5706 1443.8 Z" fill="#000000" fill-rule="nonzero" fill-opacity="1" /><path clip-path="url(#clip880)" d="M130.922 1416.26 Q127.311 1416.26 125.482 1419.82 Q123.677 1423.36 123.677 1430.49 Q123.677 1437.6 125.482 1441.16 Q127.311 1444.71 130.922 1444.71 Q134.556 1444.71 136.362 1441.16 Q138.191 1437.6 138.191 1430.49 Q138.191 1423.36 136.362 1419.82 Q134.556 1416.26 130.922 1416.26 M130.922 1412.55 Q136.732 1412.55 139.788 1417.16 Q142.867 1421.74 142.867 1430.49 Q142.867 1439.22 139.788 1443.83 Q136.732 1448.41 130.922 1448.41 Q125.112 1448.41 122.033 1443.83 Q118.978 1439.22 118.978 1430.49 Q118.978 1421.74 122.033 1417.16 Q125.112 1412.55 130.922 1412.55 Z" fill="#000000" fill-rule="nonzero" fill-opacity="1" /><path clip-path="url(#clip880)" d="M130.922 970.288 Q127.311 970.288 125.482 973.853 Q123.677 977.394 123.677 984.524 Q123.677 991.63 125.482 995.195 Q127.311 998.737 130.922 998.737 Q134.556 998.737 136.362 995.195 Q138.191 991.63 138.191 984.524 Q138.191 977.394 136.362 973.853 Q134.556 970.288 130.922 970.288 M130.922 966.584 Q136.732 966.584 139.788 971.191 Q142.867 975.774 142.867 984.524 Q142.867 993.251 139.788 997.857 Q136.732 1002.44 130.922 1002.44 Q125.112 1002.44 122.033 997.857 Q118.978 993.251 118.978 984.524 Q118.978 975.774 122.033 971.191 Q125.112 966.584 130.922 966.584 Z" fill="#000000" fill-rule="nonzero" fill-opacity="1" /><path clip-path="url(#clip880)" d="M91.5706 551.864 L99.2095 551.864 L99.2095 525.499 L90.8993 527.165 L90.8993 522.906 L99.1632 521.239 L103.839 521.239 L103.839 551.864 L111.478 551.864 L111.478 555.799 L91.5706 555.799 L91.5706 551.864 Z" fill="#000000" fill-rule="nonzero" fill-opacity="1" /><path clip-path="url(#clip880)" d="M130.922 524.318 Q127.311 524.318 125.482 527.883 Q123.677 531.425 123.677 538.554 Q123.677 545.661 125.482 549.225 Q127.311 552.767 130.922 552.767 Q134.556 552.767 136.362 549.225 Q138.191 545.661 138.191 538.554 Q138.191 531.425 136.362 527.883 Q134.556 524.318 130.922 524.318 M130.922 520.614 Q136.732 520.614 139.788 525.221 Q142.867 529.804 142.867 538.554 Q142.867 547.281 139.788 551.887 Q136.732 556.471 130.922 556.471 Q125.112 556.471 122.033 551.887 Q118.978 547.281 118.978 538.554 Q118.978 529.804 122.033 525.221 Q125.112 520.614 130.922 520.614 Z" fill="#000000" fill-rule="nonzero" fill-opacity="1" /><path clip-path="url(#clip880)" d="M94.7882 105.895 L111.108 105.895 L111.108 109.83 L89.1632 109.83 L89.1632 105.895 Q91.8252 103.14 96.4085 98.5103 Q101.015 93.8576 102.196 92.515 Q104.441 89.9919 105.321 88.2558 Q106.223 86.4965 106.223 84.8067 Q106.223 82.0521 104.279 80.316 Q102.358 78.5799 99.2558 78.5799 Q97.0567 78.5799 94.603 79.3438 Q92.1725 80.1077 89.3947 81.6586 L89.3947 76.9364 Q92.2188 75.8021 94.6724 75.2234 Q97.1261 74.6447 99.1632 74.6447 Q104.534 74.6447 107.728 77.3299 Q110.922 80.0151 110.922 84.5058 Q110.922 86.6354 110.112 88.5567 Q109.325 90.4548 107.219 93.0474 Q106.64 93.7187 103.538 96.9363 Q100.436 100.131 94.7882 105.895 Z" fill="#000000" fill-rule="nonzero" fill-opacity="1" /><path clip-path="url(#clip880)" d="M130.922 78.3484 Q127.311 78.3484 125.482 81.9132 Q123.677 85.4549 123.677 92.5844 Q123.677 99.6909 125.482 103.256 Q127.311 106.797 130.922 106.797 Q134.556 106.797 136.362 103.256 Q138.191 99.6909 138.191 92.5844 Q138.191 85.4549 136.362 81.9132 Q134.556 78.3484 130.922 78.3484 M130.922 74.6447 Q136.732 74.6447 139.788 79.2512 Q142.867 83.8345 142.867 92.5844 Q142.867 101.311 139.788 105.918 Q136.732 110.501 130.922 110.501 Q125.112 110.501 122.033 105.918 Q118.978 101.311 118.978 92.5844 Q118.978 83.8345 122.033 79.2512 Q125.112 74.6447 130.922 74.6447 Z" fill="#000000" fill-rule="nonzero" fill-opacity="1" /><polyline clip-path="url(#clip882)" style="stroke:#009af9; stroke-linecap:round; stroke-linejoin:round; stroke-width:4; stroke-opacity:1; fill:none" points="240.392,889.474 247.251,913.08 254.11,935.961 260.969,958.243 267.828,980.143 274.687,1002.24 281.546,1024.42 288.405,1046.73 295.264,1068.88 302.123,1090.3 308.982,1111.11 315.841,1131.41 322.7,1151.02 329.559,1169.71 336.418,1187.55 343.277,1204.9 350.136,1221.57 356.995,1237.32 363.854,1252.39 370.713,1266.84 377.572,1280.67 384.431,1293.92 391.29,1306.68 398.149,1318.89 405.008,1330.49 411.867,1341.48 418.726,1351.87 425.585,1361.69 432.444,1370.91 439.303,1379.53 446.162,1387.6 453.021,1395.1 459.88,1402.06 466.739,1408.48 473.598,1414.35 480.457,1419.68 487.316,1424.48 494.175,1428.77 501.034,1432.51 507.893,1435.75 514.752,1438.53 521.611,1440.81 528.47,1442.65 535.328,1444.06 542.188,1445.02 549.046,1445.59 555.905,1445.72 562.764,1445.42 569.623,1444.74 576.482,1443.7 583.341,1442.43 590.2,1440.96 597.059,1439.34 603.918,1437.48 610.777,1435.16 617.636,1432.38 624.495,1429.1 631.354,1425.29 638.213,1420.95 645.072,1416.08 651.931,1410.7 658.79,1404.92 665.649,1398.75 672.508,1392.19 679.367,1385.26 686.226,1377.93 693.085,1370.27 699.944,1362.27 706.803,1354.01 713.662,1345.61 720.521,1337.05 727.38,1328.23 734.239,1319.24 741.098,1310.14 747.957,1300.87 754.816,1291.46 761.675,1281.94 768.534,1272.3 775.393,1262.65 782.252,1253.08 789.111,1243.53 795.97,1234 802.829,1224.47 809.688,1214.98 816.547,1205.56 823.406,1196.21 830.265,1186.89 837.124,1177.55 843.983,1168.28 850.842,1159.06 857.701,1149.84 864.56,1140.66 871.419,1131.54 878.278,1122.54 885.137,1113.62 891.996,1104.7 898.855,1095.8 905.714,1087.06 912.573,1078.45 919.432,1069.89 926.291,1061.32 933.15,1052.75 940.009,1044.33 946.868,1036.06 953.727,1027.86 960.586,1019.78 967.445,1011.71 974.304,1003.62 981.163,995.541 988.022,987.485 994.881,979.568 1001.74,971.79 1008.6,964.104 1015.46,956.553 1022.32,949.104 1029.18,941.73 1036.04,934.504 1042.89,927.432 1049.75,920.434 1056.61,913.495 1063.47,906.671 1070.33,899.937 1077.19,893.232 1084.05,886.556 1090.91,879.894 1097.77,873.304 1104.62,866.804 1111.48,860.378 1118.34,854.045 1125.2,847.758 1132.06,841.519 1138.92,835.353 1145.78,829.296 1152.64,823.331 1159.5,817.431 1166.36,811.623 1173.21,805.846 1180.07,800.152 1186.93,794.547 1193.79,789.008 1200.65,783.499 1207.51,778.027 1214.37,772.652 1221.23,767.363 1228.09,762.103 1234.95,756.819 1241.8,751.577 1248.66,746.394 1255.52,741.246 1262.38,736.216 1269.24,731.286 1276.1,726.469 1282.96,721.805 1289.82,717.305 1296.68,713.013 1303.54,708.862 1310.39,704.814 1317.25,700.873 1324.11,697.115 1330.97,693.541 1337.83,690.122 1344.69,686.869 1351.55,683.86 1358.41,681.167 1365.27,678.854 1372.13,676.865 1378.98,675.067 1385.84,673.436 1392.7,672.055 1399.56,670.892 1406.42,669.944 1413.28,669.258 1420.14,668.803 1427,668.552 1433.86,668.441 1440.72,668.517 1447.57,668.843 1454.43,669.391 1461.29,670.117 1468.15,671.051 1475.01,672.123 1481.87,673.314 1488.73,674.73 1495.59,676.326 1502.45,678.057 1509.31,679.924 1516.16,681.924 1523.02,684.1 1529.88,686.506 1536.74,689.139 1543.6,691.979 1550.46,694.981 1557.32,698.186 1564.18,701.505 1571.04,704.928 1577.9,708.505 1584.75,712.256 1591.61,716.175 1598.47,720.217 1605.33,724.285 1612.19,728.463 1619.05,732.846 1625.91,737.349 1632.77,741.903 1639.63,746.567 1646.49,751.347 1653.34,756.241 1660.2,761.229 1667.06,766.226 1673.92,771.218 1680.78,776.247 1687.64,781.348 1694.5,786.544 1701.36,791.834 1708.22,797.17 1715.08,802.491 1721.93,807.774 1728.79,813.111 1735.65,818.505 1742.51,823.894 1749.37,829.231 1756.23,834.545 1763.09,839.808 1769.95,845.045 1776.81,850.251 1783.67,855.421 1790.52,860.561 1797.38,865.646 1804.24,870.65 1811.1,875.652 1817.96,880.614 1824.82,885.482 1831.68,890.272 1838.54,894.963 1845.4,899.613 1852.26,904.231 1859.11,908.771 1865.97,913.225 1872.83,917.532 1879.69,921.666 1886.55,925.659 1893.41,929.592 1900.27,933.423 1907.13,937.11 1913.99,940.727 1920.85,944.225 1927.7,947.607 1934.56,950.847 1941.42,954.016 1948.28,957.172 1955.14,960.312 1962,963.44 1968.86,966.516 1975.72,969.52 1982.58,972.449 1989.44,975.279 1996.29,978.032 2003.15,980.723 2010.01,983.326 2016.87,985.818 2023.73,988.206 2030.59,990.503 2037.45,992.734 2044.31,994.866 2051.17,996.887 2058.02,998.821 2064.88,1000.67 2071.74,1002.41 2078.6,1004.04 2085.46,1005.57 2092.32,1007.04 2099.18,1008.47 2106.04,1009.85 2112.9,1011.19 2119.76,1012.51 2126.61,1013.78 2133.47,1015.04 2140.33,1016.3 2147.19,1017.58 2154.05,1018.93 2160.91,1020.39 2167.77,1022.03 2174.63,1023.71 2181.49,1025.5 2188.35,1027.45 2195.2,1029.42 2202.06,1031.37 2208.92,1033.54 2215.78,1035.83 2222.64,1038.05 2229.5,1040.02 2236.36,1041.57 2243.22,1042.87 2250.08,1044.01 2256.94,1045.56 2263.79,1047.62 2270.65,1049.93 2277.51,1052.45 2284.37,1054.5 2291.23,1055.08 "/>
<polyline clip-path="url(#clip882)" style="stroke:#e26f46; stroke-linecap:round; stroke-linejoin:round; stroke-width:4; stroke-opacity:1; fill:none" points="240.392,87.9763 247.251,114.915 254.11,141.618 260.969,168.214 267.828,194.834 274.687,221.623 281.546,248.69 288.405,275.019 295.264,300.721 302.123,326.291 308.982,351.704 315.841,376.438 322.7,400.638 329.559,424.052 336.418,446.752 343.277,468.73 350.136,490.133 356.995,511.03 363.854,531.238 370.713,550.809 377.572,569.85 384.431,588.322 391.29,606.206 398.149,623.553 405.008,640.481 411.867,657.039 418.726,673.163 425.585,688.879 432.444,704.227 439.303,719.218 446.162,733.843 453.021,748.112 459.88,762.064 466.739,775.717 473.598,789.104 480.457,802.256 487.316,815.2 494.175,827.938 501.034,840.473 507.893,852.829 514.752,865.02 521.611,877.082 528.47,889.046 535.328,900.917 542.188,912.721 549.046,924.463 555.905,936.137 562.764,947.799 569.623,959.434 576.482,970.996 583.341,982.499 590.2,993.988 597.059,1005.49 603.918,1016.94 610.777,1028.19 617.636,1039.27 624.495,1050.16 631.354,1060.83 638.213,1071.29 645.072,1081.51 651.931,1091.6 658.79,1101.51 665.649,1111.2 672.508,1120.67 679.367,1129.91 686.226,1138.97 693.085,1147.9 699.944,1156.71 706.803,1165.37 713.662,1173.94 720.521,1182.37 727.38,1190.59 734.239,1198.65 741.098,1206.53 747.957,1214.23 754.816,1221.77 761.675,1229.22 768.534,1236.57 775.393,1243.8 782.252,1250.89 789.111,1257.83 795.97,1264.7 802.829,1271.48 809.688,1278.09 816.547,1284.54 823.406,1290.84 830.265,1296.96 837.124,1302.84 843.983,1308.53 850.842,1314.06 857.701,1319.41 864.56,1324.52 871.419,1329.41 878.278,1334.1 885.137,1338.5 891.996,1342.67 898.855,1346.57 905.714,1350.2 912.573,1353.56 919.432,1356.55 926.291,1359.19 933.15,1361.51 940.009,1363.5 946.868,1365.11 953.727,1366.38 960.586,1367.27 967.445,1367.78 974.304,1367.96 981.163,1367.77 988.022,1367.17 994.881,1366.23 1001.74,1365.01 1008.6,1363.46 1015.46,1361.57 1022.32,1359.43 1029.18,1357.06 1036.04,1354.43 1042.89,1351.5 1049.75,1348.24 1056.61,1344.61 1063.47,1340.65 1070.33,1336.41 1077.19,1331.97 1084.05,1327.25 1090.91,1322.26 1097.77,1316.99 1104.62,1311.42 1111.48,1305.58 1118.34,1299.54 1125.2,1293.32 1132.06,1286.99 1138.92,1280.51 1145.78,1273.84 1152.64,1267.06 1159.5,1260.19 1166.36,1253.23 1173.21,1246.13 1180.07,1238.92 1186.93,1231.7 1193.79,1224.4 1200.65,1217.05 1207.51,1209.71 1214.37,1202.44 1221.23,1195.24 1228.09,1188.07 1234.95,1180.92 1241.8,1173.77 1248.66,1166.63 1255.52,1159.52 1262.38,1152.42 1269.24,1145.28 1276.1,1138.22 1282.96,1131.2 1289.82,1124.16 1296.68,1117.18 1303.54,1110.29 1310.39,1103.49 1317.25,1096.76 1324.11,1090.04 1330.97,1083.34 1337.83,1076.68 1344.69,1070.11 1351.55,1063.65 1358.41,1057.3 1365.27,1051.13 1372.13,1045.13 1378.98,1039.27 1385.84,1033.53 1392.7,1027.92 1399.56,1022.5 1406.42,1017.24 1413.28,1012.06 1420.14,1007.08 1427,1002.29 1433.86,997.555 1440.72,992.827 1447.57,988.176 1454.43,983.66 1461.29,979.267 1468.15,974.989 1475.01,970.833 1481.87,966.725 1488.73,962.669 1495.59,958.701 1502.45,954.814 1509.31,951.006 1516.16,947.19 1523.02,943.305 1529.88,939.391 1536.74,935.447 1543.6,931.469 1550.46,927.492 1557.32,923.525 1564.18,919.566 1571.04,915.604 1577.9,911.604 1584.75,907.597 1591.61,903.616 1598.47,899.636 1605.33,895.689 1612.19,891.802 1619.05,887.928 1625.91,884.065 1632.77,880.146 1639.63,876.202 1646.49,872.301 1653.34,868.483 1660.2,864.66 1667.06,860.794 1673.92,856.966 1680.78,853.221 1687.64,849.504 1694.5,845.727 1701.36,841.993 1708.22,838.347 1715.08,834.704 1721.93,831.08 1728.79,827.531 1735.65,823.999 1742.51,820.418 1749.37,816.824 1756.23,813.178 1763.09,809.499 1769.95,805.825 1776.81,802.135 1783.67,798.482 1790.52,794.92 1797.38,791.42 1804.24,787.971 1811.1,784.589 1817.96,781.294 1824.82,778.151 1831.68,775.154 1838.54,772.212 1845.4,769.31 1852.26,766.484 1859.11,763.759 1865.97,761.152 1872.83,758.648 1879.69,756.297 1886.55,754.144 1893.41,752.226 1900.27,750.508 1907.13,748.922 1913.99,747.449 1920.85,746.057 1927.7,744.738 1934.56,743.495 1941.42,742.291 1948.28,741.124 1955.14,740.028 1962,739.03 1968.86,738.105 1975.72,737.266 1982.58,736.515 1989.44,735.9 1996.29,735.382 2003.15,734.933 2010.01,734.617 2016.87,734.432 2023.73,734.368 2030.59,734.406 2037.45,734.555 2044.31,734.852 2051.17,735.286 2058.02,735.841 2064.88,736.491 2071.74,737.217 2078.6,738 2085.46,738.822 2092.32,739.682 2099.18,740.573 2106.04,741.459 2112.9,742.345 2119.76,743.256 2126.61,744.239 2133.47,745.25 2140.33,746.328 2147.19,747.556 2154.05,748.866 2160.91,750.154 2167.77,751.458 2174.63,752.912 2181.49,754.509 2188.35,756.173 2195.2,758.026 2202.06,759.943 2208.92,761.813 2215.78,764.097 2222.64,767.044 2229.5,770.788 2236.36,775.387 2243.22,780.624 2250.08,786.206 2256.94,792.192 2263.79,798.585 2270.65,805.105 2277.51,811.834 2284.37,818.787 2291.23,826.216 "/>
<path clip-path="url(#clip880)" d="M2010.47 250.738 L2280.29 250.738 L2280.29 95.2176 L2010.47 95.2176  Z" fill="#ffffff" fill-rule="evenodd" fill-opacity="1"/>
<polyline clip-path="url(#clip880)" style="stroke:#000000; stroke-linecap:round; stroke-linejoin:round; stroke-width:4; stroke-opacity:1; fill:none" points="2010.47,250.738 2280.29,250.738 2280.29,95.2176 2010.47,95.2176 2010.47,250.738 "/>
<polyline clip-path="url(#clip880)" style="stroke:#009af9; stroke-linecap:round; stroke-linejoin:round; stroke-width:4; stroke-opacity:1; fill:none" points="2034.63,147.058 2179.55,147.058 "/>
<path clip-path="url(#clip880)" d="M2217.55 166.745 Q2215.75 171.375 2214.03 172.787 Q2212.32 174.199 2209.45 174.199 L2206.05 174.199 L2206.05 170.634 L2208.55 170.634 Q2210.31 170.634 2211.28 169.8 Q2212.25 168.967 2213.43 165.865 L2214.19 163.921 L2203.71 138.412 L2208.22 138.412 L2216.32 158.689 L2224.43 138.412 L2228.94 138.412 L2217.55 166.745 Z" fill="#000000" fill-rule="nonzero" fill-opacity="1" /><path clip-path="url(#clip880)" d="M2236.23 160.402 L2243.87 160.402 L2243.87 134.037 L2235.56 135.703 L2235.56 131.444 L2243.82 129.778 L2248.5 129.778 L2248.5 160.402 L2256.14 160.402 L2256.14 164.338 L2236.23 164.338 L2236.23 160.402 Z" fill="#000000" fill-rule="nonzero" fill-opacity="1" /><polyline clip-path="url(#clip880)" style="stroke:#e26f46; stroke-linecap:round; stroke-linejoin:round; stroke-width:4; stroke-opacity:1; fill:none" points="2034.63,198.898 2179.55,198.898 "/>
<path clip-path="url(#clip880)" d="M2217.55 218.585 Q2215.75 223.215 2214.03 224.627 Q2212.32 226.039 2209.45 226.039 L2206.05 226.039 L2206.05 222.474 L2208.55 222.474 Q2210.31 222.474 2211.28 221.64 Q2212.25 220.807 2213.43 217.705 L2214.19 215.761 L2203.71 190.252 L2208.22 190.252 L2216.32 210.529 L2224.43 190.252 L2228.94 190.252 L2217.55 218.585 Z" fill="#000000" fill-rule="nonzero" fill-opacity="1" /><path clip-path="url(#clip880)" d="M2239.45 212.242 L2255.77 212.242 L2255.77 216.178 L2233.82 216.178 L2233.82 212.242 Q2236.49 209.488 2241.07 204.858 Q2245.68 200.205 2246.86 198.863 Q2249.1 196.34 2249.98 194.604 Q2250.88 192.844 2250.88 191.155 Q2250.88 188.4 2248.94 186.664 Q2247.02 184.928 2243.92 184.928 Q2241.72 184.928 2239.26 185.692 Q2236.83 186.455 2234.06 188.006 L2234.06 183.284 Q2236.88 182.15 2239.33 181.571 Q2241.79 180.993 2243.82 180.993 Q2249.19 180.993 2252.39 183.678 Q2255.58 186.363 2255.58 190.854 Q2255.58 192.983 2254.77 194.905 Q2253.99 196.803 2251.88 199.395 Q2251.3 200.067 2248.2 203.284 Q2245.1 206.479 2239.45 212.242 Z" fill="#000000" fill-rule="nonzero" fill-opacity="1" /></svg>
