<?xml version="1.0" encoding="utf-8"?>
<svg xmlns="http://www.w3.org/2000/svg" xmlns:xlink="http://www.w3.org/1999/xlink" width="600" height="400" viewBox="0 0 2400 1600">
<defs>
  <clipPath id="clip550">
    <rect x="0" y="0" width="2400" height="1600"/>
  </clipPath>
</defs>
<path clip-path="url(#clip550)" d="M0 1600 L2400 1600 L2400 0 L0 0  Z" fill="#ffffff" fill-rule="evenodd" fill-opacity="1"/>
<defs>
  <clipPath id="clip551">
    <rect x="480" y="0" width="1681" height="1600"/>
  </clipPath>
</defs>
<path clip-path="url(#clip550)" d="M257.204 1423.18 L2352.76 1423.18 L2352.76 47.2441 L257.204 47.2441  Z" fill="#ffffff" fill-rule="evenodd" fill-opacity="1"/>
<defs>
  <clipPath id="clip552">
    <rect x="257" y="47" width="2097" height="1377"/>
  </clipPath>
</defs>
<polyline clip-path="url(#clip552)" style="stroke:#000000; stroke-linecap:round; stroke-linejoin:round; stroke-width:2; stroke-opacity:0.1; fill:none" points="316.511,1423.18 316.511,47.2441 "/>
<polyline clip-path="url(#clip552)" style="stroke:#000000; stroke-linecap:round; stroke-linejoin:round; stroke-width:2; stroke-opacity:0.1; fill:none" points="808.688,1423.18 808.688,47.2441 "/>
<polyline clip-path="url(#clip552)" style="stroke:#000000; stroke-linecap:round; stroke-linejoin:round; stroke-width:2; stroke-opacity:0.1; fill:none" points="1300.87,1423.18 1300.87,47.2441 "/>
<polyline clip-path="url(#clip552)" style="stroke:#000000; stroke-linecap:round; stroke-linejoin:round; stroke-width:2; stroke-opacity:0.1; fill:none" points="1793.04,1423.18 1793.04,47.2441 "/>
<polyline clip-path="url(#clip552)" style="stroke:#000000; stroke-linecap:round; stroke-linejoin:round; stroke-width:2; stroke-opacity:0.1; fill:none" points="2285.22,1423.18 2285.22,47.2441 "/>
<polyline clip-path="url(#clip550)" style="stroke:#000000; stroke-linecap:round; stroke-linejoin:round; stroke-width:4; stroke-opacity:1; fill:none" points="257.204,1423.18 2352.76,1423.18 "/>
<polyline clip-path="url(#clip550)" style="stroke:#000000; stroke-linecap:round; stroke-linejoin:round; stroke-width:4; stroke-opacity:1; fill:none" points="316.511,1423.18 316.511,1404.28 "/>
<polyline clip-path="url(#clip550)" style="stroke:#000000; stroke-linecap:round; stroke-linejoin:round; stroke-width:4; stroke-opacity:1; fill:none" points="808.688,1423.18 808.688,1404.28 "/>
<polyline clip-path="url(#clip550)" style="stroke:#000000; stroke-linecap:round; stroke-linejoin:round; stroke-width:4; stroke-opacity:1; fill:none" points="1300.87,1423.18 1300.87,1404.28 "/>
<polyline clip-path="url(#clip550)" style="stroke:#000000; stroke-linecap:round; stroke-linejoin:round; stroke-width:4; stroke-opacity:1; fill:none" points="1793.04,1423.18 1793.04,1404.28 "/>
<polyline clip-path="url(#clip550)" style="stroke:#000000; stroke-linecap:round; stroke-linejoin:round; stroke-width:4; stroke-opacity:1; fill:none" points="2285.22,1423.18 2285.22,1404.28 "/>
<path clip-path="url(#clip550)" d="M263.039 1468.75 L292.715 1468.75 L292.715 1472.69 L263.039 1472.69 L263.039 1468.75 Z" fill="#000000" fill-rule="nonzero" fill-opacity="1" /><path clip-path="url(#clip550)" d="M303.617 1481.64 L311.256 1481.64 L311.256 1455.28 L302.946 1456.95 L302.946 1452.69 L311.21 1451.02 L315.886 1451.02 L315.886 1481.64 L323.525 1481.64 L323.525 1485.58 L303.617 1485.58 L303.617 1481.64 Z" fill="#000000" fill-rule="nonzero" fill-opacity="1" /><path clip-path="url(#clip550)" d="M332.969 1479.7 L337.853 1479.7 L337.853 1485.58 L332.969 1485.58 L332.969 1479.7 Z" fill="#000000" fill-rule="nonzero" fill-opacity="1" /><path clip-path="url(#clip550)" d="M358.038 1454.1 Q354.427 1454.1 352.599 1457.66 Q350.793 1461.2 350.793 1468.33 Q350.793 1475.44 352.599 1479.01 Q354.427 1482.55 358.038 1482.55 Q361.673 1482.55 363.478 1479.01 Q365.307 1475.44 365.307 1468.33 Q365.307 1461.2 363.478 1457.66 Q361.673 1454.1 358.038 1454.1 M358.038 1450.39 Q363.849 1450.39 366.904 1455 Q369.983 1459.58 369.983 1468.33 Q369.983 1477.06 366.904 1481.67 Q363.849 1486.25 358.038 1486.25 Q352.228 1486.25 349.15 1481.67 Q346.094 1477.06 346.094 1468.33 Q346.094 1459.58 349.15 1455 Q352.228 1450.39 358.038 1450.39 Z" fill="#000000" fill-rule="nonzero" fill-opacity="1" /><path clip-path="url(#clip550)" d="M755.714 1468.75 L785.39 1468.75 L785.39 1472.69 L755.714 1472.69 L755.714 1468.75 Z" fill="#000000" fill-rule="nonzero" fill-opacity="1" /><path clip-path="url(#clip550)" d="M805.482 1454.1 Q801.871 1454.1 800.043 1457.66 Q798.237 1461.2 798.237 1468.33 Q798.237 1475.44 800.043 1479.01 Q801.871 1482.55 805.482 1482.55 Q809.117 1482.55 810.922 1479.01 Q812.751 1475.44 812.751 1468.33 Q812.751 1461.2 810.922 1457.66 Q809.117 1454.1 805.482 1454.1 M805.482 1450.39 Q811.293 1450.39 814.348 1455 Q817.427 1459.58 817.427 1468.33 Q817.427 1477.06 814.348 1481.67 Q811.293 1486.25 805.482 1486.25 Q799.672 1486.25 796.594 1481.67 Q793.538 1477.06 793.538 1468.33 Q793.538 1459.58 796.594 1455 Q799.672 1450.39 805.482 1450.39 Z" fill="#000000" fill-rule="nonzero" fill-opacity="1" /><path clip-path="url(#clip550)" d="M825.644 1479.7 L830.529 1479.7 L830.529 1485.58 L825.644 1485.58 L825.644 1479.7 Z" fill="#000000" fill-rule="nonzero" fill-opacity="1" /><path clip-path="url(#clip550)" d="M840.76 1451.02 L859.116 1451.02 L859.116 1454.96 L845.042 1454.96 L845.042 1463.43 Q846.061 1463.08 847.079 1462.92 Q848.098 1462.73 849.116 1462.73 Q854.903 1462.73 858.283 1465.9 Q861.663 1469.08 861.663 1474.49 Q861.663 1480.07 858.19 1483.17 Q854.718 1486.25 848.399 1486.25 Q846.223 1486.25 843.954 1485.88 Q841.709 1485.51 839.302 1484.77 L839.302 1480.07 Q841.385 1481.2 843.607 1481.76 Q845.829 1482.32 848.306 1482.32 Q852.311 1482.32 854.649 1480.21 Q856.987 1478.1 856.987 1474.49 Q856.987 1470.88 854.649 1468.77 Q852.311 1466.67 848.306 1466.67 Q846.431 1466.67 844.556 1467.08 Q842.704 1467.5 840.76 1468.38 L840.76 1451.02 Z" fill="#000000" fill-rule="nonzero" fill-opacity="1" /><path clip-path="url(#clip550)" d="M1278.25 1454.1 Q1274.64 1454.1 1272.81 1457.66 Q1271 1461.2 1271 1468.33 Q1271 1475.44 1272.81 1479.01 Q1274.64 1482.55 1278.25 1482.55 Q1281.88 1482.55 1283.69 1479.01 Q1285.52 1475.44 1285.52 1468.33 Q1285.52 1461.2 1283.69 1457.66 Q1281.88 1454.1 1278.25 1454.1 M1278.25 1450.39 Q1284.06 1450.39 1287.12 1455 Q1290.19 1459.58 1290.19 1468.33 Q1290.19 1477.06 1287.12 1481.67 Q1284.06 1486.25 1278.25 1486.25 Q1272.44 1486.25 1269.36 1481.67 Q1266.31 1477.06 1266.31 1468.33 Q1266.31 1459.58 1269.36 1455 Q1272.44 1450.39 1278.25 1450.39 Z" fill="#000000" fill-rule="nonzero" fill-opacity="1" /><path clip-path="url(#clip550)" d="M1298.41 1479.7 L1303.3 1479.7 L1303.3 1485.58 L1298.41 1485.58 L1298.41 1479.7 Z" fill="#000000" fill-rule="nonzero" fill-opacity="1" /><path clip-path="url(#clip550)" d="M1323.48 1454.1 Q1319.87 1454.1 1318.04 1457.66 Q1316.24 1461.2 1316.24 1468.33 Q1316.24 1475.44 1318.04 1479.01 Q1319.87 1482.55 1323.48 1482.55 Q1327.12 1482.55 1328.92 1479.01 Q1330.75 1475.44 1330.75 1468.33 Q1330.75 1461.2 1328.92 1457.66 Q1327.12 1454.1 1323.48 1454.1 M1323.48 1450.39 Q1329.29 1450.39 1332.35 1455 Q1335.43 1459.58 1335.43 1468.33 Q1335.43 1477.06 1332.35 1481.67 Q1329.29 1486.25 1323.48 1486.25 Q1317.67 1486.25 1314.59 1481.67 Q1311.54 1477.06 1311.54 1468.33 Q1311.54 1459.58 1314.59 1455 Q1317.67 1450.39 1323.48 1450.39 Z" fill="#000000" fill-rule="nonzero" fill-opacity="1" /><path clip-path="url(#clip550)" d="M1770.93 1454.1 Q1767.31 1454.1 1765.49 1457.66 Q1763.68 1461.2 1763.68 1468.33 Q1763.68 1475.44 1765.49 1479.01 Q1767.31 1482.55 1770.93 1482.55 Q1774.56 1482.55 1776.37 1479.01 Q1778.19 1475.44 1778.19 1468.33 Q1778.19 1461.2 1776.37 1457.66 Q1774.56 1454.1 1770.93 1454.1 M1770.93 1450.39 Q1776.74 1450.39 1779.79 1455 Q1782.87 1459.58 1782.87 1468.33 Q1782.87 1477.06 1779.79 1481.67 Q1776.74 1486.25 1770.93 1486.25 Q1765.12 1486.25 1762.04 1481.67 Q1758.98 1477.06 1758.98 1468.33 Q1758.98 1459.58 1762.04 1455 Q1765.12 1450.39 1770.93 1450.39 Z" fill="#000000" fill-rule="nonzero" fill-opacity="1" /><path clip-path="url(#clip550)" d="M1791.09 1479.7 L1795.97 1479.7 L1795.97 1485.58 L1791.09 1485.58 L1791.09 1479.7 Z" fill="#000000" fill-rule="nonzero" fill-opacity="1" /><path clip-path="url(#clip550)" d="M1806.2 1451.02 L1824.56 1451.02 L1824.56 1454.96 L1810.49 1454.96 L1810.49 1463.43 Q1811.5 1463.08 1812.52 1462.92 Q1813.54 1462.73 1814.56 1462.73 Q1820.35 1462.73 1823.73 1465.9 Q1827.11 1469.08 1827.11 1474.49 Q1827.11 1480.07 1823.63 1483.17 Q1820.16 1486.25 1813.84 1486.25 Q1811.67 1486.25 1809.4 1485.88 Q1807.15 1485.51 1804.74 1484.77 L1804.74 1480.07 Q1806.83 1481.2 1809.05 1481.76 Q1811.27 1482.32 1813.75 1482.32 Q1817.75 1482.32 1820.09 1480.21 Q1822.43 1478.1 1822.43 1474.49 Q1822.43 1470.88 1820.09 1468.77 Q1817.75 1466.67 1813.75 1466.67 Q1811.87 1466.67 1810 1467.08 Q1808.15 1467.5 1806.2 1468.38 L1806.2 1451.02 Z" fill="#000000" fill-rule="nonzero" fill-opacity="1" /><path clip-path="url(#clip550)" d="M2252.37 1481.64 L2260.01 1481.64 L2260.01 1455.28 L2251.7 1456.95 L2251.7 1452.69 L2259.97 1451.02 L2264.64 1451.02 L2264.64 1481.64 L2272.28 1481.64 L2272.28 1485.58 L2252.37 1485.58 L2252.37 1481.64 Z" fill="#000000" fill-rule="nonzero" fill-opacity="1" /><path clip-path="url(#clip550)" d="M2281.73 1479.7 L2286.61 1479.7 L2286.61 1485.58 L2281.73 1485.58 L2281.73 1479.7 Z" fill="#000000" fill-rule="nonzero" fill-opacity="1" /><path clip-path="url(#clip550)" d="M2306.79 1454.1 Q2303.18 1454.1 2301.36 1457.66 Q2299.55 1461.2 2299.55 1468.33 Q2299.55 1475.44 2301.36 1479.01 Q2303.18 1482.55 2306.79 1482.55 Q2310.43 1482.55 2312.23 1479.01 Q2314.06 1475.44 2314.06 1468.33 Q2314.06 1461.2 2312.23 1457.66 Q2310.43 1454.1 2306.79 1454.1 M2306.79 1450.39 Q2312.6 1450.39 2315.66 1455 Q2318.74 1459.58 2318.74 1468.33 Q2318.74 1477.06 2315.66 1481.67 Q2312.6 1486.25 2306.79 1486.25 Q2300.98 1486.25 2297.91 1481.67 Q2294.85 1477.06 2294.85 1468.33 Q2294.85 1459.58 2297.91 1455 Q2300.98 1450.39 2306.79 1450.39 Z" fill="#000000" fill-rule="nonzero" fill-opacity="1" /><path clip-path="url(#clip550)" d="M1134.03 1525.81 L1134.03 1543.66 L1142.11 1543.66 Q1146.6 1543.66 1149.05 1541.34 Q1151.5 1539.02 1151.5 1534.72 Q1151.5 1530.45 1149.05 1528.13 Q1146.6 1525.81 1142.11 1525.81 L1134.03 1525.81 M1127.6 1520.52 L1142.11 1520.52 Q1150.1 1520.52 1154.18 1524.15 Q1158.28 1527.75 1158.28 1534.72 Q1158.28 1541.75 1154.18 1545.35 Q1150.1 1548.95 1142.11 1548.95 L1134.03 1548.95 L1134.03 1568.04 L1127.6 1568.04 L1127.6 1520.52 Z" fill="#000000" fill-rule="nonzero" fill-opacity="1" /><path clip-path="url(#clip550)" d="M1178.14 1536.5 Q1173.43 1536.5 1170.7 1540.19 Q1167.96 1543.85 1167.96 1550.25 Q1167.96 1556.65 1170.66 1560.34 Q1173.4 1564 1178.14 1564 Q1182.82 1564 1185.56 1560.31 Q1188.3 1556.62 1188.3 1550.25 Q1188.3 1543.92 1185.56 1540.23 Q1182.82 1536.5 1178.14 1536.5 M1178.14 1531.54 Q1185.78 1531.54 1190.14 1536.5 Q1194.5 1541.47 1194.5 1550.25 Q1194.5 1559 1190.14 1564 Q1185.78 1568.97 1178.14 1568.97 Q1170.47 1568.97 1166.11 1564 Q1161.78 1559 1161.78 1550.25 Q1161.78 1541.47 1166.11 1536.5 Q1170.47 1531.54 1178.14 1531.54 Z" fill="#000000" fill-rule="nonzero" fill-opacity="1" /><path clip-path="url(#clip550)" d="M1226.94 1533.45 L1226.94 1538.98 Q1224.45 1537.71 1221.78 1537.07 Q1219.11 1536.44 1216.24 1536.44 Q1211.88 1536.44 1209.69 1537.77 Q1207.52 1539.11 1207.52 1541.79 Q1207.52 1543.82 1209.08 1545 Q1210.64 1546.15 1215.35 1547.2 L1217.36 1547.64 Q1223.59 1548.98 1226.2 1551.43 Q1228.85 1553.85 1228.85 1558.21 Q1228.85 1563.17 1224.9 1566.07 Q1220.98 1568.97 1214.11 1568.97 Q1211.24 1568.97 1208.13 1568.39 Q1205.04 1567.85 1201.6 1566.74 L1201.6 1560.69 Q1204.85 1562.38 1208 1563.24 Q1211.15 1564.07 1214.24 1564.07 Q1218.37 1564.07 1220.6 1562.66 Q1222.83 1561.23 1222.83 1558.65 Q1222.83 1556.27 1221.21 1554.99 Q1219.62 1553.72 1214.17 1552.54 L1212.14 1552.07 Q1206.69 1550.92 1204.27 1548.56 Q1201.86 1546.18 1201.86 1542.04 Q1201.86 1537.01 1205.42 1534.27 Q1208.99 1531.54 1215.54 1531.54 Q1218.79 1531.54 1221.65 1532.01 Q1224.52 1532.49 1226.94 1533.45 Z" fill="#000000" fill-rule="nonzero" fill-opacity="1" /><path clip-path="url(#clip550)" d="M1238.17 1532.4 L1244.03 1532.4 L1244.03 1568.04 L1238.17 1568.04 L1238.17 1532.4 M1238.17 1518.52 L1244.03 1518.52 L1244.03 1525.93 L1238.17 1525.93 L1238.17 1518.52 Z" fill="#000000" fill-rule="nonzero" fill-opacity="1" /><path clip-path="url(#clip550)" d="M1262.08 1522.27 L1262.08 1532.4 L1274.14 1532.4 L1274.14 1536.95 L1262.08 1536.95 L1262.08 1556.3 Q1262.08 1560.66 1263.25 1561.9 Q1264.46 1563.14 1268.12 1563.14 L1274.14 1563.14 L1274.14 1568.04 L1268.12 1568.04 Q1261.34 1568.04 1258.76 1565.53 Q1256.19 1562.98 1256.19 1556.3 L1256.19 1536.95 L1251.89 1536.95 L1251.89 1532.4 L1256.19 1532.4 L1256.19 1522.27 L1262.08 1522.27 Z" fill="#000000" fill-rule="nonzero" fill-opacity="1" /><path clip-path="url(#clip550)" d="M1281.84 1532.4 L1287.7 1532.4 L1287.7 1568.04 L1281.84 1568.04 L1281.84 1532.4 M1281.84 1518.52 L1287.7 1518.52 L1287.7 1525.93 L1281.84 1525.93 L1281.84 1518.52 Z" fill="#000000" fill-rule="nonzero" fill-opacity="1" /><path clip-path="url(#clip550)" d="M1313.76 1536.5 Q1309.05 1536.5 1306.32 1540.19 Q1303.58 1543.85 1303.58 1550.25 Q1303.58 1556.65 1306.28 1560.34 Q1309.02 1564 1313.76 1564 Q1318.44 1564 1321.18 1560.31 Q1323.92 1556.62 1323.92 1550.25 Q1323.92 1543.92 1321.18 1540.23 Q1318.44 1536.5 1313.76 1536.5 M1313.76 1531.54 Q1321.4 1531.54 1325.76 1536.5 Q1330.12 1541.47 1330.12 1550.25 Q1330.12 1559 1325.76 1564 Q1321.4 1568.97 1313.76 1568.97 Q1306.09 1568.97 1301.73 1564 Q1297.4 1559 1297.4 1550.25 Q1297.4 1541.47 1301.73 1536.5 Q1306.09 1531.54 1313.76 1531.54 Z" fill="#000000" fill-rule="nonzero" fill-opacity="1" /><path clip-path="url(#clip550)" d="M1369.46 1546.53 L1369.46 1568.04 L1363.61 1568.04 L1363.61 1546.72 Q1363.61 1541.66 1361.63 1539.14 Q1359.66 1536.63 1355.71 1536.63 Q1350.97 1536.63 1348.23 1539.65 Q1345.5 1542.68 1345.5 1547.9 L1345.5 1568.04 L1339.61 1568.04 L1339.61 1532.4 L1345.5 1532.4 L1345.5 1537.93 Q1347.6 1534.72 1350.43 1533.13 Q1353.3 1531.54 1357.02 1531.54 Q1363.16 1531.54 1366.31 1535.36 Q1369.46 1539.14 1369.46 1546.53 Z" fill="#000000" fill-rule="nonzero" fill-opacity="1" /><path clip-path="url(#clip550)" d="M1415.93 1518.58 Q1411.67 1525.9 1409.6 1533.06 Q1407.53 1540.23 1407.53 1547.58 Q1407.53 1554.93 1409.6 1562.16 Q1411.7 1569.35 1415.93 1576.64 L1410.84 1576.64 Q1406.07 1569.16 1403.68 1561.93 Q1401.32 1554.71 1401.32 1547.58 Q1401.32 1540.48 1403.68 1533.29 Q1406.04 1526.09 1410.84 1518.58 L1415.93 1518.58 Z" fill="#000000" fill-rule="nonzero" fill-opacity="1" /><path clip-path="url(#clip550)" d="M1430.8 1550.25 Q1430.8 1556.71 1433.44 1560.4 Q1436.11 1564.07 1440.76 1564.07 Q1445.41 1564.07 1448.08 1560.4 Q1450.75 1556.71 1450.75 1550.25 Q1450.75 1543.79 1448.08 1540.13 Q1445.41 1536.44 1440.76 1536.44 Q1436.11 1536.44 1433.44 1540.13 Q1430.8 1543.79 1430.8 1550.25 M1450.75 1562.7 Q1448.91 1565.88 1446.08 1567.44 Q1443.27 1568.97 1439.33 1568.97 Q1432.87 1568.97 1428.79 1563.81 Q1424.75 1558.65 1424.75 1550.25 Q1424.75 1541.85 1428.79 1536.69 Q1432.87 1531.54 1439.33 1531.54 Q1443.27 1531.54 1446.08 1533.1 Q1448.91 1534.62 1450.75 1537.81 L1450.75 1532.4 L1456.61 1532.4 L1456.61 1581.6 L1450.75 1581.6 L1450.75 1562.7 Z" fill="#000000" fill-rule="nonzero" fill-opacity="1" /><path clip-path="url(#clip550)" d="M1467.75 1518.58 L1472.84 1518.58 Q1477.62 1526.09 1479.97 1533.29 Q1482.36 1540.48 1482.36 1547.58 Q1482.36 1554.71 1479.97 1561.93 Q1477.62 1569.16 1472.84 1576.64 L1467.75 1576.64 Q1471.98 1569.35 1474.05 1562.16 Q1476.15 1554.93 1476.15 1547.58 Q1476.15 1540.23 1474.05 1533.06 Q1471.98 1525.9 1467.75 1518.58 Z" fill="#000000" fill-rule="nonzero" fill-opacity="1" /><polyline clip-path="url(#clip552)" style="stroke:#000000; stroke-linecap:round; stroke-linejoin:round; stroke-width:2; stroke-opacity:0.1; fill:none" points="257.204,1384.24 2352.76,1384.24 "/>
<polyline clip-path="url(#clip552)" style="stroke:#000000; stroke-linecap:round; stroke-linejoin:round; stroke-width:2; stroke-opacity:0.1; fill:none" points="257.204,1059.82 2352.76,1059.82 "/>
<polyline clip-path="url(#clip552)" style="stroke:#000000; stroke-linecap:round; stroke-linejoin:round; stroke-width:2; stroke-opacity:0.1; fill:none" points="257.204,735.404 2352.76,735.404 "/>
<polyline clip-path="url(#clip552)" style="stroke:#000000; stroke-linecap:round; stroke-linejoin:round; stroke-width:2; stroke-opacity:0.1; fill:none" points="257.204,410.985 2352.76,410.985 "/>
<polyline clip-path="url(#clip552)" style="stroke:#000000; stroke-linecap:round; stroke-linejoin:round; stroke-width:2; stroke-opacity:0.1; fill:none" points="257.204,86.5658 2352.76,86.5658 "/>
<polyline clip-path="url(#clip550)" style="stroke:#000000; stroke-linecap:round; stroke-linejoin:round; stroke-width:4; stroke-opacity:1; fill:none" points="257.204,1423.18 257.204,47.2441 "/>
<polyline clip-path="url(#clip550)" style="stroke:#000000; stroke-linecap:round; stroke-linejoin:round; stroke-width:4; stroke-opacity:1; fill:none" points="257.204,1384.24 276.102,1384.24 "/>
<polyline clip-path="url(#clip550)" style="stroke:#000000; stroke-linecap:round; stroke-linejoin:round; stroke-width:4; stroke-opacity:1; fill:none" points="257.204,1059.82 276.102,1059.82 "/>
<polyline clip-path="url(#clip550)" style="stroke:#000000; stroke-linecap:round; stroke-linejoin:round; stroke-width:4; stroke-opacity:1; fill:none" points="257.204,735.404 276.102,735.404 "/>
<polyline clip-path="url(#clip550)" style="stroke:#000000; stroke-linecap:round; stroke-linejoin:round; stroke-width:4; stroke-opacity:1; fill:none" points="257.204,410.985 276.102,410.985 "/>
<polyline clip-path="url(#clip550)" style="stroke:#000000; stroke-linecap:round; stroke-linejoin:round; stroke-width:4; stroke-opacity:1; fill:none" points="257.204,86.5658 276.102,86.5658 "/>
<path clip-path="url(#clip550)" d="M114.26 1384.69 L143.936 1384.69 L143.936 1388.63 L114.26 1388.63 L114.26 1384.69 Z" fill="#000000" fill-rule="nonzero" fill-opacity="1" /><path clip-path="url(#clip550)" d="M154.839 1397.59 L162.477 1397.59 L162.477 1371.22 L154.167 1372.89 L154.167 1368.63 L162.431 1366.96 L167.107 1366.96 L167.107 1397.59 L174.746 1397.59 L174.746 1401.52 L154.839 1401.52 L154.839 1397.59 Z" fill="#000000" fill-rule="nonzero" fill-opacity="1" /><path clip-path="url(#clip550)" d="M184.19 1395.64 L189.075 1395.64 L189.075 1401.52 L184.19 1401.52 L184.19 1395.64 Z" fill="#000000" fill-rule="nonzero" fill-opacity="1" /><path clip-path="url(#clip550)" d="M209.26 1370.04 Q205.649 1370.04 203.82 1373.6 Q202.014 1377.15 202.014 1384.28 Q202.014 1391.38 203.82 1394.95 Q205.649 1398.49 209.26 1398.49 Q212.894 1398.49 214.699 1394.95 Q216.528 1391.38 216.528 1384.28 Q216.528 1377.15 214.699 1373.6 Q212.894 1370.04 209.26 1370.04 M209.26 1366.34 Q215.07 1366.34 218.125 1370.94 Q221.204 1375.53 221.204 1384.28 Q221.204 1393 218.125 1397.61 Q215.07 1402.19 209.26 1402.19 Q203.449 1402.19 200.371 1397.61 Q197.315 1393 197.315 1384.28 Q197.315 1375.53 200.371 1370.94 Q203.449 1366.34 209.26 1366.34 Z" fill="#000000" fill-rule="nonzero" fill-opacity="1" /><path clip-path="url(#clip550)" d="M115.256 1060.27 L144.931 1060.27 L144.931 1064.21 L115.256 1064.21 L115.256 1060.27 Z" fill="#000000" fill-rule="nonzero" fill-opacity="1" /><path clip-path="url(#clip550)" d="M165.024 1045.62 Q161.413 1045.62 159.584 1049.19 Q157.778 1052.73 157.778 1059.86 Q157.778 1066.96 159.584 1070.53 Q161.413 1074.07 165.024 1074.07 Q168.658 1074.07 170.464 1070.53 Q172.292 1066.96 172.292 1059.86 Q172.292 1052.73 170.464 1049.19 Q168.658 1045.62 165.024 1045.62 M165.024 1041.92 Q170.834 1041.92 173.889 1046.52 Q176.968 1051.11 176.968 1059.86 Q176.968 1068.58 173.889 1073.19 Q170.834 1077.77 165.024 1077.77 Q159.214 1077.77 156.135 1073.19 Q153.079 1068.58 153.079 1059.86 Q153.079 1051.11 156.135 1046.52 Q159.214 1041.92 165.024 1041.92 Z" fill="#000000" fill-rule="nonzero" fill-opacity="1" /><path clip-path="url(#clip550)" d="M185.186 1071.22 L190.07 1071.22 L190.07 1077.1 L185.186 1077.1 L185.186 1071.22 Z" fill="#000000" fill-rule="nonzero" fill-opacity="1" /><path clip-path="url(#clip550)" d="M200.301 1042.54 L218.658 1042.54 L218.658 1046.48 L204.584 1046.48 L204.584 1054.95 Q205.602 1054.6 206.621 1054.44 Q207.639 1054.26 208.658 1054.26 Q214.445 1054.26 217.824 1057.43 Q221.204 1060.6 221.204 1066.01 Q221.204 1071.59 217.732 1074.7 Q214.26 1077.77 207.94 1077.77 Q205.764 1077.77 203.496 1077.4 Q201.25 1077.03 198.843 1076.29 L198.843 1071.59 Q200.926 1072.73 203.149 1073.28 Q205.371 1073.84 207.848 1073.84 Q211.852 1073.84 214.19 1071.73 Q216.528 1069.63 216.528 1066.01 Q216.528 1062.4 214.19 1060.3 Q211.852 1058.19 207.848 1058.19 Q205.973 1058.19 204.098 1058.61 Q202.246 1059.02 200.301 1059.9 L200.301 1042.54 Z" fill="#000000" fill-rule="nonzero" fill-opacity="1" /><path clip-path="url(#clip550)" d="M164.028 721.202 Q160.417 721.202 158.589 724.767 Q156.783 728.309 156.783 735.438 Q156.783 742.545 158.589 746.11 Q160.417 749.651 164.028 749.651 Q167.663 749.651 169.468 746.11 Q171.297 742.545 171.297 735.438 Q171.297 728.309 169.468 724.767 Q167.663 721.202 164.028 721.202 M164.028 717.499 Q169.839 717.499 172.894 722.105 Q175.973 726.688 175.973 735.438 Q175.973 744.165 172.894 748.772 Q169.839 753.355 164.028 753.355 Q158.218 753.355 155.14 748.772 Q152.084 744.165 152.084 735.438 Q152.084 726.688 155.14 722.105 Q158.218 717.499 164.028 717.499 Z" fill="#000000" fill-rule="nonzero" fill-opacity="1" /><path clip-path="url(#clip550)" d="M184.19 746.804 L189.075 746.804 L189.075 752.684 L184.19 752.684 L184.19 746.804 Z" fill="#000000" fill-rule="nonzero" fill-opacity="1" /><path clip-path="url(#clip550)" d="M209.26 721.202 Q205.649 721.202 203.82 724.767 Q202.014 728.309 202.014 735.438 Q202.014 742.545 203.82 746.11 Q205.649 749.651 209.26 749.651 Q212.894 749.651 214.699 746.11 Q216.528 742.545 216.528 735.438 Q216.528 728.309 214.699 724.767 Q212.894 721.202 209.26 721.202 M209.26 717.499 Q215.07 717.499 218.125 722.105 Q221.204 726.688 221.204 735.438 Q221.204 744.165 218.125 748.772 Q215.07 753.355 209.26 753.355 Q203.449 753.355 200.371 748.772 Q197.315 744.165 197.315 735.438 Q197.315 726.688 200.371 722.105 Q203.449 717.499 209.26 717.499 Z" fill="#000000" fill-rule="nonzero" fill-opacity="1" /><path clip-path="url(#clip550)" d="M165.024 396.783 Q161.413 396.783 159.584 400.348 Q157.778 403.89 157.778 411.019 Q157.778 418.126 159.584 421.691 Q161.413 425.232 165.024 425.232 Q168.658 425.232 170.464 421.691 Q172.292 418.126 172.292 411.019 Q172.292 403.89 170.464 400.348 Q168.658 396.783 165.024 396.783 M165.024 393.08 Q170.834 393.08 173.889 397.686 Q176.968 402.269 176.968 411.019 Q176.968 419.746 173.889 424.353 Q170.834 428.936 165.024 428.936 Q159.214 428.936 156.135 424.353 Q153.079 419.746 153.079 411.019 Q153.079 402.269 156.135 397.686 Q159.214 393.08 165.024 393.08 Z" fill="#000000" fill-rule="nonzero" fill-opacity="1" /><path clip-path="url(#clip550)" d="M185.186 422.385 L190.07 422.385 L190.07 428.265 L185.186 428.265 L185.186 422.385 Z" fill="#000000" fill-rule="nonzero" fill-opacity="1" /><path clip-path="url(#clip550)" d="M200.301 393.705 L218.658 393.705 L218.658 397.64 L204.584 397.64 L204.584 406.112 Q205.602 405.765 206.621 405.603 Q207.639 405.418 208.658 405.418 Q214.445 405.418 217.824 408.589 Q221.204 411.76 221.204 417.177 Q221.204 422.755 217.732 425.857 Q214.26 428.936 207.94 428.936 Q205.764 428.936 203.496 428.566 Q201.25 428.195 198.843 427.454 L198.843 422.755 Q200.926 423.89 203.149 424.445 Q205.371 425.001 207.848 425.001 Q211.852 425.001 214.19 422.894 Q216.528 420.788 216.528 417.177 Q216.528 413.566 214.19 411.459 Q211.852 409.353 207.848 409.353 Q205.973 409.353 204.098 409.769 Q202.246 410.186 200.301 411.066 L200.301 393.705 Z" fill="#000000" fill-rule="nonzero" fill-opacity="1" /><path clip-path="url(#clip550)" d="M154.839 99.9106 L162.477 99.9106 L162.477 73.545 L154.167 75.2117 L154.167 70.9524 L162.431 69.2858 L167.107 69.2858 L167.107 99.9106 L174.746 99.9106 L174.746 103.846 L154.839 103.846 L154.839 99.9106 Z" fill="#000000" fill-rule="nonzero" fill-opacity="1" /><path clip-path="url(#clip550)" d="M184.19 97.9662 L189.075 97.9662 L189.075 103.846 L184.19 103.846 L184.19 97.9662 Z" fill="#000000" fill-rule="nonzero" fill-opacity="1" /><path clip-path="url(#clip550)" d="M209.26 72.3644 Q205.649 72.3644 203.82 75.9292 Q202.014 79.4709 202.014 86.6005 Q202.014 93.7069 203.82 97.2717 Q205.649 100.813 209.26 100.813 Q212.894 100.813 214.699 97.2717 Q216.528 93.7069 216.528 86.6005 Q216.528 79.4709 214.699 75.9292 Q212.894 72.3644 209.26 72.3644 M209.26 68.6608 Q215.07 68.6608 218.125 73.2672 Q221.204 77.8505 221.204 86.6005 Q221.204 95.3273 218.125 99.9337 Q215.07 104.517 209.26 104.517 Q203.449 104.517 200.371 99.9337 Q197.315 95.3273 197.315 86.6005 Q197.315 77.8505 200.371 73.2672 Q203.449 68.6608 209.26 68.6608 Z" fill="#000000" fill-rule="nonzero" fill-opacity="1" /><path clip-path="url(#clip550)" d="M16.4842 971.396 L16.4842 961.815 L48.8219 949.689 L16.4842 937.498 L16.4842 927.918 L64.0042 927.918 L64.0042 934.188 L22.277 934.188 L54.8694 946.442 L54.8694 952.903 L22.277 965.157 L64.0042 965.157 L64.0042 971.396 L16.4842 971.396 Z" fill="#000000" fill-rule="nonzero" fill-opacity="1" /><path clip-path="url(#clip550)" d="M32.4621 901.596 Q32.4621 906.306 36.1542 909.044 Q39.8145 911.781 46.212 911.781 Q52.6095 911.781 56.3017 909.075 Q59.9619 906.338 59.9619 901.596 Q59.9619 896.917 56.2698 894.18 Q52.5777 891.442 46.212 891.442 Q39.8781 891.442 36.186 894.18 Q32.4621 896.917 32.4621 901.596 M27.4968 901.596 Q27.4968 893.957 32.4621 889.596 Q37.4273 885.236 46.212 885.236 Q54.9649 885.236 59.9619 889.596 Q64.9272 893.957 64.9272 901.596 Q64.9272 909.266 59.9619 913.627 Q54.9649 917.955 46.212 917.955 Q37.4273 917.955 32.4621 913.627 Q27.4968 909.266 27.4968 901.596 Z" fill="#000000" fill-rule="nonzero" fill-opacity="1" /><path clip-path="url(#clip550)" d="M35.1993 847.774 Q31.2526 845.577 29.3747 842.522 Q27.4968 839.466 27.4968 835.329 Q27.4968 829.759 31.4117 826.735 Q35.2948 823.711 42.4881 823.711 L64.0042 823.711 L64.0042 829.599 L42.679 829.599 Q37.5546 829.599 35.072 831.414 Q32.5894 833.228 32.5894 836.952 Q32.5894 841.503 35.6131 844.145 Q38.6368 846.787 43.8567 846.787 L64.0042 846.787 L64.0042 852.675 L42.679 852.675 Q37.5228 852.675 35.072 854.489 Q32.5894 856.304 32.5894 860.091 Q32.5894 864.579 35.6449 867.221 Q38.6686 869.863 43.8567 869.863 L64.0042 869.863 L64.0042 875.751 L28.3562 875.751 L28.3562 869.863 L33.8944 869.863 Q30.616 867.857 29.0564 865.056 Q27.4968 862.256 27.4968 858.404 Q27.4968 854.521 29.4702 851.816 Q31.4436 849.079 35.1993 847.774 Z" fill="#000000" fill-rule="nonzero" fill-opacity="1" /><path clip-path="url(#clip550)" d="M44.7161 781.538 L47.5806 781.538 L47.5806 808.465 Q53.6281 808.083 56.8109 804.837 Q59.9619 801.559 59.9619 795.734 Q59.9619 792.36 59.1344 789.209 Q58.3069 786.026 56.6518 782.907 L62.1899 782.907 Q63.5267 786.058 64.227 789.368 Q64.9272 792.678 64.9272 796.084 Q64.9272 804.614 59.9619 809.611 Q54.9967 814.576 46.5303 814.576 Q37.7774 814.576 32.6531 809.866 Q27.4968 805.123 27.4968 797.103 Q27.4968 789.909 32.1438 785.74 Q36.7589 781.538 44.7161 781.538 M42.9973 787.395 Q38.1912 787.459 35.3266 790.1 Q32.4621 792.71 32.4621 797.039 Q32.4621 801.94 35.2312 804.901 Q38.0002 807.829 43.0292 808.274 L42.9973 787.395 Z" fill="#000000" fill-rule="nonzero" fill-opacity="1" /><path clip-path="url(#clip550)" d="M42.4881 742.294 L64.0042 742.294 L64.0042 748.15 L42.679 748.15 Q37.6183 748.15 35.1038 750.124 Q32.5894 752.097 32.5894 756.044 Q32.5894 760.786 35.6131 763.523 Q38.6368 766.261 43.8567 766.261 L64.0042 766.261 L64.0042 772.149 L28.3562 772.149 L28.3562 766.261 L33.8944 766.261 Q30.6797 764.16 29.0883 761.327 Q27.4968 758.463 27.4968 754.739 Q27.4968 748.596 31.3163 745.445 Q35.1038 742.294 42.4881 742.294 Z" fill="#000000" fill-rule="nonzero" fill-opacity="1" /><path clip-path="url(#clip550)" d="M18.2347 724.82 L28.3562 724.82 L28.3562 712.757 L32.9077 712.757 L32.9077 724.82 L52.2594 724.82 Q56.6199 724.82 57.8613 723.642 Q59.1026 722.433 59.1026 718.773 L59.1026 712.757 L64.0042 712.757 L64.0042 718.773 Q64.0042 725.552 61.4897 728.13 Q58.9434 730.708 52.2594 730.708 L32.9077 730.708 L32.9077 735.005 L28.3562 735.005 L28.3562 730.708 L18.2347 730.708 L18.2347 724.82 Z" fill="#000000" fill-rule="nonzero" fill-opacity="1" /><path clip-path="url(#clip550)" d="M49.9359 705.659 L28.3562 705.659 L28.3562 699.803 L49.7131 699.803 Q54.7739 699.803 57.3202 697.829 Q59.8346 695.856 59.8346 691.909 Q59.8346 687.167 56.8109 684.43 Q53.7872 681.66 48.5673 681.66 L28.3562 681.66 L28.3562 675.804 L64.0042 675.804 L64.0042 681.66 L58.5296 681.66 Q61.7762 683.793 63.3676 686.626 Q64.9272 689.427 64.9272 693.151 Q64.9272 699.293 61.1078 702.476 Q57.2883 705.659 49.9359 705.659 M27.4968 690.923 L27.4968 690.923 Z" fill="#000000" fill-rule="nonzero" fill-opacity="1" /><path clip-path="url(#clip550)" d="M35.1993 635.987 Q31.2526 633.79 29.3747 630.735 Q27.4968 627.679 27.4968 623.542 Q27.4968 617.972 31.4117 614.948 Q35.2948 611.924 42.4881 611.924 L64.0042 611.924 L64.0042 617.812 L42.679 617.812 Q37.5546 617.812 35.072 619.627 Q32.5894 621.441 32.5894 625.165 Q32.5894 629.716 35.6131 632.358 Q38.6368 635 43.8567 635 L64.0042 635 L64.0042 640.888 L42.679 640.888 Q37.5228 640.888 35.072 642.702 Q32.5894 644.517 32.5894 648.304 Q32.5894 652.792 35.6449 655.434 Q38.6686 658.076 43.8567 658.076 L64.0042 658.076 L64.0042 663.964 L28.3562 663.964 L28.3562 658.076 L33.8944 658.076 Q30.616 656.07 29.0564 653.269 Q27.4968 650.468 27.4968 646.617 Q27.4968 642.734 29.4702 640.029 Q31.4436 637.291 35.1993 635.987 Z" fill="#000000" fill-rule="nonzero" fill-opacity="1" /><path clip-path="url(#clip550)" d="M14.5426 565.454 Q21.8632 569.72 29.0246 571.788 Q36.186 573.857 43.5384 573.857 Q50.8908 573.857 58.1159 571.788 Q65.3091 569.688 72.5979 565.454 L72.5979 570.547 Q65.1182 575.321 57.8931 577.708 Q50.668 580.064 43.5384 580.064 Q36.4406 580.064 29.2474 577.708 Q22.0542 575.353 14.5426 570.547 L14.5426 565.454 Z" fill="#000000" fill-rule="nonzero" fill-opacity="1" /><path clip-path="url(#clip550)" d="M58.657 548.426 L77.5631 548.426 L77.5631 554.315 L28.3562 554.315 L28.3562 548.426 L33.7671 548.426 Q30.5842 546.58 29.0564 543.779 Q27.4968 540.947 27.4968 537.032 Q27.4968 530.539 32.6531 526.496 Q37.8093 522.422 46.212 522.422 Q54.6147 522.422 59.771 526.496 Q64.9272 530.539 64.9272 537.032 Q64.9272 540.947 63.3994 543.779 Q61.8398 546.58 58.657 548.426 M46.212 528.502 Q39.7508 528.502 36.0905 531.175 Q32.3984 533.817 32.3984 538.464 Q32.3984 543.111 36.0905 545.784 Q39.7508 548.426 46.212 548.426 Q52.6732 548.426 56.3653 545.784 Q60.0256 543.111 60.0256 538.464 Q60.0256 533.817 56.3653 531.175 Q52.6732 528.502 46.212 528.502 Z" fill="#000000" fill-rule="nonzero" fill-opacity="1" /><path clip-path="url(#clip550)" d="M14.5426 513.638 L14.5426 508.545 Q22.0542 503.771 29.2474 501.415 Q36.4406 499.028 43.5384 499.028 Q50.668 499.028 57.8931 501.415 Q65.1182 503.771 72.5979 508.545 L72.5979 513.638 Q65.3091 509.404 58.1159 507.336 Q50.8908 505.235 43.5384 505.235 Q36.186 505.235 29.0246 507.336 Q21.8632 509.404 14.5426 513.638 Z" fill="#000000" fill-rule="nonzero" fill-opacity="1" /><polyline clip-path="url(#clip552)" style="stroke:#009af9; stroke-linecap:round; stroke-linejoin:round; stroke-width:16; stroke-opacity:1; fill:none" points="1300.87,86.5658 1306.91,86.578 1312.96,86.6147 1319,86.6759 1325.05,86.7616 1331.09,86.8717 1337.13,87.0063 1343.17,87.1653 1349.21,87.3488 1355.25,87.5568 1361.29,87.7892 1367.32,88.046 1373.35,88.3272 1379.38,88.6329 1385.4,88.9629 1391.43,89.3174 1397.44,89.6962 1403.46,90.0994 1409.47,90.5269 1415.48,90.9787 1421.48,91.4549 1427.48,91.9553 1433.47,92.48 1439.46,93.029 1445.44,93.6022 1451.42,94.1996 1457.39,94.8212 1463.36,95.4669 1469.32,96.1368 1475.27,96.8308 1481.22,97.5489 1487.16,98.2911 1493.09,99.0573 1499.02,99.8475 1504.93,100.662 1510.84,101.5 1516.75,102.362 1522.64,103.248 1528.53,104.158 1534.4,105.091 1540.27,106.048 1546.13,107.03 1551.98,108.034 1557.82,109.063 1563.66,110.115 1569.48,111.191 1575.29,112.29 1581.09,113.413 1586.88,114.559 1592.66,115.728 1598.43,116.921 1604.19,118.138 1609.93,119.377 1615.67,120.64 1621.39,121.926 1627.1,123.235 1632.8,124.568 1638.48,125.923 1644.15,127.301 1649.81,128.703 1655.46,130.127 1661.09,131.574 1666.71,133.043 1672.32,134.536 1677.91,136.051 1683.49,137.589 1689.05,139.149 1694.6,140.732 1700.13,142.337 1705.65,143.965 1711.16,145.614 1716.64,147.287 1722.12,148.981 1727.57,150.697 1733.01,152.436 1738.44,154.196 1743.84,155.979 1749.23,157.783 1754.61,159.609 1759.96,161.457 1765.3,163.327 1770.63,165.218 1775.93,167.13 1781.22,169.064 1786.48,171.019 1791.73,172.996 1796.96,174.994 1802.18,177.013 1807.37,179.053 1812.55,181.114 1817.7,183.196 1822.84,185.299 1827.95,187.422 1833.05,189.566 1838.12,191.731 1843.18,193.917 1848.22,196.122 1853.23,198.348 1858.22,200.595 1863.2,202.861 1868.15,205.148 1873.08,207.454 1877.99,209.781 1882.87,212.127 1887.74,214.493 1892.58,216.879 1897.4,219.284 1902.2,221.709 1906.97,224.153 1911.73,226.617 1916.46,229.099 1921.16,231.601 1925.85,234.122 1930.5,236.661 1935.14,239.22 1939.75,241.797 1944.34,244.393 1948.9,247.007 1953.44,249.64 1957.95,252.291 1962.44,254.96 1966.91,257.648 1971.35,260.353 1975.76,263.076 1980.15,265.818 1984.51,268.576 1988.85,271.353 1993.16,274.147 1997.44,276.958 2001.7,279.787 2005.93,282.633 2010.14,285.496 2014.32,288.376 2018.47,291.273 2022.6,294.186 2026.69,297.116 2030.76,300.063 2034.81,303.026 2038.82,306.006 2042.81,309.001 2046.77,312.013 2050.7,315.041 2054.6,318.084 2058.48,321.144 2062.32,324.219 2066.14,327.309 2069.93,330.415 2073.69,333.536 2077.42,336.672 2081.12,339.824 2084.79,342.99 2088.43,346.171 2092.04,349.367 2095.62,352.577 2099.18,355.802 2102.7,359.041 2106.19,362.294 2109.65,365.561 2113.08,368.843 2116.48,372.138 2119.85,375.446 2123.19,378.769 2126.5,382.105 2129.77,385.454 2133.02,388.816 2136.23,392.192 2139.42,395.58 2142.57,398.981 2145.68,402.395 2148.77,405.822 2151.83,409.261 2154.85,412.712 2157.84,416.175 2160.8,419.651 2163.72,423.138 2166.62,426.637 2169.48,430.148 2172.31,433.67 2175.1,437.204 2177.86,440.749 2180.59,444.305 2183.29,447.872 2185.95,451.449 2188.58,455.038 2191.18,458.637 2193.74,462.247 2196.27,465.867 2198.76,469.497 2201.22,473.137 2203.65,476.787 2206.04,480.446 2208.4,484.116 2210.72,487.795 2213.01,491.483 2215.27,495.18 2217.49,498.887 2219.68,502.602 2221.83,506.326 2223.95,510.059 2226.03,513.8 2228.08,517.55 2230.09,521.308 2232.07,525.073 2234.01,528.847 2235.92,532.629 2237.79,536.418 2239.62,540.215 2241.43,544.019 2243.19,547.831 2244.92,551.649 2246.62,555.475 2248.27,559.307 2249.9,563.146 2251.48,566.991 2253.04,570.843 2254.55,574.7 2256.03,578.564 2257.47,582.434 2258.88,586.31 2260.25,590.191 2261.59,594.078 2262.89,597.97 2264.15,601.867 2265.37,605.77 2266.56,609.677 2267.72,613.589 2268.83,617.505 2269.91,621.426 2270.96,625.351 2271.97,629.281 2272.94,633.214 2273.87,637.151 2274.77,641.092 2275.63,645.037 2276.45,648.985 2277.24,652.936 2277.99,656.89 2278.7,660.848 2279.38,664.808 2280.02,668.771 2280.62,672.736 2281.18,676.704 2281.71,680.673 2282.2,684.645 2282.66,688.619 2283.08,692.595 2283.46,696.572 2283.8,700.551 2284.11,704.531 2284.38,708.512 2284.61,712.494 2284.8,716.477 2284.96,720.461 2285.08,724.445 2285.16,728.43 2285.21,732.415 2285.22,736.4 2285.19,740.385 2285.13,744.37 2285.02,748.354 2284.89,752.338 2284.71,756.322 2284.5,760.304 2284.25,764.286 2283.96,768.267 2283.63,772.246 2283.27,776.224 2282.87,780.2 2282.44,784.175 2281.96,788.148 2281.45,792.119 2280.91,796.088 2280.32,800.054 2279.7,804.018 2279.04,807.98 2278.35,811.938 2277.62,815.894 2276.85,819.847 2276.04,823.797 2275.2,827.743 2274.32,831.686 2273.41,835.625 2272.46,839.56 2271.47,843.492 2270.44,847.419 2269.38,851.342 2268.28,855.261 2267.15,859.175 2265.97,863.085 2264.77,866.989 2263.52,870.889 2262.24,874.784 2260.92,878.673 2259.57,882.557 2258.18,886.436 2256.76,890.309 2255.29,894.175 2253.8,898.036 2252.26,901.891 2250.69,905.74 2249.09,909.582 2247.45,913.417 2245.77,917.246 2244.06,921.068 2242.31,924.883 2240.53,928.691 2238.71,932.491 2236.86,936.284 2234.97,940.07 2233.04,943.848 2231.08,947.618 2229.09,951.38 2227.06,955.133 2224.99,958.879 2222.89,962.616 2220.76,966.344 2218.59,970.064 2216.38,973.775 2214.15,977.477 2211.87,981.17 2209.57,984.853 2207.23,988.527 2204.85,992.192 2202.44,995.847 2200,999.492 2197.52,1003.13 2195.01,1006.75 2192.46,1010.37 2189.88,1013.97 2187.27,1017.56 2184.62,1021.15 2181.95,1024.72 2179.23,1028.28 2176.49,1031.83 2173.71,1035.37 2170.9,1038.9 2168.05,1042.42 2165.18,1045.92 2162.27,1049.41 2159.32,1052.9 2156.35,1056.37 2153.34,1059.82 2150.3,1063.27 2147.23,1066.7 2144.13,1070.12 2140.99,1073.53 2137.83,1076.92 2134.63,1080.3 2131.4,1083.67 2128.14,1087.03 2124.85,1090.37 2121.52,1093.7 2118.17,1097.02 2114.79,1100.32 2111.37,1103.61 2107.92,1106.88 2104.45,1110.14 2100.94,1113.39 2097.4,1116.62 2093.84,1119.84 2090.24,1123.04 2086.61,1126.23 2082.96,1129.4 2079.27,1132.56 2075.55,1135.7 2071.81,1138.83 2068.04,1141.95 2064.23,1145.05 2060.4,1148.13 2056.54,1151.2 2052.65,1154.25 2048.74,1157.28 2044.79,1160.3 2040.82,1163.31 2036.82,1166.29 2032.79,1169.26 2028.73,1172.22 2024.65,1175.16 2020.54,1178.08 2016.4,1180.99 2012.23,1183.87 2008.04,1186.74 2003.82,1189.6 1999.58,1192.44 1995.3,1195.26 1991.01,1198.06 1986.68,1200.84 1982.33,1203.61 1977.96,1206.36 1973.56,1209.09 1969.13,1211.81 1964.68,1214.51 1960.2,1217.18 1955.7,1219.84 1951.17,1222.49 1946.62,1225.11 1942.05,1227.71 1937.45,1230.3 1932.82,1232.87 1928.18,1235.42 1923.51,1237.95 1918.81,1240.46 1914.09,1242.95 1909.35,1245.42 1904.59,1247.88 1899.8,1250.31 1894.99,1252.73 1890.16,1255.12 1885.31,1257.5 1880.43,1259.86 1875.54,1262.19 1870.62,1264.51 1865.67,1266.81 1860.71,1269.08 1855.73,1271.34 1850.73,1273.57 1845.7,1275.79 1840.65,1277.99 1835.59,1280.16 1830.5,1282.32 1825.4,1284.45 1820.27,1286.56 1815.13,1288.65 1809.96,1290.73 1804.78,1292.78 1799.57,1294.81 1794.35,1296.81 1789.11,1298.8 1783.85,1300.77 1778.58,1302.71 1773.28,1304.64 1767.97,1306.54 1762.64,1308.42 1757.29,1310.28 1751.92,1312.11 1746.54,1313.93 1741.14,1315.72 1735.73,1317.49 1730.29,1319.24 1724.85,1320.97 1719.38,1322.68 1713.9,1324.36 1708.41,1326.02 1702.9,1327.66 1697.37,1329.28 1691.83,1330.87 1686.27,1332.44 1680.7,1333.99 1675.12,1335.52 1669.52,1337.02 1663.91,1338.5 1658.28,1339.96 1652.64,1341.4 1646.99,1342.81 1641.32,1344.2 1635.64,1345.56 1629.95,1346.91 1624.24,1348.23 1618.53,1349.53 1612.8,1350.8 1607.06,1352.05 1601.31,1353.28 1595.55,1354.49 1589.77,1355.67 1583.99,1356.82 1578.19,1357.96 1572.38,1359.07 1566.57,1360.16 1560.74,1361.22 1554.91,1362.26 1549.06,1363.28 1543.2,1364.27 1537.34,1365.24 1531.47,1366.19 1525.59,1367.11 1519.69,1368.01 1513.8,1368.88 1507.89,1369.73 1501.98,1370.56 1496.05,1371.36 1490.12,1372.14 1484.19,1372.89 1478.24,1373.62 1472.29,1374.33 1466.34,1375.01 1460.37,1375.67 1454.41,1376.3 1448.43,1376.91 1442.45,1377.49 1436.46,1378.06 1430.47,1378.59 1424.48,1379.11 1418.48,1379.59 1412.47,1380.06 1406.46,1380.5 1400.45,1380.91 1394.43,1381.3 1388.41,1381.67 1382.39,1382.01 1376.36,1382.33 1370.33,1382.62 1364.3,1382.89 1358.27,1383.14 1352.23,1383.36 1346.19,1383.55 1340.15,1383.72 1334.11,1383.87 1328.07,1383.99 1322.02,1384.09 1315.98,1384.16 1309.93,1384.21 1303.89,1384.24 1297.84,1384.24 1291.8,1384.21 1285.75,1384.16 1279.71,1384.09 1273.66,1383.99 1267.62,1383.87 1261.58,1383.72 1255.54,1383.55 1249.5,1383.36 1243.46,1383.14 1237.43,1382.89 1231.4,1382.62 1225.37,1382.33 1219.34,1382.01 1213.32,1381.67 1207.3,1381.3 1201.28,1380.91 1195.27,1380.5 1189.26,1380.06 1183.25,1379.59 1177.25,1379.11 1171.26,1378.59 1165.27,1378.06 1159.28,1377.49 1153.3,1376.91 1147.33,1376.3 1141.36,1375.67 1135.39,1375.01 1129.44,1374.33 1123.49,1373.62 1117.54,1372.89 1111.61,1372.14 1105.68,1371.36 1099.76,1370.56 1093.84,1369.73 1087.94,1368.88 1082.04,1368.01 1076.15,1367.11 1070.26,1366.19 1064.39,1365.24 1058.53,1364.27 1052.67,1363.28 1046.83,1362.26 1040.99,1361.22 1035.16,1360.16 1029.35,1359.07 1023.54,1357.96 1017.75,1356.82 1011.96,1355.67 1006.19,1354.49 1000.42,1353.28 994.672,1352.05 988.932,1350.8 983.203,1349.53 977.487,1348.23 971.783,1346.91 966.091,1345.56 960.412,1344.2 954.746,1342.81 949.092,1341.4 943.452,1339.96 937.826,1338.5 932.213,1337.02 926.615,1335.52 921.03,1333.99 915.459,1332.44 909.904,1330.87 904.362,1329.28 898.836,1327.66 893.325,1326.02 887.83,1324.36 882.35,1322.68 876.885,1320.97 871.437,1319.24 866.005,1317.49 860.589,1315.72 855.19,1313.93 849.808,1312.11 844.443,1310.28 839.095,1308.42 833.765,1306.54 828.452,1304.64 823.156,1302.71 817.879,1300.77 812.62,1298.8 807.38,1296.81 802.158,1294.81 796.955,1292.78 791.771,1290.73 786.606,1288.65 781.461,1286.56 776.335,1284.45 771.229,1282.32 766.143,1280.16 761.077,1277.99 756.031,1275.79 751.006,1273.57 746.002,1271.34 741.019,1269.08 736.057,1266.81 731.116,1264.51 726.196,1262.19 721.299,1259.86 716.423,1257.5 711.569,1255.12 706.738,1252.73 701.928,1250.31 697.142,1247.88 692.378,1245.42 687.637,1242.95 682.919,1240.46 678.225,1237.95 673.554,1235.42 668.907,1232.87 664.284,1230.3 659.684,1227.71 655.109,1225.11 650.558,1222.49 646.032,1219.84 641.53,1217.18 637.053,1214.51 632.602,1211.81 628.175,1209.09 623.774,1206.36 619.399,1203.61 615.049,1200.84 610.725,1198.06 606.427,1195.26 602.155,1192.44 597.909,1189.6 593.691,1186.74 589.498,1183.87 585.333,1180.98 581.195,1178.08 577.084,1175.16 573,1172.22 568.943,1169.26 564.914,1166.29 560.913,1163.31 556.94,1160.3 552.995,1157.28 549.078,1154.25 545.189,1151.19 541.329,1148.13 537.498,1145.05 533.695,1141.95 529.922,1138.83 526.177,1135.7 522.462,1132.56 518.776,1129.4 515.119,1126.23 511.492,1123.04 507.895,1119.84 504.328,1116.62 500.791,1113.39 497.284,1110.14 493.808,1106.88 490.361,1103.61 486.946,1100.32 483.561,1097.02 480.207,1093.7 476.884,1090.37 473.592,1087.03 470.331,1083.67 467.102,1080.3 463.904,1076.92 460.737,1073.53 457.602,1070.12 454.499,1066.7 451.428,1063.27 448.389,1059.82 445.382,1056.36 442.408,1052.9 439.466,1049.41 436.556,1045.92 433.679,1042.42 430.835,1038.9 428.023,1035.37 425.245,1031.83 422.499,1028.28 419.787,1024.72 417.107,1021.15 414.462,1017.56 411.849,1013.97 409.27,1010.37 406.725,1006.75 404.213,1003.13 401.736,999.492 399.292,995.846 396.882,992.192 394.507,988.527 392.165,984.853 389.858,981.17 387.585,977.477 385.347,973.775 383.143,970.064 380.974,966.344 378.839,962.616 376.739,958.879 374.674,955.133 372.645,951.38 370.65,947.617 368.69,943.848 366.765,940.07 364.876,936.284 363.021,932.491 361.203,928.691 359.419,924.883 357.672,921.068 355.959,917.246 354.283,913.417 352.642,909.582 351.037,905.74 349.468,901.891 347.934,898.036 346.437,894.175 344.975,890.308 343.55,886.436 342.161,882.557 340.808,878.673 339.491,874.784 338.21,870.889 336.966,866.989 335.758,863.084 334.587,859.175 333.452,855.261 332.353,851.342 331.291,847.419 330.266,843.492 329.277,839.56 328.325,835.624 327.409,831.686 326.53,827.743 325.688,823.796 324.883,819.847 324.115,815.894 323.383,811.938 322.688,807.98 322.03,804.018 321.41,800.054 320.826,796.088 320.279,792.119 319.769,788.148 319.296,784.175 318.86,780.2 318.461,776.224 318.099,772.246 317.774,768.266 317.487,764.286 317.236,760.304 317.023,756.322 316.846,752.338 316.707,748.354 316.605,744.37 316.54,740.385 316.512,736.4 316.521,732.415 316.568,728.43 316.651,724.445 316.772,720.461 316.93,716.477 317.125,712.494 317.357,708.512 317.626,704.531 317.932,700.551 318.275,696.572 318.656,692.595 319.073,688.619 319.528,684.645 320.019,680.673 320.548,676.704 321.113,672.736 321.715,668.771 322.355,664.808 323.031,660.848 323.744,656.89 324.494,652.936 325.281,648.985 326.105,645.037 326.965,641.092 327.862,637.151 328.796,633.214 329.767,629.281 330.774,625.351 331.817,621.426 332.898,617.505 334.015,613.588 335.168,609.677 336.358,605.769 337.584,601.867 338.846,597.97 340.145,594.078 341.48,590.191 342.851,586.31 344.258,582.434 345.702,578.564 347.181,574.7 348.697,570.842 350.248,566.991 351.835,563.145 353.458,559.306 355.117,555.474 356.811,551.649 358.541,547.831 360.307,544.019 362.108,540.215 363.944,536.418 365.816,532.629 367.723,528.847 369.665,525.073 371.643,521.307 373.655,517.55 375.703,513.8 377.785,510.059 379.902,506.326 382.054,502.602 384.241,498.886 386.462,495.18 388.717,491.483 391.007,487.794 393.332,484.116 395.69,480.446 398.083,476.787 400.51,473.137 402.971,469.496 405.465,465.867 407.994,462.247 410.556,458.637 413.151,455.038 415.78,451.449 418.443,447.871 421.139,444.305 423.868,440.748 426.63,437.204 429.425,433.67 432.253,430.148 435.114,426.637 438.007,423.138 440.933,419.651 443.892,416.175 446.882,412.712 449.905,409.26 452.96,405.822 456.047,402.395 459.166,398.981 462.317,395.58 465.499,392.192 468.713,388.816 471.958,385.454 475.234,382.105 478.542,378.769 481.88,375.446 485.25,372.138 488.65,368.843 492.081,365.561 495.542,362.294 499.034,359.041 502.556,355.802 506.108,352.577 509.69,349.366 513.302,346.171 516.944,342.99 520.615,339.824 524.316,336.672 528.046,333.536 531.805,330.415 535.593,327.309 539.41,324.218 543.256,321.144 547.13,318.084 551.033,315.041 554.964,312.013 558.923,309.001 562.91,306.006 566.926,303.026 570.968,300.063 575.038,297.116 579.136,294.186 583.261,291.272 587.412,288.376 591.591,285.496 595.797,282.633 600.029,279.787 604.288,276.958 608.573,274.147 612.884,271.353 617.22,268.576 621.583,265.817 625.972,263.076 630.386,260.353 634.824,257.648 639.289,254.96 643.778,252.291 648.292,249.64 652.831,247.007 657.394,244.393 661.981,241.797 666.592,239.22 671.228,236.661 675.887,234.122 680.57,231.601 685.275,229.099 690.005,226.617 694.757,224.153 699.532,221.709 704.33,219.284 709.151,216.879 713.994,214.493 718.858,212.127 723.745,209.781 728.654,207.454 733.584,205.148 738.535,202.861 743.508,200.595 748.502,198.348 753.517,196.122 758.552,193.917 763.608,191.731 768.684,189.566 773.78,187.422 778.896,185.299 784.031,183.196 789.186,181.114 794.361,179.053 799.555,177.013 804.767,174.994 809.998,172.996 815.248,171.019 820.516,169.064 825.802,167.13 831.106,165.218 836.428,163.326 841.767,161.457 847.124,159.609 852.497,157.783 857.888,155.979 863.295,154.196 868.719,152.436 874.159,150.697 879.616,148.981 885.088,147.287 890.576,145.614 896.079,143.964 901.598,142.337 907.132,140.732 912.68,139.149 918.243,137.589 923.821,136.051 929.412,134.536 935.018,133.043 940.638,131.574 946.271,130.127 951.918,128.702 957.578,127.301 963.25,125.923 968.936,124.568 974.633,123.235 980.344,121.926 986.066,120.64 991.8,119.377 997.546,118.138 1003.3,116.921 1009.07,115.728 1014.85,114.559 1020.64,113.412 1026.44,112.29 1032.25,111.191 1038.08,110.115 1043.91,109.063 1049.75,108.034 1055.6,107.03 1061.46,106.048 1067.33,105.091 1073.2,104.158 1079.09,103.248 1084.99,102.362 1090.89,101.5 1096.8,100.662 1102.72,99.8475 1108.64,99.0573 1114.58,98.2911 1120.52,97.5489 1126.46,96.8308 1132.42,96.1368 1138.38,95.4669 1144.34,94.8211 1150.31,94.1996 1156.29,93.6021 1162.27,93.0289 1168.26,92.48 1174.26,91.9553 1180.25,91.4549 1186.26,90.9787 1192.26,90.5269 1198.27,90.0993 1204.29,89.6962 1210.31,89.3174 1216.33,88.9629 1222.35,88.6329 1228.38,88.3273 1234.41,88.046 1240.45,87.7892 1246.48,87.5568 1252.52,87.3488 1258.56,87.1653 1264.6,87.0063 1270.64,86.8717 1276.69,86.7616 1282.73,86.6759 1288.77,86.6147 1294.82,86.578 1300.87,86.5658 "/>
<polyline clip-path="url(#clip552)" style="stroke:#e26f46; stroke-linecap:round; stroke-linejoin:round; stroke-width:16; stroke-opacity:1; fill:none" points="1300.87,86.5658 1306.91,86.4869 1312.96,86.408 1319,86.3297 1325.05,86.2493 1331.09,86.1857 1337.12,86.3378 1343.15,86.5919 1349.18,86.8287 1355.21,87.0513 1361.24,87.2791 1367.27,87.507 1373.3,87.7348 1379.33,87.9628 1385.36,88.2193 1391.39,88.5275 1397.4,88.889 1403.41,89.3041 1409.41,89.7724 1415.4,90.2922 1421.39,90.8611 1427.36,91.4755 1433.32,92.1307 1439.27,92.8212 1445.21,93.5403 1451.15,94.2806 1457.09,95.0333 1463.02,95.7889 1468.95,96.5626 1474.75,97.6797 1480.5,98.9677 1486.28,100.145 1492.17,101.022 1498.2,101.496 1504.39,101.557 1510.69,101.284 1517.05,100.848 1523.38,100.506 1529.55,100.61 1535.44,101.492 1541.26,102.558 1547.09,103.625 1552.91,104.692 1558.73,105.758 1564.55,106.825 1570.37,107.892 1576.2,108.959 1582.02,110.031 1587.84,111.119 1593.65,112.226 1599.45,113.354 1605.24,114.505 1611.02,115.684 1616.78,116.89 1622.53,118.127 1628.26,119.395 1633.97,120.696 1639.67,122.031 1645.34,123.4 1650.99,124.803 1656.61,126.242 1662.22,127.715 1667.81,129.223 1673.37,130.764 1678.91,132.338 1684.44,133.944 1689.94,135.579 1695.43,137.242 1700.89,138.931 1706.35,140.644 1711.78,142.378 1717.21,144.131 1722.63,145.898 1728.03,147.678 1733.44,149.465 1738.84,151.256 1744.24,153.047 1749.64,154.834 1755.05,156.611 1760.46,158.394 1765.83,160.219 1771.17,162.085 1776.48,163.993 1781.75,165.942 1786.98,167.931 1792.18,169.958 1797.35,172.023 1802.48,174.123 1807.58,176.256 1812.65,178.419 1817.69,180.61 1822.71,182.826 1827.71,185.062 1832.69,187.316 1837.65,189.583 1842.61,191.858 1847.56,194.137 1852.51,196.414 1857.47,198.686 1862.43,200.962 1867.37,203.251 1872.29,205.555 1877.2,207.876 1882.09,210.214 1886.95,212.573 1891.79,214.952 1896.61,217.352 1901.4,219.775 1906.16,222.22 1910.9,224.687 1915.61,227.176 1920.3,229.686 1924.96,232.217 1929.6,234.768 1934.22,237.336 1938.81,239.921 1943.39,242.521 1947.96,245.133 1952.51,247.754 1957.06,250.383 1961.6,253.016 1966.14,255.649 1970.68,258.28 1975.23,260.906 1979.73,263.563 1984.17,266.267 1988.55,269.014 1992.86,271.804 1997.12,274.635 2001.31,277.504 2005.44,280.41 2009.52,283.35 2013.54,286.324 2017.51,289.328 2021.43,292.362 2025.3,295.422 2029.12,298.508 2032.9,301.616 2036.64,304.746 2040.35,307.894 2044.02,311.059 2047.66,314.238 2051.27,317.43 2054.87,320.632 2058.44,323.841 2062.01,327.057 2065.56,330.276 2069.12,333.497 2072.67,336.716 2076.23,339.933 2079.77,343.156 2083.2,346.419 2086.54,349.715 2089.8,353.035 2093.03,356.372 2096.23,359.719 2099.43,363.069 2102.63,366.418 2105.86,369.761 2109.13,373.093 2112.44,376.412 2115.81,379.716 2119.23,383.002 2122.72,386.269 2126.26,389.518 2129.86,392.749 2133.52,395.963 2137.23,399.163 2140.98,402.351 2144.76,405.531 2148.55,408.707 2152.35,411.884 2156.13,415.068 2159.88,418.266 2163.57,421.484 2167.17,424.732 2170.68,428.017 2174.04,431.349 2177.24,434.739 2180.24,438.197 2183,441.736 2185.43,445.362 2187.61,449.053 2189.63,452.785 2191.6,456.533 2193.58,460.281 2195.64,464.012 2197.83,467.714 2200.19,471.377 2202.75,474.997 2205.51,478.569 2208.47,482.094 2211.62,485.576 2214.92,489.023 2218.34,492.443 2221.81,495.851 2225.27,499.263 2228.62,502.698 2231.78,506.18 2234.63,509.735 2237.06,513.393 2238.98,517.169 2240.85,520.959 2242.76,524.744 2244.69,528.526 2246.6,532.311 2248.48,536.1 2250.32,539.897 2252.1,543.704 2253.81,547.523 2255.45,551.354 2257.01,555.198 2258.5,559.055 2259.91,562.925 2261.26,566.806 2262.55,570.696 2263.8,574.595 2265.03,578.497 2266.24,582.401 2267.47,586.303 2268.75,590.198 2270.09,594.087 2271.48,597.972 2272.89,601.855 2274.3,605.738 2275.7,609.622 2277.08,613.508 2278.41,617.398 2279.68,621.293 2280.9,625.194 2282.04,629.102 2283.1,633.016 2284.08,636.938 2284.98,640.867 2285.79,644.804 2286.52,648.749 2287.17,652.7 2287.74,656.659 2288.25,660.623 2288.7,664.593 2289.11,668.567 2289.48,672.543 2289.83,676.522 2290.18,680.5 2290.55,684.478 2290.95,688.452 2291.35,692.427 2291.74,696.404 2292.11,700.382 2292.44,704.362 2292.73,708.342 2292.98,712.323 2293.18,716.304 2293.33,720.285 2293.42,724.266 2293.45,728.247 2293.42,732.227 2293.33,736.207 2293.18,740.186 2292.98,744.164 2292.72,748.142 2292.41,752.119 2292.05,756.095 2291.65,760.07 2291.21,764.045 2290.75,768.019 2290.26,771.994 2289.76,775.967 2289.26,779.941 2288.77,783.914 2288.29,787.889 2287.78,791.86 2287.21,795.827 2286.57,799.79 2285.88,803.748 2285.12,807.7 2284.31,811.647 2283.44,815.588 2282.51,819.523 2281.53,823.453 2280.5,827.376 2279.41,831.293 2278.28,835.205 2277.1,839.11 2275.87,843.01 2274.6,846.904 2273.3,850.793 2271.95,854.677 2270.58,858.556 2269.17,862.431 2267.74,866.302 2266.28,870.169 2264.8,874.033 2263.31,877.895 2261.81,881.755 2260.3,885.614 2258.79,889.472 2257.28,893.331 2255.77,897.191 2254.27,901.052 2252.75,904.912 2251.2,908.767 2249.6,912.617 2247.96,916.459 2246.28,920.293 2244.55,924.116 2242.76,927.928 2240.93,931.728 2239.03,935.515 2237.08,939.287 2235.08,943.046 2233.01,946.789 2230.89,950.517 2228.7,954.229 2226.46,957.926 2224.17,961.607 2221.81,965.272 2219.41,968.923 2216.95,972.559 2214.45,976.182 2211.9,979.791 2209.3,983.388 2206.67,986.973 2204,990.548 2201.31,994.115 2198.59,997.674 2195.85,1001.23 2193.1,1004.78 2190.34,1008.32 2187.57,1011.87 2184.82,1015.42 2182.08,1018.97 2179.36,1022.53 2176.71,1026.12 2174.12,1029.73 2171.56,1033.36 2169.02,1036.99 2166.48,1040.63 2163.94,1044.26 2161.38,1047.89 2158.79,1051.5 2156.15,1055.1 2153.47,1058.67 2150.73,1062.22 2147.92,1065.75 2145.05,1069.24 2142.1,1072.71 2139.08,1076.14 2135.97,1079.54 2132.79,1082.91 2129.53,1086.25 2126.18,1089.55 2122.77,1092.82 2119.28,1096.07 2115.73,1099.28 2112.12,1102.47 2108.45,1105.64 2104.74,1108.79 2100.99,1111.93 2097.22,1115.05 2093.44,1118.18 2089.66,1121.3 2085.89,1124.42 2082.15,1127.56 2078.46,1130.72 2074.8,1133.91 2071.18,1137.11 2067.58,1140.33 2063.98,1143.54 2060.37,1146.75 2056.74,1149.96 2053.09,1153.14 2049.4,1156.31 2045.68,1159.45 2041.91,1162.57 2038.1,1165.66 2034.23,1168.71 2030.3,1171.74 2026.33,1174.73 2022.3,1177.69 2018.21,1180.62 2014.08,1183.52 2009.89,1186.39 2005.67,1189.23 2001.41,1192.05 1997.11,1194.86 1992.8,1197.65 1988.47,1200.44 1984.15,1203.22 1979.83,1206.01 1975.53,1208.81 1971.21,1211.59 1966.84,1214.34 1962.41,1217.05 1957.94,1219.73 1953.42,1222.37 1948.86,1224.97 1944.26,1227.55 1939.62,1230.09 1934.94,1232.61 1930.22,1235.1 1925.48,1237.57 1920.7,1240 1915.89,1242.42 1911.06,1244.82 1906.21,1247.19 1901.33,1249.55 1896.43,1251.89 1891.52,1254.21 1886.59,1256.52 1881.65,1258.82 1876.69,1261.11 1871.73,1263.39 1866.76,1265.67 1861.78,1267.94 1856.8,1270.2 1851.82,1272.47 1846.83,1274.73 1841.85,1277 1836.87,1279.26 1831.88,1281.52 1826.86,1283.76 1821.82,1285.97 1816.75,1288.16 1811.65,1290.31 1806.53,1292.44 1801.37,1294.54 1796.19,1296.6 1790.98,1298.63 1785.73,1300.62 1780.46,1302.58 1775.16,1304.49 1769.83,1306.37 1764.48,1308.21 1759.09,1310.02 1753.68,1311.78 1748.24,1313.51 1742.77,1315.2 1737.28,1316.85 1731.76,1318.47 1726.22,1320.05 1720.66,1321.6 1715.08,1323.12 1709.47,1324.6 1703.85,1326.06 1698.21,1327.5 1692.56,1328.91 1686.89,1330.29 1681.21,1331.67 1675.52,1333.02 1669.82,1334.36 1664.12,1335.7 1658.42,1337.03 1652.71,1338.36 1647,1339.69 1641.3,1341.03 1635.61,1342.38 1629.91,1343.72 1624.21,1345.05 1618.49,1346.35 1612.76,1347.63 1607.01,1348.88 1601.26,1350.1 1595.49,1351.3 1589.71,1352.47 1583.92,1353.61 1578.11,1354.72 1572.29,1355.81 1566.46,1356.86 1560.62,1357.88 1554.77,1358.87 1548.91,1359.83 1543.04,1360.77 1537.15,1361.67 1531.26,1362.55 1525.36,1363.4 1519.44,1364.22 1513.52,1365.02 1507.59,1365.8 1501.66,1366.55 1495.71,1367.28 1489.76,1368 1483.81,1368.69 1477.85,1369.38 1471.89,1370.05 1465.92,1370.71 1459.95,1371.36 1453.99,1372.01 1448.02,1372.65 1442.05,1373.3 1436.08,1373.94 1430.1,1374.55 1424.11,1375.12 1418.11,1375.65 1412.1,1376.15 1406.08,1376.6 1400.06,1377.02 1394.03,1377.4 1387.99,1377.74 1381.95,1378.04 1375.91,1378.3 1369.86,1378.52 1363.82,1378.71 1357.77,1378.85 1351.72,1378.96 1345.67,1379.04 1339.62,1379.07 1333.57,1379.07 1327.52,1379.03 1321.47,1378.96 1315.43,1378.85 1309.39,1378.71 1303.35,1378.54 1297.31,1378.34 1291.27,1378.11 1285.24,1377.85 1279.22,1377.56 1273.19,1377.24 1267.17,1376.9 1261.15,1376.54 1255.14,1376.15 1249.12,1375.74 1243.12,1375.32 1237.11,1374.88 1231.11,1374.42 1225.11,1373.95 1219.11,1373.46 1213.11,1372.97 1207.11,1372.47 1201.12,1371.97 1195.13,1371.46 1189.13,1370.95 1183.14,1370.45 1177.14,1369.95 1171.14,1369.45 1165.14,1368.97 1159.14,1368.47 1153.15,1367.96 1147.15,1367.44 1141.16,1366.89 1135.17,1366.33 1129.18,1365.75 1123.2,1365.14 1117.23,1364.52 1111.26,1363.87 1105.3,1363.2 1099.34,1362.5 1093.4,1361.77 1087.46,1361.02 1081.53,1360.24 1075.61,1359.43 1069.7,1358.59 1063.8,1357.72 1057.91,1356.83 1052.04,1355.9 1046.17,1354.94 1040.32,1353.95 1034.48,1352.92 1028.65,1351.87 1022.84,1350.78 1017.04,1349.66 1011.26,1348.51 1005.49,1347.33 999.735,1346.11 993.995,1344.86 988.272,1343.59 982.564,1342.27 976.874,1340.93 971.198,1339.56 965.54,1338.16 959.899,1336.72 954.275,1335.26 948.669,1333.77 943.079,1332.25 937.506,1330.71 931.944,1329.15 926.393,1327.56 920.856,1325.96 915.334,1324.33 909.829,1322.67 904.343,1320.99 898.876,1319.28 893.429,1317.55 888.003,1315.79 882.599,1314 877.216,1312.19 871.855,1310.35 866.516,1308.48 861.197,1306.58 855.899,1304.67 850.62,1302.73 845.36,1300.77 840.116,1298.78 834.888,1296.78 829.674,1294.77 824.471,1292.74 819.277,1290.7 814.09,1288.66 808.908,1286.6 803.727,1284.55 798.544,1282.5 793.357,1280.46 788.165,1278.41 782.982,1276.36 777.813,1274.28 772.662,1272.19 767.53,1270.08 762.422,1267.94 757.34,1265.78 752.286,1263.59 747.262,1261.37 742.269,1259.13 737.31,1256.85 732.384,1254.54 727.493,1252.21 722.637,1249.84 717.815,1247.44 713.027,1245.02 708.272,1242.56 703.55,1240.08 698.859,1237.57 694.197,1235.04 689.562,1232.48 684.951,1229.9 680.362,1227.31 675.792,1224.7 671.237,1222.07 666.694,1219.44 662.159,1216.8 657.626,1214.16 653.091,1211.52 648.55,1208.89 644.006,1206.25 639.566,1203.56 635.243,1200.8 631.017,1197.98 626.873,1195.12 622.793,1192.2 618.764,1189.26 614.772,1186.29 610.807,1183.3 606.857,1180.3 602.914,1177.28 598.969,1174.26 595.018,1171.25 591.054,1168.23 587.075,1165.22 583.079,1162.21 579.063,1159.21 575.03,1156.22 570.98,1153.23 566.917,1150.25 562.846,1147.27 558.773,1144.3 554.704,1141.32 550.649,1138.33 546.618,1135.34 542.622,1132.32 538.674,1129.29 534.788,1126.22 530.979,1123.12 527.263,1119.98 523.655,1116.78 520.066,1113.57 516.468,1110.36 512.874,1107.15 509.292,1103.93 505.732,1100.71 502.203,1097.47 498.709,1094.21 495.258,1090.94 491.854,1087.65 488.499,1084.33 485.197,1081 481.949,1077.64 478.754,1074.27 475.612,1070.87 472.519,1067.45 469.474,1064.01 466.472,1060.56 463.507,1057.09 460.572,1053.61 457.659,1050.12 454.761,1046.62 451.867,1043.13 448.965,1039.63 446.046,1036.14 443.147,1032.65 440.288,1029.14 437.473,1025.61 434.705,1022.06 431.987,1018.5 429.32,1014.92 426.706,1011.33 424.146,1007.71 421.642,1004.09 419.194,1000.44 416.801,996.786 414.464,993.112 412.183,989.424 409.955,985.721 407.781,982.005 405.657,978.276 403.582,974.536 401.553,970.783 399.568,967.021 397.623,963.248 395.715,959.468 393.838,955.679 391.99,951.884 390.165,948.084 388.357,944.28 386.563,940.473 384.774,936.665 382.985,932.856 381.19,929.049 379.381,925.245 377.591,921.437 375.863,917.616 374.196,913.784 372.589,909.941 371.042,906.087 369.553,902.224 368.122,898.351 366.747,894.469 365.427,890.58 364.159,886.683 362.943,882.779 361.777,878.869 360.657,874.952 359.583,871.031 358.551,867.104 357.558,863.174 356.602,859.239 355.68,855.301 354.789,851.36 353.925,847.416 353.085,843.47 352.264,839.522 351.46,835.573 350.668,831.623 349.884,827.673 349.103,823.722 348.321,819.772 347.533,815.821 346.735,811.872 345.933,807.919 345.138,803.964 344.357,800.005 343.596,796.043 342.862,792.079 342.161,788.113 341.498,784.145 340.877,780.175 340.303,776.203 339.78,772.23 339.311,768.256 338.899,764.281 338.546,760.305 338.253,756.329 338.022,752.352 337.854,748.375 337.749,744.398 337.706,740.42 337.725,736.443 337.804,732.466 337.942,728.489 338.136,724.512 338.383,720.535 338.68,716.558 339.023,712.582 339.408,708.607 339.83,704.631 340.283,700.656 340.762,696.681 341.26,692.706 341.77,688.731 342.285,684.756 342.796,680.782 343.296,676.806 343.776,672.831 344.266,668.857 344.825,664.888 345.452,660.924 346.148,656.965 346.911,653.013 347.74,649.067 348.634,645.127 349.59,641.194 350.606,637.268 351.68,633.349 352.811,629.436 353.994,625.53 355.227,621.63 356.506,617.737 357.829,613.849 359.19,609.967 360.587,606.091 362.015,602.218 363.469,598.35 364.945,594.485 366.438,590.622 367.942,586.762 369.451,582.902 370.961,579.042 372.464,575.182 373.959,571.319 375.477,567.459 377.032,563.602 378.628,559.752 380.268,555.91 381.957,552.077 383.697,548.255 385.492,544.445 387.344,540.648 389.253,536.864 391.222,533.096 393.252,529.343 395.343,525.606 397.494,521.885 399.706,518.18 401.978,514.492 404.307,510.819 406.693,507.163 409.133,503.522 411.625,499.895 414.165,496.282 416.749,492.683 419.374,489.095 422.035,485.518 424.727,481.95 427.445,478.39 430.183,474.836 432.935,471.285 435.693,467.737 438.451,464.189 441.201,460.639 443.935,457.084 446.627,453.512 449.251,449.913 451.827,446.294 454.373,442.662 456.905,439.025 459.439,435.389 461.989,431.759 464.567,428.141 467.185,424.539 469.854,420.958 472.581,417.401 475.374,413.872 478.239,410.372 481.181,406.905 484.204,403.47 487.31,400.069 490.499,396.703 493.771,393.372 497.124,390.073 500.555,386.807 504.059,383.571 507.631,380.363 511.264,377.18 514.948,374.019 518.675,370.875 522.433,367.743 526.21,364.62 529.991,361.498 533.763,358.373 537.508,355.236 541.238,352.1 545.042,349.022 548.908,345.991 552.814,342.991 556.742,340.007 560.676,337.027 564.602,334.04 568.506,331.036 572.379,328.007 576.214,324.947 580.004,321.851 583.745,318.715 587.436,315.539 591.078,312.322 594.673,309.066 598.227,305.775 601.745,302.453 605.237,299.107 608.715,295.746 612.191,292.377 615.681,289.015 619.203,285.67 622.776,282.359 626.423,279.096 630.167,275.901 634.034,272.792 638.053,269.79 642.253,266.919 646.663,264.197 651.159,261.539 655.683,258.901 660.237,256.285 664.821,253.693 669.438,251.126 674.088,248.586 678.772,246.073 683.489,243.588 688.24,241.13 693.024,238.699 697.839,236.294 702.684,233.914 707.558,231.559 712.458,229.225 717.381,226.91 722.324,224.614 727.284,222.331 732.257,220.059 737.239,217.796 742.225,215.535 747.21,213.274 752.189,211.008 757.142,208.713 762.056,206.369 766.941,203.991 771.811,201.594 776.674,199.189 781.542,196.79 786.423,194.407 791.325,192.05 796.255,189.726 801.22,187.444 806.224,185.21 811.271,183.029 816.365,180.904 821.508,178.84 826.702,176.837 831.948,174.897 837.244,173.019 842.591,171.201 847.984,169.441 853.422,167.735 858.9,166.077 864.414,164.463 869.957,162.884 875.523,161.333 881.103,159.8 886.69,158.275 892.273,156.746 897.843,155.199 903.394,153.629 908.956,152.072 914.536,150.537 920.134,149.027 925.75,147.544 931.384,146.09 937.035,144.665 942.704,143.272 948.389,141.91 954.092,140.581 959.809,139.283 965.542,138.016 971.29,136.781 977.05,135.574 982.824,134.396 988.608,133.244 994.403,132.116 1000.21,131.01 1006.02,129.922 1011.84,128.849 1017.66,127.788 1023.49,126.735 1029.31,125.686 1035.14,124.634 1040.96,123.577 1046.79,122.519 1052.63,121.482 1058.48,120.468 1064.35,119.482 1070.23,118.528 1076.12,117.609 1082.02,116.726 1087.94,115.882 1093.86,115.08 1099.8,114.32 1105.75,113.603 1111.7,112.931 1117.67,112.304 1123.64,111.721 1129.63,111.181 1135.62,110.685 1141.61,110.231 1147.62,109.817 1153.63,109.441 1159.64,109.1 1165.66,108.793 1171.69,108.515 1177.72,108.264 1183.75,108.034 1189.78,107.822 1195.82,107.623 1201.85,107.432 1207.89,107.244 1213.93,107.052 1219.96,106.85 1226,106.634 1232.03,106.417 1238.07,106.209 1244.12,106.015 1250.16,105.842 1256.21,105.694 1262.25,105.575 1268.3,105.488 1274.34,105.436 1280.39,105.419 1286.43,105.439 1292.47,105.496 1298.51,105.589 1304.54,105.715 1310.58,105.873 1316.61,106.058 1322.64,106.268 1328.67,106.495 1334.7,106.736 1340.73,106.983 1346.76,107.228 1352.79,107.464 "/>
<path clip-path="url(#clip550)" d="M327.056 248.629 L750.198 248.629 L750.198 93.1086 L327.056 93.1086  Z" fill="#ffffff" fill-rule="evenodd" fill-opacity="1"/>
<polyline clip-path="url(#clip550)" style="stroke:#000000; stroke-linecap:round; stroke-linejoin:round; stroke-width:4; stroke-opacity:1; fill:none" points="327.056,248.629 750.198,248.629 750.198,93.1086 327.056,93.1086 327.056,248.629 "/>
<polyline clip-path="url(#clip550)" style="stroke:#009af9; stroke-linecap:round; stroke-linejoin:round; stroke-width:16; stroke-opacity:1; fill:none" points="350.34,144.949 490.043,144.949 "/>
<path clip-path="url(#clip550)" d="M529.345 130.84 Q524.253 130.84 521.244 134.636 Q518.258 138.432 518.258 144.983 Q518.258 151.511 521.244 155.307 Q524.253 159.104 529.345 159.104 Q534.438 159.104 537.401 155.307 Q540.387 151.511 540.387 144.983 Q540.387 138.432 537.401 134.636 Q534.438 130.84 529.345 130.84 M529.345 127.044 Q536.614 127.044 540.966 131.928 Q545.318 136.789 545.318 144.983 Q545.318 153.155 540.966 158.039 Q536.614 162.9 529.345 162.9 Q522.054 162.9 517.679 158.039 Q513.327 153.178 513.327 144.983 Q513.327 136.789 517.679 131.928 Q522.054 127.044 529.345 127.044 Z" fill="#000000" fill-rule="nonzero" fill-opacity="1" /><path clip-path="url(#clip550)" d="M567.47 140.284 Q566.753 139.868 565.896 139.682 Q565.063 139.474 564.044 139.474 Q560.433 139.474 558.489 141.835 Q556.568 144.173 556.568 148.571 L556.568 162.229 L552.285 162.229 L552.285 136.303 L556.568 136.303 L556.568 140.331 Q557.91 137.969 560.063 136.835 Q562.216 135.678 565.294 135.678 Q565.734 135.678 566.267 135.747 Q566.799 135.794 567.447 135.909 L567.47 140.284 Z" fill="#000000" fill-rule="nonzero" fill-opacity="1" /><path clip-path="url(#clip550)" d="M571.938 136.303 L576.197 136.303 L576.197 162.229 L571.938 162.229 L571.938 136.303 M571.938 126.21 L576.197 126.21 L576.197 131.604 L571.938 131.604 L571.938 126.21 Z" fill="#000000" fill-rule="nonzero" fill-opacity="1" /><path clip-path="url(#clip550)" d="M602.169 148.965 Q602.169 144.335 600.248 141.789 Q598.35 139.243 594.901 139.243 Q591.475 139.243 589.553 141.789 Q587.655 144.335 587.655 148.965 Q587.655 153.571 589.553 156.118 Q591.475 158.664 594.901 158.664 Q598.35 158.664 600.248 156.118 Q602.169 153.571 602.169 148.965 M606.428 159.011 Q606.428 165.631 603.489 168.849 Q600.549 172.09 594.484 172.09 Q592.239 172.09 590.248 171.742 Q588.257 171.418 586.382 170.724 L586.382 166.58 Q588.257 167.599 590.086 168.085 Q591.915 168.571 593.813 168.571 Q598.003 168.571 600.086 166.372 Q602.169 164.196 602.169 159.775 L602.169 157.668 Q600.85 159.96 598.79 161.094 Q596.729 162.229 593.859 162.229 Q589.091 162.229 586.174 158.594 Q583.257 154.96 583.257 148.965 Q583.257 142.946 586.174 139.312 Q589.091 135.678 593.859 135.678 Q596.729 135.678 598.79 136.812 Q600.85 137.946 602.169 140.238 L602.169 136.303 L606.428 136.303 L606.428 159.011 Z" fill="#000000" fill-rule="nonzero" fill-opacity="1" /><path clip-path="url(#clip550)" d="M615.201 136.303 L619.461 136.303 L619.461 162.229 L615.201 162.229 L615.201 136.303 M615.201 126.21 L619.461 126.21 L619.461 131.604 L615.201 131.604 L615.201 126.21 Z" fill="#000000" fill-rule="nonzero" fill-opacity="1" /><path clip-path="url(#clip550)" d="M649.924 146.581 L649.924 162.229 L645.664 162.229 L645.664 146.719 Q645.664 143.039 644.229 141.21 Q642.794 139.382 639.924 139.382 Q636.475 139.382 634.484 141.581 Q632.493 143.78 632.493 147.576 L632.493 162.229 L628.211 162.229 L628.211 136.303 L632.493 136.303 L632.493 140.331 Q634.021 137.993 636.081 136.835 Q638.164 135.678 640.873 135.678 Q645.34 135.678 647.632 138.456 Q649.924 141.21 649.924 146.581 Z" fill="#000000" fill-rule="nonzero" fill-opacity="1" /><path clip-path="url(#clip550)" d="M670.201 149.196 Q665.039 149.196 663.048 150.377 Q661.058 151.557 661.058 154.405 Q661.058 156.673 662.539 158.016 Q664.044 159.335 666.613 159.335 Q670.155 159.335 672.285 156.835 Q674.437 154.312 674.437 150.145 L674.437 149.196 L670.201 149.196 M678.697 147.437 L678.697 162.229 L674.437 162.229 L674.437 158.293 Q672.979 160.655 670.803 161.789 Q668.627 162.9 665.479 162.9 Q661.498 162.9 659.136 160.678 Q656.798 158.432 656.798 154.682 Q656.798 150.307 659.715 148.085 Q662.655 145.863 668.465 145.863 L674.437 145.863 L674.437 145.446 Q674.437 142.507 672.493 140.909 Q670.572 139.289 667.076 139.289 Q664.854 139.289 662.748 139.821 Q660.641 140.354 658.697 141.419 L658.697 137.483 Q661.035 136.581 663.234 136.141 Q665.433 135.678 667.516 135.678 Q673.141 135.678 675.919 138.594 Q678.697 141.511 678.697 147.437 Z" fill="#000000" fill-rule="nonzero" fill-opacity="1" /><path clip-path="url(#clip550)" d="M687.47 126.21 L691.729 126.21 L691.729 162.229 L687.47 162.229 L687.47 126.21 Z" fill="#000000" fill-rule="nonzero" fill-opacity="1" /><polyline clip-path="url(#clip550)" style="stroke:#e26f46; stroke-linecap:round; stroke-linejoin:round; stroke-width:16; stroke-opacity:1; fill:none" points="350.34,196.789 490.043,196.789 "/>
<path clip-path="url(#clip550)" d="M518.003 183.351 L518.003 196.337 L523.883 196.337 Q527.146 196.337 528.929 194.647 Q530.711 192.958 530.711 189.833 Q530.711 186.731 528.929 185.041 Q527.146 183.351 523.883 183.351 L518.003 183.351 M513.327 179.509 L523.883 179.509 Q529.693 179.509 532.656 182.147 Q535.642 184.763 535.642 189.833 Q535.642 194.948 532.656 197.564 Q529.693 200.18 523.883 200.18 L518.003 200.18 L518.003 214.069 L513.327 214.069 L513.327 179.509 Z" fill="#000000" fill-rule="nonzero" fill-opacity="1" /><path clip-path="url(#clip550)" d="M555.919 192.124 Q555.202 191.708 554.345 191.522 Q553.512 191.314 552.493 191.314 Q548.882 191.314 546.938 193.675 Q545.017 196.013 545.017 200.411 L545.017 214.069 L540.734 214.069 L540.734 188.143 L545.017 188.143 L545.017 192.171 Q546.359 189.809 548.512 188.675 Q550.665 187.518 553.743 187.518 Q554.183 187.518 554.716 187.587 Q555.248 187.634 555.896 187.749 L555.919 192.124 Z" fill="#000000" fill-rule="nonzero" fill-opacity="1" /><path clip-path="url(#clip550)" d="M581.521 200.041 L581.521 202.124 L561.938 202.124 Q562.216 206.522 564.577 208.837 Q566.961 211.129 571.197 211.129 Q573.651 211.129 575.942 210.527 Q578.257 209.925 580.526 208.721 L580.526 212.749 Q578.234 213.721 575.827 214.231 Q573.419 214.74 570.942 214.74 Q564.739 214.74 561.105 211.129 Q557.493 207.518 557.493 201.36 Q557.493 194.995 560.919 191.268 Q564.368 187.518 570.202 187.518 Q575.433 187.518 578.466 190.897 Q581.521 194.254 581.521 200.041 M577.262 198.791 Q577.216 195.296 575.294 193.212 Q573.396 191.129 570.248 191.129 Q566.683 191.129 564.53 193.143 Q562.401 195.157 562.077 198.814 L577.262 198.791 Z" fill="#000000" fill-rule="nonzero" fill-opacity="1" /><path clip-path="url(#clip550)" d="M605.572 192.078 L605.572 178.05 L609.831 178.05 L609.831 214.069 L605.572 214.069 L605.572 210.18 Q604.229 212.495 602.169 213.629 Q600.132 214.74 597.262 214.74 Q592.563 214.74 589.6 210.99 Q586.66 207.24 586.66 201.129 Q586.66 195.018 589.6 191.268 Q592.563 187.518 597.262 187.518 Q600.132 187.518 602.169 188.652 Q604.229 189.763 605.572 192.078 M591.058 201.129 Q591.058 205.828 592.979 208.513 Q594.924 211.175 598.303 211.175 Q601.683 211.175 603.627 208.513 Q605.572 205.828 605.572 201.129 Q605.572 196.43 603.627 193.768 Q601.683 191.083 598.303 191.083 Q594.924 191.083 592.979 193.768 Q591.058 196.43 591.058 201.129 Z" fill="#000000" fill-rule="nonzero" fill-opacity="1" /><path clip-path="url(#clip550)" d="M618.604 188.143 L622.863 188.143 L622.863 214.069 L618.604 214.069 L618.604 188.143 M618.604 178.05 L622.863 178.05 L622.863 183.444 L618.604 183.444 L618.604 178.05 Z" fill="#000000" fill-rule="nonzero" fill-opacity="1" /><path clip-path="url(#clip550)" d="M650.433 189.138 L650.433 193.12 Q648.627 192.124 646.799 191.638 Q644.993 191.129 643.141 191.129 Q638.998 191.129 636.706 193.768 Q634.414 196.384 634.414 201.129 Q634.414 205.874 636.706 208.513 Q638.998 211.129 643.141 211.129 Q644.993 211.129 646.799 210.643 Q648.627 210.133 650.433 209.138 L650.433 213.073 Q648.65 213.907 646.729 214.323 Q644.831 214.74 642.678 214.74 Q636.822 214.74 633.373 211.059 Q629.924 207.379 629.924 201.129 Q629.924 194.786 633.396 191.152 Q636.891 187.518 642.956 187.518 Q644.924 187.518 646.799 187.935 Q648.674 188.328 650.433 189.138 Z" fill="#000000" fill-rule="nonzero" fill-opacity="1" /><path clip-path="url(#clip550)" d="M662.053 180.782 L662.053 188.143 L670.826 188.143 L670.826 191.453 L662.053 191.453 L662.053 205.527 Q662.053 208.698 662.91 209.601 Q663.789 210.504 666.451 210.504 L670.826 210.504 L670.826 214.069 L666.451 214.069 Q661.521 214.069 659.646 212.24 Q657.771 210.388 657.771 205.527 L657.771 191.453 L654.646 191.453 L654.646 188.143 L657.771 188.143 L657.771 180.782 L662.053 180.782 Z" fill="#000000" fill-rule="nonzero" fill-opacity="1" /><path clip-path="url(#clip550)" d="M698.604 200.041 L698.604 202.124 L679.021 202.124 Q679.298 206.522 681.659 208.837 Q684.044 211.129 688.28 211.129 Q690.733 211.129 693.025 210.527 Q695.34 209.925 697.608 208.721 L697.608 212.749 Q695.317 213.721 692.909 214.231 Q690.502 214.74 688.025 214.74 Q681.822 214.74 678.187 211.129 Q674.576 207.518 674.576 201.36 Q674.576 194.995 678.002 191.268 Q681.451 187.518 687.284 187.518 Q692.516 187.518 695.548 190.897 Q698.604 194.254 698.604 200.041 M694.345 198.791 Q694.298 195.296 692.377 193.212 Q690.479 191.129 687.331 191.129 Q683.766 191.129 681.613 193.143 Q679.484 195.157 679.159 198.814 L694.345 198.791 Z" fill="#000000" fill-rule="nonzero" fill-opacity="1" /><path clip-path="url(#clip550)" d="M722.655 192.078 L722.655 178.05 L726.914 178.05 L726.914 214.069 L722.655 214.069 L722.655 210.18 Q721.312 212.495 719.252 213.629 Q717.215 214.74 714.344 214.74 Q709.645 214.74 706.682 210.99 Q703.743 207.24 703.743 201.129 Q703.743 195.018 706.682 191.268 Q709.645 187.518 714.344 187.518 Q717.215 187.518 719.252 188.652 Q721.312 189.763 722.655 192.078 M708.141 201.129 Q708.141 205.828 710.062 208.513 Q712.007 211.175 715.386 211.175 Q718.766 211.175 720.71 208.513 Q722.655 205.828 722.655 201.129 Q722.655 196.43 720.71 193.768 Q718.766 191.083 715.386 191.083 Q712.007 191.083 710.062 193.768 Q708.141 196.43 708.141 201.129 Z" fill="#000000" fill-rule="nonzero" fill-opacity="1" /></svg>
