<?xml version="1.0" encoding="utf-8"?>
<svg xmlns="http://www.w3.org/2000/svg" xmlns:xlink="http://www.w3.org/1999/xlink" width="600" height="400" viewBox="0 0 2400 1600">
<defs>
  <clipPath id="clip610">
    <rect x="0" y="0" width="2400" height="1600"/>
  </clipPath>
</defs>
<path clip-path="url(#clip610)" d="M0 1600 L2400 1600 L2400 0 L0 0  Z" fill="#ffffff" fill-rule="evenodd" fill-opacity="1"/>
<defs>
  <clipPath id="clip611">
    <rect x="480" y="0" width="1681" height="1600"/>
  </clipPath>
</defs>
<path clip-path="url(#clip610)" d="M257.204 1423.18 L2352.76 1423.18 L2352.76 47.2441 L257.204 47.2441  Z" fill="#ffffff" fill-rule="evenodd" fill-opacity="1"/>
<defs>
  <clipPath id="clip612">
    <rect x="257" y="47" width="2097" height="1377"/>
  </clipPath>
</defs>
<polyline clip-path="url(#clip612)" style="stroke:#000000; stroke-linecap:round; stroke-linejoin:round; stroke-width:2; stroke-opacity:0.1; fill:none" points="345.572,1423.18 345.572,47.2441 "/>
<polyline clip-path="url(#clip612)" style="stroke:#000000; stroke-linecap:round; stroke-linejoin:round; stroke-width:2; stroke-opacity:0.1; fill:none" points="828.462,1423.18 828.462,47.2441 "/>
<polyline clip-path="url(#clip612)" style="stroke:#000000; stroke-linecap:round; stroke-linejoin:round; stroke-width:2; stroke-opacity:0.1; fill:none" points="1311.35,1423.18 1311.35,47.2441 "/>
<polyline clip-path="url(#clip612)" style="stroke:#000000; stroke-linecap:round; stroke-linejoin:round; stroke-width:2; stroke-opacity:0.1; fill:none" points="1794.24,1423.18 1794.24,47.2441 "/>
<polyline clip-path="url(#clip612)" style="stroke:#000000; stroke-linecap:round; stroke-linejoin:round; stroke-width:2; stroke-opacity:0.1; fill:none" points="2277.13,1423.18 2277.13,47.2441 "/>
<polyline clip-path="url(#clip610)" style="stroke:#000000; stroke-linecap:round; stroke-linejoin:round; stroke-width:4; stroke-opacity:1; fill:none" points="257.204,1423.18 2352.76,1423.18 "/>
<polyline clip-path="url(#clip610)" style="stroke:#000000; stroke-linecap:round; stroke-linejoin:round; stroke-width:4; stroke-opacity:1; fill:none" points="345.572,1423.18 345.572,1404.28 "/>
<polyline clip-path="url(#clip610)" style="stroke:#000000; stroke-linecap:round; stroke-linejoin:round; stroke-width:4; stroke-opacity:1; fill:none" points="828.462,1423.18 828.462,1404.28 "/>
<polyline clip-path="url(#clip610)" style="stroke:#000000; stroke-linecap:round; stroke-linejoin:round; stroke-width:4; stroke-opacity:1; fill:none" points="1311.35,1423.18 1311.35,1404.28 "/>
<polyline clip-path="url(#clip610)" style="stroke:#000000; stroke-linecap:round; stroke-linejoin:round; stroke-width:4; stroke-opacity:1; fill:none" points="1794.24,1423.18 1794.24,1404.28 "/>
<polyline clip-path="url(#clip610)" style="stroke:#000000; stroke-linecap:round; stroke-linejoin:round; stroke-width:4; stroke-opacity:1; fill:none" points="2277.13,1423.18 2277.13,1404.28 "/>
<path clip-path="url(#clip610)" d="M292.1 1468.75 L321.776 1468.75 L321.776 1472.69 L292.1 1472.69 L292.1 1468.75 Z" fill="#000000" fill-rule="nonzero" fill-opacity="1" /><path clip-path="url(#clip610)" d="M332.679 1481.64 L340.318 1481.64 L340.318 1455.28 L332.008 1456.95 L332.008 1452.69 L340.271 1451.02 L344.947 1451.02 L344.947 1481.64 L352.586 1481.64 L352.586 1485.58 L332.679 1485.58 L332.679 1481.64 Z" fill="#000000" fill-rule="nonzero" fill-opacity="1" /><path clip-path="url(#clip610)" d="M362.031 1479.7 L366.915 1479.7 L366.915 1485.58 L362.031 1485.58 L362.031 1479.7 Z" fill="#000000" fill-rule="nonzero" fill-opacity="1" /><path clip-path="url(#clip610)" d="M387.1 1454.1 Q383.489 1454.1 381.66 1457.66 Q379.855 1461.2 379.855 1468.33 Q379.855 1475.44 381.66 1479.01 Q383.489 1482.55 387.1 1482.55 Q390.734 1482.55 392.54 1479.01 Q394.368 1475.44 394.368 1468.33 Q394.368 1461.2 392.54 1457.66 Q390.734 1454.1 387.1 1454.1 M387.1 1450.39 Q392.91 1450.39 395.966 1455 Q399.044 1459.58 399.044 1468.33 Q399.044 1477.06 395.966 1481.67 Q392.91 1486.25 387.1 1486.25 Q381.29 1486.25 378.211 1481.67 Q375.156 1477.06 375.156 1468.33 Q375.156 1459.58 378.211 1455 Q381.29 1450.39 387.1 1450.39 Z" fill="#000000" fill-rule="nonzero" fill-opacity="1" /><path clip-path="url(#clip610)" d="M775.487 1468.75 L805.163 1468.75 L805.163 1472.69 L775.487 1472.69 L775.487 1468.75 Z" fill="#000000" fill-rule="nonzero" fill-opacity="1" /><path clip-path="url(#clip610)" d="M825.256 1454.1 Q821.645 1454.1 819.816 1457.66 Q818.01 1461.2 818.01 1468.33 Q818.01 1475.44 819.816 1479.01 Q821.645 1482.55 825.256 1482.55 Q828.89 1482.55 830.695 1479.01 Q832.524 1475.44 832.524 1468.33 Q832.524 1461.2 830.695 1457.66 Q828.89 1454.1 825.256 1454.1 M825.256 1450.39 Q831.066 1450.39 834.121 1455 Q837.2 1459.58 837.2 1468.33 Q837.2 1477.06 834.121 1481.67 Q831.066 1486.25 825.256 1486.25 Q819.445 1486.25 816.367 1481.67 Q813.311 1477.06 813.311 1468.33 Q813.311 1459.58 816.367 1455 Q819.445 1450.39 825.256 1450.39 Z" fill="#000000" fill-rule="nonzero" fill-opacity="1" /><path clip-path="url(#clip610)" d="M845.418 1479.7 L850.302 1479.7 L850.302 1485.58 L845.418 1485.58 L845.418 1479.7 Z" fill="#000000" fill-rule="nonzero" fill-opacity="1" /><path clip-path="url(#clip610)" d="M860.533 1451.02 L878.89 1451.02 L878.89 1454.96 L864.816 1454.96 L864.816 1463.43 Q865.834 1463.08 866.853 1462.92 Q867.871 1462.73 868.89 1462.73 Q874.677 1462.73 878.056 1465.9 Q881.436 1469.08 881.436 1474.49 Q881.436 1480.07 877.964 1483.17 Q874.491 1486.25 868.172 1486.25 Q865.996 1486.25 863.728 1485.88 Q861.482 1485.51 859.075 1484.77 L859.075 1480.07 Q861.158 1481.2 863.38 1481.76 Q865.603 1482.32 868.079 1482.32 Q872.084 1482.32 874.422 1480.21 Q876.76 1478.1 876.76 1474.49 Q876.76 1470.88 874.422 1468.77 Q872.084 1466.67 868.079 1466.67 Q866.204 1466.67 864.329 1467.08 Q862.478 1467.5 860.533 1468.38 L860.533 1451.02 Z" fill="#000000" fill-rule="nonzero" fill-opacity="1" /><path clip-path="url(#clip610)" d="M1288.74 1454.1 Q1285.12 1454.1 1283.3 1457.66 Q1281.49 1461.2 1281.49 1468.33 Q1281.49 1475.44 1283.3 1479.01 Q1285.12 1482.55 1288.74 1482.55 Q1292.37 1482.55 1294.18 1479.01 Q1296 1475.44 1296 1468.33 Q1296 1461.2 1294.18 1457.66 Q1292.37 1454.1 1288.74 1454.1 M1288.74 1450.39 Q1294.55 1450.39 1297.6 1455 Q1300.68 1459.58 1300.68 1468.33 Q1300.68 1477.06 1297.6 1481.67 Q1294.55 1486.25 1288.74 1486.25 Q1282.93 1486.25 1279.85 1481.67 Q1276.79 1477.06 1276.79 1468.33 Q1276.79 1459.58 1279.85 1455 Q1282.93 1450.39 1288.74 1450.39 Z" fill="#000000" fill-rule="nonzero" fill-opacity="1" /><path clip-path="url(#clip610)" d="M1308.9 1479.7 L1313.78 1479.7 L1313.78 1485.58 L1308.9 1485.58 L1308.9 1479.7 Z" fill="#000000" fill-rule="nonzero" fill-opacity="1" /><path clip-path="url(#clip610)" d="M1333.97 1454.1 Q1330.36 1454.1 1328.53 1457.66 Q1326.72 1461.2 1326.72 1468.33 Q1326.72 1475.44 1328.53 1479.01 Q1330.36 1482.55 1333.97 1482.55 Q1337.6 1482.55 1339.41 1479.01 Q1341.23 1475.44 1341.23 1468.33 Q1341.23 1461.2 1339.41 1457.66 Q1337.6 1454.1 1333.97 1454.1 M1333.97 1450.39 Q1339.78 1450.39 1342.83 1455 Q1345.91 1459.58 1345.91 1468.33 Q1345.91 1477.06 1342.83 1481.67 Q1339.78 1486.25 1333.97 1486.25 Q1328.16 1486.25 1325.08 1481.67 Q1322.02 1477.06 1322.02 1468.33 Q1322.02 1459.58 1325.08 1455 Q1328.16 1450.39 1333.97 1450.39 Z" fill="#000000" fill-rule="nonzero" fill-opacity="1" /><path clip-path="url(#clip610)" d="M1772.12 1454.1 Q1768.51 1454.1 1766.68 1457.66 Q1764.88 1461.2 1764.88 1468.33 Q1764.88 1475.44 1766.68 1479.01 Q1768.51 1482.55 1772.12 1482.55 Q1775.76 1482.55 1777.56 1479.01 Q1779.39 1475.44 1779.39 1468.33 Q1779.39 1461.2 1777.56 1457.66 Q1775.76 1454.1 1772.12 1454.1 M1772.12 1450.39 Q1777.93 1450.39 1780.99 1455 Q1784.07 1459.58 1784.07 1468.33 Q1784.07 1477.06 1780.99 1481.67 Q1777.93 1486.25 1772.12 1486.25 Q1766.31 1486.25 1763.23 1481.67 Q1760.18 1477.06 1760.18 1468.33 Q1760.18 1459.58 1763.23 1455 Q1766.31 1450.39 1772.12 1450.39 Z" fill="#000000" fill-rule="nonzero" fill-opacity="1" /><path clip-path="url(#clip610)" d="M1792.28 1479.7 L1797.17 1479.7 L1797.17 1485.58 L1792.28 1485.58 L1792.28 1479.7 Z" fill="#000000" fill-rule="nonzero" fill-opacity="1" /><path clip-path="url(#clip610)" d="M1807.4 1451.02 L1825.76 1451.02 L1825.76 1454.96 L1811.68 1454.96 L1811.68 1463.43 Q1812.7 1463.08 1813.72 1462.92 Q1814.74 1462.73 1815.76 1462.73 Q1821.54 1462.73 1824.92 1465.9 Q1828.3 1469.08 1828.3 1474.49 Q1828.3 1480.07 1824.83 1483.17 Q1821.36 1486.25 1815.04 1486.25 Q1812.86 1486.25 1810.59 1485.88 Q1808.35 1485.51 1805.94 1484.77 L1805.94 1480.07 Q1808.02 1481.2 1810.25 1481.76 Q1812.47 1482.32 1814.95 1482.32 Q1818.95 1482.32 1821.29 1480.21 Q1823.63 1478.1 1823.63 1474.49 Q1823.63 1470.88 1821.29 1468.77 Q1818.95 1466.67 1814.95 1466.67 Q1813.07 1466.67 1811.2 1467.08 Q1809.34 1467.5 1807.4 1468.38 L1807.4 1451.02 Z" fill="#000000" fill-rule="nonzero" fill-opacity="1" /><path clip-path="url(#clip610)" d="M2244.28 1481.64 L2251.92 1481.64 L2251.92 1455.28 L2243.61 1456.95 L2243.61 1452.69 L2251.87 1451.02 L2256.55 1451.02 L2256.55 1481.64 L2264.19 1481.64 L2264.19 1485.58 L2244.28 1485.58 L2244.28 1481.64 Z" fill="#000000" fill-rule="nonzero" fill-opacity="1" /><path clip-path="url(#clip610)" d="M2273.63 1479.7 L2278.52 1479.7 L2278.52 1485.58 L2273.63 1485.58 L2273.63 1479.7 Z" fill="#000000" fill-rule="nonzero" fill-opacity="1" /><path clip-path="url(#clip610)" d="M2298.7 1454.1 Q2295.09 1454.1 2293.26 1457.66 Q2291.46 1461.2 2291.46 1468.33 Q2291.46 1475.44 2293.26 1479.01 Q2295.09 1482.55 2298.7 1482.55 Q2302.34 1482.55 2304.14 1479.01 Q2305.97 1475.44 2305.97 1468.33 Q2305.97 1461.2 2304.14 1457.66 Q2302.34 1454.1 2298.7 1454.1 M2298.7 1450.39 Q2304.51 1450.39 2307.57 1455 Q2310.65 1459.58 2310.65 1468.33 Q2310.65 1477.06 2307.57 1481.67 Q2304.51 1486.25 2298.7 1486.25 Q2292.89 1486.25 2289.81 1481.67 Q2286.76 1477.06 2286.76 1468.33 Q2286.76 1459.58 2289.81 1455 Q2292.89 1450.39 2298.7 1450.39 Z" fill="#000000" fill-rule="nonzero" fill-opacity="1" /><path clip-path="url(#clip610)" d="M1134.03 1525.81 L1134.03 1543.66 L1142.11 1543.66 Q1146.6 1543.66 1149.05 1541.34 Q1151.5 1539.02 1151.5 1534.72 Q1151.5 1530.45 1149.05 1528.13 Q1146.6 1525.81 1142.11 1525.81 L1134.03 1525.81 M1127.6 1520.52 L1142.11 1520.52 Q1150.1 1520.52 1154.18 1524.15 Q1158.28 1527.75 1158.28 1534.72 Q1158.28 1541.75 1154.18 1545.35 Q1150.1 1548.95 1142.11 1548.95 L1134.03 1548.95 L1134.03 1568.04 L1127.6 1568.04 L1127.6 1520.52 Z" fill="#000000" fill-rule="nonzero" fill-opacity="1" /><path clip-path="url(#clip610)" d="M1178.14 1536.5 Q1173.43 1536.5 1170.7 1540.19 Q1167.96 1543.85 1167.96 1550.25 Q1167.96 1556.65 1170.66 1560.34 Q1173.4 1564 1178.14 1564 Q1182.82 1564 1185.56 1560.31 Q1188.3 1556.62 1188.3 1550.25 Q1188.3 1543.92 1185.56 1540.23 Q1182.82 1536.5 1178.14 1536.5 M1178.14 1531.54 Q1185.78 1531.54 1190.14 1536.5 Q1194.5 1541.47 1194.5 1550.25 Q1194.5 1559 1190.14 1564 Q1185.78 1568.97 1178.14 1568.97 Q1170.47 1568.97 1166.11 1564 Q1161.78 1559 1161.78 1550.25 Q1161.78 1541.47 1166.11 1536.5 Q1170.47 1531.54 1178.14 1531.54 Z" fill="#000000" fill-rule="nonzero" fill-opacity="1" /><path clip-path="url(#clip610)" d="M1226.94 1533.45 L1226.94 1538.98 Q1224.45 1537.71 1221.78 1537.07 Q1219.11 1536.44 1216.24 1536.44 Q1211.88 1536.44 1209.69 1537.77 Q1207.52 1539.11 1207.52 1541.79 Q1207.52 1543.82 1209.08 1545 Q1210.64 1546.15 1215.35 1547.2 L1217.36 1547.64 Q1223.59 1548.98 1226.2 1551.43 Q1228.85 1553.85 1228.85 1558.21 Q1228.85 1563.17 1224.9 1566.07 Q1220.98 1568.97 1214.11 1568.97 Q1211.24 1568.97 1208.13 1568.39 Q1205.04 1567.85 1201.6 1566.74 L1201.6 1560.69 Q1204.85 1562.38 1208 1563.24 Q1211.15 1564.07 1214.24 1564.07 Q1218.37 1564.07 1220.6 1562.66 Q1222.83 1561.23 1222.83 1558.65 Q1222.83 1556.27 1221.21 1554.99 Q1219.62 1553.72 1214.17 1552.54 L1212.14 1552.07 Q1206.69 1550.92 1204.27 1548.56 Q1201.86 1546.18 1201.86 1542.04 Q1201.86 1537.01 1205.42 1534.27 Q1208.99 1531.54 1215.54 1531.54 Q1218.79 1531.54 1221.65 1532.01 Q1224.52 1532.49 1226.94 1533.45 Z" fill="#000000" fill-rule="nonzero" fill-opacity="1" /><path clip-path="url(#clip610)" d="M1238.17 1532.4 L1244.03 1532.4 L1244.03 1568.04 L1238.17 1568.04 L1238.17 1532.4 M1238.17 1518.52 L1244.03 1518.52 L1244.03 1525.93 L1238.17 1525.93 L1238.17 1518.52 Z" fill="#000000" fill-rule="nonzero" fill-opacity="1" /><path clip-path="url(#clip610)" d="M1262.08 1522.27 L1262.08 1532.4 L1274.14 1532.4 L1274.14 1536.95 L1262.08 1536.95 L1262.08 1556.3 Q1262.08 1560.66 1263.25 1561.9 Q1264.46 1563.14 1268.12 1563.14 L1274.14 1563.14 L1274.14 1568.04 L1268.12 1568.04 Q1261.34 1568.04 1258.76 1565.53 Q1256.19 1562.98 1256.19 1556.3 L1256.19 1536.95 L1251.89 1536.95 L1251.89 1532.4 L1256.19 1532.4 L1256.19 1522.27 L1262.08 1522.27 Z" fill="#000000" fill-rule="nonzero" fill-opacity="1" /><path clip-path="url(#clip610)" d="M1281.84 1532.4 L1287.7 1532.4 L1287.7 1568.04 L1281.84 1568.04 L1281.84 1532.4 M1281.84 1518.52 L1287.7 1518.52 L1287.7 1525.93 L1281.84 1525.93 L1281.84 1518.52 Z" fill="#000000" fill-rule="nonzero" fill-opacity="1" /><path clip-path="url(#clip610)" d="M1313.76 1536.5 Q1309.05 1536.5 1306.32 1540.19 Q1303.58 1543.85 1303.58 1550.25 Q1303.58 1556.65 1306.28 1560.34 Q1309.02 1564 1313.76 1564 Q1318.44 1564 1321.18 1560.31 Q1323.92 1556.62 1323.92 1550.25 Q1323.92 1543.92 1321.18 1540.23 Q1318.44 1536.5 1313.76 1536.5 M1313.76 1531.54 Q1321.4 1531.54 1325.76 1536.5 Q1330.12 1541.47 1330.12 1550.25 Q1330.12 1559 1325.76 1564 Q1321.4 1568.97 1313.76 1568.97 Q1306.09 1568.97 1301.73 1564 Q1297.4 1559 1297.4 1550.25 Q1297.4 1541.47 1301.73 1536.5 Q1306.09 1531.54 1313.76 1531.54 Z" fill="#000000" fill-rule="nonzero" fill-opacity="1" /><path clip-path="url(#clip610)" d="M1369.46 1546.53 L1369.46 1568.04 L1363.61 1568.04 L1363.61 1546.72 Q1363.61 1541.66 1361.63 1539.14 Q1359.66 1536.63 1355.71 1536.63 Q1350.97 1536.63 1348.23 1539.65 Q1345.5 1542.68 1345.5 1547.9 L1345.5 1568.04 L1339.61 1568.04 L1339.61 1532.4 L1345.5 1532.4 L1345.5 1537.93 Q1347.6 1534.72 1350.43 1533.13 Q1353.3 1531.54 1357.02 1531.54 Q1363.16 1531.54 1366.31 1535.36 Q1369.46 1539.14 1369.46 1546.53 Z" fill="#000000" fill-rule="nonzero" fill-opacity="1" /><path clip-path="url(#clip610)" d="M1415.93 1518.58 Q1411.67 1525.9 1409.6 1533.06 Q1407.53 1540.23 1407.53 1547.58 Q1407.53 1554.93 1409.6 1562.16 Q1411.7 1569.35 1415.93 1576.64 L1410.84 1576.64 Q1406.07 1569.16 1403.68 1561.93 Q1401.32 1554.71 1401.32 1547.58 Q1401.32 1540.48 1403.68 1533.29 Q1406.04 1526.09 1410.84 1518.58 L1415.93 1518.58 Z" fill="#000000" fill-rule="nonzero" fill-opacity="1" /><path clip-path="url(#clip610)" d="M1430.8 1550.25 Q1430.8 1556.71 1433.44 1560.4 Q1436.11 1564.07 1440.76 1564.07 Q1445.41 1564.07 1448.08 1560.4 Q1450.75 1556.71 1450.75 1550.25 Q1450.75 1543.79 1448.08 1540.13 Q1445.41 1536.44 1440.76 1536.44 Q1436.11 1536.44 1433.44 1540.13 Q1430.8 1543.79 1430.8 1550.25 M1450.75 1562.7 Q1448.91 1565.88 1446.08 1567.44 Q1443.27 1568.97 1439.33 1568.97 Q1432.87 1568.97 1428.79 1563.81 Q1424.75 1558.65 1424.75 1550.25 Q1424.75 1541.85 1428.79 1536.69 Q1432.87 1531.54 1439.33 1531.54 Q1443.27 1531.54 1446.08 1533.1 Q1448.91 1534.62 1450.75 1537.81 L1450.75 1532.4 L1456.61 1532.4 L1456.61 1581.6 L1450.75 1581.6 L1450.75 1562.7 Z" fill="#000000" fill-rule="nonzero" fill-opacity="1" /><path clip-path="url(#clip610)" d="M1467.75 1518.58 L1472.84 1518.58 Q1477.62 1526.09 1479.97 1533.29 Q1482.36 1540.48 1482.36 1547.58 Q1482.36 1554.71 1479.97 1561.93 Q1477.62 1569.16 1472.84 1576.64 L1467.75 1576.64 Q1471.98 1569.35 1474.05 1562.16 Q1476.15 1554.93 1476.15 1547.58 Q1476.15 1540.23 1474.05 1533.06 Q1471.98 1525.9 1467.75 1518.58 Z" fill="#000000" fill-rule="nonzero" fill-opacity="1" /><polyline clip-path="url(#clip612)" style="stroke:#000000; stroke-linecap:round; stroke-linejoin:round; stroke-width:2; stroke-opacity:0.1; fill:none" points="257.204,1372.06 2352.76,1372.06 "/>
<polyline clip-path="url(#clip612)" style="stroke:#000000; stroke-linecap:round; stroke-linejoin:round; stroke-width:2; stroke-opacity:0.1; fill:none" points="257.204,1053.98 2352.76,1053.98 "/>
<polyline clip-path="url(#clip612)" style="stroke:#000000; stroke-linecap:round; stroke-linejoin:round; stroke-width:2; stroke-opacity:0.1; fill:none" points="257.204,735.912 2352.76,735.912 "/>
<polyline clip-path="url(#clip612)" style="stroke:#000000; stroke-linecap:round; stroke-linejoin:round; stroke-width:2; stroke-opacity:0.1; fill:none" points="257.204,417.841 2352.76,417.841 "/>
<polyline clip-path="url(#clip612)" style="stroke:#000000; stroke-linecap:round; stroke-linejoin:round; stroke-width:2; stroke-opacity:0.1; fill:none" points="257.204,99.7686 2352.76,99.7686 "/>
<polyline clip-path="url(#clip610)" style="stroke:#000000; stroke-linecap:round; stroke-linejoin:round; stroke-width:4; stroke-opacity:1; fill:none" points="257.204,1423.18 257.204,47.2441 "/>
<polyline clip-path="url(#clip610)" style="stroke:#000000; stroke-linecap:round; stroke-linejoin:round; stroke-width:4; stroke-opacity:1; fill:none" points="257.204,1372.06 276.102,1372.06 "/>
<polyline clip-path="url(#clip610)" style="stroke:#000000; stroke-linecap:round; stroke-linejoin:round; stroke-width:4; stroke-opacity:1; fill:none" points="257.204,1053.98 276.102,1053.98 "/>
<polyline clip-path="url(#clip610)" style="stroke:#000000; stroke-linecap:round; stroke-linejoin:round; stroke-width:4; stroke-opacity:1; fill:none" points="257.204,735.912 276.102,735.912 "/>
<polyline clip-path="url(#clip610)" style="stroke:#000000; stroke-linecap:round; stroke-linejoin:round; stroke-width:4; stroke-opacity:1; fill:none" points="257.204,417.841 276.102,417.841 "/>
<polyline clip-path="url(#clip610)" style="stroke:#000000; stroke-linecap:round; stroke-linejoin:round; stroke-width:4; stroke-opacity:1; fill:none" points="257.204,99.7686 276.102,99.7686 "/>
<path clip-path="url(#clip610)" d="M114.26 1372.51 L143.936 1372.51 L143.936 1376.44 L114.26 1376.44 L114.26 1372.51 Z" fill="#000000" fill-rule="nonzero" fill-opacity="1" /><path clip-path="url(#clip610)" d="M154.839 1385.4 L162.477 1385.4 L162.477 1359.04 L154.167 1360.7 L154.167 1356.44 L162.431 1354.78 L167.107 1354.78 L167.107 1385.4 L174.746 1385.4 L174.746 1389.34 L154.839 1389.34 L154.839 1385.4 Z" fill="#000000" fill-rule="nonzero" fill-opacity="1" /><path clip-path="url(#clip610)" d="M184.19 1383.46 L189.075 1383.46 L189.075 1389.34 L184.19 1389.34 L184.19 1383.46 Z" fill="#000000" fill-rule="nonzero" fill-opacity="1" /><path clip-path="url(#clip610)" d="M209.26 1357.85 Q205.649 1357.85 203.82 1361.42 Q202.014 1364.96 202.014 1372.09 Q202.014 1379.2 203.82 1382.76 Q205.649 1386.3 209.26 1386.3 Q212.894 1386.3 214.699 1382.76 Q216.528 1379.2 216.528 1372.09 Q216.528 1364.96 214.699 1361.42 Q212.894 1357.85 209.26 1357.85 M209.26 1354.15 Q215.07 1354.15 218.125 1358.76 Q221.204 1363.34 221.204 1372.09 Q221.204 1380.82 218.125 1385.42 Q215.07 1390.01 209.26 1390.01 Q203.449 1390.01 200.371 1385.42 Q197.315 1380.82 197.315 1372.09 Q197.315 1363.34 200.371 1358.76 Q203.449 1354.15 209.26 1354.15 Z" fill="#000000" fill-rule="nonzero" fill-opacity="1" /><path clip-path="url(#clip610)" d="M115.256 1054.44 L144.931 1054.44 L144.931 1058.37 L115.256 1058.37 L115.256 1054.44 Z" fill="#000000" fill-rule="nonzero" fill-opacity="1" /><path clip-path="url(#clip610)" d="M165.024 1039.78 Q161.413 1039.78 159.584 1043.35 Q157.778 1046.89 157.778 1054.02 Q157.778 1061.13 159.584 1064.69 Q161.413 1068.23 165.024 1068.23 Q168.658 1068.23 170.464 1064.69 Q172.292 1061.13 172.292 1054.02 Q172.292 1046.89 170.464 1043.35 Q168.658 1039.78 165.024 1039.78 M165.024 1036.08 Q170.834 1036.08 173.889 1040.69 Q176.968 1045.27 176.968 1054.02 Q176.968 1062.75 173.889 1067.35 Q170.834 1071.94 165.024 1071.94 Q159.214 1071.94 156.135 1067.35 Q153.079 1062.75 153.079 1054.02 Q153.079 1045.27 156.135 1040.69 Q159.214 1036.08 165.024 1036.08 Z" fill="#000000" fill-rule="nonzero" fill-opacity="1" /><path clip-path="url(#clip610)" d="M185.186 1065.38 L190.07 1065.38 L190.07 1071.26 L185.186 1071.26 L185.186 1065.38 Z" fill="#000000" fill-rule="nonzero" fill-opacity="1" /><path clip-path="url(#clip610)" d="M200.301 1036.7 L218.658 1036.7 L218.658 1040.64 L204.584 1040.64 L204.584 1049.11 Q205.602 1048.76 206.621 1048.6 Q207.639 1048.42 208.658 1048.42 Q214.445 1048.42 217.824 1051.59 Q221.204 1054.76 221.204 1060.18 Q221.204 1065.76 217.732 1068.86 Q214.26 1071.94 207.94 1071.94 Q205.764 1071.94 203.496 1071.57 Q201.25 1071.19 198.843 1070.45 L198.843 1065.76 Q200.926 1066.89 203.149 1067.44 Q205.371 1068 207.848 1068 Q211.852 1068 214.19 1065.89 Q216.528 1063.79 216.528 1060.18 Q216.528 1056.57 214.19 1054.46 Q211.852 1052.35 207.848 1052.35 Q205.973 1052.35 204.098 1052.77 Q202.246 1053.19 200.301 1054.07 L200.301 1036.7 Z" fill="#000000" fill-rule="nonzero" fill-opacity="1" /><path clip-path="url(#clip610)" d="M164.028 721.711 Q160.417 721.711 158.589 725.276 Q156.783 728.818 156.783 735.947 Q156.783 743.054 158.589 746.618 Q160.417 750.16 164.028 750.16 Q167.663 750.16 169.468 746.618 Q171.297 743.054 171.297 735.947 Q171.297 728.818 169.468 725.276 Q167.663 721.711 164.028 721.711 M164.028 718.007 Q169.839 718.007 172.894 722.614 Q175.973 727.197 175.973 735.947 Q175.973 744.674 172.894 749.28 Q169.839 753.864 164.028 753.864 Q158.218 753.864 155.14 749.28 Q152.084 744.674 152.084 735.947 Q152.084 727.197 155.14 722.614 Q158.218 718.007 164.028 718.007 Z" fill="#000000" fill-rule="nonzero" fill-opacity="1" /><path clip-path="url(#clip610)" d="M184.19 747.313 L189.075 747.313 L189.075 753.192 L184.19 753.192 L184.19 747.313 Z" fill="#000000" fill-rule="nonzero" fill-opacity="1" /><path clip-path="url(#clip610)" d="M209.26 721.711 Q205.649 721.711 203.82 725.276 Q202.014 728.818 202.014 735.947 Q202.014 743.054 203.82 746.618 Q205.649 750.16 209.26 750.16 Q212.894 750.16 214.699 746.618 Q216.528 743.054 216.528 735.947 Q216.528 728.818 214.699 725.276 Q212.894 721.711 209.26 721.711 M209.26 718.007 Q215.07 718.007 218.125 722.614 Q221.204 727.197 221.204 735.947 Q221.204 744.674 218.125 749.28 Q215.07 753.864 209.26 753.864 Q203.449 753.864 200.371 749.28 Q197.315 744.674 197.315 735.947 Q197.315 727.197 200.371 722.614 Q203.449 718.007 209.26 718.007 Z" fill="#000000" fill-rule="nonzero" fill-opacity="1" /><path clip-path="url(#clip610)" d="M165.024 403.639 Q161.413 403.639 159.584 407.204 Q157.778 410.746 157.778 417.875 Q157.778 424.982 159.584 428.546 Q161.413 432.088 165.024 432.088 Q168.658 432.088 170.464 428.546 Q172.292 424.982 172.292 417.875 Q172.292 410.746 170.464 407.204 Q168.658 403.639 165.024 403.639 M165.024 399.936 Q170.834 399.936 173.889 404.542 Q176.968 409.125 176.968 417.875 Q176.968 426.602 173.889 431.208 Q170.834 435.792 165.024 435.792 Q159.214 435.792 156.135 431.208 Q153.079 426.602 153.079 417.875 Q153.079 409.125 156.135 404.542 Q159.214 399.936 165.024 399.936 Z" fill="#000000" fill-rule="nonzero" fill-opacity="1" /><path clip-path="url(#clip610)" d="M185.186 429.241 L190.07 429.241 L190.07 435.121 L185.186 435.121 L185.186 429.241 Z" fill="#000000" fill-rule="nonzero" fill-opacity="1" /><path clip-path="url(#clip610)" d="M200.301 400.561 L218.658 400.561 L218.658 404.496 L204.584 404.496 L204.584 412.968 Q205.602 412.621 206.621 412.459 Q207.639 412.273 208.658 412.273 Q214.445 412.273 217.824 415.445 Q221.204 418.616 221.204 424.033 Q221.204 429.611 217.732 432.713 Q214.26 435.792 207.94 435.792 Q205.764 435.792 203.496 435.421 Q201.25 435.051 198.843 434.31 L198.843 429.611 Q200.926 430.746 203.149 431.301 Q205.371 431.857 207.848 431.857 Q211.852 431.857 214.19 429.75 Q216.528 427.644 216.528 424.033 Q216.528 420.422 214.19 418.315 Q211.852 416.209 207.848 416.209 Q205.973 416.209 204.098 416.625 Q202.246 417.042 200.301 417.922 L200.301 400.561 Z" fill="#000000" fill-rule="nonzero" fill-opacity="1" /><path clip-path="url(#clip610)" d="M154.839 113.113 L162.477 113.113 L162.477 86.7479 L154.167 88.4145 L154.167 84.1553 L162.431 82.4886 L167.107 82.4886 L167.107 113.113 L174.746 113.113 L174.746 117.049 L154.839 117.049 L154.839 113.113 Z" fill="#000000" fill-rule="nonzero" fill-opacity="1" /><path clip-path="url(#clip610)" d="M184.19 111.169 L189.075 111.169 L189.075 117.049 L184.19 117.049 L184.19 111.169 Z" fill="#000000" fill-rule="nonzero" fill-opacity="1" /><path clip-path="url(#clip610)" d="M209.26 85.5673 Q205.649 85.5673 203.82 89.1321 Q202.014 92.6738 202.014 99.8034 Q202.014 106.91 203.82 110.475 Q205.649 114.016 209.26 114.016 Q212.894 114.016 214.699 110.475 Q216.528 106.91 216.528 99.8034 Q216.528 92.6738 214.699 89.1321 Q212.894 85.5673 209.26 85.5673 M209.26 81.8636 Q215.07 81.8636 218.125 86.4701 Q221.204 91.0534 221.204 99.8034 Q221.204 108.53 218.125 113.137 Q215.07 117.72 209.26 117.72 Q203.449 117.72 200.371 113.137 Q197.315 108.53 197.315 99.8034 Q197.315 91.0534 200.371 86.4701 Q203.449 81.8636 209.26 81.8636 Z" fill="#000000" fill-rule="nonzero" fill-opacity="1" /><path clip-path="url(#clip610)" d="M16.4842 971.396 L16.4842 961.815 L48.8219 949.689 L16.4842 937.498 L16.4842 927.918 L64.0042 927.918 L64.0042 934.188 L22.277 934.188 L54.8694 946.442 L54.8694 952.903 L22.277 965.157 L64.0042 965.157 L64.0042 971.396 L16.4842 971.396 Z" fill="#000000" fill-rule="nonzero" fill-opacity="1" /><path clip-path="url(#clip610)" d="M32.4621 901.596 Q32.4621 906.306 36.1542 909.044 Q39.8145 911.781 46.212 911.781 Q52.6095 911.781 56.3017 909.075 Q59.9619 906.338 59.9619 901.596 Q59.9619 896.917 56.2698 894.18 Q52.5777 891.442 46.212 891.442 Q39.8781 891.442 36.186 894.18 Q32.4621 896.917 32.4621 901.596 M27.4968 901.596 Q27.4968 893.957 32.4621 889.596 Q37.4273 885.236 46.212 885.236 Q54.9649 885.236 59.9619 889.596 Q64.9272 893.957 64.9272 901.596 Q64.9272 909.266 59.9619 913.627 Q54.9649 917.955 46.212 917.955 Q37.4273 917.955 32.4621 913.627 Q27.4968 909.266 27.4968 901.596 Z" fill="#000000" fill-rule="nonzero" fill-opacity="1" /><path clip-path="url(#clip610)" d="M35.1993 847.774 Q31.2526 845.577 29.3747 842.522 Q27.4968 839.466 27.4968 835.329 Q27.4968 829.759 31.4117 826.735 Q35.2948 823.711 42.4881 823.711 L64.0042 823.711 L64.0042 829.599 L42.679 829.599 Q37.5546 829.599 35.072 831.414 Q32.5894 833.228 32.5894 836.952 Q32.5894 841.503 35.6131 844.145 Q38.6368 846.787 43.8567 846.787 L64.0042 846.787 L64.0042 852.675 L42.679 852.675 Q37.5228 852.675 35.072 854.489 Q32.5894 856.304 32.5894 860.091 Q32.5894 864.579 35.6449 867.221 Q38.6686 869.863 43.8567 869.863 L64.0042 869.863 L64.0042 875.751 L28.3562 875.751 L28.3562 869.863 L33.8944 869.863 Q30.616 867.857 29.0564 865.056 Q27.4968 862.256 27.4968 858.404 Q27.4968 854.521 29.4702 851.816 Q31.4436 849.079 35.1993 847.774 Z" fill="#000000" fill-rule="nonzero" fill-opacity="1" /><path clip-path="url(#clip610)" d="M44.7161 781.538 L47.5806 781.538 L47.5806 808.465 Q53.6281 808.083 56.8109 804.837 Q59.9619 801.559 59.9619 795.734 Q59.9619 792.36 59.1344 789.209 Q58.3069 786.026 56.6518 782.907 L62.1899 782.907 Q63.5267 786.058 64.227 789.368 Q64.9272 792.678 64.9272 796.084 Q64.9272 804.614 59.9619 809.611 Q54.9967 814.576 46.5303 814.576 Q37.7774 814.576 32.6531 809.866 Q27.4968 805.123 27.4968 797.103 Q27.4968 789.909 32.1438 785.74 Q36.7589 781.538 44.7161 781.538 M42.9973 787.395 Q38.1912 787.459 35.3266 790.1 Q32.4621 792.71 32.4621 797.039 Q32.4621 801.94 35.2312 804.901 Q38.0002 807.829 43.0292 808.274 L42.9973 787.395 Z" fill="#000000" fill-rule="nonzero" fill-opacity="1" /><path clip-path="url(#clip610)" d="M42.4881 742.294 L64.0042 742.294 L64.0042 748.15 L42.679 748.15 Q37.6183 748.15 35.1038 750.124 Q32.5894 752.097 32.5894 756.044 Q32.5894 760.786 35.6131 763.523 Q38.6368 766.261 43.8567 766.261 L64.0042 766.261 L64.0042 772.149 L28.3562 772.149 L28.3562 766.261 L33.8944 766.261 Q30.6797 764.16 29.0883 761.327 Q27.4968 758.463 27.4968 754.739 Q27.4968 748.596 31.3163 745.445 Q35.1038 742.294 42.4881 742.294 Z" fill="#000000" fill-rule="nonzero" fill-opacity="1" /><path clip-path="url(#clip610)" d="M18.2347 724.82 L28.3562 724.82 L28.3562 712.757 L32.9077 712.757 L32.9077 724.82 L52.2594 724.82 Q56.6199 724.82 57.8613 723.642 Q59.1026 722.433 59.1026 718.773 L59.1026 712.757 L64.0042 712.757 L64.0042 718.773 Q64.0042 725.552 61.4897 728.13 Q58.9434 730.708 52.2594 730.708 L32.9077 730.708 L32.9077 735.005 L28.3562 735.005 L28.3562 730.708 L18.2347 730.708 L18.2347 724.82 Z" fill="#000000" fill-rule="nonzero" fill-opacity="1" /><path clip-path="url(#clip610)" d="M49.9359 705.659 L28.3562 705.659 L28.3562 699.803 L49.7131 699.803 Q54.7739 699.803 57.3202 697.829 Q59.8346 695.856 59.8346 691.909 Q59.8346 687.167 56.8109 684.43 Q53.7872 681.66 48.5673 681.66 L28.3562 681.66 L28.3562 675.804 L64.0042 675.804 L64.0042 681.66 L58.5296 681.66 Q61.7762 683.793 63.3676 686.626 Q64.9272 689.427 64.9272 693.151 Q64.9272 699.293 61.1078 702.476 Q57.2883 705.659 49.9359 705.659 M27.4968 690.923 L27.4968 690.923 Z" fill="#000000" fill-rule="nonzero" fill-opacity="1" /><path clip-path="url(#clip610)" d="M35.1993 635.987 Q31.2526 633.79 29.3747 630.735 Q27.4968 627.679 27.4968 623.542 Q27.4968 617.972 31.4117 614.948 Q35.2948 611.924 42.4881 611.924 L64.0042 611.924 L64.0042 617.812 L42.679 617.812 Q37.5546 617.812 35.072 619.627 Q32.5894 621.441 32.5894 625.165 Q32.5894 629.716 35.6131 632.358 Q38.6368 635 43.8567 635 L64.0042 635 L64.0042 640.888 L42.679 640.888 Q37.5228 640.888 35.072 642.702 Q32.5894 644.517 32.5894 648.304 Q32.5894 652.792 35.6449 655.434 Q38.6686 658.076 43.8567 658.076 L64.0042 658.076 L64.0042 663.964 L28.3562 663.964 L28.3562 658.076 L33.8944 658.076 Q30.616 656.07 29.0564 653.269 Q27.4968 650.468 27.4968 646.617 Q27.4968 642.734 29.4702 640.029 Q31.4436 637.291 35.1993 635.987 Z" fill="#000000" fill-rule="nonzero" fill-opacity="1" /><path clip-path="url(#clip610)" d="M14.5426 565.454 Q21.8632 569.72 29.0246 571.788 Q36.186 573.857 43.5384 573.857 Q50.8908 573.857 58.1159 571.788 Q65.3091 569.688 72.5979 565.454 L72.5979 570.547 Q65.1182 575.321 57.8931 577.708 Q50.668 580.064 43.5384 580.064 Q36.4406 580.064 29.2474 577.708 Q22.0542 575.353 14.5426 570.547 L14.5426 565.454 Z" fill="#000000" fill-rule="nonzero" fill-opacity="1" /><path clip-path="url(#clip610)" d="M58.657 548.426 L77.5631 548.426 L77.5631 554.315 L28.3562 554.315 L28.3562 548.426 L33.7671 548.426 Q30.5842 546.58 29.0564 543.779 Q27.4968 540.947 27.4968 537.032 Q27.4968 530.539 32.6531 526.496 Q37.8093 522.422 46.212 522.422 Q54.6147 522.422 59.771 526.496 Q64.9272 530.539 64.9272 537.032 Q64.9272 540.947 63.3994 543.779 Q61.8398 546.58 58.657 548.426 M46.212 528.502 Q39.7508 528.502 36.0905 531.175 Q32.3984 533.817 32.3984 538.464 Q32.3984 543.111 36.0905 545.784 Q39.7508 548.426 46.212 548.426 Q52.6732 548.426 56.3653 545.784 Q60.0256 543.111 60.0256 538.464 Q60.0256 533.817 56.3653 531.175 Q52.6732 528.502 46.212 528.502 Z" fill="#000000" fill-rule="nonzero" fill-opacity="1" /><path clip-path="url(#clip610)" d="M14.5426 513.638 L14.5426 508.545 Q22.0542 503.771 29.2474 501.415 Q36.4406 499.028 43.5384 499.028 Q50.668 499.028 57.8931 501.415 Q65.1182 503.771 72.5979 508.545 L72.5979 513.638 Q65.3091 509.404 58.1159 507.336 Q50.8908 505.235 43.5384 505.235 Q36.186 505.235 29.0246 507.336 Q21.8632 509.404 14.5426 513.638 Z" fill="#000000" fill-rule="nonzero" fill-opacity="1" /><polyline clip-path="url(#clip612)" style="stroke:#009af9; stroke-linecap:round; stroke-linejoin:round; stroke-width:16; stroke-opacity:1; fill:none" points="1311.35,99.7686 1317.28,99.7806 1323.21,99.8166 1329.15,99.8766 1335.08,99.9606 1341,100.069 1346.93,100.201 1352.86,100.356 1358.79,100.536 1364.71,100.74 1370.63,100.968 1376.55,101.22 1382.47,101.496 1388.38,101.795 1394.29,102.119 1400.2,102.466 1406.11,102.838 1412.01,103.233 1417.9,103.652 1423.8,104.095 1429.69,104.562 1435.57,105.053 1441.45,105.567 1447.33,106.105 1453.2,106.667 1459.06,107.253 1464.92,107.863 1470.77,108.496 1476.62,109.152 1482.46,109.833 1488.3,110.537 1494.13,111.265 1499.95,112.016 1505.76,112.791 1511.57,113.589 1517.37,114.411 1523.16,115.256 1528.94,116.124 1534.72,117.016 1540.48,117.932 1546.24,118.87 1551.99,119.832 1557.73,120.817 1563.46,121.826 1569.18,122.857 1574.89,123.912 1580.6,124.989 1586.29,126.09 1591.97,127.214 1597.64,128.361 1603.3,129.53 1608.95,130.723 1614.58,131.938 1620.21,133.176 1625.82,134.437 1631.43,135.721 1637.02,137.027 1642.6,138.356 1648.16,139.707 1653.71,141.081 1659.25,142.477 1664.78,143.896 1670.29,145.337 1675.79,146.8 1681.28,148.286 1686.75,149.793 1692.21,151.323 1697.66,152.875 1703.08,154.449 1708.5,156.045 1713.9,157.662 1719.28,159.302 1724.65,160.963 1730,162.646 1735.34,164.35 1740.66,166.076 1745.97,167.824 1751.26,169.593 1756.53,171.383 1761.79,173.195 1767.02,175.028 1772.25,176.882 1777.45,178.757 1782.64,180.653 1787.8,182.57 1792.96,184.508 1798.09,186.467 1803.2,188.446 1808.3,190.446 1813.37,192.467 1818.43,194.508 1823.47,196.57 1828.49,198.652 1833.49,200.754 1838.47,202.877 1843.43,205.019 1848.37,207.182 1853.29,209.364 1858.19,211.567 1863.07,213.789 1867.93,216.031 1872.76,218.292 1877.58,220.573 1882.38,222.874 1887.15,225.193 1891.9,227.533 1896.63,229.891 1901.34,232.268 1906.02,234.664 1910.68,237.08 1915.32,239.514 1919.94,241.966 1924.54,244.438 1929.11,246.928 1933.65,249.436 1938.18,251.963 1942.68,254.508 1947.16,257.071 1951.61,259.652 1956.04,262.252 1960.44,264.869 1964.82,267.503 1969.18,270.156 1973.51,272.826 1977.81,275.514 1982.09,278.218 1986.35,280.941 1990.58,283.68 1994.78,286.436 1998.96,289.21 2003.11,292 2007.24,294.807 2011.34,297.63 2015.41,300.471 2019.46,303.327 2023.48,306.2 2027.47,309.089 2031.44,311.994 2035.38,314.915 2039.29,317.852 2043.18,320.805 2047.03,323.774 2050.86,326.758 2054.66,329.757 2058.44,332.772 2062.18,335.802 2065.9,338.847 2069.59,341.907 2073.25,344.982 2076.88,348.072 2080.48,351.176 2084.05,354.295 2087.6,357.428 2091.11,360.575 2094.6,363.737 2098.05,366.913 2101.48,370.102 2104.87,373.306 2108.24,376.523 2111.57,379.754 2114.88,382.998 2118.16,386.255 2121.4,389.526 2124.62,392.809 2127.8,396.106 2130.95,399.415 2134.08,402.737 2137.17,406.072 2140.23,409.419 2143.26,412.779 2146.25,416.15 2149.22,419.534 2152.15,422.929 2155.06,426.337 2157.93,429.756 2160.76,433.187 2163.57,436.629 2166.35,440.082 2169.09,443.547 2171.8,447.022 2174.48,450.509 2177.12,454.006 2179.73,457.514 2182.31,461.032 2184.86,464.561 2187.37,468.1 2189.85,471.649 2192.3,475.208 2194.72,478.777 2197.1,482.355 2199.44,485.943 2201.76,489.541 2204.04,493.148 2206.29,496.764 2208.5,500.389 2210.68,504.023 2212.82,507.665 2214.93,511.317 2217.01,514.976 2219.05,518.644 2221.06,522.321 2223.04,526.005 2224.98,529.697 2226.88,533.397 2228.75,537.105 2230.59,540.82 2232.39,544.543 2234.16,548.272 2235.89,552.009 2237.59,555.753 2239.25,559.504 2240.88,563.261 2242.47,567.024 2244.03,570.795 2245.55,574.571 2247.04,578.353 2248.49,582.142 2249.91,585.936 2251.29,589.736 2252.63,593.541 2253.94,597.352 2255.22,601.168 2256.45,604.989 2257.66,608.815 2258.82,612.645 2259.96,616.481 2261.05,620.321 2262.11,624.165 2263.14,628.013 2264.12,631.866 2265.08,635.722 2265.99,639.583 2266.87,643.446 2267.72,647.314 2268.52,651.185 2269.3,655.058 2270.03,658.935 2270.73,662.815 2271.4,666.698 2272.02,670.583 2272.61,674.471 2273.17,678.361 2273.69,682.253 2274.17,686.147 2274.62,690.043 2275.02,693.941 2275.4,697.841 2275.74,701.741 2276.04,705.643 2276.3,709.547 2276.53,713.451 2276.72,717.356 2276.87,721.262 2276.99,725.168 2277.07,729.075 2277.12,732.982 2277.13,736.889 2277.1,740.796 2277.04,744.703 2276.94,748.61 2276.8,752.516 2276.63,756.421 2276.42,760.326 2276.17,764.23 2275.89,768.133 2275.57,772.034 2275.22,775.934 2274.82,779.833 2274.4,783.73 2273.93,787.625 2273.43,791.518 2272.9,795.409 2272.32,799.298 2271.71,803.185 2271.07,807.069 2270.39,810.95 2269.67,814.828 2268.92,818.704 2268.13,822.576 2267.3,826.445 2266.44,830.311 2265.54,834.173 2264.6,838.031 2263.63,841.886 2262.63,845.736 2261.59,849.583 2260.51,853.425 2259.39,857.262 2258.25,861.095 2257.06,864.924 2255.84,868.747 2254.58,872.566 2253.29,876.379 2251.96,880.187 2250.6,883.99 2249.2,887.787 2247.77,891.578 2246.3,895.363 2244.79,899.143 2243.25,902.916 2241.68,906.683 2240.07,910.443 2238.43,914.197 2236.75,917.945 2235.03,921.685 2233.28,925.418 2231.5,929.144 2229.68,932.863 2227.82,936.575 2225.94,940.279 2224.01,943.975 2222.06,947.663 2220.06,951.343 2218.04,955.015 2215.98,958.679 2213.88,962.335 2211.75,965.982 2209.59,969.62 2207.4,973.25 2205.17,976.87 2202.9,980.482 2200.61,984.084 2198.27,987.677 2195.91,991.26 2193.51,994.834 2191.08,998.398 2188.62,1001.95 2186.12,1005.5 2183.59,1009.03 2181.03,1012.55 2178.43,1016.07 2175.8,1019.57 2173.14,1023.06 2170.45,1026.54 2167.72,1030.01 2164.96,1033.47 2162.17,1036.92 2159.35,1040.35 2156.49,1043.78 2153.61,1047.19 2150.69,1050.59 2147.74,1053.98 2144.76,1057.36 2141.74,1060.73 2138.7,1064.08 2135.62,1067.42 2132.52,1070.75 2129.38,1074.07 2126.21,1077.37 2123.01,1080.66 2119.78,1083.94 2116.52,1087.2 2113.23,1090.45 2109.91,1093.69 2106.56,1096.91 2103.18,1100.12 2099.77,1103.32 2096.33,1106.5 2092.86,1109.67 2089.36,1112.82 2085.83,1115.97 2082.27,1119.09 2078.68,1122.2 2075.06,1125.3 2071.42,1128.38 2067.75,1131.45 2064.04,1134.5 2060.31,1137.54 2056.55,1140.56 2052.77,1143.57 2048.95,1146.56 2045.11,1149.54 2041.24,1152.5 2037.34,1155.44 2033.41,1158.37 2029.46,1161.29 2025.48,1164.18 2021.47,1167.06 2017.44,1169.93 2013.38,1172.78 2009.29,1175.61 2005.18,1178.42 2001.04,1181.22 1996.88,1184 1992.68,1186.77 1988.47,1189.52 1984.23,1192.25 1979.96,1194.96 1975.66,1197.66 1971.35,1200.34 1967,1203 1962.64,1205.64 1958.24,1208.27 1953.83,1210.88 1949.39,1213.47 1944.92,1216.04 1940.43,1218.59 1935.92,1221.13 1931.38,1223.65 1926.82,1226.14 1922.24,1228.62 1917.64,1231.09 1913.01,1233.53 1908.36,1235.96 1903.68,1238.36 1898.99,1240.75 1894.27,1243.12 1889.53,1245.46 1884.76,1247.79 1879.98,1250.1 1875.18,1252.39 1870.35,1254.67 1865.5,1256.92 1860.63,1259.15 1855.74,1261.36 1850.83,1263.55 1845.9,1265.73 1840.95,1267.88 1835.98,1270.01 1830.99,1272.12 1825.98,1274.22 1820.95,1276.29 1815.91,1278.34 1810.84,1280.37 1805.75,1282.38 1800.65,1284.37 1795.52,1286.34 1790.38,1288.29 1785.22,1290.22 1780.05,1292.12 1774.85,1294.01 1769.64,1295.87 1764.41,1297.72 1759.16,1299.54 1753.9,1301.34 1748.62,1303.12 1743.32,1304.88 1738,1306.61 1732.68,1308.33 1727.33,1310.02 1721.97,1311.7 1716.59,1313.35 1711.2,1314.97 1705.79,1316.58 1700.37,1318.17 1694.93,1319.73 1689.48,1321.27 1684.02,1322.79 1678.54,1324.28 1673.05,1325.76 1667.54,1327.21 1662.02,1328.64 1656.49,1330.05 1650.94,1331.43 1645.38,1332.8 1639.81,1334.14 1634.22,1335.45 1628.63,1336.75 1623.02,1338.02 1617.4,1339.27 1611.77,1340.5 1606.12,1341.7 1600.47,1342.88 1594.8,1344.04 1589.13,1345.18 1583.44,1346.29 1577.75,1347.38 1572.04,1348.44 1566.32,1349.49 1560.6,1350.51 1554.86,1351.5 1549.12,1352.48 1543.36,1353.43 1537.6,1354.35 1531.83,1355.26 1526.05,1356.14 1520.26,1356.99 1514.47,1357.83 1508.66,1358.64 1502.85,1359.42 1497.04,1360.19 1491.21,1360.93 1485.38,1361.64 1479.54,1362.34 1473.7,1363 1467.85,1363.65 1461.99,1364.27 1456.13,1364.87 1450.26,1365.44 1444.39,1365.99 1438.51,1366.52 1432.63,1367.02 1426.74,1367.5 1420.85,1367.95 1414.96,1368.39 1409.06,1368.79 1403.15,1369.18 1397.25,1369.54 1391.34,1369.87 1385.42,1370.18 1379.51,1370.47 1373.59,1370.73 1367.67,1370.97 1361.75,1371.19 1355.82,1371.38 1349.9,1371.55 1343.97,1371.69 1338.04,1371.81 1332.11,1371.91 1326.18,1371.98 1320.25,1372.03 1314.32,1372.05 1308.38,1372.05 1302.45,1372.03 1296.52,1371.98 1290.59,1371.91 1284.66,1371.81 1278.73,1371.69 1272.8,1371.55 1266.88,1371.38 1260.95,1371.19 1255.03,1370.97 1249.11,1370.73 1243.19,1370.47 1237.28,1370.18 1231.36,1369.87 1225.45,1369.54 1219.55,1369.18 1213.64,1368.79 1207.75,1368.39 1201.85,1367.95 1195.96,1367.5 1190.07,1367.02 1184.19,1366.52 1178.31,1365.99 1172.44,1365.44 1166.57,1364.87 1160.71,1364.27 1154.85,1363.65 1149,1363 1143.16,1362.34 1137.32,1361.64 1131.49,1360.93 1125.66,1360.19 1119.85,1359.42 1114.04,1358.64 1108.23,1357.83 1102.44,1356.99 1096.65,1356.14 1090.87,1355.26 1085.1,1354.35 1079.34,1353.43 1073.59,1352.48 1067.84,1351.5 1062.11,1350.51 1056.38,1349.49 1050.66,1348.44 1044.96,1347.38 1039.26,1346.29 1033.57,1345.18 1027.9,1344.04 1022.23,1342.88 1016.58,1341.7 1010.93,1340.5 1005.3,1339.27 999.683,1338.02 994.075,1336.75 988.478,1335.45 982.894,1334.14 977.322,1332.8 971.763,1331.43 966.216,1330.05 960.682,1328.64 955.162,1327.21 949.655,1325.76 944.162,1324.28 938.683,1322.79 933.218,1321.27 927.767,1319.73 922.33,1318.17 916.908,1316.58 911.501,1314.97 906.109,1313.35 900.733,1311.7 895.372,1310.02 890.026,1308.33 884.697,1306.61 879.383,1304.88 874.086,1303.12 868.805,1301.34 863.542,1299.54 858.294,1297.72 853.065,1295.87 847.852,1294.01 842.656,1292.12 837.479,1290.22 832.319,1288.29 827.178,1286.34 822.055,1284.37 816.95,1282.38 811.863,1280.37 806.796,1278.34 801.748,1276.29 796.719,1274.22 791.709,1272.12 786.719,1270.01 781.749,1267.88 776.798,1265.73 771.868,1263.55 766.958,1261.36 762.069,1259.15 757.201,1256.92 752.353,1254.67 747.526,1252.39 742.721,1250.1 737.937,1247.79 733.175,1245.46 728.435,1243.12 723.716,1240.75 719.02,1238.36 714.346,1235.96 709.695,1233.53 705.066,1231.09 700.46,1228.62 695.878,1226.14 691.318,1223.65 686.782,1221.13 682.269,1218.59 677.78,1216.04 673.315,1213.47 668.874,1210.87 664.458,1208.27 660.066,1205.64 655.698,1203 651.355,1200.34 647.037,1197.66 642.744,1194.96 638.476,1192.25 634.234,1189.52 630.017,1186.77 625.826,1184 621.66,1181.22 617.521,1178.42 613.408,1175.61 609.321,1172.78 605.261,1169.93 601.227,1167.06 597.221,1164.18 593.241,1161.29 589.288,1158.37 585.362,1155.44 581.464,1152.5 577.593,1149.54 573.751,1146.56 569.935,1143.57 566.148,1140.56 562.389,1137.54 558.658,1134.5 554.956,1131.45 551.282,1128.38 547.637,1125.3 544.02,1122.2 540.433,1119.09 536.874,1115.97 533.345,1112.82 529.845,1109.67 526.375,1106.5 522.934,1103.32 519.523,1100.12 516.142,1096.91 512.791,1093.69 509.47,1090.45 506.179,1087.2 502.919,1083.94 499.689,1080.66 496.49,1077.37 493.321,1074.07 490.184,1070.75 487.077,1067.42 484.001,1064.08 480.957,1060.73 477.944,1057.36 474.962,1053.98 472.012,1050.59 469.094,1047.19 466.207,1043.78 463.352,1040.35 460.529,1036.92 457.739,1033.47 454.98,1030.01 452.254,1026.54 449.56,1023.06 446.899,1019.57 444.27,1016.07 441.674,1012.55 439.111,1009.03 436.581,1005.5 434.084,1001.95 431.62,998.398 429.189,994.834 426.791,991.26 424.427,987.677 422.096,984.084 419.799,980.482 417.535,976.87 415.305,973.25 413.109,969.62 410.947,965.982 408.819,962.335 406.724,958.679 404.664,955.015 402.638,951.343 400.647,947.663 398.689,943.974 396.767,940.278 394.878,936.574 393.024,932.863 391.205,929.144 389.421,925.418 387.671,921.685 385.956,917.944 384.276,914.197 382.631,910.443 381.022,906.683 379.447,902.916 377.907,899.143 376.403,895.363 374.934,891.578 373.5,887.787 372.101,883.99 370.738,880.187 369.411,876.379 368.119,872.566 366.862,868.747 365.642,864.924 364.456,861.095 363.307,857.262 362.193,853.425 361.116,849.583 360.074,845.736 359.067,841.886 358.097,838.031 357.163,834.173 356.265,830.311 355.403,826.445 354.576,822.576 353.786,818.704 353.032,814.828 352.315,810.95 351.633,807.069 350.988,803.184 350.379,799.298 349.806,795.409 349.269,791.518 348.769,787.625 348.305,783.73 347.877,779.833 347.486,775.934 347.131,772.034 346.812,768.132 346.53,764.23 346.284,760.326 346.074,756.421 345.901,752.516 345.765,748.61 345.665,744.703 345.601,740.796 345.574,736.889 345.583,732.982 345.628,729.075 345.71,725.168 345.829,721.262 345.983,717.356 346.175,713.451 346.402,709.547 346.666,705.643 346.967,701.741 347.303,697.84 347.677,693.941 348.086,690.043 348.532,686.147 349.014,682.253 349.533,678.361 350.088,674.471 350.679,670.583 351.306,666.698 351.969,662.815 352.669,658.935 353.405,655.058 354.177,651.184 354.985,647.314 355.829,643.446 356.709,639.582 357.626,635.722 358.578,631.866 359.566,628.013 360.59,624.165 361.65,620.321 362.746,616.481 363.877,612.645 365.045,608.814 366.248,604.988 367.486,601.168 368.76,597.351 370.07,593.541 371.415,589.735 372.796,585.936 374.212,582.142 375.664,578.353 377.151,574.571 378.673,570.795 380.23,567.024 381.822,563.261 383.45,559.503 385.112,555.753 386.809,552.009 388.542,548.272 390.309,544.543 392.111,540.82 393.947,537.105 395.818,533.397 397.724,529.697 399.664,526.005 401.638,522.321 403.647,518.644 405.69,514.976 407.767,511.317 409.879,507.665 412.024,504.023 414.203,500.389 416.416,496.764 418.663,493.148 420.943,489.541 423.257,485.943 425.605,482.355 427.986,478.777 430.4,475.208 432.848,471.649 435.329,468.099 437.842,464.561 440.389,461.032 442.968,457.514 445.581,454.006 448.226,450.509 450.903,447.022 453.613,443.547 456.356,440.082 459.13,436.629 461.937,433.187 464.776,429.756 467.646,426.337 470.549,422.929 473.483,419.534 476.449,416.15 479.446,412.779 482.475,409.419 485.535,406.072 488.626,402.737 491.748,399.415 494.902,396.106 498.086,392.809 501.3,389.526 504.545,386.255 507.821,382.998 511.127,379.753 514.463,376.523 517.829,373.306 521.225,370.102 524.651,366.913 528.106,363.737 531.592,360.575 535.106,357.428 538.65,354.295 542.223,351.176 545.825,348.072 549.456,344.982 553.115,341.907 556.804,338.847 560.52,335.802 564.265,332.772 568.038,329.757 571.84,326.758 575.669,323.773 579.525,320.805 583.41,317.852 587.322,314.915 591.261,311.994 595.227,309.089 599.221,306.2 603.241,303.327 607.288,300.47 611.362,297.63 615.462,294.807 619.588,292 623.74,289.21 627.918,286.436 632.122,283.68 636.352,280.94 640.607,278.218 644.888,275.513 649.193,272.826 653.524,270.156 657.879,267.503 662.259,264.868 666.663,262.252 671.092,259.652 675.545,257.071 680.022,254.508 684.523,251.963 689.047,249.436 693.595,246.928 698.166,244.438 702.761,241.966 707.378,239.514 712.018,237.08 716.68,234.664 721.366,232.268 726.073,229.891 730.802,227.532 735.554,225.193 740.327,222.874 745.121,220.573 749.937,218.292 754.774,216.031 759.632,213.789 764.511,211.567 769.411,209.364 774.331,207.182 779.271,205.019 784.232,202.877 789.212,200.754 794.212,198.652 799.231,196.57 804.27,194.508 809.328,192.467 814.404,190.446 819.5,188.446 824.614,186.467 829.747,184.508 834.897,182.57 840.066,180.653 845.252,178.757 850.456,176.882 855.678,175.028 860.916,173.195 866.172,171.383 871.444,169.593 876.733,167.824 882.038,166.076 887.36,164.35 892.697,162.646 898.05,160.963 903.419,159.302 908.804,157.662 914.203,156.044 919.618,154.449 925.047,152.875 930.49,151.323 935.949,149.793 941.421,148.286 946.907,146.8 952.407,145.337 957.921,143.896 963.448,142.477 968.988,141.081 974.541,139.707 980.106,138.356 985.685,137.027 991.275,135.721 996.878,134.437 1002.49,133.176 1008.12,131.938 1013.76,130.723 1019.4,129.53 1025.06,128.361 1030.73,127.214 1036.42,126.09 1042.11,124.989 1047.81,123.912 1053.52,122.857 1059.24,121.826 1064.97,120.817 1070.71,119.832 1076.46,118.87 1082.22,117.932 1087.99,117.016 1093.76,116.124 1099.54,115.256 1105.34,114.41 1111.13,113.589 1116.94,112.791 1122.76,112.016 1128.58,111.265 1134.4,110.537 1140.24,109.833 1146.08,109.152 1151.93,108.496 1157.78,107.863 1163.64,107.253 1169.5,106.667 1175.37,106.105 1181.25,105.567 1187.13,105.053 1193.01,104.562 1198.9,104.095 1204.8,103.652 1210.69,103.233 1216.6,102.838 1222.5,102.466 1228.41,102.119 1234.32,101.795 1240.23,101.496 1246.15,101.22 1252.07,100.968 1257.99,100.74 1263.92,100.536 1269.84,100.356 1275.77,100.201 1281.7,100.069 1287.63,99.9606 1293.56,99.8766 1299.49,99.8166 1305.42,99.7806 1311.35,99.7686 "/>
<polyline clip-path="url(#clip612)" style="stroke:#e26f46; stroke-linecap:round; stroke-linejoin:round; stroke-width:16; stroke-opacity:1; fill:none" points="1311.35,99.7686 1317.28,99.6983 1323.2,99.622 1329.13,99.5033 1335.05,99.6262 1340.96,99.976 1346.87,100.321 1352.78,100.666 1358.69,101.011 1364.6,101.356 1370.51,101.702 1376.41,102.047 1382.32,102.392 1388.23,102.737 1394.14,103.082 1400.05,103.427 1405.96,103.772 1411.87,104.117 1417.78,104.45 1423.7,104.771 1429.62,105.091 1435.54,105.418 1441.45,105.763 1447.36,106.131 1453.26,106.529 1459.15,106.963 1465.03,107.436 1470.9,107.953 1476.76,108.514 1482.6,109.122 1488.43,109.776 1494.25,110.475 1500.06,111.218 1505.86,112 1511.65,112.819 1517.43,113.667 1523.2,114.541 1528.97,115.431 1534.73,116.33 1540.5,117.228 1546.27,118.115 1552.03,119.01 1557.77,119.981 1563.48,121.018 1569.17,122.106 1574.84,123.234 1580.5,124.39 1586.16,125.565 1591.81,126.752 1597.45,127.944 1603.1,129.138 1608.75,130.329 1614.39,131.518 1620.04,132.704 1625.69,133.888 1631.34,135.075 1636.98,136.275 1642.62,137.501 1648.24,138.761 1653.84,140.06 1659.41,141.404 1664.95,142.795 1670.46,144.235 1675.94,145.724 1681.39,147.263 1686.8,148.848 1692.18,150.477 1697.54,152.145 1702.87,153.845 1708.19,155.57 1713.49,157.311 1718.79,159.059 1724.09,160.802 1729.41,162.526 1734.75,164.219 1740.11,165.879 1745.43,167.605 1750.68,169.404 1755.9,171.258 1761.09,173.149 1766.26,175.065 1771.42,176.993 1776.58,178.926 1781.74,180.855 1786.9,182.778 1792.07,184.691 1797.25,186.595 1802.43,188.493 1807.62,190.389 1812.8,192.291 1817.98,194.2 1823.14,196.123 1828.28,198.072 1833.39,200.054 1838.45,202.077 1843.48,204.144 1848.45,206.258 1853.38,208.419 1858.26,210.625 1863.11,212.871 1867.91,215.152 1872.69,217.458 1877.46,219.78 1882.22,222.104 1887,224.416 1891.81,226.693 1896.66,228.948 1901.5,231.203 1906.33,233.472 1911.12,235.771 1915.86,238.109 1920.55,240.492 1925.18,242.926 1929.74,245.411 1934.25,247.943 1938.71,250.517 1943.12,253.124 1947.51,255.75 1951.9,258.382 1956.3,260.999 1960.74,263.591 1965.21,266.166 1969.68,268.739 1974.13,271.319 1978.57,273.915 1982.97,276.533 1987.33,279.179 1991.64,281.855 1995.91,284.564 2000.13,287.303 2004.3,290.072 2008.44,292.866 2012.55,295.678 2016.65,298.501 2020.74,301.325 2024.84,304.144 2028.8,307.033 2032.63,309.992 2036.39,312.99 2040.12,316.002 2043.88,319.005 2047.69,321.984 2051.59,324.927 2055.57,327.827 2059.64,330.683 2063.81,333.497 2068.04,336.277 2072.32,339.035 2076.62,341.79 2080.87,344.564 2085.04,347.383 2089.04,350.28 2092.82,353.291 2096.31,356.443 2099.78,359.611 2103.26,362.772 2106.74,365.934 2110.19,369.108 2113.6,372.3 2116.96,375.515 2120.26,378.754 2123.5,382.019 2126.69,385.308 2129.83,388.618 2132.94,391.943 2136.03,395.275 2139.12,398.605 2142.2,401.942 2145.18,405.314 2148.08,408.717 2150.92,412.145 2153.7,415.593 2156.45,419.056 2159.16,422.53 2161.86,426.012 2164.54,429.499 2167.21,432.988 2169.89,436.476 2172.57,439.964 2175.26,443.448 2177.95,446.929 2180.66,450.407 2183.37,453.882 2186.09,457.354 2188.81,460.826 2191.53,464.298 2194.23,467.777 2196.87,471.277 2199.43,474.798 2201.93,478.341 2204.36,481.904 2206.71,485.487 2208.99,489.09 2211.2,492.711 2213.35,496.349 2215.42,500.004 2217.44,503.675 2219.39,507.36 2221.29,511.058 2223.14,514.768 2224.94,518.488 2226.7,522.217 2228.43,525.954 2230.13,529.697 2231.81,533.444 2233.48,537.193 2235.15,540.943 2236.82,544.691 2238.53,548.435 2240.3,552.169 2242.11,555.896 2243.95,559.621 2245.78,563.345 2247.6,567.072 2249.38,570.804 2251.12,574.543 2252.79,578.292 2254.38,582.051 2255.9,585.821 2257.34,589.603 2258.68,593.398 2259.94,597.206 2261.12,601.025 2262.21,604.857 2263.23,608.699 2264.19,612.55 2265.09,616.409 2265.96,620.273 2266.8,624.141 2267.64,628.009 2268.49,631.875 2269.34,635.736 2269.97,639.6 2270.42,643.466 2270.77,647.334 2271.09,651.202 2271.46,655.07 2271.92,658.937 2272.51,662.802 2273.26,666.666 2274.2,670.529 2275.33,674.389 2276.66,678.248 2278.16,682.105 2279.83,685.962 2281.62,689.819 2283.49,693.677 2285.38,697.536 2287.25,701.398 2288.99,705.265 2290.54,709.136 2291.8,713.016 2292.65,716.904 2292.98,720.803 2293.03,724.709 2293.12,728.615 2293.23,732.522 2293.33,736.428 2293.41,740.334 2293.45,744.24 2293.44,748.145 2293.38,752.048 2293.27,755.951 2293.09,759.852 2292.86,763.752 2292.57,767.651 2292.23,771.55 2291.86,775.447 2291.47,779.345 2291.07,783.242 2290.69,787.139 2290.25,791.033 2289.69,794.918 2289.02,798.795 2288.27,802.667 2287.43,806.533 2286.55,810.396 2285.62,814.256 2284.65,818.113 2283.67,821.97 2282.68,825.825 2281.68,829.681 2280.69,833.536 2279.7,837.392 2278.73,841.249 2277.77,845.106 2276.81,848.964 2275.87,852.823 2274.94,856.682 2274,860.542 2273.07,864.401 2272.04,868.246 2270.8,872.051 2269.37,875.824 2267.8,879.576 2266.15,883.314 2264.45,887.046 2262.73,890.778 2261.02,894.515 2259.33,898.262 2257.7,902.021 2256.12,905.793 2254.61,909.58 2253.16,913.381 2251.77,917.195 2250.43,921.019 2249.11,924.849 2247.81,928.68 2246.5,932.507 2245.13,936.322 2243.68,940.116 2242.09,943.882 2240.33,947.608 2238.34,951.284 2236.15,954.916 2233.95,958.546 2231.75,962.177 2229.56,965.808 2227.36,969.438 2225.16,973.068 2222.96,976.697 2220.75,980.325 2218.54,983.953 2216.33,987.58 2214.12,991.207 2211.91,994.833 2209.69,998.459 2207.47,1002.08 2205.26,1005.71 2203.01,1009.33 2200.7,1012.93 2198.31,1016.51 2195.85,1020.06 2193.32,1023.6 2190.72,1027.12 2188.06,1030.61 2185.34,1034.09 2182.55,1037.54 2179.71,1040.97 2176.8,1044.38 2173.85,1047.77 2170.84,1051.14 2167.78,1054.49 2164.68,1057.82 2161.53,1061.13 2158.34,1064.43 2155.11,1067.71 2151.84,1070.97 2148.54,1074.21 2145.2,1077.44 2141.84,1080.66 2138.46,1083.87 2135.05,1087.07 2131.62,1090.25 2128.18,1093.43 2124.73,1096.6 2121.27,1099.77 2117.8,1102.94 2114.33,1106.1 2110.86,1109.27 2107.39,1112.43 2103.93,1115.61 2100.47,1118.78 2096.99,1121.95 2093.49,1125.1 2089.96,1128.25 2086.39,1131.38 2082.8,1134.49 2079.16,1137.59 2075.49,1140.66 2071.77,1143.71 2068.02,1146.73 2064.22,1149.73 2060.37,1152.71 2056.49,1155.66 2052.56,1158.59 2048.59,1161.49 2044.59,1164.37 2040.55,1167.23 2036.48,1170.07 2032.38,1172.9 2028.25,1175.7 2024.11,1178.5 2019.96,1181.29 2015.79,1184.08 2011.63,1186.86 2007.47,1189.65 2003.31,1192.44 1999,1195.09 1994.5,1197.6 1989.87,1200.01 1985.16,1202.35 1980.41,1204.66 1975.65,1206.97 1970.92,1209.31 1966.23,1211.7 1961.62,1214.16 1957.09,1216.69 1952.66,1219.32 1948.34,1222.03 1944.11,1224.84 1939.99,1227.73 1935.96,1230.71 1932,1233.74 1928.09,1236.83 1924.21,1239.94 1920.33,1243.04 1916.42,1246.12 1912.43,1249.12 1908.32,1252.02 1904.03,1254.76 1899.53,1257.31 1894.9,1259.76 1890.19,1262.13 1885.41,1264.43 1880.56,1266.68 1875.65,1268.87 1870.68,1271 1865.67,1273.09 1860.62,1275.14 1855.54,1277.15 1850.42,1279.13 1845.28,1281.08 1840.13,1283 1834.95,1284.91 1829.77,1286.81 1824.58,1288.7 1819.39,1290.59 1814.21,1292.49 1809.04,1294.4 1803.88,1296.33 1798.73,1298.27 1793.58,1300.22 1788.44,1302.16 1783.28,1304.09 1778.12,1306.02 1772.94,1307.92 1767.75,1309.81 1762.54,1311.67 1757.3,1313.5 1752.05,1315.31 1746.77,1317.08 1741.47,1318.83 1736.15,1320.56 1730.81,1322.26 1725.45,1323.93 1720.08,1325.59 1714.69,1327.23 1709.29,1328.86 1703.89,1330.48 1698.49,1332.1 1693.1,1333.73 1687.7,1335.35 1682.24,1336.88 1676.74,1338.33 1671.2,1339.71 1665.63,1341.05 1660.03,1342.34 1654.42,1343.61 1648.8,1344.87 1643.17,1346.11 1637.54,1347.35 1631.91,1348.59 1626.29,1349.84 1620.67,1351.1 1615.05,1352.36 1609.44,1353.64 1603.84,1354.92 1598.24,1356.21 1592.64,1357.5 1587.04,1358.78 1581.42,1360.04 1575.77,1361.24 1570.1,1362.39 1564.41,1363.48 1558.69,1364.52 1552.95,1365.51 1547.19,1366.46 1541.42,1367.36 1535.63,1368.21 1529.83,1369.02 1524.02,1369.8 1518.19,1370.53 1512.36,1371.24 1506.52,1371.91 1500.67,1372.55 1494.82,1373.18 1488.96,1373.78 1483.09,1374.36 1477.23,1374.94 1471.36,1375.5 1465.49,1376.06 1459.63,1376.61 1453.76,1377.18 1447.89,1377.74 1442.02,1378.3 1436.14,1378.84 1430.27,1379.37 1424.38,1379.88 1418.5,1380.36 1412.61,1380.81 1406.71,1381.23 1400.82,1381.63 1394.91,1381.99 1389.01,1382.32 1383.1,1382.61 1377.19,1382.87 1371.27,1383.1 1365.35,1383.3 1359.43,1383.47 1353.51,1383.62 1347.58,1383.73 1341.66,1383.83 1335.73,1383.91 1329.8,1383.97 1323.86,1384.03 1317.93,1384.08 1312,1384.13 1306.07,1384.19 1300.14,1384.24 1294.21,1384.19 1288.29,1384.06 1282.37,1383.86 1276.45,1383.61 1270.54,1383.31 1264.63,1382.98 1258.71,1382.62 1252.8,1382.25 1246.89,1381.86 1240.98,1381.48 1235.06,1381.1 1229.15,1380.73 1223.24,1380.36 1217.33,1380 1211.41,1379.65 1205.5,1379.31 1199.59,1378.97 1193.67,1378.64 1187.76,1378.3 1181.85,1377.94 1175.94,1377.54 1170.04,1377.11 1164.14,1376.62 1158.26,1376.1 1152.39,1375.52 1146.54,1374.89 1140.7,1374.2 1134.88,1373.47 1129.08,1372.68 1123.29,1371.83 1117.52,1370.94 1111.78,1370 1106.04,1369.01 1100.33,1367.99 1094.62,1366.92 1088.93,1365.82 1083.26,1364.7 1077.59,1363.55 1071.92,1362.39 1066.26,1361.23 1060.59,1360.06 1054.93,1358.91 1049.29,1357.71 1043.72,1356.41 1038.19,1355.05 1032.68,1353.65 1027.17,1352.24 1021.65,1350.86 1016.1,1349.5 1010.52,1348.21 1004.9,1346.97 999.224,1345.8 993.504,1344.71 987.736,1343.69 981.924,1342.73 976.073,1341.83 970.194,1340.97 964.297,1340.14 958.397,1339.31 952.512,1338.45 946.659,1337.54 940.863,1336.54 935.149,1335.42 929.543,1334.12 924.077,1332.61 918.67,1331 913.245,1329.41 907.814,1327.84 902.387,1326.25 896.971,1324.66 891.576,1323.03 886.205,1321.38 880.863,1319.68 875.551,1317.95 870.271,1316.17 865.022,1314.35 859.801,1312.5 854.603,1310.61 849.424,1308.71 844.255,1306.78 839.087,1304.86 833.911,1302.94 828.703,1301.06 823.467,1299.21 818.215,1297.38 812.956,1295.55 807.703,1293.72 802.463,1291.87 797.243,1290 792.052,1288.1 786.894,1286.17 781.774,1284.2 776.695,1282.19 771.658,1280.14 766.664,1278.04 761.714,1275.9 756.806,1273.72 751.936,1271.5 747.102,1269.24 742.299,1266.95 737.52,1264.64 732.757,1262.31 728.004,1259.97 723.25,1257.63 718.485,1255.31 713.728,1252.98 709.053,1250.58 704.451,1248.12 699.909,1245.61 695.415,1243.06 690.96,1240.48 686.534,1237.88 682.128,1235.26 677.735,1232.63 673.35,1229.99 668.967,1227.36 664.581,1224.72 660.19,1222.09 655.793,1219.46 651.387,1216.84 646.973,1214.23 642.553,1211.62 638.129,1209.01 633.704,1206.41 629.283,1203.8 624.927,1201.16 620.718,1198.43 616.618,1195.63 612.595,1192.79 608.616,1189.92 604.656,1187.04 600.691,1184.15 596.703,1181.27 592.676,1178.41 588.6,1175.58 584.466,1172.76 580.271,1169.98 576.016,1167.23 571.705,1164.51 567.345,1161.81 562.949,1159.13 558.533,1156.46 554.115,1153.79 549.719,1151.11 545.373,1148.4 541.108,1145.64 536.959,1142.83 532.965,1139.94 529.167,1136.94 525.552,1133.84 521.965,1130.73 518.402,1127.61 514.87,1124.47 511.375,1121.32 507.921,1118.14 504.512,1114.95 501.147,1111.73 497.829,1108.49 494.556,1105.24 491.325,1101.96 488.133,1098.67 484.975,1095.37 481.845,1092.05 478.734,1088.72 475.634,1085.39 472.535,1082.06 469.425,1078.74 466.335,1075.4 463.281,1072.05 460.27,1068.68 457.303,1065.29 454.386,1061.88 451.52,1058.45 448.707,1055.01 445.949,1051.54 443.247,1048.06 440.6,1044.57 438.008,1041.05 435.471,1037.52 432.986,1033.97 430.551,1030.41 428.164,1026.84 425.821,1023.25 423.519,1019.66 421.251,1016.05 419.014,1012.43 416.801,1008.81 414.606,1005.18 412.422,1001.55 410.242,997.923 408.056,994.294 405.857,990.668 403.774,987.024 401.884,983.347 400.132,979.645 398.465,975.929 396.838,972.204 395.211,968.478 393.549,964.755 391.822,961.042 390.005,957.341 388.08,953.656 386.032,949.989 383.855,946.342 381.544,942.714 379.102,939.106 376.536,935.516 373.861,931.943 371.093,928.383 368.258,924.832 365.383,921.286 362.504,917.74 359.66,914.186 356.896,910.618 354.263,907.027 351.817,903.405 349.618,899.741 347.734,896.025 346.223,892.248 344.8,888.455 343.341,884.667 341.868,880.88 340.401,877.093 338.956,873.302 337.548,869.507 336.187,865.706 334.882,861.898 333.64,858.081 332.463,854.256 331.352,850.423 330.303,846.581 329.313,842.732 328.373,838.877 327.472,835.016 326.597,831.152 325.733,827.287 324.859,823.422 323.973,819.56 323.14,815.692 322.37,811.819 321.66,807.94 321.008,804.056 320.412,800.169 319.871,796.277 319.383,792.383 318.945,788.486 318.556,784.587 318.212,780.686 317.911,776.784 317.651,772.88 317.429,768.976 317.242,765.071 317.086,761.165 316.96,757.259 316.859,753.353 316.78,749.447 316.72,745.541 316.676,741.636 316.643,737.73 316.617,733.825 316.595,729.919 316.573,726.013 316.546,722.108 316.517,718.201 316.512,714.293 316.537,710.385 316.595,706.475 316.689,702.566 316.823,698.658 316.999,694.751 317.219,690.845 317.485,686.941 317.798,683.04 318.16,679.14 318.57,675.244 319.029,671.35 319.538,667.459 320.094,663.572 320.699,659.687 321.35,655.806 322.045,651.928 322.783,648.053 323.562,644.181 324.378,640.312 325.228,636.445 326.11,632.581 327.018,628.719 327.949,624.859 328.898,621.001 329.861,617.143 330.831,613.286 331.803,609.43 332.772,605.572 333.729,601.714 334.686,597.856 335.7,594.003 336.779,590.157 337.922,586.32 339.13,582.49 340.402,578.67 341.738,574.86 343.138,571.06 344.601,567.271 346.125,563.493 347.709,559.726 349.353,555.971 351.054,552.227 352.811,548.495 354.622,544.774 356.483,541.065 358.394,537.366 360.351,533.678 362.35,530 364.39,526.331 366.467,522.671 368.577,519.02 370.717,515.376 372.882,511.738 375.069,508.105 377.272,504.477 379.488,500.852 381.711,497.23 383.937,493.607 386.161,489.984 388.376,486.358 390.539,482.716 392.648,479.057 394.73,475.39 396.808,471.72 398.901,468.057 401.03,464.404 403.208,460.767 405.449,457.149 407.762,453.555 410.154,449.985 412.63,446.443 415.19,442.927 417.835,439.438 420.56,435.974 423.359,432.534 426.221,429.114 429.135,425.71 432.087,422.318 435.058,418.933 438.029,415.547 440.976,412.153 443.863,408.737 446.685,405.291 449.469,401.828 452.241,398.361 455.024,394.898 457.838,391.449 460.702,388.021 463.628,384.622 466.628,381.256 469.712,377.927 472.884,374.637 476.148,371.389 479.505,368.181 482.951,365.014 486.48,361.883 490.085,358.786 493.753,355.718 497.472,352.671 501.223,349.64 504.988,346.614 508.742,343.584 512.462,340.538 516.136,337.467 519.78,334.379 523.407,331.281 527.032,328.182 530.667,325.088 534.321,322.006 538.003,318.94 541.721,315.895 545.481,312.875 549.286,309.881 553.14,306.915 557.043,303.979 560.997,301.072 564.998,298.192 569.044,295.339 573.131,292.51 577.251,289.7 581.397,286.905 585.56,284.121 589.729,281.34 593.892,278.555 598.036,275.758 602.144,272.938 606.223,270.097 610.287,267.245 614.346,264.389 618.409,261.537 622.485,258.693 626.582,255.865 630.706,253.056 634.863,250.27 639.057,247.51 643.29,244.779 647.567,242.078 651.887,239.408 656.25,236.769 660.656,234.16 665.102,231.581 669.586,229.027 674.103,226.497 678.647,223.987 683.212,221.491 687.792,219.006 692.376,216.524 696.956,214.039 701.521,211.543 706.106,209.066 710.749,206.639 715.448,204.26 720.198,201.926 724.996,199.637 729.84,197.388 734.725,195.18 739.65,193.008 744.609,190.872 749.602,188.768 754.624,186.695 759.674,184.65 764.747,182.631 769.843,180.636 774.957,178.661 780.088,176.706 785.234,174.767 790.391,172.843 795.558,170.93 800.732,169.026 805.912,167.13 811.095,165.237 816.279,163.347 821.464,161.455 826.645,159.561 831.83,157.668 837.032,155.79 842.251,153.932 847.489,152.094 852.747,150.279 858.023,148.488 863.319,146.723 868.635,144.984 873.971,143.273 879.326,141.591 884.702,139.938 890.097,138.315 895.511,136.721 900.944,135.158 906.396,133.623 911.865,132.118 917.352,130.641 922.856,129.191 928.375,127.768 933.909,126.37 939.457,124.996 945.018,123.644 950.59,122.312 956.173,120.999 961.764,119.701 967.363,118.416 972.968,117.142 978.577,115.876 984.19,114.615 989.802,113.354 995.413,112.092 1001.02,110.824 1006.63,109.552 1012.26,108.321 1017.91,107.141 1023.58,106.012 1029.28,104.931 1035,103.9 1040.74,102.916 1046.49,101.978 1052.26,101.084 1058.04,100.234 1063.84,99.4247 1069.65,98.654 1075.47,97.9196 1081.3,97.2186 1087.14,96.5484 1092.98,95.9058 1098.84,95.2874 1104.69,94.6896 1110.55,94.1087 1116.41,93.5407 1122.28,92.9813 1128.15,92.426 1134.01,91.8701 1139.88,91.3089 1145.74,90.7402 1151.6,90.1709 1157.46,89.6015 1163.33,89.0323 1169.19,88.463 1175.05,87.8936 1180.92,87.3243 1186.78,86.755 1192.64,86.1857 "/>
<path clip-path="url(#clip610)" d="M1859.76 248.629 L2282.9 248.629 L2282.9 93.1086 L1859.76 93.1086  Z" fill="#ffffff" fill-rule="evenodd" fill-opacity="1"/>
<polyline clip-path="url(#clip610)" style="stroke:#000000; stroke-linecap:round; stroke-linejoin:round; stroke-width:4; stroke-opacity:1; fill:none" points="1859.76,248.629 2282.9,248.629 2282.9,93.1086 1859.76,93.1086 1859.76,248.629 "/>
<polyline clip-path="url(#clip610)" style="stroke:#009af9; stroke-linecap:round; stroke-linejoin:round; stroke-width:16; stroke-opacity:1; fill:none" points="1883.05,144.949 2022.75,144.949 "/>
<path clip-path="url(#clip610)" d="M2062.05 130.84 Q2056.96 130.84 2053.95 134.636 Q2050.96 138.432 2050.96 144.983 Q2050.96 151.511 2053.95 155.307 Q2056.96 159.104 2062.05 159.104 Q2067.14 159.104 2070.11 155.307 Q2073.09 151.511 2073.09 144.983 Q2073.09 138.432 2070.11 134.636 Q2067.14 130.84 2062.05 130.84 M2062.05 127.044 Q2069.32 127.044 2073.67 131.928 Q2078.02 136.789 2078.02 144.983 Q2078.02 153.155 2073.67 158.039 Q2069.32 162.9 2062.05 162.9 Q2054.76 162.9 2050.39 158.039 Q2046.03 153.178 2046.03 144.983 Q2046.03 136.789 2050.39 131.928 Q2054.76 127.044 2062.05 127.044 Z" fill="#000000" fill-rule="nonzero" fill-opacity="1" /><path clip-path="url(#clip610)" d="M2100.18 140.284 Q2099.46 139.868 2098.6 139.682 Q2097.77 139.474 2096.75 139.474 Q2093.14 139.474 2091.2 141.835 Q2089.27 144.173 2089.27 148.571 L2089.27 162.229 L2084.99 162.229 L2084.99 136.303 L2089.27 136.303 L2089.27 140.331 Q2090.62 137.969 2092.77 136.835 Q2094.92 135.678 2098 135.678 Q2098.44 135.678 2098.97 135.747 Q2099.51 135.794 2100.15 135.909 L2100.18 140.284 Z" fill="#000000" fill-rule="nonzero" fill-opacity="1" /><path clip-path="url(#clip610)" d="M2104.64 136.303 L2108.9 136.303 L2108.9 162.229 L2104.64 162.229 L2104.64 136.303 M2104.64 126.21 L2108.9 126.21 L2108.9 131.604 L2104.64 131.604 L2104.64 126.21 Z" fill="#000000" fill-rule="nonzero" fill-opacity="1" /><path clip-path="url(#clip610)" d="M2134.88 148.965 Q2134.88 144.335 2132.95 141.789 Q2131.06 139.243 2127.61 139.243 Q2124.18 139.243 2122.26 141.789 Q2120.36 144.335 2120.36 148.965 Q2120.36 153.571 2122.26 156.118 Q2124.18 158.664 2127.61 158.664 Q2131.06 158.664 2132.95 156.118 Q2134.88 153.571 2134.88 148.965 M2139.13 159.011 Q2139.13 165.631 2136.2 168.849 Q2133.26 172.09 2127.19 172.09 Q2124.95 172.09 2122.95 171.742 Q2120.96 171.418 2119.09 170.724 L2119.09 166.58 Q2120.96 167.599 2122.79 168.085 Q2124.62 168.571 2126.52 168.571 Q2130.71 168.571 2132.79 166.372 Q2134.88 164.196 2134.88 159.775 L2134.88 157.668 Q2133.56 159.96 2131.5 161.094 Q2129.44 162.229 2126.57 162.229 Q2121.8 162.229 2118.88 158.594 Q2115.96 154.96 2115.96 148.965 Q2115.96 142.946 2118.88 139.312 Q2121.8 135.678 2126.57 135.678 Q2129.44 135.678 2131.5 136.812 Q2133.56 137.946 2134.88 140.238 L2134.88 136.303 L2139.13 136.303 L2139.13 159.011 Z" fill="#000000" fill-rule="nonzero" fill-opacity="1" /><path clip-path="url(#clip610)" d="M2147.91 136.303 L2152.17 136.303 L2152.17 162.229 L2147.91 162.229 L2147.91 136.303 M2147.91 126.21 L2152.17 126.21 L2152.17 131.604 L2147.91 131.604 L2147.91 126.21 Z" fill="#000000" fill-rule="nonzero" fill-opacity="1" /><path clip-path="url(#clip610)" d="M2182.63 146.581 L2182.63 162.229 L2178.37 162.229 L2178.37 146.719 Q2178.37 143.039 2176.94 141.21 Q2175.5 139.382 2172.63 139.382 Q2169.18 139.382 2167.19 141.581 Q2165.2 143.78 2165.2 147.576 L2165.2 162.229 L2160.92 162.229 L2160.92 136.303 L2165.2 136.303 L2165.2 140.331 Q2166.73 137.993 2168.79 136.835 Q2170.87 135.678 2173.58 135.678 Q2178.05 135.678 2180.34 138.456 Q2182.63 141.21 2182.63 146.581 Z" fill="#000000" fill-rule="nonzero" fill-opacity="1" /><path clip-path="url(#clip610)" d="M2202.91 149.196 Q2197.75 149.196 2195.75 150.377 Q2193.76 151.557 2193.76 154.405 Q2193.76 156.673 2195.25 158.016 Q2196.75 159.335 2199.32 159.335 Q2202.86 159.335 2204.99 156.835 Q2207.14 154.312 2207.14 150.145 L2207.14 149.196 L2202.91 149.196 M2211.4 147.437 L2211.4 162.229 L2207.14 162.229 L2207.14 158.293 Q2205.69 160.655 2203.51 161.789 Q2201.33 162.9 2198.19 162.9 Q2194.2 162.9 2191.84 160.678 Q2189.5 158.432 2189.5 154.682 Q2189.5 150.307 2192.42 148.085 Q2195.36 145.863 2201.17 145.863 L2207.14 145.863 L2207.14 145.446 Q2207.14 142.507 2205.2 140.909 Q2203.28 139.289 2199.78 139.289 Q2197.56 139.289 2195.45 139.821 Q2193.35 140.354 2191.4 141.419 L2191.4 137.483 Q2193.74 136.581 2195.94 136.141 Q2198.14 135.678 2200.22 135.678 Q2205.85 135.678 2208.63 138.594 Q2211.4 141.511 2211.4 147.437 Z" fill="#000000" fill-rule="nonzero" fill-opacity="1" /><path clip-path="url(#clip610)" d="M2220.18 126.21 L2224.44 126.21 L2224.44 162.229 L2220.18 162.229 L2220.18 126.21 Z" fill="#000000" fill-rule="nonzero" fill-opacity="1" /><polyline clip-path="url(#clip610)" style="stroke:#e26f46; stroke-linecap:round; stroke-linejoin:round; stroke-width:16; stroke-opacity:1; fill:none" points="1883.05,196.789 2022.75,196.789 "/>
<path clip-path="url(#clip610)" d="M2050.71 183.351 L2050.71 196.337 L2056.59 196.337 Q2059.85 196.337 2061.64 194.647 Q2063.42 192.958 2063.42 189.833 Q2063.42 186.731 2061.64 185.041 Q2059.85 183.351 2056.59 183.351 L2050.71 183.351 M2046.03 179.509 L2056.59 179.509 Q2062.4 179.509 2065.36 182.147 Q2068.35 184.763 2068.35 189.833 Q2068.35 194.948 2065.36 197.564 Q2062.4 200.18 2056.59 200.18 L2050.71 200.18 L2050.71 214.069 L2046.03 214.069 L2046.03 179.509 Z" fill="#000000" fill-rule="nonzero" fill-opacity="1" /><path clip-path="url(#clip610)" d="M2088.63 192.124 Q2087.91 191.708 2087.05 191.522 Q2086.22 191.314 2085.2 191.314 Q2081.59 191.314 2079.64 193.675 Q2077.72 196.013 2077.72 200.411 L2077.72 214.069 L2073.44 214.069 L2073.44 188.143 L2077.72 188.143 L2077.72 192.171 Q2079.07 189.809 2081.22 188.675 Q2083.37 187.518 2086.45 187.518 Q2086.89 187.518 2087.42 187.587 Q2087.95 187.634 2088.6 187.749 L2088.63 192.124 Z" fill="#000000" fill-rule="nonzero" fill-opacity="1" /><path clip-path="url(#clip610)" d="M2114.23 200.041 L2114.23 202.124 L2094.64 202.124 Q2094.92 206.522 2097.28 208.837 Q2099.67 211.129 2103.9 211.129 Q2106.36 211.129 2108.65 210.527 Q2110.96 209.925 2113.23 208.721 L2113.23 212.749 Q2110.94 213.721 2108.53 214.231 Q2106.13 214.74 2103.65 214.74 Q2097.45 214.74 2093.81 211.129 Q2090.2 207.518 2090.2 201.36 Q2090.2 194.995 2093.63 191.268 Q2097.07 187.518 2102.91 187.518 Q2108.14 187.518 2111.17 190.897 Q2114.23 194.254 2114.23 200.041 M2109.97 198.791 Q2109.92 195.296 2108 193.212 Q2106.1 191.129 2102.95 191.129 Q2099.39 191.129 2097.24 193.143 Q2095.11 195.157 2094.78 198.814 L2109.97 198.791 Z" fill="#000000" fill-rule="nonzero" fill-opacity="1" /><path clip-path="url(#clip610)" d="M2138.28 192.078 L2138.28 178.05 L2142.54 178.05 L2142.54 214.069 L2138.28 214.069 L2138.28 210.18 Q2136.94 212.495 2134.88 213.629 Q2132.84 214.74 2129.97 214.74 Q2125.27 214.74 2122.31 210.99 Q2119.37 207.24 2119.37 201.129 Q2119.37 195.018 2122.31 191.268 Q2125.27 187.518 2129.97 187.518 Q2132.84 187.518 2134.88 188.652 Q2136.94 189.763 2138.28 192.078 M2123.76 201.129 Q2123.76 205.828 2125.69 208.513 Q2127.63 211.175 2131.01 211.175 Q2134.39 211.175 2136.33 208.513 Q2138.28 205.828 2138.28 201.129 Q2138.28 196.43 2136.33 193.768 Q2134.39 191.083 2131.01 191.083 Q2127.63 191.083 2125.69 193.768 Q2123.76 196.43 2123.76 201.129 Z" fill="#000000" fill-rule="nonzero" fill-opacity="1" /><path clip-path="url(#clip610)" d="M2151.31 188.143 L2155.57 188.143 L2155.57 214.069 L2151.31 214.069 L2151.31 188.143 M2151.31 178.05 L2155.57 178.05 L2155.57 183.444 L2151.31 183.444 L2151.31 178.05 Z" fill="#000000" fill-rule="nonzero" fill-opacity="1" /><path clip-path="url(#clip610)" d="M2183.14 189.138 L2183.14 193.12 Q2181.33 192.124 2179.5 191.638 Q2177.7 191.129 2175.85 191.129 Q2171.7 191.129 2169.41 193.768 Q2167.12 196.384 2167.12 201.129 Q2167.12 205.874 2169.41 208.513 Q2171.7 211.129 2175.85 211.129 Q2177.7 211.129 2179.5 210.643 Q2181.33 210.133 2183.14 209.138 L2183.14 213.073 Q2181.36 213.907 2179.44 214.323 Q2177.54 214.74 2175.38 214.74 Q2169.53 214.74 2166.08 211.059 Q2162.63 207.379 2162.63 201.129 Q2162.63 194.786 2166.1 191.152 Q2169.6 187.518 2175.66 187.518 Q2177.63 187.518 2179.5 187.935 Q2181.38 188.328 2183.14 189.138 Z" fill="#000000" fill-rule="nonzero" fill-opacity="1" /><path clip-path="url(#clip610)" d="M2194.76 180.782 L2194.76 188.143 L2203.53 188.143 L2203.53 191.453 L2194.76 191.453 L2194.76 205.527 Q2194.76 208.698 2195.62 209.601 Q2196.5 210.504 2199.16 210.504 L2203.53 210.504 L2203.53 214.069 L2199.16 214.069 Q2194.23 214.069 2192.35 212.24 Q2190.48 210.388 2190.48 205.527 L2190.48 191.453 L2187.35 191.453 L2187.35 188.143 L2190.48 188.143 L2190.48 180.782 L2194.76 180.782 Z" fill="#000000" fill-rule="nonzero" fill-opacity="1" /><path clip-path="url(#clip610)" d="M2231.31 200.041 L2231.31 202.124 L2211.73 202.124 Q2212 206.522 2214.37 208.837 Q2216.75 211.129 2220.99 211.129 Q2223.44 211.129 2225.73 210.527 Q2228.05 209.925 2230.31 208.721 L2230.31 212.749 Q2228.02 213.721 2225.62 214.231 Q2223.21 214.74 2220.73 214.74 Q2214.53 214.74 2210.89 211.129 Q2207.28 207.518 2207.28 201.36 Q2207.28 194.995 2210.71 191.268 Q2214.16 187.518 2219.99 187.518 Q2225.22 187.518 2228.25 190.897 Q2231.31 194.254 2231.31 200.041 M2227.05 198.791 Q2227 195.296 2225.08 193.212 Q2223.19 191.129 2220.04 191.129 Q2216.47 191.129 2214.32 193.143 Q2212.19 195.157 2211.87 198.814 L2227.05 198.791 Z" fill="#000000" fill-rule="nonzero" fill-opacity="1" /><path clip-path="url(#clip610)" d="M2255.36 192.078 L2255.36 178.05 L2259.62 178.05 L2259.62 214.069 L2255.36 214.069 L2255.36 210.18 Q2254.02 212.495 2251.96 213.629 Q2249.92 214.74 2247.05 214.74 Q2242.35 214.74 2239.39 210.99 Q2236.45 207.24 2236.45 201.129 Q2236.45 195.018 2239.39 191.268 Q2242.35 187.518 2247.05 187.518 Q2249.92 187.518 2251.96 188.652 Q2254.02 189.763 2255.36 192.078 M2240.85 201.129 Q2240.85 205.828 2242.77 208.513 Q2244.71 211.175 2248.09 211.175 Q2251.47 211.175 2253.42 208.513 Q2255.36 205.828 2255.36 201.129 Q2255.36 196.43 2253.42 193.768 Q2251.47 191.083 2248.09 191.083 Q2244.71 191.083 2242.77 193.768 Q2240.85 196.43 2240.85 201.129 Z" fill="#000000" fill-rule="nonzero" fill-opacity="1" /></svg>
