<?xml version="1.0" encoding="utf-8"?>
<svg xmlns="http://www.w3.org/2000/svg" xmlns:xlink="http://www.w3.org/1999/xlink" width="600" height="400" viewBox="0 0 2400 1600">
<defs>
  <clipPath id="clip630">
    <rect x="0" y="0" width="2400" height="1600"/>
  </clipPath>
</defs>
<path clip-path="url(#clip630)" d="M0 1600 L2400 1600 L2400 0 L0 0  Z" fill="#ffffff" fill-rule="evenodd" fill-opacity="1"/>
<defs>
  <clipPath id="clip631">
    <rect x="480" y="0" width="1681" height="1600"/>
  </clipPath>
</defs>
<path clip-path="url(#clip630)" d="M178.867 1486.45 L2352.76 1486.45 L2352.76 47.2441 L178.867 47.2441  Z" fill="#ffffff" fill-rule="evenodd" fill-opacity="1"/>
<defs>
  <clipPath id="clip632">
    <rect x="178" y="47" width="2175" height="1440"/>
  </clipPath>
</defs>
<polyline clip-path="url(#clip632)" style="stroke:#000000; stroke-linecap:round; stroke-linejoin:round; stroke-width:2; stroke-opacity:0.1; fill:none" points="240.392,1486.45 240.392,47.2441 "/>
<polyline clip-path="url(#clip632)" style="stroke:#000000; stroke-linecap:round; stroke-linejoin:round; stroke-width:2; stroke-opacity:0.1; fill:none" points="924.005,1486.45 924.005,47.2441 "/>
<polyline clip-path="url(#clip632)" style="stroke:#000000; stroke-linecap:round; stroke-linejoin:round; stroke-width:2; stroke-opacity:0.1; fill:none" points="1607.62,1486.45 1607.62,47.2441 "/>
<polyline clip-path="url(#clip632)" style="stroke:#000000; stroke-linecap:round; stroke-linejoin:round; stroke-width:2; stroke-opacity:0.1; fill:none" points="2291.23,1486.45 2291.23,47.2441 "/>
<polyline clip-path="url(#clip630)" style="stroke:#000000; stroke-linecap:round; stroke-linejoin:round; stroke-width:4; stroke-opacity:1; fill:none" points="178.867,1486.45 2352.76,1486.45 "/>
<polyline clip-path="url(#clip630)" style="stroke:#000000; stroke-linecap:round; stroke-linejoin:round; stroke-width:4; stroke-opacity:1; fill:none" points="240.392,1486.45 240.392,1467.55 "/>
<polyline clip-path="url(#clip630)" style="stroke:#000000; stroke-linecap:round; stroke-linejoin:round; stroke-width:4; stroke-opacity:1; fill:none" points="924.005,1486.45 924.005,1467.55 "/>
<polyline clip-path="url(#clip630)" style="stroke:#000000; stroke-linecap:round; stroke-linejoin:round; stroke-width:4; stroke-opacity:1; fill:none" points="1607.62,1486.45 1607.62,1467.55 "/>
<polyline clip-path="url(#clip630)" style="stroke:#000000; stroke-linecap:round; stroke-linejoin:round; stroke-width:4; stroke-opacity:1; fill:none" points="2291.23,1486.45 2291.23,1467.55 "/>
<path clip-path="url(#clip630)" d="M217.776 1517.37 Q214.165 1517.37 212.336 1520.93 Q210.531 1524.47 210.531 1531.6 Q210.531 1538.71 212.336 1542.27 Q214.165 1545.82 217.776 1545.82 Q221.41 1545.82 223.216 1542.27 Q225.045 1538.71 225.045 1531.6 Q225.045 1524.47 223.216 1520.93 Q221.41 1517.37 217.776 1517.37 M217.776 1513.66 Q223.586 1513.66 226.642 1518.27 Q229.721 1522.85 229.721 1531.6 Q229.721 1540.33 226.642 1544.94 Q223.586 1549.52 217.776 1549.52 Q211.966 1549.52 208.887 1544.94 Q205.832 1540.33 205.832 1531.6 Q205.832 1522.85 208.887 1518.27 Q211.966 1513.66 217.776 1513.66 Z" fill="#000000" fill-rule="nonzero" fill-opacity="1" /><path clip-path="url(#clip630)" d="M237.938 1542.97 L242.822 1542.97 L242.822 1548.85 L237.938 1548.85 L237.938 1542.97 Z" fill="#000000" fill-rule="nonzero" fill-opacity="1" /><path clip-path="url(#clip630)" d="M263.007 1517.37 Q259.396 1517.37 257.568 1520.93 Q255.762 1524.47 255.762 1531.6 Q255.762 1538.71 257.568 1542.27 Q259.396 1545.82 263.007 1545.82 Q266.642 1545.82 268.447 1542.27 Q270.276 1538.71 270.276 1531.6 Q270.276 1524.47 268.447 1520.93 Q266.642 1517.37 263.007 1517.37 M263.007 1513.66 Q268.818 1513.66 271.873 1518.27 Q274.952 1522.85 274.952 1531.6 Q274.952 1540.33 271.873 1544.94 Q268.818 1549.52 263.007 1549.52 Q257.197 1549.52 254.119 1544.94 Q251.063 1540.33 251.063 1531.6 Q251.063 1522.85 254.119 1518.27 Q257.197 1513.66 263.007 1513.66 Z" fill="#000000" fill-rule="nonzero" fill-opacity="1" /><path clip-path="url(#clip630)" d="M901.887 1517.37 Q898.276 1517.37 896.447 1520.93 Q894.642 1524.47 894.642 1531.6 Q894.642 1538.71 896.447 1542.27 Q898.276 1545.82 901.887 1545.82 Q905.521 1545.82 907.327 1542.27 Q909.155 1538.71 909.155 1531.6 Q909.155 1524.47 907.327 1520.93 Q905.521 1517.37 901.887 1517.37 M901.887 1513.66 Q907.697 1513.66 910.753 1518.27 Q913.831 1522.85 913.831 1531.6 Q913.831 1540.33 910.753 1544.94 Q907.697 1549.52 901.887 1549.52 Q896.077 1549.52 892.998 1544.94 Q889.942 1540.33 889.942 1531.6 Q889.942 1522.85 892.998 1518.27 Q896.077 1513.66 901.887 1513.66 Z" fill="#000000" fill-rule="nonzero" fill-opacity="1" /><path clip-path="url(#clip630)" d="M922.049 1542.97 L926.933 1542.97 L926.933 1548.85 L922.049 1548.85 L922.049 1542.97 Z" fill="#000000" fill-rule="nonzero" fill-opacity="1" /><path clip-path="url(#clip630)" d="M937.164 1514.29 L955.521 1514.29 L955.521 1518.22 L941.447 1518.22 L941.447 1526.7 Q942.465 1526.35 943.484 1526.19 Q944.502 1526 945.521 1526 Q951.308 1526 954.687 1529.17 Q958.067 1532.34 958.067 1537.76 Q958.067 1543.34 954.595 1546.44 Q951.123 1549.52 944.803 1549.52 Q942.627 1549.52 940.359 1549.15 Q938.114 1548.78 935.706 1548.04 L935.706 1543.34 Q937.789 1544.47 940.012 1545.03 Q942.234 1545.58 944.711 1545.58 Q948.715 1545.58 951.053 1543.48 Q953.391 1541.37 953.391 1537.76 Q953.391 1534.15 951.053 1532.04 Q948.715 1529.94 944.711 1529.94 Q942.836 1529.94 940.961 1530.35 Q939.109 1530.77 937.164 1531.65 L937.164 1514.29 Z" fill="#000000" fill-rule="nonzero" fill-opacity="1" /><path clip-path="url(#clip630)" d="M1574.77 1544.91 L1582.41 1544.91 L1582.41 1518.55 L1574.1 1520.21 L1574.1 1515.95 L1582.36 1514.29 L1587.04 1514.29 L1587.04 1544.91 L1594.68 1544.91 L1594.68 1548.85 L1574.77 1548.85 L1574.77 1544.91 Z" fill="#000000" fill-rule="nonzero" fill-opacity="1" /><path clip-path="url(#clip630)" d="M1604.12 1542.97 L1609.01 1542.97 L1609.01 1548.85 L1604.12 1548.85 L1604.12 1542.97 Z" fill="#000000" fill-rule="nonzero" fill-opacity="1" /><path clip-path="url(#clip630)" d="M1629.19 1517.37 Q1625.58 1517.37 1623.75 1520.93 Q1621.95 1524.47 1621.95 1531.6 Q1621.95 1538.71 1623.75 1542.27 Q1625.58 1545.82 1629.19 1545.82 Q1632.83 1545.82 1634.63 1542.27 Q1636.46 1538.71 1636.46 1531.6 Q1636.46 1524.47 1634.63 1520.93 Q1632.83 1517.37 1629.19 1517.37 M1629.19 1513.66 Q1635 1513.66 1638.06 1518.27 Q1641.14 1522.85 1641.14 1531.6 Q1641.14 1540.33 1638.06 1544.94 Q1635 1549.52 1629.19 1549.52 Q1623.38 1549.52 1620.3 1544.94 Q1617.25 1540.33 1617.25 1531.6 Q1617.25 1522.85 1620.3 1518.27 Q1623.38 1513.66 1629.19 1513.66 Z" fill="#000000" fill-rule="nonzero" fill-opacity="1" /><path clip-path="url(#clip630)" d="M2258.88 1544.91 L2266.52 1544.91 L2266.52 1518.55 L2258.21 1520.21 L2258.21 1515.95 L2266.47 1514.29 L2271.15 1514.29 L2271.15 1544.91 L2278.79 1544.91 L2278.79 1548.85 L2258.88 1548.85 L2258.88 1544.91 Z" fill="#000000" fill-rule="nonzero" fill-opacity="1" /><path clip-path="url(#clip630)" d="M2288.23 1542.97 L2293.12 1542.97 L2293.12 1548.85 L2288.23 1548.85 L2288.23 1542.97 Z" fill="#000000" fill-rule="nonzero" fill-opacity="1" /><path clip-path="url(#clip630)" d="M2303.35 1514.29 L2321.71 1514.29 L2321.71 1518.22 L2307.63 1518.22 L2307.63 1526.7 Q2308.65 1526.35 2309.67 1526.19 Q2310.69 1526 2311.71 1526 Q2317.49 1526 2320.87 1529.17 Q2324.25 1532.34 2324.25 1537.76 Q2324.25 1543.34 2320.78 1546.44 Q2317.31 1549.52 2310.99 1549.52 Q2308.81 1549.52 2306.54 1549.15 Q2304.3 1548.78 2301.89 1548.04 L2301.89 1543.34 Q2303.97 1544.47 2306.2 1545.03 Q2308.42 1545.58 2310.89 1545.58 Q2314.9 1545.58 2317.24 1543.48 Q2319.58 1541.37 2319.58 1537.76 Q2319.58 1534.15 2317.24 1532.04 Q2314.9 1529.94 2310.89 1529.94 Q2309.02 1529.94 2307.15 1530.35 Q2305.29 1530.77 2303.35 1531.65 L2303.35 1514.29 Z" fill="#000000" fill-rule="nonzero" fill-opacity="1" /><polyline clip-path="url(#clip632)" style="stroke:#000000; stroke-linecap:round; stroke-linejoin:round; stroke-width:2; stroke-opacity:0.1; fill:none" points="178.867,1435.01 2352.76,1435.01 "/>
<polyline clip-path="url(#clip632)" style="stroke:#000000; stroke-linecap:round; stroke-linejoin:round; stroke-width:2; stroke-opacity:0.1; fill:none" points="178.867,988.736 2352.76,988.736 "/>
<polyline clip-path="url(#clip632)" style="stroke:#000000; stroke-linecap:round; stroke-linejoin:round; stroke-width:2; stroke-opacity:0.1; fill:none" points="178.867,542.465 2352.76,542.465 "/>
<polyline clip-path="url(#clip632)" style="stroke:#000000; stroke-linecap:round; stroke-linejoin:round; stroke-width:2; stroke-opacity:0.1; fill:none" points="178.867,96.1938 2352.76,96.1938 "/>
<polyline clip-path="url(#clip630)" style="stroke:#000000; stroke-linecap:round; stroke-linejoin:round; stroke-width:4; stroke-opacity:1; fill:none" points="178.867,1486.45 178.867,47.2441 "/>
<polyline clip-path="url(#clip630)" style="stroke:#000000; stroke-linecap:round; stroke-linejoin:round; stroke-width:4; stroke-opacity:1; fill:none" points="178.867,1435.01 197.764,1435.01 "/>
<polyline clip-path="url(#clip630)" style="stroke:#000000; stroke-linecap:round; stroke-linejoin:round; stroke-width:4; stroke-opacity:1; fill:none" points="178.867,988.736 197.764,988.736 "/>
<polyline clip-path="url(#clip630)" style="stroke:#000000; stroke-linecap:round; stroke-linejoin:round; stroke-width:4; stroke-opacity:1; fill:none" points="178.867,542.465 197.764,542.465 "/>
<polyline clip-path="url(#clip630)" style="stroke:#000000; stroke-linecap:round; stroke-linejoin:round; stroke-width:4; stroke-opacity:1; fill:none" points="178.867,96.1938 197.764,96.1938 "/>
<path clip-path="url(#clip630)" d="M50.9921 1435.46 L80.6679 1435.46 L80.6679 1439.39 L50.9921 1439.39 L50.9921 1435.46 Z" fill="#000000" fill-rule="nonzero" fill-opacity="1" /><path clip-path="url(#clip630)" d="M91.5706 1448.35 L99.2095 1448.35 L99.2095 1421.99 L90.8993 1423.65 L90.8993 1419.39 L99.1632 1417.73 L103.839 1417.73 L103.839 1448.35 L111.478 1448.35 L111.478 1452.29 L91.5706 1452.29 L91.5706 1448.35 Z" fill="#000000" fill-rule="nonzero" fill-opacity="1" /><path clip-path="url(#clip630)" d="M130.922 1420.81 Q127.311 1420.81 125.482 1424.37 Q123.677 1427.91 123.677 1435.04 Q123.677 1442.15 125.482 1445.71 Q127.311 1449.26 130.922 1449.26 Q134.556 1449.26 136.362 1445.71 Q138.191 1442.15 138.191 1435.04 Q138.191 1427.91 136.362 1424.37 Q134.556 1420.81 130.922 1420.81 M130.922 1417.1 Q136.732 1417.1 139.788 1421.71 Q142.867 1426.29 142.867 1435.04 Q142.867 1443.77 139.788 1448.38 Q136.732 1452.96 130.922 1452.96 Q125.112 1452.96 122.033 1448.38 Q118.978 1443.77 118.978 1435.04 Q118.978 1426.29 122.033 1421.71 Q125.112 1417.1 130.922 1417.1 Z" fill="#000000" fill-rule="nonzero" fill-opacity="1" /><path clip-path="url(#clip630)" d="M130.922 974.535 Q127.311 974.535 125.482 978.1 Q123.677 981.641 123.677 988.771 Q123.677 995.877 125.482 999.442 Q127.311 1002.98 130.922 1002.98 Q134.556 1002.98 136.362 999.442 Q138.191 995.877 138.191 988.771 Q138.191 981.641 136.362 978.1 Q134.556 974.535 130.922 974.535 M130.922 970.831 Q136.732 970.831 139.788 975.438 Q142.867 980.021 142.867 988.771 Q142.867 997.498 139.788 1002.1 Q136.732 1006.69 130.922 1006.69 Q125.112 1006.69 122.033 1002.1 Q118.978 997.498 118.978 988.771 Q118.978 980.021 122.033 975.438 Q125.112 970.831 130.922 970.831 Z" fill="#000000" fill-rule="nonzero" fill-opacity="1" /><path clip-path="url(#clip630)" d="M91.5706 555.81 L99.2095 555.81 L99.2095 529.444 L90.8993 531.111 L90.8993 526.852 L99.1632 525.185 L103.839 525.185 L103.839 555.81 L111.478 555.81 L111.478 559.745 L91.5706 559.745 L91.5706 555.81 Z" fill="#000000" fill-rule="nonzero" fill-opacity="1" /><path clip-path="url(#clip630)" d="M130.922 528.264 Q127.311 528.264 125.482 531.828 Q123.677 535.37 123.677 542.5 Q123.677 549.606 125.482 553.171 Q127.311 556.713 130.922 556.713 Q134.556 556.713 136.362 553.171 Q138.191 549.606 138.191 542.5 Q138.191 535.37 136.362 531.828 Q134.556 528.264 130.922 528.264 M130.922 524.56 Q136.732 524.56 139.788 529.166 Q142.867 533.75 142.867 542.5 Q142.867 551.227 139.788 555.833 Q136.732 560.416 130.922 560.416 Q125.112 560.416 122.033 555.833 Q118.978 551.227 118.978 542.5 Q118.978 533.75 122.033 529.166 Q125.112 524.56 130.922 524.56 Z" fill="#000000" fill-rule="nonzero" fill-opacity="1" /><path clip-path="url(#clip630)" d="M94.7882 109.539 L111.108 109.539 L111.108 113.474 L89.1632 113.474 L89.1632 109.539 Q91.8252 106.784 96.4085 102.154 Q101.015 97.5017 102.196 96.1591 Q104.441 93.636 105.321 91.8999 Q106.223 90.1406 106.223 88.4508 Q106.223 85.6962 104.279 83.9601 Q102.358 82.224 99.2558 82.224 Q97.0567 82.224 94.603 82.9879 Q92.1725 83.7518 89.3947 85.3027 L89.3947 80.5805 Q92.2188 79.4462 94.6724 78.8675 Q97.1261 78.2888 99.1632 78.2888 Q104.534 78.2888 107.728 80.974 Q110.922 83.6592 110.922 88.1499 Q110.922 90.2795 110.112 92.2008 Q109.325 94.0989 107.219 96.6915 Q106.64 97.3628 103.538 100.58 Q100.436 103.775 94.7882 109.539 Z" fill="#000000" fill-rule="nonzero" fill-opacity="1" /><path clip-path="url(#clip630)" d="M130.922 81.9925 Q127.311 81.9925 125.482 85.5573 Q123.677 89.099 123.677 96.2286 Q123.677 103.335 125.482 106.9 Q127.311 110.441 130.922 110.441 Q134.556 110.441 136.362 106.9 Q138.191 103.335 138.191 96.2286 Q138.191 89.099 136.362 85.5573 Q134.556 81.9925 130.922 81.9925 M130.922 78.2888 Q136.732 78.2888 139.788 82.8953 Q142.867 87.4786 142.867 96.2286 Q142.867 104.955 139.788 109.562 Q136.732 114.145 130.922 114.145 Q125.112 114.145 122.033 109.562 Q118.978 104.955 118.978 96.2286 Q118.978 87.4786 122.033 82.8953 Q125.112 78.2888 130.922 78.2888 Z" fill="#000000" fill-rule="nonzero" fill-opacity="1" /><polyline clip-path="url(#clip632)" style="stroke:#009af9; stroke-linecap:round; stroke-linejoin:round; stroke-width:4; stroke-opacity:1; fill:none" points="240.392,951.945 247.251,970.955 254.11,989.898 260.969,1008.22 267.828,1025.91 274.687,1044.1 281.546,1062.56 288.405,1080.66 295.264,1098.35 302.123,1115.4 308.982,1131.84 315.841,1147.86 322.7,1163.8 329.559,1179.55 336.418,1194.93 343.277,1209.85 350.136,1224.27 356.995,1238.4 363.854,1252.09 370.713,1265.32 377.572,1278.2 384.431,1290.65 391.29,1302.64 398.149,1314.31 405.008,1325.55 411.867,1336.29 418.726,1346.52 425.585,1356.2 432.444,1365.35 439.303,1373.96 446.162,1382.07 453.021,1389.68 459.88,1396.81 466.739,1403.44 473.598,1409.57 480.457,1415.2 487.316,1420.33 494.175,1424.96 501.034,1429.1 507.893,1432.74 514.752,1435.91 521.611,1438.6 528.47,1440.82 535.328,1442.62 542.188,1443.99 549.046,1444.97 555.905,1445.56 562.764,1445.72 569.623,1445.44 576.482,1444.81 583.341,1443.85 590.2,1442.66 597.059,1441.34 603.918,1439.8 610.777,1437.8 617.636,1435.28 624.495,1432.23 631.354,1428.71 638.213,1424.7 645.072,1420.18 651.931,1415.19 658.79,1409.73 665.649,1403.84 672.508,1397.54 679.367,1390.89 686.226,1383.85 693.085,1376.44 699.944,1368.72 706.803,1360.78 713.662,1352.58 720.521,1344.11 727.38,1335.38 734.239,1326.39 741.098,1317.12 747.957,1307.67 754.816,1298.12 761.675,1288.5 768.534,1278.76 775.393,1268.96 782.252,1259.15 789.111,1249.31 795.97,1239.39 802.829,1229.44 809.688,1219.5 816.547,1209.55 823.406,1199.59 830.265,1189.66 837.124,1179.74 843.983,1169.82 850.842,1159.96 857.701,1150.19 864.56,1140.53 871.419,1130.92 878.278,1121.38 885.137,1112.01 891.996,1102.82 898.855,1093.79 905.714,1084.87 912.573,1076.11 919.432,1067.5 926.291,1059 933.15,1050.53 940.009,1042.15 946.868,1033.92 953.727,1025.83 960.586,1017.85 967.445,1009.95 974.304,1002.18 981.163,994.542 988.022,986.951 994.881,979.509 1001.74,972.231 1008.6,965.027 1015.46,957.922 1022.32,950.92 1029.18,943.94 1036.04,937 1042.89,930.169 1049.75,923.526 1056.61,917.031 1063.47,910.629 1070.33,904.213 1077.19,897.846 1084.05,891.591 1090.91,885.403 1097.77,879.3 1104.62,873.259 1111.48,867.239 1118.34,861.322 1125.2,855.555 1132.06,849.887 1138.92,844.342 1145.78,838.873 1152.64,833.457 1159.5,828.098 1166.36,822.775 1173.21,817.487 1180.07,812.249 1186.93,807.077 1193.79,801.98 1200.65,796.935 1207.51,791.96 1214.37,787.021 1221.23,782.119 1228.09,777.32 1234.95,772.617 1241.8,767.97 1248.66,763.418 1255.52,758.942 1262.38,754.536 1269.24,750.145 1276.1,745.774 1282.96,741.503 1289.82,737.392 1296.68,733.41 1303.54,729.546 1310.39,725.768 1317.25,721.984 1324.11,718.209 1330.97,714.53 1337.83,711.073 1344.69,707.859 1351.55,704.809 1358.41,701.875 1365.27,699.116 1372.13,696.542 1378.98,694.086 1385.84,691.812 1392.7,689.763 1399.56,687.874 1406.42,686.179 1413.28,684.756 1420.14,683.533 1427,682.499 1433.86,681.721 1440.72,681.201 1447.57,680.89 1454.43,680.74 1461.29,680.785 1468.15,681.088 1475.01,681.643 1481.87,682.44 1488.73,683.469 1495.59,684.687 1502.45,686.049 1509.31,687.621 1516.16,689.401 1523.02,691.368 1529.88,693.483 1536.74,695.782 1543.6,698.315 1550.46,700.955 1557.32,703.691 1564.18,706.603 1571.04,709.701 1577.9,712.984 1584.75,716.407 1591.61,719.98 1598.47,723.712 1605.33,727.6 1612.19,731.572 1619.05,735.616 1625.91,739.721 1632.77,743.877 1639.63,748.101 1646.49,752.416 1653.34,756.863 1660.2,761.422 1667.06,766.059 1673.92,770.744 1680.78,775.497 1687.64,780.34 1694.5,785.222 1701.36,790.084 1708.22,794.945 1715.08,799.818 1721.93,804.728 1728.79,809.72 1735.65,814.716 1742.51,819.704 1749.37,824.726 1756.23,829.798 1763.09,834.94 1769.95,840.088 1776.81,845.172 1783.67,850.262 1790.52,855.372 1797.38,860.535 1804.24,865.659 1811.1,870.705 1817.96,875.68 1824.82,880.627 1831.68,885.58 1838.54,890.558 1845.4,895.527 1852.26,900.418 1859.11,905.225 1865.97,909.974 1872.83,914.608 1879.69,919.086 1886.55,923.431 1893.41,927.663 1900.27,931.786 1907.13,935.758 1913.99,939.542 1920.85,943.228 1927.7,946.787 1934.56,950.255 1941.42,953.734 1948.28,957.123 1955.14,960.396 1962,963.589 1968.86,966.666 1975.72,969.605 1982.58,972.413 1989.44,975.128 1996.29,977.768 2003.15,980.295 2010.01,982.727 2016.87,985.047 2023.73,987.279 2030.59,989.428 2037.45,991.516 2044.31,993.536 2051.17,995.458 2058.02,997.267 2064.88,998.989 2071.74,1000.65 2078.6,1002.27 2085.46,1003.84 2092.32,1005.37 2099.18,1006.83 2106.04,1008.19 2112.9,1009.47 2119.76,1010.6 2126.61,1011.58 2133.47,1012.51 2140.33,1013.37 2147.19,1014.14 2154.05,1015.01 2160.91,1015.97 2167.77,1016.87 2174.63,1017.64 2181.49,1018.29 2188.35,1018.85 2195.2,1019.41 2202.06,1020.14 2208.92,1020.9 2215.78,1021.53 2222.64,1021.88 2229.5,1022.09 2236.36,1022.33 2243.22,1022.47 2250.08,1022.43 2256.94,1021.84 2263.79,1021.12 2270.65,1020.26 2277.51,1018.43 2284.37,1016.1 2291.23,1013.35 "/>
<polyline clip-path="url(#clip632)" style="stroke:#e26f46; stroke-linecap:round; stroke-linejoin:round; stroke-width:4; stroke-opacity:1; fill:none" points="240.392,87.9763 247.251,112.023 254.11,137.14 260.969,162.402 267.828,188.054 274.687,213.691 281.546,238.878 288.405,263.66 295.264,288.05 302.123,312.013 308.982,335.557 315.841,359.032 322.7,382.542 329.559,405.849 336.418,428.711 343.277,450.904 350.136,472.312 356.995,492.873 363.854,512.78 370.713,532.241 377.572,551.303 384.431,570.089 391.29,588.606 398.149,606.753 405.008,624.434 411.867,641.689 418.726,658.56 425.585,675.07 432.444,691.23 439.303,707.06 446.162,722.535 453.021,737.635 459.88,752.372 466.739,766.78 473.598,780.865 480.457,794.639 487.316,808.124 494.175,821.32 501.034,834.269 507.893,847.012 514.752,859.576 521.611,872.002 528.47,884.283 535.328,896.438 542.188,908.516 549.046,920.538 555.905,932.532 562.764,944.457 569.623,956.3 576.482,968.11 583.341,979.912 590.2,991.729 597.059,1003.63 603.918,1015.51 610.777,1027.24 617.636,1038.84 624.495,1050.24 631.354,1061.53 638.213,1072.69 645.072,1083.63 651.931,1094.33 658.79,1104.8 665.649,1115.02 672.508,1125.08 679.367,1134.97 686.226,1144.71 693.085,1154.36 699.944,1163.8 706.803,1173.01 713.662,1181.98 720.521,1190.71 727.38,1199.21 734.239,1207.46 741.098,1215.51 747.957,1223.4 754.816,1231.1 761.675,1238.68 768.534,1246.15 775.393,1253.46 782.252,1260.59 789.111,1267.61 795.97,1274.51 802.829,1281.26 809.688,1287.83 816.547,1294.2 823.406,1300.44 830.265,1306.53 837.124,1312.49 843.983,1318.3 850.842,1323.95 857.701,1329.42 864.56,1334.63 871.419,1339.63 878.278,1344.45 885.137,1348.92 891.996,1353.02 898.855,1356.77 905.714,1360.22 912.573,1363.37 919.432,1366.22 926.291,1368.74 933.15,1370.88 940.009,1372.72 946.868,1374.27 953.727,1375.5 960.586,1376.37 967.445,1376.88 974.304,1377.03 981.163,1376.79 988.022,1376.17 994.881,1375.2 1001.74,1373.87 1008.6,1372.14 1015.46,1370.04 1022.32,1367.6 1029.18,1364.82 1036.04,1361.74 1042.89,1358.38 1049.75,1354.72 1056.61,1350.76 1063.47,1346.48 1070.33,1341.87 1077.19,1336.86 1084.05,1331.52 1090.91,1325.92 1097.77,1320.07 1104.62,1314.04 1111.48,1307.9 1118.34,1301.67 1125.2,1295.26 1132.06,1288.64 1138.92,1281.85 1145.78,1274.89 1152.64,1267.84 1159.5,1260.72 1166.36,1253.57 1173.21,1246.42 1180.07,1239.18 1186.93,1231.87 1193.79,1224.59 1200.65,1217.35 1207.51,1210.09 1214.37,1202.88 1221.23,1195.73 1228.09,1188.58 1234.95,1181.44 1241.8,1174.28 1248.66,1167.2 1255.52,1160.26 1262.38,1153.37 1269.24,1146.54 1276.1,1139.78 1282.96,1133.05 1289.82,1126.42 1296.68,1119.91 1303.54,1113.46 1310.39,1107.08 1317.25,1100.76 1324.11,1094.53 1330.97,1088.46 1337.83,1082.45 1344.69,1076.49 1351.55,1070.6 1358.41,1064.79 1365.27,1059.06 1372.13,1053.44 1378.98,1047.94 1385.84,1042.55 1392.7,1037.24 1399.56,1031.99 1406.42,1026.78 1413.28,1021.57 1420.14,1016.49 1427,1011.53 1433.86,1006.64 1440.72,1001.83 1447.57,997.106 1454.43,992.539 1461.29,988.088 1468.15,983.677 1475.01,979.317 1481.87,975.018 1488.73,970.766 1495.59,966.575 1502.45,962.445 1509.31,958.304 1516.16,954.117 1523.02,949.934 1529.88,945.764 1536.74,941.592 1543.6,937.377 1550.46,933.166 1557.32,928.991 1564.18,924.856 1571.04,920.764 1577.9,916.638 1584.75,912.483 1591.61,908.364 1598.47,904.216 1605.33,900.008 1612.19,895.821 1619.05,891.653 1625.91,887.452 1632.77,883.189 1639.63,878.96 1646.49,874.772 1653.34,870.633 1660.2,866.46 1667.06,862.229 1673.92,857.978 1680.78,853.711 1687.64,849.438 1694.5,845.183 1701.36,840.928 1708.22,836.701 1715.08,832.523 1721.93,828.344 1728.79,824.243 1735.65,820.251 1742.51,816.276 1749.37,812.293 1756.23,808.286 1763.09,804.345 1769.95,800.479 1776.81,796.743 1783.67,793.179 1790.52,789.693 1797.38,786.311 1804.24,783.07 1811.1,779.889 1817.96,776.765 1824.82,773.716 1831.68,770.745 1838.54,767.827 1845.4,765.039 1852.26,762.377 1859.11,759.829 1865.97,757.411 1872.83,755.109 1879.69,752.971 1886.55,751.008 1893.41,749.125 1900.27,747.343 1907.13,745.66 1913.99,744.053 1920.85,742.525 1927.7,741.09 1934.56,739.82 1941.42,738.652 1948.28,737.584 1955.14,736.64 1962,735.827 1968.86,735.107 1975.72,734.425 1982.58,733.816 1989.44,733.287 1996.29,732.803 2003.15,732.426 2010.01,732.157 2016.87,731.94 2023.73,731.791 2030.59,731.708 2037.45,731.667 2044.31,731.65 2051.17,731.658 2058.02,731.725 2064.88,731.85 2071.74,732.027 2078.6,732.254 2085.46,732.532 2092.32,732.857 2099.18,733.257 2106.04,733.732 2112.9,734.268 2119.76,734.847 2126.61,735.437 2133.47,736.02 2140.33,736.666 2147.19,737.445 2154.05,738.242 2160.91,738.951 2167.77,739.638 2174.63,740.505 2181.49,741.633 2188.35,742.796 2195.2,743.95 2202.06,745.155 2208.92,746.726 2215.78,748.812 2222.64,751.103 2229.5,753.308 2236.36,755.292 2243.22,757.222 2250.08,759.019 2256.94,760.06 2263.79,760.22 2270.65,759.673 2277.51,759.072 2284.37,758.401 2291.23,758.394 "/>
<path clip-path="url(#clip630)" d="M2010.47 250.738 L2280.29 250.738 L2280.29 95.2176 L2010.47 95.2176  Z" fill="#ffffff" fill-rule="evenodd" fill-opacity="1"/>
<polyline clip-path="url(#clip630)" style="stroke:#000000; stroke-linecap:round; stroke-linejoin:round; stroke-width:4; stroke-opacity:1; fill:none" points="2010.47,250.738 2280.29,250.738 2280.29,95.2176 2010.47,95.2176 2010.47,250.738 "/>
<polyline clip-path="url(#clip630)" style="stroke:#009af9; stroke-linecap:round; stroke-linejoin:round; stroke-width:4; stroke-opacity:1; fill:none" points="2034.63,147.058 2179.55,147.058 "/>
<path clip-path="url(#clip630)" d="M2217.55 166.745 Q2215.75 171.375 2214.03 172.787 Q2212.32 174.199 2209.45 174.199 L2206.05 174.199 L2206.05 170.634 L2208.55 170.634 Q2210.31 170.634 2211.28 169.8 Q2212.25 168.967 2213.43 165.865 L2214.19 163.921 L2203.71 138.412 L2208.22 138.412 L2216.32 158.689 L2224.43 138.412 L2228.94 138.412 L2217.55 166.745 Z" fill="#000000" fill-rule="nonzero" fill-opacity="1" /><path clip-path="url(#clip630)" d="M2236.23 160.402 L2243.87 160.402 L2243.87 134.037 L2235.56 135.703 L2235.56 131.444 L2243.82 129.778 L2248.5 129.778 L2248.5 160.402 L2256.14 160.402 L2256.14 164.338 L2236.23 164.338 L2236.23 160.402 Z" fill="#000000" fill-rule="nonzero" fill-opacity="1" /><polyline clip-path="url(#clip630)" style="stroke:#e26f46; stroke-linecap:round; stroke-linejoin:round; stroke-width:4; stroke-opacity:1; fill:none" points="2034.63,198.898 2179.55,198.898 "/>
<path clip-path="url(#clip630)" d="M2217.55 218.585 Q2215.75 223.215 2214.03 224.627 Q2212.32 226.039 2209.45 226.039 L2206.05 226.039 L2206.05 222.474 L2208.55 222.474 Q2210.31 222.474 2211.28 221.64 Q2212.25 220.807 2213.43 217.705 L2214.19 215.761 L2203.71 190.252 L2208.22 190.252 L2216.32 210.529 L2224.43 190.252 L2228.94 190.252 L2217.55 218.585 Z" fill="#000000" fill-rule="nonzero" fill-opacity="1" /><path clip-path="url(#clip630)" d="M2239.45 212.242 L2255.77 212.242 L2255.77 216.178 L2233.82 216.178 L2233.82 212.242 Q2236.49 209.488 2241.07 204.858 Q2245.68 200.205 2246.86 198.863 Q2249.1 196.34 2249.98 194.604 Q2250.88 192.844 2250.88 191.155 Q2250.88 188.4 2248.94 186.664 Q2247.02 184.928 2243.92 184.928 Q2241.72 184.928 2239.26 185.692 Q2236.83 186.455 2234.06 188.006 L2234.06 183.284 Q2236.88 182.15 2239.33 181.571 Q2241.79 180.993 2243.82 180.993 Q2249.19 180.993 2252.39 183.678 Q2255.58 186.363 2255.58 190.854 Q2255.58 192.983 2254.77 194.905 Q2253.99 196.803 2251.88 199.395 Q2251.3 200.067 2248.2 203.284 Q2245.1 206.479 2239.45 212.242 Z" fill="#000000" fill-rule="nonzero" fill-opacity="1" /></svg>
