<?xml version="1.0" encoding="utf-8"?>
<svg xmlns="http://www.w3.org/2000/svg" xmlns:xlink="http://www.w3.org/1999/xlink" width="600" height="400" viewBox="0 0 2400 1600">
<defs>
  <clipPath id="clip620">
    <rect x="0" y="0" width="2400" height="1600"/>
  </clipPath>
</defs>
<path clip-path="url(#clip620)" d="M0 1600 L2400 1600 L2400 0 L0 0  Z" fill="#ffffff" fill-rule="evenodd" fill-opacity="1"/>
<defs>
  <clipPath id="clip621">
    <rect x="480" y="0" width="1681" height="1600"/>
  </clipPath>
</defs>
<path clip-path="url(#clip620)" d="M147.478 1486.45 L2352.76 1486.45 L2352.76 47.2441 L147.478 47.2441  Z" fill="#ffffff" fill-rule="evenodd" fill-opacity="1"/>
<defs>
  <clipPath id="clip622">
    <rect x="147" y="47" width="2206" height="1440"/>
  </clipPath>
</defs>
<polyline clip-path="url(#clip622)" style="stroke:#000000; stroke-linecap:round; stroke-linejoin:round; stroke-width:2; stroke-opacity:0.1; fill:none" points="209.891,1486.45 209.891,47.2441 "/>
<polyline clip-path="url(#clip622)" style="stroke:#000000; stroke-linecap:round; stroke-linejoin:round; stroke-width:2; stroke-opacity:0.1; fill:none" points="730.004,1486.45 730.004,47.2441 "/>
<polyline clip-path="url(#clip622)" style="stroke:#000000; stroke-linecap:round; stroke-linejoin:round; stroke-width:2; stroke-opacity:0.1; fill:none" points="1250.12,1486.45 1250.12,47.2441 "/>
<polyline clip-path="url(#clip622)" style="stroke:#000000; stroke-linecap:round; stroke-linejoin:round; stroke-width:2; stroke-opacity:0.1; fill:none" points="1770.23,1486.45 1770.23,47.2441 "/>
<polyline clip-path="url(#clip622)" style="stroke:#000000; stroke-linecap:round; stroke-linejoin:round; stroke-width:2; stroke-opacity:0.1; fill:none" points="2290.34,1486.45 2290.34,47.2441 "/>
<polyline clip-path="url(#clip622)" style="stroke:#000000; stroke-linecap:round; stroke-linejoin:round; stroke-width:2; stroke-opacity:0.1; fill:none" points="147.478,1378.79 2352.76,1378.79 "/>
<polyline clip-path="url(#clip622)" style="stroke:#000000; stroke-linecap:round; stroke-linejoin:round; stroke-width:2; stroke-opacity:0.1; fill:none" points="147.478,1119.56 2352.76,1119.56 "/>
<polyline clip-path="url(#clip622)" style="stroke:#000000; stroke-linecap:round; stroke-linejoin:round; stroke-width:2; stroke-opacity:0.1; fill:none" points="147.478,860.332 2352.76,860.332 "/>
<polyline clip-path="url(#clip622)" style="stroke:#000000; stroke-linecap:round; stroke-linejoin:round; stroke-width:2; stroke-opacity:0.1; fill:none" points="147.478,601.103 2352.76,601.103 "/>
<polyline clip-path="url(#clip622)" style="stroke:#000000; stroke-linecap:round; stroke-linejoin:round; stroke-width:2; stroke-opacity:0.1; fill:none" points="147.478,341.874 2352.76,341.874 "/>
<polyline clip-path="url(#clip622)" style="stroke:#000000; stroke-linecap:round; stroke-linejoin:round; stroke-width:2; stroke-opacity:0.1; fill:none" points="147.478,82.6453 2352.76,82.6453 "/>
<polyline clip-path="url(#clip620)" style="stroke:#000000; stroke-linecap:round; stroke-linejoin:round; stroke-width:4; stroke-opacity:1; fill:none" points="147.478,1486.45 2352.76,1486.45 "/>
<polyline clip-path="url(#clip620)" style="stroke:#000000; stroke-linecap:round; stroke-linejoin:round; stroke-width:4; stroke-opacity:1; fill:none" points="209.891,1486.45 209.891,1467.55 "/>
<polyline clip-path="url(#clip620)" style="stroke:#000000; stroke-linecap:round; stroke-linejoin:round; stroke-width:4; stroke-opacity:1; fill:none" points="730.004,1486.45 730.004,1467.55 "/>
<polyline clip-path="url(#clip620)" style="stroke:#000000; stroke-linecap:round; stroke-linejoin:round; stroke-width:4; stroke-opacity:1; fill:none" points="1250.12,1486.45 1250.12,1467.55 "/>
<polyline clip-path="url(#clip620)" style="stroke:#000000; stroke-linecap:round; stroke-linejoin:round; stroke-width:4; stroke-opacity:1; fill:none" points="1770.23,1486.45 1770.23,1467.55 "/>
<polyline clip-path="url(#clip620)" style="stroke:#000000; stroke-linecap:round; stroke-linejoin:round; stroke-width:4; stroke-opacity:1; fill:none" points="2290.34,1486.45 2290.34,1467.55 "/>
<path clip-path="url(#clip620)" d="M172.195 1517.37 Q168.584 1517.37 166.755 1520.93 Q164.95 1524.47 164.95 1531.6 Q164.95 1538.71 166.755 1542.27 Q168.584 1545.82 172.195 1545.82 Q175.829 1545.82 177.635 1542.27 Q179.463 1538.71 179.463 1531.6 Q179.463 1524.47 177.635 1520.93 Q175.829 1517.37 172.195 1517.37 M172.195 1513.66 Q178.005 1513.66 181.061 1518.27 Q184.139 1522.85 184.139 1531.6 Q184.139 1540.33 181.061 1544.94 Q178.005 1549.52 172.195 1549.52 Q166.385 1549.52 163.306 1544.94 Q160.251 1540.33 160.251 1531.6 Q160.251 1522.85 163.306 1518.27 Q166.385 1513.66 172.195 1513.66 Z" fill="#000000" fill-rule="nonzero" fill-opacity="1" /><path clip-path="url(#clip620)" d="M192.357 1542.97 L197.241 1542.97 L197.241 1548.85 L192.357 1548.85 L192.357 1542.97 Z" fill="#000000" fill-rule="nonzero" fill-opacity="1" /><path clip-path="url(#clip620)" d="M217.426 1517.37 Q213.815 1517.37 211.986 1520.93 Q210.181 1524.47 210.181 1531.6 Q210.181 1538.71 211.986 1542.27 Q213.815 1545.82 217.426 1545.82 Q221.06 1545.82 222.866 1542.27 Q224.695 1538.71 224.695 1531.6 Q224.695 1524.47 222.866 1520.93 Q221.06 1517.37 217.426 1517.37 M217.426 1513.66 Q223.236 1513.66 226.292 1518.27 Q229.371 1522.85 229.371 1531.6 Q229.371 1540.33 226.292 1544.94 Q223.236 1549.52 217.426 1549.52 Q211.616 1549.52 208.537 1544.94 Q205.482 1540.33 205.482 1531.6 Q205.482 1522.85 208.537 1518.27 Q211.616 1513.66 217.426 1513.66 Z" fill="#000000" fill-rule="nonzero" fill-opacity="1" /><path clip-path="url(#clip620)" d="M247.588 1517.37 Q243.977 1517.37 242.148 1520.93 Q240.343 1524.47 240.343 1531.6 Q240.343 1538.71 242.148 1542.27 Q243.977 1545.82 247.588 1545.82 Q251.222 1545.82 253.028 1542.27 Q254.856 1538.71 254.856 1531.6 Q254.856 1524.47 253.028 1520.93 Q251.222 1517.37 247.588 1517.37 M247.588 1513.66 Q253.398 1513.66 256.454 1518.27 Q259.532 1522.85 259.532 1531.6 Q259.532 1540.33 256.454 1544.94 Q253.398 1549.52 247.588 1549.52 Q241.778 1549.52 238.699 1544.94 Q235.644 1540.33 235.644 1531.6 Q235.644 1522.85 238.699 1518.27 Q241.778 1513.66 247.588 1513.66 Z" fill="#000000" fill-rule="nonzero" fill-opacity="1" /><path clip-path="url(#clip620)" d="M692.805 1517.37 Q689.194 1517.37 687.366 1520.93 Q685.56 1524.47 685.56 1531.6 Q685.56 1538.71 687.366 1542.27 Q689.194 1545.82 692.805 1545.82 Q696.44 1545.82 698.245 1542.27 Q700.074 1538.71 700.074 1531.6 Q700.074 1524.47 698.245 1520.93 Q696.44 1517.37 692.805 1517.37 M692.805 1513.66 Q698.615 1513.66 701.671 1518.27 Q704.75 1522.85 704.75 1531.6 Q704.75 1540.33 701.671 1544.94 Q698.615 1549.52 692.805 1549.52 Q686.995 1549.52 683.916 1544.94 Q680.861 1540.33 680.861 1531.6 Q680.861 1522.85 683.916 1518.27 Q686.995 1513.66 692.805 1513.66 Z" fill="#000000" fill-rule="nonzero" fill-opacity="1" /><path clip-path="url(#clip620)" d="M712.967 1542.97 L717.851 1542.97 L717.851 1548.85 L712.967 1548.85 L712.967 1542.97 Z" fill="#000000" fill-rule="nonzero" fill-opacity="1" /><path clip-path="url(#clip620)" d="M732.064 1544.91 L748.384 1544.91 L748.384 1548.85 L726.439 1548.85 L726.439 1544.91 Q729.101 1542.16 733.685 1537.53 Q738.291 1532.88 739.472 1531.53 Q741.717 1529.01 742.597 1527.27 Q743.499 1525.51 743.499 1523.82 Q743.499 1521.07 741.555 1519.33 Q739.634 1517.6 736.532 1517.6 Q734.333 1517.6 731.879 1518.36 Q729.449 1519.13 726.671 1520.68 L726.671 1515.95 Q729.495 1514.82 731.949 1514.24 Q734.402 1513.66 736.439 1513.66 Q741.81 1513.66 745.004 1516.35 Q748.199 1519.03 748.199 1523.52 Q748.199 1525.65 747.388 1527.57 Q746.601 1529.47 744.495 1532.07 Q743.916 1532.74 740.814 1535.95 Q737.712 1539.15 732.064 1544.91 Z" fill="#000000" fill-rule="nonzero" fill-opacity="1" /><path clip-path="url(#clip620)" d="M758.245 1514.29 L776.601 1514.29 L776.601 1518.22 L762.527 1518.22 L762.527 1526.7 Q763.546 1526.35 764.564 1526.19 Q765.583 1526 766.601 1526 Q772.388 1526 775.768 1529.17 Q779.147 1532.34 779.147 1537.76 Q779.147 1543.34 775.675 1546.44 Q772.203 1549.52 765.884 1549.52 Q763.708 1549.52 761.439 1549.15 Q759.194 1548.78 756.786 1548.04 L756.786 1543.34 Q758.87 1544.47 761.092 1545.03 Q763.314 1545.58 765.791 1545.58 Q769.796 1545.58 772.134 1543.48 Q774.472 1541.37 774.472 1537.76 Q774.472 1534.15 772.134 1532.04 Q769.796 1529.94 765.791 1529.94 Q763.916 1529.94 762.041 1530.35 Q760.189 1530.77 758.245 1531.65 L758.245 1514.29 Z" fill="#000000" fill-rule="nonzero" fill-opacity="1" /><path clip-path="url(#clip620)" d="M1212.42 1517.37 Q1208.81 1517.37 1206.98 1520.93 Q1205.18 1524.47 1205.18 1531.6 Q1205.18 1538.71 1206.98 1542.27 Q1208.81 1545.82 1212.42 1545.82 Q1216.05 1545.82 1217.86 1542.27 Q1219.69 1538.71 1219.69 1531.6 Q1219.69 1524.47 1217.86 1520.93 Q1216.05 1517.37 1212.42 1517.37 M1212.42 1513.66 Q1218.23 1513.66 1221.29 1518.27 Q1224.36 1522.85 1224.36 1531.6 Q1224.36 1540.33 1221.29 1544.94 Q1218.23 1549.52 1212.42 1549.52 Q1206.61 1549.52 1203.53 1544.94 Q1200.48 1540.33 1200.48 1531.6 Q1200.48 1522.85 1203.53 1518.27 Q1206.61 1513.66 1212.42 1513.66 Z" fill="#000000" fill-rule="nonzero" fill-opacity="1" /><path clip-path="url(#clip620)" d="M1232.58 1542.97 L1237.47 1542.97 L1237.47 1548.85 L1232.58 1548.85 L1232.58 1542.97 Z" fill="#000000" fill-rule="nonzero" fill-opacity="1" /><path clip-path="url(#clip620)" d="M1247.7 1514.29 L1266.05 1514.29 L1266.05 1518.22 L1251.98 1518.22 L1251.98 1526.7 Q1253 1526.35 1254.02 1526.19 Q1255.04 1526 1256.05 1526 Q1261.84 1526 1265.22 1529.17 Q1268.6 1532.34 1268.6 1537.76 Q1268.6 1543.34 1265.13 1546.44 Q1261.66 1549.52 1255.34 1549.52 Q1253.16 1549.52 1250.89 1549.15 Q1248.65 1548.78 1246.24 1548.04 L1246.24 1543.34 Q1248.32 1544.47 1250.55 1545.03 Q1252.77 1545.58 1255.24 1545.58 Q1259.25 1545.58 1261.59 1543.48 Q1263.92 1541.37 1263.92 1537.76 Q1263.92 1534.15 1261.59 1532.04 Q1259.25 1529.94 1255.24 1529.94 Q1253.37 1529.94 1251.49 1530.35 Q1249.64 1530.77 1247.7 1531.65 L1247.7 1514.29 Z" fill="#000000" fill-rule="nonzero" fill-opacity="1" /><path clip-path="url(#clip620)" d="M1287.81 1517.37 Q1284.2 1517.37 1282.37 1520.93 Q1280.57 1524.47 1280.57 1531.6 Q1280.57 1538.71 1282.37 1542.27 Q1284.2 1545.82 1287.81 1545.82 Q1291.45 1545.82 1293.25 1542.27 Q1295.08 1538.71 1295.08 1531.6 Q1295.08 1524.47 1293.25 1520.93 Q1291.45 1517.37 1287.81 1517.37 M1287.81 1513.66 Q1293.62 1513.66 1296.68 1518.27 Q1299.76 1522.85 1299.76 1531.6 Q1299.76 1540.33 1296.68 1544.94 Q1293.62 1549.52 1287.81 1549.52 Q1282 1549.52 1278.92 1544.94 Q1275.87 1540.33 1275.87 1531.6 Q1275.87 1522.85 1278.92 1518.27 Q1282 1513.66 1287.81 1513.66 Z" fill="#000000" fill-rule="nonzero" fill-opacity="1" /><path clip-path="url(#clip620)" d="M1733.03 1517.37 Q1729.42 1517.37 1727.59 1520.93 Q1725.79 1524.47 1725.79 1531.6 Q1725.79 1538.71 1727.59 1542.27 Q1729.42 1545.82 1733.03 1545.82 Q1736.67 1545.82 1738.47 1542.27 Q1740.3 1538.71 1740.3 1531.6 Q1740.3 1524.47 1738.47 1520.93 Q1736.67 1517.37 1733.03 1517.37 M1733.03 1513.66 Q1738.84 1513.66 1741.9 1518.27 Q1744.98 1522.85 1744.98 1531.6 Q1744.98 1540.33 1741.9 1544.94 Q1738.84 1549.52 1733.03 1549.52 Q1727.22 1549.52 1724.14 1544.94 Q1721.09 1540.33 1721.09 1531.6 Q1721.09 1522.85 1724.14 1518.27 Q1727.22 1513.66 1733.03 1513.66 Z" fill="#000000" fill-rule="nonzero" fill-opacity="1" /><path clip-path="url(#clip620)" d="M1753.19 1542.97 L1758.08 1542.97 L1758.08 1548.85 L1753.19 1548.85 L1753.19 1542.97 Z" fill="#000000" fill-rule="nonzero" fill-opacity="1" /><path clip-path="url(#clip620)" d="M1767.08 1514.29 L1789.3 1514.29 L1789.3 1516.28 L1776.76 1548.85 L1771.87 1548.85 L1783.68 1518.22 L1767.08 1518.22 L1767.08 1514.29 Z" fill="#000000" fill-rule="nonzero" fill-opacity="1" /><path clip-path="url(#clip620)" d="M1798.47 1514.29 L1816.83 1514.29 L1816.83 1518.22 L1802.75 1518.22 L1802.75 1526.7 Q1803.77 1526.35 1804.79 1526.19 Q1805.81 1526 1806.83 1526 Q1812.61 1526 1815.99 1529.17 Q1819.37 1532.34 1819.37 1537.76 Q1819.37 1543.34 1815.9 1546.44 Q1812.43 1549.52 1806.11 1549.52 Q1803.93 1549.52 1801.66 1549.15 Q1799.42 1548.78 1797.01 1548.04 L1797.01 1543.34 Q1799.1 1544.47 1801.32 1545.03 Q1803.54 1545.58 1806.02 1545.58 Q1810.02 1545.58 1812.36 1543.48 Q1814.7 1541.37 1814.7 1537.76 Q1814.7 1534.15 1812.36 1532.04 Q1810.02 1529.94 1806.02 1529.94 Q1804.14 1529.94 1802.27 1530.35 Q1800.41 1530.77 1798.47 1531.65 L1798.47 1514.29 Z" fill="#000000" fill-rule="nonzero" fill-opacity="1" /><path clip-path="url(#clip620)" d="M2242.41 1544.91 L2250.05 1544.91 L2250.05 1518.55 L2241.74 1520.21 L2241.74 1515.95 L2250.01 1514.29 L2254.68 1514.29 L2254.68 1544.91 L2262.32 1544.91 L2262.32 1548.85 L2242.41 1548.85 L2242.41 1544.91 Z" fill="#000000" fill-rule="nonzero" fill-opacity="1" /><path clip-path="url(#clip620)" d="M2271.77 1542.97 L2276.65 1542.97 L2276.65 1548.85 L2271.77 1548.85 L2271.77 1542.97 Z" fill="#000000" fill-rule="nonzero" fill-opacity="1" /><path clip-path="url(#clip620)" d="M2296.84 1517.37 Q2293.22 1517.37 2291.4 1520.93 Q2289.59 1524.47 2289.59 1531.6 Q2289.59 1538.71 2291.4 1542.27 Q2293.22 1545.82 2296.84 1545.82 Q2300.47 1545.82 2302.28 1542.27 Q2304.1 1538.71 2304.1 1531.6 Q2304.1 1524.47 2302.28 1520.93 Q2300.47 1517.37 2296.84 1517.37 M2296.84 1513.66 Q2302.65 1513.66 2305.7 1518.27 Q2308.78 1522.85 2308.78 1531.6 Q2308.78 1540.33 2305.7 1544.94 Q2302.65 1549.52 2296.84 1549.52 Q2291.03 1549.52 2287.95 1544.94 Q2284.89 1540.33 2284.89 1531.6 Q2284.89 1522.85 2287.95 1518.27 Q2291.03 1513.66 2296.84 1513.66 Z" fill="#000000" fill-rule="nonzero" fill-opacity="1" /><path clip-path="url(#clip620)" d="M2327 1517.37 Q2323.39 1517.37 2321.56 1520.93 Q2319.75 1524.47 2319.75 1531.6 Q2319.75 1538.71 2321.56 1542.27 Q2323.39 1545.82 2327 1545.82 Q2330.63 1545.82 2332.44 1542.27 Q2334.27 1538.71 2334.27 1531.6 Q2334.27 1524.47 2332.44 1520.93 Q2330.63 1517.37 2327 1517.37 M2327 1513.66 Q2332.81 1513.66 2335.86 1518.27 Q2338.94 1522.85 2338.94 1531.6 Q2338.94 1540.33 2335.86 1544.94 Q2332.81 1549.52 2327 1549.52 Q2321.19 1549.52 2318.11 1544.94 Q2315.05 1540.33 2315.05 1531.6 Q2315.05 1522.85 2318.11 1518.27 Q2321.19 1513.66 2327 1513.66 Z" fill="#000000" fill-rule="nonzero" fill-opacity="1" /><polyline clip-path="url(#clip620)" style="stroke:#000000; stroke-linecap:round; stroke-linejoin:round; stroke-width:4; stroke-opacity:1; fill:none" points="147.478,1486.45 147.478,47.2441 "/>
<polyline clip-path="url(#clip620)" style="stroke:#000000; stroke-linecap:round; stroke-linejoin:round; stroke-width:4; stroke-opacity:1; fill:none" points="147.478,1378.79 166.376,1378.79 "/>
<polyline clip-path="url(#clip620)" style="stroke:#000000; stroke-linecap:round; stroke-linejoin:round; stroke-width:4; stroke-opacity:1; fill:none" points="147.478,1119.56 166.376,1119.56 "/>
<polyline clip-path="url(#clip620)" style="stroke:#000000; stroke-linecap:round; stroke-linejoin:round; stroke-width:4; stroke-opacity:1; fill:none" points="147.478,860.332 166.376,860.332 "/>
<polyline clip-path="url(#clip620)" style="stroke:#000000; stroke-linecap:round; stroke-linejoin:round; stroke-width:4; stroke-opacity:1; fill:none" points="147.478,601.103 166.376,601.103 "/>
<polyline clip-path="url(#clip620)" style="stroke:#000000; stroke-linecap:round; stroke-linejoin:round; stroke-width:4; stroke-opacity:1; fill:none" points="147.478,341.874 166.376,341.874 "/>
<polyline clip-path="url(#clip620)" style="stroke:#000000; stroke-linecap:round; stroke-linejoin:round; stroke-width:4; stroke-opacity:1; fill:none" points="147.478,82.6453 166.376,82.6453 "/>
<path clip-path="url(#clip620)" d="M50.9921 1379.24 L80.6679 1379.24 L80.6679 1383.18 L50.9921 1383.18 L50.9921 1379.24 Z" fill="#000000" fill-rule="nonzero" fill-opacity="1" /><path clip-path="url(#clip620)" d="M91.5706 1392.13 L99.2095 1392.13 L99.2095 1365.77 L90.8993 1367.43 L90.8993 1363.18 L99.1632 1361.51 L103.839 1361.51 L103.839 1392.13 L111.478 1392.13 L111.478 1396.07 L91.5706 1396.07 L91.5706 1392.13 Z" fill="#000000" fill-rule="nonzero" fill-opacity="1" /><path clip-path="url(#clip620)" d="M99.5335 1105.36 Q95.9224 1105.36 94.0937 1108.92 Q92.2882 1112.47 92.2882 1119.6 Q92.2882 1126.7 94.0937 1130.27 Q95.9224 1133.81 99.5335 1133.81 Q103.168 1133.81 104.973 1130.27 Q106.802 1126.7 106.802 1119.6 Q106.802 1112.47 104.973 1108.92 Q103.168 1105.36 99.5335 1105.36 M99.5335 1101.66 Q105.344 1101.66 108.399 1106.26 Q111.478 1110.85 111.478 1119.6 Q111.478 1128.32 108.399 1132.93 Q105.344 1137.51 99.5335 1137.51 Q93.7234 1137.51 90.6447 1132.93 Q87.5892 1128.32 87.5892 1119.6 Q87.5892 1110.85 90.6447 1106.26 Q93.7234 1101.66 99.5335 1101.66 Z" fill="#000000" fill-rule="nonzero" fill-opacity="1" /><path clip-path="url(#clip620)" d="M91.5706 873.676 L99.2095 873.676 L99.2095 847.311 L90.8993 848.977 L90.8993 844.718 L99.1632 843.052 L103.839 843.052 L103.839 873.676 L111.478 873.676 L111.478 877.612 L91.5706 877.612 L91.5706 873.676 Z" fill="#000000" fill-rule="nonzero" fill-opacity="1" /><path clip-path="url(#clip620)" d="M95.1586 614.448 L111.478 614.448 L111.478 618.383 L89.5336 618.383 L89.5336 614.448 Q92.1956 611.693 96.7789 607.063 Q101.385 602.411 102.566 601.068 Q104.811 598.545 105.691 596.809 Q106.594 595.05 106.594 593.36 Q106.594 590.605 104.649 588.869 Q102.728 587.133 99.6261 587.133 Q97.4271 587.133 94.9734 587.897 Q92.5428 588.661 89.7651 590.212 L89.7651 585.489 Q92.5891 584.355 95.0428 583.776 Q97.4965 583.198 99.5335 583.198 Q104.904 583.198 108.098 585.883 Q111.293 588.568 111.293 593.059 Q111.293 595.188 110.483 597.11 Q109.696 599.008 107.589 601.6 Q107.01 602.272 103.909 605.489 Q100.807 608.684 95.1586 614.448 Z" fill="#000000" fill-rule="nonzero" fill-opacity="1" /><path clip-path="url(#clip620)" d="M104.348 340.52 Q107.705 341.237 109.58 343.506 Q111.478 345.774 111.478 349.108 Q111.478 354.224 107.959 357.024 Q104.441 359.825 97.9595 359.825 Q95.7836 359.825 93.4688 359.386 Q91.1771 358.969 88.7234 358.112 L88.7234 353.599 Q90.6678 354.733 92.9826 355.311 Q95.2974 355.89 97.8206 355.89 Q102.219 355.89 104.51 354.154 Q106.825 352.418 106.825 349.108 Q106.825 346.052 104.672 344.339 Q102.543 342.603 98.7234 342.603 L94.6956 342.603 L94.6956 338.761 L98.9085 338.761 Q102.358 338.761 104.186 337.395 Q106.015 336.006 106.015 333.413 Q106.015 330.751 104.117 329.339 Q102.242 327.904 98.7234 327.904 Q96.8021 327.904 94.603 328.321 Q92.4039 328.738 89.7651 329.617 L89.7651 325.451 Q92.4271 324.71 94.7419 324.339 Q97.0798 323.969 99.14 323.969 Q104.464 323.969 107.566 326.4 Q110.668 328.807 110.668 332.927 Q110.668 335.798 109.024 337.788 Q107.381 339.756 104.348 340.52 Z" fill="#000000" fill-rule="nonzero" fill-opacity="1" /><path clip-path="url(#clip620)" d="M101.895 69.4393 L90.0891 87.8883 L101.895 87.8883 L101.895 69.4393 M100.668 65.3653 L106.547 65.3653 L106.547 87.8883 L111.478 87.8883 L111.478 91.7772 L106.547 91.7772 L106.547 99.9253 L101.895 99.9253 L101.895 91.7772 L86.2929 91.7772 L86.2929 87.2633 L100.668 65.3653 Z" fill="#000000" fill-rule="nonzero" fill-opacity="1" /><circle clip-path="url(#clip622)" cx="209.891" cy="601.103" r="14.4" fill="#009af9" fill-rule="evenodd" fill-opacity="1" stroke="#000000" stroke-opacity="1" stroke-width="3.2"/>
<circle clip-path="url(#clip622)" cx="281.631" cy="624.528" r="14.4" fill="#009af9" fill-rule="evenodd" fill-opacity="1" stroke="#000000" stroke-opacity="1" stroke-width="3.2"/>
<circle clip-path="url(#clip622)" cx="353.371" cy="646.084" r="14.4" fill="#009af9" fill-rule="evenodd" fill-opacity="1" stroke="#000000" stroke-opacity="1" stroke-width="3.2"/>
<circle clip-path="url(#clip622)" cx="425.111" cy="698.217" r="14.4" fill="#009af9" fill-rule="evenodd" fill-opacity="1" stroke="#000000" stroke-opacity="1" stroke-width="3.2"/>
<circle clip-path="url(#clip622)" cx="496.85" cy="779.774" r="14.4" fill="#009af9" fill-rule="evenodd" fill-opacity="1" stroke="#000000" stroke-opacity="1" stroke-width="3.2"/>
<circle clip-path="url(#clip622)" cx="568.59" cy="878.664" r="14.4" fill="#009af9" fill-rule="evenodd" fill-opacity="1" stroke="#000000" stroke-opacity="1" stroke-width="3.2"/>
<circle clip-path="url(#clip622)" cx="640.33" cy="982.856" r="14.4" fill="#009af9" fill-rule="evenodd" fill-opacity="1" stroke="#000000" stroke-opacity="1" stroke-width="3.2"/>
<circle clip-path="url(#clip622)" cx="712.069" cy="1084.53" r="14.4" fill="#009af9" fill-rule="evenodd" fill-opacity="1" stroke="#000000" stroke-opacity="1" stroke-width="3.2"/>
<circle clip-path="url(#clip622)" cx="783.809" cy="1177.45" r="14.4" fill="#009af9" fill-rule="evenodd" fill-opacity="1" stroke="#000000" stroke-opacity="1" stroke-width="3.2"/>
<circle clip-path="url(#clip622)" cx="855.549" cy="1257.96" r="14.4" fill="#009af9" fill-rule="evenodd" fill-opacity="1" stroke="#000000" stroke-opacity="1" stroke-width="3.2"/>
<circle clip-path="url(#clip622)" cx="927.288" cy="1323.9" r="14.4" fill="#009af9" fill-rule="evenodd" fill-opacity="1" stroke="#000000" stroke-opacity="1" stroke-width="3.2"/>
<circle clip-path="url(#clip622)" cx="999.028" cy="1374.77" r="14.4" fill="#009af9" fill-rule="evenodd" fill-opacity="1" stroke="#000000" stroke-opacity="1" stroke-width="3.2"/>
<circle clip-path="url(#clip622)" cx="1070.77" cy="1410.84" r="14.4" fill="#009af9" fill-rule="evenodd" fill-opacity="1" stroke="#000000" stroke-opacity="1" stroke-width="3.2"/>
<circle clip-path="url(#clip622)" cx="1142.51" cy="1433.56" r="14.4" fill="#009af9" fill-rule="evenodd" fill-opacity="1" stroke="#000000" stroke-opacity="1" stroke-width="3.2"/>
<circle clip-path="url(#clip622)" cx="1214.25" cy="1444.67" r="14.4" fill="#009af9" fill-rule="evenodd" fill-opacity="1" stroke="#000000" stroke-opacity="1" stroke-width="3.2"/>
<circle clip-path="url(#clip622)" cx="1285.99" cy="1445.72" r="14.4" fill="#009af9" fill-rule="evenodd" fill-opacity="1" stroke="#000000" stroke-opacity="1" stroke-width="3.2"/>
<circle clip-path="url(#clip622)" cx="1357.73" cy="1438.02" r="14.4" fill="#009af9" fill-rule="evenodd" fill-opacity="1" stroke="#000000" stroke-opacity="1" stroke-width="3.2"/>
<circle clip-path="url(#clip622)" cx="1429.47" cy="1422.72" r="14.4" fill="#009af9" fill-rule="evenodd" fill-opacity="1" stroke="#000000" stroke-opacity="1" stroke-width="3.2"/>
<circle clip-path="url(#clip622)" cx="1501.21" cy="1400.95" r="14.4" fill="#009af9" fill-rule="evenodd" fill-opacity="1" stroke="#000000" stroke-opacity="1" stroke-width="3.2"/>
<circle clip-path="url(#clip622)" cx="1572.95" cy="1374.55" r="14.4" fill="#009af9" fill-rule="evenodd" fill-opacity="1" stroke="#000000" stroke-opacity="1" stroke-width="3.2"/>
<circle clip-path="url(#clip622)" cx="1644.69" cy="1344.74" r="14.4" fill="#009af9" fill-rule="evenodd" fill-opacity="1" stroke="#000000" stroke-opacity="1" stroke-width="3.2"/>
<circle clip-path="url(#clip622)" cx="1716.42" cy="1312.58" r="14.4" fill="#009af9" fill-rule="evenodd" fill-opacity="1" stroke="#000000" stroke-opacity="1" stroke-width="3.2"/>
<circle clip-path="url(#clip622)" cx="1788.16" cy="1279.63" r="14.4" fill="#009af9" fill-rule="evenodd" fill-opacity="1" stroke="#000000" stroke-opacity="1" stroke-width="3.2"/>
<circle clip-path="url(#clip622)" cx="1859.9" cy="1246.77" r="14.4" fill="#009af9" fill-rule="evenodd" fill-opacity="1" stroke="#000000" stroke-opacity="1" stroke-width="3.2"/>
<circle clip-path="url(#clip622)" cx="1931.64" cy="1214.69" r="14.4" fill="#009af9" fill-rule="evenodd" fill-opacity="1" stroke="#000000" stroke-opacity="1" stroke-width="3.2"/>
<circle clip-path="url(#clip622)" cx="2003.38" cy="1184.21" r="14.4" fill="#009af9" fill-rule="evenodd" fill-opacity="1" stroke="#000000" stroke-opacity="1" stroke-width="3.2"/>
<circle clip-path="url(#clip622)" cx="2075.12" cy="1155.88" r="14.4" fill="#009af9" fill-rule="evenodd" fill-opacity="1" stroke="#000000" stroke-opacity="1" stroke-width="3.2"/>
<circle clip-path="url(#clip622)" cx="2146.86" cy="1130.48" r="14.4" fill="#009af9" fill-rule="evenodd" fill-opacity="1" stroke="#000000" stroke-opacity="1" stroke-width="3.2"/>
<circle clip-path="url(#clip622)" cx="2218.6" cy="1107.52" r="14.4" fill="#009af9" fill-rule="evenodd" fill-opacity="1" stroke="#000000" stroke-opacity="1" stroke-width="3.2"/>
<circle clip-path="url(#clip622)" cx="2290.34" cy="1087.52" r="14.4" fill="#009af9" fill-rule="evenodd" fill-opacity="1" stroke="#000000" stroke-opacity="1" stroke-width="3.2"/>
<circle clip-path="url(#clip622)" cx="209.891" cy="601.103" r="14.4" fill="#e26f46" fill-rule="evenodd" fill-opacity="1" stroke="#000000" stroke-opacity="1" stroke-width="3.2"/>
<circle clip-path="url(#clip622)" cx="281.631" cy="549.353" r="14.4" fill="#e26f46" fill-rule="evenodd" fill-opacity="1" stroke="#000000" stroke-opacity="1" stroke-width="3.2"/>
<circle clip-path="url(#clip622)" cx="353.371" cy="459.956" r="14.4" fill="#e26f46" fill-rule="evenodd" fill-opacity="1" stroke="#000000" stroke-opacity="1" stroke-width="3.2"/>
<circle clip-path="url(#clip622)" cx="425.111" cy="560.837" r="14.4" fill="#e26f46" fill-rule="evenodd" fill-opacity="1" stroke="#000000" stroke-opacity="1" stroke-width="3.2"/>
<circle clip-path="url(#clip622)" cx="496.85" cy="378.676" r="14.4" fill="#e26f46" fill-rule="evenodd" fill-opacity="1" stroke="#000000" stroke-opacity="1" stroke-width="3.2"/>
<circle clip-path="url(#clip622)" cx="568.59" cy="518.328" r="14.4" fill="#e26f46" fill-rule="evenodd" fill-opacity="1" stroke="#000000" stroke-opacity="1" stroke-width="3.2"/>
<circle clip-path="url(#clip622)" cx="640.33" cy="671.126" r="14.4" fill="#e26f46" fill-rule="evenodd" fill-opacity="1" stroke="#000000" stroke-opacity="1" stroke-width="3.2"/>
<circle clip-path="url(#clip622)" cx="712.069" cy="580.14" r="14.4" fill="#e26f46" fill-rule="evenodd" fill-opacity="1" stroke="#000000" stroke-opacity="1" stroke-width="3.2"/>
<circle clip-path="url(#clip622)" cx="783.809" cy="573.79" r="14.4" fill="#e26f46" fill-rule="evenodd" fill-opacity="1" stroke="#000000" stroke-opacity="1" stroke-width="3.2"/>
<circle clip-path="url(#clip622)" cx="855.549" cy="559.192" r="14.4" fill="#e26f46" fill-rule="evenodd" fill-opacity="1" stroke="#000000" stroke-opacity="1" stroke-width="3.2"/>
<circle clip-path="url(#clip622)" cx="927.288" cy="424.906" r="14.4" fill="#e26f46" fill-rule="evenodd" fill-opacity="1" stroke="#000000" stroke-opacity="1" stroke-width="3.2"/>
<circle clip-path="url(#clip622)" cx="999.028" cy="372.871" r="14.4" fill="#e26f46" fill-rule="evenodd" fill-opacity="1" stroke="#000000" stroke-opacity="1" stroke-width="3.2"/>
<circle clip-path="url(#clip622)" cx="1070.77" cy="372.619" r="14.4" fill="#e26f46" fill-rule="evenodd" fill-opacity="1" stroke="#000000" stroke-opacity="1" stroke-width="3.2"/>
<circle clip-path="url(#clip622)" cx="1142.51" cy="404.883" r="14.4" fill="#e26f46" fill-rule="evenodd" fill-opacity="1" stroke="#000000" stroke-opacity="1" stroke-width="3.2"/>
<circle clip-path="url(#clip622)" cx="1214.25" cy="455.096" r="14.4" fill="#e26f46" fill-rule="evenodd" fill-opacity="1" stroke="#000000" stroke-opacity="1" stroke-width="3.2"/>
<circle clip-path="url(#clip622)" cx="1285.99" cy="552.01" r="14.4" fill="#e26f46" fill-rule="evenodd" fill-opacity="1" stroke="#000000" stroke-opacity="1" stroke-width="3.2"/>
<circle clip-path="url(#clip622)" cx="1357.73" cy="403.069" r="14.4" fill="#e26f46" fill-rule="evenodd" fill-opacity="1" stroke="#000000" stroke-opacity="1" stroke-width="3.2"/>
<circle clip-path="url(#clip622)" cx="1429.47" cy="199.393" r="14.4" fill="#e26f46" fill-rule="evenodd" fill-opacity="1" stroke="#000000" stroke-opacity="1" stroke-width="3.2"/>
<circle clip-path="url(#clip622)" cx="1501.21" cy="133.811" r="14.4" fill="#e26f46" fill-rule="evenodd" fill-opacity="1" stroke="#000000" stroke-opacity="1" stroke-width="3.2"/>
<circle clip-path="url(#clip622)" cx="1572.95" cy="336.784" r="14.4" fill="#e26f46" fill-rule="evenodd" fill-opacity="1" stroke="#000000" stroke-opacity="1" stroke-width="3.2"/>
<circle clip-path="url(#clip622)" cx="1644.69" cy="305.031" r="14.4" fill="#e26f46" fill-rule="evenodd" fill-opacity="1" stroke="#000000" stroke-opacity="1" stroke-width="3.2"/>
<circle clip-path="url(#clip622)" cx="1716.42" cy="184.754" r="14.4" fill="#e26f46" fill-rule="evenodd" fill-opacity="1" stroke="#000000" stroke-opacity="1" stroke-width="3.2"/>
<circle clip-path="url(#clip622)" cx="1788.16" cy="474.29" r="14.4" fill="#e26f46" fill-rule="evenodd" fill-opacity="1" stroke="#000000" stroke-opacity="1" stroke-width="3.2"/>
<circle clip-path="url(#clip622)" cx="1859.9" cy="663.776" r="14.4" fill="#e26f46" fill-rule="evenodd" fill-opacity="1" stroke="#000000" stroke-opacity="1" stroke-width="3.2"/>
<circle clip-path="url(#clip622)" cx="1931.64" cy="688.776" r="14.4" fill="#e26f46" fill-rule="evenodd" fill-opacity="1" stroke="#000000" stroke-opacity="1" stroke-width="3.2"/>
<circle clip-path="url(#clip622)" cx="2003.38" cy="723.567" r="14.4" fill="#e26f46" fill-rule="evenodd" fill-opacity="1" stroke="#000000" stroke-opacity="1" stroke-width="3.2"/>
<circle clip-path="url(#clip622)" cx="2075.12" cy="533.603" r="14.4" fill="#e26f46" fill-rule="evenodd" fill-opacity="1" stroke="#000000" stroke-opacity="1" stroke-width="3.2"/>
<circle clip-path="url(#clip622)" cx="2146.86" cy="87.9763" r="14.4" fill="#e26f46" fill-rule="evenodd" fill-opacity="1" stroke="#000000" stroke-opacity="1" stroke-width="3.2"/>
<circle clip-path="url(#clip622)" cx="2218.6" cy="326.967" r="14.4" fill="#e26f46" fill-rule="evenodd" fill-opacity="1" stroke="#000000" stroke-opacity="1" stroke-width="3.2"/>
<circle clip-path="url(#clip622)" cx="2290.34" cy="338.682" r="14.4" fill="#e26f46" fill-rule="evenodd" fill-opacity="1" stroke="#000000" stroke-opacity="1" stroke-width="3.2"/>
<path clip-path="url(#clip620)" d="M220.987 1438.47 L671.028 1438.47 L671.028 1282.95 L220.987 1282.95  Z" fill="#ffffff" fill-rule="evenodd" fill-opacity="1"/>
<polyline clip-path="url(#clip620)" style="stroke:#000000; stroke-linecap:round; stroke-linejoin:round; stroke-width:4; stroke-opacity:1; fill:none" points="220.987,1438.47 671.028,1438.47 671.028,1282.95 220.987,1282.95 220.987,1438.47 "/>
<circle clip-path="url(#clip620)" cx="319" cy="1334.79" r="20.48" fill="#009af9" fill-rule="evenodd" fill-opacity="1" stroke="#000000" stroke-opacity="1" stroke-width="4.55111"/>
<path clip-path="url(#clip620)" d="M435.924 1330.08 L435.924 1316.06 L440.183 1316.06 L440.183 1352.07 L435.924 1352.07 L435.924 1348.19 Q434.581 1350.5 432.521 1351.63 Q430.484 1352.75 427.614 1352.75 Q422.915 1352.75 419.952 1349 Q417.012 1345.25 417.012 1339.13 Q417.012 1333.02 419.952 1329.27 Q422.915 1325.52 427.614 1325.52 Q430.484 1325.52 432.521 1326.66 Q434.581 1327.77 435.924 1330.08 M421.41 1339.13 Q421.41 1343.83 423.331 1346.52 Q425.276 1349.18 428.655 1349.18 Q432.035 1349.18 433.979 1346.52 Q435.924 1343.83 435.924 1339.13 Q435.924 1334.44 433.979 1331.77 Q432.035 1329.09 428.655 1329.09 Q425.276 1329.09 423.331 1331.77 Q421.41 1334.44 421.41 1339.13 Z" fill="#000000" fill-rule="nonzero" fill-opacity="1" /><path clip-path="url(#clip620)" d="M460.739 1339.04 Q455.576 1339.04 453.586 1340.22 Q451.595 1341.4 451.595 1344.25 Q451.595 1346.52 453.077 1347.86 Q454.581 1349.18 457.151 1349.18 Q460.692 1349.18 462.822 1346.68 Q464.975 1344.16 464.975 1339.99 L464.975 1339.04 L460.739 1339.04 M469.234 1337.28 L469.234 1352.07 L464.975 1352.07 L464.975 1348.14 Q463.516 1350.5 461.34 1351.63 Q459.164 1352.75 456.016 1352.75 Q452.035 1352.75 449.674 1350.52 Q447.336 1348.28 447.336 1344.53 Q447.336 1340.15 450.252 1337.93 Q453.192 1335.71 459.002 1335.71 L464.975 1335.71 L464.975 1335.29 Q464.975 1332.35 463.03 1330.76 Q461.109 1329.13 457.614 1329.13 Q455.391 1329.13 453.285 1329.67 Q451.178 1330.2 449.234 1331.26 L449.234 1327.33 Q451.572 1326.43 453.771 1325.99 Q455.97 1325.52 458.053 1325.52 Q463.678 1325.52 466.456 1328.44 Q469.234 1331.36 469.234 1337.28 Z" fill="#000000" fill-rule="nonzero" fill-opacity="1" /><path clip-path="url(#clip620)" d="M482.22 1318.79 L482.22 1326.15 L490.993 1326.15 L490.993 1329.46 L482.22 1329.46 L482.22 1343.53 Q482.22 1346.7 483.076 1347.61 Q483.956 1348.51 486.618 1348.51 L490.993 1348.51 L490.993 1352.07 L486.618 1352.07 Q481.687 1352.07 479.812 1350.25 Q477.937 1348.39 477.937 1343.53 L477.937 1329.46 L474.813 1329.46 L474.813 1326.15 L477.937 1326.15 L477.937 1318.79 L482.22 1318.79 Z" fill="#000000" fill-rule="nonzero" fill-opacity="1" /><path clip-path="url(#clip620)" d="M508.377 1339.04 Q503.215 1339.04 501.224 1340.22 Q499.234 1341.4 499.234 1344.25 Q499.234 1346.52 500.715 1347.86 Q502.22 1349.18 504.789 1349.18 Q508.331 1349.18 510.46 1346.68 Q512.613 1344.16 512.613 1339.99 L512.613 1339.04 L508.377 1339.04 M516.872 1337.28 L516.872 1352.07 L512.613 1352.07 L512.613 1348.14 Q511.155 1350.5 508.979 1351.63 Q506.803 1352.75 503.655 1352.75 Q499.673 1352.75 497.312 1350.52 Q494.974 1348.28 494.974 1344.53 Q494.974 1340.15 497.891 1337.93 Q500.831 1335.71 506.641 1335.71 L512.613 1335.71 L512.613 1335.29 Q512.613 1332.35 510.669 1330.76 Q508.748 1329.13 505.252 1329.13 Q503.03 1329.13 500.923 1329.67 Q498.817 1330.2 496.873 1331.26 L496.873 1327.33 Q499.211 1326.43 501.41 1325.99 Q503.609 1325.52 505.692 1325.52 Q511.317 1325.52 514.095 1328.44 Q516.872 1331.36 516.872 1337.28 Z" fill="#000000" fill-rule="nonzero" fill-opacity="1" /><circle clip-path="url(#clip620)" cx="319" cy="1386.63" r="20.48" fill="#e26f46" fill-rule="evenodd" fill-opacity="1" stroke="#000000" stroke-opacity="1" stroke-width="4.55111"/>
<path clip-path="url(#clip620)" d="M421.294 1400.03 L421.294 1413.78 L417.012 1413.78 L417.012 1377.99 L421.294 1377.99 L421.294 1381.92 Q422.637 1379.61 424.674 1378.5 Q426.734 1377.36 429.581 1377.36 Q434.303 1377.36 437.243 1381.11 Q440.206 1384.86 440.206 1390.97 Q440.206 1397.09 437.243 1400.84 Q434.303 1404.59 429.581 1404.59 Q426.734 1404.59 424.674 1403.47 Q422.637 1402.34 421.294 1400.03 M435.785 1390.97 Q435.785 1386.28 433.841 1383.61 Q431.919 1380.93 428.54 1380.93 Q425.16 1380.93 423.216 1383.61 Q421.294 1386.28 421.294 1390.97 Q421.294 1395.67 423.216 1398.36 Q425.16 1401.02 428.54 1401.02 Q431.919 1401.02 433.841 1398.36 Q435.785 1395.67 435.785 1390.97 Z" fill="#000000" fill-rule="nonzero" fill-opacity="1" /><path clip-path="url(#clip620)" d="M462.289 1381.97 Q461.572 1381.55 460.715 1381.37 Q459.882 1381.16 458.864 1381.16 Q455.252 1381.16 453.308 1383.52 Q451.387 1385.86 451.387 1390.26 L451.387 1403.91 L447.104 1403.91 L447.104 1377.99 L451.387 1377.99 L451.387 1382.02 Q452.729 1379.66 454.882 1378.52 Q457.035 1377.36 460.114 1377.36 Q460.553 1377.36 461.086 1377.43 Q461.618 1377.48 462.266 1377.6 L462.289 1381.97 Z" fill="#000000" fill-rule="nonzero" fill-opacity="1" /><path clip-path="url(#clip620)" d="M487.891 1389.89 L487.891 1391.97 L468.308 1391.97 Q468.586 1396.37 470.947 1398.68 Q473.331 1400.97 477.567 1400.97 Q480.021 1400.97 482.312 1400.37 Q484.627 1399.77 486.896 1398.57 L486.896 1402.59 Q484.604 1403.57 482.197 1404.08 Q479.789 1404.59 477.312 1404.59 Q471.109 1404.59 467.475 1400.97 Q463.863 1397.36 463.863 1391.21 Q463.863 1384.84 467.289 1381.11 Q470.738 1377.36 476.572 1377.36 Q481.803 1377.36 484.836 1380.74 Q487.891 1384.1 487.891 1389.89 M483.632 1388.64 Q483.586 1385.14 481.664 1383.06 Q479.766 1380.97 476.618 1380.97 Q473.053 1380.97 470.9 1382.99 Q468.771 1385 468.447 1388.66 L483.632 1388.64 Z" fill="#000000" fill-rule="nonzero" fill-opacity="1" /><path clip-path="url(#clip620)" d="M511.942 1381.92 L511.942 1367.9 L516.201 1367.9 L516.201 1403.91 L511.942 1403.91 L511.942 1400.03 Q510.599 1402.34 508.539 1403.47 Q506.502 1404.59 503.632 1404.59 Q498.933 1404.59 495.97 1400.84 Q493.03 1397.09 493.03 1390.97 Q493.03 1384.86 495.97 1381.11 Q498.933 1377.36 503.632 1377.36 Q506.502 1377.36 508.539 1378.5 Q510.599 1379.61 511.942 1381.92 M497.428 1390.97 Q497.428 1395.67 499.349 1398.36 Q501.294 1401.02 504.673 1401.02 Q508.053 1401.02 509.998 1398.36 Q511.942 1395.67 511.942 1390.97 Q511.942 1386.28 509.998 1383.61 Q508.053 1380.93 504.673 1380.93 Q501.294 1380.93 499.349 1383.61 Q497.428 1386.28 497.428 1390.97 Z" fill="#000000" fill-rule="nonzero" fill-opacity="1" /><path clip-path="url(#clip620)" d="M524.974 1377.99 L529.234 1377.99 L529.234 1403.91 L524.974 1403.91 L524.974 1377.99 M524.974 1367.9 L529.234 1367.9 L529.234 1373.29 L524.974 1373.29 L524.974 1367.9 Z" fill="#000000" fill-rule="nonzero" fill-opacity="1" /><path clip-path="url(#clip620)" d="M556.803 1378.98 L556.803 1382.97 Q554.997 1381.97 553.169 1381.48 Q551.363 1380.97 549.511 1380.97 Q545.368 1380.97 543.076 1383.61 Q540.784 1386.23 540.784 1390.97 Q540.784 1395.72 543.076 1398.36 Q545.368 1400.97 549.511 1400.97 Q551.363 1400.97 553.169 1400.49 Q554.997 1399.98 556.803 1398.98 L556.803 1402.92 Q555.02 1403.75 553.099 1404.17 Q551.201 1404.59 549.048 1404.59 Q543.192 1404.59 539.743 1400.91 Q536.294 1397.22 536.294 1390.97 Q536.294 1384.63 539.766 1381 Q543.261 1377.36 549.326 1377.36 Q551.294 1377.36 553.169 1377.78 Q555.044 1378.17 556.803 1378.98 Z" fill="#000000" fill-rule="nonzero" fill-opacity="1" /><path clip-path="url(#clip620)" d="M568.423 1370.63 L568.423 1377.99 L577.196 1377.99 L577.196 1381.3 L568.423 1381.3 L568.423 1395.37 Q568.423 1398.54 569.28 1399.45 Q570.159 1400.35 572.821 1400.35 L577.196 1400.35 L577.196 1403.91 L572.821 1403.91 Q567.891 1403.91 566.016 1402.09 Q564.141 1400.23 564.141 1395.37 L564.141 1381.3 L561.016 1381.3 L561.016 1377.99 L564.141 1377.99 L564.141 1370.63 L568.423 1370.63 Z" fill="#000000" fill-rule="nonzero" fill-opacity="1" /><path clip-path="url(#clip620)" d="M582.798 1377.99 L587.057 1377.99 L587.057 1403.91 L582.798 1403.91 L582.798 1377.99 M582.798 1367.9 L587.057 1367.9 L587.057 1373.29 L582.798 1373.29 L582.798 1367.9 Z" fill="#000000" fill-rule="nonzero" fill-opacity="1" /><path clip-path="url(#clip620)" d="M606.016 1380.97 Q602.59 1380.97 600.599 1383.66 Q598.608 1386.32 598.608 1390.97 Q598.608 1395.63 600.576 1398.31 Q602.566 1400.97 606.016 1400.97 Q609.418 1400.97 611.409 1398.29 Q613.4 1395.6 613.4 1390.97 Q613.4 1386.37 611.409 1383.68 Q609.418 1380.97 606.016 1380.97 M606.016 1377.36 Q611.571 1377.36 614.742 1380.97 Q617.914 1384.59 617.914 1390.97 Q617.914 1397.34 614.742 1400.97 Q611.571 1404.59 606.016 1404.59 Q600.437 1404.59 597.266 1400.97 Q594.117 1397.34 594.117 1390.97 Q594.117 1384.59 597.266 1380.97 Q600.437 1377.36 606.016 1377.36 Z" fill="#000000" fill-rule="nonzero" fill-opacity="1" /><path clip-path="url(#clip620)" d="M646.525 1388.27 L646.525 1403.91 L642.265 1403.91 L642.265 1388.41 Q642.265 1384.72 640.83 1382.9 Q639.395 1381.07 636.525 1381.07 Q633.076 1381.07 631.085 1383.27 Q629.094 1385.47 629.094 1389.26 L629.094 1403.91 L624.812 1403.91 L624.812 1377.99 L629.094 1377.99 L629.094 1382.02 Q630.622 1379.68 632.682 1378.52 Q634.765 1377.36 637.474 1377.36 Q641.941 1377.36 644.233 1380.14 Q646.525 1382.9 646.525 1388.27 Z" fill="#000000" fill-rule="nonzero" fill-opacity="1" /></svg>
