<?xml version="1.0" encoding="utf-8"?>
<svg xmlns="http://www.w3.org/2000/svg" xmlns:xlink="http://www.w3.org/1999/xlink" width="600" height="400" viewBox="0 0 2400 1600">
<defs>
  <clipPath id="clip810">
    <rect x="0" y="0" width="2400" height="1600"/>
  </clipPath>
</defs>
<path clip-path="url(#clip810)" d="M0 1600 L2400 1600 L2400 0 L0 0  Z" fill="#ffffff" fill-rule="evenodd" fill-opacity="1"/>
<defs>
  <clipPath id="clip811">
    <rect x="480" y="0" width="1681" height="1600"/>
  </clipPath>
</defs>
<path clip-path="url(#clip810)" d="M257.204 1423.18 L2352.76 1423.18 L2352.76 47.2441 L257.204 47.2441  Z" fill="#ffffff" fill-rule="evenodd" fill-opacity="1"/>
<defs>
  <clipPath id="clip812">
    <rect x="257" y="47" width="2097" height="1377"/>
  </clipPath>
</defs>
<polyline clip-path="url(#clip812)" style="stroke:#000000; stroke-linecap:round; stroke-linejoin:round; stroke-width:2; stroke-opacity:0.1; fill:none" points="316.511,1423.18 316.511,47.2441 "/>
<polyline clip-path="url(#clip812)" style="stroke:#000000; stroke-linecap:round; stroke-linejoin:round; stroke-width:2; stroke-opacity:0.1; fill:none" points="808.296,1423.18 808.296,47.2441 "/>
<polyline clip-path="url(#clip812)" style="stroke:#000000; stroke-linecap:round; stroke-linejoin:round; stroke-width:2; stroke-opacity:0.1; fill:none" points="1300.08,1423.18 1300.08,47.2441 "/>
<polyline clip-path="url(#clip812)" style="stroke:#000000; stroke-linecap:round; stroke-linejoin:round; stroke-width:2; stroke-opacity:0.1; fill:none" points="1791.87,1423.18 1791.87,47.2441 "/>
<polyline clip-path="url(#clip812)" style="stroke:#000000; stroke-linecap:round; stroke-linejoin:round; stroke-width:2; stroke-opacity:0.1; fill:none" points="2283.65,1423.18 2283.65,47.2441 "/>
<polyline clip-path="url(#clip810)" style="stroke:#000000; stroke-linecap:round; stroke-linejoin:round; stroke-width:4; stroke-opacity:1; fill:none" points="257.204,1423.18 2352.76,1423.18 "/>
<polyline clip-path="url(#clip810)" style="stroke:#000000; stroke-linecap:round; stroke-linejoin:round; stroke-width:4; stroke-opacity:1; fill:none" points="316.511,1423.18 316.511,1404.28 "/>
<polyline clip-path="url(#clip810)" style="stroke:#000000; stroke-linecap:round; stroke-linejoin:round; stroke-width:4; stroke-opacity:1; fill:none" points="808.296,1423.18 808.296,1404.28 "/>
<polyline clip-path="url(#clip810)" style="stroke:#000000; stroke-linecap:round; stroke-linejoin:round; stroke-width:4; stroke-opacity:1; fill:none" points="1300.08,1423.18 1300.08,1404.28 "/>
<polyline clip-path="url(#clip810)" style="stroke:#000000; stroke-linecap:round; stroke-linejoin:round; stroke-width:4; stroke-opacity:1; fill:none" points="1791.87,1423.18 1791.87,1404.28 "/>
<polyline clip-path="url(#clip810)" style="stroke:#000000; stroke-linecap:round; stroke-linejoin:round; stroke-width:4; stroke-opacity:1; fill:none" points="2283.65,1423.18 2283.65,1404.28 "/>
<path clip-path="url(#clip810)" d="M263.039 1468.75 L292.715 1468.75 L292.715 1472.69 L263.039 1472.69 L263.039 1468.75 Z" fill="#000000" fill-rule="nonzero" fill-opacity="1" /><path clip-path="url(#clip810)" d="M303.617 1481.64 L311.256 1481.64 L311.256 1455.28 L302.946 1456.95 L302.946 1452.69 L311.21 1451.02 L315.886 1451.02 L315.886 1481.64 L323.525 1481.64 L323.525 1485.58 L303.617 1485.58 L303.617 1481.64 Z" fill="#000000" fill-rule="nonzero" fill-opacity="1" /><path clip-path="url(#clip810)" d="M332.969 1479.7 L337.853 1479.7 L337.853 1485.58 L332.969 1485.58 L332.969 1479.7 Z" fill="#000000" fill-rule="nonzero" fill-opacity="1" /><path clip-path="url(#clip810)" d="M358.038 1454.1 Q354.427 1454.1 352.599 1457.66 Q350.793 1461.2 350.793 1468.33 Q350.793 1475.44 352.599 1479.01 Q354.427 1482.55 358.038 1482.55 Q361.673 1482.55 363.478 1479.01 Q365.307 1475.44 365.307 1468.33 Q365.307 1461.2 363.478 1457.66 Q361.673 1454.1 358.038 1454.1 M358.038 1450.39 Q363.849 1450.39 366.904 1455 Q369.983 1459.58 369.983 1468.33 Q369.983 1477.06 366.904 1481.67 Q363.849 1486.25 358.038 1486.25 Q352.228 1486.25 349.15 1481.67 Q346.094 1477.06 346.094 1468.33 Q346.094 1459.58 349.15 1455 Q352.228 1450.39 358.038 1450.39 Z" fill="#000000" fill-rule="nonzero" fill-opacity="1" /><path clip-path="url(#clip810)" d="M755.322 1468.75 L784.998 1468.75 L784.998 1472.69 L755.322 1472.69 L755.322 1468.75 Z" fill="#000000" fill-rule="nonzero" fill-opacity="1" /><path clip-path="url(#clip810)" d="M805.09 1454.1 Q801.479 1454.1 799.65 1457.66 Q797.845 1461.2 797.845 1468.33 Q797.845 1475.44 799.65 1479.01 Q801.479 1482.55 805.09 1482.55 Q808.724 1482.55 810.53 1479.01 Q812.359 1475.44 812.359 1468.33 Q812.359 1461.2 810.53 1457.66 Q808.724 1454.1 805.09 1454.1 M805.09 1450.39 Q810.9 1450.39 813.956 1455 Q817.034 1459.58 817.034 1468.33 Q817.034 1477.06 813.956 1481.67 Q810.9 1486.25 805.09 1486.25 Q799.28 1486.25 796.201 1481.67 Q793.146 1477.06 793.146 1468.33 Q793.146 1459.58 796.201 1455 Q799.28 1450.39 805.09 1450.39 Z" fill="#000000" fill-rule="nonzero" fill-opacity="1" /><path clip-path="url(#clip810)" d="M825.252 1479.7 L830.136 1479.7 L830.136 1485.58 L825.252 1485.58 L825.252 1479.7 Z" fill="#000000" fill-rule="nonzero" fill-opacity="1" /><path clip-path="url(#clip810)" d="M840.368 1451.02 L858.724 1451.02 L858.724 1454.96 L844.65 1454.96 L844.65 1463.43 Q845.669 1463.08 846.687 1462.92 Q847.706 1462.73 848.724 1462.73 Q854.511 1462.73 857.891 1465.9 Q861.27 1469.08 861.27 1474.49 Q861.27 1480.07 857.798 1483.17 Q854.326 1486.25 848.006 1486.25 Q845.831 1486.25 843.562 1485.88 Q841.317 1485.51 838.909 1484.77 L838.909 1480.07 Q840.993 1481.2 843.215 1481.76 Q845.437 1482.32 847.914 1482.32 Q851.919 1482.32 854.256 1480.21 Q856.594 1478.1 856.594 1474.49 Q856.594 1470.88 854.256 1468.77 Q851.919 1466.67 847.914 1466.67 Q846.039 1466.67 844.164 1467.08 Q842.312 1467.5 840.368 1468.38 L840.368 1451.02 Z" fill="#000000" fill-rule="nonzero" fill-opacity="1" /><path clip-path="url(#clip810)" d="M1277.47 1454.1 Q1273.85 1454.1 1272.03 1457.66 Q1270.22 1461.2 1270.22 1468.33 Q1270.22 1475.44 1272.03 1479.01 Q1273.85 1482.55 1277.47 1482.55 Q1281.1 1482.55 1282.91 1479.01 Q1284.73 1475.44 1284.73 1468.33 Q1284.73 1461.2 1282.91 1457.66 Q1281.1 1454.1 1277.47 1454.1 M1277.47 1450.39 Q1283.28 1450.39 1286.33 1455 Q1289.41 1459.58 1289.41 1468.33 Q1289.41 1477.06 1286.33 1481.67 Q1283.28 1486.25 1277.47 1486.25 Q1271.66 1486.25 1268.58 1481.67 Q1265.52 1477.06 1265.52 1468.33 Q1265.52 1459.58 1268.58 1455 Q1271.66 1450.39 1277.47 1450.39 Z" fill="#000000" fill-rule="nonzero" fill-opacity="1" /><path clip-path="url(#clip810)" d="M1297.63 1479.7 L1302.51 1479.7 L1302.51 1485.58 L1297.63 1485.58 L1297.63 1479.7 Z" fill="#000000" fill-rule="nonzero" fill-opacity="1" /><path clip-path="url(#clip810)" d="M1322.7 1454.1 Q1319.09 1454.1 1317.26 1457.66 Q1315.45 1461.2 1315.45 1468.33 Q1315.45 1475.44 1317.26 1479.01 Q1319.09 1482.55 1322.7 1482.55 Q1326.33 1482.55 1328.14 1479.01 Q1329.97 1475.44 1329.97 1468.33 Q1329.97 1461.2 1328.14 1457.66 Q1326.33 1454.1 1322.7 1454.1 M1322.7 1450.39 Q1328.51 1450.39 1331.56 1455 Q1334.64 1459.58 1334.64 1468.33 Q1334.64 1477.06 1331.56 1481.67 Q1328.51 1486.25 1322.7 1486.25 Q1316.89 1486.25 1313.81 1481.67 Q1310.75 1477.06 1310.75 1468.33 Q1310.75 1459.58 1313.81 1455 Q1316.89 1450.39 1322.7 1450.39 Z" fill="#000000" fill-rule="nonzero" fill-opacity="1" /><path clip-path="url(#clip810)" d="M1769.75 1454.1 Q1766.14 1454.1 1764.31 1457.66 Q1762.5 1461.2 1762.5 1468.33 Q1762.5 1475.44 1764.31 1479.01 Q1766.14 1482.55 1769.75 1482.55 Q1773.38 1482.55 1775.19 1479.01 Q1777.02 1475.44 1777.02 1468.33 Q1777.02 1461.2 1775.19 1457.66 Q1773.38 1454.1 1769.75 1454.1 M1769.75 1450.39 Q1775.56 1450.39 1778.61 1455 Q1781.69 1459.58 1781.69 1468.33 Q1781.69 1477.06 1778.61 1481.67 Q1775.56 1486.25 1769.75 1486.25 Q1763.94 1486.25 1760.86 1481.67 Q1757.8 1477.06 1757.8 1468.33 Q1757.8 1459.58 1760.86 1455 Q1763.94 1450.39 1769.75 1450.39 Z" fill="#000000" fill-rule="nonzero" fill-opacity="1" /><path clip-path="url(#clip810)" d="M1789.91 1479.7 L1794.79 1479.7 L1794.79 1485.58 L1789.91 1485.58 L1789.91 1479.7 Z" fill="#000000" fill-rule="nonzero" fill-opacity="1" /><path clip-path="url(#clip810)" d="M1805.03 1451.02 L1823.38 1451.02 L1823.38 1454.96 L1809.31 1454.96 L1809.31 1463.43 Q1810.33 1463.08 1811.35 1462.92 Q1812.36 1462.73 1813.38 1462.73 Q1819.17 1462.73 1822.55 1465.9 Q1825.93 1469.08 1825.93 1474.49 Q1825.93 1480.07 1822.46 1483.17 Q1818.98 1486.25 1812.66 1486.25 Q1810.49 1486.25 1808.22 1485.88 Q1805.98 1485.51 1803.57 1484.77 L1803.57 1480.07 Q1805.65 1481.2 1807.87 1481.76 Q1810.1 1482.32 1812.57 1482.32 Q1816.58 1482.32 1818.91 1480.21 Q1821.25 1478.1 1821.25 1474.49 Q1821.25 1470.88 1818.91 1468.77 Q1816.58 1466.67 1812.57 1466.67 Q1810.7 1466.67 1808.82 1467.08 Q1806.97 1467.5 1805.03 1468.38 L1805.03 1451.02 Z" fill="#000000" fill-rule="nonzero" fill-opacity="1" /><path clip-path="url(#clip810)" d="M2250.8 1481.64 L2258.44 1481.64 L2258.44 1455.28 L2250.13 1456.95 L2250.13 1452.69 L2258.4 1451.02 L2263.07 1451.02 L2263.07 1481.64 L2270.71 1481.64 L2270.71 1485.58 L2250.8 1485.58 L2250.8 1481.64 Z" fill="#000000" fill-rule="nonzero" fill-opacity="1" /><path clip-path="url(#clip810)" d="M2280.16 1479.7 L2285.04 1479.7 L2285.04 1485.58 L2280.16 1485.58 L2280.16 1479.7 Z" fill="#000000" fill-rule="nonzero" fill-opacity="1" /><path clip-path="url(#clip810)" d="M2305.23 1454.1 Q2301.61 1454.1 2299.79 1457.66 Q2297.98 1461.2 2297.98 1468.33 Q2297.98 1475.44 2299.79 1479.01 Q2301.61 1482.55 2305.23 1482.55 Q2308.86 1482.55 2310.67 1479.01 Q2312.49 1475.44 2312.49 1468.33 Q2312.49 1461.2 2310.67 1457.66 Q2308.86 1454.1 2305.23 1454.1 M2305.23 1450.39 Q2311.04 1450.39 2314.09 1455 Q2317.17 1459.58 2317.17 1468.33 Q2317.17 1477.06 2314.09 1481.67 Q2311.04 1486.25 2305.23 1486.25 Q2299.42 1486.25 2296.34 1481.67 Q2293.28 1477.06 2293.28 1468.33 Q2293.28 1459.58 2296.34 1455 Q2299.42 1450.39 2305.23 1450.39 Z" fill="#000000" fill-rule="nonzero" fill-opacity="1" /><path clip-path="url(#clip810)" d="M1134.03 1525.81 L1134.03 1543.66 L1142.11 1543.66 Q1146.6 1543.66 1149.05 1541.34 Q1151.5 1539.02 1151.5 1534.72 Q1151.5 1530.45 1149.05 1528.13 Q1146.6 1525.81 1142.11 1525.81 L1134.03 1525.81 M1127.6 1520.52 L1142.11 1520.52 Q1150.1 1520.52 1154.18 1524.15 Q1158.28 1527.75 1158.28 1534.72 Q1158.28 1541.75 1154.18 1545.35 Q1150.1 1548.95 1142.11 1548.95 L1134.03 1548.95 L1134.03 1568.04 L1127.6 1568.04 L1127.6 1520.52 Z" fill="#000000" fill-rule="nonzero" fill-opacity="1" /><path clip-path="url(#clip810)" d="M1178.14 1536.5 Q1173.43 1536.5 1170.7 1540.19 Q1167.96 1543.85 1167.96 1550.25 Q1167.96 1556.65 1170.66 1560.34 Q1173.4 1564 1178.14 1564 Q1182.82 1564 1185.56 1560.31 Q1188.3 1556.62 1188.3 1550.25 Q1188.3 1543.92 1185.56 1540.23 Q1182.82 1536.5 1178.14 1536.5 M1178.14 1531.54 Q1185.78 1531.54 1190.14 1536.5 Q1194.5 1541.47 1194.5 1550.25 Q1194.5 1559 1190.14 1564 Q1185.78 1568.97 1178.14 1568.97 Q1170.47 1568.97 1166.11 1564 Q1161.78 1559 1161.78 1550.25 Q1161.78 1541.47 1166.11 1536.5 Q1170.47 1531.54 1178.14 1531.54 Z" fill="#000000" fill-rule="nonzero" fill-opacity="1" /><path clip-path="url(#clip810)" d="M1226.94 1533.45 L1226.94 1538.98 Q1224.45 1537.71 1221.78 1537.07 Q1219.11 1536.44 1216.24 1536.44 Q1211.88 1536.44 1209.69 1537.77 Q1207.52 1539.11 1207.52 1541.79 Q1207.52 1543.82 1209.08 1545 Q1210.64 1546.15 1215.35 1547.2 L1217.36 1547.64 Q1223.59 1548.98 1226.2 1551.43 Q1228.85 1553.85 1228.85 1558.21 Q1228.85 1563.17 1224.9 1566.07 Q1220.98 1568.97 1214.11 1568.97 Q1211.24 1568.97 1208.13 1568.39 Q1205.04 1567.85 1201.6 1566.74 L1201.6 1560.69 Q1204.85 1562.38 1208 1563.24 Q1211.15 1564.07 1214.24 1564.07 Q1218.37 1564.07 1220.6 1562.66 Q1222.83 1561.23 1222.83 1558.65 Q1222.83 1556.27 1221.21 1554.99 Q1219.62 1553.72 1214.17 1552.54 L1212.14 1552.07 Q1206.69 1550.92 1204.27 1548.56 Q1201.86 1546.18 1201.86 1542.04 Q1201.86 1537.01 1205.42 1534.27 Q1208.99 1531.54 1215.54 1531.54 Q1218.79 1531.54 1221.65 1532.01 Q1224.52 1532.49 1226.94 1533.45 Z" fill="#000000" fill-rule="nonzero" fill-opacity="1" /><path clip-path="url(#clip810)" d="M1238.17 1532.4 L1244.03 1532.4 L1244.03 1568.04 L1238.17 1568.04 L1238.17 1532.4 M1238.17 1518.52 L1244.03 1518.52 L1244.03 1525.93 L1238.17 1525.93 L1238.17 1518.52 Z" fill="#000000" fill-rule="nonzero" fill-opacity="1" /><path clip-path="url(#clip810)" d="M1262.08 1522.27 L1262.08 1532.4 L1274.14 1532.4 L1274.14 1536.95 L1262.08 1536.95 L1262.08 1556.3 Q1262.08 1560.66 1263.25 1561.9 Q1264.46 1563.14 1268.12 1563.14 L1274.14 1563.14 L1274.14 1568.04 L1268.12 1568.04 Q1261.34 1568.04 1258.76 1565.53 Q1256.19 1562.98 1256.19 1556.3 L1256.19 1536.95 L1251.89 1536.95 L1251.89 1532.4 L1256.19 1532.4 L1256.19 1522.27 L1262.08 1522.27 Z" fill="#000000" fill-rule="nonzero" fill-opacity="1" /><path clip-path="url(#clip810)" d="M1281.84 1532.4 L1287.7 1532.4 L1287.7 1568.04 L1281.84 1568.04 L1281.84 1532.4 M1281.84 1518.52 L1287.7 1518.52 L1287.7 1525.93 L1281.84 1525.93 L1281.84 1518.52 Z" fill="#000000" fill-rule="nonzero" fill-opacity="1" /><path clip-path="url(#clip810)" d="M1313.76 1536.5 Q1309.05 1536.5 1306.32 1540.19 Q1303.58 1543.85 1303.58 1550.25 Q1303.58 1556.65 1306.28 1560.34 Q1309.02 1564 1313.76 1564 Q1318.44 1564 1321.18 1560.31 Q1323.92 1556.62 1323.92 1550.25 Q1323.92 1543.92 1321.18 1540.23 Q1318.44 1536.5 1313.76 1536.5 M1313.76 1531.54 Q1321.4 1531.54 1325.76 1536.5 Q1330.12 1541.47 1330.12 1550.25 Q1330.12 1559 1325.76 1564 Q1321.4 1568.97 1313.76 1568.97 Q1306.09 1568.97 1301.73 1564 Q1297.4 1559 1297.4 1550.25 Q1297.4 1541.47 1301.73 1536.5 Q1306.09 1531.54 1313.76 1531.54 Z" fill="#000000" fill-rule="nonzero" fill-opacity="1" /><path clip-path="url(#clip810)" d="M1369.46 1546.53 L1369.46 1568.04 L1363.61 1568.04 L1363.61 1546.72 Q1363.61 1541.66 1361.63 1539.14 Q1359.66 1536.63 1355.71 1536.63 Q1350.97 1536.63 1348.23 1539.65 Q1345.5 1542.68 1345.5 1547.9 L1345.5 1568.04 L1339.61 1568.04 L1339.61 1532.4 L1345.5 1532.4 L1345.5 1537.93 Q1347.6 1534.72 1350.43 1533.13 Q1353.3 1531.54 1357.02 1531.54 Q1363.16 1531.54 1366.31 1535.36 Q1369.46 1539.14 1369.46 1546.53 Z" fill="#000000" fill-rule="nonzero" fill-opacity="1" /><path clip-path="url(#clip810)" d="M1415.93 1518.58 Q1411.67 1525.9 1409.6 1533.06 Q1407.53 1540.23 1407.53 1547.58 Q1407.53 1554.93 1409.6 1562.16 Q1411.7 1569.35 1415.93 1576.64 L1410.84 1576.64 Q1406.07 1569.16 1403.68 1561.93 Q1401.32 1554.71 1401.32 1547.58 Q1401.32 1540.48 1403.68 1533.29 Q1406.04 1526.09 1410.84 1518.58 L1415.93 1518.58 Z" fill="#000000" fill-rule="nonzero" fill-opacity="1" /><path clip-path="url(#clip810)" d="M1430.8 1550.25 Q1430.8 1556.71 1433.44 1560.4 Q1436.11 1564.07 1440.76 1564.07 Q1445.41 1564.07 1448.08 1560.4 Q1450.75 1556.71 1450.75 1550.25 Q1450.75 1543.79 1448.08 1540.13 Q1445.41 1536.44 1440.76 1536.44 Q1436.11 1536.44 1433.44 1540.13 Q1430.8 1543.79 1430.8 1550.25 M1450.75 1562.7 Q1448.91 1565.88 1446.08 1567.44 Q1443.27 1568.97 1439.33 1568.97 Q1432.87 1568.97 1428.79 1563.81 Q1424.75 1558.65 1424.75 1550.25 Q1424.75 1541.85 1428.79 1536.69 Q1432.87 1531.54 1439.33 1531.54 Q1443.27 1531.54 1446.08 1533.1 Q1448.91 1534.62 1450.75 1537.81 L1450.75 1532.4 L1456.61 1532.4 L1456.61 1581.6 L1450.75 1581.6 L1450.75 1562.7 Z" fill="#000000" fill-rule="nonzero" fill-opacity="1" /><path clip-path="url(#clip810)" d="M1467.75 1518.58 L1472.84 1518.58 Q1477.62 1526.09 1479.97 1533.29 Q1482.36 1540.48 1482.36 1547.58 Q1482.36 1554.71 1479.97 1561.93 Q1477.62 1569.16 1472.84 1576.64 L1467.75 1576.64 Q1471.98 1569.35 1474.05 1562.16 Q1476.15 1554.93 1476.15 1547.58 Q1476.15 1540.23 1474.05 1533.06 Q1471.98 1525.9 1467.75 1518.58 Z" fill="#000000" fill-rule="nonzero" fill-opacity="1" /><polyline clip-path="url(#clip812)" style="stroke:#000000; stroke-linecap:round; stroke-linejoin:round; stroke-width:2; stroke-opacity:0.1; fill:none" points="257.204,1384.24 2352.76,1384.24 "/>
<polyline clip-path="url(#clip812)" style="stroke:#000000; stroke-linecap:round; stroke-linejoin:round; stroke-width:2; stroke-opacity:0.1; fill:none" points="257.204,1059.73 2352.76,1059.73 "/>
<polyline clip-path="url(#clip812)" style="stroke:#000000; stroke-linecap:round; stroke-linejoin:round; stroke-width:2; stroke-opacity:0.1; fill:none" points="257.204,735.213 2352.76,735.213 "/>
<polyline clip-path="url(#clip812)" style="stroke:#000000; stroke-linecap:round; stroke-linejoin:round; stroke-width:2; stroke-opacity:0.1; fill:none" points="257.204,410.7 2352.76,410.7 "/>
<polyline clip-path="url(#clip812)" style="stroke:#000000; stroke-linecap:round; stroke-linejoin:round; stroke-width:2; stroke-opacity:0.1; fill:none" points="257.204,86.1857 2352.76,86.1857 "/>
<polyline clip-path="url(#clip810)" style="stroke:#000000; stroke-linecap:round; stroke-linejoin:round; stroke-width:4; stroke-opacity:1; fill:none" points="257.204,1423.18 257.204,47.2441 "/>
<polyline clip-path="url(#clip810)" style="stroke:#000000; stroke-linecap:round; stroke-linejoin:round; stroke-width:4; stroke-opacity:1; fill:none" points="257.204,1384.24 276.102,1384.24 "/>
<polyline clip-path="url(#clip810)" style="stroke:#000000; stroke-linecap:round; stroke-linejoin:round; stroke-width:4; stroke-opacity:1; fill:none" points="257.204,1059.73 276.102,1059.73 "/>
<polyline clip-path="url(#clip810)" style="stroke:#000000; stroke-linecap:round; stroke-linejoin:round; stroke-width:4; stroke-opacity:1; fill:none" points="257.204,735.213 276.102,735.213 "/>
<polyline clip-path="url(#clip810)" style="stroke:#000000; stroke-linecap:round; stroke-linejoin:round; stroke-width:4; stroke-opacity:1; fill:none" points="257.204,410.7 276.102,410.7 "/>
<polyline clip-path="url(#clip810)" style="stroke:#000000; stroke-linecap:round; stroke-linejoin:round; stroke-width:4; stroke-opacity:1; fill:none" points="257.204,86.1857 276.102,86.1857 "/>
<path clip-path="url(#clip810)" d="M114.26 1384.69 L143.936 1384.69 L143.936 1388.63 L114.26 1388.63 L114.26 1384.69 Z" fill="#000000" fill-rule="nonzero" fill-opacity="1" /><path clip-path="url(#clip810)" d="M154.839 1397.59 L162.477 1397.59 L162.477 1371.22 L154.167 1372.89 L154.167 1368.63 L162.431 1366.96 L167.107 1366.96 L167.107 1397.59 L174.746 1397.59 L174.746 1401.52 L154.839 1401.52 L154.839 1397.59 Z" fill="#000000" fill-rule="nonzero" fill-opacity="1" /><path clip-path="url(#clip810)" d="M184.19 1395.64 L189.075 1395.64 L189.075 1401.52 L184.19 1401.52 L184.19 1395.64 Z" fill="#000000" fill-rule="nonzero" fill-opacity="1" /><path clip-path="url(#clip810)" d="M209.26 1370.04 Q205.649 1370.04 203.82 1373.6 Q202.014 1377.15 202.014 1384.28 Q202.014 1391.38 203.82 1394.95 Q205.649 1398.49 209.26 1398.49 Q212.894 1398.49 214.699 1394.95 Q216.528 1391.38 216.528 1384.28 Q216.528 1377.15 214.699 1373.6 Q212.894 1370.04 209.26 1370.04 M209.26 1366.34 Q215.07 1366.34 218.125 1370.94 Q221.204 1375.53 221.204 1384.28 Q221.204 1393 218.125 1397.61 Q215.07 1402.19 209.26 1402.19 Q203.449 1402.19 200.371 1397.61 Q197.315 1393 197.315 1384.28 Q197.315 1375.53 200.371 1370.94 Q203.449 1366.34 209.26 1366.34 Z" fill="#000000" fill-rule="nonzero" fill-opacity="1" /><path clip-path="url(#clip810)" d="M115.256 1060.18 L144.931 1060.18 L144.931 1064.11 L115.256 1064.11 L115.256 1060.18 Z" fill="#000000" fill-rule="nonzero" fill-opacity="1" /><path clip-path="url(#clip810)" d="M165.024 1045.53 Q161.413 1045.53 159.584 1049.09 Q157.778 1052.63 157.778 1059.76 Q157.778 1066.87 159.584 1070.43 Q161.413 1073.98 165.024 1073.98 Q168.658 1073.98 170.464 1070.43 Q172.292 1066.87 172.292 1059.76 Q172.292 1052.63 170.464 1049.09 Q168.658 1045.53 165.024 1045.53 M165.024 1041.82 Q170.834 1041.82 173.889 1046.43 Q176.968 1051.01 176.968 1059.76 Q176.968 1068.49 173.889 1073.1 Q170.834 1077.68 165.024 1077.68 Q159.214 1077.68 156.135 1073.1 Q153.079 1068.49 153.079 1059.76 Q153.079 1051.01 156.135 1046.43 Q159.214 1041.82 165.024 1041.82 Z" fill="#000000" fill-rule="nonzero" fill-opacity="1" /><path clip-path="url(#clip810)" d="M185.186 1071.13 L190.07 1071.13 L190.07 1077.01 L185.186 1077.01 L185.186 1071.13 Z" fill="#000000" fill-rule="nonzero" fill-opacity="1" /><path clip-path="url(#clip810)" d="M200.301 1042.45 L218.658 1042.45 L218.658 1046.38 L204.584 1046.38 L204.584 1054.85 Q205.602 1054.51 206.621 1054.35 Q207.639 1054.16 208.658 1054.16 Q214.445 1054.16 217.824 1057.33 Q221.204 1060.5 221.204 1065.92 Q221.204 1071.5 217.732 1074.6 Q214.26 1077.68 207.94 1077.68 Q205.764 1077.68 203.496 1077.31 Q201.25 1076.94 198.843 1076.2 L198.843 1071.5 Q200.926 1072.63 203.149 1073.19 Q205.371 1073.74 207.848 1073.74 Q211.852 1073.74 214.19 1071.64 Q216.528 1069.53 216.528 1065.92 Q216.528 1062.31 214.19 1060.2 Q211.852 1058.1 207.848 1058.1 Q205.973 1058.1 204.098 1058.51 Q202.246 1058.93 200.301 1059.81 L200.301 1042.45 Z" fill="#000000" fill-rule="nonzero" fill-opacity="1" /><path clip-path="url(#clip810)" d="M164.028 721.012 Q160.417 721.012 158.589 724.577 Q156.783 728.119 156.783 735.248 Q156.783 742.355 158.589 745.919 Q160.417 749.461 164.028 749.461 Q167.663 749.461 169.468 745.919 Q171.297 742.355 171.297 735.248 Q171.297 728.119 169.468 724.577 Q167.663 721.012 164.028 721.012 M164.028 717.308 Q169.839 717.308 172.894 721.915 Q175.973 726.498 175.973 735.248 Q175.973 743.975 172.894 748.581 Q169.839 753.165 164.028 753.165 Q158.218 753.165 155.14 748.581 Q152.084 743.975 152.084 735.248 Q152.084 726.498 155.14 721.915 Q158.218 717.308 164.028 717.308 Z" fill="#000000" fill-rule="nonzero" fill-opacity="1" /><path clip-path="url(#clip810)" d="M184.19 746.614 L189.075 746.614 L189.075 752.493 L184.19 752.493 L184.19 746.614 Z" fill="#000000" fill-rule="nonzero" fill-opacity="1" /><path clip-path="url(#clip810)" d="M209.26 721.012 Q205.649 721.012 203.82 724.577 Q202.014 728.119 202.014 735.248 Q202.014 742.355 203.82 745.919 Q205.649 749.461 209.26 749.461 Q212.894 749.461 214.699 745.919 Q216.528 742.355 216.528 735.248 Q216.528 728.119 214.699 724.577 Q212.894 721.012 209.26 721.012 M209.26 717.308 Q215.07 717.308 218.125 721.915 Q221.204 726.498 221.204 735.248 Q221.204 743.975 218.125 748.581 Q215.07 753.165 209.26 753.165 Q203.449 753.165 200.371 748.581 Q197.315 743.975 197.315 735.248 Q197.315 726.498 200.371 721.915 Q203.449 717.308 209.26 717.308 Z" fill="#000000" fill-rule="nonzero" fill-opacity="1" /><path clip-path="url(#clip810)" d="M165.024 396.498 Q161.413 396.498 159.584 400.063 Q157.778 403.605 157.778 410.734 Q157.778 417.841 159.584 421.406 Q161.413 424.947 165.024 424.947 Q168.658 424.947 170.464 421.406 Q172.292 417.841 172.292 410.734 Q172.292 403.605 170.464 400.063 Q168.658 396.498 165.024 396.498 M165.024 392.795 Q170.834 392.795 173.889 397.401 Q176.968 401.984 176.968 410.734 Q176.968 419.461 173.889 424.068 Q170.834 428.651 165.024 428.651 Q159.214 428.651 156.135 424.068 Q153.079 419.461 153.079 410.734 Q153.079 401.984 156.135 397.401 Q159.214 392.795 165.024 392.795 Z" fill="#000000" fill-rule="nonzero" fill-opacity="1" /><path clip-path="url(#clip810)" d="M185.186 422.1 L190.07 422.1 L190.07 427.98 L185.186 427.98 L185.186 422.1 Z" fill="#000000" fill-rule="nonzero" fill-opacity="1" /><path clip-path="url(#clip810)" d="M200.301 393.42 L218.658 393.42 L218.658 397.355 L204.584 397.355 L204.584 405.827 Q205.602 405.48 206.621 405.318 Q207.639 405.132 208.658 405.132 Q214.445 405.132 217.824 408.304 Q221.204 411.475 221.204 416.892 Q221.204 422.47 217.732 425.572 Q214.26 428.651 207.94 428.651 Q205.764 428.651 203.496 428.281 Q201.25 427.91 198.843 427.169 L198.843 422.47 Q200.926 423.605 203.149 424.16 Q205.371 424.716 207.848 424.716 Q211.852 424.716 214.19 422.609 Q216.528 420.503 216.528 416.892 Q216.528 413.281 214.19 411.174 Q211.852 409.068 207.848 409.068 Q205.973 409.068 204.098 409.484 Q202.246 409.901 200.301 410.781 L200.301 393.42 Z" fill="#000000" fill-rule="nonzero" fill-opacity="1" /><path clip-path="url(#clip810)" d="M154.839 99.5305 L162.477 99.5305 L162.477 73.1649 L154.167 74.8316 L154.167 70.5723 L162.431 68.9057 L167.107 68.9057 L167.107 99.5305 L174.746 99.5305 L174.746 103.466 L154.839 103.466 L154.839 99.5305 Z" fill="#000000" fill-rule="nonzero" fill-opacity="1" /><path clip-path="url(#clip810)" d="M184.19 97.5861 L189.075 97.5861 L189.075 103.466 L184.19 103.466 L184.19 97.5861 Z" fill="#000000" fill-rule="nonzero" fill-opacity="1" /><path clip-path="url(#clip810)" d="M209.26 71.9844 Q205.649 71.9844 203.82 75.5492 Q202.014 79.0908 202.014 86.2204 Q202.014 93.3268 203.82 96.8916 Q205.649 100.433 209.26 100.433 Q212.894 100.433 214.699 96.8916 Q216.528 93.3268 216.528 86.2204 Q216.528 79.0908 214.699 75.5492 Q212.894 71.9844 209.26 71.9844 M209.26 68.2807 Q215.07 68.2807 218.125 72.8871 Q221.204 77.4704 221.204 86.2204 Q221.204 94.9472 218.125 99.5537 Q215.07 104.137 209.26 104.137 Q203.449 104.137 200.371 99.5537 Q197.315 94.9472 197.315 86.2204 Q197.315 77.4704 200.371 72.8871 Q203.449 68.2807 209.26 68.2807 Z" fill="#000000" fill-rule="nonzero" fill-opacity="1" /><path clip-path="url(#clip810)" d="M16.4842 971.396 L16.4842 961.815 L48.8219 949.689 L16.4842 937.498 L16.4842 927.918 L64.0042 927.918 L64.0042 934.188 L22.277 934.188 L54.8694 946.442 L54.8694 952.903 L22.277 965.157 L64.0042 965.157 L64.0042 971.396 L16.4842 971.396 Z" fill="#000000" fill-rule="nonzero" fill-opacity="1" /><path clip-path="url(#clip810)" d="M32.4621 901.596 Q32.4621 906.306 36.1542 909.044 Q39.8145 911.781 46.212 911.781 Q52.6095 911.781 56.3017 909.075 Q59.9619 906.338 59.9619 901.596 Q59.9619 896.917 56.2698 894.18 Q52.5777 891.442 46.212 891.442 Q39.8781 891.442 36.186 894.18 Q32.4621 896.917 32.4621 901.596 M27.4968 901.596 Q27.4968 893.957 32.4621 889.596 Q37.4273 885.236 46.212 885.236 Q54.9649 885.236 59.9619 889.596 Q64.9272 893.957 64.9272 901.596 Q64.9272 909.266 59.9619 913.627 Q54.9649 917.955 46.212 917.955 Q37.4273 917.955 32.4621 913.627 Q27.4968 909.266 27.4968 901.596 Z" fill="#000000" fill-rule="nonzero" fill-opacity="1" /><path clip-path="url(#clip810)" d="M35.1993 847.774 Q31.2526 845.577 29.3747 842.522 Q27.4968 839.466 27.4968 835.329 Q27.4968 829.759 31.4117 826.735 Q35.2948 823.711 42.4881 823.711 L64.0042 823.711 L64.0042 829.599 L42.679 829.599 Q37.5546 829.599 35.072 831.414 Q32.5894 833.228 32.5894 836.952 Q32.5894 841.503 35.6131 844.145 Q38.6368 846.787 43.8567 846.787 L64.0042 846.787 L64.0042 852.675 L42.679 852.675 Q37.5228 852.675 35.072 854.489 Q32.5894 856.304 32.5894 860.091 Q32.5894 864.579 35.6449 867.221 Q38.6686 869.863 43.8567 869.863 L64.0042 869.863 L64.0042 875.751 L28.3562 875.751 L28.3562 869.863 L33.8944 869.863 Q30.616 867.857 29.0564 865.056 Q27.4968 862.256 27.4968 858.404 Q27.4968 854.521 29.4702 851.816 Q31.4436 849.079 35.1993 847.774 Z" fill="#000000" fill-rule="nonzero" fill-opacity="1" /><path clip-path="url(#clip810)" d="M44.7161 781.538 L47.5806 781.538 L47.5806 808.465 Q53.6281 808.083 56.8109 804.837 Q59.9619 801.559 59.9619 795.734 Q59.9619 792.36 59.1344 789.209 Q58.3069 786.026 56.6518 782.907 L62.1899 782.907 Q63.5267 786.058 64.227 789.368 Q64.9272 792.678 64.9272 796.084 Q64.9272 804.614 59.9619 809.611 Q54.9967 814.576 46.5303 814.576 Q37.7774 814.576 32.6531 809.866 Q27.4968 805.123 27.4968 797.103 Q27.4968 789.909 32.1438 785.74 Q36.7589 781.538 44.7161 781.538 M42.9973 787.395 Q38.1912 787.459 35.3266 790.1 Q32.4621 792.71 32.4621 797.039 Q32.4621 801.94 35.2312 804.901 Q38.0002 807.829 43.0292 808.274 L42.9973 787.395 Z" fill="#000000" fill-rule="nonzero" fill-opacity="1" /><path clip-path="url(#clip810)" d="M42.4881 742.294 L64.0042 742.294 L64.0042 748.15 L42.679 748.15 Q37.6183 748.15 35.1038 750.124 Q32.5894 752.097 32.5894 756.044 Q32.5894 760.786 35.6131 763.523 Q38.6368 766.261 43.8567 766.261 L64.0042 766.261 L64.0042 772.149 L28.3562 772.149 L28.3562 766.261 L33.8944 766.261 Q30.6797 764.16 29.0883 761.327 Q27.4968 758.463 27.4968 754.739 Q27.4968 748.596 31.3163 745.445 Q35.1038 742.294 42.4881 742.294 Z" fill="#000000" fill-rule="nonzero" fill-opacity="1" /><path clip-path="url(#clip810)" d="M18.2347 724.82 L28.3562 724.82 L28.3562 712.757 L32.9077 712.757 L32.9077 724.82 L52.2594 724.82 Q56.6199 724.82 57.8613 723.642 Q59.1026 722.433 59.1026 718.773 L59.1026 712.757 L64.0042 712.757 L64.0042 718.773 Q64.0042 725.552 61.4897 728.13 Q58.9434 730.708 52.2594 730.708 L32.9077 730.708 L32.9077 735.005 L28.3562 735.005 L28.3562 730.708 L18.2347 730.708 L18.2347 724.82 Z" fill="#000000" fill-rule="nonzero" fill-opacity="1" /><path clip-path="url(#clip810)" d="M49.9359 705.659 L28.3562 705.659 L28.3562 699.803 L49.7131 699.803 Q54.7739 699.803 57.3202 697.829 Q59.8346 695.856 59.8346 691.909 Q59.8346 687.167 56.8109 684.43 Q53.7872 681.66 48.5673 681.66 L28.3562 681.66 L28.3562 675.804 L64.0042 675.804 L64.0042 681.66 L58.5296 681.66 Q61.7762 683.793 63.3676 686.626 Q64.9272 689.427 64.9272 693.151 Q64.9272 699.293 61.1078 702.476 Q57.2883 705.659 49.9359 705.659 M27.4968 690.923 L27.4968 690.923 Z" fill="#000000" fill-rule="nonzero" fill-opacity="1" /><path clip-path="url(#clip810)" d="M35.1993 635.987 Q31.2526 633.79 29.3747 630.735 Q27.4968 627.679 27.4968 623.542 Q27.4968 617.972 31.4117 614.948 Q35.2948 611.924 42.4881 611.924 L64.0042 611.924 L64.0042 617.812 L42.679 617.812 Q37.5546 617.812 35.072 619.627 Q32.5894 621.441 32.5894 625.165 Q32.5894 629.716 35.6131 632.358 Q38.6368 635 43.8567 635 L64.0042 635 L64.0042 640.888 L42.679 640.888 Q37.5228 640.888 35.072 642.702 Q32.5894 644.517 32.5894 648.304 Q32.5894 652.792 35.6449 655.434 Q38.6686 658.076 43.8567 658.076 L64.0042 658.076 L64.0042 663.964 L28.3562 663.964 L28.3562 658.076 L33.8944 658.076 Q30.616 656.07 29.0564 653.269 Q27.4968 650.468 27.4968 646.617 Q27.4968 642.734 29.4702 640.029 Q31.4436 637.291 35.1993 635.987 Z" fill="#000000" fill-rule="nonzero" fill-opacity="1" /><path clip-path="url(#clip810)" d="M14.5426 565.454 Q21.8632 569.72 29.0246 571.788 Q36.186 573.857 43.5384 573.857 Q50.8908 573.857 58.1159 571.788 Q65.3091 569.688 72.5979 565.454 L72.5979 570.547 Q65.1182 575.321 57.8931 577.708 Q50.668 580.064 43.5384 580.064 Q36.4406 580.064 29.2474 577.708 Q22.0542 575.353 14.5426 570.547 L14.5426 565.454 Z" fill="#000000" fill-rule="nonzero" fill-opacity="1" /><path clip-path="url(#clip810)" d="M58.657 548.426 L77.5631 548.426 L77.5631 554.315 L28.3562 554.315 L28.3562 548.426 L33.7671 548.426 Q30.5842 546.58 29.0564 543.779 Q27.4968 540.947 27.4968 537.032 Q27.4968 530.539 32.6531 526.496 Q37.8093 522.422 46.212 522.422 Q54.6147 522.422 59.771 526.496 Q64.9272 530.539 64.9272 537.032 Q64.9272 540.947 63.3994 543.779 Q61.8398 546.58 58.657 548.426 M46.212 528.502 Q39.7508 528.502 36.0905 531.175 Q32.3984 533.817 32.3984 538.464 Q32.3984 543.111 36.0905 545.784 Q39.7508 548.426 46.212 548.426 Q52.6732 548.426 56.3653 545.784 Q60.0256 543.111 60.0256 538.464 Q60.0256 533.817 56.3653 531.175 Q52.6732 528.502 46.212 528.502 Z" fill="#000000" fill-rule="nonzero" fill-opacity="1" /><path clip-path="url(#clip810)" d="M14.5426 513.638 L14.5426 508.545 Q22.0542 503.771 29.2474 501.415 Q36.4406 499.028 43.5384 499.028 Q50.668 499.028 57.8931 501.415 Q65.1182 503.771 72.5979 508.545 L72.5979 513.638 Q65.3091 509.404 58.1159 507.336 Q50.8908 505.235 43.5384 505.235 Q36.186 505.235 29.0246 507.336 Q21.8632 509.404 14.5426 513.638 Z" fill="#000000" fill-rule="nonzero" fill-opacity="1" /><polyline clip-path="url(#clip812)" style="stroke:#009af9; stroke-linecap:round; stroke-linejoin:round; stroke-width:16; stroke-opacity:1; fill:none" points="1300.08,86.1857 1306.12,86.1979 1312.16,86.2346 1318.2,86.2958 1324.24,86.3815 1330.28,86.4917 1336.32,86.6263 1342.36,86.7854 1348.39,86.969 1354.42,87.177 1360.45,87.4095 1366.48,87.6663 1372.51,87.9477 1378.53,88.2534 1384.55,88.5836 1390.57,88.9381 1396.58,89.317 1402.59,89.7203 1408.6,90.148 1414.6,90.5999 1420.6,91.0762 1426.59,91.5768 1432.58,92.1017 1438.56,92.6508 1444.54,93.2242 1450.51,93.8217 1456.48,94.4435 1462.44,95.0894 1468.4,95.7595 1474.35,96.4537 1480.29,97.1721 1486.22,97.9144 1492.15,98.6809 1498.07,99.4713 1503.99,100.286 1509.89,101.124 1515.79,101.986 1521.68,102.873 1527.56,103.783 1533.43,104.716 1539.3,105.674 1545.15,106.655 1551,107.661 1556.84,108.689 1562.66,109.742 1568.48,110.818 1574.29,111.917 1580.08,113.04 1585.87,114.187 1591.64,115.357 1597.41,116.55 1603.16,117.767 1608.9,119.007 1614.63,120.27 1620.35,121.556 1626.05,122.866 1631.75,124.199 1637.43,125.554 1643.1,126.933 1648.75,128.335 1654.39,129.759 1660.02,131.207 1665.64,132.677 1671.24,134.17 1676.83,135.685 1682.4,137.224 1687.96,138.784 1693.5,140.368 1699.03,141.973 1704.55,143.601 1710.04,145.252 1715.53,146.924 1721,148.619 1726.45,150.336 1731.88,152.075 1737.3,153.836 1742.71,155.619 1748.09,157.424 1753.46,159.251 1758.81,161.099 1764.15,162.969 1769.47,164.861 1774.77,166.774 1780.05,168.708 1785.31,170.664 1790.56,172.641 1795.78,174.64 1800.99,176.659 1806.18,178.7 1811.35,180.762 1816.5,182.844 1821.64,184.948 1826.75,187.072 1831.84,189.217 1836.91,191.382 1841.96,193.568 1846.99,195.774 1852.01,198.001 1856.99,200.248 1861.96,202.515 1866.91,204.802 1871.84,207.11 1876.74,209.437 1881.62,211.784 1886.49,214.151 1891.32,216.537 1896.14,218.943 1900.94,221.369 1905.71,223.814 1910.46,226.278 1915.18,228.761 1919.88,231.263 1924.56,233.785 1929.22,236.325 1933.85,238.885 1938.46,241.462 1943.04,244.059 1947.6,246.674 1952.13,249.308 1956.65,251.959 1961.13,254.629 1965.59,257.318 1970.03,260.024 1974.44,262.748 1978.82,265.49 1983.18,268.25 1987.52,271.027 1991.82,273.822 1996.1,276.634 2000.36,279.464 2004.59,282.31 2008.79,285.174 2012.97,288.055 2017.11,290.952 2021.24,293.867 2025.33,296.798 2029.4,299.745 2033.44,302.71 2037.45,305.69 2041.43,308.686 2045.39,311.699 2049.32,314.728 2053.22,317.772 2057.09,320.832 2060.93,323.908 2064.74,326.999 2068.53,330.106 2072.29,333.228 2076.01,336.365 2079.71,339.518 2083.38,342.685 2087.02,345.867 2090.63,349.064 2094.21,352.275 2097.75,355.5 2101.27,358.74 2104.76,361.995 2108.22,365.263 2111.65,368.545 2115.05,371.841 2118.41,375.151 2121.75,378.474 2125.05,381.811 2128.33,385.161 2131.57,388.525 2134.78,391.901 2137.96,395.291 2141.11,398.693 2144.23,402.108 2147.31,405.535 2150.36,408.975 2153.38,412.427 2156.37,415.892 2159.33,419.368 2162.25,422.856 2165.14,426.357 2168,429.868 2170.83,433.392 2173.62,436.926 2176.38,440.472 2179.11,444.029 2181.8,447.597 2184.46,451.176 2187.09,454.766 2189.68,458.366 2192.24,461.977 2194.77,465.598 2197.26,469.229 2199.72,472.87 2202.14,476.521 2204.54,480.182 2206.89,483.852 2209.21,487.532 2211.5,491.221 2213.76,494.92 2215.98,498.627 2218.16,502.344 2220.31,506.069 2222.43,509.803 2224.51,513.545 2226.55,517.296 2228.56,521.055 2230.54,524.822 2232.48,528.597 2234.39,532.38 2236.26,536.17 2238.09,539.968 2239.89,543.773 2241.65,547.586 2243.38,551.405 2245.08,555.232 2246.73,559.065 2248.36,562.905 2249.94,566.751 2251.49,570.604 2253.01,574.463 2254.48,578.328 2255.93,582.199 2257.33,586.076 2258.7,589.959 2260.04,593.846 2261.33,597.74 2262.6,601.638 2263.82,605.542 2265.01,609.45 2266.16,613.363 2267.28,617.281 2268.36,621.203 2269.4,625.129 2270.41,629.06 2271.38,632.994 2272.31,636.933 2273.21,640.875 2274.07,644.821 2274.89,648.77 2275.67,652.722 2276.42,656.677 2277.14,660.636 2277.81,664.597 2278.45,668.561 2279.05,672.528 2279.62,676.496 2280.15,680.467 2280.64,684.44 2281.09,688.415 2281.51,692.392 2281.89,696.371 2282.23,700.35 2282.54,704.332 2282.81,708.314 2283.04,712.297 2283.23,716.281 2283.39,720.266 2283.51,724.252 2283.59,728.238 2283.64,732.224 2283.65,736.21 2283.62,740.196 2283.56,744.182 2283.46,748.168 2283.32,752.153 2283.14,756.138 2282.93,760.122 2282.68,764.105 2282.39,768.086 2282.06,772.067 2281.7,776.046 2281.3,780.023 2280.87,783.999 2280.4,787.973 2279.89,791.945 2279.34,795.915 2278.76,799.883 2278.14,803.848 2277.48,807.811 2276.78,811.771 2276.05,815.728 2275.29,819.682 2274.48,823.632 2273.64,827.58 2272.76,831.524 2271.85,835.464 2270.9,839.401 2269.91,843.333 2268.88,847.262 2267.82,851.186 2266.72,855.106 2265.59,859.021 2264.42,862.932 2263.21,866.838 2261.97,870.739 2260.69,874.635 2259.37,878.525 2258.02,882.41 2256.63,886.29 2255.21,890.164 2253.75,894.032 2252.25,897.894 2250.72,901.75 2249.15,905.6 2247.55,909.443 2245.91,913.279 2244.23,917.109 2242.52,920.932 2240.78,924.749 2239,928.557 2237.18,932.359 2235.33,936.153 2233.44,939.94 2231.51,943.719 2229.56,947.49 2227.56,951.253 2225.53,955.008 2223.47,958.754 2221.37,962.492 2219.24,966.222 2217.07,969.943 2214.87,973.655 2212.63,977.358 2210.36,981.052 2208.06,984.736 2205.72,988.411 2203.34,992.077 2200.94,995.733 2198.49,999.379 2196.02,1003.02 2193.51,1006.64 2190.97,1010.26 2188.39,1013.86 2185.78,1017.46 2183.13,1021.04 2180.46,1024.62 2177.75,1028.18 2175,1031.73 2172.23,1035.27 2169.42,1038.8 2166.58,1042.32 2163.7,1045.82 2160.79,1049.32 2157.85,1052.8 2154.88,1056.27 2151.88,1059.73 2148.84,1063.17 2145.77,1066.61 2142.67,1070.03 2139.54,1073.44 2136.38,1076.83 2133.18,1080.22 2129.95,1083.59 2126.7,1086.94 2123.41,1090.29 2120.09,1093.62 2116.73,1096.93 2113.35,1100.24 2109.94,1103.52 2106.5,1106.8 2103.02,1110.06 2099.52,1113.31 2095.98,1116.54 2092.42,1119.76 2088.83,1122.96 2085.2,1126.15 2081.55,1129.33 2077.86,1132.49 2074.15,1135.63 2070.41,1138.76 2066.64,1141.88 2062.84,1144.98 2059.01,1148.06 2055.16,1151.13 2051.27,1154.18 2047.36,1157.22 2043.41,1160.24 2039.44,1163.24 2035.45,1166.23 2031.42,1169.2 2027.37,1172.16 2023.29,1175.1 2019.18,1178.02 2015.04,1180.93 2010.88,1183.81 2006.69,1186.69 2002.48,1189.54 1998.23,1192.38 1993.97,1195.2 1989.67,1198 1985.35,1200.79 1981.01,1203.56 1976.63,1206.31 1972.24,1209.04 1967.81,1211.76 1963.36,1214.46 1958.89,1217.13 1954.39,1219.8 1949.87,1222.44 1945.32,1225.06 1940.75,1227.67 1936.16,1230.26 1931.54,1232.82 1926.89,1235.37 1922.23,1237.91 1917.53,1240.42 1912.82,1242.91 1908.08,1245.38 1903.32,1247.84 1898.54,1250.27 1893.74,1252.69 1888.91,1255.09 1884.06,1257.46 1879.19,1259.82 1874.29,1262.16 1869.38,1264.47 1864.44,1266.77 1859.48,1269.05 1854.5,1271.31 1849.5,1273.54 1844.48,1275.76 1839.44,1277.95 1834.38,1280.13 1829.3,1282.29 1824.19,1284.42 1819.07,1286.53 1813.93,1288.63 1808.77,1290.7 1803.59,1292.75 1798.39,1294.78 1793.17,1296.79 1787.94,1298.78 1782.68,1300.74 1777.41,1302.69 1772.12,1304.61 1766.81,1306.52 1761.48,1308.4 1756.14,1310.25 1750.78,1312.09 1745.4,1313.91 1740.01,1315.7 1734.6,1317.47 1729.17,1319.22 1723.72,1320.95 1718.26,1322.66 1712.79,1324.34 1707.3,1326 1701.79,1327.64 1696.27,1329.26 1690.73,1330.85 1685.18,1332.43 1679.61,1333.98 1674.03,1335.5 1668.44,1337.01 1662.83,1338.49 1657.21,1339.95 1651.57,1341.38 1645.93,1342.8 1640.26,1344.19 1634.59,1345.55 1628.9,1346.9 1623.2,1348.22 1617.49,1349.52 1611.77,1350.79 1606.03,1352.04 1600.28,1353.27 1594.53,1354.48 1588.76,1355.66 1582.98,1356.82 1577.18,1357.95 1571.38,1359.06 1565.57,1360.15 1559.75,1361.21 1553.92,1362.26 1548.08,1363.27 1542.23,1364.27 1536.37,1365.23 1530.5,1366.18 1524.62,1367.1 1518.74,1368 1512.84,1368.87 1506.94,1369.73 1501.03,1370.55 1495.11,1371.35 1489.19,1372.13 1483.26,1372.89 1477.32,1373.62 1471.37,1374.32 1465.42,1375.01 1459.46,1375.66 1453.5,1376.3 1447.53,1376.91 1441.55,1377.49 1435.57,1378.05 1429.59,1378.59 1423.59,1379.1 1417.6,1379.59 1411.6,1380.06 1405.6,1380.5 1399.59,1380.91 1393.58,1381.3 1387.56,1381.67 1381.54,1382.01 1375.52,1382.33 1369.49,1382.62 1363.47,1382.89 1357.44,1383.14 1351.41,1383.36 1345.37,1383.55 1339.34,1383.72 1333.3,1383.87 1327.26,1383.99 1321.22,1384.09 1315.18,1384.16 1309.14,1384.21 1303.1,1384.24 1297.06,1384.24 1291.02,1384.21 1284.98,1384.16 1278.94,1384.09 1272.9,1383.99 1266.86,1383.87 1260.82,1383.72 1254.79,1383.55 1248.76,1383.36 1242.72,1383.14 1236.69,1382.89 1230.67,1382.62 1224.64,1382.33 1218.62,1382.01 1212.6,1381.67 1206.59,1381.3 1200.57,1380.91 1194.57,1380.5 1188.56,1380.06 1182.56,1379.59 1176.57,1379.1 1170.58,1378.59 1164.59,1378.05 1158.61,1377.49 1152.63,1376.91 1146.66,1376.3 1140.7,1375.66 1134.74,1375.01 1128.79,1374.32 1122.84,1373.62 1116.91,1372.89 1110.97,1372.13 1105.05,1371.35 1099.13,1370.55 1093.22,1369.73 1087.32,1368.87 1081.43,1368 1075.54,1367.1 1069.66,1366.18 1063.8,1365.23 1057.94,1364.27 1052.08,1363.27 1046.24,1362.26 1040.41,1361.21 1034.59,1360.15 1028.78,1359.06 1022.98,1357.95 1017.19,1356.82 1011.41,1355.66 1005.64,1354.48 999.878,1353.27 994.131,1352.04 988.395,1350.79 982.672,1349.52 976.96,1348.22 971.26,1346.9 965.573,1345.55 959.899,1344.19 954.237,1342.8 948.588,1341.38 942.953,1339.95 937.331,1338.49 931.723,1337.01 926.128,1335.5 920.548,1333.98 914.982,1332.43 909.431,1330.85 903.894,1329.26 898.372,1327.64 892.866,1326 887.374,1324.34 881.899,1322.66 876.439,1320.95 870.995,1319.22 865.567,1317.47 860.156,1315.7 854.761,1313.91 849.383,1312.09 844.022,1310.25 838.679,1308.4 833.352,1306.51 828.044,1304.61 822.752,1302.69 817.48,1300.74 812.225,1298.78 806.989,1296.79 801.771,1294.78 796.572,1292.75 791.392,1290.7 786.231,1288.63 781.09,1286.53 775.968,1284.42 770.866,1282.29 765.784,1280.13 760.722,1277.95 755.681,1275.76 750.66,1273.54 745.66,1271.3 740.68,1269.05 735.722,1266.77 730.785,1264.47 725.87,1262.16 720.976,1259.82 716.104,1257.46 711.254,1255.09 706.426,1252.69 701.621,1250.27 696.838,1247.84 692.078,1245.38 687.341,1242.91 682.627,1240.42 677.937,1237.91 673.269,1235.37 668.626,1232.82 664.006,1230.26 659.411,1227.67 654.839,1225.06 650.292,1222.44 645.769,1219.8 641.271,1217.13 636.798,1214.46 632.35,1211.76 627.927,1209.04 623.529,1206.31 619.157,1203.56 614.811,1200.79 610.49,1198 606.196,1195.2 601.927,1192.38 597.685,1189.54 593.47,1186.69 589.281,1183.81 585.119,1180.93 580.984,1178.02 576.876,1175.1 572.795,1172.16 568.742,1169.2 564.716,1166.23 560.718,1163.24 556.748,1160.24 552.806,1157.22 548.893,1154.18 545.007,1151.13 541.15,1148.06 537.322,1144.98 533.522,1141.88 529.752,1138.76 526.01,1135.63 522.298,1132.49 518.614,1129.33 514.961,1126.15 511.337,1122.96 507.743,1119.76 504.178,1116.54 500.644,1113.31 497.14,1110.06 493.666,1106.8 490.223,1103.52 486.81,1100.24 483.428,1096.93 480.076,1093.62 476.756,1090.29 473.467,1086.94 470.208,1083.59 466.981,1080.22 463.786,1076.83 460.622,1073.44 457.49,1070.03 454.389,1066.61 451.321,1063.17 448.284,1059.73 445.28,1056.27 442.308,1052.8 439.368,1049.32 436.461,1045.82 433.586,1042.32 430.744,1038.8 427.934,1035.27 425.158,1031.73 422.415,1028.18 419.704,1024.62 417.027,1021.04 414.383,1017.46 411.773,1013.86 409.196,1010.26 406.653,1006.64 404.144,1003.01 401.668,999.379 399.226,995.733 396.818,992.077 394.444,988.411 392.105,984.736 389.799,981.051 387.529,977.358 385.292,973.655 383.09,969.942 380.922,966.222 378.789,962.492 376.691,958.754 374.628,955.007 372.6,951.253 370.606,947.49 368.648,943.719 366.725,939.94 364.837,936.153 362.984,932.359 361.167,928.557 359.385,924.748 357.639,920.932 355.928,917.109 354.253,913.279 352.613,909.443 351.009,905.599 349.441,901.75 347.909,897.894 346.413,894.032 344.953,890.164 343.529,886.29 342.14,882.41 340.788,878.525 339.473,874.635 338.193,870.739 336.95,866.838 335.743,862.932 334.572,859.021 333.438,855.106 332.34,851.186 331.279,847.262 330.255,843.333 329.267,839.4 328.315,835.464 327.4,831.524 326.522,827.58 325.681,823.632 324.876,819.681 324.108,815.728 323.377,811.771 322.683,807.811 322.026,803.848 321.406,799.883 320.822,795.915 320.276,791.945 319.766,787.973 319.294,783.999 318.858,780.023 318.459,776.046 318.098,772.067 317.773,768.086 317.486,764.104 317.235,760.121 317.022,756.138 316.846,752.153 316.707,748.168 316.605,744.182 316.54,740.196 316.512,736.21 316.521,732.224 316.568,728.238 316.651,724.252 316.772,720.266 316.929,716.281 317.124,712.297 317.356,708.314 317.625,704.332 317.931,700.35 318.274,696.37 318.654,692.392 319.071,688.415 319.525,684.44 320.016,680.467 320.544,676.496 321.109,672.527 321.711,668.561 322.35,664.597 323.026,660.636 323.738,656.677 324.488,652.722 325.274,648.77 326.097,644.82 326.957,640.875 327.853,636.932 328.786,632.994 329.756,629.059 330.762,625.129 331.805,621.203 332.885,617.281 334.001,613.363 335.153,609.45 336.342,605.541 337.567,601.638 338.828,597.74 340.126,593.846 341.46,589.959 342.83,586.076 344.236,582.199 345.679,578.328 347.157,574.463 348.671,570.604 350.221,566.752 351.807,562.905 353.429,559.065 355.086,555.232 356.779,551.405 358.508,547.586 360.272,543.773 362.071,539.968 363.906,536.17 365.777,532.38 367.682,528.597 369.623,524.822 371.599,521.055 373.61,517.296 375.655,513.545 377.736,509.803 379.852,506.069 382.002,502.343 384.187,498.627 386.406,494.92 388.66,491.221 390.948,487.532 393.27,483.852 395.627,480.182 398.018,476.521 400.443,472.87 402.902,469.228 405.394,465.598 407.921,461.976 410.481,458.366 413.074,454.766 415.701,451.176 418.362,447.597 421.055,444.029 423.782,440.472 426.542,436.926 429.335,433.392 432.161,429.868 435.019,426.356 437.91,422.856 440.834,419.368 443.79,415.891 446.778,412.427 449.799,408.975 452.851,405.535 455.936,402.108 459.052,398.693 462.2,395.29 465.38,391.901 468.591,388.525 471.834,385.161 475.108,381.811 478.413,378.474 481.748,375.151 485.115,371.841 488.513,368.545 491.941,365.263 495.4,361.995 498.889,358.74 502.408,355.5 505.957,352.275 509.536,349.063 513.145,345.867 516.784,342.685 520.453,339.518 524.15,336.365 527.877,333.228 531.634,330.106 535.418,326.999 539.233,323.908 543.075,320.832 546.946,317.772 550.846,314.727 554.774,311.699 558.73,308.686 562.714,305.69 566.726,302.709 570.765,299.745 574.832,296.798 578.926,293.867 583.048,290.952 587.197,288.055 591.372,285.174 595.574,282.31 599.803,279.463 604.059,276.634 608.34,273.822 612.647,271.027 616.981,268.25 621.34,265.49 625.725,262.748 630.135,260.024 634.571,257.318 639.032,254.629 643.517,251.959 648.028,249.307 652.563,246.674 657.122,244.059 661.706,241.462 666.313,238.884 670.945,236.325 675.6,233.785 680.279,231.263 684.981,228.761 689.707,226.278 694.456,223.814 699.227,221.369 704.021,218.943 708.838,216.537 713.677,214.151 718.537,211.784 723.42,209.437 728.325,207.11 733.251,204.802 738.199,202.515 743.168,200.248 748.157,198.001 753.168,195.774 758.199,193.568 763.251,191.382 768.323,189.216 773.415,187.072 778.527,184.947 783.659,182.844 788.81,180.762 793.98,178.7 799.169,176.659 804.378,174.64 809.605,172.641 814.85,170.664 820.114,168.708 825.396,166.773 830.696,164.86 836.014,162.969 841.348,161.099 846.701,159.25 852.07,157.424 857.457,155.619 862.859,153.836 868.279,152.075 873.715,150.336 879.167,148.619 884.635,146.924 890.118,145.252 895.617,143.601 901.131,141.973 906.661,140.367 912.205,138.784 917.763,137.223 923.336,135.685 928.924,134.17 934.525,132.677 940.14,131.207 945.769,129.759 951.411,128.335 957.067,126.933 962.735,125.554 968.416,124.199 974.109,122.866 979.815,121.556 985.532,120.27 991.262,119.007 997.003,117.767 1002.76,116.55 1008.52,115.357 1014.29,114.187 1020.08,113.04 1025.88,111.917 1031.68,110.818 1037.5,109.742 1043.33,108.689 1049.16,107.661 1055.01,106.655 1060.86,105.674 1066.73,104.716 1072.6,103.783 1078.48,102.873 1084.37,101.986 1090.27,101.124 1096.18,100.286 1102.09,99.4713 1108.01,98.6808 1113.94,97.9144 1119.87,97.172 1125.82,96.4537 1131.77,95.7595 1137.72,95.0894 1143.68,94.4435 1149.65,93.8217 1155.62,93.2241 1161.6,92.6507 1167.58,92.1016 1173.57,91.5767 1179.56,91.0762 1185.56,90.5999 1191.56,90.148 1197.57,89.7203 1203.58,89.317 1209.59,88.9381 1215.61,88.5836 1221.63,88.2534 1227.65,87.9477 1233.68,87.6663 1239.71,87.4094 1245.74,87.177 1251.77,86.969 1257.81,86.7854 1263.84,86.6263 1269.88,86.4917 1275.92,86.3815 1281.96,86.2958 1288,86.2346 1294.04,86.1979 1300.08,86.1857 "/>
<polyline clip-path="url(#clip812)" style="stroke:#e26f46; stroke-linecap:round; stroke-linejoin:round; stroke-width:16; stroke-opacity:1; fill:none" points="1300.08,86.1857 1306.09,86.355 1312.11,86.4997 1318.12,86.9285 1324.12,87.4536 1330.13,87.9783 1336.13,88.5029 1342.14,89.0276 1348.14,89.5522 1354.15,90.0768 1360.15,90.6015 1366.16,91.1261 1372.17,91.6508 1378.17,92.1754 1384.18,92.7001 1390.18,93.2247 1396.19,93.7494 1402.19,94.274 1408.2,94.7987 1414.21,95.3233 1420.21,95.8449 1426.23,96.3407 1432.25,96.816 1438.27,97.2822 1444.29,97.7493 1450.32,98.2263 1456.33,98.7207 1462.34,99.239 1468.34,99.7863 1474.32,100.367 1480.3,100.983 1486.27,101.636 1492.22,102.328 1498.16,103.056 1504.09,103.818 1510.02,104.612 1515.93,105.433 1521.83,106.274 1527.74,107.129 1533.64,107.991 1539.54,108.848 1545.45,109.689 1551.37,110.486 1557.31,111.26 1563.24,112.044 1569.15,112.863 1575.05,113.736 1580.91,114.675 1586.74,115.685 1592.54,116.764 1598.32,117.903 1604.07,119.086 1609.82,120.292 1615.57,121.49 1621.29,122.732 1626.96,124.083 1632.58,125.521 1638.17,127.028 1643.73,128.589 1649.26,130.187 1654.78,131.812 1660.29,133.454 1665.8,135.104 1671.3,136.758 1676.8,138.411 1682.3,140.063 1687.8,141.714 1693.3,143.368 1698.81,145.01 1704.34,146.631 1709.87,148.24 1715.41,149.845 1720.95,151.455 1726.48,153.076 1731.99,154.715 1737.49,156.375 1742.96,158.06 1748.41,159.774 1753.84,161.519 1759.23,163.295 1764.61,165.102 1769.95,166.941 1775.28,168.808 1780.58,170.702 1785.86,172.617 1791.13,174.551 1796.39,176.497 1801.65,178.448 1806.9,180.397 1812.17,182.335 1817.42,184.28 1822.65,186.253 1827.85,188.257 1833.02,190.295 1838.15,192.37 1843.24,194.484 1848.29,196.635 1853.3,198.826 1858.27,201.054 1863.21,203.319 1868.11,205.618 1872.98,207.948 1877.82,210.305 1882.63,212.685 1887.43,215.082 1892.21,217.491 1897,219.905 1901.78,222.316 1906.58,224.711 1911.44,227.06 1916.34,229.382 1921.23,231.705 1926.1,234.05 1930.91,236.435 1935.65,238.875 1940.32,241.377 1944.89,243.949 1949.38,246.59 1953.78,249.297 1958.1,252.064 1962.37,254.878 1966.59,257.723 1970.8,260.58 1975.03,263.425 1979.28,266.247 1983.54,269.063 1987.8,271.878 1992.05,274.697 1996.3,277.526 2000.52,280.368 2004.72,283.227 2008.89,286.107 2013.03,289.009 2017.12,291.938 2021.18,294.894 2025.19,297.88 2029.16,300.896 2033.07,303.943 2036.93,307.022 2040.72,310.134 2044.46,313.276 2048.16,316.433 2051.85,319.592 2055.57,322.742 2059.32,325.875 2063.12,328.986 2066.97,332.073 2070.87,335.134 2074.83,338.173 2078.82,341.194 2082.83,344.206 2086.85,347.218 2090.83,350.244 2094.76,353.298 2098.58,356.4 2102.26,359.57 2105.7,362.834 2108.99,366.157 2112.25,369.492 2115.57,372.803 2119.02,376.066 2122.64,379.262 2126.46,382.388 2130.46,385.444 2134.61,388.446 2138.85,391.416 2143.1,394.387 2147.24,397.401 2151.13,400.511 2154.62,403.78 2157.59,407.249 2160.46,410.757 2163.32,414.268 2166.18,417.781 2169.03,421.296 2171.88,424.813 2174.72,428.331 2177.56,431.85 2180.4,435.369 2183.24,438.889 2186.07,442.409 2188.91,445.929 2191.75,449.45 2194.58,452.972 2197.41,456.5 2200.23,460.035 2203.02,463.58 2205.78,467.134 2208.51,470.701 2211.19,474.279 2213.83,477.872 2216.41,481.479 2218.94,485.1 2221.4,488.738 2223.8,492.391 2226.13,496.061 2228.4,499.747 2230.6,503.45 2232.73,507.169 2234.79,510.904 2236.79,514.655 2238.71,518.421 2240.58,522.202 2242.39,525.996 2244.14,529.803 2245.83,533.622 2247.48,537.452 2249.09,541.291 2250.67,545.137 2252.21,548.991 2253.74,552.848 2255.25,556.708 2256.76,560.569 2258.28,564.429 2259.82,568.285 2261.37,572.136 2262.92,575.991 2264.45,579.851 2265.94,583.718 2267.37,587.592 2268.75,591.473 2270.06,595.363 2271.31,599.26 2272.47,603.165 2273.56,607.078 2274.57,610.999 2275.5,614.927 2276.36,618.862 2277.15,622.804 2277.87,626.752 2278.53,630.704 2279.15,634.661 2279.74,638.621 2280.3,642.583 2280.85,646.545 2281.41,650.508 2282,654.467 2282.61,658.426 2283.23,662.384 2283.86,666.341 2284.49,670.299 2285.11,674.257 2285.73,678.215 2286.33,682.174 2286.91,686.133 2287.48,690.094 2288.02,694.055 2288.54,698.018 2289.04,701.981 2289.51,705.946 2289.97,709.912 2290.4,713.878 2290.81,717.846 2291.21,721.814 2291.6,725.782 2291.97,729.751 2292.35,733.72 2292.73,737.689 2293.11,741.658 2293.35,745.628 2293.45,749.6 2293.4,753.572 2293.23,757.544 2292.93,761.515 2292.53,765.484 2292.02,769.452 2291.43,773.417 2290.75,777.379 2290,781.337 2289.18,785.293 2288.3,789.244 2287.37,793.192 2286.39,797.136 2285.37,801.077 2284.32,805.013 2283.24,808.946 2282.13,812.876 2281.01,816.802 2279.87,820.726 2278.72,824.648 2277.56,828.568 2276.4,832.487 2275.23,836.405 2274.07,840.324 2272.9,844.244 2271.75,848.167 2270.62,852.095 2269.52,856.027 2268.43,859.961 2267.34,863.894 2266.24,867.825 2265.12,871.754 2263.97,875.677 2262.78,879.595 2261.56,883.507 2260.3,887.411 2258.99,891.309 2257.64,895.198 2256.25,899.081 2254.81,902.956 2253.34,906.825 2251.83,910.688 2250.29,914.545 2248.73,918.399 2247.15,922.251 2245.57,926.102 2243.99,929.953 2242.43,933.806 2240.79,937.643 2239.05,941.454 2237.22,945.246 2235.31,949.02 2233.33,952.781 2231.31,956.529 2229.24,960.268 2227.13,963.998 2224.99,967.722 2222.82,971.439 2220.62,975.15 2218.41,978.855 2216.16,982.552 2213.89,986.242 2211.59,989.922 2209.25,993.59 2206.87,997.244 2204.44,1000.88 2201.94,1004.5 2199.37,1008.09 2196.71,1011.66 2193.95,1015.19 2191.06,1018.68 2188.04,1022.13 2184.94,1025.56 2181.83,1028.99 2178.72,1032.41 2175.59,1035.82 2172.45,1039.24 2169.32,1042.65 2166.17,1046.06 2163.03,1049.47 2159.88,1052.88 2156.73,1056.29 2153.58,1059.7 2150.43,1063.11 2147.29,1066.52 2144.14,1069.93 2141,1073.34 2137.85,1076.75 2134.71,1080.16 2131.57,1083.57 2128.43,1086.98 2125.28,1090.39 2122.08,1093.78 2118.84,1097.14 2115.56,1100.49 2112.25,1103.82 2108.9,1107.13 2105.52,1110.43 2102.11,1113.72 2098.68,1117 2095.23,1120.27 2091.75,1123.54 2088.26,1126.79 2084.75,1130.04 2081.22,1133.28 2077.68,1136.52 2074.12,1139.74 2070.54,1142.96 2066.94,1146.17 2063.32,1149.37 2059.69,1152.56 2056.02,1155.74 2052.34,1158.9 2048.63,1162.05 2044.88,1165.17 2041.1,1168.28 2037.28,1171.36 2033.42,1174.42 2029.51,1177.45 2025.56,1180.44 2021.54,1183.4 2017.46,1186.32 2013.31,1189.2 2009.08,1192.02 2004.78,1194.8 2000.4,1197.53 1995.99,1200.23 1991.54,1202.92 1987.06,1205.58 1982.54,1208.22 1977.98,1210.82 1973.38,1213.4 1968.74,1215.94 1964.05,1218.45 1959.33,1220.93 1954.57,1223.38 1949.77,1225.79 1944.93,1228.17 1940.06,1230.52 1935.15,1232.85 1930.22,1235.14 1925.25,1237.42 1920.26,1239.67 1915.26,1241.9 1910.23,1244.13 1905.2,1246.34 1900.16,1248.54 1895.12,1250.75 1890.08,1252.96 1885.06,1255.19 1880.08,1257.45 1875.11,1259.74 1870.17,1262.05 1865.23,1264.38 1860.3,1266.7 1855.35,1269.02 1850.4,1271.32 1845.43,1273.6 1840.44,1275.86 1835.42,1278.09 1830.37,1280.28 1825.29,1282.43 1820.17,1284.54 1815.01,1286.6 1809.81,1288.62 1804.58,1290.59 1799.3,1292.52 1793.99,1294.4 1788.64,1296.24 1783.26,1298.04 1777.84,1299.8 1772.4,1301.53 1766.93,1303.23 1761.44,1304.9 1755.93,1306.56 1750.42,1308.21 1744.91,1309.85 1739.39,1311.5 1733.9,1313.16 1728.42,1314.85 1722.95,1316.57 1717.5,1318.3 1712.06,1320.05 1706.61,1321.79 1701.16,1323.53 1695.7,1325.25 1690.24,1326.96 1684.75,1328.64 1679.25,1330.29 1673.74,1331.92 1668.2,1333.51 1662.64,1335.07 1657.06,1336.6 1651.47,1338.09 1645.85,1339.55 1640.21,1340.99 1634.56,1342.39 1628.89,1343.77 1623.21,1345.14 1617.53,1346.49 1611.84,1347.83 1606.15,1349.17 1600.47,1350.53 1594.78,1351.87 1589.06,1353.13 1583.3,1354.32 1577.51,1355.43 1571.69,1356.48 1565.85,1357.47 1559.99,1358.42 1554.11,1359.32 1548.21,1360.19 1542.31,1361.03 1536.39,1361.84 1530.47,1362.63 1524.54,1363.4 1518.61,1364.16 1512.67,1364.91 1506.73,1365.66 1500.8,1366.39 1494.86,1367.13 1488.93,1367.86 1482.99,1368.59 1477.06,1369.33 1471.12,1370.06 1465.19,1370.79 1459.26,1371.52 1453.32,1372.26 1447.37,1373 1441.42,1373.74 1435.45,1374.47 1429.48,1375.17 1423.5,1375.85 1417.52,1376.5 1411.53,1377.1 1405.54,1377.64 1399.54,1378.14 1393.54,1378.56 1387.53,1378.93 1381.53,1379.22 1375.52,1379.45 1369.51,1379.6 1363.5,1379.68 1357.49,1379.68 1351.48,1379.61 1345.46,1379.47 1339.45,1379.27 1333.44,1378.99 1327.43,1378.66 1321.42,1378.27 1315.41,1377.83 1309.4,1377.34 1303.39,1376.82 1297.38,1376.27 1291.37,1375.69 1285.37,1375.11 1279.36,1374.53 1273.35,1373.96 1267.34,1373.42 1261.33,1372.89 1255.32,1372.37 1249.31,1371.85 1243.3,1371.32 1237.29,1370.8 1231.28,1370.28 1225.27,1369.75 1219.27,1369.23 1213.26,1368.71 1207.25,1368.18 1201.24,1367.66 1195.23,1367.14 1189.22,1366.61 1183.21,1366.09 1177.2,1365.56 1171.19,1365.04 1165.18,1364.52 1159.17,1363.99 1153.16,1363.47 1147.15,1362.95 1141.14,1362.42 1135.14,1361.9 1129.13,1361.37 1123.12,1360.85 1117.11,1360.33 1111.1,1359.8 1105.09,1359.28 1099.08,1358.73 1093.08,1358.16 1087.08,1357.56 1081.08,1356.93 1075.09,1356.27 1069.11,1355.58 1063.14,1354.86 1057.18,1354.11 1051.24,1353.32 1045.3,1352.5 1039.38,1351.64 1033.47,1350.75 1027.58,1349.83 1021.7,1348.87 1015.84,1347.88 1010,1346.85 1004.18,1345.78 998.37,1344.68 992.583,1343.54 986.815,1342.37 981.067,1341.17 975.339,1339.92 969.631,1338.65 963.944,1337.33 958.278,1335.99 952.632,1334.61 947.008,1333.19 941.404,1331.74 935.821,1330.26 930.26,1328.75 924.718,1327.2 919.196,1325.63 913.695,1324.02 908.214,1322.39 902.751,1320.72 897.308,1319.03 891.882,1317.31 886.475,1315.57 881.085,1313.8 875.711,1312.01 870.352,1310.2 865.01,1308.37 859.68,1306.51 854.365,1304.64 849.061,1302.75 843.768,1300.85 838.486,1298.93 833.214,1297 827.949,1295.06 822.69,1293.11 817.437,1291.16 812.188,1289.2 806.941,1287.23 801.696,1285.26 796.451,1283.3 791.203,1281.33 785.953,1279.37 780.697,1277.42 775.434,1275.47 770.163,1273.54 764.911,1271.58 759.694,1269.58 754.514,1267.54 749.375,1265.45 744.278,1263.32 739.226,1261.15 734.219,1258.93 729.26,1256.67 724.348,1254.37 719.486,1252.03 714.672,1249.64 709.908,1247.21 705.193,1244.74 700.525,1242.23 695.905,1239.69 691.332,1237.1 686.802,1234.49 682.316,1231.84 677.87,1229.15 673.463,1226.44 669.09,1223.71 664.751,1220.95 660.44,1218.17 656.155,1215.37 651.891,1212.55 647.644,1209.72 643.409,1206.89 639.182,1204.04 634.957,1201.2 630.729,1198.36 626.492,1195.52 622.247,1192.69 618.041,1189.84 613.879,1186.95 609.759,1184.04 605.678,1181.1 601.636,1178.13 597.629,1175.14 593.655,1172.14 589.713,1169.11 585.8,1166.06 581.914,1163 578.055,1159.92 574.219,1156.83 570.405,1153.72 566.612,1150.61 562.837,1147.48 559.08,1144.34 555.338,1141.2 551.611,1138.05 547.897,1134.89 544.195,1131.73 540.503,1128.56 536.82,1125.39 533.145,1122.21 529.477,1119.04 525.815,1115.85 522.158,1112.67 518.505,1109.49 514.856,1106.3 511.208,1103.12 507.563,1099.93 503.919,1096.75 500.275,1093.56 496.63,1090.37 492.986,1087.19 489.345,1084 485.759,1080.78 482.239,1077.54 478.783,1074.27 475.386,1070.98 472.047,1067.66 468.764,1064.32 465.534,1060.95 462.355,1057.57 459.224,1054.16 456.14,1050.74 453.102,1047.29 450.107,1043.83 447.153,1040.36 444.24,1036.87 441.365,1033.36 438.528,1029.84 435.728,1026.3 432.963,1022.76 430.233,1019.2 427.536,1015.63 424.873,1012.05 422.242,1008.46 419.643,1004.86 417.076,1001.25 414.54,997.629 412.036,994.001 409.563,990.364 407.122,986.718 404.713,983.064 402.336,979.402 399.991,975.731 397.68,972.053 395.403,968.367 393.161,964.672 390.955,960.969 388.785,957.258 386.654,953.538 384.561,949.809 382.51,946.071 380.501,942.323 378.536,938.566 376.616,934.798 374.744,931.021 372.922,927.231 371.151,923.43 369.434,919.616 367.773,915.789 366.171,911.949 364.601,908.099 363.027,904.248 361.454,900.394 359.889,896.537 358.337,892.677 356.803,888.814 355.292,884.947 353.809,881.076 352.357,877.202 350.94,873.324 349.562,869.441 348.226,865.554 346.934,861.662 345.688,857.766 344.492,853.865 343.345,849.959 342.25,846.049 341.208,842.134 340.218,838.215 339.282,834.291 338.399,830.363 337.568,826.43 336.789,822.493 336.06,818.552 335.381,814.607 334.749,810.658 334.161,806.706 333.616,802.75 333.11,798.791 332.639,794.829 332.201,790.866 331.792,786.899 331.406,782.931 331.04,778.962 330.687,774.991 330.343,771.02 330.003,767.049 329.659,763.077 329.305,759.107 328.935,755.138 328.555,751.17 328.268,747.203 328.089,743.236 328.011,739.27 328.029,735.303 328.136,731.338 328.327,727.372 328.595,723.407 328.936,719.442 329.344,715.479 329.814,711.515 330.342,707.553 330.923,703.591 331.554,699.63 332.229,695.67 332.946,691.71 333.701,687.752 334.491,683.795 335.313,679.839 336.164,675.885 337.041,671.932 337.943,667.98 338.867,664.03 339.812,660.081 340.777,656.134 341.759,652.189 342.757,648.246 343.772,644.305 344.802,640.366 345.848,636.43 346.908,632.496 347.984,628.564 349.076,624.635 350.183,620.708 351.308,616.785 352.452,612.864 353.615,608.946 354.799,605.033 356.007,601.121 357.239,597.214 358.5,593.311 359.791,589.411 361.115,585.514 362.47,581.62 363.857,577.729 365.279,573.841 366.74,569.958 368.242,566.082 369.789,562.213 371.382,558.354 373.025,554.505 374.718,550.668 376.465,546.843 378.266,543.032 380.124,539.234 382.039,535.452 384.012,531.685 386.045,527.934 388.138,524.199 390.291,520.482 392.505,516.783 394.78,513.101 397.115,509.437 399.511,505.79 401.966,502.162 404.479,498.552 407.051,494.96 409.679,491.385 412.361,487.827 415.097,484.286 417.885,480.762 420.722,477.253 423.606,473.76 426.536,470.281 429.507,466.816 432.517,463.364 435.563,459.923 438.642,456.493 441.75,453.073 444.883,449.662 448.038,446.257 451.21,442.859 454.396,439.464 457.589,436.073 460.787,432.683 463.983,429.293 467.173,425.9 470.35,422.504 473.511,419.1 476.647,415.689 479.754,412.264 482.841,408.832 485.919,405.394 488.995,401.957 492.078,398.522 495.175,395.093 498.291,391.673 501.431,388.263 504.599,384.866 507.799,381.483 511.034,378.114 514.303,374.761 517.608,371.424 520.949,368.102 524.323,364.795 527.729,361.502 531.163,358.221 534.622,354.951 538.1,351.689 541.592,348.434 545.09,345.181 548.587,341.927 552.073,338.67 555.557,335.41 559.072,332.162 562.628,328.933 566.229,325.727 569.879,322.547 573.583,319.398 577.345,316.283 581.166,313.203 585.051,310.163 588.999,307.163 593.012,304.204 597.091,301.288 601.235,298.415 605.444,295.585 609.717,292.798 614.051,290.051 618.443,287.345 622.892,284.677 627.393,282.044 631.941,279.445 636.533,276.875 641.161,274.331 645.821,271.809 650.505,269.305 655.207,266.812 659.918,264.326 664.63,261.84 669.333,259.348 674.019,256.843 678.688,254.326 683.35,251.802 688.011,249.275 692.675,246.751 697.346,244.232 702.027,241.721 706.722,239.222 711.433,236.737 716.163,234.267 720.915,231.816 725.688,229.384 730.486,226.972 735.308,224.581 740.156,222.212 745.028,219.865 749.926,217.539 754.847,215.234 759.791,212.948 764.756,210.681 769.74,208.43 774.741,206.194 779.757,203.97 784.783,201.755 789.816,199.547 794.853,197.342 799.889,195.135 804.919,192.924 809.947,190.712 815.026,188.556 820.163,186.462 825.355,184.428 830.596,182.451 835.884,180.528 841.215,178.657 846.586,176.834 851.994,175.058 857.436,173.325 862.908,171.632 868.408,169.978 873.934,168.359 879.482,166.774 885.05,165.219 890.636,163.693 896.239,162.192 901.855,160.716 907.483,159.26 913.121,157.824 918.768,156.405 924.422,155 930.082,153.608 935.747,152.227 941.414,150.855 947.084,149.489 952.756,148.127 958.428,146.769 964.101,145.411 969.775,144.052 975.448,142.691 981.12,141.324 986.795,139.952 992.475,138.577 998.161,137.206 1003.85,135.844 1009.55,134.496 1015.26,133.165 1020.98,131.856 1026.71,130.572 1032.45,129.318 1038.2,128.096 1043.97,126.908 1049.74,125.758 1055.53,124.647 1061.34,123.577 1067.15,122.55 1072.98,121.567 1078.83,120.629 1084.69,119.736 1090.56,118.888 1096.44,118.086 1102.34,117.329 1108.25,116.616 1114.17,115.946 1120.11,115.318 1126.06,114.729 1132.01,114.179 1137.98,113.664 1143.95,113.183 1149.94,112.731 1155.93,112.305 1161.93,111.903 1167.93,111.52 1173.93,111.151 1179.94,110.793 1185.95,110.44 1191.96,110.087 1197.97,109.728 1203.97,109.358 1209.97,108.956 1215.97,108.482 1221.96,107.958 1227.96,107.408 1233.96,106.858 1239.96,106.328 1245.96,105.837 1251.96,105.4 1257.96,105.031 1263.96,104.741 1269.96,104.538 1275.96,104.429 1281.96,104.416 1287.97,104.5 1293.97,104.68 1299.97,104.951 1305.98,105.307 1311.98,105.739 1317.99,106.235 1323.99,106.78 1330,107.357 1336,107.948 1342.01,108.531 1348.02,109.081 "/>
<path clip-path="url(#clip810)" d="M327.056 248.629 L750.198 248.629 L750.198 93.1086 L327.056 93.1086  Z" fill="#ffffff" fill-rule="evenodd" fill-opacity="1"/>
<polyline clip-path="url(#clip810)" style="stroke:#000000; stroke-linecap:round; stroke-linejoin:round; stroke-width:4; stroke-opacity:1; fill:none" points="327.056,248.629 750.198,248.629 750.198,93.1086 327.056,93.1086 327.056,248.629 "/>
<polyline clip-path="url(#clip810)" style="stroke:#009af9; stroke-linecap:round; stroke-linejoin:round; stroke-width:16; stroke-opacity:1; fill:none" points="350.34,144.949 490.043,144.949 "/>
<path clip-path="url(#clip810)" d="M529.345 130.84 Q524.253 130.84 521.244 134.636 Q518.258 138.432 518.258 144.983 Q518.258 151.511 521.244 155.307 Q524.253 159.104 529.345 159.104 Q534.438 159.104 537.401 155.307 Q540.387 151.511 540.387 144.983 Q540.387 138.432 537.401 134.636 Q534.438 130.84 529.345 130.84 M529.345 127.044 Q536.614 127.044 540.966 131.928 Q545.318 136.789 545.318 144.983 Q545.318 153.155 540.966 158.039 Q536.614 162.9 529.345 162.9 Q522.054 162.9 517.679 158.039 Q513.327 153.178 513.327 144.983 Q513.327 136.789 517.679 131.928 Q522.054 127.044 529.345 127.044 Z" fill="#000000" fill-rule="nonzero" fill-opacity="1" /><path clip-path="url(#clip810)" d="M567.47 140.284 Q566.753 139.868 565.896 139.682 Q565.063 139.474 564.044 139.474 Q560.433 139.474 558.489 141.835 Q556.568 144.173 556.568 148.571 L556.568 162.229 L552.285 162.229 L552.285 136.303 L556.568 136.303 L556.568 140.331 Q557.91 137.969 560.063 136.835 Q562.216 135.678 565.294 135.678 Q565.734 135.678 566.267 135.747 Q566.799 135.794 567.447 135.909 L567.47 140.284 Z" fill="#000000" fill-rule="nonzero" fill-opacity="1" /><path clip-path="url(#clip810)" d="M571.938 136.303 L576.197 136.303 L576.197 162.229 L571.938 162.229 L571.938 136.303 M571.938 126.21 L576.197 126.21 L576.197 131.604 L571.938 131.604 L571.938 126.21 Z" fill="#000000" fill-rule="nonzero" fill-opacity="1" /><path clip-path="url(#clip810)" d="M602.169 148.965 Q602.169 144.335 600.248 141.789 Q598.35 139.243 594.901 139.243 Q591.475 139.243 589.553 141.789 Q587.655 144.335 587.655 148.965 Q587.655 153.571 589.553 156.118 Q591.475 158.664 594.901 158.664 Q598.35 158.664 600.248 156.118 Q602.169 153.571 602.169 148.965 M606.428 159.011 Q606.428 165.631 603.489 168.849 Q600.549 172.09 594.484 172.09 Q592.239 172.09 590.248 171.742 Q588.257 171.418 586.382 170.724 L586.382 166.58 Q588.257 167.599 590.086 168.085 Q591.915 168.571 593.813 168.571 Q598.003 168.571 600.086 166.372 Q602.169 164.196 602.169 159.775 L602.169 157.668 Q600.85 159.96 598.79 161.094 Q596.729 162.229 593.859 162.229 Q589.091 162.229 586.174 158.594 Q583.257 154.96 583.257 148.965 Q583.257 142.946 586.174 139.312 Q589.091 135.678 593.859 135.678 Q596.729 135.678 598.79 136.812 Q600.85 137.946 602.169 140.238 L602.169 136.303 L606.428 136.303 L606.428 159.011 Z" fill="#000000" fill-rule="nonzero" fill-opacity="1" /><path clip-path="url(#clip810)" d="M615.201 136.303 L619.461 136.303 L619.461 162.229 L615.201 162.229 L615.201 136.303 M615.201 126.21 L619.461 126.21 L619.461 131.604 L615.201 131.604 L615.201 126.21 Z" fill="#000000" fill-rule="nonzero" fill-opacity="1" /><path clip-path="url(#clip810)" d="M649.924 146.581 L649.924 162.229 L645.664 162.229 L645.664 146.719 Q645.664 143.039 644.229 141.21 Q642.794 139.382 639.924 139.382 Q636.475 139.382 634.484 141.581 Q632.493 143.78 632.493 147.576 L632.493 162.229 L628.211 162.229 L628.211 136.303 L632.493 136.303 L632.493 140.331 Q634.021 137.993 636.081 136.835 Q638.164 135.678 640.873 135.678 Q645.34 135.678 647.632 138.456 Q649.924 141.21 649.924 146.581 Z" fill="#000000" fill-rule="nonzero" fill-opacity="1" /><path clip-path="url(#clip810)" d="M670.201 149.196 Q665.039 149.196 663.048 150.377 Q661.058 151.557 661.058 154.405 Q661.058 156.673 662.539 158.016 Q664.044 159.335 666.613 159.335 Q670.155 159.335 672.285 156.835 Q674.437 154.312 674.437 150.145 L674.437 149.196 L670.201 149.196 M678.697 147.437 L678.697 162.229 L674.437 162.229 L674.437 158.293 Q672.979 160.655 670.803 161.789 Q668.627 162.9 665.479 162.9 Q661.498 162.9 659.136 160.678 Q656.798 158.432 656.798 154.682 Q656.798 150.307 659.715 148.085 Q662.655 145.863 668.465 145.863 L674.437 145.863 L674.437 145.446 Q674.437 142.507 672.493 140.909 Q670.572 139.289 667.076 139.289 Q664.854 139.289 662.748 139.821 Q660.641 140.354 658.697 141.419 L658.697 137.483 Q661.035 136.581 663.234 136.141 Q665.433 135.678 667.516 135.678 Q673.141 135.678 675.919 138.594 Q678.697 141.511 678.697 147.437 Z" fill="#000000" fill-rule="nonzero" fill-opacity="1" /><path clip-path="url(#clip810)" d="M687.47 126.21 L691.729 126.21 L691.729 162.229 L687.47 162.229 L687.47 126.21 Z" fill="#000000" fill-rule="nonzero" fill-opacity="1" /><polyline clip-path="url(#clip810)" style="stroke:#e26f46; stroke-linecap:round; stroke-linejoin:round; stroke-width:16; stroke-opacity:1; fill:none" points="350.34,196.789 490.043,196.789 "/>
<path clip-path="url(#clip810)" d="M518.003 183.351 L518.003 196.337 L523.883 196.337 Q527.146 196.337 528.929 194.647 Q530.711 192.958 530.711 189.833 Q530.711 186.731 528.929 185.041 Q527.146 183.351 523.883 183.351 L518.003 183.351 M513.327 179.509 L523.883 179.509 Q529.693 179.509 532.656 182.147 Q535.642 184.763 535.642 189.833 Q535.642 194.948 532.656 197.564 Q529.693 200.18 523.883 200.18 L518.003 200.18 L518.003 214.069 L513.327 214.069 L513.327 179.509 Z" fill="#000000" fill-rule="nonzero" fill-opacity="1" /><path clip-path="url(#clip810)" d="M555.919 192.124 Q555.202 191.708 554.345 191.522 Q553.512 191.314 552.493 191.314 Q548.882 191.314 546.938 193.675 Q545.017 196.013 545.017 200.411 L545.017 214.069 L540.734 214.069 L540.734 188.143 L545.017 188.143 L545.017 192.171 Q546.359 189.809 548.512 188.675 Q550.665 187.518 553.743 187.518 Q554.183 187.518 554.716 187.587 Q555.248 187.634 555.896 187.749 L555.919 192.124 Z" fill="#000000" fill-rule="nonzero" fill-opacity="1" /><path clip-path="url(#clip810)" d="M581.521 200.041 L581.521 202.124 L561.938 202.124 Q562.216 206.522 564.577 208.837 Q566.961 211.129 571.197 211.129 Q573.651 211.129 575.942 210.527 Q578.257 209.925 580.526 208.721 L580.526 212.749 Q578.234 213.721 575.827 214.231 Q573.419 214.74 570.942 214.74 Q564.739 214.74 561.105 211.129 Q557.493 207.518 557.493 201.36 Q557.493 194.995 560.919 191.268 Q564.368 187.518 570.202 187.518 Q575.433 187.518 578.466 190.897 Q581.521 194.254 581.521 200.041 M577.262 198.791 Q577.216 195.296 575.294 193.212 Q573.396 191.129 570.248 191.129 Q566.683 191.129 564.53 193.143 Q562.401 195.157 562.077 198.814 L577.262 198.791 Z" fill="#000000" fill-rule="nonzero" fill-opacity="1" /><path clip-path="url(#clip810)" d="M605.572 192.078 L605.572 178.05 L609.831 178.05 L609.831 214.069 L605.572 214.069 L605.572 210.18 Q604.229 212.495 602.169 213.629 Q600.132 214.74 597.262 214.74 Q592.563 214.74 589.6 210.99 Q586.66 207.24 586.66 201.129 Q586.66 195.018 589.6 191.268 Q592.563 187.518 597.262 187.518 Q600.132 187.518 602.169 188.652 Q604.229 189.763 605.572 192.078 M591.058 201.129 Q591.058 205.828 592.979 208.513 Q594.924 211.175 598.303 211.175 Q601.683 211.175 603.627 208.513 Q605.572 205.828 605.572 201.129 Q605.572 196.43 603.627 193.768 Q601.683 191.083 598.303 191.083 Q594.924 191.083 592.979 193.768 Q591.058 196.43 591.058 201.129 Z" fill="#000000" fill-rule="nonzero" fill-opacity="1" /><path clip-path="url(#clip810)" d="M618.604 188.143 L622.863 188.143 L622.863 214.069 L618.604 214.069 L618.604 188.143 M618.604 178.05 L622.863 178.05 L622.863 183.444 L618.604 183.444 L618.604 178.05 Z" fill="#000000" fill-rule="nonzero" fill-opacity="1" /><path clip-path="url(#clip810)" d="M650.433 189.138 L650.433 193.12 Q648.627 192.124 646.799 191.638 Q644.993 191.129 643.141 191.129 Q638.998 191.129 636.706 193.768 Q634.414 196.384 634.414 201.129 Q634.414 205.874 636.706 208.513 Q638.998 211.129 643.141 211.129 Q644.993 211.129 646.799 210.643 Q648.627 210.133 650.433 209.138 L650.433 213.073 Q648.65 213.907 646.729 214.323 Q644.831 214.74 642.678 214.74 Q636.822 214.74 633.373 211.059 Q629.924 207.379 629.924 201.129 Q629.924 194.786 633.396 191.152 Q636.891 187.518 642.956 187.518 Q644.924 187.518 646.799 187.935 Q648.674 188.328 650.433 189.138 Z" fill="#000000" fill-rule="nonzero" fill-opacity="1" /><path clip-path="url(#clip810)" d="M662.053 180.782 L662.053 188.143 L670.826 188.143 L670.826 191.453 L662.053 191.453 L662.053 205.527 Q662.053 208.698 662.91 209.601 Q663.789 210.504 666.451 210.504 L670.826 210.504 L670.826 214.069 L666.451 214.069 Q661.521 214.069 659.646 212.24 Q657.771 210.388 657.771 205.527 L657.771 191.453 L654.646 191.453 L654.646 188.143 L657.771 188.143 L657.771 180.782 L662.053 180.782 Z" fill="#000000" fill-rule="nonzero" fill-opacity="1" /><path clip-path="url(#clip810)" d="M698.604 200.041 L698.604 202.124 L679.021 202.124 Q679.298 206.522 681.659 208.837 Q684.044 211.129 688.28 211.129 Q690.733 211.129 693.025 210.527 Q695.34 209.925 697.608 208.721 L697.608 212.749 Q695.317 213.721 692.909 214.231 Q690.502 214.74 688.025 214.74 Q681.822 214.74 678.187 211.129 Q674.576 207.518 674.576 201.36 Q674.576 194.995 678.002 191.268 Q681.451 187.518 687.284 187.518 Q692.516 187.518 695.548 190.897 Q698.604 194.254 698.604 200.041 M694.345 198.791 Q694.298 195.296 692.377 193.212 Q690.479 191.129 687.331 191.129 Q683.766 191.129 681.613 193.143 Q679.484 195.157 679.159 198.814 L694.345 198.791 Z" fill="#000000" fill-rule="nonzero" fill-opacity="1" /><path clip-path="url(#clip810)" d="M722.655 192.078 L722.655 178.05 L726.914 178.05 L726.914 214.069 L722.655 214.069 L722.655 210.18 Q721.312 212.495 719.252 213.629 Q717.215 214.74 714.344 214.74 Q709.645 214.74 706.682 210.99 Q703.743 207.24 703.743 201.129 Q703.743 195.018 706.682 191.268 Q709.645 187.518 714.344 187.518 Q717.215 187.518 719.252 188.652 Q721.312 189.763 722.655 192.078 M708.141 201.129 Q708.141 205.828 710.062 208.513 Q712.007 211.175 715.386 211.175 Q718.766 211.175 720.71 208.513 Q722.655 205.828 722.655 201.129 Q722.655 196.43 720.71 193.768 Q718.766 191.083 715.386 191.083 Q712.007 191.083 710.062 193.768 Q708.141 196.43 708.141 201.129 Z" fill="#000000" fill-rule="nonzero" fill-opacity="1" /></svg>
