<?xml version="1.0" encoding="utf-8"?>
<svg xmlns="http://www.w3.org/2000/svg" xmlns:xlink="http://www.w3.org/1999/xlink" width="600" height="400" viewBox="0 0 2400 1600">
<defs>
  <clipPath id="clip870">
    <rect x="0" y="0" width="2400" height="1600"/>
  </clipPath>
</defs>
<path clip-path="url(#clip870)" d="M0 1600 L2400 1600 L2400 0 L0 0  Z" fill="#ffffff" fill-rule="evenodd" fill-opacity="1"/>
<defs>
  <clipPath id="clip871">
    <rect x="480" y="0" width="1681" height="1600"/>
  </clipPath>
</defs>
<path clip-path="url(#clip870)" d="M257.204 1423.18 L2352.76 1423.18 L2352.76 47.2441 L257.204 47.2441  Z" fill="#ffffff" fill-rule="evenodd" fill-opacity="1"/>
<defs>
  <clipPath id="clip872">
    <rect x="257" y="47" width="2097" height="1377"/>
  </clipPath>
</defs>
<polyline clip-path="url(#clip872)" style="stroke:#000000; stroke-linecap:round; stroke-linejoin:round; stroke-width:2; stroke-opacity:0.1; fill:none" points="318.65,1423.18 318.65,47.2441 "/>
<polyline clip-path="url(#clip872)" style="stroke:#000000; stroke-linecap:round; stroke-linejoin:round; stroke-width:2; stroke-opacity:0.1; fill:none" points="808.731,1423.18 808.731,47.2441 "/>
<polyline clip-path="url(#clip872)" style="stroke:#000000; stroke-linecap:round; stroke-linejoin:round; stroke-width:2; stroke-opacity:0.1; fill:none" points="1298.81,1423.18 1298.81,47.2441 "/>
<polyline clip-path="url(#clip872)" style="stroke:#000000; stroke-linecap:round; stroke-linejoin:round; stroke-width:2; stroke-opacity:0.1; fill:none" points="1788.89,1423.18 1788.89,47.2441 "/>
<polyline clip-path="url(#clip872)" style="stroke:#000000; stroke-linecap:round; stroke-linejoin:round; stroke-width:2; stroke-opacity:0.1; fill:none" points="2278.98,1423.18 2278.98,47.2441 "/>
<polyline clip-path="url(#clip870)" style="stroke:#000000; stroke-linecap:round; stroke-linejoin:round; stroke-width:4; stroke-opacity:1; fill:none" points="257.204,1423.18 2352.76,1423.18 "/>
<polyline clip-path="url(#clip870)" style="stroke:#000000; stroke-linecap:round; stroke-linejoin:round; stroke-width:4; stroke-opacity:1; fill:none" points="318.65,1423.18 318.65,1404.28 "/>
<polyline clip-path="url(#clip870)" style="stroke:#000000; stroke-linecap:round; stroke-linejoin:round; stroke-width:4; stroke-opacity:1; fill:none" points="808.731,1423.18 808.731,1404.28 "/>
<polyline clip-path="url(#clip870)" style="stroke:#000000; stroke-linecap:round; stroke-linejoin:round; stroke-width:4; stroke-opacity:1; fill:none" points="1298.81,1423.18 1298.81,1404.28 "/>
<polyline clip-path="url(#clip870)" style="stroke:#000000; stroke-linecap:round; stroke-linejoin:round; stroke-width:4; stroke-opacity:1; fill:none" points="1788.89,1423.18 1788.89,1404.28 "/>
<polyline clip-path="url(#clip870)" style="stroke:#000000; stroke-linecap:round; stroke-linejoin:round; stroke-width:4; stroke-opacity:1; fill:none" points="2278.98,1423.18 2278.98,1404.28 "/>
<path clip-path="url(#clip870)" d="M265.178 1468.75 L294.853 1468.75 L294.853 1472.69 L265.178 1472.69 L265.178 1468.75 Z" fill="#000000" fill-rule="nonzero" fill-opacity="1" /><path clip-path="url(#clip870)" d="M305.756 1481.64 L313.395 1481.64 L313.395 1455.28 L305.085 1456.95 L305.085 1452.69 L313.349 1451.02 L318.025 1451.02 L318.025 1481.64 L325.664 1481.64 L325.664 1485.58 L305.756 1485.58 L305.756 1481.64 Z" fill="#000000" fill-rule="nonzero" fill-opacity="1" /><path clip-path="url(#clip870)" d="M335.108 1479.7 L339.992 1479.7 L339.992 1485.58 L335.108 1485.58 L335.108 1479.7 Z" fill="#000000" fill-rule="nonzero" fill-opacity="1" /><path clip-path="url(#clip870)" d="M360.177 1454.1 Q356.566 1454.1 354.737 1457.66 Q352.932 1461.2 352.932 1468.33 Q352.932 1475.44 354.737 1479.01 Q356.566 1482.55 360.177 1482.55 Q363.811 1482.55 365.617 1479.01 Q367.446 1475.44 367.446 1468.33 Q367.446 1461.2 365.617 1457.66 Q363.811 1454.1 360.177 1454.1 M360.177 1450.39 Q365.987 1450.39 369.043 1455 Q372.122 1459.58 372.122 1468.33 Q372.122 1477.06 369.043 1481.67 Q365.987 1486.25 360.177 1486.25 Q354.367 1486.25 351.288 1481.67 Q348.233 1477.06 348.233 1468.33 Q348.233 1459.58 351.288 1455 Q354.367 1450.39 360.177 1450.39 Z" fill="#000000" fill-rule="nonzero" fill-opacity="1" /><path clip-path="url(#clip870)" d="M755.757 1468.75 L785.433 1468.75 L785.433 1472.69 L755.757 1472.69 L755.757 1468.75 Z" fill="#000000" fill-rule="nonzero" fill-opacity="1" /><path clip-path="url(#clip870)" d="M805.525 1454.1 Q801.914 1454.1 800.085 1457.66 Q798.28 1461.2 798.28 1468.33 Q798.28 1475.44 800.085 1479.01 Q801.914 1482.55 805.525 1482.55 Q809.159 1482.55 810.965 1479.01 Q812.794 1475.44 812.794 1468.33 Q812.794 1461.2 810.965 1457.66 Q809.159 1454.1 805.525 1454.1 M805.525 1450.39 Q811.335 1450.39 814.391 1455 Q817.469 1459.58 817.469 1468.33 Q817.469 1477.06 814.391 1481.67 Q811.335 1486.25 805.525 1486.25 Q799.715 1486.25 796.636 1481.67 Q793.581 1477.06 793.581 1468.33 Q793.581 1459.58 796.636 1455 Q799.715 1450.39 805.525 1450.39 Z" fill="#000000" fill-rule="nonzero" fill-opacity="1" /><path clip-path="url(#clip870)" d="M825.687 1479.7 L830.571 1479.7 L830.571 1485.58 L825.687 1485.58 L825.687 1479.7 Z" fill="#000000" fill-rule="nonzero" fill-opacity="1" /><path clip-path="url(#clip870)" d="M840.803 1451.02 L859.159 1451.02 L859.159 1454.96 L845.085 1454.96 L845.085 1463.43 Q846.104 1463.08 847.122 1462.92 Q848.141 1462.73 849.159 1462.73 Q854.946 1462.73 858.326 1465.9 Q861.705 1469.08 861.705 1474.49 Q861.705 1480.07 858.233 1483.17 Q854.761 1486.25 848.442 1486.25 Q846.266 1486.25 843.997 1485.88 Q841.752 1485.51 839.344 1484.77 L839.344 1480.07 Q841.428 1481.2 843.65 1481.76 Q845.872 1482.32 848.349 1482.32 Q852.354 1482.32 854.692 1480.21 Q857.029 1478.1 857.029 1474.49 Q857.029 1470.88 854.692 1468.77 Q852.354 1466.67 848.349 1466.67 Q846.474 1466.67 844.599 1467.08 Q842.747 1467.5 840.803 1468.38 L840.803 1451.02 Z" fill="#000000" fill-rule="nonzero" fill-opacity="1" /><path clip-path="url(#clip870)" d="M1276.2 1454.1 Q1272.59 1454.1 1270.76 1457.66 Q1268.95 1461.2 1268.95 1468.33 Q1268.95 1475.44 1270.76 1479.01 Q1272.59 1482.55 1276.2 1482.55 Q1279.83 1482.55 1281.64 1479.01 Q1283.47 1475.44 1283.47 1468.33 Q1283.47 1461.2 1281.64 1457.66 Q1279.83 1454.1 1276.2 1454.1 M1276.2 1450.39 Q1282.01 1450.39 1285.06 1455 Q1288.14 1459.58 1288.14 1468.33 Q1288.14 1477.06 1285.06 1481.67 Q1282.01 1486.25 1276.2 1486.25 Q1270.39 1486.25 1267.31 1481.67 Q1264.25 1477.06 1264.25 1468.33 Q1264.25 1459.58 1267.31 1455 Q1270.39 1450.39 1276.2 1450.39 Z" fill="#000000" fill-rule="nonzero" fill-opacity="1" /><path clip-path="url(#clip870)" d="M1296.36 1479.7 L1301.24 1479.7 L1301.24 1485.58 L1296.36 1485.58 L1296.36 1479.7 Z" fill="#000000" fill-rule="nonzero" fill-opacity="1" /><path clip-path="url(#clip870)" d="M1321.43 1454.1 Q1317.82 1454.1 1315.99 1457.66 Q1314.18 1461.2 1314.18 1468.33 Q1314.18 1475.44 1315.99 1479.01 Q1317.82 1482.55 1321.43 1482.55 Q1325.06 1482.55 1326.87 1479.01 Q1328.7 1475.44 1328.7 1468.33 Q1328.7 1461.2 1326.87 1457.66 Q1325.06 1454.1 1321.43 1454.1 M1321.43 1450.39 Q1327.24 1450.39 1330.29 1455 Q1333.37 1459.58 1333.37 1468.33 Q1333.37 1477.06 1330.29 1481.67 Q1327.24 1486.25 1321.43 1486.25 Q1315.62 1486.25 1312.54 1481.67 Q1309.48 1477.06 1309.48 1468.33 Q1309.48 1459.58 1312.54 1455 Q1315.62 1450.39 1321.43 1450.39 Z" fill="#000000" fill-rule="nonzero" fill-opacity="1" /><path clip-path="url(#clip870)" d="M1766.78 1454.1 Q1763.16 1454.1 1761.34 1457.66 Q1759.53 1461.2 1759.53 1468.33 Q1759.53 1475.44 1761.34 1479.01 Q1763.16 1482.55 1766.78 1482.55 Q1770.41 1482.55 1772.22 1479.01 Q1774.04 1475.44 1774.04 1468.33 Q1774.04 1461.2 1772.22 1457.66 Q1770.41 1454.1 1766.78 1454.1 M1766.78 1450.39 Q1772.59 1450.39 1775.64 1455 Q1778.72 1459.58 1778.72 1468.33 Q1778.72 1477.06 1775.64 1481.67 Q1772.59 1486.25 1766.78 1486.25 Q1760.97 1486.25 1757.89 1481.67 Q1754.83 1477.06 1754.83 1468.33 Q1754.83 1459.58 1757.89 1455 Q1760.97 1450.39 1766.78 1450.39 Z" fill="#000000" fill-rule="nonzero" fill-opacity="1" /><path clip-path="url(#clip870)" d="M1786.94 1479.7 L1791.82 1479.7 L1791.82 1485.58 L1786.94 1485.58 L1786.94 1479.7 Z" fill="#000000" fill-rule="nonzero" fill-opacity="1" /><path clip-path="url(#clip870)" d="M1802.05 1451.02 L1820.41 1451.02 L1820.41 1454.96 L1806.34 1454.96 L1806.34 1463.43 Q1807.35 1463.08 1808.37 1462.92 Q1809.39 1462.73 1810.41 1462.73 Q1816.2 1462.73 1819.58 1465.9 Q1822.96 1469.08 1822.96 1474.49 Q1822.96 1480.07 1819.48 1483.17 Q1816.01 1486.25 1809.69 1486.25 Q1807.52 1486.25 1805.25 1485.88 Q1803 1485.51 1800.6 1484.77 L1800.6 1480.07 Q1802.68 1481.2 1804.9 1481.76 Q1807.12 1482.32 1809.6 1482.32 Q1813.6 1482.32 1815.94 1480.21 Q1818.28 1478.1 1818.28 1474.49 Q1818.28 1470.88 1815.94 1468.77 Q1813.6 1466.67 1809.6 1466.67 Q1807.72 1466.67 1805.85 1467.08 Q1804 1467.5 1802.05 1468.38 L1802.05 1451.02 Z" fill="#000000" fill-rule="nonzero" fill-opacity="1" /><path clip-path="url(#clip870)" d="M2246.13 1481.64 L2253.77 1481.64 L2253.77 1455.28 L2245.46 1456.95 L2245.46 1452.69 L2253.72 1451.02 L2258.4 1451.02 L2258.4 1481.64 L2266.04 1481.64 L2266.04 1485.58 L2246.13 1485.58 L2246.13 1481.64 Z" fill="#000000" fill-rule="nonzero" fill-opacity="1" /><path clip-path="url(#clip870)" d="M2275.48 1479.7 L2280.36 1479.7 L2280.36 1485.58 L2275.48 1485.58 L2275.48 1479.7 Z" fill="#000000" fill-rule="nonzero" fill-opacity="1" /><path clip-path="url(#clip870)" d="M2300.55 1454.1 Q2296.94 1454.1 2295.11 1457.66 Q2293.3 1461.2 2293.3 1468.33 Q2293.3 1475.44 2295.11 1479.01 Q2296.94 1482.55 2300.55 1482.55 Q2304.18 1482.55 2305.99 1479.01 Q2307.82 1475.44 2307.82 1468.33 Q2307.82 1461.2 2305.99 1457.66 Q2304.18 1454.1 2300.55 1454.1 M2300.55 1450.39 Q2306.36 1450.39 2309.42 1455 Q2312.49 1459.58 2312.49 1468.33 Q2312.49 1477.06 2309.42 1481.67 Q2306.36 1486.25 2300.55 1486.25 Q2294.74 1486.25 2291.66 1481.67 Q2288.61 1477.06 2288.61 1468.33 Q2288.61 1459.58 2291.66 1455 Q2294.74 1450.39 2300.55 1450.39 Z" fill="#000000" fill-rule="nonzero" fill-opacity="1" /><path clip-path="url(#clip870)" d="M1134.03 1525.81 L1134.03 1543.66 L1142.11 1543.66 Q1146.6 1543.66 1149.05 1541.34 Q1151.5 1539.02 1151.5 1534.72 Q1151.5 1530.45 1149.05 1528.13 Q1146.6 1525.81 1142.11 1525.81 L1134.03 1525.81 M1127.6 1520.52 L1142.11 1520.52 Q1150.1 1520.52 1154.18 1524.15 Q1158.28 1527.75 1158.28 1534.72 Q1158.28 1541.75 1154.18 1545.35 Q1150.1 1548.95 1142.11 1548.95 L1134.03 1548.95 L1134.03 1568.04 L1127.6 1568.04 L1127.6 1520.52 Z" fill="#000000" fill-rule="nonzero" fill-opacity="1" /><path clip-path="url(#clip870)" d="M1178.14 1536.5 Q1173.43 1536.5 1170.7 1540.19 Q1167.96 1543.85 1167.96 1550.25 Q1167.96 1556.65 1170.66 1560.34 Q1173.4 1564 1178.14 1564 Q1182.82 1564 1185.56 1560.31 Q1188.3 1556.62 1188.3 1550.25 Q1188.3 1543.92 1185.56 1540.23 Q1182.82 1536.5 1178.14 1536.5 M1178.14 1531.54 Q1185.78 1531.54 1190.14 1536.5 Q1194.5 1541.47 1194.5 1550.25 Q1194.5 1559 1190.14 1564 Q1185.78 1568.97 1178.14 1568.97 Q1170.47 1568.97 1166.11 1564 Q1161.78 1559 1161.78 1550.25 Q1161.78 1541.47 1166.11 1536.5 Q1170.47 1531.54 1178.14 1531.54 Z" fill="#000000" fill-rule="nonzero" fill-opacity="1" /><path clip-path="url(#clip870)" d="M1226.94 1533.45 L1226.94 1538.98 Q1224.45 1537.71 1221.78 1537.07 Q1219.11 1536.44 1216.24 1536.44 Q1211.88 1536.44 1209.69 1537.77 Q1207.52 1539.11 1207.52 1541.79 Q1207.52 1543.82 1209.08 1545 Q1210.64 1546.15 1215.35 1547.2 L1217.36 1547.64 Q1223.59 1548.98 1226.2 1551.43 Q1228.85 1553.85 1228.85 1558.21 Q1228.85 1563.17 1224.9 1566.07 Q1220.98 1568.97 1214.11 1568.97 Q1211.24 1568.97 1208.13 1568.39 Q1205.04 1567.85 1201.6 1566.74 L1201.6 1560.69 Q1204.85 1562.38 1208 1563.24 Q1211.15 1564.07 1214.24 1564.07 Q1218.37 1564.07 1220.6 1562.66 Q1222.83 1561.23 1222.83 1558.65 Q1222.83 1556.27 1221.21 1554.99 Q1219.62 1553.72 1214.17 1552.54 L1212.14 1552.07 Q1206.69 1550.92 1204.27 1548.56 Q1201.86 1546.18 1201.86 1542.04 Q1201.86 1537.01 1205.42 1534.27 Q1208.99 1531.54 1215.54 1531.54 Q1218.79 1531.54 1221.65 1532.01 Q1224.52 1532.49 1226.94 1533.45 Z" fill="#000000" fill-rule="nonzero" fill-opacity="1" /><path clip-path="url(#clip870)" d="M1238.17 1532.4 L1244.03 1532.4 L1244.03 1568.04 L1238.17 1568.04 L1238.17 1532.4 M1238.17 1518.52 L1244.03 1518.52 L1244.03 1525.93 L1238.17 1525.93 L1238.17 1518.52 Z" fill="#000000" fill-rule="nonzero" fill-opacity="1" /><path clip-path="url(#clip870)" d="M1262.08 1522.27 L1262.08 1532.4 L1274.14 1532.4 L1274.14 1536.95 L1262.08 1536.95 L1262.08 1556.3 Q1262.08 1560.66 1263.25 1561.9 Q1264.46 1563.14 1268.12 1563.14 L1274.14 1563.14 L1274.14 1568.04 L1268.12 1568.04 Q1261.34 1568.04 1258.76 1565.53 Q1256.19 1562.98 1256.19 1556.3 L1256.19 1536.95 L1251.89 1536.95 L1251.89 1532.4 L1256.19 1532.4 L1256.19 1522.27 L1262.08 1522.27 Z" fill="#000000" fill-rule="nonzero" fill-opacity="1" /><path clip-path="url(#clip870)" d="M1281.84 1532.4 L1287.7 1532.4 L1287.7 1568.04 L1281.84 1568.04 L1281.84 1532.4 M1281.84 1518.52 L1287.7 1518.52 L1287.7 1525.93 L1281.84 1525.93 L1281.84 1518.52 Z" fill="#000000" fill-rule="nonzero" fill-opacity="1" /><path clip-path="url(#clip870)" d="M1313.76 1536.5 Q1309.05 1536.5 1306.32 1540.19 Q1303.58 1543.85 1303.58 1550.25 Q1303.58 1556.65 1306.28 1560.34 Q1309.02 1564 1313.76 1564 Q1318.44 1564 1321.18 1560.31 Q1323.92 1556.62 1323.92 1550.25 Q1323.92 1543.92 1321.18 1540.23 Q1318.44 1536.5 1313.76 1536.5 M1313.76 1531.54 Q1321.4 1531.54 1325.76 1536.5 Q1330.12 1541.47 1330.12 1550.25 Q1330.12 1559 1325.76 1564 Q1321.4 1568.97 1313.76 1568.97 Q1306.09 1568.97 1301.73 1564 Q1297.4 1559 1297.4 1550.25 Q1297.4 1541.47 1301.73 1536.5 Q1306.09 1531.54 1313.76 1531.54 Z" fill="#000000" fill-rule="nonzero" fill-opacity="1" /><path clip-path="url(#clip870)" d="M1369.46 1546.53 L1369.46 1568.04 L1363.61 1568.04 L1363.61 1546.72 Q1363.61 1541.66 1361.63 1539.14 Q1359.66 1536.63 1355.71 1536.63 Q1350.97 1536.63 1348.23 1539.65 Q1345.5 1542.68 1345.5 1547.9 L1345.5 1568.04 L1339.61 1568.04 L1339.61 1532.4 L1345.5 1532.4 L1345.5 1537.93 Q1347.6 1534.72 1350.43 1533.13 Q1353.3 1531.54 1357.02 1531.54 Q1363.16 1531.54 1366.31 1535.36 Q1369.46 1539.14 1369.46 1546.53 Z" fill="#000000" fill-rule="nonzero" fill-opacity="1" /><path clip-path="url(#clip870)" d="M1415.93 1518.58 Q1411.67 1525.9 1409.6 1533.06 Q1407.53 1540.23 1407.53 1547.58 Q1407.53 1554.93 1409.6 1562.16 Q1411.7 1569.35 1415.93 1576.64 L1410.84 1576.64 Q1406.07 1569.16 1403.68 1561.93 Q1401.32 1554.71 1401.32 1547.58 Q1401.32 1540.48 1403.68 1533.29 Q1406.04 1526.09 1410.84 1518.58 L1415.93 1518.58 Z" fill="#000000" fill-rule="nonzero" fill-opacity="1" /><path clip-path="url(#clip870)" d="M1430.8 1550.25 Q1430.8 1556.71 1433.44 1560.4 Q1436.11 1564.07 1440.76 1564.07 Q1445.41 1564.07 1448.08 1560.4 Q1450.75 1556.71 1450.75 1550.25 Q1450.75 1543.79 1448.08 1540.13 Q1445.41 1536.44 1440.76 1536.44 Q1436.11 1536.44 1433.44 1540.13 Q1430.8 1543.79 1430.8 1550.25 M1450.75 1562.7 Q1448.91 1565.88 1446.08 1567.44 Q1443.27 1568.97 1439.33 1568.97 Q1432.87 1568.97 1428.79 1563.81 Q1424.75 1558.65 1424.75 1550.25 Q1424.75 1541.85 1428.79 1536.69 Q1432.87 1531.54 1439.33 1531.54 Q1443.27 1531.54 1446.08 1533.1 Q1448.91 1534.62 1450.75 1537.81 L1450.75 1532.4 L1456.61 1532.4 L1456.61 1581.6 L1450.75 1581.6 L1450.75 1562.7 Z" fill="#000000" fill-rule="nonzero" fill-opacity="1" /><path clip-path="url(#clip870)" d="M1467.75 1518.58 L1472.84 1518.58 Q1477.62 1526.09 1479.97 1533.29 Q1482.36 1540.48 1482.36 1547.58 Q1482.36 1554.71 1479.97 1561.93 Q1477.62 1569.16 1472.84 1576.64 L1467.75 1576.64 Q1471.98 1569.35 1474.05 1562.16 Q1476.15 1554.93 1476.15 1547.58 Q1476.15 1540.23 1474.05 1533.06 Q1471.98 1525.9 1467.75 1518.58 Z" fill="#000000" fill-rule="nonzero" fill-opacity="1" /><polyline clip-path="url(#clip872)" style="stroke:#000000; stroke-linecap:round; stroke-linejoin:round; stroke-width:2; stroke-opacity:0.1; fill:none" points="257.204,1364.94 2352.76,1364.94 "/>
<polyline clip-path="url(#clip872)" style="stroke:#000000; stroke-linecap:round; stroke-linejoin:round; stroke-width:2; stroke-opacity:0.1; fill:none" points="257.204,1045.35 2352.76,1045.35 "/>
<polyline clip-path="url(#clip872)" style="stroke:#000000; stroke-linecap:round; stroke-linejoin:round; stroke-width:2; stroke-opacity:0.1; fill:none" points="257.204,725.753 2352.76,725.753 "/>
<polyline clip-path="url(#clip872)" style="stroke:#000000; stroke-linecap:round; stroke-linejoin:round; stroke-width:2; stroke-opacity:0.1; fill:none" points="257.204,406.16 2352.76,406.16 "/>
<polyline clip-path="url(#clip872)" style="stroke:#000000; stroke-linecap:round; stroke-linejoin:round; stroke-width:2; stroke-opacity:0.1; fill:none" points="257.204,86.5674 2352.76,86.5674 "/>
<polyline clip-path="url(#clip870)" style="stroke:#000000; stroke-linecap:round; stroke-linejoin:round; stroke-width:4; stroke-opacity:1; fill:none" points="257.204,1423.18 257.204,47.2441 "/>
<polyline clip-path="url(#clip870)" style="stroke:#000000; stroke-linecap:round; stroke-linejoin:round; stroke-width:4; stroke-opacity:1; fill:none" points="257.204,1364.94 276.102,1364.94 "/>
<polyline clip-path="url(#clip870)" style="stroke:#000000; stroke-linecap:round; stroke-linejoin:round; stroke-width:4; stroke-opacity:1; fill:none" points="257.204,1045.35 276.102,1045.35 "/>
<polyline clip-path="url(#clip870)" style="stroke:#000000; stroke-linecap:round; stroke-linejoin:round; stroke-width:4; stroke-opacity:1; fill:none" points="257.204,725.753 276.102,725.753 "/>
<polyline clip-path="url(#clip870)" style="stroke:#000000; stroke-linecap:round; stroke-linejoin:round; stroke-width:4; stroke-opacity:1; fill:none" points="257.204,406.16 276.102,406.16 "/>
<polyline clip-path="url(#clip870)" style="stroke:#000000; stroke-linecap:round; stroke-linejoin:round; stroke-width:4; stroke-opacity:1; fill:none" points="257.204,86.5674 276.102,86.5674 "/>
<path clip-path="url(#clip870)" d="M114.26 1365.39 L143.936 1365.39 L143.936 1369.33 L114.26 1369.33 L114.26 1365.39 Z" fill="#000000" fill-rule="nonzero" fill-opacity="1" /><path clip-path="url(#clip870)" d="M154.839 1378.28 L162.477 1378.28 L162.477 1351.92 L154.167 1353.59 L154.167 1349.33 L162.431 1347.66 L167.107 1347.66 L167.107 1378.28 L174.746 1378.28 L174.746 1382.22 L154.839 1382.22 L154.839 1378.28 Z" fill="#000000" fill-rule="nonzero" fill-opacity="1" /><path clip-path="url(#clip870)" d="M184.19 1376.34 L189.075 1376.34 L189.075 1382.22 L184.19 1382.22 L184.19 1376.34 Z" fill="#000000" fill-rule="nonzero" fill-opacity="1" /><path clip-path="url(#clip870)" d="M209.26 1350.74 Q205.649 1350.74 203.82 1354.3 Q202.014 1357.84 202.014 1364.97 Q202.014 1372.08 203.82 1375.65 Q205.649 1379.19 209.26 1379.19 Q212.894 1379.19 214.699 1375.65 Q216.528 1372.08 216.528 1364.97 Q216.528 1357.84 214.699 1354.3 Q212.894 1350.74 209.26 1350.74 M209.26 1347.03 Q215.07 1347.03 218.125 1351.64 Q221.204 1356.22 221.204 1364.97 Q221.204 1373.7 218.125 1378.31 Q215.07 1382.89 209.26 1382.89 Q203.449 1382.89 200.371 1378.31 Q197.315 1373.7 197.315 1364.97 Q197.315 1356.22 200.371 1351.64 Q203.449 1347.03 209.26 1347.03 Z" fill="#000000" fill-rule="nonzero" fill-opacity="1" /><path clip-path="url(#clip870)" d="M115.256 1045.8 L144.931 1045.8 L144.931 1049.73 L115.256 1049.73 L115.256 1045.8 Z" fill="#000000" fill-rule="nonzero" fill-opacity="1" /><path clip-path="url(#clip870)" d="M165.024 1031.14 Q161.413 1031.14 159.584 1034.71 Q157.778 1038.25 157.778 1045.38 Q157.778 1052.49 159.584 1056.05 Q161.413 1059.59 165.024 1059.59 Q168.658 1059.59 170.464 1056.05 Q172.292 1052.49 172.292 1045.38 Q172.292 1038.25 170.464 1034.71 Q168.658 1031.14 165.024 1031.14 M165.024 1027.44 Q170.834 1027.44 173.889 1032.05 Q176.968 1036.63 176.968 1045.38 Q176.968 1054.11 173.889 1058.71 Q170.834 1063.3 165.024 1063.3 Q159.214 1063.3 156.135 1058.71 Q153.079 1054.11 153.079 1045.38 Q153.079 1036.63 156.135 1032.05 Q159.214 1027.44 165.024 1027.44 Z" fill="#000000" fill-rule="nonzero" fill-opacity="1" /><path clip-path="url(#clip870)" d="M185.186 1056.75 L190.07 1056.75 L190.07 1062.63 L185.186 1062.63 L185.186 1056.75 Z" fill="#000000" fill-rule="nonzero" fill-opacity="1" /><path clip-path="url(#clip870)" d="M200.301 1028.07 L218.658 1028.07 L218.658 1032 L204.584 1032 L204.584 1040.47 Q205.602 1040.13 206.621 1039.96 Q207.639 1039.78 208.658 1039.78 Q214.445 1039.78 217.824 1042.95 Q221.204 1046.12 221.204 1051.54 Q221.204 1057.12 217.732 1060.22 Q214.26 1063.3 207.94 1063.3 Q205.764 1063.3 203.496 1062.93 Q201.25 1062.56 198.843 1061.82 L198.843 1057.12 Q200.926 1058.25 203.149 1058.81 Q205.371 1059.36 207.848 1059.36 Q211.852 1059.36 214.19 1057.26 Q216.528 1055.15 216.528 1051.54 Q216.528 1047.93 214.19 1045.82 Q211.852 1043.71 207.848 1043.71 Q205.973 1043.71 204.098 1044.13 Q202.246 1044.55 200.301 1045.43 L200.301 1028.07 Z" fill="#000000" fill-rule="nonzero" fill-opacity="1" /><path clip-path="url(#clip870)" d="M164.028 711.552 Q160.417 711.552 158.589 715.117 Q156.783 718.658 156.783 725.788 Q156.783 732.894 158.589 736.459 Q160.417 740.001 164.028 740.001 Q167.663 740.001 169.468 736.459 Q171.297 732.894 171.297 725.788 Q171.297 718.658 169.468 715.117 Q167.663 711.552 164.028 711.552 M164.028 707.848 Q169.839 707.848 172.894 712.455 Q175.973 717.038 175.973 725.788 Q175.973 734.515 172.894 739.121 Q169.839 743.705 164.028 743.705 Q158.218 743.705 155.14 739.121 Q152.084 734.515 152.084 725.788 Q152.084 717.038 155.14 712.455 Q158.218 707.848 164.028 707.848 Z" fill="#000000" fill-rule="nonzero" fill-opacity="1" /><path clip-path="url(#clip870)" d="M184.19 737.154 L189.075 737.154 L189.075 743.033 L184.19 743.033 L184.19 737.154 Z" fill="#000000" fill-rule="nonzero" fill-opacity="1" /><path clip-path="url(#clip870)" d="M209.26 711.552 Q205.649 711.552 203.82 715.117 Q202.014 718.658 202.014 725.788 Q202.014 732.894 203.82 736.459 Q205.649 740.001 209.26 740.001 Q212.894 740.001 214.699 736.459 Q216.528 732.894 216.528 725.788 Q216.528 718.658 214.699 715.117 Q212.894 711.552 209.26 711.552 M209.26 707.848 Q215.07 707.848 218.125 712.455 Q221.204 717.038 221.204 725.788 Q221.204 734.515 218.125 739.121 Q215.07 743.705 209.26 743.705 Q203.449 743.705 200.371 739.121 Q197.315 734.515 197.315 725.788 Q197.315 717.038 200.371 712.455 Q203.449 707.848 209.26 707.848 Z" fill="#000000" fill-rule="nonzero" fill-opacity="1" /><path clip-path="url(#clip870)" d="M165.024 391.959 Q161.413 391.959 159.584 395.524 Q157.778 399.065 157.778 406.195 Q157.778 413.302 159.584 416.866 Q161.413 420.408 165.024 420.408 Q168.658 420.408 170.464 416.866 Q172.292 413.302 172.292 406.195 Q172.292 399.065 170.464 395.524 Q168.658 391.959 165.024 391.959 M165.024 388.255 Q170.834 388.255 173.889 392.862 Q176.968 397.445 176.968 406.195 Q176.968 414.922 173.889 419.528 Q170.834 424.112 165.024 424.112 Q159.214 424.112 156.135 419.528 Q153.079 414.922 153.079 406.195 Q153.079 397.445 156.135 392.862 Q159.214 388.255 165.024 388.255 Z" fill="#000000" fill-rule="nonzero" fill-opacity="1" /><path clip-path="url(#clip870)" d="M185.186 417.561 L190.07 417.561 L190.07 423.44 L185.186 423.44 L185.186 417.561 Z" fill="#000000" fill-rule="nonzero" fill-opacity="1" /><path clip-path="url(#clip870)" d="M200.301 388.88 L218.658 388.88 L218.658 392.816 L204.584 392.816 L204.584 401.288 Q205.602 400.94 206.621 400.778 Q207.639 400.593 208.658 400.593 Q214.445 400.593 217.824 403.765 Q221.204 406.936 221.204 412.352 Q221.204 417.931 217.732 421.033 Q214.26 424.112 207.94 424.112 Q205.764 424.112 203.496 423.741 Q201.25 423.371 198.843 422.63 L198.843 417.931 Q200.926 419.065 203.149 419.621 Q205.371 420.176 207.848 420.176 Q211.852 420.176 214.19 418.07 Q216.528 415.964 216.528 412.352 Q216.528 408.741 214.19 406.635 Q211.852 404.528 207.848 404.528 Q205.973 404.528 204.098 404.945 Q202.246 405.362 200.301 406.241 L200.301 388.88 Z" fill="#000000" fill-rule="nonzero" fill-opacity="1" /><path clip-path="url(#clip870)" d="M154.839 99.9123 L162.477 99.9123 L162.477 73.5467 L154.167 75.2133 L154.167 70.9541 L162.431 69.2874 L167.107 69.2874 L167.107 99.9123 L174.746 99.9123 L174.746 103.847 L154.839 103.847 L154.839 99.9123 Z" fill="#000000" fill-rule="nonzero" fill-opacity="1" /><path clip-path="url(#clip870)" d="M184.19 97.9678 L189.075 97.9678 L189.075 103.847 L184.19 103.847 L184.19 97.9678 Z" fill="#000000" fill-rule="nonzero" fill-opacity="1" /><path clip-path="url(#clip870)" d="M209.26 72.3661 Q205.649 72.3661 203.82 75.9309 Q202.014 79.4725 202.014 86.6021 Q202.014 93.7086 203.82 97.2734 Q205.649 100.815 209.26 100.815 Q212.894 100.815 214.699 97.2734 Q216.528 93.7086 216.528 86.6021 Q216.528 79.4725 214.699 75.9309 Q212.894 72.3661 209.26 72.3661 M209.26 68.6624 Q215.07 68.6624 218.125 73.2689 Q221.204 77.8522 221.204 86.6021 Q221.204 95.3289 218.125 99.9354 Q215.07 104.519 209.26 104.519 Q203.449 104.519 200.371 99.9354 Q197.315 95.3289 197.315 86.6021 Q197.315 77.8522 200.371 73.2689 Q203.449 68.6624 209.26 68.6624 Z" fill="#000000" fill-rule="nonzero" fill-opacity="1" /><path clip-path="url(#clip870)" d="M16.4842 971.396 L16.4842 961.815 L48.8219 949.689 L16.4842 937.498 L16.4842 927.918 L64.0042 927.918 L64.0042 934.188 L22.277 934.188 L54.8694 946.442 L54.8694 952.903 L22.277 965.157 L64.0042 965.157 L64.0042 971.396 L16.4842 971.396 Z" fill="#000000" fill-rule="nonzero" fill-opacity="1" /><path clip-path="url(#clip870)" d="M32.4621 901.596 Q32.4621 906.306 36.1542 909.044 Q39.8145 911.781 46.212 911.781 Q52.6095 911.781 56.3017 909.075 Q59.9619 906.338 59.9619 901.596 Q59.9619 896.917 56.2698 894.18 Q52.5777 891.442 46.212 891.442 Q39.8781 891.442 36.186 894.18 Q32.4621 896.917 32.4621 901.596 M27.4968 901.596 Q27.4968 893.957 32.4621 889.596 Q37.4273 885.236 46.212 885.236 Q54.9649 885.236 59.9619 889.596 Q64.9272 893.957 64.9272 901.596 Q64.9272 909.266 59.9619 913.627 Q54.9649 917.955 46.212 917.955 Q37.4273 917.955 32.4621 913.627 Q27.4968 909.266 27.4968 901.596 Z" fill="#000000" fill-rule="nonzero" fill-opacity="1" /><path clip-path="url(#clip870)" d="M35.1993 847.774 Q31.2526 845.577 29.3747 842.522 Q27.4968 839.466 27.4968 835.329 Q27.4968 829.759 31.4117 826.735 Q35.2948 823.711 42.4881 823.711 L64.0042 823.711 L64.0042 829.599 L42.679 829.599 Q37.5546 829.599 35.072 831.414 Q32.5894 833.228 32.5894 836.952 Q32.5894 841.503 35.6131 844.145 Q38.6368 846.787 43.8567 846.787 L64.0042 846.787 L64.0042 852.675 L42.679 852.675 Q37.5228 852.675 35.072 854.489 Q32.5894 856.304 32.5894 860.091 Q32.5894 864.579 35.6449 867.221 Q38.6686 869.863 43.8567 869.863 L64.0042 869.863 L64.0042 875.751 L28.3562 875.751 L28.3562 869.863 L33.8944 869.863 Q30.616 867.857 29.0564 865.056 Q27.4968 862.256 27.4968 858.404 Q27.4968 854.521 29.4702 851.816 Q31.4436 849.079 35.1993 847.774 Z" fill="#000000" fill-rule="nonzero" fill-opacity="1" /><path clip-path="url(#clip870)" d="M44.7161 781.538 L47.5806 781.538 L47.5806 808.465 Q53.6281 808.083 56.8109 804.837 Q59.9619 801.559 59.9619 795.734 Q59.9619 792.36 59.1344 789.209 Q58.3069 786.026 56.6518 782.907 L62.1899 782.907 Q63.5267 786.058 64.227 789.368 Q64.9272 792.678 64.9272 796.084 Q64.9272 804.614 59.9619 809.611 Q54.9967 814.576 46.5303 814.576 Q37.7774 814.576 32.6531 809.866 Q27.4968 805.123 27.4968 797.103 Q27.4968 789.909 32.1438 785.74 Q36.7589 781.538 44.7161 781.538 M42.9973 787.395 Q38.1912 787.459 35.3266 790.1 Q32.4621 792.71 32.4621 797.039 Q32.4621 801.94 35.2312 804.901 Q38.0002 807.829 43.0292 808.274 L42.9973 787.395 Z" fill="#000000" fill-rule="nonzero" fill-opacity="1" /><path clip-path="url(#clip870)" d="M42.4881 742.294 L64.0042 742.294 L64.0042 748.15 L42.679 748.15 Q37.6183 748.15 35.1038 750.124 Q32.5894 752.097 32.5894 756.044 Q32.5894 760.786 35.6131 763.523 Q38.6368 766.261 43.8567 766.261 L64.0042 766.261 L64.0042 772.149 L28.3562 772.149 L28.3562 766.261 L33.8944 766.261 Q30.6797 764.16 29.0883 761.327 Q27.4968 758.463 27.4968 754.739 Q27.4968 748.596 31.3163 745.445 Q35.1038 742.294 42.4881 742.294 Z" fill="#000000" fill-rule="nonzero" fill-opacity="1" /><path clip-path="url(#clip870)" d="M18.2347 724.82 L28.3562 724.82 L28.3562 712.757 L32.9077 712.757 L32.9077 724.82 L52.2594 724.82 Q56.6199 724.82 57.8613 723.642 Q59.1026 722.433 59.1026 718.773 L59.1026 712.757 L64.0042 712.757 L64.0042 718.773 Q64.0042 725.552 61.4897 728.13 Q58.9434 730.708 52.2594 730.708 L32.9077 730.708 L32.9077 735.005 L28.3562 735.005 L28.3562 730.708 L18.2347 730.708 L18.2347 724.82 Z" fill="#000000" fill-rule="nonzero" fill-opacity="1" /><path clip-path="url(#clip870)" d="M49.9359 705.659 L28.3562 705.659 L28.3562 699.803 L49.7131 699.803 Q54.7739 699.803 57.3202 697.829 Q59.8346 695.856 59.8346 691.909 Q59.8346 687.167 56.8109 684.43 Q53.7872 681.66 48.5673 681.66 L28.3562 681.66 L28.3562 675.804 L64.0042 675.804 L64.0042 681.66 L58.5296 681.66 Q61.7762 683.793 63.3676 686.626 Q64.9272 689.427 64.9272 693.151 Q64.9272 699.293 61.1078 702.476 Q57.2883 705.659 49.9359 705.659 M27.4968 690.923 L27.4968 690.923 Z" fill="#000000" fill-rule="nonzero" fill-opacity="1" /><path clip-path="url(#clip870)" d="M35.1993 635.987 Q31.2526 633.79 29.3747 630.735 Q27.4968 627.679 27.4968 623.542 Q27.4968 617.972 31.4117 614.948 Q35.2948 611.924 42.4881 611.924 L64.0042 611.924 L64.0042 617.812 L42.679 617.812 Q37.5546 617.812 35.072 619.627 Q32.5894 621.441 32.5894 625.165 Q32.5894 629.716 35.6131 632.358 Q38.6368 635 43.8567 635 L64.0042 635 L64.0042 640.888 L42.679 640.888 Q37.5228 640.888 35.072 642.702 Q32.5894 644.517 32.5894 648.304 Q32.5894 652.792 35.6449 655.434 Q38.6686 658.076 43.8567 658.076 L64.0042 658.076 L64.0042 663.964 L28.3562 663.964 L28.3562 658.076 L33.8944 658.076 Q30.616 656.07 29.0564 653.269 Q27.4968 650.468 27.4968 646.617 Q27.4968 642.734 29.4702 640.029 Q31.4436 637.291 35.1993 635.987 Z" fill="#000000" fill-rule="nonzero" fill-opacity="1" /><path clip-path="url(#clip870)" d="M14.5426 565.454 Q21.8632 569.72 29.0246 571.788 Q36.186 573.857 43.5384 573.857 Q50.8908 573.857 58.1159 571.788 Q65.3091 569.688 72.5979 565.454 L72.5979 570.547 Q65.1182 575.321 57.8931 577.708 Q50.668 580.064 43.5384 580.064 Q36.4406 580.064 29.2474 577.708 Q22.0542 575.353 14.5426 570.547 L14.5426 565.454 Z" fill="#000000" fill-rule="nonzero" fill-opacity="1" /><path clip-path="url(#clip870)" d="M58.657 548.426 L77.5631 548.426 L77.5631 554.315 L28.3562 554.315 L28.3562 548.426 L33.7671 548.426 Q30.5842 546.58 29.0564 543.779 Q27.4968 540.947 27.4968 537.032 Q27.4968 530.539 32.6531 526.496 Q37.8093 522.422 46.212 522.422 Q54.6147 522.422 59.771 526.496 Q64.9272 530.539 64.9272 537.032 Q64.9272 540.947 63.3994 543.779 Q61.8398 546.58 58.657 548.426 M46.212 528.502 Q39.7508 528.502 36.0905 531.175 Q32.3984 533.817 32.3984 538.464 Q32.3984 543.111 36.0905 545.784 Q39.7508 548.426 46.212 548.426 Q52.6732 548.426 56.3653 545.784 Q60.0256 543.111 60.0256 538.464 Q60.0256 533.817 56.3653 531.175 Q52.6732 528.502 46.212 528.502 Z" fill="#000000" fill-rule="nonzero" fill-opacity="1" /><path clip-path="url(#clip870)" d="M14.5426 513.638 L14.5426 508.545 Q22.0542 503.771 29.2474 501.415 Q36.4406 499.028 43.5384 499.028 Q50.668 499.028 57.8931 501.415 Q65.1182 503.771 72.5979 508.545 L72.5979 513.638 Q65.3091 509.404 58.1159 507.336 Q50.8908 505.235 43.5384 505.235 Q36.186 505.235 29.0246 507.336 Q21.8632 509.404 14.5426 513.638 Z" fill="#000000" fill-rule="nonzero" fill-opacity="1" /><polyline clip-path="url(#clip872)" style="stroke:#009af9; stroke-linecap:round; stroke-linejoin:round; stroke-width:16; stroke-opacity:1; fill:none" points="1298.81,86.5674 1304.83,86.5795 1310.85,86.6157 1316.87,86.6759 1322.89,86.7603 1328.91,86.8688 1334.92,87.0014 1340.94,87.1581 1346.95,87.3388 1352.97,87.5437 1358.98,87.7727 1364.98,88.0256 1370.99,88.3027 1376.99,88.6038 1382.99,88.929 1388.99,89.2781 1394.98,89.6513 1400.97,90.0485 1406.95,90.4696 1412.93,90.9147 1418.91,91.3838 1424.88,91.8768 1430.85,92.3937 1436.81,92.9345 1442.77,93.4992 1448.72,94.0877 1454.67,94.7 1460.61,95.3362 1466.55,95.9961 1472.47,96.6798 1478.39,97.3872 1484.31,98.1183 1490.22,98.8731 1496.12,99.6516 1502.01,100.454 1507.9,101.279 1513.77,102.129 1519.64,103.001 1525.5,103.897 1531.36,104.817 1537.2,105.76 1543.04,106.727 1548.86,107.717 1554.68,108.73 1560.48,109.766 1566.28,110.826 1572.07,111.909 1577.84,113.015 1583.61,114.144 1589.36,115.296 1595.11,116.471 1600.84,117.67 1606.56,118.891 1612.27,120.135 1617.97,121.402 1623.66,122.692 1629.33,124.004 1634.99,125.339 1640.64,126.697 1646.27,128.077 1651.9,129.48 1657.51,130.906 1663.1,132.354 1668.68,133.824 1674.25,135.316 1679.81,136.831 1685.35,138.368 1690.87,139.928 1696.38,141.509 1701.88,143.112 1707.36,144.738 1712.82,146.385 1718.27,148.054 1723.7,149.745 1729.12,151.458 1734.52,153.192 1739.9,154.948 1745.27,156.725 1750.62,158.524 1755.96,160.345 1761.27,162.186 1766.57,164.049 1771.85,165.933 1777.12,167.839 1782.36,169.765 1787.59,171.712 1792.8,173.68 1797.99,175.669 1803.16,177.679 1808.31,179.709 1813.45,181.76 1818.56,183.832 1823.65,185.924 1828.73,188.036 1833.78,190.169 1838.82,192.321 1843.83,194.494 1848.82,196.687 1853.8,198.9 1858.75,201.133 1863.68,203.385 1868.59,205.658 1873.48,207.95 1878.34,210.261 1883.19,212.592 1888.01,214.942 1892.81,217.312 1897.59,219.7 1902.34,222.108 1907.07,224.535 1911.78,226.981 1916.47,229.445 1921.13,231.928 1925.77,234.43 1930.39,236.951 1934.98,239.49 1939.54,242.047 1944.09,244.622 1948.61,247.216 1953.1,249.827 1957.57,252.457 1962.02,255.104 1966.44,257.769 1970.83,260.452 1975.2,263.153 1979.55,265.871 1983.87,268.606 1988.16,271.358 1992.42,274.128 1996.66,276.914 2000.88,279.718 2005.07,282.538 2009.23,285.375 2013.36,288.229 2017.47,291.099 2021.55,293.986 2025.6,296.889 2029.63,299.808 2033.63,302.743 2037.6,305.694 2041.54,308.661 2045.45,311.644 2049.34,314.642 2053.2,317.656 2057.03,320.685 2060.83,323.729 2064.6,326.789 2068.34,329.864 2072.06,332.953 2075.74,336.058 2079.4,339.177 2083.02,342.311 2086.62,345.459 2090.19,348.621 2093.72,351.798 2097.23,354.989 2100.71,358.194 2104.15,361.413 2107.57,364.645 2110.96,367.891 2114.31,371.151 2117.63,374.424 2120.93,377.71 2124.19,381.009 2127.42,384.322 2130.62,387.647 2133.79,390.985 2136.93,394.336 2140.03,397.699 2143.11,401.074 2146.15,404.462 2149.16,407.862 2152.14,411.274 2155.08,414.697 2158,418.133 2160.88,421.58 2163.73,425.038 2166.54,428.508 2169.33,431.989 2172.08,435.482 2174.79,438.985 2177.48,442.499 2180.13,446.023 2182.75,449.558 2185.33,453.104 2187.88,456.66 2190.4,460.226 2192.88,463.802 2195.33,467.388 2197.75,470.984 2200.13,474.589 2202.48,478.204 2204.8,481.828 2207.08,485.461 2209.32,489.103 2211.53,492.755 2213.71,496.415 2215.85,500.083 2217.96,503.761 2220.04,507.446 2222.07,511.14 2224.08,514.842 2226.05,518.552 2227.98,522.27 2229.88,525.995 2231.74,529.728 2233.57,533.468 2235.37,537.216 2237.12,540.971 2238.85,544.732 2240.53,548.501 2242.19,552.276 2243.8,556.058 2245.38,559.846 2246.93,563.64 2248.44,567.441 2249.91,571.247 2251.35,575.06 2252.75,578.878 2254.11,582.701 2255.44,586.53 2256.74,590.364 2257.99,594.203 2259.21,598.048 2260.4,601.897 2261.55,605.75 2262.66,609.609 2263.73,613.471 2264.77,617.338 2265.78,621.209 2266.74,625.084 2267.67,628.963 2268.57,632.845 2269.42,636.731 2270.24,640.62 2271.03,644.513 2271.77,648.408 2272.48,652.307 2273.16,656.208 2273.79,660.112 2274.39,664.018 2274.96,667.927 2275.48,671.837 2275.97,675.75 2276.42,679.665 2276.84,683.581 2277.22,687.499 2277.56,691.419 2277.87,695.34 2278.13,699.262 2278.36,703.185 2278.56,707.108 2278.72,711.033 2278.84,714.958 2278.92,718.883 2278.97,722.809 2278.97,726.735 2278.95,730.661 2278.88,734.586 2278.78,738.511 2278.64,742.436 2278.47,746.36 2278.25,750.284 2278,754.206 2277.72,758.128 2277.39,762.048 2277.03,765.966 2276.64,769.884 2276.2,773.799 2275.73,777.713 2275.22,781.625 2274.68,785.535 2274.1,789.442 2273.48,793.347 2272.82,797.25 2272.13,801.15 2271.4,805.047 2270.64,808.941 2269.84,812.831 2269,816.719 2268.12,820.603 2267.21,824.484 2266.26,828.36 2265.28,832.233 2264.26,836.102 2263.2,839.967 2262.11,843.828 2260.98,847.684 2259.81,851.535 2258.61,855.382 2257.37,859.223 2256.09,863.06 2254.78,866.892 2253.43,870.718 2252.05,874.539 2250.63,878.354 2249.18,882.163 2247.69,885.967 2246.16,889.764 2244.6,893.556 2243,897.341 2241.36,901.119 2239.69,904.891 2237.99,908.656 2236.25,912.414 2234.47,916.165 2232.66,919.909 2230.82,923.646 2228.94,927.375 2227.02,931.097 2225.07,934.811 2223.08,938.517 2221.06,942.214 2219,945.904 2216.91,949.586 2214.79,953.259 2212.63,956.923 2210.43,960.579 2208.2,964.226 2205.94,967.863 2203.64,971.492 2201.31,975.112 2198.95,978.722 2196.55,982.322 2194.11,985.913 2191.65,989.494 2189.15,993.065 2186.61,996.626 2184.04,1000.18 2181.44,1003.72 2178.81,1007.25 2176.14,1010.77 2173.44,1014.27 2170.7,1017.77 2167.94,1021.26 2165.14,1024.73 2162.31,1028.2 2159.44,1031.65 2156.54,1035.09 2153.61,1038.52 2150.65,1041.94 2147.66,1045.35 2144.63,1048.74 2141.57,1052.12 2138.48,1055.49 2135.36,1058.85 2132.21,1062.19 2129.03,1065.52 2125.81,1068.84 2122.56,1072.15 2119.29,1075.44 2115.98,1078.72 2112.64,1081.99 2109.27,1085.24 2105.87,1088.48 2102.43,1091.71 2098.97,1094.92 2095.48,1098.11 2091.96,1101.3 2088.41,1104.47 2084.82,1107.62 2081.21,1110.76 2077.57,1113.89 2073.9,1117 2070.2,1120.1 2066.47,1123.18 2062.72,1126.25 2058.93,1129.3 2055.11,1132.34 2051.27,1135.36 2047.4,1138.37 2043.5,1141.36 2039.57,1144.33 2035.61,1147.29 2031.63,1150.23 2027.62,1153.16 2023.58,1156.07 2019.51,1158.97 2015.42,1161.84 2011.3,1164.71 2007.15,1167.55 2002.98,1170.38 1998.78,1173.19 1994.55,1175.99 1990.29,1178.77 1986.01,1181.53 1981.71,1184.27 1977.38,1187 1973.02,1189.71 1968.64,1192.4 1964.23,1195.07 1959.8,1197.73 1955.34,1200.37 1950.86,1202.99 1946.35,1205.59 1941.82,1208.17 1937.26,1210.74 1932.68,1213.29 1928.08,1215.82 1923.45,1218.33 1918.8,1220.82 1914.13,1223.3 1909.43,1225.75 1904.71,1228.19 1899.97,1230.6 1895.2,1233 1890.41,1235.38 1885.6,1237.74 1880.77,1240.08 1875.91,1242.4 1871.03,1244.71 1866.14,1246.99 1861.22,1249.25 1856.28,1251.49 1851.31,1253.72 1846.33,1255.92 1841.33,1258.1 1836.3,1260.26 1831.26,1262.41 1826.19,1264.53 1821.11,1266.63 1816.01,1268.71 1810.88,1270.77 1805.74,1272.82 1800.58,1274.84 1795.4,1276.83 1790.2,1278.81 1784.98,1280.77 1779.74,1282.71 1774.49,1284.62 1769.21,1286.52 1763.92,1288.39 1758.62,1290.24 1753.29,1292.07 1747.95,1293.88 1742.59,1295.67 1737.21,1297.44 1731.82,1299.18 1726.41,1300.91 1720.99,1302.61 1715.55,1304.29 1710.09,1305.95 1704.62,1307.58 1699.13,1309.2 1693.63,1310.79 1688.11,1312.36 1682.58,1313.91 1677.03,1315.44 1671.47,1316.94 1665.89,1318.42 1660.31,1319.88 1654.7,1321.32 1649.09,1322.73 1643.46,1324.12 1637.82,1325.49 1632.16,1326.84 1626.49,1328.16 1620.81,1329.46 1615.12,1330.74 1609.42,1332 1603.7,1333.23 1597.98,1334.44 1592.24,1335.63 1586.49,1336.79 1580.73,1337.93 1574.96,1339.05 1569.17,1340.14 1563.38,1341.21 1557.58,1342.26 1551.77,1343.29 1545.95,1344.29 1540.12,1345.27 1534.28,1346.22 1528.43,1347.15 1522.57,1348.06 1516.71,1348.94 1510.84,1349.81 1504.95,1350.64 1499.07,1351.46 1493.17,1352.25 1487.26,1353.01 1481.35,1353.76 1475.43,1354.48 1469.51,1355.17 1463.58,1355.84 1457.64,1356.49 1451.7,1357.12 1445.75,1357.72 1439.79,1358.29 1433.83,1358.85 1427.87,1359.37 1421.9,1359.88 1415.92,1360.36 1409.94,1360.82 1403.96,1361.25 1397.97,1361.66 1391.98,1362.04 1385.99,1362.41 1379.99,1362.74 1373.99,1363.06 1367.99,1363.35 1361.98,1363.61 1355.97,1363.85 1349.96,1364.07 1343.95,1364.26 1337.93,1364.43 1331.92,1364.57 1325.9,1364.7 1319.88,1364.79 1313.86,1364.86 1307.84,1364.91 1301.82,1364.94 1295.8,1364.94 1289.78,1364.91 1283.76,1364.86 1277.74,1364.79 1271.73,1364.7 1265.71,1364.57 1259.69,1364.43 1253.68,1364.26 1247.67,1364.07 1241.65,1363.85 1235.65,1363.61 1229.64,1363.35 1223.64,1363.06 1217.63,1362.74 1211.64,1362.41 1205.64,1362.04 1199.65,1361.66 1193.66,1361.25 1187.68,1360.82 1181.7,1360.36 1175.73,1359.88 1169.76,1359.37 1163.79,1358.85 1157.83,1358.29 1151.88,1357.72 1145.93,1357.12 1139.98,1356.49 1134.05,1355.84 1128.11,1355.17 1122.19,1354.48 1116.27,1353.76 1110.36,1353.01 1104.46,1352.25 1098.56,1351.46 1092.67,1350.64 1086.79,1349.81 1080.92,1348.94 1075.05,1348.06 1069.19,1347.15 1063.34,1346.22 1057.51,1345.27 1051.68,1344.29 1045.85,1343.29 1040.04,1342.26 1034.24,1341.21 1028.45,1340.14 1022.67,1339.05 1016.9,1337.93 1011.14,1336.79 1005.39,1335.63 999.649,1334.44 993.922,1333.23 988.207,1332 982.503,1330.74 976.811,1329.46 971.131,1328.16 965.463,1326.84 959.809,1325.49 954.166,1324.12 948.537,1322.73 942.921,1321.32 937.319,1319.88 931.73,1318.42 926.155,1316.94 920.594,1315.44 915.047,1313.91 909.515,1312.36 903.998,1310.79 898.495,1309.2 893.008,1307.58 887.535,1305.95 882.079,1304.29 876.638,1302.61 871.213,1300.91 865.804,1299.18 860.411,1297.44 855.035,1295.67 849.676,1293.88 844.334,1292.07 839.008,1290.24 833.7,1288.39 828.41,1286.52 823.137,1284.62 817.883,1282.71 812.646,1280.77 807.428,1278.81 802.229,1276.83 797.048,1274.84 791.886,1272.82 786.743,1270.77 781.619,1268.71 776.515,1266.63 771.431,1264.53 766.367,1262.41 761.322,1260.26 756.298,1258.1 751.295,1255.92 746.312,1253.72 741.35,1251.49 736.409,1249.25 731.489,1246.99 726.59,1244.71 721.714,1242.4 716.859,1240.08 712.025,1237.74 707.214,1235.38 702.426,1233 697.659,1230.6 692.916,1228.19 688.195,1225.75 683.498,1223.3 678.823,1220.82 674.172,1218.33 669.545,1215.82 664.941,1213.29 660.361,1210.74 655.806,1208.17 651.274,1205.59 646.767,1202.99 642.285,1200.37 637.827,1197.73 633.394,1195.07 628.987,1192.4 624.604,1189.71 620.247,1187 615.916,1184.27 611.61,1181.53 607.331,1178.77 603.077,1175.99 598.85,1173.19 594.649,1170.38 590.475,1167.55 586.327,1164.71 582.206,1161.84 578.113,1158.97 574.046,1156.07 570.007,1153.16 565.995,1150.23 562.011,1147.29 558.055,1144.33 554.126,1141.36 550.226,1138.37 546.354,1135.36 542.511,1132.34 538.696,1129.3 534.909,1126.25 531.152,1123.18 527.423,1120.1 523.723,1117 520.053,1113.89 516.412,1110.76 512.801,1107.62 509.219,1104.47 505.667,1101.3 502.145,1098.11 498.653,1094.92 495.191,1091.71 491.76,1088.48 488.359,1085.24 484.988,1081.99 481.648,1078.72 478.34,1075.44 475.062,1072.15 471.815,1068.84 468.599,1065.52 465.415,1062.19 462.262,1058.85 459.14,1055.49 456.05,1052.12 452.993,1048.74 449.967,1045.35 446.972,1041.94 444.011,1038.52 441.081,1035.09 438.184,1031.65 435.319,1028.2 432.487,1024.73 429.687,1021.26 426.92,1017.77 424.186,1014.27 421.486,1010.77 418.818,1007.25 416.183,1003.72 413.582,1000.18 411.014,996.626 408.48,993.065 405.979,989.494 403.512,985.913 401.078,982.322 398.679,978.722 396.313,975.111 393.982,971.492 391.684,967.863 389.421,964.226 387.192,960.579 384.998,956.923 382.838,953.259 380.712,949.585 378.622,945.904 376.565,942.214 374.544,938.516 372.558,934.81 370.606,931.097 368.69,927.375 366.808,923.646 364.962,919.909 363.151,916.165 361.375,912.414 359.635,908.656 357.93,904.891 356.261,901.119 354.627,897.341 353.029,893.555 351.466,889.764 349.939,885.967 348.448,882.163 346.993,878.354 345.574,874.539 344.19,870.718 342.843,866.892 341.532,863.06 340.257,859.223 339.018,855.382 337.815,851.535 336.648,847.684 335.518,843.827 334.424,839.967 333.367,836.102 332.346,832.233 331.361,828.36 330.413,824.483 329.501,820.603 328.626,816.719 327.788,812.831 326.986,808.94 326.221,805.047 325.492,801.149 324.801,797.25 324.146,793.347 323.527,789.442 322.946,785.535 322.401,781.625 321.894,777.713 321.423,773.799 320.989,769.884 320.591,765.966 320.231,762.048 319.908,758.127 319.621,754.206 319.372,750.284 319.159,746.36 318.984,742.436 318.845,738.511 318.743,734.586 318.679,730.66 318.651,726.735 318.66,722.809 318.706,718.883 318.789,714.958 318.91,711.033 319.067,707.108 319.261,703.185 319.492,699.261 319.76,695.34 320.065,691.419 320.407,687.499 320.785,683.581 321.201,679.665 321.653,675.75 322.143,671.837 322.669,667.926 323.232,664.018 323.832,660.112 324.469,656.208 325.142,652.307 325.852,648.408 326.599,644.512 327.382,640.62 328.203,636.731 329.059,632.845 329.953,628.963 330.882,625.084 331.849,621.209 332.852,617.338 333.891,613.471 334.967,609.609 336.079,605.75 337.227,601.897 338.412,598.048 339.633,594.203 340.89,590.364 342.183,586.53 343.512,582.701 344.878,578.877 346.279,575.06 347.716,571.247 349.189,567.441 350.698,563.64 352.243,559.846 353.823,556.058 355.439,552.276 357.091,548.501 358.778,544.732 360.501,540.971 362.259,537.216 364.052,533.468 365.881,529.728 367.745,525.995 369.644,522.27 371.578,518.552 373.547,514.842 375.55,511.14 377.589,507.446 379.663,503.76 381.771,500.083 383.914,496.415 386.091,492.755 388.303,489.103 390.548,485.461 392.829,481.828 395.143,478.204 397.492,474.589 399.874,470.984 402.291,467.388 404.741,463.802 407.225,460.226 409.743,456.66 412.294,453.104 414.879,449.558 417.496,446.023 420.148,442.498 422.832,438.985 425.549,435.481 428.3,431.989 431.083,428.508 433.899,425.038 436.747,421.58 439.629,418.133 442.542,414.697 445.488,411.273 448.466,407.862 451.476,404.462 454.518,401.074 457.592,397.699 460.697,394.336 463.834,390.985 467.003,387.647 470.203,384.322 473.435,381.009 476.697,377.71 479.99,374.424 483.315,371.151 486.67,367.891 490.056,364.645 493.472,361.413 496.919,358.194 500.396,354.989 503.902,351.798 507.44,348.621 511.007,345.459 514.603,342.311 518.229,339.177 521.885,336.058 525.57,332.953 529.284,329.864 533.027,326.789 536.799,323.729 540.6,320.685 544.429,317.656 548.287,314.642 552.173,311.643 556.087,308.661 560.03,305.694 564,302.743 567.998,299.808 572.023,296.889 576.076,293.986 580.156,291.099 584.263,288.229 588.398,285.375 592.559,282.538 596.746,279.718 600.96,276.914 605.201,274.128 609.467,271.358 613.76,268.606 618.079,265.871 622.423,263.153 626.792,260.452 631.188,257.769 635.608,255.104 640.053,252.457 644.523,249.827 649.018,247.216 653.537,244.622 658.081,242.047 662.649,239.489 667.24,236.951 671.856,234.43 676.495,231.928 681.158,229.445 685.844,226.981 690.553,224.535 695.285,222.108 700.04,219.7 704.817,217.312 709.617,214.942 714.44,212.592 719.283,210.261 724.15,207.95 729.037,205.658 733.946,203.385 738.877,201.133 743.828,198.9 748.801,196.687 753.794,194.494 758.808,192.321 763.842,190.168 768.897,188.036 773.971,185.924 779.065,183.832 784.179,181.76 789.312,179.709 794.464,177.679 799.636,175.669 804.826,173.68 810.035,171.712 815.262,169.765 820.508,167.838 825.772,165.933 831.053,164.049 836.353,162.186 841.669,160.345 847.003,158.524 852.354,156.725 857.721,154.948 863.106,153.192 868.506,151.458 873.923,149.745 879.356,148.054 884.805,146.385 890.27,144.738 895.75,143.112 901.245,141.509 906.755,139.928 912.28,138.368 917.819,136.831 923.373,135.316 928.941,133.824 934.523,132.354 940.119,130.906 945.728,129.48 951.35,128.077 956.986,126.697 962.635,125.339 968.296,124.004 973.969,122.692 979.656,121.402 985.353,120.135 991.063,118.891 996.785,117.67 1002.52,116.471 1008.26,115.296 1014.02,114.144 1019.78,113.015 1025.56,111.909 1031.35,110.826 1037.14,109.766 1042.95,108.73 1048.76,107.717 1054.59,106.727 1060.42,105.76 1066.27,104.817 1072.12,103.897 1077.98,103.001 1083.85,102.129 1089.73,101.279 1095.61,100.454 1101.51,99.6516 1107.41,98.8731 1113.32,98.1183 1119.23,97.3872 1125.15,96.6798 1131.08,95.9961 1137.01,95.3362 1142.96,94.7 1148.9,94.0877 1154.85,93.4991 1160.81,92.9344 1166.77,92.3937 1172.74,91.8767 1178.71,91.3838 1184.69,90.9147 1190.67,90.4696 1196.66,90.0484 1202.65,89.6513 1208.64,89.2781 1214.64,88.929 1220.63,88.6038 1226.64,88.3027 1232.64,88.0256 1238.65,87.7726 1244.66,87.5437 1250.67,87.3388 1256.69,87.1581 1262.7,87.0014 1268.72,86.8688 1274.73,86.7603 1280.75,86.6759 1286.77,86.6157 1292.79,86.5795 1298.81,86.5674 "/>
<polyline clip-path="url(#clip872)" style="stroke:#e26f46; stroke-linecap:round; stroke-linejoin:round; stroke-width:16; stroke-opacity:1; fill:none" points="1298.81,86.5674 1304.82,86.4559 1310.82,86.4281 1316.83,86.4 1322.84,86.372 1328.84,86.3441 1334.85,86.3161 1340.85,86.2866 1346.86,86.2399 1352.87,86.1974 1358.88,86.1857 1364.87,86.2247 1370.87,86.328 1376.85,86.503 1382.83,86.7501 1388.81,87.0638 1394.77,87.4319 1400.74,87.8357 1406.7,88.2502 1412.67,88.6335 1418.65,88.927 1424.64,89.2267 1430.6,89.6231 1436.53,90.1719 1442.42,90.8945 1448.27,91.7777 1454.1,92.7739 1459.92,93.8009 1465.75,94.7916 1471.58,95.7805 1477.41,96.7695 1483.24,97.7584 1489.07,98.7473 1494.9,99.7362 1500.73,100.725 1506.56,101.714 1512.38,102.703 1518.22,103.677 1524.09,104.609 1529.97,105.505 1535.88,106.371 1541.8,107.215 1547.72,108.042 1553.66,108.859 1559.6,109.671 1565.53,110.484 1571.47,111.302 1577.39,112.132 1583.31,112.976 1589.22,113.84 1595.11,114.727 1600.98,115.641 1606.84,116.586 1612.68,117.564 1618.49,118.578 1624.28,119.631 1630.04,120.726 1635.78,121.863 1641.49,123.045 1647.18,124.272 1652.83,125.547 1658.46,126.869 1664.05,128.239 1669.62,129.658 1675.15,131.125 1680.66,132.64 1686.14,134.202 1691.59,135.81 1697.01,137.463 1702.4,139.159 1707.77,140.896 1713.12,142.673 1718.44,144.487 1723.75,146.335 1729.03,148.213 1734.3,150.12 1739.55,152.05 1744.79,154.002 1750.02,155.968 1755.24,157.947 1760.46,159.932 1765.68,161.919 1770.9,163.902 1776.12,165.876 1781.36,167.834 1786.6,169.772 1791.85,171.71 1797.03,173.709 1802.16,175.764 1807.25,177.865 1812.31,180.007 1817.33,182.183 1822.33,184.385 1827.31,186.608 1832.27,188.848 1837.22,191.099 1842.17,193.358 1847.11,195.62 1852.05,197.883 1857,200.144 1861.95,202.401 1866.9,204.653 1871.86,206.898 1876.82,209.137 1881.79,211.37 1886.77,213.597 1891.74,215.82 1896.73,218.04 1901.71,220.26 1906.69,222.482 1911.66,224.71 1916.65,226.934 1921.65,229.157 1926.65,231.382 1931.64,233.615 1936.62,235.861 1941.58,238.122 1946.52,240.404 1951.42,242.709 1956.29,245.04 1961.11,247.401 1965.89,249.792 1970.62,252.218 1975.3,254.678 1979.92,257.175 1984.49,259.709 1989,262.281 1993.46,264.891 1997.86,267.539 2002.2,270.225 2006.48,272.947 2010.71,275.704 2014.89,278.495 2019.02,281.318 2023.1,284.171 2027.14,287.05 2031.15,289.954 2035.12,292.878 2039.07,295.82 2042.99,298.774 2046.91,301.737 2050.81,304.704 2054.72,307.669 2058.64,310.628 2062.58,313.574 2066.55,316.506 2070.54,319.43 2074.53,322.353 2078.52,325.281 2082.49,328.218 2086.44,331.171 2090.34,334.142 2094.2,337.137 2098.01,340.157 2101.76,343.206 2105.44,346.287 2109.05,349.401 2112.59,352.55 2116.05,355.734 2119.44,358.954 2122.75,362.21 2125.99,365.502 2129.15,368.828 2132.25,372.187 2135.27,375.576 2138.24,378.995 2141.15,382.439 2144.01,385.905 2146.83,389.39 2149.63,392.888 2152.4,396.396 2155.16,399.907 2157.93,403.417 2160.72,406.918 2163.54,410.405 2166.4,413.88 2169.29,417.347 2172.19,420.811 2175.09,424.273 2177.99,427.736 2180.88,431.204 2183.74,434.678 2186.57,438.16 2189.37,441.651 2192.13,445.153 2194.85,448.666 2197.53,452.192 2200.16,455.73 2202.74,459.28 2205.29,462.843 2207.79,466.417 2210.25,470.001 2212.68,473.595 2215.08,477.196 2217.46,480.803 2219.82,484.414 2222.19,488.026 2224.55,491.637 2226.94,495.243 2229.27,498.86 2231.5,502.499 2233.65,506.158 2235.72,509.834 2237.73,513.526 2239.67,517.231 2241.56,520.948 2243.41,524.676 2245.22,528.412 2247,532.156 2248.75,535.907 2250.47,539.662 2252.18,543.422 2253.87,547.186 2255.55,550.953 2257.22,554.722 2258.88,558.492 2260.53,562.265 2262.17,566.038 2263.8,569.814 2265.41,573.59 2267.02,577.369 2268.6,581.149 2270.17,584.932 2271.71,588.717 2273.22,592.507 2274.7,596.302 2276.14,600.102 2277.54,603.909 2278.94,607.721 2280.31,611.54 2281.66,615.365 2282.95,619.195 2284.2,623.032 2285.38,626.875 2286.5,630.724 2287.55,634.579 2288.51,638.44 2289.4,642.307 2290.2,646.179 2290.91,650.057 2291.53,653.94 2292.06,657.829 2292.5,661.722 2292.85,665.62 2293.12,669.522 2293.31,673.428 2293.41,677.338 2293.45,681.252 2293.42,685.169 2293.32,689.088 2293.18,693.009 2292.99,696.933 2292.77,700.858 2292.53,704.783 2292.28,708.71 2292.03,712.636 2291.8,716.561 2291.6,720.486 2291.44,724.412 2291.33,728.34 2291.25,732.27 2291.17,736.201 2291.09,740.131 2291,744.06 2290.88,747.988 2290.72,751.914 2290.52,755.837 2290.27,759.757 2289.97,763.675 2289.6,767.588 2289.17,771.499 2288.69,775.405 2288.14,779.309 2287.53,783.208 2286.87,787.105 2286.16,790.999 2285.4,794.89 2284.61,798.78 2283.8,802.667 2282.97,806.554 2282.14,810.441 2281.32,814.329 2280.52,818.217 2279.67,822.102 2278.76,825.981 2277.8,829.855 2276.78,833.724 2275.71,837.588 2274.6,841.447 2273.45,845.302 2272.26,849.152 2271.03,852.998 2269.78,856.84 2268.49,860.678 2267.19,864.513 2265.86,868.344 2264.51,872.173 2263.15,875.998 2261.77,879.821 2260.38,883.642 2258.98,887.46 2257.57,891.277 2256.15,895.092 2254.73,898.905 2253.31,902.718 2251.88,906.53 2250.46,910.342 2249.03,914.153 2247.6,917.965 2246.17,921.777 2244.72,925.586 2243.23,929.389 2241.68,933.183 2240.08,936.967 2238.43,940.741 2236.72,944.502 2234.95,948.25 2233.12,951.985 2231.23,955.704 2229.28,959.408 2227.26,963.096 2225.18,966.768 2223.03,970.422 2220.82,974.059 2218.55,977.679 2216.21,981.282 2213.81,984.867 2211.35,988.435 2208.83,991.986 2206.25,995.52 2203.62,999.038 2200.94,1002.54 2198.2,1006.03 2195.42,1009.5 2192.59,1012.96 2189.72,1016.41 2186.81,1019.84 2183.87,1023.27 2180.91,1026.69 2177.91,1030.1 2174.9,1033.5 2171.88,1036.9 2168.84,1040.3 2165.81,1043.69 2162.77,1047.09 2159.75,1050.49 2156.74,1053.9 2153.77,1057.32 2150.86,1060.76 2147.99,1064.23 2145.14,1067.71 2142.31,1071.19 2139.47,1074.67 2136.63,1078.15 2133.76,1081.62 2130.86,1085.07 2127.92,1088.5 2124.94,1091.92 2121.91,1095.31 2118.82,1098.68 2115.66,1102.01 2112.44,1105.32 2109.15,1108.6 2105.8,1111.84 2102.38,1115.06 2098.88,1118.24 2095.33,1121.4 2091.71,1124.52 2088.03,1127.62 2084.29,1130.69 2080.51,1133.75 2076.69,1136.78 2072.83,1139.8 2068.95,1142.8 2065.06,1145.8 2061.16,1148.8 2057.27,1151.81 2053.4,1154.82 2049.56,1157.84 2045.7,1160.87 2041.82,1163.88 2037.91,1166.88 2033.97,1169.86 2029.99,1172.82 2025.98,1175.76 2021.93,1178.67 2017.84,1181.56 2013.72,1184.42 2009.55,1187.26 2005.33,1190.06 2001.08,1192.83 1996.78,1195.57 1992.45,1198.28 1988.07,1200.96 1983.65,1203.61 1979.19,1206.23 1974.7,1208.83 1970.17,1211.39 1965.61,1213.93 1961.03,1216.45 1956.41,1218.94 1951.77,1221.42 1947.11,1223.88 1942.44,1226.33 1937.76,1228.77 1933.07,1231.2 1928.37,1233.63 1923.68,1236.07 1919,1238.51 1914.34,1240.97 1909.69,1243.44 1905.04,1245.93 1900.39,1248.42 1895.74,1250.9 1891.07,1253.37 1886.38,1255.82 1881.67,1258.25 1876.93,1260.65 1872.16,1263.02 1867.35,1265.36 1862.51,1267.65 1857.62,1269.9 1852.69,1272.11 1847.71,1274.26 1842.69,1276.37 1837.62,1278.44 1832.5,1280.45 1827.34,1282.41 1822.13,1284.33 1816.87,1286.2 1811.58,1288.02 1806.24,1289.8 1800.87,1291.55 1795.46,1293.25 1790.02,1294.93 1784.56,1296.58 1779.08,1298.2 1773.58,1299.81 1768.07,1301.41 1762.55,1303 1757.04,1304.6 1751.54,1306.2 1746.06,1307.83 1740.58,1309.46 1735.1,1311.09 1729.6,1312.71 1724.1,1314.31 1718.58,1315.9 1713.05,1317.47 1707.51,1319.03 1701.96,1320.56 1696.39,1322.07 1690.81,1323.56 1685.21,1325.02 1679.6,1326.47 1673.98,1327.88 1668.34,1329.27 1662.68,1330.64 1657.01,1331.98 1651.33,1333.29 1645.63,1334.58 1639.92,1335.85 1634.2,1337.1 1628.46,1338.32 1622.71,1339.53 1616.96,1340.72 1611.2,1341.89 1605.42,1343.05 1599.65,1344.19 1593.86,1345.33 1588.08,1346.46 1582.29,1347.59 1576.5,1348.72 1570.72,1349.85 1564.94,1350.99 1559.16,1352.15 1553.4,1353.35 1547.65,1354.58 1541.9,1355.82 1536.16,1357.08 1530.42,1358.35 1524.68,1359.62 1518.94,1360.87 1513.2,1362.11 1507.44,1363.34 1501.68,1364.54 1495.92,1365.71 1490.14,1366.84 1484.35,1367.94 1478.55,1369 1472.73,1370.02 1466.91,1370.99 1461.06,1371.92 1455.21,1372.79 1449.33,1373.62 1443.45,1374.39 1437.55,1375.12 1431.63,1375.79 1425.7,1376.41 1419.76,1376.99 1413.8,1377.52 1407.83,1378 1401.85,1378.44 1395.86,1378.85 1389.86,1379.21 1383.86,1379.55 1377.84,1379.86 1371.83,1380.14 1365.81,1380.41 1359.79,1380.66 1353.78,1380.91 1347.77,1381.16 1341.75,1381.43 1335.73,1381.73 1329.7,1382.04 1323.66,1382.36 1317.62,1382.69 1311.58,1383 1305.54,1383.29 1299.5,1383.55 1293.47,1383.78 1287.44,1383.97 1281.41,1384.11 1275.4,1384.2 1269.39,1384.24 1263.39,1384.21 1257.4,1384.13 1251.42,1383.97 1245.46,1383.75 1239.5,1383.46 1233.56,1383.1 1227.63,1382.67 1221.71,1382.17 1215.8,1381.61 1209.91,1380.97 1204.02,1380.28 1198.15,1379.52 1192.29,1378.71 1186.43,1377.84 1180.59,1376.92 1174.75,1375.97 1168.92,1374.97 1163.1,1373.95 1157.28,1372.91 1151.46,1371.86 1145.64,1370.8 1139.82,1369.74 1134,1368.71 1128.18,1367.69 1122.35,1366.7 1116.52,1365.72 1110.69,1364.73 1104.86,1363.74 1099.03,1362.75 1093.2,1361.76 1087.37,1360.77 1081.53,1359.78 1075.7,1358.79 1069.87,1357.81 1064.04,1356.82 1058.21,1355.83 1052.38,1354.84 1046.55,1353.85 1040.72,1352.86 1034.89,1351.87 1029.06,1350.88 1023.23,1349.9 1017.4,1348.91 1011.57,1347.92 1005.74,1346.93 999.909,1345.94 994.079,1344.95 988.276,1343.92 982.509,1342.83 976.776,1341.69 971.076,1340.5 965.407,1339.25 959.768,1337.96 954.159,1336.63 948.577,1335.24 943.021,1333.82 937.491,1332.35 931.985,1330.85 926.503,1329.3 921.043,1327.73 915.604,1326.11 910.185,1324.46 904.785,1322.78 899.404,1321.07 894.041,1319.33 888.694,1317.57 883.364,1315.77 878.049,1313.95 872.749,1312.11 867.463,1310.24 862.19,1308.35 856.93,1306.44 851.682,1304.51 846.447,1302.56 841.222,1300.6 836.009,1298.61 830.806,1296.61 825.614,1294.59 820.432,1292.56 815.26,1290.51 810.096,1288.45 804.943,1286.38 799.798,1284.29 794.663,1282.19 789.537,1280.09 784.419,1277.97 779.311,1275.83 774.212,1273.69 769.122,1271.54 764.042,1269.38 758.97,1267.21 753.909,1265.03 748.858,1262.84 743.816,1260.64 738.785,1258.43 733.765,1256.22 728.756,1253.99 723.759,1251.76 718.774,1249.51 713.802,1247.26 708.843,1244.99 703.898,1242.72 698.968,1240.44 694.052,1238.14 689.153,1235.84 684.269,1233.52 679.403,1231.19 674.555,1228.85 669.726,1226.5 664.918,1224.13 660.13,1221.75 655.364,1219.36 650.621,1216.95 645.902,1214.52 641.207,1212.08 636.539,1209.61 631.898,1207.13 627.285,1204.63 622.703,1202.11 618.15,1199.57 613.631,1197 609.145,1194.41 604.694,1191.8 600.28,1189.15 595.904,1186.49 591.541,1183.8 587.135,1181.13 582.698,1178.46 578.247,1175.79 573.795,1173.12 569.358,1170.43 564.946,1167.73 560.573,1165 556.249,1162.25 551.983,1159.46 547.784,1156.64 543.66,1153.78 539.617,1150.89 535.661,1147.95 531.797,1144.96 528.028,1141.93 524.358,1138.85 520.786,1135.72 517.315,1132.55 513.944,1129.33 510.67,1126.06 507.493,1122.75 504.408,1119.4 501.412,1116 498.498,1112.57 495.66,1109.1 492.891,1105.6 490.182,1102.07 487.524,1098.52 484.907,1094.94 482.318,1091.36 479.746,1087.76 477.176,1084.17 474.595,1080.58 471.987,1077 469.336,1073.44 466.623,1069.9 463.831,1066.4 460.987,1062.92 458.117,1059.45 455.23,1055.98 452.33,1052.52 449.424,1049.06 446.519,1045.6 443.618,1042.13 440.726,1038.67 437.848,1035.2 434.988,1031.72 432.149,1028.24 429.334,1024.76 426.546,1021.26 423.787,1017.76 421.057,1014.25 418.36,1010.73 415.695,1007.2 413.063,1003.66 410.463,1000.12 407.897,996.56 405.361,992.996 402.856,989.423 400.379,985.842 397.929,982.254 395.502,978.66 393.096,975.06 390.707,971.455 388.331,967.847 385.964,964.236 383.601,960.624 381.237,957.012 378.866,953.403 376.482,949.796 374.125,946.185 371.863,942.555 369.689,938.905 367.597,935.239 365.581,931.556 363.635,927.859 361.754,924.147 359.933,920.422 358.166,916.686 356.449,912.938 354.778,909.18 353.15,905.413 351.56,901.637 350.006,897.853 348.484,894.063 346.993,890.265 345.53,886.462 344.093,882.653 342.68,878.84 341.291,875.022 339.925,871.201 338.581,867.376 337.259,863.547 335.959,859.715 334.682,855.881 333.429,852.044 332.2,848.205 330.997,844.363 329.822,840.519 328.677,836.673 327.565,832.824 326.489,828.973 325.451,825.118 324.455,821.262 323.505,817.401 322.605,813.538 321.759,809.671 320.973,805.8 320.251,801.923 319.6,798.043 319.024,794.156 318.53,790.264 318.114,786.365 317.747,782.46 317.427,778.551 317.155,774.638 316.93,770.721 316.753,766.802 316.625,762.88 316.544,758.956 316.512,755.031 316.528,751.106 316.59,747.18 316.7,743.254 316.857,739.329 317.059,735.404 317.306,731.48 317.597,727.558 317.931,723.638 318.307,719.719 318.724,715.802 319.18,711.887 319.674,707.975 320.205,704.065 320.77,700.157 321.367,696.252 321.996,692.35 322.654,688.449 323.339,684.551 324.048,680.655 324.779,676.762 325.53,672.87 326.298,668.98 327.08,665.091 327.874,661.204 328.677,657.317 329.486,653.431 330.297,649.545 331.107,645.659 331.913,641.773 332.712,637.885 333.501,633.996 334.294,630.102 335.097,626.206 335.915,622.308 336.753,618.409 337.613,614.511 338.501,610.615 339.42,606.722 340.372,602.832 341.36,598.947 342.389,595.068 343.459,591.196 344.573,587.33 345.733,583.473 346.941,579.623 348.198,575.783 349.505,571.952 350.864,568.131 352.274,564.32 353.737,560.519 355.252,556.729 356.819,552.949 358.438,549.18 360.109,545.422 361.829,541.675 363.599,537.938 365.417,534.211 367.281,530.495 369.189,526.788 371.139,523.09 373.128,519.402 375.155,515.721 377.215,512.048 379.307,508.382 381.425,504.723 383.567,501.069 385.729,497.419 387.905,493.773 390.093,490.13 392.287,486.488 394.481,482.847 396.672,479.205 398.852,475.56 401.031,471.916 403.287,468.293 405.633,464.696 408.061,461.121 410.568,457.568 413.146,454.036 415.79,450.522 418.497,447.026 421.26,443.547 424.076,440.083 426.94,436.633 429.849,433.197 432.799,429.774 435.787,426.363 438.809,422.963 441.863,419.574 444.946,416.196 448.056,412.826 451.191,409.467 454.349,406.116 457.529,402.775 460.73,399.442 463.95,396.118 467.19,392.803 470.448,389.498 473.725,386.201 477.02,382.914 480.335,379.637 483.669,376.371 487.024,373.115 490.402,369.871 493.803,366.64 497.23,363.421 500.683,360.217 504.167,357.027 507.683,353.854 511.234,350.697 514.824,347.559 518.455,344.44 522.132,341.342 525.858,338.266 529.637,335.215 533.461,332.181 537.266,329.137 541.053,326.081 544.827,323.018 548.595,319.952 552.363,316.885 556.136,313.821 559.918,310.763 563.713,307.713 567.527,304.673 571.36,301.645 575.217,298.631 579.1,295.632 583.011,292.649 586.949,289.683 590.918,286.735 594.916,283.803 598.943,280.89 602.999,277.993 607.083,275.112 611.192,272.247 615.325,269.395 619.479,266.556 623.651,263.728 627.837,260.907 632.033,258.093 636.234,255.281 640.435,252.47 644.631,249.655 648.815,246.834 653.019,244.028 657.277,241.26 661.587,238.531 665.947,235.838 670.354,233.181 674.807,230.558 679.304,227.969 683.843,225.413 688.423,222.89 693.042,220.398 697.699,217.937 702.393,215.507 707.123,213.107 711.887,210.738 716.685,208.399 721.516,206.089 726.38,203.811 731.276,201.562 736.204,199.344 741.163,197.157 746.154,195.001 751.176,192.878 756.23,190.786 761.316,188.728 766.435,186.704 771.586,184.715 776.77,182.762 781.989,180.846 787.243,178.968 792.532,177.13 797.86,175.332 803.225,173.577 808.631,171.865 814.063,170.18 819.483,168.473 824.893,166.747 830.297,165.009 835.697,163.265 841.099,161.521 846.504,159.782 851.916,158.052 857.338,156.337 862.772,154.641 868.22,152.966 873.684,151.317 879.166,149.695 884.667,148.104 890.188,146.546 895.73,145.022 901.295,143.532 906.882,142.079 912.491,140.661 918.122,139.28 923.775,137.934 929.45,136.623 935.145,135.344 940.86,134.097 946.593,132.88 952.342,131.689 958.105,130.521 963.881,129.373 969.667,128.242 975.46,127.122 981.258,126.01 987.057,124.9 992.853,123.786 998.644,122.663 1004.43,121.523 1010.19,120.337 1015.95,119.098 1021.69,117.823 1027.43,116.522 1033.16,115.208 1038.89,113.894 1044.63,112.587 1050.37,111.299 1056.12,110.038 1061.87,108.812 1067.64,107.627 1073.42,106.49 1079.21,105.406 1085.02,104.379 1090.85,103.413 1096.69,102.511 1102.54,101.673 1108.42,100.902 1114.31,100.198 1120.22,99.5592 1126.15,98.9845 1132.09,98.4714 1138.05,98.0166 1144.02,97.6161 1150,97.2647 1156,96.9568 1162,96.6855 1168.02,96.4432 1174.04,96.2217 1180.06,96.0116 1186.08,95.8028 1192.1,95.5844 1198.11,95.3445 1204.12,95.0733 1210.12,94.7939 1216.13,94.5146 1222.13,94.2352 1228.14,93.9559 1234.14,93.6765 "/>
<path clip-path="url(#clip870)" d="M1859.76 1377.32 L2282.9 1377.32 L2282.9 1221.8 L1859.76 1221.8  Z" fill="#ffffff" fill-rule="evenodd" fill-opacity="1"/>
<polyline clip-path="url(#clip870)" style="stroke:#000000; stroke-linecap:round; stroke-linejoin:round; stroke-width:4; stroke-opacity:1; fill:none" points="1859.76,1377.32 2282.9,1377.32 2282.9,1221.8 1859.76,1221.8 1859.76,1377.32 "/>
<polyline clip-path="url(#clip870)" style="stroke:#009af9; stroke-linecap:round; stroke-linejoin:round; stroke-width:16; stroke-opacity:1; fill:none" points="1883.05,1273.64 2022.75,1273.64 "/>
<path clip-path="url(#clip870)" d="M2062.05 1259.53 Q2056.96 1259.53 2053.95 1263.32 Q2050.96 1267.12 2050.96 1273.67 Q2050.96 1280.2 2053.95 1283.99 Q2056.96 1287.79 2062.05 1287.79 Q2067.14 1287.79 2070.11 1283.99 Q2073.09 1280.2 2073.09 1273.67 Q2073.09 1267.12 2070.11 1263.32 Q2067.14 1259.53 2062.05 1259.53 M2062.05 1255.73 Q2069.32 1255.73 2073.67 1260.61 Q2078.02 1265.48 2078.02 1273.67 Q2078.02 1281.84 2073.67 1286.73 Q2069.32 1291.59 2062.05 1291.59 Q2054.76 1291.59 2050.39 1286.73 Q2046.03 1281.86 2046.03 1273.67 Q2046.03 1265.48 2050.39 1260.61 Q2054.76 1255.73 2062.05 1255.73 Z" fill="#000000" fill-rule="nonzero" fill-opacity="1" /><path clip-path="url(#clip870)" d="M2100.18 1268.97 Q2099.46 1268.55 2098.6 1268.37 Q2097.77 1268.16 2096.75 1268.16 Q2093.14 1268.16 2091.2 1270.52 Q2089.27 1272.86 2089.27 1277.26 L2089.27 1290.92 L2084.99 1290.92 L2084.99 1264.99 L2089.27 1264.99 L2089.27 1269.02 Q2090.62 1266.66 2092.77 1265.52 Q2094.92 1264.36 2098 1264.36 Q2098.44 1264.36 2098.97 1264.43 Q2099.51 1264.48 2100.15 1264.6 L2100.18 1268.97 Z" fill="#000000" fill-rule="nonzero" fill-opacity="1" /><path clip-path="url(#clip870)" d="M2104.64 1264.99 L2108.9 1264.99 L2108.9 1290.92 L2104.64 1290.92 L2104.64 1264.99 M2104.64 1254.9 L2108.9 1254.9 L2108.9 1260.29 L2104.64 1260.29 L2104.64 1254.9 Z" fill="#000000" fill-rule="nonzero" fill-opacity="1" /><path clip-path="url(#clip870)" d="M2134.88 1277.65 Q2134.88 1273.02 2132.95 1270.48 Q2131.06 1267.93 2127.61 1267.93 Q2124.18 1267.93 2122.26 1270.48 Q2120.36 1273.02 2120.36 1277.65 Q2120.36 1282.26 2122.26 1284.8 Q2124.18 1287.35 2127.61 1287.35 Q2131.06 1287.35 2132.95 1284.8 Q2134.88 1282.26 2134.88 1277.65 M2139.13 1287.7 Q2139.13 1294.32 2136.2 1297.54 Q2133.26 1300.78 2127.19 1300.78 Q2124.95 1300.78 2122.95 1300.43 Q2120.96 1300.11 2119.09 1299.41 L2119.09 1295.27 Q2120.96 1296.29 2122.79 1296.77 Q2124.62 1297.26 2126.52 1297.26 Q2130.71 1297.26 2132.79 1295.06 Q2134.88 1292.88 2134.88 1288.46 L2134.88 1286.36 Q2133.56 1288.65 2131.5 1289.78 Q2129.44 1290.92 2126.57 1290.92 Q2121.8 1290.92 2118.88 1287.28 Q2115.96 1283.65 2115.96 1277.65 Q2115.96 1271.63 2118.88 1268 Q2121.8 1264.36 2126.57 1264.36 Q2129.44 1264.36 2131.5 1265.5 Q2133.56 1266.63 2134.88 1268.92 L2134.88 1264.99 L2139.13 1264.99 L2139.13 1287.7 Z" fill="#000000" fill-rule="nonzero" fill-opacity="1" /><path clip-path="url(#clip870)" d="M2147.91 1264.99 L2152.17 1264.99 L2152.17 1290.92 L2147.91 1290.92 L2147.91 1264.99 M2147.91 1254.9 L2152.17 1254.9 L2152.17 1260.29 L2147.91 1260.29 L2147.91 1254.9 Z" fill="#000000" fill-rule="nonzero" fill-opacity="1" /><path clip-path="url(#clip870)" d="M2182.63 1275.27 L2182.63 1290.92 L2178.37 1290.92 L2178.37 1275.41 Q2178.37 1271.73 2176.94 1269.9 Q2175.5 1268.07 2172.63 1268.07 Q2169.18 1268.07 2167.19 1270.27 Q2165.2 1272.47 2165.2 1276.26 L2165.2 1290.92 L2160.92 1290.92 L2160.92 1264.99 L2165.2 1264.99 L2165.2 1269.02 Q2166.73 1266.68 2168.79 1265.52 Q2170.87 1264.36 2173.58 1264.36 Q2178.05 1264.36 2180.34 1267.14 Q2182.63 1269.9 2182.63 1275.27 Z" fill="#000000" fill-rule="nonzero" fill-opacity="1" /><path clip-path="url(#clip870)" d="M2202.91 1277.88 Q2197.75 1277.88 2195.75 1279.06 Q2193.76 1280.24 2193.76 1283.09 Q2193.76 1285.36 2195.25 1286.7 Q2196.75 1288.02 2199.32 1288.02 Q2202.86 1288.02 2204.99 1285.52 Q2207.14 1283 2207.14 1278.83 L2207.14 1277.88 L2202.91 1277.88 M2211.4 1276.12 L2211.4 1290.92 L2207.14 1290.92 L2207.14 1286.98 Q2205.69 1289.34 2203.51 1290.48 Q2201.33 1291.59 2198.19 1291.59 Q2194.2 1291.59 2191.84 1289.36 Q2189.5 1287.12 2189.5 1283.37 Q2189.5 1278.99 2192.42 1276.77 Q2195.36 1274.55 2201.17 1274.55 L2207.14 1274.55 L2207.14 1274.13 Q2207.14 1271.19 2205.2 1269.6 Q2203.28 1267.98 2199.78 1267.98 Q2197.56 1267.98 2195.45 1268.51 Q2193.35 1269.04 2191.4 1270.11 L2191.4 1266.17 Q2193.74 1265.27 2195.94 1264.83 Q2198.14 1264.36 2200.22 1264.36 Q2205.85 1264.36 2208.63 1267.28 Q2211.4 1270.2 2211.4 1276.12 Z" fill="#000000" fill-rule="nonzero" fill-opacity="1" /><path clip-path="url(#clip870)" d="M2220.18 1254.9 L2224.44 1254.9 L2224.44 1290.92 L2220.18 1290.92 L2220.18 1254.9 Z" fill="#000000" fill-rule="nonzero" fill-opacity="1" /><polyline clip-path="url(#clip870)" style="stroke:#e26f46; stroke-linecap:round; stroke-linejoin:round; stroke-width:16; stroke-opacity:1; fill:none" points="1883.05,1325.48 2022.75,1325.48 "/>
<path clip-path="url(#clip870)" d="M2050.71 1312.04 L2050.71 1325.02 L2056.59 1325.02 Q2059.85 1325.02 2061.64 1323.33 Q2063.42 1321.64 2063.42 1318.52 Q2063.42 1315.42 2061.64 1313.73 Q2059.85 1312.04 2056.59 1312.04 L2050.71 1312.04 M2046.03 1308.2 L2056.59 1308.2 Q2062.4 1308.2 2065.36 1310.83 Q2068.35 1313.45 2068.35 1318.52 Q2068.35 1323.64 2065.36 1326.25 Q2062.4 1328.87 2056.59 1328.87 L2050.71 1328.87 L2050.71 1342.76 L2046.03 1342.76 L2046.03 1308.2 Z" fill="#000000" fill-rule="nonzero" fill-opacity="1" /><path clip-path="url(#clip870)" d="M2088.63 1320.81 Q2087.91 1320.39 2087.05 1320.21 Q2086.22 1320 2085.2 1320 Q2081.59 1320 2079.64 1322.36 Q2077.72 1324.7 2077.72 1329.1 L2077.72 1342.76 L2073.44 1342.76 L2073.44 1316.83 L2077.72 1316.83 L2077.72 1320.86 Q2079.07 1318.5 2081.22 1317.36 Q2083.37 1316.2 2086.45 1316.2 Q2086.89 1316.2 2087.42 1316.27 Q2087.95 1316.32 2088.6 1316.44 L2088.63 1320.81 Z" fill="#000000" fill-rule="nonzero" fill-opacity="1" /><path clip-path="url(#clip870)" d="M2114.23 1328.73 L2114.23 1330.81 L2094.64 1330.81 Q2094.92 1335.21 2097.28 1337.52 Q2099.67 1339.82 2103.9 1339.82 Q2106.36 1339.82 2108.65 1339.21 Q2110.96 1338.61 2113.23 1337.41 L2113.23 1341.44 Q2110.94 1342.41 2108.53 1342.92 Q2106.13 1343.43 2103.65 1343.43 Q2097.45 1343.43 2093.81 1339.82 Q2090.2 1336.2 2090.2 1330.05 Q2090.2 1323.68 2093.63 1319.95 Q2097.07 1316.2 2102.91 1316.2 Q2108.14 1316.2 2111.17 1319.58 Q2114.23 1322.94 2114.23 1328.73 M2109.97 1327.48 Q2109.92 1323.98 2108 1321.9 Q2106.1 1319.82 2102.95 1319.82 Q2099.39 1319.82 2097.24 1321.83 Q2095.11 1323.84 2094.78 1327.5 L2109.97 1327.48 Z" fill="#000000" fill-rule="nonzero" fill-opacity="1" /><path clip-path="url(#clip870)" d="M2138.28 1320.76 L2138.28 1306.74 L2142.54 1306.74 L2142.54 1342.76 L2138.28 1342.76 L2138.28 1338.87 Q2136.94 1341.18 2134.88 1342.32 Q2132.84 1343.43 2129.97 1343.43 Q2125.27 1343.43 2122.31 1339.68 Q2119.37 1335.93 2119.37 1329.82 Q2119.37 1323.7 2122.31 1319.95 Q2125.27 1316.2 2129.97 1316.2 Q2132.84 1316.2 2134.88 1317.34 Q2136.94 1318.45 2138.28 1320.76 M2123.76 1329.82 Q2123.76 1334.51 2125.69 1337.2 Q2127.63 1339.86 2131.01 1339.86 Q2134.39 1339.86 2136.33 1337.2 Q2138.28 1334.51 2138.28 1329.82 Q2138.28 1325.12 2136.33 1322.45 Q2134.39 1319.77 2131.01 1319.77 Q2127.63 1319.77 2125.69 1322.45 Q2123.76 1325.12 2123.76 1329.82 Z" fill="#000000" fill-rule="nonzero" fill-opacity="1" /><path clip-path="url(#clip870)" d="M2151.31 1316.83 L2155.57 1316.83 L2155.57 1342.76 L2151.31 1342.76 L2151.31 1316.83 M2151.31 1306.74 L2155.57 1306.74 L2155.57 1312.13 L2151.31 1312.13 L2151.31 1306.74 Z" fill="#000000" fill-rule="nonzero" fill-opacity="1" /><path clip-path="url(#clip870)" d="M2183.14 1317.82 L2183.14 1321.81 Q2181.33 1320.81 2179.5 1320.32 Q2177.7 1319.82 2175.85 1319.82 Q2171.7 1319.82 2169.41 1322.45 Q2167.12 1325.07 2167.12 1329.82 Q2167.12 1334.56 2169.41 1337.2 Q2171.7 1339.82 2175.85 1339.82 Q2177.7 1339.82 2179.5 1339.33 Q2181.33 1338.82 2183.14 1337.82 L2183.14 1341.76 Q2181.36 1342.59 2179.44 1343.01 Q2177.54 1343.43 2175.38 1343.43 Q2169.53 1343.43 2166.08 1339.75 Q2162.63 1336.07 2162.63 1329.82 Q2162.63 1323.47 2166.1 1319.84 Q2169.6 1316.2 2175.66 1316.2 Q2177.63 1316.2 2179.5 1316.62 Q2181.38 1317.01 2183.14 1317.82 Z" fill="#000000" fill-rule="nonzero" fill-opacity="1" /><path clip-path="url(#clip870)" d="M2194.76 1309.47 L2194.76 1316.83 L2203.53 1316.83 L2203.53 1320.14 L2194.76 1320.14 L2194.76 1334.21 Q2194.76 1337.38 2195.62 1338.29 Q2196.5 1339.19 2199.16 1339.19 L2203.53 1339.19 L2203.53 1342.76 L2199.16 1342.76 Q2194.23 1342.76 2192.35 1340.93 Q2190.48 1339.07 2190.48 1334.21 L2190.48 1320.14 L2187.35 1320.14 L2187.35 1316.83 L2190.48 1316.83 L2190.48 1309.47 L2194.76 1309.47 Z" fill="#000000" fill-rule="nonzero" fill-opacity="1" /><path clip-path="url(#clip870)" d="M2231.31 1328.73 L2231.31 1330.81 L2211.73 1330.81 Q2212 1335.21 2214.37 1337.52 Q2216.75 1339.82 2220.99 1339.82 Q2223.44 1339.82 2225.73 1339.21 Q2228.05 1338.61 2230.31 1337.41 L2230.31 1341.44 Q2228.02 1342.41 2225.62 1342.92 Q2223.21 1343.43 2220.73 1343.43 Q2214.53 1343.43 2210.89 1339.82 Q2207.28 1336.2 2207.28 1330.05 Q2207.28 1323.68 2210.71 1319.95 Q2214.16 1316.2 2219.99 1316.2 Q2225.22 1316.2 2228.25 1319.58 Q2231.31 1322.94 2231.31 1328.73 M2227.05 1327.48 Q2227 1323.98 2225.08 1321.9 Q2223.19 1319.82 2220.04 1319.82 Q2216.47 1319.82 2214.32 1321.83 Q2212.19 1323.84 2211.87 1327.5 L2227.05 1327.48 Z" fill="#000000" fill-rule="nonzero" fill-opacity="1" /><path clip-path="url(#clip870)" d="M2255.36 1320.76 L2255.36 1306.74 L2259.62 1306.74 L2259.62 1342.76 L2255.36 1342.76 L2255.36 1338.87 Q2254.02 1341.18 2251.96 1342.32 Q2249.92 1343.43 2247.05 1343.43 Q2242.35 1343.43 2239.39 1339.68 Q2236.45 1335.93 2236.45 1329.82 Q2236.45 1323.7 2239.39 1319.95 Q2242.35 1316.2 2247.05 1316.2 Q2249.92 1316.2 2251.96 1317.34 Q2254.02 1318.45 2255.36 1320.76 M2240.85 1329.82 Q2240.85 1334.51 2242.77 1337.2 Q2244.71 1339.86 2248.09 1339.86 Q2251.47 1339.86 2253.42 1337.2 Q2255.36 1334.51 2255.36 1329.82 Q2255.36 1325.12 2253.42 1322.45 Q2251.47 1319.77 2248.09 1319.77 Q2244.71 1319.77 2242.77 1322.45 Q2240.85 1325.12 2240.85 1329.82 Z" fill="#000000" fill-rule="nonzero" fill-opacity="1" /></svg>
