<?xml version="1.0" encoding="utf-8"?>
<svg xmlns="http://www.w3.org/2000/svg" xmlns:xlink="http://www.w3.org/1999/xlink" width="600" height="400" viewBox="0 0 2400 1600">
<defs>
  <clipPath id="clip220">
    <rect x="0" y="0" width="2400" height="1600"/>
  </clipPath>
</defs>
<path clip-path="url(#clip220)" d="M0 1600 L2400 1600 L2400 0 L0 0  Z" fill="#ffffff" fill-rule="evenodd" fill-opacity="1"/>
<defs>
  <clipPath id="clip221">
    <rect x="480" y="0" width="1681" height="1600"/>
  </clipPath>
</defs>
<path clip-path="url(#clip220)" d="M178.867 1486.45 L2352.76 1486.45 L2352.76 47.2441 L178.867 47.2441  Z" fill="#ffffff" fill-rule="evenodd" fill-opacity="1"/>
<defs>
  <clipPath id="clip222">
    <rect x="178" y="47" width="2175" height="1440"/>
  </clipPath>
</defs>
<polyline clip-path="url(#clip222)" style="stroke:#000000; stroke-linecap:round; stroke-linejoin:round; stroke-width:2; stroke-opacity:0.1; fill:none" points="240.392,1486.45 240.392,47.2441 "/>
<polyline clip-path="url(#clip222)" style="stroke:#000000; stroke-linecap:round; stroke-linejoin:round; stroke-width:2; stroke-opacity:0.1; fill:none" points="924.005,1486.45 924.005,47.2441 "/>
<polyline clip-path="url(#clip222)" style="stroke:#000000; stroke-linecap:round; stroke-linejoin:round; stroke-width:2; stroke-opacity:0.1; fill:none" points="1607.62,1486.45 1607.62,47.2441 "/>
<polyline clip-path="url(#clip222)" style="stroke:#000000; stroke-linecap:round; stroke-linejoin:round; stroke-width:2; stroke-opacity:0.1; fill:none" points="2291.23,1486.45 2291.23,47.2441 "/>
<polyline clip-path="url(#clip222)" style="stroke:#000000; stroke-linecap:round; stroke-linejoin:round; stroke-width:2; stroke-opacity:0.1; fill:none" points="178.867,1428.88 2352.76,1428.88 "/>
<polyline clip-path="url(#clip222)" style="stroke:#000000; stroke-linecap:round; stroke-linejoin:round; stroke-width:2; stroke-opacity:0.1; fill:none" points="178.867,995.503 2352.76,995.503 "/>
<polyline clip-path="url(#clip222)" style="stroke:#000000; stroke-linecap:round; stroke-linejoin:round; stroke-width:2; stroke-opacity:0.1; fill:none" points="178.867,562.124 2352.76,562.124 "/>
<polyline clip-path="url(#clip222)" style="stroke:#000000; stroke-linecap:round; stroke-linejoin:round; stroke-width:2; stroke-opacity:0.1; fill:none" points="178.867,128.746 2352.76,128.746 "/>
<polyline clip-path="url(#clip220)" style="stroke:#000000; stroke-linecap:round; stroke-linejoin:round; stroke-width:4; stroke-opacity:1; fill:none" points="178.867,1486.45 2352.76,1486.45 "/>
<polyline clip-path="url(#clip220)" style="stroke:#000000; stroke-linecap:round; stroke-linejoin:round; stroke-width:4; stroke-opacity:1; fill:none" points="240.392,1486.45 240.392,1467.55 "/>
<polyline clip-path="url(#clip220)" style="stroke:#000000; stroke-linecap:round; stroke-linejoin:round; stroke-width:4; stroke-opacity:1; fill:none" points="924.005,1486.45 924.005,1467.55 "/>
<polyline clip-path="url(#clip220)" style="stroke:#000000; stroke-linecap:round; stroke-linejoin:round; stroke-width:4; stroke-opacity:1; fill:none" points="1607.62,1486.45 1607.62,1467.55 "/>
<polyline clip-path="url(#clip220)" style="stroke:#000000; stroke-linecap:round; stroke-linejoin:round; stroke-width:4; stroke-opacity:1; fill:none" points="2291.23,1486.45 2291.23,1467.55 "/>
<path clip-path="url(#clip220)" d="M217.776 1517.37 Q214.165 1517.37 212.336 1520.93 Q210.531 1524.47 210.531 1531.6 Q210.531 1538.71 212.336 1542.27 Q214.165 1545.82 217.776 1545.82 Q221.41 1545.82 223.216 1542.27 Q225.045 1538.71 225.045 1531.6 Q225.045 1524.47 223.216 1520.93 Q221.41 1517.37 217.776 1517.37 M217.776 1513.66 Q223.586 1513.66 226.642 1518.27 Q229.721 1522.85 229.721 1531.6 Q229.721 1540.33 226.642 1544.94 Q223.586 1549.52 217.776 1549.52 Q211.966 1549.52 208.887 1544.94 Q205.832 1540.33 205.832 1531.6 Q205.832 1522.85 208.887 1518.27 Q211.966 1513.66 217.776 1513.66 Z" fill="#000000" fill-rule="nonzero" fill-opacity="1" /><path clip-path="url(#clip220)" d="M237.938 1542.97 L242.822 1542.97 L242.822 1548.85 L237.938 1548.85 L237.938 1542.97 Z" fill="#000000" fill-rule="nonzero" fill-opacity="1" /><path clip-path="url(#clip220)" d="M263.007 1517.37 Q259.396 1517.37 257.568 1520.93 Q255.762 1524.47 255.762 1531.6 Q255.762 1538.71 257.568 1542.27 Q259.396 1545.82 263.007 1545.82 Q266.642 1545.82 268.447 1542.27 Q270.276 1538.71 270.276 1531.6 Q270.276 1524.47 268.447 1520.93 Q266.642 1517.37 263.007 1517.37 M263.007 1513.66 Q268.818 1513.66 271.873 1518.27 Q274.952 1522.85 274.952 1531.6 Q274.952 1540.33 271.873 1544.94 Q268.818 1549.52 263.007 1549.52 Q257.197 1549.52 254.119 1544.94 Q251.063 1540.33 251.063 1531.6 Q251.063 1522.85 254.119 1518.27 Q257.197 1513.66 263.007 1513.66 Z" fill="#000000" fill-rule="nonzero" fill-opacity="1" /><path clip-path="url(#clip220)" d="M901.887 1517.37 Q898.276 1517.37 896.447 1520.93 Q894.642 1524.47 894.642 1531.6 Q894.642 1538.71 896.447 1542.27 Q898.276 1545.82 901.887 1545.82 Q905.521 1545.82 907.327 1542.27 Q909.155 1538.71 909.155 1531.6 Q909.155 1524.47 907.327 1520.93 Q905.521 1517.37 901.887 1517.37 M901.887 1513.66 Q907.697 1513.66 910.753 1518.27 Q913.831 1522.85 913.831 1531.6 Q913.831 1540.33 910.753 1544.94 Q907.697 1549.52 901.887 1549.52 Q896.077 1549.52 892.998 1544.94 Q889.942 1540.33 889.942 1531.6 Q889.942 1522.85 892.998 1518.27 Q896.077 1513.66 901.887 1513.66 Z" fill="#000000" fill-rule="nonzero" fill-opacity="1" /><path clip-path="url(#clip220)" d="M922.049 1542.97 L926.933 1542.97 L926.933 1548.85 L922.049 1548.85 L922.049 1542.97 Z" fill="#000000" fill-rule="nonzero" fill-opacity="1" /><path clip-path="url(#clip220)" d="M937.164 1514.29 L955.521 1514.29 L955.521 1518.22 L941.447 1518.22 L941.447 1526.7 Q942.465 1526.35 943.484 1526.19 Q944.502 1526 945.521 1526 Q951.308 1526 954.687 1529.17 Q958.067 1532.34 958.067 1537.76 Q958.067 1543.34 954.595 1546.44 Q951.123 1549.52 944.803 1549.52 Q942.627 1549.52 940.359 1549.15 Q938.114 1548.78 935.706 1548.04 L935.706 1543.34 Q937.789 1544.47 940.012 1545.03 Q942.234 1545.58 944.711 1545.58 Q948.715 1545.58 951.053 1543.48 Q953.391 1541.37 953.391 1537.76 Q953.391 1534.15 951.053 1532.04 Q948.715 1529.94 944.711 1529.94 Q942.836 1529.94 940.961 1530.35 Q939.109 1530.77 937.164 1531.65 L937.164 1514.29 Z" fill="#000000" fill-rule="nonzero" fill-opacity="1" /><path clip-path="url(#clip220)" d="M1574.77 1544.91 L1582.41 1544.91 L1582.41 1518.55 L1574.1 1520.21 L1574.1 1515.95 L1582.36 1514.29 L1587.04 1514.29 L1587.04 1544.91 L1594.68 1544.91 L1594.68 1548.85 L1574.77 1548.85 L1574.77 1544.91 Z" fill="#000000" fill-rule="nonzero" fill-opacity="1" /><path clip-path="url(#clip220)" d="M1604.12 1542.97 L1609.01 1542.97 L1609.01 1548.85 L1604.12 1548.85 L1604.12 1542.97 Z" fill="#000000" fill-rule="nonzero" fill-opacity="1" /><path clip-path="url(#clip220)" d="M1629.19 1517.37 Q1625.58 1517.37 1623.75 1520.93 Q1621.95 1524.47 1621.95 1531.6 Q1621.95 1538.71 1623.75 1542.27 Q1625.58 1545.82 1629.19 1545.82 Q1632.83 1545.82 1634.63 1542.27 Q1636.46 1538.71 1636.46 1531.6 Q1636.46 1524.47 1634.63 1520.93 Q1632.83 1517.37 1629.19 1517.37 M1629.19 1513.66 Q1635 1513.66 1638.06 1518.27 Q1641.14 1522.85 1641.14 1531.6 Q1641.14 1540.33 1638.06 1544.94 Q1635 1549.52 1629.19 1549.52 Q1623.38 1549.52 1620.3 1544.94 Q1617.25 1540.33 1617.25 1531.6 Q1617.25 1522.85 1620.3 1518.27 Q1623.38 1513.66 1629.19 1513.66 Z" fill="#000000" fill-rule="nonzero" fill-opacity="1" /><path clip-path="url(#clip220)" d="M2258.88 1544.91 L2266.52 1544.91 L2266.52 1518.55 L2258.21 1520.21 L2258.21 1515.95 L2266.47 1514.29 L2271.15 1514.29 L2271.15 1544.91 L2278.79 1544.91 L2278.79 1548.85 L2258.88 1548.85 L2258.88 1544.91 Z" fill="#000000" fill-rule="nonzero" fill-opacity="1" /><path clip-path="url(#clip220)" d="M2288.23 1542.97 L2293.12 1542.97 L2293.12 1548.85 L2288.23 1548.85 L2288.23 1542.97 Z" fill="#000000" fill-rule="nonzero" fill-opacity="1" /><path clip-path="url(#clip220)" d="M2303.35 1514.29 L2321.71 1514.29 L2321.71 1518.22 L2307.63 1518.22 L2307.63 1526.7 Q2308.65 1526.35 2309.67 1526.19 Q2310.69 1526 2311.71 1526 Q2317.49 1526 2320.87 1529.17 Q2324.25 1532.34 2324.25 1537.76 Q2324.25 1543.34 2320.78 1546.44 Q2317.31 1549.52 2310.99 1549.52 Q2308.81 1549.52 2306.54 1549.15 Q2304.3 1548.78 2301.89 1548.04 L2301.89 1543.34 Q2303.97 1544.47 2306.2 1545.03 Q2308.42 1545.58 2310.89 1545.58 Q2314.9 1545.58 2317.24 1543.48 Q2319.58 1541.37 2319.58 1537.76 Q2319.58 1534.15 2317.24 1532.04 Q2314.9 1529.94 2310.89 1529.94 Q2309.02 1529.94 2307.15 1530.35 Q2305.29 1530.77 2303.35 1531.65 L2303.35 1514.29 Z" fill="#000000" fill-rule="nonzero" fill-opacity="1" /><polyline clip-path="url(#clip220)" style="stroke:#000000; stroke-linecap:round; stroke-linejoin:round; stroke-width:4; stroke-opacity:1; fill:none" points="178.867,1486.45 178.867,47.2441 "/>
<polyline clip-path="url(#clip220)" style="stroke:#000000; stroke-linecap:round; stroke-linejoin:round; stroke-width:4; stroke-opacity:1; fill:none" points="178.867,1428.88 197.764,1428.88 "/>
<polyline clip-path="url(#clip220)" style="stroke:#000000; stroke-linecap:round; stroke-linejoin:round; stroke-width:4; stroke-opacity:1; fill:none" points="178.867,995.503 197.764,995.503 "/>
<polyline clip-path="url(#clip220)" style="stroke:#000000; stroke-linecap:round; stroke-linejoin:round; stroke-width:4; stroke-opacity:1; fill:none" points="178.867,562.124 197.764,562.124 "/>
<polyline clip-path="url(#clip220)" style="stroke:#000000; stroke-linecap:round; stroke-linejoin:round; stroke-width:4; stroke-opacity:1; fill:none" points="178.867,128.746 197.764,128.746 "/>
<path clip-path="url(#clip220)" d="M50.9921 1429.33 L80.6679 1429.33 L80.6679 1433.27 L50.9921 1433.27 L50.9921 1429.33 Z" fill="#000000" fill-rule="nonzero" fill-opacity="1" /><path clip-path="url(#clip220)" d="M91.5706 1442.23 L99.2095 1442.23 L99.2095 1415.86 L90.8993 1417.53 L90.8993 1413.27 L99.1632 1411.6 L103.839 1411.6 L103.839 1442.23 L111.478 1442.23 L111.478 1446.16 L91.5706 1446.16 L91.5706 1442.23 Z" fill="#000000" fill-rule="nonzero" fill-opacity="1" /><path clip-path="url(#clip220)" d="M130.922 1414.68 Q127.311 1414.68 125.482 1418.24 Q123.677 1421.79 123.677 1428.92 Q123.677 1436.02 125.482 1439.59 Q127.311 1443.13 130.922 1443.13 Q134.556 1443.13 136.362 1439.59 Q138.191 1436.02 138.191 1428.92 Q138.191 1421.79 136.362 1418.24 Q134.556 1414.68 130.922 1414.68 M130.922 1410.98 Q136.732 1410.98 139.788 1415.58 Q142.867 1420.17 142.867 1428.92 Q142.867 1437.64 139.788 1442.25 Q136.732 1446.83 130.922 1446.83 Q125.112 1446.83 122.033 1442.25 Q118.978 1437.64 118.978 1428.92 Q118.978 1420.17 122.033 1415.58 Q125.112 1410.98 130.922 1410.98 Z" fill="#000000" fill-rule="nonzero" fill-opacity="1" /><path clip-path="url(#clip220)" d="M130.922 981.301 Q127.311 981.301 125.482 984.866 Q123.677 988.408 123.677 995.538 Q123.677 1002.64 125.482 1006.21 Q127.311 1009.75 130.922 1009.75 Q134.556 1009.75 136.362 1006.21 Q138.191 1002.64 138.191 995.538 Q138.191 988.408 136.362 984.866 Q134.556 981.301 130.922 981.301 M130.922 977.598 Q136.732 977.598 139.788 982.204 Q142.867 986.788 142.867 995.538 Q142.867 1004.26 139.788 1008.87 Q136.732 1013.45 130.922 1013.45 Q125.112 1013.45 122.033 1008.87 Q118.978 1004.26 118.978 995.538 Q118.978 986.788 122.033 982.204 Q125.112 977.598 130.922 977.598 Z" fill="#000000" fill-rule="nonzero" fill-opacity="1" /><path clip-path="url(#clip220)" d="M91.5706 575.469 L99.2095 575.469 L99.2095 549.104 L90.8993 550.77 L90.8993 546.511 L99.1632 544.844 L103.839 544.844 L103.839 575.469 L111.478 575.469 L111.478 579.404 L91.5706 579.404 L91.5706 575.469 Z" fill="#000000" fill-rule="nonzero" fill-opacity="1" /><path clip-path="url(#clip220)" d="M130.922 547.923 Q127.311 547.923 125.482 551.488 Q123.677 555.029 123.677 562.159 Q123.677 569.265 125.482 572.83 Q127.311 576.372 130.922 576.372 Q134.556 576.372 136.362 572.83 Q138.191 569.265 138.191 562.159 Q138.191 555.029 136.362 551.488 Q134.556 547.923 130.922 547.923 M130.922 544.219 Q136.732 544.219 139.788 548.826 Q142.867 553.409 142.867 562.159 Q142.867 570.886 139.788 575.492 Q136.732 580.076 130.922 580.076 Q125.112 580.076 122.033 575.492 Q118.978 570.886 118.978 562.159 Q118.978 553.409 122.033 548.826 Q125.112 544.219 130.922 544.219 Z" fill="#000000" fill-rule="nonzero" fill-opacity="1" /><path clip-path="url(#clip220)" d="M94.7882 142.091 L111.108 142.091 L111.108 146.026 L89.1632 146.026 L89.1632 142.091 Q91.8252 139.336 96.4085 134.706 Q101.015 130.054 102.196 128.711 Q104.441 126.188 105.321 124.452 Q106.223 122.693 106.223 121.003 Q106.223 118.248 104.279 116.512 Q102.358 114.776 99.2558 114.776 Q97.0567 114.776 94.603 115.54 Q92.1725 116.304 89.3947 117.855 L89.3947 113.132 Q92.2188 111.998 94.6724 111.42 Q97.1261 110.841 99.1632 110.841 Q104.534 110.841 107.728 113.526 Q110.922 116.211 110.922 120.702 Q110.922 122.831 110.112 124.753 Q109.325 126.651 107.219 129.243 Q106.64 129.915 103.538 133.132 Q100.436 136.327 94.7882 142.091 Z" fill="#000000" fill-rule="nonzero" fill-opacity="1" /><path clip-path="url(#clip220)" d="M130.922 114.545 Q127.311 114.545 125.482 118.109 Q123.677 121.651 123.677 128.781 Q123.677 135.887 125.482 139.452 Q127.311 142.993 130.922 142.993 Q134.556 142.993 136.362 139.452 Q138.191 135.887 138.191 128.781 Q138.191 121.651 136.362 118.109 Q134.556 114.545 130.922 114.545 M130.922 110.841 Q136.732 110.841 139.788 115.447 Q142.867 120.031 142.867 128.781 Q142.867 137.507 139.788 142.114 Q136.732 146.697 130.922 146.697 Q125.112 146.697 122.033 142.114 Q118.978 137.507 118.978 128.781 Q118.978 120.031 122.033 115.447 Q125.112 110.841 130.922 110.841 Z" fill="#000000" fill-rule="nonzero" fill-opacity="1" /><polyline clip-path="url(#clip222)" style="stroke:#009af9; stroke-linecap:round; stroke-linejoin:round; stroke-width:4; stroke-opacity:1; fill:none" points="240.392,958.052 247.251,978.409 254.11,998.405 260.969,1018.11 267.828,1037.58 274.687,1056.39 281.546,1074.72 288.405,1093.59 295.264,1112.63 302.123,1131.06 308.982,1149.22 315.841,1166.92 322.7,1184.24 329.559,1201.26 336.418,1217.76 343.277,1233.71 350.136,1249.12 356.995,1263.84 363.854,1277.9 370.713,1291.36 377.572,1304.16 384.431,1316.36 391.29,1328 398.149,1338.99 405.008,1349.35 411.867,1359.12 418.726,1368.35 425.585,1377 432.444,1385.07 439.303,1392.56 446.162,1399.52 453.021,1405.95 459.88,1411.89 466.739,1417.34 473.598,1422.32 480.457,1426.81 487.316,1430.81 494.175,1434.31 501.034,1437.32 507.893,1439.84 514.752,1441.9 521.611,1443.51 528.47,1444.68 535.328,1445.42 542.188,1445.72 549.046,1445.59 555.905,1445.07 562.764,1444.2 569.623,1443 576.482,1441.48 583.341,1439.67 590.2,1437.65 597.059,1435.5 603.918,1433.06 610.777,1430.17 617.636,1426.87 624.495,1423.15 631.354,1419 638.213,1414.39 645.072,1409.39 651.931,1403.95 658.79,1398.01 665.649,1391.69 672.508,1385.03 679.367,1377.98 686.226,1370.6 693.085,1362.87 699.944,1354.83 706.803,1346.55 713.662,1338.06 720.521,1329.39 727.38,1320.57 734.239,1311.61 741.098,1302.54 747.957,1293.43 754.816,1284.31 761.675,1275.16 768.534,1265.93 775.393,1256.65 782.252,1247.33 789.111,1237.98 795.97,1228.61 802.829,1219.21 809.688,1209.74 816.547,1200.26 823.406,1190.8 830.265,1181.47 837.124,1172.23 843.983,1163.03 850.842,1153.96 857.701,1144.97 864.56,1136.13 871.419,1127.43 878.278,1118.82 885.137,1110.31 891.996,1101.94 898.855,1093.73 905.714,1085.66 912.573,1077.68 919.432,1069.84 926.291,1062.14 933.15,1054.54 940.009,1047.03 946.868,1039.67 953.727,1032.39 960.586,1025.13 967.445,1017.97 974.304,1010.86 981.163,1003.76 988.022,996.723 994.881,989.762 1001.74,982.831 1008.6,975.988 1015.46,969.238 1022.32,962.501 1029.18,955.846 1036.04,949.244 1042.89,942.694 1049.75,936.262 1056.61,929.884 1063.47,923.556 1070.33,917.363 1077.19,911.288 1084.05,905.279 1090.91,899.347 1097.77,893.457 1104.62,887.582 1111.48,881.778 1118.34,876.024 1125.2,870.26 1132.06,864.565 1138.92,858.992 1145.78,853.521 1152.64,848.104 1159.5,842.733 1166.36,837.397 1173.21,832.054 1180.07,826.772 1186.93,821.518 1193.79,816.177 1200.65,810.866 1207.51,805.593 1214.37,800.398 1221.23,795.261 1228.09,790.183 1234.95,785.142 1241.8,780.132 1248.66,775.18 1255.52,770.275 1262.38,765.461 1269.24,760.766 1276.1,756.18 1282.96,751.657 1289.82,747.22 1296.68,742.938 1303.54,738.768 1310.39,734.677 1317.25,730.706 1324.11,726.851 1330.97,723.069 1337.83,719.416 1344.69,715.986 1351.55,712.714 1358.41,709.631 1365.27,706.731 1372.13,704.006 1378.98,701.542 1385.84,699.334 1392.7,697.362 1399.56,695.643 1406.42,694.16 1413.28,692.874 1420.14,691.757 1427,690.812 1433.86,690.024 1440.72,689.471 1447.57,689.185 1454.43,689.137 1461.29,689.327 1468.15,689.741 1475.01,690.351 1481.87,691.163 1488.73,692.234 1495.59,693.528 1502.45,694.973 1509.31,696.585 1516.16,698.409 1523.02,700.517 1529.88,702.897 1536.74,705.495 1543.6,708.279 1550.46,711.218 1557.32,714.323 1564.18,717.6 1571.04,721.006 1577.9,724.533 1584.75,728.192 1591.61,731.984 1598.47,735.888 1605.33,739.876 1612.19,743.937 1619.05,748.063 1625.91,752.23 1632.77,756.477 1639.63,760.818 1646.49,765.226 1653.34,769.734 1660.2,774.365 1667.06,779.115 1673.92,783.926 1680.78,788.804 1687.64,793.733 1694.5,798.68 1701.36,803.672 1708.22,808.719 1715.08,813.767 1721.93,818.803 1728.79,823.858 1735.65,828.922 1742.51,834.024 1749.37,839.11 1756.23,844.151 1763.09,849.206 1769.95,854.247 1776.81,859.273 1783.67,864.324 1790.52,869.318 1797.38,874.237 1804.24,879.1 1811.1,883.897 1817.96,888.628 1824.82,893.328 1831.68,898.011 1838.54,902.63 1845.4,907.199 1852.26,911.697 1859.11,916.055 1865.97,920.305 1872.83,924.483 1879.69,928.555 1886.55,932.482 1893.41,936.299 1900.27,939.968 1907.13,943.483 1913.99,946.976 1920.85,950.47 1927.7,953.909 1934.56,957.215 1941.42,960.393 1948.28,963.519 1955.14,966.568 1962,969.547 1968.86,972.442 1975.72,975.256 1982.58,977.98 1989.44,980.613 1996.29,983.145 2003.15,985.606 2010.01,988.004 2016.87,990.299 2023.73,992.538 2030.59,994.752 2037.45,996.915 2044.31,999.029 2051.17,1001.12 2058.02,1003.16 2064.88,1005.15 2071.74,1007.1 2078.6,1009.01 2085.46,1010.87 2092.32,1012.7 2099.18,1014.52 2106.04,1016.33 2112.9,1018.18 2119.76,1020.08 2126.61,1022.03 2133.47,1024.03 2140.33,1026.04 2147.19,1028.02 2154.05,1029.91 2160.91,1031.7 2167.77,1033.53 2174.63,1035.34 2181.49,1037.11 2188.35,1038.83 2195.2,1040.63 2202.06,1042.39 2208.92,1044.22 2215.78,1046.28 2222.64,1048.22 2229.5,1049.82 2236.36,1051.28 2243.22,1053.13 2250.08,1055.73 2256.94,1058.67 2263.79,1061.62 2270.65,1064.8 2277.51,1068.57 2284.37,1072.22 2291.23,1075.77 "/>
<polyline clip-path="url(#clip222)" style="stroke:#e26f46; stroke-linecap:round; stroke-linejoin:round; stroke-width:4; stroke-opacity:1; fill:none" points="240.392,87.9763 247.251,113.454 254.11,138.118 260.969,162.545 267.828,187.804 274.687,213.742 281.546,239.546 288.405,265.451 295.264,290.977 302.123,316.022 308.982,340.86 315.841,365.105 322.7,388.792 329.559,411.932 336.418,434.477 343.277,456.536 350.136,477.884 356.995,498.418 363.854,518.413 370.713,538.047 377.572,557.185 384.431,575.89 391.29,594.252 398.149,612.183 405.008,629.643 411.867,646.686 418.726,663.342 425.585,679.629 432.444,695.564 439.303,711.178 446.162,726.474 453.021,741.456 459.88,756.13 466.739,770.507 473.598,784.62 480.457,798.506 487.316,812.182 494.175,825.655 501.034,838.953 507.893,852.099 514.752,865.071 521.611,877.908 528.47,890.614 535.328,903.188 542.188,915.64 549.046,927.93 555.905,940.071 562.764,952.105 569.623,964.045 576.482,975.908 583.341,987.692 590.2,999.407 597.059,1011.09 603.918,1022.72 610.777,1034.22 617.636,1045.48 624.495,1056.44 631.354,1067.16 638.213,1077.68 645.072,1088.03 651.931,1098.2 658.79,1108.18 665.649,1118.01 672.508,1127.64 679.367,1137.1 686.226,1146.43 693.085,1155.6 699.944,1164.61 706.803,1173.43 713.662,1182.06 720.521,1190.57 727.38,1198.95 734.239,1207.15 741.098,1215.19 747.957,1223.09 754.816,1230.85 761.675,1238.41 768.534,1245.78 775.393,1253.01 782.252,1260.08 789.111,1267.04 795.97,1273.82 802.829,1280.42 809.688,1286.86 816.547,1293.12 823.406,1299.2 830.265,1305.07 837.124,1310.65 843.983,1315.91 850.842,1320.85 857.701,1325.59 864.56,1330.17 871.419,1334.54 878.278,1338.65 885.137,1342.55 891.996,1346.24 898.855,1349.75 905.714,1353 912.573,1355.9 919.432,1358.46 926.291,1360.75 933.15,1362.75 940.009,1364.42 946.868,1365.77 953.727,1366.85 960.586,1367.56 967.445,1367.8 974.304,1367.64 981.163,1367.17 988.022,1366.39 994.881,1365.38 1001.74,1364.08 1008.6,1362.43 1015.46,1360.41 1022.32,1358.02 1029.18,1355.43 1036.04,1352.62 1042.89,1349.52 1049.75,1346.1 1056.61,1342.4 1063.47,1338.48 1070.33,1334.28 1077.19,1329.7 1084.05,1324.79 1090.91,1319.65 1097.77,1314.33 1104.62,1308.82 1111.48,1303.13 1118.34,1297.27 1125.2,1291.26 1132.06,1285.11 1138.92,1278.88 1145.78,1272.52 1152.64,1266.06 1159.5,1259.51 1166.36,1252.88 1173.21,1246.21 1180.07,1239.54 1186.93,1232.86 1193.79,1226.1 1200.65,1219.27 1207.51,1212.43 1214.37,1205.57 1221.23,1198.68 1228.09,1191.76 1234.95,1184.85 1241.8,1177.95 1248.66,1171.04 1255.52,1164.17 1262.38,1157.29 1269.24,1150.49 1276.1,1143.84 1282.96,1137.32 1289.82,1130.88 1296.68,1124.51 1303.54,1118.23 1310.39,1112.05 1317.25,1105.9 1324.11,1099.82 1330.97,1093.75 1337.83,1087.77 1344.69,1081.96 1351.55,1076.25 1358.41,1070.61 1365.27,1065.02 1372.13,1059.49 1378.98,1054.08 1385.84,1048.77 1392.7,1043.56 1399.56,1038.47 1406.42,1033.49 1413.28,1028.61 1420.14,1023.8 1427,1019.07 1433.86,1014.49 1440.72,1009.98 1447.57,1005.49 1454.43,1001.08 1461.29,996.749 1468.15,992.421 1475.01,988.075 1481.87,983.759 1488.73,979.499 1495.59,975.287 1502.45,971.133 1509.31,967.012 1516.16,962.943 1523.02,958.916 1529.88,954.92 1536.74,950.934 1543.6,946.93 1550.46,942.985 1557.32,939.097 1564.18,935.221 1571.04,931.358 1577.9,927.478 1584.75,923.546 1591.61,919.609 1598.47,915.747 1605.33,911.906 1612.19,907.982 1619.05,903.994 1625.91,899.98 1632.77,896.003 1639.63,892.067 1646.49,888.101 1653.34,884.068 1660.2,880.059 1667.06,876.091 1673.92,872.106 1680.78,868.162 1687.64,864.312 1694.5,860.515 1701.36,856.654 1708.22,852.716 1715.08,848.737 1721.93,844.694 1728.79,840.683 1735.65,836.76 1742.51,832.928 1749.37,829.13 1756.23,825.355 1763.09,821.657 1769.95,818.032 1776.81,814.445 1783.67,810.866 1790.52,807.33 1797.38,803.848 1804.24,800.462 1811.1,797.128 1817.96,793.785 1824.82,790.464 1831.68,787.229 1838.54,784.093 1845.4,781.065 1852.26,778.165 1859.11,775.383 1865.97,772.713 1872.83,770.117 1879.69,767.616 1886.55,765.248 1893.41,762.995 1900.27,760.832 1907.13,758.79 1913.99,756.909 1920.85,755.134 1927.7,753.435 1934.56,751.852 1941.42,750.345 1948.28,748.869 1955.14,747.449 1962,746.094 1968.86,744.799 1975.72,743.574 1982.58,742.459 1989.44,741.431 1996.29,740.444 2003.15,739.482 2010.01,738.586 2016.87,737.779 2023.73,737.057 2030.59,736.444 2037.45,735.959 2044.31,735.591 2051.17,735.33 2058.02,735.188 2064.88,735.145 2071.74,735.202 2078.6,735.359 2085.46,735.607 2092.32,735.941 2099.18,736.356 2106.04,736.858 2112.9,737.447 2119.76,738.129 2126.61,738.926 2133.47,739.859 2140.33,740.881 2147.19,742.018 2154.05,743.372 2160.91,744.977 2167.77,746.703 2174.63,748.705 2181.49,750.994 2188.35,753.469 2195.2,755.998 2202.06,758.521 2208.92,761.161 2215.78,763.946 2222.64,766.786 2229.5,769.892 2236.36,773.553 2243.22,777.638 2250.08,781.979 2256.94,786.829 2263.79,792.216 2270.65,798.639 2277.51,806.134 2284.37,814.162 2291.23,822.146 "/>
<path clip-path="url(#clip220)" d="M2010.47 250.738 L2280.29 250.738 L2280.29 95.2176 L2010.47 95.2176  Z" fill="#ffffff" fill-rule="evenodd" fill-opacity="1"/>
<polyline clip-path="url(#clip220)" style="stroke:#000000; stroke-linecap:round; stroke-linejoin:round; stroke-width:4; stroke-opacity:1; fill:none" points="2010.47,250.738 2280.29,250.738 2280.29,95.2176 2010.47,95.2176 2010.47,250.738 "/>
<polyline clip-path="url(#clip220)" style="stroke:#009af9; stroke-linecap:round; stroke-linejoin:round; stroke-width:4; stroke-opacity:1; fill:none" points="2034.63,147.058 2179.55,147.058 "/>
<path clip-path="url(#clip220)" d="M2217.55 166.745 Q2215.75 171.375 2214.03 172.787 Q2212.32 174.199 2209.45 174.199 L2206.05 174.199 L2206.05 170.634 L2208.55 170.634 Q2210.31 170.634 2211.28 169.8 Q2212.25 168.967 2213.43 165.865 L2214.19 163.921 L2203.71 138.412 L2208.22 138.412 L2216.32 158.689 L2224.43 138.412 L2228.94 138.412 L2217.55 166.745 Z" fill="#000000" fill-rule="nonzero" fill-opacity="1" /><path clip-path="url(#clip220)" d="M2236.23 160.402 L2243.87 160.402 L2243.87 134.037 L2235.56 135.703 L2235.56 131.444 L2243.82 129.778 L2248.5 129.778 L2248.5 160.402 L2256.14 160.402 L2256.14 164.338 L2236.23 164.338 L2236.23 160.402 Z" fill="#000000" fill-rule="nonzero" fill-opacity="1" /><polyline clip-path="url(#clip220)" style="stroke:#e26f46; stroke-linecap:round; stroke-linejoin:round; stroke-width:4; stroke-opacity:1; fill:none" points="2034.63,198.898 2179.55,198.898 "/>
<path clip-path="url(#clip220)" d="M2217.55 218.585 Q2215.75 223.215 2214.03 224.627 Q2212.32 226.039 2209.45 226.039 L2206.05 226.039 L2206.05 222.474 L2208.55 222.474 Q2210.31 222.474 2211.28 221.64 Q2212.25 220.807 2213.43 217.705 L2214.19 215.761 L2203.71 190.252 L2208.22 190.252 L2216.32 210.529 L2224.43 190.252 L2228.94 190.252 L2217.55 218.585 Z" fill="#000000" fill-rule="nonzero" fill-opacity="1" /><path clip-path="url(#clip220)" d="M2239.45 212.242 L2255.77 212.242 L2255.77 216.178 L2233.82 216.178 L2233.82 212.242 Q2236.49 209.488 2241.07 204.858 Q2245.68 200.205 2246.86 198.863 Q2249.1 196.34 2249.98 194.604 Q2250.88 192.844 2250.88 191.155 Q2250.88 188.4 2248.94 186.664 Q2247.02 184.928 2243.92 184.928 Q2241.72 184.928 2239.26 185.692 Q2236.83 186.455 2234.06 188.006 L2234.06 183.284 Q2236.88 182.15 2239.33 181.571 Q2241.79 180.993 2243.82 180.993 Q2249.19 180.993 2252.39 183.678 Q2255.58 186.363 2255.58 190.854 Q2255.58 192.983 2254.77 194.905 Q2253.99 196.803 2251.88 199.395 Q2251.3 200.067 2248.2 203.284 Q2245.1 206.479 2239.45 212.242 Z" fill="#000000" fill-rule="nonzero" fill-opacity="1" /></svg>
