<?xml version="1.0" encoding="utf-8"?>
<svg xmlns="http://www.w3.org/2000/svg" xmlns:xlink="http://www.w3.org/1999/xlink" width="600" height="400" viewBox="0 0 2400 1600">
<defs>
  <clipPath id="clip440">
    <rect x="0" y="0" width="2400" height="1600"/>
  </clipPath>
</defs>
<path clip-path="url(#clip440)" d="M0 1600 L2400 1600 L2400 0 L0 0  Z" fill="#ffffff" fill-rule="evenodd" fill-opacity="1"/>
<defs>
  <clipPath id="clip441">
    <rect x="480" y="0" width="1681" height="1600"/>
  </clipPath>
</defs>
<path clip-path="url(#clip440)" d="M257.204 1423.18 L2352.76 1423.18 L2352.76 47.2441 L257.204 47.2441  Z" fill="#ffffff" fill-rule="evenodd" fill-opacity="1"/>
<defs>
  <clipPath id="clip442">
    <rect x="257" y="47" width="2097" height="1377"/>
  </clipPath>
</defs>
<polyline clip-path="url(#clip442)" style="stroke:#000000; stroke-linecap:round; stroke-linejoin:round; stroke-width:2; stroke-opacity:0.1; fill:none" points="324.713,1423.18 324.713,47.2441 "/>
<polyline clip-path="url(#clip442)" style="stroke:#000000; stroke-linecap:round; stroke-linejoin:round; stroke-width:2; stroke-opacity:0.1; fill:none" points="815.177,1423.18 815.177,47.2441 "/>
<polyline clip-path="url(#clip442)" style="stroke:#000000; stroke-linecap:round; stroke-linejoin:round; stroke-width:2; stroke-opacity:0.1; fill:none" points="1305.64,1423.18 1305.64,47.2441 "/>
<polyline clip-path="url(#clip442)" style="stroke:#000000; stroke-linecap:round; stroke-linejoin:round; stroke-width:2; stroke-opacity:0.1; fill:none" points="1796.11,1423.18 1796.11,47.2441 "/>
<polyline clip-path="url(#clip442)" style="stroke:#000000; stroke-linecap:round; stroke-linejoin:round; stroke-width:2; stroke-opacity:0.1; fill:none" points="2286.57,1423.18 2286.57,47.2441 "/>
<polyline clip-path="url(#clip440)" style="stroke:#000000; stroke-linecap:round; stroke-linejoin:round; stroke-width:4; stroke-opacity:1; fill:none" points="257.204,1423.18 2352.76,1423.18 "/>
<polyline clip-path="url(#clip440)" style="stroke:#000000; stroke-linecap:round; stroke-linejoin:round; stroke-width:4; stroke-opacity:1; fill:none" points="324.713,1423.18 324.713,1404.28 "/>
<polyline clip-path="url(#clip440)" style="stroke:#000000; stroke-linecap:round; stroke-linejoin:round; stroke-width:4; stroke-opacity:1; fill:none" points="815.177,1423.18 815.177,1404.28 "/>
<polyline clip-path="url(#clip440)" style="stroke:#000000; stroke-linecap:round; stroke-linejoin:round; stroke-width:4; stroke-opacity:1; fill:none" points="1305.64,1423.18 1305.64,1404.28 "/>
<polyline clip-path="url(#clip440)" style="stroke:#000000; stroke-linecap:round; stroke-linejoin:round; stroke-width:4; stroke-opacity:1; fill:none" points="1796.11,1423.18 1796.11,1404.28 "/>
<polyline clip-path="url(#clip440)" style="stroke:#000000; stroke-linecap:round; stroke-linejoin:round; stroke-width:4; stroke-opacity:1; fill:none" points="2286.57,1423.18 2286.57,1404.28 "/>
<path clip-path="url(#clip440)" d="M271.241 1468.75 L300.917 1468.75 L300.917 1472.69 L271.241 1472.69 L271.241 1468.75 Z" fill="#000000" fill-rule="nonzero" fill-opacity="1" /><path clip-path="url(#clip440)" d="M311.819 1481.64 L319.458 1481.64 L319.458 1455.28 L311.148 1456.95 L311.148 1452.69 L319.412 1451.02 L324.088 1451.02 L324.088 1481.64 L331.727 1481.64 L331.727 1485.58 L311.819 1485.58 L311.819 1481.64 Z" fill="#000000" fill-rule="nonzero" fill-opacity="1" /><path clip-path="url(#clip440)" d="M341.171 1479.7 L346.055 1479.7 L346.055 1485.58 L341.171 1485.58 L341.171 1479.7 Z" fill="#000000" fill-rule="nonzero" fill-opacity="1" /><path clip-path="url(#clip440)" d="M366.24 1454.1 Q362.629 1454.1 360.8 1457.66 Q358.995 1461.2 358.995 1468.33 Q358.995 1475.44 360.8 1479.01 Q362.629 1482.55 366.24 1482.55 Q369.874 1482.55 371.68 1479.01 Q373.509 1475.44 373.509 1468.33 Q373.509 1461.2 371.68 1457.66 Q369.874 1454.1 366.24 1454.1 M366.24 1450.39 Q372.05 1450.39 375.106 1455 Q378.185 1459.58 378.185 1468.33 Q378.185 1477.06 375.106 1481.67 Q372.05 1486.25 366.24 1486.25 Q360.43 1486.25 357.351 1481.67 Q354.296 1477.06 354.296 1468.33 Q354.296 1459.58 357.351 1455 Q360.43 1450.39 366.24 1450.39 Z" fill="#000000" fill-rule="nonzero" fill-opacity="1" /><path clip-path="url(#clip440)" d="M762.203 1468.75 L791.879 1468.75 L791.879 1472.69 L762.203 1472.69 L762.203 1468.75 Z" fill="#000000" fill-rule="nonzero" fill-opacity="1" /><path clip-path="url(#clip440)" d="M811.971 1454.1 Q808.36 1454.1 806.532 1457.66 Q804.726 1461.2 804.726 1468.33 Q804.726 1475.44 806.532 1479.01 Q808.36 1482.55 811.971 1482.55 Q815.606 1482.55 817.411 1479.01 Q819.24 1475.44 819.24 1468.33 Q819.24 1461.2 817.411 1457.66 Q815.606 1454.1 811.971 1454.1 M811.971 1450.39 Q817.781 1450.39 820.837 1455 Q823.916 1459.58 823.916 1468.33 Q823.916 1477.06 820.837 1481.67 Q817.781 1486.25 811.971 1486.25 Q806.161 1486.25 803.082 1481.67 Q800.027 1477.06 800.027 1468.33 Q800.027 1459.58 803.082 1455 Q806.161 1450.39 811.971 1450.39 Z" fill="#000000" fill-rule="nonzero" fill-opacity="1" /><path clip-path="url(#clip440)" d="M832.133 1479.7 L837.017 1479.7 L837.017 1485.58 L832.133 1485.58 L832.133 1479.7 Z" fill="#000000" fill-rule="nonzero" fill-opacity="1" /><path clip-path="url(#clip440)" d="M847.249 1451.02 L865.605 1451.02 L865.605 1454.96 L851.531 1454.96 L851.531 1463.43 Q852.55 1463.08 853.568 1462.92 Q854.587 1462.73 855.605 1462.73 Q861.392 1462.73 864.772 1465.9 Q868.152 1469.08 868.152 1474.49 Q868.152 1480.07 864.679 1483.17 Q861.207 1486.25 854.888 1486.25 Q852.712 1486.25 850.443 1485.88 Q848.198 1485.51 845.791 1484.77 L845.791 1480.07 Q847.874 1481.2 850.096 1481.76 Q852.318 1482.32 854.795 1482.32 Q858.8 1482.32 861.138 1480.21 Q863.476 1478.1 863.476 1474.49 Q863.476 1470.88 861.138 1468.77 Q858.8 1466.67 854.795 1466.67 Q852.92 1466.67 851.045 1467.08 Q849.193 1467.5 847.249 1468.38 L847.249 1451.02 Z" fill="#000000" fill-rule="nonzero" fill-opacity="1" /><path clip-path="url(#clip440)" d="M1283.03 1454.1 Q1279.42 1454.1 1277.59 1457.66 Q1275.78 1461.2 1275.78 1468.33 Q1275.78 1475.44 1277.59 1479.01 Q1279.42 1482.55 1283.03 1482.55 Q1286.66 1482.55 1288.47 1479.01 Q1290.29 1475.44 1290.29 1468.33 Q1290.29 1461.2 1288.47 1457.66 Q1286.66 1454.1 1283.03 1454.1 M1283.03 1450.39 Q1288.84 1450.39 1291.89 1455 Q1294.97 1459.58 1294.97 1468.33 Q1294.97 1477.06 1291.89 1481.67 Q1288.84 1486.25 1283.03 1486.25 Q1277.22 1486.25 1274.14 1481.67 Q1271.08 1477.06 1271.08 1468.33 Q1271.08 1459.58 1274.14 1455 Q1277.22 1450.39 1283.03 1450.39 Z" fill="#000000" fill-rule="nonzero" fill-opacity="1" /><path clip-path="url(#clip440)" d="M1303.19 1479.7 L1308.07 1479.7 L1308.07 1485.58 L1303.19 1485.58 L1303.19 1479.7 Z" fill="#000000" fill-rule="nonzero" fill-opacity="1" /><path clip-path="url(#clip440)" d="M1328.26 1454.1 Q1324.65 1454.1 1322.82 1457.66 Q1321.01 1461.2 1321.01 1468.33 Q1321.01 1475.44 1322.82 1479.01 Q1324.65 1482.55 1328.26 1482.55 Q1331.89 1482.55 1333.7 1479.01 Q1335.53 1475.44 1335.53 1468.33 Q1335.53 1461.2 1333.7 1457.66 Q1331.89 1454.1 1328.26 1454.1 M1328.26 1450.39 Q1334.07 1450.39 1337.12 1455 Q1340.2 1459.58 1340.2 1468.33 Q1340.2 1477.06 1337.12 1481.67 Q1334.07 1486.25 1328.26 1486.25 Q1322.45 1486.25 1319.37 1481.67 Q1316.31 1477.06 1316.31 1468.33 Q1316.31 1459.58 1319.37 1455 Q1322.45 1450.39 1328.26 1450.39 Z" fill="#000000" fill-rule="nonzero" fill-opacity="1" /><path clip-path="url(#clip440)" d="M1773.99 1454.1 Q1770.38 1454.1 1768.55 1457.66 Q1766.74 1461.2 1766.74 1468.33 Q1766.74 1475.44 1768.55 1479.01 Q1770.38 1482.55 1773.99 1482.55 Q1777.62 1482.55 1779.43 1479.01 Q1781.26 1475.44 1781.26 1468.33 Q1781.26 1461.2 1779.43 1457.66 Q1777.62 1454.1 1773.99 1454.1 M1773.99 1450.39 Q1779.8 1450.39 1782.85 1455 Q1785.93 1459.58 1785.93 1468.33 Q1785.93 1477.06 1782.85 1481.67 Q1779.8 1486.25 1773.99 1486.25 Q1768.18 1486.25 1765.1 1481.67 Q1762.04 1477.06 1762.04 1468.33 Q1762.04 1459.58 1765.1 1455 Q1768.18 1450.39 1773.99 1450.39 Z" fill="#000000" fill-rule="nonzero" fill-opacity="1" /><path clip-path="url(#clip440)" d="M1794.15 1479.7 L1799.03 1479.7 L1799.03 1485.58 L1794.15 1485.58 L1794.15 1479.7 Z" fill="#000000" fill-rule="nonzero" fill-opacity="1" /><path clip-path="url(#clip440)" d="M1809.27 1451.02 L1827.62 1451.02 L1827.62 1454.96 L1813.55 1454.96 L1813.55 1463.43 Q1814.57 1463.08 1815.59 1462.92 Q1816.6 1462.73 1817.62 1462.73 Q1823.41 1462.73 1826.79 1465.9 Q1830.17 1469.08 1830.17 1474.49 Q1830.17 1480.07 1826.7 1483.17 Q1823.22 1486.25 1816.91 1486.25 Q1814.73 1486.25 1812.46 1485.88 Q1810.22 1485.51 1807.81 1484.77 L1807.81 1480.07 Q1809.89 1481.2 1812.11 1481.76 Q1814.34 1482.32 1816.81 1482.32 Q1820.82 1482.32 1823.16 1480.21 Q1825.49 1478.1 1825.49 1474.49 Q1825.49 1470.88 1823.16 1468.77 Q1820.82 1466.67 1816.81 1466.67 Q1814.94 1466.67 1813.06 1467.08 Q1811.21 1467.5 1809.27 1468.38 L1809.27 1451.02 Z" fill="#000000" fill-rule="nonzero" fill-opacity="1" /><path clip-path="url(#clip440)" d="M2253.72 1481.64 L2261.36 1481.64 L2261.36 1455.28 L2253.05 1456.95 L2253.05 1452.69 L2261.32 1451.02 L2265.99 1451.02 L2265.99 1481.64 L2273.63 1481.64 L2273.63 1485.58 L2253.72 1485.58 L2253.72 1481.64 Z" fill="#000000" fill-rule="nonzero" fill-opacity="1" /><path clip-path="url(#clip440)" d="M2283.08 1479.7 L2287.96 1479.7 L2287.96 1485.58 L2283.08 1485.58 L2283.08 1479.7 Z" fill="#000000" fill-rule="nonzero" fill-opacity="1" /><path clip-path="url(#clip440)" d="M2308.15 1454.1 Q2304.53 1454.1 2302.71 1457.66 Q2300.9 1461.2 2300.9 1468.33 Q2300.9 1475.44 2302.71 1479.01 Q2304.53 1482.55 2308.15 1482.55 Q2311.78 1482.55 2313.58 1479.01 Q2315.41 1475.44 2315.41 1468.33 Q2315.41 1461.2 2313.58 1457.66 Q2311.78 1454.1 2308.15 1454.1 M2308.15 1450.39 Q2313.96 1450.39 2317.01 1455 Q2320.09 1459.58 2320.09 1468.33 Q2320.09 1477.06 2317.01 1481.67 Q2313.96 1486.25 2308.15 1486.25 Q2302.33 1486.25 2299.26 1481.67 Q2296.2 1477.06 2296.2 1468.33 Q2296.2 1459.58 2299.26 1455 Q2302.33 1450.39 2308.15 1450.39 Z" fill="#000000" fill-rule="nonzero" fill-opacity="1" /><path clip-path="url(#clip440)" d="M1134.03 1525.81 L1134.03 1543.66 L1142.11 1543.66 Q1146.6 1543.66 1149.05 1541.34 Q1151.5 1539.02 1151.5 1534.72 Q1151.5 1530.45 1149.05 1528.13 Q1146.6 1525.81 1142.11 1525.81 L1134.03 1525.81 M1127.6 1520.52 L1142.11 1520.52 Q1150.1 1520.52 1154.18 1524.15 Q1158.28 1527.75 1158.28 1534.72 Q1158.28 1541.75 1154.18 1545.35 Q1150.1 1548.95 1142.11 1548.95 L1134.03 1548.95 L1134.03 1568.04 L1127.6 1568.04 L1127.6 1520.52 Z" fill="#000000" fill-rule="nonzero" fill-opacity="1" /><path clip-path="url(#clip440)" d="M1178.14 1536.5 Q1173.43 1536.5 1170.7 1540.19 Q1167.96 1543.85 1167.96 1550.25 Q1167.96 1556.65 1170.66 1560.34 Q1173.4 1564 1178.14 1564 Q1182.82 1564 1185.56 1560.31 Q1188.3 1556.62 1188.3 1550.25 Q1188.3 1543.92 1185.56 1540.23 Q1182.82 1536.5 1178.14 1536.5 M1178.14 1531.54 Q1185.78 1531.54 1190.14 1536.5 Q1194.5 1541.47 1194.5 1550.25 Q1194.5 1559 1190.14 1564 Q1185.78 1568.97 1178.14 1568.97 Q1170.47 1568.97 1166.11 1564 Q1161.78 1559 1161.78 1550.25 Q1161.78 1541.47 1166.11 1536.5 Q1170.47 1531.54 1178.14 1531.54 Z" fill="#000000" fill-rule="nonzero" fill-opacity="1" /><path clip-path="url(#clip440)" d="M1226.94 1533.45 L1226.94 1538.98 Q1224.45 1537.71 1221.78 1537.07 Q1219.11 1536.44 1216.24 1536.44 Q1211.88 1536.44 1209.69 1537.77 Q1207.52 1539.11 1207.52 1541.79 Q1207.52 1543.82 1209.08 1545 Q1210.64 1546.15 1215.35 1547.2 L1217.36 1547.64 Q1223.59 1548.98 1226.2 1551.43 Q1228.85 1553.85 1228.85 1558.21 Q1228.85 1563.17 1224.9 1566.07 Q1220.98 1568.97 1214.11 1568.97 Q1211.24 1568.97 1208.13 1568.39 Q1205.04 1567.85 1201.6 1566.74 L1201.6 1560.69 Q1204.85 1562.38 1208 1563.24 Q1211.15 1564.07 1214.24 1564.07 Q1218.37 1564.07 1220.6 1562.66 Q1222.83 1561.23 1222.83 1558.65 Q1222.83 1556.27 1221.21 1554.99 Q1219.62 1553.72 1214.17 1552.54 L1212.14 1552.07 Q1206.69 1550.92 1204.27 1548.56 Q1201.86 1546.18 1201.86 1542.04 Q1201.86 1537.01 1205.42 1534.27 Q1208.99 1531.54 1215.54 1531.54 Q1218.79 1531.54 1221.65 1532.01 Q1224.52 1532.49 1226.94 1533.45 Z" fill="#000000" fill-rule="nonzero" fill-opacity="1" /><path clip-path="url(#clip440)" d="M1238.17 1532.4 L1244.03 1532.4 L1244.03 1568.04 L1238.17 1568.04 L1238.17 1532.4 M1238.17 1518.52 L1244.03 1518.52 L1244.03 1525.93 L1238.17 1525.93 L1238.17 1518.52 Z" fill="#000000" fill-rule="nonzero" fill-opacity="1" /><path clip-path="url(#clip440)" d="M1262.08 1522.27 L1262.08 1532.4 L1274.14 1532.4 L1274.14 1536.95 L1262.08 1536.95 L1262.08 1556.3 Q1262.08 1560.66 1263.25 1561.9 Q1264.46 1563.14 1268.12 1563.14 L1274.14 1563.14 L1274.14 1568.04 L1268.12 1568.04 Q1261.34 1568.04 1258.76 1565.53 Q1256.19 1562.98 1256.19 1556.3 L1256.19 1536.95 L1251.89 1536.95 L1251.89 1532.4 L1256.19 1532.4 L1256.19 1522.27 L1262.08 1522.27 Z" fill="#000000" fill-rule="nonzero" fill-opacity="1" /><path clip-path="url(#clip440)" d="M1281.84 1532.4 L1287.7 1532.4 L1287.7 1568.04 L1281.84 1568.04 L1281.84 1532.4 M1281.84 1518.52 L1287.7 1518.52 L1287.7 1525.93 L1281.84 1525.93 L1281.84 1518.52 Z" fill="#000000" fill-rule="nonzero" fill-opacity="1" /><path clip-path="url(#clip440)" d="M1313.76 1536.5 Q1309.05 1536.5 1306.32 1540.19 Q1303.58 1543.85 1303.58 1550.25 Q1303.58 1556.65 1306.28 1560.34 Q1309.02 1564 1313.76 1564 Q1318.44 1564 1321.18 1560.31 Q1323.92 1556.62 1323.92 1550.25 Q1323.92 1543.92 1321.18 1540.23 Q1318.44 1536.5 1313.76 1536.5 M1313.76 1531.54 Q1321.4 1531.54 1325.76 1536.5 Q1330.12 1541.47 1330.12 1550.25 Q1330.12 1559 1325.76 1564 Q1321.4 1568.97 1313.76 1568.97 Q1306.09 1568.97 1301.73 1564 Q1297.4 1559 1297.4 1550.25 Q1297.4 1541.47 1301.73 1536.5 Q1306.09 1531.54 1313.76 1531.54 Z" fill="#000000" fill-rule="nonzero" fill-opacity="1" /><path clip-path="url(#clip440)" d="M1369.46 1546.53 L1369.46 1568.04 L1363.61 1568.04 L1363.61 1546.72 Q1363.61 1541.66 1361.63 1539.14 Q1359.66 1536.63 1355.71 1536.63 Q1350.97 1536.63 1348.23 1539.65 Q1345.5 1542.68 1345.5 1547.9 L1345.5 1568.04 L1339.61 1568.04 L1339.61 1532.4 L1345.5 1532.4 L1345.5 1537.93 Q1347.6 1534.72 1350.43 1533.13 Q1353.3 1531.54 1357.02 1531.54 Q1363.16 1531.54 1366.31 1535.36 Q1369.46 1539.14 1369.46 1546.53 Z" fill="#000000" fill-rule="nonzero" fill-opacity="1" /><path clip-path="url(#clip440)" d="M1415.93 1518.58 Q1411.67 1525.9 1409.6 1533.06 Q1407.53 1540.23 1407.53 1547.58 Q1407.53 1554.93 1409.6 1562.16 Q1411.7 1569.35 1415.93 1576.64 L1410.84 1576.64 Q1406.07 1569.16 1403.68 1561.93 Q1401.32 1554.71 1401.32 1547.58 Q1401.32 1540.48 1403.68 1533.29 Q1406.04 1526.09 1410.84 1518.58 L1415.93 1518.58 Z" fill="#000000" fill-rule="nonzero" fill-opacity="1" /><path clip-path="url(#clip440)" d="M1430.8 1550.25 Q1430.8 1556.71 1433.44 1560.4 Q1436.11 1564.07 1440.76 1564.07 Q1445.41 1564.07 1448.08 1560.4 Q1450.75 1556.71 1450.75 1550.25 Q1450.75 1543.79 1448.08 1540.13 Q1445.41 1536.44 1440.76 1536.44 Q1436.11 1536.44 1433.44 1540.13 Q1430.8 1543.79 1430.8 1550.25 M1450.75 1562.7 Q1448.91 1565.88 1446.08 1567.44 Q1443.27 1568.97 1439.33 1568.97 Q1432.87 1568.97 1428.79 1563.81 Q1424.75 1558.65 1424.75 1550.25 Q1424.75 1541.85 1428.79 1536.69 Q1432.87 1531.54 1439.33 1531.54 Q1443.27 1531.54 1446.08 1533.1 Q1448.91 1534.62 1450.75 1537.81 L1450.75 1532.4 L1456.61 1532.4 L1456.61 1581.6 L1450.75 1581.6 L1450.75 1562.7 Z" fill="#000000" fill-rule="nonzero" fill-opacity="1" /><path clip-path="url(#clip440)" d="M1467.75 1518.58 L1472.84 1518.58 Q1477.62 1526.09 1479.97 1533.29 Q1482.36 1540.48 1482.36 1547.58 Q1482.36 1554.71 1479.97 1561.93 Q1477.62 1569.16 1472.84 1576.64 L1467.75 1576.64 Q1471.98 1569.35 1474.05 1562.16 Q1476.15 1554.93 1476.15 1547.58 Q1476.15 1540.23 1474.05 1533.06 Q1471.98 1525.9 1467.75 1518.58 Z" fill="#000000" fill-rule="nonzero" fill-opacity="1" /><polyline clip-path="url(#clip442)" style="stroke:#000000; stroke-linecap:round; stroke-linejoin:round; stroke-width:2; stroke-opacity:0.1; fill:none" points="257.204,1380.98 2352.76,1380.98 "/>
<polyline clip-path="url(#clip442)" style="stroke:#000000; stroke-linecap:round; stroke-linejoin:round; stroke-width:2; stroke-opacity:0.1; fill:none" points="257.204,1057.43 2352.76,1057.43 "/>
<polyline clip-path="url(#clip442)" style="stroke:#000000; stroke-linecap:round; stroke-linejoin:round; stroke-width:2; stroke-opacity:0.1; fill:none" points="257.204,733.879 2352.76,733.879 "/>
<polyline clip-path="url(#clip442)" style="stroke:#000000; stroke-linecap:round; stroke-linejoin:round; stroke-width:2; stroke-opacity:0.1; fill:none" points="257.204,410.328 2352.76,410.328 "/>
<polyline clip-path="url(#clip442)" style="stroke:#000000; stroke-linecap:round; stroke-linejoin:round; stroke-width:2; stroke-opacity:0.1; fill:none" points="257.204,86.7773 2352.76,86.7773 "/>
<polyline clip-path="url(#clip440)" style="stroke:#000000; stroke-linecap:round; stroke-linejoin:round; stroke-width:4; stroke-opacity:1; fill:none" points="257.204,1423.18 257.204,47.2441 "/>
<polyline clip-path="url(#clip440)" style="stroke:#000000; stroke-linecap:round; stroke-linejoin:round; stroke-width:4; stroke-opacity:1; fill:none" points="257.204,1380.98 276.102,1380.98 "/>
<polyline clip-path="url(#clip440)" style="stroke:#000000; stroke-linecap:round; stroke-linejoin:round; stroke-width:4; stroke-opacity:1; fill:none" points="257.204,1057.43 276.102,1057.43 "/>
<polyline clip-path="url(#clip440)" style="stroke:#000000; stroke-linecap:round; stroke-linejoin:round; stroke-width:4; stroke-opacity:1; fill:none" points="257.204,733.879 276.102,733.879 "/>
<polyline clip-path="url(#clip440)" style="stroke:#000000; stroke-linecap:round; stroke-linejoin:round; stroke-width:4; stroke-opacity:1; fill:none" points="257.204,410.328 276.102,410.328 "/>
<polyline clip-path="url(#clip440)" style="stroke:#000000; stroke-linecap:round; stroke-linejoin:round; stroke-width:4; stroke-opacity:1; fill:none" points="257.204,86.7773 276.102,86.7773 "/>
<path clip-path="url(#clip440)" d="M114.26 1381.43 L143.936 1381.43 L143.936 1385.37 L114.26 1385.37 L114.26 1381.43 Z" fill="#000000" fill-rule="nonzero" fill-opacity="1" /><path clip-path="url(#clip440)" d="M154.839 1394.32 L162.477 1394.32 L162.477 1367.96 L154.167 1369.63 L154.167 1365.37 L162.431 1363.7 L167.107 1363.7 L167.107 1394.32 L174.746 1394.32 L174.746 1398.26 L154.839 1398.26 L154.839 1394.32 Z" fill="#000000" fill-rule="nonzero" fill-opacity="1" /><path clip-path="url(#clip440)" d="M184.19 1392.38 L189.075 1392.38 L189.075 1398.26 L184.19 1398.26 L184.19 1392.38 Z" fill="#000000" fill-rule="nonzero" fill-opacity="1" /><path clip-path="url(#clip440)" d="M209.26 1366.78 Q205.649 1366.78 203.82 1370.34 Q202.014 1373.89 202.014 1381.01 Q202.014 1388.12 203.82 1391.69 Q205.649 1395.23 209.26 1395.23 Q212.894 1395.23 214.699 1391.69 Q216.528 1388.12 216.528 1381.01 Q216.528 1373.89 214.699 1370.34 Q212.894 1366.78 209.26 1366.78 M209.26 1363.08 Q215.07 1363.08 218.125 1367.68 Q221.204 1372.26 221.204 1381.01 Q221.204 1389.74 218.125 1394.35 Q215.07 1398.93 209.26 1398.93 Q203.449 1398.93 200.371 1394.35 Q197.315 1389.74 197.315 1381.01 Q197.315 1372.26 200.371 1367.68 Q203.449 1363.08 209.26 1363.08 Z" fill="#000000" fill-rule="nonzero" fill-opacity="1" /><path clip-path="url(#clip440)" d="M115.256 1057.88 L144.931 1057.88 L144.931 1061.82 L115.256 1061.82 L115.256 1057.88 Z" fill="#000000" fill-rule="nonzero" fill-opacity="1" /><path clip-path="url(#clip440)" d="M165.024 1043.23 Q161.413 1043.23 159.584 1046.79 Q157.778 1050.33 157.778 1057.46 Q157.778 1064.57 159.584 1068.14 Q161.413 1071.68 165.024 1071.68 Q168.658 1071.68 170.464 1068.14 Q172.292 1064.57 172.292 1057.46 Q172.292 1050.33 170.464 1046.79 Q168.658 1043.23 165.024 1043.23 M165.024 1039.52 Q170.834 1039.52 173.889 1044.13 Q176.968 1048.71 176.968 1057.46 Q176.968 1066.19 173.889 1070.8 Q170.834 1075.38 165.024 1075.38 Q159.214 1075.38 156.135 1070.8 Q153.079 1066.19 153.079 1057.46 Q153.079 1048.71 156.135 1044.13 Q159.214 1039.52 165.024 1039.52 Z" fill="#000000" fill-rule="nonzero" fill-opacity="1" /><path clip-path="url(#clip440)" d="M185.186 1068.83 L190.07 1068.83 L190.07 1074.71 L185.186 1074.71 L185.186 1068.83 Z" fill="#000000" fill-rule="nonzero" fill-opacity="1" /><path clip-path="url(#clip440)" d="M200.301 1040.15 L218.658 1040.15 L218.658 1044.08 L204.584 1044.08 L204.584 1052.56 Q205.602 1052.21 206.621 1052.05 Q207.639 1051.86 208.658 1051.86 Q214.445 1051.86 217.824 1055.03 Q221.204 1058.2 221.204 1063.62 Q221.204 1069.2 217.732 1072.3 Q214.26 1075.38 207.94 1075.38 Q205.764 1075.38 203.496 1075.01 Q201.25 1074.64 198.843 1073.9 L198.843 1069.2 Q200.926 1070.33 203.149 1070.89 Q205.371 1071.45 207.848 1071.45 Q211.852 1071.45 214.19 1069.34 Q216.528 1067.23 216.528 1063.62 Q216.528 1060.01 214.19 1057.9 Q211.852 1055.8 207.848 1055.8 Q205.973 1055.8 204.098 1056.21 Q202.246 1056.63 200.301 1057.51 L200.301 1040.15 Z" fill="#000000" fill-rule="nonzero" fill-opacity="1" /><path clip-path="url(#clip440)" d="M164.028 719.677 Q160.417 719.677 158.589 723.242 Q156.783 726.784 156.783 733.913 Q156.783 741.02 158.589 744.585 Q160.417 748.126 164.028 748.126 Q167.663 748.126 169.468 744.585 Q171.297 741.02 171.297 733.913 Q171.297 726.784 169.468 723.242 Q167.663 719.677 164.028 719.677 M164.028 715.974 Q169.839 715.974 172.894 720.58 Q175.973 725.163 175.973 733.913 Q175.973 742.64 172.894 747.247 Q169.839 751.83 164.028 751.83 Q158.218 751.83 155.14 747.247 Q152.084 742.64 152.084 733.913 Q152.084 725.163 155.14 720.58 Q158.218 715.974 164.028 715.974 Z" fill="#000000" fill-rule="nonzero" fill-opacity="1" /><path clip-path="url(#clip440)" d="M184.19 745.279 L189.075 745.279 L189.075 751.159 L184.19 751.159 L184.19 745.279 Z" fill="#000000" fill-rule="nonzero" fill-opacity="1" /><path clip-path="url(#clip440)" d="M209.26 719.677 Q205.649 719.677 203.82 723.242 Q202.014 726.784 202.014 733.913 Q202.014 741.02 203.82 744.585 Q205.649 748.126 209.26 748.126 Q212.894 748.126 214.699 744.585 Q216.528 741.02 216.528 733.913 Q216.528 726.784 214.699 723.242 Q212.894 719.677 209.26 719.677 M209.26 715.974 Q215.07 715.974 218.125 720.58 Q221.204 725.163 221.204 733.913 Q221.204 742.64 218.125 747.247 Q215.07 751.83 209.26 751.83 Q203.449 751.83 200.371 747.247 Q197.315 742.64 197.315 733.913 Q197.315 725.163 200.371 720.58 Q203.449 715.974 209.26 715.974 Z" fill="#000000" fill-rule="nonzero" fill-opacity="1" /><path clip-path="url(#clip440)" d="M165.024 396.127 Q161.413 396.127 159.584 399.691 Q157.778 403.233 157.778 410.363 Q157.778 417.469 159.584 421.034 Q161.413 424.576 165.024 424.576 Q168.658 424.576 170.464 421.034 Q172.292 417.469 172.292 410.363 Q172.292 403.233 170.464 399.691 Q168.658 396.127 165.024 396.127 M165.024 392.423 Q170.834 392.423 173.889 397.029 Q176.968 401.613 176.968 410.363 Q176.968 419.09 173.889 423.696 Q170.834 428.279 165.024 428.279 Q159.214 428.279 156.135 423.696 Q153.079 419.09 153.079 410.363 Q153.079 401.613 156.135 397.029 Q159.214 392.423 165.024 392.423 Z" fill="#000000" fill-rule="nonzero" fill-opacity="1" /><path clip-path="url(#clip440)" d="M185.186 421.728 L190.07 421.728 L190.07 427.608 L185.186 427.608 L185.186 421.728 Z" fill="#000000" fill-rule="nonzero" fill-opacity="1" /><path clip-path="url(#clip440)" d="M200.301 393.048 L218.658 393.048 L218.658 396.983 L204.584 396.983 L204.584 405.455 Q205.602 405.108 206.621 404.946 Q207.639 404.761 208.658 404.761 Q214.445 404.761 217.824 407.932 Q221.204 411.103 221.204 416.52 Q221.204 422.099 217.732 425.201 Q214.26 428.279 207.94 428.279 Q205.764 428.279 203.496 427.909 Q201.25 427.539 198.843 426.798 L198.843 422.099 Q200.926 423.233 203.149 423.789 Q205.371 424.344 207.848 424.344 Q211.852 424.344 214.19 422.238 Q216.528 420.131 216.528 416.52 Q216.528 412.909 214.19 410.803 Q211.852 408.696 207.848 408.696 Q205.973 408.696 204.098 409.113 Q202.246 409.529 200.301 410.409 L200.301 393.048 Z" fill="#000000" fill-rule="nonzero" fill-opacity="1" /><path clip-path="url(#clip440)" d="M154.839 100.122 L162.477 100.122 L162.477 73.7566 L154.167 75.4232 L154.167 71.164 L162.431 69.4973 L167.107 69.4973 L167.107 100.122 L174.746 100.122 L174.746 104.057 L154.839 104.057 L154.839 100.122 Z" fill="#000000" fill-rule="nonzero" fill-opacity="1" /><path clip-path="url(#clip440)" d="M184.19 98.1777 L189.075 98.1777 L189.075 104.057 L184.19 104.057 L184.19 98.1777 Z" fill="#000000" fill-rule="nonzero" fill-opacity="1" /><path clip-path="url(#clip440)" d="M209.26 72.576 Q205.649 72.576 203.82 76.1408 Q202.014 79.6825 202.014 86.8121 Q202.014 93.9185 203.82 97.4833 Q205.649 101.025 209.26 101.025 Q212.894 101.025 214.699 97.4833 Q216.528 93.9185 216.528 86.8121 Q216.528 79.6825 214.699 76.1408 Q212.894 72.576 209.26 72.576 M209.26 68.8723 Q215.07 68.8723 218.125 73.4788 Q221.204 78.0621 221.204 86.8121 Q221.204 95.5389 218.125 100.145 Q215.07 104.729 209.26 104.729 Q203.449 104.729 200.371 100.145 Q197.315 95.5389 197.315 86.8121 Q197.315 78.0621 200.371 73.4788 Q203.449 68.8723 209.26 68.8723 Z" fill="#000000" fill-rule="nonzero" fill-opacity="1" /><path clip-path="url(#clip440)" d="M16.4842 971.396 L16.4842 961.815 L48.8219 949.689 L16.4842 937.498 L16.4842 927.918 L64.0042 927.918 L64.0042 934.188 L22.277 934.188 L54.8694 946.442 L54.8694 952.903 L22.277 965.157 L64.0042 965.157 L64.0042 971.396 L16.4842 971.396 Z" fill="#000000" fill-rule="nonzero" fill-opacity="1" /><path clip-path="url(#clip440)" d="M32.4621 901.596 Q32.4621 906.306 36.1542 909.044 Q39.8145 911.781 46.212 911.781 Q52.6095 911.781 56.3017 909.075 Q59.9619 906.338 59.9619 901.596 Q59.9619 896.917 56.2698 894.18 Q52.5777 891.442 46.212 891.442 Q39.8781 891.442 36.186 894.18 Q32.4621 896.917 32.4621 901.596 M27.4968 901.596 Q27.4968 893.957 32.4621 889.596 Q37.4273 885.236 46.212 885.236 Q54.9649 885.236 59.9619 889.596 Q64.9272 893.957 64.9272 901.596 Q64.9272 909.266 59.9619 913.627 Q54.9649 917.955 46.212 917.955 Q37.4273 917.955 32.4621 913.627 Q27.4968 909.266 27.4968 901.596 Z" fill="#000000" fill-rule="nonzero" fill-opacity="1" /><path clip-path="url(#clip440)" d="M35.1993 847.774 Q31.2526 845.577 29.3747 842.522 Q27.4968 839.466 27.4968 835.329 Q27.4968 829.759 31.4117 826.735 Q35.2948 823.711 42.4881 823.711 L64.0042 823.711 L64.0042 829.599 L42.679 829.599 Q37.5546 829.599 35.072 831.414 Q32.5894 833.228 32.5894 836.952 Q32.5894 841.503 35.6131 844.145 Q38.6368 846.787 43.8567 846.787 L64.0042 846.787 L64.0042 852.675 L42.679 852.675 Q37.5228 852.675 35.072 854.489 Q32.5894 856.304 32.5894 860.091 Q32.5894 864.579 35.6449 867.221 Q38.6686 869.863 43.8567 869.863 L64.0042 869.863 L64.0042 875.751 L28.3562 875.751 L28.3562 869.863 L33.8944 869.863 Q30.616 867.857 29.0564 865.056 Q27.4968 862.256 27.4968 858.404 Q27.4968 854.521 29.4702 851.816 Q31.4436 849.079 35.1993 847.774 Z" fill="#000000" fill-rule="nonzero" fill-opacity="1" /><path clip-path="url(#clip440)" d="M44.7161 781.538 L47.5806 781.538 L47.5806 808.465 Q53.6281 808.083 56.8109 804.837 Q59.9619 801.559 59.9619 795.734 Q59.9619 792.36 59.1344 789.209 Q58.3069 786.026 56.6518 782.907 L62.1899 782.907 Q63.5267 786.058 64.227 789.368 Q64.9272 792.678 64.9272 796.084 Q64.9272 804.614 59.9619 809.611 Q54.9967 814.576 46.5303 814.576 Q37.7774 814.576 32.6531 809.866 Q27.4968 805.123 27.4968 797.103 Q27.4968 789.909 32.1438 785.74 Q36.7589 781.538 44.7161 781.538 M42.9973 787.395 Q38.1912 787.459 35.3266 790.1 Q32.4621 792.71 32.4621 797.039 Q32.4621 801.94 35.2312 804.901 Q38.0002 807.829 43.0292 808.274 L42.9973 787.395 Z" fill="#000000" fill-rule="nonzero" fill-opacity="1" /><path clip-path="url(#clip440)" d="M42.4881 742.294 L64.0042 742.294 L64.0042 748.15 L42.679 748.15 Q37.6183 748.15 35.1038 750.124 Q32.5894 752.097 32.5894 756.044 Q32.5894 760.786 35.6131 763.523 Q38.6368 766.261 43.8567 766.261 L64.0042 766.261 L64.0042 772.149 L28.3562 772.149 L28.3562 766.261 L33.8944 766.261 Q30.6797 764.16 29.0883 761.327 Q27.4968 758.463 27.4968 754.739 Q27.4968 748.596 31.3163 745.445 Q35.1038 742.294 42.4881 742.294 Z" fill="#000000" fill-rule="nonzero" fill-opacity="1" /><path clip-path="url(#clip440)" d="M18.2347 724.82 L28.3562 724.82 L28.3562 712.757 L32.9077 712.757 L32.9077 724.82 L52.2594 724.82 Q56.6199 724.82 57.8613 723.642 Q59.1026 722.433 59.1026 718.773 L59.1026 712.757 L64.0042 712.757 L64.0042 718.773 Q64.0042 725.552 61.4897 728.13 Q58.9434 730.708 52.2594 730.708 L32.9077 730.708 L32.9077 735.005 L28.3562 735.005 L28.3562 730.708 L18.2347 730.708 L18.2347 724.82 Z" fill="#000000" fill-rule="nonzero" fill-opacity="1" /><path clip-path="url(#clip440)" d="M49.9359 705.659 L28.3562 705.659 L28.3562 699.803 L49.7131 699.803 Q54.7739 699.803 57.3202 697.829 Q59.8346 695.856 59.8346 691.909 Q59.8346 687.167 56.8109 684.43 Q53.7872 681.66 48.5673 681.66 L28.3562 681.66 L28.3562 675.804 L64.0042 675.804 L64.0042 681.66 L58.5296 681.66 Q61.7762 683.793 63.3676 686.626 Q64.9272 689.427 64.9272 693.151 Q64.9272 699.293 61.1078 702.476 Q57.2883 705.659 49.9359 705.659 M27.4968 690.923 L27.4968 690.923 Z" fill="#000000" fill-rule="nonzero" fill-opacity="1" /><path clip-path="url(#clip440)" d="M35.1993 635.987 Q31.2526 633.79 29.3747 630.735 Q27.4968 627.679 27.4968 623.542 Q27.4968 617.972 31.4117 614.948 Q35.2948 611.924 42.4881 611.924 L64.0042 611.924 L64.0042 617.812 L42.679 617.812 Q37.5546 617.812 35.072 619.627 Q32.5894 621.441 32.5894 625.165 Q32.5894 629.716 35.6131 632.358 Q38.6368 635 43.8567 635 L64.0042 635 L64.0042 640.888 L42.679 640.888 Q37.5228 640.888 35.072 642.702 Q32.5894 644.517 32.5894 648.304 Q32.5894 652.792 35.6449 655.434 Q38.6686 658.076 43.8567 658.076 L64.0042 658.076 L64.0042 663.964 L28.3562 663.964 L28.3562 658.076 L33.8944 658.076 Q30.616 656.07 29.0564 653.269 Q27.4968 650.468 27.4968 646.617 Q27.4968 642.734 29.4702 640.029 Q31.4436 637.291 35.1993 635.987 Z" fill="#000000" fill-rule="nonzero" fill-opacity="1" /><path clip-path="url(#clip440)" d="M14.5426 565.454 Q21.8632 569.72 29.0246 571.788 Q36.186 573.857 43.5384 573.857 Q50.8908 573.857 58.1159 571.788 Q65.3091 569.688 72.5979 565.454 L72.5979 570.547 Q65.1182 575.321 57.8931 577.708 Q50.668 580.064 43.5384 580.064 Q36.4406 580.064 29.2474 577.708 Q22.0542 575.353 14.5426 570.547 L14.5426 565.454 Z" fill="#000000" fill-rule="nonzero" fill-opacity="1" /><path clip-path="url(#clip440)" d="M58.657 548.426 L77.5631 548.426 L77.5631 554.315 L28.3562 554.315 L28.3562 548.426 L33.7671 548.426 Q30.5842 546.58 29.0564 543.779 Q27.4968 540.947 27.4968 537.032 Q27.4968 530.539 32.6531 526.496 Q37.8093 522.422 46.212 522.422 Q54.6147 522.422 59.771 526.496 Q64.9272 530.539 64.9272 537.032 Q64.9272 540.947 63.3994 543.779 Q61.8398 546.58 58.657 548.426 M46.212 528.502 Q39.7508 528.502 36.0905 531.175 Q32.3984 533.817 32.3984 538.464 Q32.3984 543.111 36.0905 545.784 Q39.7508 548.426 46.212 548.426 Q52.6732 548.426 56.3653 545.784 Q60.0256 543.111 60.0256 538.464 Q60.0256 533.817 56.3653 531.175 Q52.6732 528.502 46.212 528.502 Z" fill="#000000" fill-rule="nonzero" fill-opacity="1" /><path clip-path="url(#clip440)" d="M14.5426 513.638 L14.5426 508.545 Q22.0542 503.771 29.2474 501.415 Q36.4406 499.028 43.5384 499.028 Q50.668 499.028 57.8931 501.415 Q65.1182 503.771 72.5979 508.545 L72.5979 513.638 Q65.3091 509.404 58.1159 507.336 Q50.8908 505.235 43.5384 505.235 Q36.186 505.235 29.0246 507.336 Q21.8632 509.404 14.5426 513.638 Z" fill="#000000" fill-rule="nonzero" fill-opacity="1" /><polyline clip-path="url(#clip442)" style="stroke:#009af9; stroke-linecap:round; stroke-linejoin:round; stroke-width:16; stroke-opacity:1; fill:none" points="1305.64,86.7773 1311.67,86.7895 1317.69,86.8262 1323.72,86.8872 1329.74,86.9726 1335.76,87.0825 1341.78,87.2167 1347.8,87.3753 1353.82,87.5583 1359.84,87.7657 1365.85,87.9975 1371.86,88.2536 1377.87,88.5341 1383.88,88.839 1389.89,89.1681 1395.89,89.5216 1401.88,89.8994 1407.88,90.3015 1413.87,90.7279 1419.85,91.1785 1425.83,91.6534 1431.81,92.1525 1437.78,92.6758 1443.75,93.2232 1449.71,93.7949 1455.67,94.3907 1461.62,95.0107 1467.57,95.6547 1473.51,96.3228 1479.44,97.0149 1485.36,97.7311 1491.28,98.4713 1497.2,99.2355 1503.1,100.024 1509,100.836 1514.89,101.671 1520.77,102.531 1526.65,103.415 1532.51,104.322 1538.37,105.253 1544.22,106.208 1550.06,107.186 1555.89,108.188 1561.71,109.214 1567.52,110.263 1573.32,111.336 1579.11,112.433 1584.89,113.552 1590.66,114.695 1596.42,115.862 1602.17,117.052 1607.91,118.265 1613.63,119.501 1619.35,120.761 1625.05,122.043 1630.74,123.349 1636.42,124.678 1642.08,126.029 1647.74,127.404 1653.38,128.801 1659,130.222 1664.62,131.665 1670.22,133.131 1675.8,134.619 1681.38,136.13 1686.93,137.664 1692.48,139.22 1698.01,140.798 1703.52,142.399 1709.02,144.023 1714.5,145.668 1719.97,147.336 1725.43,149.026 1730.86,150.737 1736.28,152.471 1741.69,154.227 1747.08,156.005 1752.45,157.804 1757.81,159.625 1763.14,161.468 1768.46,163.333 1773.77,165.219 1779.05,167.126 1784.32,169.055 1789.57,171.005 1794.8,172.976 1800.01,174.969 1805.21,176.982 1810.38,179.017 1815.54,181.073 1820.68,183.149 1825.8,185.246 1830.89,187.364 1835.97,189.502 1841.03,191.661 1846.07,193.841 1851.09,196.041 1856.08,198.261 1861.06,200.501 1866.02,202.762 1870.95,205.042 1875.86,207.342 1880.75,209.663 1885.62,212.003 1890.47,214.363 1895.3,216.742 1900.1,219.141 1904.88,221.559 1909.64,223.997 1914.38,226.454 1919.09,228.929 1923.78,231.425 1928.45,233.938 1933.09,236.471 1937.71,239.023 1942.3,241.593 1946.87,244.182 1951.42,246.789 1955.94,249.415 1960.44,252.059 1964.92,254.721 1969.37,257.401 1973.79,260.1 1978.19,262.816 1982.56,265.549 1986.91,268.301 1991.23,271.07 1995.53,273.856 1999.8,276.66 2004.04,279.481 2008.26,282.32 2012.45,285.175 2016.61,288.047 2020.75,290.936 2024.86,293.842 2028.94,296.764 2033,299.703 2037.03,302.658 2041.03,305.63 2045,308.618 2048.95,311.621 2052.87,314.641 2056.75,317.676 2060.62,320.727 2064.45,323.794 2068.25,326.876 2072.03,329.974 2075.77,333.087 2079.49,336.215 2083.18,339.357 2086.84,342.515 2090.46,345.688 2094.06,348.875 2097.63,352.077 2101.17,355.293 2104.68,358.523 2108.16,361.768 2111.61,365.026 2115.03,368.299 2118.42,371.585 2121.78,374.885 2125.1,378.198 2128.4,381.525 2131.67,384.866 2134.9,388.219 2138.1,391.585 2141.27,394.965 2144.41,398.357 2147.52,401.762 2150.6,405.179 2153.64,408.609 2156.65,412.051 2159.63,415.505 2162.58,418.971 2165.5,422.449 2168.38,425.939 2171.23,429.44 2174.05,432.953 2176.84,436.477 2179.59,440.012 2182.31,443.559 2184.99,447.116 2187.65,450.685 2190.27,454.263 2192.85,457.853 2195.41,461.453 2197.93,465.063 2200.41,468.683 2202.86,472.314 2205.28,475.954 2207.67,479.604 2210.02,483.263 2212.33,486.932 2214.62,490.611 2216.86,494.298 2219.08,497.995 2221.26,501.7 2223.4,505.414 2225.51,509.137 2227.59,512.868 2229.63,516.608 2231.63,520.356 2233.6,524.111 2235.54,527.875 2237.44,531.647 2239.3,535.426 2241.13,539.213 2242.93,543.007 2244.69,546.808 2246.41,550.616 2248.1,554.431 2249.75,558.253 2251.37,562.082 2252.95,565.917 2254.5,569.758 2256.01,573.606 2257.48,577.459 2258.92,581.319 2260.32,585.184 2261.69,589.055 2263.02,592.931 2264.31,596.813 2265.57,600.7 2266.79,604.592 2267.98,608.488 2269.13,612.39 2270.24,616.296 2271.32,620.206 2272.36,624.121 2273.36,628.04 2274.33,631.963 2275.26,635.89 2276.15,639.82 2277.01,643.754 2277.83,647.691 2278.62,651.632 2279.36,655.576 2280.07,659.522 2280.75,663.472 2281.38,667.424 2281.99,671.379 2282.55,675.336 2283.08,679.295 2283.56,683.256 2284.02,687.22 2284.43,691.184 2284.81,695.151 2285.15,699.119 2285.46,703.088 2285.73,707.059 2285.96,711.03 2286.15,715.003 2286.31,718.976 2286.43,722.949 2286.51,726.924 2286.56,730.898 2286.57,734.872 2286.54,738.847 2286.48,742.821 2286.38,746.795 2286.24,750.768 2286.06,754.741 2285.85,758.713 2285.6,762.684 2285.31,766.654 2284.99,770.623 2284.63,774.59 2284.23,778.556 2283.8,782.52 2283.32,786.482 2282.82,790.442 2282.27,794.4 2281.69,798.356 2281.07,802.31 2280.42,806.261 2279.72,810.209 2278.99,814.154 2278.23,818.096 2277.43,822.035 2276.59,825.971 2275.71,829.903 2274.8,833.832 2273.85,837.756 2272.86,841.677 2271.84,845.594 2270.78,849.507 2269.69,853.415 2268.56,857.319 2267.39,861.218 2266.19,865.112 2264.95,869.002 2263.67,872.886 2262.36,876.765 2261.01,880.639 2259.63,884.507 2258.21,888.369 2256.75,892.226 2255.26,896.076 2253.73,899.921 2252.17,903.759 2250.57,907.591 2248.93,911.416 2247.26,915.235 2245.55,919.046 2243.81,922.851 2242.03,926.649 2240.22,930.439 2238.37,934.222 2236.49,937.997 2234.57,941.765 2232.62,945.525 2230.63,949.277 2228.61,953.02 2226.55,956.756 2224.46,960.483 2222.33,964.201 2220.17,967.911 2217.97,971.612 2215.74,975.304 2213.48,978.987 2211.18,982.661 2208.85,986.325 2206.48,989.98 2204.08,993.625 2201.64,997.26 2199.17,1000.89 2196.67,1004.5 2194.13,1008.11 2191.56,1011.7 2188.96,1015.28 2186.32,1018.86 2183.65,1022.42 2180.95,1025.97 2178.22,1029.51 2175.45,1033.04 2172.65,1036.56 2169.81,1040.07 2166.94,1043.57 2164.04,1047.05 2161.11,1050.52 2158.15,1053.98 2155.15,1057.43 2152.12,1060.87 2149.06,1064.29 2145.97,1067.7 2142.85,1071.1 2139.69,1074.48 2136.5,1077.86 2133.29,1081.22 2130.04,1084.56 2126.76,1087.9 2123.44,1091.22 2120.1,1094.52 2116.73,1097.82 2113.33,1101.1 2109.89,1104.36 2106.43,1107.61 2102.93,1110.85 2099.41,1114.07 2095.85,1117.28 2092.27,1120.48 2088.65,1123.66 2085.01,1126.82 2081.34,1129.97 2077.63,1133.11 2073.9,1136.23 2070.14,1139.33 2066.35,1142.42 2062.54,1145.5 2058.69,1148.56 2054.81,1151.6 2050.91,1154.63 2046.98,1157.64 2043.02,1160.64 2039.03,1163.62 2035.02,1166.58 2030.98,1169.53 2026.91,1172.46 2022.81,1175.37 2018.68,1178.27 2014.53,1181.15 2010.36,1184.01 2006.15,1186.86 2001.92,1189.69 1997.66,1192.5 1993.38,1195.3 1989.07,1198.07 1984.74,1200.83 1980.38,1203.58 1975.99,1206.3 1971.58,1209.01 1967.14,1211.7 1962.68,1214.37 1958.2,1217.02 1953.69,1219.66 1949.15,1222.27 1944.59,1224.87 1940.01,1227.45 1935.4,1230.01 1930.77,1232.55 1926.12,1235.08 1921.44,1237.58 1916.74,1240.07 1912.01,1242.53 1907.26,1244.98 1902.5,1247.41 1897.7,1249.82 1892.89,1252.21 1888.05,1254.58 1883.19,1256.93 1878.31,1259.26 1873.41,1261.57 1868.49,1263.86 1863.54,1266.13 1858.57,1268.38 1853.59,1270.61 1848.58,1272.82 1843.55,1275.01 1838.5,1277.18 1833.44,1279.33 1828.35,1281.45 1823.24,1283.56 1818.11,1285.65 1812.96,1287.72 1807.8,1289.76 1802.61,1291.78 1797.41,1293.79 1792.19,1295.77 1786.95,1297.73 1781.69,1299.67 1776.41,1301.59 1771.12,1303.48 1765.81,1305.36 1760.48,1307.21 1755.13,1309.05 1749.77,1310.86 1744.39,1312.64 1738.99,1314.41 1733.58,1316.16 1728.15,1317.88 1722.7,1319.58 1717.24,1321.26 1711.76,1322.91 1706.27,1324.55 1700.77,1326.16 1695.24,1327.75 1689.71,1329.32 1684.16,1330.86 1678.59,1332.39 1673.01,1333.89 1667.42,1335.36 1661.81,1336.82 1656.19,1338.25 1650.56,1339.66 1644.91,1341.04 1639.25,1342.41 1633.58,1343.75 1627.9,1345.06 1622.2,1346.36 1616.49,1347.63 1610.77,1348.88 1605.04,1350.1 1599.3,1351.3 1593.54,1352.48 1587.78,1353.64 1582,1354.77 1576.22,1355.88 1570.42,1356.96 1564.61,1358.02 1558.8,1359.06 1552.97,1360.07 1547.14,1361.06 1541.29,1362.03 1535.44,1362.97 1529.58,1363.89 1523.71,1364.79 1517.83,1365.66 1511.95,1366.51 1506.05,1367.33 1500.15,1368.13 1494.24,1368.91 1488.33,1369.66 1482.4,1370.39 1476.47,1371.09 1470.54,1371.77 1464.59,1372.43 1458.65,1373.06 1452.69,1373.67 1446.73,1374.25 1440.77,1374.81 1434.8,1375.35 1428.82,1375.86 1422.84,1376.34 1416.86,1376.81 1410.87,1377.25 1404.88,1377.66 1398.89,1378.05 1392.89,1378.42 1386.88,1378.76 1380.88,1379.07 1374.87,1379.37 1368.86,1379.63 1362.84,1379.88 1356.83,1380.1 1350.81,1380.29 1344.79,1380.46 1338.77,1380.61 1332.75,1380.73 1326.73,1380.83 1320.7,1380.9 1314.68,1380.95 1308.65,1380.98 1302.63,1380.98 1296.6,1380.95 1290.58,1380.9 1284.56,1380.83 1278.53,1380.73 1272.51,1380.61 1266.49,1380.46 1260.47,1380.29 1254.45,1380.1 1248.44,1379.88 1242.43,1379.63 1236.41,1379.37 1230.41,1379.07 1224.4,1378.76 1218.4,1378.42 1212.4,1378.05 1206.4,1377.66 1200.41,1377.25 1194.42,1376.81 1188.44,1376.34 1182.46,1375.86 1176.49,1375.35 1170.52,1374.81 1164.55,1374.25 1158.59,1373.67 1152.64,1373.06 1146.69,1372.43 1140.75,1371.77 1134.81,1371.09 1128.88,1370.39 1122.96,1369.66 1117.04,1368.91 1111.13,1368.13 1105.23,1367.33 1099.34,1366.51 1093.45,1365.66 1087.57,1364.79 1081.7,1363.89 1075.84,1362.97 1069.99,1362.03 1064.15,1361.06 1058.31,1360.07 1052.49,1359.06 1046.67,1358.02 1040.86,1356.96 1035.07,1355.88 1029.28,1354.77 1023.51,1353.64 1017.74,1352.48 1011.99,1351.3 1006.24,1350.1 1000.51,1348.88 994.793,1347.63 989.085,1346.36 983.388,1345.06 977.704,1343.75 972.032,1342.41 966.373,1341.04 960.726,1339.66 955.093,1338.25 949.472,1336.82 943.866,1335.36 938.272,1333.89 932.693,1332.39 927.128,1330.86 921.577,1329.32 916.04,1327.75 910.518,1326.16 905.012,1324.55 899.52,1322.91 894.043,1321.26 888.582,1319.58 883.137,1317.88 877.708,1316.16 872.295,1314.41 866.898,1312.64 861.518,1310.86 856.154,1309.05 850.808,1307.21 845.478,1305.36 840.166,1303.48 834.872,1301.59 829.595,1299.67 824.336,1297.73 819.096,1295.77 813.873,1293.79 808.67,1291.78 803.485,1289.76 798.319,1287.72 793.172,1285.65 788.044,1283.56 782.936,1281.45 777.848,1279.33 772.78,1277.18 767.731,1275.01 762.703,1272.82 757.696,1270.61 752.709,1268.38 747.743,1266.13 742.798,1263.86 737.875,1261.57 732.972,1259.26 728.092,1256.93 723.233,1254.58 718.396,1252.21 713.581,1249.82 708.789,1247.41 704.019,1244.98 699.272,1242.53 694.547,1240.07 689.846,1237.58 685.168,1235.08 680.513,1232.55 675.882,1230.01 671.275,1227.45 666.692,1224.87 662.132,1222.27 657.597,1219.66 653.087,1217.02 648.601,1214.37 644.14,1211.7 639.703,1209.01 635.292,1206.3 630.907,1203.58 626.546,1200.83 622.211,1198.07 617.903,1195.3 613.62,1192.5 609.363,1189.69 605.132,1186.86 600.928,1184.01 596.75,1181.15 592.599,1178.27 588.475,1175.37 584.378,1172.46 580.309,1169.53 576.266,1166.58 572.252,1163.62 568.264,1160.64 564.305,1157.64 560.374,1154.63 556.47,1151.6 552.595,1148.56 548.749,1145.5 544.931,1142.42 541.141,1139.33 537.381,1136.23 533.649,1133.11 529.947,1129.97 526.274,1126.82 522.63,1123.66 519.016,1120.48 515.431,1117.28 511.876,1114.07 508.352,1110.85 504.857,1107.61 501.393,1104.36 497.958,1101.1 494.555,1097.82 491.181,1094.52 487.839,1091.22 484.528,1087.9 481.247,1084.56 477.998,1081.22 474.779,1077.86 471.592,1074.48 468.437,1071.1 465.313,1067.7 462.221,1064.29 459.161,1060.87 456.132,1057.43 453.136,1053.98 450.172,1050.52 447.24,1047.05 444.34,1043.57 441.473,1040.07 438.639,1036.56 435.837,1033.04 433.068,1029.51 430.332,1025.97 427.629,1022.42 424.959,1018.86 422.322,1015.28 419.719,1011.7 417.149,1008.11 414.613,1004.5 412.11,1000.89 409.641,997.26 407.206,993.625 404.804,989.98 402.437,986.325 400.104,982.661 397.804,978.987 395.54,975.304 393.309,971.612 391.113,967.911 388.951,964.201 386.824,960.483 384.732,956.756 382.674,953.02 380.651,949.277 378.663,945.525 376.71,941.765 374.792,937.997 372.909,934.222 371.061,930.439 369.249,926.648 367.472,922.851 365.73,919.046 364.024,915.235 362.353,911.416 360.718,907.591 359.119,903.759 357.555,899.921 356.027,896.076 354.535,892.226 353.078,888.369 351.658,884.507 350.273,880.639 348.925,876.765 347.613,872.886 346.337,869.002 345.097,865.112 343.893,861.218 342.726,857.319 341.594,853.415 340.5,849.507 339.441,845.594 338.42,841.677 337.434,837.756 336.485,833.831 335.573,829.903 334.697,825.971 333.858,822.035 333.056,818.096 332.29,814.154 331.561,810.208 330.869,806.261 330.213,802.31 329.594,798.356 329.012,794.4 328.467,790.442 327.959,786.482 327.488,782.52 327.053,778.556 326.656,774.59 326.295,770.623 325.972,766.654 325.685,762.684 325.435,758.713 325.223,754.741 325.047,750.768 324.908,746.795 324.806,742.821 324.742,738.846 324.714,734.872 324.723,730.898 324.769,726.924 324.853,722.949 324.973,718.976 325.13,715.003 325.324,711.03 325.556,707.059 325.824,703.088 326.129,699.119 326.471,695.151 326.85,691.184 327.266,687.219 327.719,683.256 328.209,679.295 328.735,675.336 329.299,671.379 329.899,667.424 330.536,663.472 331.21,659.522 331.921,655.576 332.668,651.632 333.452,647.691 334.273,643.754 335.13,639.82 336.024,635.889 336.955,631.963 337.922,628.04 338.926,624.121 339.966,620.206 341.043,616.296 342.155,612.39 343.305,608.488 344.49,604.591 345.712,600.699 346.97,596.813 348.264,592.931 349.595,589.055 350.961,585.184 352.364,581.319 353.802,577.459 355.276,573.606 356.786,569.758 358.332,565.917 359.914,562.082 361.531,558.253 363.184,554.431 364.873,550.616 366.597,546.808 368.356,543.006 370.151,539.213 371.981,535.426 373.846,531.647 375.747,527.875 377.682,524.112 379.653,520.356 381.658,516.608 383.698,512.868 385.774,509.137 387.883,505.414 390.028,501.7 392.207,497.995 394.42,494.298 396.668,490.611 398.95,486.932 401.266,483.263 403.617,479.604 406.001,475.954 408.419,472.314 410.872,468.683 413.357,465.063 415.877,461.453 418.43,457.853 421.017,454.263 423.637,450.684 426.29,447.116 428.976,443.559 431.696,440.012 434.448,436.477 437.234,432.953 440.052,429.44 442.903,425.938 445.786,422.449 448.702,418.971 451.65,415.504 454.63,412.05 457.643,408.608 460.687,405.179 463.763,401.761 466.871,398.357 470.011,394.965 473.182,391.585 476.385,388.219 479.619,384.865 482.883,381.525 486.18,378.198 489.507,374.885 492.864,371.585 496.253,368.299 499.672,365.026 503.121,361.768 506.601,358.523 510.11,355.293 513.65,352.076 517.22,348.875 520.819,345.688 524.448,342.515 528.107,339.357 531.795,336.214 535.511,333.087 539.258,329.974 543.032,326.876 546.836,323.794 550.668,320.727 554.529,317.676 558.419,314.641 562.336,311.621 566.282,308.617 570.255,305.63 574.256,302.658 578.284,299.703 582.34,296.764 586.424,293.842 590.534,290.936 594.671,288.047 598.836,285.175 603.027,282.32 607.244,279.481 611.488,276.66 615.758,273.856 620.054,271.07 624.376,268.301 628.723,265.549 633.096,262.816 637.495,260.099 641.918,257.401 646.367,254.721 650.841,252.059 655.339,249.415 659.862,246.789 664.409,244.182 668.981,241.593 673.576,239.023 678.195,236.471 682.838,233.938 687.504,231.424 692.194,228.929 696.907,226.453 701.642,223.997 706.401,221.559 711.182,219.141 715.986,216.742 720.812,214.362 725.66,212.003 730.53,209.663 735.421,207.342 740.334,205.042 745.268,202.762 750.224,200.501 755.2,198.261 760.197,196.041 765.215,193.841 770.253,191.661 775.312,189.502 780.39,187.364 785.488,185.246 790.606,183.149 795.743,181.072 800.9,179.017 806.075,176.982 811.269,174.969 816.482,172.976 821.714,171.005 826.964,169.055 832.232,167.126 837.517,165.219 842.82,163.333 848.141,161.468 853.479,159.625 858.834,157.804 864.206,156.005 869.594,154.227 874.999,152.471 880.42,150.737 885.858,149.025 891.311,147.336 896.78,145.668 902.264,144.022 907.763,142.399 913.278,140.798 918.807,139.22 924.351,137.664 929.909,136.13 935.481,134.619 941.067,133.131 946.668,131.665 952.281,130.222 957.908,128.801 963.548,127.404 969.201,126.029 974.867,124.677 980.545,123.349 986.235,122.043 991.938,120.761 997.652,119.501 1003.38,118.265 1009.12,117.052 1014.86,115.862 1020.62,114.695 1026.39,113.552 1032.17,112.433 1037.97,111.336 1043.77,110.263 1049.58,109.214 1055.4,108.188 1061.23,107.186 1067.07,106.208 1072.92,105.253 1078.77,104.322 1084.64,103.415 1090.51,102.531 1096.39,101.671 1102.28,100.835 1108.18,100.024 1114.09,99.2354 1120,98.4713 1125.92,97.7311 1131.85,97.0149 1137.78,96.3227 1143.72,95.6547 1149.66,95.0106 1155.61,94.3907 1161.57,93.7949 1167.53,93.2232 1173.5,92.6757 1179.47,92.1524 1185.45,91.6534 1191.43,91.1784 1197.42,90.7279 1203.41,90.3015 1209.4,89.8994 1215.4,89.5216 1221.4,89.1681 1227.4,88.839 1233.41,88.5341 1239.42,88.2536 1245.43,87.9975 1251.45,87.7657 1257.46,87.5583 1263.48,87.3753 1269.5,87.2167 1275.52,87.0824 1281.55,86.9726 1287.57,86.8872 1293.59,86.8262 1299.62,86.7895 1305.64,86.7773 "/>
<polyline clip-path="url(#clip442)" style="stroke:#e26f46; stroke-linecap:round; stroke-linejoin:round; stroke-width:16; stroke-opacity:1; fill:none" points="1305.64,86.7773 1311.66,86.6336 1317.68,86.4899 1323.7,86.3461 1329.72,86.2024 1335.73,86.1857 1341.73,86.382 1347.72,86.673 1353.72,86.9796 1359.71,87.2636 1365.71,87.528 1371.71,87.7635 1377.71,87.9892 1383.69,88.3436 1389.66,88.8729 1395.6,89.5244 1401.55,90.1746 1407.5,90.818 1413.44,91.4615 1419.39,92.105 1425.34,92.7485 1431.29,93.3919 1437.23,94.0311 1443.18,94.6618 1449.14,95.2883 1455.09,95.9146 1461.03,96.5444 1466.98,97.1815 1472.93,97.829 1478.87,98.4898 1484.8,99.1666 1490.74,99.8617 1496.66,100.577 1502.58,101.315 1508.5,102.077 1514.4,102.864 1520.3,103.676 1526.19,104.516 1532.07,105.382 1537.94,106.276 1543.8,107.196 1549.65,108.143 1555.49,109.116 1561.32,110.125 1567.12,111.185 1572.91,112.284 1578.69,113.412 1584.46,114.557 1590.23,115.712 1595.99,116.871 1601.76,118.029 1607.53,119.183 1613.3,120.331 1619.07,121.474 1624.84,122.612 1630.61,123.751 1636.38,124.911 1642.07,126.183 1647.7,127.554 1653.3,128.996 1658.86,130.485 1664.42,132 1669.98,133.524 1675.54,135.043 1681.12,136.548 1686.72,138.03 1692.33,139.488 1697.96,140.921 1703.61,142.334 1709.26,143.734 1714.92,145.131 1720.56,146.541 1726.18,147.981 1731.76,149.474 1737.28,151.042 1742.73,152.717 1748.08,154.515 1753.43,156.323 1758.78,158.12 1764.14,159.918 1769.49,161.725 1774.82,163.549 1780.14,165.396 1785.43,167.269 1790.69,169.169 1795.94,171.098 1801.15,173.053 1806.35,175.031 1811.54,177.027 1816.71,179.033 1821.88,181.041 1827.05,183.054 1832.04,185.22 1836.86,187.536 1841.58,189.944 1846.25,192.396 1850.93,194.852 1855.65,197.277 1860.45,199.645 1865.34,201.936 1870.34,204.139 1875.46,206.25 1880.69,208.27 1886.01,210.21 1891.41,212.088 1896.86,213.928 1902.32,215.762 1907.73,217.629 1913.05,219.577 1918.21,221.658 1923.13,223.935 1927.74,226.469 1932.2,229.13 1936.6,231.838 1940.95,234.582 1945.27,237.351 1949.57,240.135 1953.86,242.927 1958.15,245.722 1962.44,248.514 1966.74,251.302 1971.05,254.083 1975.36,256.859 1979.68,259.632 1983.99,262.406 1988.31,265.177 1992.68,267.922 1997.08,270.648 2001.49,273.363 2005.91,276.077 2010.32,278.798 2014.7,281.531 2019.06,284.283 2023.37,287.059 2027.64,289.863 2031.85,292.698 2036,295.567 2040.1,298.471 2044.14,301.41 2048.11,304.385 2052.03,307.393 2055.89,310.433 2059.71,313.503 2063.48,316.597 2067.21,319.712 2070.93,322.842 2074.62,325.979 2078.32,329.118 2082.03,332.249 2085.75,335.373 2089.36,338.548 2092.86,341.777 2096.27,345.05 2099.6,348.36 2102.87,351.7 2106.09,355.064 2109.27,358.446 2112.43,361.84 2115.57,365.242 2118.7,368.649 2121.83,372.056 2124.96,375.463 2128.1,378.866 2131.24,382.266 2134.4,385.66 2137.56,389.05 2140.74,392.436 2143.91,395.821 2147.09,399.205 2150.26,402.592 2153.38,405.998 2156.42,409.433 2159.38,412.894 2162.28,416.378 2165.12,419.883 2167.9,423.406 2170.64,426.945 2173.34,430.498 2176.01,434.063 2178.64,437.637 2181.26,441.22 2183.85,444.809 2186.42,448.403 2188.99,452.001 2191.54,455.603 2194.08,459.206 2196.63,462.81 2199.16,466.415 2201.7,470.02 2204.24,473.624 2206.78,477.229 2209.31,480.833 2211.85,484.437 2214.39,488.041 2216.92,491.647 2219.45,495.259 2221.94,498.881 2224.39,502.514 2226.8,506.159 2229.16,509.818 2231.46,513.491 2233.69,517.179 2235.84,520.883 2237.92,524.602 2239.92,528.339 2241.84,532.092 2243.68,535.863 2245.42,539.65 2247.08,543.454 2248.66,547.274 2250.15,551.111 2251.57,554.962 2252.9,558.829 2254.16,562.708 2255.35,566.601 2256.49,570.505 2257.56,574.419 2258.59,578.342 2259.58,582.272 2260.53,586.208 2261.47,590.147 2262.4,594.087 2263.34,598.027 2264.29,601.964 2265.27,605.896 2266.26,609.826 2267.25,613.755 2268.24,617.685 2269.23,621.615 2270.22,625.545 2271.21,629.475 2272.2,633.404 2273.19,637.334 2274.18,641.264 2275.17,645.194 2276.16,649.124 2277.14,653.053 2278.13,656.983 2279.12,660.913 2280.11,664.843 2281.1,668.773 2282.09,672.702 2283.08,676.632 2284.07,680.562 2285.06,684.492 2286.05,688.422 2287.04,692.351 2288.03,696.281 2288.96,700.213 2289.79,704.147 2290.53,708.083 2291.18,712.021 2291.73,715.962 2292.21,719.904 2292.6,723.848 2292.92,727.793 2293.16,731.74 2293.32,735.688 2293.42,739.636 2293.45,743.586 2293.41,747.536 2293.31,751.486 2293.15,755.437 2292.94,759.387 2292.66,763.338 2292.33,767.288 2291.96,771.238 2291.53,775.188 2291.05,779.136 2290.53,783.084 2289.96,787.031 2289.35,790.976 2288.7,794.92 2288.01,798.862 2287.28,802.803 2286.52,806.742 2285.72,810.679 2284.88,814.614 2284.01,818.546 2283.11,822.476 2282.18,826.403 2281.22,830.327 2280.22,834.249 2279.2,838.167 2278.15,842.082 2277.07,845.994 2275.96,849.903 2274.83,853.807 2273.67,857.708 2272.48,861.605 2271.27,865.498 2270.03,869.386 2268.76,873.27 2267.46,877.15 2266.14,881.025 2264.79,884.895 2263.41,888.76 2262.01,892.62 2260.58,896.476 2259.11,900.325 2257.62,904.17 2256.1,908.008 2254.54,911.841 2252.96,915.668 2251.33,919.488 2249.59,923.28 2247.73,927.043 2245.76,930.78 2243.7,934.499 2241.57,938.202 2239.39,941.894 2237.17,945.579 2234.92,949.261 2232.66,952.943 2230.39,956.626 2228.12,960.313 2225.86,964.007 2223.62,967.708 2221.39,971.417 2219.2,975.135 2217.02,978.863 2214.88,982.599 2212.76,986.344 2210.66,990.096 2208.59,993.854 2206.53,997.616 2204.47,1001.38 2202.42,1005.14 2200.36,1008.9 2198.29,1012.65 2196.18,1016.39 2194.03,1020.12 2191.83,1023.82 2189.55,1027.5 2187.18,1031.15 2184.7,1034.76 2182.09,1038.33 2179.34,1041.86 2176.54,1045.36 2173.71,1048.87 2170.86,1052.36 2167.98,1055.85 2165.07,1059.32 2162.11,1062.78 2159.11,1066.23 2156.07,1069.65 2152.98,1073.06 2149.83,1076.44 2146.64,1079.8 2143.4,1083.14 2140.11,1086.46 2136.76,1089.75 2133.36,1093.02 2129.92,1096.27 2126.42,1099.49 2122.88,1102.7 2119.3,1105.88 2115.68,1109.05 2112.03,1112.2 2108.34,1115.33 2104.63,1118.45 2100.9,1121.57 2097.16,1124.67 2093.4,1127.78 2089.65,1130.88 2085.91,1133.99 2082.17,1137.1 2078.46,1140.22 2074.74,1143.35 2071.01,1146.48 2067.28,1149.6 2063.52,1152.71 2059.74,1155.81 2055.93,1158.89 2052.09,1161.95 2048.2,1164.99 2044.28,1168 2040.31,1170.98 2036.29,1173.93 2032.23,1176.85 2028.11,1179.74 2023.94,1182.59 2019.72,1185.4 2015.44,1188.18 2011.11,1190.93 2006.73,1193.63 2002.3,1196.31 1997.82,1198.95 1993.3,1201.56 1988.73,1204.15 1984.12,1206.7 1979.47,1209.23 1974.79,1211.74 1970.09,1214.23 1965.36,1216.7 1960.61,1219.16 1955.86,1221.61 1951.1,1224.07 1946.34,1226.52 1941.6,1228.98 1936.87,1231.46 1932.18,1233.96 1927.52,1236.5 1922.88,1239.07 1918.27,1241.65 1913.66,1244.24 1909.05,1246.84 1904.44,1249.42 1899.81,1252 1895.17,1254.55 1890.5,1257.09 1885.81,1259.59 1881.09,1262.07 1876.33,1264.51 1871.54,1266.91 1866.7,1269.27 1861.83,1271.59 1856.91,1273.86 1851.95,1276.09 1846.95,1278.28 1841.9,1280.42 1836.82,1282.52 1831.69,1284.58 1826.53,1286.61 1821.33,1288.59 1816.1,1290.55 1810.85,1292.48 1805.57,1294.38 1800.27,1296.27 1794.97,1298.15 1789.65,1300.02 1784.34,1301.89 1779.04,1303.77 1773.75,1305.67 1768.47,1307.57 1763.16,1309.42 1757.82,1311.24 1752.44,1313.01 1747.04,1314.75 1741.61,1316.45 1736.16,1318.11 1730.68,1319.74 1725.18,1321.34 1719.65,1322.91 1714.11,1324.45 1708.55,1325.96 1702.97,1327.45 1697.38,1328.91 1691.77,1330.36 1686.14,1331.78 1680.51,1333.18 1674.86,1334.57 1669.2,1335.94 1663.54,1337.29 1657.86,1338.64 1652.18,1339.97 1646.5,1341.29 1640.8,1342.6 1635.11,1343.91 1629.41,1345.21 1623.7,1346.5 1618,1347.79 1612.29,1349.08 1606.58,1350.37 1600.88,1351.66 1595.17,1352.95 1589.47,1354.24 1583.76,1355.54 1578.05,1356.83 1572.33,1358.13 1566.61,1359.41 1560.87,1360.68 1555.13,1361.94 1549.38,1363.17 1543.63,1364.39 1537.86,1365.57 1532.08,1366.73 1526.3,1367.86 1520.5,1368.95 1514.69,1370.01 1508.88,1371.03 1503.05,1372.01 1497.21,1372.96 1491.37,1373.85 1485.51,1374.71 1479.64,1375.52 1473.76,1376.29 1467.87,1377.01 1461.97,1377.69 1456.05,1378.33 1450.13,1378.92 1444.2,1379.46 1438.26,1379.96 1432.31,1380.42 1426.35,1380.84 1420.38,1381.22 1414.41,1381.56 1408.42,1381.87 1402.43,1382.14 1396.43,1382.38 1390.43,1382.59 1384.42,1382.77 1378.4,1382.93 1372.38,1383.07 1366.36,1383.19 1360.34,1383.3 1354.31,1383.4 1348.28,1383.49 1342.25,1383.58 1336.22,1383.67 1330.2,1383.78 1324.17,1383.89 1318.15,1384.02 1312.13,1384.14 1306.11,1384.21 1300.1,1384.24 1294.08,1384.22 1288.07,1384.16 1282.06,1384.06 1276.06,1383.92 1270.05,1383.73 1264.05,1383.51 1258.06,1383.25 1252.06,1382.95 1246.08,1382.61 1240.09,1382.23 1234.11,1381.83 1228.13,1381.39 1222.16,1380.92 1216.18,1380.42 1210.22,1379.9 1204.25,1379.35 1198.29,1378.78 1192.34,1378.19 1186.38,1377.58 1180.43,1376.95 1174.48,1376.32 1168.53,1375.67 1162.58,1375.02 1156.63,1374.37 1150.69,1373.72 1144.74,1373.06 1138.79,1372.41 1132.86,1371.72 1126.94,1370.98 1121.03,1370.2 1115.14,1369.39 1109.25,1368.54 1103.38,1367.66 1097.52,1366.75 1091.67,1365.8 1085.82,1364.84 1079.99,1363.84 1074.16,1362.83 1068.35,1361.79 1062.54,1360.73 1056.73,1359.66 1050.94,1358.57 1045.15,1357.47 1039.36,1356.36 1033.58,1355.23 1027.8,1354.1 1022.03,1352.96 1016.26,1351.82 1010.48,1350.67 1004.72,1349.52 998.947,1348.37 993.177,1347.22 987.407,1346.07 981.655,1344.9 975.965,1343.63 970.33,1342.29 964.74,1340.89 959.184,1339.43 953.654,1337.93 948.142,1336.39 942.641,1334.83 937.144,1333.26 931.646,1331.68 926.142,1330.1 920.627,1328.53 915.097,1326.97 909.551,1325.42 903.986,1323.88 898.401,1322.37 892.795,1320.87 887.169,1319.4 881.524,1317.94 875.861,1316.51 870.183,1315.09 864.493,1313.68 858.796,1312.28 853.095,1310.88 847.397,1309.48 841.707,1308.07 836.034,1306.63 830.383,1305.18 824.765,1303.68 819.187,1302.14 813.66,1300.54 808.196,1298.87 802.805,1297.11 797.5,1295.25 792.298,1293.28 787.286,1291.13 782.439,1288.83 777.7,1286.44 773.017,1284 768.346,1281.53 763.648,1279.09 758.895,1276.69 754.063,1274.34 749.135,1272.08 744.103,1269.9 738.964,1267.8 733.723,1265.79 728.393,1263.85 722.991,1261.97 717.545,1260.13 712.087,1258.29 706.658,1256.43 701.304,1254.51 696.081,1252.48 691.048,1250.3 686.275,1247.9 681.76,1245.28 677.31,1242.61 672.902,1239.91 668.53,1237.18 664.185,1234.42 659.862,1231.65 655.554,1228.87 651.256,1226.08 646.964,1223.29 642.675,1220.49 638.385,1217.69 634.092,1214.9 629.795,1212.11 625.493,1209.32 621.185,1206.54 616.873,1203.76 612.557,1200.99 608.24,1198.21 603.924,1195.44 599.616,1192.65 595.347,1189.85 591.127,1187.01 586.958,1184.13 582.84,1181.23 578.774,1178.29 574.762,1175.33 570.803,1172.33 566.897,1169.3 563.045,1166.25 559.247,1163.16 555.501,1160.05 551.807,1156.91 548.165,1153.74 544.572,1150.55 541.028,1147.34 537.531,1144.1 534.079,1140.84 530.671,1137.56 527.303,1134.26 523.973,1130.94 520.678,1127.61 517.416,1124.26 514.184,1120.9 510.977,1117.52 507.792,1114.14 504.625,1110.75 501.472,1107.35 498.329,1103.95 495.191,1100.55 492.054,1097.14 488.911,1093.74 485.759,1090.34 482.585,1086.96 479.369,1083.58 476.119,1080.22 472.847,1076.86 469.564,1073.51 466.279,1070.16 463.001,1066.81 459.738,1063.45 456.498,1060.08 453.286,1056.71 450.109,1053.32 446.971,1049.92 443.877,1046.5 440.829,1043.07 437.831,1039.62 434.883,1036.15 431.988,1032.67 429.145,1029.17 426.353,1025.65 423.61,1022.11 420.916,1018.56 418.266,1014.99 415.657,1011.4 413.084,1007.81 410.541,1004.2 408.023,1000.59 405.522,996.972 403.031,993.349 400.54,989.726 398.041,986.105 395.523,982.492 392.993,978.882 390.482,975.263 388.004,971.634 385.566,967.994 383.178,964.34 380.847,960.673 378.579,956.991 376.381,953.294 374.258,949.581 372.213,945.851 370.249,942.105 368.37,938.341 366.576,934.561 364.869,930.763 363.247,926.949 361.71,923.119 360.255,919.273 358.88,915.412 357.581,911.537 356.353,907.649 355.191,903.748 354.088,899.836 353.037,895.915 352.03,891.986 351.058,888.051 350.111,884.111 349.177,880.169 348.246,876.226 347.306,872.285 346.341,868.348 345.352,864.416 344.362,860.484 343.372,856.552 342.382,852.62 341.392,848.687 340.402,844.755 339.411,840.823 338.421,836.891 337.431,832.959 336.441,829.027 335.451,825.095 334.461,821.163 333.471,817.23 332.481,813.298 331.49,809.366 330.5,805.434 329.51,801.502 328.52,797.57 327.53,793.638 326.54,789.706 325.55,785.774 324.56,781.842 323.569,777.909 322.593,773.976 321.686,770.036 320.855,766.091 320.1,762.139 319.418,758.183 318.811,754.222 318.276,750.257 317.814,746.289 317.423,742.317 317.102,738.344 316.852,734.369 316.67,730.392 316.557,726.415 316.512,722.437 316.534,718.459 316.621,714.482 316.774,710.506 316.99,706.531 317.271,702.558 317.614,698.586 318.019,694.618 318.485,690.652 319.011,686.689 319.596,682.73 320.24,678.774 320.941,674.822 321.699,670.875 322.512,666.933 323.38,662.995 324.302,659.062 325.278,655.135 326.305,651.213 327.383,647.297 328.511,643.386 329.689,639.482 330.914,635.584 332.187,631.693 333.506,627.807 334.871,623.929 336.28,620.057 337.732,616.192 339.226,612.333 340.761,608.482 342.337,604.638 343.952,600.8 345.605,596.97 347.295,593.146 349.021,589.33 350.782,585.52 352.577,581.717 354.405,577.922 356.264,574.133 358.154,570.35 360.074,566.574 362.022,562.805 363.997,559.042 365.998,555.285 368.024,551.534 370.074,547.789 372.147,544.05 374.242,540.317 376.356,536.588 378.49,532.865 380.642,529.146 382.81,525.432 384.994,521.723 387.193,518.017 389.405,514.316 391.628,510.617 393.863,506.921 396.106,503.23 398.358,499.539 400.617,495.851 402.882,492.165 405.15,488.48 407.422,484.795 409.697,481.111 411.97,477.429 414.245,473.743 416.516,470.058 418.784,466.372 421.047,462.684 423.304,458.994 425.554,455.299 427.795,451.603 430.034,447.905 432.352,444.234 434.763,440.597 437.262,436.99 439.843,433.412 442.501,429.861 445.231,426.334 448.028,422.831 450.887,419.349 453.805,415.888 456.776,412.445 459.798,409.019 462.866,405.61 465.977,402.215 469.128,398.835 472.316,395.467 475.539,392.112 478.793,388.769 482.078,385.437 485.39,382.115 488.728,378.803 492.091,375.501 495.477,372.209 498.886,368.927 502.317,365.654 505.769,362.39 509.241,359.137 512.735,355.894 516.249,352.662 519.786,349.44 523.344,346.231 526.926,343.034 530.531,339.851 534.163,336.682 537.823,333.528 541.511,330.391 545.231,327.272 548.984,324.171 552.774,321.092 556.603,318.034 560.475,315 564.392,311.992 568.358,309.011 572.369,306.054 576.394,303.104 580.433,300.162 584.49,297.229 588.566,294.309 592.666,291.403 596.79,288.513 600.942,285.64 605.122,282.786 609.332,279.952 613.574,277.139 617.849,274.349 622.157,271.581 626.499,268.836 630.875,266.114 635.285,263.415 639.728,260.74 644.205,258.089 648.714,255.459 653.254,252.851 657.824,250.265 662.423,247.698 667.048,245.15 671.697,242.619 676.369,240.103 681.06,237.602 685.768,235.112 690.489,232.631 695.22,230.158 699.957,227.69 704.697,225.222 709.435,222.754 714.167,220.282 718.889,217.801 723.579,215.292 728.231,212.743 732.858,210.168 737.47,207.578 742.078,204.984 746.693,202.397 751.323,199.825 755.975,197.277 760.657,194.758 765.374,192.276 770.132,189.835 774.934,187.44 779.783,185.093 784.682,182.797 789.632,180.553 794.632,178.36 799.682,176.219 804.78,174.128 809.924,172.083 815.11,170.081 820.334,168.118 825.59,166.187 830.87,164.283 836.17,162.397 841.478,160.521 846.787,158.645 852.086,156.759 857.365,154.853 862.662,152.973 867.998,151.145 873.371,149.368 878.779,147.637 884.22,145.952 889.691,144.308 895.189,142.703 900.714,141.136 906.263,139.602 911.834,138.101 917.424,136.629 923.033,135.184 928.659,133.764 934.299,132.366 939.952,130.988 945.617,129.629 951.291,128.285 956.974,126.955 962.664,125.636 968.36,124.327 974.06,123.025 979.763,121.729 985.469,120.436 991.175,119.145 996.881,117.854 1002.59,116.561 1008.29,115.261 1013.99,113.933 1019.69,112.581 1025.39,111.214 1031.09,109.842 1036.79,108.473 1042.5,107.116 1048.22,105.778 1053.94,104.465 1059.68,103.184 1065.42,101.941 1071.18,100.741 1076.95,99.5883 1082.73,98.4873 1088.53,97.4414 1094.35,96.4535 1100.17,95.5261 1106.02,94.6609 1111.88,93.8591 1117.76,93.1215 1123.65,92.4481 1129.55,91.8385 1135.48,91.2917 1141.41,90.8061 1147.37,90.3796 1153.33,90.0095 1159.31,89.6925 1165.3,89.4248 1171.3,89.202 1177.31,89.0191 1183.33,88.8707 1189.35,88.7506 1195.38,88.6522 1201.41,88.5683 1207.45,88.4912 1213.48,88.4124 1219.51,88.3232 1225.54,88.214 1231.56,88.0772 1237.58,87.9335 1243.6,87.7897 1249.61,87.646 1255.63,87.5022 1261.65,87.3585 1267.67,87.2147 1273.69,87.071 1279.71,86.9272 "/>
<path clip-path="url(#clip440)" d="M327.056 248.629 L750.198 248.629 L750.198 93.1086 L327.056 93.1086  Z" fill="#ffffff" fill-rule="evenodd" fill-opacity="1"/>
<polyline clip-path="url(#clip440)" style="stroke:#000000; stroke-linecap:round; stroke-linejoin:round; stroke-width:4; stroke-opacity:1; fill:none" points="327.056,248.629 750.198,248.629 750.198,93.1086 327.056,93.1086 327.056,248.629 "/>
<polyline clip-path="url(#clip440)" style="stroke:#009af9; stroke-linecap:round; stroke-linejoin:round; stroke-width:16; stroke-opacity:1; fill:none" points="350.34,144.949 490.043,144.949 "/>
<path clip-path="url(#clip440)" d="M529.345 130.84 Q524.253 130.84 521.244 134.636 Q518.258 138.432 518.258 144.983 Q518.258 151.511 521.244 155.307 Q524.253 159.104 529.345 159.104 Q534.438 159.104 537.401 155.307 Q540.387 151.511 540.387 144.983 Q540.387 138.432 537.401 134.636 Q534.438 130.84 529.345 130.84 M529.345 127.044 Q536.614 127.044 540.966 131.928 Q545.318 136.789 545.318 144.983 Q545.318 153.155 540.966 158.039 Q536.614 162.9 529.345 162.9 Q522.054 162.9 517.679 158.039 Q513.327 153.178 513.327 144.983 Q513.327 136.789 517.679 131.928 Q522.054 127.044 529.345 127.044 Z" fill="#000000" fill-rule="nonzero" fill-opacity="1" /><path clip-path="url(#clip440)" d="M567.47 140.284 Q566.753 139.868 565.896 139.682 Q565.063 139.474 564.044 139.474 Q560.433 139.474 558.489 141.835 Q556.568 144.173 556.568 148.571 L556.568 162.229 L552.285 162.229 L552.285 136.303 L556.568 136.303 L556.568 140.331 Q557.91 137.969 560.063 136.835 Q562.216 135.678 565.294 135.678 Q565.734 135.678 566.267 135.747 Q566.799 135.794 567.447 135.909 L567.47 140.284 Z" fill="#000000" fill-rule="nonzero" fill-opacity="1" /><path clip-path="url(#clip440)" d="M571.938 136.303 L576.197 136.303 L576.197 162.229 L571.938 162.229 L571.938 136.303 M571.938 126.21 L576.197 126.21 L576.197 131.604 L571.938 131.604 L571.938 126.21 Z" fill="#000000" fill-rule="nonzero" fill-opacity="1" /><path clip-path="url(#clip440)" d="M602.169 148.965 Q602.169 144.335 600.248 141.789 Q598.35 139.243 594.901 139.243 Q591.475 139.243 589.553 141.789 Q587.655 144.335 587.655 148.965 Q587.655 153.571 589.553 156.118 Q591.475 158.664 594.901 158.664 Q598.35 158.664 600.248 156.118 Q602.169 153.571 602.169 148.965 M606.428 159.011 Q606.428 165.631 603.489 168.849 Q600.549 172.09 594.484 172.09 Q592.239 172.09 590.248 171.742 Q588.257 171.418 586.382 170.724 L586.382 166.58 Q588.257 167.599 590.086 168.085 Q591.915 168.571 593.813 168.571 Q598.003 168.571 600.086 166.372 Q602.169 164.196 602.169 159.775 L602.169 157.668 Q600.85 159.96 598.79 161.094 Q596.729 162.229 593.859 162.229 Q589.091 162.229 586.174 158.594 Q583.257 154.96 583.257 148.965 Q583.257 142.946 586.174 139.312 Q589.091 135.678 593.859 135.678 Q596.729 135.678 598.79 136.812 Q600.85 137.946 602.169 140.238 L602.169 136.303 L606.428 136.303 L606.428 159.011 Z" fill="#000000" fill-rule="nonzero" fill-opacity="1" /><path clip-path="url(#clip440)" d="M615.201 136.303 L619.461 136.303 L619.461 162.229 L615.201 162.229 L615.201 136.303 M615.201 126.21 L619.461 126.21 L619.461 131.604 L615.201 131.604 L615.201 126.21 Z" fill="#000000" fill-rule="nonzero" fill-opacity="1" /><path clip-path="url(#clip440)" d="M649.924 146.581 L649.924 162.229 L645.664 162.229 L645.664 146.719 Q645.664 143.039 644.229 141.21 Q642.794 139.382 639.924 139.382 Q636.475 139.382 634.484 141.581 Q632.493 143.78 632.493 147.576 L632.493 162.229 L628.211 162.229 L628.211 136.303 L632.493 136.303 L632.493 140.331 Q634.021 137.993 636.081 136.835 Q638.164 135.678 640.873 135.678 Q645.34 135.678 647.632 138.456 Q649.924 141.21 649.924 146.581 Z" fill="#000000" fill-rule="nonzero" fill-opacity="1" /><path clip-path="url(#clip440)" d="M670.201 149.196 Q665.039 149.196 663.048 150.377 Q661.058 151.557 661.058 154.405 Q661.058 156.673 662.539 158.016 Q664.044 159.335 666.613 159.335 Q670.155 159.335 672.285 156.835 Q674.437 154.312 674.437 150.145 L674.437 149.196 L670.201 149.196 M678.697 147.437 L678.697 162.229 L674.437 162.229 L674.437 158.293 Q672.979 160.655 670.803 161.789 Q668.627 162.9 665.479 162.9 Q661.498 162.9 659.136 160.678 Q656.798 158.432 656.798 154.682 Q656.798 150.307 659.715 148.085 Q662.655 145.863 668.465 145.863 L674.437 145.863 L674.437 145.446 Q674.437 142.507 672.493 140.909 Q670.572 139.289 667.076 139.289 Q664.854 139.289 662.748 139.821 Q660.641 140.354 658.697 141.419 L658.697 137.483 Q661.035 136.581 663.234 136.141 Q665.433 135.678 667.516 135.678 Q673.141 135.678 675.919 138.594 Q678.697 141.511 678.697 147.437 Z" fill="#000000" fill-rule="nonzero" fill-opacity="1" /><path clip-path="url(#clip440)" d="M687.47 126.21 L691.729 126.21 L691.729 162.229 L687.47 162.229 L687.47 126.21 Z" fill="#000000" fill-rule="nonzero" fill-opacity="1" /><polyline clip-path="url(#clip440)" style="stroke:#e26f46; stroke-linecap:round; stroke-linejoin:round; stroke-width:16; stroke-opacity:1; fill:none" points="350.34,196.789 490.043,196.789 "/>
<path clip-path="url(#clip440)" d="M518.003 183.351 L518.003 196.337 L523.883 196.337 Q527.146 196.337 528.929 194.647 Q530.711 192.958 530.711 189.833 Q530.711 186.731 528.929 185.041 Q527.146 183.351 523.883 183.351 L518.003 183.351 M513.327 179.509 L523.883 179.509 Q529.693 179.509 532.656 182.147 Q535.642 184.763 535.642 189.833 Q535.642 194.948 532.656 197.564 Q529.693 200.18 523.883 200.18 L518.003 200.18 L518.003 214.069 L513.327 214.069 L513.327 179.509 Z" fill="#000000" fill-rule="nonzero" fill-opacity="1" /><path clip-path="url(#clip440)" d="M555.919 192.124 Q555.202 191.708 554.345 191.522 Q553.512 191.314 552.493 191.314 Q548.882 191.314 546.938 193.675 Q545.017 196.013 545.017 200.411 L545.017 214.069 L540.734 214.069 L540.734 188.143 L545.017 188.143 L545.017 192.171 Q546.359 189.809 548.512 188.675 Q550.665 187.518 553.743 187.518 Q554.183 187.518 554.716 187.587 Q555.248 187.634 555.896 187.749 L555.919 192.124 Z" fill="#000000" fill-rule="nonzero" fill-opacity="1" /><path clip-path="url(#clip440)" d="M581.521 200.041 L581.521 202.124 L561.938 202.124 Q562.216 206.522 564.577 208.837 Q566.961 211.129 571.197 211.129 Q573.651 211.129 575.942 210.527 Q578.257 209.925 580.526 208.721 L580.526 212.749 Q578.234 213.721 575.827 214.231 Q573.419 214.74 570.942 214.74 Q564.739 214.74 561.105 211.129 Q557.493 207.518 557.493 201.36 Q557.493 194.995 560.919 191.268 Q564.368 187.518 570.202 187.518 Q575.433 187.518 578.466 190.897 Q581.521 194.254 581.521 200.041 M577.262 198.791 Q577.216 195.296 575.294 193.212 Q573.396 191.129 570.248 191.129 Q566.683 191.129 564.53 193.143 Q562.401 195.157 562.077 198.814 L577.262 198.791 Z" fill="#000000" fill-rule="nonzero" fill-opacity="1" /><path clip-path="url(#clip440)" d="M605.572 192.078 L605.572 178.05 L609.831 178.05 L609.831 214.069 L605.572 214.069 L605.572 210.18 Q604.229 212.495 602.169 213.629 Q600.132 214.74 597.262 214.74 Q592.563 214.74 589.6 210.99 Q586.66 207.24 586.66 201.129 Q586.66 195.018 589.6 191.268 Q592.563 187.518 597.262 187.518 Q600.132 187.518 602.169 188.652 Q604.229 189.763 605.572 192.078 M591.058 201.129 Q591.058 205.828 592.979 208.513 Q594.924 211.175 598.303 211.175 Q601.683 211.175 603.627 208.513 Q605.572 205.828 605.572 201.129 Q605.572 196.43 603.627 193.768 Q601.683 191.083 598.303 191.083 Q594.924 191.083 592.979 193.768 Q591.058 196.43 591.058 201.129 Z" fill="#000000" fill-rule="nonzero" fill-opacity="1" /><path clip-path="url(#clip440)" d="M618.604 188.143 L622.863 188.143 L622.863 214.069 L618.604 214.069 L618.604 188.143 M618.604 178.05 L622.863 178.05 L622.863 183.444 L618.604 183.444 L618.604 178.05 Z" fill="#000000" fill-rule="nonzero" fill-opacity="1" /><path clip-path="url(#clip440)" d="M650.433 189.138 L650.433 193.12 Q648.627 192.124 646.799 191.638 Q644.993 191.129 643.141 191.129 Q638.998 191.129 636.706 193.768 Q634.414 196.384 634.414 201.129 Q634.414 205.874 636.706 208.513 Q638.998 211.129 643.141 211.129 Q644.993 211.129 646.799 210.643 Q648.627 210.133 650.433 209.138 L650.433 213.073 Q648.65 213.907 646.729 214.323 Q644.831 214.74 642.678 214.74 Q636.822 214.74 633.373 211.059 Q629.924 207.379 629.924 201.129 Q629.924 194.786 633.396 191.152 Q636.891 187.518 642.956 187.518 Q644.924 187.518 646.799 187.935 Q648.674 188.328 650.433 189.138 Z" fill="#000000" fill-rule="nonzero" fill-opacity="1" /><path clip-path="url(#clip440)" d="M662.053 180.782 L662.053 188.143 L670.826 188.143 L670.826 191.453 L662.053 191.453 L662.053 205.527 Q662.053 208.698 662.91 209.601 Q663.789 210.504 666.451 210.504 L670.826 210.504 L670.826 214.069 L666.451 214.069 Q661.521 214.069 659.646 212.24 Q657.771 210.388 657.771 205.527 L657.771 191.453 L654.646 191.453 L654.646 188.143 L657.771 188.143 L657.771 180.782 L662.053 180.782 Z" fill="#000000" fill-rule="nonzero" fill-opacity="1" /><path clip-path="url(#clip440)" d="M698.604 200.041 L698.604 202.124 L679.021 202.124 Q679.298 206.522 681.659 208.837 Q684.044 211.129 688.28 211.129 Q690.733 211.129 693.025 210.527 Q695.34 209.925 697.608 208.721 L697.608 212.749 Q695.317 213.721 692.909 214.231 Q690.502 214.74 688.025 214.74 Q681.822 214.74 678.187 211.129 Q674.576 207.518 674.576 201.36 Q674.576 194.995 678.002 191.268 Q681.451 187.518 687.284 187.518 Q692.516 187.518 695.548 190.897 Q698.604 194.254 698.604 200.041 M694.345 198.791 Q694.298 195.296 692.377 193.212 Q690.479 191.129 687.331 191.129 Q683.766 191.129 681.613 193.143 Q679.484 195.157 679.159 198.814 L694.345 198.791 Z" fill="#000000" fill-rule="nonzero" fill-opacity="1" /><path clip-path="url(#clip440)" d="M722.655 192.078 L722.655 178.05 L726.914 178.05 L726.914 214.069 L722.655 214.069 L722.655 210.18 Q721.312 212.495 719.252 213.629 Q717.215 214.74 714.344 214.74 Q709.645 214.74 706.682 210.99 Q703.743 207.24 703.743 201.129 Q703.743 195.018 706.682 191.268 Q709.645 187.518 714.344 187.518 Q717.215 187.518 719.252 188.652 Q721.312 189.763 722.655 192.078 M708.141 201.129 Q708.141 205.828 710.062 208.513 Q712.007 211.175 715.386 211.175 Q718.766 211.175 720.71 208.513 Q722.655 205.828 722.655 201.129 Q722.655 196.43 720.71 193.768 Q718.766 191.083 715.386 191.083 Q712.007 191.083 710.062 193.768 Q708.141 196.43 708.141 201.129 Z" fill="#000000" fill-rule="nonzero" fill-opacity="1" /></svg>
