<?xml version="1.0" encoding="utf-8"?>
<svg xmlns="http://www.w3.org/2000/svg" xmlns:xlink="http://www.w3.org/1999/xlink" width="600" height="400" viewBox="0 0 2400 1600">
<defs>
  <clipPath id="clip500">
    <rect x="0" y="0" width="2400" height="1600"/>
  </clipPath>
</defs>
<path clip-path="url(#clip500)" d="M0 1600 L2400 1600 L2400 0 L0 0  Z" fill="#ffffff" fill-rule="evenodd" fill-opacity="1"/>
<defs>
  <clipPath id="clip501">
    <rect x="480" y="0" width="1681" height="1600"/>
  </clipPath>
</defs>
<path clip-path="url(#clip500)" d="M257.204 1423.18 L2352.76 1423.18 L2352.76 47.2441 L257.204 47.2441  Z" fill="#ffffff" fill-rule="evenodd" fill-opacity="1"/>
<defs>
  <clipPath id="clip502">
    <rect x="257" y="47" width="2097" height="1377"/>
  </clipPath>
</defs>
<polyline clip-path="url(#clip502)" style="stroke:#000000; stroke-linecap:round; stroke-linejoin:round; stroke-width:2; stroke-opacity:0.1; fill:none" points="345.409,1423.18 345.409,47.2441 "/>
<polyline clip-path="url(#clip502)" style="stroke:#000000; stroke-linecap:round; stroke-linejoin:round; stroke-width:2; stroke-opacity:0.1; fill:none" points="825.896,1423.18 825.896,47.2441 "/>
<polyline clip-path="url(#clip502)" style="stroke:#000000; stroke-linecap:round; stroke-linejoin:round; stroke-width:2; stroke-opacity:0.1; fill:none" points="1306.38,1423.18 1306.38,47.2441 "/>
<polyline clip-path="url(#clip502)" style="stroke:#000000; stroke-linecap:round; stroke-linejoin:round; stroke-width:2; stroke-opacity:0.1; fill:none" points="1786.87,1423.18 1786.87,47.2441 "/>
<polyline clip-path="url(#clip502)" style="stroke:#000000; stroke-linecap:round; stroke-linejoin:round; stroke-width:2; stroke-opacity:0.1; fill:none" points="2267.36,1423.18 2267.36,47.2441 "/>
<polyline clip-path="url(#clip500)" style="stroke:#000000; stroke-linecap:round; stroke-linejoin:round; stroke-width:4; stroke-opacity:1; fill:none" points="257.204,1423.18 2352.76,1423.18 "/>
<polyline clip-path="url(#clip500)" style="stroke:#000000; stroke-linecap:round; stroke-linejoin:round; stroke-width:4; stroke-opacity:1; fill:none" points="345.409,1423.18 345.409,1404.28 "/>
<polyline clip-path="url(#clip500)" style="stroke:#000000; stroke-linecap:round; stroke-linejoin:round; stroke-width:4; stroke-opacity:1; fill:none" points="825.896,1423.18 825.896,1404.28 "/>
<polyline clip-path="url(#clip500)" style="stroke:#000000; stroke-linecap:round; stroke-linejoin:round; stroke-width:4; stroke-opacity:1; fill:none" points="1306.38,1423.18 1306.38,1404.28 "/>
<polyline clip-path="url(#clip500)" style="stroke:#000000; stroke-linecap:round; stroke-linejoin:round; stroke-width:4; stroke-opacity:1; fill:none" points="1786.87,1423.18 1786.87,1404.28 "/>
<polyline clip-path="url(#clip500)" style="stroke:#000000; stroke-linecap:round; stroke-linejoin:round; stroke-width:4; stroke-opacity:1; fill:none" points="2267.36,1423.18 2267.36,1404.28 "/>
<path clip-path="url(#clip500)" d="M291.937 1468.75 L321.612 1468.75 L321.612 1472.69 L291.937 1472.69 L291.937 1468.75 Z" fill="#000000" fill-rule="nonzero" fill-opacity="1" /><path clip-path="url(#clip500)" d="M332.515 1481.64 L340.154 1481.64 L340.154 1455.28 L331.844 1456.95 L331.844 1452.69 L340.108 1451.02 L344.784 1451.02 L344.784 1481.64 L352.422 1481.64 L352.422 1485.58 L332.515 1485.58 L332.515 1481.64 Z" fill="#000000" fill-rule="nonzero" fill-opacity="1" /><path clip-path="url(#clip500)" d="M361.867 1479.7 L366.751 1479.7 L366.751 1485.58 L361.867 1485.58 L361.867 1479.7 Z" fill="#000000" fill-rule="nonzero" fill-opacity="1" /><path clip-path="url(#clip500)" d="M386.936 1454.1 Q383.325 1454.1 381.496 1457.66 Q379.691 1461.2 379.691 1468.33 Q379.691 1475.44 381.496 1479.01 Q383.325 1482.55 386.936 1482.55 Q390.57 1482.55 392.376 1479.01 Q394.205 1475.44 394.205 1468.33 Q394.205 1461.2 392.376 1457.66 Q390.57 1454.1 386.936 1454.1 M386.936 1450.39 Q392.746 1450.39 395.802 1455 Q398.88 1459.58 398.88 1468.33 Q398.88 1477.06 395.802 1481.67 Q392.746 1486.25 386.936 1486.25 Q381.126 1486.25 378.047 1481.67 Q374.992 1477.06 374.992 1468.33 Q374.992 1459.58 378.047 1455 Q381.126 1450.39 386.936 1450.39 Z" fill="#000000" fill-rule="nonzero" fill-opacity="1" /><path clip-path="url(#clip500)" d="M772.922 1468.75 L802.597 1468.75 L802.597 1472.69 L772.922 1472.69 L772.922 1468.75 Z" fill="#000000" fill-rule="nonzero" fill-opacity="1" /><path clip-path="url(#clip500)" d="M822.69 1454.1 Q819.079 1454.1 817.25 1457.66 Q815.445 1461.2 815.445 1468.33 Q815.445 1475.44 817.25 1479.01 Q819.079 1482.55 822.69 1482.55 Q826.324 1482.55 828.13 1479.01 Q829.958 1475.44 829.958 1468.33 Q829.958 1461.2 828.13 1457.66 Q826.324 1454.1 822.69 1454.1 M822.69 1450.39 Q828.5 1450.39 831.556 1455 Q834.634 1459.58 834.634 1468.33 Q834.634 1477.06 831.556 1481.67 Q828.5 1486.25 822.69 1486.25 Q816.88 1486.25 813.801 1481.67 Q810.746 1477.06 810.746 1468.33 Q810.746 1459.58 813.801 1455 Q816.88 1450.39 822.69 1450.39 Z" fill="#000000" fill-rule="nonzero" fill-opacity="1" /><path clip-path="url(#clip500)" d="M842.852 1479.7 L847.736 1479.7 L847.736 1485.58 L842.852 1485.58 L842.852 1479.7 Z" fill="#000000" fill-rule="nonzero" fill-opacity="1" /><path clip-path="url(#clip500)" d="M857.968 1451.02 L876.324 1451.02 L876.324 1454.96 L862.25 1454.96 L862.25 1463.43 Q863.268 1463.08 864.287 1462.92 Q865.305 1462.73 866.324 1462.73 Q872.111 1462.73 875.491 1465.9 Q878.87 1469.08 878.87 1474.49 Q878.87 1480.07 875.398 1483.17 Q871.926 1486.25 865.606 1486.25 Q863.43 1486.25 861.162 1485.88 Q858.917 1485.51 856.509 1484.77 L856.509 1480.07 Q858.593 1481.2 860.815 1481.76 Q863.037 1482.32 865.514 1482.32 Q869.518 1482.32 871.856 1480.21 Q874.194 1478.1 874.194 1474.49 Q874.194 1470.88 871.856 1468.77 Q869.518 1466.67 865.514 1466.67 Q863.639 1466.67 861.764 1467.08 Q859.912 1467.5 857.968 1468.38 L857.968 1451.02 Z" fill="#000000" fill-rule="nonzero" fill-opacity="1" /><path clip-path="url(#clip500)" d="M1283.77 1454.1 Q1280.16 1454.1 1278.33 1457.66 Q1276.52 1461.2 1276.52 1468.33 Q1276.52 1475.44 1278.33 1479.01 Q1280.16 1482.55 1283.77 1482.55 Q1287.4 1482.55 1289.21 1479.01 Q1291.04 1475.44 1291.04 1468.33 Q1291.04 1461.2 1289.21 1457.66 Q1287.4 1454.1 1283.77 1454.1 M1283.77 1450.39 Q1289.58 1450.39 1292.63 1455 Q1295.71 1459.58 1295.71 1468.33 Q1295.71 1477.06 1292.63 1481.67 Q1289.58 1486.25 1283.77 1486.25 Q1277.96 1486.25 1274.88 1481.67 Q1271.82 1477.06 1271.82 1468.33 Q1271.82 1459.58 1274.88 1455 Q1277.96 1450.39 1283.77 1450.39 Z" fill="#000000" fill-rule="nonzero" fill-opacity="1" /><path clip-path="url(#clip500)" d="M1303.93 1479.7 L1308.81 1479.7 L1308.81 1485.58 L1303.93 1485.58 L1303.93 1479.7 Z" fill="#000000" fill-rule="nonzero" fill-opacity="1" /><path clip-path="url(#clip500)" d="M1329 1454.1 Q1325.39 1454.1 1323.56 1457.66 Q1321.75 1461.2 1321.75 1468.33 Q1321.75 1475.44 1323.56 1479.01 Q1325.39 1482.55 1329 1482.55 Q1332.63 1482.55 1334.44 1479.01 Q1336.27 1475.44 1336.27 1468.33 Q1336.27 1461.2 1334.44 1457.66 Q1332.63 1454.1 1329 1454.1 M1329 1450.39 Q1334.81 1450.39 1337.86 1455 Q1340.94 1459.58 1340.94 1468.33 Q1340.94 1477.06 1337.86 1481.67 Q1334.81 1486.25 1329 1486.25 Q1323.19 1486.25 1320.11 1481.67 Q1317.05 1477.06 1317.05 1468.33 Q1317.05 1459.58 1320.11 1455 Q1323.19 1450.39 1329 1450.39 Z" fill="#000000" fill-rule="nonzero" fill-opacity="1" /><path clip-path="url(#clip500)" d="M1764.75 1454.1 Q1761.14 1454.1 1759.31 1457.66 Q1757.51 1461.2 1757.51 1468.33 Q1757.51 1475.44 1759.31 1479.01 Q1761.14 1482.55 1764.75 1482.55 Q1768.39 1482.55 1770.19 1479.01 Q1772.02 1475.44 1772.02 1468.33 Q1772.02 1461.2 1770.19 1457.66 Q1768.39 1454.1 1764.75 1454.1 M1764.75 1450.39 Q1770.56 1450.39 1773.62 1455 Q1776.7 1459.58 1776.7 1468.33 Q1776.7 1477.06 1773.62 1481.67 Q1770.56 1486.25 1764.75 1486.25 Q1758.94 1486.25 1755.86 1481.67 Q1752.81 1477.06 1752.81 1468.33 Q1752.81 1459.58 1755.86 1455 Q1758.94 1450.39 1764.75 1450.39 Z" fill="#000000" fill-rule="nonzero" fill-opacity="1" /><path clip-path="url(#clip500)" d="M1784.91 1479.7 L1789.8 1479.7 L1789.8 1485.58 L1784.91 1485.58 L1784.91 1479.7 Z" fill="#000000" fill-rule="nonzero" fill-opacity="1" /><path clip-path="url(#clip500)" d="M1800.03 1451.02 L1818.39 1451.02 L1818.39 1454.96 L1804.31 1454.96 L1804.31 1463.43 Q1805.33 1463.08 1806.35 1462.92 Q1807.37 1462.73 1808.39 1462.73 Q1814.17 1462.73 1817.55 1465.9 Q1820.93 1469.08 1820.93 1474.49 Q1820.93 1480.07 1817.46 1483.17 Q1813.99 1486.25 1807.67 1486.25 Q1805.49 1486.25 1803.22 1485.88 Q1800.98 1485.51 1798.57 1484.77 L1798.57 1480.07 Q1800.66 1481.2 1802.88 1481.76 Q1805.1 1482.32 1807.58 1482.32 Q1811.58 1482.32 1813.92 1480.21 Q1816.26 1478.1 1816.26 1474.49 Q1816.26 1470.88 1813.92 1468.77 Q1811.58 1466.67 1807.58 1466.67 Q1805.7 1466.67 1803.83 1467.08 Q1801.97 1467.5 1800.03 1468.38 L1800.03 1451.02 Z" fill="#000000" fill-rule="nonzero" fill-opacity="1" /><path clip-path="url(#clip500)" d="M2234.51 1481.64 L2242.15 1481.64 L2242.15 1455.28 L2233.84 1456.95 L2233.84 1452.69 L2242.1 1451.02 L2246.78 1451.02 L2246.78 1481.64 L2254.42 1481.64 L2254.42 1485.58 L2234.51 1485.58 L2234.51 1481.64 Z" fill="#000000" fill-rule="nonzero" fill-opacity="1" /><path clip-path="url(#clip500)" d="M2263.86 1479.7 L2268.75 1479.7 L2268.75 1485.58 L2263.86 1485.58 L2263.86 1479.7 Z" fill="#000000" fill-rule="nonzero" fill-opacity="1" /><path clip-path="url(#clip500)" d="M2288.93 1454.1 Q2285.32 1454.1 2283.49 1457.66 Q2281.69 1461.2 2281.69 1468.33 Q2281.69 1475.44 2283.49 1479.01 Q2285.32 1482.55 2288.93 1482.55 Q2292.57 1482.55 2294.37 1479.01 Q2296.2 1475.44 2296.2 1468.33 Q2296.2 1461.2 2294.37 1457.66 Q2292.57 1454.1 2288.93 1454.1 M2288.93 1450.39 Q2294.74 1450.39 2297.8 1455 Q2300.88 1459.58 2300.88 1468.33 Q2300.88 1477.06 2297.8 1481.67 Q2294.74 1486.25 2288.93 1486.25 Q2283.12 1486.25 2280.04 1481.67 Q2276.99 1477.06 2276.99 1468.33 Q2276.99 1459.58 2280.04 1455 Q2283.12 1450.39 2288.93 1450.39 Z" fill="#000000" fill-rule="nonzero" fill-opacity="1" /><path clip-path="url(#clip500)" d="M1134.03 1525.81 L1134.03 1543.66 L1142.11 1543.66 Q1146.6 1543.66 1149.05 1541.34 Q1151.5 1539.02 1151.5 1534.72 Q1151.5 1530.45 1149.05 1528.13 Q1146.6 1525.81 1142.11 1525.81 L1134.03 1525.81 M1127.6 1520.52 L1142.11 1520.52 Q1150.1 1520.52 1154.18 1524.15 Q1158.28 1527.75 1158.28 1534.72 Q1158.28 1541.75 1154.18 1545.35 Q1150.1 1548.95 1142.11 1548.95 L1134.03 1548.95 L1134.03 1568.04 L1127.6 1568.04 L1127.6 1520.52 Z" fill="#000000" fill-rule="nonzero" fill-opacity="1" /><path clip-path="url(#clip500)" d="M1178.14 1536.5 Q1173.43 1536.5 1170.7 1540.19 Q1167.96 1543.85 1167.96 1550.25 Q1167.96 1556.65 1170.66 1560.34 Q1173.4 1564 1178.14 1564 Q1182.82 1564 1185.56 1560.31 Q1188.3 1556.62 1188.3 1550.25 Q1188.3 1543.92 1185.56 1540.23 Q1182.82 1536.5 1178.14 1536.5 M1178.14 1531.54 Q1185.78 1531.54 1190.14 1536.5 Q1194.5 1541.47 1194.5 1550.25 Q1194.5 1559 1190.14 1564 Q1185.78 1568.97 1178.14 1568.97 Q1170.47 1568.97 1166.11 1564 Q1161.78 1559 1161.78 1550.25 Q1161.78 1541.47 1166.11 1536.5 Q1170.47 1531.54 1178.14 1531.54 Z" fill="#000000" fill-rule="nonzero" fill-opacity="1" /><path clip-path="url(#clip500)" d="M1226.94 1533.45 L1226.94 1538.98 Q1224.45 1537.71 1221.78 1537.07 Q1219.11 1536.44 1216.24 1536.44 Q1211.88 1536.44 1209.69 1537.77 Q1207.52 1539.11 1207.52 1541.79 Q1207.52 1543.82 1209.08 1545 Q1210.64 1546.15 1215.35 1547.2 L1217.36 1547.64 Q1223.59 1548.98 1226.2 1551.43 Q1228.85 1553.85 1228.85 1558.21 Q1228.85 1563.17 1224.9 1566.07 Q1220.98 1568.97 1214.11 1568.97 Q1211.24 1568.97 1208.13 1568.39 Q1205.04 1567.85 1201.6 1566.74 L1201.6 1560.69 Q1204.85 1562.38 1208 1563.24 Q1211.15 1564.07 1214.24 1564.07 Q1218.37 1564.07 1220.6 1562.66 Q1222.83 1561.23 1222.83 1558.65 Q1222.83 1556.27 1221.21 1554.99 Q1219.62 1553.72 1214.17 1552.54 L1212.14 1552.07 Q1206.69 1550.92 1204.27 1548.56 Q1201.86 1546.18 1201.86 1542.04 Q1201.86 1537.01 1205.42 1534.27 Q1208.99 1531.54 1215.54 1531.54 Q1218.79 1531.54 1221.65 1532.01 Q1224.52 1532.49 1226.94 1533.45 Z" fill="#000000" fill-rule="nonzero" fill-opacity="1" /><path clip-path="url(#clip500)" d="M1238.17 1532.4 L1244.03 1532.4 L1244.03 1568.04 L1238.17 1568.04 L1238.17 1532.4 M1238.17 1518.52 L1244.03 1518.52 L1244.03 1525.93 L1238.17 1525.93 L1238.17 1518.52 Z" fill="#000000" fill-rule="nonzero" fill-opacity="1" /><path clip-path="url(#clip500)" d="M1262.08 1522.27 L1262.08 1532.4 L1274.14 1532.4 L1274.14 1536.95 L1262.08 1536.95 L1262.08 1556.3 Q1262.08 1560.66 1263.25 1561.9 Q1264.46 1563.14 1268.12 1563.14 L1274.14 1563.14 L1274.14 1568.04 L1268.12 1568.04 Q1261.34 1568.04 1258.76 1565.53 Q1256.19 1562.98 1256.19 1556.3 L1256.19 1536.95 L1251.89 1536.95 L1251.89 1532.4 L1256.19 1532.4 L1256.19 1522.27 L1262.08 1522.27 Z" fill="#000000" fill-rule="nonzero" fill-opacity="1" /><path clip-path="url(#clip500)" d="M1281.84 1532.4 L1287.7 1532.4 L1287.7 1568.04 L1281.84 1568.04 L1281.84 1532.4 M1281.84 1518.52 L1287.7 1518.52 L1287.7 1525.93 L1281.84 1525.93 L1281.84 1518.52 Z" fill="#000000" fill-rule="nonzero" fill-opacity="1" /><path clip-path="url(#clip500)" d="M1313.76 1536.5 Q1309.05 1536.5 1306.32 1540.19 Q1303.58 1543.85 1303.58 1550.25 Q1303.58 1556.65 1306.28 1560.34 Q1309.02 1564 1313.76 1564 Q1318.44 1564 1321.18 1560.31 Q1323.92 1556.62 1323.92 1550.25 Q1323.92 1543.92 1321.18 1540.23 Q1318.44 1536.5 1313.76 1536.5 M1313.76 1531.54 Q1321.4 1531.54 1325.76 1536.5 Q1330.12 1541.47 1330.12 1550.25 Q1330.12 1559 1325.76 1564 Q1321.4 1568.97 1313.76 1568.97 Q1306.09 1568.97 1301.73 1564 Q1297.4 1559 1297.4 1550.25 Q1297.4 1541.47 1301.73 1536.5 Q1306.09 1531.54 1313.76 1531.54 Z" fill="#000000" fill-rule="nonzero" fill-opacity="1" /><path clip-path="url(#clip500)" d="M1369.46 1546.53 L1369.46 1568.04 L1363.61 1568.04 L1363.61 1546.72 Q1363.61 1541.66 1361.63 1539.14 Q1359.66 1536.63 1355.71 1536.63 Q1350.97 1536.63 1348.23 1539.65 Q1345.5 1542.68 1345.5 1547.9 L1345.5 1568.04 L1339.61 1568.04 L1339.61 1532.4 L1345.5 1532.4 L1345.5 1537.93 Q1347.6 1534.72 1350.43 1533.13 Q1353.3 1531.54 1357.02 1531.54 Q1363.16 1531.54 1366.31 1535.36 Q1369.46 1539.14 1369.46 1546.53 Z" fill="#000000" fill-rule="nonzero" fill-opacity="1" /><path clip-path="url(#clip500)" d="M1415.93 1518.58 Q1411.67 1525.9 1409.6 1533.06 Q1407.53 1540.23 1407.53 1547.58 Q1407.53 1554.93 1409.6 1562.16 Q1411.7 1569.35 1415.93 1576.64 L1410.84 1576.64 Q1406.07 1569.16 1403.68 1561.93 Q1401.32 1554.71 1401.32 1547.58 Q1401.32 1540.48 1403.68 1533.29 Q1406.04 1526.09 1410.84 1518.58 L1415.93 1518.58 Z" fill="#000000" fill-rule="nonzero" fill-opacity="1" /><path clip-path="url(#clip500)" d="M1430.8 1550.25 Q1430.8 1556.71 1433.44 1560.4 Q1436.11 1564.07 1440.76 1564.07 Q1445.41 1564.07 1448.08 1560.4 Q1450.75 1556.71 1450.75 1550.25 Q1450.75 1543.79 1448.08 1540.13 Q1445.41 1536.44 1440.76 1536.44 Q1436.11 1536.44 1433.44 1540.13 Q1430.8 1543.79 1430.8 1550.25 M1450.75 1562.7 Q1448.91 1565.88 1446.08 1567.44 Q1443.27 1568.97 1439.33 1568.97 Q1432.87 1568.97 1428.79 1563.81 Q1424.75 1558.65 1424.75 1550.25 Q1424.75 1541.85 1428.79 1536.69 Q1432.87 1531.54 1439.33 1531.54 Q1443.27 1531.54 1446.08 1533.1 Q1448.91 1534.62 1450.75 1537.81 L1450.75 1532.4 L1456.61 1532.4 L1456.61 1581.6 L1450.75 1581.6 L1450.75 1562.7 Z" fill="#000000" fill-rule="nonzero" fill-opacity="1" /><path clip-path="url(#clip500)" d="M1467.75 1518.58 L1472.84 1518.58 Q1477.62 1526.09 1479.97 1533.29 Q1482.36 1540.48 1482.36 1547.58 Q1482.36 1554.71 1479.97 1561.93 Q1477.62 1569.16 1472.84 1576.64 L1467.75 1576.64 Q1471.98 1569.35 1474.05 1562.16 Q1476.15 1554.93 1476.15 1547.58 Q1476.15 1540.23 1474.05 1533.06 Q1471.98 1525.9 1467.75 1518.58 Z" fill="#000000" fill-rule="nonzero" fill-opacity="1" /><polyline clip-path="url(#clip502)" style="stroke:#000000; stroke-linecap:round; stroke-linejoin:round; stroke-width:2; stroke-opacity:0.1; fill:none" points="257.204,1369.13 2352.76,1369.13 "/>
<polyline clip-path="url(#clip502)" style="stroke:#000000; stroke-linecap:round; stroke-linejoin:round; stroke-width:2; stroke-opacity:0.1; fill:none" points="257.204,1051.83 2352.76,1051.83 "/>
<polyline clip-path="url(#clip502)" style="stroke:#000000; stroke-linecap:round; stroke-linejoin:round; stroke-width:2; stroke-opacity:0.1; fill:none" points="257.204,734.537 2352.76,734.537 "/>
<polyline clip-path="url(#clip502)" style="stroke:#000000; stroke-linecap:round; stroke-linejoin:round; stroke-width:2; stroke-opacity:0.1; fill:none" points="257.204,417.242 2352.76,417.242 "/>
<polyline clip-path="url(#clip502)" style="stroke:#000000; stroke-linecap:round; stroke-linejoin:round; stroke-width:2; stroke-opacity:0.1; fill:none" points="257.204,99.9471 2352.76,99.9471 "/>
<polyline clip-path="url(#clip500)" style="stroke:#000000; stroke-linecap:round; stroke-linejoin:round; stroke-width:4; stroke-opacity:1; fill:none" points="257.204,1423.18 257.204,47.2441 "/>
<polyline clip-path="url(#clip500)" style="stroke:#000000; stroke-linecap:round; stroke-linejoin:round; stroke-width:4; stroke-opacity:1; fill:none" points="257.204,1369.13 276.102,1369.13 "/>
<polyline clip-path="url(#clip500)" style="stroke:#000000; stroke-linecap:round; stroke-linejoin:round; stroke-width:4; stroke-opacity:1; fill:none" points="257.204,1051.83 276.102,1051.83 "/>
<polyline clip-path="url(#clip500)" style="stroke:#000000; stroke-linecap:round; stroke-linejoin:round; stroke-width:4; stroke-opacity:1; fill:none" points="257.204,734.537 276.102,734.537 "/>
<polyline clip-path="url(#clip500)" style="stroke:#000000; stroke-linecap:round; stroke-linejoin:round; stroke-width:4; stroke-opacity:1; fill:none" points="257.204,417.242 276.102,417.242 "/>
<polyline clip-path="url(#clip500)" style="stroke:#000000; stroke-linecap:round; stroke-linejoin:round; stroke-width:4; stroke-opacity:1; fill:none" points="257.204,99.9471 276.102,99.9471 "/>
<path clip-path="url(#clip500)" d="M114.26 1369.58 L143.936 1369.58 L143.936 1373.51 L114.26 1373.51 L114.26 1369.58 Z" fill="#000000" fill-rule="nonzero" fill-opacity="1" /><path clip-path="url(#clip500)" d="M154.839 1382.47 L162.477 1382.47 L162.477 1356.11 L154.167 1357.77 L154.167 1353.51 L162.431 1351.85 L167.107 1351.85 L167.107 1382.47 L174.746 1382.47 L174.746 1386.41 L154.839 1386.41 L154.839 1382.47 Z" fill="#000000" fill-rule="nonzero" fill-opacity="1" /><path clip-path="url(#clip500)" d="M184.19 1380.53 L189.075 1380.53 L189.075 1386.41 L184.19 1386.41 L184.19 1380.53 Z" fill="#000000" fill-rule="nonzero" fill-opacity="1" /><path clip-path="url(#clip500)" d="M209.26 1354.93 Q205.649 1354.93 203.82 1358.49 Q202.014 1362.03 202.014 1369.16 Q202.014 1376.27 203.82 1379.83 Q205.649 1383.37 209.26 1383.37 Q212.894 1383.37 214.699 1379.83 Q216.528 1376.27 216.528 1369.16 Q216.528 1362.03 214.699 1358.49 Q212.894 1354.93 209.26 1354.93 M209.26 1351.22 Q215.07 1351.22 218.125 1355.83 Q221.204 1360.41 221.204 1369.16 Q221.204 1377.89 218.125 1382.49 Q215.07 1387.08 209.26 1387.08 Q203.449 1387.08 200.371 1382.49 Q197.315 1377.89 197.315 1369.16 Q197.315 1360.41 200.371 1355.83 Q203.449 1351.22 209.26 1351.22 Z" fill="#000000" fill-rule="nonzero" fill-opacity="1" /><path clip-path="url(#clip500)" d="M115.256 1052.28 L144.931 1052.28 L144.931 1056.22 L115.256 1056.22 L115.256 1052.28 Z" fill="#000000" fill-rule="nonzero" fill-opacity="1" /><path clip-path="url(#clip500)" d="M165.024 1037.63 Q161.413 1037.63 159.584 1041.2 Q157.778 1044.74 157.778 1051.87 Q157.778 1058.97 159.584 1062.54 Q161.413 1066.08 165.024 1066.08 Q168.658 1066.08 170.464 1062.54 Q172.292 1058.97 172.292 1051.87 Q172.292 1044.74 170.464 1041.2 Q168.658 1037.63 165.024 1037.63 M165.024 1033.93 Q170.834 1033.93 173.889 1038.53 Q176.968 1043.12 176.968 1051.87 Q176.968 1060.59 173.889 1065.2 Q170.834 1069.78 165.024 1069.78 Q159.214 1069.78 156.135 1065.2 Q153.079 1060.59 153.079 1051.87 Q153.079 1043.12 156.135 1038.53 Q159.214 1033.93 165.024 1033.93 Z" fill="#000000" fill-rule="nonzero" fill-opacity="1" /><path clip-path="url(#clip500)" d="M185.186 1063.23 L190.07 1063.23 L190.07 1069.11 L185.186 1069.11 L185.186 1063.23 Z" fill="#000000" fill-rule="nonzero" fill-opacity="1" /><path clip-path="url(#clip500)" d="M200.301 1034.55 L218.658 1034.55 L218.658 1038.49 L204.584 1038.49 L204.584 1046.96 Q205.602 1046.61 206.621 1046.45 Q207.639 1046.26 208.658 1046.26 Q214.445 1046.26 217.824 1049.44 Q221.204 1052.61 221.204 1058.02 Q221.204 1063.6 217.732 1066.7 Q214.26 1069.78 207.94 1069.78 Q205.764 1069.78 203.496 1069.41 Q201.25 1069.04 198.843 1068.3 L198.843 1063.6 Q200.926 1064.74 203.149 1065.29 Q205.371 1065.85 207.848 1065.85 Q211.852 1065.85 214.19 1063.74 Q216.528 1061.63 216.528 1058.02 Q216.528 1054.41 214.19 1052.31 Q211.852 1050.2 207.848 1050.2 Q205.973 1050.2 204.098 1050.62 Q202.246 1051.03 200.301 1051.91 L200.301 1034.55 Z" fill="#000000" fill-rule="nonzero" fill-opacity="1" /><path clip-path="url(#clip500)" d="M164.028 720.335 Q160.417 720.335 158.589 723.9 Q156.783 727.442 156.783 734.572 Q156.783 741.678 158.589 745.243 Q160.417 748.784 164.028 748.784 Q167.663 748.784 169.468 745.243 Q171.297 741.678 171.297 734.572 Q171.297 727.442 169.468 723.9 Q167.663 720.335 164.028 720.335 M164.028 716.632 Q169.839 716.632 172.894 721.238 Q175.973 725.822 175.973 734.572 Q175.973 743.298 172.894 747.905 Q169.839 752.488 164.028 752.488 Q158.218 752.488 155.14 747.905 Q152.084 743.298 152.084 734.572 Q152.084 725.822 155.14 721.238 Q158.218 716.632 164.028 716.632 Z" fill="#000000" fill-rule="nonzero" fill-opacity="1" /><path clip-path="url(#clip500)" d="M184.19 745.937 L189.075 745.937 L189.075 751.817 L184.19 751.817 L184.19 745.937 Z" fill="#000000" fill-rule="nonzero" fill-opacity="1" /><path clip-path="url(#clip500)" d="M209.26 720.335 Q205.649 720.335 203.82 723.9 Q202.014 727.442 202.014 734.572 Q202.014 741.678 203.82 745.243 Q205.649 748.784 209.26 748.784 Q212.894 748.784 214.699 745.243 Q216.528 741.678 216.528 734.572 Q216.528 727.442 214.699 723.9 Q212.894 720.335 209.26 720.335 M209.26 716.632 Q215.07 716.632 218.125 721.238 Q221.204 725.822 221.204 734.572 Q221.204 743.298 218.125 747.905 Q215.07 752.488 209.26 752.488 Q203.449 752.488 200.371 747.905 Q197.315 743.298 197.315 734.572 Q197.315 725.822 200.371 721.238 Q203.449 716.632 209.26 716.632 Z" fill="#000000" fill-rule="nonzero" fill-opacity="1" /><path clip-path="url(#clip500)" d="M165.024 403.041 Q161.413 403.041 159.584 406.605 Q157.778 410.147 157.778 417.277 Q157.778 424.383 159.584 427.948 Q161.413 431.49 165.024 431.49 Q168.658 431.49 170.464 427.948 Q172.292 424.383 172.292 417.277 Q172.292 410.147 170.464 406.605 Q168.658 403.041 165.024 403.041 M165.024 399.337 Q170.834 399.337 173.889 403.943 Q176.968 408.527 176.968 417.277 Q176.968 426.003 173.889 430.61 Q170.834 435.193 165.024 435.193 Q159.214 435.193 156.135 430.61 Q153.079 426.003 153.079 417.277 Q153.079 408.527 156.135 403.943 Q159.214 399.337 165.024 399.337 Z" fill="#000000" fill-rule="nonzero" fill-opacity="1" /><path clip-path="url(#clip500)" d="M185.186 428.642 L190.07 428.642 L190.07 434.522 L185.186 434.522 L185.186 428.642 Z" fill="#000000" fill-rule="nonzero" fill-opacity="1" /><path clip-path="url(#clip500)" d="M200.301 399.962 L218.658 399.962 L218.658 403.897 L204.584 403.897 L204.584 412.369 Q205.602 412.022 206.621 411.86 Q207.639 411.675 208.658 411.675 Q214.445 411.675 217.824 414.846 Q221.204 418.017 221.204 423.434 Q221.204 429.013 217.732 432.115 Q214.26 435.193 207.94 435.193 Q205.764 435.193 203.496 434.823 Q201.25 434.453 198.843 433.712 L198.843 429.013 Q200.926 430.147 203.149 430.703 Q205.371 431.258 207.848 431.258 Q211.852 431.258 214.19 429.152 Q216.528 427.045 216.528 423.434 Q216.528 419.823 214.19 417.717 Q211.852 415.61 207.848 415.61 Q205.973 415.61 204.098 416.027 Q202.246 416.443 200.301 417.323 L200.301 399.962 Z" fill="#000000" fill-rule="nonzero" fill-opacity="1" /><path clip-path="url(#clip500)" d="M154.839 113.292 L162.477 113.292 L162.477 86.9264 L154.167 88.593 L154.167 84.3338 L162.431 82.6671 L167.107 82.6671 L167.107 113.292 L174.746 113.292 L174.746 117.227 L154.839 117.227 L154.839 113.292 Z" fill="#000000" fill-rule="nonzero" fill-opacity="1" /><path clip-path="url(#clip500)" d="M184.19 111.348 L189.075 111.348 L189.075 117.227 L184.19 117.227 L184.19 111.348 Z" fill="#000000" fill-rule="nonzero" fill-opacity="1" /><path clip-path="url(#clip500)" d="M209.26 85.7458 Q205.649 85.7458 203.82 89.3106 Q202.014 92.8523 202.014 99.9819 Q202.014 107.088 203.82 110.653 Q205.649 114.195 209.26 114.195 Q212.894 114.195 214.699 110.653 Q216.528 107.088 216.528 99.9819 Q216.528 92.8523 214.699 89.3106 Q212.894 85.7458 209.26 85.7458 M209.26 82.0421 Q215.07 82.0421 218.125 86.6486 Q221.204 91.2319 221.204 99.9819 Q221.204 108.709 218.125 113.315 Q215.07 117.898 209.26 117.898 Q203.449 117.898 200.371 113.315 Q197.315 108.709 197.315 99.9819 Q197.315 91.2319 200.371 86.6486 Q203.449 82.0421 209.26 82.0421 Z" fill="#000000" fill-rule="nonzero" fill-opacity="1" /><path clip-path="url(#clip500)" d="M16.4842 971.396 L16.4842 961.815 L48.8219 949.689 L16.4842 937.498 L16.4842 927.918 L64.0042 927.918 L64.0042 934.188 L22.277 934.188 L54.8694 946.442 L54.8694 952.903 L22.277 965.157 L64.0042 965.157 L64.0042 971.396 L16.4842 971.396 Z" fill="#000000" fill-rule="nonzero" fill-opacity="1" /><path clip-path="url(#clip500)" d="M32.4621 901.596 Q32.4621 906.306 36.1542 909.044 Q39.8145 911.781 46.212 911.781 Q52.6095 911.781 56.3017 909.075 Q59.9619 906.338 59.9619 901.596 Q59.9619 896.917 56.2698 894.18 Q52.5777 891.442 46.212 891.442 Q39.8781 891.442 36.186 894.18 Q32.4621 896.917 32.4621 901.596 M27.4968 901.596 Q27.4968 893.957 32.4621 889.596 Q37.4273 885.236 46.212 885.236 Q54.9649 885.236 59.9619 889.596 Q64.9272 893.957 64.9272 901.596 Q64.9272 909.266 59.9619 913.627 Q54.9649 917.955 46.212 917.955 Q37.4273 917.955 32.4621 913.627 Q27.4968 909.266 27.4968 901.596 Z" fill="#000000" fill-rule="nonzero" fill-opacity="1" /><path clip-path="url(#clip500)" d="M35.1993 847.774 Q31.2526 845.577 29.3747 842.522 Q27.4968 839.466 27.4968 835.329 Q27.4968 829.759 31.4117 826.735 Q35.2948 823.711 42.4881 823.711 L64.0042 823.711 L64.0042 829.599 L42.679 829.599 Q37.5546 829.599 35.072 831.414 Q32.5894 833.228 32.5894 836.952 Q32.5894 841.503 35.6131 844.145 Q38.6368 846.787 43.8567 846.787 L64.0042 846.787 L64.0042 852.675 L42.679 852.675 Q37.5228 852.675 35.072 854.489 Q32.5894 856.304 32.5894 860.091 Q32.5894 864.579 35.6449 867.221 Q38.6686 869.863 43.8567 869.863 L64.0042 869.863 L64.0042 875.751 L28.3562 875.751 L28.3562 869.863 L33.8944 869.863 Q30.616 867.857 29.0564 865.056 Q27.4968 862.256 27.4968 858.404 Q27.4968 854.521 29.4702 851.816 Q31.4436 849.079 35.1993 847.774 Z" fill="#000000" fill-rule="nonzero" fill-opacity="1" /><path clip-path="url(#clip500)" d="M44.7161 781.538 L47.5806 781.538 L47.5806 808.465 Q53.6281 808.083 56.8109 804.837 Q59.9619 801.559 59.9619 795.734 Q59.9619 792.36 59.1344 789.209 Q58.3069 786.026 56.6518 782.907 L62.1899 782.907 Q63.5267 786.058 64.227 789.368 Q64.9272 792.678 64.9272 796.084 Q64.9272 804.614 59.9619 809.611 Q54.9967 814.576 46.5303 814.576 Q37.7774 814.576 32.6531 809.866 Q27.4968 805.123 27.4968 797.103 Q27.4968 789.909 32.1438 785.74 Q36.7589 781.538 44.7161 781.538 M42.9973 787.395 Q38.1912 787.459 35.3266 790.1 Q32.4621 792.71 32.4621 797.039 Q32.4621 801.94 35.2312 804.901 Q38.0002 807.829 43.0292 808.274 L42.9973 787.395 Z" fill="#000000" fill-rule="nonzero" fill-opacity="1" /><path clip-path="url(#clip500)" d="M42.4881 742.294 L64.0042 742.294 L64.0042 748.15 L42.679 748.15 Q37.6183 748.15 35.1038 750.124 Q32.5894 752.097 32.5894 756.044 Q32.5894 760.786 35.6131 763.523 Q38.6368 766.261 43.8567 766.261 L64.0042 766.261 L64.0042 772.149 L28.3562 772.149 L28.3562 766.261 L33.8944 766.261 Q30.6797 764.16 29.0883 761.327 Q27.4968 758.463 27.4968 754.739 Q27.4968 748.596 31.3163 745.445 Q35.1038 742.294 42.4881 742.294 Z" fill="#000000" fill-rule="nonzero" fill-opacity="1" /><path clip-path="url(#clip500)" d="M18.2347 724.82 L28.3562 724.82 L28.3562 712.757 L32.9077 712.757 L32.9077 724.82 L52.2594 724.82 Q56.6199 724.82 57.8613 723.642 Q59.1026 722.433 59.1026 718.773 L59.1026 712.757 L64.0042 712.757 L64.0042 718.773 Q64.0042 725.552 61.4897 728.13 Q58.9434 730.708 52.2594 730.708 L32.9077 730.708 L32.9077 735.005 L28.3562 735.005 L28.3562 730.708 L18.2347 730.708 L18.2347 724.82 Z" fill="#000000" fill-rule="nonzero" fill-opacity="1" /><path clip-path="url(#clip500)" d="M49.9359 705.659 L28.3562 705.659 L28.3562 699.803 L49.7131 699.803 Q54.7739 699.803 57.3202 697.829 Q59.8346 695.856 59.8346 691.909 Q59.8346 687.167 56.8109 684.43 Q53.7872 681.66 48.5673 681.66 L28.3562 681.66 L28.3562 675.804 L64.0042 675.804 L64.0042 681.66 L58.5296 681.66 Q61.7762 683.793 63.3676 686.626 Q64.9272 689.427 64.9272 693.151 Q64.9272 699.293 61.1078 702.476 Q57.2883 705.659 49.9359 705.659 M27.4968 690.923 L27.4968 690.923 Z" fill="#000000" fill-rule="nonzero" fill-opacity="1" /><path clip-path="url(#clip500)" d="M35.1993 635.987 Q31.2526 633.79 29.3747 630.735 Q27.4968 627.679 27.4968 623.542 Q27.4968 617.972 31.4117 614.948 Q35.2948 611.924 42.4881 611.924 L64.0042 611.924 L64.0042 617.812 L42.679 617.812 Q37.5546 617.812 35.072 619.627 Q32.5894 621.441 32.5894 625.165 Q32.5894 629.716 35.6131 632.358 Q38.6368 635 43.8567 635 L64.0042 635 L64.0042 640.888 L42.679 640.888 Q37.5228 640.888 35.072 642.702 Q32.5894 644.517 32.5894 648.304 Q32.5894 652.792 35.6449 655.434 Q38.6686 658.076 43.8567 658.076 L64.0042 658.076 L64.0042 663.964 L28.3562 663.964 L28.3562 658.076 L33.8944 658.076 Q30.616 656.07 29.0564 653.269 Q27.4968 650.468 27.4968 646.617 Q27.4968 642.734 29.4702 640.029 Q31.4436 637.291 35.1993 635.987 Z" fill="#000000" fill-rule="nonzero" fill-opacity="1" /><path clip-path="url(#clip500)" d="M14.5426 565.454 Q21.8632 569.72 29.0246 571.788 Q36.186 573.857 43.5384 573.857 Q50.8908 573.857 58.1159 571.788 Q65.3091 569.688 72.5979 565.454 L72.5979 570.547 Q65.1182 575.321 57.8931 577.708 Q50.668 580.064 43.5384 580.064 Q36.4406 580.064 29.2474 577.708 Q22.0542 575.353 14.5426 570.547 L14.5426 565.454 Z" fill="#000000" fill-rule="nonzero" fill-opacity="1" /><path clip-path="url(#clip500)" d="M58.657 548.426 L77.5631 548.426 L77.5631 554.315 L28.3562 554.315 L28.3562 548.426 L33.7671 548.426 Q30.5842 546.58 29.0564 543.779 Q27.4968 540.947 27.4968 537.032 Q27.4968 530.539 32.6531 526.496 Q37.8093 522.422 46.212 522.422 Q54.6147 522.422 59.771 526.496 Q64.9272 530.539 64.9272 537.032 Q64.9272 540.947 63.3994 543.779 Q61.8398 546.58 58.657 548.426 M46.212 528.502 Q39.7508 528.502 36.0905 531.175 Q32.3984 533.817 32.3984 538.464 Q32.3984 543.111 36.0905 545.784 Q39.7508 548.426 46.212 548.426 Q52.6732 548.426 56.3653 545.784 Q60.0256 543.111 60.0256 538.464 Q60.0256 533.817 56.3653 531.175 Q52.6732 528.502 46.212 528.502 Z" fill="#000000" fill-rule="nonzero" fill-opacity="1" /><path clip-path="url(#clip500)" d="M14.5426 513.638 L14.5426 508.545 Q22.0542 503.771 29.2474 501.415 Q36.4406 499.028 43.5384 499.028 Q50.668 499.028 57.8931 501.415 Q65.1182 503.771 72.5979 508.545 L72.5979 513.638 Q65.3091 509.404 58.1159 507.336 Q50.8908 505.235 43.5384 505.235 Q36.186 505.235 29.0246 507.336 Q21.8632 509.404 14.5426 513.638 Z" fill="#000000" fill-rule="nonzero" fill-opacity="1" /><polyline clip-path="url(#clip502)" style="stroke:#009af9; stroke-linecap:round; stroke-linejoin:round; stroke-width:16; stroke-opacity:1; fill:none" points="1306.38,99.9471 1312.29,99.9591 1318.19,99.995 1324.09,100.055 1329.99,100.139 1335.89,100.246 1341.79,100.378 1347.69,100.534 1353.58,100.713 1359.48,100.916 1365.37,101.144 1371.26,101.395 1377.15,101.67 1383.03,101.969 1388.91,102.292 1394.79,102.638 1400.67,103.009 1406.54,103.403 1412.41,103.821 1418.27,104.263 1424.13,104.729 1429.99,105.218 1435.84,105.732 1441.68,106.268 1447.52,106.829 1453.36,107.413 1459.19,108.021 1465.01,108.653 1470.83,109.308 1476.64,109.987 1482.45,110.689 1488.25,111.415 1494.04,112.164 1499.83,112.937 1505.6,113.734 1511.37,114.553 1517.14,115.396 1522.89,116.263 1528.64,117.153 1534.38,118.066 1540.1,119.002 1545.83,119.962 1551.54,120.944 1557.24,121.95 1562.93,122.979 1568.62,124.031 1574.29,125.106 1579.95,126.204 1585.6,127.325 1591.25,128.469 1596.88,129.636 1602.5,130.826 1608.11,132.038 1613.71,133.273 1619.29,134.531 1624.87,135.811 1630.43,137.114 1635.98,138.44 1641.52,139.788 1647.04,141.159 1652.56,142.551 1658.06,143.967 1663.54,145.404 1669.01,146.864 1674.47,148.346 1679.92,149.85 1685.35,151.376 1690.77,152.924 1696.17,154.494 1701.56,156.086 1706.93,157.699 1712.29,159.335 1717.63,160.992 1722.95,162.671 1728.27,164.371 1733.56,166.093 1738.84,167.836 1744.1,169.601 1749.35,171.387 1754.58,173.194 1759.79,175.022 1764.99,176.872 1770.16,178.742 1775.32,180.634 1780.47,182.546 1785.59,184.479 1790.7,186.433 1795.79,188.408 1800.86,190.403 1805.91,192.419 1810.94,194.455 1815.96,196.512 1820.95,198.589 1825.93,200.686 1830.88,202.803 1835.82,204.941 1840.73,207.098 1845.63,209.275 1850.5,211.472 1855.36,213.689 1860.19,215.925 1865,218.181 1869.8,220.457 1874.57,222.751 1879.32,225.066 1884.04,227.399 1888.75,229.751 1893.43,232.123 1898.1,234.513 1902.74,236.923 1907.35,239.351 1911.95,241.798 1916.52,244.263 1921.07,246.747 1925.59,249.249 1930.09,251.77 1934.57,254.308 1939.03,256.865 1943.46,259.44 1947.86,262.033 1952.25,264.644 1956.61,267.272 1960.94,269.918 1965.25,272.582 1969.53,275.263 1973.79,277.961 1978.02,280.676 1982.23,283.409 1986.42,286.159 1990.57,288.925 1994.71,291.709 1998.81,294.509 2002.89,297.326 2006.94,300.159 2010.97,303.008 2014.97,305.874 2018.94,308.756 2022.89,311.654 2026.81,314.568 2030.7,317.498 2034.57,320.444 2038.41,323.405 2042.22,326.382 2046,329.374 2049.75,332.381 2053.48,335.404 2057.18,338.441 2060.85,341.494 2064.49,344.561 2068.1,347.644 2071.69,350.74 2075.24,353.851 2078.77,356.977 2082.26,360.117 2085.73,363.271 2089.17,366.439 2092.58,369.621 2095.96,372.816 2099.31,376.025 2102.63,379.248 2105.92,382.484 2109.18,385.734 2112.4,388.996 2115.6,392.272 2118.77,395.56 2121.91,398.862 2125.02,402.176 2128.09,405.502 2131.14,408.841 2134.15,412.192 2137.13,415.556 2140.08,418.931 2143,422.318 2145.89,425.718 2148.75,429.128 2151.57,432.551 2154.37,435.984 2157.13,439.429 2159.85,442.885 2162.55,446.352 2165.22,449.83 2167.85,453.319 2170.45,456.818 2173.01,460.328 2175.55,463.848 2178.05,467.378 2180.52,470.919 2182.95,474.469 2185.35,478.029 2187.72,481.599 2190.06,485.178 2192.36,488.767 2194.63,492.365 2196.87,495.972 2199.07,499.589 2201.24,503.214 2203.37,506.847 2205.47,510.49 2207.54,514.141 2209.57,517.8 2211.57,521.467 2213.54,525.142 2215.47,528.825 2217.36,532.516 2219.22,536.215 2221.05,539.921 2222.84,543.635 2224.6,547.355 2226.33,551.083 2228.02,554.818 2229.67,558.559 2231.29,562.307 2232.87,566.061 2234.42,569.822 2235.94,573.589 2237.42,577.363 2238.86,581.142 2240.27,584.927 2241.64,588.717 2242.98,592.513 2244.29,596.315 2245.55,600.121 2246.79,603.933 2247.98,607.749 2249.14,611.571 2250.27,615.397 2251.36,619.227 2252.42,623.062 2253.43,626.901 2254.42,630.744 2255.36,634.592 2256.28,638.442 2257.15,642.297 2257.99,646.155 2258.8,650.016 2259.56,653.88 2260.3,657.748 2260.99,661.618 2261.65,665.491 2262.28,669.367 2262.87,673.245 2263.42,677.126 2263.93,681.009 2264.41,684.893 2264.86,688.78 2265.26,692.668 2265.64,696.558 2265.97,700.449 2266.27,704.342 2266.53,708.236 2266.76,712.13 2266.95,716.026 2267.1,719.922 2267.22,723.819 2267.3,727.716 2267.35,731.614 2267.36,735.511 2267.33,739.409 2267.27,743.306 2267.17,747.203 2267.03,751.1 2266.86,754.996 2266.65,758.891 2266.41,762.785 2266.12,766.678 2265.81,770.57 2265.45,774.461 2265.06,778.35 2264.64,782.237 2264.18,786.123 2263.68,790.007 2263.15,793.888 2262.58,797.768 2261.97,801.645 2261.33,805.519 2260.65,809.391 2259.94,813.26 2259.18,817.126 2258.4,820.989 2257.58,824.848 2256.72,828.705 2255.82,832.557 2254.9,836.406 2253.93,840.251 2252.93,844.092 2251.89,847.929 2250.82,851.762 2249.71,855.59 2248.57,859.414 2247.39,863.233 2246.17,867.047 2244.92,870.856 2243.64,874.66 2242.32,878.459 2240.96,882.252 2239.57,886.04 2238.14,889.822 2236.68,893.598 2235.18,897.369 2233.65,901.133 2232.09,904.89 2230.48,908.642 2228.85,912.386 2227.17,916.124 2225.47,919.855 2223.73,923.58 2221.95,927.297 2220.14,931.006 2218.3,934.709 2216.42,938.404 2214.51,942.091 2212.56,945.77 2210.58,949.441 2208.56,953.105 2206.51,956.76 2204.43,960.406 2202.31,964.044 2200.16,967.674 2197.97,971.294 2195.75,974.906 2193.5,978.509 2191.21,982.102 2188.9,985.686 2186.54,989.261 2184.16,992.826 2181.74,996.381 2179.29,999.926 2176.8,1003.46 2174.28,1006.99 2171.73,1010.5 2169.15,1014.01 2166.54,1017.5 2163.89,1020.98 2161.21,1024.46 2158.49,1027.92 2155.75,1031.37 2152.97,1034.81 2150.16,1038.24 2147.32,1041.65 2144.45,1045.06 2141.55,1048.45 2138.61,1051.83 2135.65,1055.2 2132.65,1058.56 2129.62,1061.9 2126.56,1065.24 2123.47,1068.56 2120.34,1071.86 2117.19,1075.16 2114.01,1078.44 2110.79,1081.71 2107.55,1084.97 2104.28,1088.21 2100.97,1091.44 2097.64,1094.65 2094.27,1097.86 2090.88,1101.05 2087.45,1104.22 2084,1107.38 2080.52,1110.53 2077.01,1113.66 2073.47,1116.78 2069.9,1119.88 2066.3,1122.97 2062.67,1126.05 2059.02,1129.11 2055.33,1132.15 2051.62,1135.18 2047.88,1138.2 2044.11,1141.2 2040.31,1144.18 2036.49,1147.15 2032.64,1150.1 2028.76,1153.04 2024.85,1155.96 2020.92,1158.87 2016.96,1161.76 2012.97,1164.63 2008.96,1167.49 2004.92,1170.33 2000.85,1173.16 1996.76,1175.97 1992.64,1178.76 1988.5,1181.53 1984.33,1184.29 1980.13,1187.03 1975.91,1189.76 1971.66,1192.46 1967.39,1195.15 1963.1,1197.83 1958.77,1200.48 1954.43,1203.12 1950.06,1205.74 1945.66,1208.34 1941.24,1210.92 1936.8,1213.49 1932.34,1216.04 1927.85,1218.57 1923.33,1221.08 1918.8,1223.57 1914.24,1226.05 1909.65,1228.5 1905.05,1230.94 1900.42,1233.36 1895.77,1235.76 1891.09,1238.14 1886.4,1240.5 1881.68,1242.84 1876.94,1245.17 1872.18,1247.47 1867.4,1249.76 1862.6,1252.02 1857.78,1254.27 1852.93,1256.5 1848.07,1258.7 1843.18,1260.89 1838.28,1263.06 1833.35,1265.2 1828.41,1267.33 1823.44,1269.44 1818.46,1271.53 1813.45,1273.59 1808.43,1275.64 1803.39,1277.66 1798.33,1279.67 1793.25,1281.66 1788.15,1283.62 1783.03,1285.56 1777.9,1287.49 1772.75,1289.39 1767.58,1291.27 1762.39,1293.13 1757.19,1294.97 1751.97,1296.79 1746.73,1298.58 1741.47,1300.36 1736.2,1302.11 1730.92,1303.84 1725.61,1305.56 1720.29,1307.25 1714.96,1308.91 1709.61,1310.56 1704.24,1312.18 1698.86,1313.79 1693.47,1315.37 1688.06,1316.93 1682.64,1318.46 1677.2,1319.98 1671.75,1321.47 1666.28,1322.94 1660.8,1324.39 1655.31,1325.82 1649.8,1327.22 1644.28,1328.6 1638.75,1329.96 1633.21,1331.3 1627.65,1332.61 1622.08,1333.91 1616.5,1335.17 1610.91,1336.42 1605.3,1337.64 1599.69,1338.85 1594.06,1340.02 1588.43,1341.18 1582.78,1342.31 1577.12,1343.42 1571.45,1344.51 1565.77,1345.57 1560.09,1346.61 1554.39,1347.63 1548.68,1348.62 1542.97,1349.59 1537.24,1350.54 1531.51,1351.47 1525.77,1352.37 1520.01,1353.25 1514.26,1354.1 1508.49,1354.93 1502.72,1355.74 1496.93,1356.53 1491.15,1357.29 1485.35,1358.02 1479.55,1358.74 1473.74,1359.43 1467.92,1360.1 1462.1,1360.74 1456.28,1361.36 1450.44,1361.96 1444.6,1362.53 1438.76,1363.08 1432.91,1363.6 1427.06,1364.1 1421.2,1364.58 1415.34,1365.03 1409.47,1365.46 1403.6,1365.87 1397.73,1366.25 1391.85,1366.61 1385.97,1366.95 1380.09,1367.26 1374.2,1367.54 1368.31,1367.81 1362.42,1368.05 1356.53,1368.26 1350.63,1368.45 1344.74,1368.62 1338.84,1368.76 1332.94,1368.88 1327.04,1368.98 1321.14,1369.05 1315.24,1369.1 1309.33,1369.12 1303.43,1369.12 1297.53,1369.1 1291.63,1369.05 1285.73,1368.98 1279.83,1368.88 1273.93,1368.76 1268.03,1368.62 1262.13,1368.45 1256.24,1368.26 1250.34,1368.05 1244.45,1367.81 1238.56,1367.54 1232.68,1367.26 1226.79,1366.95 1220.91,1366.61 1215.04,1366.25 1209.16,1365.87 1203.29,1365.46 1197.43,1365.03 1191.56,1364.58 1185.71,1364.1 1179.85,1363.6 1174.01,1363.08 1168.16,1362.53 1162.32,1361.96 1156.49,1361.36 1150.66,1360.74 1144.84,1360.1 1139.03,1359.43 1133.22,1358.74 1127.42,1358.02 1121.62,1357.29 1115.83,1356.53 1110.05,1355.74 1104.28,1354.93 1098.51,1354.1 1092.75,1353.25 1087,1352.37 1081.26,1351.47 1075.53,1350.54 1069.8,1349.59 1064.08,1348.62 1058.38,1347.63 1052.68,1346.61 1046.99,1345.57 1041.31,1344.51 1035.65,1343.42 1029.99,1342.31 1024.34,1341.18 1018.7,1340.02 1013.08,1338.85 1007.46,1337.64 1001.86,1336.42 996.266,1335.17 990.685,1333.91 985.117,1332.61 979.56,1331.3 974.016,1329.96 968.484,1328.6 962.965,1327.22 957.459,1325.82 951.966,1324.39 946.487,1322.94 941.021,1321.47 935.569,1319.98 930.131,1318.46 924.707,1316.93 919.298,1315.37 913.903,1313.79 908.523,1312.18 903.158,1310.56 897.808,1308.91 892.473,1307.25 887.154,1305.56 881.851,1303.84 876.564,1302.11 871.293,1300.36 866.039,1298.58 860.801,1296.79 855.58,1294.97 850.376,1293.13 845.19,1291.27 840.02,1289.39 834.868,1287.49 829.734,1285.56 824.618,1283.62 819.521,1281.66 814.441,1279.67 809.38,1277.66 804.338,1275.64 799.315,1273.59 794.311,1271.53 789.326,1269.44 784.361,1267.33 779.415,1265.2 774.49,1263.06 769.584,1260.89 764.699,1258.7 759.834,1256.5 754.989,1254.27 750.166,1252.02 745.363,1249.76 740.582,1247.47 735.822,1245.17 731.083,1242.84 726.367,1240.5 721.671,1238.14 716.999,1235.76 712.348,1233.36 707.72,1230.94 703.114,1228.5 698.531,1226.05 693.971,1223.57 689.434,1221.08 684.921,1218.57 680.431,1216.04 675.964,1213.49 671.522,1210.92 667.103,1208.34 662.708,1205.74 658.338,1203.12 653.992,1200.48 649.67,1197.83 645.374,1195.15 641.102,1192.46 636.855,1189.76 632.634,1187.03 628.438,1184.29 624.268,1181.53 620.123,1178.76 616.005,1175.97 611.912,1173.16 607.846,1170.33 603.806,1167.49 599.792,1164.63 595.805,1161.76 591.845,1158.87 587.912,1155.96 584.006,1153.04 580.127,1150.1 576.275,1147.15 572.452,1144.18 568.655,1141.2 564.887,1138.2 561.147,1135.18 557.435,1132.15 553.75,1129.11 550.095,1126.05 546.468,1122.97 542.869,1119.88 539.3,1116.78 535.759,1113.66 532.247,1110.53 528.765,1107.38 525.312,1104.22 521.888,1101.05 518.494,1097.86 515.13,1094.65 511.796,1091.44 508.491,1088.21 505.216,1084.97 501.972,1081.71 498.758,1078.44 495.575,1075.16 492.422,1071.86 489.3,1068.56 486.209,1065.24 483.149,1061.9 480.12,1058.56 477.122,1055.2 474.155,1051.83 471.219,1048.45 468.315,1045.06 465.443,1041.65 462.603,1038.24 459.794,1034.81 457.017,1031.37 454.272,1027.92 451.56,1024.46 448.879,1020.98 446.231,1017.5 443.616,1014.01 441.033,1010.5 438.482,1006.99 435.965,1003.46 433.48,999.926 431.028,996.381 428.609,992.826 426.223,989.261 423.871,985.686 421.552,982.102 419.266,978.509 417.013,974.906 414.795,971.294 412.609,967.674 410.458,964.044 408.34,960.406 406.256,956.759 404.206,953.105 402.191,949.441 400.209,945.77 398.261,942.091 396.348,938.404 394.469,934.709 392.625,931.006 390.814,927.297 389.039,923.579 387.298,919.855 385.592,916.124 383.92,912.386 382.283,908.641 380.682,904.89 379.115,901.132 377.583,897.368 376.086,893.598 374.624,889.822 373.197,886.04 371.806,882.252 370.449,878.459 369.128,874.66 367.843,870.856 366.593,867.047 365.378,863.233 364.199,859.414 363.055,855.59 361.947,851.762 360.874,847.929 359.838,844.092 358.837,840.251 357.871,836.406 356.942,832.557 356.048,828.704 355.19,824.848 354.368,820.989 353.582,817.126 352.832,813.26 352.117,809.391 351.439,805.519 350.797,801.645 350.191,797.768 349.621,793.888 349.087,790.006 348.589,786.123 348.127,782.237 347.702,778.35 347.312,774.461 346.959,770.57 346.642,766.678 346.361,762.785 346.116,758.891 345.908,754.996 345.736,751.1 345.6,747.203 345.5,743.306 345.437,739.409 345.41,735.511 345.419,731.613 345.464,727.716 345.546,723.819 345.663,719.922 345.817,716.026 346.008,712.13 346.234,708.235 346.497,704.342 346.796,700.449 347.131,696.558 347.502,692.668 347.91,688.78 348.354,684.893 348.833,681.008 349.349,677.126 349.901,673.245 350.489,669.367 351.114,665.491 351.774,661.618 352.47,657.748 353.202,653.88 353.97,650.016 354.774,646.154 355.614,642.297 356.49,638.442 357.402,634.591 358.349,630.744 359.333,626.901 360.352,623.062 361.406,619.227 362.497,615.397 363.622,611.571 364.784,607.749 365.981,603.933 367.213,600.121 368.481,596.314 369.784,592.513 371.123,588.717 372.497,584.927 373.906,581.142 375.35,577.363 376.83,573.589 378.344,569.822 379.894,566.061 381.478,562.307 383.097,558.559 384.752,554.817 386.441,551.083 388.164,547.355 389.922,543.635 391.715,539.921 393.543,536.215 395.404,532.516 397.3,528.825 399.231,525.142 401.195,521.467 403.194,517.8 405.227,514.14 407.294,510.49 409.395,506.847 411.529,503.214 413.698,499.588 415.9,495.972 418.136,492.365 420.405,488.767 422.707,485.178 425.043,481.599 427.412,478.029 429.815,474.469 432.25,470.919 434.718,467.378 437.22,463.848 439.754,460.328 442.32,456.818 444.92,453.319 447.551,449.83 450.216,446.352 452.912,442.885 455.641,439.429 458.402,435.984 461.194,432.551 464.019,429.128 466.875,425.718 469.764,422.318 472.683,418.931 475.634,415.556 478.617,412.192 481.63,408.841 484.675,405.502 487.751,402.176 490.858,398.862 493.995,395.56 497.163,392.272 500.362,388.996 503.591,385.733 506.85,382.484 510.14,379.248 513.459,376.025 516.808,372.816 520.188,369.621 523.596,366.439 527.035,363.271 530.503,360.117 534,356.977 537.526,353.851 541.081,350.74 544.665,347.644 548.278,344.561 551.919,341.494 555.589,338.441 559.287,335.404 563.014,332.381 566.768,329.374 570.55,326.382 574.36,323.405 578.198,320.444 582.063,317.498 585.956,314.568 589.875,311.654 593.822,308.756 597.796,305.874 601.796,303.008 605.823,300.159 609.876,297.326 613.955,294.509 618.061,291.709 622.193,288.925 626.35,286.159 630.533,283.409 634.742,280.676 638.976,277.961 643.235,275.263 647.519,272.582 651.828,269.918 656.162,267.272 660.52,264.644 664.902,262.033 669.309,259.44 673.74,256.865 678.195,254.308 682.673,251.769 687.175,249.249 691.7,246.747 696.249,244.263 700.82,241.797 705.414,239.351 710.031,236.923 714.671,234.513 719.333,232.123 724.016,229.751 728.722,227.399 733.45,225.065 738.199,222.751 742.97,220.456 747.762,218.181 752.575,215.925 757.409,213.689 762.264,211.472 767.139,209.275 772.034,207.098 776.95,204.941 781.886,202.803 786.841,200.686 791.816,198.589 796.811,196.512 801.824,194.455 806.857,192.419 811.909,190.403 816.979,188.408 822.067,186.433 827.175,184.479 832.299,182.546 837.442,180.634 842.603,178.742 847.781,176.872 852.977,175.022 858.189,173.194 863.418,171.387 868.664,169.601 873.927,167.836 879.206,166.093 884.501,164.371 889.812,162.671 895.139,160.992 900.481,159.335 905.838,157.699 911.211,156.085 916.598,154.494 922.001,152.924 927.417,151.376 932.849,149.85 938.293,148.346 943.753,146.864 949.225,145.404 954.711,143.967 960.211,142.551 965.723,141.159 971.249,139.788 976.786,138.44 982.337,137.114 987.899,135.811 993.474,134.531 999.06,133.273 1004.66,132.038 1010.27,130.826 1015.89,129.636 1021.52,128.469 1027.16,127.325 1032.82,126.204 1038.48,125.106 1044.15,124.031 1049.83,122.979 1055.53,121.95 1061.23,120.944 1066.94,119.962 1072.66,119.002 1078.39,118.066 1084.13,117.153 1089.88,116.263 1095.63,115.396 1101.39,114.553 1107.16,113.733 1112.94,112.937 1118.73,112.164 1124.52,111.415 1130.32,110.689 1136.12,109.987 1141.93,109.308 1147.75,108.653 1153.58,108.021 1159.41,107.413 1165.24,106.829 1171.08,106.268 1176.93,105.731 1182.78,105.218 1188.64,104.729 1194.5,104.263 1200.36,103.821 1206.23,103.403 1212.1,103.009 1217.98,102.638 1223.85,102.292 1229.74,101.969 1235.62,101.67 1241.51,101.395 1247.4,101.144 1253.29,100.916 1259.18,100.713 1265.08,100.534 1270.98,100.378 1276.88,100.246 1282.78,100.139 1288.68,100.055 1294.58,99.995 1300.48,99.9591 1306.38,99.9471 "/>
<polyline clip-path="url(#clip502)" style="stroke:#e26f46; stroke-linecap:round; stroke-linejoin:round; stroke-width:16; stroke-opacity:1; fill:none" points="1306.38,99.9471 1312.29,100.015 1318.19,100.082 1324.09,100.15 1330,100.217 1335.9,100.285 1341.8,100.352 1347.71,100.42 1353.61,100.487 1359.51,100.543 1365.43,100.529 1371.35,100.492 1377.26,100.489 1383.17,100.561 1389.05,100.737 1394.92,101.033 1400.77,101.45 1406.6,101.978 1412.42,102.593 1418.24,103.255 1424.05,103.914 1429.87,104.544 1435.68,105.173 1441.5,105.802 1447.32,106.432 1453.14,107.062 1458.95,107.691 1464.77,108.321 1470.59,108.953 1476.39,109.639 1482.18,110.388 1487.95,111.193 1493.71,112.045 1499.45,112.936 1505.19,113.859 1510.93,114.808 1516.65,115.777 1522.38,116.76 1528.1,117.753 1533.82,118.752 1539.54,119.752 1545.26,120.752 1550.98,121.748 1556.7,122.739 1562.42,123.723 1568.15,124.701 1573.88,125.671 1579.6,126.635 1585.34,127.594 1591.07,128.549 1596.8,129.503 1602.53,130.459 1608.26,131.42 1613.98,132.396 1619.7,133.404 1625.39,134.456 1631.06,135.562 1636.69,136.73 1642.27,137.965 1647.82,139.272 1653.32,140.654 1658.77,142.109 1664.17,143.638 1669.53,145.236 1674.85,146.898 1680.13,148.616 1685.38,150.381 1690.6,152.182 1695.81,154.006 1701.01,155.837 1706.22,157.66 1711.45,159.463 1716.67,161.264 1721.9,163.066 1727.12,164.867 1732.35,166.669 1737.57,168.47 1742.79,170.271 1748.02,172.073 1753.24,173.874 1758.47,175.676 1763.69,177.477 1768.92,179.278 1774.14,181.08 1779.36,182.881 1784.59,184.683 1789.81,186.484 1795.04,188.286 1800.26,190.087 1805.47,191.902 1810.65,193.753 1815.8,195.638 1820.92,197.556 1826.01,199.507 1831.07,201.49 1836.11,203.504 1841.11,205.547 1846.09,207.62 1851.04,209.721 1855.96,211.85 1860.86,214.005 1865.74,216.186 1870.59,218.393 1875.42,220.623 1880.22,222.878 1885,225.155 1889.76,227.455 1894.49,229.777 1899.21,232.119 1903.9,234.482 1908.57,236.865 1913.22,239.267 1917.85,241.688 1922.46,244.127 1927.05,246.584 1931.62,249.058 1936.17,251.549 1940.71,254.056 1945.22,256.579 1949.71,259.117 1954.19,261.67 1958.65,264.238 1963.09,266.82 1967.51,269.417 1971.91,272.026 1976.3,274.65 1980.66,277.286 1985.01,279.935 1989.34,282.597 1993.65,285.271 1997.95,287.957 2002.22,290.655 2006.48,293.365 2010.72,296.087 2014.94,298.82 2019.15,301.565 2023.33,304.321 2027.5,307.088 2031.64,309.867 2035.77,312.657 2039.88,315.459 2043.96,318.271 2048.03,321.095 2052.08,323.931 2056.11,326.778 2060.11,329.636 2064.1,332.506 2068.06,335.389 2072,338.283 2075.92,341.189 2079.81,344.108 2083.69,347.039 2087.54,349.984 2091.36,352.941 2095.16,355.911 2098.93,358.896 2102.68,361.895 2106.41,364.908 2110.1,367.935 2113.77,370.978 2117.41,374.036 2121.02,377.11 2124.6,380.201 2128.15,383.308 2131.64,386.444 2135,389.629 2138.24,392.86 2141.37,396.133 2144.41,399.443 2147.36,402.788 2150.23,406.162 2153.04,409.564 2155.8,412.99 2158.5,416.436 2161.16,419.901 2163.78,423.381 2166.38,426.874 2168.95,430.379 2171.51,433.892 2174.05,437.412 2176.58,440.938 2179.11,444.468 2181.63,448.001 2184.15,451.535 2186.67,455.071 2189.2,458.606 2191.72,462.142 2194.25,465.677 2196.77,469.211 2199.3,472.745 2201.82,476.278 2204.34,479.812 2206.85,483.347 2209.35,486.883 2211.84,490.423 2214.3,493.967 2216.74,497.516 2219.14,501.072 2221.51,504.638 2223.83,508.214 2226.09,511.805 2228.29,515.41 2230.43,519.034 2232.48,522.679 2234.44,526.348 2236.33,530.032 2238.17,533.724 2239.97,537.422 2241.74,541.127 2243.47,544.838 2245.17,548.555 2246.85,552.278 2248.5,556.006 2250.13,559.739 2251.75,563.478 2253.34,567.221 2254.93,570.969 2256.49,574.722 2258.05,578.479 2259.59,582.24 2261.13,586.005 2262.65,589.775 2264.16,593.549 2265.65,597.327 2267.13,601.108 2268.6,604.894 2270.05,608.683 2271.48,612.477 2272.9,616.274 2274.28,620.075 2275.64,623.881 2276.97,627.69 2278.27,631.504 2279.53,635.322 2280.75,639.144 2281.92,642.971 2283.04,646.803 2284.1,650.64 2285.11,654.481 2286.04,658.327 2286.9,662.18 2287.67,666.037 2288.36,669.901 2288.95,673.77 2289.49,677.642 2289.99,681.516 2290.44,685.39 2290.86,689.267 2291.24,693.144 2291.58,697.023 2291.89,700.904 2292.18,704.786 2292.43,708.669 2292.65,712.554 2292.84,716.441 2293.01,720.328 2293.15,724.217 2293.26,728.106 2293.35,731.997 2293.41,735.888 2293.44,739.78 2293.45,743.672 2293.43,747.565 2293.38,751.458 2293.31,755.35 2293.21,759.243 2293.07,763.134 2292.91,767.025 2292.71,770.914 2292.48,774.802 2292.22,778.689 2291.91,782.573 2291.57,786.455 2291.18,790.333 2290.76,794.209 2290.28,798.081 2289.76,801.949 2289.18,805.813 2288.55,809.672 2287.86,813.525 2287.11,817.373 2286.3,821.215 2285.42,825.05 2284.46,828.878 2283.44,832.7 2282.4,836.524 2281.33,840.35 2280.23,844.176 2279.1,848.001 2277.93,851.822 2276.72,855.64 2275.47,859.452 2274.17,863.258 2272.82,867.057 2271.42,870.847 2269.97,874.628 2268.47,878.399 2266.91,882.159 2265.29,885.908 2263.62,889.646 2261.88,893.371 2260.09,897.084 2258.25,900.784 2256.34,904.472 2254.38,908.146 2252.36,911.808 2250.29,915.458 2248.17,919.095 2245.99,922.72 2243.77,926.333 2241.5,929.935 2239.19,933.527 2236.84,937.109 2234.45,940.682 2232.03,944.247 2229.58,947.805 2227.11,951.356 2224.61,954.903 2222.1,958.446 2219.58,961.986 2217.06,965.525 2214.54,969.065 2212.03,972.607 2209.53,976.153 2207.05,979.704 2204.57,983.255 2202.09,986.805 2199.61,990.355 2197.13,993.902 2194.64,997.449 2192.15,1000.99 2189.65,1004.54 2187.14,1008.08 2184.62,1011.61 2182.09,1015.15 2179.56,1018.68 2177.01,1022.21 2174.45,1025.74 2171.87,1029.26 2169.28,1032.77 2166.68,1036.29 2164.05,1039.79 2161.41,1043.3 2158.76,1046.79 2156.08,1050.28 2153.38,1053.76 2150.66,1057.24 2147.92,1060.7 2145.15,1064.16 2142.36,1067.61 2139.54,1071.04 2136.7,1074.47 2133.83,1077.89 2130.93,1081.29 2128,1084.68 2125.04,1088.06 2122.04,1091.43 2119.02,1094.78 2115.95,1098.11 2112.86,1101.43 2109.73,1104.73 2106.56,1108.01 2103.35,1111.27 2100.1,1114.52 2096.81,1117.74 2093.48,1120.94 2090.15,1124.15 2086.82,1127.36 2083.48,1130.57 2080.13,1133.78 2076.76,1136.97 2073.37,1140.16 2069.94,1143.33 2066.49,1146.48 2063,1149.61 2059.47,1152.72 2055.9,1155.81 2052.29,1158.86 2048.62,1161.88 2044.91,1164.88 2041.14,1167.84 2037.32,1170.76 2033.44,1173.65 2029.5,1176.5 2025.51,1179.32 2021.46,1182.1 2017.36,1184.84 2013.19,1187.54 2008.97,1190.2 2004.69,1192.83 2000.35,1195.42 1995.96,1197.98 1991.52,1200.5 1987.03,1202.98 1982.48,1205.44 1977.9,1207.86 1973.27,1210.26 1968.6,1212.63 1963.9,1214.97 1959.16,1217.3 1954.4,1219.6 1949.61,1221.9 1944.81,1224.17 1939.99,1226.44 1935.17,1228.71 1930.34,1230.97 1925.52,1233.24 1920.71,1235.51 1915.92,1237.8 1911.15,1240.1 1906.41,1242.44 1901.7,1244.8 1897.01,1247.18 1892.34,1249.58 1887.67,1251.99 1883.01,1254.4 1878.35,1256.81 1873.69,1259.22 1869.01,1261.62 1864.33,1264.01 1859.63,1266.38 1854.91,1268.73 1850.17,1271.06 1845.4,1273.36 1840.61,1275.64 1835.78,1277.88 1830.93,1280.09 1826.05,1282.27 1821.13,1284.42 1816.18,1286.53 1811.2,1288.6 1806.18,1290.64 1801.12,1292.64 1796.04,1294.61 1790.92,1296.54 1785.77,1298.44 1780.59,1300.31 1775.38,1302.14 1770.14,1303.95 1764.88,1305.74 1759.6,1307.5 1754.3,1309.24 1748.98,1310.97 1743.65,1312.68 1738.32,1314.38 1732.98,1316.09 1727.64,1317.79 1722.3,1319.49 1716.98,1321.21 1711.67,1322.94 1706.36,1324.65 1701.02,1326.31 1695.67,1327.92 1690.3,1329.49 1684.91,1331.03 1679.51,1332.53 1674.09,1334 1668.66,1335.45 1663.21,1336.88 1657.75,1338.29 1652.28,1339.68 1646.79,1341.06 1641.3,1342.43 1635.8,1343.8 1630.28,1345.15 1624.76,1346.5 1619.23,1347.84 1613.68,1349.18 1608.13,1350.52 1602.57,1351.85 1597.01,1353.17 1591.43,1354.49 1585.85,1355.8 1580.26,1357.1 1574.66,1358.4 1569.05,1359.68 1563.43,1360.95 1557.81,1362.2 1552.17,1363.43 1546.53,1364.63 1540.87,1365.81 1535.2,1366.96 1529.53,1368.08 1523.84,1369.15 1518.14,1370.18 1512.42,1371.17 1506.69,1372.09 1500.95,1372.96 1495.19,1373.75 1489.41,1374.48 1483.62,1375.13 1477.82,1375.79 1472.02,1376.44 1466.22,1377.09 1460.41,1377.74 1454.6,1378.36 1448.78,1378.97 1442.96,1379.56 1437.14,1380.12 1431.31,1380.65 1425.48,1381.15 1419.64,1381.61 1413.8,1382.04 1407.95,1382.43 1402.09,1382.79 1396.23,1383.1 1390.37,1383.37 1384.5,1383.61 1378.63,1383.81 1372.75,1383.96 1366.87,1384.08 1360.98,1384.17 1355.09,1384.22 1349.2,1384.24 1343.3,1384.23 1337.4,1384.19 1331.5,1384.14 1325.6,1384.06 1319.69,1383.97 1313.79,1383.88 1307.88,1383.78 1301.98,1383.67 1296.07,1383.58 1290.16,1383.5 1284.26,1383.44 1278.35,1383.38 1272.44,1383.34 1266.52,1383.29 1260.61,1383.24 1254.69,1383.18 1248.78,1383.11 1242.87,1383.02 1236.96,1382.9 1231.06,1382.77 1225.16,1382.6 1219.26,1382.41 1213.38,1382.18 1207.5,1381.91 1201.63,1381.61 1195.76,1381.27 1189.91,1380.89 1184.06,1380.47 1178.22,1380.01 1172.4,1379.5 1166.58,1378.95 1160.77,1378.36 1154.96,1377.73 1149.17,1377.05 1143.39,1376.33 1137.61,1375.58 1131.85,1374.79 1126.09,1373.96 1120.33,1373.1 1114.59,1372.21 1108.85,1371.29 1103.12,1370.34 1097.39,1369.37 1091.66,1368.39 1085.94,1367.39 1080.22,1366.39 1074.51,1365.37 1068.79,1364.36 1063.07,1363.36 1057.35,1362.36 1051.62,1361.38 1045.89,1360.41 1040.17,1359.43 1034.45,1358.43 1028.73,1357.42 1023.03,1356.39 1017.34,1355.33 1011.66,1354.25 1005.99,1353.15 1000.34,1352.02 994.71,1350.85 989.094,1349.66 983.497,1348.44 977.92,1347.18 972.364,1345.89 966.828,1344.57 961.314,1343.21 955.822,1341.82 950.352,1340.4 944.903,1338.94 939.476,1337.44 934.071,1335.91 928.687,1334.35 923.324,1332.76 917.981,1331.14 912.657,1329.48 907.351,1327.8 902.063,1326.1 896.791,1324.37 891.533,1322.61 886.289,1320.84 881.056,1319.05 875.833,1317.25 870.618,1315.43 865.409,1313.6 860.204,1311.77 855,1309.94 849.796,1308.11 844.588,1306.28 839.374,1304.46 834.151,1302.66 828.918,1300.86 823.682,1299.07 818.451,1297.27 813.231,1295.46 808.029,1293.63 802.851,1291.78 797.701,1289.89 792.582,1287.97 787.5,1286.02 782.456,1284.02 777.452,1281.99 772.491,1279.91 767.572,1277.78 762.696,1275.61 757.863,1273.4 753.071,1271.15 748.317,1268.85 743.601,1266.52 738.917,1264.15 734.263,1261.75 729.634,1259.33 725.024,1256.89 720.427,1254.43 715.837,1251.97 711.247,1249.51 706.649,1247.06 702.032,1244.62 697.384,1242.21 692.713,1239.81 688.03,1237.43 683.343,1235.05 678.662,1232.66 673.994,1230.26 669.347,1227.85 664.725,1225.42 660.134,1222.97 655.577,1220.49 651.056,1217.98 646.574,1215.45 642.13,1212.89 637.725,1210.29 633.356,1207.67 629.022,1205.03 624.719,1202.36 620.441,1199.67 616.185,1196.97 611.942,1194.26 607.706,1191.54 603.468,1188.82 599.217,1186.12 594.975,1183.41 590.781,1180.66 586.636,1177.89 582.539,1175.09 578.489,1172.25 574.486,1169.39 570.528,1166.51 566.614,1163.6 562.742,1160.66 558.912,1157.7 555.12,1154.72 551.365,1151.72 547.646,1148.69 543.959,1145.66 540.303,1142.6 536.674,1139.53 533.071,1136.45 529.489,1133.35 525.927,1130.25 522.38,1127.14 518.847,1124.02 515.322,1120.9 511.802,1117.77 508.284,1114.65 504.763,1111.52 501.24,1108.4 497.839,1105.24 494.595,1102.03 491.472,1098.77 488.439,1095.49 485.465,1092.19 482.523,1088.87 479.59,1085.54 476.645,1082.22 473.671,1078.9 470.652,1075.58 467.578,1072.28 464.438,1069 461.228,1065.73 457.944,1062.48 454.588,1059.25 451.161,1056.03 447.67,1052.83 444.125,1049.65 440.537,1046.47 436.922,1043.3 433.298,1040.12 429.686,1036.94 426.11,1033.75 422.597,1030.53 419.176,1027.29 415.883,1024 412.751,1020.66 409.821,1017.27 407.135,1013.79 404.714,1010.24 402.319,1006.68 399.894,1003.12 397.465,999.569 395.054,996.01 392.68,992.443 390.355,988.863 388.09,985.268 385.892,981.656 383.762,978.027 381.699,974.382 379.698,970.721 377.748,967.047 375.837,963.364 373.948,959.675 372.058,955.986 370.147,952.302 368.249,948.614 366.38,944.918 364.548,941.212 362.759,937.498 361.018,933.774 359.33,930.039 357.697,926.294 356.123,922.539 354.608,918.774 353.153,914.998 351.758,911.213 350.42,907.418 349.139,903.615 347.909,899.803 346.727,895.984 345.587,892.158 344.484,888.327 343.409,884.492 342.355,880.653 341.312,876.813 340.271,872.973 339.22,869.134 338.142,865.298 337.021,861.466 335.87,857.636 334.705,853.806 333.542,849.977 332.393,846.147 331.268,842.315 330.178,838.48 329.13,834.642 328.131,830.801 327.184,826.956 326.293,823.107 325.459,819.254 324.682,815.396 323.959,811.535 323.286,807.67 322.658,803.802 322.068,799.931 321.508,796.058 320.966,792.183 320.431,788.309 319.888,784.434 319.327,780.561 318.793,776.685 318.313,772.805 317.889,768.921 317.52,765.034 317.209,761.145 316.956,757.254 316.76,753.363 316.622,749.471 316.54,745.579 316.512,741.687 316.537,737.796 316.612,733.906 316.735,730.016 316.902,726.128 317.109,722.242 317.351,718.356 317.625,714.472 317.925,710.589 318.245,706.707 318.58,702.825 318.921,698.944 319.263,695.062 319.598,691.18 319.912,687.296 320.196,683.408 320.468,679.516 320.746,675.624 321.048,671.733 321.388,667.845 321.779,663.962 322.235,660.085 322.763,656.215 323.373,652.354 324.071,648.502 324.862,644.66 325.748,640.827 326.731,637.006 327.81,633.194 328.984,629.393 330.248,625.602 331.596,621.819 333.022,618.046 334.515,614.279 336.066,610.52 337.662,606.764 339.287,603.013 340.927,599.262 342.564,595.512 344.177,591.759 345.742,587.999 347.232,584.222 348.669,580.434 350.078,576.639 351.481,572.843 352.897,569.05 354.343,565.264 355.835,561.488 357.386,557.725 359.008,553.978 360.708,550.25 362.493,546.54 364.369,542.851 366.337,539.183 368.397,535.536 370.548,531.909 372.784,528.301 375.1,524.712 377.487,521.138 379.933,517.579 382.427,514.029 384.953,510.487 387.493,506.949 390.029,503.409 392.537,499.863 395.018,496.311 397.515,492.764 400.026,489.221 402.55,485.682 405.086,482.147 407.631,478.614 410.184,475.083 412.743,471.554 415.307,468.027 417.875,464.501 420.446,460.975 423.018,457.45 425.591,453.925 428.164,450.4 430.737,446.876 433.308,443.35 435.879,439.825 438.448,436.299 441.015,432.772 443.581,429.245 446.146,425.718 448.709,422.19 451.272,418.663 453.835,415.135 456.398,411.607 458.978,408.086 461.642,404.599 464.39,401.145 467.21,397.719 470.093,394.319 473.03,390.939 476.014,387.577 479.035,384.23 482.089,380.895 485.17,377.57 488.273,374.254 491.393,370.944 494.529,367.64 497.677,364.341 500.837,361.048 504.008,357.759 507.189,354.476 510.383,351.199 513.591,347.931 516.816,344.671 520.061,341.424 523.332,338.189 526.633,334.972 529.971,331.775 533.352,328.601 536.785,325.455 540.277,322.34 543.832,319.257 547.374,316.163 550.901,313.058 554.434,309.955 557.991,306.865 561.587,303.799 565.237,300.766 568.953,297.773 572.744,294.827 576.617,291.932 580.577,289.091 584.627,286.306 588.767,283.578 592.997,280.906 597.312,278.288 601.707,275.72 606.172,273.196 610.698,270.711 615.272,268.256 619.879,265.822 624.503,263.398 629.123,260.972 633.718,258.531 638.284,256.07 642.834,253.597 647.376,251.118 651.915,248.636 656.456,246.155 661.003,243.679 665.56,241.211 670.13,238.753 674.716,236.308 679.319,233.876 683.942,231.46 688.586,229.059 693.25,226.675 697.935,224.306 702.639,221.954 707.362,219.615 712.102,217.289 716.856,214.975 721.621,212.669 726.394,210.369 731.169,208.072 735.944,205.773 740.712,203.47 745.485,201.172 750.283,198.896 755.106,196.645 759.956,194.421 764.835,192.225 769.741,190.057 774.677,187.92 779.642,185.812 784.637,183.736 789.661,181.691 794.715,179.677 799.796,177.693 804.906,175.74 810.043,173.815 815.205,171.919 820.392,170.05 825.603,168.206 830.834,166.386 836.085,164.587 841.352,162.807 846.635,161.043 851.93,159.294 857.235,157.555 862.545,155.823 867.86,154.095 873.175,152.368 878.486,150.636 883.789,148.896 889.073,147.124 894.338,145.317 899.59,143.487 904.834,141.643 910.076,139.795 915.32,137.951 920.571,136.12 925.833,134.307 931.108,132.519 936.401,130.762 941.714,129.04 947.048,127.357 952.407,125.716 957.79,124.12 963.199,122.57 968.635,121.067 974.097,119.611 979.585,118.201 985.098,116.836 990.635,115.513 996.194,114.23 1001.77,112.982 1007.37,111.765 1012.98,110.574 1018.6,109.403 1024.23,108.244 1029.86,107.089 1035.49,105.932 1041.12,104.761 1046.73,103.571 1052.34,102.382 1057.96,101.208 1063.59,100.058 1069.23,98.9379 1074.89,97.8551 1080.56,96.8145 1086.24,95.8203 1091.94,94.8756 1097.66,93.9827 1103.39,93.1427 1109.13,92.3555 1114.9,91.6204 1120.68,90.9354 1126.47,90.2973 1132.27,89.7022 1138.09,89.1451 1143.91,88.6198 1149.74,88.1193 1155.58,87.6353 1161.42,87.1587 1167.26,86.6791 1173.09,86.1857 "/>
<path clip-path="url(#clip500)" d="M1859.76 248.629 L2282.9 248.629 L2282.9 93.1086 L1859.76 93.1086  Z" fill="#ffffff" fill-rule="evenodd" fill-opacity="1"/>
<polyline clip-path="url(#clip500)" style="stroke:#000000; stroke-linecap:round; stroke-linejoin:round; stroke-width:4; stroke-opacity:1; fill:none" points="1859.76,248.629 2282.9,248.629 2282.9,93.1086 1859.76,93.1086 1859.76,248.629 "/>
<polyline clip-path="url(#clip500)" style="stroke:#009af9; stroke-linecap:round; stroke-linejoin:round; stroke-width:16; stroke-opacity:1; fill:none" points="1883.05,144.949 2022.75,144.949 "/>
<path clip-path="url(#clip500)" d="M2062.05 130.84 Q2056.96 130.84 2053.95 134.636 Q2050.96 138.432 2050.96 144.983 Q2050.96 151.511 2053.95 155.307 Q2056.96 159.104 2062.05 159.104 Q2067.14 159.104 2070.11 155.307 Q2073.09 151.511 2073.09 144.983 Q2073.09 138.432 2070.11 134.636 Q2067.14 130.84 2062.05 130.84 M2062.05 127.044 Q2069.32 127.044 2073.67 131.928 Q2078.02 136.789 2078.02 144.983 Q2078.02 153.155 2073.67 158.039 Q2069.32 162.9 2062.05 162.9 Q2054.76 162.9 2050.39 158.039 Q2046.03 153.178 2046.03 144.983 Q2046.03 136.789 2050.39 131.928 Q2054.76 127.044 2062.05 127.044 Z" fill="#000000" fill-rule="nonzero" fill-opacity="1" /><path clip-path="url(#clip500)" d="M2100.18 140.284 Q2099.46 139.868 2098.6 139.682 Q2097.77 139.474 2096.75 139.474 Q2093.14 139.474 2091.2 141.835 Q2089.27 144.173 2089.27 148.571 L2089.27 162.229 L2084.99 162.229 L2084.99 136.303 L2089.27 136.303 L2089.27 140.331 Q2090.62 137.969 2092.77 136.835 Q2094.92 135.678 2098 135.678 Q2098.44 135.678 2098.97 135.747 Q2099.51 135.794 2100.15 135.909 L2100.18 140.284 Z" fill="#000000" fill-rule="nonzero" fill-opacity="1" /><path clip-path="url(#clip500)" d="M2104.64 136.303 L2108.9 136.303 L2108.9 162.229 L2104.64 162.229 L2104.64 136.303 M2104.64 126.21 L2108.9 126.21 L2108.9 131.604 L2104.64 131.604 L2104.64 126.21 Z" fill="#000000" fill-rule="nonzero" fill-opacity="1" /><path clip-path="url(#clip500)" d="M2134.88 148.965 Q2134.88 144.335 2132.95 141.789 Q2131.06 139.243 2127.61 139.243 Q2124.18 139.243 2122.26 141.789 Q2120.36 144.335 2120.36 148.965 Q2120.36 153.571 2122.26 156.118 Q2124.18 158.664 2127.61 158.664 Q2131.06 158.664 2132.95 156.118 Q2134.88 153.571 2134.88 148.965 M2139.13 159.011 Q2139.13 165.631 2136.2 168.849 Q2133.26 172.09 2127.19 172.09 Q2124.95 172.09 2122.95 171.742 Q2120.96 171.418 2119.09 170.724 L2119.09 166.58 Q2120.96 167.599 2122.79 168.085 Q2124.62 168.571 2126.52 168.571 Q2130.71 168.571 2132.79 166.372 Q2134.88 164.196 2134.88 159.775 L2134.88 157.668 Q2133.56 159.96 2131.5 161.094 Q2129.44 162.229 2126.57 162.229 Q2121.8 162.229 2118.88 158.594 Q2115.96 154.96 2115.96 148.965 Q2115.96 142.946 2118.88 139.312 Q2121.8 135.678 2126.57 135.678 Q2129.44 135.678 2131.5 136.812 Q2133.56 137.946 2134.88 140.238 L2134.88 136.303 L2139.13 136.303 L2139.13 159.011 Z" fill="#000000" fill-rule="nonzero" fill-opacity="1" /><path clip-path="url(#clip500)" d="M2147.91 136.303 L2152.17 136.303 L2152.17 162.229 L2147.91 162.229 L2147.91 136.303 M2147.91 126.21 L2152.17 126.21 L2152.17 131.604 L2147.91 131.604 L2147.91 126.21 Z" fill="#000000" fill-rule="nonzero" fill-opacity="1" /><path clip-path="url(#clip500)" d="M2182.63 146.581 L2182.63 162.229 L2178.37 162.229 L2178.37 146.719 Q2178.37 143.039 2176.94 141.21 Q2175.5 139.382 2172.63 139.382 Q2169.18 139.382 2167.19 141.581 Q2165.2 143.78 2165.2 147.576 L2165.2 162.229 L2160.92 162.229 L2160.92 136.303 L2165.2 136.303 L2165.2 140.331 Q2166.73 137.993 2168.79 136.835 Q2170.87 135.678 2173.58 135.678 Q2178.05 135.678 2180.34 138.456 Q2182.63 141.21 2182.63 146.581 Z" fill="#000000" fill-rule="nonzero" fill-opacity="1" /><path clip-path="url(#clip500)" d="M2202.91 149.196 Q2197.75 149.196 2195.75 150.377 Q2193.76 151.557 2193.76 154.405 Q2193.76 156.673 2195.25 158.016 Q2196.75 159.335 2199.32 159.335 Q2202.86 159.335 2204.99 156.835 Q2207.14 154.312 2207.14 150.145 L2207.14 149.196 L2202.91 149.196 M2211.4 147.437 L2211.4 162.229 L2207.14 162.229 L2207.14 158.293 Q2205.69 160.655 2203.51 161.789 Q2201.33 162.9 2198.19 162.9 Q2194.2 162.9 2191.84 160.678 Q2189.5 158.432 2189.5 154.682 Q2189.5 150.307 2192.42 148.085 Q2195.36 145.863 2201.17 145.863 L2207.14 145.863 L2207.14 145.446 Q2207.14 142.507 2205.2 140.909 Q2203.28 139.289 2199.78 139.289 Q2197.56 139.289 2195.45 139.821 Q2193.35 140.354 2191.4 141.419 L2191.4 137.483 Q2193.74 136.581 2195.94 136.141 Q2198.14 135.678 2200.22 135.678 Q2205.85 135.678 2208.63 138.594 Q2211.4 141.511 2211.4 147.437 Z" fill="#000000" fill-rule="nonzero" fill-opacity="1" /><path clip-path="url(#clip500)" d="M2220.18 126.21 L2224.44 126.21 L2224.44 162.229 L2220.18 162.229 L2220.18 126.21 Z" fill="#000000" fill-rule="nonzero" fill-opacity="1" /><polyline clip-path="url(#clip500)" style="stroke:#e26f46; stroke-linecap:round; stroke-linejoin:round; stroke-width:16; stroke-opacity:1; fill:none" points="1883.05,196.789 2022.75,196.789 "/>
<path clip-path="url(#clip500)" d="M2050.71 183.351 L2050.71 196.337 L2056.59 196.337 Q2059.85 196.337 2061.64 194.647 Q2063.42 192.958 2063.42 189.833 Q2063.42 186.731 2061.64 185.041 Q2059.85 183.351 2056.59 183.351 L2050.71 183.351 M2046.03 179.509 L2056.59 179.509 Q2062.4 179.509 2065.36 182.147 Q2068.35 184.763 2068.35 189.833 Q2068.35 194.948 2065.36 197.564 Q2062.4 200.18 2056.59 200.18 L2050.71 200.18 L2050.71 214.069 L2046.03 214.069 L2046.03 179.509 Z" fill="#000000" fill-rule="nonzero" fill-opacity="1" /><path clip-path="url(#clip500)" d="M2088.63 192.124 Q2087.91 191.708 2087.05 191.522 Q2086.22 191.314 2085.2 191.314 Q2081.59 191.314 2079.64 193.675 Q2077.72 196.013 2077.72 200.411 L2077.72 214.069 L2073.44 214.069 L2073.44 188.143 L2077.72 188.143 L2077.72 192.171 Q2079.07 189.809 2081.22 188.675 Q2083.37 187.518 2086.45 187.518 Q2086.89 187.518 2087.42 187.587 Q2087.95 187.634 2088.6 187.749 L2088.63 192.124 Z" fill="#000000" fill-rule="nonzero" fill-opacity="1" /><path clip-path="url(#clip500)" d="M2114.23 200.041 L2114.23 202.124 L2094.64 202.124 Q2094.92 206.522 2097.28 208.837 Q2099.67 211.129 2103.9 211.129 Q2106.36 211.129 2108.65 210.527 Q2110.96 209.925 2113.23 208.721 L2113.23 212.749 Q2110.94 213.721 2108.53 214.231 Q2106.13 214.74 2103.65 214.74 Q2097.45 214.74 2093.81 211.129 Q2090.2 207.518 2090.2 201.36 Q2090.2 194.995 2093.63 191.268 Q2097.07 187.518 2102.91 187.518 Q2108.14 187.518 2111.17 190.897 Q2114.23 194.254 2114.23 200.041 M2109.97 198.791 Q2109.92 195.296 2108 193.212 Q2106.1 191.129 2102.95 191.129 Q2099.39 191.129 2097.24 193.143 Q2095.11 195.157 2094.78 198.814 L2109.97 198.791 Z" fill="#000000" fill-rule="nonzero" fill-opacity="1" /><path clip-path="url(#clip500)" d="M2138.28 192.078 L2138.28 178.05 L2142.54 178.05 L2142.54 214.069 L2138.28 214.069 L2138.28 210.18 Q2136.94 212.495 2134.88 213.629 Q2132.84 214.74 2129.97 214.74 Q2125.27 214.74 2122.31 210.99 Q2119.37 207.24 2119.37 201.129 Q2119.37 195.018 2122.31 191.268 Q2125.27 187.518 2129.97 187.518 Q2132.84 187.518 2134.88 188.652 Q2136.94 189.763 2138.28 192.078 M2123.76 201.129 Q2123.76 205.828 2125.69 208.513 Q2127.63 211.175 2131.01 211.175 Q2134.39 211.175 2136.33 208.513 Q2138.28 205.828 2138.28 201.129 Q2138.28 196.43 2136.33 193.768 Q2134.39 191.083 2131.01 191.083 Q2127.63 191.083 2125.69 193.768 Q2123.76 196.43 2123.76 201.129 Z" fill="#000000" fill-rule="nonzero" fill-opacity="1" /><path clip-path="url(#clip500)" d="M2151.31 188.143 L2155.57 188.143 L2155.57 214.069 L2151.31 214.069 L2151.31 188.143 M2151.31 178.05 L2155.57 178.05 L2155.57 183.444 L2151.31 183.444 L2151.31 178.05 Z" fill="#000000" fill-rule="nonzero" fill-opacity="1" /><path clip-path="url(#clip500)" d="M2183.14 189.138 L2183.14 193.12 Q2181.33 192.124 2179.5 191.638 Q2177.7 191.129 2175.85 191.129 Q2171.7 191.129 2169.41 193.768 Q2167.12 196.384 2167.12 201.129 Q2167.12 205.874 2169.41 208.513 Q2171.7 211.129 2175.85 211.129 Q2177.7 211.129 2179.5 210.643 Q2181.33 210.133 2183.14 209.138 L2183.14 213.073 Q2181.36 213.907 2179.44 214.323 Q2177.54 214.74 2175.38 214.74 Q2169.53 214.74 2166.08 211.059 Q2162.63 207.379 2162.63 201.129 Q2162.63 194.786 2166.1 191.152 Q2169.6 187.518 2175.66 187.518 Q2177.63 187.518 2179.5 187.935 Q2181.38 188.328 2183.14 189.138 Z" fill="#000000" fill-rule="nonzero" fill-opacity="1" /><path clip-path="url(#clip500)" d="M2194.76 180.782 L2194.76 188.143 L2203.53 188.143 L2203.53 191.453 L2194.76 191.453 L2194.76 205.527 Q2194.76 208.698 2195.62 209.601 Q2196.5 210.504 2199.16 210.504 L2203.53 210.504 L2203.53 214.069 L2199.16 214.069 Q2194.23 214.069 2192.35 212.24 Q2190.48 210.388 2190.48 205.527 L2190.48 191.453 L2187.35 191.453 L2187.35 188.143 L2190.48 188.143 L2190.48 180.782 L2194.76 180.782 Z" fill="#000000" fill-rule="nonzero" fill-opacity="1" /><path clip-path="url(#clip500)" d="M2231.31 200.041 L2231.31 202.124 L2211.73 202.124 Q2212 206.522 2214.37 208.837 Q2216.75 211.129 2220.99 211.129 Q2223.44 211.129 2225.73 210.527 Q2228.05 209.925 2230.31 208.721 L2230.31 212.749 Q2228.02 213.721 2225.62 214.231 Q2223.21 214.74 2220.73 214.74 Q2214.53 214.74 2210.89 211.129 Q2207.28 207.518 2207.28 201.36 Q2207.28 194.995 2210.71 191.268 Q2214.16 187.518 2219.99 187.518 Q2225.22 187.518 2228.25 190.897 Q2231.31 194.254 2231.31 200.041 M2227.05 198.791 Q2227 195.296 2225.08 193.212 Q2223.19 191.129 2220.04 191.129 Q2216.47 191.129 2214.32 193.143 Q2212.19 195.157 2211.87 198.814 L2227.05 198.791 Z" fill="#000000" fill-rule="nonzero" fill-opacity="1" /><path clip-path="url(#clip500)" d="M2255.36 192.078 L2255.36 178.05 L2259.62 178.05 L2259.62 214.069 L2255.36 214.069 L2255.36 210.18 Q2254.02 212.495 2251.96 213.629 Q2249.92 214.74 2247.05 214.74 Q2242.35 214.74 2239.39 210.99 Q2236.45 207.24 2236.45 201.129 Q2236.45 195.018 2239.39 191.268 Q2242.35 187.518 2247.05 187.518 Q2249.92 187.518 2251.96 188.652 Q2254.02 189.763 2255.36 192.078 M2240.85 201.129 Q2240.85 205.828 2242.77 208.513 Q2244.71 211.175 2248.09 211.175 Q2251.47 211.175 2253.42 208.513 Q2255.36 205.828 2255.36 201.129 Q2255.36 196.43 2253.42 193.768 Q2251.47 191.083 2248.09 191.083 Q2244.71 191.083 2242.77 193.768 Q2240.85 196.43 2240.85 201.129 Z" fill="#000000" fill-rule="nonzero" fill-opacity="1" /></svg>
