<?xml version="1.0" encoding="utf-8"?>
<svg xmlns="http://www.w3.org/2000/svg" xmlns:xlink="http://www.w3.org/1999/xlink" width="600" height="400" viewBox="0 0 2400 1600">
<defs>
  <clipPath id="clip260">
    <rect x="0" y="0" width="2400" height="1600"/>
  </clipPath>
</defs>
<path clip-path="url(#clip260)" d="M0 1600 L2400 1600 L2400 0 L0 0  Z" fill="#ffffff" fill-rule="evenodd" fill-opacity="1"/>
<defs>
  <clipPath id="clip261">
    <rect x="480" y="0" width="1681" height="1600"/>
  </clipPath>
</defs>
<path clip-path="url(#clip260)" d="M257.204 1423.18 L2352.76 1423.18 L2352.76 47.2441 L257.204 47.2441  Z" fill="#ffffff" fill-rule="evenodd" fill-opacity="1"/>
<defs>
  <clipPath id="clip262">
    <rect x="257" y="47" width="2097" height="1377"/>
  </clipPath>
</defs>
<polyline clip-path="url(#clip262)" style="stroke:#000000; stroke-linecap:round; stroke-linejoin:round; stroke-width:2; stroke-opacity:0.1; fill:none" points="352.702,1423.18 352.702,47.2441 "/>
<polyline clip-path="url(#clip262)" style="stroke:#000000; stroke-linecap:round; stroke-linejoin:round; stroke-width:2; stroke-opacity:0.1; fill:none" points="837.889,1423.18 837.889,47.2441 "/>
<polyline clip-path="url(#clip262)" style="stroke:#000000; stroke-linecap:round; stroke-linejoin:round; stroke-width:2; stroke-opacity:0.1; fill:none" points="1323.08,1423.18 1323.08,47.2441 "/>
<polyline clip-path="url(#clip262)" style="stroke:#000000; stroke-linecap:round; stroke-linejoin:round; stroke-width:2; stroke-opacity:0.1; fill:none" points="1808.26,1423.18 1808.26,47.2441 "/>
<polyline clip-path="url(#clip262)" style="stroke:#000000; stroke-linecap:round; stroke-linejoin:round; stroke-width:2; stroke-opacity:0.1; fill:none" points="2293.45,1423.18 2293.45,47.2441 "/>
<polyline clip-path="url(#clip262)" style="stroke:#000000; stroke-linecap:round; stroke-linejoin:round; stroke-width:2; stroke-opacity:0.1; fill:none" points="257.204,1384.24 2352.76,1384.24 "/>
<polyline clip-path="url(#clip262)" style="stroke:#000000; stroke-linecap:round; stroke-linejoin:round; stroke-width:2; stroke-opacity:0.1; fill:none" points="257.204,1059.73 2352.76,1059.73 "/>
<polyline clip-path="url(#clip262)" style="stroke:#000000; stroke-linecap:round; stroke-linejoin:round; stroke-width:2; stroke-opacity:0.1; fill:none" points="257.204,735.213 2352.76,735.213 "/>
<polyline clip-path="url(#clip262)" style="stroke:#000000; stroke-linecap:round; stroke-linejoin:round; stroke-width:2; stroke-opacity:0.1; fill:none" points="257.204,410.7 2352.76,410.7 "/>
<polyline clip-path="url(#clip262)" style="stroke:#000000; stroke-linecap:round; stroke-linejoin:round; stroke-width:2; stroke-opacity:0.1; fill:none" points="257.204,86.1857 2352.76,86.1857 "/>
<polyline clip-path="url(#clip260)" style="stroke:#000000; stroke-linecap:round; stroke-linejoin:round; stroke-width:4; stroke-opacity:1; fill:none" points="257.204,1423.18 2352.76,1423.18 "/>
<polyline clip-path="url(#clip260)" style="stroke:#000000; stroke-linecap:round; stroke-linejoin:round; stroke-width:4; stroke-opacity:1; fill:none" points="352.702,1423.18 352.702,1404.28 "/>
<polyline clip-path="url(#clip260)" style="stroke:#000000; stroke-linecap:round; stroke-linejoin:round; stroke-width:4; stroke-opacity:1; fill:none" points="837.889,1423.18 837.889,1404.28 "/>
<polyline clip-path="url(#clip260)" style="stroke:#000000; stroke-linecap:round; stroke-linejoin:round; stroke-width:4; stroke-opacity:1; fill:none" points="1323.08,1423.18 1323.08,1404.28 "/>
<polyline clip-path="url(#clip260)" style="stroke:#000000; stroke-linecap:round; stroke-linejoin:round; stroke-width:4; stroke-opacity:1; fill:none" points="1808.26,1423.18 1808.26,1404.28 "/>
<polyline clip-path="url(#clip260)" style="stroke:#000000; stroke-linecap:round; stroke-linejoin:round; stroke-width:4; stroke-opacity:1; fill:none" points="2293.45,1423.18 2293.45,1404.28 "/>
<path clip-path="url(#clip260)" d="M299.23 1468.75 L328.906 1468.75 L328.906 1472.69 L299.23 1472.69 L299.23 1468.75 Z" fill="#000000" fill-rule="nonzero" fill-opacity="1" /><path clip-path="url(#clip260)" d="M339.809 1481.64 L347.447 1481.64 L347.447 1455.28 L339.137 1456.95 L339.137 1452.69 L347.401 1451.02 L352.077 1451.02 L352.077 1481.64 L359.716 1481.64 L359.716 1485.58 L339.809 1485.58 L339.809 1481.64 Z" fill="#000000" fill-rule="nonzero" fill-opacity="1" /><path clip-path="url(#clip260)" d="M369.16 1479.7 L374.045 1479.7 L374.045 1485.58 L369.16 1485.58 L369.16 1479.7 Z" fill="#000000" fill-rule="nonzero" fill-opacity="1" /><path clip-path="url(#clip260)" d="M394.23 1454.1 Q390.619 1454.1 388.79 1457.66 Q386.984 1461.2 386.984 1468.33 Q386.984 1475.44 388.79 1479.01 Q390.619 1482.55 394.23 1482.55 Q397.864 1482.55 399.669 1479.01 Q401.498 1475.44 401.498 1468.33 Q401.498 1461.2 399.669 1457.66 Q397.864 1454.1 394.23 1454.1 M394.23 1450.39 Q400.04 1450.39 403.095 1455 Q406.174 1459.58 406.174 1468.33 Q406.174 1477.06 403.095 1481.67 Q400.04 1486.25 394.23 1486.25 Q388.419 1486.25 385.341 1481.67 Q382.285 1477.06 382.285 1468.33 Q382.285 1459.58 385.341 1455 Q388.419 1450.39 394.23 1450.39 Z" fill="#000000" fill-rule="nonzero" fill-opacity="1" /><path clip-path="url(#clip260)" d="M784.915 1468.75 L814.59 1468.75 L814.59 1472.69 L784.915 1472.69 L784.915 1468.75 Z" fill="#000000" fill-rule="nonzero" fill-opacity="1" /><path clip-path="url(#clip260)" d="M834.683 1454.1 Q831.072 1454.1 829.243 1457.66 Q827.437 1461.2 827.437 1468.33 Q827.437 1475.44 829.243 1479.01 Q831.072 1482.55 834.683 1482.55 Q838.317 1482.55 840.123 1479.01 Q841.951 1475.44 841.951 1468.33 Q841.951 1461.2 840.123 1457.66 Q838.317 1454.1 834.683 1454.1 M834.683 1450.39 Q840.493 1450.39 843.548 1455 Q846.627 1459.58 846.627 1468.33 Q846.627 1477.06 843.548 1481.67 Q840.493 1486.25 834.683 1486.25 Q828.873 1486.25 825.794 1481.67 Q822.738 1477.06 822.738 1468.33 Q822.738 1459.58 825.794 1455 Q828.873 1450.39 834.683 1450.39 Z" fill="#000000" fill-rule="nonzero" fill-opacity="1" /><path clip-path="url(#clip260)" d="M854.845 1479.7 L859.729 1479.7 L859.729 1485.58 L854.845 1485.58 L854.845 1479.7 Z" fill="#000000" fill-rule="nonzero" fill-opacity="1" /><path clip-path="url(#clip260)" d="M869.96 1451.02 L888.317 1451.02 L888.317 1454.96 L874.243 1454.96 L874.243 1463.43 Q875.261 1463.08 876.28 1462.92 Q877.298 1462.73 878.317 1462.73 Q884.104 1462.73 887.483 1465.9 Q890.863 1469.08 890.863 1474.49 Q890.863 1480.07 887.391 1483.17 Q883.919 1486.25 877.599 1486.25 Q875.423 1486.25 873.155 1485.88 Q870.909 1485.51 868.502 1484.77 L868.502 1480.07 Q870.585 1481.2 872.808 1481.76 Q875.03 1482.32 877.507 1482.32 Q881.511 1482.32 883.849 1480.21 Q886.187 1478.1 886.187 1474.49 Q886.187 1470.88 883.849 1468.77 Q881.511 1466.67 877.507 1466.67 Q875.632 1466.67 873.757 1467.08 Q871.905 1467.5 869.96 1468.38 L869.96 1451.02 Z" fill="#000000" fill-rule="nonzero" fill-opacity="1" /><path clip-path="url(#clip260)" d="M1300.46 1454.1 Q1296.85 1454.1 1295.02 1457.66 Q1293.21 1461.2 1293.21 1468.33 Q1293.21 1475.44 1295.02 1479.01 Q1296.85 1482.55 1300.46 1482.55 Q1304.09 1482.55 1305.9 1479.01 Q1307.73 1475.44 1307.73 1468.33 Q1307.73 1461.2 1305.9 1457.66 Q1304.09 1454.1 1300.46 1454.1 M1300.46 1450.39 Q1306.27 1450.39 1309.33 1455 Q1312.4 1459.58 1312.4 1468.33 Q1312.4 1477.06 1309.33 1481.67 Q1306.27 1486.25 1300.46 1486.25 Q1294.65 1486.25 1291.57 1481.67 Q1288.52 1477.06 1288.52 1468.33 Q1288.52 1459.58 1291.57 1455 Q1294.65 1450.39 1300.46 1450.39 Z" fill="#000000" fill-rule="nonzero" fill-opacity="1" /><path clip-path="url(#clip260)" d="M1320.62 1479.7 L1325.51 1479.7 L1325.51 1485.58 L1320.62 1485.58 L1320.62 1479.7 Z" fill="#000000" fill-rule="nonzero" fill-opacity="1" /><path clip-path="url(#clip260)" d="M1345.69 1454.1 Q1342.08 1454.1 1340.25 1457.66 Q1338.45 1461.2 1338.45 1468.33 Q1338.45 1475.44 1340.25 1479.01 Q1342.08 1482.55 1345.69 1482.55 Q1349.33 1482.55 1351.13 1479.01 Q1352.96 1475.44 1352.96 1468.33 Q1352.96 1461.2 1351.13 1457.66 Q1349.33 1454.1 1345.69 1454.1 M1345.69 1450.39 Q1351.5 1450.39 1354.56 1455 Q1357.64 1459.58 1357.64 1468.33 Q1357.64 1477.06 1354.56 1481.67 Q1351.5 1486.25 1345.69 1486.25 Q1339.88 1486.25 1336.8 1481.67 Q1333.75 1477.06 1333.75 1468.33 Q1333.75 1459.58 1336.8 1455 Q1339.88 1450.39 1345.69 1450.39 Z" fill="#000000" fill-rule="nonzero" fill-opacity="1" /><path clip-path="url(#clip260)" d="M1786.14 1454.1 Q1782.53 1454.1 1780.7 1457.66 Q1778.9 1461.2 1778.9 1468.33 Q1778.9 1475.44 1780.7 1479.01 Q1782.53 1482.55 1786.14 1482.55 Q1789.78 1482.55 1791.58 1479.01 Q1793.41 1475.44 1793.41 1468.33 Q1793.41 1461.2 1791.58 1457.66 Q1789.78 1454.1 1786.14 1454.1 M1786.14 1450.39 Q1791.95 1450.39 1795.01 1455 Q1798.09 1459.58 1798.09 1468.33 Q1798.09 1477.06 1795.01 1481.67 Q1791.95 1486.25 1786.14 1486.25 Q1780.33 1486.25 1777.26 1481.67 Q1774.2 1477.06 1774.2 1468.33 Q1774.2 1459.58 1777.26 1455 Q1780.33 1450.39 1786.14 1450.39 Z" fill="#000000" fill-rule="nonzero" fill-opacity="1" /><path clip-path="url(#clip260)" d="M1806.31 1479.7 L1811.19 1479.7 L1811.19 1485.58 L1806.31 1485.58 L1806.31 1479.7 Z" fill="#000000" fill-rule="nonzero" fill-opacity="1" /><path clip-path="url(#clip260)" d="M1821.42 1451.02 L1839.78 1451.02 L1839.78 1454.96 L1825.7 1454.96 L1825.7 1463.43 Q1826.72 1463.08 1827.74 1462.92 Q1828.76 1462.73 1829.78 1462.73 Q1835.57 1462.73 1838.94 1465.9 Q1842.32 1469.08 1842.32 1474.49 Q1842.32 1480.07 1838.85 1483.17 Q1835.38 1486.25 1829.06 1486.25 Q1826.88 1486.25 1824.62 1485.88 Q1822.37 1485.51 1819.96 1484.77 L1819.96 1480.07 Q1822.05 1481.2 1824.27 1481.76 Q1826.49 1482.32 1828.97 1482.32 Q1832.97 1482.32 1835.31 1480.21 Q1837.65 1478.1 1837.65 1474.49 Q1837.65 1470.88 1835.31 1468.77 Q1832.97 1466.67 1828.97 1466.67 Q1827.09 1466.67 1825.22 1467.08 Q1823.37 1467.5 1821.42 1468.38 L1821.42 1451.02 Z" fill="#000000" fill-rule="nonzero" fill-opacity="1" /><path clip-path="url(#clip260)" d="M2260.6 1481.64 L2268.24 1481.64 L2268.24 1455.28 L2259.93 1456.95 L2259.93 1452.69 L2268.19 1451.02 L2272.87 1451.02 L2272.87 1481.64 L2280.51 1481.64 L2280.51 1485.58 L2260.6 1485.58 L2260.6 1481.64 Z" fill="#000000" fill-rule="nonzero" fill-opacity="1" /><path clip-path="url(#clip260)" d="M2289.95 1479.7 L2294.84 1479.7 L2294.84 1485.58 L2289.95 1485.58 L2289.95 1479.7 Z" fill="#000000" fill-rule="nonzero" fill-opacity="1" /><path clip-path="url(#clip260)" d="M2315.02 1454.1 Q2311.41 1454.1 2309.58 1457.66 Q2307.78 1461.2 2307.78 1468.33 Q2307.78 1475.44 2309.58 1479.01 Q2311.41 1482.55 2315.02 1482.55 Q2318.66 1482.55 2320.46 1479.01 Q2322.29 1475.44 2322.29 1468.33 Q2322.29 1461.2 2320.46 1457.66 Q2318.66 1454.1 2315.02 1454.1 M2315.02 1450.39 Q2320.83 1450.39 2323.89 1455 Q2326.97 1459.58 2326.97 1468.33 Q2326.97 1477.06 2323.89 1481.67 Q2320.83 1486.25 2315.02 1486.25 Q2309.21 1486.25 2306.13 1481.67 Q2303.08 1477.06 2303.08 1468.33 Q2303.08 1459.58 2306.13 1455 Q2309.21 1450.39 2315.02 1450.39 Z" fill="#000000" fill-rule="nonzero" fill-opacity="1" /><path clip-path="url(#clip260)" d="M1134.03 1525.81 L1134.03 1543.66 L1142.11 1543.66 Q1146.6 1543.66 1149.05 1541.34 Q1151.5 1539.02 1151.5 1534.72 Q1151.5 1530.45 1149.05 1528.13 Q1146.6 1525.81 1142.11 1525.81 L1134.03 1525.81 M1127.6 1520.52 L1142.11 1520.52 Q1150.1 1520.52 1154.18 1524.15 Q1158.28 1527.75 1158.28 1534.72 Q1158.28 1541.75 1154.18 1545.35 Q1150.1 1548.95 1142.11 1548.95 L1134.03 1548.95 L1134.03 1568.04 L1127.6 1568.04 L1127.6 1520.52 Z" fill="#000000" fill-rule="nonzero" fill-opacity="1" /><path clip-path="url(#clip260)" d="M1178.14 1536.5 Q1173.43 1536.5 1170.7 1540.19 Q1167.96 1543.85 1167.96 1550.25 Q1167.96 1556.65 1170.66 1560.34 Q1173.4 1564 1178.14 1564 Q1182.82 1564 1185.56 1560.31 Q1188.3 1556.62 1188.3 1550.25 Q1188.3 1543.92 1185.56 1540.23 Q1182.82 1536.5 1178.14 1536.5 M1178.14 1531.54 Q1185.78 1531.54 1190.14 1536.5 Q1194.5 1541.47 1194.5 1550.25 Q1194.5 1559 1190.14 1564 Q1185.78 1568.97 1178.14 1568.97 Q1170.47 1568.97 1166.11 1564 Q1161.78 1559 1161.78 1550.25 Q1161.78 1541.47 1166.11 1536.5 Q1170.47 1531.54 1178.14 1531.54 Z" fill="#000000" fill-rule="nonzero" fill-opacity="1" /><path clip-path="url(#clip260)" d="M1226.94 1533.45 L1226.94 1538.98 Q1224.45 1537.71 1221.78 1537.07 Q1219.11 1536.44 1216.24 1536.44 Q1211.88 1536.44 1209.69 1537.77 Q1207.52 1539.11 1207.52 1541.79 Q1207.52 1543.82 1209.08 1545 Q1210.64 1546.15 1215.35 1547.2 L1217.36 1547.64 Q1223.59 1548.98 1226.2 1551.43 Q1228.85 1553.85 1228.85 1558.21 Q1228.85 1563.17 1224.9 1566.07 Q1220.98 1568.97 1214.11 1568.97 Q1211.24 1568.97 1208.13 1568.39 Q1205.04 1567.85 1201.6 1566.74 L1201.6 1560.69 Q1204.85 1562.38 1208 1563.24 Q1211.15 1564.07 1214.24 1564.07 Q1218.37 1564.07 1220.6 1562.66 Q1222.83 1561.23 1222.83 1558.65 Q1222.83 1556.27 1221.21 1554.99 Q1219.62 1553.72 1214.17 1552.54 L1212.14 1552.07 Q1206.69 1550.92 1204.27 1548.56 Q1201.86 1546.18 1201.86 1542.04 Q1201.86 1537.01 1205.42 1534.27 Q1208.99 1531.54 1215.54 1531.54 Q1218.79 1531.54 1221.65 1532.01 Q1224.52 1532.49 1226.94 1533.45 Z" fill="#000000" fill-rule="nonzero" fill-opacity="1" /><path clip-path="url(#clip260)" d="M1238.17 1532.4 L1244.03 1532.4 L1244.03 1568.04 L1238.17 1568.04 L1238.17 1532.4 M1238.17 1518.52 L1244.03 1518.52 L1244.03 1525.93 L1238.17 1525.93 L1238.17 1518.52 Z" fill="#000000" fill-rule="nonzero" fill-opacity="1" /><path clip-path="url(#clip260)" d="M1262.08 1522.27 L1262.08 1532.4 L1274.14 1532.4 L1274.14 1536.95 L1262.08 1536.95 L1262.08 1556.3 Q1262.08 1560.66 1263.25 1561.9 Q1264.46 1563.14 1268.12 1563.14 L1274.14 1563.14 L1274.14 1568.04 L1268.12 1568.04 Q1261.34 1568.04 1258.76 1565.53 Q1256.19 1562.98 1256.19 1556.3 L1256.19 1536.95 L1251.89 1536.95 L1251.89 1532.4 L1256.19 1532.4 L1256.19 1522.27 L1262.08 1522.27 Z" fill="#000000" fill-rule="nonzero" fill-opacity="1" /><path clip-path="url(#clip260)" d="M1281.84 1532.4 L1287.7 1532.4 L1287.7 1568.04 L1281.84 1568.04 L1281.84 1532.4 M1281.84 1518.52 L1287.7 1518.52 L1287.7 1525.93 L1281.84 1525.93 L1281.84 1518.52 Z" fill="#000000" fill-rule="nonzero" fill-opacity="1" /><path clip-path="url(#clip260)" d="M1313.76 1536.5 Q1309.05 1536.5 1306.32 1540.19 Q1303.58 1543.85 1303.58 1550.25 Q1303.58 1556.65 1306.28 1560.34 Q1309.02 1564 1313.76 1564 Q1318.44 1564 1321.18 1560.31 Q1323.92 1556.62 1323.92 1550.25 Q1323.92 1543.92 1321.18 1540.23 Q1318.44 1536.5 1313.76 1536.5 M1313.76 1531.54 Q1321.4 1531.54 1325.76 1536.5 Q1330.12 1541.47 1330.12 1550.25 Q1330.12 1559 1325.76 1564 Q1321.4 1568.97 1313.76 1568.97 Q1306.09 1568.97 1301.73 1564 Q1297.4 1559 1297.4 1550.25 Q1297.4 1541.47 1301.73 1536.5 Q1306.09 1531.54 1313.76 1531.54 Z" fill="#000000" fill-rule="nonzero" fill-opacity="1" /><path clip-path="url(#clip260)" d="M1369.46 1546.53 L1369.46 1568.04 L1363.61 1568.04 L1363.61 1546.72 Q1363.61 1541.66 1361.63 1539.14 Q1359.66 1536.63 1355.71 1536.63 Q1350.97 1536.63 1348.23 1539.65 Q1345.5 1542.68 1345.5 1547.9 L1345.5 1568.04 L1339.61 1568.04 L1339.61 1532.4 L1345.5 1532.4 L1345.5 1537.93 Q1347.6 1534.72 1350.43 1533.13 Q1353.3 1531.54 1357.02 1531.54 Q1363.16 1531.54 1366.31 1535.36 Q1369.46 1539.14 1369.46 1546.53 Z" fill="#000000" fill-rule="nonzero" fill-opacity="1" /><path clip-path="url(#clip260)" d="M1415.93 1518.58 Q1411.67 1525.9 1409.6 1533.06 Q1407.53 1540.23 1407.53 1547.58 Q1407.53 1554.93 1409.6 1562.16 Q1411.7 1569.35 1415.93 1576.64 L1410.84 1576.64 Q1406.07 1569.16 1403.68 1561.93 Q1401.32 1554.71 1401.32 1547.58 Q1401.32 1540.48 1403.68 1533.29 Q1406.04 1526.09 1410.84 1518.58 L1415.93 1518.58 Z" fill="#000000" fill-rule="nonzero" fill-opacity="1" /><path clip-path="url(#clip260)" d="M1430.8 1550.25 Q1430.8 1556.71 1433.44 1560.4 Q1436.11 1564.07 1440.76 1564.07 Q1445.41 1564.07 1448.08 1560.4 Q1450.75 1556.71 1450.75 1550.25 Q1450.75 1543.79 1448.08 1540.13 Q1445.41 1536.44 1440.76 1536.44 Q1436.11 1536.44 1433.44 1540.13 Q1430.8 1543.79 1430.8 1550.25 M1450.75 1562.7 Q1448.91 1565.88 1446.08 1567.44 Q1443.27 1568.97 1439.33 1568.97 Q1432.87 1568.97 1428.79 1563.81 Q1424.75 1558.65 1424.75 1550.25 Q1424.75 1541.85 1428.79 1536.69 Q1432.87 1531.54 1439.33 1531.54 Q1443.27 1531.54 1446.08 1533.1 Q1448.91 1534.62 1450.75 1537.81 L1450.75 1532.4 L1456.61 1532.4 L1456.61 1581.6 L1450.75 1581.6 L1450.75 1562.7 Z" fill="#000000" fill-rule="nonzero" fill-opacity="1" /><path clip-path="url(#clip260)" d="M1467.75 1518.58 L1472.84 1518.58 Q1477.62 1526.09 1479.97 1533.29 Q1482.36 1540.48 1482.36 1547.58 Q1482.36 1554.71 1479.97 1561.93 Q1477.62 1569.16 1472.84 1576.64 L1467.75 1576.64 Q1471.98 1569.35 1474.05 1562.16 Q1476.15 1554.93 1476.15 1547.58 Q1476.15 1540.23 1474.05 1533.06 Q1471.98 1525.9 1467.75 1518.58 Z" fill="#000000" fill-rule="nonzero" fill-opacity="1" /><polyline clip-path="url(#clip260)" style="stroke:#000000; stroke-linecap:round; stroke-linejoin:round; stroke-width:4; stroke-opacity:1; fill:none" points="257.204,1423.18 257.204,47.2441 "/>
<polyline clip-path="url(#clip260)" style="stroke:#000000; stroke-linecap:round; stroke-linejoin:round; stroke-width:4; stroke-opacity:1; fill:none" points="257.204,1384.24 276.102,1384.24 "/>
<polyline clip-path="url(#clip260)" style="stroke:#000000; stroke-linecap:round; stroke-linejoin:round; stroke-width:4; stroke-opacity:1; fill:none" points="257.204,1059.73 276.102,1059.73 "/>
<polyline clip-path="url(#clip260)" style="stroke:#000000; stroke-linecap:round; stroke-linejoin:round; stroke-width:4; stroke-opacity:1; fill:none" points="257.204,735.213 276.102,735.213 "/>
<polyline clip-path="url(#clip260)" style="stroke:#000000; stroke-linecap:round; stroke-linejoin:round; stroke-width:4; stroke-opacity:1; fill:none" points="257.204,410.7 276.102,410.7 "/>
<polyline clip-path="url(#clip260)" style="stroke:#000000; stroke-linecap:round; stroke-linejoin:round; stroke-width:4; stroke-opacity:1; fill:none" points="257.204,86.1857 276.102,86.1857 "/>
<path clip-path="url(#clip260)" d="M114.26 1384.69 L143.936 1384.69 L143.936 1388.63 L114.26 1388.63 L114.26 1384.69 Z" fill="#000000" fill-rule="nonzero" fill-opacity="1" /><path clip-path="url(#clip260)" d="M154.839 1397.59 L162.477 1397.59 L162.477 1371.22 L154.167 1372.89 L154.167 1368.63 L162.431 1366.96 L167.107 1366.96 L167.107 1397.59 L174.746 1397.59 L174.746 1401.52 L154.839 1401.52 L154.839 1397.59 Z" fill="#000000" fill-rule="nonzero" fill-opacity="1" /><path clip-path="url(#clip260)" d="M184.19 1395.64 L189.075 1395.64 L189.075 1401.52 L184.19 1401.52 L184.19 1395.64 Z" fill="#000000" fill-rule="nonzero" fill-opacity="1" /><path clip-path="url(#clip260)" d="M209.26 1370.04 Q205.649 1370.04 203.82 1373.6 Q202.014 1377.15 202.014 1384.28 Q202.014 1391.38 203.82 1394.95 Q205.649 1398.49 209.26 1398.49 Q212.894 1398.49 214.699 1394.95 Q216.528 1391.38 216.528 1384.28 Q216.528 1377.15 214.699 1373.6 Q212.894 1370.04 209.26 1370.04 M209.26 1366.34 Q215.07 1366.34 218.125 1370.94 Q221.204 1375.53 221.204 1384.28 Q221.204 1393 218.125 1397.61 Q215.07 1402.19 209.26 1402.19 Q203.449 1402.19 200.371 1397.61 Q197.315 1393 197.315 1384.28 Q197.315 1375.53 200.371 1370.94 Q203.449 1366.34 209.26 1366.34 Z" fill="#000000" fill-rule="nonzero" fill-opacity="1" /><path clip-path="url(#clip260)" d="M115.256 1060.18 L144.931 1060.18 L144.931 1064.11 L115.256 1064.11 L115.256 1060.18 Z" fill="#000000" fill-rule="nonzero" fill-opacity="1" /><path clip-path="url(#clip260)" d="M165.024 1045.53 Q161.413 1045.53 159.584 1049.09 Q157.778 1052.63 157.778 1059.76 Q157.778 1066.87 159.584 1070.43 Q161.413 1073.98 165.024 1073.98 Q168.658 1073.98 170.464 1070.43 Q172.292 1066.87 172.292 1059.76 Q172.292 1052.63 170.464 1049.09 Q168.658 1045.53 165.024 1045.53 M165.024 1041.82 Q170.834 1041.82 173.889 1046.43 Q176.968 1051.01 176.968 1059.76 Q176.968 1068.49 173.889 1073.1 Q170.834 1077.68 165.024 1077.68 Q159.214 1077.68 156.135 1073.1 Q153.079 1068.49 153.079 1059.76 Q153.079 1051.01 156.135 1046.43 Q159.214 1041.82 165.024 1041.82 Z" fill="#000000" fill-rule="nonzero" fill-opacity="1" /><path clip-path="url(#clip260)" d="M185.186 1071.13 L190.07 1071.13 L190.07 1077.01 L185.186 1077.01 L185.186 1071.13 Z" fill="#000000" fill-rule="nonzero" fill-opacity="1" /><path clip-path="url(#clip260)" d="M200.301 1042.45 L218.658 1042.45 L218.658 1046.38 L204.584 1046.38 L204.584 1054.85 Q205.602 1054.51 206.621 1054.35 Q207.639 1054.16 208.658 1054.16 Q214.445 1054.16 217.824 1057.33 Q221.204 1060.5 221.204 1065.92 Q221.204 1071.5 217.732 1074.6 Q214.26 1077.68 207.94 1077.68 Q205.764 1077.68 203.496 1077.31 Q201.25 1076.94 198.843 1076.2 L198.843 1071.5 Q200.926 1072.63 203.149 1073.19 Q205.371 1073.74 207.848 1073.74 Q211.852 1073.74 214.19 1071.64 Q216.528 1069.53 216.528 1065.92 Q216.528 1062.31 214.19 1060.2 Q211.852 1058.1 207.848 1058.1 Q205.973 1058.1 204.098 1058.51 Q202.246 1058.93 200.301 1059.81 L200.301 1042.45 Z" fill="#000000" fill-rule="nonzero" fill-opacity="1" /><path clip-path="url(#clip260)" d="M164.028 721.012 Q160.417 721.012 158.589 724.577 Q156.783 728.119 156.783 735.248 Q156.783 742.355 158.589 745.919 Q160.417 749.461 164.028 749.461 Q167.663 749.461 169.468 745.919 Q171.297 742.355 171.297 735.248 Q171.297 728.119 169.468 724.577 Q167.663 721.012 164.028 721.012 M164.028 717.308 Q169.839 717.308 172.894 721.915 Q175.973 726.498 175.973 735.248 Q175.973 743.975 172.894 748.581 Q169.839 753.165 164.028 753.165 Q158.218 753.165 155.14 748.581 Q152.084 743.975 152.084 735.248 Q152.084 726.498 155.14 721.915 Q158.218 717.308 164.028 717.308 Z" fill="#000000" fill-rule="nonzero" fill-opacity="1" /><path clip-path="url(#clip260)" d="M184.19 746.614 L189.075 746.614 L189.075 752.493 L184.19 752.493 L184.19 746.614 Z" fill="#000000" fill-rule="nonzero" fill-opacity="1" /><path clip-path="url(#clip260)" d="M209.26 721.012 Q205.649 721.012 203.82 724.577 Q202.014 728.119 202.014 735.248 Q202.014 742.355 203.82 745.919 Q205.649 749.461 209.26 749.461 Q212.894 749.461 214.699 745.919 Q216.528 742.355 216.528 735.248 Q216.528 728.119 214.699 724.577 Q212.894 721.012 209.26 721.012 M209.26 717.308 Q215.07 717.308 218.125 721.915 Q221.204 726.498 221.204 735.248 Q221.204 743.975 218.125 748.581 Q215.07 753.165 209.26 753.165 Q203.449 753.165 200.371 748.581 Q197.315 743.975 197.315 735.248 Q197.315 726.498 200.371 721.915 Q203.449 717.308 209.26 717.308 Z" fill="#000000" fill-rule="nonzero" fill-opacity="1" /><path clip-path="url(#clip260)" d="M165.024 396.498 Q161.413 396.498 159.584 400.063 Q157.778 403.605 157.778 410.734 Q157.778 417.841 159.584 421.406 Q161.413 424.947 165.024 424.947 Q168.658 424.947 170.464 421.406 Q172.292 417.841 172.292 410.734 Q172.292 403.605 170.464 400.063 Q168.658 396.498 165.024 396.498 M165.024 392.795 Q170.834 392.795 173.889 397.401 Q176.968 401.984 176.968 410.734 Q176.968 419.461 173.889 424.068 Q170.834 428.651 165.024 428.651 Q159.214 428.651 156.135 424.068 Q153.079 419.461 153.079 410.734 Q153.079 401.984 156.135 397.401 Q159.214 392.795 165.024 392.795 Z" fill="#000000" fill-rule="nonzero" fill-opacity="1" /><path clip-path="url(#clip260)" d="M185.186 422.1 L190.07 422.1 L190.07 427.98 L185.186 427.98 L185.186 422.1 Z" fill="#000000" fill-rule="nonzero" fill-opacity="1" /><path clip-path="url(#clip260)" d="M200.301 393.42 L218.658 393.42 L218.658 397.355 L204.584 397.355 L204.584 405.827 Q205.602 405.48 206.621 405.318 Q207.639 405.132 208.658 405.132 Q214.445 405.132 217.824 408.304 Q221.204 411.475 221.204 416.892 Q221.204 422.47 217.732 425.572 Q214.26 428.651 207.94 428.651 Q205.764 428.651 203.496 428.281 Q201.25 427.91 198.843 427.169 L198.843 422.47 Q200.926 423.605 203.149 424.16 Q205.371 424.716 207.848 424.716 Q211.852 424.716 214.19 422.609 Q216.528 420.503 216.528 416.892 Q216.528 413.281 214.19 411.174 Q211.852 409.068 207.848 409.068 Q205.973 409.068 204.098 409.484 Q202.246 409.901 200.301 410.781 L200.301 393.42 Z" fill="#000000" fill-rule="nonzero" fill-opacity="1" /><path clip-path="url(#clip260)" d="M154.839 99.5305 L162.477 99.5305 L162.477 73.1649 L154.167 74.8316 L154.167 70.5723 L162.431 68.9057 L167.107 68.9057 L167.107 99.5305 L174.746 99.5305 L174.746 103.466 L154.839 103.466 L154.839 99.5305 Z" fill="#000000" fill-rule="nonzero" fill-opacity="1" /><path clip-path="url(#clip260)" d="M184.19 97.5861 L189.075 97.5861 L189.075 103.466 L184.19 103.466 L184.19 97.5861 Z" fill="#000000" fill-rule="nonzero" fill-opacity="1" /><path clip-path="url(#clip260)" d="M209.26 71.9844 Q205.649 71.9844 203.82 75.5492 Q202.014 79.0908 202.014 86.2204 Q202.014 93.3268 203.82 96.8916 Q205.649 100.433 209.26 100.433 Q212.894 100.433 214.699 96.8916 Q216.528 93.3268 216.528 86.2204 Q216.528 79.0908 214.699 75.5492 Q212.894 71.9844 209.26 71.9844 M209.26 68.2807 Q215.07 68.2807 218.125 72.8871 Q221.204 77.4704 221.204 86.2204 Q221.204 94.9472 218.125 99.5537 Q215.07 104.137 209.26 104.137 Q203.449 104.137 200.371 99.5537 Q197.315 94.9472 197.315 86.2204 Q197.315 77.4704 200.371 72.8871 Q203.449 68.2807 209.26 68.2807 Z" fill="#000000" fill-rule="nonzero" fill-opacity="1" /><path clip-path="url(#clip260)" d="M16.4842 971.396 L16.4842 961.815 L48.8219 949.689 L16.4842 937.498 L16.4842 927.918 L64.0042 927.918 L64.0042 934.188 L22.277 934.188 L54.8694 946.442 L54.8694 952.903 L22.277 965.157 L64.0042 965.157 L64.0042 971.396 L16.4842 971.396 Z" fill="#000000" fill-rule="nonzero" fill-opacity="1" /><path clip-path="url(#clip260)" d="M32.4621 901.596 Q32.4621 906.306 36.1542 909.044 Q39.8145 911.781 46.212 911.781 Q52.6095 911.781 56.3017 909.075 Q59.9619 906.338 59.9619 901.596 Q59.9619 896.917 56.2698 894.18 Q52.5777 891.442 46.212 891.442 Q39.8781 891.442 36.186 894.18 Q32.4621 896.917 32.4621 901.596 M27.4968 901.596 Q27.4968 893.957 32.4621 889.596 Q37.4273 885.236 46.212 885.236 Q54.9649 885.236 59.9619 889.596 Q64.9272 893.957 64.9272 901.596 Q64.9272 909.266 59.9619 913.627 Q54.9649 917.955 46.212 917.955 Q37.4273 917.955 32.4621 913.627 Q27.4968 909.266 27.4968 901.596 Z" fill="#000000" fill-rule="nonzero" fill-opacity="1" /><path clip-path="url(#clip260)" d="M35.1993 847.774 Q31.2526 845.577 29.3747 842.522 Q27.4968 839.466 27.4968 835.329 Q27.4968 829.759 31.4117 826.735 Q35.2948 823.711 42.4881 823.711 L64.0042 823.711 L64.0042 829.599 L42.679 829.599 Q37.5546 829.599 35.072 831.414 Q32.5894 833.228 32.5894 836.952 Q32.5894 841.503 35.6131 844.145 Q38.6368 846.787 43.8567 846.787 L64.0042 846.787 L64.0042 852.675 L42.679 852.675 Q37.5228 852.675 35.072 854.489 Q32.5894 856.304 32.5894 860.091 Q32.5894 864.579 35.6449 867.221 Q38.6686 869.863 43.8567 869.863 L64.0042 869.863 L64.0042 875.751 L28.3562 875.751 L28.3562 869.863 L33.8944 869.863 Q30.616 867.857 29.0564 865.056 Q27.4968 862.256 27.4968 858.404 Q27.4968 854.521 29.4702 851.816 Q31.4436 849.079 35.1993 847.774 Z" fill="#000000" fill-rule="nonzero" fill-opacity="1" /><path clip-path="url(#clip260)" d="M44.7161 781.538 L47.5806 781.538 L47.5806 808.465 Q53.6281 808.083 56.8109 804.837 Q59.9619 801.559 59.9619 795.734 Q59.9619 792.36 59.1344 789.209 Q58.3069 786.026 56.6518 782.907 L62.1899 782.907 Q63.5267 786.058 64.227 789.368 Q64.9272 792.678 64.9272 796.084 Q64.9272 804.614 59.9619 809.611 Q54.9967 814.576 46.5303 814.576 Q37.7774 814.576 32.6531 809.866 Q27.4968 805.123 27.4968 797.103 Q27.4968 789.909 32.1438 785.74 Q36.7589 781.538 44.7161 781.538 M42.9973 787.395 Q38.1912 787.459 35.3266 790.1 Q32.4621 792.71 32.4621 797.039 Q32.4621 801.94 35.2312 804.901 Q38.0002 807.829 43.0292 808.274 L42.9973 787.395 Z" fill="#000000" fill-rule="nonzero" fill-opacity="1" /><path clip-path="url(#clip260)" d="M42.4881 742.294 L64.0042 742.294 L64.0042 748.15 L42.679 748.15 Q37.6183 748.15 35.1038 750.124 Q32.5894 752.097 32.5894 756.044 Q32.5894 760.786 35.6131 763.523 Q38.6368 766.261 43.8567 766.261 L64.0042 766.261 L64.0042 772.149 L28.3562 772.149 L28.3562 766.261 L33.8944 766.261 Q30.6797 764.16 29.0883 761.327 Q27.4968 758.463 27.4968 754.739 Q27.4968 748.596 31.3163 745.445 Q35.1038 742.294 42.4881 742.294 Z" fill="#000000" fill-rule="nonzero" fill-opacity="1" /><path clip-path="url(#clip260)" d="M18.2347 724.82 L28.3562 724.82 L28.3562 712.757 L32.9077 712.757 L32.9077 724.82 L52.2594 724.82 Q56.6199 724.82 57.8613 723.642 Q59.1026 722.433 59.1026 718.773 L59.1026 712.757 L64.0042 712.757 L64.0042 718.773 Q64.0042 725.552 61.4897 728.13 Q58.9434 730.708 52.2594 730.708 L32.9077 730.708 L32.9077 735.005 L28.3562 735.005 L28.3562 730.708 L18.2347 730.708 L18.2347 724.82 Z" fill="#000000" fill-rule="nonzero" fill-opacity="1" /><path clip-path="url(#clip260)" d="M49.9359 705.659 L28.3562 705.659 L28.3562 699.803 L49.7131 699.803 Q54.7739 699.803 57.3202 697.829 Q59.8346 695.856 59.8346 691.909 Q59.8346 687.167 56.8109 684.43 Q53.7872 681.66 48.5673 681.66 L28.3562 681.66 L28.3562 675.804 L64.0042 675.804 L64.0042 681.66 L58.5296 681.66 Q61.7762 683.793 63.3676 686.626 Q64.9272 689.427 64.9272 693.151 Q64.9272 699.293 61.1078 702.476 Q57.2883 705.659 49.9359 705.659 M27.4968 690.923 L27.4968 690.923 Z" fill="#000000" fill-rule="nonzero" fill-opacity="1" /><path clip-path="url(#clip260)" d="M35.1993 635.987 Q31.2526 633.79 29.3747 630.735 Q27.4968 627.679 27.4968 623.542 Q27.4968 617.972 31.4117 614.948 Q35.2948 611.924 42.4881 611.924 L64.0042 611.924 L64.0042 617.812 L42.679 617.812 Q37.5546 617.812 35.072 619.627 Q32.5894 621.441 32.5894 625.165 Q32.5894 629.716 35.6131 632.358 Q38.6368 635 43.8567 635 L64.0042 635 L64.0042 640.888 L42.679 640.888 Q37.5228 640.888 35.072 642.702 Q32.5894 644.517 32.5894 648.304 Q32.5894 652.792 35.6449 655.434 Q38.6686 658.076 43.8567 658.076 L64.0042 658.076 L64.0042 663.964 L28.3562 663.964 L28.3562 658.076 L33.8944 658.076 Q30.616 656.07 29.0564 653.269 Q27.4968 650.468 27.4968 646.617 Q27.4968 642.734 29.4702 640.029 Q31.4436 637.291 35.1993 635.987 Z" fill="#000000" fill-rule="nonzero" fill-opacity="1" /><path clip-path="url(#clip260)" d="M14.5426 565.454 Q21.8632 569.72 29.0246 571.788 Q36.186 573.857 43.5384 573.857 Q50.8908 573.857 58.1159 571.788 Q65.3091 569.688 72.5979 565.454 L72.5979 570.547 Q65.1182 575.321 57.8931 577.708 Q50.668 580.064 43.5384 580.064 Q36.4406 580.064 29.2474 577.708 Q22.0542 575.353 14.5426 570.547 L14.5426 565.454 Z" fill="#000000" fill-rule="nonzero" fill-opacity="1" /><path clip-path="url(#clip260)" d="M58.657 548.426 L77.5631 548.426 L77.5631 554.315 L28.3562 554.315 L28.3562 548.426 L33.7671 548.426 Q30.5842 546.58 29.0564 543.779 Q27.4968 540.947 27.4968 537.032 Q27.4968 530.539 32.6531 526.496 Q37.8093 522.422 46.212 522.422 Q54.6147 522.422 59.771 526.496 Q64.9272 530.539 64.9272 537.032 Q64.9272 540.947 63.3994 543.779 Q61.8398 546.58 58.657 548.426 M46.212 528.502 Q39.7508 528.502 36.0905 531.175 Q32.3984 533.817 32.3984 538.464 Q32.3984 543.111 36.0905 545.784 Q39.7508 548.426 46.212 548.426 Q52.6732 548.426 56.3653 545.784 Q60.0256 543.111 60.0256 538.464 Q60.0256 533.817 56.3653 531.175 Q52.6732 528.502 46.212 528.502 Z" fill="#000000" fill-rule="nonzero" fill-opacity="1" /><path clip-path="url(#clip260)" d="M14.5426 513.638 L14.5426 508.545 Q22.0542 503.771 29.2474 501.415 Q36.4406 499.028 43.5384 499.028 Q50.668 499.028 57.8931 501.415 Q65.1182 503.771 72.5979 508.545 L72.5979 513.638 Q65.3091 509.404 58.1159 507.336 Q50.8908 505.235 43.5384 505.235 Q36.186 505.235 29.0246 507.336 Q21.8632 509.404 14.5426 513.638 Z" fill="#000000" fill-rule="nonzero" fill-opacity="1" /><polyline clip-path="url(#clip262)" style="stroke:#009af9; stroke-linecap:round; stroke-linejoin:round; stroke-width:16; stroke-opacity:1; fill:none" points="1323.08,86.1857 1329.04,86.1979 1335,86.2346 1340.95,86.2958 1346.91,86.3815 1352.87,86.4917 1358.83,86.6263 1364.78,86.7854 1370.74,86.969 1376.69,87.177 1382.64,87.4095 1388.59,87.6663 1394.53,87.9477 1400.47,88.2534 1406.41,88.5836 1412.35,88.9381 1418.28,89.317 1424.21,89.7203 1430.14,90.148 1436.06,90.5999 1441.98,91.0762 1447.89,91.5768 1453.8,92.1017 1459.7,92.6508 1465.6,93.2242 1471.49,93.8217 1477.38,94.4435 1483.26,95.0894 1489.13,95.7595 1495,96.4537 1500.86,97.1721 1506.72,97.9144 1512.57,98.6809 1518.41,99.4713 1524.24,100.286 1530.07,101.124 1535.89,101.986 1541.7,102.873 1547.5,103.783 1553.3,104.716 1559.08,105.674 1564.86,106.655 1570.63,107.661 1576.38,108.689 1582.13,109.742 1587.87,110.818 1593.6,111.917 1599.32,113.04 1605.03,114.187 1610.72,115.357 1616.41,116.55 1622.09,117.767 1627.75,119.007 1633.4,120.27 1639.05,121.556 1644.67,122.866 1650.29,124.199 1655.9,125.554 1661.49,126.933 1667.07,128.335 1672.63,129.759 1678.19,131.207 1683.73,132.677 1689.25,134.17 1694.77,135.685 1700.26,137.224 1705.75,138.784 1711.22,140.368 1716.67,141.973 1722.11,143.601 1727.54,145.252 1732.95,146.924 1738.34,148.619 1743.72,150.336 1749.08,152.075 1754.43,153.836 1759.76,155.619 1765.08,157.424 1770.37,159.251 1775.65,161.099 1780.92,162.969 1786.16,164.861 1791.39,166.774 1796.6,168.708 1801.8,170.664 1806.97,172.641 1812.13,174.64 1817.27,176.659 1822.39,178.7 1827.49,180.762 1832.57,182.844 1837.63,184.948 1842.68,187.072 1847.7,189.217 1852.7,191.382 1857.69,193.568 1862.65,195.774 1867.59,198.001 1872.52,200.248 1877.42,202.515 1882.3,204.802 1887.16,207.11 1892,209.437 1896.82,211.784 1901.61,214.151 1906.39,216.537 1911.14,218.943 1915.87,221.369 1920.58,223.814 1925.26,226.278 1929.92,228.761 1934.56,231.263 1939.18,233.785 1943.77,236.325 1948.34,238.885 1952.89,241.462 1957.41,244.059 1961.91,246.674 1966.38,249.308 1970.83,251.959 1975.26,254.629 1979.66,257.318 1984.03,260.024 1988.38,262.748 1992.71,265.49 1997.01,268.25 2001.29,271.027 2005.54,273.822 2009.76,276.634 2013.96,279.464 2018.13,282.31 2022.28,285.174 2026.4,288.055 2030.49,290.952 2034.55,293.867 2038.59,296.798 2042.61,299.745 2046.59,302.71 2050.55,305.69 2054.48,308.686 2058.38,311.699 2062.26,314.728 2066.11,317.772 2069.92,320.832 2073.72,323.908 2077.48,326.999 2081.21,330.106 2084.92,333.228 2088.6,336.365 2092.24,339.518 2095.86,342.685 2099.45,345.867 2103.01,349.064 2106.54,352.275 2110.05,355.5 2113.52,358.74 2116.96,361.995 2120.37,365.263 2123.76,368.545 2127.11,371.841 2130.43,375.151 2133.72,378.474 2136.98,381.811 2140.21,385.161 2143.41,388.525 2146.58,391.901 2149.71,395.291 2152.82,398.693 2155.89,402.108 2158.94,405.535 2161.95,408.975 2164.93,412.427 2167.88,415.892 2170.79,419.368 2173.68,422.856 2176.53,426.357 2179.35,429.868 2182.14,433.392 2184.89,436.926 2187.62,440.472 2190.31,444.029 2192.96,447.597 2195.59,451.176 2198.18,454.766 2200.74,458.366 2203.27,461.977 2205.76,465.598 2208.22,469.229 2210.64,472.87 2213.04,476.521 2215.39,480.182 2217.72,483.852 2220.01,487.532 2222.27,491.221 2224.49,494.92 2226.68,498.627 2228.84,502.344 2230.96,506.069 2233.05,509.803 2235.1,513.545 2237.12,517.296 2239.1,521.055 2241.05,524.822 2242.96,528.597 2244.84,532.38 2246.69,536.17 2248.5,539.968 2250.28,543.773 2252.02,547.586 2253.72,551.405 2255.39,555.232 2257.03,559.065 2258.63,562.905 2260.19,566.751 2261.72,570.604 2263.21,574.463 2264.67,578.328 2266.1,582.199 2267.48,586.076 2268.83,589.959 2270.15,593.846 2271.43,597.74 2272.68,601.638 2273.88,605.542 2275.06,609.45 2276.19,613.363 2277.29,617.281 2278.36,621.203 2279.39,625.129 2280.38,629.06 2281.34,632.994 2282.26,636.933 2283.14,640.875 2283.99,644.821 2284.8,648.77 2285.58,652.722 2286.32,656.677 2287.02,660.636 2287.69,664.597 2288.32,668.561 2288.91,672.528 2289.47,676.496 2289.99,680.467 2290.48,684.44 2290.92,688.415 2291.33,692.392 2291.71,696.371 2292.05,700.35 2292.35,704.332 2292.62,708.314 2292.84,712.297 2293.04,716.281 2293.19,720.266 2293.31,724.252 2293.39,728.238 2293.44,732.224 2293.45,736.21 2293.42,740.196 2293.36,744.182 2293.26,748.168 2293.12,752.153 2292.94,756.138 2292.73,760.122 2292.49,764.105 2292.2,768.086 2291.88,772.067 2291.53,776.046 2291.13,780.023 2290.7,783.999 2290.24,787.973 2289.73,791.945 2289.2,795.915 2288.62,799.883 2288.01,803.848 2287.36,807.811 2286.67,811.771 2285.95,815.728 2285.2,819.682 2284.4,823.632 2283.57,827.58 2282.71,831.524 2281.8,835.464 2280.86,839.401 2279.89,843.333 2278.88,847.262 2277.83,851.186 2276.75,855.106 2275.63,859.021 2274.48,862.932 2273.28,866.838 2272.06,870.739 2270.8,874.635 2269.5,878.525 2268.16,882.41 2266.79,886.29 2265.39,890.164 2263.95,894.032 2262.47,897.894 2260.96,901.75 2259.41,905.6 2257.83,909.443 2256.21,913.279 2254.56,917.109 2252.87,920.932 2251.15,924.749 2249.39,928.557 2247.6,932.359 2245.77,936.153 2243.91,939.94 2242.01,943.719 2240.08,947.49 2238.11,951.253 2236.11,955.008 2234.08,958.754 2232.01,962.492 2229.9,966.222 2227.76,969.943 2225.59,973.655 2223.38,977.358 2221.14,981.052 2218.87,984.736 2216.56,988.411 2214.22,992.077 2211.84,995.733 2209.43,999.379 2206.99,1003.02 2204.52,1006.64 2202.01,1010.26 2199.46,1013.86 2196.89,1017.46 2194.28,1021.04 2191.64,1024.62 2188.97,1028.18 2186.26,1031.73 2183.52,1035.27 2180.75,1038.8 2177.94,1042.32 2175.11,1045.82 2172.24,1049.32 2169.34,1052.8 2166.41,1056.27 2163.44,1059.73 2160.45,1063.17 2157.42,1066.61 2154.36,1070.03 2151.27,1073.44 2148.15,1076.83 2145,1080.22 2141.81,1083.59 2138.6,1086.94 2135.35,1090.29 2132.08,1093.62 2128.77,1096.93 2125.43,1100.24 2122.07,1103.52 2118.67,1106.8 2115.24,1110.06 2111.79,1113.31 2108.3,1116.54 2104.78,1119.76 2101.24,1122.96 2097.66,1126.15 2094.06,1129.33 2090.42,1132.49 2086.76,1135.63 2083.07,1138.76 2079.35,1141.88 2075.6,1144.98 2071.82,1148.06 2068.02,1151.13 2064.19,1154.18 2060.32,1157.22 2056.43,1160.24 2052.52,1163.24 2048.57,1166.23 2044.6,1169.2 2040.6,1172.16 2036.58,1175.1 2032.52,1178.02 2028.45,1180.93 2024.34,1183.81 2020.21,1186.69 2016.05,1189.54 2011.86,1192.38 2007.65,1195.2 2003.41,1198 1999.15,1200.79 1994.86,1203.56 1990.55,1206.31 1986.21,1209.04 1981.85,1211.76 1977.46,1214.46 1973.05,1217.13 1968.61,1219.8 1964.15,1222.44 1959.66,1225.06 1955.15,1227.67 1950.62,1230.26 1946.06,1232.82 1941.48,1235.37 1936.87,1237.91 1932.24,1240.42 1927.59,1242.91 1922.92,1245.38 1918.22,1247.84 1913.51,1250.27 1908.76,1252.69 1904,1255.09 1899.22,1257.46 1894.41,1259.82 1889.58,1262.16 1884.73,1264.47 1879.86,1266.77 1874.97,1269.05 1870.06,1271.31 1865.12,1273.54 1860.17,1275.76 1855.2,1277.95 1850.2,1280.13 1845.19,1282.29 1840.16,1284.42 1835.1,1286.53 1830.03,1288.63 1824.94,1290.7 1819.83,1292.75 1814.7,1294.78 1809.55,1296.79 1804.39,1298.78 1799.2,1300.74 1794,1302.69 1788.78,1304.61 1783.54,1306.52 1778.29,1308.4 1773.02,1310.25 1767.73,1312.09 1762.42,1313.91 1757.1,1315.7 1751.76,1317.47 1746.4,1319.22 1741.03,1320.95 1735.65,1322.66 1730.24,1324.34 1724.83,1326 1719.39,1327.64 1713.95,1329.26 1708.48,1330.85 1703.01,1332.43 1697.52,1333.98 1692.01,1335.5 1686.49,1337.01 1680.96,1338.49 1675.41,1339.95 1669.85,1341.38 1664.28,1342.8 1658.69,1344.19 1653.1,1345.55 1647.48,1346.9 1641.86,1348.22 1636.23,1349.52 1630.58,1350.79 1624.92,1352.04 1619.25,1353.27 1613.57,1354.48 1607.88,1355.66 1602.17,1356.82 1596.46,1357.95 1590.74,1359.06 1585,1360.15 1579.26,1361.21 1573.51,1362.26 1567.74,1363.27 1561.97,1364.27 1556.19,1365.23 1550.4,1366.18 1544.6,1367.1 1538.8,1368 1532.98,1368.87 1527.16,1369.73 1521.33,1370.55 1515.49,1371.35 1509.65,1372.13 1503.79,1372.89 1497.93,1373.62 1492.07,1374.32 1486.2,1375.01 1480.32,1375.66 1474.43,1376.3 1468.54,1376.91 1462.65,1377.49 1456.75,1378.05 1450.84,1378.59 1444.93,1379.1 1439.02,1379.59 1433.1,1380.06 1427.17,1380.5 1421.25,1380.91 1415.32,1381.3 1409.38,1381.67 1403.44,1382.01 1397.5,1382.33 1391.56,1382.62 1385.61,1382.89 1379.66,1383.14 1373.71,1383.36 1367.76,1383.55 1361.8,1383.72 1355.85,1383.87 1349.89,1383.99 1343.93,1384.09 1337.97,1384.16 1332.02,1384.21 1326.06,1384.24 1320.1,1384.24 1314.14,1384.21 1308.18,1384.16 1302.22,1384.09 1296.26,1383.99 1290.3,1383.87 1284.35,1383.72 1278.39,1383.55 1272.44,1383.36 1266.49,1383.14 1260.54,1382.89 1254.59,1382.62 1248.65,1382.33 1242.71,1382.01 1236.77,1381.67 1230.84,1381.3 1224.9,1380.91 1218.98,1380.5 1213.05,1380.06 1207.13,1379.59 1201.22,1379.1 1195.31,1378.59 1189.4,1378.05 1183.5,1377.49 1177.61,1376.91 1171.72,1376.3 1165.83,1375.66 1159.95,1375.01 1154.08,1374.32 1148.22,1373.62 1142.36,1372.89 1136.51,1372.13 1130.66,1371.35 1124.82,1370.55 1118.99,1369.73 1113.17,1368.87 1107.35,1368 1101.55,1367.1 1095.75,1366.18 1089.96,1365.23 1084.18,1364.27 1078.41,1363.27 1072.64,1362.26 1066.89,1361.21 1061.15,1360.15 1055.41,1359.06 1049.69,1357.95 1043.98,1356.82 1038.27,1355.66 1032.58,1354.48 1026.9,1353.27 1021.23,1352.04 1015.57,1350.79 1009.92,1349.52 1004.29,1348.22 998.667,1346.9 993.056,1345.55 987.457,1344.19 981.872,1342.8 976.299,1341.38 970.739,1339.95 965.192,1338.49 959.659,1337.01 954.14,1335.5 948.635,1333.98 943.143,1332.43 937.666,1330.85 932.204,1329.26 926.756,1327.64 921.324,1326 915.906,1324.34 910.504,1322.66 905.117,1320.95 899.746,1319.22 894.391,1317.47 889.053,1315.7 883.73,1313.91 878.425,1312.09 873.136,1310.25 867.864,1308.4 862.609,1306.51 857.371,1304.61 852.151,1302.69 846.949,1300.74 841.765,1298.78 836.599,1296.79 831.451,1294.78 826.322,1292.75 821.212,1290.7 816.12,1288.63 811.048,1286.53 805.995,1284.42 800.961,1282.29 795.948,1280.13 790.953,1277.95 785.98,1275.76 781.026,1273.54 776.093,1271.3 771.18,1269.05 766.289,1266.77 761.418,1264.47 756.568,1262.16 751.74,1259.82 746.934,1257.46 742.149,1255.09 737.386,1252.69 732.645,1250.27 727.926,1247.84 723.23,1245.38 718.557,1242.91 713.906,1240.42 709.278,1237.91 704.674,1235.37 700.093,1232.82 695.535,1230.26 691.001,1227.67 686.491,1225.06 682.005,1222.44 677.542,1219.8 673.105,1217.13 668.692,1214.46 664.303,1211.76 659.94,1209.04 655.601,1206.31 651.288,1203.56 646.999,1200.79 642.737,1198 638.5,1195.2 634.289,1192.38 630.104,1189.54 625.945,1186.69 621.812,1183.81 617.706,1180.93 613.626,1178.02 609.574,1175.1 605.548,1172.16 601.549,1169.2 597.577,1166.23 593.633,1163.24 589.716,1160.24 585.827,1157.22 581.966,1154.18 578.132,1151.13 574.327,1148.06 570.55,1144.98 566.802,1141.88 563.082,1138.76 559.39,1135.63 555.728,1132.49 552.094,1129.33 548.49,1126.15 544.914,1122.96 541.368,1119.76 537.852,1116.54 534.365,1113.31 530.908,1110.06 527.481,1106.8 524.083,1103.52 520.716,1100.24 517.379,1096.93 514.073,1093.62 510.797,1090.29 507.552,1086.94 504.337,1083.59 501.154,1080.22 498.001,1076.83 494.88,1073.44 491.79,1070.03 488.731,1066.61 485.703,1063.17 482.707,1059.73 479.743,1056.27 476.811,1052.8 473.911,1049.32 471.042,1045.82 468.206,1042.32 465.402,1038.8 462.63,1035.27 459.891,1031.73 457.185,1028.18 454.511,1024.62 451.87,1021.04 449.261,1017.46 446.686,1013.86 444.144,1010.26 441.635,1006.64 439.159,1003.01 436.716,999.379 434.307,995.733 431.932,992.077 429.59,988.411 427.282,984.736 425.007,981.051 422.767,977.358 420.56,973.655 418.388,969.942 416.249,966.222 414.145,962.492 412.075,958.754 410.039,955.007 408.038,951.253 406.072,947.49 404.14,943.719 402.242,939.94 400.38,936.153 398.552,932.359 396.759,928.557 395.001,924.748 393.278,920.932 391.59,917.109 389.937,913.279 388.32,909.443 386.738,905.599 385.191,901.75 383.679,897.894 382.203,894.032 380.762,890.164 379.357,886.29 377.988,882.41 376.654,878.525 375.356,874.635 374.093,870.739 372.867,866.838 371.676,862.932 370.521,859.021 369.402,855.106 368.319,851.186 367.272,847.262 366.261,843.333 365.286,839.4 364.348,835.464 363.445,831.524 362.579,827.58 361.749,823.632 360.955,819.681 360.198,815.728 359.476,811.771 358.792,807.811 358.143,803.848 357.531,799.883 356.955,795.915 356.416,791.945 355.914,787.973 355.447,783.999 355.018,780.023 354.624,776.046 354.268,772.067 353.947,768.086 353.664,764.104 353.417,760.121 353.206,756.138 353.033,752.153 352.895,748.168 352.795,744.182 352.731,740.196 352.703,736.21 352.712,732.224 352.758,728.238 352.84,724.252 352.959,720.266 353.115,716.281 353.307,712.297 353.536,708.314 353.801,704.332 354.103,700.35 354.441,696.37 354.816,692.392 355.228,688.415 355.676,684.44 356.16,680.467 356.681,676.496 357.239,672.527 357.833,668.561 358.463,664.597 359.129,660.636 359.833,656.677 360.572,652.722 361.348,648.77 362.16,644.82 363.008,640.875 363.892,636.932 364.813,632.994 365.769,629.059 366.762,625.129 367.791,621.203 368.856,617.281 369.957,613.363 371.094,609.45 372.267,605.541 373.476,601.638 374.72,597.74 376,593.846 377.316,589.959 378.668,586.076 380.055,582.199 381.478,578.328 382.937,574.463 384.431,570.604 385.96,566.752 387.525,562.905 389.124,559.065 390.76,555.232 392.43,551.405 394.135,547.586 395.876,543.773 397.651,539.968 399.462,536.17 401.307,532.38 403.187,528.597 405.101,524.822 407.051,521.055 409.035,517.296 411.053,513.545 413.106,509.803 415.193,506.069 417.314,502.343 419.47,498.627 421.659,494.92 423.883,491.221 426.14,487.532 428.432,483.852 430.757,480.182 433.115,476.521 435.508,472.87 437.934,469.228 440.393,465.598 442.885,461.976 445.411,458.366 447.97,454.766 450.562,451.176 453.186,447.597 455.844,444.029 458.534,440.472 461.257,436.926 464.012,433.392 466.8,429.868 469.62,426.356 472.473,422.856 475.357,419.368 478.273,415.891 481.221,412.427 484.201,408.975 487.213,405.535 490.256,402.108 493.331,398.693 496.437,395.29 499.574,391.901 502.742,388.525 505.941,385.161 509.171,381.811 512.431,378.474 515.723,375.151 519.044,371.841 522.396,368.545 525.778,365.263 529.19,361.995 532.633,358.74 536.105,355.5 539.606,352.275 543.138,349.063 546.698,345.867 550.288,342.685 553.907,339.518 557.556,336.365 561.232,333.228 564.938,330.106 568.672,326.999 572.435,323.908 576.226,320.832 580.046,317.772 583.893,314.727 587.768,311.699 591.671,308.686 595.602,305.69 599.56,302.709 603.545,299.745 607.557,296.798 611.597,293.867 615.663,290.952 619.756,288.055 623.875,285.174 628.021,282.31 632.193,279.463 636.392,276.634 640.615,273.822 644.865,271.027 649.14,268.25 653.441,265.49 657.767,262.748 662.118,260.024 666.494,257.318 670.895,254.629 675.321,251.959 679.771,249.307 684.245,246.674 688.743,244.059 693.265,241.462 697.811,238.884 702.381,236.325 706.973,233.785 711.59,231.263 716.229,228.761 720.891,226.278 725.576,223.814 730.283,221.369 735.013,218.943 739.765,216.537 744.539,214.151 749.334,211.784 754.152,209.437 758.991,207.11 763.851,204.802 768.732,202.515 773.634,200.248 778.557,198.001 783.501,195.774 788.464,193.568 793.448,191.382 798.452,189.216 803.476,187.072 808.519,184.947 813.582,182.844 818.664,180.762 823.765,178.7 828.885,176.659 834.023,174.64 839.18,172.641 844.355,170.664 849.548,168.708 854.759,166.773 859.988,164.86 865.234,162.969 870.498,161.099 875.778,159.25 881.076,157.424 886.39,155.619 891.72,153.836 897.067,152.075 902.43,150.336 907.809,148.619 913.203,146.924 918.613,145.252 924.038,143.601 929.478,141.973 934.934,140.367 940.403,138.784 945.887,137.223 951.386,135.685 956.898,134.17 962.424,132.677 967.964,131.207 973.517,129.759 979.084,128.335 984.663,126.933 990.255,125.554 995.86,124.199 1001.48,122.866 1007.11,121.556 1012.75,120.27 1018.4,119.007 1024.06,117.767 1029.74,116.55 1035.43,115.357 1041.12,114.187 1046.83,113.04 1052.55,111.917 1058.28,110.818 1064.02,109.742 1069.77,108.689 1075.52,107.661 1081.29,106.655 1087.07,105.674 1092.85,104.716 1098.65,103.783 1104.45,102.873 1110.26,101.986 1116.08,101.124 1121.91,100.286 1127.74,99.4713 1133.58,98.6808 1139.43,97.9144 1145.29,97.172 1151.15,96.4537 1157.02,95.7595 1162.89,95.0894 1168.77,94.4435 1174.66,93.8217 1180.55,93.2241 1186.45,92.6507 1192.36,92.1016 1198.26,91.5767 1204.18,91.0762 1210.09,90.5999 1216.01,90.148 1221.94,89.7203 1227.87,89.317 1233.8,88.9381 1239.74,88.5836 1245.68,88.2534 1251.62,87.9477 1257.57,87.6663 1263.51,87.4094 1269.46,87.177 1275.42,86.969 1281.37,86.7854 1287.32,86.6263 1293.28,86.4917 1299.24,86.3815 1305.2,86.2958 1311.16,86.2346 1317.12,86.1979 1323.08,86.1857 "/>
<polyline clip-path="url(#clip262)" style="stroke:#e26f46; stroke-linecap:round; stroke-linejoin:round; stroke-width:16; stroke-opacity:1; fill:none" points="1323.08,86.1857 1328.84,86.2442 1334.58,86.3499 1340.32,86.4712 1346.06,86.6193 1351.82,86.8426 1357.6,87.1333 1363.39,87.4716 1369.19,87.8263 1374.9,88.177 1380.63,88.5857 1386.46,89.0745 1392.34,89.599 1398.19,90.1957 1404.03,90.818 1409.88,91.427 1415.68,92.0507 1421.4,92.7065 1427.19,93.3133 1433.13,93.8333 1439.2,94.2812 1445.29,94.7239 1451.25,95.2637 1457.13,95.8861 1462.99,96.5992 1468.82,97.3457 1474.62,97.991 1480.4,98.5439 1486.16,99.0775 1491.91,99.6323 1497.63,100.223 1503.35,100.836 1509.07,101.47 1514.79,102.167 1520.5,102.88 1526.19,103.577 1531.87,104.245 1537.54,104.894 1543.19,105.552 1548.85,106.271 1554.48,107.139 1560.07,108.142 1565.64,109.179 1571.2,110.188 1576.76,111.152 1582.33,112.097 1587.9,113.09 1593.46,114.132 1599.01,115.193 1604.55,116.301 1610.07,117.471 1615.58,118.707 1621.07,120 1626.55,121.328 1632.02,122.657 1637.5,123.874 1642.96,124.96 1648.39,126.029 1653.77,127.171 1659.09,128.445 1664.35,129.888 1669.56,131.509 1674.71,133.289 1679.83,135.186 1684.94,137.129 1690.06,139.071 1695.21,141.105 1700.36,143.154 1705.49,145.152 1710.58,147.058 1715.63,148.865 1720.64,150.589 1725.61,152.278 1730.56,154.01 1735.51,155.888 1740.48,158.019 1745.45,160.264 1750.39,162.492 1755.29,164.631 1760.16,166.648 1764.99,168.543 1769.79,170.353 1774.58,172.152 1779.36,174.05 1784.17,176.179 1788.93,178.45 1793.66,180.754 1798.39,183.047 1803.11,185.303 1807.86,187.511 1812.63,189.681 1817.41,191.841 1822.18,194.035 1826.94,196.327 1831.63,198.696 1836.28,201.029 1840.91,203.381 1845.57,205.796 1850.25,208.305 1854.98,210.925 1859.75,213.659 1864.54,216.497 1869.35,219.413 1874.13,222.371 1878.87,225.289 1883.55,228.133 1888.14,230.919 1892.63,233.664 1897.02,236.382 1901.31,239.09 1905.52,241.803 1909.67,244.535 1913.8,247.303 1917.96,250.122 1922.19,253.006 1926.56,255.97 1931.01,258.909 1935.28,261.597 1939.52,264.264 1943.88,267.095 1948.43,270.199 1953.21,273.61 1958.18,277.282 1963.25,281.095 1968.29,284.852 1973.11,288.28 1978,291.62 1983.04,295.073 1987.93,298.47 1992.5,301.718 1996.72,304.791 2000.68,307.74 2004.64,310.683 2008.94,313.804 2013.4,316.964 2017.8,320.06 2022.18,323.131 2026.54,326.2 2030.9,329.282 2035.27,332.375 2039.61,335.47 2043.94,338.554 2048.39,341.679 2052.88,344.828 2057.35,347.973 2061.74,351.091 2065.99,354.17 2070.1,357.199 2074.05,360.179 2077.87,363.115 2081.59,366.019 2085.27,368.909 2088.97,371.813 2092.79,374.763 2096.85,377.794 2101.08,380.885 2105.26,383.979 2109.24,387.035 2112.92,390.032 2116.27,392.961 2119.32,395.835 2122.18,398.679 2125.01,401.539 2128.05,404.475 2131.46,407.532 2134.83,410.617 2138.1,413.705 2141.25,416.784 2144.3,419.847 2147.26,422.897 2150.14,425.941 2153,428.993 2155.9,432.072 2158.71,435.181 2161.19,438.292 2163.53,441.426 2165.88,444.601 2168.32,447.827 2170.92,451.112 2173.66,454.457 2176.51,457.859 2179.37,461.308 2182.09,464.792 2184.48,468.289 2186.39,471.778 2188.05,475.256 2189.59,478.742 2191.1,482.25 2192.64,485.791 2194.25,489.369 2195.95,492.983 2197.73,496.628 2199.55,500.293 2201.37,503.962 2203.13,507.627 2204.86,511.296 2206.58,514.974 2208.31,518.664 2210.04,522.366 2211.8,526.081 2213.57,529.808 2215.37,533.545 2217.17,537.288 2218.98,541.032 2220.78,544.772 2222.55,548.5 2224.28,552.209 2225.87,555.92 2227.3,559.655 2228.66,563.406 2229.99,567.169 2231.34,570.94 2232.74,574.716 2234.21,578.496 2235.74,582.279 2237.33,586.065 2238.95,589.855 2240.57,593.651 2242.14,597.457 2243.6,601.276 2244.86,605.115 2245.92,608.982 2246.83,612.878 2247.62,616.794 2248.32,620.725 2248.95,624.664 2249.54,628.608 2250.09,632.551 2250.62,636.493 2251.14,640.431 2251.66,644.365 2252.17,648.296 2252.68,652.226 2253.19,656.157 2253.72,660.097 2254.28,664.048 2254.85,668.009 2255.42,671.979 2255.97,675.959 2256.5,679.946 2256.99,683.941 2257.43,687.942 2257.83,691.949 2258.18,695.961 2258.48,699.977 2258.72,703.997 2258.92,708.021 2259.07,712.047 2259.18,716.076 2259.26,720.105 2259.32,724.137 2259.37,728.168 2259.49,732.204 2259.71,736.243 2259.96,740.284 2260.21,744.323 2260.43,748.359 2260.57,752.39 2260.62,756.414 2260.57,760.43 2260.39,764.437 2260.1,768.435 2259.68,772.423 2259.16,776.402 2258.55,780.372 2257.88,784.333 2257.17,788.288 2256.47,792.236 2255.81,796.18 2255.26,800.123 2254.82,804.062 2254.41,807.99 2253.97,811.909 2253.46,815.821 2252.84,819.726 2252.1,823.626 2251.22,827.521 2250.2,831.414 2249.06,835.303 2247.8,839.191 2246.47,843.075 2245.09,846.957 2243.73,850.836 2242.43,854.711 2241.27,858.582 2240.15,862.453 2238.98,866.324 2237.76,870.19 2236.51,874.048 2235.26,877.895 2233.99,881.729 2232.73,885.55 2231.46,889.359 2230.19,893.157 2228.9,896.946 2227.58,900.731 2226.22,904.515 2224.79,908.304 2223.28,912.106 2221.65,915.927 2219.97,919.757 2218.48,923.546 2217.1,927.302 2215.72,931.038 2214.26,934.762 2212.68,938.48 2210.91,942.199 2208.94,945.921 2206.77,949.645 2204.41,953.37 2201.88,957.092 2199.23,960.803 2196.54,964.497 2193.89,968.16 2191.38,971.782 2189.13,975.345 2187.18,978.86 2185.36,982.373 2183.58,985.876 2181.81,989.358 2180,992.814 2178.12,996.239 2176.14,999.633 2174.04,1003 2171.81,1006.33 2169.44,1009.65 2166.95,1012.96 2164.32,1016.26 2161.59,1019.59 2158.78,1022.94 2155.99,1026.27 2153.27,1029.53 2150.57,1032.76 2147.83,1035.98 2145.04,1039.19 2142.16,1042.43 2139.16,1045.68 2136.05,1048.97 2132.81,1052.29 2129.44,1055.65 2125.96,1059.03 2122.37,1062.44 2118.69,1065.85 2114.97,1069.25 2111.23,1072.63 2107.51,1075.96 2103.96,1079.26 2100.61,1082.54 2097.33,1085.82 2094.03,1089.08 2090.61,1092.33 2087.02,1095.57 2083.23,1098.79 2079.21,1101.99 2074.98,1105.17 2070.57,1108.34 2066.02,1111.48 2061.42,1114.61 2056.86,1117.71 2052.46,1120.8 2048.35,1123.87 2044.43,1126.98 2040.36,1130.22 2036.19,1133.5 2031.98,1136.77 2027.77,1139.98 2023.61,1143.11 2019.5,1146.12 2015.47,1149.03 2011.5,1151.83 2007.59,1154.54 2003.71,1157.2 1999.83,1159.86 1995.89,1162.58 1991.85,1165.42 1987.75,1168.34 1983.77,1171.08 1979.82,1173.72 1975.8,1176.35 1971.63,1179.03 1967.28,1181.83 1962.71,1184.76 1957.91,1187.83 1952.91,1191.03 1947.76,1194.32 1942.52,1197.65 1937.28,1200.94 1932.16,1204.1 1927.29,1207.01 1922.42,1209.88 1917.42,1212.84 1912.36,1215.85 1907.28,1218.86 1902.22,1221.85 1897.22,1224.79 1892.28,1227.67 1887.42,1230.48 1882.63,1233.21 1877.88,1235.87 1873.15,1238.47 1868.41,1241.02 1863.58,1243.55 1858.61,1246.13 1853.55,1248.74 1848.46,1251.33 1843.42,1253.89 1838.45,1256.38 1833.59,1258.81 1828.85,1261.15 1824.22,1263.4 1819.71,1265.58 1815.27,1267.69 1810.87,1269.75 1806.46,1271.77 1801.96,1273.8 1797.3,1275.87 1792.5,1277.94 1787.68,1279.96 1782.84,1281.96 1777.96,1283.96 1773.05,1285.96 1768.11,1287.99 1763.14,1290.04 1758.14,1292.1 1753.12,1294.16 1748.08,1296.2 1743.03,1298.2 1737.99,1300.12 1732.96,1301.93 1727.97,1303.62 1723,1305.26 1718.03,1306.86 1713.06,1308.43 1708.06,1309.99 1703.03,1311.53 1697.96,1313.07 1692.85,1314.62 1687.7,1316.16 1682.52,1317.71 1677.31,1319.26 1672.08,1320.79 1666.85,1322.31 1661.63,1323.79 1656.42,1325.14 1651.2,1326.33 1645.96,1327.45 1640.68,1328.54 1635.36,1329.64 1629.99,1330.79 1624.56,1332.01 1619.09,1333.31 1613.56,1334.69 1607.98,1336.14 1602.37,1337.65 1596.73,1339.18 1591.07,1340.69 1585.41,1342.13 1579.78,1343.45 1574.18,1344.56 1568.64,1345.51 1563.13,1346.44 1557.63,1347.37 1552.11,1348.31 1546.55,1349.25 1540.96,1350.19 1535.32,1351.14 1529.63,1352.08 1523.9,1353.01 1518.15,1353.93 1512.4,1354.81 1506.65,1355.66 1500.96,1356.46 1495.32,1357.2 1489.71,1357.93 1484.09,1358.66 1478.47,1359.38 1472.84,1360.07 1467.18,1360.73 1461.5,1361.37 1455.8,1361.97 1450.08,1362.53 1444.33,1363.05 1438.55,1363.53 1432.77,1363.97 1426.97,1364.38 1421.17,1364.74 1415.36,1365.08 1409.49,1365.38 1403.56,1365.67 1397.62,1365.93 1391.68,1366.18 1385.77,1366.42 1379.88,1366.65 1374.05,1366.86 1368.26,1367.06 1362.52,1367.24 1356.82,1367.41 1351.16,1367.55 1345.53,1367.66 1339.9,1367.74 1334.26,1367.77 1328.58,1367.75 1322.83,1367.67 1317.06,1367.54 1311.3,1367.39 1305.54,1367.22 1299.78,1367.06 1294.02,1366.9 1288.26,1366.75 1282.5,1366.6 1276.73,1366.45 1270.97,1366.3 1265.22,1366.12 1259.48,1365.91 1253.75,1365.65 1248.04,1365.24 1242.31,1364.71 1236.58,1364.11 1230.84,1363.53 1225.09,1363 1219.32,1362.57 1213.55,1362.26 1207.76,1362.08 1201.96,1362.02 1196.15,1362.06 1190.34,1362.17 1184.52,1362.29 1178.71,1362.38 1172.89,1362.34 1167.09,1362.09 1161.3,1361.61 1155.51,1361.11 1149.74,1360.61 1143.98,1360.1 1138.23,1359.58 1132.51,1359.04 1126.8,1358.49 1121.12,1357.92 1115.45,1357.34 1109.79,1356.74 1104.15,1356.13 1098.51,1355.5 1092.88,1354.87 1087.24,1354.22 1081.62,1353.48 1076.02,1352.7 1070.43,1351.91 1064.86,1351.14 1059.31,1350.43 1053.77,1349.8 1048.25,1349.25 1042.75,1348.79 1037.26,1348.42 1031.79,1348.13 1026.34,1347.9 1020.91,1347.71 1015.51,1347.52 1010.13,1347.29 1004.77,1346.98 999.449,1346.54 994.159,1345.9 988.904,1344.98 983.688,1343.73 978.471,1342.26 973.249,1340.72 968.048,1339.09 962.887,1337.4 957.78,1335.66 952.736,1333.86 947.758,1332.03 942.844,1330.15 937.986,1328.24 933.171,1326.29 928.382,1324.3 923.594,1322.28 918.779,1320.21 913.921,1318.12 909.066,1316.03 904.22,1313.95 899.385,1311.88 894.56,1309.81 889.744,1307.73 884.937,1305.65 880.138,1303.55 875.346,1301.43 870.558,1299.29 865.774,1297.13 860.991,1294.95 856.206,1292.73 851.416,1290.49 846.62,1288.22 841.812,1285.91 837,1283.6 832.216,1281.33 827.452,1279.09 822.698,1276.86 817.948,1274.63 813.194,1272.38 808.432,1270.1 803.66,1267.8 798.874,1265.45 794.076,1263.06 789.266,1260.64 784.447,1258.17 779.623,1255.67 774.799,1253.13 769.984,1250.58 765.185,1248.03 760.413,1245.48 755.678,1242.95 750.996,1240.47 746.347,1238.02 741.698,1235.58 737.066,1233.15 732.462,1230.74 727.896,1228.34 723.372,1225.97 718.894,1223.61 714.457,1221.28 710.057,1218.96 705.683,1216.67 701.324,1214.38 696.958,1212.09 692.54,1209.67 688.066,1207.12 683.546,1204.45 678.994,1201.69 674.417,1198.88 669.825,1196.03 665.225,1193.15 660.623,1190.27 656.025,1187.39 651.435,1184.52 646.855,1181.68 642.289,1178.85 637.736,1176.05 633.197,1173.27 628.669,1170.49 624.152,1167.71 619.639,1164.93 615.1,1162.1 610.5,1159.22 605.916,1156.36 601.411,1153.55 597.03,1150.83 592.801,1148.22 588.729,1145.73 584.806,1143.35 581.001,1141.05 577.266,1138.8 573.534,1136.55 569.72,1134.23 565.72,1131.78 561.417,1129.09 556.86,1126.23 552.2,1123.26 547.55,1120.25 542.989,1117.24 538.565,1114.24 534.292,1111.29 530.15,1108.37 526.088,1105.48 522.021,1102.59 517.831,1099.67 513.498,1096.68 509.489,1093.71 505.622,1090.75 501.674,1087.77 497.493,1084.77 492.999,1081.72 488.181,1078.64 483.099,1075.52 477.885,1072.38 472.741,1069.22 467.939,1066.08 463.823,1062.98 460.614,1059.94 457.893,1056.91 455.236,1053.86 452.351,1050.77 449.075,1047.62 445.374,1044.42 441.343,1041.15 437.206,1037.82 433.317,1034.45 430.158,1031.05 427.612,1027.65 425.004,1024.23 422.396,1020.82 419.835,1017.41 417.353,1014 414.963,1010.6 412.661,1007.2 410.426,1003.81 408.218,1000.42 405.998,997.032 403.819,993.675 401.676,990.335 399.555,986.996 397.442,983.644 395.329,980.268 393.209,976.863 391.08,973.426 388.941,969.956 386.798,966.457 384.655,962.937 382.523,959.406 380.414,955.879 378.345,952.373 376.334,948.908 374.285,945.471 372.15,942.032 369.981,938.582 367.822,935.113 365.705,931.622 363.653,928.105 361.678,924.563 359.784,920.997 357.963,917.409 356.198,913.806 354.463,910.196 352.721,906.587 351.054,902.982 349.572,899.372 348.233,895.756 346.999,892.131 345.84,888.497 344.726,884.855 343.637,881.204 342.554,877.546 341.467,873.884 340.367,870.219 339.254,866.556 338.13,862.898 337.004,859.25 335.889,855.619 334.804,852.008 333.826,848.408 333.061,844.779 332.394,841.135 331.722,837.49 330.966,833.855 330.071,830.238 329.01,826.644 327.775,823.072 326.388,819.522 324.891,815.987 323.353,812.458 321.867,808.923 320.55,805.365 319.544,801.765 318.885,798.111 318.144,794.44 317.419,790.769 316.849,787.104 316.53,783.453 316.512,779.816 316.805,776.192 317.374,772.577 318.14,768.962 318.982,765.338 319.736,761.688 320.192,757.997 320.187,754.251 320.049,750.486 319.896,746.709 319.769,742.923 319.691,739.13 319.663,735.333 319.666,731.534 319.676,727.738 319.777,723.97 319.935,720.221 320.09,716.475 320.209,712.724 320.281,708.961 320.32,705.187 320.366,701.409 320.481,697.636 320.754,693.884 321.294,690.175 321.954,686.499 322.615,682.829 323.322,679.15 324.102,675.454 324.964,671.739 325.897,668.006 326.873,664.261 327.89,660.519 328.945,656.786 329.998,653.058 331.016,649.329 331.979,645.598 332.88,641.864 333.721,638.125 334.517,634.382 335.294,630.638 336.087,626.894 336.947,623.156 337.901,619.42 338.908,615.684 339.931,611.949 340.944,608.216 341.933,604.485 342.895,600.756 343.84,597.03 344.79,593.305 345.778,589.581 346.848,585.857 348.052,582.13 349.336,578.403 350.693,574.686 352.145,570.986 353.702,567.307 355.365,563.652 357.124,560.025 358.962,556.424 360.848,552.847 362.744,549.29 364.601,545.748 366.36,542.213 367.972,538.703 369.5,535.235 371.029,531.793 372.628,528.362 374.345,524.931 376.214,521.494 378.246,518.046 380.436,514.583 382.76,511.107 385.175,507.621 387.622,504.132 390.019,500.651 392.321,497.198 394.565,493.772 396.793,490.361 399.039,486.961 401.331,483.564 403.688,480.167 406.124,476.768 408.645,473.364 411.25,469.957 413.93,466.547 416.671,463.137 419.451,459.733 422.24,456.34 425.159,452.937 428.257,449.51 431.419,446.078 434.55,442.654 437.582,439.249 440.466,435.872 443.177,432.528 445.715,429.218 448.098,425.944 450.373,422.701 452.603,419.482 454.88,416.279 457.315,413.079 460.042,409.866 463.22,406.624 466.684,403.387 470.178,400.198 473.739,397.045 477.393,393.916 481.153,390.805 485.025,387.705 489.003,384.614 493.07,381.531 497.202,378.455 501.36,375.391 505.498,372.344 509.584,369.323 513.669,366.346 517.729,363.422 521.737,360.56 525.676,357.762 529.534,355.03 533.306,352.362 536.999,349.752 540.622,347.191 544.195,344.67 547.745,342.172 551.305,339.68 554.918,337.174 558.632,334.629 562.504,332.02 566.599,329.315 570.932,326.537 575.416,323.755 580.006,320.97 584.662,318.18 589.352,315.386 594.048,312.589 598.73,309.792 603.383,306.996 607.998,304.206 612.573,301.425 617.109,298.66 621.618,295.917 626.114,293.202 630.629,290.502 635.215,287.747 639.845,284.952 644.49,282.144 649.127,279.342 653.736,276.562 658.305,273.816 662.825,271.111 667.292,268.451 671.707,265.833 676.077,263.252 680.414,260.698 684.733,258.157 689.057,255.61 693.412,253.035 697.83,250.403 702.347,247.683 707.008,244.83 711.807,241.843 716.688,238.786 721.606,235.71 726.522,232.659 731.405,229.668 736.235,226.76 740.997,223.95 745.686,221.244 750.306,218.637 754.868,216.113 759.392,213.651 763.905,211.216 768.444,208.765 773.047,206.209 777.702,203.383 782.4,200.412 787.135,197.426 791.9,194.533 796.693,191.817 801.509,189.335 806.346,187.117 811.202,185.172 816.075,183.481 820.965,182 825.873,180.661 830.799,179.37 835.745,178.009 840.715,176.431 845.706,174.491 850.62,172.506 855.477,170.605 860.343,168.743 865.265,166.888 870.276,165.022 875.388,163.139 880.6,161.249 885.892,159.372 891.227,157.542 896.551,155.808 901.794,154.23 906.884,152.865 911.914,151.591 916.947,150.333 922.008,149.062 927.117,147.757 932.286,146.402 937.521,144.989 942.82,143.518 948.176,141.993 953.576,140.428 958.999,138.843 964.418,137.265 969.8,135.729 975.126,134.332 980.423,133.047 985.716,131.801 991.028,130.537 996.375,129.215 1001.77,127.808 1007.22,126.305 1012.72,124.714 1018.27,123.053 1023.87,121.361 1029.49,119.688 1035.12,118.102 1040.74,116.686 1046.32,115.54 1051.84,114.602 1057.38,113.6 1062.92,112.588 1068.46,111.622 1074,110.74 1079.54,109.965 1085.07,109.306 1090.6,108.755 1096.14,108.29 1101.67,107.873 1107.21,107.451 1112.76,106.955 1118.32,106.413 1123.91,105.936 1129.53,105.515 1135.17,105.142 1140.84,104.809 1146.52,104.507 1152.23,104.231 1157.95,103.973 1163.69,103.729 1169.45,103.492 1175.21,103.259 1180.98,103.026 1186.75,102.789 1192.52,102.547 1198.29,102.297 1204.07,102.071 1209.87,101.887 1215.68,101.712 1221.47,101.52 1227.23,101.298 1232.96,101.043 1238.68,100.761 1244.38,100.471 1250.09,100.201 1255.83,99.9906 1261.65,99.8898 "/>
<path clip-path="url(#clip260)" d="M327.056 1377.32 L750.198 1377.32 L750.198 1221.8 L327.056 1221.8  Z" fill="#ffffff" fill-rule="evenodd" fill-opacity="1"/>
<polyline clip-path="url(#clip260)" style="stroke:#000000; stroke-linecap:round; stroke-linejoin:round; stroke-width:4; stroke-opacity:1; fill:none" points="327.056,1377.32 750.198,1377.32 750.198,1221.8 327.056,1221.8 327.056,1377.32 "/>
<polyline clip-path="url(#clip260)" style="stroke:#009af9; stroke-linecap:round; stroke-linejoin:round; stroke-width:16; stroke-opacity:1; fill:none" points="350.34,1273.64 490.043,1273.64 "/>
<path clip-path="url(#clip260)" d="M529.345 1259.53 Q524.253 1259.53 521.244 1263.32 Q518.258 1267.12 518.258 1273.67 Q518.258 1280.2 521.244 1283.99 Q524.253 1287.79 529.345 1287.79 Q534.438 1287.79 537.401 1283.99 Q540.387 1280.2 540.387 1273.67 Q540.387 1267.12 537.401 1263.32 Q534.438 1259.53 529.345 1259.53 M529.345 1255.73 Q536.614 1255.73 540.966 1260.61 Q545.318 1265.48 545.318 1273.67 Q545.318 1281.84 540.966 1286.73 Q536.614 1291.59 529.345 1291.59 Q522.054 1291.59 517.679 1286.73 Q513.327 1281.86 513.327 1273.67 Q513.327 1265.48 517.679 1260.61 Q522.054 1255.73 529.345 1255.73 Z" fill="#000000" fill-rule="nonzero" fill-opacity="1" /><path clip-path="url(#clip260)" d="M567.47 1268.97 Q566.753 1268.55 565.896 1268.37 Q565.063 1268.16 564.044 1268.16 Q560.433 1268.16 558.489 1270.52 Q556.568 1272.86 556.568 1277.26 L556.568 1290.92 L552.285 1290.92 L552.285 1264.99 L556.568 1264.99 L556.568 1269.02 Q557.91 1266.66 560.063 1265.52 Q562.216 1264.36 565.294 1264.36 Q565.734 1264.36 566.267 1264.43 Q566.799 1264.48 567.447 1264.6 L567.47 1268.97 Z" fill="#000000" fill-rule="nonzero" fill-opacity="1" /><path clip-path="url(#clip260)" d="M571.938 1264.99 L576.197 1264.99 L576.197 1290.92 L571.938 1290.92 L571.938 1264.99 M571.938 1254.9 L576.197 1254.9 L576.197 1260.29 L571.938 1260.29 L571.938 1254.9 Z" fill="#000000" fill-rule="nonzero" fill-opacity="1" /><path clip-path="url(#clip260)" d="M602.169 1277.65 Q602.169 1273.02 600.248 1270.48 Q598.35 1267.93 594.901 1267.93 Q591.475 1267.93 589.553 1270.48 Q587.655 1273.02 587.655 1277.65 Q587.655 1282.26 589.553 1284.8 Q591.475 1287.35 594.901 1287.35 Q598.35 1287.35 600.248 1284.8 Q602.169 1282.26 602.169 1277.65 M606.428 1287.7 Q606.428 1294.32 603.489 1297.54 Q600.549 1300.78 594.484 1300.78 Q592.239 1300.78 590.248 1300.43 Q588.257 1300.11 586.382 1299.41 L586.382 1295.27 Q588.257 1296.29 590.086 1296.77 Q591.915 1297.26 593.813 1297.26 Q598.003 1297.26 600.086 1295.06 Q602.169 1292.88 602.169 1288.46 L602.169 1286.36 Q600.85 1288.65 598.79 1289.78 Q596.729 1290.92 593.859 1290.92 Q589.091 1290.92 586.174 1287.28 Q583.257 1283.65 583.257 1277.65 Q583.257 1271.63 586.174 1268 Q589.091 1264.36 593.859 1264.36 Q596.729 1264.36 598.79 1265.5 Q600.85 1266.63 602.169 1268.92 L602.169 1264.99 L606.428 1264.99 L606.428 1287.7 Z" fill="#000000" fill-rule="nonzero" fill-opacity="1" /><path clip-path="url(#clip260)" d="M615.201 1264.99 L619.461 1264.99 L619.461 1290.92 L615.201 1290.92 L615.201 1264.99 M615.201 1254.9 L619.461 1254.9 L619.461 1260.29 L615.201 1260.29 L615.201 1254.9 Z" fill="#000000" fill-rule="nonzero" fill-opacity="1" /><path clip-path="url(#clip260)" d="M649.924 1275.27 L649.924 1290.92 L645.664 1290.92 L645.664 1275.41 Q645.664 1271.73 644.229 1269.9 Q642.794 1268.07 639.924 1268.07 Q636.475 1268.07 634.484 1270.27 Q632.493 1272.47 632.493 1276.26 L632.493 1290.92 L628.211 1290.92 L628.211 1264.99 L632.493 1264.99 L632.493 1269.02 Q634.021 1266.68 636.081 1265.52 Q638.164 1264.36 640.873 1264.36 Q645.34 1264.36 647.632 1267.14 Q649.924 1269.9 649.924 1275.27 Z" fill="#000000" fill-rule="nonzero" fill-opacity="1" /><path clip-path="url(#clip260)" d="M670.201 1277.88 Q665.039 1277.88 663.048 1279.06 Q661.058 1280.24 661.058 1283.09 Q661.058 1285.36 662.539 1286.7 Q664.044 1288.02 666.613 1288.02 Q670.155 1288.02 672.285 1285.52 Q674.437 1283 674.437 1278.83 L674.437 1277.88 L670.201 1277.88 M678.697 1276.12 L678.697 1290.92 L674.437 1290.92 L674.437 1286.98 Q672.979 1289.34 670.803 1290.48 Q668.627 1291.59 665.479 1291.59 Q661.498 1291.59 659.136 1289.36 Q656.798 1287.12 656.798 1283.37 Q656.798 1278.99 659.715 1276.77 Q662.655 1274.55 668.465 1274.55 L674.437 1274.55 L674.437 1274.13 Q674.437 1271.19 672.493 1269.6 Q670.572 1267.98 667.076 1267.98 Q664.854 1267.98 662.748 1268.51 Q660.641 1269.04 658.697 1270.11 L658.697 1266.17 Q661.035 1265.27 663.234 1264.83 Q665.433 1264.36 667.516 1264.36 Q673.141 1264.36 675.919 1267.28 Q678.697 1270.2 678.697 1276.12 Z" fill="#000000" fill-rule="nonzero" fill-opacity="1" /><path clip-path="url(#clip260)" d="M687.47 1254.9 L691.729 1254.9 L691.729 1290.92 L687.47 1290.92 L687.47 1254.9 Z" fill="#000000" fill-rule="nonzero" fill-opacity="1" /><polyline clip-path="url(#clip260)" style="stroke:#e26f46; stroke-linecap:round; stroke-linejoin:round; stroke-width:16; stroke-opacity:1; fill:none" points="350.34,1325.48 490.043,1325.48 "/>
<path clip-path="url(#clip260)" d="M518.003 1312.04 L518.003 1325.02 L523.883 1325.02 Q527.146 1325.02 528.929 1323.33 Q530.711 1321.64 530.711 1318.52 Q530.711 1315.42 528.929 1313.73 Q527.146 1312.04 523.883 1312.04 L518.003 1312.04 M513.327 1308.2 L523.883 1308.2 Q529.693 1308.2 532.656 1310.83 Q535.642 1313.45 535.642 1318.52 Q535.642 1323.64 532.656 1326.25 Q529.693 1328.87 523.883 1328.87 L518.003 1328.87 L518.003 1342.76 L513.327 1342.76 L513.327 1308.2 Z" fill="#000000" fill-rule="nonzero" fill-opacity="1" /><path clip-path="url(#clip260)" d="M555.919 1320.81 Q555.202 1320.39 554.345 1320.21 Q553.512 1320 552.493 1320 Q548.882 1320 546.938 1322.36 Q545.017 1324.7 545.017 1329.1 L545.017 1342.76 L540.734 1342.76 L540.734 1316.83 L545.017 1316.83 L545.017 1320.86 Q546.359 1318.5 548.512 1317.36 Q550.665 1316.2 553.743 1316.2 Q554.183 1316.2 554.716 1316.27 Q555.248 1316.32 555.896 1316.44 L555.919 1320.81 Z" fill="#000000" fill-rule="nonzero" fill-opacity="1" /><path clip-path="url(#clip260)" d="M581.521 1328.73 L581.521 1330.81 L561.938 1330.81 Q562.216 1335.21 564.577 1337.52 Q566.961 1339.82 571.197 1339.82 Q573.651 1339.82 575.942 1339.21 Q578.257 1338.61 580.526 1337.41 L580.526 1341.44 Q578.234 1342.41 575.827 1342.92 Q573.419 1343.43 570.942 1343.43 Q564.739 1343.43 561.105 1339.82 Q557.493 1336.2 557.493 1330.05 Q557.493 1323.68 560.919 1319.95 Q564.368 1316.2 570.202 1316.2 Q575.433 1316.2 578.466 1319.58 Q581.521 1322.94 581.521 1328.73 M577.262 1327.48 Q577.216 1323.98 575.294 1321.9 Q573.396 1319.82 570.248 1319.82 Q566.683 1319.82 564.53 1321.83 Q562.401 1323.84 562.077 1327.5 L577.262 1327.48 Z" fill="#000000" fill-rule="nonzero" fill-opacity="1" /><path clip-path="url(#clip260)" d="M605.572 1320.76 L605.572 1306.74 L609.831 1306.74 L609.831 1342.76 L605.572 1342.76 L605.572 1338.87 Q604.229 1341.18 602.169 1342.32 Q600.132 1343.43 597.262 1343.43 Q592.563 1343.43 589.6 1339.68 Q586.66 1335.93 586.66 1329.82 Q586.66 1323.7 589.6 1319.95 Q592.563 1316.2 597.262 1316.2 Q600.132 1316.2 602.169 1317.34 Q604.229 1318.45 605.572 1320.76 M591.058 1329.82 Q591.058 1334.51 592.979 1337.2 Q594.924 1339.86 598.303 1339.86 Q601.683 1339.86 603.627 1337.2 Q605.572 1334.51 605.572 1329.82 Q605.572 1325.12 603.627 1322.45 Q601.683 1319.77 598.303 1319.77 Q594.924 1319.77 592.979 1322.45 Q591.058 1325.12 591.058 1329.82 Z" fill="#000000" fill-rule="nonzero" fill-opacity="1" /><path clip-path="url(#clip260)" d="M618.604 1316.83 L622.863 1316.83 L622.863 1342.76 L618.604 1342.76 L618.604 1316.83 M618.604 1306.74 L622.863 1306.74 L622.863 1312.13 L618.604 1312.13 L618.604 1306.74 Z" fill="#000000" fill-rule="nonzero" fill-opacity="1" /><path clip-path="url(#clip260)" d="M650.433 1317.82 L650.433 1321.81 Q648.627 1320.81 646.799 1320.32 Q644.993 1319.82 643.141 1319.82 Q638.998 1319.82 636.706 1322.45 Q634.414 1325.07 634.414 1329.82 Q634.414 1334.56 636.706 1337.2 Q638.998 1339.82 643.141 1339.82 Q644.993 1339.82 646.799 1339.33 Q648.627 1338.82 650.433 1337.82 L650.433 1341.76 Q648.65 1342.59 646.729 1343.01 Q644.831 1343.43 642.678 1343.43 Q636.822 1343.43 633.373 1339.75 Q629.924 1336.07 629.924 1329.82 Q629.924 1323.47 633.396 1319.84 Q636.891 1316.2 642.956 1316.2 Q644.924 1316.2 646.799 1316.62 Q648.674 1317.01 650.433 1317.82 Z" fill="#000000" fill-rule="nonzero" fill-opacity="1" /><path clip-path="url(#clip260)" d="M662.053 1309.47 L662.053 1316.83 L670.826 1316.83 L670.826 1320.14 L662.053 1320.14 L662.053 1334.21 Q662.053 1337.38 662.91 1338.29 Q663.789 1339.19 666.451 1339.19 L670.826 1339.19 L670.826 1342.76 L666.451 1342.76 Q661.521 1342.76 659.646 1340.93 Q657.771 1339.07 657.771 1334.21 L657.771 1320.14 L654.646 1320.14 L654.646 1316.83 L657.771 1316.83 L657.771 1309.47 L662.053 1309.47 Z" fill="#000000" fill-rule="nonzero" fill-opacity="1" /><path clip-path="url(#clip260)" d="M698.604 1328.73 L698.604 1330.81 L679.021 1330.81 Q679.298 1335.21 681.659 1337.52 Q684.044 1339.82 688.28 1339.82 Q690.733 1339.82 693.025 1339.21 Q695.34 1338.61 697.608 1337.41 L697.608 1341.44 Q695.317 1342.41 692.909 1342.92 Q690.502 1343.43 688.025 1343.43 Q681.822 1343.43 678.187 1339.82 Q674.576 1336.2 674.576 1330.05 Q674.576 1323.68 678.002 1319.95 Q681.451 1316.2 687.284 1316.2 Q692.516 1316.2 695.548 1319.58 Q698.604 1322.94 698.604 1328.73 M694.345 1327.48 Q694.298 1323.98 692.377 1321.9 Q690.479 1319.82 687.331 1319.82 Q683.766 1319.82 681.613 1321.83 Q679.484 1323.84 679.159 1327.5 L694.345 1327.48 Z" fill="#000000" fill-rule="nonzero" fill-opacity="1" /><path clip-path="url(#clip260)" d="M722.655 1320.76 L722.655 1306.74 L726.914 1306.74 L726.914 1342.76 L722.655 1342.76 L722.655 1338.87 Q721.312 1341.18 719.252 1342.32 Q717.215 1343.43 714.344 1343.43 Q709.645 1343.43 706.682 1339.68 Q703.743 1335.93 703.743 1329.82 Q703.743 1323.7 706.682 1319.95 Q709.645 1316.2 714.344 1316.2 Q717.215 1316.2 719.252 1317.34 Q721.312 1318.45 722.655 1320.76 M708.141 1329.82 Q708.141 1334.51 710.062 1337.2 Q712.007 1339.86 715.386 1339.86 Q718.766 1339.86 720.71 1337.2 Q722.655 1334.51 722.655 1329.82 Q722.655 1325.12 720.71 1322.45 Q718.766 1319.77 715.386 1319.77 Q712.007 1319.77 710.062 1322.45 Q708.141 1325.12 708.141 1329.82 Z" fill="#000000" fill-rule="nonzero" fill-opacity="1" /></svg>
