<?xml version="1.0" encoding="utf-8"?>
<svg xmlns="http://www.w3.org/2000/svg" xmlns:xlink="http://www.w3.org/1999/xlink" width="600" height="400" viewBox="0 0 2400 1600">
<defs>
  <clipPath id="clip790">
    <rect x="0" y="0" width="2400" height="1600"/>
  </clipPath>
</defs>
<path clip-path="url(#clip790)" d="M0 1600 L2400 1600 L2400 0 L0 0  Z" fill="#ffffff" fill-rule="evenodd" fill-opacity="1"/>
<defs>
  <clipPath id="clip791">
    <rect x="480" y="0" width="1681" height="1600"/>
  </clipPath>
</defs>
<path clip-path="url(#clip790)" d="M178.867 1486.45 L2352.76 1486.45 L2352.76 47.2441 L178.867 47.2441  Z" fill="#ffffff" fill-rule="evenodd" fill-opacity="1"/>
<defs>
  <clipPath id="clip792">
    <rect x="178" y="47" width="2175" height="1440"/>
  </clipPath>
</defs>
<polyline clip-path="url(#clip792)" style="stroke:#000000; stroke-linecap:round; stroke-linejoin:round; stroke-width:2; stroke-opacity:0.1; fill:none" points="240.392,1486.45 240.392,47.2441 "/>
<polyline clip-path="url(#clip792)" style="stroke:#000000; stroke-linecap:round; stroke-linejoin:round; stroke-width:2; stroke-opacity:0.1; fill:none" points="924.005,1486.45 924.005,47.2441 "/>
<polyline clip-path="url(#clip792)" style="stroke:#000000; stroke-linecap:round; stroke-linejoin:round; stroke-width:2; stroke-opacity:0.1; fill:none" points="1607.62,1486.45 1607.62,47.2441 "/>
<polyline clip-path="url(#clip792)" style="stroke:#000000; stroke-linecap:round; stroke-linejoin:round; stroke-width:2; stroke-opacity:0.1; fill:none" points="2291.23,1486.45 2291.23,47.2441 "/>
<polyline clip-path="url(#clip792)" style="stroke:#000000; stroke-linecap:round; stroke-linejoin:round; stroke-width:2; stroke-opacity:0.1; fill:none" points="178.867,1426.56 2352.76,1426.56 "/>
<polyline clip-path="url(#clip792)" style="stroke:#000000; stroke-linecap:round; stroke-linejoin:round; stroke-width:2; stroke-opacity:0.1; fill:none" points="178.867,981.86 2352.76,981.86 "/>
<polyline clip-path="url(#clip792)" style="stroke:#000000; stroke-linecap:round; stroke-linejoin:round; stroke-width:2; stroke-opacity:0.1; fill:none" points="178.867,537.163 2352.76,537.163 "/>
<polyline clip-path="url(#clip792)" style="stroke:#000000; stroke-linecap:round; stroke-linejoin:round; stroke-width:2; stroke-opacity:0.1; fill:none" points="178.867,92.4651 2352.76,92.4651 "/>
<polyline clip-path="url(#clip790)" style="stroke:#000000; stroke-linecap:round; stroke-linejoin:round; stroke-width:4; stroke-opacity:1; fill:none" points="178.867,1486.45 2352.76,1486.45 "/>
<polyline clip-path="url(#clip790)" style="stroke:#000000; stroke-linecap:round; stroke-linejoin:round; stroke-width:4; stroke-opacity:1; fill:none" points="240.392,1486.45 240.392,1467.55 "/>
<polyline clip-path="url(#clip790)" style="stroke:#000000; stroke-linecap:round; stroke-linejoin:round; stroke-width:4; stroke-opacity:1; fill:none" points="924.005,1486.45 924.005,1467.55 "/>
<polyline clip-path="url(#clip790)" style="stroke:#000000; stroke-linecap:round; stroke-linejoin:round; stroke-width:4; stroke-opacity:1; fill:none" points="1607.62,1486.45 1607.62,1467.55 "/>
<polyline clip-path="url(#clip790)" style="stroke:#000000; stroke-linecap:round; stroke-linejoin:round; stroke-width:4; stroke-opacity:1; fill:none" points="2291.23,1486.45 2291.23,1467.55 "/>
<path clip-path="url(#clip790)" d="M217.776 1517.37 Q214.165 1517.37 212.336 1520.93 Q210.531 1524.47 210.531 1531.6 Q210.531 1538.71 212.336 1542.27 Q214.165 1545.82 217.776 1545.82 Q221.41 1545.82 223.216 1542.27 Q225.045 1538.71 225.045 1531.6 Q225.045 1524.47 223.216 1520.93 Q221.41 1517.37 217.776 1517.37 M217.776 1513.66 Q223.586 1513.66 226.642 1518.27 Q229.721 1522.85 229.721 1531.6 Q229.721 1540.33 226.642 1544.94 Q223.586 1549.52 217.776 1549.52 Q211.966 1549.52 208.887 1544.94 Q205.832 1540.33 205.832 1531.6 Q205.832 1522.85 208.887 1518.27 Q211.966 1513.66 217.776 1513.66 Z" fill="#000000" fill-rule="nonzero" fill-opacity="1" /><path clip-path="url(#clip790)" d="M237.938 1542.97 L242.822 1542.97 L242.822 1548.85 L237.938 1548.85 L237.938 1542.97 Z" fill="#000000" fill-rule="nonzero" fill-opacity="1" /><path clip-path="url(#clip790)" d="M263.007 1517.37 Q259.396 1517.37 257.568 1520.93 Q255.762 1524.47 255.762 1531.6 Q255.762 1538.71 257.568 1542.27 Q259.396 1545.82 263.007 1545.82 Q266.642 1545.82 268.447 1542.27 Q270.276 1538.71 270.276 1531.6 Q270.276 1524.47 268.447 1520.93 Q266.642 1517.37 263.007 1517.37 M263.007 1513.66 Q268.818 1513.66 271.873 1518.27 Q274.952 1522.85 274.952 1531.6 Q274.952 1540.33 271.873 1544.94 Q268.818 1549.52 263.007 1549.52 Q257.197 1549.52 254.119 1544.94 Q251.063 1540.33 251.063 1531.6 Q251.063 1522.85 254.119 1518.27 Q257.197 1513.66 263.007 1513.66 Z" fill="#000000" fill-rule="nonzero" fill-opacity="1" /><path clip-path="url(#clip790)" d="M901.887 1517.37 Q898.276 1517.37 896.447 1520.93 Q894.642 1524.47 894.642 1531.6 Q894.642 1538.71 896.447 1542.27 Q898.276 1545.82 901.887 1545.82 Q905.521 1545.82 907.327 1542.27 Q909.155 1538.71 909.155 1531.6 Q909.155 1524.47 907.327 1520.93 Q905.521 1517.37 901.887 1517.37 M901.887 1513.66 Q907.697 1513.66 910.753 1518.27 Q913.831 1522.85 913.831 1531.6 Q913.831 1540.33 910.753 1544.94 Q907.697 1549.52 901.887 1549.52 Q896.077 1549.52 892.998 1544.94 Q889.942 1540.33 889.942 1531.6 Q889.942 1522.85 892.998 1518.27 Q896.077 1513.66 901.887 1513.66 Z" fill="#000000" fill-rule="nonzero" fill-opacity="1" /><path clip-path="url(#clip790)" d="M922.049 1542.97 L926.933 1542.97 L926.933 1548.85 L922.049 1548.85 L922.049 1542.97 Z" fill="#000000" fill-rule="nonzero" fill-opacity="1" /><path clip-path="url(#clip790)" d="M937.164 1514.29 L955.521 1514.29 L955.521 1518.22 L941.447 1518.22 L941.447 1526.7 Q942.465 1526.35 943.484 1526.19 Q944.502 1526 945.521 1526 Q951.308 1526 954.687 1529.17 Q958.067 1532.34 958.067 1537.76 Q958.067 1543.34 954.595 1546.44 Q951.123 1549.52 944.803 1549.52 Q942.627 1549.52 940.359 1549.15 Q938.114 1548.78 935.706 1548.04 L935.706 1543.34 Q937.789 1544.47 940.012 1545.03 Q942.234 1545.58 944.711 1545.58 Q948.715 1545.58 951.053 1543.48 Q953.391 1541.37 953.391 1537.76 Q953.391 1534.15 951.053 1532.04 Q948.715 1529.94 944.711 1529.94 Q942.836 1529.94 940.961 1530.35 Q939.109 1530.77 937.164 1531.65 L937.164 1514.29 Z" fill="#000000" fill-rule="nonzero" fill-opacity="1" /><path clip-path="url(#clip790)" d="M1574.77 1544.91 L1582.41 1544.91 L1582.41 1518.55 L1574.1 1520.21 L1574.1 1515.95 L1582.36 1514.29 L1587.04 1514.29 L1587.04 1544.91 L1594.68 1544.91 L1594.68 1548.85 L1574.77 1548.85 L1574.77 1544.91 Z" fill="#000000" fill-rule="nonzero" fill-opacity="1" /><path clip-path="url(#clip790)" d="M1604.12 1542.97 L1609.01 1542.97 L1609.01 1548.85 L1604.12 1548.85 L1604.12 1542.97 Z" fill="#000000" fill-rule="nonzero" fill-opacity="1" /><path clip-path="url(#clip790)" d="M1629.19 1517.37 Q1625.58 1517.37 1623.75 1520.93 Q1621.95 1524.47 1621.95 1531.6 Q1621.95 1538.71 1623.75 1542.27 Q1625.58 1545.82 1629.19 1545.82 Q1632.83 1545.82 1634.63 1542.27 Q1636.46 1538.71 1636.46 1531.6 Q1636.46 1524.47 1634.63 1520.93 Q1632.83 1517.37 1629.19 1517.37 M1629.19 1513.66 Q1635 1513.66 1638.06 1518.27 Q1641.14 1522.85 1641.14 1531.6 Q1641.14 1540.33 1638.06 1544.94 Q1635 1549.52 1629.19 1549.52 Q1623.38 1549.52 1620.3 1544.94 Q1617.25 1540.33 1617.25 1531.6 Q1617.25 1522.85 1620.3 1518.27 Q1623.38 1513.66 1629.19 1513.66 Z" fill="#000000" fill-rule="nonzero" fill-opacity="1" /><path clip-path="url(#clip790)" d="M2258.88 1544.91 L2266.52 1544.91 L2266.52 1518.55 L2258.21 1520.21 L2258.21 1515.95 L2266.47 1514.29 L2271.15 1514.29 L2271.15 1544.91 L2278.79 1544.91 L2278.79 1548.85 L2258.88 1548.85 L2258.88 1544.91 Z" fill="#000000" fill-rule="nonzero" fill-opacity="1" /><path clip-path="url(#clip790)" d="M2288.23 1542.97 L2293.12 1542.97 L2293.12 1548.85 L2288.23 1548.85 L2288.23 1542.97 Z" fill="#000000" fill-rule="nonzero" fill-opacity="1" /><path clip-path="url(#clip790)" d="M2303.35 1514.29 L2321.71 1514.29 L2321.71 1518.22 L2307.63 1518.22 L2307.63 1526.7 Q2308.65 1526.35 2309.67 1526.19 Q2310.69 1526 2311.71 1526 Q2317.49 1526 2320.87 1529.17 Q2324.25 1532.34 2324.25 1537.76 Q2324.25 1543.34 2320.78 1546.44 Q2317.31 1549.52 2310.99 1549.52 Q2308.81 1549.52 2306.54 1549.15 Q2304.3 1548.78 2301.89 1548.04 L2301.89 1543.34 Q2303.97 1544.47 2306.2 1545.03 Q2308.42 1545.58 2310.89 1545.58 Q2314.9 1545.58 2317.24 1543.48 Q2319.58 1541.37 2319.58 1537.76 Q2319.58 1534.15 2317.24 1532.04 Q2314.9 1529.94 2310.89 1529.94 Q2309.02 1529.94 2307.15 1530.35 Q2305.29 1530.77 2303.35 1531.65 L2303.35 1514.29 Z" fill="#000000" fill-rule="nonzero" fill-opacity="1" /><polyline clip-path="url(#clip790)" style="stroke:#000000; stroke-linecap:round; stroke-linejoin:round; stroke-width:4; stroke-opacity:1; fill:none" points="178.867,1486.45 178.867,47.2441 "/>
<polyline clip-path="url(#clip790)" style="stroke:#000000; stroke-linecap:round; stroke-linejoin:round; stroke-width:4; stroke-opacity:1; fill:none" points="178.867,1426.56 197.764,1426.56 "/>
<polyline clip-path="url(#clip790)" style="stroke:#000000; stroke-linecap:round; stroke-linejoin:round; stroke-width:4; stroke-opacity:1; fill:none" points="178.867,981.86 197.764,981.86 "/>
<polyline clip-path="url(#clip790)" style="stroke:#000000; stroke-linecap:round; stroke-linejoin:round; stroke-width:4; stroke-opacity:1; fill:none" points="178.867,537.163 197.764,537.163 "/>
<polyline clip-path="url(#clip790)" style="stroke:#000000; stroke-linecap:round; stroke-linejoin:round; stroke-width:4; stroke-opacity:1; fill:none" points="178.867,92.4651 197.764,92.4651 "/>
<path clip-path="url(#clip790)" d="M50.9921 1427.01 L80.6679 1427.01 L80.6679 1430.94 L50.9921 1430.94 L50.9921 1427.01 Z" fill="#000000" fill-rule="nonzero" fill-opacity="1" /><path clip-path="url(#clip790)" d="M91.5706 1439.9 L99.2095 1439.9 L99.2095 1413.54 L90.8993 1415.2 L90.8993 1410.94 L99.1632 1409.28 L103.839 1409.28 L103.839 1439.9 L111.478 1439.9 L111.478 1443.84 L91.5706 1443.84 L91.5706 1439.9 Z" fill="#000000" fill-rule="nonzero" fill-opacity="1" /><path clip-path="url(#clip790)" d="M130.922 1412.36 Q127.311 1412.36 125.482 1415.92 Q123.677 1419.46 123.677 1426.59 Q123.677 1433.7 125.482 1437.26 Q127.311 1440.8 130.922 1440.8 Q134.556 1440.8 136.362 1437.26 Q138.191 1433.7 138.191 1426.59 Q138.191 1419.46 136.362 1415.92 Q134.556 1412.36 130.922 1412.36 M130.922 1408.65 Q136.732 1408.65 139.788 1413.26 Q142.867 1417.84 142.867 1426.59 Q142.867 1435.32 139.788 1439.93 Q136.732 1444.51 130.922 1444.51 Q125.112 1444.51 122.033 1439.93 Q118.978 1435.32 118.978 1426.59 Q118.978 1417.84 122.033 1413.26 Q125.112 1408.65 130.922 1408.65 Z" fill="#000000" fill-rule="nonzero" fill-opacity="1" /><path clip-path="url(#clip790)" d="M130.922 967.659 Q127.311 967.659 125.482 971.223 Q123.677 974.765 123.677 981.895 Q123.677 989.001 125.482 992.566 Q127.311 996.108 130.922 996.108 Q134.556 996.108 136.362 992.566 Q138.191 989.001 138.191 981.895 Q138.191 974.765 136.362 971.223 Q134.556 967.659 130.922 967.659 M130.922 963.955 Q136.732 963.955 139.788 968.561 Q142.867 973.145 142.867 981.895 Q142.867 990.621 139.788 995.228 Q136.732 999.811 130.922 999.811 Q125.112 999.811 122.033 995.228 Q118.978 990.621 118.978 981.895 Q118.978 973.145 122.033 968.561 Q125.112 963.955 130.922 963.955 Z" fill="#000000" fill-rule="nonzero" fill-opacity="1" /><path clip-path="url(#clip790)" d="M91.5706 550.507 L99.2095 550.507 L99.2095 524.142 L90.8993 525.808 L90.8993 521.549 L99.1632 519.883 L103.839 519.883 L103.839 550.507 L111.478 550.507 L111.478 554.443 L91.5706 554.443 L91.5706 550.507 Z" fill="#000000" fill-rule="nonzero" fill-opacity="1" /><path clip-path="url(#clip790)" d="M130.922 522.961 Q127.311 522.961 125.482 526.526 Q123.677 530.068 123.677 537.197 Q123.677 544.304 125.482 547.869 Q127.311 551.41 130.922 551.41 Q134.556 551.41 136.362 547.869 Q138.191 544.304 138.191 537.197 Q138.191 530.068 136.362 526.526 Q134.556 522.961 130.922 522.961 M130.922 519.258 Q136.732 519.258 139.788 523.864 Q142.867 528.447 142.867 537.197 Q142.867 545.924 139.788 550.531 Q136.732 555.114 130.922 555.114 Q125.112 555.114 122.033 550.531 Q118.978 545.924 118.978 537.197 Q118.978 528.447 122.033 523.864 Q125.112 519.258 130.922 519.258 Z" fill="#000000" fill-rule="nonzero" fill-opacity="1" /><path clip-path="url(#clip790)" d="M94.7882 105.81 L111.108 105.81 L111.108 109.745 L89.1632 109.745 L89.1632 105.81 Q91.8252 103.055 96.4085 98.4258 Q101.015 93.773 102.196 92.4304 Q104.441 89.9073 105.321 88.1712 Q106.223 86.4119 106.223 84.7221 Q106.223 81.9675 104.279 80.2314 Q102.358 78.4953 99.2558 78.4953 Q97.0567 78.4953 94.603 79.2592 Q92.1725 80.0231 89.3947 81.574 L89.3947 76.8518 Q92.2188 75.7176 94.6724 75.1389 Q97.1261 74.5602 99.1632 74.5602 Q104.534 74.5602 107.728 77.2453 Q110.922 79.9305 110.922 84.4212 Q110.922 86.5508 110.112 88.4721 Q109.325 90.3703 107.219 92.9628 Q106.64 93.6341 103.538 96.8517 Q100.436 100.046 94.7882 105.81 Z" fill="#000000" fill-rule="nonzero" fill-opacity="1" /><path clip-path="url(#clip790)" d="M130.922 78.2638 Q127.311 78.2638 125.482 81.8286 Q123.677 85.3703 123.677 92.4999 Q123.677 99.6063 125.482 103.171 Q127.311 106.713 130.922 106.713 Q134.556 106.713 136.362 103.171 Q138.191 99.6063 138.191 92.4999 Q138.191 85.3703 136.362 81.8286 Q134.556 78.2638 130.922 78.2638 M130.922 74.5602 Q136.732 74.5602 139.788 79.1666 Q142.867 83.7499 142.867 92.4999 Q142.867 101.227 139.788 105.833 Q136.732 110.416 130.922 110.416 Q125.112 110.416 122.033 105.833 Q118.978 101.227 118.978 92.4999 Q118.978 83.7499 122.033 79.1666 Q125.112 74.5602 130.922 74.5602 Z" fill="#000000" fill-rule="nonzero" fill-opacity="1" /><polyline clip-path="url(#clip792)" style="stroke:#009af9; stroke-linecap:round; stroke-linejoin:round; stroke-width:4; stroke-opacity:1; fill:none" points="240.392,910.323 247.251,933.667 254.11,956.599 260.969,979.818 267.828,1003 274.687,1025.69 281.546,1047.78 288.405,1068.74 295.264,1089.01 302.123,1108.85 308.982,1128.33 315.841,1147.27 322.7,1165.62 329.559,1183.22 336.418,1199.97 343.277,1216.2 350.136,1232.03 356.995,1247.41 363.854,1261.96 370.713,1275.76 377.572,1288.93 384.431,1301.47 391.29,1313.37 398.149,1324.61 405.008,1335.28 411.867,1345.42 418.726,1355.04 425.585,1364.14 432.444,1372.75 439.303,1380.91 446.162,1388.64 453.021,1395.9 459.88,1402.69 466.739,1409 473.598,1414.83 480.457,1420.16 487.316,1424.98 494.175,1429.32 501.034,1433.14 507.893,1436.44 514.752,1439.23 521.611,1441.54 528.47,1443.35 535.328,1444.64 542.188,1445.41 549.046,1445.72 555.905,1445.6 562.764,1445.05 569.623,1444.11 576.482,1442.86 583.341,1441.32 590.2,1439.49 597.059,1437.45 603.918,1435.13 610.777,1432.35 617.636,1429.12 624.495,1425.4 631.354,1421.22 638.213,1416.58 645.072,1411.48 651.931,1405.93 658.79,1399.96 665.649,1393.56 672.508,1386.76 679.367,1379.57 686.226,1372.05 693.085,1364.19 699.944,1356.02 706.803,1347.54 713.662,1338.86 720.521,1330.02 727.38,1321.01 734.239,1311.86 741.098,1302.62 747.957,1293.25 754.816,1283.78 761.675,1274.21 768.534,1264.51 775.393,1254.76 782.252,1245.06 789.111,1235.35 795.97,1225.57 802.829,1215.77 809.688,1206.04 816.547,1196.41 823.406,1186.87 830.265,1177.39 837.124,1167.97 843.983,1158.67 850.842,1149.41 857.701,1140.25 864.56,1131.21 871.419,1122.24 878.278,1113.31 885.137,1104.44 891.996,1095.67 898.855,1086.95 905.714,1078.32 912.573,1069.73 919.432,1061.22 926.291,1052.79 933.15,1044.48 940.009,1036.29 946.868,1028.22 953.727,1020.25 960.586,1012.32 967.445,1004.45 974.304,996.631 981.163,988.926 988.022,981.383 994.881,973.951 1001.74,966.622 1008.6,959.354 1015.46,952.13 1022.32,945.021 1029.18,938.02 1036.04,931.163 1042.89,924.414 1049.75,917.793 1056.61,911.265 1063.47,904.844 1070.33,898.59 1077.19,892.493 1084.05,886.447 1090.91,880.381 1097.77,874.364 1104.62,868.411 1111.48,862.511 1118.34,856.637 1125.2,850.77 1132.06,844.926 1138.92,839.086 1145.78,833.193 1152.64,827.199 1159.5,821.15 1166.36,815.128 1173.21,809.21 1180.07,803.418 1186.93,797.63 1193.79,791.781 1200.65,785.959 1207.51,780.249 1214.37,774.573 1221.23,768.983 1228.09,763.513 1234.95,758.122 1241.8,752.802 1248.66,747.56 1255.52,742.476 1262.38,737.578 1269.24,732.783 1276.1,728.074 1282.96,723.575 1289.82,719.237 1296.68,714.968 1303.54,710.807 1310.39,706.903 1317.25,703.243 1324.11,699.778 1330.97,696.463 1337.83,693.24 1344.69,690.192 1351.55,687.317 1358.41,684.586 1365.27,682.09 1372.13,679.86 1378.98,677.865 1385.84,676.133 1392.7,674.646 1399.56,673.383 1406.42,672.344 1413.28,671.534 1420.14,670.912 1427,670.522 1433.86,670.412 1440.72,670.514 1447.57,670.819 1454.43,671.293 1461.29,671.946 1468.15,672.879 1475.01,674.05 1481.87,675.427 1488.73,677.039 1495.59,678.827 1502.45,680.763 1509.31,682.882 1516.16,685.202 1523.02,687.709 1529.88,690.386 1536.74,693.189 1543.6,696.118 1550.46,699.201 1557.32,702.408 1564.18,705.714 1571.04,709.1 1577.9,712.603 1584.75,716.231 1591.61,719.978 1598.47,723.868 1605.33,727.876 1612.19,732.013 1619.05,736.239 1625.91,740.532 1632.77,744.947 1639.63,749.469 1646.49,754.064 1653.34,758.753 1660.2,763.508 1667.06,768.296 1673.92,773.122 1680.78,778.048 1687.64,783 1694.5,788.004 1701.36,793.085 1708.22,798.154 1715.08,803.18 1721.93,808.208 1728.79,813.238 1735.65,818.288 1742.51,823.334 1749.37,828.413 1756.23,833.478 1763.09,838.463 1769.95,843.387 1776.81,848.218 1783.67,853.025 1790.52,857.788 1797.38,862.51 1804.24,867.197 1811.1,871.882 1817.96,876.526 1824.82,881.051 1831.68,885.495 1838.54,889.836 1845.4,894.119 1852.26,898.327 1859.11,902.405 1865.97,906.442 1872.83,910.501 1879.69,914.53 1886.55,918.463 1893.41,922.286 1900.27,926.017 1907.13,929.692 1913.99,933.367 1920.85,937.015 1927.7,940.543 1934.56,943.904 1941.42,947.17 1948.28,950.367 1955.14,953.5 1962,956.567 1968.86,959.549 1975.72,962.435 1982.58,965.218 1989.44,967.928 1996.29,970.566 2003.15,973.075 2010.01,975.466 2016.87,977.794 2023.73,980.049 2030.59,982.173 2037.45,984.168 2044.31,986.066 2051.17,987.869 2058.02,989.601 2064.88,991.249 2071.74,992.817 2078.6,994.308 2085.46,995.715 2092.32,997.064 2099.18,998.367 2106.04,999.641 2112.9,1000.9 2119.76,1002.16 2126.61,1003.44 2133.47,1004.69 2140.33,1005.91 2147.19,1007.08 2154.05,1008.27 2160.91,1009.5 2167.77,1010.75 2174.63,1011.95 2181.49,1013.06 2188.35,1014.19 2195.2,1015.42 2202.06,1016.65 2208.92,1017.89 2215.78,1018.88 2222.64,1019.87 2229.5,1021.07 2236.36,1022.52 2243.22,1024.1 2250.08,1026.03 2256.94,1028.53 2263.79,1031.08 2270.65,1033.6 2277.51,1035.69 2284.37,1037.7 2291.23,1039.19 "/>
<polyline clip-path="url(#clip792)" style="stroke:#e26f46; stroke-linecap:round; stroke-linejoin:round; stroke-width:4; stroke-opacity:1; fill:none" points="240.392,87.9763 247.251,115.395 254.11,142.046 260.969,168.39 267.828,194.983 274.687,221.806 281.546,248.612 288.405,274.814 295.264,300.371 302.123,325.417 308.982,350.01 315.841,373.991 322.7,397.651 329.559,420.701 336.418,442.979 343.277,464.44 350.136,485.045 356.995,504.86 363.854,524.038 370.713,542.632 377.572,560.731 384.431,578.418 391.29,595.675 398.149,612.438 405.008,628.811 411.867,644.862 418.726,660.568 425.585,675.907 432.444,690.916 439.303,705.613 446.162,719.993 453.021,734.068 459.88,747.873 466.739,761.439 473.598,774.801 480.457,787.979 487.316,800.977 494.175,813.797 501.034,826.445 507.893,838.927 514.752,851.283 521.611,863.558 528.47,875.74 535.328,887.852 542.188,899.923 549.046,911.909 555.905,923.812 562.764,935.662 569.623,947.49 576.482,959.319 583.341,971.065 590.2,982.773 597.059,994.46 603.918,1006.04 610.777,1017.45 617.636,1028.71 624.495,1039.81 631.354,1050.79 638.213,1061.63 645.072,1072.3 651.931,1082.79 658.79,1093.08 665.649,1103.14 672.508,1112.91 679.367,1122.52 686.226,1132.08 693.085,1141.47 699.944,1150.66 706.803,1159.68 713.662,1168.6 720.521,1177.37 727.38,1185.94 734.239,1194.36 741.098,1202.67 747.957,1210.9 754.816,1219 761.675,1226.96 768.534,1234.83 775.393,1242.57 782.252,1250.16 789.111,1257.55 795.97,1264.74 802.829,1271.78 809.688,1278.67 816.547,1285.34 823.406,1291.83 830.265,1298.14 837.124,1304.23 843.983,1310.03 850.842,1315.5 857.701,1320.7 864.56,1325.66 871.419,1330.32 878.278,1334.71 885.137,1338.82 891.996,1342.64 898.855,1346.23 905.714,1349.57 912.573,1352.6 919.432,1355.36 926.291,1357.81 933.15,1359.91 940.009,1361.67 946.868,1363.03 953.727,1364.03 960.586,1364.66 967.445,1364.95 974.304,1364.87 981.163,1364.39 988.022,1363.53 994.881,1362.31 1001.74,1360.8 1008.6,1358.94 1015.46,1356.71 1022.32,1354.16 1029.18,1351.34 1036.04,1348.23 1042.89,1344.9 1049.75,1341.38 1056.61,1337.59 1063.47,1333.53 1070.33,1329.17 1077.19,1324.5 1084.05,1319.52 1090.91,1314.28 1097.77,1308.81 1104.62,1303.16 1111.48,1297.37 1118.34,1291.39 1125.2,1285.2 1132.06,1278.88 1138.92,1272.44 1145.78,1265.89 1152.64,1259.25 1159.5,1252.51 1166.36,1245.7 1173.21,1238.82 1180.07,1231.84 1186.93,1224.77 1193.79,1217.58 1200.65,1210.3 1207.51,1203.01 1214.37,1195.69 1221.23,1188.3 1228.09,1180.87 1234.95,1173.49 1241.8,1166.14 1248.66,1158.88 1255.52,1151.65 1262.38,1144.4 1269.24,1137.22 1276.1,1130.12 1282.96,1123.08 1289.82,1116.08 1296.68,1109.13 1303.54,1102.39 1310.39,1095.81 1317.25,1089.36 1324.11,1083.11 1330.97,1077.02 1337.83,1071.13 1344.69,1065.44 1351.55,1059.85 1358.41,1054.34 1365.27,1048.91 1372.13,1043.54 1378.98,1038.27 1385.84,1033.11 1392.7,1028.09 1399.56,1023.14 1406.42,1018.16 1413.28,1013.24 1420.14,1008.46 1427,1003.77 1433.86,999.222 1440.72,994.77 1447.57,990.377 1454.43,986.076 1461.29,981.868 1468.15,977.652 1475.01,973.461 1481.87,969.385 1488.73,965.388 1495.59,961.399 1502.45,957.385 1509.31,953.38 1516.16,949.406 1523.02,945.413 1529.88,941.38 1536.74,937.32 1543.6,933.268 1550.46,929.183 1557.32,925.059 1564.18,920.997 1571.04,917.006 1577.9,913 1584.75,908.991 1591.61,904.973 1598.47,900.977 1605.33,896.959 1612.19,892.952 1619.05,888.891 1625.91,884.792 1632.77,880.748 1639.63,876.711 1646.49,872.639 1653.34,868.585 1660.2,864.573 1667.06,860.564 1673.92,856.561 1680.78,852.586 1687.64,848.598 1694.5,844.597 1701.36,840.63 1708.22,836.71 1715.08,832.809 1721.93,828.93 1728.79,825.068 1735.65,821.265 1742.51,817.511 1749.37,813.826 1756.23,810.174 1763.09,806.515 1769.95,802.891 1776.81,799.303 1783.67,795.803 1790.52,792.413 1797.38,789.118 1804.24,785.908 1811.1,782.765 1817.96,779.701 1824.82,776.723 1831.68,773.793 1838.54,770.885 1845.4,768.045 1852.26,765.271 1859.11,762.589 1865.97,760.008 1872.83,757.443 1879.69,754.933 1886.55,752.551 1893.41,750.238 1900.27,748.018 1907.13,745.91 1913.99,743.971 1920.85,742.228 1927.7,740.622 1934.56,739.171 1941.42,737.921 1948.28,736.888 1955.14,735.961 1962,735.107 1968.86,734.321 1975.72,733.628 1982.58,733.083 1989.44,732.656 1996.29,732.346 2003.15,732.159 2010.01,732.068 2016.87,732.054 2023.73,732.058 2030.59,732.086 2037.45,732.15 2044.31,732.224 2051.17,732.304 2058.02,732.371 2064.88,732.428 2071.74,732.49 2078.6,732.559 2085.46,732.637 2092.32,732.731 2099.18,732.848 2106.04,733.001 2112.9,733.189 2119.76,733.38 2126.61,733.481 2133.47,733.495 2140.33,733.464 2147.19,733.354 2154.05,733.269 2160.91,733.202 2167.77,732.93 2174.63,732.596 2181.49,732.377 2188.35,732.182 2195.2,731.898 2202.06,731.887 2208.92,732.268 2215.78,732.976 2222.64,733.819 2229.5,735.019 2236.36,736.661 2243.22,738.443 2250.08,740.256 2256.94,742.102 2263.79,744.461 2270.65,747.304 2277.51,749.813 2284.37,752.259 2291.23,755.16 "/>
<path clip-path="url(#clip790)" d="M2010.47 250.738 L2280.29 250.738 L2280.29 95.2176 L2010.47 95.2176  Z" fill="#ffffff" fill-rule="evenodd" fill-opacity="1"/>
<polyline clip-path="url(#clip790)" style="stroke:#000000; stroke-linecap:round; stroke-linejoin:round; stroke-width:4; stroke-opacity:1; fill:none" points="2010.47,250.738 2280.29,250.738 2280.29,95.2176 2010.47,95.2176 2010.47,250.738 "/>
<polyline clip-path="url(#clip790)" style="stroke:#009af9; stroke-linecap:round; stroke-linejoin:round; stroke-width:4; stroke-opacity:1; fill:none" points="2034.63,147.058 2179.55,147.058 "/>
<path clip-path="url(#clip790)" d="M2217.55 166.745 Q2215.75 171.375 2214.03 172.787 Q2212.32 174.199 2209.45 174.199 L2206.05 174.199 L2206.05 170.634 L2208.55 170.634 Q2210.31 170.634 2211.28 169.8 Q2212.25 168.967 2213.43 165.865 L2214.19 163.921 L2203.71 138.412 L2208.22 138.412 L2216.32 158.689 L2224.43 138.412 L2228.94 138.412 L2217.55 166.745 Z" fill="#000000" fill-rule="nonzero" fill-opacity="1" /><path clip-path="url(#clip790)" d="M2236.23 160.402 L2243.87 160.402 L2243.87 134.037 L2235.56 135.703 L2235.56 131.444 L2243.82 129.778 L2248.5 129.778 L2248.5 160.402 L2256.14 160.402 L2256.14 164.338 L2236.23 164.338 L2236.23 160.402 Z" fill="#000000" fill-rule="nonzero" fill-opacity="1" /><polyline clip-path="url(#clip790)" style="stroke:#e26f46; stroke-linecap:round; stroke-linejoin:round; stroke-width:4; stroke-opacity:1; fill:none" points="2034.63,198.898 2179.55,198.898 "/>
<path clip-path="url(#clip790)" d="M2217.55 218.585 Q2215.75 223.215 2214.03 224.627 Q2212.32 226.039 2209.45 226.039 L2206.05 226.039 L2206.05 222.474 L2208.55 222.474 Q2210.31 222.474 2211.28 221.64 Q2212.25 220.807 2213.43 217.705 L2214.19 215.761 L2203.71 190.252 L2208.22 190.252 L2216.32 210.529 L2224.43 190.252 L2228.94 190.252 L2217.55 218.585 Z" fill="#000000" fill-rule="nonzero" fill-opacity="1" /><path clip-path="url(#clip790)" d="M2239.45 212.242 L2255.77 212.242 L2255.77 216.178 L2233.82 216.178 L2233.82 212.242 Q2236.49 209.488 2241.07 204.858 Q2245.68 200.205 2246.86 198.863 Q2249.1 196.34 2249.98 194.604 Q2250.88 192.844 2250.88 191.155 Q2250.88 188.4 2248.94 186.664 Q2247.02 184.928 2243.92 184.928 Q2241.72 184.928 2239.26 185.692 Q2236.83 186.455 2234.06 188.006 L2234.06 183.284 Q2236.88 182.15 2239.33 181.571 Q2241.79 180.993 2243.82 180.993 Q2249.19 180.993 2252.39 183.678 Q2255.58 186.363 2255.58 190.854 Q2255.58 192.983 2254.77 194.905 Q2253.99 196.803 2251.88 199.395 Q2251.3 200.067 2248.2 203.284 Q2245.1 206.479 2239.45 212.242 Z" fill="#000000" fill-rule="nonzero" fill-opacity="1" /></svg>
