<?xml version="1.0" encoding="utf-8"?>
<svg xmlns="http://www.w3.org/2000/svg" xmlns:xlink="http://www.w3.org/1999/xlink" width="600" height="400" viewBox="0 0 2400 1600">
<defs>
  <clipPath id="clip240">
    <rect x="0" y="0" width="2400" height="1600"/>
  </clipPath>
</defs>
<path clip-path="url(#clip240)" d="M0 1600 L2400 1600 L2400 0 L0 0  Z" fill="#ffffff" fill-rule="evenodd" fill-opacity="1"/>
<defs>
  <clipPath id="clip241">
    <rect x="480" y="0" width="1681" height="1600"/>
  </clipPath>
</defs>
<path clip-path="url(#clip240)" d="M178.867 1486.45 L2352.76 1486.45 L2352.76 47.2441 L178.867 47.2441  Z" fill="#ffffff" fill-rule="evenodd" fill-opacity="1"/>
<defs>
  <clipPath id="clip242">
    <rect x="178" y="47" width="2175" height="1440"/>
  </clipPath>
</defs>
<polyline clip-path="url(#clip242)" style="stroke:#000000; stroke-linecap:round; stroke-linejoin:round; stroke-width:2; stroke-opacity:0.1; fill:none" points="240.392,1486.45 240.392,47.2441 "/>
<polyline clip-path="url(#clip242)" style="stroke:#000000; stroke-linecap:round; stroke-linejoin:round; stroke-width:2; stroke-opacity:0.1; fill:none" points="924.005,1486.45 924.005,47.2441 "/>
<polyline clip-path="url(#clip242)" style="stroke:#000000; stroke-linecap:round; stroke-linejoin:round; stroke-width:2; stroke-opacity:0.1; fill:none" points="1607.62,1486.45 1607.62,47.2441 "/>
<polyline clip-path="url(#clip242)" style="stroke:#000000; stroke-linecap:round; stroke-linejoin:round; stroke-width:2; stroke-opacity:0.1; fill:none" points="2291.23,1486.45 2291.23,47.2441 "/>
<polyline clip-path="url(#clip240)" style="stroke:#000000; stroke-linecap:round; stroke-linejoin:round; stroke-width:4; stroke-opacity:1; fill:none" points="178.867,1486.45 2352.76,1486.45 "/>
<polyline clip-path="url(#clip240)" style="stroke:#000000; stroke-linecap:round; stroke-linejoin:round; stroke-width:4; stroke-opacity:1; fill:none" points="240.392,1486.45 240.392,1467.55 "/>
<polyline clip-path="url(#clip240)" style="stroke:#000000; stroke-linecap:round; stroke-linejoin:round; stroke-width:4; stroke-opacity:1; fill:none" points="924.005,1486.45 924.005,1467.55 "/>
<polyline clip-path="url(#clip240)" style="stroke:#000000; stroke-linecap:round; stroke-linejoin:round; stroke-width:4; stroke-opacity:1; fill:none" points="1607.62,1486.45 1607.62,1467.55 "/>
<polyline clip-path="url(#clip240)" style="stroke:#000000; stroke-linecap:round; stroke-linejoin:round; stroke-width:4; stroke-opacity:1; fill:none" points="2291.23,1486.45 2291.23,1467.55 "/>
<path clip-path="url(#clip240)" d="M217.776 1517.37 Q214.165 1517.37 212.336 1520.93 Q210.531 1524.47 210.531 1531.6 Q210.531 1538.71 212.336 1542.27 Q214.165 1545.82 217.776 1545.82 Q221.41 1545.82 223.216 1542.27 Q225.045 1538.71 225.045 1531.6 Q225.045 1524.47 223.216 1520.93 Q221.41 1517.37 217.776 1517.37 M217.776 1513.66 Q223.586 1513.66 226.642 1518.27 Q229.721 1522.85 229.721 1531.6 Q229.721 1540.33 226.642 1544.94 Q223.586 1549.52 217.776 1549.52 Q211.966 1549.52 208.887 1544.94 Q205.832 1540.33 205.832 1531.6 Q205.832 1522.85 208.887 1518.27 Q211.966 1513.66 217.776 1513.66 Z" fill="#000000" fill-rule="nonzero" fill-opacity="1" /><path clip-path="url(#clip240)" d="M237.938 1542.97 L242.822 1542.97 L242.822 1548.85 L237.938 1548.85 L237.938 1542.97 Z" fill="#000000" fill-rule="nonzero" fill-opacity="1" /><path clip-path="url(#clip240)" d="M263.007 1517.37 Q259.396 1517.37 257.568 1520.93 Q255.762 1524.47 255.762 1531.6 Q255.762 1538.71 257.568 1542.27 Q259.396 1545.82 263.007 1545.82 Q266.642 1545.82 268.447 1542.27 Q270.276 1538.71 270.276 1531.6 Q270.276 1524.47 268.447 1520.93 Q266.642 1517.37 263.007 1517.37 M263.007 1513.66 Q268.818 1513.66 271.873 1518.27 Q274.952 1522.85 274.952 1531.6 Q274.952 1540.33 271.873 1544.94 Q268.818 1549.52 263.007 1549.52 Q257.197 1549.52 254.119 1544.94 Q251.063 1540.33 251.063 1531.6 Q251.063 1522.85 254.119 1518.27 Q257.197 1513.66 263.007 1513.66 Z" fill="#000000" fill-rule="nonzero" fill-opacity="1" /><path clip-path="url(#clip240)" d="M901.887 1517.37 Q898.276 1517.37 896.447 1520.93 Q894.642 1524.47 894.642 1531.6 Q894.642 1538.71 896.447 1542.27 Q898.276 1545.82 901.887 1545.82 Q905.521 1545.82 907.327 1542.27 Q909.155 1538.71 909.155 1531.6 Q909.155 1524.47 907.327 1520.93 Q905.521 1517.37 901.887 1517.37 M901.887 1513.66 Q907.697 1513.66 910.753 1518.27 Q913.831 1522.85 913.831 1531.6 Q913.831 1540.33 910.753 1544.94 Q907.697 1549.52 901.887 1549.52 Q896.077 1549.52 892.998 1544.94 Q889.942 1540.33 889.942 1531.6 Q889.942 1522.85 892.998 1518.27 Q896.077 1513.66 901.887 1513.66 Z" fill="#000000" fill-rule="nonzero" fill-opacity="1" /><path clip-path="url(#clip240)" d="M922.049 1542.97 L926.933 1542.97 L926.933 1548.85 L922.049 1548.85 L922.049 1542.97 Z" fill="#000000" fill-rule="nonzero" fill-opacity="1" /><path clip-path="url(#clip240)" d="M937.164 1514.29 L955.521 1514.29 L955.521 1518.22 L941.447 1518.22 L941.447 1526.7 Q942.465 1526.35 943.484 1526.19 Q944.502 1526 945.521 1526 Q951.308 1526 954.687 1529.17 Q958.067 1532.34 958.067 1537.76 Q958.067 1543.34 954.595 1546.44 Q951.123 1549.52 944.803 1549.52 Q942.627 1549.52 940.359 1549.15 Q938.114 1548.78 935.706 1548.04 L935.706 1543.34 Q937.789 1544.47 940.012 1545.03 Q942.234 1545.58 944.711 1545.58 Q948.715 1545.58 951.053 1543.48 Q953.391 1541.37 953.391 1537.76 Q953.391 1534.15 951.053 1532.04 Q948.715 1529.94 944.711 1529.94 Q942.836 1529.94 940.961 1530.35 Q939.109 1530.77 937.164 1531.65 L937.164 1514.29 Z" fill="#000000" fill-rule="nonzero" fill-opacity="1" /><path clip-path="url(#clip240)" d="M1574.77 1544.91 L1582.41 1544.91 L1582.41 1518.55 L1574.1 1520.21 L1574.1 1515.95 L1582.36 1514.29 L1587.04 1514.29 L1587.04 1544.91 L1594.68 1544.91 L1594.68 1548.85 L1574.77 1548.85 L1574.77 1544.91 Z" fill="#000000" fill-rule="nonzero" fill-opacity="1" /><path clip-path="url(#clip240)" d="M1604.12 1542.97 L1609.01 1542.97 L1609.01 1548.85 L1604.12 1548.85 L1604.12 1542.97 Z" fill="#000000" fill-rule="nonzero" fill-opacity="1" /><path clip-path="url(#clip240)" d="M1629.19 1517.37 Q1625.58 1517.37 1623.75 1520.93 Q1621.95 1524.47 1621.95 1531.6 Q1621.95 1538.71 1623.75 1542.27 Q1625.58 1545.82 1629.19 1545.82 Q1632.83 1545.82 1634.63 1542.27 Q1636.46 1538.71 1636.46 1531.6 Q1636.46 1524.47 1634.63 1520.93 Q1632.83 1517.37 1629.19 1517.37 M1629.19 1513.66 Q1635 1513.66 1638.06 1518.27 Q1641.14 1522.85 1641.14 1531.6 Q1641.14 1540.33 1638.06 1544.94 Q1635 1549.52 1629.19 1549.52 Q1623.38 1549.52 1620.3 1544.94 Q1617.25 1540.33 1617.25 1531.6 Q1617.25 1522.85 1620.3 1518.27 Q1623.38 1513.66 1629.19 1513.66 Z" fill="#000000" fill-rule="nonzero" fill-opacity="1" /><path clip-path="url(#clip240)" d="M2258.88 1544.91 L2266.52 1544.91 L2266.52 1518.55 L2258.21 1520.21 L2258.21 1515.95 L2266.47 1514.29 L2271.15 1514.29 L2271.15 1544.91 L2278.79 1544.91 L2278.79 1548.85 L2258.88 1548.85 L2258.88 1544.91 Z" fill="#000000" fill-rule="nonzero" fill-opacity="1" /><path clip-path="url(#clip240)" d="M2288.23 1542.97 L2293.12 1542.97 L2293.12 1548.85 L2288.23 1548.85 L2288.23 1542.97 Z" fill="#000000" fill-rule="nonzero" fill-opacity="1" /><path clip-path="url(#clip240)" d="M2303.35 1514.29 L2321.71 1514.29 L2321.71 1518.22 L2307.63 1518.22 L2307.63 1526.7 Q2308.65 1526.35 2309.67 1526.19 Q2310.69 1526 2311.71 1526 Q2317.49 1526 2320.87 1529.17 Q2324.25 1532.34 2324.25 1537.76 Q2324.25 1543.34 2320.78 1546.44 Q2317.31 1549.52 2310.99 1549.52 Q2308.81 1549.52 2306.54 1549.15 Q2304.3 1548.78 2301.89 1548.04 L2301.89 1543.34 Q2303.97 1544.47 2306.2 1545.03 Q2308.42 1545.58 2310.89 1545.58 Q2314.9 1545.58 2317.24 1543.48 Q2319.58 1541.37 2319.58 1537.76 Q2319.58 1534.15 2317.24 1532.04 Q2314.9 1529.94 2310.89 1529.94 Q2309.02 1529.94 2307.15 1530.35 Q2305.29 1530.77 2303.35 1531.65 L2303.35 1514.29 Z" fill="#000000" fill-rule="nonzero" fill-opacity="1" /><polyline clip-path="url(#clip242)" style="stroke:#000000; stroke-linecap:round; stroke-linejoin:round; stroke-width:2; stroke-opacity:0.1; fill:none" points="178.867,1427.33 2352.76,1427.33 "/>
<polyline clip-path="url(#clip242)" style="stroke:#000000; stroke-linecap:round; stroke-linejoin:round; stroke-width:2; stroke-opacity:0.1; fill:none" points="178.867,969.196 2352.76,969.196 "/>
<polyline clip-path="url(#clip242)" style="stroke:#000000; stroke-linecap:round; stroke-linejoin:round; stroke-width:2; stroke-opacity:0.1; fill:none" points="178.867,511.058 2352.76,511.058 "/>
<polyline clip-path="url(#clip242)" style="stroke:#000000; stroke-linecap:round; stroke-linejoin:round; stroke-width:2; stroke-opacity:0.1; fill:none" points="178.867,52.921 2352.76,52.921 "/>
<polyline clip-path="url(#clip240)" style="stroke:#000000; stroke-linecap:round; stroke-linejoin:round; stroke-width:4; stroke-opacity:1; fill:none" points="178.867,1486.45 178.867,47.2441 "/>
<polyline clip-path="url(#clip240)" style="stroke:#000000; stroke-linecap:round; stroke-linejoin:round; stroke-width:4; stroke-opacity:1; fill:none" points="178.867,1427.33 197.764,1427.33 "/>
<polyline clip-path="url(#clip240)" style="stroke:#000000; stroke-linecap:round; stroke-linejoin:round; stroke-width:4; stroke-opacity:1; fill:none" points="178.867,969.196 197.764,969.196 "/>
<polyline clip-path="url(#clip240)" style="stroke:#000000; stroke-linecap:round; stroke-linejoin:round; stroke-width:4; stroke-opacity:1; fill:none" points="178.867,511.058 197.764,511.058 "/>
<polyline clip-path="url(#clip240)" style="stroke:#000000; stroke-linecap:round; stroke-linejoin:round; stroke-width:4; stroke-opacity:1; fill:none" points="178.867,52.921 197.764,52.921 "/>
<path clip-path="url(#clip240)" d="M50.9921 1427.78 L80.6679 1427.78 L80.6679 1431.72 L50.9921 1431.72 L50.9921 1427.78 Z" fill="#000000" fill-rule="nonzero" fill-opacity="1" /><path clip-path="url(#clip240)" d="M91.5706 1440.68 L99.2095 1440.68 L99.2095 1414.31 L90.8993 1415.98 L90.8993 1411.72 L99.1632 1410.05 L103.839 1410.05 L103.839 1440.68 L111.478 1440.68 L111.478 1444.61 L91.5706 1444.61 L91.5706 1440.68 Z" fill="#000000" fill-rule="nonzero" fill-opacity="1" /><path clip-path="url(#clip240)" d="M130.922 1413.13 Q127.311 1413.13 125.482 1416.7 Q123.677 1420.24 123.677 1427.37 Q123.677 1434.47 125.482 1438.04 Q127.311 1441.58 130.922 1441.58 Q134.556 1441.58 136.362 1438.04 Q138.191 1434.47 138.191 1427.37 Q138.191 1420.24 136.362 1416.7 Q134.556 1413.13 130.922 1413.13 M130.922 1409.43 Q136.732 1409.43 139.788 1414.03 Q142.867 1418.62 142.867 1427.37 Q142.867 1436.09 139.788 1440.7 Q136.732 1445.28 130.922 1445.28 Q125.112 1445.28 122.033 1440.7 Q118.978 1436.09 118.978 1427.37 Q118.978 1418.62 122.033 1414.03 Q125.112 1409.43 130.922 1409.43 Z" fill="#000000" fill-rule="nonzero" fill-opacity="1" /><path clip-path="url(#clip240)" d="M130.922 954.994 Q127.311 954.994 125.482 958.559 Q123.677 962.101 123.677 969.23 Q123.677 976.337 125.482 979.902 Q127.311 983.443 130.922 983.443 Q134.556 983.443 136.362 979.902 Q138.191 976.337 138.191 969.23 Q138.191 962.101 136.362 958.559 Q134.556 954.994 130.922 954.994 M130.922 951.291 Q136.732 951.291 139.788 955.897 Q142.867 960.48 142.867 969.23 Q142.867 977.957 139.788 982.564 Q136.732 987.147 130.922 987.147 Q125.112 987.147 122.033 982.564 Q118.978 977.957 118.978 969.23 Q118.978 960.48 122.033 955.897 Q125.112 951.291 130.922 951.291 Z" fill="#000000" fill-rule="nonzero" fill-opacity="1" /><path clip-path="url(#clip240)" d="M91.5706 524.403 L99.2095 524.403 L99.2095 498.038 L90.8993 499.704 L90.8993 495.445 L99.1632 493.778 L103.839 493.778 L103.839 524.403 L111.478 524.403 L111.478 528.338 L91.5706 528.338 L91.5706 524.403 Z" fill="#000000" fill-rule="nonzero" fill-opacity="1" /><path clip-path="url(#clip240)" d="M130.922 496.857 Q127.311 496.857 125.482 500.422 Q123.677 503.963 123.677 511.093 Q123.677 518.199 125.482 521.764 Q127.311 525.306 130.922 525.306 Q134.556 525.306 136.362 521.764 Q138.191 518.199 138.191 511.093 Q138.191 503.963 136.362 500.422 Q134.556 496.857 130.922 496.857 M130.922 493.153 Q136.732 493.153 139.788 497.76 Q142.867 502.343 142.867 511.093 Q142.867 519.82 139.788 524.426 Q136.732 529.01 130.922 529.01 Q125.112 529.01 122.033 524.426 Q118.978 519.82 118.978 511.093 Q118.978 502.343 122.033 497.76 Q125.112 493.153 130.922 493.153 Z" fill="#000000" fill-rule="nonzero" fill-opacity="1" /><path clip-path="url(#clip240)" d="M94.7882 66.2658 L111.108 66.2658 L111.108 70.201 L89.1632 70.201 L89.1632 66.2658 Q91.8252 63.5112 96.4085 58.8816 Q101.015 54.2288 102.196 52.8862 Q104.441 50.3631 105.321 48.627 Q106.223 46.8678 106.223 45.178 Q106.223 42.4233 104.279 40.6872 Q102.358 38.9511 99.2558 38.9511 Q97.0567 38.9511 94.603 39.715 Q92.1725 40.4789 89.3947 42.0298 L89.3947 37.3076 Q92.2188 36.1734 94.6724 35.5947 Q97.1261 35.016 99.1632 35.016 Q104.534 35.016 107.728 37.7011 Q110.922 40.3863 110.922 44.877 Q110.922 47.0067 110.112 48.9279 Q109.325 50.8261 107.219 53.4187 Q106.64 54.0899 103.538 57.3075 Q100.436 60.5019 94.7882 66.2658 Z" fill="#000000" fill-rule="nonzero" fill-opacity="1" /><path clip-path="url(#clip240)" d="M130.922 38.7197 Q127.311 38.7197 125.482 42.2845 Q123.677 45.8261 123.677 52.9557 Q123.677 60.0621 125.482 63.6269 Q127.311 67.1686 130.922 67.1686 Q134.556 67.1686 136.362 63.6269 Q138.191 60.0621 138.191 52.9557 Q138.191 45.8261 136.362 42.2845 Q134.556 38.7197 130.922 38.7197 M130.922 35.016 Q136.732 35.016 139.788 39.6224 Q142.867 44.2057 142.867 52.9557 Q142.867 61.6825 139.788 66.289 Q136.732 70.8723 130.922 70.8723 Q125.112 70.8723 122.033 66.289 Q118.978 61.6825 118.978 52.9557 Q118.978 44.2057 122.033 39.6224 Q125.112 35.016 130.922 35.016 Z" fill="#000000" fill-rule="nonzero" fill-opacity="1" /><polyline clip-path="url(#clip242)" style="stroke:#009af9; stroke-linecap:round; stroke-linejoin:round; stroke-width:4; stroke-opacity:1; fill:none" points="240.392,930.806 247.251,957.108 254.11,982.326 260.969,1006.39 267.828,1029.83 274.687,1052.31 281.546,1073.74 288.405,1094.32 295.264,1114.4 302.123,1134.05 308.982,1152.9 315.841,1170.68 322.7,1187.76 329.559,1204.25 336.418,1219.83 343.277,1234.65 350.136,1248.84 356.995,1262.49 363.854,1275.55 370.713,1288.03 377.572,1299.97 384.431,1311.45 391.29,1322.52 398.149,1333.17 405.008,1343.42 411.867,1353.24 418.726,1362.58 425.585,1371.47 432.444,1379.9 439.303,1387.86 446.162,1395.33 453.021,1402.29 459.88,1408.71 466.739,1414.61 473.598,1419.98 480.457,1424.82 487.316,1429.12 494.175,1432.9 501.034,1436.17 507.893,1438.93 514.752,1441.21 521.611,1443.03 528.47,1444.39 535.328,1445.28 542.188,1445.72 549.046,1445.7 555.905,1445.26 562.764,1444.36 569.623,1443.07 576.482,1441.47 583.341,1439.64 590.2,1437.66 597.059,1435.57 603.918,1433.22 610.777,1430.3 617.636,1426.81 624.495,1422.82 631.354,1418.39 638.213,1413.47 645.072,1408.07 651.931,1402.21 658.79,1395.93 665.649,1389.23 672.508,1382.09 679.367,1374.54 686.226,1366.64 693.085,1358.52 699.944,1350.15 706.803,1341.47 713.662,1332.49 720.521,1323.27 727.38,1313.86 734.239,1304.25 741.098,1294.5 747.957,1284.65 754.816,1274.73 761.675,1264.78 768.534,1254.8 775.393,1244.85 782.252,1234.93 789.111,1224.97 795.97,1214.99 802.829,1205.01 809.688,1195.02 816.547,1185.13 823.406,1175.34 830.265,1165.56 837.124,1155.84 843.983,1146.22 850.842,1136.66 857.701,1127.2 864.56,1117.89 871.419,1108.69 878.278,1099.6 885.137,1090.6 891.996,1081.72 898.855,1072.91 905.714,1064.12 912.573,1055.44 919.432,1046.86 926.291,1038.35 933.15,1029.97 940.009,1021.74 946.868,1013.68 953.727,1005.75 960.586,997.92 967.445,990.228 974.304,982.666 981.163,975.175 988.022,967.796 994.881,960.552 1001.74,953.398 1008.6,946.333 1015.46,939.402 1022.32,932.662 1029.18,926.065 1036.04,919.54 1042.89,913.107 1049.75,906.825 1056.61,900.616 1063.47,894.429 1070.33,888.305 1077.19,882.312 1084.05,876.416 1090.91,870.529 1097.77,864.616 1104.62,858.61 1111.48,852.568 1118.34,846.524 1125.2,840.52 1132.06,834.543 1138.92,828.569 1145.78,822.593 1152.64,816.669 1159.5,810.813 1166.36,805.014 1173.21,799.271 1180.07,793.526 1186.93,787.767 1193.79,782.051 1200.65,776.352 1207.51,770.712 1214.37,765.096 1221.23,759.501 1228.09,753.973 1234.95,748.483 1241.8,743.024 1248.66,737.597 1255.52,732.208 1262.38,726.888 1269.24,721.658 1276.1,716.562 1282.96,711.653 1289.82,706.864 1296.68,702.157 1303.54,697.512 1310.39,692.857 1317.25,688.214 1324.11,683.622 1330.97,679.184 1337.83,674.907 1344.69,670.788 1351.55,666.839 1358.41,663.09 1365.27,659.556 1372.13,656.322 1378.98,653.348 1385.84,650.592 1392.7,648.096 1399.56,645.919 1406.42,644.069 1413.28,642.474 1420.14,641.105 1427,640.002 1433.86,639.209 1440.72,638.742 1447.57,638.579 1454.43,638.679 1461.29,638.973 1468.15,639.464 1475.01,640.135 1481.87,640.951 1488.73,641.961 1495.59,643.201 1502.45,644.638 1509.31,646.365 1516.16,648.417 1523.02,650.769 1529.88,653.436 1536.74,656.329 1543.6,659.402 1550.46,662.713 1557.32,666.264 1564.18,669.98 1571.04,673.873 1577.9,677.916 1584.75,682.109 1591.61,686.51 1598.47,691.061 1605.33,695.699 1612.19,700.436 1619.05,705.269 1625.91,710.227 1632.77,715.313 1639.63,720.504 1646.49,725.799 1653.34,731.208 1660.2,736.691 1667.06,742.225 1673.92,747.795 1680.78,753.426 1687.64,759.151 1694.5,764.955 1701.36,770.822 1708.22,776.751 1715.08,782.754 1721.93,788.808 1728.79,794.863 1735.65,800.899 1742.51,806.91 1749.37,812.908 1756.23,818.879 1763.09,824.806 1769.95,830.652 1776.81,836.391 1783.67,842.071 1790.52,847.663 1797.38,853.108 1804.24,858.377 1811.1,863.493 1817.96,868.492 1824.82,873.487 1831.68,878.503 1838.54,883.429 1845.4,888.253 1852.26,892.944 1859.11,897.494 1865.97,901.937 1872.83,906.311 1879.69,910.52 1886.55,914.562 1893.41,918.423 1900.27,922.107 1907.13,925.66 1913.99,929.072 1920.85,932.367 1927.7,935.582 1934.56,938.702 1941.42,941.731 1948.28,944.65 1955.14,947.436 1962,950.085 1968.86,952.618 1975.72,955.037 1982.58,957.333 1989.44,959.5 1996.29,961.507 2003.15,963.355 2010.01,965.092 2016.87,966.725 2023.73,968.243 2030.59,969.687 2037.45,971.06 2044.31,972.356 2051.17,973.56 2058.02,974.672 2064.88,975.695 2071.74,976.618 2078.6,977.441 2085.46,978.175 2092.32,978.829 2099.18,979.431 2106.04,979.955 2112.9,980.42 2119.76,980.868 2126.61,981.346 2133.47,981.864 2140.33,982.443 2147.19,983.087 2154.05,983.856 2160.91,984.844 2167.77,986.106 2174.63,987.563 2181.49,989.189 2188.35,991.131 2195.2,993.192 2202.06,994.994 2208.92,996.724 2215.78,998.431 2222.64,999.798 2229.5,1000.66 2236.36,1001.33 2243.22,1002.14 2250.08,1003.37 2256.94,1004.6 2263.79,1005.8 2270.65,1007.52 2277.51,1009.76 2284.37,1012.45 2291.23,1015.37 "/>
<polyline clip-path="url(#clip242)" style="stroke:#e26f46; stroke-linecap:round; stroke-linejoin:round; stroke-width:4; stroke-opacity:1; fill:none" points="240.392,87.9763 247.251,111.693 254.11,135.273 260.969,158.457 267.828,182.045 274.687,206.476 281.546,230.635 288.405,254.67 295.264,279.115 302.123,303.249 308.982,327.195 315.841,351.19 322.7,374.693 329.559,397.836 336.418,420.746 343.277,443.03 350.136,464.631 356.995,485.655 363.854,506.062 370.713,525.803 377.572,544.913 384.431,563.404 391.29,581.323 398.149,598.703 405.008,615.484 411.867,631.652 418.726,647.294 425.585,662.497 432.444,677.305 439.303,691.751 446.162,705.859 453.021,719.647 459.88,733.14 466.739,746.367 473.598,759.358 480.457,772.153 487.316,784.805 494.175,797.348 501.034,809.8 507.893,822.161 514.752,834.47 521.611,846.803 528.47,859.163 535.328,871.5 542.188,883.789 549.046,896.002 555.905,908.164 562.764,920.292 569.623,932.405 576.482,944.471 583.341,956.522 590.2,968.573 597.059,980.564 603.918,992.372 610.777,1003.99 617.636,1015.44 624.495,1026.72 631.354,1037.93 638.213,1049.04 645.072,1059.99 651.931,1070.77 658.79,1081.38 665.649,1091.83 672.508,1102.09 679.367,1112.11 686.226,1121.94 693.085,1131.55 699.944,1140.98 706.803,1150.27 713.662,1159.4 720.521,1168.4 727.38,1177.21 734.239,1185.84 741.098,1194.28 747.957,1202.58 754.816,1210.79 761.675,1218.92 768.534,1226.96 775.393,1234.88 782.252,1242.6 789.111,1250.08 795.97,1257.44 802.829,1264.66 809.688,1271.64 816.547,1278.34 823.406,1284.78 830.265,1290.98 837.124,1296.91 843.983,1302.61 850.842,1308.16 857.701,1313.54 864.56,1318.75 871.419,1323.82 878.278,1328.64 885.137,1333.2 891.996,1337.51 898.855,1341.59 905.714,1345.47 912.573,1349.04 919.432,1352.29 926.291,1355.26 933.15,1357.9 940.009,1360.18 946.868,1362.1 953.727,1363.65 960.586,1364.77 967.445,1365.42 974.304,1365.66 981.163,1365.43 988.022,1364.77 994.881,1363.71 1001.74,1362.22 1008.6,1360.31 1015.46,1358.06 1022.32,1355.44 1029.18,1352.4 1036.04,1349.02 1042.89,1345.31 1049.75,1341.34 1056.61,1337.13 1063.47,1332.57 1070.33,1327.76 1077.19,1322.79 1084.05,1317.59 1090.91,1312.1 1097.77,1306.37 1104.62,1300.51 1111.48,1294.52 1118.34,1288.43 1125.2,1282.23 1132.06,1275.89 1138.92,1269.37 1145.78,1262.68 1152.64,1255.88 1159.5,1249.02 1166.36,1242.17 1173.21,1235.3 1180.07,1228.4 1186.93,1221.47 1193.79,1214.54 1200.65,1207.61 1207.51,1200.64 1214.37,1193.65 1221.23,1186.58 1228.09,1179.5 1234.95,1172.45 1241.8,1165.32 1248.66,1158.1 1255.52,1150.85 1262.38,1143.65 1269.24,1136.52 1276.1,1129.46 1282.96,1122.43 1289.82,1115.4 1296.68,1108.44 1303.54,1101.55 1310.39,1094.68 1317.25,1087.93 1324.11,1081.37 1330.97,1074.95 1337.83,1068.59 1344.69,1062.27 1351.55,1055.92 1358.41,1049.58 1365.27,1043.33 1372.13,1037.14 1378.98,1031.06 1385.84,1025.11 1392.7,1019.26 1399.56,1013.51 1406.42,1007.85 1413.28,1002.25 1420.14,996.795 1427,991.456 1433.86,986.179 1440.72,980.98 1447.57,975.835 1454.43,970.767 1461.29,965.834 1468.15,961.089 1475.01,956.444 1481.87,951.836 1488.73,947.293 1495.59,942.851 1502.45,938.526 1509.31,934.244 1516.16,929.982 1523.02,925.718 1529.88,921.507 1536.74,917.417 1543.6,913.373 1550.46,909.437 1557.32,905.651 1564.18,901.926 1571.04,898.155 1577.9,894.337 1584.75,890.508 1591.61,886.595 1598.47,882.598 1605.33,878.597 1612.19,874.616 1619.05,870.624 1625.91,866.554 1632.77,862.402 1639.63,858.171 1646.49,853.871 1653.34,849.542 1660.2,845.223 1667.06,840.896 1673.92,836.475 1680.78,831.97 1687.64,827.484 1694.5,823.035 1701.36,818.651 1708.22,814.305 1715.08,809.98 1721.93,805.683 1728.79,801.423 1735.65,797.185 1742.51,792.983 1749.37,788.866 1756.23,784.875 1763.09,780.968 1769.95,777.132 1776.81,773.403 1783.67,769.89 1790.52,766.494 1797.38,763.074 1804.24,759.748 1811.1,756.593 1817.96,753.604 1824.82,750.732 1831.68,747.953 1838.54,745.27 1845.4,742.692 1852.26,740.169 1859.11,737.788 1865.97,735.599 1872.83,733.582 1879.69,731.665 1886.55,729.799 1893.41,728.033 1900.27,726.391 1907.13,724.836 1913.99,723.362 1920.85,721.987 1927.7,720.692 1934.56,719.459 1941.42,718.344 1948.28,717.329 1955.14,716.338 1962,715.413 1968.86,714.573 1975.72,713.838 1982.58,713.175 1989.44,712.6 1996.29,712.117 2003.15,711.729 2010.01,711.463 2016.87,711.292 2023.73,711.216 2030.59,711.242 2037.45,711.368 2044.31,711.593 2051.17,711.922 2058.02,712.376 2064.88,712.959 2071.74,713.661 2078.6,714.471 2085.46,715.375 2092.32,716.373 2099.18,717.469 2106.04,718.675 2112.9,719.96 2119.76,721.331 2126.61,722.771 2133.47,724.263 2140.33,725.817 2147.19,727.421 2154.05,728.999 2160.91,730.479 2167.77,731.836 2174.63,732.95 2181.49,733.788 2188.35,734.486 2195.2,735.173 2202.06,735.644 2208.92,735.892 2215.78,736.065 2222.64,736.223 2229.5,735.951 2236.36,735.199 2243.22,733.864 2250.08,731.551 2256.94,728.767 2263.79,724.947 2270.65,720.567 2277.51,716.747 2284.37,712.624 2291.23,707.831 "/>
<path clip-path="url(#clip240)" d="M2010.47 250.738 L2280.29 250.738 L2280.29 95.2176 L2010.47 95.2176  Z" fill="#ffffff" fill-rule="evenodd" fill-opacity="1"/>
<polyline clip-path="url(#clip240)" style="stroke:#000000; stroke-linecap:round; stroke-linejoin:round; stroke-width:4; stroke-opacity:1; fill:none" points="2010.47,250.738 2280.29,250.738 2280.29,95.2176 2010.47,95.2176 2010.47,250.738 "/>
<polyline clip-path="url(#clip240)" style="stroke:#009af9; stroke-linecap:round; stroke-linejoin:round; stroke-width:4; stroke-opacity:1; fill:none" points="2034.63,147.058 2179.55,147.058 "/>
<path clip-path="url(#clip240)" d="M2217.55 166.745 Q2215.75 171.375 2214.03 172.787 Q2212.32 174.199 2209.45 174.199 L2206.05 174.199 L2206.05 170.634 L2208.55 170.634 Q2210.31 170.634 2211.28 169.8 Q2212.25 168.967 2213.43 165.865 L2214.19 163.921 L2203.71 138.412 L2208.22 138.412 L2216.32 158.689 L2224.43 138.412 L2228.94 138.412 L2217.55 166.745 Z" fill="#000000" fill-rule="nonzero" fill-opacity="1" /><path clip-path="url(#clip240)" d="M2236.23 160.402 L2243.87 160.402 L2243.87 134.037 L2235.56 135.703 L2235.56 131.444 L2243.82 129.778 L2248.5 129.778 L2248.5 160.402 L2256.14 160.402 L2256.14 164.338 L2236.23 164.338 L2236.23 160.402 Z" fill="#000000" fill-rule="nonzero" fill-opacity="1" /><polyline clip-path="url(#clip240)" style="stroke:#e26f46; stroke-linecap:round; stroke-linejoin:round; stroke-width:4; stroke-opacity:1; fill:none" points="2034.63,198.898 2179.55,198.898 "/>
<path clip-path="url(#clip240)" d="M2217.55 218.585 Q2215.75 223.215 2214.03 224.627 Q2212.32 226.039 2209.45 226.039 L2206.05 226.039 L2206.05 222.474 L2208.55 222.474 Q2210.31 222.474 2211.28 221.64 Q2212.25 220.807 2213.43 217.705 L2214.19 215.761 L2203.71 190.252 L2208.22 190.252 L2216.32 210.529 L2224.43 190.252 L2228.94 190.252 L2217.55 218.585 Z" fill="#000000" fill-rule="nonzero" fill-opacity="1" /><path clip-path="url(#clip240)" d="M2239.45 212.242 L2255.77 212.242 L2255.77 216.178 L2233.82 216.178 L2233.82 212.242 Q2236.49 209.488 2241.07 204.858 Q2245.68 200.205 2246.86 198.863 Q2249.1 196.34 2249.98 194.604 Q2250.88 192.844 2250.88 191.155 Q2250.88 188.4 2248.94 186.664 Q2247.02 184.928 2243.92 184.928 Q2241.72 184.928 2239.26 185.692 Q2236.83 186.455 2234.06 188.006 L2234.06 183.284 Q2236.88 182.15 2239.33 181.571 Q2241.79 180.993 2243.82 180.993 Q2249.19 180.993 2252.39 183.678 Q2255.58 186.363 2255.58 190.854 Q2255.58 192.983 2254.77 194.905 Q2253.99 196.803 2251.88 199.395 Q2251.3 200.067 2248.2 203.284 Q2245.1 206.479 2239.45 212.242 Z" fill="#000000" fill-rule="nonzero" fill-opacity="1" /></svg>
