<?xml version="1.0" encoding="utf-8"?>
<svg xmlns="http://www.w3.org/2000/svg" xmlns:xlink="http://www.w3.org/1999/xlink" width="600" height="400" viewBox="0 0 2400 1600">
<defs>
  <clipPath id="clip800">
    <rect x="0" y="0" width="2400" height="1600"/>
  </clipPath>
</defs>
<path clip-path="url(#clip800)" d="M0 1600 L2400 1600 L2400 0 L0 0  Z" fill="#ffffff" fill-rule="evenodd" fill-opacity="1"/>
<defs>
  <clipPath id="clip801">
    <rect x="480" y="0" width="1681" height="1600"/>
  </clipPath>
</defs>
<path clip-path="url(#clip800)" d="M257.204 1423.18 L2352.76 1423.18 L2352.76 47.2441 L257.204 47.2441  Z" fill="#ffffff" fill-rule="evenodd" fill-opacity="1"/>
<defs>
  <clipPath id="clip802">
    <rect x="257" y="47" width="2097" height="1377"/>
  </clipPath>
</defs>
<polyline clip-path="url(#clip802)" style="stroke:#000000; stroke-linecap:round; stroke-linejoin:round; stroke-width:2; stroke-opacity:0.1; fill:none" points="316.511,1423.18 316.511,47.2441 "/>
<polyline clip-path="url(#clip802)" style="stroke:#000000; stroke-linecap:round; stroke-linejoin:round; stroke-width:2; stroke-opacity:0.1; fill:none" points="808.244,1423.18 808.244,47.2441 "/>
<polyline clip-path="url(#clip802)" style="stroke:#000000; stroke-linecap:round; stroke-linejoin:round; stroke-width:2; stroke-opacity:0.1; fill:none" points="1299.98,1423.18 1299.98,47.2441 "/>
<polyline clip-path="url(#clip802)" style="stroke:#000000; stroke-linecap:round; stroke-linejoin:round; stroke-width:2; stroke-opacity:0.1; fill:none" points="1791.71,1423.18 1791.71,47.2441 "/>
<polyline clip-path="url(#clip802)" style="stroke:#000000; stroke-linecap:round; stroke-linejoin:round; stroke-width:2; stroke-opacity:0.1; fill:none" points="2283.45,1423.18 2283.45,47.2441 "/>
<polyline clip-path="url(#clip800)" style="stroke:#000000; stroke-linecap:round; stroke-linejoin:round; stroke-width:4; stroke-opacity:1; fill:none" points="257.204,1423.18 2352.76,1423.18 "/>
<polyline clip-path="url(#clip800)" style="stroke:#000000; stroke-linecap:round; stroke-linejoin:round; stroke-width:4; stroke-opacity:1; fill:none" points="316.511,1423.18 316.511,1404.28 "/>
<polyline clip-path="url(#clip800)" style="stroke:#000000; stroke-linecap:round; stroke-linejoin:round; stroke-width:4; stroke-opacity:1; fill:none" points="808.244,1423.18 808.244,1404.28 "/>
<polyline clip-path="url(#clip800)" style="stroke:#000000; stroke-linecap:round; stroke-linejoin:round; stroke-width:4; stroke-opacity:1; fill:none" points="1299.98,1423.18 1299.98,1404.28 "/>
<polyline clip-path="url(#clip800)" style="stroke:#000000; stroke-linecap:round; stroke-linejoin:round; stroke-width:4; stroke-opacity:1; fill:none" points="1791.71,1423.18 1791.71,1404.28 "/>
<polyline clip-path="url(#clip800)" style="stroke:#000000; stroke-linecap:round; stroke-linejoin:round; stroke-width:4; stroke-opacity:1; fill:none" points="2283.45,1423.18 2283.45,1404.28 "/>
<path clip-path="url(#clip800)" d="M263.039 1468.75 L292.715 1468.75 L292.715 1472.69 L263.039 1472.69 L263.039 1468.75 Z" fill="#000000" fill-rule="nonzero" fill-opacity="1" /><path clip-path="url(#clip800)" d="M303.617 1481.64 L311.256 1481.64 L311.256 1455.28 L302.946 1456.95 L302.946 1452.69 L311.21 1451.02 L315.886 1451.02 L315.886 1481.64 L323.525 1481.64 L323.525 1485.58 L303.617 1485.58 L303.617 1481.64 Z" fill="#000000" fill-rule="nonzero" fill-opacity="1" /><path clip-path="url(#clip800)" d="M332.969 1479.7 L337.853 1479.7 L337.853 1485.58 L332.969 1485.58 L332.969 1479.7 Z" fill="#000000" fill-rule="nonzero" fill-opacity="1" /><path clip-path="url(#clip800)" d="M358.038 1454.1 Q354.427 1454.1 352.599 1457.66 Q350.793 1461.2 350.793 1468.33 Q350.793 1475.44 352.599 1479.01 Q354.427 1482.55 358.038 1482.55 Q361.673 1482.55 363.478 1479.01 Q365.307 1475.44 365.307 1468.33 Q365.307 1461.2 363.478 1457.66 Q361.673 1454.1 358.038 1454.1 M358.038 1450.39 Q363.849 1450.39 366.904 1455 Q369.983 1459.58 369.983 1468.33 Q369.983 1477.06 366.904 1481.67 Q363.849 1486.25 358.038 1486.25 Q352.228 1486.25 349.15 1481.67 Q346.094 1477.06 346.094 1468.33 Q346.094 1459.58 349.15 1455 Q352.228 1450.39 358.038 1450.39 Z" fill="#000000" fill-rule="nonzero" fill-opacity="1" /><path clip-path="url(#clip800)" d="M755.27 1468.75 L784.946 1468.75 L784.946 1472.69 L755.27 1472.69 L755.27 1468.75 Z" fill="#000000" fill-rule="nonzero" fill-opacity="1" /><path clip-path="url(#clip800)" d="M805.038 1454.1 Q801.427 1454.1 799.599 1457.66 Q797.793 1461.2 797.793 1468.33 Q797.793 1475.44 799.599 1479.01 Q801.427 1482.55 805.038 1482.55 Q808.673 1482.55 810.478 1479.01 Q812.307 1475.44 812.307 1468.33 Q812.307 1461.2 810.478 1457.66 Q808.673 1454.1 805.038 1454.1 M805.038 1450.39 Q810.849 1450.39 813.904 1455 Q816.983 1459.58 816.983 1468.33 Q816.983 1477.06 813.904 1481.67 Q810.849 1486.25 805.038 1486.25 Q799.228 1486.25 796.15 1481.67 Q793.094 1477.06 793.094 1468.33 Q793.094 1459.58 796.15 1455 Q799.228 1450.39 805.038 1450.39 Z" fill="#000000" fill-rule="nonzero" fill-opacity="1" /><path clip-path="url(#clip800)" d="M825.2 1479.7 L830.085 1479.7 L830.085 1485.58 L825.2 1485.58 L825.2 1479.7 Z" fill="#000000" fill-rule="nonzero" fill-opacity="1" /><path clip-path="url(#clip800)" d="M840.316 1451.02 L858.672 1451.02 L858.672 1454.96 L844.598 1454.96 L844.598 1463.43 Q845.617 1463.08 846.635 1462.92 Q847.654 1462.73 848.672 1462.73 Q854.459 1462.73 857.839 1465.9 Q861.219 1469.08 861.219 1474.49 Q861.219 1480.07 857.747 1483.17 Q854.274 1486.25 847.955 1486.25 Q845.779 1486.25 843.51 1485.88 Q841.265 1485.51 838.858 1484.77 L838.858 1480.07 Q840.941 1481.2 843.163 1481.76 Q845.385 1482.32 847.862 1482.32 Q851.867 1482.32 854.205 1480.21 Q856.543 1478.1 856.543 1474.49 Q856.543 1470.88 854.205 1468.77 Q851.867 1466.67 847.862 1466.67 Q845.987 1466.67 844.112 1467.08 Q842.26 1467.5 840.316 1468.38 L840.316 1451.02 Z" fill="#000000" fill-rule="nonzero" fill-opacity="1" /><path clip-path="url(#clip800)" d="M1277.36 1454.1 Q1273.75 1454.1 1271.92 1457.66 Q1270.12 1461.2 1270.12 1468.33 Q1270.12 1475.44 1271.92 1479.01 Q1273.75 1482.55 1277.36 1482.55 Q1281 1482.55 1282.8 1479.01 Q1284.63 1475.44 1284.63 1468.33 Q1284.63 1461.2 1282.8 1457.66 Q1281 1454.1 1277.36 1454.1 M1277.36 1450.39 Q1283.17 1450.39 1286.23 1455 Q1289.31 1459.58 1289.31 1468.33 Q1289.31 1477.06 1286.23 1481.67 Q1283.17 1486.25 1277.36 1486.25 Q1271.55 1486.25 1268.47 1481.67 Q1265.42 1477.06 1265.42 1468.33 Q1265.42 1459.58 1268.47 1455 Q1271.55 1450.39 1277.36 1450.39 Z" fill="#000000" fill-rule="nonzero" fill-opacity="1" /><path clip-path="url(#clip800)" d="M1297.52 1479.7 L1302.41 1479.7 L1302.41 1485.58 L1297.52 1485.58 L1297.52 1479.7 Z" fill="#000000" fill-rule="nonzero" fill-opacity="1" /><path clip-path="url(#clip800)" d="M1322.59 1454.1 Q1318.98 1454.1 1317.15 1457.66 Q1315.35 1461.2 1315.35 1468.33 Q1315.35 1475.44 1317.15 1479.01 Q1318.98 1482.55 1322.59 1482.55 Q1326.23 1482.55 1328.03 1479.01 Q1329.86 1475.44 1329.86 1468.33 Q1329.86 1461.2 1328.03 1457.66 Q1326.23 1454.1 1322.59 1454.1 M1322.59 1450.39 Q1328.4 1450.39 1331.46 1455 Q1334.54 1459.58 1334.54 1468.33 Q1334.54 1477.06 1331.46 1481.67 Q1328.4 1486.25 1322.59 1486.25 Q1316.78 1486.25 1313.7 1481.67 Q1310.65 1477.06 1310.65 1468.33 Q1310.65 1459.58 1313.7 1455 Q1316.78 1450.39 1322.59 1450.39 Z" fill="#000000" fill-rule="nonzero" fill-opacity="1" /><path clip-path="url(#clip800)" d="M1769.59 1454.1 Q1765.98 1454.1 1764.15 1457.66 Q1762.35 1461.2 1762.35 1468.33 Q1762.35 1475.44 1764.15 1479.01 Q1765.98 1482.55 1769.59 1482.55 Q1773.23 1482.55 1775.03 1479.01 Q1776.86 1475.44 1776.86 1468.33 Q1776.86 1461.2 1775.03 1457.66 Q1773.23 1454.1 1769.59 1454.1 M1769.59 1450.39 Q1775.4 1450.39 1778.46 1455 Q1781.54 1459.58 1781.54 1468.33 Q1781.54 1477.06 1778.46 1481.67 Q1775.4 1486.25 1769.59 1486.25 Q1763.78 1486.25 1760.7 1481.67 Q1757.65 1477.06 1757.65 1468.33 Q1757.65 1459.58 1760.7 1455 Q1763.78 1450.39 1769.59 1450.39 Z" fill="#000000" fill-rule="nonzero" fill-opacity="1" /><path clip-path="url(#clip800)" d="M1789.76 1479.7 L1794.64 1479.7 L1794.64 1485.58 L1789.76 1485.58 L1789.76 1479.7 Z" fill="#000000" fill-rule="nonzero" fill-opacity="1" /><path clip-path="url(#clip800)" d="M1804.87 1451.02 L1823.23 1451.02 L1823.23 1454.96 L1809.15 1454.96 L1809.15 1463.43 Q1810.17 1463.08 1811.19 1462.92 Q1812.21 1462.73 1813.23 1462.73 Q1819.01 1462.73 1822.39 1465.9 Q1825.77 1469.08 1825.77 1474.49 Q1825.77 1480.07 1822.3 1483.17 Q1818.83 1486.25 1812.51 1486.25 Q1810.33 1486.25 1808.07 1485.88 Q1805.82 1485.51 1803.41 1484.77 L1803.41 1480.07 Q1805.5 1481.2 1807.72 1481.76 Q1809.94 1482.32 1812.42 1482.32 Q1816.42 1482.32 1818.76 1480.21 Q1821.1 1478.1 1821.1 1474.49 Q1821.1 1470.88 1818.76 1468.77 Q1816.42 1466.67 1812.42 1466.67 Q1810.54 1466.67 1808.67 1467.08 Q1806.82 1467.5 1804.87 1468.38 L1804.87 1451.02 Z" fill="#000000" fill-rule="nonzero" fill-opacity="1" /><path clip-path="url(#clip800)" d="M2250.6 1481.64 L2258.24 1481.64 L2258.24 1455.28 L2249.93 1456.95 L2249.93 1452.69 L2258.19 1451.02 L2262.87 1451.02 L2262.87 1481.64 L2270.51 1481.64 L2270.51 1485.58 L2250.6 1485.58 L2250.6 1481.64 Z" fill="#000000" fill-rule="nonzero" fill-opacity="1" /><path clip-path="url(#clip800)" d="M2279.95 1479.7 L2284.83 1479.7 L2284.83 1485.58 L2279.95 1485.58 L2279.95 1479.7 Z" fill="#000000" fill-rule="nonzero" fill-opacity="1" /><path clip-path="url(#clip800)" d="M2305.02 1454.1 Q2301.41 1454.1 2299.58 1457.66 Q2297.77 1461.2 2297.77 1468.33 Q2297.77 1475.44 2299.58 1479.01 Q2301.41 1482.55 2305.02 1482.55 Q2308.65 1482.55 2310.46 1479.01 Q2312.29 1475.44 2312.29 1468.33 Q2312.29 1461.2 2310.46 1457.66 Q2308.65 1454.1 2305.02 1454.1 M2305.02 1450.39 Q2310.83 1450.39 2313.88 1455 Q2316.96 1459.58 2316.96 1468.33 Q2316.96 1477.06 2313.88 1481.67 Q2310.83 1486.25 2305.02 1486.25 Q2299.21 1486.25 2296.13 1481.67 Q2293.07 1477.06 2293.07 1468.33 Q2293.07 1459.58 2296.13 1455 Q2299.21 1450.39 2305.02 1450.39 Z" fill="#000000" fill-rule="nonzero" fill-opacity="1" /><path clip-path="url(#clip800)" d="M1134.03 1525.81 L1134.03 1543.66 L1142.11 1543.66 Q1146.6 1543.66 1149.05 1541.34 Q1151.5 1539.02 1151.5 1534.72 Q1151.5 1530.45 1149.05 1528.13 Q1146.6 1525.81 1142.11 1525.81 L1134.03 1525.81 M1127.6 1520.52 L1142.11 1520.52 Q1150.1 1520.52 1154.18 1524.15 Q1158.28 1527.75 1158.28 1534.72 Q1158.28 1541.75 1154.18 1545.35 Q1150.1 1548.95 1142.11 1548.95 L1134.03 1548.95 L1134.03 1568.04 L1127.6 1568.04 L1127.6 1520.52 Z" fill="#000000" fill-rule="nonzero" fill-opacity="1" /><path clip-path="url(#clip800)" d="M1178.14 1536.5 Q1173.43 1536.5 1170.7 1540.19 Q1167.96 1543.85 1167.96 1550.25 Q1167.96 1556.65 1170.66 1560.34 Q1173.4 1564 1178.14 1564 Q1182.82 1564 1185.56 1560.31 Q1188.3 1556.62 1188.3 1550.25 Q1188.3 1543.92 1185.56 1540.23 Q1182.82 1536.5 1178.14 1536.5 M1178.14 1531.54 Q1185.78 1531.54 1190.14 1536.5 Q1194.5 1541.47 1194.5 1550.25 Q1194.5 1559 1190.14 1564 Q1185.78 1568.97 1178.14 1568.97 Q1170.47 1568.97 1166.11 1564 Q1161.78 1559 1161.78 1550.25 Q1161.78 1541.47 1166.11 1536.5 Q1170.47 1531.54 1178.14 1531.54 Z" fill="#000000" fill-rule="nonzero" fill-opacity="1" /><path clip-path="url(#clip800)" d="M1226.94 1533.45 L1226.94 1538.98 Q1224.45 1537.71 1221.78 1537.07 Q1219.11 1536.44 1216.24 1536.44 Q1211.88 1536.44 1209.69 1537.77 Q1207.52 1539.11 1207.52 1541.79 Q1207.52 1543.82 1209.08 1545 Q1210.64 1546.15 1215.35 1547.2 L1217.36 1547.64 Q1223.59 1548.98 1226.2 1551.43 Q1228.85 1553.85 1228.85 1558.21 Q1228.85 1563.17 1224.9 1566.07 Q1220.98 1568.97 1214.11 1568.97 Q1211.24 1568.97 1208.13 1568.39 Q1205.04 1567.85 1201.6 1566.74 L1201.6 1560.69 Q1204.85 1562.38 1208 1563.24 Q1211.15 1564.07 1214.24 1564.07 Q1218.37 1564.07 1220.6 1562.66 Q1222.83 1561.23 1222.83 1558.65 Q1222.83 1556.27 1221.21 1554.99 Q1219.62 1553.72 1214.17 1552.54 L1212.14 1552.07 Q1206.69 1550.92 1204.27 1548.56 Q1201.86 1546.18 1201.86 1542.04 Q1201.86 1537.01 1205.42 1534.27 Q1208.99 1531.54 1215.54 1531.54 Q1218.79 1531.54 1221.65 1532.01 Q1224.52 1532.49 1226.94 1533.45 Z" fill="#000000" fill-rule="nonzero" fill-opacity="1" /><path clip-path="url(#clip800)" d="M1238.17 1532.4 L1244.03 1532.4 L1244.03 1568.04 L1238.17 1568.04 L1238.17 1532.4 M1238.17 1518.52 L1244.03 1518.52 L1244.03 1525.93 L1238.17 1525.93 L1238.17 1518.52 Z" fill="#000000" fill-rule="nonzero" fill-opacity="1" /><path clip-path="url(#clip800)" d="M1262.08 1522.27 L1262.08 1532.4 L1274.14 1532.4 L1274.14 1536.95 L1262.08 1536.95 L1262.08 1556.3 Q1262.08 1560.66 1263.25 1561.9 Q1264.46 1563.14 1268.12 1563.14 L1274.14 1563.14 L1274.14 1568.04 L1268.12 1568.04 Q1261.34 1568.04 1258.76 1565.53 Q1256.19 1562.98 1256.19 1556.3 L1256.19 1536.95 L1251.89 1536.95 L1251.89 1532.4 L1256.19 1532.4 L1256.19 1522.27 L1262.08 1522.27 Z" fill="#000000" fill-rule="nonzero" fill-opacity="1" /><path clip-path="url(#clip800)" d="M1281.84 1532.4 L1287.7 1532.4 L1287.7 1568.04 L1281.84 1568.04 L1281.84 1532.4 M1281.84 1518.52 L1287.7 1518.52 L1287.7 1525.93 L1281.84 1525.93 L1281.84 1518.52 Z" fill="#000000" fill-rule="nonzero" fill-opacity="1" /><path clip-path="url(#clip800)" d="M1313.76 1536.5 Q1309.05 1536.5 1306.32 1540.19 Q1303.58 1543.85 1303.58 1550.25 Q1303.58 1556.65 1306.28 1560.34 Q1309.02 1564 1313.76 1564 Q1318.44 1564 1321.18 1560.31 Q1323.92 1556.62 1323.92 1550.25 Q1323.92 1543.92 1321.18 1540.23 Q1318.44 1536.5 1313.76 1536.5 M1313.76 1531.54 Q1321.4 1531.54 1325.76 1536.5 Q1330.12 1541.47 1330.12 1550.25 Q1330.12 1559 1325.76 1564 Q1321.4 1568.97 1313.76 1568.97 Q1306.09 1568.97 1301.73 1564 Q1297.4 1559 1297.4 1550.25 Q1297.4 1541.47 1301.73 1536.5 Q1306.09 1531.54 1313.76 1531.54 Z" fill="#000000" fill-rule="nonzero" fill-opacity="1" /><path clip-path="url(#clip800)" d="M1369.46 1546.53 L1369.46 1568.04 L1363.61 1568.04 L1363.61 1546.72 Q1363.61 1541.66 1361.63 1539.14 Q1359.66 1536.63 1355.71 1536.63 Q1350.97 1536.63 1348.23 1539.65 Q1345.5 1542.68 1345.5 1547.9 L1345.5 1568.04 L1339.61 1568.04 L1339.61 1532.4 L1345.5 1532.4 L1345.5 1537.93 Q1347.6 1534.72 1350.43 1533.13 Q1353.3 1531.54 1357.02 1531.54 Q1363.16 1531.54 1366.31 1535.36 Q1369.46 1539.14 1369.46 1546.53 Z" fill="#000000" fill-rule="nonzero" fill-opacity="1" /><path clip-path="url(#clip800)" d="M1415.93 1518.58 Q1411.67 1525.9 1409.6 1533.06 Q1407.53 1540.23 1407.53 1547.58 Q1407.53 1554.93 1409.6 1562.16 Q1411.7 1569.35 1415.93 1576.64 L1410.84 1576.64 Q1406.07 1569.16 1403.68 1561.93 Q1401.32 1554.71 1401.32 1547.58 Q1401.32 1540.48 1403.68 1533.29 Q1406.04 1526.09 1410.84 1518.58 L1415.93 1518.58 Z" fill="#000000" fill-rule="nonzero" fill-opacity="1" /><path clip-path="url(#clip800)" d="M1430.8 1550.25 Q1430.8 1556.71 1433.44 1560.4 Q1436.11 1564.07 1440.76 1564.07 Q1445.41 1564.07 1448.08 1560.4 Q1450.75 1556.71 1450.75 1550.25 Q1450.75 1543.79 1448.08 1540.13 Q1445.41 1536.44 1440.76 1536.44 Q1436.11 1536.44 1433.44 1540.13 Q1430.8 1543.79 1430.8 1550.25 M1450.75 1562.7 Q1448.91 1565.88 1446.08 1567.44 Q1443.27 1568.97 1439.33 1568.97 Q1432.87 1568.97 1428.79 1563.81 Q1424.75 1558.65 1424.75 1550.25 Q1424.75 1541.85 1428.79 1536.69 Q1432.87 1531.54 1439.33 1531.54 Q1443.27 1531.54 1446.08 1533.1 Q1448.91 1534.62 1450.75 1537.81 L1450.75 1532.4 L1456.61 1532.4 L1456.61 1581.6 L1450.75 1581.6 L1450.75 1562.7 Z" fill="#000000" fill-rule="nonzero" fill-opacity="1" /><path clip-path="url(#clip800)" d="M1467.75 1518.58 L1472.84 1518.58 Q1477.62 1526.09 1479.97 1533.29 Q1482.36 1540.48 1482.36 1547.58 Q1482.36 1554.71 1479.97 1561.93 Q1477.62 1569.16 1472.84 1576.64 L1467.75 1576.64 Q1471.98 1569.35 1474.05 1562.16 Q1476.15 1554.93 1476.15 1547.58 Q1476.15 1540.23 1474.05 1533.06 Q1471.98 1525.9 1467.75 1518.58 Z" fill="#000000" fill-rule="nonzero" fill-opacity="1" /><polyline clip-path="url(#clip802)" style="stroke:#000000; stroke-linecap:round; stroke-linejoin:round; stroke-width:2; stroke-opacity:0.1; fill:none" points="257.204,1384.24 2352.76,1384.24 "/>
<polyline clip-path="url(#clip802)" style="stroke:#000000; stroke-linecap:round; stroke-linejoin:round; stroke-width:2; stroke-opacity:0.1; fill:none" points="257.204,1059.73 2352.76,1059.73 "/>
<polyline clip-path="url(#clip802)" style="stroke:#000000; stroke-linecap:round; stroke-linejoin:round; stroke-width:2; stroke-opacity:0.1; fill:none" points="257.204,735.213 2352.76,735.213 "/>
<polyline clip-path="url(#clip802)" style="stroke:#000000; stroke-linecap:round; stroke-linejoin:round; stroke-width:2; stroke-opacity:0.1; fill:none" points="257.204,410.7 2352.76,410.7 "/>
<polyline clip-path="url(#clip802)" style="stroke:#000000; stroke-linecap:round; stroke-linejoin:round; stroke-width:2; stroke-opacity:0.1; fill:none" points="257.204,86.1857 2352.76,86.1857 "/>
<polyline clip-path="url(#clip800)" style="stroke:#000000; stroke-linecap:round; stroke-linejoin:round; stroke-width:4; stroke-opacity:1; fill:none" points="257.204,1423.18 257.204,47.2441 "/>
<polyline clip-path="url(#clip800)" style="stroke:#000000; stroke-linecap:round; stroke-linejoin:round; stroke-width:4; stroke-opacity:1; fill:none" points="257.204,1384.24 276.102,1384.24 "/>
<polyline clip-path="url(#clip800)" style="stroke:#000000; stroke-linecap:round; stroke-linejoin:round; stroke-width:4; stroke-opacity:1; fill:none" points="257.204,1059.73 276.102,1059.73 "/>
<polyline clip-path="url(#clip800)" style="stroke:#000000; stroke-linecap:round; stroke-linejoin:round; stroke-width:4; stroke-opacity:1; fill:none" points="257.204,735.213 276.102,735.213 "/>
<polyline clip-path="url(#clip800)" style="stroke:#000000; stroke-linecap:round; stroke-linejoin:round; stroke-width:4; stroke-opacity:1; fill:none" points="257.204,410.7 276.102,410.7 "/>
<polyline clip-path="url(#clip800)" style="stroke:#000000; stroke-linecap:round; stroke-linejoin:round; stroke-width:4; stroke-opacity:1; fill:none" points="257.204,86.1857 276.102,86.1857 "/>
<path clip-path="url(#clip800)" d="M114.26 1384.69 L143.936 1384.69 L143.936 1388.63 L114.26 1388.63 L114.26 1384.69 Z" fill="#000000" fill-rule="nonzero" fill-opacity="1" /><path clip-path="url(#clip800)" d="M154.839 1397.59 L162.477 1397.59 L162.477 1371.22 L154.167 1372.89 L154.167 1368.63 L162.431 1366.96 L167.107 1366.96 L167.107 1397.59 L174.746 1397.59 L174.746 1401.52 L154.839 1401.52 L154.839 1397.59 Z" fill="#000000" fill-rule="nonzero" fill-opacity="1" /><path clip-path="url(#clip800)" d="M184.19 1395.64 L189.075 1395.64 L189.075 1401.52 L184.19 1401.52 L184.19 1395.64 Z" fill="#000000" fill-rule="nonzero" fill-opacity="1" /><path clip-path="url(#clip800)" d="M209.26 1370.04 Q205.649 1370.04 203.82 1373.6 Q202.014 1377.15 202.014 1384.28 Q202.014 1391.38 203.82 1394.95 Q205.649 1398.49 209.26 1398.49 Q212.894 1398.49 214.699 1394.95 Q216.528 1391.38 216.528 1384.28 Q216.528 1377.15 214.699 1373.6 Q212.894 1370.04 209.26 1370.04 M209.26 1366.34 Q215.07 1366.34 218.125 1370.94 Q221.204 1375.53 221.204 1384.28 Q221.204 1393 218.125 1397.61 Q215.07 1402.19 209.26 1402.19 Q203.449 1402.19 200.371 1397.61 Q197.315 1393 197.315 1384.28 Q197.315 1375.53 200.371 1370.94 Q203.449 1366.34 209.26 1366.34 Z" fill="#000000" fill-rule="nonzero" fill-opacity="1" /><path clip-path="url(#clip800)" d="M115.256 1060.18 L144.931 1060.18 L144.931 1064.11 L115.256 1064.11 L115.256 1060.18 Z" fill="#000000" fill-rule="nonzero" fill-opacity="1" /><path clip-path="url(#clip800)" d="M165.024 1045.53 Q161.413 1045.53 159.584 1049.09 Q157.778 1052.63 157.778 1059.76 Q157.778 1066.87 159.584 1070.43 Q161.413 1073.98 165.024 1073.98 Q168.658 1073.98 170.464 1070.43 Q172.292 1066.87 172.292 1059.76 Q172.292 1052.63 170.464 1049.09 Q168.658 1045.53 165.024 1045.53 M165.024 1041.82 Q170.834 1041.82 173.889 1046.43 Q176.968 1051.01 176.968 1059.76 Q176.968 1068.49 173.889 1073.1 Q170.834 1077.68 165.024 1077.68 Q159.214 1077.68 156.135 1073.1 Q153.079 1068.49 153.079 1059.76 Q153.079 1051.01 156.135 1046.43 Q159.214 1041.82 165.024 1041.82 Z" fill="#000000" fill-rule="nonzero" fill-opacity="1" /><path clip-path="url(#clip800)" d="M185.186 1071.13 L190.07 1071.13 L190.07 1077.01 L185.186 1077.01 L185.186 1071.13 Z" fill="#000000" fill-rule="nonzero" fill-opacity="1" /><path clip-path="url(#clip800)" d="M200.301 1042.45 L218.658 1042.45 L218.658 1046.38 L204.584 1046.38 L204.584 1054.85 Q205.602 1054.51 206.621 1054.35 Q207.639 1054.16 208.658 1054.16 Q214.445 1054.16 217.824 1057.33 Q221.204 1060.5 221.204 1065.92 Q221.204 1071.5 217.732 1074.6 Q214.26 1077.68 207.94 1077.68 Q205.764 1077.68 203.496 1077.31 Q201.25 1076.94 198.843 1076.2 L198.843 1071.5 Q200.926 1072.63 203.149 1073.19 Q205.371 1073.74 207.848 1073.74 Q211.852 1073.74 214.19 1071.64 Q216.528 1069.53 216.528 1065.92 Q216.528 1062.31 214.19 1060.2 Q211.852 1058.1 207.848 1058.1 Q205.973 1058.1 204.098 1058.51 Q202.246 1058.93 200.301 1059.81 L200.301 1042.45 Z" fill="#000000" fill-rule="nonzero" fill-opacity="1" /><path clip-path="url(#clip800)" d="M164.028 721.012 Q160.417 721.012 158.589 724.577 Q156.783 728.119 156.783 735.248 Q156.783 742.355 158.589 745.919 Q160.417 749.461 164.028 749.461 Q167.663 749.461 169.468 745.919 Q171.297 742.355 171.297 735.248 Q171.297 728.119 169.468 724.577 Q167.663 721.012 164.028 721.012 M164.028 717.308 Q169.839 717.308 172.894 721.915 Q175.973 726.498 175.973 735.248 Q175.973 743.975 172.894 748.581 Q169.839 753.165 164.028 753.165 Q158.218 753.165 155.14 748.581 Q152.084 743.975 152.084 735.248 Q152.084 726.498 155.14 721.915 Q158.218 717.308 164.028 717.308 Z" fill="#000000" fill-rule="nonzero" fill-opacity="1" /><path clip-path="url(#clip800)" d="M184.19 746.614 L189.075 746.614 L189.075 752.493 L184.19 752.493 L184.19 746.614 Z" fill="#000000" fill-rule="nonzero" fill-opacity="1" /><path clip-path="url(#clip800)" d="M209.26 721.012 Q205.649 721.012 203.82 724.577 Q202.014 728.119 202.014 735.248 Q202.014 742.355 203.82 745.919 Q205.649 749.461 209.26 749.461 Q212.894 749.461 214.699 745.919 Q216.528 742.355 216.528 735.248 Q216.528 728.119 214.699 724.577 Q212.894 721.012 209.26 721.012 M209.26 717.308 Q215.07 717.308 218.125 721.915 Q221.204 726.498 221.204 735.248 Q221.204 743.975 218.125 748.581 Q215.07 753.165 209.26 753.165 Q203.449 753.165 200.371 748.581 Q197.315 743.975 197.315 735.248 Q197.315 726.498 200.371 721.915 Q203.449 717.308 209.26 717.308 Z" fill="#000000" fill-rule="nonzero" fill-opacity="1" /><path clip-path="url(#clip800)" d="M165.024 396.498 Q161.413 396.498 159.584 400.063 Q157.778 403.605 157.778 410.734 Q157.778 417.841 159.584 421.406 Q161.413 424.947 165.024 424.947 Q168.658 424.947 170.464 421.406 Q172.292 417.841 172.292 410.734 Q172.292 403.605 170.464 400.063 Q168.658 396.498 165.024 396.498 M165.024 392.795 Q170.834 392.795 173.889 397.401 Q176.968 401.984 176.968 410.734 Q176.968 419.461 173.889 424.068 Q170.834 428.651 165.024 428.651 Q159.214 428.651 156.135 424.068 Q153.079 419.461 153.079 410.734 Q153.079 401.984 156.135 397.401 Q159.214 392.795 165.024 392.795 Z" fill="#000000" fill-rule="nonzero" fill-opacity="1" /><path clip-path="url(#clip800)" d="M185.186 422.1 L190.07 422.1 L190.07 427.98 L185.186 427.98 L185.186 422.1 Z" fill="#000000" fill-rule="nonzero" fill-opacity="1" /><path clip-path="url(#clip800)" d="M200.301 393.42 L218.658 393.42 L218.658 397.355 L204.584 397.355 L204.584 405.827 Q205.602 405.48 206.621 405.318 Q207.639 405.132 208.658 405.132 Q214.445 405.132 217.824 408.304 Q221.204 411.475 221.204 416.892 Q221.204 422.47 217.732 425.572 Q214.26 428.651 207.94 428.651 Q205.764 428.651 203.496 428.281 Q201.25 427.91 198.843 427.169 L198.843 422.47 Q200.926 423.605 203.149 424.16 Q205.371 424.716 207.848 424.716 Q211.852 424.716 214.19 422.609 Q216.528 420.503 216.528 416.892 Q216.528 413.281 214.19 411.174 Q211.852 409.068 207.848 409.068 Q205.973 409.068 204.098 409.484 Q202.246 409.901 200.301 410.781 L200.301 393.42 Z" fill="#000000" fill-rule="nonzero" fill-opacity="1" /><path clip-path="url(#clip800)" d="M154.839 99.5305 L162.477 99.5305 L162.477 73.1649 L154.167 74.8316 L154.167 70.5723 L162.431 68.9057 L167.107 68.9057 L167.107 99.5305 L174.746 99.5305 L174.746 103.466 L154.839 103.466 L154.839 99.5305 Z" fill="#000000" fill-rule="nonzero" fill-opacity="1" /><path clip-path="url(#clip800)" d="M184.19 97.5861 L189.075 97.5861 L189.075 103.466 L184.19 103.466 L184.19 97.5861 Z" fill="#000000" fill-rule="nonzero" fill-opacity="1" /><path clip-path="url(#clip800)" d="M209.26 71.9844 Q205.649 71.9844 203.82 75.5492 Q202.014 79.0908 202.014 86.2204 Q202.014 93.3268 203.82 96.8916 Q205.649 100.433 209.26 100.433 Q212.894 100.433 214.699 96.8916 Q216.528 93.3268 216.528 86.2204 Q216.528 79.0908 214.699 75.5492 Q212.894 71.9844 209.26 71.9844 M209.26 68.2807 Q215.07 68.2807 218.125 72.8871 Q221.204 77.4704 221.204 86.2204 Q221.204 94.9472 218.125 99.5537 Q215.07 104.137 209.26 104.137 Q203.449 104.137 200.371 99.5537 Q197.315 94.9472 197.315 86.2204 Q197.315 77.4704 200.371 72.8871 Q203.449 68.2807 209.26 68.2807 Z" fill="#000000" fill-rule="nonzero" fill-opacity="1" /><path clip-path="url(#clip800)" d="M16.4842 971.396 L16.4842 961.815 L48.8219 949.689 L16.4842 937.498 L16.4842 927.918 L64.0042 927.918 L64.0042 934.188 L22.277 934.188 L54.8694 946.442 L54.8694 952.903 L22.277 965.157 L64.0042 965.157 L64.0042 971.396 L16.4842 971.396 Z" fill="#000000" fill-rule="nonzero" fill-opacity="1" /><path clip-path="url(#clip800)" d="M32.4621 901.596 Q32.4621 906.306 36.1542 909.044 Q39.8145 911.781 46.212 911.781 Q52.6095 911.781 56.3017 909.075 Q59.9619 906.338 59.9619 901.596 Q59.9619 896.917 56.2698 894.18 Q52.5777 891.442 46.212 891.442 Q39.8781 891.442 36.186 894.18 Q32.4621 896.917 32.4621 901.596 M27.4968 901.596 Q27.4968 893.957 32.4621 889.596 Q37.4273 885.236 46.212 885.236 Q54.9649 885.236 59.9619 889.596 Q64.9272 893.957 64.9272 901.596 Q64.9272 909.266 59.9619 913.627 Q54.9649 917.955 46.212 917.955 Q37.4273 917.955 32.4621 913.627 Q27.4968 909.266 27.4968 901.596 Z" fill="#000000" fill-rule="nonzero" fill-opacity="1" /><path clip-path="url(#clip800)" d="M35.1993 847.774 Q31.2526 845.577 29.3747 842.522 Q27.4968 839.466 27.4968 835.329 Q27.4968 829.759 31.4117 826.735 Q35.2948 823.711 42.4881 823.711 L64.0042 823.711 L64.0042 829.599 L42.679 829.599 Q37.5546 829.599 35.072 831.414 Q32.5894 833.228 32.5894 836.952 Q32.5894 841.503 35.6131 844.145 Q38.6368 846.787 43.8567 846.787 L64.0042 846.787 L64.0042 852.675 L42.679 852.675 Q37.5228 852.675 35.072 854.489 Q32.5894 856.304 32.5894 860.091 Q32.5894 864.579 35.6449 867.221 Q38.6686 869.863 43.8567 869.863 L64.0042 869.863 L64.0042 875.751 L28.3562 875.751 L28.3562 869.863 L33.8944 869.863 Q30.616 867.857 29.0564 865.056 Q27.4968 862.256 27.4968 858.404 Q27.4968 854.521 29.4702 851.816 Q31.4436 849.079 35.1993 847.774 Z" fill="#000000" fill-rule="nonzero" fill-opacity="1" /><path clip-path="url(#clip800)" d="M44.7161 781.538 L47.5806 781.538 L47.5806 808.465 Q53.6281 808.083 56.8109 804.837 Q59.9619 801.559 59.9619 795.734 Q59.9619 792.36 59.1344 789.209 Q58.3069 786.026 56.6518 782.907 L62.1899 782.907 Q63.5267 786.058 64.227 789.368 Q64.9272 792.678 64.9272 796.084 Q64.9272 804.614 59.9619 809.611 Q54.9967 814.576 46.5303 814.576 Q37.7774 814.576 32.6531 809.866 Q27.4968 805.123 27.4968 797.103 Q27.4968 789.909 32.1438 785.74 Q36.7589 781.538 44.7161 781.538 M42.9973 787.395 Q38.1912 787.459 35.3266 790.1 Q32.4621 792.71 32.4621 797.039 Q32.4621 801.94 35.2312 804.901 Q38.0002 807.829 43.0292 808.274 L42.9973 787.395 Z" fill="#000000" fill-rule="nonzero" fill-opacity="1" /><path clip-path="url(#clip800)" d="M42.4881 742.294 L64.0042 742.294 L64.0042 748.15 L42.679 748.15 Q37.6183 748.15 35.1038 750.124 Q32.5894 752.097 32.5894 756.044 Q32.5894 760.786 35.6131 763.523 Q38.6368 766.261 43.8567 766.261 L64.0042 766.261 L64.0042 772.149 L28.3562 772.149 L28.3562 766.261 L33.8944 766.261 Q30.6797 764.16 29.0883 761.327 Q27.4968 758.463 27.4968 754.739 Q27.4968 748.596 31.3163 745.445 Q35.1038 742.294 42.4881 742.294 Z" fill="#000000" fill-rule="nonzero" fill-opacity="1" /><path clip-path="url(#clip800)" d="M18.2347 724.82 L28.3562 724.82 L28.3562 712.757 L32.9077 712.757 L32.9077 724.82 L52.2594 724.82 Q56.6199 724.82 57.8613 723.642 Q59.1026 722.433 59.1026 718.773 L59.1026 712.757 L64.0042 712.757 L64.0042 718.773 Q64.0042 725.552 61.4897 728.13 Q58.9434 730.708 52.2594 730.708 L32.9077 730.708 L32.9077 735.005 L28.3562 735.005 L28.3562 730.708 L18.2347 730.708 L18.2347 724.82 Z" fill="#000000" fill-rule="nonzero" fill-opacity="1" /><path clip-path="url(#clip800)" d="M49.9359 705.659 L28.3562 705.659 L28.3562 699.803 L49.7131 699.803 Q54.7739 699.803 57.3202 697.829 Q59.8346 695.856 59.8346 691.909 Q59.8346 687.167 56.8109 684.43 Q53.7872 681.66 48.5673 681.66 L28.3562 681.66 L28.3562 675.804 L64.0042 675.804 L64.0042 681.66 L58.5296 681.66 Q61.7762 683.793 63.3676 686.626 Q64.9272 689.427 64.9272 693.151 Q64.9272 699.293 61.1078 702.476 Q57.2883 705.659 49.9359 705.659 M27.4968 690.923 L27.4968 690.923 Z" fill="#000000" fill-rule="nonzero" fill-opacity="1" /><path clip-path="url(#clip800)" d="M35.1993 635.987 Q31.2526 633.79 29.3747 630.735 Q27.4968 627.679 27.4968 623.542 Q27.4968 617.972 31.4117 614.948 Q35.2948 611.924 42.4881 611.924 L64.0042 611.924 L64.0042 617.812 L42.679 617.812 Q37.5546 617.812 35.072 619.627 Q32.5894 621.441 32.5894 625.165 Q32.5894 629.716 35.6131 632.358 Q38.6368 635 43.8567 635 L64.0042 635 L64.0042 640.888 L42.679 640.888 Q37.5228 640.888 35.072 642.702 Q32.5894 644.517 32.5894 648.304 Q32.5894 652.792 35.6449 655.434 Q38.6686 658.076 43.8567 658.076 L64.0042 658.076 L64.0042 663.964 L28.3562 663.964 L28.3562 658.076 L33.8944 658.076 Q30.616 656.07 29.0564 653.269 Q27.4968 650.468 27.4968 646.617 Q27.4968 642.734 29.4702 640.029 Q31.4436 637.291 35.1993 635.987 Z" fill="#000000" fill-rule="nonzero" fill-opacity="1" /><path clip-path="url(#clip800)" d="M14.5426 565.454 Q21.8632 569.72 29.0246 571.788 Q36.186 573.857 43.5384 573.857 Q50.8908 573.857 58.1159 571.788 Q65.3091 569.688 72.5979 565.454 L72.5979 570.547 Q65.1182 575.321 57.8931 577.708 Q50.668 580.064 43.5384 580.064 Q36.4406 580.064 29.2474 577.708 Q22.0542 575.353 14.5426 570.547 L14.5426 565.454 Z" fill="#000000" fill-rule="nonzero" fill-opacity="1" /><path clip-path="url(#clip800)" d="M58.657 548.426 L77.5631 548.426 L77.5631 554.315 L28.3562 554.315 L28.3562 548.426 L33.7671 548.426 Q30.5842 546.58 29.0564 543.779 Q27.4968 540.947 27.4968 537.032 Q27.4968 530.539 32.6531 526.496 Q37.8093 522.422 46.212 522.422 Q54.6147 522.422 59.771 526.496 Q64.9272 530.539 64.9272 537.032 Q64.9272 540.947 63.3994 543.779 Q61.8398 546.58 58.657 548.426 M46.212 528.502 Q39.7508 528.502 36.0905 531.175 Q32.3984 533.817 32.3984 538.464 Q32.3984 543.111 36.0905 545.784 Q39.7508 548.426 46.212 548.426 Q52.6732 548.426 56.3653 545.784 Q60.0256 543.111 60.0256 538.464 Q60.0256 533.817 56.3653 531.175 Q52.6732 528.502 46.212 528.502 Z" fill="#000000" fill-rule="nonzero" fill-opacity="1" /><path clip-path="url(#clip800)" d="M14.5426 513.638 L14.5426 508.545 Q22.0542 503.771 29.2474 501.415 Q36.4406 499.028 43.5384 499.028 Q50.668 499.028 57.8931 501.415 Q65.1182 503.771 72.5979 508.545 L72.5979 513.638 Q65.3091 509.404 58.1159 507.336 Q50.8908 505.235 43.5384 505.235 Q36.186 505.235 29.0246 507.336 Q21.8632 509.404 14.5426 513.638 Z" fill="#000000" fill-rule="nonzero" fill-opacity="1" /><polyline clip-path="url(#clip802)" style="stroke:#009af9; stroke-linecap:round; stroke-linejoin:round; stroke-width:16; stroke-opacity:1; fill:none" points="1299.98,86.1857 1306.02,86.1979 1312.06,86.2346 1318.1,86.2958 1324.14,86.3815 1330.18,86.4917 1336.21,86.6263 1342.25,86.7854 1348.28,86.969 1354.31,87.177 1360.34,87.4095 1366.37,87.6663 1372.4,87.9477 1378.42,88.2534 1384.44,88.5836 1390.46,88.9381 1396.47,89.317 1402.48,89.7203 1408.48,90.148 1414.48,90.5999 1420.48,91.0762 1426.47,91.5768 1432.46,92.1017 1438.45,92.6508 1444.42,93.2242 1450.39,93.8217 1456.36,94.4435 1462.32,95.0894 1468.28,95.7595 1474.22,96.4537 1480.17,97.1721 1486.1,97.9144 1492.03,98.6809 1497.95,99.4713 1503.86,100.286 1509.77,101.124 1515.66,101.986 1521.55,102.873 1527.43,103.783 1533.31,104.716 1539.17,105.674 1545.02,106.655 1550.87,107.661 1556.71,108.689 1562.53,109.742 1568.35,110.818 1574.15,111.917 1579.95,113.04 1585.73,114.187 1591.51,115.357 1597.27,116.55 1603.02,117.767 1608.76,119.007 1614.49,120.27 1620.21,121.556 1625.92,122.866 1631.61,124.199 1637.29,125.554 1642.96,126.933 1648.61,128.335 1654.25,129.759 1659.88,131.207 1665.5,132.677 1671.1,134.17 1676.68,135.685 1682.26,137.224 1687.81,138.784 1693.36,140.368 1698.89,141.973 1704.4,143.601 1709.9,145.252 1715.38,146.924 1720.85,148.619 1726.3,150.336 1731.73,152.075 1737.15,153.836 1742.56,155.619 1747.94,157.424 1753.31,159.251 1758.66,161.099 1764,162.969 1769.31,164.861 1774.61,166.774 1779.89,168.708 1785.16,170.664 1790.4,172.641 1795.63,174.64 1800.84,176.659 1806.03,178.7 1811.2,180.762 1816.35,182.844 1821.48,184.948 1826.59,187.072 1831.68,189.217 1836.75,191.382 1841.8,193.568 1846.83,195.774 1851.84,198.001 1856.83,200.248 1861.8,202.515 1866.75,204.802 1871.67,207.11 1876.58,209.437 1881.46,211.784 1886.32,214.151 1891.16,216.537 1895.98,218.943 1900.77,221.369 1905.54,223.814 1910.29,226.278 1915.01,228.761 1919.72,231.263 1924.39,233.785 1929.05,236.325 1933.68,238.885 1938.29,241.462 1942.87,244.059 1947.43,246.674 1951.96,249.308 1956.47,251.959 1960.96,254.629 1965.42,257.318 1969.85,260.024 1974.26,262.748 1978.65,265.49 1983.01,268.25 1987.34,271.027 1991.65,273.822 1995.93,276.634 2000.18,279.464 2004.41,282.31 2008.61,285.174 2012.79,288.055 2016.94,290.952 2021.06,293.867 2025.15,296.798 2029.22,299.745 2033.26,302.71 2037.27,305.69 2041.25,308.686 2045.21,311.699 2049.13,314.728 2053.03,317.772 2056.9,320.832 2060.75,323.908 2064.56,326.999 2068.35,330.106 2072.1,333.228 2075.83,336.365 2079.52,339.518 2083.19,342.685 2086.83,345.867 2090.44,349.064 2094.02,352.275 2097.57,355.5 2101.09,358.74 2104.58,361.995 2108.03,365.263 2111.46,368.545 2114.86,371.841 2118.22,375.151 2121.56,378.474 2124.87,381.811 2128.14,385.161 2131.38,388.525 2134.59,391.901 2137.77,395.291 2140.92,398.693 2144.03,402.108 2147.12,405.535 2150.17,408.975 2153.19,412.427 2156.18,415.892 2159.14,419.368 2162.06,422.856 2164.95,426.357 2167.81,429.868 2170.63,433.392 2173.43,436.926 2176.18,440.472 2178.91,444.029 2181.6,447.597 2184.27,451.176 2186.89,454.766 2189.49,458.366 2192.04,461.977 2194.57,465.598 2197.06,469.229 2199.52,472.87 2201.95,476.521 2204.34,480.182 2206.69,483.852 2209.02,487.532 2211.3,491.221 2213.56,494.92 2215.78,498.627 2217.96,502.344 2220.11,506.069 2222.23,509.803 2224.31,513.545 2226.35,517.296 2228.36,521.055 2230.34,524.822 2232.28,528.597 2234.18,532.38 2236.05,536.17 2237.89,539.968 2239.69,543.773 2241.45,547.586 2243.18,551.405 2244.87,555.232 2246.53,559.065 2248.15,562.905 2249.74,566.751 2251.29,570.604 2252.8,574.463 2254.28,578.328 2255.72,582.199 2257.13,586.076 2258.5,589.959 2259.83,593.846 2261.13,597.74 2262.39,601.638 2263.62,605.542 2264.8,609.45 2265.96,613.363 2267.07,617.281 2268.15,621.203 2269.2,625.129 2270.2,629.06 2271.17,632.994 2272.1,636.933 2273,640.875 2273.86,644.821 2274.68,648.77 2275.47,652.722 2276.22,656.677 2276.93,660.636 2277.61,664.597 2278.25,668.561 2278.85,672.528 2279.41,676.496 2279.94,680.467 2280.43,684.44 2280.89,688.415 2281.3,692.392 2281.68,696.371 2282.03,700.35 2282.33,704.332 2282.6,708.314 2282.83,712.297 2283.03,716.281 2283.18,720.266 2283.3,724.252 2283.39,728.238 2283.43,732.224 2283.44,736.21 2283.42,740.196 2283.35,744.182 2283.25,748.168 2283.11,752.153 2282.93,756.138 2282.72,760.122 2282.47,764.105 2282.18,768.086 2281.86,772.067 2281.5,776.046 2281.1,780.023 2280.66,783.999 2280.19,787.973 2279.68,791.945 2279.13,795.915 2278.55,799.883 2277.93,803.848 2277.27,807.811 2276.58,811.771 2275.85,815.728 2275.08,819.682 2274.28,823.632 2273.43,827.58 2272.56,831.524 2271.64,835.464 2270.69,839.401 2269.7,843.333 2268.68,847.262 2267.62,851.186 2266.52,855.106 2265.39,859.021 2264.22,862.932 2263.01,866.838 2261.77,870.739 2260.49,874.635 2259.17,878.525 2257.82,882.41 2256.43,886.29 2255.01,890.164 2253.55,894.032 2252.05,897.894 2250.52,901.75 2248.95,905.6 2247.35,909.443 2245.71,913.279 2244.03,917.109 2242.32,920.932 2240.58,924.749 2238.79,928.557 2236.98,932.359 2235.12,936.153 2233.24,939.94 2231.31,943.719 2229.36,947.49 2227.36,951.253 2225.33,955.008 2223.27,958.754 2221.17,962.492 2219.04,966.222 2216.87,969.943 2214.67,973.655 2212.43,977.358 2210.16,981.052 2207.86,984.736 2205.52,988.411 2203.15,992.077 2200.74,995.733 2198.3,999.379 2195.82,1003.02 2193.31,1006.64 2190.77,1010.26 2188.19,1013.86 2185.58,1017.46 2182.94,1021.04 2180.26,1024.62 2177.55,1028.18 2174.81,1031.73 2172.03,1035.27 2169.22,1038.8 2166.38,1042.32 2163.51,1045.82 2160.6,1049.32 2157.66,1052.8 2154.69,1056.27 2151.69,1059.73 2148.65,1063.17 2145.58,1066.61 2142.48,1070.03 2139.35,1073.44 2136.19,1076.83 2132.99,1080.22 2129.76,1083.59 2126.51,1086.94 2123.22,1090.29 2119.9,1093.62 2116.55,1096.93 2113.16,1100.24 2109.75,1103.52 2106.31,1106.8 2102.83,1110.06 2099.33,1113.31 2095.8,1116.54 2092.23,1119.76 2088.64,1122.96 2085.02,1126.15 2081.36,1129.33 2077.68,1132.49 2073.97,1135.63 2070.23,1138.76 2066.46,1141.88 2062.66,1144.98 2058.83,1148.06 2054.97,1151.13 2051.09,1154.18 2047.17,1157.22 2043.23,1160.24 2039.26,1163.24 2035.27,1166.23 2031.24,1169.2 2027.19,1172.16 2023.11,1175.1 2019,1178.02 2014.87,1180.93 2010.7,1183.81 2006.52,1186.69 2002.3,1189.54 1998.06,1192.38 1993.79,1195.2 1989.5,1198 1985.18,1200.79 1980.83,1203.56 1976.46,1206.31 1972.06,1209.04 1967.64,1211.76 1963.19,1214.46 1958.72,1217.13 1954.22,1219.8 1949.7,1222.44 1945.15,1225.06 1940.58,1227.67 1935.99,1230.26 1931.37,1232.82 1926.72,1235.37 1922.06,1237.91 1917.37,1240.42 1912.65,1242.91 1907.92,1245.38 1903.16,1247.84 1898.38,1250.27 1893.57,1252.69 1888.74,1255.09 1883.89,1257.46 1879.02,1259.82 1874.13,1262.16 1869.21,1264.47 1864.28,1266.77 1859.32,1269.05 1854.34,1271.31 1849.34,1273.54 1844.32,1275.76 1839.28,1277.95 1834.22,1280.13 1829.14,1282.29 1824.04,1284.42 1818.91,1286.53 1813.77,1288.63 1808.61,1290.7 1803.43,1292.75 1798.24,1294.78 1793.02,1296.79 1787.78,1298.78 1782.53,1300.74 1777.26,1302.69 1771.97,1304.61 1766.66,1306.52 1761.33,1308.4 1755.99,1310.25 1750.63,1312.09 1745.25,1313.91 1739.86,1315.7 1734.45,1317.47 1729.02,1319.22 1723.58,1320.95 1718.12,1322.66 1712.64,1324.34 1707.15,1326 1701.64,1327.64 1696.12,1329.26 1690.59,1330.85 1685.04,1332.43 1679.47,1333.98 1673.89,1335.5 1668.3,1337.01 1662.69,1338.49 1657.07,1339.95 1651.43,1341.38 1645.79,1342.8 1640.12,1344.19 1634.45,1345.55 1628.76,1346.9 1623.07,1348.22 1617.35,1349.52 1611.63,1350.79 1605.9,1352.04 1600.15,1353.27 1594.39,1354.48 1588.62,1355.66 1582.84,1356.82 1577.05,1357.95 1571.25,1359.06 1565.44,1360.15 1559.62,1361.21 1553.79,1362.26 1547.95,1363.27 1542.1,1364.27 1536.24,1365.23 1530.37,1366.18 1524.49,1367.1 1518.61,1368 1512.72,1368.87 1506.81,1369.73 1500.91,1370.55 1494.99,1371.35 1489.06,1372.13 1483.13,1372.89 1477.2,1373.62 1471.25,1374.32 1465.3,1375.01 1459.34,1375.66 1453.38,1376.3 1447.41,1376.91 1441.43,1377.49 1435.45,1378.05 1429.47,1378.59 1423.48,1379.1 1417.48,1379.59 1411.48,1380.06 1405.48,1380.5 1399.47,1380.91 1393.46,1381.3 1387.45,1381.67 1381.43,1382.01 1375.41,1382.33 1369.38,1382.62 1363.36,1382.89 1357.33,1383.14 1351.3,1383.36 1345.26,1383.55 1339.23,1383.72 1333.19,1383.87 1327.16,1383.99 1321.12,1384.09 1315.08,1384.16 1309.04,1384.21 1303,1384.24 1296.96,1384.24 1290.92,1384.21 1284.88,1384.16 1278.84,1384.09 1272.8,1383.99 1266.76,1383.87 1260.73,1383.72 1254.69,1383.55 1248.66,1383.36 1242.63,1383.14 1236.6,1382.89 1230.57,1382.62 1224.55,1382.33 1218.53,1382.01 1212.51,1381.67 1206.49,1381.3 1200.48,1380.91 1194.47,1380.5 1188.47,1380.06 1182.47,1379.59 1176.48,1379.1 1170.49,1378.59 1164.5,1378.05 1158.52,1377.49 1152.55,1376.91 1146.58,1376.3 1140.61,1375.66 1134.66,1375.01 1128.7,1374.32 1122.76,1373.62 1116.82,1372.89 1110.89,1372.13 1104.97,1371.35 1099.05,1370.55 1093.14,1369.73 1087.24,1368.87 1081.35,1368 1075.46,1367.1 1069.58,1366.18 1063.72,1365.23 1057.86,1364.27 1052.01,1363.27 1046.17,1362.26 1040.34,1361.21 1034.52,1360.15 1028.7,1359.06 1022.9,1357.95 1017.11,1356.82 1011.33,1355.66 1005.56,1354.48 999.806,1353.27 994.06,1352.04 988.325,1350.79 982.602,1349.52 976.891,1348.22 971.192,1346.9 965.505,1345.55 959.831,1344.19 954.17,1342.8 948.522,1341.38 942.887,1339.95 937.266,1338.49 931.658,1337.01 926.064,1335.5 920.485,1333.98 914.919,1332.43 909.368,1330.85 903.832,1329.26 898.311,1327.64 892.805,1326 887.314,1324.34 881.839,1322.66 876.38,1320.95 870.937,1319.22 865.509,1317.47 860.099,1315.7 854.705,1313.91 849.327,1312.09 843.967,1310.25 838.624,1308.4 833.298,1306.51 827.99,1304.61 822.699,1302.69 817.427,1300.74 812.173,1298.78 806.937,1296.79 801.72,1294.78 796.522,1292.75 791.342,1290.7 786.182,1288.63 781.041,1286.53 775.92,1284.42 770.819,1282.29 765.737,1280.13 760.676,1277.95 755.635,1275.76 750.614,1273.54 745.615,1271.3 740.636,1269.05 735.678,1266.77 730.742,1264.47 725.827,1262.16 720.934,1259.82 716.062,1257.46 711.213,1255.09 706.386,1252.69 701.581,1250.27 696.798,1247.84 692.039,1245.38 687.302,1242.91 682.589,1240.42 677.899,1237.91 673.232,1235.37 668.589,1232.82 663.97,1230.26 659.375,1227.67 654.804,1225.06 650.257,1222.44 645.734,1219.8 641.237,1217.13 636.764,1214.46 632.317,1211.76 627.894,1209.04 623.497,1206.31 619.125,1203.56 614.779,1200.79 610.459,1198 606.165,1195.2 601.897,1192.38 597.656,1189.54 593.441,1186.69 589.252,1183.81 585.091,1180.93 580.956,1178.02 576.848,1175.1 572.768,1172.16 568.715,1169.2 564.69,1166.23 560.693,1163.24 556.723,1160.24 552.781,1157.22 548.868,1154.18 544.983,1151.13 541.127,1148.06 537.299,1144.98 533.5,1141.88 529.729,1138.76 525.988,1135.63 522.276,1132.49 518.593,1129.33 514.94,1126.15 511.317,1122.96 507.723,1119.76 504.159,1116.54 500.625,1113.31 497.121,1110.06 493.648,1106.8 490.205,1103.52 486.792,1100.24 483.41,1096.93 480.059,1093.62 476.739,1090.29 473.45,1086.94 470.192,1083.59 466.966,1080.22 463.771,1076.83 460.607,1073.44 457.475,1070.03 454.375,1066.61 451.307,1063.17 448.27,1059.73 445.266,1056.27 442.295,1052.8 439.355,1049.32 436.448,1045.82 433.573,1042.32 430.732,1038.8 427.923,1035.27 425.147,1031.73 422.403,1028.18 419.694,1024.62 417.017,1021.04 414.373,1017.46 411.763,1013.86 409.187,1010.26 406.644,1006.64 404.134,1003.01 401.659,999.379 399.217,995.733 396.81,992.077 394.436,988.411 392.097,984.736 389.792,981.051 387.521,977.358 385.285,973.655 383.083,969.942 380.915,966.222 378.783,962.492 376.685,958.754 374.622,955.007 372.594,951.253 370.601,947.49 368.643,943.719 366.72,939.94 364.832,936.153 362.98,932.359 361.162,928.557 359.381,924.748 357.635,920.932 355.924,917.109 354.249,913.279 352.61,909.443 351.006,905.599 349.438,901.75 347.906,897.894 346.41,894.032 344.95,890.164 343.526,886.29 342.138,882.41 340.786,878.525 339.47,874.635 338.191,870.739 336.948,866.838 335.741,862.932 334.57,859.021 333.436,855.106 332.339,851.186 331.278,847.262 330.253,843.333 329.265,839.4 328.314,835.464 327.399,831.524 326.521,827.58 325.68,823.632 324.875,819.681 324.108,815.728 323.377,811.771 322.683,807.811 322.025,803.848 321.405,799.883 320.822,795.915 320.275,791.945 319.766,787.973 319.293,783.999 318.858,780.023 318.459,776.046 318.098,772.067 317.773,768.086 317.486,764.104 317.235,760.121 317.022,756.138 316.846,752.153 316.707,748.168 316.605,744.182 316.54,740.196 316.512,736.21 316.521,732.224 316.568,728.238 316.651,724.252 316.772,720.266 316.929,716.281 317.124,712.297 317.356,708.314 317.625,704.332 317.931,700.35 318.274,696.37 318.654,692.392 319.071,688.415 319.525,684.44 320.016,680.467 320.544,676.496 321.109,672.527 321.711,668.561 322.35,664.597 323.025,660.636 323.738,656.677 324.487,652.722 325.273,648.77 326.096,644.82 326.956,640.875 327.852,636.932 328.785,632.994 329.755,629.059 330.761,625.129 331.804,621.203 332.883,617.281 333.999,613.363 335.151,609.45 336.34,605.541 337.565,601.638 338.826,597.74 340.124,593.846 341.457,589.959 342.827,586.076 344.233,582.199 345.675,578.328 347.153,574.463 348.668,570.604 350.217,566.752 351.803,562.905 353.425,559.065 355.082,555.232 356.775,551.405 358.503,547.586 360.267,543.773 362.067,539.968 363.902,536.17 365.772,532.38 367.677,528.597 369.617,524.822 371.593,521.055 373.604,517.296 375.649,513.545 377.73,509.803 379.845,506.069 381.995,502.343 384.179,498.627 386.399,494.92 388.652,491.221 390.94,487.532 393.262,483.852 395.619,480.182 398.009,476.521 400.434,472.87 402.893,469.228 405.385,465.598 407.911,461.976 410.471,458.366 413.064,454.766 415.691,451.176 418.351,447.597 421.044,444.029 423.771,440.472 426.531,436.926 429.323,433.392 432.149,429.868 435.007,426.356 437.898,422.856 440.821,419.368 443.777,415.891 446.765,412.427 449.785,408.975 452.837,405.535 455.921,402.108 459.037,398.693 462.185,395.29 465.364,391.901 468.575,388.525 471.818,385.161 475.091,381.811 478.396,378.474 481.731,375.151 485.098,371.841 488.495,368.545 491.923,365.263 495.381,361.995 498.869,358.74 502.388,355.5 505.937,352.275 509.516,349.063 513.125,345.867 516.763,342.685 520.431,339.518 524.129,336.365 527.855,333.228 531.611,330.106 535.396,326.999 539.209,323.908 543.051,320.832 546.922,317.772 550.822,314.727 554.749,311.699 558.705,308.686 562.688,305.69 566.7,302.709 570.738,299.745 574.805,296.798 578.899,293.867 583.02,290.952 587.168,288.055 591.343,285.174 595.545,282.31 599.773,279.463 604.028,276.634 608.309,273.822 612.616,271.027 616.949,268.25 621.308,265.49 625.692,262.748 630.102,260.024 634.537,257.318 638.998,254.629 643.483,251.959 647.993,249.307 652.527,246.674 657.086,244.059 661.669,241.462 666.277,238.884 670.908,236.325 675.563,233.785 680.241,231.263 684.943,228.761 689.668,226.278 694.416,223.814 699.187,221.369 703.98,218.943 708.797,216.537 713.635,214.151 718.495,211.784 723.378,209.437 728.282,207.11 733.208,204.802 738.155,202.515 743.123,200.248 748.112,198.001 753.122,195.774 758.153,193.568 763.204,191.382 768.276,189.216 773.367,187.072 778.479,184.947 783.61,182.844 788.76,180.762 793.93,178.7 799.119,176.659 804.326,174.64 809.553,172.641 814.798,170.664 820.061,168.708 825.343,166.773 830.642,164.86 835.959,162.969 841.293,161.099 846.645,159.25 852.014,157.424 857.4,155.619 862.802,153.836 868.221,152.075 873.656,150.336 879.108,148.619 884.575,146.924 890.058,145.252 895.557,143.601 901.07,141.973 906.599,140.367 912.142,138.784 917.7,137.223 923.273,135.685 928.86,134.17 934.46,132.677 940.075,131.207 945.703,129.759 951.345,128.335 956.999,126.933 962.667,125.554 968.347,124.199 974.04,122.866 979.745,121.556 985.462,120.27 991.191,119.007 996.932,117.767 1002.68,116.55 1008.45,115.357 1014.22,114.187 1020.01,113.04 1025.8,111.917 1031.61,110.818 1037.42,109.742 1043.25,108.689 1049.09,107.661 1054.93,106.655 1060.79,105.674 1066.65,104.716 1072.52,103.783 1078.4,102.873 1084.29,101.986 1090.19,101.124 1096.09,100.286 1102.01,99.4713 1107.93,98.6808 1113.86,97.9144 1119.79,97.172 1125.73,96.4537 1131.68,95.7595 1137.63,95.0894 1143.6,94.4435 1149.56,93.8217 1155.53,93.2241 1161.51,92.6507 1167.49,92.1016 1173.48,91.5767 1179.47,91.0762 1185.47,90.5999 1191.47,90.148 1197.48,89.7203 1203.49,89.317 1209.5,88.9381 1215.52,88.5836 1221.54,88.2534 1227.56,87.9477 1233.58,87.6663 1239.61,87.4094 1245.64,87.177 1251.67,86.969 1257.71,86.7854 1263.74,86.6263 1269.78,86.4917 1275.82,86.3815 1281.86,86.2958 1287.9,86.2346 1293.94,86.1979 1299.98,86.1857 "/>
<polyline clip-path="url(#clip802)" style="stroke:#e26f46; stroke-linecap:round; stroke-linejoin:round; stroke-width:16; stroke-opacity:1; fill:none" points="1299.98,86.1857 1306,86.3775 1312.02,86.5693 1318.04,86.7611 1324.06,86.9529 1330.08,87.1447 1336.09,87.3365 1342.11,87.5283 1348.13,87.7201 1354.16,87.8621 1360.2,87.9573 1366.23,88.0736 1372.25,88.2619 1378.25,88.5564 1384.24,88.9745 1390.2,89.5168 1396.15,90.1673 1402.09,90.8931 1408.02,91.6446 1413.96,92.3674 1419.9,93.0825 1425.84,93.7976 1431.78,94.5127 1437.72,95.2278 1443.66,95.9429 1449.6,96.658 1455.54,97.3815 1461.46,98.1662 1467.35,99.0149 1473.23,99.9202 1479.1,100.875 1484.95,101.873 1490.79,102.908 1496.62,103.974 1502.44,105.066 1508.26,106.179 1514.07,107.309 1519.87,108.45 1525.68,109.601 1531.48,110.757 1537.28,111.915 1543.08,113.074 1548.88,114.231 1554.68,115.384 1560.49,116.532 1566.29,117.675 1572.1,118.812 1577.91,119.943 1583.72,121.068 1589.54,122.189 1595.35,123.306 1601.16,124.422 1606.98,125.538 1612.79,126.657 1618.6,127.79 1624.35,129.014 1630.05,130.33 1635.71,131.723 1641.33,133.177 1646.92,134.68 1652.49,136.219 1658.05,137.783 1663.6,139.363 1669.14,140.952 1674.68,142.543 1680.22,144.131 1685.77,145.713 1691.32,147.285 1696.88,148.848 1702.44,150.402 1708.01,151.948 1713.58,153.491 1719.15,155.034 1724.71,156.591 1730.18,158.263 1735.55,160.059 1740.85,161.95 1746.1,163.909 1751.31,165.914 1756.51,167.946 1761.69,169.989 1766.87,172.031 1772.07,174.066 1777.27,176.087 1782.48,178.095 1787.7,180.093 1792.92,182.086 1798.14,184.084 1803.38,186.062 1808.64,188.015 1813.91,189.962 1819.17,191.919 1824.41,193.898 1829.61,195.91 1834.78,197.963 1839.9,200.061 1844.98,202.206 1850.01,204.398 1854.99,206.634 1859.94,208.908 1864.86,211.211 1869.77,213.532 1874.67,215.857 1879.58,218.17 1884.51,220.469 1889.43,222.77 1894.35,225.082 1899.24,227.414 1904.1,229.77 1908.92,232.158 1913.7,234.579 1918.43,237.037 1923.12,239.531 1927.76,242.061 1932.36,244.625 1936.92,247.218 1941.45,249.834 1945.95,252.468 1950.45,255.111 1954.94,257.752 1959.46,260.383 1963.97,263.015 1968.46,265.658 1972.93,268.318 1977.37,270.999 1981.77,273.706 1986.13,276.44 1990.45,279.205 1994.71,282.001 1998.93,284.83 2003.1,287.69 2007.22,290.579 2011.3,293.497 2015.33,296.439 2019.34,299.402 2023.32,302.381 2027.29,305.37 2031.25,308.362 2035.22,311.349 2039.21,314.328 2043.18,317.311 2047.15,320.303 2051.08,323.311 2054.98,326.337 2058.84,329.385 2062.65,332.459 2066.41,335.56 2070.11,338.69 2073.76,341.849 2077.35,345.037 2080.88,348.254 2084.36,351.499 2087.78,354.769 2091.17,358.062 2094.51,361.374 2097.82,364.702 2101.12,368.039 2104.4,371.382 2107.69,374.724 2110.99,378.058 2114.28,381.394 2117.55,384.745 2120.78,388.111 2123.97,391.492 2127.13,394.89 2130.24,398.306 2133.31,401.738 2136.34,405.187 2139.33,408.654 2142.27,412.137 2145.17,415.636 2148.04,419.15 2150.86,422.679 2153.66,426.22 2156.42,429.773 2159.16,433.337 2161.87,436.908 2164.57,440.485 2167.26,444.067 2169.94,447.649 2172.63,451.231 2175.31,454.813 2177.71,458.459 2179.85,462.168 2181.82,465.918 2183.72,469.688 2185.62,473.458 2187.6,477.214 2189.71,480.943 2191.99,484.636 2194.48,488.285 2197.19,491.887 2200.12,495.439 2203.27,498.944 2206.61,502.406 2210.12,505.831 2213.75,509.23 2217.43,512.616 2221.11,516.004 2224.69,519.413 2228.07,522.863 2231.16,526.378 2233.83,529.987 2236.08,533.685 2238.08,537.435 2239.9,541.227 2241.57,545.048 2243.14,548.891 2244.65,552.746 2246.13,556.609 2247.6,560.473 2249.08,564.336 2250.58,568.194 2252.1,572.046 2253.65,575.893 2255.22,579.737 2256.79,583.58 2258.34,587.426 2259.75,591.281 2261.03,595.142 2262.23,599.008 2263.41,602.875 2264.6,606.743 2265.84,610.609 2267.16,614.472 2268.56,618.333 2270.06,622.19 2271.67,626.044 2273.37,629.895 2275.15,633.745 2277,637.595 2278.88,641.446 2280.77,645.302 2282.6,649.165 2284.34,653.038 2285.93,656.924 2287.29,660.827 2288.36,664.752 2289.05,668.704 2289.34,672.683 2289.57,676.665 2289.81,680.648 2290.04,684.631 2290.27,688.613 2290.51,692.596 2290.74,696.579 2290.97,700.561 2291.21,704.544 2291.44,708.527 2291.67,712.509 2291.91,716.492 2292.14,720.475 2292.37,724.457 2292.61,728.44 2292.84,732.423 2293.05,736.407 2293.22,740.392 2293.34,744.38 2293.42,748.368 2293.45,752.357 2293.43,756.346 2293.36,760.335 2293.25,764.324 2293.09,768.311 2292.88,772.297 2292.62,776.281 2292.31,780.263 2291.96,784.243 2291.55,788.219 2291.1,792.193 2290.59,796.163 2290.04,800.129 2289.43,804.091 2288.78,808.048 2288.08,812 2287.32,815.948 2286.52,819.89 2285.66,823.827 2284.76,827.757 2283.81,831.682 2282.8,835.6 2281.75,839.512 2280.65,843.417 2279.49,847.315 2278.29,851.205 2277.04,855.089 2275.74,858.964 2274.39,862.833 2273,866.693 2271.55,870.545 2270.06,874.389 2268.52,878.225 2266.93,882.052 2265.3,885.871 2263.62,889.681 2261.89,893.483 2260.12,897.276 2258.31,901.06 2256.45,904.835 2254.54,908.601 2252.59,912.358 2250.6,916.106 2248.57,919.845 2246.5,923.575 2244.38,927.295 2242.23,931.007 2240.03,934.71 2237.8,938.404 2235.52,942.089 2233.21,945.765 2230.87,949.432 2228.49,953.09 2226.07,956.739 2223.62,960.38 2221.13,964.012 2218.61,967.636 2216.06,971.252 2213.48,974.859 2210.87,978.459 2208.23,982.05 2205.57,985.634 2202.88,989.21 2200.16,992.778 2197.41,996.34 2194.65,999.894 2191.86,1003.44 2189.05,1006.98 2186.22,1010.52 2183.37,1014.04 2180.5,1017.57 2177.62,1021.08 2174.72,1024.6 2171.82,1028.11 2168.92,1031.63 2166.04,1035.16 2163.17,1038.69 2160.29,1042.23 2157.4,1045.77 2154.51,1049.31 2151.59,1052.84 2148.66,1056.36 2145.71,1059.87 2142.73,1063.37 2139.72,1066.85 2136.68,1070.32 2133.6,1073.77 2130.48,1077.2 2127.32,1080.61 2124.12,1084 2120.87,1087.37 2117.57,1090.71 2114.23,1094.02 2110.84,1097.31 2107.4,1100.57 2103.9,1103.81 2100.36,1107.02 2096.76,1110.2 2093.12,1113.35 2089.42,1116.48 2085.67,1119.58 2081.88,1122.65 2078.03,1125.7 2074.14,1128.72 2070.21,1131.72 2066.23,1134.69 2062.22,1137.64 2058.16,1140.58 2054.07,1143.49 2049.94,1146.39 2045.79,1149.26 2041.61,1152.13 2037.41,1154.98 2033.19,1157.83 2028.96,1160.66 2024.72,1163.49 2020.47,1166.32 2016.23,1169.15 2011.99,1171.98 2007.76,1174.82 2003.54,1177.66 1999.35,1180.52 1995.18,1183.4 1991.01,1186.28 1986.84,1189.17 1982.67,1192.06 1978.48,1194.93 1974.27,1197.8 1970.04,1200.65 1965.78,1203.47 1961.49,1206.28 1957.16,1209.05 1952.79,1211.78 1948.37,1214.49 1943.92,1217.15 1939.41,1219.78 1934.86,1222.36 1930.26,1224.9 1925.6,1227.4 1920.9,1229.86 1916.14,1232.27 1911.34,1234.63 1906.48,1236.96 1901.58,1239.24 1896.63,1241.48 1891.64,1243.69 1886.61,1245.86 1881.53,1247.99 1876.43,1250.1 1871.29,1252.18 1866.13,1254.23 1860.95,1256.27 1855.76,1258.29 1850.55,1260.31 1845.34,1262.32 1840.13,1264.34 1834.94,1266.37 1829.76,1268.41 1824.59,1270.46 1819.4,1272.48 1814.19,1274.49 1808.97,1276.48 1803.72,1278.45 1798.46,1280.4 1793.18,1282.33 1787.89,1284.25 1782.57,1286.14 1777.24,1288.01 1771.89,1289.87 1766.53,1291.71 1761.16,1293.53 1755.76,1295.34 1750.36,1297.13 1744.94,1298.9 1739.51,1300.66 1734.06,1302.4 1728.61,1304.13 1723.14,1305.85 1717.66,1307.55 1712.17,1309.24 1706.68,1310.92 1701.17,1312.59 1695.66,1314.25 1690.14,1315.9 1684.61,1317.55 1679.08,1319.18 1673.54,1320.81 1668,1322.43 1662.45,1324.05 1656.91,1325.67 1651.36,1327.29 1645.81,1328.9 1640.26,1330.51 1634.71,1332.13 1629.16,1333.74 1623.62,1335.36 1618.06,1336.97 1612.49,1338.57 1606.91,1340.15 1601.31,1341.71 1595.7,1343.24 1590.07,1344.75 1584.43,1346.24 1578.78,1347.69 1573.11,1349.12 1567.43,1350.51 1561.74,1351.87 1556.02,1353.19 1550.3,1354.48 1544.56,1355.73 1538.8,1356.94 1533.03,1358.11 1527.25,1359.24 1521.45,1360.33 1515.64,1361.38 1509.82,1362.38 1503.98,1363.35 1498.13,1364.27 1492.27,1365.16 1486.39,1366 1480.5,1366.81 1474.6,1367.58 1468.69,1368.31 1462.77,1369 1456.84,1369.66 1450.9,1370.28 1444.95,1370.88 1438.99,1371.44 1433.02,1371.97 1427.05,1372.48 1421.07,1372.97 1415.09,1373.43 1409.1,1373.88 1403.1,1374.31 1397.11,1374.73 1391.11,1375.14 1385.11,1375.54 1379.11,1375.94 1373.11,1376.34 1367.11,1376.74 1361.11,1377.16 1355.12,1377.57 1349.12,1377.95 1343.11,1378.29 1337.1,1378.57 1331.08,1378.81 1325.06,1379 1319.04,1379.14 1313.01,1379.24 1306.98,1379.3 1300.96,1379.31 1294.93,1379.27 1288.9,1379.19 1282.88,1379.07 1276.86,1378.9 1270.84,1378.7 1264.82,1378.46 1258.81,1378.17 1252.8,1377.85 1246.8,1377.49 1240.8,1377.1 1234.8,1376.68 1228.82,1376.22 1222.83,1375.73 1216.85,1375.21 1210.88,1374.66 1204.91,1374.09 1198.94,1373.49 1192.98,1372.87 1187.03,1372.22 1181.08,1371.56 1175.13,1370.88 1169.19,1370.19 1163.25,1369.48 1157.31,1368.77 1151.38,1368.04 1145.44,1367.31 1139.51,1366.57 1133.58,1365.83 1127.65,1365.1 1121.71,1364.36 1115.78,1363.63 1109.84,1362.91 1103.91,1362.16 1098,1361.38 1092.09,1360.55 1086.2,1359.69 1080.32,1358.8 1074.45,1357.87 1068.59,1356.92 1062.73,1355.93 1056.89,1354.92 1051.05,1353.89 1045.22,1352.83 1039.4,1351.75 1033.58,1350.65 1027.77,1349.53 1021.97,1348.39 1016.17,1347.23 1010.38,1346.05 1004.6,1344.86 998.825,1343.64 993.055,1342.42 987.293,1341.17 981.539,1339.91 975.792,1338.63 970.053,1337.34 964.323,1336.03 958.602,1334.71 952.891,1333.37 947.19,1332.01 941.501,1330.64 935.823,1329.25 930.158,1327.84 924.506,1326.41 918.869,1324.95 913.247,1323.48 907.642,1321.99 902.054,1320.47 896.486,1318.92 890.936,1317.35 885.409,1315.76 879.904,1314.13 874.423,1312.47 868.968,1310.78 863.538,1309.05 858.139,1307.28 852.766,1305.48 847.414,1303.66 842.081,1301.82 836.765,1299.95 831.464,1298.07 826.178,1296.17 820.906,1294.25 815.647,1292.31 810.4,1290.36 805.164,1288.39 799.939,1286.41 794.724,1284.41 789.521,1282.4 784.328,1280.37 779.145,1278.33 773.974,1276.27 768.815,1274.2 763.668,1272.12 758.534,1270.02 753.414,1267.9 748.309,1265.76 743.221,1263.61 738.151,1261.44 733.1,1259.25 728.07,1257.04 723.063,1254.81 718.082,1252.56 713.127,1250.28 708.203,1247.97 703.31,1245.64 698.453,1243.28 693.632,1240.89 688.853,1238.47 684.116,1236.01 679.427,1233.52 674.789,1230.98 670.204,1228.41 665.672,1225.79 661.128,1223.18 656.551,1220.58 651.953,1217.99 647.345,1215.41 642.736,1212.82 638.135,1210.23 633.55,1207.63 628.989,1205.01 624.46,1202.37 619.969,1199.71 615.521,1197.02 611.123,1194.31 606.778,1191.56 602.491,1188.79 598.265,1185.97 594.104,1183.12 590.008,1180.23 585.981,1177.31 582.022,1174.34 578.132,1171.34 574.311,1168.29 570.558,1165.21 566.871,1162.09 563.248,1158.94 559.686,1155.75 556.183,1152.53 552.733,1149.28 549.332,1146 545.975,1142.69 542.656,1139.37 539.369,1136.02 536.105,1132.67 532.859,1129.3 529.62,1125.93 526.38,1122.56 523.13,1119.2 519.859,1115.85 516.559,1112.51 513.262,1109.17 509.984,1105.83 506.728,1102.47 503.495,1099.11 500.288,1095.73 497.107,1092.34 493.955,1088.94 490.831,1085.53 487.738,1082.11 484.675,1078.67 481.642,1075.22 478.641,1071.76 475.671,1068.29 472.731,1064.8 469.821,1061.3 466.94,1057.8 464.087,1054.28 461.26,1050.75 458.459,1047.21 455.682,1043.66 452.926,1040.1 450.189,1036.54 447.47,1032.97 444.764,1029.39 442.07,1025.81 439.383,1022.23 436.702,1018.65 434.022,1015.06 431.338,1011.48 428.649,1007.89 425.946,1004.32 423.225,1000.74 420.493,997.157 417.76,993.574 415.033,989.986 412.319,986.393 409.626,982.792 406.961,979.184 404.329,975.568 401.737,971.941 399.187,968.305 396.686,964.657 394.237,960.998 391.843,957.326 389.507,953.642 387.232,949.946 385.018,946.236 382.868,942.514 380.781,938.779 378.759,935.03 376.8,931.269 374.903,927.495 373.068,923.709 371.291,919.911 369.571,916.103 367.905,912.283 366.288,908.454 364.716,904.616 363.186,900.769 361.691,896.916 360.226,893.057 358.785,889.192 357.36,885.325 355.944,881.454 354.53,877.584 353.109,873.714 351.672,869.846 350.21,865.983 348.712,862.127 347.209,858.272 345.829,854.403 344.573,850.519 343.432,846.622 342.397,842.713 341.46,838.792 340.611,834.862 339.844,830.923 339.15,826.977 338.523,823.023 337.956,819.063 337.442,815.098 336.975,811.129 336.549,807.156 336.16,803.18 335.802,799.201 335.471,795.22 335.162,791.238 334.871,787.255 334.595,783.271 334.332,779.286 334.077,775.302 333.83,771.318 333.587,767.333 333.347,763.35 333.108,759.367 332.871,755.384 332.634,751.401 332.397,747.418 332.16,743.436 331.924,739.453 331.69,735.469 331.47,731.484 331.289,727.496 331.151,723.507 331.057,719.517 331.011,715.527 331.013,711.536 331.065,707.547 331.169,703.558 331.327,699.572 331.539,695.588 331.806,691.606 332.13,687.628 332.511,683.653 332.948,679.683 333.443,675.716 333.996,671.754 334.606,667.796 335.273,663.844 335.996,659.896 336.776,655.954 337.61,652.017 338.498,648.085 339.439,644.158 340.432,640.237 341.474,636.321 342.564,632.411 343.7,628.505 344.879,624.604 346.1,620.709 347.361,616.817 348.657,612.93 349.986,609.047 351.346,605.167 352.733,601.291 354.143,597.418 355.573,593.548 357.02,589.679 358.478,585.811 359.944,581.945 361.414,578.079 362.883,574.214 364.346,570.347 365.799,566.478 367.236,562.608 368.698,558.742 370.242,554.893 371.867,551.059 373.573,547.243 375.359,543.443 377.222,539.66 379.162,535.895 381.177,532.147 383.265,528.416 385.424,524.702 387.651,521.005 389.946,517.326 392.305,513.662 394.725,510.015 397.205,506.384 399.741,502.768 402.33,499.166 404.969,495.578 407.655,492.004 410.385,488.442 413.154,484.891 415.958,481.351 418.795,477.82 421.66,474.298 424.549,470.782 427.457,467.273 430.379,463.769 433.313,460.267 436.251,456.767 439.19,453.267 442.124,449.766 445.048,446.262 447.959,442.754 450.863,439.244 453.761,435.733 456.656,432.222 459.55,428.71 462.444,425.199 465.34,421.687 468.239,418.177 471.144,414.668 474.055,411.161 476.976,407.656 479.906,404.155 482.849,400.657 485.806,397.164 488.779,393.677 491.77,390.196 494.779,386.722 497.81,383.256 500.864,379.8 503.942,376.354 507.047,372.918 510.18,369.496 513.344,366.087 516.539,362.693 519.769,359.315 523.034,355.955 526.336,352.614 529.678,349.293 533.061,345.995 536.555,342.756 540.202,339.6 543.982,336.517 547.875,333.494 551.863,330.523 555.928,327.594 560.055,324.699 564.231,321.83 568.442,318.98 572.677,316.143 576.927,313.315 581.183,310.489 585.438,307.663 589.687,304.834 593.924,301.998 598.148,299.156 602.357,296.305 606.551,293.446 610.731,290.579 614.9,287.707 619.062,284.83 623.224,281.954 627.391,279.08 631.571,276.213 635.757,273.344 639.956,270.48 644.176,267.629 648.425,264.798 652.709,261.993 657.034,259.219 661.406,256.482 665.827,253.784 670.302,251.129 674.831,248.52 679.417,245.957 684.059,243.441 688.758,240.972 693.511,238.55 698.317,236.171 703.172,233.834 708.072,231.536 713.012,229.272 717.986,227.036 722.987,224.825 728.008,222.629 733.039,220.444 738.073,218.259 743.097,216.067 748.104,213.859 753.116,211.653 758.146,209.461 763.196,207.286 768.271,205.135 773.373,203.011 778.505,200.919 783.669,198.86 788.866,196.838 794.099,194.854 799.366,192.909 804.668,191.005 810.006,189.14 815.378,187.314 820.783,185.527 826.219,183.776 831.683,182.058 837.174,180.371 842.687,178.712 848.22,177.074 853.767,175.455 859.325,173.848 864.889,172.248 870.452,170.647 876.008,169.038 881.552,167.411 887.079,165.752 892.595,164.072 898.104,162.378 903.61,160.678 909.118,158.982 914.631,157.295 920.151,155.624 925.683,153.974 931.227,152.35 936.787,150.756 942.364,149.195 947.958,147.669 953.572,146.181 959.204,144.73 964.856,143.317 970.527,141.942 976.217,140.604 981.924,139.299 987.646,138.025 993.383,136.779 999.131,135.556 1004.89,134.352 1010.65,133.159 1016.42,131.972 1022.18,130.783 1027.95,129.584 1033.7,128.375 1039.47,127.199 1045.26,126.064 1051.07,124.971 1056.89,123.92 1062.73,122.912 1068.58,121.947 1074.45,121.025 1080.33,120.145 1086.23,119.306 1092.14,118.509 1098.05,117.752 1103.98,117.033 1109.92,116.352 1115.87,115.707 1121.82,115.095 1127.79,114.514 1133.76,113.963 1139.73,113.438 1145.71,112.936 1151.7,112.455 1157.68,111.992 1163.68,111.542 1169.67,111.102 1175.66,110.668 1181.65,110.237 1187.65,109.802 1193.64,109.36 1199.63,108.917 1205.63,108.498 1211.63,108.107 1217.63,107.745 1223.64,107.414 1229.65,107.115 1235.66,106.851 1241.67,106.62 1247.69,106.425 1253.7,106.265 1259.72,106.141 1265.74,106.052 1271.76,105.997 1277.78,105.975 1283.8,105.987 1289.82,106.029 1295.84,106.1 1301.86,106.199 1307.88,106.323 1313.9,106.469 1319.92,106.635 1325.94,106.817 1331.95,107.012 1337.97,107.216 1343.99,107.425 1350.01,107.635 1356.03,107.842 1362.05,108.04 "/>
<path clip-path="url(#clip800)" d="M1859.76 248.629 L2282.9 248.629 L2282.9 93.1086 L1859.76 93.1086  Z" fill="#ffffff" fill-rule="evenodd" fill-opacity="1"/>
<polyline clip-path="url(#clip800)" style="stroke:#000000; stroke-linecap:round; stroke-linejoin:round; stroke-width:4; stroke-opacity:1; fill:none" points="1859.76,248.629 2282.9,248.629 2282.9,93.1086 1859.76,93.1086 1859.76,248.629 "/>
<polyline clip-path="url(#clip800)" style="stroke:#009af9; stroke-linecap:round; stroke-linejoin:round; stroke-width:16; stroke-opacity:1; fill:none" points="1883.05,144.949 2022.75,144.949 "/>
<path clip-path="url(#clip800)" d="M2062.05 130.84 Q2056.96 130.84 2053.95 134.636 Q2050.96 138.432 2050.96 144.983 Q2050.96 151.511 2053.95 155.307 Q2056.96 159.104 2062.05 159.104 Q2067.14 159.104 2070.11 155.307 Q2073.09 151.511 2073.09 144.983 Q2073.09 138.432 2070.11 134.636 Q2067.14 130.84 2062.05 130.84 M2062.05 127.044 Q2069.32 127.044 2073.67 131.928 Q2078.02 136.789 2078.02 144.983 Q2078.02 153.155 2073.67 158.039 Q2069.32 162.9 2062.05 162.9 Q2054.76 162.9 2050.39 158.039 Q2046.03 153.178 2046.03 144.983 Q2046.03 136.789 2050.39 131.928 Q2054.76 127.044 2062.05 127.044 Z" fill="#000000" fill-rule="nonzero" fill-opacity="1" /><path clip-path="url(#clip800)" d="M2100.18 140.284 Q2099.46 139.868 2098.6 139.682 Q2097.77 139.474 2096.75 139.474 Q2093.14 139.474 2091.2 141.835 Q2089.27 144.173 2089.27 148.571 L2089.27 162.229 L2084.99 162.229 L2084.99 136.303 L2089.27 136.303 L2089.27 140.331 Q2090.62 137.969 2092.77 136.835 Q2094.92 135.678 2098 135.678 Q2098.44 135.678 2098.97 135.747 Q2099.51 135.794 2100.15 135.909 L2100.18 140.284 Z" fill="#000000" fill-rule="nonzero" fill-opacity="1" /><path clip-path="url(#clip800)" d="M2104.64 136.303 L2108.9 136.303 L2108.9 162.229 L2104.64 162.229 L2104.64 136.303 M2104.64 126.21 L2108.9 126.21 L2108.9 131.604 L2104.64 131.604 L2104.64 126.21 Z" fill="#000000" fill-rule="nonzero" fill-opacity="1" /><path clip-path="url(#clip800)" d="M2134.88 148.965 Q2134.88 144.335 2132.95 141.789 Q2131.06 139.243 2127.61 139.243 Q2124.18 139.243 2122.26 141.789 Q2120.36 144.335 2120.36 148.965 Q2120.36 153.571 2122.26 156.118 Q2124.18 158.664 2127.61 158.664 Q2131.06 158.664 2132.95 156.118 Q2134.88 153.571 2134.88 148.965 M2139.13 159.011 Q2139.13 165.631 2136.2 168.849 Q2133.26 172.09 2127.19 172.09 Q2124.95 172.09 2122.95 171.742 Q2120.96 171.418 2119.09 170.724 L2119.09 166.58 Q2120.96 167.599 2122.79 168.085 Q2124.62 168.571 2126.52 168.571 Q2130.71 168.571 2132.79 166.372 Q2134.88 164.196 2134.88 159.775 L2134.88 157.668 Q2133.56 159.96 2131.5 161.094 Q2129.44 162.229 2126.57 162.229 Q2121.8 162.229 2118.88 158.594 Q2115.96 154.96 2115.96 148.965 Q2115.96 142.946 2118.88 139.312 Q2121.8 135.678 2126.57 135.678 Q2129.44 135.678 2131.5 136.812 Q2133.56 137.946 2134.88 140.238 L2134.88 136.303 L2139.13 136.303 L2139.13 159.011 Z" fill="#000000" fill-rule="nonzero" fill-opacity="1" /><path clip-path="url(#clip800)" d="M2147.91 136.303 L2152.17 136.303 L2152.17 162.229 L2147.91 162.229 L2147.91 136.303 M2147.91 126.21 L2152.17 126.21 L2152.17 131.604 L2147.91 131.604 L2147.91 126.21 Z" fill="#000000" fill-rule="nonzero" fill-opacity="1" /><path clip-path="url(#clip800)" d="M2182.63 146.581 L2182.63 162.229 L2178.37 162.229 L2178.37 146.719 Q2178.37 143.039 2176.94 141.21 Q2175.5 139.382 2172.63 139.382 Q2169.18 139.382 2167.19 141.581 Q2165.2 143.78 2165.2 147.576 L2165.2 162.229 L2160.92 162.229 L2160.92 136.303 L2165.2 136.303 L2165.2 140.331 Q2166.73 137.993 2168.79 136.835 Q2170.87 135.678 2173.58 135.678 Q2178.05 135.678 2180.34 138.456 Q2182.63 141.21 2182.63 146.581 Z" fill="#000000" fill-rule="nonzero" fill-opacity="1" /><path clip-path="url(#clip800)" d="M2202.91 149.196 Q2197.75 149.196 2195.75 150.377 Q2193.76 151.557 2193.76 154.405 Q2193.76 156.673 2195.25 158.016 Q2196.75 159.335 2199.32 159.335 Q2202.86 159.335 2204.99 156.835 Q2207.14 154.312 2207.14 150.145 L2207.14 149.196 L2202.91 149.196 M2211.4 147.437 L2211.4 162.229 L2207.14 162.229 L2207.14 158.293 Q2205.69 160.655 2203.51 161.789 Q2201.33 162.9 2198.19 162.9 Q2194.2 162.9 2191.84 160.678 Q2189.5 158.432 2189.5 154.682 Q2189.5 150.307 2192.42 148.085 Q2195.36 145.863 2201.17 145.863 L2207.14 145.863 L2207.14 145.446 Q2207.14 142.507 2205.2 140.909 Q2203.28 139.289 2199.78 139.289 Q2197.56 139.289 2195.45 139.821 Q2193.35 140.354 2191.4 141.419 L2191.4 137.483 Q2193.74 136.581 2195.94 136.141 Q2198.14 135.678 2200.22 135.678 Q2205.85 135.678 2208.63 138.594 Q2211.4 141.511 2211.4 147.437 Z" fill="#000000" fill-rule="nonzero" fill-opacity="1" /><path clip-path="url(#clip800)" d="M2220.18 126.21 L2224.44 126.21 L2224.44 162.229 L2220.18 162.229 L2220.18 126.21 Z" fill="#000000" fill-rule="nonzero" fill-opacity="1" /><polyline clip-path="url(#clip800)" style="stroke:#e26f46; stroke-linecap:round; stroke-linejoin:round; stroke-width:16; stroke-opacity:1; fill:none" points="1883.05,196.789 2022.75,196.789 "/>
<path clip-path="url(#clip800)" d="M2050.71 183.351 L2050.71 196.337 L2056.59 196.337 Q2059.85 196.337 2061.64 194.647 Q2063.42 192.958 2063.42 189.833 Q2063.42 186.731 2061.64 185.041 Q2059.85 183.351 2056.59 183.351 L2050.71 183.351 M2046.03 179.509 L2056.59 179.509 Q2062.4 179.509 2065.36 182.147 Q2068.35 184.763 2068.35 189.833 Q2068.35 194.948 2065.36 197.564 Q2062.4 200.18 2056.59 200.18 L2050.71 200.18 L2050.71 214.069 L2046.03 214.069 L2046.03 179.509 Z" fill="#000000" fill-rule="nonzero" fill-opacity="1" /><path clip-path="url(#clip800)" d="M2088.63 192.124 Q2087.91 191.708 2087.05 191.522 Q2086.22 191.314 2085.2 191.314 Q2081.59 191.314 2079.64 193.675 Q2077.72 196.013 2077.72 200.411 L2077.72 214.069 L2073.44 214.069 L2073.44 188.143 L2077.72 188.143 L2077.72 192.171 Q2079.07 189.809 2081.22 188.675 Q2083.37 187.518 2086.45 187.518 Q2086.89 187.518 2087.42 187.587 Q2087.95 187.634 2088.6 187.749 L2088.63 192.124 Z" fill="#000000" fill-rule="nonzero" fill-opacity="1" /><path clip-path="url(#clip800)" d="M2114.23 200.041 L2114.23 202.124 L2094.64 202.124 Q2094.92 206.522 2097.28 208.837 Q2099.67 211.129 2103.9 211.129 Q2106.36 211.129 2108.65 210.527 Q2110.96 209.925 2113.23 208.721 L2113.23 212.749 Q2110.94 213.721 2108.53 214.231 Q2106.13 214.74 2103.65 214.74 Q2097.45 214.74 2093.81 211.129 Q2090.2 207.518 2090.2 201.36 Q2090.2 194.995 2093.63 191.268 Q2097.07 187.518 2102.91 187.518 Q2108.14 187.518 2111.17 190.897 Q2114.23 194.254 2114.23 200.041 M2109.97 198.791 Q2109.92 195.296 2108 193.212 Q2106.1 191.129 2102.95 191.129 Q2099.39 191.129 2097.24 193.143 Q2095.11 195.157 2094.78 198.814 L2109.97 198.791 Z" fill="#000000" fill-rule="nonzero" fill-opacity="1" /><path clip-path="url(#clip800)" d="M2138.28 192.078 L2138.28 178.05 L2142.54 178.05 L2142.54 214.069 L2138.28 214.069 L2138.28 210.18 Q2136.94 212.495 2134.88 213.629 Q2132.84 214.74 2129.97 214.74 Q2125.27 214.74 2122.31 210.99 Q2119.37 207.24 2119.37 201.129 Q2119.37 195.018 2122.31 191.268 Q2125.27 187.518 2129.97 187.518 Q2132.84 187.518 2134.88 188.652 Q2136.94 189.763 2138.28 192.078 M2123.76 201.129 Q2123.76 205.828 2125.69 208.513 Q2127.63 211.175 2131.01 211.175 Q2134.39 211.175 2136.33 208.513 Q2138.28 205.828 2138.28 201.129 Q2138.28 196.43 2136.33 193.768 Q2134.39 191.083 2131.01 191.083 Q2127.63 191.083 2125.69 193.768 Q2123.76 196.43 2123.76 201.129 Z" fill="#000000" fill-rule="nonzero" fill-opacity="1" /><path clip-path="url(#clip800)" d="M2151.31 188.143 L2155.57 188.143 L2155.57 214.069 L2151.31 214.069 L2151.31 188.143 M2151.31 178.05 L2155.57 178.05 L2155.57 183.444 L2151.31 183.444 L2151.31 178.05 Z" fill="#000000" fill-rule="nonzero" fill-opacity="1" /><path clip-path="url(#clip800)" d="M2183.14 189.138 L2183.14 193.12 Q2181.33 192.124 2179.5 191.638 Q2177.7 191.129 2175.85 191.129 Q2171.7 191.129 2169.41 193.768 Q2167.12 196.384 2167.12 201.129 Q2167.12 205.874 2169.41 208.513 Q2171.7 211.129 2175.85 211.129 Q2177.7 211.129 2179.5 210.643 Q2181.33 210.133 2183.14 209.138 L2183.14 213.073 Q2181.36 213.907 2179.44 214.323 Q2177.54 214.74 2175.38 214.74 Q2169.53 214.74 2166.08 211.059 Q2162.63 207.379 2162.63 201.129 Q2162.63 194.786 2166.1 191.152 Q2169.6 187.518 2175.66 187.518 Q2177.63 187.518 2179.5 187.935 Q2181.38 188.328 2183.14 189.138 Z" fill="#000000" fill-rule="nonzero" fill-opacity="1" /><path clip-path="url(#clip800)" d="M2194.76 180.782 L2194.76 188.143 L2203.53 188.143 L2203.53 191.453 L2194.76 191.453 L2194.76 205.527 Q2194.76 208.698 2195.62 209.601 Q2196.5 210.504 2199.16 210.504 L2203.53 210.504 L2203.53 214.069 L2199.16 214.069 Q2194.23 214.069 2192.35 212.24 Q2190.48 210.388 2190.48 205.527 L2190.48 191.453 L2187.35 191.453 L2187.35 188.143 L2190.48 188.143 L2190.48 180.782 L2194.76 180.782 Z" fill="#000000" fill-rule="nonzero" fill-opacity="1" /><path clip-path="url(#clip800)" d="M2231.31 200.041 L2231.31 202.124 L2211.73 202.124 Q2212 206.522 2214.37 208.837 Q2216.75 211.129 2220.99 211.129 Q2223.44 211.129 2225.73 210.527 Q2228.05 209.925 2230.31 208.721 L2230.31 212.749 Q2228.02 213.721 2225.62 214.231 Q2223.21 214.74 2220.73 214.74 Q2214.53 214.74 2210.89 211.129 Q2207.28 207.518 2207.28 201.36 Q2207.28 194.995 2210.71 191.268 Q2214.16 187.518 2219.99 187.518 Q2225.22 187.518 2228.25 190.897 Q2231.31 194.254 2231.31 200.041 M2227.05 198.791 Q2227 195.296 2225.08 193.212 Q2223.19 191.129 2220.04 191.129 Q2216.47 191.129 2214.32 193.143 Q2212.19 195.157 2211.87 198.814 L2227.05 198.791 Z" fill="#000000" fill-rule="nonzero" fill-opacity="1" /><path clip-path="url(#clip800)" d="M2255.36 192.078 L2255.36 178.05 L2259.62 178.05 L2259.62 214.069 L2255.36 214.069 L2255.36 210.18 Q2254.02 212.495 2251.96 213.629 Q2249.92 214.74 2247.05 214.74 Q2242.35 214.74 2239.39 210.99 Q2236.45 207.24 2236.45 201.129 Q2236.45 195.018 2239.39 191.268 Q2242.35 187.518 2247.05 187.518 Q2249.92 187.518 2251.96 188.652 Q2254.02 189.763 2255.36 192.078 M2240.85 201.129 Q2240.85 205.828 2242.77 208.513 Q2244.71 211.175 2248.09 211.175 Q2251.47 211.175 2253.42 208.513 Q2255.36 205.828 2255.36 201.129 Q2255.36 196.43 2253.42 193.768 Q2251.47 191.083 2248.09 191.083 Q2244.71 191.083 2242.77 193.768 Q2240.85 196.43 2240.85 201.129 Z" fill="#000000" fill-rule="nonzero" fill-opacity="1" /></svg>
