<?xml version="1.0" encoding="utf-8"?>
<svg xmlns="http://www.w3.org/2000/svg" xmlns:xlink="http://www.w3.org/1999/xlink" width="600" height="400" viewBox="0 0 2400 1600">
<defs>
  <clipPath id="clip740">
    <rect x="0" y="0" width="2400" height="1600"/>
  </clipPath>
</defs>
<path clip-path="url(#clip740)" d="M0 1600 L2400 1600 L2400 0 L0 0  Z" fill="#ffffff" fill-rule="evenodd" fill-opacity="1"/>
<defs>
  <clipPath id="clip741">
    <rect x="480" y="0" width="1681" height="1600"/>
  </clipPath>
</defs>
<path clip-path="url(#clip740)" d="M257.204 1423.18 L2352.76 1423.18 L2352.76 47.2441 L257.204 47.2441  Z" fill="#ffffff" fill-rule="evenodd" fill-opacity="1"/>
<defs>
  <clipPath id="clip742">
    <rect x="257" y="47" width="2097" height="1377"/>
  </clipPath>
</defs>
<polyline clip-path="url(#clip742)" style="stroke:#000000; stroke-linecap:round; stroke-linejoin:round; stroke-width:2; stroke-opacity:0.1; fill:none" points="316.511,1423.18 316.511,47.2441 "/>
<polyline clip-path="url(#clip742)" style="stroke:#000000; stroke-linecap:round; stroke-linejoin:round; stroke-width:2; stroke-opacity:0.1; fill:none" points="806.005,1423.18 806.005,47.2441 "/>
<polyline clip-path="url(#clip742)" style="stroke:#000000; stroke-linecap:round; stroke-linejoin:round; stroke-width:2; stroke-opacity:0.1; fill:none" points="1295.5,1423.18 1295.5,47.2441 "/>
<polyline clip-path="url(#clip742)" style="stroke:#000000; stroke-linecap:round; stroke-linejoin:round; stroke-width:2; stroke-opacity:0.1; fill:none" points="1784.99,1423.18 1784.99,47.2441 "/>
<polyline clip-path="url(#clip742)" style="stroke:#000000; stroke-linecap:round; stroke-linejoin:round; stroke-width:2; stroke-opacity:0.1; fill:none" points="2274.49,1423.18 2274.49,47.2441 "/>
<polyline clip-path="url(#clip740)" style="stroke:#000000; stroke-linecap:round; stroke-linejoin:round; stroke-width:4; stroke-opacity:1; fill:none" points="257.204,1423.18 2352.76,1423.18 "/>
<polyline clip-path="url(#clip740)" style="stroke:#000000; stroke-linecap:round; stroke-linejoin:round; stroke-width:4; stroke-opacity:1; fill:none" points="316.511,1423.18 316.511,1404.28 "/>
<polyline clip-path="url(#clip740)" style="stroke:#000000; stroke-linecap:round; stroke-linejoin:round; stroke-width:4; stroke-opacity:1; fill:none" points="806.005,1423.18 806.005,1404.28 "/>
<polyline clip-path="url(#clip740)" style="stroke:#000000; stroke-linecap:round; stroke-linejoin:round; stroke-width:4; stroke-opacity:1; fill:none" points="1295.5,1423.18 1295.5,1404.28 "/>
<polyline clip-path="url(#clip740)" style="stroke:#000000; stroke-linecap:round; stroke-linejoin:round; stroke-width:4; stroke-opacity:1; fill:none" points="1784.99,1423.18 1784.99,1404.28 "/>
<polyline clip-path="url(#clip740)" style="stroke:#000000; stroke-linecap:round; stroke-linejoin:round; stroke-width:4; stroke-opacity:1; fill:none" points="2274.49,1423.18 2274.49,1404.28 "/>
<path clip-path="url(#clip740)" d="M263.039 1468.75 L292.715 1468.75 L292.715 1472.69 L263.039 1472.69 L263.039 1468.75 Z" fill="#000000" fill-rule="nonzero" fill-opacity="1" /><path clip-path="url(#clip740)" d="M303.617 1481.64 L311.256 1481.64 L311.256 1455.28 L302.946 1456.95 L302.946 1452.69 L311.21 1451.02 L315.886 1451.02 L315.886 1481.64 L323.525 1481.64 L323.525 1485.58 L303.617 1485.58 L303.617 1481.64 Z" fill="#000000" fill-rule="nonzero" fill-opacity="1" /><path clip-path="url(#clip740)" d="M332.969 1479.7 L337.853 1479.7 L337.853 1485.58 L332.969 1485.58 L332.969 1479.7 Z" fill="#000000" fill-rule="nonzero" fill-opacity="1" /><path clip-path="url(#clip740)" d="M358.038 1454.1 Q354.427 1454.1 352.599 1457.66 Q350.793 1461.2 350.793 1468.33 Q350.793 1475.44 352.599 1479.01 Q354.427 1482.55 358.038 1482.55 Q361.673 1482.55 363.478 1479.01 Q365.307 1475.44 365.307 1468.33 Q365.307 1461.2 363.478 1457.66 Q361.673 1454.1 358.038 1454.1 M358.038 1450.39 Q363.849 1450.39 366.904 1455 Q369.983 1459.58 369.983 1468.33 Q369.983 1477.06 366.904 1481.67 Q363.849 1486.25 358.038 1486.25 Q352.228 1486.25 349.15 1481.67 Q346.094 1477.06 346.094 1468.33 Q346.094 1459.58 349.15 1455 Q352.228 1450.39 358.038 1450.39 Z" fill="#000000" fill-rule="nonzero" fill-opacity="1" /><path clip-path="url(#clip740)" d="M753.031 1468.75 L782.707 1468.75 L782.707 1472.69 L753.031 1472.69 L753.031 1468.75 Z" fill="#000000" fill-rule="nonzero" fill-opacity="1" /><path clip-path="url(#clip740)" d="M802.799 1454.1 Q799.188 1454.1 797.36 1457.66 Q795.554 1461.2 795.554 1468.33 Q795.554 1475.44 797.36 1479.01 Q799.188 1482.55 802.799 1482.55 Q806.434 1482.55 808.239 1479.01 Q810.068 1475.44 810.068 1468.33 Q810.068 1461.2 808.239 1457.66 Q806.434 1454.1 802.799 1454.1 M802.799 1450.39 Q808.61 1450.39 811.665 1455 Q814.744 1459.58 814.744 1468.33 Q814.744 1477.06 811.665 1481.67 Q808.61 1486.25 802.799 1486.25 Q796.989 1486.25 793.911 1481.67 Q790.855 1477.06 790.855 1468.33 Q790.855 1459.58 793.911 1455 Q796.989 1450.39 802.799 1450.39 Z" fill="#000000" fill-rule="nonzero" fill-opacity="1" /><path clip-path="url(#clip740)" d="M822.961 1479.7 L827.846 1479.7 L827.846 1485.58 L822.961 1485.58 L822.961 1479.7 Z" fill="#000000" fill-rule="nonzero" fill-opacity="1" /><path clip-path="url(#clip740)" d="M838.077 1451.02 L856.433 1451.02 L856.433 1454.96 L842.359 1454.96 L842.359 1463.43 Q843.378 1463.08 844.396 1462.92 Q845.415 1462.73 846.434 1462.73 Q852.221 1462.73 855.6 1465.9 Q858.98 1469.08 858.98 1474.49 Q858.98 1480.07 855.508 1483.17 Q852.035 1486.25 845.716 1486.25 Q843.54 1486.25 841.272 1485.88 Q839.026 1485.51 836.619 1484.77 L836.619 1480.07 Q838.702 1481.2 840.924 1481.76 Q843.146 1482.32 845.623 1482.32 Q849.628 1482.32 851.966 1480.21 Q854.304 1478.1 854.304 1474.49 Q854.304 1470.88 851.966 1468.77 Q849.628 1466.67 845.623 1466.67 Q843.748 1466.67 841.873 1467.08 Q840.022 1467.5 838.077 1468.38 L838.077 1451.02 Z" fill="#000000" fill-rule="nonzero" fill-opacity="1" /><path clip-path="url(#clip740)" d="M1272.88 1454.1 Q1269.27 1454.1 1267.44 1457.66 Q1265.64 1461.2 1265.64 1468.33 Q1265.64 1475.44 1267.44 1479.01 Q1269.27 1482.55 1272.88 1482.55 Q1276.52 1482.55 1278.32 1479.01 Q1280.15 1475.44 1280.15 1468.33 Q1280.15 1461.2 1278.32 1457.66 Q1276.52 1454.1 1272.88 1454.1 M1272.88 1450.39 Q1278.69 1450.39 1281.75 1455 Q1284.83 1459.58 1284.83 1468.33 Q1284.83 1477.06 1281.75 1481.67 Q1278.69 1486.25 1272.88 1486.25 Q1267.07 1486.25 1264 1481.67 Q1260.94 1477.06 1260.94 1468.33 Q1260.94 1459.58 1264 1455 Q1267.07 1450.39 1272.88 1450.39 Z" fill="#000000" fill-rule="nonzero" fill-opacity="1" /><path clip-path="url(#clip740)" d="M1293.05 1479.7 L1297.93 1479.7 L1297.93 1485.58 L1293.05 1485.58 L1293.05 1479.7 Z" fill="#000000" fill-rule="nonzero" fill-opacity="1" /><path clip-path="url(#clip740)" d="M1318.12 1454.1 Q1314.5 1454.1 1312.68 1457.66 Q1310.87 1461.2 1310.87 1468.33 Q1310.87 1475.44 1312.68 1479.01 Q1314.5 1482.55 1318.12 1482.55 Q1321.75 1482.55 1323.56 1479.01 Q1325.38 1475.44 1325.38 1468.33 Q1325.38 1461.2 1323.56 1457.66 Q1321.75 1454.1 1318.12 1454.1 M1318.12 1450.39 Q1323.93 1450.39 1326.98 1455 Q1330.06 1459.58 1330.06 1468.33 Q1330.06 1477.06 1326.98 1481.67 Q1323.93 1486.25 1318.12 1486.25 Q1312.31 1486.25 1309.23 1481.67 Q1306.17 1477.06 1306.17 1468.33 Q1306.17 1459.58 1309.23 1455 Q1312.31 1450.39 1318.12 1450.39 Z" fill="#000000" fill-rule="nonzero" fill-opacity="1" /><path clip-path="url(#clip740)" d="M1762.88 1454.1 Q1759.27 1454.1 1757.44 1457.66 Q1755.63 1461.2 1755.63 1468.33 Q1755.63 1475.44 1757.44 1479.01 Q1759.27 1482.55 1762.88 1482.55 Q1766.51 1482.55 1768.32 1479.01 Q1770.15 1475.44 1770.15 1468.33 Q1770.15 1461.2 1768.32 1457.66 Q1766.51 1454.1 1762.88 1454.1 M1762.88 1450.39 Q1768.69 1450.39 1771.74 1455 Q1774.82 1459.58 1774.82 1468.33 Q1774.82 1477.06 1771.74 1481.67 Q1768.69 1486.25 1762.88 1486.25 Q1757.07 1486.25 1753.99 1481.67 Q1750.93 1477.06 1750.93 1468.33 Q1750.93 1459.58 1753.99 1455 Q1757.07 1450.39 1762.88 1450.39 Z" fill="#000000" fill-rule="nonzero" fill-opacity="1" /><path clip-path="url(#clip740)" d="M1783.04 1479.7 L1787.92 1479.7 L1787.92 1485.58 L1783.04 1485.58 L1783.04 1479.7 Z" fill="#000000" fill-rule="nonzero" fill-opacity="1" /><path clip-path="url(#clip740)" d="M1798.15 1451.02 L1816.51 1451.02 L1816.51 1454.96 L1802.44 1454.96 L1802.44 1463.43 Q1803.46 1463.08 1804.47 1462.92 Q1805.49 1462.73 1806.51 1462.73 Q1812.3 1462.73 1815.68 1465.9 Q1819.06 1469.08 1819.06 1474.49 Q1819.06 1480.07 1815.58 1483.17 Q1812.11 1486.25 1805.79 1486.25 Q1803.62 1486.25 1801.35 1485.88 Q1799.1 1485.51 1796.7 1484.77 L1796.7 1480.07 Q1798.78 1481.2 1801 1481.76 Q1803.22 1482.32 1805.7 1482.32 Q1809.71 1482.32 1812.04 1480.21 Q1814.38 1478.1 1814.38 1474.49 Q1814.38 1470.88 1812.04 1468.77 Q1809.71 1466.67 1805.7 1466.67 Q1803.83 1466.67 1801.95 1467.08 Q1800.1 1467.5 1798.15 1468.38 L1798.15 1451.02 Z" fill="#000000" fill-rule="nonzero" fill-opacity="1" /><path clip-path="url(#clip740)" d="M2241.64 1481.64 L2249.28 1481.64 L2249.28 1455.28 L2240.97 1456.95 L2240.97 1452.69 L2249.23 1451.02 L2253.91 1451.02 L2253.91 1481.64 L2261.55 1481.64 L2261.55 1485.58 L2241.64 1485.58 L2241.64 1481.64 Z" fill="#000000" fill-rule="nonzero" fill-opacity="1" /><path clip-path="url(#clip740)" d="M2270.99 1479.7 L2275.88 1479.7 L2275.88 1485.58 L2270.99 1485.58 L2270.99 1479.7 Z" fill="#000000" fill-rule="nonzero" fill-opacity="1" /><path clip-path="url(#clip740)" d="M2296.06 1454.1 Q2292.45 1454.1 2290.62 1457.66 Q2288.82 1461.2 2288.82 1468.33 Q2288.82 1475.44 2290.62 1479.01 Q2292.45 1482.55 2296.06 1482.55 Q2299.7 1482.55 2301.5 1479.01 Q2303.33 1475.44 2303.33 1468.33 Q2303.33 1461.2 2301.5 1457.66 Q2299.7 1454.1 2296.06 1454.1 M2296.06 1450.39 Q2301.87 1450.39 2304.93 1455 Q2308.01 1459.58 2308.01 1468.33 Q2308.01 1477.06 2304.93 1481.67 Q2301.87 1486.25 2296.06 1486.25 Q2290.25 1486.25 2287.17 1481.67 Q2284.12 1477.06 2284.12 1468.33 Q2284.12 1459.58 2287.17 1455 Q2290.25 1450.39 2296.06 1450.39 Z" fill="#000000" fill-rule="nonzero" fill-opacity="1" /><path clip-path="url(#clip740)" d="M1134.03 1525.81 L1134.03 1543.66 L1142.11 1543.66 Q1146.6 1543.66 1149.05 1541.34 Q1151.5 1539.02 1151.5 1534.72 Q1151.5 1530.45 1149.05 1528.13 Q1146.6 1525.81 1142.11 1525.81 L1134.03 1525.81 M1127.6 1520.52 L1142.11 1520.52 Q1150.1 1520.52 1154.18 1524.15 Q1158.28 1527.75 1158.28 1534.72 Q1158.28 1541.75 1154.18 1545.35 Q1150.1 1548.95 1142.11 1548.95 L1134.03 1548.95 L1134.03 1568.04 L1127.6 1568.04 L1127.6 1520.52 Z" fill="#000000" fill-rule="nonzero" fill-opacity="1" /><path clip-path="url(#clip740)" d="M1178.14 1536.5 Q1173.43 1536.5 1170.7 1540.19 Q1167.96 1543.85 1167.96 1550.25 Q1167.96 1556.65 1170.66 1560.34 Q1173.4 1564 1178.14 1564 Q1182.82 1564 1185.56 1560.31 Q1188.3 1556.62 1188.3 1550.25 Q1188.3 1543.92 1185.56 1540.23 Q1182.82 1536.5 1178.14 1536.5 M1178.14 1531.54 Q1185.78 1531.54 1190.14 1536.5 Q1194.5 1541.47 1194.5 1550.25 Q1194.5 1559 1190.14 1564 Q1185.78 1568.97 1178.14 1568.97 Q1170.47 1568.97 1166.11 1564 Q1161.78 1559 1161.78 1550.25 Q1161.78 1541.47 1166.11 1536.5 Q1170.47 1531.54 1178.14 1531.54 Z" fill="#000000" fill-rule="nonzero" fill-opacity="1" /><path clip-path="url(#clip740)" d="M1226.94 1533.45 L1226.94 1538.98 Q1224.45 1537.71 1221.78 1537.07 Q1219.11 1536.44 1216.24 1536.44 Q1211.88 1536.44 1209.69 1537.77 Q1207.52 1539.11 1207.52 1541.79 Q1207.52 1543.82 1209.08 1545 Q1210.64 1546.15 1215.35 1547.2 L1217.36 1547.64 Q1223.59 1548.98 1226.2 1551.43 Q1228.85 1553.85 1228.85 1558.21 Q1228.85 1563.17 1224.9 1566.07 Q1220.98 1568.97 1214.11 1568.97 Q1211.24 1568.97 1208.13 1568.39 Q1205.04 1567.85 1201.6 1566.74 L1201.6 1560.69 Q1204.85 1562.38 1208 1563.24 Q1211.15 1564.07 1214.24 1564.07 Q1218.37 1564.07 1220.6 1562.66 Q1222.83 1561.23 1222.83 1558.65 Q1222.83 1556.27 1221.21 1554.99 Q1219.62 1553.72 1214.17 1552.54 L1212.14 1552.07 Q1206.69 1550.92 1204.27 1548.56 Q1201.86 1546.18 1201.86 1542.04 Q1201.86 1537.01 1205.42 1534.27 Q1208.99 1531.54 1215.54 1531.54 Q1218.79 1531.54 1221.65 1532.01 Q1224.52 1532.49 1226.94 1533.45 Z" fill="#000000" fill-rule="nonzero" fill-opacity="1" /><path clip-path="url(#clip740)" d="M1238.17 1532.4 L1244.03 1532.4 L1244.03 1568.04 L1238.17 1568.04 L1238.17 1532.4 M1238.17 1518.52 L1244.03 1518.52 L1244.03 1525.93 L1238.17 1525.93 L1238.17 1518.52 Z" fill="#000000" fill-rule="nonzero" fill-opacity="1" /><path clip-path="url(#clip740)" d="M1262.08 1522.27 L1262.08 1532.4 L1274.14 1532.4 L1274.14 1536.95 L1262.08 1536.95 L1262.08 1556.3 Q1262.08 1560.66 1263.25 1561.9 Q1264.46 1563.14 1268.12 1563.14 L1274.14 1563.14 L1274.14 1568.04 L1268.12 1568.04 Q1261.34 1568.04 1258.76 1565.53 Q1256.19 1562.98 1256.19 1556.3 L1256.19 1536.95 L1251.89 1536.95 L1251.89 1532.4 L1256.19 1532.4 L1256.19 1522.27 L1262.08 1522.27 Z" fill="#000000" fill-rule="nonzero" fill-opacity="1" /><path clip-path="url(#clip740)" d="M1281.84 1532.4 L1287.7 1532.4 L1287.7 1568.04 L1281.84 1568.04 L1281.84 1532.4 M1281.84 1518.52 L1287.7 1518.52 L1287.7 1525.93 L1281.84 1525.93 L1281.84 1518.52 Z" fill="#000000" fill-rule="nonzero" fill-opacity="1" /><path clip-path="url(#clip740)" d="M1313.76 1536.5 Q1309.05 1536.5 1306.32 1540.19 Q1303.58 1543.85 1303.58 1550.25 Q1303.58 1556.65 1306.28 1560.34 Q1309.02 1564 1313.76 1564 Q1318.44 1564 1321.18 1560.31 Q1323.92 1556.62 1323.92 1550.25 Q1323.92 1543.92 1321.18 1540.23 Q1318.44 1536.5 1313.76 1536.5 M1313.76 1531.54 Q1321.4 1531.54 1325.76 1536.5 Q1330.12 1541.47 1330.12 1550.25 Q1330.12 1559 1325.76 1564 Q1321.4 1568.97 1313.76 1568.97 Q1306.09 1568.97 1301.73 1564 Q1297.4 1559 1297.4 1550.25 Q1297.4 1541.47 1301.73 1536.5 Q1306.09 1531.54 1313.76 1531.54 Z" fill="#000000" fill-rule="nonzero" fill-opacity="1" /><path clip-path="url(#clip740)" d="M1369.46 1546.53 L1369.46 1568.04 L1363.61 1568.04 L1363.61 1546.72 Q1363.61 1541.66 1361.63 1539.14 Q1359.66 1536.63 1355.71 1536.63 Q1350.97 1536.63 1348.23 1539.65 Q1345.5 1542.68 1345.5 1547.9 L1345.5 1568.04 L1339.61 1568.04 L1339.61 1532.4 L1345.5 1532.4 L1345.5 1537.93 Q1347.6 1534.72 1350.43 1533.13 Q1353.3 1531.54 1357.02 1531.54 Q1363.16 1531.54 1366.31 1535.36 Q1369.46 1539.14 1369.46 1546.53 Z" fill="#000000" fill-rule="nonzero" fill-opacity="1" /><path clip-path="url(#clip740)" d="M1415.93 1518.58 Q1411.67 1525.9 1409.6 1533.06 Q1407.53 1540.23 1407.53 1547.58 Q1407.53 1554.93 1409.6 1562.16 Q1411.7 1569.35 1415.93 1576.64 L1410.84 1576.64 Q1406.07 1569.16 1403.68 1561.93 Q1401.32 1554.71 1401.32 1547.58 Q1401.32 1540.48 1403.68 1533.29 Q1406.04 1526.09 1410.84 1518.58 L1415.93 1518.58 Z" fill="#000000" fill-rule="nonzero" fill-opacity="1" /><path clip-path="url(#clip740)" d="M1430.8 1550.25 Q1430.8 1556.71 1433.44 1560.4 Q1436.11 1564.07 1440.76 1564.07 Q1445.41 1564.07 1448.08 1560.4 Q1450.75 1556.71 1450.75 1550.25 Q1450.75 1543.79 1448.08 1540.13 Q1445.41 1536.44 1440.76 1536.44 Q1436.11 1536.44 1433.44 1540.13 Q1430.8 1543.79 1430.8 1550.25 M1450.75 1562.7 Q1448.91 1565.88 1446.08 1567.44 Q1443.27 1568.97 1439.33 1568.97 Q1432.87 1568.97 1428.79 1563.81 Q1424.75 1558.65 1424.75 1550.25 Q1424.75 1541.85 1428.79 1536.69 Q1432.87 1531.54 1439.33 1531.54 Q1443.27 1531.54 1446.08 1533.1 Q1448.91 1534.62 1450.75 1537.81 L1450.75 1532.4 L1456.61 1532.4 L1456.61 1581.6 L1450.75 1581.6 L1450.75 1562.7 Z" fill="#000000" fill-rule="nonzero" fill-opacity="1" /><path clip-path="url(#clip740)" d="M1467.75 1518.58 L1472.84 1518.58 Q1477.62 1526.09 1479.97 1533.29 Q1482.36 1540.48 1482.36 1547.58 Q1482.36 1554.71 1479.97 1561.93 Q1477.62 1569.16 1472.84 1576.64 L1467.75 1576.64 Q1471.98 1569.35 1474.05 1562.16 Q1476.15 1554.93 1476.15 1547.58 Q1476.15 1540.23 1474.05 1533.06 Q1471.98 1525.9 1467.75 1518.58 Z" fill="#000000" fill-rule="nonzero" fill-opacity="1" /><polyline clip-path="url(#clip742)" style="stroke:#000000; stroke-linecap:round; stroke-linejoin:round; stroke-width:2; stroke-opacity:0.1; fill:none" points="257.204,1383.02 2352.76,1383.02 "/>
<polyline clip-path="url(#clip742)" style="stroke:#000000; stroke-linecap:round; stroke-linejoin:round; stroke-width:2; stroke-opacity:0.1; fill:none" points="257.204,1058.81 2352.76,1058.81 "/>
<polyline clip-path="url(#clip742)" style="stroke:#000000; stroke-linecap:round; stroke-linejoin:round; stroke-width:2; stroke-opacity:0.1; fill:none" points="257.204,734.602 2352.76,734.602 "/>
<polyline clip-path="url(#clip742)" style="stroke:#000000; stroke-linecap:round; stroke-linejoin:round; stroke-width:2; stroke-opacity:0.1; fill:none" points="257.204,410.394 2352.76,410.394 "/>
<polyline clip-path="url(#clip742)" style="stroke:#000000; stroke-linecap:round; stroke-linejoin:round; stroke-width:2; stroke-opacity:0.1; fill:none" points="257.204,86.1857 2352.76,86.1857 "/>
<polyline clip-path="url(#clip740)" style="stroke:#000000; stroke-linecap:round; stroke-linejoin:round; stroke-width:4; stroke-opacity:1; fill:none" points="257.204,1423.18 257.204,47.2441 "/>
<polyline clip-path="url(#clip740)" style="stroke:#000000; stroke-linecap:round; stroke-linejoin:round; stroke-width:4; stroke-opacity:1; fill:none" points="257.204,1383.02 276.102,1383.02 "/>
<polyline clip-path="url(#clip740)" style="stroke:#000000; stroke-linecap:round; stroke-linejoin:round; stroke-width:4; stroke-opacity:1; fill:none" points="257.204,1058.81 276.102,1058.81 "/>
<polyline clip-path="url(#clip740)" style="stroke:#000000; stroke-linecap:round; stroke-linejoin:round; stroke-width:4; stroke-opacity:1; fill:none" points="257.204,734.602 276.102,734.602 "/>
<polyline clip-path="url(#clip740)" style="stroke:#000000; stroke-linecap:round; stroke-linejoin:round; stroke-width:4; stroke-opacity:1; fill:none" points="257.204,410.394 276.102,410.394 "/>
<polyline clip-path="url(#clip740)" style="stroke:#000000; stroke-linecap:round; stroke-linejoin:round; stroke-width:4; stroke-opacity:1; fill:none" points="257.204,86.1857 276.102,86.1857 "/>
<path clip-path="url(#clip740)" d="M114.26 1383.47 L143.936 1383.47 L143.936 1387.41 L114.26 1387.41 L114.26 1383.47 Z" fill="#000000" fill-rule="nonzero" fill-opacity="1" /><path clip-path="url(#clip740)" d="M154.839 1396.36 L162.477 1396.36 L162.477 1370 L154.167 1371.66 L154.167 1367.41 L162.431 1365.74 L167.107 1365.74 L167.107 1396.36 L174.746 1396.36 L174.746 1400.3 L154.839 1400.3 L154.839 1396.36 Z" fill="#000000" fill-rule="nonzero" fill-opacity="1" /><path clip-path="url(#clip740)" d="M184.19 1394.42 L189.075 1394.42 L189.075 1400.3 L184.19 1400.3 L184.19 1394.42 Z" fill="#000000" fill-rule="nonzero" fill-opacity="1" /><path clip-path="url(#clip740)" d="M209.26 1368.82 Q205.649 1368.82 203.82 1372.38 Q202.014 1375.92 202.014 1383.05 Q202.014 1390.16 203.82 1393.72 Q205.649 1397.27 209.26 1397.27 Q212.894 1397.27 214.699 1393.72 Q216.528 1390.16 216.528 1383.05 Q216.528 1375.92 214.699 1372.38 Q212.894 1368.82 209.26 1368.82 M209.26 1365.11 Q215.07 1365.11 218.125 1369.72 Q221.204 1374.3 221.204 1383.05 Q221.204 1391.78 218.125 1396.39 Q215.07 1400.97 209.26 1400.97 Q203.449 1400.97 200.371 1396.39 Q197.315 1391.78 197.315 1383.05 Q197.315 1374.3 200.371 1369.72 Q203.449 1365.11 209.26 1365.11 Z" fill="#000000" fill-rule="nonzero" fill-opacity="1" /><path clip-path="url(#clip740)" d="M115.256 1059.26 L144.931 1059.26 L144.931 1063.2 L115.256 1063.2 L115.256 1059.26 Z" fill="#000000" fill-rule="nonzero" fill-opacity="1" /><path clip-path="url(#clip740)" d="M165.024 1044.61 Q161.413 1044.61 159.584 1048.17 Q157.778 1051.72 157.778 1058.85 Q157.778 1065.95 159.584 1069.52 Q161.413 1073.06 165.024 1073.06 Q168.658 1073.06 170.464 1069.52 Q172.292 1065.95 172.292 1058.85 Q172.292 1051.72 170.464 1048.17 Q168.658 1044.61 165.024 1044.61 M165.024 1040.91 Q170.834 1040.91 173.889 1045.51 Q176.968 1050.1 176.968 1058.85 Q176.968 1067.57 173.889 1072.18 Q170.834 1076.76 165.024 1076.76 Q159.214 1076.76 156.135 1072.18 Q153.079 1067.57 153.079 1058.85 Q153.079 1050.1 156.135 1045.51 Q159.214 1040.91 165.024 1040.91 Z" fill="#000000" fill-rule="nonzero" fill-opacity="1" /><path clip-path="url(#clip740)" d="M185.186 1070.21 L190.07 1070.21 L190.07 1076.09 L185.186 1076.09 L185.186 1070.21 Z" fill="#000000" fill-rule="nonzero" fill-opacity="1" /><path clip-path="url(#clip740)" d="M200.301 1041.53 L218.658 1041.53 L218.658 1045.47 L204.584 1045.47 L204.584 1053.94 Q205.602 1053.59 206.621 1053.43 Q207.639 1053.24 208.658 1053.24 Q214.445 1053.24 217.824 1056.41 Q221.204 1059.59 221.204 1065 Q221.204 1070.58 217.732 1073.68 Q214.26 1076.76 207.94 1076.76 Q205.764 1076.76 203.496 1076.39 Q201.25 1076.02 198.843 1075.28 L198.843 1070.58 Q200.926 1071.72 203.149 1072.27 Q205.371 1072.83 207.848 1072.83 Q211.852 1072.83 214.19 1070.72 Q216.528 1068.61 216.528 1065 Q216.528 1061.39 214.19 1059.28 Q211.852 1057.18 207.848 1057.18 Q205.973 1057.18 204.098 1057.6 Q202.246 1058.01 200.301 1058.89 L200.301 1041.53 Z" fill="#000000" fill-rule="nonzero" fill-opacity="1" /><path clip-path="url(#clip740)" d="M164.028 720.401 Q160.417 720.401 158.589 723.966 Q156.783 727.507 156.783 734.637 Q156.783 741.743 158.589 745.308 Q160.417 748.85 164.028 748.85 Q167.663 748.85 169.468 745.308 Q171.297 741.743 171.297 734.637 Q171.297 727.507 169.468 723.966 Q167.663 720.401 164.028 720.401 M164.028 716.697 Q169.839 716.697 172.894 721.304 Q175.973 725.887 175.973 734.637 Q175.973 743.364 172.894 747.97 Q169.839 752.553 164.028 752.553 Q158.218 752.553 155.14 747.97 Q152.084 743.364 152.084 734.637 Q152.084 725.887 155.14 721.304 Q158.218 716.697 164.028 716.697 Z" fill="#000000" fill-rule="nonzero" fill-opacity="1" /><path clip-path="url(#clip740)" d="M184.19 746.002 L189.075 746.002 L189.075 751.882 L184.19 751.882 L184.19 746.002 Z" fill="#000000" fill-rule="nonzero" fill-opacity="1" /><path clip-path="url(#clip740)" d="M209.26 720.401 Q205.649 720.401 203.82 723.966 Q202.014 727.507 202.014 734.637 Q202.014 741.743 203.82 745.308 Q205.649 748.85 209.26 748.85 Q212.894 748.85 214.699 745.308 Q216.528 741.743 216.528 734.637 Q216.528 727.507 214.699 723.966 Q212.894 720.401 209.26 720.401 M209.26 716.697 Q215.07 716.697 218.125 721.304 Q221.204 725.887 221.204 734.637 Q221.204 743.364 218.125 747.97 Q215.07 752.553 209.26 752.553 Q203.449 752.553 200.371 747.97 Q197.315 743.364 197.315 734.637 Q197.315 725.887 200.371 721.304 Q203.449 716.697 209.26 716.697 Z" fill="#000000" fill-rule="nonzero" fill-opacity="1" /><path clip-path="url(#clip740)" d="M165.024 396.193 Q161.413 396.193 159.584 399.757 Q157.778 403.299 157.778 410.429 Q157.778 417.535 159.584 421.1 Q161.413 424.641 165.024 424.641 Q168.658 424.641 170.464 421.1 Q172.292 417.535 172.292 410.429 Q172.292 403.299 170.464 399.757 Q168.658 396.193 165.024 396.193 M165.024 392.489 Q170.834 392.489 173.889 397.095 Q176.968 401.679 176.968 410.429 Q176.968 419.155 173.889 423.762 Q170.834 428.345 165.024 428.345 Q159.214 428.345 156.135 423.762 Q153.079 419.155 153.079 410.429 Q153.079 401.679 156.135 397.095 Q159.214 392.489 165.024 392.489 Z" fill="#000000" fill-rule="nonzero" fill-opacity="1" /><path clip-path="url(#clip740)" d="M185.186 421.794 L190.07 421.794 L190.07 427.674 L185.186 427.674 L185.186 421.794 Z" fill="#000000" fill-rule="nonzero" fill-opacity="1" /><path clip-path="url(#clip740)" d="M200.301 393.114 L218.658 393.114 L218.658 397.049 L204.584 397.049 L204.584 405.521 Q205.602 405.174 206.621 405.012 Q207.639 404.827 208.658 404.827 Q214.445 404.827 217.824 407.998 Q221.204 411.169 221.204 416.586 Q221.204 422.165 217.732 425.266 Q214.26 428.345 207.94 428.345 Q205.764 428.345 203.496 427.975 Q201.25 427.604 198.843 426.864 L198.843 422.165 Q200.926 423.299 203.149 423.854 Q205.371 424.41 207.848 424.41 Q211.852 424.41 214.19 422.304 Q216.528 420.197 216.528 416.586 Q216.528 412.975 214.19 410.868 Q211.852 408.762 207.848 408.762 Q205.973 408.762 204.098 409.179 Q202.246 409.595 200.301 410.475 L200.301 393.114 Z" fill="#000000" fill-rule="nonzero" fill-opacity="1" /><path clip-path="url(#clip740)" d="M154.839 99.5305 L162.477 99.5305 L162.477 73.1649 L154.167 74.8316 L154.167 70.5723 L162.431 68.9057 L167.107 68.9057 L167.107 99.5305 L174.746 99.5305 L174.746 103.466 L154.839 103.466 L154.839 99.5305 Z" fill="#000000" fill-rule="nonzero" fill-opacity="1" /><path clip-path="url(#clip740)" d="M184.19 97.5861 L189.075 97.5861 L189.075 103.466 L184.19 103.466 L184.19 97.5861 Z" fill="#000000" fill-rule="nonzero" fill-opacity="1" /><path clip-path="url(#clip740)" d="M209.26 71.9844 Q205.649 71.9844 203.82 75.5492 Q202.014 79.0908 202.014 86.2204 Q202.014 93.3268 203.82 96.8916 Q205.649 100.433 209.26 100.433 Q212.894 100.433 214.699 96.8916 Q216.528 93.3268 216.528 86.2204 Q216.528 79.0908 214.699 75.5492 Q212.894 71.9844 209.26 71.9844 M209.26 68.2807 Q215.07 68.2807 218.125 72.8871 Q221.204 77.4704 221.204 86.2204 Q221.204 94.9472 218.125 99.5537 Q215.07 104.137 209.26 104.137 Q203.449 104.137 200.371 99.5537 Q197.315 94.9472 197.315 86.2204 Q197.315 77.4704 200.371 72.8871 Q203.449 68.2807 209.26 68.2807 Z" fill="#000000" fill-rule="nonzero" fill-opacity="1" /><path clip-path="url(#clip740)" d="M16.4842 971.396 L16.4842 961.815 L48.8219 949.689 L16.4842 937.498 L16.4842 927.918 L64.0042 927.918 L64.0042 934.188 L22.277 934.188 L54.8694 946.442 L54.8694 952.903 L22.277 965.157 L64.0042 965.157 L64.0042 971.396 L16.4842 971.396 Z" fill="#000000" fill-rule="nonzero" fill-opacity="1" /><path clip-path="url(#clip740)" d="M32.4621 901.596 Q32.4621 906.306 36.1542 909.044 Q39.8145 911.781 46.212 911.781 Q52.6095 911.781 56.3017 909.075 Q59.9619 906.338 59.9619 901.596 Q59.9619 896.917 56.2698 894.18 Q52.5777 891.442 46.212 891.442 Q39.8781 891.442 36.186 894.18 Q32.4621 896.917 32.4621 901.596 M27.4968 901.596 Q27.4968 893.957 32.4621 889.596 Q37.4273 885.236 46.212 885.236 Q54.9649 885.236 59.9619 889.596 Q64.9272 893.957 64.9272 901.596 Q64.9272 909.266 59.9619 913.627 Q54.9649 917.955 46.212 917.955 Q37.4273 917.955 32.4621 913.627 Q27.4968 909.266 27.4968 901.596 Z" fill="#000000" fill-rule="nonzero" fill-opacity="1" /><path clip-path="url(#clip740)" d="M35.1993 847.774 Q31.2526 845.577 29.3747 842.522 Q27.4968 839.466 27.4968 835.329 Q27.4968 829.759 31.4117 826.735 Q35.2948 823.711 42.4881 823.711 L64.0042 823.711 L64.0042 829.599 L42.679 829.599 Q37.5546 829.599 35.072 831.414 Q32.5894 833.228 32.5894 836.952 Q32.5894 841.503 35.6131 844.145 Q38.6368 846.787 43.8567 846.787 L64.0042 846.787 L64.0042 852.675 L42.679 852.675 Q37.5228 852.675 35.072 854.489 Q32.5894 856.304 32.5894 860.091 Q32.5894 864.579 35.6449 867.221 Q38.6686 869.863 43.8567 869.863 L64.0042 869.863 L64.0042 875.751 L28.3562 875.751 L28.3562 869.863 L33.8944 869.863 Q30.616 867.857 29.0564 865.056 Q27.4968 862.256 27.4968 858.404 Q27.4968 854.521 29.4702 851.816 Q31.4436 849.079 35.1993 847.774 Z" fill="#000000" fill-rule="nonzero" fill-opacity="1" /><path clip-path="url(#clip740)" d="M44.7161 781.538 L47.5806 781.538 L47.5806 808.465 Q53.6281 808.083 56.8109 804.837 Q59.9619 801.559 59.9619 795.734 Q59.9619 792.36 59.1344 789.209 Q58.3069 786.026 56.6518 782.907 L62.1899 782.907 Q63.5267 786.058 64.227 789.368 Q64.9272 792.678 64.9272 796.084 Q64.9272 804.614 59.9619 809.611 Q54.9967 814.576 46.5303 814.576 Q37.7774 814.576 32.6531 809.866 Q27.4968 805.123 27.4968 797.103 Q27.4968 789.909 32.1438 785.74 Q36.7589 781.538 44.7161 781.538 M42.9973 787.395 Q38.1912 787.459 35.3266 790.1 Q32.4621 792.71 32.4621 797.039 Q32.4621 801.94 35.2312 804.901 Q38.0002 807.829 43.0292 808.274 L42.9973 787.395 Z" fill="#000000" fill-rule="nonzero" fill-opacity="1" /><path clip-path="url(#clip740)" d="M42.4881 742.294 L64.0042 742.294 L64.0042 748.15 L42.679 748.15 Q37.6183 748.15 35.1038 750.124 Q32.5894 752.097 32.5894 756.044 Q32.5894 760.786 35.6131 763.523 Q38.6368 766.261 43.8567 766.261 L64.0042 766.261 L64.0042 772.149 L28.3562 772.149 L28.3562 766.261 L33.8944 766.261 Q30.6797 764.16 29.0883 761.327 Q27.4968 758.463 27.4968 754.739 Q27.4968 748.596 31.3163 745.445 Q35.1038 742.294 42.4881 742.294 Z" fill="#000000" fill-rule="nonzero" fill-opacity="1" /><path clip-path="url(#clip740)" d="M18.2347 724.82 L28.3562 724.82 L28.3562 712.757 L32.9077 712.757 L32.9077 724.82 L52.2594 724.82 Q56.6199 724.82 57.8613 723.642 Q59.1026 722.433 59.1026 718.773 L59.1026 712.757 L64.0042 712.757 L64.0042 718.773 Q64.0042 725.552 61.4897 728.13 Q58.9434 730.708 52.2594 730.708 L32.9077 730.708 L32.9077 735.005 L28.3562 735.005 L28.3562 730.708 L18.2347 730.708 L18.2347 724.82 Z" fill="#000000" fill-rule="nonzero" fill-opacity="1" /><path clip-path="url(#clip740)" d="M49.9359 705.659 L28.3562 705.659 L28.3562 699.803 L49.7131 699.803 Q54.7739 699.803 57.3202 697.829 Q59.8346 695.856 59.8346 691.909 Q59.8346 687.167 56.8109 684.43 Q53.7872 681.66 48.5673 681.66 L28.3562 681.66 L28.3562 675.804 L64.0042 675.804 L64.0042 681.66 L58.5296 681.66 Q61.7762 683.793 63.3676 686.626 Q64.9272 689.427 64.9272 693.151 Q64.9272 699.293 61.1078 702.476 Q57.2883 705.659 49.9359 705.659 M27.4968 690.923 L27.4968 690.923 Z" fill="#000000" fill-rule="nonzero" fill-opacity="1" /><path clip-path="url(#clip740)" d="M35.1993 635.987 Q31.2526 633.79 29.3747 630.735 Q27.4968 627.679 27.4968 623.542 Q27.4968 617.972 31.4117 614.948 Q35.2948 611.924 42.4881 611.924 L64.0042 611.924 L64.0042 617.812 L42.679 617.812 Q37.5546 617.812 35.072 619.627 Q32.5894 621.441 32.5894 625.165 Q32.5894 629.716 35.6131 632.358 Q38.6368 635 43.8567 635 L64.0042 635 L64.0042 640.888 L42.679 640.888 Q37.5228 640.888 35.072 642.702 Q32.5894 644.517 32.5894 648.304 Q32.5894 652.792 35.6449 655.434 Q38.6686 658.076 43.8567 658.076 L64.0042 658.076 L64.0042 663.964 L28.3562 663.964 L28.3562 658.076 L33.8944 658.076 Q30.616 656.07 29.0564 653.269 Q27.4968 650.468 27.4968 646.617 Q27.4968 642.734 29.4702 640.029 Q31.4436 637.291 35.1993 635.987 Z" fill="#000000" fill-rule="nonzero" fill-opacity="1" /><path clip-path="url(#clip740)" d="M14.5426 565.454 Q21.8632 569.72 29.0246 571.788 Q36.186 573.857 43.5384 573.857 Q50.8908 573.857 58.1159 571.788 Q65.3091 569.688 72.5979 565.454 L72.5979 570.547 Q65.1182 575.321 57.8931 577.708 Q50.668 580.064 43.5384 580.064 Q36.4406 580.064 29.2474 577.708 Q22.0542 575.353 14.5426 570.547 L14.5426 565.454 Z" fill="#000000" fill-rule="nonzero" fill-opacity="1" /><path clip-path="url(#clip740)" d="M58.657 548.426 L77.5631 548.426 L77.5631 554.315 L28.3562 554.315 L28.3562 548.426 L33.7671 548.426 Q30.5842 546.58 29.0564 543.779 Q27.4968 540.947 27.4968 537.032 Q27.4968 530.539 32.6531 526.496 Q37.8093 522.422 46.212 522.422 Q54.6147 522.422 59.771 526.496 Q64.9272 530.539 64.9272 537.032 Q64.9272 540.947 63.3994 543.779 Q61.8398 546.58 58.657 548.426 M46.212 528.502 Q39.7508 528.502 36.0905 531.175 Q32.3984 533.817 32.3984 538.464 Q32.3984 543.111 36.0905 545.784 Q39.7508 548.426 46.212 548.426 Q52.6732 548.426 56.3653 545.784 Q60.0256 543.111 60.0256 538.464 Q60.0256 533.817 56.3653 531.175 Q52.6732 528.502 46.212 528.502 Z" fill="#000000" fill-rule="nonzero" fill-opacity="1" /><path clip-path="url(#clip740)" d="M14.5426 513.638 L14.5426 508.545 Q22.0542 503.771 29.2474 501.415 Q36.4406 499.028 43.5384 499.028 Q50.668 499.028 57.8931 501.415 Q65.1182 503.771 72.5979 508.545 L72.5979 513.638 Q65.3091 509.404 58.1159 507.336 Q50.8908 505.235 43.5384 505.235 Q36.186 505.235 29.0246 507.336 Q21.8632 509.404 14.5426 513.638 Z" fill="#000000" fill-rule="nonzero" fill-opacity="1" /><polyline clip-path="url(#clip742)" style="stroke:#009af9; stroke-linecap:round; stroke-linejoin:round; stroke-width:16; stroke-opacity:1; fill:none" points="1295.5,86.1857 1301.51,86.1979 1307.53,86.2346 1313.54,86.2957 1319.55,86.3814 1325.56,86.4914 1331.57,86.6259 1337.58,86.7848 1343.58,86.9682 1349.59,87.1761 1355.59,87.4083 1361.59,87.6649 1367.59,87.946 1373.58,88.2515 1379.58,88.5813 1385.57,88.9355 1391.55,89.3141 1397.53,89.717 1403.51,90.1442 1409.49,90.5958 1415.46,91.0716 1421.42,91.5717 1427.38,92.0961 1433.34,92.6447 1439.29,93.2175 1445.23,93.8145 1451.17,94.4357 1457.1,95.081 1463.03,95.7505 1468.95,96.4441 1474.87,97.1617 1480.77,97.9034 1486.68,98.6691 1492.57,99.4588 1498.46,100.272 1504.33,101.11 1510.2,101.972 1516.07,102.857 1521.92,103.766 1527.77,104.699 1533.6,105.656 1539.43,106.636 1545.25,107.64 1551.06,108.668 1556.86,109.72 1562.65,110.795 1568.43,111.893 1574.2,113.015 1579.96,114.16 1585.7,115.329 1591.44,116.522 1597.17,117.737 1602.88,118.976 1608.58,120.238 1614.28,121.523 1619.95,122.831 1625.62,124.163 1631.28,125.517 1636.92,126.895 1642.55,128.295 1648.16,129.718 1653.76,131.164 1659.35,132.633 1664.93,134.125 1670.49,135.639 1676.04,137.175 1681.57,138.735 1687.09,140.317 1692.59,141.921 1698.08,143.547 1703.55,145.196 1709.01,146.867 1714.45,148.56 1719.88,150.276 1725.29,152.013 1730.69,153.772 1736.06,155.554 1741.42,157.357 1746.77,159.182 1752.1,161.028 1757.41,162.897 1762.7,164.786 1767.97,166.698 1773.23,168.63 1778.47,170.585 1783.69,172.56 1788.89,174.556 1794.08,176.574 1799.24,178.613 1804.39,180.672 1809.52,182.753 1814.63,184.855 1819.71,186.977 1824.78,189.119 1829.83,191.283 1834.86,193.467 1839.87,195.671 1844.85,197.896 1849.82,200.141 1854.77,202.406 1859.69,204.691 1864.59,206.996 1869.48,209.321 1874.34,211.666 1879.17,214.03 1883.99,216.414 1888.78,218.818 1893.56,221.241 1898.3,223.684 1903.03,226.146 1907.73,228.627 1912.42,231.127 1917.07,233.646 1921.71,236.184 1926.32,238.741 1930.9,241.316 1935.46,243.91 1940,246.523 1944.52,249.154 1949.01,251.803 1953.47,254.471 1957.91,257.156 1962.33,259.86 1966.72,262.582 1971.08,265.321 1975.42,268.078 1979.73,270.853 1984.02,273.645 1988.28,276.455 1992.52,279.281 1996.73,282.125 2000.91,284.987 2005.06,287.865 2009.19,290.76 2013.3,293.671 2017.37,296.599 2021.42,299.544 2025.44,302.506 2029.43,305.483 2033.4,308.477 2037.34,311.487 2041.25,314.512 2045.13,317.554 2048.98,320.611 2052.81,323.684 2056.6,326.773 2060.37,329.876 2064.11,332.996 2067.82,336.13 2071.5,339.279 2075.15,342.443 2078.77,345.622 2082.36,348.816 2085.93,352.024 2089.46,355.247 2092.96,358.484 2096.43,361.735 2099.88,365 2103.29,368.279 2106.67,371.572 2110.02,374.879 2113.34,378.199 2116.63,381.533 2119.89,384.88 2123.12,388.24 2126.31,391.613 2129.48,394.999 2132.61,398.398 2135.71,401.81 2138.78,405.234 2141.82,408.671 2144.83,412.12 2147.8,415.581 2150.75,419.054 2153.66,422.539 2156.53,426.036 2159.38,429.545 2162.19,433.065 2164.97,436.596 2167.72,440.138 2170.43,443.692 2173.11,447.257 2175.76,450.832 2178.38,454.419 2180.96,458.015 2183.51,461.623 2186.02,465.24 2188.5,468.868 2190.95,472.506 2193.36,476.153 2195.74,479.811 2198.09,483.477 2200.4,487.154 2202.68,490.84 2204.92,494.535 2207.13,498.239 2209.3,501.952 2211.44,505.673 2213.55,509.404 2215.62,513.143 2217.66,516.89 2219.66,520.645 2221.62,524.409 2223.56,528.18 2225.45,531.959 2227.31,535.746 2229.14,539.54 2230.93,543.342 2232.69,547.151 2234.41,550.967 2236.09,554.79 2237.74,558.62 2239.36,562.456 2240.94,566.299 2242.48,570.148 2243.99,574.003 2245.46,577.865 2246.89,581.732 2248.29,585.605 2249.66,589.484 2250.98,593.368 2252.28,597.258 2253.53,601.153 2254.75,605.052 2255.93,608.957 2257.08,612.866 2258.19,616.78 2259.27,620.699 2260.3,624.621 2261.31,628.548 2262.27,632.479 2263.2,636.414 2264.09,640.352 2264.95,644.294 2265.77,648.24 2266.55,652.188 2267.3,656.14 2268,660.095 2268.68,664.052 2269.31,668.012 2269.91,671.975 2270.47,675.94 2271,679.907 2271.49,683.877 2271.94,687.848 2272.36,691.821 2272.73,695.796 2273.08,699.772 2273.38,703.749 2273.65,707.728 2273.88,711.707 2274.07,715.688 2274.23,719.669 2274.35,723.651 2274.43,727.633 2274.48,731.615 2274.49,735.598 2274.46,739.58 2274.4,743.563 2274.29,747.544 2274.16,751.526 2273.98,755.507 2273.77,759.487 2273.52,763.466 2273.23,767.444 2272.91,771.421 2272.55,775.396 2272.15,779.37 2271.72,783.342 2271.25,787.312 2270.74,791.281 2270.2,795.247 2269.62,799.211 2269,803.172 2268.35,807.131 2267.65,811.087 2266.93,815.04 2266.16,818.991 2265.36,822.938 2264.52,826.881 2263.65,830.822 2262.74,834.758 2261.79,838.691 2260.81,842.62 2259.79,846.545 2258.73,850.465 2257.64,854.382 2256.51,858.293 2255.35,862.2 2254.15,866.102 2252.91,870 2251.63,873.892 2250.32,877.779 2248.98,881.66 2247.6,885.536 2246.18,889.406 2244.73,893.271 2243.24,897.129 2241.71,900.982 2240.15,904.828 2238.55,908.667 2236.92,912.5 2235.26,916.327 2233.55,920.146 2231.81,923.959 2230.04,927.764 2228.23,931.562 2226.39,935.353 2224.51,939.136 2222.59,942.911 2220.65,946.678 2218.66,950.438 2216.64,954.189 2214.59,957.932 2212.5,961.667 2210.38,965.393 2208.22,969.11 2206.03,972.819 2203.8,976.518 2201.54,980.209 2199.25,983.89 2196.92,987.561 2194.56,991.224 2192.16,994.876 2189.73,998.519 2187.26,1002.15 2184.77,1005.77 2182.24,1009.39 2179.67,1012.99 2177.07,1016.58 2174.44,1020.16 2171.78,1023.73 2169.08,1027.29 2166.35,1030.84 2163.58,1034.38 2160.79,1037.9 2157.96,1041.42 2155.1,1044.92 2152.2,1048.41 2149.28,1051.89 2146.32,1055.36 2143.33,1058.81 2140.31,1062.25 2137.25,1065.68 2134.17,1069.1 2131.05,1072.51 2127.9,1075.9 2124.72,1079.28 2121.51,1082.65 2118.26,1086 2114.99,1089.34 2111.69,1092.67 2108.35,1095.98 2104.98,1099.28 2101.59,1102.57 2098.16,1105.84 2094.7,1109.1 2091.21,1112.34 2087.7,1115.57 2084.15,1118.79 2080.57,1121.99 2076.96,1125.17 2073.33,1128.34 2069.66,1131.5 2065.97,1134.64 2062.24,1137.77 2058.49,1140.88 2054.71,1143.98 2050.9,1147.06 2047.06,1150.12 2043.19,1153.17 2039.29,1156.21 2035.37,1159.22 2031.42,1162.23 2027.44,1165.21 2023.43,1168.18 2019.4,1171.13 2015.34,1174.07 2011.25,1176.99 2007.13,1179.89 2002.99,1182.78 1998.82,1185.65 1994.62,1188.5 1990.4,1191.34 1986.15,1194.16 1981.88,1196.96 1977.58,1199.74 1973.25,1202.51 1968.9,1205.26 1964.52,1207.99 1960.12,1210.7 1955.69,1213.39 1951.24,1216.07 1946.76,1218.73 1942.26,1221.37 1937.74,1223.99 1933.19,1226.59 1928.61,1229.18 1924.01,1231.74 1919.39,1234.29 1914.75,1236.82 1910.08,1239.33 1905.39,1241.82 1900.67,1244.29 1895.93,1246.74 1891.17,1249.18 1886.39,1251.59 1881.58,1253.98 1876.76,1256.36 1871.91,1258.71 1867.04,1261.05 1862.14,1263.36 1857.23,1265.66 1852.3,1267.93 1847.34,1270.19 1842.36,1272.42 1837.36,1274.64 1832.35,1276.83 1827.31,1279.01 1822.25,1281.16 1817.17,1283.29 1812.07,1285.4 1806.96,1287.49 1801.82,1289.56 1796.66,1291.61 1791.49,1293.64 1786.3,1295.65 1781.08,1297.63 1775.85,1299.6 1770.61,1301.54 1765.34,1303.46 1760.06,1305.37 1754.75,1307.24 1749.43,1309.1 1744.1,1310.94 1738.75,1312.75 1733.38,1314.54 1727.99,1316.31 1722.59,1318.06 1717.17,1319.79 1711.73,1321.49 1706.28,1323.18 1700.82,1324.84 1695.34,1326.47 1689.84,1328.09 1684.33,1329.68 1678.81,1331.25 1673.27,1332.8 1667.71,1334.33 1662.14,1335.83 1656.56,1337.31 1650.96,1338.77 1645.36,1340.2 1639.73,1341.61 1634.1,1343 1628.45,1344.37 1622.79,1345.71 1617.12,1347.03 1611.43,1348.33 1605.73,1349.6 1600.03,1350.85 1594.3,1352.08 1588.57,1353.28 1582.83,1354.46 1577.08,1355.62 1571.31,1356.75 1565.54,1357.86 1559.75,1358.95 1553.96,1360.01 1548.15,1361.05 1542.34,1362.07 1536.52,1363.06 1530.69,1364.03 1524.84,1364.97 1518.99,1365.9 1513.14,1366.79 1507.27,1367.67 1501.4,1368.52 1495.51,1369.34 1489.62,1370.14 1483.73,1370.92 1477.82,1371.67 1471.91,1372.4 1465.99,1373.11 1460.07,1373.79 1454.14,1374.45 1448.2,1375.08 1442.26,1375.69 1436.31,1376.28 1430.36,1376.84 1424.4,1377.37 1418.44,1377.89 1412.47,1378.37 1406.5,1378.84 1400.52,1379.28 1394.54,1379.69 1388.56,1380.08 1382.57,1380.45 1376.58,1380.79 1370.59,1381.11 1364.59,1381.4 1358.59,1381.67 1352.59,1381.92 1346.59,1382.14 1340.58,1382.33 1334.57,1382.5 1328.56,1382.65 1322.55,1382.77 1316.54,1382.87 1310.53,1382.94 1304.52,1382.99 1298.51,1383.02 1292.49,1383.02 1286.48,1382.99 1280.47,1382.94 1274.46,1382.87 1268.45,1382.77 1262.44,1382.65 1256.43,1382.5 1250.42,1382.33 1244.41,1382.14 1238.41,1381.92 1232.41,1381.67 1226.41,1381.4 1220.41,1381.11 1214.42,1380.79 1208.43,1380.45 1202.44,1380.08 1196.46,1379.69 1190.48,1379.28 1184.5,1378.84 1178.53,1378.37 1172.56,1377.89 1166.6,1377.37 1160.64,1376.84 1154.69,1376.28 1148.74,1375.69 1142.8,1375.08 1136.86,1374.45 1130.93,1373.79 1125.01,1373.11 1119.09,1372.4 1113.18,1371.67 1107.27,1370.92 1101.38,1370.14 1095.49,1369.34 1089.6,1368.52 1083.73,1367.67 1077.86,1366.79 1072.01,1365.9 1066.16,1364.97 1060.31,1364.03 1054.48,1363.06 1048.66,1362.07 1042.85,1361.05 1037.04,1360.01 1031.25,1358.95 1025.46,1357.86 1019.69,1356.75 1013.92,1355.62 1008.17,1354.46 1002.43,1353.28 996.695,1352.08 990.975,1350.85 985.266,1349.6 979.569,1348.33 973.884,1347.03 968.211,1345.71 962.55,1344.37 956.902,1343 951.267,1341.61 945.644,1340.2 940.035,1338.77 934.439,1337.31 928.857,1335.83 923.289,1334.33 917.735,1332.8 912.194,1331.25 906.669,1329.68 901.158,1328.09 895.662,1326.47 890.181,1324.84 884.716,1323.18 879.265,1321.49 873.831,1319.79 868.412,1318.06 863.01,1316.31 857.624,1314.54 852.254,1312.75 846.901,1310.94 841.565,1309.1 836.246,1307.24 830.945,1305.37 825.661,1303.46 820.395,1301.54 815.146,1299.6 809.916,1297.63 804.704,1295.65 799.511,1293.64 794.336,1291.61 789.18,1289.56 784.044,1287.49 778.926,1285.4 773.828,1283.29 768.75,1281.16 763.692,1279.01 758.653,1276.83 753.635,1274.64 748.638,1272.42 743.661,1270.19 738.705,1267.93 733.77,1265.66 728.856,1263.36 723.963,1261.05 719.092,1258.71 714.243,1256.36 709.416,1253.98 704.61,1251.59 699.827,1249.18 695.067,1246.74 690.329,1244.29 685.614,1241.82 680.922,1239.33 676.253,1236.82 671.608,1234.29 666.986,1231.74 662.388,1229.18 657.813,1226.59 653.263,1223.99 648.737,1221.37 644.235,1218.73 639.758,1216.07 635.306,1213.39 630.879,1210.7 626.476,1207.99 622.099,1205.25 617.747,1202.51 613.421,1199.74 609.121,1196.96 604.846,1194.16 600.598,1191.34 596.376,1188.5 592.18,1185.65 588.01,1182.78 583.868,1179.89 579.752,1176.99 575.663,1174.07 571.601,1171.13 567.567,1168.18 563.56,1165.21 559.581,1162.23 555.629,1159.22 551.706,1156.21 547.81,1153.17 543.943,1150.12 540.104,1147.06 536.293,1143.98 532.512,1140.88 528.758,1137.77 525.034,1134.64 521.339,1131.5 517.673,1128.34 514.037,1125.17 510.43,1121.99 506.852,1118.79 503.304,1115.57 499.787,1112.34 496.299,1109.1 492.841,1105.84 489.414,1102.57 486.017,1099.28 482.65,1095.98 479.315,1092.67 476.01,1089.34 472.736,1086 469.493,1082.65 466.281,1079.28 463.1,1075.9 459.951,1072.51 456.833,1069.1 453.747,1065.68 450.693,1062.25 447.671,1058.81 444.68,1055.36 441.722,1051.89 438.796,1048.41 435.902,1044.92 433.04,1041.42 430.212,1037.9 427.415,1034.38 424.652,1030.84 421.921,1027.29 419.224,1023.73 416.559,1020.16 413.928,1016.58 411.33,1012.99 408.765,1009.39 406.233,1005.77 403.735,1002.15 401.271,998.519 398.841,994.876 396.444,991.224 394.081,987.561 391.753,983.89 389.458,980.208 387.198,976.518 384.971,972.819 382.78,969.11 380.622,965.393 378.499,961.667 376.411,957.932 374.357,954.189 372.339,950.438 370.354,946.678 368.405,942.911 366.491,939.135 364.612,935.353 362.768,931.562 360.959,927.764 359.186,923.958 357.447,920.146 355.744,916.327 354.077,912.5 352.445,908.667 350.849,904.827 349.288,900.982 347.763,897.129 346.274,893.271 344.82,889.406 343.403,885.536 342.021,881.66 340.675,877.779 339.366,873.892 338.092,870 336.855,866.102 335.653,862.2 334.488,858.293 333.359,854.381 332.267,850.465 331.21,846.545 330.191,842.62 329.207,838.691 328.26,834.758 327.35,830.822 326.476,826.881 325.638,822.938 324.837,818.99 324.073,815.04 323.346,811.087 322.655,807.131 322,803.172 321.383,799.211 320.802,795.247 320.258,791.28 319.751,787.312 319.281,783.342 318.847,779.37 318.45,775.396 318.09,771.421 317.767,767.444 317.481,763.466 317.232,759.487 317.02,755.507 316.844,751.526 316.706,747.544 316.604,743.562 316.54,739.58 316.512,735.598 316.521,731.615 316.567,727.633 316.651,723.651 316.771,719.669 316.928,715.688 317.121,711.707 317.352,707.728 317.62,703.749 317.924,699.772 318.266,695.795 318.644,691.821 319.059,687.848 319.511,683.877 320,679.907 320.526,675.94 321.088,671.975 321.687,668.012 322.323,664.052 322.995,660.095 323.705,656.14 324.451,652.188 325.233,648.24 326.052,644.294 326.908,640.352 327.8,636.414 328.729,632.479 329.694,628.548 330.696,624.621 331.734,620.699 332.808,616.78 333.919,612.866 335.066,608.957 336.249,605.052 337.469,601.152 338.724,597.258 340.016,593.368 341.344,589.484 342.707,585.605 344.107,581.732 345.543,577.865 347.014,574.003 348.521,570.148 350.064,566.299 351.643,562.456 353.257,558.619 354.906,554.79 356.592,550.967 358.312,547.151 360.068,543.342 361.859,539.54 363.686,535.746 365.547,531.959 367.444,528.18 369.376,524.409 371.342,520.645 373.344,516.89 375.38,513.142 377.451,509.403 379.557,505.673 381.697,501.951 383.871,498.239 386.08,494.534 388.324,490.84 390.601,487.154 392.913,483.478 395.259,479.81 397.638,476.153 400.052,472.505 402.499,468.868 404.98,465.24 407.495,461.622 410.043,458.015 412.625,454.418 415.239,450.832 417.887,447.257 420.568,443.692 423.283,440.138 426.03,436.596 428.81,433.064 431.622,429.544 434.467,426.036 437.345,422.539 440.255,419.054 443.197,415.581 446.171,412.12 449.178,408.671 452.216,405.234 455.286,401.81 458.388,398.398 461.522,394.999 464.687,391.613 467.883,388.24 471.11,384.88 474.369,381.533 477.659,378.199 480.979,374.879 484.33,371.572 487.712,368.279 491.124,365 494.566,361.735 498.039,358.484 501.542,355.247 505.075,352.024 508.637,348.816 512.23,345.622 515.852,342.443 519.503,339.279 523.183,336.13 526.893,332.995 530.632,329.876 534.399,326.773 538.195,323.684 542.02,320.611 545.873,317.554 549.755,314.512 553.664,311.486 557.602,308.477 561.567,305.483 565.56,302.505 569.581,299.544 573.629,296.599 577.704,293.671 581.807,290.759 585.936,287.865 590.092,284.986 594.274,282.125 598.484,279.281 602.719,276.454 606.981,273.645 611.268,270.853 615.581,268.078 619.92,265.321 624.285,262.582 628.675,259.86 633.089,257.156 637.529,254.471 641.994,251.803 646.483,249.154 650.997,246.523 655.535,243.91 660.098,241.316 664.684,238.741 669.294,236.184 673.928,233.646 678.585,231.127 683.265,228.627 687.969,226.146 692.695,223.684 697.444,221.241 702.216,218.818 707.01,216.414 711.827,214.03 716.665,211.666 721.525,209.321 726.407,206.996 731.31,204.691 736.235,202.406 741.181,200.14 746.147,197.896 751.134,195.671 756.142,193.467 761.17,191.283 766.219,189.119 771.287,186.977 776.375,184.854 781.483,182.753 786.61,180.672 791.756,178.613 796.921,176.574 802.105,174.556 807.308,172.56 812.529,170.585 817.768,168.63 823.026,166.698 828.301,164.786 833.594,162.896 838.904,161.028 844.231,159.182 849.576,157.357 854.937,155.554 860.315,153.772 865.709,152.013 871.12,150.276 876.546,148.56 881.988,146.867 887.447,145.196 892.92,143.547 898.408,141.921 903.912,140.316 909.43,138.735 914.963,137.175 920.51,135.639 926.072,134.125 931.647,132.633 937.236,131.164 942.838,129.718 948.454,128.295 954.083,126.895 959.725,125.517 965.379,124.163 971.046,122.831 976.725,121.523 982.416,120.238 988.119,118.976 993.834,117.737 999.56,116.522 1005.3,115.329 1011.04,114.16 1016.8,113.015 1022.57,111.893 1028.35,110.794 1034.14,109.72 1039.94,108.668 1045.75,107.64 1051.57,106.636 1057.4,105.656 1063.23,104.699 1069.08,103.766 1074.93,102.857 1080.8,101.972 1086.67,101.11 1092.55,100.272 1098.43,99.4588 1104.32,98.6691 1110.23,97.9034 1116.13,97.1617 1122.05,96.4441 1127.97,95.7505 1133.9,95.081 1139.83,94.4357 1145.77,93.8145 1151.71,93.2175 1157.66,92.6446 1163.62,92.0961 1169.58,91.5717 1175.54,91.0716 1181.51,90.5957 1187.49,90.1442 1193.47,89.717 1199.45,89.3141 1205.43,88.9355 1211.42,88.5813 1217.42,88.2515 1223.41,87.946 1229.41,87.6649 1235.41,87.4083 1241.41,87.176 1247.42,86.9682 1253.42,86.7848 1259.43,86.6259 1265.44,86.4914 1271.45,86.3814 1277.46,86.2957 1283.47,86.2346 1289.49,86.1979 1295.5,86.1857 "/>
<polyline clip-path="url(#clip742)" style="stroke:#e26f46; stroke-linecap:round; stroke-linejoin:round; stroke-width:16; stroke-opacity:1; fill:none" points="1295.5,86.1857 1301.49,86.336 1307.48,86.4863 1313.47,86.6366 1319.46,86.7869 1325.44,86.9373 1331.43,87.0876 1337.42,87.2379 1343.41,87.3881 1349.4,87.5376 1355.39,87.6866 1361.38,87.8359 1367.37,87.9862 1373.35,88.1375 1379.34,88.2899 1385.33,88.4429 1391.32,88.596 1397.31,88.7483 1403.3,88.902 1409.27,89.1566 1415.22,89.5472 1421.15,90.0576 1427.06,90.6718 1432.95,91.3734 1438.82,92.1465 1444.68,92.9746 1450.53,93.8417 1456.37,94.7316 1462.21,95.6281 1468.06,96.5052 1473.92,97.3386 1479.79,98.1707 1485.64,99.0386 1491.47,99.9684 1497.27,100.975 1503.05,102.063 1508.8,103.226 1514.54,104.444 1520.27,105.69 1526,106.918 1531.8,108.013 1537.63,109.03 1543.45,110.071 1549.23,111.204 1554.94,112.473 1560.58,113.889 1566.16,115.438 1571.7,117.075 1577.23,118.727 1582.8,120.292 1588.47,121.647 1594.2,122.897 1599.92,124.143 1605.63,125.412 1611.32,126.72 1616.99,128.074 1622.63,129.471 1628.26,130.9 1633.88,132.339 1639.5,133.78 1645.1,135.253 1650.69,136.751 1656.26,138.265 1661.83,139.791 1667.39,141.322 1672.96,142.854 1678.52,144.386 1684.09,145.916 1689.66,147.442 1695.23,148.968 1700.8,150.494 1706.36,152.025 1711.91,153.578 1717.4,155.218 1722.82,156.937 1728.19,158.716 1733.53,160.541 1738.85,162.398 1744.15,164.273 1749.45,166.158 1754.74,168.045 1760.04,169.928 1765.34,171.803 1770.65,173.67 1775.96,175.528 1781.28,177.381 1786.6,179.232 1791.92,181.089 1797.2,182.981 1802.45,184.914 1807.66,186.89 1812.83,188.908 1817.95,190.967 1823.04,193.067 1828.09,195.205 1833.11,197.379 1838.09,199.586 1843.04,201.822 1847.97,204.085 1852.88,206.368 1857.76,208.668 1862.64,210.978 1867.51,213.293 1872.39,215.606 1877.26,217.923 1882.06,220.294 1886.81,222.717 1891.51,225.181 1896.16,227.68 1900.79,230.205 1905.4,232.75 1909.98,235.309 1914.56,237.877 1919.13,240.449 1923.7,243.022 1928.28,245.593 1932.86,248.16 1937.44,250.721 1942.03,253.277 1946.63,255.827 1951.23,258.372 1955.84,260.914 1960.45,263.457 1965.05,266.003 1969.61,268.58 1974.07,271.233 1978.42,273.958 1982.68,276.75 1986.85,279.604 1990.93,282.515 1994.93,285.478 1998.86,288.489 2002.71,291.544 2006.5,294.638 2010.23,297.767 2013.9,300.928 2017.53,304.117 2021.1,307.33 2024.64,310.563 2028.15,313.813 2031.62,317.078 2035.08,320.353 2038.51,323.636 2041.94,326.924 2045.36,330.215 2048.78,333.506 2052.21,336.794 2055.64,340.079 2059.07,343.365 2062.51,346.65 2065.94,349.936 2069.38,353.222 2072.81,356.507 2076.24,359.793 2079.68,363.078 2083.11,366.364 2086.55,369.649 2089.98,372.935 2093.42,376.22 2096.85,379.506 2100.28,382.791 2103.72,386.077 2107.15,389.362 2110.59,392.648 2114.02,395.933 2117.45,399.219 2120.89,402.504 2124.32,405.79 2127.76,409.075 2131.19,412.361 2134.62,415.647 2138.05,418.934 2141.44,422.237 2144.77,425.558 2148.05,428.896 2151.28,432.251 2154.46,435.623 2157.6,439.011 2160.69,442.415 2163.73,445.835 2166.73,449.27 2169.68,452.721 2172.59,456.186 2175.46,459.666 2178.28,463.16 2181.07,466.668 2183.81,470.19 2186.51,473.725 2189.17,477.273 2191.8,480.834 2194.38,484.407 2196.93,487.993 2199.44,491.591 2201.92,495.201 2204.35,498.822 2206.76,502.454 2209.12,506.097 2211.46,509.751 2213.76,513.416 2216.02,517.09 2218.25,520.775 2220.45,524.47 2222.62,528.174 2224.75,531.887 2226.85,535.61 2228.92,539.341 2230.96,543.081 2232.97,546.829 2234.94,550.586 2236.89,554.351 2238.8,558.123 2240.69,561.904 2242.54,565.691 2244.37,569.486 2246.16,573.288 2247.92,577.097 2249.66,580.912 2251.36,584.734 2253.03,588.562 2254.68,592.397 2256.29,596.237 2257.87,600.083 2259.43,603.935 2260.95,607.792 2262.44,611.655 2263.9,615.523 2265.34,619.395 2266.74,623.273 2268.11,627.156 2269.45,631.043 2270.75,634.935 2272.03,638.83 2273.27,642.731 2274.48,646.635 2275.66,650.543 2276.81,654.455 2277.92,658.372 2279,662.291 2280.05,666.215 2281.06,670.141 2282.03,674.071 2282.97,678.004 2283.87,681.94 2284.74,685.88 2285.57,689.822 2286.36,693.767 2287.12,697.716 2287.83,701.667 2288.51,705.62 2289.15,709.577 2289.74,713.535 2290.3,717.497 2290.81,721.46 2291.28,725.426 2291.7,729.394 2292.09,733.365 2292.42,737.337 2292.71,741.313 2292.96,745.29 2293.15,749.271 2293.3,753.252 2293.4,757.236 2293.45,761.221 2293.44,765.209 2293.39,769.199 2293.29,773.19 2293.16,777.182 2293.01,781.175 2292.82,785.167 2292.6,789.159 2292.35,793.15 2292.06,797.139 2291.73,801.126 2291.37,805.111 2290.96,809.093 2290.51,813.072 2290.02,817.047 2289.49,821.018 2288.91,824.985 2288.28,828.947 2287.6,832.904 2286.88,836.855 2286.1,840.8 2285.27,844.739 2284.4,848.671 2283.46,852.596 2282.48,856.514 2281.44,860.423 2280.34,864.325 2279.19,868.218 2277.98,872.102 2276.71,875.978 2275.39,879.844 2274.01,883.7 2272.56,887.545 2271.06,891.381 2269.5,895.206 2267.88,899.02 2266.2,902.822 2264.46,906.614 2262.66,910.393 2260.8,914.16 2258.87,917.915 2256.89,921.657 2254.85,925.387 2252.74,929.103 2250.58,932.806 2248.35,936.496 2246.07,940.171 2243.73,943.833 2241.32,947.48 2238.86,951.113 2236.37,954.739 2233.91,958.374 2231.47,962.016 2229.05,965.663 2226.63,969.313 2224.22,972.965 2221.81,976.617 2219.4,980.266 2216.97,983.912 2214.53,987.554 2212.07,991.189 2209.59,994.818 2207.08,998.439 2204.54,1002.05 2201.98,1005.65 2199.38,1009.25 2196.75,1012.83 2194.09,1016.4 2191.39,1019.96 2188.65,1023.51 2185.88,1027.05 2183.08,1030.57 2180.24,1034.09 2177.37,1037.6 2174.47,1041.09 2171.54,1044.58 2168.59,1048.06 2165.61,1051.54 2162.62,1055 2159.61,1058.47 2156.59,1061.93 2153.56,1065.38 2150.53,1068.84 2147.5,1072.3 2144.48,1075.76 2141.48,1079.22 2138.48,1082.69 2135.47,1086.15 2132.44,1089.62 2129.39,1093.07 2126.32,1096.51 2123.21,1099.94 2120.07,1103.36 2116.9,1106.76 2113.68,1110.13 2110.43,1113.49 2107.12,1116.82 2103.78,1120.13 2100.38,1123.41 2096.93,1126.66 2093.43,1129.89 2089.88,1133.08 2086.28,1136.25 2082.62,1139.39 2078.91,1142.49 2075.14,1145.57 2071.33,1148.62 2067.46,1151.63 2063.54,1154.62 2059.58,1157.58 2055.56,1160.51 2051.5,1163.42 2047.4,1166.3 2043.26,1169.15 2039.09,1171.99 2034.88,1174.8 2030.64,1177.59 2026.37,1180.37 2022.08,1183.14 2017.77,1185.89 2013.46,1188.64 2009.13,1191.38 2004.8,1194.12 2000.48,1196.86 1996.16,1199.62 1991.85,1202.39 1987.53,1205.16 1983.21,1207.93 1978.87,1210.7 1974.53,1213.47 1970.17,1216.22 1965.8,1218.96 1961.4,1221.69 1956.98,1224.4 1952.54,1227.1 1948.06,1229.76 1943.56,1232.41 1939.03,1235.02 1934.47,1237.61 1929.87,1240.16 1925.24,1242.69 1920.58,1245.18 1915.87,1247.64 1911.13,1250.06 1906.35,1252.44 1901.54,1254.79 1896.68,1257.11 1891.79,1259.38 1886.86,1261.62 1881.89,1263.83 1876.89,1265.99 1871.85,1268.13 1866.77,1270.22 1861.66,1272.29 1856.52,1274.32 1851.34,1276.32 1846.14,1278.29 1840.91,1280.23 1835.65,1282.15 1830.37,1284.05 1825.07,1285.92 1819.75,1287.77 1814.41,1289.61 1809.07,1291.44 1803.71,1293.25 1798.34,1295.06 1792.97,1296.87 1787.6,1298.68 1782.24,1300.49 1776.88,1302.31 1771.54,1304.14 1766.21,1305.99 1760.92,1307.88 1755.64,1309.81 1750.38,1311.77 1745.13,1313.74 1739.89,1315.72 1734.64,1317.69 1729.38,1319.65 1724.11,1321.58 1718.82,1323.49 1713.51,1325.37 1708.17,1327.2 1702.81,1328.99 1697.42,1330.73 1692,1332.42 1686.54,1334.06 1681.05,1335.65 1675.53,1337.18 1669.97,1338.66 1664.38,1340.08 1658.76,1341.46 1653.12,1342.79 1647.44,1344.07 1641.74,1345.32 1636.02,1346.53 1630.28,1347.72 1624.53,1348.89 1618.78,1350.04 1613.02,1351.19 1607.26,1352.35 1601.52,1353.53 1595.79,1354.72 1590.03,1355.86 1584.25,1356.94 1578.45,1357.97 1572.63,1358.96 1566.79,1359.91 1560.94,1360.81 1555.08,1361.69 1549.2,1362.53 1543.31,1363.35 1537.42,1364.14 1531.52,1364.9 1525.61,1365.65 1519.7,1366.38 1513.78,1367.09 1507.86,1367.8 1501.94,1368.49 1496.02,1369.17 1490.09,1369.84 1484.17,1370.51 1478.25,1371.18 1472.32,1371.84 1466.4,1372.5 1460.48,1373.16 1454.56,1373.81 1448.63,1374.47 1442.71,1375.13 1436.79,1375.79 1430.86,1376.44 1424.92,1377.08 1418.98,1377.7 1413.03,1378.31 1407.08,1378.89 1401.12,1379.45 1395.16,1379.99 1389.19,1380.5 1383.22,1380.98 1377.25,1381.43 1371.27,1381.85 1365.3,1382.24 1359.32,1382.59 1353.34,1382.91 1347.36,1383.19 1341.37,1383.44 1335.39,1383.66 1329.4,1383.84 1323.42,1383.98 1317.43,1384.09 1311.44,1384.17 1305.46,1384.22 1299.47,1384.24 1293.49,1384.23 1287.5,1384.19 1281.51,1384.12 1275.53,1384.03 1269.54,1383.92 1263.56,1383.79 1257.57,1383.64 1251.59,1383.48 1245.61,1383.31 1239.62,1383.13 1233.64,1382.95 1227.66,1382.77 1221.67,1382.6 1215.69,1382.43 1209.7,1382.27 1203.73,1382.04 1197.77,1381.74 1191.82,1381.35 1185.89,1380.89 1179.97,1380.35 1174.07,1379.75 1168.18,1379.09 1162.3,1378.37 1156.43,1377.59 1150.57,1376.77 1144.73,1375.89 1138.89,1374.98 1133.07,1374.02 1127.25,1373.03 1121.45,1372.01 1115.65,1370.95 1109.86,1369.87 1104.08,1368.77 1098.31,1367.64 1092.55,1366.5 1086.79,1365.33 1081.03,1364.16 1075.29,1362.97 1069.54,1361.77 1063.81,1360.56 1058.07,1359.35 1052.34,1358.13 1046.61,1356.9 1040.88,1355.68 1035.16,1354.45 1029.43,1353.22 1023.7,1351.99 1017.98,1350.76 1012.25,1349.54 1006.51,1348.31 1000.78,1347.08 995.039,1345.84 989.307,1344.59 983.58,1343.33 977.862,1342.05 972.155,1340.75 966.461,1339.42 960.783,1338.08 955.122,1336.7 949.479,1335.3 943.857,1333.87 938.255,1332.41 932.675,1330.91 927.118,1329.39 921.584,1327.83 916.072,1326.24 910.584,1324.62 905.118,1322.96 899.675,1321.28 894.254,1319.57 888.853,1317.82 883.472,1316.06 878.109,1314.26 872.763,1312.45 867.432,1310.61 862.114,1308.76 856.807,1306.9 851.508,1305.02 846.214,1303.14 840.923,1301.25 835.631,1299.36 830.336,1297.48 825.034,1295.61 819.721,1293.75 814.401,1291.89 809.082,1290.02 803.771,1288.14 798.473,1286.25 793.194,1284.33 787.939,1282.39 782.712,1280.42 777.518,1278.42 772.36,1276.39 767.24,1274.32 762.161,1272.21 757.125,1270.06 752.133,1267.87 747.187,1265.64 742.285,1263.37 737.428,1261.06 732.615,1258.7 727.845,1256.31 723.116,1253.89 718.424,1251.43 713.769,1248.94 709.144,1246.42 704.548,1243.87 699.974,1241.3 695.419,1238.72 690.875,1236.13 686.339,1233.53 681.801,1230.93 677.256,1228.34 672.695,1225.75 668.11,1223.19 663.523,1220.63 658.959,1218.05 654.427,1215.44 649.932,1212.81 645.48,1210.14 641.075,1207.45 636.722,1204.71 632.424,1201.94 628.184,1199.14 624.005,1196.29 619.889,1193.41 615.836,1190.49 611.846,1187.53 607.921,1184.53 604.059,1181.49 600.258,1178.42 596.517,1175.31 592.834,1172.17 589.204,1169 585.625,1165.79 582.091,1162.56 578.597,1159.31 575.139,1156.04 571.709,1152.75 568.301,1149.45 564.907,1146.14 561.519,1142.83 558.129,1139.52 554.726,1136.22 551.301,1132.92 547.847,1129.64 544.369,1126.37 540.875,1123.11 537.371,1119.85 533.862,1116.59 530.355,1113.33 526.853,1110.06 523.362,1106.8 519.886,1103.52 516.429,1100.25 512.993,1096.96 509.582,1093.66 506.198,1090.36 502.843,1087.04 499.519,1083.72 496.226,1080.38 492.965,1077.03 489.737,1073.67 486.54,1070.3 483.375,1066.91 480.241,1063.52 477.135,1060.11 474.055,1056.7 471,1053.27 467.966,1049.84 464.95,1046.4 461.948,1042.96 458.956,1039.52 455.969,1036.07 452.982,1032.62 449.99,1029.17 446.986,1025.73 443.99,1022.29 441.069,1018.81 438.225,1015.31 435.457,1011.78 432.764,1008.23 430.144,1004.65 427.595,1001.06 425.115,997.435 422.702,993.794 420.355,990.134 418.071,986.457 415.849,982.763 413.685,979.053 411.578,975.329 409.526,971.592 407.526,967.842 405.575,964.081 403.671,960.309 401.811,956.528 399.993,952.738 398.213,948.94 396.469,945.135 394.759,941.324 393.078,937.508 391.424,933.687 389.793,929.862 388.184,926.033 386.591,922.203 385.012,918.369 383.443,914.535 381.88,910.699 380.321,906.863 378.761,903.027 377.197,899.192 375.625,895.357 374.064,891.52 372.578,887.669 371.171,883.807 369.842,879.932 368.587,876.046 367.407,872.149 366.298,868.243 365.261,864.327 364.292,860.403 363.391,856.471 362.556,852.531 361.784,848.585 361.075,844.633 360.425,840.675 359.833,836.713 359.298,832.745 358.816,828.773 358.387,824.798 358.008,820.819 357.676,816.838 357.39,812.854 357.147,808.868 356.944,804.879 356.781,800.89 356.653,796.899 356.56,792.906 356.497,788.913 356.463,784.92 356.456,780.926 356.471,776.932 356.508,772.937 356.562,768.943 356.632,764.948 356.715,760.954 356.807,756.959 356.905,752.965 357.008,748.971 357.111,744.977 357.212,740.983 357.307,736.989 357.385,732.994 357.419,728.997 357.421,724.998 357.407,720.997 357.39,716.997 357.383,712.997 357.397,708.998 357.442,705.002 357.526,701.007 357.656,697.015 357.837,693.026 358.074,689.04 358.369,685.058 358.724,681.079 359.138,677.103 359.61,673.131 360.138,669.162 360.716,665.196 361.34,661.232 362.001,657.271 362.692,653.311 363.404,649.353 364.123,645.395 364.839,641.437 365.536,637.477 366.169,633.51 366.697,629.524 367.155,625.528 367.582,621.526 368.008,617.523 368.464,613.526 368.975,609.538 369.563,605.563 370.248,601.604 371.045,597.663 371.967,593.744 373.021,589.846 374.213,585.971 375.546,582.119 377.016,578.291 378.621,574.484 380.35,570.699 382.193,566.932 384.134,563.181 386.154,559.444 388.231,555.716 390.341,551.994 392.453,548.272 394.536,544.545 396.571,540.811 398.657,537.086 400.815,533.376 403.043,529.681 405.338,526.002 407.699,522.338 410.121,518.69 412.603,515.058 415.142,511.441 417.734,507.839 420.376,504.252 423.064,500.678 425.794,497.118 428.563,493.57 431.367,490.034 434.2,486.507 437.059,482.989 439.938,479.478 442.834,475.973 445.741,472.471 448.653,468.972 451.565,465.472 454.472,461.971 457.367,458.463 460.252,454.95 463.133,451.432 466.015,447.914 468.905,444.398 471.808,440.887 474.728,437.383 477.668,433.887 480.634,430.402 483.626,426.929 486.649,423.47 489.703,420.024 492.79,416.593 495.912,413.178 499.068,409.779 502.258,406.395 505.482,403.026 508.738,399.673 512.026,396.333 515.341,393.007 518.683,389.693 522.047,386.388 525.429,383.093 528.827,379.805 532.233,376.521 535.645,373.239 539.055,369.956 542.457,366.67 545.842,363.375 549.201,360.061 552.544,356.735 555.887,353.406 559.245,350.085 562.63,346.778 566.054,343.493 569.527,340.238 573.059,337.018 576.656,333.838 580.326,330.702 584.073,327.614 587.902,324.577 591.815,321.591 595.814,318.659 599.899,315.78 604.068,312.953 608.319,310.178 612.648,307.452 617.051,304.772 621.521,302.133 626.05,299.532 630.63,296.962 635.25,294.418 639.899,291.891 644.565,289.375 649.233,286.861 653.889,284.338 658.515,281.797 663.103,279.229 667.664,276.637 672.207,274.031 676.742,271.417 681.274,268.801 685.811,266.189 690.36,263.587 694.924,260.998 699.509,258.428 704.119,255.879 708.757,253.355 713.425,250.857 718.126,248.386 722.859,245.945 727.627,243.533 732.427,241.149 737.26,238.794 742.123,236.465 747.014,234.16 751.93,231.877 756.867,229.612 761.821,227.362 766.785,225.121 771.755,222.884 776.723,220.646 781.683,218.4 786.637,216.151 791.634,213.939 796.677,211.772 801.765,209.648 806.895,207.566 812.065,205.528 817.274,203.531 822.52,201.575 827.8,199.66 833.112,197.785 838.456,195.947 843.828,194.147 849.228,192.383 854.653,190.652 860.101,188.955 865.57,187.288 871.059,185.651 876.566,184.04 882.089,182.455 887.626,180.892 893.175,179.349 898.736,177.824 904.304,176.315 909.881,174.818 915.462,173.33 921.048,171.849 926.635,170.372 932.222,168.894 937.809,167.413 943.391,165.925 948.955,164.395 954.497,162.818 960.025,161.212 965.548,159.594 971.073,157.978 976.605,156.379 982.149,154.808 987.712,153.276 993.296,151.791 998.905,150.361 1004.54,148.991 1010.21,147.685 1015.91,146.447 1021.63,145.276 1027.39,144.173 1033.18,143.136 1039,142.161 1044.84,141.242 1050.71,140.373 1056.59,139.546 1062.49,138.751 1068.4,137.976 1074.32,137.209 1080.23,136.434 1086.13,135.637 1092.01,134.8 1097.89,133.928 1103.77,133.034 1109.64,132.132 1115.51,131.231 1121.39,130.344 1127.27,129.478 1133.15,128.64 1139.05,127.838 1144.95,127.077 1150.86,126.36 1156.78,125.69 1162.71,125.068 1168.65,124.495 1174.6,123.969 1180.55,123.488 1186.52,123.048 1192.49,122.644 1198.47,122.271 1204.46,121.92 1210.44,121.584 1216.43,121.252 1222.42,120.913 1228.4,120.553 1234.38,120.151 1240.36,119.713 1246.34,119.255 1252.32,118.792 1258.3,118.336 1264.28,117.898 1270.26,117.49 1276.24,117.119 1282.23,116.792 1288.21,116.515 1294.19,116.291 1300.18,116.123 1306.16,116.011 1312.15,115.955 1318.13,115.954 1324.12,116.002 1330.11,116.094 1336.1,116.225 1342.09,116.385 1348.07,116.565 1354.06,116.753 1360.05,116.937 1366.04,117.102 "/>
<path clip-path="url(#clip740)" d="M327.056 248.629 L750.198 248.629 L750.198 93.1086 L327.056 93.1086  Z" fill="#ffffff" fill-rule="evenodd" fill-opacity="1"/>
<polyline clip-path="url(#clip740)" style="stroke:#000000; stroke-linecap:round; stroke-linejoin:round; stroke-width:4; stroke-opacity:1; fill:none" points="327.056,248.629 750.198,248.629 750.198,93.1086 327.056,93.1086 327.056,248.629 "/>
<polyline clip-path="url(#clip740)" style="stroke:#009af9; stroke-linecap:round; stroke-linejoin:round; stroke-width:16; stroke-opacity:1; fill:none" points="350.34,144.949 490.043,144.949 "/>
<path clip-path="url(#clip740)" d="M529.345 130.84 Q524.253 130.84 521.244 134.636 Q518.258 138.432 518.258 144.983 Q518.258 151.511 521.244 155.307 Q524.253 159.104 529.345 159.104 Q534.438 159.104 537.401 155.307 Q540.387 151.511 540.387 144.983 Q540.387 138.432 537.401 134.636 Q534.438 130.84 529.345 130.84 M529.345 127.044 Q536.614 127.044 540.966 131.928 Q545.318 136.789 545.318 144.983 Q545.318 153.155 540.966 158.039 Q536.614 162.9 529.345 162.9 Q522.054 162.9 517.679 158.039 Q513.327 153.178 513.327 144.983 Q513.327 136.789 517.679 131.928 Q522.054 127.044 529.345 127.044 Z" fill="#000000" fill-rule="nonzero" fill-opacity="1" /><path clip-path="url(#clip740)" d="M567.47 140.284 Q566.753 139.868 565.896 139.682 Q565.063 139.474 564.044 139.474 Q560.433 139.474 558.489 141.835 Q556.568 144.173 556.568 148.571 L556.568 162.229 L552.285 162.229 L552.285 136.303 L556.568 136.303 L556.568 140.331 Q557.91 137.969 560.063 136.835 Q562.216 135.678 565.294 135.678 Q565.734 135.678 566.267 135.747 Q566.799 135.794 567.447 135.909 L567.47 140.284 Z" fill="#000000" fill-rule="nonzero" fill-opacity="1" /><path clip-path="url(#clip740)" d="M571.938 136.303 L576.197 136.303 L576.197 162.229 L571.938 162.229 L571.938 136.303 M571.938 126.21 L576.197 126.21 L576.197 131.604 L571.938 131.604 L571.938 126.21 Z" fill="#000000" fill-rule="nonzero" fill-opacity="1" /><path clip-path="url(#clip740)" d="M602.169 148.965 Q602.169 144.335 600.248 141.789 Q598.35 139.243 594.901 139.243 Q591.475 139.243 589.553 141.789 Q587.655 144.335 587.655 148.965 Q587.655 153.571 589.553 156.118 Q591.475 158.664 594.901 158.664 Q598.35 158.664 600.248 156.118 Q602.169 153.571 602.169 148.965 M606.428 159.011 Q606.428 165.631 603.489 168.849 Q600.549 172.09 594.484 172.09 Q592.239 172.09 590.248 171.742 Q588.257 171.418 586.382 170.724 L586.382 166.58 Q588.257 167.599 590.086 168.085 Q591.915 168.571 593.813 168.571 Q598.003 168.571 600.086 166.372 Q602.169 164.196 602.169 159.775 L602.169 157.668 Q600.85 159.96 598.79 161.094 Q596.729 162.229 593.859 162.229 Q589.091 162.229 586.174 158.594 Q583.257 154.96 583.257 148.965 Q583.257 142.946 586.174 139.312 Q589.091 135.678 593.859 135.678 Q596.729 135.678 598.79 136.812 Q600.85 137.946 602.169 140.238 L602.169 136.303 L606.428 136.303 L606.428 159.011 Z" fill="#000000" fill-rule="nonzero" fill-opacity="1" /><path clip-path="url(#clip740)" d="M615.201 136.303 L619.461 136.303 L619.461 162.229 L615.201 162.229 L615.201 136.303 M615.201 126.21 L619.461 126.21 L619.461 131.604 L615.201 131.604 L615.201 126.21 Z" fill="#000000" fill-rule="nonzero" fill-opacity="1" /><path clip-path="url(#clip740)" d="M649.924 146.581 L649.924 162.229 L645.664 162.229 L645.664 146.719 Q645.664 143.039 644.229 141.21 Q642.794 139.382 639.924 139.382 Q636.475 139.382 634.484 141.581 Q632.493 143.78 632.493 147.576 L632.493 162.229 L628.211 162.229 L628.211 136.303 L632.493 136.303 L632.493 140.331 Q634.021 137.993 636.081 136.835 Q638.164 135.678 640.873 135.678 Q645.34 135.678 647.632 138.456 Q649.924 141.21 649.924 146.581 Z" fill="#000000" fill-rule="nonzero" fill-opacity="1" /><path clip-path="url(#clip740)" d="M670.201 149.196 Q665.039 149.196 663.048 150.377 Q661.058 151.557 661.058 154.405 Q661.058 156.673 662.539 158.016 Q664.044 159.335 666.613 159.335 Q670.155 159.335 672.285 156.835 Q674.437 154.312 674.437 150.145 L674.437 149.196 L670.201 149.196 M678.697 147.437 L678.697 162.229 L674.437 162.229 L674.437 158.293 Q672.979 160.655 670.803 161.789 Q668.627 162.9 665.479 162.9 Q661.498 162.9 659.136 160.678 Q656.798 158.432 656.798 154.682 Q656.798 150.307 659.715 148.085 Q662.655 145.863 668.465 145.863 L674.437 145.863 L674.437 145.446 Q674.437 142.507 672.493 140.909 Q670.572 139.289 667.076 139.289 Q664.854 139.289 662.748 139.821 Q660.641 140.354 658.697 141.419 L658.697 137.483 Q661.035 136.581 663.234 136.141 Q665.433 135.678 667.516 135.678 Q673.141 135.678 675.919 138.594 Q678.697 141.511 678.697 147.437 Z" fill="#000000" fill-rule="nonzero" fill-opacity="1" /><path clip-path="url(#clip740)" d="M687.47 126.21 L691.729 126.21 L691.729 162.229 L687.47 162.229 L687.47 126.21 Z" fill="#000000" fill-rule="nonzero" fill-opacity="1" /><polyline clip-path="url(#clip740)" style="stroke:#e26f46; stroke-linecap:round; stroke-linejoin:round; stroke-width:16; stroke-opacity:1; fill:none" points="350.34,196.789 490.043,196.789 "/>
<path clip-path="url(#clip740)" d="M518.003 183.351 L518.003 196.337 L523.883 196.337 Q527.146 196.337 528.929 194.647 Q530.711 192.958 530.711 189.833 Q530.711 186.731 528.929 185.041 Q527.146 183.351 523.883 183.351 L518.003 183.351 M513.327 179.509 L523.883 179.509 Q529.693 179.509 532.656 182.147 Q535.642 184.763 535.642 189.833 Q535.642 194.948 532.656 197.564 Q529.693 200.18 523.883 200.18 L518.003 200.18 L518.003 214.069 L513.327 214.069 L513.327 179.509 Z" fill="#000000" fill-rule="nonzero" fill-opacity="1" /><path clip-path="url(#clip740)" d="M555.919 192.124 Q555.202 191.708 554.345 191.522 Q553.512 191.314 552.493 191.314 Q548.882 191.314 546.938 193.675 Q545.017 196.013 545.017 200.411 L545.017 214.069 L540.734 214.069 L540.734 188.143 L545.017 188.143 L545.017 192.171 Q546.359 189.809 548.512 188.675 Q550.665 187.518 553.743 187.518 Q554.183 187.518 554.716 187.587 Q555.248 187.634 555.896 187.749 L555.919 192.124 Z" fill="#000000" fill-rule="nonzero" fill-opacity="1" /><path clip-path="url(#clip740)" d="M581.521 200.041 L581.521 202.124 L561.938 202.124 Q562.216 206.522 564.577 208.837 Q566.961 211.129 571.197 211.129 Q573.651 211.129 575.942 210.527 Q578.257 209.925 580.526 208.721 L580.526 212.749 Q578.234 213.721 575.827 214.231 Q573.419 214.74 570.942 214.74 Q564.739 214.74 561.105 211.129 Q557.493 207.518 557.493 201.36 Q557.493 194.995 560.919 191.268 Q564.368 187.518 570.202 187.518 Q575.433 187.518 578.466 190.897 Q581.521 194.254 581.521 200.041 M577.262 198.791 Q577.216 195.296 575.294 193.212 Q573.396 191.129 570.248 191.129 Q566.683 191.129 564.53 193.143 Q562.401 195.157 562.077 198.814 L577.262 198.791 Z" fill="#000000" fill-rule="nonzero" fill-opacity="1" /><path clip-path="url(#clip740)" d="M605.572 192.078 L605.572 178.05 L609.831 178.05 L609.831 214.069 L605.572 214.069 L605.572 210.18 Q604.229 212.495 602.169 213.629 Q600.132 214.74 597.262 214.74 Q592.563 214.74 589.6 210.99 Q586.66 207.24 586.66 201.129 Q586.66 195.018 589.6 191.268 Q592.563 187.518 597.262 187.518 Q600.132 187.518 602.169 188.652 Q604.229 189.763 605.572 192.078 M591.058 201.129 Q591.058 205.828 592.979 208.513 Q594.924 211.175 598.303 211.175 Q601.683 211.175 603.627 208.513 Q605.572 205.828 605.572 201.129 Q605.572 196.43 603.627 193.768 Q601.683 191.083 598.303 191.083 Q594.924 191.083 592.979 193.768 Q591.058 196.43 591.058 201.129 Z" fill="#000000" fill-rule="nonzero" fill-opacity="1" /><path clip-path="url(#clip740)" d="M618.604 188.143 L622.863 188.143 L622.863 214.069 L618.604 214.069 L618.604 188.143 M618.604 178.05 L622.863 178.05 L622.863 183.444 L618.604 183.444 L618.604 178.05 Z" fill="#000000" fill-rule="nonzero" fill-opacity="1" /><path clip-path="url(#clip740)" d="M650.433 189.138 L650.433 193.12 Q648.627 192.124 646.799 191.638 Q644.993 191.129 643.141 191.129 Q638.998 191.129 636.706 193.768 Q634.414 196.384 634.414 201.129 Q634.414 205.874 636.706 208.513 Q638.998 211.129 643.141 211.129 Q644.993 211.129 646.799 210.643 Q648.627 210.133 650.433 209.138 L650.433 213.073 Q648.65 213.907 646.729 214.323 Q644.831 214.74 642.678 214.74 Q636.822 214.74 633.373 211.059 Q629.924 207.379 629.924 201.129 Q629.924 194.786 633.396 191.152 Q636.891 187.518 642.956 187.518 Q644.924 187.518 646.799 187.935 Q648.674 188.328 650.433 189.138 Z" fill="#000000" fill-rule="nonzero" fill-opacity="1" /><path clip-path="url(#clip740)" d="M662.053 180.782 L662.053 188.143 L670.826 188.143 L670.826 191.453 L662.053 191.453 L662.053 205.527 Q662.053 208.698 662.91 209.601 Q663.789 210.504 666.451 210.504 L670.826 210.504 L670.826 214.069 L666.451 214.069 Q661.521 214.069 659.646 212.24 Q657.771 210.388 657.771 205.527 L657.771 191.453 L654.646 191.453 L654.646 188.143 L657.771 188.143 L657.771 180.782 L662.053 180.782 Z" fill="#000000" fill-rule="nonzero" fill-opacity="1" /><path clip-path="url(#clip740)" d="M698.604 200.041 L698.604 202.124 L679.021 202.124 Q679.298 206.522 681.659 208.837 Q684.044 211.129 688.28 211.129 Q690.733 211.129 693.025 210.527 Q695.34 209.925 697.608 208.721 L697.608 212.749 Q695.317 213.721 692.909 214.231 Q690.502 214.74 688.025 214.74 Q681.822 214.74 678.187 211.129 Q674.576 207.518 674.576 201.36 Q674.576 194.995 678.002 191.268 Q681.451 187.518 687.284 187.518 Q692.516 187.518 695.548 190.897 Q698.604 194.254 698.604 200.041 M694.345 198.791 Q694.298 195.296 692.377 193.212 Q690.479 191.129 687.331 191.129 Q683.766 191.129 681.613 193.143 Q679.484 195.157 679.159 198.814 L694.345 198.791 Z" fill="#000000" fill-rule="nonzero" fill-opacity="1" /><path clip-path="url(#clip740)" d="M722.655 192.078 L722.655 178.05 L726.914 178.05 L726.914 214.069 L722.655 214.069 L722.655 210.18 Q721.312 212.495 719.252 213.629 Q717.215 214.74 714.344 214.74 Q709.645 214.74 706.682 210.99 Q703.743 207.24 703.743 201.129 Q703.743 195.018 706.682 191.268 Q709.645 187.518 714.344 187.518 Q717.215 187.518 719.252 188.652 Q721.312 189.763 722.655 192.078 M708.141 201.129 Q708.141 205.828 710.062 208.513 Q712.007 211.175 715.386 211.175 Q718.766 211.175 720.71 208.513 Q722.655 205.828 722.655 201.129 Q722.655 196.43 720.71 193.768 Q718.766 191.083 715.386 191.083 Q712.007 191.083 710.062 193.768 Q708.141 196.43 708.141 201.129 Z" fill="#000000" fill-rule="nonzero" fill-opacity="1" /></svg>
