<?xml version="1.0" encoding="utf-8"?>
<svg xmlns="http://www.w3.org/2000/svg" xmlns:xlink="http://www.w3.org/1999/xlink" width="600" height="400" viewBox="0 0 2400 1600">
<defs>
  <clipPath id="clip400">
    <rect x="0" y="0" width="2400" height="1600"/>
  </clipPath>
</defs>
<path clip-path="url(#clip400)" d="M0 1600 L2400 1600 L2400 0 L0 0  Z" fill="#ffffff" fill-rule="evenodd" fill-opacity="1"/>
<defs>
  <clipPath id="clip401">
    <rect x="480" y="0" width="1681" height="1600"/>
  </clipPath>
</defs>
<path clip-path="url(#clip400)" d="M257.204 1423.18 L2352.76 1423.18 L2352.76 47.2441 L257.204 47.2441  Z" fill="#ffffff" fill-rule="evenodd" fill-opacity="1"/>
<defs>
  <clipPath id="clip402">
    <rect x="257" y="47" width="2097" height="1377"/>
  </clipPath>
</defs>
<polyline clip-path="url(#clip402)" style="stroke:#000000; stroke-linecap:round; stroke-linejoin:round; stroke-width:2; stroke-opacity:0.1; fill:none" points="554.831,1423.18 554.831,47.2441 "/>
<polyline clip-path="url(#clip402)" style="stroke:#000000; stroke-linecap:round; stroke-linejoin:round; stroke-width:2; stroke-opacity:0.1; fill:none" points="989.485,1423.18 989.485,47.2441 "/>
<polyline clip-path="url(#clip402)" style="stroke:#000000; stroke-linecap:round; stroke-linejoin:round; stroke-width:2; stroke-opacity:0.1; fill:none" points="1424.14,1423.18 1424.14,47.2441 "/>
<polyline clip-path="url(#clip402)" style="stroke:#000000; stroke-linecap:round; stroke-linejoin:round; stroke-width:2; stroke-opacity:0.1; fill:none" points="1858.79,1423.18 1858.79,47.2441 "/>
<polyline clip-path="url(#clip402)" style="stroke:#000000; stroke-linecap:round; stroke-linejoin:round; stroke-width:2; stroke-opacity:0.1; fill:none" points="2293.45,1423.18 2293.45,47.2441 "/>
<polyline clip-path="url(#clip402)" style="stroke:#000000; stroke-linecap:round; stroke-linejoin:round; stroke-width:2; stroke-opacity:0.1; fill:none" points="257.204,1346.12 2352.76,1346.12 "/>
<polyline clip-path="url(#clip402)" style="stroke:#000000; stroke-linecap:round; stroke-linejoin:round; stroke-width:2; stroke-opacity:0.1; fill:none" points="257.204,1031.13 2352.76,1031.13 "/>
<polyline clip-path="url(#clip402)" style="stroke:#000000; stroke-linecap:round; stroke-linejoin:round; stroke-width:2; stroke-opacity:0.1; fill:none" points="257.204,716.152 2352.76,716.152 "/>
<polyline clip-path="url(#clip402)" style="stroke:#000000; stroke-linecap:round; stroke-linejoin:round; stroke-width:2; stroke-opacity:0.1; fill:none" points="257.204,401.169 2352.76,401.169 "/>
<polyline clip-path="url(#clip402)" style="stroke:#000000; stroke-linecap:round; stroke-linejoin:round; stroke-width:2; stroke-opacity:0.1; fill:none" points="257.204,86.1857 2352.76,86.1857 "/>
<polyline clip-path="url(#clip400)" style="stroke:#000000; stroke-linecap:round; stroke-linejoin:round; stroke-width:4; stroke-opacity:1; fill:none" points="257.204,1423.18 2352.76,1423.18 "/>
<polyline clip-path="url(#clip400)" style="stroke:#000000; stroke-linecap:round; stroke-linejoin:round; stroke-width:4; stroke-opacity:1; fill:none" points="554.831,1423.18 554.831,1404.28 "/>
<polyline clip-path="url(#clip400)" style="stroke:#000000; stroke-linecap:round; stroke-linejoin:round; stroke-width:4; stroke-opacity:1; fill:none" points="989.485,1423.18 989.485,1404.28 "/>
<polyline clip-path="url(#clip400)" style="stroke:#000000; stroke-linecap:round; stroke-linejoin:round; stroke-width:4; stroke-opacity:1; fill:none" points="1424.14,1423.18 1424.14,1404.28 "/>
<polyline clip-path="url(#clip400)" style="stroke:#000000; stroke-linecap:round; stroke-linejoin:round; stroke-width:4; stroke-opacity:1; fill:none" points="1858.79,1423.18 1858.79,1404.28 "/>
<polyline clip-path="url(#clip400)" style="stroke:#000000; stroke-linecap:round; stroke-linejoin:round; stroke-width:4; stroke-opacity:1; fill:none" points="2293.45,1423.18 2293.45,1404.28 "/>
<path clip-path="url(#clip400)" d="M501.359 1468.75 L531.035 1468.75 L531.035 1472.69 L501.359 1472.69 L501.359 1468.75 Z" fill="#000000" fill-rule="nonzero" fill-opacity="1" /><path clip-path="url(#clip400)" d="M541.937 1481.64 L549.576 1481.64 L549.576 1455.28 L541.266 1456.95 L541.266 1452.69 L549.53 1451.02 L554.206 1451.02 L554.206 1481.64 L561.845 1481.64 L561.845 1485.58 L541.937 1485.58 L541.937 1481.64 Z" fill="#000000" fill-rule="nonzero" fill-opacity="1" /><path clip-path="url(#clip400)" d="M571.289 1479.7 L576.173 1479.7 L576.173 1485.58 L571.289 1485.58 L571.289 1479.7 Z" fill="#000000" fill-rule="nonzero" fill-opacity="1" /><path clip-path="url(#clip400)" d="M596.358 1454.1 Q592.747 1454.1 590.919 1457.66 Q589.113 1461.2 589.113 1468.33 Q589.113 1475.44 590.919 1479.01 Q592.747 1482.55 596.358 1482.55 Q599.993 1482.55 601.798 1479.01 Q603.627 1475.44 603.627 1468.33 Q603.627 1461.2 601.798 1457.66 Q599.993 1454.1 596.358 1454.1 M596.358 1450.39 Q602.169 1450.39 605.224 1455 Q608.303 1459.58 608.303 1468.33 Q608.303 1477.06 605.224 1481.67 Q602.169 1486.25 596.358 1486.25 Q590.548 1486.25 587.47 1481.67 Q584.414 1477.06 584.414 1468.33 Q584.414 1459.58 587.47 1455 Q590.548 1450.39 596.358 1450.39 Z" fill="#000000" fill-rule="nonzero" fill-opacity="1" /><path clip-path="url(#clip400)" d="M936.511 1468.75 L966.187 1468.75 L966.187 1472.69 L936.511 1472.69 L936.511 1468.75 Z" fill="#000000" fill-rule="nonzero" fill-opacity="1" /><path clip-path="url(#clip400)" d="M986.279 1454.1 Q982.668 1454.1 980.84 1457.66 Q979.034 1461.2 979.034 1468.33 Q979.034 1475.44 980.84 1479.01 Q982.668 1482.55 986.279 1482.55 Q989.914 1482.55 991.719 1479.01 Q993.548 1475.44 993.548 1468.33 Q993.548 1461.2 991.719 1457.66 Q989.914 1454.1 986.279 1454.1 M986.279 1450.39 Q992.089 1450.39 995.145 1455 Q998.224 1459.58 998.224 1468.33 Q998.224 1477.06 995.145 1481.67 Q992.089 1486.25 986.279 1486.25 Q980.469 1486.25 977.39 1481.67 Q974.335 1477.06 974.335 1468.33 Q974.335 1459.58 977.39 1455 Q980.469 1450.39 986.279 1450.39 Z" fill="#000000" fill-rule="nonzero" fill-opacity="1" /><path clip-path="url(#clip400)" d="M1006.44 1479.7 L1011.33 1479.7 L1011.33 1485.58 L1006.44 1485.58 L1006.44 1479.7 Z" fill="#000000" fill-rule="nonzero" fill-opacity="1" /><path clip-path="url(#clip400)" d="M1021.56 1451.02 L1039.91 1451.02 L1039.91 1454.96 L1025.84 1454.96 L1025.84 1463.43 Q1026.86 1463.08 1027.88 1462.92 Q1028.89 1462.73 1029.91 1462.73 Q1035.7 1462.73 1039.08 1465.9 Q1042.46 1469.08 1042.46 1474.49 Q1042.46 1480.07 1038.99 1483.17 Q1035.52 1486.25 1029.2 1486.25 Q1027.02 1486.25 1024.75 1485.88 Q1022.51 1485.51 1020.1 1484.77 L1020.1 1480.07 Q1022.18 1481.2 1024.4 1481.76 Q1026.63 1482.32 1029.1 1482.32 Q1033.11 1482.32 1035.45 1480.21 Q1037.78 1478.1 1037.78 1474.49 Q1037.78 1470.88 1035.45 1468.77 Q1033.11 1466.67 1029.1 1466.67 Q1027.23 1466.67 1025.35 1467.08 Q1023.5 1467.5 1021.56 1468.38 L1021.56 1451.02 Z" fill="#000000" fill-rule="nonzero" fill-opacity="1" /><path clip-path="url(#clip400)" d="M1401.52 1454.1 Q1397.91 1454.1 1396.08 1457.66 Q1394.28 1461.2 1394.28 1468.33 Q1394.28 1475.44 1396.08 1479.01 Q1397.91 1482.55 1401.52 1482.55 Q1405.16 1482.55 1406.96 1479.01 Q1408.79 1475.44 1408.79 1468.33 Q1408.79 1461.2 1406.96 1457.66 Q1405.16 1454.1 1401.52 1454.1 M1401.52 1450.39 Q1407.33 1450.39 1410.39 1455 Q1413.47 1459.58 1413.47 1468.33 Q1413.47 1477.06 1410.39 1481.67 Q1407.33 1486.25 1401.52 1486.25 Q1395.71 1486.25 1392.64 1481.67 Q1389.58 1477.06 1389.58 1468.33 Q1389.58 1459.58 1392.64 1455 Q1395.71 1450.39 1401.52 1450.39 Z" fill="#000000" fill-rule="nonzero" fill-opacity="1" /><path clip-path="url(#clip400)" d="M1421.69 1479.7 L1426.57 1479.7 L1426.57 1485.58 L1421.69 1485.58 L1421.69 1479.7 Z" fill="#000000" fill-rule="nonzero" fill-opacity="1" /><path clip-path="url(#clip400)" d="M1446.76 1454.1 Q1443.14 1454.1 1441.32 1457.66 Q1439.51 1461.2 1439.51 1468.33 Q1439.51 1475.44 1441.32 1479.01 Q1443.14 1482.55 1446.76 1482.55 Q1450.39 1482.55 1452.2 1479.01 Q1454.02 1475.44 1454.02 1468.33 Q1454.02 1461.2 1452.2 1457.66 Q1450.39 1454.1 1446.76 1454.1 M1446.76 1450.39 Q1452.57 1450.39 1455.62 1455 Q1458.7 1459.58 1458.7 1468.33 Q1458.7 1477.06 1455.62 1481.67 Q1452.57 1486.25 1446.76 1486.25 Q1440.95 1486.25 1437.87 1481.67 Q1434.81 1477.06 1434.81 1468.33 Q1434.81 1459.58 1437.87 1455 Q1440.95 1450.39 1446.76 1450.39 Z" fill="#000000" fill-rule="nonzero" fill-opacity="1" /><path clip-path="url(#clip400)" d="M1836.68 1454.1 Q1833.07 1454.1 1831.24 1457.66 Q1829.43 1461.2 1829.43 1468.33 Q1829.43 1475.44 1831.24 1479.01 Q1833.07 1482.55 1836.68 1482.55 Q1840.31 1482.55 1842.12 1479.01 Q1843.94 1475.44 1843.94 1468.33 Q1843.94 1461.2 1842.12 1457.66 Q1840.31 1454.1 1836.68 1454.1 M1836.68 1450.39 Q1842.49 1450.39 1845.54 1455 Q1848.62 1459.58 1848.62 1468.33 Q1848.62 1477.06 1845.54 1481.67 Q1842.49 1486.25 1836.68 1486.25 Q1830.87 1486.25 1827.79 1481.67 Q1824.73 1477.06 1824.73 1468.33 Q1824.73 1459.58 1827.79 1455 Q1830.87 1450.39 1836.68 1450.39 Z" fill="#000000" fill-rule="nonzero" fill-opacity="1" /><path clip-path="url(#clip400)" d="M1856.84 1479.7 L1861.72 1479.7 L1861.72 1485.58 L1856.84 1485.58 L1856.84 1479.7 Z" fill="#000000" fill-rule="nonzero" fill-opacity="1" /><path clip-path="url(#clip400)" d="M1871.95 1451.02 L1890.31 1451.02 L1890.31 1454.96 L1876.24 1454.96 L1876.24 1463.43 Q1877.25 1463.08 1878.27 1462.92 Q1879.29 1462.73 1880.31 1462.73 Q1886.1 1462.73 1889.48 1465.9 Q1892.86 1469.08 1892.86 1474.49 Q1892.86 1480.07 1889.38 1483.17 Q1885.91 1486.25 1879.59 1486.25 Q1877.42 1486.25 1875.15 1485.88 Q1872.9 1485.51 1870.5 1484.77 L1870.5 1480.07 Q1872.58 1481.2 1874.8 1481.76 Q1877.02 1482.32 1879.5 1482.32 Q1883.5 1482.32 1885.84 1480.21 Q1888.18 1478.1 1888.18 1474.49 Q1888.18 1470.88 1885.84 1468.77 Q1883.5 1466.67 1879.5 1466.67 Q1877.63 1466.67 1875.75 1467.08 Q1873.9 1467.5 1871.95 1468.38 L1871.95 1451.02 Z" fill="#000000" fill-rule="nonzero" fill-opacity="1" /><path clip-path="url(#clip400)" d="M2260.6 1481.64 L2268.24 1481.64 L2268.24 1455.28 L2259.93 1456.95 L2259.93 1452.69 L2268.19 1451.02 L2272.87 1451.02 L2272.87 1481.64 L2280.51 1481.64 L2280.51 1485.58 L2260.6 1485.58 L2260.6 1481.64 Z" fill="#000000" fill-rule="nonzero" fill-opacity="1" /><path clip-path="url(#clip400)" d="M2289.95 1479.7 L2294.84 1479.7 L2294.84 1485.58 L2289.95 1485.58 L2289.95 1479.7 Z" fill="#000000" fill-rule="nonzero" fill-opacity="1" /><path clip-path="url(#clip400)" d="M2315.02 1454.1 Q2311.41 1454.1 2309.58 1457.66 Q2307.78 1461.2 2307.78 1468.33 Q2307.78 1475.44 2309.58 1479.01 Q2311.41 1482.55 2315.02 1482.55 Q2318.66 1482.55 2320.46 1479.01 Q2322.29 1475.44 2322.29 1468.33 Q2322.29 1461.2 2320.46 1457.66 Q2318.66 1454.1 2315.02 1454.1 M2315.02 1450.39 Q2320.83 1450.39 2323.89 1455 Q2326.97 1459.58 2326.97 1468.33 Q2326.97 1477.06 2323.89 1481.67 Q2320.83 1486.25 2315.02 1486.25 Q2309.21 1486.25 2306.13 1481.67 Q2303.08 1477.06 2303.08 1468.33 Q2303.08 1459.58 2306.13 1455 Q2309.21 1450.39 2315.02 1450.39 Z" fill="#000000" fill-rule="nonzero" fill-opacity="1" /><path clip-path="url(#clip400)" d="M1134.03 1525.81 L1134.03 1543.66 L1142.11 1543.66 Q1146.6 1543.66 1149.05 1541.34 Q1151.5 1539.02 1151.5 1534.72 Q1151.5 1530.45 1149.05 1528.13 Q1146.6 1525.81 1142.11 1525.81 L1134.03 1525.81 M1127.6 1520.52 L1142.11 1520.52 Q1150.1 1520.52 1154.18 1524.15 Q1158.28 1527.75 1158.28 1534.72 Q1158.28 1541.75 1154.18 1545.35 Q1150.1 1548.95 1142.11 1548.95 L1134.03 1548.95 L1134.03 1568.04 L1127.6 1568.04 L1127.6 1520.52 Z" fill="#000000" fill-rule="nonzero" fill-opacity="1" /><path clip-path="url(#clip400)" d="M1178.14 1536.5 Q1173.43 1536.5 1170.7 1540.19 Q1167.96 1543.85 1167.96 1550.25 Q1167.96 1556.65 1170.66 1560.34 Q1173.4 1564 1178.14 1564 Q1182.82 1564 1185.56 1560.31 Q1188.3 1556.62 1188.3 1550.25 Q1188.3 1543.92 1185.56 1540.23 Q1182.82 1536.5 1178.14 1536.5 M1178.14 1531.54 Q1185.78 1531.54 1190.14 1536.5 Q1194.5 1541.47 1194.5 1550.25 Q1194.5 1559 1190.14 1564 Q1185.78 1568.97 1178.14 1568.97 Q1170.47 1568.97 1166.11 1564 Q1161.78 1559 1161.78 1550.25 Q1161.78 1541.47 1166.11 1536.5 Q1170.47 1531.54 1178.14 1531.54 Z" fill="#000000" fill-rule="nonzero" fill-opacity="1" /><path clip-path="url(#clip400)" d="M1226.94 1533.45 L1226.94 1538.98 Q1224.45 1537.71 1221.78 1537.07 Q1219.11 1536.44 1216.24 1536.44 Q1211.88 1536.44 1209.69 1537.77 Q1207.52 1539.11 1207.52 1541.79 Q1207.52 1543.82 1209.08 1545 Q1210.64 1546.15 1215.35 1547.2 L1217.36 1547.64 Q1223.59 1548.98 1226.2 1551.43 Q1228.85 1553.85 1228.85 1558.21 Q1228.85 1563.17 1224.9 1566.07 Q1220.98 1568.97 1214.11 1568.97 Q1211.24 1568.97 1208.13 1568.39 Q1205.04 1567.85 1201.6 1566.74 L1201.6 1560.69 Q1204.85 1562.38 1208 1563.24 Q1211.15 1564.07 1214.24 1564.07 Q1218.37 1564.07 1220.6 1562.66 Q1222.83 1561.23 1222.83 1558.65 Q1222.83 1556.27 1221.21 1554.99 Q1219.62 1553.72 1214.17 1552.54 L1212.14 1552.07 Q1206.69 1550.92 1204.27 1548.56 Q1201.86 1546.18 1201.86 1542.04 Q1201.86 1537.01 1205.42 1534.27 Q1208.99 1531.54 1215.54 1531.54 Q1218.79 1531.54 1221.65 1532.01 Q1224.52 1532.49 1226.94 1533.45 Z" fill="#000000" fill-rule="nonzero" fill-opacity="1" /><path clip-path="url(#clip400)" d="M1238.17 1532.4 L1244.03 1532.4 L1244.03 1568.04 L1238.17 1568.04 L1238.17 1532.4 M1238.17 1518.52 L1244.03 1518.52 L1244.03 1525.93 L1238.17 1525.93 L1238.17 1518.52 Z" fill="#000000" fill-rule="nonzero" fill-opacity="1" /><path clip-path="url(#clip400)" d="M1262.08 1522.27 L1262.08 1532.4 L1274.14 1532.4 L1274.14 1536.95 L1262.08 1536.95 L1262.08 1556.3 Q1262.08 1560.66 1263.25 1561.9 Q1264.46 1563.14 1268.12 1563.14 L1274.14 1563.14 L1274.14 1568.04 L1268.12 1568.04 Q1261.34 1568.04 1258.76 1565.53 Q1256.19 1562.98 1256.19 1556.3 L1256.19 1536.95 L1251.89 1536.95 L1251.89 1532.4 L1256.19 1532.4 L1256.19 1522.27 L1262.08 1522.27 Z" fill="#000000" fill-rule="nonzero" fill-opacity="1" /><path clip-path="url(#clip400)" d="M1281.84 1532.4 L1287.7 1532.4 L1287.7 1568.04 L1281.84 1568.04 L1281.84 1532.4 M1281.84 1518.52 L1287.7 1518.52 L1287.7 1525.93 L1281.84 1525.93 L1281.84 1518.52 Z" fill="#000000" fill-rule="nonzero" fill-opacity="1" /><path clip-path="url(#clip400)" d="M1313.76 1536.5 Q1309.05 1536.5 1306.32 1540.19 Q1303.58 1543.85 1303.58 1550.25 Q1303.58 1556.65 1306.28 1560.34 Q1309.02 1564 1313.76 1564 Q1318.44 1564 1321.18 1560.31 Q1323.92 1556.62 1323.92 1550.25 Q1323.92 1543.92 1321.18 1540.23 Q1318.44 1536.5 1313.76 1536.5 M1313.76 1531.54 Q1321.4 1531.54 1325.76 1536.5 Q1330.12 1541.47 1330.12 1550.25 Q1330.12 1559 1325.76 1564 Q1321.4 1568.97 1313.76 1568.97 Q1306.09 1568.97 1301.73 1564 Q1297.4 1559 1297.4 1550.25 Q1297.4 1541.47 1301.73 1536.5 Q1306.09 1531.54 1313.76 1531.54 Z" fill="#000000" fill-rule="nonzero" fill-opacity="1" /><path clip-path="url(#clip400)" d="M1369.46 1546.53 L1369.46 1568.04 L1363.61 1568.04 L1363.61 1546.72 Q1363.61 1541.66 1361.63 1539.14 Q1359.66 1536.63 1355.71 1536.63 Q1350.97 1536.63 1348.23 1539.65 Q1345.5 1542.68 1345.5 1547.9 L1345.5 1568.04 L1339.61 1568.04 L1339.61 1532.4 L1345.5 1532.4 L1345.5 1537.93 Q1347.6 1534.72 1350.43 1533.13 Q1353.3 1531.54 1357.02 1531.54 Q1363.16 1531.54 1366.31 1535.36 Q1369.46 1539.14 1369.46 1546.53 Z" fill="#000000" fill-rule="nonzero" fill-opacity="1" /><path clip-path="url(#clip400)" d="M1415.93 1518.58 Q1411.67 1525.9 1409.6 1533.06 Q1407.53 1540.23 1407.53 1547.58 Q1407.53 1554.93 1409.6 1562.16 Q1411.7 1569.35 1415.93 1576.64 L1410.84 1576.64 Q1406.07 1569.16 1403.68 1561.93 Q1401.32 1554.71 1401.32 1547.58 Q1401.32 1540.48 1403.68 1533.29 Q1406.04 1526.09 1410.84 1518.58 L1415.93 1518.58 Z" fill="#000000" fill-rule="nonzero" fill-opacity="1" /><path clip-path="url(#clip400)" d="M1430.8 1550.25 Q1430.8 1556.71 1433.44 1560.4 Q1436.11 1564.07 1440.76 1564.07 Q1445.41 1564.07 1448.08 1560.4 Q1450.75 1556.71 1450.75 1550.25 Q1450.75 1543.79 1448.08 1540.13 Q1445.41 1536.44 1440.76 1536.44 Q1436.11 1536.44 1433.44 1540.13 Q1430.8 1543.79 1430.8 1550.25 M1450.75 1562.7 Q1448.91 1565.88 1446.08 1567.44 Q1443.27 1568.97 1439.33 1568.97 Q1432.87 1568.97 1428.79 1563.81 Q1424.75 1558.65 1424.75 1550.25 Q1424.75 1541.85 1428.79 1536.69 Q1432.87 1531.54 1439.33 1531.54 Q1443.27 1531.54 1446.08 1533.1 Q1448.91 1534.62 1450.75 1537.81 L1450.75 1532.4 L1456.61 1532.4 L1456.61 1581.6 L1450.75 1581.6 L1450.75 1562.7 Z" fill="#000000" fill-rule="nonzero" fill-opacity="1" /><path clip-path="url(#clip400)" d="M1467.75 1518.58 L1472.84 1518.58 Q1477.62 1526.09 1479.97 1533.29 Q1482.36 1540.48 1482.36 1547.58 Q1482.36 1554.71 1479.97 1561.93 Q1477.62 1569.16 1472.84 1576.64 L1467.75 1576.64 Q1471.98 1569.35 1474.05 1562.16 Q1476.15 1554.93 1476.15 1547.58 Q1476.15 1540.23 1474.05 1533.06 Q1471.98 1525.9 1467.75 1518.58 Z" fill="#000000" fill-rule="nonzero" fill-opacity="1" /><polyline clip-path="url(#clip400)" style="stroke:#000000; stroke-linecap:round; stroke-linejoin:round; stroke-width:4; stroke-opacity:1; fill:none" points="257.204,1423.18 257.204,47.2441 "/>
<polyline clip-path="url(#clip400)" style="stroke:#000000; stroke-linecap:round; stroke-linejoin:round; stroke-width:4; stroke-opacity:1; fill:none" points="257.204,1346.12 276.102,1346.12 "/>
<polyline clip-path="url(#clip400)" style="stroke:#000000; stroke-linecap:round; stroke-linejoin:round; stroke-width:4; stroke-opacity:1; fill:none" points="257.204,1031.13 276.102,1031.13 "/>
<polyline clip-path="url(#clip400)" style="stroke:#000000; stroke-linecap:round; stroke-linejoin:round; stroke-width:4; stroke-opacity:1; fill:none" points="257.204,716.152 276.102,716.152 "/>
<polyline clip-path="url(#clip400)" style="stroke:#000000; stroke-linecap:round; stroke-linejoin:round; stroke-width:4; stroke-opacity:1; fill:none" points="257.204,401.169 276.102,401.169 "/>
<polyline clip-path="url(#clip400)" style="stroke:#000000; stroke-linecap:round; stroke-linejoin:round; stroke-width:4; stroke-opacity:1; fill:none" points="257.204,86.1857 276.102,86.1857 "/>
<path clip-path="url(#clip400)" d="M114.26 1346.57 L143.936 1346.57 L143.936 1350.5 L114.26 1350.5 L114.26 1346.57 Z" fill="#000000" fill-rule="nonzero" fill-opacity="1" /><path clip-path="url(#clip400)" d="M154.839 1359.46 L162.477 1359.46 L162.477 1333.1 L154.167 1334.76 L154.167 1330.5 L162.431 1328.84 L167.107 1328.84 L167.107 1359.46 L174.746 1359.46 L174.746 1363.4 L154.839 1363.4 L154.839 1359.46 Z" fill="#000000" fill-rule="nonzero" fill-opacity="1" /><path clip-path="url(#clip400)" d="M184.19 1357.52 L189.075 1357.52 L189.075 1363.4 L184.19 1363.4 L184.19 1357.52 Z" fill="#000000" fill-rule="nonzero" fill-opacity="1" /><path clip-path="url(#clip400)" d="M209.26 1331.92 Q205.649 1331.92 203.82 1335.48 Q202.014 1339.02 202.014 1346.15 Q202.014 1353.26 203.82 1356.82 Q205.649 1360.37 209.26 1360.37 Q212.894 1360.37 214.699 1356.82 Q216.528 1353.26 216.528 1346.15 Q216.528 1339.02 214.699 1335.48 Q212.894 1331.92 209.26 1331.92 M209.26 1328.21 Q215.07 1328.21 218.125 1332.82 Q221.204 1337.4 221.204 1346.15 Q221.204 1354.88 218.125 1359.49 Q215.07 1364.07 209.26 1364.07 Q203.449 1364.07 200.371 1359.49 Q197.315 1354.88 197.315 1346.15 Q197.315 1337.4 200.371 1332.82 Q203.449 1328.21 209.26 1328.21 Z" fill="#000000" fill-rule="nonzero" fill-opacity="1" /><path clip-path="url(#clip400)" d="M115.256 1031.59 L144.931 1031.59 L144.931 1035.52 L115.256 1035.52 L115.256 1031.59 Z" fill="#000000" fill-rule="nonzero" fill-opacity="1" /><path clip-path="url(#clip400)" d="M165.024 1016.93 Q161.413 1016.93 159.584 1020.5 Q157.778 1024.04 157.778 1031.17 Q157.778 1038.28 159.584 1041.84 Q161.413 1045.38 165.024 1045.38 Q168.658 1045.38 170.464 1041.84 Q172.292 1038.28 172.292 1031.17 Q172.292 1024.04 170.464 1020.5 Q168.658 1016.93 165.024 1016.93 M165.024 1013.23 Q170.834 1013.23 173.889 1017.84 Q176.968 1022.42 176.968 1031.17 Q176.968 1039.9 173.889 1044.5 Q170.834 1049.09 165.024 1049.09 Q159.214 1049.09 156.135 1044.5 Q153.079 1039.9 153.079 1031.17 Q153.079 1022.42 156.135 1017.84 Q159.214 1013.23 165.024 1013.23 Z" fill="#000000" fill-rule="nonzero" fill-opacity="1" /><path clip-path="url(#clip400)" d="M185.186 1042.54 L190.07 1042.54 L190.07 1048.41 L185.186 1048.41 L185.186 1042.54 Z" fill="#000000" fill-rule="nonzero" fill-opacity="1" /><path clip-path="url(#clip400)" d="M200.301 1013.85 L218.658 1013.85 L218.658 1017.79 L204.584 1017.79 L204.584 1026.26 Q205.602 1025.91 206.621 1025.75 Q207.639 1025.57 208.658 1025.57 Q214.445 1025.57 217.824 1028.74 Q221.204 1031.91 221.204 1037.33 Q221.204 1042.91 217.732 1046.01 Q214.26 1049.09 207.94 1049.09 Q205.764 1049.09 203.496 1048.72 Q201.25 1048.35 198.843 1047.6 L198.843 1042.91 Q200.926 1044.04 203.149 1044.6 Q205.371 1045.15 207.848 1045.15 Q211.852 1045.15 214.19 1043.04 Q216.528 1040.94 216.528 1037.33 Q216.528 1033.72 214.19 1031.61 Q211.852 1029.5 207.848 1029.5 Q205.973 1029.5 204.098 1029.92 Q202.246 1030.34 200.301 1031.22 L200.301 1013.85 Z" fill="#000000" fill-rule="nonzero" fill-opacity="1" /><path clip-path="url(#clip400)" d="M164.028 701.95 Q160.417 701.95 158.589 705.515 Q156.783 709.057 156.783 716.187 Q156.783 723.293 158.589 726.858 Q160.417 730.399 164.028 730.399 Q167.663 730.399 169.468 726.858 Q171.297 723.293 171.297 716.187 Q171.297 709.057 169.468 705.515 Q167.663 701.95 164.028 701.95 M164.028 698.247 Q169.839 698.247 172.894 702.853 Q175.973 707.437 175.973 716.187 Q175.973 724.913 172.894 729.52 Q169.839 734.103 164.028 734.103 Q158.218 734.103 155.14 729.52 Q152.084 724.913 152.084 716.187 Q152.084 707.437 155.14 702.853 Q158.218 698.247 164.028 698.247 Z" fill="#000000" fill-rule="nonzero" fill-opacity="1" /><path clip-path="url(#clip400)" d="M184.19 727.552 L189.075 727.552 L189.075 733.432 L184.19 733.432 L184.19 727.552 Z" fill="#000000" fill-rule="nonzero" fill-opacity="1" /><path clip-path="url(#clip400)" d="M209.26 701.95 Q205.649 701.95 203.82 705.515 Q202.014 709.057 202.014 716.187 Q202.014 723.293 203.82 726.858 Q205.649 730.399 209.26 730.399 Q212.894 730.399 214.699 726.858 Q216.528 723.293 216.528 716.187 Q216.528 709.057 214.699 705.515 Q212.894 701.95 209.26 701.95 M209.26 698.247 Q215.07 698.247 218.125 702.853 Q221.204 707.437 221.204 716.187 Q221.204 724.913 218.125 729.52 Q215.07 734.103 209.26 734.103 Q203.449 734.103 200.371 729.52 Q197.315 724.913 197.315 716.187 Q197.315 707.437 200.371 702.853 Q203.449 698.247 209.26 698.247 Z" fill="#000000" fill-rule="nonzero" fill-opacity="1" /><path clip-path="url(#clip400)" d="M165.024 386.967 Q161.413 386.967 159.584 390.532 Q157.778 394.074 157.778 401.203 Q157.778 408.31 159.584 411.875 Q161.413 415.416 165.024 415.416 Q168.658 415.416 170.464 411.875 Q172.292 408.31 172.292 401.203 Q172.292 394.074 170.464 390.532 Q168.658 386.967 165.024 386.967 M165.024 383.264 Q170.834 383.264 173.889 387.87 Q176.968 392.454 176.968 401.203 Q176.968 409.93 173.889 414.537 Q170.834 419.12 165.024 419.12 Q159.214 419.12 156.135 414.537 Q153.079 409.93 153.079 401.203 Q153.079 392.454 156.135 387.87 Q159.214 383.264 165.024 383.264 Z" fill="#000000" fill-rule="nonzero" fill-opacity="1" /><path clip-path="url(#clip400)" d="M185.186 412.569 L190.07 412.569 L190.07 418.449 L185.186 418.449 L185.186 412.569 Z" fill="#000000" fill-rule="nonzero" fill-opacity="1" /><path clip-path="url(#clip400)" d="M200.301 383.889 L218.658 383.889 L218.658 387.824 L204.584 387.824 L204.584 396.296 Q205.602 395.949 206.621 395.787 Q207.639 395.602 208.658 395.602 Q214.445 395.602 217.824 398.773 Q221.204 401.944 221.204 407.361 Q221.204 412.94 217.732 416.041 Q214.26 419.12 207.94 419.12 Q205.764 419.12 203.496 418.75 Q201.25 418.379 198.843 417.639 L198.843 412.94 Q200.926 414.074 203.149 414.629 Q205.371 415.185 207.848 415.185 Q211.852 415.185 214.19 413.078 Q216.528 410.972 216.528 407.361 Q216.528 403.75 214.19 401.643 Q211.852 399.537 207.848 399.537 Q205.973 399.537 204.098 399.953 Q202.246 400.37 200.301 401.25 L200.301 383.889 Z" fill="#000000" fill-rule="nonzero" fill-opacity="1" /><path clip-path="url(#clip400)" d="M154.839 99.5305 L162.477 99.5305 L162.477 73.1649 L154.167 74.8316 L154.167 70.5723 L162.431 68.9057 L167.107 68.9057 L167.107 99.5305 L174.746 99.5305 L174.746 103.466 L154.839 103.466 L154.839 99.5305 Z" fill="#000000" fill-rule="nonzero" fill-opacity="1" /><path clip-path="url(#clip400)" d="M184.19 97.5861 L189.075 97.5861 L189.075 103.466 L184.19 103.466 L184.19 97.5861 Z" fill="#000000" fill-rule="nonzero" fill-opacity="1" /><path clip-path="url(#clip400)" d="M209.26 71.9844 Q205.649 71.9844 203.82 75.5492 Q202.014 79.0908 202.014 86.2204 Q202.014 93.3268 203.82 96.8916 Q205.649 100.433 209.26 100.433 Q212.894 100.433 214.699 96.8916 Q216.528 93.3268 216.528 86.2204 Q216.528 79.0908 214.699 75.5492 Q212.894 71.9844 209.26 71.9844 M209.26 68.2807 Q215.07 68.2807 218.125 72.8871 Q221.204 77.4704 221.204 86.2204 Q221.204 94.9472 218.125 99.5537 Q215.07 104.137 209.26 104.137 Q203.449 104.137 200.371 99.5537 Q197.315 94.9472 197.315 86.2204 Q197.315 77.4704 200.371 72.8871 Q203.449 68.2807 209.26 68.2807 Z" fill="#000000" fill-rule="nonzero" fill-opacity="1" /><path clip-path="url(#clip400)" d="M16.4842 971.396 L16.4842 961.815 L48.8219 949.689 L16.4842 937.498 L16.4842 927.918 L64.0042 927.918 L64.0042 934.188 L22.277 934.188 L54.8694 946.442 L54.8694 952.903 L22.277 965.157 L64.0042 965.157 L64.0042 971.396 L16.4842 971.396 Z" fill="#000000" fill-rule="nonzero" fill-opacity="1" /><path clip-path="url(#clip400)" d="M32.4621 901.596 Q32.4621 906.306 36.1542 909.044 Q39.8145 911.781 46.212 911.781 Q52.6095 911.781 56.3017 909.075 Q59.9619 906.338 59.9619 901.596 Q59.9619 896.917 56.2698 894.18 Q52.5777 891.442 46.212 891.442 Q39.8781 891.442 36.186 894.18 Q32.4621 896.917 32.4621 901.596 M27.4968 901.596 Q27.4968 893.957 32.4621 889.596 Q37.4273 885.236 46.212 885.236 Q54.9649 885.236 59.9619 889.596 Q64.9272 893.957 64.9272 901.596 Q64.9272 909.266 59.9619 913.627 Q54.9649 917.955 46.212 917.955 Q37.4273 917.955 32.4621 913.627 Q27.4968 909.266 27.4968 901.596 Z" fill="#000000" fill-rule="nonzero" fill-opacity="1" /><path clip-path="url(#clip400)" d="M35.1993 847.774 Q31.2526 845.577 29.3747 842.522 Q27.4968 839.466 27.4968 835.329 Q27.4968 829.759 31.4117 826.735 Q35.2948 823.711 42.4881 823.711 L64.0042 823.711 L64.0042 829.599 L42.679 829.599 Q37.5546 829.599 35.072 831.414 Q32.5894 833.228 32.5894 836.952 Q32.5894 841.503 35.6131 844.145 Q38.6368 846.787 43.8567 846.787 L64.0042 846.787 L64.0042 852.675 L42.679 852.675 Q37.5228 852.675 35.072 854.489 Q32.5894 856.304 32.5894 860.091 Q32.5894 864.579 35.6449 867.221 Q38.6686 869.863 43.8567 869.863 L64.0042 869.863 L64.0042 875.751 L28.3562 875.751 L28.3562 869.863 L33.8944 869.863 Q30.616 867.857 29.0564 865.056 Q27.4968 862.256 27.4968 858.404 Q27.4968 854.521 29.4702 851.816 Q31.4436 849.079 35.1993 847.774 Z" fill="#000000" fill-rule="nonzero" fill-opacity="1" /><path clip-path="url(#clip400)" d="M44.7161 781.538 L47.5806 781.538 L47.5806 808.465 Q53.6281 808.083 56.8109 804.837 Q59.9619 801.559 59.9619 795.734 Q59.9619 792.36 59.1344 789.209 Q58.3069 786.026 56.6518 782.907 L62.1899 782.907 Q63.5267 786.058 64.227 789.368 Q64.9272 792.678 64.9272 796.084 Q64.9272 804.614 59.9619 809.611 Q54.9967 814.576 46.5303 814.576 Q37.7774 814.576 32.6531 809.866 Q27.4968 805.123 27.4968 797.103 Q27.4968 789.909 32.1438 785.74 Q36.7589 781.538 44.7161 781.538 M42.9973 787.395 Q38.1912 787.459 35.3266 790.1 Q32.4621 792.71 32.4621 797.039 Q32.4621 801.94 35.2312 804.901 Q38.0002 807.829 43.0292 808.274 L42.9973 787.395 Z" fill="#000000" fill-rule="nonzero" fill-opacity="1" /><path clip-path="url(#clip400)" d="M42.4881 742.294 L64.0042 742.294 L64.0042 748.15 L42.679 748.15 Q37.6183 748.15 35.1038 750.124 Q32.5894 752.097 32.5894 756.044 Q32.5894 760.786 35.6131 763.523 Q38.6368 766.261 43.8567 766.261 L64.0042 766.261 L64.0042 772.149 L28.3562 772.149 L28.3562 766.261 L33.8944 766.261 Q30.6797 764.16 29.0883 761.327 Q27.4968 758.463 27.4968 754.739 Q27.4968 748.596 31.3163 745.445 Q35.1038 742.294 42.4881 742.294 Z" fill="#000000" fill-rule="nonzero" fill-opacity="1" /><path clip-path="url(#clip400)" d="M18.2347 724.82 L28.3562 724.82 L28.3562 712.757 L32.9077 712.757 L32.9077 724.82 L52.2594 724.82 Q56.6199 724.82 57.8613 723.642 Q59.1026 722.433 59.1026 718.773 L59.1026 712.757 L64.0042 712.757 L64.0042 718.773 Q64.0042 725.552 61.4897 728.13 Q58.9434 730.708 52.2594 730.708 L32.9077 730.708 L32.9077 735.005 L28.3562 735.005 L28.3562 730.708 L18.2347 730.708 L18.2347 724.82 Z" fill="#000000" fill-rule="nonzero" fill-opacity="1" /><path clip-path="url(#clip400)" d="M49.9359 705.659 L28.3562 705.659 L28.3562 699.803 L49.7131 699.803 Q54.7739 699.803 57.3202 697.829 Q59.8346 695.856 59.8346 691.909 Q59.8346 687.167 56.8109 684.43 Q53.7872 681.66 48.5673 681.66 L28.3562 681.66 L28.3562 675.804 L64.0042 675.804 L64.0042 681.66 L58.5296 681.66 Q61.7762 683.793 63.3676 686.626 Q64.9272 689.427 64.9272 693.151 Q64.9272 699.293 61.1078 702.476 Q57.2883 705.659 49.9359 705.659 M27.4968 690.923 L27.4968 690.923 Z" fill="#000000" fill-rule="nonzero" fill-opacity="1" /><path clip-path="url(#clip400)" d="M35.1993 635.987 Q31.2526 633.79 29.3747 630.735 Q27.4968 627.679 27.4968 623.542 Q27.4968 617.972 31.4117 614.948 Q35.2948 611.924 42.4881 611.924 L64.0042 611.924 L64.0042 617.812 L42.679 617.812 Q37.5546 617.812 35.072 619.627 Q32.5894 621.441 32.5894 625.165 Q32.5894 629.716 35.6131 632.358 Q38.6368 635 43.8567 635 L64.0042 635 L64.0042 640.888 L42.679 640.888 Q37.5228 640.888 35.072 642.702 Q32.5894 644.517 32.5894 648.304 Q32.5894 652.792 35.6449 655.434 Q38.6686 658.076 43.8567 658.076 L64.0042 658.076 L64.0042 663.964 L28.3562 663.964 L28.3562 658.076 L33.8944 658.076 Q30.616 656.07 29.0564 653.269 Q27.4968 650.468 27.4968 646.617 Q27.4968 642.734 29.4702 640.029 Q31.4436 637.291 35.1993 635.987 Z" fill="#000000" fill-rule="nonzero" fill-opacity="1" /><path clip-path="url(#clip400)" d="M14.5426 565.454 Q21.8632 569.72 29.0246 571.788 Q36.186 573.857 43.5384 573.857 Q50.8908 573.857 58.1159 571.788 Q65.3091 569.688 72.5979 565.454 L72.5979 570.547 Q65.1182 575.321 57.8931 577.708 Q50.668 580.064 43.5384 580.064 Q36.4406 580.064 29.2474 577.708 Q22.0542 575.353 14.5426 570.547 L14.5426 565.454 Z" fill="#000000" fill-rule="nonzero" fill-opacity="1" /><path clip-path="url(#clip400)" d="M58.657 548.426 L77.5631 548.426 L77.5631 554.315 L28.3562 554.315 L28.3562 548.426 L33.7671 548.426 Q30.5842 546.58 29.0564 543.779 Q27.4968 540.947 27.4968 537.032 Q27.4968 530.539 32.6531 526.496 Q37.8093 522.422 46.212 522.422 Q54.6147 522.422 59.771 526.496 Q64.9272 530.539 64.9272 537.032 Q64.9272 540.947 63.3994 543.779 Q61.8398 546.58 58.657 548.426 M46.212 528.502 Q39.7508 528.502 36.0905 531.175 Q32.3984 533.817 32.3984 538.464 Q32.3984 543.111 36.0905 545.784 Q39.7508 548.426 46.212 548.426 Q52.6732 548.426 56.3653 545.784 Q60.0256 543.111 60.0256 538.464 Q60.0256 533.817 56.3653 531.175 Q52.6732 528.502 46.212 528.502 Z" fill="#000000" fill-rule="nonzero" fill-opacity="1" /><path clip-path="url(#clip400)" d="M14.5426 513.638 L14.5426 508.545 Q22.0542 503.771 29.2474 501.415 Q36.4406 499.028 43.5384 499.028 Q50.668 499.028 57.8931 501.415 Q65.1182 503.771 72.5979 508.545 L72.5979 513.638 Q65.3091 509.404 58.1159 507.336 Q50.8908 505.235 43.5384 505.235 Q36.186 505.235 29.0246 507.336 Q21.8632 509.404 14.5426 513.638 Z" fill="#000000" fill-rule="nonzero" fill-opacity="1" /><polyline clip-path="url(#clip402)" style="stroke:#009af9; stroke-linecap:round; stroke-linejoin:round; stroke-width:16; stroke-opacity:1; fill:none" points="1424.14,86.1857 1429.48,86.1975 1434.82,86.2332 1440.16,86.2926 1445.49,86.3758 1450.83,86.4827 1456.17,86.6134 1461.5,86.7678 1466.84,86.946 1472.17,87.1479 1477.5,87.3735 1482.83,87.6229 1488.15,87.8959 1493.48,88.1927 1498.8,88.5131 1504.12,88.8573 1509.43,89.2251 1514.74,89.6165 1520.05,90.0316 1525.36,90.4703 1530.66,90.9326 1535.95,91.4185 1541.25,91.9279 1546.53,92.4609 1551.82,93.0174 1557.1,93.5975 1562.37,94.201 1567.64,94.8279 1572.9,95.4784 1578.16,96.1522 1583.41,96.8494 1588.66,97.57 1593.9,98.3139 1599.13,99.0811 1604.36,99.8716 1609.58,100.685 1614.79,101.522 1620,102.382 1625.19,103.266 1630.38,104.172 1635.57,105.102 1640.74,106.054 1645.91,107.03 1651.07,108.028 1656.22,109.05 1661.36,110.094 1666.49,111.162 1671.61,112.252 1676.73,113.364 1681.83,114.5 1686.92,115.658 1692.01,116.839 1697.08,118.043 1702.15,119.269 1707.2,120.518 1712.24,121.789 1717.28,123.082 1722.3,124.398 1727.31,125.736 1732.31,127.097 1737.29,128.48 1742.27,129.884 1747.23,131.311 1752.18,132.761 1757.12,134.232 1762.04,135.725 1766.96,137.239 1771.86,138.776 1776.74,140.335 1781.62,141.915 1786.48,143.517 1791.32,145.14 1796.16,146.786 1800.98,148.452 1805.78,150.14 1810.57,151.849 1815.34,153.58 1820.11,155.332 1824.85,157.105 1829.58,158.899 1834.3,160.714 1839,162.55 1843.68,164.407 1848.35,166.285 1853,168.183 1857.64,170.102 1862.26,172.042 1866.86,174.002 1871.45,175.983 1876.02,177.984 1880.57,180.005 1885.11,182.047 1889.62,184.109 1894.12,186.191 1898.61,188.292 1903.07,190.414 1907.52,192.556 1911.95,194.717 1916.36,196.898 1920.75,199.099 1925.12,201.319 1929.48,203.558 1933.81,205.817 1938.13,208.095 1942.42,210.392 1946.7,212.709 1950.96,215.044 1955.19,217.398 1959.41,219.771 1963.61,222.163 1967.78,224.574 1971.94,227.003 1976.07,229.45 1980.19,231.916 1984.28,234.4 1988.36,236.902 1992.41,239.422 1996.44,241.961 2000.44,244.517 2004.43,247.091 2008.4,249.682 2012.34,252.292 2016.26,254.918 2020.16,257.562 2024.03,260.224 2027.88,262.903 2031.71,265.598 2035.52,268.311 2039.31,271.041 2043.07,273.787 2046.8,276.55 2050.52,279.33 2054.21,282.126 2057.88,284.939 2061.52,287.767 2065.14,290.612 2068.73,293.473 2072.3,296.35 2075.85,299.243 2079.37,302.152 2082.86,305.076 2086.34,308.015 2089.78,310.97 2093.2,313.941 2096.6,316.926 2099.97,319.927 2103.32,322.942 2106.64,325.973 2109.93,329.018 2113.2,332.077 2116.44,335.152 2119.66,338.24 2122.85,341.343 2126.01,344.46 2129.15,347.591 2132.26,350.736 2135.34,353.894 2138.4,357.067 2141.43,360.252 2144.43,363.452 2147.41,366.664 2150.36,369.89 2153.28,373.129 2156.17,376.381 2159.04,379.645 2161.87,382.922 2164.68,386.212 2167.47,389.514 2170.22,392.829 2172.95,396.156 2175.65,399.495 2178.31,402.846 2180.96,406.208 2183.57,409.583 2186.15,412.969 2188.71,416.366 2191.23,419.775 2193.73,423.194 2196.2,426.625 2198.64,430.067 2201.05,433.52 2203.43,436.983 2205.78,440.457 2208.1,443.941 2210.4,447.435 2212.66,450.94 2214.89,454.454 2217.09,457.979 2219.27,461.513 2221.41,465.057 2223.52,468.61 2225.61,472.173 2227.66,475.745 2229.68,479.326 2231.67,482.915 2233.64,486.514 2235.57,490.121 2237.47,493.737 2239.34,497.361 2241.18,500.994 2242.98,504.634 2244.76,508.283 2246.51,511.939 2248.22,515.603 2249.91,519.275 2251.56,522.954 2253.18,526.64 2254.77,530.334 2256.33,534.035 2257.86,537.742 2259.36,541.456 2260.82,545.177 2262.25,548.904 2263.65,552.637 2265.02,556.377 2266.36,560.123 2267.67,563.874 2268.94,567.632 2270.19,571.395 2271.4,575.163 2272.58,578.937 2273.72,582.716 2274.84,586.499 2275.92,590.288 2276.97,594.082 2277.99,597.88 2278.98,601.682 2279.93,605.489 2280.85,609.301 2281.74,613.116 2282.6,616.935 2283.42,620.757 2284.22,624.584 2284.98,628.414 2285.7,632.247 2286.4,636.083 2287.06,639.922 2287.69,643.765 2288.29,647.609 2288.85,651.457 2289.38,655.307 2289.88,659.159 2290.35,663.014 2290.78,666.87 2291.19,670.728 2291.55,674.588 2291.89,678.45 2292.19,682.313 2292.46,686.177 2292.7,690.042 2292.91,693.909 2293.08,697.776 2293.22,701.644 2293.32,705.512 2293.4,709.381 2293.44,713.25 2293.45,717.119 2293.42,720.988 2293.37,724.857 2293.28,728.726 2293.15,732.594 2293,736.462 2292.81,740.328 2292.59,744.194 2292.33,748.059 2292.05,751.923 2291.73,755.785 2291.37,759.646 2290.99,763.505 2290.57,767.362 2290.12,771.218 2289.64,775.071 2289.12,778.922 2288.57,782.771 2287.99,786.617 2287.38,790.461 2286.73,794.301 2286.06,798.139 2285.34,801.974 2284.6,805.805 2283.82,809.633 2283.02,813.458 2282.18,817.279 2281.3,821.096 2280.4,824.909 2279.46,828.718 2278.49,832.523 2277.49,836.323 2276.45,840.119 2275.38,843.91 2274.29,847.697 2273.15,851.478 2271.99,855.255 2270.8,859.026 2269.57,862.791 2268.31,866.551 2267.02,870.306 2265.7,874.054 2264.34,877.797 2262.96,881.534 2261.54,885.264 2260.09,888.988 2258.61,892.705 2257.1,896.416 2255.56,900.12 2253.98,903.817 2252.37,907.507 2250.74,911.19 2249.07,914.865 2247.37,918.533 2245.64,922.194 2243.88,925.846 2242.08,929.491 2240.26,933.127 2238.41,936.756 2236.52,940.376 2234.6,943.987 2232.66,947.59 2230.68,951.184 2228.67,954.77 2226.64,958.346 2224.57,961.913 2222.47,965.471 2220.34,969.02 2218.18,972.559 2216,976.088 2213.78,979.608 2211.53,983.117 2209.25,986.617 2206.95,990.106 2204.61,993.585 2202.24,997.054 2199.85,1000.51 2197.42,1003.96 2194.97,1007.4 2192.49,1010.82 2189.97,1014.23 2187.43,1017.64 2184.86,1021.03 2182.27,1024.41 2179.64,1027.78 2176.98,1031.13 2174.3,1034.48 2171.59,1037.81 2168.85,1041.13 2166.08,1044.44 2163.28,1047.74 2160.46,1051.02 2157.61,1054.29 2154.73,1057.55 2151.82,1060.8 2148.88,1064.03 2145.92,1067.25 2142.93,1070.45 2139.92,1073.65 2136.87,1076.82 2133.8,1079.99 2130.71,1083.14 2127.58,1086.28 2124.43,1089.4 2121.26,1092.51 2118.05,1095.61 2114.82,1098.69 2111.57,1101.76 2108.29,1104.81 2104.98,1107.85 2101.65,1110.87 2098.29,1113.88 2094.91,1116.87 2091.5,1119.85 2088.06,1122.81 2084.6,1125.76 2081.12,1128.69 2077.61,1131.61 2074.08,1134.51 2070.52,1137.39 2066.94,1140.26 2063.33,1143.12 2059.7,1145.95 2056.05,1148.77 2052.37,1151.58 2048.66,1154.37 2044.94,1157.14 2041.19,1159.89 2037.42,1162.63 2033.62,1165.35 2029.8,1168.06 2025.96,1170.74 2022.1,1173.41 2018.21,1176.07 2014.3,1178.7 2010.37,1181.32 2006.42,1183.92 2002.44,1186.5 1998.44,1189.07 1994.42,1191.61 1990.38,1194.14 1986.32,1196.66 1982.24,1199.15 1978.13,1201.62 1974.01,1204.08 1969.86,1206.52 1965.7,1208.94 1961.51,1211.34 1957.3,1213.72 1953.08,1216.08 1948.83,1218.43 1944.56,1220.76 1940.28,1223.06 1935.97,1225.35 1931.65,1227.62 1927.3,1229.87 1922.94,1232.1 1918.55,1234.31 1914.15,1236.5 1909.73,1238.67 1905.3,1240.82 1900.84,1242.95 1896.37,1245.06 1891.88,1247.16 1887.37,1249.23 1882.84,1251.28 1878.3,1253.31 1873.73,1255.32 1869.16,1257.31 1864.56,1259.28 1859.95,1261.23 1855.32,1263.16 1850.68,1265.07 1846.02,1266.96 1841.34,1268.83 1836.65,1270.67 1831.94,1272.5 1827.22,1274.3 1822.48,1276.09 1817.73,1277.85 1812.96,1279.59 1808.18,1281.31 1803.38,1283.01 1798.57,1284.69 1793.74,1286.34 1788.9,1287.98 1784.05,1289.59 1779.18,1291.18 1774.3,1292.75 1769.41,1294.3 1764.5,1295.82 1759.58,1297.33 1754.65,1298.81 1749.71,1300.27 1744.75,1301.71 1739.78,1303.12 1734.8,1304.52 1729.81,1305.89 1724.8,1307.24 1719.79,1308.57 1714.76,1309.87 1709.72,1311.15 1704.68,1312.41 1699.62,1313.65 1694.55,1314.87 1689.47,1316.06 1684.38,1317.23 1679.28,1318.37 1674.17,1319.5 1669.05,1320.6 1663.92,1321.68 1658.79,1322.73 1653.64,1323.77 1648.49,1324.78 1643.33,1325.76 1638.16,1326.73 1632.98,1327.67 1627.79,1328.59 1622.6,1329.48 1617.39,1330.35 1612.18,1331.2 1606.97,1332.03 1601.74,1332.83 1596.51,1333.61 1591.28,1334.36 1586.04,1335.1 1580.79,1335.81 1575.53,1336.49 1570.27,1337.15 1565.01,1337.79 1559.73,1338.41 1554.46,1339 1549.18,1339.57 1543.89,1340.11 1538.6,1340.63 1533.3,1341.13 1528.01,1341.61 1522.7,1342.06 1517.4,1342.48 1512.09,1342.89 1506.77,1343.27 1501.46,1343.62 1496.14,1343.95 1490.81,1344.26 1485.49,1344.55 1480.16,1344.81 1474.83,1345.05 1469.5,1345.26 1464.17,1345.45 1458.84,1345.62 1453.5,1345.76 1448.16,1345.88 1442.83,1345.97 1437.49,1346.04 1432.15,1346.09 1426.81,1346.11 1421.47,1346.11 1416.13,1346.09 1410.79,1346.04 1405.45,1345.97 1400.12,1345.88 1394.78,1345.76 1389.44,1345.62 1384.11,1345.45 1378.78,1345.26 1373.45,1345.05 1368.12,1344.81 1362.79,1344.55 1357.46,1344.26 1352.14,1343.95 1346.82,1343.62 1341.51,1343.27 1336.19,1342.89 1330.88,1342.48 1325.58,1342.06 1320.27,1341.61 1314.97,1341.13 1309.68,1340.63 1304.39,1340.11 1299.1,1339.57 1293.82,1339 1288.55,1338.41 1283.27,1337.79 1278.01,1337.15 1272.75,1336.49 1267.49,1335.81 1262.24,1335.1 1257,1334.36 1251.76,1333.61 1246.54,1332.83 1241.31,1332.03 1236.1,1331.2 1230.89,1330.35 1225.68,1329.48 1220.49,1328.59 1215.3,1327.67 1210.12,1326.73 1204.95,1325.76 1199.79,1324.78 1194.64,1323.77 1189.49,1322.73 1184.35,1321.68 1179.23,1320.6 1174.11,1319.5 1169,1318.37 1163.9,1317.23 1158.81,1316.06 1153.73,1314.87 1148.66,1313.65 1143.6,1312.41 1138.56,1311.15 1133.52,1309.87 1128.49,1308.57 1123.48,1307.24 1118.47,1305.89 1113.48,1304.52 1108.5,1303.12 1103.53,1301.71 1098.57,1300.27 1093.63,1298.81 1088.7,1297.33 1083.78,1295.82 1078.87,1294.3 1073.98,1292.75 1069.1,1291.18 1064.23,1289.59 1059.38,1287.98 1054.54,1286.34 1049.71,1284.69 1044.9,1283.01 1040.1,1281.31 1035.32,1279.59 1030.55,1277.85 1025.8,1276.09 1021.06,1274.3 1016.34,1272.5 1011.63,1270.67 1006.94,1268.83 1002.26,1266.96 997.602,1265.07 992.958,1263.16 988.33,1261.23 983.718,1259.28 979.123,1257.31 974.545,1255.32 969.984,1253.31 965.44,1251.28 960.913,1249.23 956.404,1247.16 951.912,1245.06 947.438,1242.95 942.982,1240.82 938.545,1238.67 934.125,1236.5 929.725,1234.31 925.342,1232.1 920.979,1229.87 916.635,1227.62 912.309,1225.35 908.003,1223.06 903.717,1220.76 899.45,1218.43 895.203,1216.08 890.976,1213.72 886.769,1211.34 882.582,1208.94 878.415,1206.52 874.27,1204.08 870.145,1201.62 866.041,1199.15 861.958,1196.65 857.896,1194.14 853.855,1191.61 849.836,1189.07 845.839,1186.5 841.863,1183.92 837.91,1181.32 833.979,1178.7 830.07,1176.07 826.183,1173.41 822.319,1170.74 818.477,1168.06 814.659,1165.35 810.863,1162.63 807.09,1159.89 803.341,1157.14 799.615,1154.37 795.913,1151.58 792.235,1148.77 788.58,1145.95 784.949,1143.12 781.343,1140.26 777.76,1137.39 774.202,1134.51 770.669,1131.61 767.16,1128.69 763.676,1125.76 760.217,1122.81 756.783,1119.85 753.374,1116.87 749.99,1113.88 746.632,1110.87 743.299,1107.85 739.992,1104.81 736.711,1101.76 733.456,1098.69 730.227,1095.61 727.024,1092.51 723.847,1089.4 720.697,1086.28 717.573,1083.14 714.476,1079.99 711.406,1076.82 708.363,1073.65 705.346,1070.45 702.357,1067.25 699.395,1064.03 696.46,1060.8 693.553,1057.55 690.673,1054.29 687.821,1051.02 684.997,1047.74 682.201,1044.44 679.432,1041.13 676.692,1037.81 673.98,1034.48 671.296,1031.13 668.641,1027.78 666.014,1024.41 663.415,1021.03 660.846,1017.64 658.305,1014.23 655.793,1010.82 653.31,1007.4 650.856,1003.96 648.432,1000.51 646.036,997.054 643.67,993.585 641.333,990.106 639.026,986.617 636.749,983.117 634.501,979.608 632.283,976.088 630.095,972.559 627.937,969.02 625.809,965.471 623.711,961.913 621.643,958.346 619.605,954.77 617.598,951.184 615.621,947.59 613.675,943.987 611.759,940.375 609.874,936.755 608.02,933.127 606.196,929.49 604.404,925.846 602.642,922.193 600.911,918.533 599.212,914.865 597.543,911.19 595.905,907.507 594.299,903.817 592.724,900.12 591.181,896.416 589.669,892.705 588.188,888.988 586.739,885.264 585.322,881.534 583.936,877.797 582.582,874.054 581.259,870.306 579.969,866.551 578.71,862.791 577.483,859.025 576.288,855.254 575.125,851.478 573.994,847.697 572.895,843.91 571.829,840.119 570.794,836.323 569.792,832.523 568.821,828.718 567.883,824.909 566.978,821.096 566.105,817.279 565.264,813.458 564.455,809.633 563.679,805.805 562.935,801.974 562.224,798.139 561.546,794.301 560.9,790.46 560.286,786.617 559.705,782.771 559.157,778.922 558.641,775.071 558.158,771.217 557.708,767.362 557.29,763.505 556.905,759.646 556.553,755.785 556.233,751.923 555.947,748.059 555.692,744.194 555.471,740.328 555.283,736.462 555.127,732.594 555.004,728.726 554.914,724.857 554.856,720.988 554.832,717.119 554.84,713.25 554.881,709.381 554.955,705.512 555.061,701.644 555.201,697.776 555.373,693.909 555.578,690.042 555.815,686.177 556.086,682.312 556.389,678.449 556.725,674.588 557.094,670.728 557.495,666.87 557.929,663.013 558.396,659.159 558.895,655.307 559.427,651.457 559.992,647.609 560.589,643.765 561.219,639.922 561.881,636.083 562.576,632.247 563.303,628.413 564.063,624.584 564.855,620.757 565.68,616.935 566.537,613.115 567.427,609.301 568.348,605.489 569.302,601.683 570.289,597.88 571.307,594.082 572.358,590.288 573.441,586.499 574.556,582.715 575.703,578.936 576.882,575.163 578.092,571.394 579.335,567.632 580.61,563.874 581.916,560.123 583.255,556.377 584.625,552.638 586.027,548.904 587.46,545.177 588.925,541.456 590.421,537.742 591.949,534.034 593.508,530.334 595.099,526.64 596.72,522.954 598.373,519.275 600.058,515.603 601.773,511.939 603.519,508.283 605.296,504.634 607.105,500.994 608.944,497.361 610.813,493.737 612.714,490.121 614.645,486.514 616.606,482.915 618.598,479.326 620.62,475.744 622.673,472.173 624.756,468.61 626.869,465.057 629.012,461.513 631.186,457.979 633.389,454.454 635.622,450.94 637.884,447.435 640.176,443.941 642.498,440.457 644.85,436.983 647.23,433.52 649.64,430.067 652.08,426.625 654.548,423.194 657.046,419.774 659.572,416.366 662.127,412.968 664.711,409.583 667.324,406.208 669.965,402.846 672.635,399.495 675.332,396.156 678.059,392.829 680.813,389.515 683.595,386.212 686.406,382.922 689.244,379.645 692.11,376.38 695.003,373.129 697.924,369.89 700.873,366.664 703.848,363.451 706.851,360.252 709.881,357.066 712.938,353.894 716.022,350.735 719.132,347.591 722.269,344.46 725.433,341.343 728.622,338.24 731.838,335.151 735.081,332.077 738.349,329.018 741.643,325.973 744.963,322.942 748.308,319.927 751.679,316.926 755.075,313.941 758.497,310.97 761.943,308.015 765.415,305.076 768.911,302.151 772.432,299.243 775.978,296.35 779.548,293.473 783.143,290.612 786.762,287.767 790.404,284.938 794.071,282.126 797.761,279.33 801.475,276.55 805.213,273.787 808.974,271.04 812.758,268.311 816.565,265.598 820.395,262.902 824.248,260.224 828.123,257.562 832.021,254.918 835.942,252.292 839.884,249.682 843.849,247.091 847.835,244.517 851.843,241.96 855.873,239.422 859.924,236.902 863.997,234.4 868.09,231.916 872.205,229.45 876.34,227.002 880.496,224.574 884.673,222.163 888.87,219.771 893.087,217.398 897.324,215.044 901.581,212.709 905.858,210.392 910.154,208.095 914.47,205.817 918.804,203.558 923.159,201.319 927.531,199.099 931.923,196.898 936.333,194.717 940.762,192.556 945.208,190.414 949.673,188.292 954.156,186.19 958.656,184.109 963.175,182.047 967.71,180.005 972.263,177.984 976.832,175.983 981.419,174.002 986.022,172.042 990.642,170.102 995.278,168.183 999.93,166.284 1004.6,164.407 1009.28,162.55 1013.98,160.714 1018.7,158.899 1023.43,157.105 1028.17,155.332 1032.93,153.58 1037.71,151.849 1042.5,150.14 1047.3,148.452 1052.12,146.785 1056.96,145.14 1061.8,143.517 1066.66,141.915 1071.54,140.335 1076.42,138.776 1081.32,137.239 1086.24,135.725 1091.16,134.232 1096.1,132.76 1101.05,131.311 1106.01,129.884 1110.99,128.48 1115.97,127.097 1120.97,125.736 1125.98,124.398 1131,123.082 1136.04,121.789 1141.08,120.518 1146.13,119.269 1151.2,118.043 1156.27,116.839 1161.36,115.658 1166.45,114.5 1171.55,113.364 1176.67,112.252 1181.79,111.162 1186.92,110.094 1192.06,109.05 1197.21,108.028 1202.37,107.03 1207.54,106.054 1212.71,105.102 1217.9,104.172 1223.09,103.266 1228.28,102.382 1233.49,101.522 1238.7,100.685 1243.92,99.8716 1249.15,99.0811 1254.38,98.3139 1259.62,97.57 1264.87,96.8494 1270.12,96.1522 1275.38,95.4783 1280.64,94.8279 1285.91,94.2009 1291.18,93.5975 1296.46,93.0174 1301.75,92.4608 1307.03,91.9279 1312.33,91.4184 1317.62,90.9326 1322.92,90.4702 1328.23,90.0316 1333.54,89.6165 1338.85,89.2251 1344.16,88.8572 1349.48,88.5131 1354.8,88.1927 1360.13,87.8959 1365.45,87.6229 1370.78,87.3735 1376.11,87.1479 1381.44,86.946 1386.78,86.7678 1392.11,86.6134 1397.45,86.4827 1402.79,86.3758 1408.12,86.2926 1413.46,86.2332 1418.8,86.1975 1424.14,86.1857 "/>
<polyline clip-path="url(#clip402)" style="stroke:#e26f46; stroke-linecap:round; stroke-linejoin:round; stroke-width:16; stroke-opacity:1; fill:none" points="1424.14,86.1857 1427.74,87.0752 1431.34,87.9647 1434.95,88.8542 1438.55,89.7437 1442.15,90.6856 1445.76,91.7657 1449.37,92.9005 1452.98,94.0351 1456.59,95.1534 1460.2,96.2718 1463.81,97.3917 1467.42,98.5116 1471.03,99.6316 1474.64,100.751 1478.25,101.876 1481.85,103.026 1485.46,104.22 1489.08,105.475 1492.7,106.804 1496.33,108.22 1499.98,109.733 1503.64,111.349 1507.31,113.073 1511,114.909 1514.71,116.858 1518.43,118.917 1522.17,121.082 1525.93,123.348 1529.7,125.707 1533.48,128.147 1537.28,130.655 1541.08,133.218 1544.89,135.816 1548.7,138.432 1552.51,141.042 1556.31,143.623 1560.11,146.184 1563.91,148.745 1567.72,151.306 1571.52,153.867 1575.32,156.428 1579.12,158.989 1582.92,161.55 1586.72,164.11 1590.53,166.671 1594.33,169.232 1598.13,171.793 1601.93,174.354 1605.73,176.915 1609.53,179.476 1613.33,182.037 1617.14,184.597 1620.94,187.158 1624.74,189.719 1628.54,192.28 1632.34,194.841 1636.14,197.402 1639.95,199.963 1643.75,202.524 1647.55,205.084 1651.35,207.645 1655.15,210.206 1658.95,212.767 1662.76,215.328 1666.56,217.889 1670.36,220.45 1674.16,223.011 1677.96,225.571 1681.76,228.132 1685.57,230.693 1689.37,233.254 1693.17,235.815 1696.97,238.376 1700.77,240.937 1704.57,243.497 1708.37,246.058 1712.18,248.619 1715.98,251.18 1719.78,253.741 1723.58,256.302 1727.38,258.863 1731.18,261.424 1734.99,263.984 1738.79,266.545 1742.59,269.106 1746.39,271.667 1750.19,274.228 1753.99,276.789 1757.8,279.35 1761.6,281.911 1765.4,284.471 1769.2,287.032 1773,289.593 1776.8,292.154 1780.6,294.715 1784.41,297.276 1788.21,299.837 1792.01,302.398 1795.81,304.958 1799.61,307.519 1803.41,310.08 1807.22,312.641 1811.02,315.202 1814.82,317.763 1818.62,320.324 1822.42,322.885 1826.22,325.445 1830.03,328.006 1833.83,330.567 1837.63,333.128 1841.43,335.689 1845.23,338.25 1849.03,340.811 1852.84,343.372 1856.64,345.932 1860.44,348.493 1864.24,351.054 1868.04,353.615 1871.84,356.176 1875.64,358.737 1879.45,361.298 1883.25,363.859 1887.05,366.419 1890.85,368.98 1894.65,371.541 1898.45,374.102 1902.26,376.663 1906.06,379.224 1909.86,381.785 1913.66,384.346 1917.46,386.906 1921.26,389.467 1925.07,392.028 1928.87,394.589 1932.67,397.15 1936.47,399.711 1940.27,402.272 1944.07,404.833 1947.88,407.393 1951.68,409.954 1955.48,412.515 1959.28,415.076 1963.08,417.637 1966.88,420.198 1970.68,422.759 1974.49,425.32 1978.29,427.88 1982.09,430.441 1985.89,433.002 1989.69,435.563 1993.49,438.124 1997.3,440.685 2001.1,443.246 2004.9,445.806 2008.7,448.367 2012.5,450.928 2016.3,453.489 2020.11,456.05 2023.91,458.611 2027.71,461.172 2031.51,463.733 2035.31,466.294 2039.11,468.854 2042.92,471.415 2046.72,473.976 2050.52,476.537 2054.32,479.098 2058.12,481.659 2061.92,484.22 2065.72,486.781 2069.53,489.341 2073.33,491.902 2077.13,494.463 2080.93,497.024 2084.73,499.585 2088.53,502.146 2092.34,504.706 2096.14,507.267 2099.94,509.828 2103.74,512.389 2107.54,514.95 2111.34,517.511 2115.14,520.072 2118.95,522.633 2122.75,525.194 2126.55,527.755 2130.35,530.315 2134.15,532.876 2137.96,535.437 2141.76,537.998 2145.56,540.559 2149.36,543.12 2153.16,545.68 2156.96,548.242 2160.76,550.802 2164.56,553.363 2168.37,555.924 2172.29,558.502 2176.37,561.1 2180.55,563.713 2184.8,566.335 2189.07,568.96 2193.34,571.584 2197.57,574.203 2201.73,576.812 2205.79,579.407 2209.73,581.986 2213.54,584.546 2217.19,587.083 2220.66,589.597 2223.95,592.084 2227.04,594.545 2229.94,596.978 2232.62,599.382 2235.1,601.757 2237.38,604.104 2239.45,606.423 2241.33,608.716 2243.03,610.983 2244.56,613.227 2245.94,615.45 2247.18,617.654 2248.31,619.842 2249.35,622.018 2250.33,624.185 2251.28,626.349 2252.23,628.512 2253.22,630.681 2254.28,632.86 2255.41,635.049 2256.51,637.234 2257.57,639.416 2258.57,641.592 2259.49,643.762 2260.34,645.926 2261.12,648.084 2261.81,650.236 2262.42,652.382 2262.96,654.522 2263.43,656.657 2263.86,658.789 2264.24,660.917 2264.6,663.044 2264.95,665.17 2265.33,667.298 2265.71,669.427 2266.09,671.555 2266.47,673.684 2266.85,675.812 2267.24,677.941 2267.62,680.069 2268,682.198 2268.38,684.326 2268.77,686.454 2269.15,688.583 2269.53,690.711 2269.91,692.84 2270.29,694.968 2270.68,697.097 2271.06,699.225 2271.44,701.354 2271.82,703.482 2272.21,705.61 2272.59,707.739 2272.97,709.867 2273.35,711.996 2273.74,714.124 2274.15,716.251 2274.59,718.378 2275.04,720.504 2275.5,722.629 2275.97,724.755 2276.45,726.879 2276.94,729.004 2277.42,731.129 2277.9,733.253 2278.37,735.378 2278.84,737.504 2279.29,739.63 2279.73,741.756 2280.16,743.883 2280.56,746.011 2280.95,748.14 2281.31,750.27 2281.64,752.401 2281.95,754.534 2282.23,756.668 2282.49,758.803 2282.71,760.94 2282.89,763.078 2283.05,765.219 2283.16,767.361 2283.25,769.506 2283.29,771.652 2283.3,773.801 2283.27,775.952 2283.2,778.105 2283.09,780.261 2282.94,782.42 2282.76,784.581 2282.53,786.746 2282.27,788.913 2281.96,791.083 2281.62,793.256 2281.24,795.432 2280.82,797.612 2280.37,799.795 2279.88,801.981 2279.35,804.171 2278.8,806.364 2278.2,808.561 2277.58,810.762 2276.93,812.967 2276.25,815.175 2275.55,817.388 2274.78,819.61 2273.76,821.862 2272.48,824.147 2270.96,826.463 2269.22,828.809 2267.26,831.182 2265.11,833.582 2262.78,836.006 2260.28,838.455 2257.63,840.925 2254.83,843.416 2251.9,845.927 2248.85,848.456 2245.7,851.002 2242.44,853.563 2239.1,856.139 2235.68,858.727 2232.2,861.328 2228.65,863.94 2225.05,866.561 2221.41,869.19 2217.73,871.827 2214.01,874.471 2210.28,877.119 2206.52,879.772 2202.75,882.428 2198.97,885.086 2195.19,887.746 2191.4,890.406 2187.62,893.066 2183.84,895.724 2180.06,898.38 2176.29,901.036 2172.51,903.692 2168.74,906.348 2164.96,909.004 2161.19,911.66 2157.41,914.316 2153.64,916.972 2149.86,919.628 2146.09,922.284 2142.31,924.94 2138.54,927.596 2134.76,930.251 2130.99,932.908 2127.21,935.564 2123.44,938.22 2119.66,940.876 2115.89,943.532 2112.11,946.188 2108.33,948.844 2104.56,951.5 2100.78,954.156 2097.01,956.812 2093.23,959.469 2089.46,962.125 2085.68,964.781 2081.91,967.437 2078.13,970.093 2074.35,972.749 2070.58,975.406 2066.8,978.062 2063.03,980.718 2059.25,983.374 2055.48,986.031 2051.7,988.687 2047.92,991.343 2044.15,993.999 2040.37,996.656 2036.6,999.312 2032.82,1001.97 2029.05,1004.62 2025.27,1007.28 2021.49,1009.94 2017.72,1012.59 2013.94,1015.25 2010.17,1017.91 2006.39,1020.56 2002.61,1023.22 1998.84,1025.87 1995.06,1028.53 1991.29,1031.19 1987.51,1033.84 1983.74,1036.5 1979.96,1039.16 1976.18,1041.81 1972.41,1044.47 1968.63,1047.12 1964.86,1049.78 1961.08,1052.44 1957.31,1055.09 1953.53,1057.75 1949.75,1060.41 1945.98,1063.06 1942.2,1065.72 1938.43,1068.37 1934.65,1071.03 1930.88,1073.69 1927.1,1076.34 1923.32,1079 1919.55,1081.65 1915.77,1084.31 1912,1086.97 1908.22,1089.62 1904.45,1092.28 1900.67,1094.94 1896.89,1097.59 1893.12,1100.25 1889.34,1102.9 1885.57,1105.56 1881.79,1108.22 1878.02,1110.87 1874.24,1113.53 1870.46,1116.19 1866.69,1118.84 1862.91,1121.5 1859.14,1124.15 1855.36,1126.81 1851.59,1129.47 1847.81,1132.12 1844.03,1134.78 1840.26,1137.44 1836.48,1140.09 1832.71,1142.75 1828.93,1145.4 1825.16,1148.06 1821.38,1150.72 1817.6,1153.37 1813.83,1156.03 1810.05,1158.69 1806.28,1161.34 1802.5,1164 1798.73,1166.65 1794.95,1169.31 1791.17,1171.97 1787.4,1174.62 1783.62,1177.28 1779.85,1179.93 1776.07,1182.59 1772.29,1185.25 1768.52,1187.9 1764.74,1190.56 1760.97,1193.22 1757.19,1195.87 1753.42,1198.53 1749.64,1201.18 1745.87,1203.84 1742.09,1206.5 1738.31,1209.15 1734.54,1211.81 1730.76,1214.47 1726.99,1217.12 1723.21,1219.78 1719.44,1222.41 1715.69,1224.97 1711.95,1227.47 1708.22,1229.93 1704.5,1232.35 1700.79,1234.74 1697.08,1237.12 1693.38,1239.49 1689.68,1241.86 1685.97,1244.25 1682.27,1246.65 1678.56,1249.07 1674.84,1251.53 1671.12,1254.02 1667.39,1256.55 1663.65,1259.12 1659.9,1261.75 1656.14,1264.42 1652.37,1267.15 1648.59,1269.94 1644.8,1272.79 1640.99,1275.69 1637.17,1278.66 1633.34,1281.68 1629.49,1284.76 1625.64,1287.9 1621.77,1291.1 1617.89,1294.34 1613.99,1297.64 1610.09,1300.98 1606.18,1304.36 1602.26,1307.78 1598.32,1311.22 1594.39,1314.69 1590.44,1318.18 1586.5,1321.68 1582.54,1325.18 1578.59,1328.67 1574.64,1332.15 1570.69,1335.6 1566.75,1339.01 1562.81,1342.38 1558.87,1345.69 1554.95,1348.93 1551.05,1352.09 1547.15,1355.15 1543.28,1358.1 1539.43,1360.92 1535.6,1363.61 1531.8,1366.14 1528.03,1368.5 1524.29,1370.67 1520.58,1372.64 1516.92,1374.38 1513.3,1375.88 1509.73,1377.12 1506.21,1378.08 1502.72,1378.92 1499.23,1379.71 1495.75,1380.43 1492.28,1381.1 1488.81,1381.7 1485.35,1382.24 1481.9,1382.71 1478.45,1383.12 1475.01,1383.46 1471.57,1383.74 1468.14,1383.95 1464.71,1384.11 1461.28,1384.2 1457.86,1384.24 1454.44,1384.22 1451.02,1384.16 1447.61,1384.06 1444.19,1383.91 1440.78,1383.74 1437.36,1383.54 1433.95,1383.33 1430.54,1383.1 1427.13,1382.87 1423.71,1382.65 1420.3,1382.45 1416.9,1382.3 1413.51,1382.18 1410.12,1382.08 1406.73,1381.99 1403.34,1381.89 1399.96,1381.76 1396.57,1381.59 1393.17,1381.38 1389.77,1381.1 1386.36,1380.75 1382.95,1380.33 1379.52,1379.83 1376.08,1379.23 1372.63,1378.54 1369.17,1377.75 1365.69,1376.87 1362.21,1375.88 1358.71,1374.8 1355.19,1373.62 1351.67,1372.34 1348.13,1370.97 1344.58,1369.51 1341.02,1367.98 1337.45,1366.37 1333.88,1364.7 1330.29,1362.97 1326.7,1361.21 1323.11,1359.41 1319.51,1357.59 1315.91,1355.78 1312.32,1353.97 1308.73,1352.2 1305.14,1350.46 1301.55,1348.7 1297.96,1346.92 1294.36,1345.12 1290.76,1343.3 1287.15,1341.46 1283.55,1339.61 1279.94,1337.75 1276.33,1335.89 1272.71,1334.01 1269.1,1332.13 1265.49,1330.25 1261.87,1328.36 1258.26,1326.47 1254.64,1324.58 1251.03,1322.69 1247.42,1320.81 1243.8,1318.92 1240.19,1317.04 1236.58,1315.16 1232.96,1313.28 1229.35,1311.41 1225.74,1309.54 1222.13,1307.67 1218.52,1305.8 1214.91,1303.93 1211.3,1302.06 1207.69,1300.19 1204.07,1298.32 1200.46,1296.44 1196.85,1294.57 1193.24,1292.7 1189.63,1290.82 1186.02,1288.95 1182.4,1287.08 1178.79,1285.2 1175.18,1283.33 1171.57,1281.46 1167.96,1279.58 1164.35,1277.71 1160.73,1275.84 1157.12,1273.96 1153.51,1272.09 1149.9,1270.22 1146.29,1268.34 1142.68,1266.47 1139.06,1264.6 1135.45,1262.72 1131.84,1260.85 1128.23,1258.98 1124.62,1257.1 1121.01,1255.23 1117.39,1253.36 1113.78,1251.48 1110.17,1249.61 1106.56,1247.74 1102.95,1245.86 1099.34,1243.99 1095.72,1242.12 1092.11,1240.24 1088.5,1238.37 1084.89,1236.5 1081.28,1234.62 1077.67,1232.75 1074.05,1230.88 1070.44,1229 1066.83,1227.13 1063.22,1225.26 1059.61,1223.38 1056,1221.51 1052.38,1219.64 1048.77,1217.76 1045.16,1215.89 1041.55,1214.02 1037.94,1212.14 1034.33,1210.27 1030.71,1208.4 1027.1,1206.52 1023.49,1204.65 1019.88,1202.78 1016.27,1200.9 1012.66,1199.03 1009.04,1197.16 1005.43,1195.28 1001.82,1193.41 998.209,1191.54 994.598,1189.66 990.986,1187.79 987.374,1185.91 983.762,1184.04 980.151,1182.17 976.539,1180.29 972.927,1178.42 969.316,1176.55 965.704,1174.67 962.093,1172.8 958.481,1170.93 954.869,1169.05 951.258,1167.18 947.646,1165.31 944.034,1163.43 940.423,1161.56 936.811,1159.69 933.199,1157.81 929.588,1155.94 925.976,1154.07 922.364,1152.19 918.753,1150.32 915.141,1148.45 911.529,1146.57 907.918,1144.7 904.306,1142.83 900.694,1140.95 897.083,1139.08 893.471,1137.21 889.859,1135.33 886.248,1133.46 882.636,1131.59 879.024,1129.71 875.413,1127.84 871.801,1125.97 868.189,1124.09 864.578,1122.22 860.966,1120.35 857.354,1118.47 853.743,1116.6 850.131,1114.73 846.519,1112.85 842.908,1110.98 839.296,1109.11 835.684,1107.23 832.073,1105.36 828.461,1103.49 824.849,1101.61 821.238,1099.74 817.626,1097.87 814.015,1095.99 810.403,1094.12 806.791,1092.25 803.179,1090.37 799.568,1088.5 795.956,1086.63 792.344,1084.75 788.733,1082.88 785.121,1081.01 781.509,1079.13 777.898,1077.26 774.286,1075.39 770.674,1073.51 767.063,1071.64 763.451,1069.77 759.839,1067.89 756.228,1066.02 752.616,1064.15 749.004,1062.27 745.393,1060.4 741.781,1058.53 738.17,1056.65 734.558,1054.78 730.946,1052.91 727.334,1051.03 723.722,1049.16 720.111,1047.29 716.499,1045.41 712.888,1043.54 709.276,1041.67 705.664,1039.79 702.053,1037.92 698.441,1036.04 694.83,1034.17 691.218,1032.3 687.606,1030.42 683.994,1028.55 680.383,1026.68 676.771,1024.8 673.159,1022.93 669.548,1021.06 665.936,1019.18 662.325,1017.31 658.713,1015.44 655.101,1013.56 651.489,1011.69 647.878,1009.82 644.266,1007.94 640.655,1006.07 637.042,1004.2 633.431,1002.32 629.819,1000.45 626.208,998.578 622.596,996.704 618.984,994.831 615.373,992.957 611.761,991.084 608.149,989.21 604.538,987.337 600.926,985.464 597.315,983.591 593.703,981.717 590.092,979.844 586.48,977.97 582.868,976.097 579.256,974.224 575.644,972.35 572.034,970.478 568.421,968.603 564.811,966.731 561.198,964.857 557.585,962.983 553.974,961.11 550.364,959.237 546.752,957.364 543.14,955.49 539.529,953.617 535.916,951.743 532.305,949.87 528.693,947.996 525.081,946.123 521.47,944.25 517.858,942.376 514.246,940.503 510.634,938.629 507.023,936.756 503.41,934.882 499.765,933.004 496.025,931.113 492.202,929.211 488.307,927.299 484.354,925.379 480.352,923.452 476.314,921.52 472.249,919.585 468.169,917.648 464.082,915.71 459.998,913.772 455.926,911.836 451.875,909.903 447.853,907.975 443.868,906.051 439.927,904.134 436.036,902.223 432.204,900.321 428.435,898.428 424.736,896.544 421.112,894.671 417.567,892.809 414.107,890.958 410.736,889.12 407.457,887.295 404.274,885.483 401.189,883.685 398.206,881.901 395.326,880.131 392.551,878.376 389.883,876.635 387.321,874.91 384.868,873.199 382.523,871.504 380.285,869.823 378.155,868.157 376.13,866.506 374.21,864.869 372.392,863.247 370.675,861.638 369.055,860.043 367.529,858.461 366.095,856.891 364.747,855.334 363.482,853.788 362.296,852.253 361.182,850.728 360.135,849.212 359.15,847.705 358.22,846.206 357.338,844.713 356.498,843.226 355.691,841.744 354.91,840.265 354.146,838.788 353.391,837.313 352.635,835.837 351.869,834.361 351.083,832.881 350.267,831.397 349.41,829.908 348.5,828.411 347.528,826.907 346.501,825.398 345.437,823.887 344.351,822.374 343.257,820.86 342.169,819.346 341.099,817.834 340.056,816.325 339.051,814.818 338.092,813.315 337.185,811.816 336.337,810.322 335.552,808.833 334.832,807.35 334.18,805.872 333.597,804.399 333.082,802.932 332.633,801.47 332.247,800.013 331.919,798.562 331.645,797.114 331.417,795.67 331.227,794.229 331.066,792.791 330.923,791.354 330.787,789.918 330.645,788.481 330.481,787.042 330.292,785.601 330.099,784.16 329.907,782.719 329.715,781.278 329.523,779.837 329.33,778.396 329.138,776.955 328.946,775.514 328.754,774.074 328.561,772.633 328.369,771.192 328.177,769.751 327.985,768.31 327.792,766.869 327.6,765.428 327.408,763.987 327.216,762.546 327.023,761.105 326.831,759.664 326.639,758.223 326.447,756.782 326.254,755.341 326.062,753.9 325.87,752.459 325.678,751.018 325.485,749.577 325.293,748.136 325.101,746.695 324.909,745.254 324.716,743.813 324.524,742.372 324.332,740.931 324.14,739.49 323.947,738.05 323.755,736.608 323.557,735.168 323.353,733.727 323.143,732.286 322.929,730.846 322.71,729.405 322.488,727.965 322.264,726.524 322.036,725.084 321.808,723.644 321.578,722.203 321.347,720.763 321.117,719.323 320.887,717.882 320.659,716.442 320.432,715.002 320.207,713.561 319.985,712.121 319.766,710.68 319.551,709.24 319.34,707.799 319.134,706.358 318.932,704.917 318.736,703.476 318.546,702.035 318.362,700.594 318.185,699.152 318.015,697.71 317.852,696.268 317.697,694.826 317.55,693.384 317.412,691.941 317.282,690.498 317.162,689.055 317.05,687.611 316.949,686.167 316.857,684.723 316.776,683.278 316.705,681.833 316.645,680.388 316.596,678.942 316.558,677.496 316.531,676.05 316.516,674.602 316.512,673.155 316.52,671.707 316.541,670.258 316.573,668.809 316.618,667.359 316.675,665.909 316.745,664.458 316.827,663.007 316.922,661.555 317.03,660.102 317.15,658.648 317.284,657.194 317.43,655.739 317.589,654.283 317.761,652.827 317.946,651.37 318.144,649.911 318.355,648.453 318.578,646.993 318.815,645.532 319.064,644.07 319.325,642.608 319.6,641.145 319.886,639.68 320.185,638.215 320.496,636.748 320.82,635.28 321.155,633.812 321.489,632.343 321.798,630.877 322.091,629.412 322.378,627.948 322.668,626.483 322.968,625.018 323.286,623.551 323.628,622.082 323.997,620.61 324.397,619.135 324.831,617.658 325.299,616.177 325.803,614.693 326.341,613.206 326.912,611.716 327.512,610.223 328.137,608.728 328.783,607.231 329.442,605.733 330.108,604.234 330.773,602.735 331.426,601.238 "/>
<path clip-path="url(#clip400)" d="M327.056 1377.32 L750.198 1377.32 L750.198 1221.8 L327.056 1221.8  Z" fill="#ffffff" fill-rule="evenodd" fill-opacity="1"/>
<polyline clip-path="url(#clip400)" style="stroke:#000000; stroke-linecap:round; stroke-linejoin:round; stroke-width:4; stroke-opacity:1; fill:none" points="327.056,1377.32 750.198,1377.32 750.198,1221.8 327.056,1221.8 327.056,1377.32 "/>
<polyline clip-path="url(#clip400)" style="stroke:#009af9; stroke-linecap:round; stroke-linejoin:round; stroke-width:16; stroke-opacity:1; fill:none" points="350.34,1273.64 490.043,1273.64 "/>
<path clip-path="url(#clip400)" d="M529.345 1259.53 Q524.253 1259.53 521.244 1263.32 Q518.258 1267.12 518.258 1273.67 Q518.258 1280.2 521.244 1283.99 Q524.253 1287.79 529.345 1287.79 Q534.438 1287.79 537.401 1283.99 Q540.387 1280.2 540.387 1273.67 Q540.387 1267.12 537.401 1263.32 Q534.438 1259.53 529.345 1259.53 M529.345 1255.73 Q536.614 1255.73 540.966 1260.61 Q545.318 1265.48 545.318 1273.67 Q545.318 1281.84 540.966 1286.73 Q536.614 1291.59 529.345 1291.59 Q522.054 1291.59 517.679 1286.73 Q513.327 1281.86 513.327 1273.67 Q513.327 1265.48 517.679 1260.61 Q522.054 1255.73 529.345 1255.73 Z" fill="#000000" fill-rule="nonzero" fill-opacity="1" /><path clip-path="url(#clip400)" d="M567.47 1268.97 Q566.753 1268.55 565.896 1268.37 Q565.063 1268.16 564.044 1268.16 Q560.433 1268.16 558.489 1270.52 Q556.568 1272.86 556.568 1277.26 L556.568 1290.92 L552.285 1290.92 L552.285 1264.99 L556.568 1264.99 L556.568 1269.02 Q557.91 1266.66 560.063 1265.52 Q562.216 1264.36 565.294 1264.36 Q565.734 1264.36 566.267 1264.43 Q566.799 1264.48 567.447 1264.6 L567.47 1268.97 Z" fill="#000000" fill-rule="nonzero" fill-opacity="1" /><path clip-path="url(#clip400)" d="M571.938 1264.99 L576.197 1264.99 L576.197 1290.92 L571.938 1290.92 L571.938 1264.99 M571.938 1254.9 L576.197 1254.9 L576.197 1260.29 L571.938 1260.29 L571.938 1254.9 Z" fill="#000000" fill-rule="nonzero" fill-opacity="1" /><path clip-path="url(#clip400)" d="M602.169 1277.65 Q602.169 1273.02 600.248 1270.48 Q598.35 1267.93 594.901 1267.93 Q591.475 1267.93 589.553 1270.48 Q587.655 1273.02 587.655 1277.65 Q587.655 1282.26 589.553 1284.8 Q591.475 1287.35 594.901 1287.35 Q598.35 1287.35 600.248 1284.8 Q602.169 1282.26 602.169 1277.65 M606.428 1287.7 Q606.428 1294.32 603.489 1297.54 Q600.549 1300.78 594.484 1300.78 Q592.239 1300.78 590.248 1300.43 Q588.257 1300.11 586.382 1299.41 L586.382 1295.27 Q588.257 1296.29 590.086 1296.77 Q591.915 1297.26 593.813 1297.26 Q598.003 1297.26 600.086 1295.06 Q602.169 1292.88 602.169 1288.46 L602.169 1286.36 Q600.85 1288.65 598.79 1289.78 Q596.729 1290.92 593.859 1290.92 Q589.091 1290.92 586.174 1287.28 Q583.257 1283.65 583.257 1277.65 Q583.257 1271.63 586.174 1268 Q589.091 1264.36 593.859 1264.36 Q596.729 1264.36 598.79 1265.5 Q600.85 1266.63 602.169 1268.92 L602.169 1264.99 L606.428 1264.99 L606.428 1287.7 Z" fill="#000000" fill-rule="nonzero" fill-opacity="1" /><path clip-path="url(#clip400)" d="M615.201 1264.99 L619.461 1264.99 L619.461 1290.92 L615.201 1290.92 L615.201 1264.99 M615.201 1254.9 L619.461 1254.9 L619.461 1260.29 L615.201 1260.29 L615.201 1254.9 Z" fill="#000000" fill-rule="nonzero" fill-opacity="1" /><path clip-path="url(#clip400)" d="M649.924 1275.27 L649.924 1290.92 L645.664 1290.92 L645.664 1275.41 Q645.664 1271.73 644.229 1269.9 Q642.794 1268.07 639.924 1268.07 Q636.475 1268.07 634.484 1270.27 Q632.493 1272.47 632.493 1276.26 L632.493 1290.92 L628.211 1290.92 L628.211 1264.99 L632.493 1264.99 L632.493 1269.02 Q634.021 1266.68 636.081 1265.52 Q638.164 1264.36 640.873 1264.36 Q645.34 1264.36 647.632 1267.14 Q649.924 1269.9 649.924 1275.27 Z" fill="#000000" fill-rule="nonzero" fill-opacity="1" /><path clip-path="url(#clip400)" d="M670.201 1277.88 Q665.039 1277.88 663.048 1279.06 Q661.058 1280.24 661.058 1283.09 Q661.058 1285.36 662.539 1286.7 Q664.044 1288.02 666.613 1288.02 Q670.155 1288.02 672.285 1285.52 Q674.437 1283 674.437 1278.83 L674.437 1277.88 L670.201 1277.88 M678.697 1276.12 L678.697 1290.92 L674.437 1290.92 L674.437 1286.98 Q672.979 1289.34 670.803 1290.48 Q668.627 1291.59 665.479 1291.59 Q661.498 1291.59 659.136 1289.36 Q656.798 1287.12 656.798 1283.37 Q656.798 1278.99 659.715 1276.77 Q662.655 1274.55 668.465 1274.55 L674.437 1274.55 L674.437 1274.13 Q674.437 1271.19 672.493 1269.6 Q670.572 1267.98 667.076 1267.98 Q664.854 1267.98 662.748 1268.51 Q660.641 1269.04 658.697 1270.11 L658.697 1266.17 Q661.035 1265.27 663.234 1264.83 Q665.433 1264.36 667.516 1264.36 Q673.141 1264.36 675.919 1267.28 Q678.697 1270.2 678.697 1276.12 Z" fill="#000000" fill-rule="nonzero" fill-opacity="1" /><path clip-path="url(#clip400)" d="M687.47 1254.9 L691.729 1254.9 L691.729 1290.92 L687.47 1290.92 L687.47 1254.9 Z" fill="#000000" fill-rule="nonzero" fill-opacity="1" /><polyline clip-path="url(#clip400)" style="stroke:#e26f46; stroke-linecap:round; stroke-linejoin:round; stroke-width:16; stroke-opacity:1; fill:none" points="350.34,1325.48 490.043,1325.48 "/>
<path clip-path="url(#clip400)" d="M518.003 1312.04 L518.003 1325.02 L523.883 1325.02 Q527.146 1325.02 528.929 1323.33 Q530.711 1321.64 530.711 1318.52 Q530.711 1315.42 528.929 1313.73 Q527.146 1312.04 523.883 1312.04 L518.003 1312.04 M513.327 1308.2 L523.883 1308.2 Q529.693 1308.2 532.656 1310.83 Q535.642 1313.45 535.642 1318.52 Q535.642 1323.64 532.656 1326.25 Q529.693 1328.87 523.883 1328.87 L518.003 1328.87 L518.003 1342.76 L513.327 1342.76 L513.327 1308.2 Z" fill="#000000" fill-rule="nonzero" fill-opacity="1" /><path clip-path="url(#clip400)" d="M555.919 1320.81 Q555.202 1320.39 554.345 1320.21 Q553.512 1320 552.493 1320 Q548.882 1320 546.938 1322.36 Q545.017 1324.7 545.017 1329.1 L545.017 1342.76 L540.734 1342.76 L540.734 1316.83 L545.017 1316.83 L545.017 1320.86 Q546.359 1318.5 548.512 1317.36 Q550.665 1316.2 553.743 1316.2 Q554.183 1316.2 554.716 1316.27 Q555.248 1316.32 555.896 1316.44 L555.919 1320.81 Z" fill="#000000" fill-rule="nonzero" fill-opacity="1" /><path clip-path="url(#clip400)" d="M581.521 1328.73 L581.521 1330.81 L561.938 1330.81 Q562.216 1335.21 564.577 1337.52 Q566.961 1339.82 571.197 1339.82 Q573.651 1339.82 575.942 1339.21 Q578.257 1338.61 580.526 1337.41 L580.526 1341.44 Q578.234 1342.41 575.827 1342.92 Q573.419 1343.43 570.942 1343.43 Q564.739 1343.43 561.105 1339.82 Q557.493 1336.2 557.493 1330.05 Q557.493 1323.68 560.919 1319.95 Q564.368 1316.2 570.202 1316.2 Q575.433 1316.2 578.466 1319.58 Q581.521 1322.94 581.521 1328.73 M577.262 1327.48 Q577.216 1323.98 575.294 1321.9 Q573.396 1319.82 570.248 1319.82 Q566.683 1319.82 564.53 1321.83 Q562.401 1323.84 562.077 1327.5 L577.262 1327.48 Z" fill="#000000" fill-rule="nonzero" fill-opacity="1" /><path clip-path="url(#clip400)" d="M605.572 1320.76 L605.572 1306.74 L609.831 1306.74 L609.831 1342.76 L605.572 1342.76 L605.572 1338.87 Q604.229 1341.18 602.169 1342.32 Q600.132 1343.43 597.262 1343.43 Q592.563 1343.43 589.6 1339.68 Q586.66 1335.93 586.66 1329.82 Q586.66 1323.7 589.6 1319.95 Q592.563 1316.2 597.262 1316.2 Q600.132 1316.2 602.169 1317.34 Q604.229 1318.45 605.572 1320.76 M591.058 1329.82 Q591.058 1334.51 592.979 1337.2 Q594.924 1339.86 598.303 1339.86 Q601.683 1339.86 603.627 1337.2 Q605.572 1334.51 605.572 1329.82 Q605.572 1325.12 603.627 1322.45 Q601.683 1319.77 598.303 1319.77 Q594.924 1319.77 592.979 1322.45 Q591.058 1325.12 591.058 1329.82 Z" fill="#000000" fill-rule="nonzero" fill-opacity="1" /><path clip-path="url(#clip400)" d="M618.604 1316.83 L622.863 1316.83 L622.863 1342.76 L618.604 1342.76 L618.604 1316.83 M618.604 1306.74 L622.863 1306.74 L622.863 1312.13 L618.604 1312.13 L618.604 1306.74 Z" fill="#000000" fill-rule="nonzero" fill-opacity="1" /><path clip-path="url(#clip400)" d="M650.433 1317.82 L650.433 1321.81 Q648.627 1320.81 646.799 1320.32 Q644.993 1319.82 643.141 1319.82 Q638.998 1319.82 636.706 1322.45 Q634.414 1325.07 634.414 1329.82 Q634.414 1334.56 636.706 1337.2 Q638.998 1339.82 643.141 1339.82 Q644.993 1339.82 646.799 1339.33 Q648.627 1338.82 650.433 1337.82 L650.433 1341.76 Q648.65 1342.59 646.729 1343.01 Q644.831 1343.43 642.678 1343.43 Q636.822 1343.43 633.373 1339.75 Q629.924 1336.07 629.924 1329.82 Q629.924 1323.47 633.396 1319.84 Q636.891 1316.2 642.956 1316.2 Q644.924 1316.2 646.799 1316.62 Q648.674 1317.01 650.433 1317.82 Z" fill="#000000" fill-rule="nonzero" fill-opacity="1" /><path clip-path="url(#clip400)" d="M662.053 1309.47 L662.053 1316.83 L670.826 1316.83 L670.826 1320.14 L662.053 1320.14 L662.053 1334.21 Q662.053 1337.38 662.91 1338.29 Q663.789 1339.19 666.451 1339.19 L670.826 1339.19 L670.826 1342.76 L666.451 1342.76 Q661.521 1342.76 659.646 1340.93 Q657.771 1339.07 657.771 1334.21 L657.771 1320.14 L654.646 1320.14 L654.646 1316.83 L657.771 1316.83 L657.771 1309.47 L662.053 1309.47 Z" fill="#000000" fill-rule="nonzero" fill-opacity="1" /><path clip-path="url(#clip400)" d="M698.604 1328.73 L698.604 1330.81 L679.021 1330.81 Q679.298 1335.21 681.659 1337.52 Q684.044 1339.82 688.28 1339.82 Q690.733 1339.82 693.025 1339.21 Q695.34 1338.61 697.608 1337.41 L697.608 1341.44 Q695.317 1342.41 692.909 1342.92 Q690.502 1343.43 688.025 1343.43 Q681.822 1343.43 678.187 1339.82 Q674.576 1336.2 674.576 1330.05 Q674.576 1323.68 678.002 1319.95 Q681.451 1316.2 687.284 1316.2 Q692.516 1316.2 695.548 1319.58 Q698.604 1322.94 698.604 1328.73 M694.345 1327.48 Q694.298 1323.98 692.377 1321.9 Q690.479 1319.82 687.331 1319.82 Q683.766 1319.82 681.613 1321.83 Q679.484 1323.84 679.159 1327.5 L694.345 1327.48 Z" fill="#000000" fill-rule="nonzero" fill-opacity="1" /><path clip-path="url(#clip400)" d="M722.655 1320.76 L722.655 1306.74 L726.914 1306.74 L726.914 1342.76 L722.655 1342.76 L722.655 1338.87 Q721.312 1341.18 719.252 1342.32 Q717.215 1343.43 714.344 1343.43 Q709.645 1343.43 706.682 1339.68 Q703.743 1335.93 703.743 1329.82 Q703.743 1323.7 706.682 1319.95 Q709.645 1316.2 714.344 1316.2 Q717.215 1316.2 719.252 1317.34 Q721.312 1318.45 722.655 1320.76 M708.141 1329.82 Q708.141 1334.51 710.062 1337.2 Q712.007 1339.86 715.386 1339.86 Q718.766 1339.86 720.71 1337.2 Q722.655 1334.51 722.655 1329.82 Q722.655 1325.12 720.71 1322.45 Q718.766 1319.77 715.386 1319.77 Q712.007 1319.77 710.062 1322.45 Q708.141 1325.12 708.141 1329.82 Z" fill="#000000" fill-rule="nonzero" fill-opacity="1" /></svg>
