<?xml version="1.0" encoding="utf-8"?>
<svg xmlns="http://www.w3.org/2000/svg" xmlns:xlink="http://www.w3.org/1999/xlink" width="600" height="400" viewBox="0 0 2400 1600">
<defs>
  <clipPath id="clip460">
    <rect x="0" y="0" width="2400" height="1600"/>
  </clipPath>
</defs>
<path clip-path="url(#clip460)" d="M0 1600 L2400 1600 L2400 0 L0 0  Z" fill="#ffffff" fill-rule="evenodd" fill-opacity="1"/>
<defs>
  <clipPath id="clip461">
    <rect x="480" y="0" width="1681" height="1600"/>
  </clipPath>
</defs>
<path clip-path="url(#clip460)" d="M257.204 1423.18 L2352.76 1423.18 L2352.76 47.2441 L257.204 47.2441  Z" fill="#ffffff" fill-rule="evenodd" fill-opacity="1"/>
<defs>
  <clipPath id="clip462">
    <rect x="257" y="47" width="2097" height="1377"/>
  </clipPath>
</defs>
<polyline clip-path="url(#clip462)" style="stroke:#000000; stroke-linecap:round; stroke-linejoin:round; stroke-width:2; stroke-opacity:0.1; fill:none" points="529.521,1423.18 529.521,47.2441 "/>
<polyline clip-path="url(#clip462)" style="stroke:#000000; stroke-linecap:round; stroke-linejoin:round; stroke-width:2; stroke-opacity:0.1; fill:none" points="970.503,1423.18 970.503,47.2441 "/>
<polyline clip-path="url(#clip462)" style="stroke:#000000; stroke-linecap:round; stroke-linejoin:round; stroke-width:2; stroke-opacity:0.1; fill:none" points="1411.49,1423.18 1411.49,47.2441 "/>
<polyline clip-path="url(#clip462)" style="stroke:#000000; stroke-linecap:round; stroke-linejoin:round; stroke-width:2; stroke-opacity:0.1; fill:none" points="1852.47,1423.18 1852.47,47.2441 "/>
<polyline clip-path="url(#clip462)" style="stroke:#000000; stroke-linecap:round; stroke-linejoin:round; stroke-width:2; stroke-opacity:0.1; fill:none" points="2293.45,1423.18 2293.45,47.2441 "/>
<polyline clip-path="url(#clip462)" style="stroke:#000000; stroke-linecap:round; stroke-linejoin:round; stroke-width:2; stroke-opacity:0.1; fill:none" points="257.204,1362.62 2352.76,1362.62 "/>
<polyline clip-path="url(#clip462)" style="stroke:#000000; stroke-linecap:round; stroke-linejoin:round; stroke-width:2; stroke-opacity:0.1; fill:none" points="257.204,1043.51 2352.76,1043.51 "/>
<polyline clip-path="url(#clip462)" style="stroke:#000000; stroke-linecap:round; stroke-linejoin:round; stroke-width:2; stroke-opacity:0.1; fill:none" points="257.204,724.404 2352.76,724.404 "/>
<polyline clip-path="url(#clip462)" style="stroke:#000000; stroke-linecap:round; stroke-linejoin:round; stroke-width:2; stroke-opacity:0.1; fill:none" points="257.204,405.295 2352.76,405.295 "/>
<polyline clip-path="url(#clip462)" style="stroke:#000000; stroke-linecap:round; stroke-linejoin:round; stroke-width:2; stroke-opacity:0.1; fill:none" points="257.204,86.1857 2352.76,86.1857 "/>
<polyline clip-path="url(#clip460)" style="stroke:#000000; stroke-linecap:round; stroke-linejoin:round; stroke-width:4; stroke-opacity:1; fill:none" points="257.204,1423.18 2352.76,1423.18 "/>
<polyline clip-path="url(#clip460)" style="stroke:#000000; stroke-linecap:round; stroke-linejoin:round; stroke-width:4; stroke-opacity:1; fill:none" points="529.521,1423.18 529.521,1404.28 "/>
<polyline clip-path="url(#clip460)" style="stroke:#000000; stroke-linecap:round; stroke-linejoin:round; stroke-width:4; stroke-opacity:1; fill:none" points="970.503,1423.18 970.503,1404.28 "/>
<polyline clip-path="url(#clip460)" style="stroke:#000000; stroke-linecap:round; stroke-linejoin:round; stroke-width:4; stroke-opacity:1; fill:none" points="1411.49,1423.18 1411.49,1404.28 "/>
<polyline clip-path="url(#clip460)" style="stroke:#000000; stroke-linecap:round; stroke-linejoin:round; stroke-width:4; stroke-opacity:1; fill:none" points="1852.47,1423.18 1852.47,1404.28 "/>
<polyline clip-path="url(#clip460)" style="stroke:#000000; stroke-linecap:round; stroke-linejoin:round; stroke-width:4; stroke-opacity:1; fill:none" points="2293.45,1423.18 2293.45,1404.28 "/>
<path clip-path="url(#clip460)" d="M476.049 1468.75 L505.725 1468.75 L505.725 1472.69 L476.049 1472.69 L476.049 1468.75 Z" fill="#000000" fill-rule="nonzero" fill-opacity="1" /><path clip-path="url(#clip460)" d="M516.628 1481.64 L524.267 1481.64 L524.267 1455.28 L515.956 1456.95 L515.956 1452.69 L524.22 1451.02 L528.896 1451.02 L528.896 1481.64 L536.535 1481.64 L536.535 1485.58 L516.628 1485.58 L516.628 1481.64 Z" fill="#000000" fill-rule="nonzero" fill-opacity="1" /><path clip-path="url(#clip460)" d="M545.979 1479.7 L550.864 1479.7 L550.864 1485.58 L545.979 1485.58 L545.979 1479.7 Z" fill="#000000" fill-rule="nonzero" fill-opacity="1" /><path clip-path="url(#clip460)" d="M571.049 1454.1 Q567.438 1454.1 565.609 1457.66 Q563.803 1461.2 563.803 1468.33 Q563.803 1475.44 565.609 1479.01 Q567.438 1482.55 571.049 1482.55 Q574.683 1482.55 576.488 1479.01 Q578.317 1475.44 578.317 1468.33 Q578.317 1461.2 576.488 1457.66 Q574.683 1454.1 571.049 1454.1 M571.049 1450.39 Q576.859 1450.39 579.914 1455 Q582.993 1459.58 582.993 1468.33 Q582.993 1477.06 579.914 1481.67 Q576.859 1486.25 571.049 1486.25 Q565.239 1486.25 562.16 1481.67 Q559.104 1477.06 559.104 1468.33 Q559.104 1459.58 562.16 1455 Q565.239 1450.39 571.049 1450.39 Z" fill="#000000" fill-rule="nonzero" fill-opacity="1" /><path clip-path="url(#clip460)" d="M917.529 1468.75 L947.205 1468.75 L947.205 1472.69 L917.529 1472.69 L917.529 1468.75 Z" fill="#000000" fill-rule="nonzero" fill-opacity="1" /><path clip-path="url(#clip460)" d="M967.297 1454.1 Q963.686 1454.1 961.857 1457.66 Q960.052 1461.2 960.052 1468.33 Q960.052 1475.44 961.857 1479.01 Q963.686 1482.55 967.297 1482.55 Q970.931 1482.55 972.737 1479.01 Q974.566 1475.44 974.566 1468.33 Q974.566 1461.2 972.737 1457.66 Q970.931 1454.1 967.297 1454.1 M967.297 1450.39 Q973.107 1450.39 976.163 1455 Q979.241 1459.58 979.241 1468.33 Q979.241 1477.06 976.163 1481.67 Q973.107 1486.25 967.297 1486.25 Q961.487 1486.25 958.408 1481.67 Q955.353 1477.06 955.353 1468.33 Q955.353 1459.58 958.408 1455 Q961.487 1450.39 967.297 1450.39 Z" fill="#000000" fill-rule="nonzero" fill-opacity="1" /><path clip-path="url(#clip460)" d="M987.459 1479.7 L992.343 1479.7 L992.343 1485.58 L987.459 1485.58 L987.459 1479.7 Z" fill="#000000" fill-rule="nonzero" fill-opacity="1" /><path clip-path="url(#clip460)" d="M1002.57 1451.02 L1020.93 1451.02 L1020.93 1454.96 L1006.86 1454.96 L1006.86 1463.43 Q1007.88 1463.08 1008.89 1462.92 Q1009.91 1462.73 1010.93 1462.73 Q1016.72 1462.73 1020.1 1465.9 Q1023.48 1469.08 1023.48 1474.49 Q1023.48 1480.07 1020.01 1483.17 Q1016.53 1486.25 1010.21 1486.25 Q1008.04 1486.25 1005.77 1485.88 Q1003.52 1485.51 1001.12 1484.77 L1001.12 1480.07 Q1003.2 1481.2 1005.42 1481.76 Q1007.64 1482.32 1010.12 1482.32 Q1014.13 1482.32 1016.46 1480.21 Q1018.8 1478.1 1018.8 1474.49 Q1018.8 1470.88 1016.46 1468.77 Q1014.13 1466.67 1010.12 1466.67 Q1008.25 1466.67 1006.37 1467.08 Q1004.52 1467.5 1002.57 1468.38 L1002.57 1451.02 Z" fill="#000000" fill-rule="nonzero" fill-opacity="1" /><path clip-path="url(#clip460)" d="M1388.87 1454.1 Q1385.26 1454.1 1383.43 1457.66 Q1381.62 1461.2 1381.62 1468.33 Q1381.62 1475.44 1383.43 1479.01 Q1385.26 1482.55 1388.87 1482.55 Q1392.5 1482.55 1394.31 1479.01 Q1396.14 1475.44 1396.14 1468.33 Q1396.14 1461.2 1394.31 1457.66 Q1392.5 1454.1 1388.87 1454.1 M1388.87 1450.39 Q1394.68 1450.39 1397.74 1455 Q1400.81 1459.58 1400.81 1468.33 Q1400.81 1477.06 1397.74 1481.67 Q1394.68 1486.25 1388.87 1486.25 Q1383.06 1486.25 1379.98 1481.67 Q1376.93 1477.06 1376.93 1468.33 Q1376.93 1459.58 1379.98 1455 Q1383.06 1450.39 1388.87 1450.39 Z" fill="#000000" fill-rule="nonzero" fill-opacity="1" /><path clip-path="url(#clip460)" d="M1409.03 1479.7 L1413.92 1479.7 L1413.92 1485.58 L1409.03 1485.58 L1409.03 1479.7 Z" fill="#000000" fill-rule="nonzero" fill-opacity="1" /><path clip-path="url(#clip460)" d="M1434.1 1454.1 Q1430.49 1454.1 1428.66 1457.66 Q1426.86 1461.2 1426.86 1468.33 Q1426.86 1475.44 1428.66 1479.01 Q1430.49 1482.55 1434.1 1482.55 Q1437.73 1482.55 1439.54 1479.01 Q1441.37 1475.44 1441.37 1468.33 Q1441.37 1461.2 1439.54 1457.66 Q1437.73 1454.1 1434.1 1454.1 M1434.1 1450.39 Q1439.91 1450.39 1442.97 1455 Q1446.05 1459.58 1446.05 1468.33 Q1446.05 1477.06 1442.97 1481.67 Q1439.91 1486.25 1434.1 1486.25 Q1428.29 1486.25 1425.21 1481.67 Q1422.16 1477.06 1422.16 1468.33 Q1422.16 1459.58 1425.21 1455 Q1428.29 1450.39 1434.1 1450.39 Z" fill="#000000" fill-rule="nonzero" fill-opacity="1" /><path clip-path="url(#clip460)" d="M1830.35 1454.1 Q1826.74 1454.1 1824.91 1457.66 Q1823.1 1461.2 1823.1 1468.33 Q1823.1 1475.44 1824.91 1479.01 Q1826.74 1482.55 1830.35 1482.55 Q1833.98 1482.55 1835.79 1479.01 Q1837.62 1475.44 1837.62 1468.33 Q1837.62 1461.2 1835.79 1457.66 Q1833.98 1454.1 1830.35 1454.1 M1830.35 1450.39 Q1836.16 1450.39 1839.21 1455 Q1842.29 1459.58 1842.29 1468.33 Q1842.29 1477.06 1839.21 1481.67 Q1836.16 1486.25 1830.35 1486.25 Q1824.54 1486.25 1821.46 1481.67 Q1818.4 1477.06 1818.4 1468.33 Q1818.4 1459.58 1821.46 1455 Q1824.54 1450.39 1830.35 1450.39 Z" fill="#000000" fill-rule="nonzero" fill-opacity="1" /><path clip-path="url(#clip460)" d="M1850.51 1479.7 L1855.4 1479.7 L1855.4 1485.58 L1850.51 1485.58 L1850.51 1479.7 Z" fill="#000000" fill-rule="nonzero" fill-opacity="1" /><path clip-path="url(#clip460)" d="M1865.63 1451.02 L1883.98 1451.02 L1883.98 1454.96 L1869.91 1454.96 L1869.91 1463.43 Q1870.93 1463.08 1871.95 1462.92 Q1872.96 1462.73 1873.98 1462.73 Q1879.77 1462.73 1883.15 1465.9 Q1886.53 1469.08 1886.53 1474.49 Q1886.53 1480.07 1883.06 1483.17 Q1879.58 1486.25 1873.27 1486.25 Q1871.09 1486.25 1868.82 1485.88 Q1866.58 1485.51 1864.17 1484.77 L1864.17 1480.07 Q1866.25 1481.2 1868.47 1481.76 Q1870.7 1482.32 1873.17 1482.32 Q1877.18 1482.32 1879.52 1480.21 Q1881.85 1478.1 1881.85 1474.49 Q1881.85 1470.88 1879.52 1468.77 Q1877.18 1466.67 1873.17 1466.67 Q1871.3 1466.67 1869.42 1467.08 Q1867.57 1467.5 1865.63 1468.38 L1865.63 1451.02 Z" fill="#000000" fill-rule="nonzero" fill-opacity="1" /><path clip-path="url(#clip460)" d="M2260.6 1481.64 L2268.24 1481.64 L2268.24 1455.28 L2259.93 1456.95 L2259.93 1452.69 L2268.19 1451.02 L2272.87 1451.02 L2272.87 1481.64 L2280.51 1481.64 L2280.51 1485.58 L2260.6 1485.58 L2260.6 1481.64 Z" fill="#000000" fill-rule="nonzero" fill-opacity="1" /><path clip-path="url(#clip460)" d="M2289.95 1479.7 L2294.84 1479.7 L2294.84 1485.58 L2289.95 1485.58 L2289.95 1479.7 Z" fill="#000000" fill-rule="nonzero" fill-opacity="1" /><path clip-path="url(#clip460)" d="M2315.02 1454.1 Q2311.41 1454.1 2309.58 1457.66 Q2307.78 1461.2 2307.78 1468.33 Q2307.78 1475.44 2309.58 1479.01 Q2311.41 1482.55 2315.02 1482.55 Q2318.66 1482.55 2320.46 1479.01 Q2322.29 1475.44 2322.29 1468.33 Q2322.29 1461.2 2320.46 1457.66 Q2318.66 1454.1 2315.02 1454.1 M2315.02 1450.39 Q2320.83 1450.39 2323.89 1455 Q2326.97 1459.58 2326.97 1468.33 Q2326.97 1477.06 2323.89 1481.67 Q2320.83 1486.25 2315.02 1486.25 Q2309.21 1486.25 2306.13 1481.67 Q2303.08 1477.06 2303.08 1468.33 Q2303.08 1459.58 2306.13 1455 Q2309.21 1450.39 2315.02 1450.39 Z" fill="#000000" fill-rule="nonzero" fill-opacity="1" /><path clip-path="url(#clip460)" d="M1134.03 1525.81 L1134.03 1543.66 L1142.11 1543.66 Q1146.6 1543.66 1149.05 1541.34 Q1151.5 1539.02 1151.5 1534.72 Q1151.5 1530.45 1149.05 1528.13 Q1146.6 1525.81 1142.11 1525.81 L1134.03 1525.81 M1127.6 1520.52 L1142.11 1520.52 Q1150.1 1520.52 1154.18 1524.15 Q1158.28 1527.75 1158.28 1534.72 Q1158.28 1541.75 1154.18 1545.35 Q1150.1 1548.95 1142.11 1548.95 L1134.03 1548.95 L1134.03 1568.04 L1127.6 1568.04 L1127.6 1520.52 Z" fill="#000000" fill-rule="nonzero" fill-opacity="1" /><path clip-path="url(#clip460)" d="M1178.14 1536.5 Q1173.43 1536.5 1170.7 1540.19 Q1167.96 1543.85 1167.96 1550.25 Q1167.96 1556.65 1170.66 1560.34 Q1173.4 1564 1178.14 1564 Q1182.82 1564 1185.56 1560.31 Q1188.3 1556.62 1188.3 1550.25 Q1188.3 1543.92 1185.56 1540.23 Q1182.82 1536.5 1178.14 1536.5 M1178.14 1531.54 Q1185.78 1531.54 1190.14 1536.5 Q1194.5 1541.47 1194.5 1550.25 Q1194.5 1559 1190.14 1564 Q1185.78 1568.97 1178.14 1568.97 Q1170.47 1568.97 1166.11 1564 Q1161.78 1559 1161.78 1550.25 Q1161.78 1541.47 1166.11 1536.5 Q1170.47 1531.54 1178.14 1531.54 Z" fill="#000000" fill-rule="nonzero" fill-opacity="1" /><path clip-path="url(#clip460)" d="M1226.94 1533.45 L1226.94 1538.98 Q1224.45 1537.71 1221.78 1537.07 Q1219.11 1536.44 1216.24 1536.44 Q1211.88 1536.44 1209.69 1537.77 Q1207.52 1539.11 1207.52 1541.79 Q1207.52 1543.82 1209.08 1545 Q1210.64 1546.15 1215.35 1547.2 L1217.36 1547.64 Q1223.59 1548.98 1226.2 1551.43 Q1228.85 1553.85 1228.85 1558.21 Q1228.85 1563.17 1224.9 1566.07 Q1220.98 1568.97 1214.11 1568.97 Q1211.24 1568.97 1208.13 1568.39 Q1205.04 1567.85 1201.6 1566.74 L1201.6 1560.69 Q1204.85 1562.38 1208 1563.24 Q1211.15 1564.07 1214.24 1564.07 Q1218.37 1564.07 1220.6 1562.66 Q1222.83 1561.23 1222.83 1558.65 Q1222.83 1556.27 1221.21 1554.99 Q1219.62 1553.72 1214.17 1552.54 L1212.14 1552.07 Q1206.69 1550.92 1204.27 1548.56 Q1201.86 1546.18 1201.86 1542.04 Q1201.86 1537.01 1205.42 1534.27 Q1208.99 1531.54 1215.54 1531.54 Q1218.79 1531.54 1221.65 1532.01 Q1224.52 1532.49 1226.94 1533.45 Z" fill="#000000" fill-rule="nonzero" fill-opacity="1" /><path clip-path="url(#clip460)" d="M1238.17 1532.4 L1244.03 1532.4 L1244.03 1568.04 L1238.17 1568.04 L1238.17 1532.4 M1238.17 1518.52 L1244.03 1518.52 L1244.03 1525.93 L1238.17 1525.93 L1238.17 1518.52 Z" fill="#000000" fill-rule="nonzero" fill-opacity="1" /><path clip-path="url(#clip460)" d="M1262.08 1522.27 L1262.08 1532.4 L1274.14 1532.4 L1274.14 1536.95 L1262.08 1536.95 L1262.08 1556.3 Q1262.08 1560.66 1263.25 1561.9 Q1264.46 1563.14 1268.12 1563.14 L1274.14 1563.14 L1274.14 1568.04 L1268.12 1568.04 Q1261.34 1568.04 1258.76 1565.53 Q1256.19 1562.98 1256.19 1556.3 L1256.19 1536.95 L1251.89 1536.95 L1251.89 1532.4 L1256.19 1532.4 L1256.19 1522.27 L1262.08 1522.27 Z" fill="#000000" fill-rule="nonzero" fill-opacity="1" /><path clip-path="url(#clip460)" d="M1281.84 1532.4 L1287.7 1532.4 L1287.7 1568.04 L1281.84 1568.04 L1281.84 1532.4 M1281.84 1518.52 L1287.7 1518.52 L1287.7 1525.93 L1281.84 1525.93 L1281.84 1518.52 Z" fill="#000000" fill-rule="nonzero" fill-opacity="1" /><path clip-path="url(#clip460)" d="M1313.76 1536.5 Q1309.05 1536.5 1306.32 1540.19 Q1303.58 1543.85 1303.58 1550.25 Q1303.58 1556.65 1306.28 1560.34 Q1309.02 1564 1313.76 1564 Q1318.44 1564 1321.18 1560.31 Q1323.92 1556.62 1323.92 1550.25 Q1323.92 1543.92 1321.18 1540.23 Q1318.44 1536.5 1313.76 1536.5 M1313.76 1531.54 Q1321.4 1531.54 1325.76 1536.5 Q1330.12 1541.47 1330.12 1550.25 Q1330.12 1559 1325.76 1564 Q1321.4 1568.97 1313.76 1568.97 Q1306.09 1568.97 1301.73 1564 Q1297.4 1559 1297.4 1550.25 Q1297.4 1541.47 1301.73 1536.5 Q1306.09 1531.54 1313.76 1531.54 Z" fill="#000000" fill-rule="nonzero" fill-opacity="1" /><path clip-path="url(#clip460)" d="M1369.46 1546.53 L1369.46 1568.04 L1363.61 1568.04 L1363.61 1546.72 Q1363.61 1541.66 1361.63 1539.14 Q1359.66 1536.63 1355.71 1536.63 Q1350.97 1536.63 1348.23 1539.65 Q1345.5 1542.68 1345.5 1547.9 L1345.5 1568.04 L1339.61 1568.04 L1339.61 1532.4 L1345.5 1532.4 L1345.5 1537.93 Q1347.6 1534.72 1350.43 1533.13 Q1353.3 1531.54 1357.02 1531.54 Q1363.16 1531.54 1366.31 1535.36 Q1369.46 1539.14 1369.46 1546.53 Z" fill="#000000" fill-rule="nonzero" fill-opacity="1" /><path clip-path="url(#clip460)" d="M1415.93 1518.58 Q1411.67 1525.9 1409.6 1533.06 Q1407.53 1540.23 1407.53 1547.58 Q1407.53 1554.93 1409.6 1562.16 Q1411.7 1569.35 1415.93 1576.64 L1410.84 1576.64 Q1406.07 1569.16 1403.68 1561.93 Q1401.32 1554.71 1401.32 1547.58 Q1401.32 1540.48 1403.68 1533.29 Q1406.04 1526.09 1410.84 1518.58 L1415.93 1518.58 Z" fill="#000000" fill-rule="nonzero" fill-opacity="1" /><path clip-path="url(#clip460)" d="M1430.8 1550.25 Q1430.8 1556.71 1433.44 1560.4 Q1436.11 1564.07 1440.76 1564.07 Q1445.41 1564.07 1448.08 1560.4 Q1450.75 1556.71 1450.75 1550.25 Q1450.75 1543.79 1448.08 1540.13 Q1445.41 1536.44 1440.76 1536.44 Q1436.11 1536.44 1433.44 1540.13 Q1430.8 1543.79 1430.8 1550.25 M1450.75 1562.7 Q1448.91 1565.88 1446.08 1567.44 Q1443.27 1568.97 1439.33 1568.97 Q1432.87 1568.97 1428.79 1563.81 Q1424.75 1558.65 1424.75 1550.25 Q1424.75 1541.85 1428.79 1536.69 Q1432.87 1531.54 1439.33 1531.54 Q1443.27 1531.54 1446.08 1533.1 Q1448.91 1534.62 1450.75 1537.81 L1450.75 1532.4 L1456.61 1532.4 L1456.61 1581.6 L1450.75 1581.6 L1450.75 1562.7 Z" fill="#000000" fill-rule="nonzero" fill-opacity="1" /><path clip-path="url(#clip460)" d="M1467.75 1518.58 L1472.84 1518.58 Q1477.62 1526.09 1479.97 1533.29 Q1482.36 1540.48 1482.36 1547.58 Q1482.36 1554.71 1479.97 1561.93 Q1477.62 1569.16 1472.84 1576.64 L1467.75 1576.64 Q1471.98 1569.35 1474.05 1562.16 Q1476.15 1554.93 1476.15 1547.58 Q1476.15 1540.23 1474.05 1533.06 Q1471.98 1525.9 1467.75 1518.58 Z" fill="#000000" fill-rule="nonzero" fill-opacity="1" /><polyline clip-path="url(#clip460)" style="stroke:#000000; stroke-linecap:round; stroke-linejoin:round; stroke-width:4; stroke-opacity:1; fill:none" points="257.204,1423.18 257.204,47.2441 "/>
<polyline clip-path="url(#clip460)" style="stroke:#000000; stroke-linecap:round; stroke-linejoin:round; stroke-width:4; stroke-opacity:1; fill:none" points="257.204,1362.62 276.102,1362.62 "/>
<polyline clip-path="url(#clip460)" style="stroke:#000000; stroke-linecap:round; stroke-linejoin:round; stroke-width:4; stroke-opacity:1; fill:none" points="257.204,1043.51 276.102,1043.51 "/>
<polyline clip-path="url(#clip460)" style="stroke:#000000; stroke-linecap:round; stroke-linejoin:round; stroke-width:4; stroke-opacity:1; fill:none" points="257.204,724.404 276.102,724.404 "/>
<polyline clip-path="url(#clip460)" style="stroke:#000000; stroke-linecap:round; stroke-linejoin:round; stroke-width:4; stroke-opacity:1; fill:none" points="257.204,405.295 276.102,405.295 "/>
<polyline clip-path="url(#clip460)" style="stroke:#000000; stroke-linecap:round; stroke-linejoin:round; stroke-width:4; stroke-opacity:1; fill:none" points="257.204,86.1857 276.102,86.1857 "/>
<path clip-path="url(#clip460)" d="M114.26 1363.07 L143.936 1363.07 L143.936 1367.01 L114.26 1367.01 L114.26 1363.07 Z" fill="#000000" fill-rule="nonzero" fill-opacity="1" /><path clip-path="url(#clip460)" d="M154.839 1375.97 L162.477 1375.97 L162.477 1349.6 L154.167 1351.27 L154.167 1347.01 L162.431 1345.34 L167.107 1345.34 L167.107 1375.97 L174.746 1375.97 L174.746 1379.9 L154.839 1379.9 L154.839 1375.97 Z" fill="#000000" fill-rule="nonzero" fill-opacity="1" /><path clip-path="url(#clip460)" d="M184.19 1374.02 L189.075 1374.02 L189.075 1379.9 L184.19 1379.9 L184.19 1374.02 Z" fill="#000000" fill-rule="nonzero" fill-opacity="1" /><path clip-path="url(#clip460)" d="M209.26 1348.42 Q205.649 1348.42 203.82 1351.99 Q202.014 1355.53 202.014 1362.66 Q202.014 1369.76 203.82 1373.33 Q205.649 1376.87 209.26 1376.87 Q212.894 1376.87 214.699 1373.33 Q216.528 1369.76 216.528 1362.66 Q216.528 1355.53 214.699 1351.99 Q212.894 1348.42 209.26 1348.42 M209.26 1344.72 Q215.07 1344.72 218.125 1349.32 Q221.204 1353.91 221.204 1362.66 Q221.204 1371.38 218.125 1375.99 Q215.07 1380.57 209.26 1380.57 Q203.449 1380.57 200.371 1375.99 Q197.315 1371.38 197.315 1362.66 Q197.315 1353.91 200.371 1349.32 Q203.449 1344.72 209.26 1344.72 Z" fill="#000000" fill-rule="nonzero" fill-opacity="1" /><path clip-path="url(#clip460)" d="M115.256 1043.97 L144.931 1043.97 L144.931 1047.9 L115.256 1047.9 L115.256 1043.97 Z" fill="#000000" fill-rule="nonzero" fill-opacity="1" /><path clip-path="url(#clip460)" d="M165.024 1029.31 Q161.413 1029.31 159.584 1032.88 Q157.778 1036.42 157.778 1043.55 Q157.778 1050.65 159.584 1054.22 Q161.413 1057.76 165.024 1057.76 Q168.658 1057.76 170.464 1054.22 Q172.292 1050.65 172.292 1043.55 Q172.292 1036.42 170.464 1032.88 Q168.658 1029.31 165.024 1029.31 M165.024 1025.61 Q170.834 1025.61 173.889 1030.22 Q176.968 1034.8 176.968 1043.55 Q176.968 1052.28 173.889 1056.88 Q170.834 1061.46 165.024 1061.46 Q159.214 1061.46 156.135 1056.88 Q153.079 1052.28 153.079 1043.55 Q153.079 1034.8 156.135 1030.22 Q159.214 1025.61 165.024 1025.61 Z" fill="#000000" fill-rule="nonzero" fill-opacity="1" /><path clip-path="url(#clip460)" d="M185.186 1054.91 L190.07 1054.91 L190.07 1060.79 L185.186 1060.79 L185.186 1054.91 Z" fill="#000000" fill-rule="nonzero" fill-opacity="1" /><path clip-path="url(#clip460)" d="M200.301 1026.23 L218.658 1026.23 L218.658 1030.17 L204.584 1030.17 L204.584 1038.64 Q205.602 1038.29 206.621 1038.13 Q207.639 1037.95 208.658 1037.95 Q214.445 1037.95 217.824 1041.12 Q221.204 1044.29 221.204 1049.71 Q221.204 1055.28 217.732 1058.39 Q214.26 1061.46 207.94 1061.46 Q205.764 1061.46 203.496 1061.09 Q201.25 1060.72 198.843 1059.98 L198.843 1055.28 Q200.926 1056.42 203.149 1056.97 Q205.371 1057.53 207.848 1057.53 Q211.852 1057.53 214.19 1055.42 Q216.528 1053.32 216.528 1049.71 Q216.528 1046.09 214.19 1043.99 Q211.852 1041.88 207.848 1041.88 Q205.973 1041.88 204.098 1042.3 Q202.246 1042.72 200.301 1043.59 L200.301 1026.23 Z" fill="#000000" fill-rule="nonzero" fill-opacity="1" /><path clip-path="url(#clip460)" d="M164.028 710.203 Q160.417 710.203 158.589 713.768 Q156.783 717.309 156.783 724.439 Q156.783 731.545 158.589 735.11 Q160.417 738.652 164.028 738.652 Q167.663 738.652 169.468 735.11 Q171.297 731.545 171.297 724.439 Q171.297 717.309 169.468 713.768 Q167.663 710.203 164.028 710.203 M164.028 706.499 Q169.839 706.499 172.894 711.106 Q175.973 715.689 175.973 724.439 Q175.973 733.166 172.894 737.772 Q169.839 742.356 164.028 742.356 Q158.218 742.356 155.14 737.772 Q152.084 733.166 152.084 724.439 Q152.084 715.689 155.14 711.106 Q158.218 706.499 164.028 706.499 Z" fill="#000000" fill-rule="nonzero" fill-opacity="1" /><path clip-path="url(#clip460)" d="M184.19 735.805 L189.075 735.805 L189.075 741.684 L184.19 741.684 L184.19 735.805 Z" fill="#000000" fill-rule="nonzero" fill-opacity="1" /><path clip-path="url(#clip460)" d="M209.26 710.203 Q205.649 710.203 203.82 713.768 Q202.014 717.309 202.014 724.439 Q202.014 731.545 203.82 735.11 Q205.649 738.652 209.26 738.652 Q212.894 738.652 214.699 735.11 Q216.528 731.545 216.528 724.439 Q216.528 717.309 214.699 713.768 Q212.894 710.203 209.26 710.203 M209.26 706.499 Q215.07 706.499 218.125 711.106 Q221.204 715.689 221.204 724.439 Q221.204 733.166 218.125 737.772 Q215.07 742.356 209.26 742.356 Q203.449 742.356 200.371 737.772 Q197.315 733.166 197.315 724.439 Q197.315 715.689 200.371 711.106 Q203.449 706.499 209.26 706.499 Z" fill="#000000" fill-rule="nonzero" fill-opacity="1" /><path clip-path="url(#clip460)" d="M165.024 391.094 Q161.413 391.094 159.584 394.658 Q157.778 398.2 157.778 405.33 Q157.778 412.436 159.584 416.001 Q161.413 419.543 165.024 419.543 Q168.658 419.543 170.464 416.001 Q172.292 412.436 172.292 405.33 Q172.292 398.2 170.464 394.658 Q168.658 391.094 165.024 391.094 M165.024 387.39 Q170.834 387.39 173.889 391.996 Q176.968 396.58 176.968 405.33 Q176.968 414.057 173.889 418.663 Q170.834 423.246 165.024 423.246 Q159.214 423.246 156.135 418.663 Q153.079 414.057 153.079 405.33 Q153.079 396.58 156.135 391.996 Q159.214 387.39 165.024 387.39 Z" fill="#000000" fill-rule="nonzero" fill-opacity="1" /><path clip-path="url(#clip460)" d="M185.186 416.695 L190.07 416.695 L190.07 422.575 L185.186 422.575 L185.186 416.695 Z" fill="#000000" fill-rule="nonzero" fill-opacity="1" /><path clip-path="url(#clip460)" d="M200.301 388.015 L218.658 388.015 L218.658 391.95 L204.584 391.95 L204.584 400.422 Q205.602 400.075 206.621 399.913 Q207.639 399.728 208.658 399.728 Q214.445 399.728 217.824 402.899 Q221.204 406.07 221.204 411.487 Q221.204 417.066 217.732 420.168 Q214.26 423.246 207.94 423.246 Q205.764 423.246 203.496 422.876 Q201.25 422.506 198.843 421.765 L198.843 417.066 Q200.926 418.2 203.149 418.756 Q205.371 419.311 207.848 419.311 Q211.852 419.311 214.19 417.205 Q216.528 415.098 216.528 411.487 Q216.528 407.876 214.19 405.77 Q211.852 403.663 207.848 403.663 Q205.973 403.663 204.098 404.08 Q202.246 404.496 200.301 405.376 L200.301 388.015 Z" fill="#000000" fill-rule="nonzero" fill-opacity="1" /><path clip-path="url(#clip460)" d="M154.839 99.5305 L162.477 99.5305 L162.477 73.1649 L154.167 74.8316 L154.167 70.5723 L162.431 68.9057 L167.107 68.9057 L167.107 99.5305 L174.746 99.5305 L174.746 103.466 L154.839 103.466 L154.839 99.5305 Z" fill="#000000" fill-rule="nonzero" fill-opacity="1" /><path clip-path="url(#clip460)" d="M184.19 97.5861 L189.075 97.5861 L189.075 103.466 L184.19 103.466 L184.19 97.5861 Z" fill="#000000" fill-rule="nonzero" fill-opacity="1" /><path clip-path="url(#clip460)" d="M209.26 71.9844 Q205.649 71.9844 203.82 75.5492 Q202.014 79.0908 202.014 86.2204 Q202.014 93.3268 203.82 96.8916 Q205.649 100.433 209.26 100.433 Q212.894 100.433 214.699 96.8916 Q216.528 93.3268 216.528 86.2204 Q216.528 79.0908 214.699 75.5492 Q212.894 71.9844 209.26 71.9844 M209.26 68.2807 Q215.07 68.2807 218.125 72.8871 Q221.204 77.4704 221.204 86.2204 Q221.204 94.9472 218.125 99.5537 Q215.07 104.137 209.26 104.137 Q203.449 104.137 200.371 99.5537 Q197.315 94.9472 197.315 86.2204 Q197.315 77.4704 200.371 72.8871 Q203.449 68.2807 209.26 68.2807 Z" fill="#000000" fill-rule="nonzero" fill-opacity="1" /><path clip-path="url(#clip460)" d="M16.4842 971.396 L16.4842 961.815 L48.8219 949.689 L16.4842 937.498 L16.4842 927.918 L64.0042 927.918 L64.0042 934.188 L22.277 934.188 L54.8694 946.442 L54.8694 952.903 L22.277 965.157 L64.0042 965.157 L64.0042 971.396 L16.4842 971.396 Z" fill="#000000" fill-rule="nonzero" fill-opacity="1" /><path clip-path="url(#clip460)" d="M32.4621 901.596 Q32.4621 906.306 36.1542 909.044 Q39.8145 911.781 46.212 911.781 Q52.6095 911.781 56.3017 909.075 Q59.9619 906.338 59.9619 901.596 Q59.9619 896.917 56.2698 894.18 Q52.5777 891.442 46.212 891.442 Q39.8781 891.442 36.186 894.18 Q32.4621 896.917 32.4621 901.596 M27.4968 901.596 Q27.4968 893.957 32.4621 889.596 Q37.4273 885.236 46.212 885.236 Q54.9649 885.236 59.9619 889.596 Q64.9272 893.957 64.9272 901.596 Q64.9272 909.266 59.9619 913.627 Q54.9649 917.955 46.212 917.955 Q37.4273 917.955 32.4621 913.627 Q27.4968 909.266 27.4968 901.596 Z" fill="#000000" fill-rule="nonzero" fill-opacity="1" /><path clip-path="url(#clip460)" d="M35.1993 847.774 Q31.2526 845.577 29.3747 842.522 Q27.4968 839.466 27.4968 835.329 Q27.4968 829.759 31.4117 826.735 Q35.2948 823.711 42.4881 823.711 L64.0042 823.711 L64.0042 829.599 L42.679 829.599 Q37.5546 829.599 35.072 831.414 Q32.5894 833.228 32.5894 836.952 Q32.5894 841.503 35.6131 844.145 Q38.6368 846.787 43.8567 846.787 L64.0042 846.787 L64.0042 852.675 L42.679 852.675 Q37.5228 852.675 35.072 854.489 Q32.5894 856.304 32.5894 860.091 Q32.5894 864.579 35.6449 867.221 Q38.6686 869.863 43.8567 869.863 L64.0042 869.863 L64.0042 875.751 L28.3562 875.751 L28.3562 869.863 L33.8944 869.863 Q30.616 867.857 29.0564 865.056 Q27.4968 862.256 27.4968 858.404 Q27.4968 854.521 29.4702 851.816 Q31.4436 849.079 35.1993 847.774 Z" fill="#000000" fill-rule="nonzero" fill-opacity="1" /><path clip-path="url(#clip460)" d="M44.7161 781.538 L47.5806 781.538 L47.5806 808.465 Q53.6281 808.083 56.8109 804.837 Q59.9619 801.559 59.9619 795.734 Q59.9619 792.36 59.1344 789.209 Q58.3069 786.026 56.6518 782.907 L62.1899 782.907 Q63.5267 786.058 64.227 789.368 Q64.9272 792.678 64.9272 796.084 Q64.9272 804.614 59.9619 809.611 Q54.9967 814.576 46.5303 814.576 Q37.7774 814.576 32.6531 809.866 Q27.4968 805.123 27.4968 797.103 Q27.4968 789.909 32.1438 785.74 Q36.7589 781.538 44.7161 781.538 M42.9973 787.395 Q38.1912 787.459 35.3266 790.1 Q32.4621 792.71 32.4621 797.039 Q32.4621 801.94 35.2312 804.901 Q38.0002 807.829 43.0292 808.274 L42.9973 787.395 Z" fill="#000000" fill-rule="nonzero" fill-opacity="1" /><path clip-path="url(#clip460)" d="M42.4881 742.294 L64.0042 742.294 L64.0042 748.15 L42.679 748.15 Q37.6183 748.15 35.1038 750.124 Q32.5894 752.097 32.5894 756.044 Q32.5894 760.786 35.6131 763.523 Q38.6368 766.261 43.8567 766.261 L64.0042 766.261 L64.0042 772.149 L28.3562 772.149 L28.3562 766.261 L33.8944 766.261 Q30.6797 764.16 29.0883 761.327 Q27.4968 758.463 27.4968 754.739 Q27.4968 748.596 31.3163 745.445 Q35.1038 742.294 42.4881 742.294 Z" fill="#000000" fill-rule="nonzero" fill-opacity="1" /><path clip-path="url(#clip460)" d="M18.2347 724.82 L28.3562 724.82 L28.3562 712.757 L32.9077 712.757 L32.9077 724.82 L52.2594 724.82 Q56.6199 724.82 57.8613 723.642 Q59.1026 722.433 59.1026 718.773 L59.1026 712.757 L64.0042 712.757 L64.0042 718.773 Q64.0042 725.552 61.4897 728.13 Q58.9434 730.708 52.2594 730.708 L32.9077 730.708 L32.9077 735.005 L28.3562 735.005 L28.3562 730.708 L18.2347 730.708 L18.2347 724.82 Z" fill="#000000" fill-rule="nonzero" fill-opacity="1" /><path clip-path="url(#clip460)" d="M49.9359 705.659 L28.3562 705.659 L28.3562 699.803 L49.7131 699.803 Q54.7739 699.803 57.3202 697.829 Q59.8346 695.856 59.8346 691.909 Q59.8346 687.167 56.8109 684.43 Q53.7872 681.66 48.5673 681.66 L28.3562 681.66 L28.3562 675.804 L64.0042 675.804 L64.0042 681.66 L58.5296 681.66 Q61.7762 683.793 63.3676 686.626 Q64.9272 689.427 64.9272 693.151 Q64.9272 699.293 61.1078 702.476 Q57.2883 705.659 49.9359 705.659 M27.4968 690.923 L27.4968 690.923 Z" fill="#000000" fill-rule="nonzero" fill-opacity="1" /><path clip-path="url(#clip460)" d="M35.1993 635.987 Q31.2526 633.79 29.3747 630.735 Q27.4968 627.679 27.4968 623.542 Q27.4968 617.972 31.4117 614.948 Q35.2948 611.924 42.4881 611.924 L64.0042 611.924 L64.0042 617.812 L42.679 617.812 Q37.5546 617.812 35.072 619.627 Q32.5894 621.441 32.5894 625.165 Q32.5894 629.716 35.6131 632.358 Q38.6368 635 43.8567 635 L64.0042 635 L64.0042 640.888 L42.679 640.888 Q37.5228 640.888 35.072 642.702 Q32.5894 644.517 32.5894 648.304 Q32.5894 652.792 35.6449 655.434 Q38.6686 658.076 43.8567 658.076 L64.0042 658.076 L64.0042 663.964 L28.3562 663.964 L28.3562 658.076 L33.8944 658.076 Q30.616 656.07 29.0564 653.269 Q27.4968 650.468 27.4968 646.617 Q27.4968 642.734 29.4702 640.029 Q31.4436 637.291 35.1993 635.987 Z" fill="#000000" fill-rule="nonzero" fill-opacity="1" /><path clip-path="url(#clip460)" d="M14.5426 565.454 Q21.8632 569.72 29.0246 571.788 Q36.186 573.857 43.5384 573.857 Q50.8908 573.857 58.1159 571.788 Q65.3091 569.688 72.5979 565.454 L72.5979 570.547 Q65.1182 575.321 57.8931 577.708 Q50.668 580.064 43.5384 580.064 Q36.4406 580.064 29.2474 577.708 Q22.0542 575.353 14.5426 570.547 L14.5426 565.454 Z" fill="#000000" fill-rule="nonzero" fill-opacity="1" /><path clip-path="url(#clip460)" d="M58.657 548.426 L77.5631 548.426 L77.5631 554.315 L28.3562 554.315 L28.3562 548.426 L33.7671 548.426 Q30.5842 546.58 29.0564 543.779 Q27.4968 540.947 27.4968 537.032 Q27.4968 530.539 32.6531 526.496 Q37.8093 522.422 46.212 522.422 Q54.6147 522.422 59.771 526.496 Q64.9272 530.539 64.9272 537.032 Q64.9272 540.947 63.3994 543.779 Q61.8398 546.58 58.657 548.426 M46.212 528.502 Q39.7508 528.502 36.0905 531.175 Q32.3984 533.817 32.3984 538.464 Q32.3984 543.111 36.0905 545.784 Q39.7508 548.426 46.212 548.426 Q52.6732 548.426 56.3653 545.784 Q60.0256 543.111 60.0256 538.464 Q60.0256 533.817 56.3653 531.175 Q52.6732 528.502 46.212 528.502 Z" fill="#000000" fill-rule="nonzero" fill-opacity="1" /><path clip-path="url(#clip460)" d="M14.5426 513.638 L14.5426 508.545 Q22.0542 503.771 29.2474 501.415 Q36.4406 499.028 43.5384 499.028 Q50.668 499.028 57.8931 501.415 Q65.1182 503.771 72.5979 508.545 L72.5979 513.638 Q65.3091 509.404 58.1159 507.336 Q50.8908 505.235 43.5384 505.235 Q36.186 505.235 29.0246 507.336 Q21.8632 509.404 14.5426 513.638 Z" fill="#000000" fill-rule="nonzero" fill-opacity="1" /><polyline clip-path="url(#clip462)" style="stroke:#009af9; stroke-linecap:round; stroke-linejoin:round; stroke-width:16; stroke-opacity:1; fill:none" points="1411.49,86.1857 1416.9,86.1977 1422.32,86.2338 1427.73,86.294 1433.15,86.3783 1438.57,86.4866 1443.98,86.619 1449.39,86.7754 1454.8,86.9559 1460.21,87.1605 1465.62,87.3891 1471.03,87.6417 1476.43,87.9183 1481.83,88.219 1487.23,88.5436 1492.62,88.8923 1498.02,89.2649 1503.41,89.6615 1508.79,90.082 1514.17,90.5264 1519.55,90.9948 1524.93,91.487 1530.3,92.0031 1535.66,92.5431 1541.02,93.1069 1546.38,93.6945 1551.73,94.306 1557.07,94.9411 1562.41,95.6001 1567.75,96.2827 1573.08,96.9891 1578.4,97.7191 1583.71,98.4728 1589.02,99.2501 1594.33,100.051 1599.62,100.875 1604.91,101.723 1610.19,102.595 1615.47,103.49 1620.73,104.408 1625.99,105.35 1631.24,106.315 1636.48,107.303 1641.72,108.315 1646.94,109.349 1652.16,110.408 1657.36,111.489 1662.56,112.593 1667.75,113.721 1672.93,114.871 1678.1,116.044 1683.25,117.241 1688.4,118.46 1693.54,119.702 1698.67,120.967 1703.78,122.255 1708.89,123.566 1713.98,124.899 1719.07,126.254 1724.14,127.633 1729.2,129.034 1734.24,130.457 1739.28,131.903 1744.3,133.371 1749.31,134.861 1754.31,136.374 1759.29,137.908 1764.26,139.465 1769.22,141.044 1774.17,142.645 1779.1,144.268 1784.01,145.913 1788.92,147.579 1793.81,149.268 1798.68,150.978 1803.54,152.71 1808.39,154.463 1813.21,156.238 1818.03,158.034 1822.83,159.851 1827.61,161.69 1832.38,163.55 1837.13,165.431 1841.87,167.334 1846.59,169.257 1851.29,171.201 1855.98,173.167 1860.65,175.153 1865.3,177.159 1869.94,179.186 1874.56,181.234 1879.16,183.303 1883.74,185.392 1888.31,187.501 1892.86,189.63 1897.39,191.78 1901.9,193.949 1906.39,196.139 1910.87,198.348 1915.32,200.578 1919.76,202.827 1924.18,205.096 1928.57,207.384 1932.95,209.692 1937.31,212.02 1941.65,214.366 1945.97,216.732 1950.27,219.117 1954.55,221.521 1958.81,223.945 1963.04,226.386 1967.26,228.847 1971.45,231.327 1975.63,233.825 1979.78,236.341 1983.91,238.876 1988.02,241.43 1992.11,244.001 1996.18,246.591 2000.22,249.199 2004.25,251.824 2008.25,254.468 2012.22,257.129 2016.18,259.807 2020.11,262.504 2024.02,265.218 2027.9,267.949 2031.77,270.697 2035.61,273.462 2039.42,276.245 2043.21,279.044 2046.98,281.86 2050.73,284.693 2054.45,287.542 2058.14,290.408 2061.81,293.29 2065.46,296.189 2069.08,299.103 2072.68,302.034 2076.25,304.981 2079.8,307.943 2083.32,310.921 2086.82,313.915 2090.29,316.924 2093.74,319.949 2097.16,322.989 2100.55,326.044 2103.92,329.114 2107.26,332.199 2110.58,335.299 2113.86,338.413 2117.13,341.542 2120.36,344.685 2123.57,347.843 2126.76,351.015 2129.91,354.201 2133.04,357.401 2136.14,360.615 2139.22,363.843 2142.26,367.084 2145.28,370.338 2148.27,373.606 2151.24,376.888 2154.17,380.182 2157.08,383.489 2159.96,386.81 2162.81,390.143 2165.63,393.488 2168.43,396.846 2171.19,400.217 2173.93,403.599 2176.64,406.994 2179.32,410.401 2181.97,413.819 2184.59,417.249 2187.18,420.691 2189.75,424.144 2192.28,427.609 2194.78,431.085 2197.26,434.572 2199.7,438.07 2202.12,441.578 2204.51,445.098 2206.86,448.627 2209.19,452.168 2211.48,455.718 2213.75,459.279 2215.98,462.849 2218.19,466.43 2220.36,470.02 2222.51,473.62 2224.62,477.229 2226.7,480.848 2228.75,484.476 2230.77,488.112 2232.76,491.758 2234.72,495.413 2236.65,499.076 2238.55,502.748 2240.41,506.428 2242.25,510.116 2244.05,513.812 2245.82,517.517 2247.56,521.229 2249.27,524.948 2250.95,528.676 2252.59,532.41 2254.21,536.152 2255.79,539.901 2257.34,543.657 2258.86,547.42 2260.34,551.19 2261.8,554.966 2263.22,558.748 2264.61,562.537 2265.97,566.331 2267.29,570.132 2268.59,573.939 2269.85,577.751 2271.08,581.569 2272.27,585.392 2273.44,589.22 2274.57,593.054 2275.67,596.892 2276.73,600.735 2277.77,604.583 2278.77,608.435 2279.73,612.292 2280.67,616.153 2281.57,620.018 2282.44,623.887 2283.28,627.76 2284.08,631.637 2284.85,635.517 2285.59,639.4 2286.3,643.287 2286.97,647.176 2287.61,651.069 2288.21,654.964 2288.79,658.862 2289.33,662.762 2289.83,666.665 2290.31,670.57 2290.75,674.477 2291.15,678.386 2291.53,682.296 2291.87,686.208 2292.18,690.122 2292.45,694.037 2292.69,697.953 2292.9,701.87 2293.07,705.788 2293.21,709.706 2293.32,713.625 2293.4,717.545 2293.44,721.464 2293.45,725.384 2293.42,729.304 2293.36,733.224 2293.27,737.143 2293.15,741.062 2292.99,744.98 2292.8,748.898 2292.57,752.814 2292.32,756.73 2292.03,760.644 2291.7,764.557 2291.34,768.468 2290.95,772.378 2290.53,776.286 2290.07,780.191 2289.58,784.095 2289.06,787.997 2288.5,791.896 2287.91,795.793 2287.29,799.687 2286.64,803.578 2285.95,807.466 2285.23,811.351 2284.47,815.232 2283.68,819.111 2282.86,822.985 2282.01,826.856 2281.12,830.723 2280.21,834.586 2279.25,838.445 2278.27,842.3 2277.25,846.15 2276.2,849.996 2275.12,853.837 2274.01,857.673 2272.86,861.503 2271.68,865.329 2270.47,869.15 2269.22,872.965 2267.95,876.774 2266.64,880.578 2265.29,884.375 2263.92,888.167 2262.51,891.953 2261.08,895.732 2259.61,899.505 2258.1,903.271 2256.57,907.03 2255,910.783 2253.41,914.528 2251.78,918.267 2250.11,921.998 2248.42,925.721 2246.7,929.437 2244.94,933.145 2243.15,936.846 2241.34,940.538 2239.49,944.222 2237.6,947.898 2235.69,951.565 2233.75,955.224 2231.77,958.874 2229.77,962.516 2227.73,966.148 2225.66,969.771 2223.57,973.385 2221.44,976.99 2219.28,980.585 2217.09,984.17 2214.87,987.746 2212.62,991.312 2210.34,994.867 2208.03,998.413 2205.69,1001.95 2203.32,1005.47 2200.92,1008.99 2198.49,1012.49 2196.03,1015.98 2193.54,1019.46 2191.02,1022.93 2188.47,1026.39 2185.89,1029.84 2183.28,1033.28 2180.65,1036.7 2177.98,1040.11 2175.29,1043.51 2172.57,1046.9 2169.81,1050.28 2167.03,1053.64 2164.22,1056.99 2161.39,1060.33 2158.52,1063.66 2155.63,1066.97 2152.71,1070.28 2149.76,1073.56 2146.78,1076.84 2143.77,1080.1 2140.74,1083.35 2137.68,1086.58 2134.59,1089.8 2131.48,1093.01 2128.34,1096.2 2125.17,1099.38 2121.97,1102.55 2118.75,1105.7 2115.5,1108.83 2112.22,1111.95 2108.92,1115.06 2105.59,1118.15 2102.24,1121.23 2098.86,1124.29 2095.45,1127.34 2092.02,1130.37 2088.56,1133.39 2085.07,1136.39 2081.56,1139.38 2078.03,1142.35 2074.47,1145.3 2070.88,1148.24 2067.27,1151.16 2063.64,1154.07 2059.98,1156.96 2056.3,1159.84 2052.59,1162.69 2048.86,1165.53 2045.1,1168.36 2041.32,1171.17 2037.52,1173.96 2033.69,1176.73 2029.84,1179.49 2025.96,1182.23 2022.07,1184.95 2018.15,1187.66 2014.2,1190.34 2010.24,1193.01 2006.25,1195.67 2002.24,1198.3 1998.2,1200.92 1994.15,1203.51 1990.07,1206.1 1985.97,1208.66 1981.85,1211.2 1977.71,1213.73 1973.54,1216.24 1969.36,1218.72 1965.15,1221.19 1960.93,1223.65 1956.68,1226.08 1952.41,1228.49 1948.12,1230.89 1943.81,1233.26 1939.48,1235.62 1935.14,1237.96 1930.77,1240.27 1926.38,1242.57 1921.97,1244.85 1917.54,1247.11 1913.1,1249.35 1908.63,1251.57 1904.15,1253.77 1899.65,1255.95 1895.13,1258.11 1890.59,1260.25 1886.03,1262.37 1881.45,1264.46 1876.86,1266.54 1872.25,1268.6 1867.62,1270.64 1862.98,1272.66 1858.32,1274.65 1853.64,1276.63 1848.94,1278.58 1844.23,1280.52 1839.5,1282.43 1834.76,1284.32 1830,1286.19 1825.22,1288.04 1820.43,1289.87 1815.62,1291.68 1810.8,1293.46 1805.96,1295.23 1801.11,1296.97 1796.25,1298.69 1791.36,1300.39 1786.47,1302.07 1781.56,1303.72 1776.63,1305.35 1771.7,1306.97 1766.74,1308.56 1761.78,1310.12 1756.8,1311.67 1751.81,1313.19 1746.81,1314.7 1741.79,1316.17 1736.76,1317.63 1731.72,1319.07 1726.67,1320.48 1721.6,1321.87 1716.53,1323.23 1711.44,1324.58 1706.34,1325.9 1701.23,1327.2 1696.1,1328.48 1690.97,1329.73 1685.83,1330.96 1680.68,1332.17 1675.51,1333.35 1670.34,1334.52 1665.16,1335.65 1659.96,1336.77 1654.76,1337.86 1649.55,1338.93 1644.33,1339.98 1639.1,1341 1633.86,1342 1628.62,1342.98 1623.36,1343.93 1618.1,1344.86 1612.83,1345.77 1607.55,1346.65 1602.27,1347.51 1596.97,1348.35 1591.68,1349.16 1586.37,1349.95 1581.06,1350.72 1575.74,1351.46 1570.41,1352.18 1565.08,1352.87 1559.74,1353.54 1554.4,1354.19 1549.05,1354.81 1543.7,1355.41 1538.34,1355.99 1532.98,1356.54 1527.61,1357.07 1522.24,1357.57 1516.86,1358.05 1511.48,1358.51 1506.1,1358.94 1500.71,1359.35 1495.32,1359.73 1489.93,1360.09 1484.53,1360.43 1479.13,1360.74 1473.73,1361.03 1468.32,1361.3 1462.92,1361.54 1457.51,1361.75 1452.1,1361.95 1446.69,1362.11 1441.27,1362.26 1435.86,1362.38 1430.44,1362.48 1425.03,1362.55 1419.61,1362.6 1414.19,1362.62 1408.78,1362.62 1403.36,1362.6 1397.94,1362.55 1392.53,1362.48 1387.11,1362.38 1381.7,1362.26 1376.28,1362.11 1370.87,1361.95 1365.46,1361.75 1360.05,1361.54 1354.65,1361.3 1349.24,1361.03 1343.84,1360.74 1338.44,1360.43 1333.04,1360.09 1327.65,1359.73 1322.26,1359.35 1316.87,1358.94 1311.49,1358.51 1306.11,1358.05 1300.73,1357.57 1295.36,1357.07 1289.99,1356.54 1284.63,1355.99 1279.27,1355.41 1273.92,1354.81 1268.57,1354.19 1263.23,1353.54 1257.89,1352.87 1252.56,1352.18 1247.23,1351.46 1241.91,1350.72 1236.6,1349.95 1231.29,1349.16 1226,1348.35 1220.7,1347.51 1215.42,1346.65 1210.14,1345.77 1204.87,1344.86 1199.61,1343.93 1194.35,1342.98 1189.11,1342 1183.87,1341 1178.64,1339.98 1173.42,1338.93 1168.21,1337.86 1163.01,1336.77 1157.81,1335.65 1152.63,1334.52 1147.46,1333.35 1142.29,1332.17 1137.14,1330.96 1132,1329.73 1126.87,1328.48 1121.74,1327.2 1116.63,1325.9 1111.53,1324.58 1106.44,1323.23 1101.37,1321.87 1096.3,1320.48 1091.25,1319.07 1086.21,1317.63 1081.18,1316.17 1076.16,1314.7 1071.16,1313.19 1066.17,1311.67 1061.19,1310.12 1056.23,1308.56 1051.27,1306.97 1046.34,1305.35 1041.41,1303.72 1036.5,1302.07 1031.61,1300.39 1026.72,1298.69 1021.86,1296.97 1017.01,1295.23 1012.17,1293.46 1007.35,1291.68 1002.54,1289.87 997.747,1288.04 992.971,1286.19 988.211,1284.32 983.466,1282.43 978.738,1280.52 974.026,1278.58 969.331,1276.63 964.652,1274.65 959.99,1272.66 955.345,1270.64 950.718,1268.6 946.108,1266.54 941.515,1264.46 936.94,1262.37 932.383,1260.25 927.844,1258.11 923.323,1255.95 918.821,1253.77 914.337,1251.57 909.872,1249.35 905.426,1247.11 900.999,1244.85 896.592,1242.57 892.204,1240.27 887.835,1237.96 883.486,1235.62 879.157,1233.26 874.848,1230.89 870.559,1228.49 866.291,1226.08 862.043,1223.65 857.816,1221.19 853.61,1218.72 849.425,1216.24 845.261,1213.73 841.119,1211.2 836.998,1208.66 832.899,1206.1 828.821,1203.51 824.766,1200.92 820.732,1198.3 816.721,1195.66 812.733,1193.01 808.767,1190.34 804.823,1187.66 800.903,1184.95 797.005,1182.23 793.131,1179.49 789.28,1176.73 785.453,1173.96 781.649,1171.17 777.869,1168.36 774.113,1165.53 770.381,1162.69 766.673,1159.84 762.989,1156.96 759.33,1154.07 755.696,1151.16 752.086,1148.24 748.501,1145.3 744.941,1142.35 741.406,1139.38 737.897,1136.39 734.413,1133.39 730.954,1130.37 727.521,1127.34 724.114,1124.29 720.733,1121.23 717.378,1118.15 714.049,1115.06 710.747,1111.95 707.471,1108.83 704.221,1105.7 700.998,1102.55 697.802,1099.38 694.633,1096.2 691.491,1093.01 688.376,1089.8 685.288,1086.58 682.228,1083.35 679.195,1080.1 676.19,1076.84 673.212,1073.56 670.263,1070.28 667.341,1066.97 664.447,1063.66 661.582,1060.33 658.745,1056.99 655.937,1053.64 653.156,1050.28 650.405,1046.9 647.682,1043.51 644.988,1040.11 642.323,1036.7 639.686,1033.28 637.08,1029.84 634.502,1026.39 631.953,1022.93 629.434,1019.46 626.945,1015.98 624.485,1012.49 622.054,1008.99 619.654,1005.47 617.283,1001.95 614.942,998.412 612.632,994.867 610.351,991.311 608.101,987.746 605.881,984.17 603.691,980.585 601.532,976.99 599.404,973.385 597.306,969.771 595.239,966.148 593.202,962.516 591.197,958.874 589.222,955.224 587.279,951.565 585.366,947.898 583.485,944.222 581.635,940.538 579.816,936.846 578.028,933.145 576.272,929.437 574.548,925.721 572.855,921.998 571.194,918.266 569.564,914.528 567.966,910.783 566.4,907.03 564.866,903.271 563.364,899.504 561.894,895.732 560.456,891.953 559.05,888.167 557.676,884.375 556.334,880.578 555.025,876.774 553.748,872.965 552.503,869.15 551.291,865.329 550.111,861.503 548.963,857.672 547.849,853.837 546.766,849.996 545.717,846.15 544.7,842.3 543.715,838.445 542.764,834.586 541.845,830.723 540.959,826.856 540.106,822.985 539.286,819.11 538.498,815.232 537.744,811.351 537.022,807.465 536.334,803.578 535.678,799.686 535.056,795.793 534.467,791.896 533.91,787.997 533.387,784.095 532.897,780.191 532.44,776.285 532.016,772.377 531.626,768.468 531.268,764.556 530.944,760.644 530.653,756.729 530.395,752.814 530.171,748.897 529.98,744.98 529.822,741.062 529.697,737.143 529.605,733.224 529.547,729.304 529.522,725.384 529.53,721.464 529.572,717.545 529.647,713.625 529.755,709.706 529.896,705.787 530.071,701.87 530.279,697.953 530.52,694.037 530.794,690.122 531.102,686.208 531.443,682.296 531.817,678.385 532.224,674.477 532.664,670.57 533.138,666.665 533.644,662.762 534.184,658.862 534.757,654.964 535.363,651.069 536.002,647.176 536.674,643.286 537.379,639.4 538.117,635.517 538.888,631.637 539.692,627.76 540.528,623.887 541.398,620.018 542.3,616.153 543.236,612.292 544.203,608.436 545.204,604.583 546.237,600.735 547.303,596.892 548.402,593.053 549.533,589.22 550.697,585.391 551.893,581.568 553.121,577.751 554.382,573.939 555.676,570.132 557.001,566.331 558.359,562.536 559.749,558.748 561.171,554.965 562.625,551.189 564.111,547.42 565.629,543.657 567.179,539.901 568.761,536.152 570.375,532.41 572.021,528.676 573.698,524.948 575.406,521.229 577.146,517.517 578.918,513.812 580.721,510.116 582.556,506.428 584.422,502.747 586.318,499.076 588.247,495.413 590.206,491.758 592.196,488.112 594.217,484.476 596.269,480.848 598.351,477.229 600.464,473.62 602.608,470.02 604.783,466.43 606.987,462.849 609.222,459.279 611.488,455.718 613.783,452.168 616.109,448.627 618.465,445.098 620.85,441.578 623.266,438.07 625.711,434.572 628.186,431.085 630.69,427.609 633.224,424.144 635.787,420.691 638.38,417.249 641.001,413.819 643.652,410.4 646.331,406.994 649.04,403.599 651.777,400.217 654.543,396.846 657.337,393.488 660.16,390.142 663.011,386.81 665.891,383.489 668.799,380.182 671.734,376.888 674.698,373.606 677.689,370.338 680.708,367.084 683.755,363.843 686.829,360.615 689.93,357.401 693.059,354.201 696.214,351.015 699.397,347.843 702.606,344.685 705.843,341.542 709.106,338.413 712.395,335.299 715.711,332.199 719.053,329.114 722.421,326.044 725.815,322.989 729.235,319.949 732.68,316.924 736.152,313.915 739.649,310.921 743.171,307.943 746.718,304.981 750.29,302.034 753.888,299.103 757.51,296.189 761.157,293.29 764.828,290.408 768.524,287.542 772.244,284.693 775.988,281.86 779.756,279.044 783.548,276.245 787.364,273.462 791.203,270.697 795.066,267.948 798.951,265.217 802.86,262.504 806.792,259.807 810.747,257.129 814.724,254.468 818.724,251.824 822.746,249.199 826.791,246.591 830.857,244.001 834.946,241.43 839.056,238.876 843.188,236.341 847.341,233.825 851.515,231.327 855.711,228.847 859.927,226.386 864.165,223.944 868.423,221.521 872.701,219.117 877,216.732 881.319,214.366 885.658,212.019 890.017,209.692 894.395,207.384 898.793,205.096 903.211,202.827 907.647,200.578 912.103,198.348 916.577,196.139 921.07,193.949 925.581,191.78 930.111,189.63 934.66,187.5 939.225,185.391 943.809,183.303 948.411,181.234 953.03,179.186 957.666,177.159 962.319,175.152 966.989,173.167 971.677,171.201 976.38,169.257 981.1,167.334 985.837,165.431 990.589,163.55 995.357,161.69 1000.14,159.851 1004.94,158.034 1009.76,156.238 1014.59,154.463 1019.43,152.71 1024.29,150.978 1029.16,149.268 1034.05,147.579 1038.96,145.913 1043.87,144.268 1048.8,142.645 1053.75,141.044 1058.71,139.465 1063.68,137.908 1068.66,136.373 1073.66,134.861 1078.67,133.371 1083.69,131.903 1088.73,130.457 1093.77,129.034 1098.83,127.633 1103.91,126.254 1108.99,124.899 1114.08,123.566 1119.19,122.255 1124.3,120.967 1129.43,119.702 1134.57,118.46 1139.72,117.241 1144.87,116.044 1150.04,114.871 1155.22,113.72 1160.41,112.593 1165.61,111.489 1170.81,110.407 1176.03,109.349 1181.25,108.314 1186.49,107.303 1191.73,106.315 1196.98,105.35 1202.24,104.408 1207.5,103.49 1212.78,102.595 1218.06,101.723 1223.35,100.875 1228.64,100.051 1233.95,99.25 1239.26,98.4727 1244.57,97.7191 1249.89,96.9891 1255.22,96.2827 1260.56,95.6 1265.9,94.9411 1271.24,94.3059 1276.59,93.6945 1281.95,93.1069 1287.31,92.543 1292.67,92.0031 1298.04,91.487 1303.42,90.9948 1308.8,90.5264 1314.18,90.082 1319.56,89.6614 1324.95,89.2649 1330.35,88.8922 1335.74,88.5436 1341.14,88.219 1346.54,87.9184 1351.94,87.6417 1357.35,87.3891 1362.76,87.1605 1368.17,86.9559 1373.58,86.7754 1378.99,86.619 1384.4,86.4866 1389.82,86.3783 1395.24,86.294 1400.65,86.2338 1406.07,86.1977 1411.49,86.1857 "/>
<polyline clip-path="url(#clip462)" style="stroke:#e26f46; stroke-linecap:round; stroke-linejoin:round; stroke-width:16; stroke-opacity:1; fill:none" points="1411.49,86.1857 1415.14,87.0869 1418.79,87.988 1422.45,88.8892 1426.1,89.7903 1429.76,90.7446 1433.42,91.8388 1437.08,92.9884 1440.75,94.1379 1444.41,95.2709 1448.07,96.404 1451.73,97.5385 1455.39,98.6731 1459.06,99.8077 1462.72,100.942 1466.38,102.082 1470.04,103.248 1473.7,104.46 1477.37,105.737 1481.04,107.093 1484.73,108.539 1488.43,110.087 1492.15,111.743 1495.88,113.513 1499.63,115.398 1503.39,117.4 1507.18,119.516 1510.97,121.74 1514.79,124.067 1518.62,126.486 1522.46,128.985 1526.31,131.55 1530.17,134.164 1534.04,136.806 1537.9,139.456 1541.77,142.09 1545.63,144.689 1549.48,147.283 1553.34,149.878 1557.2,152.472 1561.05,155.067 1564.91,157.661 1568.77,160.255 1572.62,162.85 1576.48,165.444 1580.34,168.039 1584.2,170.633 1588.05,173.228 1591.91,175.822 1595.77,178.416 1599.62,181.011 1603.48,183.605 1607.34,186.2 1611.19,188.794 1615.05,191.389 1618.91,193.983 1622.76,196.577 1626.62,199.172 1630.48,201.766 1634.34,204.361 1638.19,206.955 1642.05,209.549 1645.91,212.144 1649.76,214.738 1653.62,217.333 1657.48,219.927 1661.33,222.522 1665.19,225.116 1669.05,227.71 1672.9,230.305 1676.76,232.899 1680.62,235.494 1684.48,238.088 1688.33,240.683 1692.19,243.277 1696.05,245.871 1699.9,248.466 1703.76,251.06 1707.62,253.655 1711.47,256.249 1715.33,258.843 1719.19,261.438 1723.04,264.032 1726.9,266.627 1730.76,269.221 1734.62,271.816 1738.47,274.41 1742.33,277.005 1746.19,279.599 1750.04,282.193 1753.9,284.788 1757.76,287.382 1761.61,289.976 1765.47,292.571 1769.33,295.165 1773.18,297.76 1777.04,300.354 1780.9,302.949 1784.76,305.543 1788.61,308.137 1792.47,310.732 1796.33,313.326 1800.18,315.921 1804.04,318.515 1807.9,321.11 1811.75,323.704 1815.61,326.298 1819.47,328.893 1823.33,331.487 1827.18,334.082 1831.04,336.676 1834.9,339.271 1838.75,341.865 1842.61,344.459 1846.47,347.054 1850.32,349.648 1854.18,352.243 1858.04,354.837 1861.89,357.431 1865.75,360.026 1869.61,362.62 1873.47,365.215 1877.32,367.809 1881.18,370.404 1885.04,372.998 1888.89,375.592 1892.75,378.187 1896.61,380.781 1900.46,383.376 1904.32,385.97 1908.18,388.565 1912.03,391.159 1915.89,393.753 1919.75,396.348 1923.61,398.942 1927.46,401.537 1931.32,404.131 1935.18,406.726 1939.03,409.32 1942.89,411.914 1946.75,414.509 1950.6,417.103 1954.46,419.698 1958.32,422.292 1962.18,424.886 1966.03,427.481 1969.89,430.075 1973.75,432.67 1977.6,435.264 1981.46,437.859 1985.32,440.453 1989.17,443.047 1993.03,445.642 1996.89,448.236 2000.74,450.831 2004.6,453.425 2008.46,456.019 2012.31,458.614 2016.17,461.208 2020.03,463.803 2023.89,466.397 2027.74,468.991 2031.6,471.586 2035.46,474.18 2039.31,476.775 2043.17,479.369 2047.03,481.964 2050.88,484.558 2054.74,487.153 2058.6,489.747 2062.46,492.341 2066.31,494.936 2070.17,497.53 2074.03,500.125 2077.88,502.719 2081.74,505.314 2085.6,507.908 2089.45,510.502 2093.31,513.097 2097.17,515.691 2101.02,518.286 2104.88,520.88 2108.74,523.474 2112.6,526.069 2116.45,528.663 2120.31,531.257 2124.17,533.851 2128.02,536.446 2131.88,539.041 2135.74,541.635 2139.59,544.229 2143.45,546.824 2147.31,549.418 2151.17,552.013 2155.04,554.612 2158.93,557.218 2162.83,559.829 2166.74,562.441 2170.64,565.054 2174.53,567.665 2178.4,570.273 2182.24,572.875 2186.04,575.471 2189.8,578.058 2193.52,580.636 2197.17,583.203 2200.76,585.758 2204.28,588.299 2207.73,590.827 2211.09,593.339 2214.37,595.836 2217.55,598.317 2220.64,600.781 2223.62,603.228 2226.48,605.656 2229.24,608.068 2231.87,610.461 2234.38,612.836 2236.77,615.194 2239.01,617.534 2241.13,619.856 2243.1,622.162 2244.92,624.451 2246.6,626.724 2248.13,628.983 2249.42,631.221 2250.46,633.438 2251.38,635.644 2252.28,637.846 2253.25,640.05 2254.33,642.262 2255.55,644.483 2256.94,646.715 2258.46,648.955 2260.07,651.203 2261.71,653.451 2263.29,655.695 2264.69,657.926 2265.77,660.133 2266.45,662.311 2267.01,664.48 2267.49,666.643 2267.92,668.803 2268.32,670.959 2268.69,673.115 2269.05,675.269 2269.41,677.423 2269.77,679.578 2270.14,681.733 2270.53,683.889 2270.92,686.046 2271.32,688.203 2271.71,690.359 2272.1,692.516 2272.49,694.672 2272.87,696.829 2273.26,698.985 2273.65,701.141 2274.04,703.298 2274.43,705.454 2274.81,707.61 2275.2,709.767 2275.59,711.923 2275.98,714.079 2276.36,716.236 2276.75,718.392 2277.14,720.548 2277.53,722.705 2277.91,724.861 2278.3,727.017 2278.69,729.174 2279.08,731.33 2279.47,733.486 2279.85,735.643 2280.24,737.799 2280.63,739.955 2281,742.114 2281.28,744.278 2281.51,746.448 2281.71,748.621 2281.89,750.795 2282.08,752.968 2282.3,755.138 2282.55,757.306 2282.84,759.469 2283.19,761.627 2283.59,763.781 2284.06,765.929 2284.57,768.071 2285.14,770.209 2285.75,772.342 2286.38,774.473 2287.04,776.6 2287.69,778.727 2288.32,780.855 2288.9,782.986 2289.41,785.121 2289.82,787.264 2290.1,789.416 2290.2,791.581 2290.11,793.761 2289.99,795.943 2289.89,798.123 2289.78,800.304 2289.63,802.489 2289.42,804.679 2289.14,806.875 2288.8,809.077 2288.4,811.285 2287.95,813.497 2287.47,815.711 2286.99,817.926 2286.47,820.15 2285.8,822.398 2285.04,824.662 2284.2,826.934 2283.32,829.21 2282.4,831.486 2281.46,833.76 2280.49,836.03 2279.48,838.299 2278.42,840.569 2277.28,842.844 2276.03,845.129 2274.62,847.433 2273.02,849.763 2271.16,852.131 2268.98,854.548 2266.41,857.029 2263.47,859.57 2260.29,862.147 2256.94,864.753 2253.44,867.384 2249.83,870.033 2246.13,872.697 2242.38,875.372 2238.58,878.055 2234.77,880.743 2230.94,883.433 2227.11,886.124 2223.28,888.815 2219.45,891.506 2215.62,894.197 2211.79,896.888 2207.96,899.579 2204.13,902.269 2200.3,904.96 2196.47,907.651 2192.64,910.342 2188.81,913.032 2184.98,915.723 2181.15,918.414 2177.32,921.105 2173.49,923.796 2169.66,926.486 2165.83,929.177 2162,931.868 2158.17,934.559 2154.34,937.25 2150.51,939.94 2146.68,942.631 2142.85,945.322 2139.02,948.013 2135.19,950.703 2131.36,953.394 2127.53,956.085 2123.7,958.776 2119.87,961.467 2116.04,964.158 2112.21,966.848 2108.38,969.539 2104.55,972.23 2100.72,974.921 2096.89,977.612 2093.06,980.303 2089.23,982.994 2085.4,985.685 2081.57,988.376 2077.74,991.067 2073.91,993.758 2070.07,996.449 2066.24,999.14 2062.41,1001.83 2058.58,1004.52 2054.75,1007.21 2050.92,1009.9 2047.09,1012.59 2043.26,1015.29 2039.43,1017.98 2035.6,1020.67 2031.77,1023.36 2027.94,1026.05 2024.11,1028.74 2020.28,1031.43 2016.45,1034.12 2012.61,1036.81 2008.78,1039.5 2004.95,1042.2 2001.12,1044.89 1997.29,1047.58 1993.46,1050.27 1989.63,1052.96 1985.8,1055.65 1981.97,1058.34 1978.14,1061.03 1974.31,1063.72 1970.48,1066.42 1966.65,1069.11 1962.81,1071.8 1958.98,1074.49 1955.15,1077.18 1951.32,1079.87 1947.49,1082.56 1943.66,1085.25 1939.83,1087.94 1936,1090.63 1932.17,1093.33 1928.34,1096.02 1924.51,1098.71 1920.68,1101.4 1916.85,1104.09 1913.02,1106.78 1909.18,1109.47 1905.35,1112.16 1901.52,1114.85 1897.69,1117.54 1893.86,1120.24 1890.03,1122.93 1886.2,1125.62 1882.37,1128.31 1878.54,1131 1874.71,1133.69 1870.88,1136.38 1867.05,1139.07 1863.22,1141.76 1859.39,1144.45 1855.55,1147.15 1851.72,1149.84 1847.89,1152.53 1844.06,1155.22 1840.23,1157.91 1836.4,1160.6 1832.57,1163.29 1828.74,1165.98 1824.91,1168.67 1821.08,1171.37 1817.25,1174.06 1813.42,1176.75 1809.59,1179.44 1805.76,1182.13 1801.93,1184.82 1798.09,1187.51 1794.26,1190.2 1790.43,1192.89 1786.6,1195.58 1782.77,1198.28 1778.94,1200.97 1775.11,1203.66 1771.28,1206.35 1767.45,1209.04 1763.62,1211.73 1759.79,1214.42 1755.96,1217.11 1752.13,1219.8 1748.3,1222.49 1744.46,1225.19 1740.63,1227.88 1736.8,1230.57 1732.97,1233.26 1729.14,1235.95 1725.31,1238.64 1721.48,1241.33 1717.65,1244.02 1713.82,1246.71 1709.99,1249.4 1706.16,1252.1 1702.33,1254.79 1698.5,1257.48 1694.67,1260.17 1690.84,1262.86 1687,1265.55 1683.17,1268.24 1679.34,1270.93 1675.51,1273.62 1671.68,1276.31 1667.85,1279.01 1664.02,1281.7 1660.19,1284.39 1656.36,1287.08 1652.53,1289.77 1648.7,1292.46 1644.87,1295.15 1641.04,1297.84 1637.21,1300.53 1633.38,1303.22 1629.54,1305.92 1625.71,1308.61 1621.88,1311.3 1618.05,1313.99 1614.22,1316.68 1610.39,1319.37 1606.56,1322.06 1602.73,1324.75 1598.9,1327.44 1595.07,1330.12 1591.26,1332.73 1587.46,1335.27 1583.68,1337.73 1579.91,1340.12 1576.16,1342.44 1572.43,1344.69 1568.7,1346.87 1565,1348.98 1561.3,1351.02 1557.62,1353 1553.94,1354.9 1550.29,1356.74 1546.64,1358.51 1543,1360.22 1539.37,1361.86 1535.76,1363.44 1532.15,1364.96 1528.56,1366.41 1524.97,1367.8 1521.39,1369.13 1517.82,1370.4 1514.26,1371.61 1510.71,1372.75 1507.16,1373.84 1503.62,1374.88 1500.09,1375.85 1496.57,1376.77 1493.05,1377.63 1489.53,1378.43 1486.03,1379.18 1482.52,1379.88 1479.03,1380.52 1475.53,1381.11 1472.04,1381.64 1468.56,1382.12 1465.08,1382.56 1461.6,1382.94 1458.13,1383.27 1454.66,1383.55 1451.19,1383.78 1447.72,1383.97 1444.26,1384.11 1440.8,1384.19 1437.34,1384.24 1433.88,1384.24 1430.42,1384.19 1426.97,1384.1 1423.51,1383.96 1420.06,1383.78 1416.6,1383.55 1413.15,1383.29 1409.69,1382.98 1406.24,1382.63 1402.79,1382.24 1399.33,1381.82 1395.87,1381.35 1392.42,1380.84 1388.96,1380.29 1385.5,1379.71 1382.04,1379.09 1378.58,1378.43 1375.11,1377.74 1371.64,1377.01 1368.18,1376.25 1364.7,1375.45 1361.23,1374.62 1357.76,1373.75 1354.28,1372.85 1350.8,1371.92 1347.31,1370.96 1343.82,1369.97 1340.33,1368.95 1336.84,1367.89 1333.34,1366.81 1329.84,1365.7 1326.34,1364.56 1322.83,1363.39 1319.32,1362.2 1315.81,1360.97 1312.29,1359.73 1308.77,1358.45 1305.24,1357.15 1301.71,1355.83 1298.18,1354.48 1294.64,1353.11 1291.1,1351.72 1287.55,1350.3 1284,1348.86 1280.45,1347.4 1276.89,1345.92 1273.33,1344.41 1269.76,1342.89 1266.19,1341.35 1262.61,1339.79 1259.03,1338.21 1255.45,1336.61 1251.86,1334.99 1248.27,1333.36 1244.67,1331.71 1241.07,1330.04 1237.46,1328.36 1233.86,1326.67 1230.24,1324.96 1226.63,1323.23 1223,1321.49 1219.38,1319.74 1215.75,1317.97 1212.12,1316.19 1208.48,1314.41 1204.84,1312.6 1201.2,1310.79 1197.55,1308.97 1193.9,1307.14 1190.25,1305.3 1186.59,1303.44 1182.93,1301.58 1179.27,1299.72 1175.61,1297.84 1171.94,1295.96 1168.27,1294.07 1164.6,1292.17 1160.92,1290.27 1157.25,1288.36 1153.57,1286.45 1149.89,1284.53 1146.2,1282.61 1142.52,1280.68 1138.83,1278.75 1135.15,1276.82 1131.46,1274.89 1127.77,1272.95 1124.08,1271.01 1120.39,1269.07 1116.7,1267.13 1113.01,1265.19 1109.32,1263.25 1105.63,1261.31 1101.94,1259.37 1098.25,1257.43 1094.56,1255.49 1090.88,1253.56 1087.19,1251.62 1083.51,1249.7 1079.82,1247.77 1076.14,1245.84 1072.47,1243.92 1068.79,1242.01 1065.12,1240.1 1061.45,1238.2 1057.79,1236.3 1054.12,1234.4 1050.46,1232.5 1046.79,1230.6 1043.13,1228.7 1039.46,1226.81 1035.8,1224.91 1032.14,1223.01 1028.47,1221.11 1024.81,1219.21 1021.14,1217.32 1017.48,1215.42 1013.81,1213.52 1010.15,1211.62 1006.49,1209.72 1002.82,1207.83 999.158,1205.93 995.494,1204.03 991.829,1202.13 988.165,1200.23 984.501,1198.34 980.836,1196.44 977.172,1194.54 973.508,1192.64 969.844,1190.75 966.179,1188.85 962.515,1186.95 958.851,1185.05 955.187,1183.15 951.523,1181.26 947.858,1179.36 944.194,1177.46 940.53,1175.56 936.866,1173.66 933.201,1171.77 929.537,1169.87 925.873,1167.97 922.209,1166.07 918.544,1164.17 914.88,1162.28 911.216,1160.38 907.552,1158.48 903.887,1156.58 900.223,1154.68 896.559,1152.79 892.895,1150.89 889.23,1148.99 885.566,1147.09 881.902,1145.19 878.238,1143.3 874.573,1141.4 870.909,1139.5 867.245,1137.6 863.581,1135.71 859.917,1133.81 856.252,1131.91 852.588,1130.01 848.924,1128.11 845.26,1126.22 841.596,1124.32 837.931,1122.42 834.267,1120.52 830.603,1118.62 826.939,1116.73 823.274,1114.83 819.61,1112.93 815.946,1111.03 812.281,1109.13 808.617,1107.24 804.953,1105.34 801.289,1103.44 797.624,1101.54 793.96,1099.65 790.296,1097.75 786.632,1095.85 782.968,1093.95 779.303,1092.05 775.639,1090.16 771.975,1088.26 768.311,1086.36 764.646,1084.46 760.982,1082.56 757.318,1080.67 753.653,1078.77 749.989,1076.87 746.325,1074.97 742.661,1073.07 738.996,1071.18 735.332,1069.28 731.668,1067.38 728.004,1065.48 724.34,1063.58 720.675,1061.69 717.011,1059.79 713.347,1057.89 709.683,1055.99 706.018,1054.09 702.354,1052.2 698.69,1050.3 695.026,1048.4 691.361,1046.5 687.697,1044.61 684.033,1042.71 680.369,1040.81 676.704,1038.91 673.04,1037.01 669.376,1035.12 665.712,1033.22 662.047,1031.32 658.383,1029.42 654.719,1027.52 651.055,1025.63 647.391,1023.73 643.726,1021.83 640.062,1019.93 636.398,1018.03 632.733,1016.14 629.069,1014.24 625.405,1012.34 621.741,1010.44 618.077,1008.54 614.412,1006.65 610.748,1004.75 607.084,1002.85 603.42,1000.95 599.755,999.055 596.091,997.158 592.427,995.26 588.763,993.362 585.098,991.464 581.434,989.566 577.771,987.668 574.106,985.77 570.442,983.872 566.777,981.974 563.113,980.076 559.449,978.178 555.784,976.28 552.121,974.383 548.456,972.485 544.792,970.587 541.127,968.689 537.463,966.791 533.799,964.893 530.135,962.995 526.471,961.098 522.807,959.199 519.142,957.301 515.478,955.404 511.814,953.505 508.119,951.603 504.327,949.687 500.446,947.759 496.49,945.821 492.47,943.873 488.396,941.918 484.281,939.958 480.135,937.993 475.969,936.025 471.791,934.056 467.611,932.086 463.439,930.117 459.284,928.151 455.152,926.188 451.054,924.23 446.995,922.277 442.983,920.331 439.025,918.392 435.128,916.461 431.296,914.54 427.536,912.629 423.853,910.728 420.251,908.839 416.736,906.962 413.31,905.097 409.978,903.246 406.743,901.407 403.608,899.583 400.574,897.773 397.646,895.977 394.822,894.197 392.106,892.431 389.498,890.68 386.999,888.944 384.608,887.223 382.325,885.518 380.15,883.827 378.082,882.152 376.118,880.49 374.258,878.844 372.499,877.211 370.839,875.592 369.274,873.986 367.801,872.394 366.416,870.813 365.115,869.244 363.893,867.686 362.746,866.139 361.668,864.601 360.654,863.072 359.696,861.551 358.79,860.037 357.927,858.529 357.101,857.026 356.303,855.527 355.526,854.032 354.762,852.537 354,851.043 353.233,849.549 352.45,848.052 351.642,846.552 350.798,845.046 349.907,843.535 348.957,842.015 347.946,840.489 346.888,838.959 345.798,837.427 344.691,835.894 343.582,834.36 342.483,832.827 341.404,831.296 340.357,829.767 339.35,828.242 338.391,826.72 337.486,825.203 336.64,823.691 335.857,822.183 335.141,820.682 334.493,819.185 333.913,817.694 333.401,816.209 332.955,814.729 332.571,813.254 332.245,811.783 331.971,810.317 331.743,808.854 331.553,807.395 331.39,805.938 331.246,804.482 331.108,803.027 330.964,801.571 330.799,800.114 330.606,798.654 330.411,797.194 330.216,795.734 330.021,794.275 329.826,792.815 329.631,791.355 329.436,789.895 329.241,788.435 329.046,786.975 328.851,785.516 328.656,784.056 328.461,782.596 328.266,781.136 328.071,779.676 327.876,778.216 327.681,776.757 327.486,775.297 327.291,773.837 327.096,772.377 326.9,770.917 326.705,769.457 326.51,767.997 326.315,766.538 326.12,765.078 325.925,763.618 325.73,762.158 325.535,760.698 325.34,759.238 325.145,757.779 324.95,756.319 324.755,754.859 324.56,753.399 324.365,751.939 324.17,750.479 323.975,749.02 323.776,747.56 323.566,746.101 323.344,744.642 323.111,743.184 322.87,741.726 322.621,740.269 322.366,738.811 322.106,737.354 321.843,735.898 321.576,734.441 321.309,732.984 321.041,731.528 320.773,730.071 320.507,728.614 320.244,727.158 319.984,725.701 319.729,724.243 319.479,722.786 319.235,721.328 318.997,719.87 318.768,718.412 318.546,716.953 318.334,715.494 318.131,714.035 317.938,712.575 317.755,711.115 317.584,709.654 317.424,708.192 317.276,706.73 317.141,705.268 317.018,703.805 316.907,702.341 316.81,700.877 316.727,699.412 316.657,697.947 316.6,696.481 316.558,695.014 316.529,693.547 316.513,692.079 316.512,690.611 316.525,689.142 316.55,687.672 316.59,686.202 316.642,684.731 316.708,683.26 316.786,681.788 316.877,680.316 316.98,678.843 317.095,677.369 317.221,675.895 317.357,674.421 317.504,672.946 317.661,671.47 317.827,669.994 318.001,668.518 318.184,667.042 318.373,665.565 318.569,664.088 318.77,662.61 318.977,661.133 319.187,659.655 319.4,658.177 319.616,656.699 319.832,655.221 320.049,653.743 320.264,652.265 320.478,650.787 320.688,649.309 320.894,647.832 321.094,646.355 321.287,644.878 321.477,643.401 321.677,641.924 321.892,640.446 322.127,638.966 322.387,637.485 322.675,636.002 322.994,634.516 323.347,633.027 323.734,631.535 324.156,630.04 324.614,628.541 325.108,627.04 325.635,625.535 326.194,624.027 326.782,622.517 327.396,621.004 328.032,619.49 328.685,617.973 329.35,616.456 330.021,614.938 330.69,613.42 331.351,611.903 "/>
<path clip-path="url(#clip460)" d="M327.056 1377.32 L750.198 1377.32 L750.198 1221.8 L327.056 1221.8  Z" fill="#ffffff" fill-rule="evenodd" fill-opacity="1"/>
<polyline clip-path="url(#clip460)" style="stroke:#000000; stroke-linecap:round; stroke-linejoin:round; stroke-width:4; stroke-opacity:1; fill:none" points="327.056,1377.32 750.198,1377.32 750.198,1221.8 327.056,1221.8 327.056,1377.32 "/>
<polyline clip-path="url(#clip460)" style="stroke:#009af9; stroke-linecap:round; stroke-linejoin:round; stroke-width:16; stroke-opacity:1; fill:none" points="350.34,1273.64 490.043,1273.64 "/>
<path clip-path="url(#clip460)" d="M529.345 1259.53 Q524.253 1259.53 521.244 1263.32 Q518.258 1267.12 518.258 1273.67 Q518.258 1280.2 521.244 1283.99 Q524.253 1287.79 529.345 1287.79 Q534.438 1287.79 537.401 1283.99 Q540.387 1280.2 540.387 1273.67 Q540.387 1267.12 537.401 1263.32 Q534.438 1259.53 529.345 1259.53 M529.345 1255.73 Q536.614 1255.73 540.966 1260.61 Q545.318 1265.48 545.318 1273.67 Q545.318 1281.84 540.966 1286.73 Q536.614 1291.59 529.345 1291.59 Q522.054 1291.59 517.679 1286.73 Q513.327 1281.86 513.327 1273.67 Q513.327 1265.48 517.679 1260.61 Q522.054 1255.73 529.345 1255.73 Z" fill="#000000" fill-rule="nonzero" fill-opacity="1" /><path clip-path="url(#clip460)" d="M567.47 1268.97 Q566.753 1268.55 565.896 1268.37 Q565.063 1268.16 564.044 1268.16 Q560.433 1268.16 558.489 1270.52 Q556.568 1272.86 556.568 1277.26 L556.568 1290.92 L552.285 1290.92 L552.285 1264.99 L556.568 1264.99 L556.568 1269.02 Q557.91 1266.66 560.063 1265.52 Q562.216 1264.36 565.294 1264.36 Q565.734 1264.36 566.267 1264.43 Q566.799 1264.48 567.447 1264.6 L567.47 1268.97 Z" fill="#000000" fill-rule="nonzero" fill-opacity="1" /><path clip-path="url(#clip460)" d="M571.938 1264.99 L576.197 1264.99 L576.197 1290.92 L571.938 1290.92 L571.938 1264.99 M571.938 1254.9 L576.197 1254.9 L576.197 1260.29 L571.938 1260.29 L571.938 1254.9 Z" fill="#000000" fill-rule="nonzero" fill-opacity="1" /><path clip-path="url(#clip460)" d="M602.169 1277.65 Q602.169 1273.02 600.248 1270.48 Q598.35 1267.93 594.901 1267.93 Q591.475 1267.93 589.553 1270.48 Q587.655 1273.02 587.655 1277.65 Q587.655 1282.26 589.553 1284.8 Q591.475 1287.35 594.901 1287.35 Q598.35 1287.35 600.248 1284.8 Q602.169 1282.26 602.169 1277.65 M606.428 1287.7 Q606.428 1294.32 603.489 1297.54 Q600.549 1300.78 594.484 1300.78 Q592.239 1300.78 590.248 1300.43 Q588.257 1300.11 586.382 1299.41 L586.382 1295.27 Q588.257 1296.29 590.086 1296.77 Q591.915 1297.26 593.813 1297.26 Q598.003 1297.26 600.086 1295.06 Q602.169 1292.88 602.169 1288.46 L602.169 1286.36 Q600.85 1288.65 598.79 1289.78 Q596.729 1290.92 593.859 1290.92 Q589.091 1290.92 586.174 1287.28 Q583.257 1283.65 583.257 1277.65 Q583.257 1271.63 586.174 1268 Q589.091 1264.36 593.859 1264.36 Q596.729 1264.36 598.79 1265.5 Q600.85 1266.63 602.169 1268.92 L602.169 1264.99 L606.428 1264.99 L606.428 1287.7 Z" fill="#000000" fill-rule="nonzero" fill-opacity="1" /><path clip-path="url(#clip460)" d="M615.201 1264.99 L619.461 1264.99 L619.461 1290.92 L615.201 1290.92 L615.201 1264.99 M615.201 1254.9 L619.461 1254.9 L619.461 1260.29 L615.201 1260.29 L615.201 1254.9 Z" fill="#000000" fill-rule="nonzero" fill-opacity="1" /><path clip-path="url(#clip460)" d="M649.924 1275.27 L649.924 1290.92 L645.664 1290.92 L645.664 1275.41 Q645.664 1271.73 644.229 1269.9 Q642.794 1268.07 639.924 1268.07 Q636.475 1268.07 634.484 1270.27 Q632.493 1272.47 632.493 1276.26 L632.493 1290.92 L628.211 1290.92 L628.211 1264.99 L632.493 1264.99 L632.493 1269.02 Q634.021 1266.68 636.081 1265.52 Q638.164 1264.36 640.873 1264.36 Q645.34 1264.36 647.632 1267.14 Q649.924 1269.9 649.924 1275.27 Z" fill="#000000" fill-rule="nonzero" fill-opacity="1" /><path clip-path="url(#clip460)" d="M670.201 1277.88 Q665.039 1277.88 663.048 1279.06 Q661.058 1280.24 661.058 1283.09 Q661.058 1285.36 662.539 1286.7 Q664.044 1288.02 666.613 1288.02 Q670.155 1288.02 672.285 1285.52 Q674.437 1283 674.437 1278.83 L674.437 1277.88 L670.201 1277.88 M678.697 1276.12 L678.697 1290.92 L674.437 1290.92 L674.437 1286.98 Q672.979 1289.34 670.803 1290.48 Q668.627 1291.59 665.479 1291.59 Q661.498 1291.59 659.136 1289.36 Q656.798 1287.12 656.798 1283.37 Q656.798 1278.99 659.715 1276.77 Q662.655 1274.55 668.465 1274.55 L674.437 1274.55 L674.437 1274.13 Q674.437 1271.19 672.493 1269.6 Q670.572 1267.98 667.076 1267.98 Q664.854 1267.98 662.748 1268.51 Q660.641 1269.04 658.697 1270.11 L658.697 1266.17 Q661.035 1265.27 663.234 1264.83 Q665.433 1264.36 667.516 1264.36 Q673.141 1264.36 675.919 1267.28 Q678.697 1270.2 678.697 1276.12 Z" fill="#000000" fill-rule="nonzero" fill-opacity="1" /><path clip-path="url(#clip460)" d="M687.47 1254.9 L691.729 1254.9 L691.729 1290.92 L687.47 1290.92 L687.47 1254.9 Z" fill="#000000" fill-rule="nonzero" fill-opacity="1" /><polyline clip-path="url(#clip460)" style="stroke:#e26f46; stroke-linecap:round; stroke-linejoin:round; stroke-width:16; stroke-opacity:1; fill:none" points="350.34,1325.48 490.043,1325.48 "/>
<path clip-path="url(#clip460)" d="M518.003 1312.04 L518.003 1325.02 L523.883 1325.02 Q527.146 1325.02 528.929 1323.33 Q530.711 1321.64 530.711 1318.52 Q530.711 1315.42 528.929 1313.73 Q527.146 1312.04 523.883 1312.04 L518.003 1312.04 M513.327 1308.2 L523.883 1308.2 Q529.693 1308.2 532.656 1310.83 Q535.642 1313.45 535.642 1318.52 Q535.642 1323.64 532.656 1326.25 Q529.693 1328.87 523.883 1328.87 L518.003 1328.87 L518.003 1342.76 L513.327 1342.76 L513.327 1308.2 Z" fill="#000000" fill-rule="nonzero" fill-opacity="1" /><path clip-path="url(#clip460)" d="M555.919 1320.81 Q555.202 1320.39 554.345 1320.21 Q553.512 1320 552.493 1320 Q548.882 1320 546.938 1322.36 Q545.017 1324.7 545.017 1329.1 L545.017 1342.76 L540.734 1342.76 L540.734 1316.83 L545.017 1316.83 L545.017 1320.86 Q546.359 1318.5 548.512 1317.36 Q550.665 1316.2 553.743 1316.2 Q554.183 1316.2 554.716 1316.27 Q555.248 1316.32 555.896 1316.44 L555.919 1320.81 Z" fill="#000000" fill-rule="nonzero" fill-opacity="1" /><path clip-path="url(#clip460)" d="M581.521 1328.73 L581.521 1330.81 L561.938 1330.81 Q562.216 1335.21 564.577 1337.52 Q566.961 1339.82 571.197 1339.82 Q573.651 1339.82 575.942 1339.21 Q578.257 1338.61 580.526 1337.41 L580.526 1341.44 Q578.234 1342.41 575.827 1342.92 Q573.419 1343.43 570.942 1343.43 Q564.739 1343.43 561.105 1339.82 Q557.493 1336.2 557.493 1330.05 Q557.493 1323.68 560.919 1319.95 Q564.368 1316.2 570.202 1316.2 Q575.433 1316.2 578.466 1319.58 Q581.521 1322.94 581.521 1328.73 M577.262 1327.48 Q577.216 1323.98 575.294 1321.9 Q573.396 1319.82 570.248 1319.82 Q566.683 1319.82 564.53 1321.83 Q562.401 1323.84 562.077 1327.5 L577.262 1327.48 Z" fill="#000000" fill-rule="nonzero" fill-opacity="1" /><path clip-path="url(#clip460)" d="M605.572 1320.76 L605.572 1306.74 L609.831 1306.74 L609.831 1342.76 L605.572 1342.76 L605.572 1338.87 Q604.229 1341.18 602.169 1342.32 Q600.132 1343.43 597.262 1343.43 Q592.563 1343.43 589.6 1339.68 Q586.66 1335.93 586.66 1329.82 Q586.66 1323.7 589.6 1319.95 Q592.563 1316.2 597.262 1316.2 Q600.132 1316.2 602.169 1317.34 Q604.229 1318.45 605.572 1320.76 M591.058 1329.82 Q591.058 1334.51 592.979 1337.2 Q594.924 1339.86 598.303 1339.86 Q601.683 1339.86 603.627 1337.2 Q605.572 1334.51 605.572 1329.82 Q605.572 1325.12 603.627 1322.45 Q601.683 1319.77 598.303 1319.77 Q594.924 1319.77 592.979 1322.45 Q591.058 1325.12 591.058 1329.82 Z" fill="#000000" fill-rule="nonzero" fill-opacity="1" /><path clip-path="url(#clip460)" d="M618.604 1316.83 L622.863 1316.83 L622.863 1342.76 L618.604 1342.76 L618.604 1316.83 M618.604 1306.74 L622.863 1306.74 L622.863 1312.13 L618.604 1312.13 L618.604 1306.74 Z" fill="#000000" fill-rule="nonzero" fill-opacity="1" /><path clip-path="url(#clip460)" d="M650.433 1317.82 L650.433 1321.81 Q648.627 1320.81 646.799 1320.32 Q644.993 1319.82 643.141 1319.82 Q638.998 1319.82 636.706 1322.45 Q634.414 1325.07 634.414 1329.82 Q634.414 1334.56 636.706 1337.2 Q638.998 1339.82 643.141 1339.82 Q644.993 1339.82 646.799 1339.33 Q648.627 1338.82 650.433 1337.82 L650.433 1341.76 Q648.65 1342.59 646.729 1343.01 Q644.831 1343.43 642.678 1343.43 Q636.822 1343.43 633.373 1339.75 Q629.924 1336.07 629.924 1329.82 Q629.924 1323.47 633.396 1319.84 Q636.891 1316.2 642.956 1316.2 Q644.924 1316.2 646.799 1316.62 Q648.674 1317.01 650.433 1317.82 Z" fill="#000000" fill-rule="nonzero" fill-opacity="1" /><path clip-path="url(#clip460)" d="M662.053 1309.47 L662.053 1316.83 L670.826 1316.83 L670.826 1320.14 L662.053 1320.14 L662.053 1334.21 Q662.053 1337.38 662.91 1338.29 Q663.789 1339.19 666.451 1339.19 L670.826 1339.19 L670.826 1342.76 L666.451 1342.76 Q661.521 1342.76 659.646 1340.93 Q657.771 1339.07 657.771 1334.21 L657.771 1320.14 L654.646 1320.14 L654.646 1316.83 L657.771 1316.83 L657.771 1309.47 L662.053 1309.47 Z" fill="#000000" fill-rule="nonzero" fill-opacity="1" /><path clip-path="url(#clip460)" d="M698.604 1328.73 L698.604 1330.81 L679.021 1330.81 Q679.298 1335.21 681.659 1337.52 Q684.044 1339.82 688.28 1339.82 Q690.733 1339.82 693.025 1339.21 Q695.34 1338.61 697.608 1337.41 L697.608 1341.44 Q695.317 1342.41 692.909 1342.92 Q690.502 1343.43 688.025 1343.43 Q681.822 1343.43 678.187 1339.82 Q674.576 1336.2 674.576 1330.05 Q674.576 1323.68 678.002 1319.95 Q681.451 1316.2 687.284 1316.2 Q692.516 1316.2 695.548 1319.58 Q698.604 1322.94 698.604 1328.73 M694.345 1327.48 Q694.298 1323.98 692.377 1321.9 Q690.479 1319.82 687.331 1319.82 Q683.766 1319.82 681.613 1321.83 Q679.484 1323.84 679.159 1327.5 L694.345 1327.48 Z" fill="#000000" fill-rule="nonzero" fill-opacity="1" /><path clip-path="url(#clip460)" d="M722.655 1320.76 L722.655 1306.74 L726.914 1306.74 L726.914 1342.76 L722.655 1342.76 L722.655 1338.87 Q721.312 1341.18 719.252 1342.32 Q717.215 1343.43 714.344 1343.43 Q709.645 1343.43 706.682 1339.68 Q703.743 1335.93 703.743 1329.82 Q703.743 1323.7 706.682 1319.95 Q709.645 1316.2 714.344 1316.2 Q717.215 1316.2 719.252 1317.34 Q721.312 1318.45 722.655 1320.76 M708.141 1329.82 Q708.141 1334.51 710.062 1337.2 Q712.007 1339.86 715.386 1339.86 Q718.766 1339.86 720.71 1337.2 Q722.655 1334.51 722.655 1329.82 Q722.655 1325.12 720.71 1322.45 Q718.766 1319.77 715.386 1319.77 Q712.007 1319.77 710.062 1322.45 Q708.141 1325.12 708.141 1329.82 Z" fill="#000000" fill-rule="nonzero" fill-opacity="1" /></svg>
