<?xml version="1.0" encoding="utf-8"?>
<svg xmlns="http://www.w3.org/2000/svg" xmlns:xlink="http://www.w3.org/1999/xlink" width="600" height="400" viewBox="0 0 2400 1600">
<defs>
  <clipPath id="clip340">
    <rect x="0" y="0" width="2400" height="1600"/>
  </clipPath>
</defs>
<path clip-path="url(#clip340)" d="M0 1600 L2400 1600 L2400 0 L0 0  Z" fill="#ffffff" fill-rule="evenodd" fill-opacity="1"/>
<defs>
  <clipPath id="clip341">
    <rect x="480" y="0" width="1681" height="1600"/>
  </clipPath>
</defs>
<path clip-path="url(#clip340)" d="M257.204 1423.18 L2352.76 1423.18 L2352.76 47.2441 L257.204 47.2441  Z" fill="#ffffff" fill-rule="evenodd" fill-opacity="1"/>
<defs>
  <clipPath id="clip342">
    <rect x="257" y="47" width="2097" height="1377"/>
  </clipPath>
</defs>
<polyline clip-path="url(#clip342)" style="stroke:#000000; stroke-linecap:round; stroke-linejoin:round; stroke-width:2; stroke-opacity:0.1; fill:none" points="316.511,1423.18 316.511,47.2441 "/>
<polyline clip-path="url(#clip342)" style="stroke:#000000; stroke-linecap:round; stroke-linejoin:round; stroke-width:2; stroke-opacity:0.1; fill:none" points="810.745,1423.18 810.745,47.2441 "/>
<polyline clip-path="url(#clip342)" style="stroke:#000000; stroke-linecap:round; stroke-linejoin:round; stroke-width:2; stroke-opacity:0.1; fill:none" points="1304.98,1423.18 1304.98,47.2441 "/>
<polyline clip-path="url(#clip342)" style="stroke:#000000; stroke-linecap:round; stroke-linejoin:round; stroke-width:2; stroke-opacity:0.1; fill:none" points="1799.21,1423.18 1799.21,47.2441 "/>
<polyline clip-path="url(#clip342)" style="stroke:#000000; stroke-linecap:round; stroke-linejoin:round; stroke-width:2; stroke-opacity:0.1; fill:none" points="2293.45,1423.18 2293.45,47.2441 "/>
<polyline clip-path="url(#clip340)" style="stroke:#000000; stroke-linecap:round; stroke-linejoin:round; stroke-width:4; stroke-opacity:1; fill:none" points="257.204,1423.18 2352.76,1423.18 "/>
<polyline clip-path="url(#clip340)" style="stroke:#000000; stroke-linecap:round; stroke-linejoin:round; stroke-width:4; stroke-opacity:1; fill:none" points="316.511,1423.18 316.511,1404.28 "/>
<polyline clip-path="url(#clip340)" style="stroke:#000000; stroke-linecap:round; stroke-linejoin:round; stroke-width:4; stroke-opacity:1; fill:none" points="810.745,1423.18 810.745,1404.28 "/>
<polyline clip-path="url(#clip340)" style="stroke:#000000; stroke-linecap:round; stroke-linejoin:round; stroke-width:4; stroke-opacity:1; fill:none" points="1304.98,1423.18 1304.98,1404.28 "/>
<polyline clip-path="url(#clip340)" style="stroke:#000000; stroke-linecap:round; stroke-linejoin:round; stroke-width:4; stroke-opacity:1; fill:none" points="1799.21,1423.18 1799.21,1404.28 "/>
<polyline clip-path="url(#clip340)" style="stroke:#000000; stroke-linecap:round; stroke-linejoin:round; stroke-width:4; stroke-opacity:1; fill:none" points="2293.45,1423.18 2293.45,1404.28 "/>
<path clip-path="url(#clip340)" d="M263.039 1468.75 L292.715 1468.75 L292.715 1472.69 L263.039 1472.69 L263.039 1468.75 Z" fill="#000000" fill-rule="nonzero" fill-opacity="1" /><path clip-path="url(#clip340)" d="M303.617 1481.64 L311.256 1481.64 L311.256 1455.28 L302.946 1456.95 L302.946 1452.69 L311.21 1451.02 L315.886 1451.02 L315.886 1481.64 L323.525 1481.64 L323.525 1485.58 L303.617 1485.58 L303.617 1481.64 Z" fill="#000000" fill-rule="nonzero" fill-opacity="1" /><path clip-path="url(#clip340)" d="M332.969 1479.7 L337.853 1479.7 L337.853 1485.58 L332.969 1485.58 L332.969 1479.7 Z" fill="#000000" fill-rule="nonzero" fill-opacity="1" /><path clip-path="url(#clip340)" d="M358.038 1454.1 Q354.427 1454.1 352.599 1457.66 Q350.793 1461.2 350.793 1468.33 Q350.793 1475.44 352.599 1479.01 Q354.427 1482.55 358.038 1482.55 Q361.673 1482.55 363.478 1479.01 Q365.307 1475.44 365.307 1468.33 Q365.307 1461.2 363.478 1457.66 Q361.673 1454.1 358.038 1454.1 M358.038 1450.39 Q363.849 1450.39 366.904 1455 Q369.983 1459.58 369.983 1468.33 Q369.983 1477.06 366.904 1481.67 Q363.849 1486.25 358.038 1486.25 Q352.228 1486.25 349.15 1481.67 Q346.094 1477.06 346.094 1468.33 Q346.094 1459.58 349.15 1455 Q352.228 1450.39 358.038 1450.39 Z" fill="#000000" fill-rule="nonzero" fill-opacity="1" /><path clip-path="url(#clip340)" d="M757.771 1468.75 L787.447 1468.75 L787.447 1472.69 L757.771 1472.69 L757.771 1468.75 Z" fill="#000000" fill-rule="nonzero" fill-opacity="1" /><path clip-path="url(#clip340)" d="M807.539 1454.1 Q803.928 1454.1 802.1 1457.66 Q800.294 1461.2 800.294 1468.33 Q800.294 1475.44 802.1 1479.01 Q803.928 1482.55 807.539 1482.55 Q811.174 1482.55 812.979 1479.01 Q814.808 1475.44 814.808 1468.33 Q814.808 1461.2 812.979 1457.66 Q811.174 1454.1 807.539 1454.1 M807.539 1450.39 Q813.35 1450.39 816.405 1455 Q819.484 1459.58 819.484 1468.33 Q819.484 1477.06 816.405 1481.67 Q813.35 1486.25 807.539 1486.25 Q801.729 1486.25 798.651 1481.67 Q795.595 1477.06 795.595 1468.33 Q795.595 1459.58 798.651 1455 Q801.729 1450.39 807.539 1450.39 Z" fill="#000000" fill-rule="nonzero" fill-opacity="1" /><path clip-path="url(#clip340)" d="M827.701 1479.7 L832.586 1479.7 L832.586 1485.58 L827.701 1485.58 L827.701 1479.7 Z" fill="#000000" fill-rule="nonzero" fill-opacity="1" /><path clip-path="url(#clip340)" d="M842.817 1451.02 L861.173 1451.02 L861.173 1454.96 L847.099 1454.96 L847.099 1463.43 Q848.118 1463.08 849.136 1462.92 Q850.155 1462.73 851.173 1462.73 Q856.96 1462.73 860.34 1465.9 Q863.72 1469.08 863.72 1474.49 Q863.72 1480.07 860.247 1483.17 Q856.775 1486.25 850.456 1486.25 Q848.28 1486.25 846.011 1485.88 Q843.766 1485.51 841.359 1484.77 L841.359 1480.07 Q843.442 1481.2 845.664 1481.76 Q847.886 1482.32 850.363 1482.32 Q854.368 1482.32 856.706 1480.21 Q859.044 1478.1 859.044 1474.49 Q859.044 1470.88 856.706 1468.77 Q854.368 1466.67 850.363 1466.67 Q848.488 1466.67 846.613 1467.08 Q844.761 1467.5 842.817 1468.38 L842.817 1451.02 Z" fill="#000000" fill-rule="nonzero" fill-opacity="1" /><path clip-path="url(#clip340)" d="M1282.36 1454.1 Q1278.75 1454.1 1276.92 1457.66 Q1275.12 1461.2 1275.12 1468.33 Q1275.12 1475.44 1276.92 1479.01 Q1278.75 1482.55 1282.36 1482.55 Q1286 1482.55 1287.8 1479.01 Q1289.63 1475.44 1289.63 1468.33 Q1289.63 1461.2 1287.8 1457.66 Q1286 1454.1 1282.36 1454.1 M1282.36 1450.39 Q1288.17 1450.39 1291.23 1455 Q1294.31 1459.58 1294.31 1468.33 Q1294.31 1477.06 1291.23 1481.67 Q1288.17 1486.25 1282.36 1486.25 Q1276.55 1486.25 1273.48 1481.67 Q1270.42 1477.06 1270.42 1468.33 Q1270.42 1459.58 1273.48 1455 Q1276.55 1450.39 1282.36 1450.39 Z" fill="#000000" fill-rule="nonzero" fill-opacity="1" /><path clip-path="url(#clip340)" d="M1302.53 1479.7 L1307.41 1479.7 L1307.41 1485.58 L1302.53 1485.58 L1302.53 1479.7 Z" fill="#000000" fill-rule="nonzero" fill-opacity="1" /><path clip-path="url(#clip340)" d="M1327.6 1454.1 Q1323.98 1454.1 1322.16 1457.66 Q1320.35 1461.2 1320.35 1468.33 Q1320.35 1475.44 1322.16 1479.01 Q1323.98 1482.55 1327.6 1482.55 Q1331.23 1482.55 1333.04 1479.01 Q1334.86 1475.44 1334.86 1468.33 Q1334.86 1461.2 1333.04 1457.66 Q1331.23 1454.1 1327.6 1454.1 M1327.6 1450.39 Q1333.41 1450.39 1336.46 1455 Q1339.54 1459.58 1339.54 1468.33 Q1339.54 1477.06 1336.46 1481.67 Q1333.41 1486.25 1327.6 1486.25 Q1321.79 1486.25 1318.71 1481.67 Q1315.65 1477.06 1315.65 1468.33 Q1315.65 1459.58 1318.71 1455 Q1321.79 1450.39 1327.6 1450.39 Z" fill="#000000" fill-rule="nonzero" fill-opacity="1" /><path clip-path="url(#clip340)" d="M1777.1 1454.1 Q1773.49 1454.1 1771.66 1457.66 Q1769.85 1461.2 1769.85 1468.33 Q1769.85 1475.44 1771.66 1479.01 Q1773.49 1482.55 1777.1 1482.55 Q1780.73 1482.55 1782.54 1479.01 Q1784.37 1475.44 1784.37 1468.33 Q1784.37 1461.2 1782.54 1457.66 Q1780.73 1454.1 1777.1 1454.1 M1777.1 1450.39 Q1782.91 1450.39 1785.96 1455 Q1789.04 1459.58 1789.04 1468.33 Q1789.04 1477.06 1785.96 1481.67 Q1782.91 1486.25 1777.1 1486.25 Q1771.29 1486.25 1768.21 1481.67 Q1765.15 1477.06 1765.15 1468.33 Q1765.15 1459.58 1768.21 1455 Q1771.29 1450.39 1777.1 1450.39 Z" fill="#000000" fill-rule="nonzero" fill-opacity="1" /><path clip-path="url(#clip340)" d="M1797.26 1479.7 L1802.14 1479.7 L1802.14 1485.58 L1797.26 1485.58 L1797.26 1479.7 Z" fill="#000000" fill-rule="nonzero" fill-opacity="1" /><path clip-path="url(#clip340)" d="M1812.37 1451.02 L1830.73 1451.02 L1830.73 1454.96 L1816.66 1454.96 L1816.66 1463.43 Q1817.68 1463.08 1818.69 1462.92 Q1819.71 1462.73 1820.73 1462.73 Q1826.52 1462.73 1829.9 1465.9 Q1833.28 1469.08 1833.28 1474.49 Q1833.28 1480.07 1829.8 1483.17 Q1826.33 1486.25 1820.01 1486.25 Q1817.84 1486.25 1815.57 1485.88 Q1813.32 1485.51 1810.92 1484.77 L1810.92 1480.07 Q1813 1481.2 1815.22 1481.76 Q1817.44 1482.32 1819.92 1482.32 Q1823.93 1482.32 1826.26 1480.21 Q1828.6 1478.1 1828.6 1474.49 Q1828.6 1470.88 1826.26 1468.77 Q1823.93 1466.67 1819.92 1466.67 Q1818.05 1466.67 1816.17 1467.08 Q1814.32 1467.5 1812.37 1468.38 L1812.37 1451.02 Z" fill="#000000" fill-rule="nonzero" fill-opacity="1" /><path clip-path="url(#clip340)" d="M2260.6 1481.64 L2268.24 1481.64 L2268.24 1455.28 L2259.93 1456.95 L2259.93 1452.69 L2268.19 1451.02 L2272.87 1451.02 L2272.87 1481.64 L2280.51 1481.64 L2280.51 1485.58 L2260.6 1485.58 L2260.6 1481.64 Z" fill="#000000" fill-rule="nonzero" fill-opacity="1" /><path clip-path="url(#clip340)" d="M2289.95 1479.7 L2294.84 1479.7 L2294.84 1485.58 L2289.95 1485.58 L2289.95 1479.7 Z" fill="#000000" fill-rule="nonzero" fill-opacity="1" /><path clip-path="url(#clip340)" d="M2315.02 1454.1 Q2311.41 1454.1 2309.58 1457.66 Q2307.78 1461.2 2307.78 1468.33 Q2307.78 1475.44 2309.58 1479.01 Q2311.41 1482.55 2315.02 1482.55 Q2318.66 1482.55 2320.46 1479.01 Q2322.29 1475.44 2322.29 1468.33 Q2322.29 1461.2 2320.46 1457.66 Q2318.66 1454.1 2315.02 1454.1 M2315.02 1450.39 Q2320.83 1450.39 2323.89 1455 Q2326.97 1459.58 2326.97 1468.33 Q2326.97 1477.06 2323.89 1481.67 Q2320.83 1486.25 2315.02 1486.25 Q2309.21 1486.25 2306.13 1481.67 Q2303.08 1477.06 2303.08 1468.33 Q2303.08 1459.58 2306.13 1455 Q2309.21 1450.39 2315.02 1450.39 Z" fill="#000000" fill-rule="nonzero" fill-opacity="1" /><path clip-path="url(#clip340)" d="M1134.03 1525.81 L1134.03 1543.66 L1142.11 1543.66 Q1146.6 1543.66 1149.05 1541.34 Q1151.5 1539.02 1151.5 1534.72 Q1151.5 1530.45 1149.05 1528.13 Q1146.6 1525.81 1142.11 1525.81 L1134.03 1525.81 M1127.6 1520.52 L1142.11 1520.52 Q1150.1 1520.52 1154.18 1524.15 Q1158.28 1527.75 1158.28 1534.72 Q1158.28 1541.75 1154.18 1545.35 Q1150.1 1548.95 1142.11 1548.95 L1134.03 1548.95 L1134.03 1568.04 L1127.6 1568.04 L1127.6 1520.52 Z" fill="#000000" fill-rule="nonzero" fill-opacity="1" /><path clip-path="url(#clip340)" d="M1178.14 1536.5 Q1173.43 1536.5 1170.7 1540.19 Q1167.96 1543.85 1167.96 1550.25 Q1167.96 1556.65 1170.66 1560.34 Q1173.4 1564 1178.14 1564 Q1182.82 1564 1185.56 1560.31 Q1188.3 1556.62 1188.3 1550.25 Q1188.3 1543.92 1185.56 1540.23 Q1182.82 1536.5 1178.14 1536.5 M1178.14 1531.54 Q1185.78 1531.54 1190.14 1536.5 Q1194.5 1541.47 1194.5 1550.25 Q1194.5 1559 1190.14 1564 Q1185.78 1568.97 1178.14 1568.97 Q1170.47 1568.97 1166.11 1564 Q1161.78 1559 1161.78 1550.25 Q1161.78 1541.47 1166.11 1536.5 Q1170.47 1531.54 1178.14 1531.54 Z" fill="#000000" fill-rule="nonzero" fill-opacity="1" /><path clip-path="url(#clip340)" d="M1226.94 1533.45 L1226.94 1538.98 Q1224.45 1537.71 1221.78 1537.07 Q1219.11 1536.44 1216.24 1536.44 Q1211.88 1536.44 1209.69 1537.77 Q1207.52 1539.11 1207.52 1541.79 Q1207.52 1543.82 1209.08 1545 Q1210.64 1546.15 1215.35 1547.2 L1217.36 1547.64 Q1223.59 1548.98 1226.2 1551.43 Q1228.85 1553.85 1228.85 1558.21 Q1228.85 1563.17 1224.9 1566.07 Q1220.98 1568.97 1214.11 1568.97 Q1211.24 1568.97 1208.13 1568.39 Q1205.04 1567.85 1201.6 1566.74 L1201.6 1560.69 Q1204.85 1562.38 1208 1563.24 Q1211.15 1564.07 1214.24 1564.07 Q1218.37 1564.07 1220.6 1562.66 Q1222.83 1561.23 1222.83 1558.65 Q1222.83 1556.27 1221.21 1554.99 Q1219.62 1553.72 1214.17 1552.54 L1212.14 1552.07 Q1206.69 1550.92 1204.27 1548.56 Q1201.86 1546.18 1201.86 1542.04 Q1201.86 1537.01 1205.42 1534.27 Q1208.99 1531.54 1215.54 1531.54 Q1218.79 1531.54 1221.65 1532.01 Q1224.52 1532.49 1226.94 1533.45 Z" fill="#000000" fill-rule="nonzero" fill-opacity="1" /><path clip-path="url(#clip340)" d="M1238.17 1532.4 L1244.03 1532.4 L1244.03 1568.04 L1238.17 1568.04 L1238.17 1532.4 M1238.17 1518.52 L1244.03 1518.52 L1244.03 1525.93 L1238.17 1525.93 L1238.17 1518.52 Z" fill="#000000" fill-rule="nonzero" fill-opacity="1" /><path clip-path="url(#clip340)" d="M1262.08 1522.27 L1262.08 1532.4 L1274.14 1532.4 L1274.14 1536.95 L1262.08 1536.95 L1262.08 1556.3 Q1262.08 1560.66 1263.25 1561.9 Q1264.46 1563.14 1268.12 1563.14 L1274.14 1563.14 L1274.14 1568.04 L1268.12 1568.04 Q1261.34 1568.04 1258.76 1565.53 Q1256.19 1562.98 1256.19 1556.3 L1256.19 1536.95 L1251.89 1536.95 L1251.89 1532.4 L1256.19 1532.4 L1256.19 1522.27 L1262.08 1522.27 Z" fill="#000000" fill-rule="nonzero" fill-opacity="1" /><path clip-path="url(#clip340)" d="M1281.84 1532.4 L1287.7 1532.4 L1287.7 1568.04 L1281.84 1568.04 L1281.84 1532.4 M1281.84 1518.52 L1287.7 1518.52 L1287.7 1525.93 L1281.84 1525.93 L1281.84 1518.52 Z" fill="#000000" fill-rule="nonzero" fill-opacity="1" /><path clip-path="url(#clip340)" d="M1313.76 1536.5 Q1309.05 1536.5 1306.32 1540.19 Q1303.58 1543.85 1303.58 1550.25 Q1303.58 1556.65 1306.28 1560.34 Q1309.02 1564 1313.76 1564 Q1318.44 1564 1321.18 1560.31 Q1323.92 1556.62 1323.92 1550.25 Q1323.92 1543.92 1321.18 1540.23 Q1318.44 1536.5 1313.76 1536.5 M1313.76 1531.54 Q1321.4 1531.54 1325.76 1536.5 Q1330.12 1541.47 1330.12 1550.25 Q1330.12 1559 1325.76 1564 Q1321.4 1568.97 1313.76 1568.97 Q1306.09 1568.97 1301.73 1564 Q1297.4 1559 1297.4 1550.25 Q1297.4 1541.47 1301.73 1536.5 Q1306.09 1531.54 1313.76 1531.54 Z" fill="#000000" fill-rule="nonzero" fill-opacity="1" /><path clip-path="url(#clip340)" d="M1369.46 1546.53 L1369.46 1568.04 L1363.61 1568.04 L1363.61 1546.72 Q1363.61 1541.66 1361.63 1539.14 Q1359.66 1536.63 1355.71 1536.63 Q1350.97 1536.63 1348.23 1539.65 Q1345.5 1542.68 1345.5 1547.9 L1345.5 1568.04 L1339.61 1568.04 L1339.61 1532.4 L1345.5 1532.4 L1345.5 1537.93 Q1347.6 1534.72 1350.43 1533.13 Q1353.3 1531.54 1357.02 1531.54 Q1363.16 1531.54 1366.31 1535.36 Q1369.46 1539.14 1369.46 1546.53 Z" fill="#000000" fill-rule="nonzero" fill-opacity="1" /><path clip-path="url(#clip340)" d="M1415.93 1518.58 Q1411.67 1525.9 1409.6 1533.06 Q1407.53 1540.23 1407.53 1547.58 Q1407.53 1554.93 1409.6 1562.16 Q1411.7 1569.35 1415.93 1576.64 L1410.84 1576.64 Q1406.07 1569.16 1403.68 1561.93 Q1401.32 1554.71 1401.32 1547.58 Q1401.32 1540.48 1403.68 1533.29 Q1406.04 1526.09 1410.84 1518.58 L1415.93 1518.58 Z" fill="#000000" fill-rule="nonzero" fill-opacity="1" /><path clip-path="url(#clip340)" d="M1430.8 1550.25 Q1430.8 1556.71 1433.44 1560.4 Q1436.11 1564.07 1440.76 1564.07 Q1445.41 1564.07 1448.08 1560.4 Q1450.75 1556.71 1450.75 1550.25 Q1450.75 1543.79 1448.08 1540.13 Q1445.41 1536.44 1440.76 1536.44 Q1436.11 1536.44 1433.44 1540.13 Q1430.8 1543.79 1430.8 1550.25 M1450.75 1562.7 Q1448.91 1565.88 1446.08 1567.44 Q1443.27 1568.97 1439.33 1568.97 Q1432.87 1568.97 1428.79 1563.81 Q1424.75 1558.65 1424.75 1550.25 Q1424.75 1541.85 1428.79 1536.69 Q1432.87 1531.54 1439.33 1531.54 Q1443.27 1531.54 1446.08 1533.1 Q1448.91 1534.62 1450.75 1537.81 L1450.75 1532.4 L1456.61 1532.4 L1456.61 1581.6 L1450.75 1581.6 L1450.75 1562.7 Z" fill="#000000" fill-rule="nonzero" fill-opacity="1" /><path clip-path="url(#clip340)" d="M1467.75 1518.58 L1472.84 1518.58 Q1477.62 1526.09 1479.97 1533.29 Q1482.36 1540.48 1482.36 1547.58 Q1482.36 1554.71 1479.97 1561.93 Q1477.62 1569.16 1472.84 1576.64 L1467.75 1576.64 Q1471.98 1569.35 1474.05 1562.16 Q1476.15 1554.93 1476.15 1547.58 Q1476.15 1540.23 1474.05 1533.06 Q1471.98 1525.9 1467.75 1518.58 Z" fill="#000000" fill-rule="nonzero" fill-opacity="1" /><polyline clip-path="url(#clip342)" style="stroke:#000000; stroke-linecap:round; stroke-linejoin:round; stroke-width:2; stroke-opacity:0.1; fill:none" points="257.204,1382.34 2352.76,1382.34 "/>
<polyline clip-path="url(#clip342)" style="stroke:#000000; stroke-linecap:round; stroke-linejoin:round; stroke-width:2; stroke-opacity:0.1; fill:none" points="257.204,1058.44 2352.76,1058.44 "/>
<polyline clip-path="url(#clip342)" style="stroke:#000000; stroke-linecap:round; stroke-linejoin:round; stroke-width:2; stroke-opacity:0.1; fill:none" points="257.204,734.535 2352.76,734.535 "/>
<polyline clip-path="url(#clip342)" style="stroke:#000000; stroke-linecap:round; stroke-linejoin:round; stroke-width:2; stroke-opacity:0.1; fill:none" points="257.204,410.633 2352.76,410.633 "/>
<polyline clip-path="url(#clip342)" style="stroke:#000000; stroke-linecap:round; stroke-linejoin:round; stroke-width:2; stroke-opacity:0.1; fill:none" points="257.204,86.73 2352.76,86.73 "/>
<polyline clip-path="url(#clip340)" style="stroke:#000000; stroke-linecap:round; stroke-linejoin:round; stroke-width:4; stroke-opacity:1; fill:none" points="257.204,1423.18 257.204,47.2441 "/>
<polyline clip-path="url(#clip340)" style="stroke:#000000; stroke-linecap:round; stroke-linejoin:round; stroke-width:4; stroke-opacity:1; fill:none" points="257.204,1382.34 276.102,1382.34 "/>
<polyline clip-path="url(#clip340)" style="stroke:#000000; stroke-linecap:round; stroke-linejoin:round; stroke-width:4; stroke-opacity:1; fill:none" points="257.204,1058.44 276.102,1058.44 "/>
<polyline clip-path="url(#clip340)" style="stroke:#000000; stroke-linecap:round; stroke-linejoin:round; stroke-width:4; stroke-opacity:1; fill:none" points="257.204,734.535 276.102,734.535 "/>
<polyline clip-path="url(#clip340)" style="stroke:#000000; stroke-linecap:round; stroke-linejoin:round; stroke-width:4; stroke-opacity:1; fill:none" points="257.204,410.633 276.102,410.633 "/>
<polyline clip-path="url(#clip340)" style="stroke:#000000; stroke-linecap:round; stroke-linejoin:round; stroke-width:4; stroke-opacity:1; fill:none" points="257.204,86.73 276.102,86.73 "/>
<path clip-path="url(#clip340)" d="M114.26 1382.79 L143.936 1382.79 L143.936 1386.73 L114.26 1386.73 L114.26 1382.79 Z" fill="#000000" fill-rule="nonzero" fill-opacity="1" /><path clip-path="url(#clip340)" d="M154.839 1395.69 L162.477 1395.69 L162.477 1369.32 L154.167 1370.99 L154.167 1366.73 L162.431 1365.06 L167.107 1365.06 L167.107 1395.69 L174.746 1395.69 L174.746 1399.62 L154.839 1399.62 L154.839 1395.69 Z" fill="#000000" fill-rule="nonzero" fill-opacity="1" /><path clip-path="url(#clip340)" d="M184.19 1393.74 L189.075 1393.74 L189.075 1399.62 L184.19 1399.62 L184.19 1393.74 Z" fill="#000000" fill-rule="nonzero" fill-opacity="1" /><path clip-path="url(#clip340)" d="M209.26 1368.14 Q205.649 1368.14 203.82 1371.7 Q202.014 1375.25 202.014 1382.37 Q202.014 1389.48 203.82 1393.05 Q205.649 1396.59 209.26 1396.59 Q212.894 1396.59 214.699 1393.05 Q216.528 1389.48 216.528 1382.37 Q216.528 1375.25 214.699 1371.7 Q212.894 1368.14 209.26 1368.14 M209.26 1364.44 Q215.07 1364.44 218.125 1369.04 Q221.204 1373.62 221.204 1382.37 Q221.204 1391.1 218.125 1395.71 Q215.07 1400.29 209.26 1400.29 Q203.449 1400.29 200.371 1395.71 Q197.315 1391.1 197.315 1382.37 Q197.315 1373.62 200.371 1369.04 Q203.449 1364.44 209.26 1364.44 Z" fill="#000000" fill-rule="nonzero" fill-opacity="1" /><path clip-path="url(#clip340)" d="M115.256 1058.89 L144.931 1058.89 L144.931 1062.82 L115.256 1062.82 L115.256 1058.89 Z" fill="#000000" fill-rule="nonzero" fill-opacity="1" /><path clip-path="url(#clip340)" d="M165.024 1044.24 Q161.413 1044.24 159.584 1047.8 Q157.778 1051.34 157.778 1058.47 Q157.778 1065.58 159.584 1069.14 Q161.413 1072.69 165.024 1072.69 Q168.658 1072.69 170.464 1069.14 Q172.292 1065.58 172.292 1058.47 Q172.292 1051.34 170.464 1047.8 Q168.658 1044.24 165.024 1044.24 M165.024 1040.53 Q170.834 1040.53 173.889 1045.14 Q176.968 1049.72 176.968 1058.47 Q176.968 1067.2 173.889 1071.81 Q170.834 1076.39 165.024 1076.39 Q159.214 1076.39 156.135 1071.81 Q153.079 1067.2 153.079 1058.47 Q153.079 1049.72 156.135 1045.14 Q159.214 1040.53 165.024 1040.53 Z" fill="#000000" fill-rule="nonzero" fill-opacity="1" /><path clip-path="url(#clip340)" d="M185.186 1069.84 L190.07 1069.84 L190.07 1075.72 L185.186 1075.72 L185.186 1069.84 Z" fill="#000000" fill-rule="nonzero" fill-opacity="1" /><path clip-path="url(#clip340)" d="M200.301 1041.16 L218.658 1041.16 L218.658 1045.09 L204.584 1045.09 L204.584 1053.56 Q205.602 1053.22 206.621 1053.06 Q207.639 1052.87 208.658 1052.87 Q214.445 1052.87 217.824 1056.04 Q221.204 1059.21 221.204 1064.63 Q221.204 1070.21 217.732 1073.31 Q214.26 1076.39 207.94 1076.39 Q205.764 1076.39 203.496 1076.02 Q201.25 1075.65 198.843 1074.91 L198.843 1070.21 Q200.926 1071.34 203.149 1071.9 Q205.371 1072.45 207.848 1072.45 Q211.852 1072.45 214.19 1070.35 Q216.528 1068.24 216.528 1064.63 Q216.528 1061.02 214.19 1058.91 Q211.852 1056.81 207.848 1056.81 Q205.973 1056.81 204.098 1057.22 Q202.246 1057.64 200.301 1058.52 L200.301 1041.16 Z" fill="#000000" fill-rule="nonzero" fill-opacity="1" /><path clip-path="url(#clip340)" d="M164.028 720.334 Q160.417 720.334 158.589 723.899 Q156.783 727.44 156.783 734.57 Q156.783 741.676 158.589 745.241 Q160.417 748.783 164.028 748.783 Q167.663 748.783 169.468 745.241 Q171.297 741.676 171.297 734.57 Q171.297 727.44 169.468 723.899 Q167.663 720.334 164.028 720.334 M164.028 716.63 Q169.839 716.63 172.894 721.237 Q175.973 725.82 175.973 734.57 Q175.973 743.297 172.894 747.903 Q169.839 752.486 164.028 752.486 Q158.218 752.486 155.14 747.903 Q152.084 743.297 152.084 734.57 Q152.084 725.82 155.14 721.237 Q158.218 716.63 164.028 716.63 Z" fill="#000000" fill-rule="nonzero" fill-opacity="1" /><path clip-path="url(#clip340)" d="M184.19 745.935 L189.075 745.935 L189.075 751.815 L184.19 751.815 L184.19 745.935 Z" fill="#000000" fill-rule="nonzero" fill-opacity="1" /><path clip-path="url(#clip340)" d="M209.26 720.334 Q205.649 720.334 203.82 723.899 Q202.014 727.44 202.014 734.57 Q202.014 741.676 203.82 745.241 Q205.649 748.783 209.26 748.783 Q212.894 748.783 214.699 745.241 Q216.528 741.676 216.528 734.57 Q216.528 727.44 214.699 723.899 Q212.894 720.334 209.26 720.334 M209.26 716.63 Q215.07 716.63 218.125 721.237 Q221.204 725.82 221.204 734.57 Q221.204 743.297 218.125 747.903 Q215.07 752.486 209.26 752.486 Q203.449 752.486 200.371 747.903 Q197.315 743.297 197.315 734.57 Q197.315 725.82 200.371 721.237 Q203.449 716.63 209.26 716.63 Z" fill="#000000" fill-rule="nonzero" fill-opacity="1" /><path clip-path="url(#clip340)" d="M165.024 396.431 Q161.413 396.431 159.584 399.996 Q157.778 403.538 157.778 410.667 Q157.778 417.774 159.584 421.339 Q161.413 424.88 165.024 424.88 Q168.658 424.88 170.464 421.339 Q172.292 417.774 172.292 410.667 Q172.292 403.538 170.464 399.996 Q168.658 396.431 165.024 396.431 M165.024 392.728 Q170.834 392.728 173.889 397.334 Q176.968 401.917 176.968 410.667 Q176.968 419.394 173.889 424.001 Q170.834 428.584 165.024 428.584 Q159.214 428.584 156.135 424.001 Q153.079 419.394 153.079 410.667 Q153.079 401.917 156.135 397.334 Q159.214 392.728 165.024 392.728 Z" fill="#000000" fill-rule="nonzero" fill-opacity="1" /><path clip-path="url(#clip340)" d="M185.186 422.033 L190.07 422.033 L190.07 427.913 L185.186 427.913 L185.186 422.033 Z" fill="#000000" fill-rule="nonzero" fill-opacity="1" /><path clip-path="url(#clip340)" d="M200.301 393.353 L218.658 393.353 L218.658 397.288 L204.584 397.288 L204.584 405.76 Q205.602 405.413 206.621 405.251 Q207.639 405.065 208.658 405.065 Q214.445 405.065 217.824 408.237 Q221.204 411.408 221.204 416.825 Q221.204 422.403 217.732 425.505 Q214.26 428.584 207.94 428.584 Q205.764 428.584 203.496 428.213 Q201.25 427.843 198.843 427.102 L198.843 422.403 Q200.926 423.538 203.149 424.093 Q205.371 424.649 207.848 424.649 Q211.852 424.649 214.19 422.542 Q216.528 420.436 216.528 416.825 Q216.528 413.214 214.19 411.107 Q211.852 409.001 207.848 409.001 Q205.973 409.001 204.098 409.417 Q202.246 409.834 200.301 410.714 L200.301 393.353 Z" fill="#000000" fill-rule="nonzero" fill-opacity="1" /><path clip-path="url(#clip340)" d="M154.839 100.075 L162.477 100.075 L162.477 73.7093 L154.167 75.3759 L154.167 71.1167 L162.431 69.45 L167.107 69.45 L167.107 100.075 L174.746 100.075 L174.746 104.01 L154.839 104.01 L154.839 100.075 Z" fill="#000000" fill-rule="nonzero" fill-opacity="1" /><path clip-path="url(#clip340)" d="M184.19 98.1304 L189.075 98.1304 L189.075 104.01 L184.19 104.01 L184.19 98.1304 Z" fill="#000000" fill-rule="nonzero" fill-opacity="1" /><path clip-path="url(#clip340)" d="M209.26 72.5287 Q205.649 72.5287 203.82 76.0935 Q202.014 79.6352 202.014 86.7647 Q202.014 93.8712 203.82 97.436 Q205.649 100.978 209.26 100.978 Q212.894 100.978 214.699 97.436 Q216.528 93.8712 216.528 86.7647 Q216.528 79.6352 214.699 76.0935 Q212.894 72.5287 209.26 72.5287 M209.26 68.825 Q215.07 68.825 218.125 73.4315 Q221.204 78.0148 221.204 86.7647 Q221.204 95.4916 218.125 100.098 Q215.07 104.681 209.26 104.681 Q203.449 104.681 200.371 100.098 Q197.315 95.4916 197.315 86.7647 Q197.315 78.0148 200.371 73.4315 Q203.449 68.825 209.26 68.825 Z" fill="#000000" fill-rule="nonzero" fill-opacity="1" /><path clip-path="url(#clip340)" d="M16.4842 971.396 L16.4842 961.815 L48.8219 949.689 L16.4842 937.498 L16.4842 927.918 L64.0042 927.918 L64.0042 934.188 L22.277 934.188 L54.8694 946.442 L54.8694 952.903 L22.277 965.157 L64.0042 965.157 L64.0042 971.396 L16.4842 971.396 Z" fill="#000000" fill-rule="nonzero" fill-opacity="1" /><path clip-path="url(#clip340)" d="M32.4621 901.596 Q32.4621 906.306 36.1542 909.044 Q39.8145 911.781 46.212 911.781 Q52.6095 911.781 56.3017 909.075 Q59.9619 906.338 59.9619 901.596 Q59.9619 896.917 56.2698 894.18 Q52.5777 891.442 46.212 891.442 Q39.8781 891.442 36.186 894.18 Q32.4621 896.917 32.4621 901.596 M27.4968 901.596 Q27.4968 893.957 32.4621 889.596 Q37.4273 885.236 46.212 885.236 Q54.9649 885.236 59.9619 889.596 Q64.9272 893.957 64.9272 901.596 Q64.9272 909.266 59.9619 913.627 Q54.9649 917.955 46.212 917.955 Q37.4273 917.955 32.4621 913.627 Q27.4968 909.266 27.4968 901.596 Z" fill="#000000" fill-rule="nonzero" fill-opacity="1" /><path clip-path="url(#clip340)" d="M35.1993 847.774 Q31.2526 845.577 29.3747 842.522 Q27.4968 839.466 27.4968 835.329 Q27.4968 829.759 31.4117 826.735 Q35.2948 823.711 42.4881 823.711 L64.0042 823.711 L64.0042 829.599 L42.679 829.599 Q37.5546 829.599 35.072 831.414 Q32.5894 833.228 32.5894 836.952 Q32.5894 841.503 35.6131 844.145 Q38.6368 846.787 43.8567 846.787 L64.0042 846.787 L64.0042 852.675 L42.679 852.675 Q37.5228 852.675 35.072 854.489 Q32.5894 856.304 32.5894 860.091 Q32.5894 864.579 35.6449 867.221 Q38.6686 869.863 43.8567 869.863 L64.0042 869.863 L64.0042 875.751 L28.3562 875.751 L28.3562 869.863 L33.8944 869.863 Q30.616 867.857 29.0564 865.056 Q27.4968 862.256 27.4968 858.404 Q27.4968 854.521 29.4702 851.816 Q31.4436 849.079 35.1993 847.774 Z" fill="#000000" fill-rule="nonzero" fill-opacity="1" /><path clip-path="url(#clip340)" d="M44.7161 781.538 L47.5806 781.538 L47.5806 808.465 Q53.6281 808.083 56.8109 804.837 Q59.9619 801.559 59.9619 795.734 Q59.9619 792.36 59.1344 789.209 Q58.3069 786.026 56.6518 782.907 L62.1899 782.907 Q63.5267 786.058 64.227 789.368 Q64.9272 792.678 64.9272 796.084 Q64.9272 804.614 59.9619 809.611 Q54.9967 814.576 46.5303 814.576 Q37.7774 814.576 32.6531 809.866 Q27.4968 805.123 27.4968 797.103 Q27.4968 789.909 32.1438 785.74 Q36.7589 781.538 44.7161 781.538 M42.9973 787.395 Q38.1912 787.459 35.3266 790.1 Q32.4621 792.71 32.4621 797.039 Q32.4621 801.94 35.2312 804.901 Q38.0002 807.829 43.0292 808.274 L42.9973 787.395 Z" fill="#000000" fill-rule="nonzero" fill-opacity="1" /><path clip-path="url(#clip340)" d="M42.4881 742.294 L64.0042 742.294 L64.0042 748.15 L42.679 748.15 Q37.6183 748.15 35.1038 750.124 Q32.5894 752.097 32.5894 756.044 Q32.5894 760.786 35.6131 763.523 Q38.6368 766.261 43.8567 766.261 L64.0042 766.261 L64.0042 772.149 L28.3562 772.149 L28.3562 766.261 L33.8944 766.261 Q30.6797 764.16 29.0883 761.327 Q27.4968 758.463 27.4968 754.739 Q27.4968 748.596 31.3163 745.445 Q35.1038 742.294 42.4881 742.294 Z" fill="#000000" fill-rule="nonzero" fill-opacity="1" /><path clip-path="url(#clip340)" d="M18.2347 724.82 L28.3562 724.82 L28.3562 712.757 L32.9077 712.757 L32.9077 724.82 L52.2594 724.82 Q56.6199 724.82 57.8613 723.642 Q59.1026 722.433 59.1026 718.773 L59.1026 712.757 L64.0042 712.757 L64.0042 718.773 Q64.0042 725.552 61.4897 728.13 Q58.9434 730.708 52.2594 730.708 L32.9077 730.708 L32.9077 735.005 L28.3562 735.005 L28.3562 730.708 L18.2347 730.708 L18.2347 724.82 Z" fill="#000000" fill-rule="nonzero" fill-opacity="1" /><path clip-path="url(#clip340)" d="M49.9359 705.659 L28.3562 705.659 L28.3562 699.803 L49.7131 699.803 Q54.7739 699.803 57.3202 697.829 Q59.8346 695.856 59.8346 691.909 Q59.8346 687.167 56.8109 684.43 Q53.7872 681.66 48.5673 681.66 L28.3562 681.66 L28.3562 675.804 L64.0042 675.804 L64.0042 681.66 L58.5296 681.66 Q61.7762 683.793 63.3676 686.626 Q64.9272 689.427 64.9272 693.151 Q64.9272 699.293 61.1078 702.476 Q57.2883 705.659 49.9359 705.659 M27.4968 690.923 L27.4968 690.923 Z" fill="#000000" fill-rule="nonzero" fill-opacity="1" /><path clip-path="url(#clip340)" d="M35.1993 635.987 Q31.2526 633.79 29.3747 630.735 Q27.4968 627.679 27.4968 623.542 Q27.4968 617.972 31.4117 614.948 Q35.2948 611.924 42.4881 611.924 L64.0042 611.924 L64.0042 617.812 L42.679 617.812 Q37.5546 617.812 35.072 619.627 Q32.5894 621.441 32.5894 625.165 Q32.5894 629.716 35.6131 632.358 Q38.6368 635 43.8567 635 L64.0042 635 L64.0042 640.888 L42.679 640.888 Q37.5228 640.888 35.072 642.702 Q32.5894 644.517 32.5894 648.304 Q32.5894 652.792 35.6449 655.434 Q38.6686 658.076 43.8567 658.076 L64.0042 658.076 L64.0042 663.964 L28.3562 663.964 L28.3562 658.076 L33.8944 658.076 Q30.616 656.07 29.0564 653.269 Q27.4968 650.468 27.4968 646.617 Q27.4968 642.734 29.4702 640.029 Q31.4436 637.291 35.1993 635.987 Z" fill="#000000" fill-rule="nonzero" fill-opacity="1" /><path clip-path="url(#clip340)" d="M14.5426 565.454 Q21.8632 569.72 29.0246 571.788 Q36.186 573.857 43.5384 573.857 Q50.8908 573.857 58.1159 571.788 Q65.3091 569.688 72.5979 565.454 L72.5979 570.547 Q65.1182 575.321 57.8931 577.708 Q50.668 580.064 43.5384 580.064 Q36.4406 580.064 29.2474 577.708 Q22.0542 575.353 14.5426 570.547 L14.5426 565.454 Z" fill="#000000" fill-rule="nonzero" fill-opacity="1" /><path clip-path="url(#clip340)" d="M58.657 548.426 L77.5631 548.426 L77.5631 554.315 L28.3562 554.315 L28.3562 548.426 L33.7671 548.426 Q30.5842 546.58 29.0564 543.779 Q27.4968 540.947 27.4968 537.032 Q27.4968 530.539 32.6531 526.496 Q37.8093 522.422 46.212 522.422 Q54.6147 522.422 59.771 526.496 Q64.9272 530.539 64.9272 537.032 Q64.9272 540.947 63.3994 543.779 Q61.8398 546.58 58.657 548.426 M46.212 528.502 Q39.7508 528.502 36.0905 531.175 Q32.3984 533.817 32.3984 538.464 Q32.3984 543.111 36.0905 545.784 Q39.7508 548.426 46.212 548.426 Q52.6732 548.426 56.3653 545.784 Q60.0256 543.111 60.0256 538.464 Q60.0256 533.817 56.3653 531.175 Q52.6732 528.502 46.212 528.502 Z" fill="#000000" fill-rule="nonzero" fill-opacity="1" /><path clip-path="url(#clip340)" d="M14.5426 513.638 L14.5426 508.545 Q22.0542 503.771 29.2474 501.415 Q36.4406 499.028 43.5384 499.028 Q50.668 499.028 57.8931 501.415 Q65.1182 503.771 72.5979 508.545 L72.5979 513.638 Q65.3091 509.404 58.1159 507.336 Q50.8908 505.235 43.5384 505.235 Q36.186 505.235 29.0246 507.336 Q21.8632 509.404 14.5426 513.638 Z" fill="#000000" fill-rule="nonzero" fill-opacity="1" /><polyline clip-path="url(#clip342)" style="stroke:#009af9; stroke-linecap:round; stroke-linejoin:round; stroke-width:16; stroke-opacity:1; fill:none" points="1304.98,86.73 1311.05,86.7422 1317.12,86.7789 1323.19,86.84 1329.26,86.9255 1335.33,87.0355 1341.4,87.1699 1347.46,87.3286 1353.53,87.5118 1359.59,87.7195 1365.65,87.9515 1371.71,88.2079 1377.77,88.4887 1383.82,88.7939 1389.87,89.1234 1395.92,89.4773 1401.96,89.8555 1408,90.258 1414.04,90.6848 1420.07,91.1359 1426.1,91.6113 1432.12,92.111 1438.14,92.6349 1444.15,93.1829 1450.16,93.7552 1456.16,94.3517 1462.16,94.9723 1468.15,95.617 1474.13,96.2858 1480.11,96.9787 1486.08,97.6957 1492.05,98.4367 1498.01,99.2017 1503.96,99.9907 1509.9,100.804 1515.84,101.64 1521.76,102.501 1527.68,103.385 1533.59,104.294 1539.5,105.226 1545.39,106.182 1551.27,107.161 1557.15,108.164 1563.01,109.191 1568.87,110.242 1574.71,111.316 1580.55,112.413 1586.38,113.534 1592.19,114.678 1597.99,115.846 1603.79,117.037 1609.57,118.252 1615.34,119.489 1621.1,120.75 1626.84,122.034 1632.58,123.341 1638.3,124.671 1644.01,126.025 1649.7,127.401 1655.39,128.8 1661.06,130.222 1666.71,131.666 1672.36,133.134 1677.99,134.624 1683.6,136.136 1689.2,137.672 1694.79,139.23 1700.36,140.81 1705.92,142.413 1711.46,144.038 1716.98,145.685 1722.5,147.354 1727.99,149.046 1733.47,150.76 1738.93,152.495 1744.38,154.253 1749.81,156.033 1755.22,157.834 1760.62,159.657 1766,161.502 1771.36,163.369 1776.7,165.257 1782.03,167.166 1787.34,169.097 1792.63,171.049 1797.9,173.023 1803.15,175.017 1808.39,177.033 1813.6,179.07 1818.8,181.128 1823.97,183.206 1829.13,185.306 1834.27,187.426 1839.39,189.567 1844.48,191.728 1849.56,193.91 1854.62,196.112 1859.65,198.335 1864.67,200.577 1869.66,202.84 1874.63,205.123 1879.58,207.426 1884.51,209.749 1889.42,212.092 1894.31,214.454 1899.17,216.836 1904.01,219.237 1908.83,221.658 1913.62,224.099 1918.39,226.558 1923.14,229.037 1927.87,231.535 1932.57,234.051 1937.25,236.587 1941.9,239.141 1946.54,241.714 1951.14,244.306 1955.72,246.916 1960.28,249.545 1964.81,252.191 1969.32,254.856 1973.81,257.54 1978.26,260.241 1982.7,262.96 1987.1,265.697 1991.48,268.451 1995.84,271.223 2000.17,274.013 2004.47,276.82 2008.75,279.644 2013,282.485 2017.22,285.343 2021.42,288.219 2025.58,291.111 2029.73,294.02 2033.84,296.945 2037.93,299.888 2041.99,302.846 2046.02,305.821 2050.02,308.812 2054,311.818 2057.95,314.841 2061.87,317.88 2065.76,320.935 2069.62,324.005 2073.45,327.09 2077.26,330.191 2081.03,333.307 2084.78,336.438 2088.49,339.585 2092.18,342.746 2095.84,345.922 2099.46,349.113 2103.06,352.318 2106.63,355.537 2110.16,358.771 2113.67,362.019 2117.15,365.282 2120.59,368.558 2124.01,371.847 2127.39,375.151 2130.74,378.468 2134.06,381.799 2137.35,385.142 2140.61,388.499 2143.84,391.87 2147.03,395.253 2150.2,398.648 2153.33,402.057 2156.43,405.478 2159.5,408.911 2162.53,412.357 2165.54,415.815 2168.51,419.285 2171.45,422.767 2174.35,426.26 2177.22,429.765 2180.06,433.282 2182.87,436.81 2185.64,440.349 2188.38,443.9 2191.09,447.461 2193.76,451.033 2196.4,454.616 2199.01,458.209 2201.58,461.813 2204.12,465.427 2206.63,469.051 2209.1,472.686 2211.54,476.33 2213.94,479.984 2216.31,483.647 2218.64,487.32 2220.94,491.003 2223.21,494.694 2225.44,498.395 2227.63,502.104 2229.79,505.822 2231.92,509.549 2234.01,513.284 2236.07,517.028 2238.09,520.78 2240.07,524.54 2242.02,528.308 2243.94,532.083 2245.82,535.867 2247.66,539.657 2249.47,543.455 2251.24,547.261 2252.98,551.073 2254.68,554.892 2256.35,558.719 2257.98,562.551 2259.57,566.39 2261.13,570.236 2262.65,574.088 2264.14,577.946 2265.59,581.809 2267,585.679 2268.38,589.554 2269.72,593.434 2271.02,597.32 2272.29,601.211 2273.52,605.107 2274.71,609.008 2275.87,612.914 2276.99,616.824 2278.08,620.739 2279.13,624.658 2280.14,628.581 2281.11,632.508 2282.05,636.439 2282.95,640.374 2283.82,644.312 2284.64,648.254 2285.43,652.199 2286.19,656.147 2286.9,660.098 2287.58,664.052 2288.22,668.008 2288.83,671.967 2289.4,675.929 2289.93,679.892 2290.42,683.858 2290.88,687.825 2291.3,691.794 2291.68,695.765 2292.02,699.738 2292.33,703.711 2292.6,707.686 2292.83,711.662 2293.03,715.639 2293.19,719.616 2293.31,723.594 2293.39,727.572 2293.44,731.551 2293.45,735.53 2293.42,739.509 2293.35,743.487 2293.25,747.465 2293.11,751.443 2292.94,755.42 2292.72,759.396 2292.47,763.372 2292.18,767.346 2291.85,771.319 2291.49,775.291 2291.09,779.261 2290.65,783.229 2290.18,787.196 2289.67,791.16 2289.12,795.123 2288.53,799.083 2287.91,803.041 2287.25,806.996 2286.55,810.948 2285.81,814.898 2285.04,818.844 2284.23,822.787 2283.39,826.727 2282.51,830.664 2281.59,834.597 2280.63,838.526 2279.64,842.451 2278.61,846.372 2277.54,850.289 2276.44,854.202 2275.3,858.11 2274.12,862.013 2272.91,865.911 2271.66,869.805 2270.37,873.694 2269.05,877.577 2267.69,881.455 2266.3,885.327 2264.87,889.194 2263.4,893.054 2261.89,896.909 2260.35,900.758 2258.78,904.6 2257.17,908.436 2255.52,912.266 2253.84,916.088 2252.12,919.904 2250.36,923.713 2248.57,927.515 2246.74,931.309 2244.88,935.096 2242.98,938.876 2241.05,942.648 2239.08,946.411 2237.08,950.167 2235.04,953.915 2232.97,957.655 2230.86,961.386 2228.72,965.108 2226.54,968.822 2224.33,972.527 2222.08,976.223 2219.8,979.91 2217.48,983.588 2215.13,987.256 2212.74,990.915 2210.32,994.564 2207.87,998.203 2205.38,1001.83 2202.86,1005.45 2200.3,1009.06 2197.71,1012.66 2195.09,1016.25 2192.43,1019.82 2189.74,1023.39 2187.02,1026.95 2184.26,1030.49 2181.47,1034.03 2178.65,1037.55 2175.79,1041.06 2172.9,1044.56 2169.98,1048.05 2167.03,1051.52 2164.04,1054.99 2161.02,1058.44 2157.97,1061.88 2154.88,1065.3 2151.77,1068.72 2148.62,1072.12 2145.44,1075.51 2142.23,1078.89 2138.99,1082.25 2135.71,1085.6 2132.41,1088.94 2129.07,1092.26 2125.7,1095.57 2122.3,1098.87 2118.87,1102.15 2115.41,1105.42 2111.92,1108.68 2108.4,1111.92 2104.85,1115.14 2101.26,1118.36 2097.65,1121.55 2094.01,1124.74 2090.34,1127.91 2086.64,1131.06 2082.91,1134.2 2079.15,1137.32 2075.36,1140.43 2071.54,1143.52 2067.69,1146.6 2063.81,1149.66 2059.91,1152.71 2055.98,1155.74 2052.01,1158.76 2048.03,1161.76 2044.01,1164.74 2039.96,1167.71 2035.89,1170.66 2031.79,1173.59 2027.66,1176.51 2023.5,1179.41 2019.32,1182.29 2015.11,1185.16 2010.87,1188.01 2006.61,1190.84 2002.32,1193.66 1998.01,1196.45 1993.66,1199.24 1989.3,1202 1984.9,1204.74 1980.48,1207.47 1976.04,1210.18 1971.57,1212.87 1967.07,1215.55 1962.55,1218.2 1958.01,1220.84 1953.44,1223.46 1948.84,1226.06 1944.22,1228.64 1939.58,1231.21 1934.91,1233.75 1930.22,1236.28 1925.51,1238.79 1920.77,1241.28 1916.01,1243.74 1911.23,1246.19 1906.42,1248.62 1901.59,1251.04 1896.74,1253.43 1891.87,1255.8 1886.97,1258.15 1882.05,1260.49 1877.11,1262.8 1872.15,1265.09 1867.17,1267.36 1862.16,1269.62 1857.14,1271.85 1852.09,1274.06 1847.02,1276.25 1841.94,1278.43 1836.83,1280.58 1831.7,1282.71 1826.56,1284.82 1821.39,1286.91 1816.2,1288.97 1811,1291.02 1805.77,1293.05 1800.53,1295.05 1795.27,1297.04 1789.99,1299 1784.69,1300.94 1779.37,1302.86 1774.03,1304.76 1768.68,1306.64 1763.31,1308.49 1757.92,1310.33 1752.52,1312.14 1747.1,1313.93 1741.66,1315.7 1736.2,1317.45 1730.73,1319.17 1725.25,1320.87 1719.74,1322.55 1714.22,1324.21 1708.69,1325.85 1703.14,1327.46 1697.58,1329.05 1692,1330.62 1686.4,1332.17 1680.8,1333.69 1675.17,1335.19 1669.54,1336.67 1663.89,1338.13 1658.22,1339.56 1652.55,1340.97 1646.86,1342.36 1641.15,1343.73 1635.44,1345.07 1629.71,1346.39 1623.97,1347.68 1618.22,1348.95 1612.45,1350.2 1606.68,1351.43 1600.89,1352.63 1595.09,1353.81 1589.28,1354.97 1583.46,1356.1 1577.63,1357.21 1571.79,1358.29 1565.94,1359.36 1560.08,1360.4 1554.21,1361.41 1548.33,1362.4 1542.44,1363.37 1536.55,1364.31 1530.64,1365.23 1524.72,1366.13 1518.8,1367 1512.87,1367.85 1506.93,1368.68 1500.98,1369.48 1495.03,1370.25 1489.07,1371.01 1483.1,1371.74 1477.12,1372.44 1471.14,1373.12 1465.15,1373.78 1459.16,1374.41 1453.16,1375.02 1447.16,1375.6 1441.15,1376.16 1435.13,1376.7 1429.11,1377.21 1423.08,1377.7 1417.05,1378.16 1411.02,1378.6 1404.98,1379.02 1398.94,1379.41 1392.89,1379.77 1386.85,1380.11 1380.79,1380.43 1374.74,1380.72 1368.68,1380.99 1362.62,1381.24 1356.56,1381.46 1350.5,1381.65 1344.43,1381.82 1338.36,1381.97 1332.3,1382.09 1326.23,1382.19 1320.16,1382.26 1314.09,1382.31 1308.02,1382.34 1301.94,1382.34 1295.87,1382.31 1289.8,1382.26 1283.73,1382.19 1277.66,1382.09 1271.6,1381.97 1265.53,1381.82 1259.46,1381.65 1253.4,1381.46 1247.34,1381.24 1241.28,1380.99 1235.22,1380.72 1229.17,1380.43 1223.11,1380.11 1217.07,1379.77 1211.02,1379.41 1204.98,1379.02 1198.94,1378.6 1192.91,1378.16 1186.88,1377.7 1180.85,1377.21 1174.83,1376.7 1168.81,1376.16 1162.8,1375.6 1156.8,1375.02 1150.8,1374.41 1144.81,1373.78 1138.82,1373.12 1132.84,1372.44 1126.86,1371.74 1120.89,1371.01 1114.93,1370.25 1108.98,1369.48 1103.03,1368.68 1097.09,1367.85 1091.16,1367 1085.24,1366.13 1079.32,1365.23 1073.41,1364.31 1067.52,1363.37 1061.63,1362.4 1055.75,1361.41 1049.88,1360.4 1044.02,1359.36 1038.17,1358.29 1032.33,1357.21 1026.5,1356.1 1020.68,1354.97 1014.87,1353.81 1009.07,1352.63 1003.28,1351.43 997.506,1350.2 991.742,1348.95 985.99,1347.68 980.249,1346.39 974.521,1345.07 968.806,1343.73 963.103,1342.36 957.413,1340.97 951.736,1339.56 946.073,1338.13 940.423,1336.67 934.787,1335.19 929.164,1333.69 923.556,1332.17 917.963,1330.62 912.384,1329.05 906.819,1327.46 901.27,1325.85 895.736,1324.21 890.218,1322.55 884.714,1320.87 879.227,1319.17 873.756,1317.45 868.302,1315.7 862.863,1313.93 857.442,1312.14 852.037,1310.33 846.65,1308.49 841.279,1306.64 835.926,1304.76 830.591,1302.86 825.274,1300.94 819.975,1299 814.694,1297.04 809.431,1295.05 804.188,1293.05 798.963,1291.02 793.757,1288.97 788.571,1286.91 783.404,1284.82 778.257,1282.71 773.129,1280.58 768.022,1278.43 762.935,1276.25 757.868,1274.06 752.822,1271.85 747.797,1269.62 742.793,1267.36 737.81,1265.09 732.849,1262.8 727.909,1260.48 722.991,1258.15 718.094,1255.8 713.22,1253.43 708.368,1251.04 703.539,1248.62 698.732,1246.19 693.949,1243.74 689.188,1241.28 684.451,1238.79 679.737,1236.28 675.046,1233.75 670.38,1231.21 665.737,1228.64 661.118,1226.06 656.524,1223.46 651.954,1220.84 647.409,1218.2 642.888,1215.55 638.393,1212.87 633.923,1210.18 629.478,1207.47 625.058,1204.74 620.664,1202 616.296,1199.24 611.954,1196.45 607.638,1193.66 603.349,1190.84 599.086,1188.01 594.849,1185.16 590.639,1182.29 586.457,1179.41 582.301,1176.51 578.173,1173.59 574.072,1170.66 569.998,1167.71 565.952,1164.74 561.935,1161.76 557.945,1158.76 553.983,1155.74 550.05,1152.71 546.145,1149.66 542.269,1146.6 538.422,1143.52 534.603,1140.43 530.814,1137.32 527.053,1134.2 523.323,1131.06 519.621,1127.91 515.949,1124.74 512.307,1121.55 508.695,1118.36 505.113,1115.14 501.561,1111.92 498.04,1108.68 494.549,1105.42 491.088,1102.15 487.658,1098.87 484.259,1095.57 480.891,1092.26 477.554,1088.94 474.248,1085.6 470.974,1082.25 467.731,1078.89 464.52,1075.51 461.34,1072.12 458.192,1068.72 455.076,1065.3 451.992,1061.88 448.941,1058.44 445.921,1054.99 442.934,1051.52 439.98,1048.05 437.058,1044.56 434.169,1041.06 431.313,1037.55 428.489,1034.03 425.699,1030.49 422.942,1026.95 420.218,1023.39 417.528,1019.82 414.871,1016.25 412.248,1012.66 409.658,1009.06 407.102,1005.45 404.58,1001.83 402.092,998.203 399.638,994.564 397.218,990.915 394.833,987.256 392.481,983.588 390.164,979.91 387.882,976.223 385.634,972.527 383.421,968.822 381.243,965.108 379.1,961.386 376.991,957.655 374.918,953.915 372.879,950.167 370.876,946.411 368.908,942.648 366.975,938.876 365.078,935.096 363.216,931.309 361.39,927.515 359.599,923.713 357.844,919.904 356.124,916.088 354.441,912.265 352.793,908.436 351.181,904.6 349.606,900.758 348.066,896.909 346.562,893.054 345.094,889.193 343.663,885.327 342.268,881.455 340.909,877.577 339.587,873.694 338.301,869.805 337.052,865.911 335.839,862.013 334.662,858.11 333.522,854.201 332.419,850.289 331.353,846.372 330.323,842.451 329.33,838.526 328.374,834.597 327.455,830.664 326.572,826.727 325.727,822.787 324.918,818.844 324.146,814.898 323.412,810.948 322.714,806.996 322.054,803.04 321.43,799.083 320.844,795.123 320.294,791.16 319.782,787.196 319.307,783.229 318.87,779.261 318.469,775.29 318.106,771.319 317.78,767.346 317.491,763.372 317.239,759.396 317.025,755.42 316.848,751.443 316.708,747.465 316.605,743.487 316.54,739.508 316.512,735.53 316.521,731.551 316.568,727.572 316.652,723.594 316.773,719.616 316.932,715.638 317.127,711.662 317.36,707.686 317.631,703.711 317.938,699.738 318.283,695.765 318.665,691.794 319.084,687.825 319.54,683.858 320.034,679.892 320.564,675.929 321.132,671.967 321.737,668.008 322.379,664.052 323.058,660.098 323.774,656.147 324.528,652.199 325.318,648.254 326.145,644.312 327.009,640.374 327.91,636.439 328.847,632.508 329.822,628.581 330.833,624.658 331.881,620.739 332.966,616.824 334.088,612.914 335.246,609.008 336.441,605.107 337.672,601.211 338.94,597.32 340.244,593.434 341.584,589.554 342.961,585.679 344.374,581.809 345.824,577.945 347.309,574.088 348.831,570.236 350.389,566.391 351.983,562.551 353.613,558.718 355.278,554.892 356.98,551.073 358.717,547.261 360.49,543.455 362.298,539.657 364.143,535.866 366.022,532.083 367.937,528.308 369.887,524.54 371.873,520.78 373.894,517.028 375.95,513.284 378.041,509.549 380.167,505.822 382.328,502.104 384.524,498.395 386.754,494.694 389.019,491.003 391.319,487.32 393.653,483.647 396.021,479.984 398.424,476.33 400.861,472.686 403.332,469.051 405.837,465.427 408.376,461.813 410.949,458.209 413.555,454.616 416.195,451.033 418.869,447.461 421.576,443.899 424.317,440.349 427.09,436.81 429.897,433.282 432.737,429.765 435.609,426.26 438.515,422.766 441.453,419.285 444.424,415.815 447.427,412.357 450.463,408.911 453.53,405.478 456.63,402.057 459.762,398.648 462.926,395.252 466.121,391.87 469.349,388.499 472.607,385.142 475.897,381.799 479.219,378.468 482.571,375.151 485.955,371.847 489.369,368.558 492.815,365.281 496.29,362.019 499.797,358.771 503.334,355.537 506.901,352.318 510.498,349.112 514.125,345.922 517.782,342.746 521.468,339.585 525.185,336.438 528.93,333.307 532.705,330.191 536.509,327.09 540.342,324.004 544.203,320.935 548.094,317.88 552.013,314.841 555.961,311.818 559.937,308.811 563.94,305.821 567.972,302.846 572.032,299.887 576.119,296.945 580.233,294.02 584.376,291.111 588.545,288.219 592.741,285.343 596.964,282.485 601.214,279.644 605.491,276.819 609.793,274.013 614.122,271.223 618.477,268.451 622.858,265.696 627.265,262.96 631.697,260.241 636.155,257.54 640.638,254.856 645.146,252.191 649.679,249.545 654.236,246.916 658.818,244.306 663.425,241.714 668.055,239.141 672.71,236.587 677.389,234.051 682.091,231.534 686.817,229.037 691.566,226.558 696.338,224.099 701.133,221.658 705.951,219.237 710.792,216.836 715.655,214.454 720.54,212.092 725.447,209.749 730.376,207.426 735.327,205.123 740.299,202.84 745.293,200.577 750.307,198.335 755.343,196.112 760.399,193.91 765.476,191.728 770.574,189.567 775.691,187.426 780.828,185.306 785.985,183.206 791.162,181.128 796.358,179.07 801.573,177.033 806.807,175.017 812.061,173.023 817.332,171.049 822.622,169.097 827.931,167.166 833.257,165.257 838.601,163.369 843.962,161.502 849.342,159.657 854.738,157.834 860.151,156.033 865.581,154.253 871.027,152.495 876.49,150.76 881.969,149.046 887.464,147.354 892.975,145.685 898.502,144.037 904.043,142.412 909.6,140.81 915.171,139.23 920.758,137.672 926.359,136.136 931.974,134.624 937.603,133.134 943.246,131.666 948.903,130.222 954.573,128.8 960.257,127.401 965.953,126.025 971.663,124.671 977.384,123.341 983.118,122.034 988.864,120.75 994.623,119.489 1000.39,118.252 1006.17,117.037 1011.97,115.846 1017.77,114.678 1023.59,113.534 1029.41,112.413 1035.25,111.316 1041.09,110.242 1046.95,109.191 1052.81,108.164 1058.69,107.161 1064.57,106.182 1070.47,105.226 1076.37,104.294 1082.28,103.385 1088.2,102.501 1094.12,101.64 1100.06,100.803 1106,99.9906 1111.95,99.2016 1117.91,98.4367 1123.88,97.6957 1129.85,96.9787 1135.83,96.2858 1141.81,95.617 1147.8,94.9723 1153.8,94.3517 1159.8,93.7552 1165.81,93.1829 1171.82,92.6348 1177.84,92.1109 1183.86,91.6113 1189.89,91.1359 1195.92,90.6848 1201.96,90.258 1208,89.8555 1214.04,89.4772 1220.09,89.1234 1226.14,88.7939 1232.19,88.4887 1238.25,88.2079 1244.31,87.9515 1250.37,87.7195 1256.43,87.5118 1262.5,87.3286 1268.56,87.1699 1274.63,87.0354 1280.7,86.9255 1286.77,86.84 1292.84,86.7789 1298.91,86.7422 1304.98,86.73 "/>
<polyline clip-path="url(#clip342)" style="stroke:#e26f46; stroke-linecap:round; stroke-linejoin:round; stroke-width:16; stroke-opacity:1; fill:none" points="1304.98,86.73 1311.06,86.6615 1317.13,86.5929 1323.21,86.5243 1329.28,86.4556 1335.36,86.3534 1341.44,86.2312 1347.51,86.1857 1353.58,86.266 1359.63,86.4722 1365.68,86.7552 1371.74,87.026 1377.79,87.2797 1383.84,87.5638 1389.88,87.8961 1395.92,88.2638 1401.96,88.6204 1408.01,88.9486 1414.05,89.3036 1420.08,89.7223 1426.1,90.2178 1432.1,90.7793 1438.11,91.3723 1444.11,91.9541 1450.11,92.534 1456.12,93.1138 1462.12,93.6937 1468.12,94.2735 1474.13,94.8533 1480.13,95.4332 1486.14,96.0141 1492.13,96.6335 1498.11,97.3082 1504.08,98.037 1510.03,98.8185 1515.96,99.6513 1521.88,100.534 1527.78,101.465 1533.66,102.444 1539.53,103.468 1545.38,104.536 1551.21,105.647 1557.02,106.798 1562.81,107.989 1568.59,109.218 1574.35,110.483 1580.09,111.782 1585.81,113.114 1591.52,114.477 1597.21,115.869 1602.89,117.289 1608.55,118.734 1614.19,120.203 1619.83,121.694 1625.44,123.205 1631.05,124.734 1636.65,126.279 1642.24,127.838 1647.82,129.409 1653.39,130.991 1658.96,132.58 1664.52,134.175 1670.08,135.774 1675.64,137.375 1681.2,138.975 1686.76,140.572 1692.33,142.164 1697.88,143.774 1703.35,145.465 1708.76,147.214 1714.15,148.993 1719.53,150.78 1724.92,152.555 1730.34,154.299 1735.8,156.002 1741.31,157.652 1746.89,159.243 1752.52,160.774 1758.21,162.244 1763.96,163.658 1769.76,165.024 1775.59,166.352 1781.46,167.658 1787.33,168.96 1793.19,170.278 1799.01,171.638 1804.77,173.069 1810.44,174.603 1815.99,176.275 1821.37,178.124 1826.57,180.167 1831.69,182.294 1836.77,184.475 1841.8,186.696 1846.8,188.947 1851.78,191.219 1856.75,193.505 1861.71,195.796 1866.67,198.09 1871.63,200.38 1876.6,202.665 1881.57,204.945 1886.55,207.219 1891.53,209.488 1896.52,211.757 1901.5,214.03 1906.45,216.326 1911.38,218.655 1916.26,221.015 1921.12,223.407 1925.93,225.831 1930.71,228.287 1935.45,230.774 1940.15,233.292 1944.81,235.839 1949.43,238.415 1954.02,241.019 1958.57,243.649 1963.09,246.304 1967.57,248.982 1972.03,251.682 1976.46,254.4 1980.86,257.135 1985.25,259.885 1989.61,262.647 1993.97,265.417 1998.31,268.194 2002.65,270.974 2006.99,273.754 2011.34,276.529 2015.68,279.311 2019.96,282.131 2024.18,284.991 2028.34,287.887 2032.44,290.819 2036.48,293.785 2040.47,296.785 2044.4,299.815 2048.28,302.875 2052.11,305.962 2055.89,309.075 2059.62,312.213 2063.31,315.373 2066.96,318.553 2070.57,321.752 2074.15,324.967 2077.7,328.196 2081.22,331.438 2084.73,334.689 2088.21,337.949 2091.68,341.213 2095.15,344.481 2098.62,347.75 2102.08,351.017 2105.56,354.28 2109.07,357.534 2112.59,360.783 2116.12,364.03 2119.65,367.28 2123.16,370.536 2126.65,373.801 2130.11,377.078 2133.53,380.37 2136.91,383.679 2140.24,387.006 2143.52,390.353 2146.74,393.721 2149.9,397.111 2153.01,400.524 2156.05,403.959 2159.03,407.415 2161.96,410.894 2164.83,414.392 2167.65,417.91 2170.43,421.445 2173.16,424.995 2175.85,428.558 2178.52,432.131 2181.17,435.712 2183.82,439.295 2186.46,442.879 2189.11,446.459 2191.78,450.03 2194.38,453.624 2196.87,457.248 2199.26,460.9 2201.58,464.574 2203.84,468.267 2206.04,471.975 2208.2,475.696 2210.32,479.425 2212.43,483.161 2214.52,486.901 2216.6,490.643 2218.69,494.386 2220.77,498.128 2222.86,501.869 2224.96,505.606 2227.07,509.341 2229.19,513.073 2231.32,516.801 2233.46,520.528 2235.6,524.252 2237.75,527.977 2239.89,531.703 2242.01,535.433 2244.06,539.181 2246.03,542.945 2247.92,546.726 2249.73,550.523 2251.47,554.333 2253.14,558.157 2254.74,561.994 2256.27,565.842 2257.73,569.701 2259.14,573.57 2260.48,577.448 2261.77,581.335 2263.01,585.229 2264.19,589.129 2265.34,593.036 2266.44,596.948 2267.5,600.865 2268.53,604.785 2269.53,608.709 2270.5,612.636 2271.46,616.565 2272.4,620.495 2273.33,624.427 2274.25,628.358 2275.18,632.29 2276.11,636.222 2277.05,640.153 2277.92,644.09 2278.74,648.032 2279.48,651.979 2280.17,655.931 2280.8,659.887 2281.37,663.847 2281.89,667.81 2282.35,671.776 2282.77,675.744 2283.15,679.714 2283.48,683.686 2283.77,687.659 2284.03,691.633 2284.26,695.608 2284.45,699.584 2284.62,703.56 2284.77,707.537 2284.9,711.513 2285.01,715.49 2285.1,719.467 2285.19,723.444 2285.27,727.42 2285.35,731.396 2285.43,735.373 2285.51,739.35 2285.59,743.327 2285.6,747.305 2285.53,751.283 2285.39,755.26 2285.18,759.236 2284.89,763.211 2284.54,767.183 2284.12,771.153 2283.63,775.119 2283.07,779.082 2282.46,783.04 2281.78,786.994 2281.04,790.944 2280.25,794.889 2279.4,798.83 2278.5,802.765 2277.56,806.696 2276.56,810.621 2275.53,814.542 2274.45,818.458 2273.34,822.369 2272.19,826.276 2271.02,830.179 2269.81,834.079 2268.59,837.975 2267.34,841.868 2266.08,845.759 2264.81,849.649 2263.53,853.537 2262.24,857.424 2260.96,861.313 2259.68,865.201 2258.41,869.091 2257.08,872.967 2255.64,876.815 2254.09,880.64 2252.47,884.448 2250.78,888.244 2249.06,892.032 2247.3,895.817 2245.53,899.602 2243.76,903.39 2241.99,907.184 2240.24,910.986 2238.51,914.797 2236.81,918.619 2235.14,922.452 2233.5,926.298 2231.89,930.154 2230.31,934.022 2228.75,937.899 2227.22,941.784 2225.7,945.674 2224.18,949.568 2222.66,953.462 2221.13,957.352 2219.56,961.235 2217.94,965.105 2216.26,968.958 2214.5,972.79 2212.64,976.592 2210.65,980.359 2208.51,984.085 2206.19,987.755 2203.62,991.342 2200.85,994.865 2197.96,998.347 2195,1001.81 2192.01,1005.26 2189.04,1008.73 2186.11,1012.21 2183.26,1015.73 2180.5,1019.28 2177.85,1022.88 2175.29,1026.51 2172.84,1030.18 2170.48,1033.88 2168.18,1037.61 2165.92,1041.35 2163.66,1045.1 2161.37,1048.83 2158.99,1052.52 2156.45,1056.15 2153.71,1059.71 2150.8,1063.2 2147.82,1066.67 2144.76,1070.11 2141.62,1073.52 2138.41,1076.89 2135.11,1080.24 2131.75,1083.55 2128.31,1086.83 2124.81,1090.07 2121.24,1093.29 2117.61,1096.48 2113.94,1099.65 2110.21,1102.79 2106.45,1105.91 2102.66,1109.02 2098.84,1112.11 2095.01,1115.2 2091.18,1118.28 2087.35,1121.37 2083.54,1124.47 2079.77,1127.59 2076.02,1130.72 2072.29,1133.87 2068.57,1137.02 2064.84,1140.16 2061.11,1143.3 2057.35,1146.43 2053.57,1149.55 2049.75,1152.64 2045.9,1155.72 2042.02,1158.77 2038.08,1161.8 2034.11,1164.8 2030.09,1167.77 2026.02,1170.72 2021.91,1173.64 2017.76,1176.54 2013.57,1179.41 2009.34,1182.27 2005.07,1185.1 2000.78,1187.92 1996.47,1190.72 1992.14,1193.52 1987.81,1196.31 1983.48,1199.1 1979.16,1201.9 1974.85,1204.71 1970.51,1207.5 1966.12,1210.25 1961.68,1212.97 1957.19,1215.65 1952.66,1218.3 1948.08,1220.91 1943.46,1223.48 1938.78,1226.02 1934.07,1228.53 1929.32,1231 1924.54,1233.44 1919.72,1235.86 1914.87,1238.25 1910.01,1240.63 1905.13,1242.99 1900.24,1245.34 1895.35,1247.69 1890.46,1250.05 1885.56,1252.4 1880.63,1254.72 1875.66,1257 1870.65,1259.25 1865.6,1261.46 1860.53,1263.65 1855.42,1265.79 1850.27,1267.91 1845.1,1269.99 1839.9,1272.04 1834.68,1274.07 1829.43,1276.06 1824.16,1278.03 1818.86,1279.98 1813.56,1281.91 1808.23,1283.82 1802.89,1285.71 1797.55,1287.59 1792.2,1289.46 1786.84,1291.33 1781.48,1293.2 1776.13,1295.07 1770.78,1296.94 1765.4,1298.78 1760.01,1300.59 1754.59,1302.37 1749.16,1304.13 1743.71,1305.88 1738.26,1307.61 1732.79,1309.33 1727.32,1311.05 1721.83,1312.75 1716.34,1314.45 1710.85,1316.15 1705.34,1317.84 1699.83,1319.52 1694.32,1321.2 1688.79,1322.87 1683.26,1324.52 1677.72,1326.17 1672.17,1327.79 1666.6,1329.39 1661.02,1330.97 1655.42,1332.51 1649.8,1334.02 1644.15,1335.49 1638.48,1336.9 1632.78,1338.26 1627.04,1339.55 1621.3,1340.84 1615.57,1342.15 1609.85,1343.47 1604.12,1344.8 1598.4,1346.12 1592.66,1347.42 1586.92,1348.7 1581.16,1349.96 1575.39,1351.18 1569.6,1352.36 1563.79,1353.51 1557.97,1354.61 1552.13,1355.68 1546.27,1356.71 1540.4,1357.71 1534.51,1358.68 1528.61,1359.62 1522.7,1360.54 1516.79,1361.46 1510.88,1362.38 1504.97,1363.3 1499.06,1364.17 1493.12,1364.83 1487.16,1365.35 1481.18,1365.78 1475.19,1366.17 1469.19,1366.55 1463.2,1366.97 1457.2,1367.44 1451.21,1368 1445.22,1368.66 1439.24,1369.44 1433.27,1370.32 1427.31,1371.32 1421.36,1372.42 1415.42,1373.62 1409.47,1374.88 1403.54,1376.19 1397.6,1377.51 1391.65,1378.79 1385.7,1380.01 1379.74,1381.1 1373.75,1382.01 1367.74,1382.67 1361.69,1383.02 1355.61,1383.1 1349.54,1383.17 1343.46,1383.24 1337.39,1383.31 1331.31,1383.38 1325.24,1383.45 1319.16,1383.52 1313.08,1383.58 1307.01,1383.65 1300.93,1383.72 1294.86,1383.79 1288.78,1383.86 1282.7,1383.93 1276.63,1384 1270.55,1384.07 1264.48,1384.13 1258.39,1384.19 1252.29,1384.22 1246.19,1384.24 1240.08,1384.23 1233.97,1384.2 1227.85,1384.14 1221.74,1384.06 1215.62,1383.94 1209.51,1383.8 1203.4,1383.62 1197.29,1383.41 1191.19,1383.16 1185.1,1382.88 1179.01,1382.56 1172.94,1382.2 1166.87,1381.81 1160.82,1381.37 1154.78,1380.89 1148.75,1380.37 1142.74,1379.81 1136.74,1379.21 1130.75,1378.57 1124.78,1377.88 1118.83,1377.15 1112.89,1376.37 1106.97,1375.56 1101.07,1374.7 1095.18,1373.79 1089.31,1372.85 1083.46,1371.86 1077.63,1370.83 1071.82,1369.76 1066.02,1368.65 1060.24,1367.5 1054.48,1366.32 1048.74,1365.09 1043.01,1363.83 1037.3,1362.53 1031.61,1361.2 1025.93,1359.83 1020.27,1358.44 1014.62,1357.01 1008.98,1355.55 1003.36,1354.07 997.755,1352.56 992.159,1351.03 986.573,1349.48 980.996,1347.91 975.429,1346.32 969.868,1344.72 964.315,1343.1 958.765,1341.47 953.222,1339.84 947.679,1338.2 942.139,1336.56 936.598,1334.92 931.054,1333.28 925.508,1331.65 919.956,1330.03 914.398,1328.42 908.831,1326.83 903.267,1325.23 897.719,1323.6 892.189,1321.95 886.68,1320.26 881.193,1318.55 875.731,1316.8 870.295,1315.02 864.887,1313.21 859.507,1311.36 854.157,1309.48 848.837,1307.57 843.548,1305.62 838.289,1303.63 833.061,1301.62 827.862,1299.57 822.694,1297.49 817.553,1295.38 812.44,1293.24 807.353,1291.08 802.29,1288.89 797.249,1286.68 792.229,1284.44 787.226,1282.19 782.238,1279.93 777.262,1277.65 772.295,1275.36 767.333,1273.07 762.374,1270.78 757.411,1268.49 752.443,1266.21 747.467,1263.93 742.511,1261.63 737.581,1259.31 732.678,1256.96 727.805,1254.59 722.963,1252.19 718.152,1249.76 713.374,1247.31 708.628,1244.82 703.916,1242.32 699.237,1239.78 694.591,1237.23 689.977,1234.64 685.395,1232.04 680.844,1229.41 676.323,1226.75 671.83,1224.08 667.364,1221.39 662.923,1218.68 658.505,1215.95 654.107,1213.21 649.727,1210.46 645.362,1207.7 641.009,1204.93 636.665,1202.15 632.325,1199.37 627.988,1196.59 623.647,1193.81 619.299,1191.03 614.938,1188.26 610.564,1185.5 606.189,1182.73 601.824,1179.96 597.479,1177.17 593.165,1174.36 588.889,1171.53 584.658,1168.68 580.478,1165.8 576.354,1162.88 572.29,1159.94 568.288,1156.95 564.351,1153.94 560.478,1150.89 556.669,1147.8 552.923,1144.68 549.236,1141.53 545.605,1138.35 542.025,1135.14 538.49,1131.91 534.992,1128.65 531.524,1125.38 528.076,1122.1 524.638,1118.82 521.198,1115.54 517.743,1112.26 514.26,1109 510.748,1105.75 507.22,1102.5 503.69,1099.25 500.171,1096 496.674,1092.74 493.21,1089.46 489.786,1086.17 486.412,1082.86 483.092,1079.53 479.831,1076.18 476.634,1072.8 473.502,1069.4 470.436,1065.97 467.436,1062.52 464.5,1059.05 461.625,1055.55 458.807,1052.03 456.04,1048.49 453.317,1044.94 450.631,1041.37 447.971,1037.8 445.327,1034.21 442.686,1030.63 440.036,1027.05 437.36,1023.48 434.651,1019.92 431.917,1016.37 429.168,1012.82 426.415,1009.27 423.668,1005.72 420.935,1002.16 418.223,998.605 415.539,995.037 412.889,991.459 410.277,987.869 407.708,984.268 405.183,980.654 402.705,977.026 400.276,973.384 397.894,969.728 395.56,966.058 393.271,962.375 391.026,958.68 388.819,954.974 386.647,951.257 384.505,947.532 382.386,943.8 380.282,940.064 378.186,936.326 376.087,932.588 373.978,928.854 371.858,925.122 369.803,921.377 367.823,917.615 365.917,913.838 364.084,910.045 362.322,906.239 360.629,902.42 359.002,898.589 357.441,894.746 355.942,890.893 354.504,887.03 353.123,883.157 351.797,879.277 350.523,875.389 349.298,871.493 348.119,867.592 346.983,863.685 345.885,859.773 344.823,855.857 343.793,851.937 342.79,848.013 341.812,844.087 340.853,840.159 339.909,836.229 338.976,832.298 338.049,828.367 337.123,824.435 336.194,820.504 335.256,816.573 334.331,812.641 333.451,808.704 332.616,804.763 331.828,800.818 331.086,796.869 330.392,792.916 329.746,788.961 329.147,785.002 328.596,781.041 328.094,777.077 327.641,773.111 327.236,769.143 326.881,765.173 326.575,761.202 326.318,757.229 326.11,753.256 325.952,749.282 325.843,745.307 325.784,741.332 325.774,737.357 325.812,733.382 325.9,729.407 326.037,725.433 326.222,721.46 326.455,717.488 326.736,713.517 327.065,709.547 327.442,705.579 327.865,701.612 328.334,697.648 328.85,693.686 329.41,689.726 330.016,685.768 330.661,681.812 331.267,677.851 331.819,673.883 332.331,669.909 332.815,665.932 333.286,661.953 333.753,657.974 334.227,653.996 334.718,650.02 335.235,646.047 335.786,642.079 336.378,638.116 337.019,634.159 337.714,630.209 338.467,626.267 339.283,622.333 340.166,618.407 341.117,614.491 342.139,610.583 343.232,606.685 344.397,602.797 345.633,598.917 346.938,595.046 348.31,591.184 349.746,587.33 351.243,583.484 352.794,579.645 354.396,575.813 356.041,571.987 357.723,568.165 359.433,564.347 361.163,560.531 362.904,556.717 364.644,552.902 366.372,549.087 368.078,545.268 369.755,541.445 371.449,537.623 373.177,533.806 374.944,529.995 376.754,526.192 378.608,522.397 380.51,518.614 382.462,514.841 384.467,511.082 386.526,507.336 388.639,503.605 390.809,499.889 393.035,496.188 395.317,492.502 397.656,488.833 400.05,485.18 402.498,481.543 404.998,477.921 407.55,474.314 410.15,470.722 412.796,467.144 415.485,463.579 418.213,460.027 420.976,456.485 423.771,452.954 426.592,449.43 429.435,445.913 432.294,442.402 435.163,438.894 438.037,435.387 440.908,431.88 443.77,428.369 446.617,424.853 449.498,421.349 452.441,417.866 455.445,414.407 458.511,410.971 461.637,407.559 464.824,404.171 468.07,400.809 471.374,397.472 474.734,394.159 478.149,390.871 481.616,387.607 485.134,384.367 488.699,381.149 492.309,377.952 495.96,374.775 499.649,371.618 503.373,368.477 507.126,365.351 510.906,362.239 514.707,359.137 518.524,356.044 522.352,352.957 526.187,349.873 530.021,346.79 533.85,343.703 537.667,340.609 541.473,337.507 545.274,334.4 549.079,331.293 552.894,328.191 556.725,325.098 560.579,322.019 564.461,318.957 568.375,315.914 572.324,312.894 576.313,309.9 580.345,306.932 584.421,303.993 588.543,301.084 592.713,298.206 596.93,295.359 601.195,292.542 605.507,289.757 609.865,287.001 614.266,284.275 618.71,281.575 623.191,278.901 627.708,276.25 632.256,273.619 636.83,271.006 641.424,268.406 646.033,265.816 650.651,263.231 655.27,260.647 659.883,258.06 664.481,255.462 669.062,252.853 673.644,250.241 678.231,247.631 682.829,245.029 687.441,242.437 692.071,239.861 696.724,237.303 701.402,234.768 706.108,232.256 710.844,229.771 715.611,227.315 720.412,224.888 725.247,222.492 730.116,220.127 735.02,217.794 739.958,215.492 744.93,213.221 749.933,210.98 754.968,208.766 760.031,206.579 765.12,204.416 770.232,202.275 775.363,200.152 780.511,198.043 785.67,195.946 790.836,193.855 796.005,191.765 801.17,189.673 806.325,187.572 811.48,185.472 816.676,183.419 821.912,181.412 827.187,179.449 832.496,177.527 837.839,175.644 843.212,173.798 848.613,171.987 854.041,170.208 859.492,168.46 864.966,166.74 870.46,165.046 875.972,163.377 881.5,161.73 887.044,160.103 892.6,158.496 898.168,156.905 903.747,155.33 909.334,153.769 914.929,152.22 920.531,150.682 926.138,149.153 931.75,147.632 937.365,146.117 942.983,144.608 948.603,143.102 954.224,141.6 959.846,140.098 965.468,138.598 971.091,137.097 976.713,135.595 982.34,134.1 988.003,132.674 993.706,131.32 999.443,130.035 1005.21,128.813 1011.01,127.65 1016.84,126.542 1022.69,125.483 1028.56,124.471 1034.44,123.501 1040.35,122.569 1046.27,121.672 1052.2,120.807 1058.14,119.97 1064.09,119.158 1070.04,118.368 1076.01,117.597 1081.97,116.843 1087.94,116.104 1093.91,115.377 1099.88,114.66 1105.86,113.951 1111.83,113.249 1117.8,112.552 1123.78,111.858 1129.75,111.167 1135.72,110.477 1141.69,109.787 1147.67,109.097 1153.64,108.406 1159.62,107.724 1165.61,107.082 1171.6,106.481 1177.61,105.918 1183.62,105.393 1189.64,104.904 1195.66,104.45 1201.7,104.03 1207.74,103.641 1213.78,103.283 1219.83,102.954 1225.88,102.652 1231.93,102.377 1237.99,102.126 1244.05,101.899 1250.12,101.693 1256.18,101.508 1262.25,101.341 1268.32,101.191 1274.39,101.058 1280.46,100.938 1286.54,100.831 1292.61,100.736 1298.68,100.649 1304.76,100.571 1310.83,100.5 1316.91,100.433 1322.98,100.369 1329.06,100.307 1335.13,100.246 1341.21,100.182 1347.28,100.116 "/>
<path clip-path="url(#clip340)" d="M327.056 1377.32 L750.198 1377.32 L750.198 1221.8 L327.056 1221.8  Z" fill="#ffffff" fill-rule="evenodd" fill-opacity="1"/>
<polyline clip-path="url(#clip340)" style="stroke:#000000; stroke-linecap:round; stroke-linejoin:round; stroke-width:4; stroke-opacity:1; fill:none" points="327.056,1377.32 750.198,1377.32 750.198,1221.8 327.056,1221.8 327.056,1377.32 "/>
<polyline clip-path="url(#clip340)" style="stroke:#009af9; stroke-linecap:round; stroke-linejoin:round; stroke-width:16; stroke-opacity:1; fill:none" points="350.34,1273.64 490.043,1273.64 "/>
<path clip-path="url(#clip340)" d="M529.345 1259.53 Q524.253 1259.53 521.244 1263.32 Q518.258 1267.12 518.258 1273.67 Q518.258 1280.2 521.244 1283.99 Q524.253 1287.79 529.345 1287.79 Q534.438 1287.79 537.401 1283.99 Q540.387 1280.2 540.387 1273.67 Q540.387 1267.12 537.401 1263.32 Q534.438 1259.53 529.345 1259.53 M529.345 1255.73 Q536.614 1255.73 540.966 1260.61 Q545.318 1265.48 545.318 1273.67 Q545.318 1281.84 540.966 1286.73 Q536.614 1291.59 529.345 1291.59 Q522.054 1291.59 517.679 1286.73 Q513.327 1281.86 513.327 1273.67 Q513.327 1265.48 517.679 1260.61 Q522.054 1255.73 529.345 1255.73 Z" fill="#000000" fill-rule="nonzero" fill-opacity="1" /><path clip-path="url(#clip340)" d="M567.47 1268.97 Q566.753 1268.55 565.896 1268.37 Q565.063 1268.16 564.044 1268.16 Q560.433 1268.16 558.489 1270.52 Q556.568 1272.86 556.568 1277.26 L556.568 1290.92 L552.285 1290.92 L552.285 1264.99 L556.568 1264.99 L556.568 1269.02 Q557.91 1266.66 560.063 1265.52 Q562.216 1264.36 565.294 1264.36 Q565.734 1264.36 566.267 1264.43 Q566.799 1264.48 567.447 1264.6 L567.47 1268.97 Z" fill="#000000" fill-rule="nonzero" fill-opacity="1" /><path clip-path="url(#clip340)" d="M571.938 1264.99 L576.197 1264.99 L576.197 1290.92 L571.938 1290.92 L571.938 1264.99 M571.938 1254.9 L576.197 1254.9 L576.197 1260.29 L571.938 1260.29 L571.938 1254.9 Z" fill="#000000" fill-rule="nonzero" fill-opacity="1" /><path clip-path="url(#clip340)" d="M602.169 1277.65 Q602.169 1273.02 600.248 1270.48 Q598.35 1267.93 594.901 1267.93 Q591.475 1267.93 589.553 1270.48 Q587.655 1273.02 587.655 1277.65 Q587.655 1282.26 589.553 1284.8 Q591.475 1287.35 594.901 1287.35 Q598.35 1287.35 600.248 1284.8 Q602.169 1282.26 602.169 1277.65 M606.428 1287.7 Q606.428 1294.32 603.489 1297.54 Q600.549 1300.78 594.484 1300.78 Q592.239 1300.78 590.248 1300.43 Q588.257 1300.11 586.382 1299.41 L586.382 1295.27 Q588.257 1296.29 590.086 1296.77 Q591.915 1297.26 593.813 1297.26 Q598.003 1297.26 600.086 1295.06 Q602.169 1292.88 602.169 1288.46 L602.169 1286.36 Q600.85 1288.65 598.79 1289.78 Q596.729 1290.92 593.859 1290.92 Q589.091 1290.92 586.174 1287.28 Q583.257 1283.65 583.257 1277.65 Q583.257 1271.63 586.174 1268 Q589.091 1264.36 593.859 1264.36 Q596.729 1264.36 598.79 1265.5 Q600.85 1266.63 602.169 1268.92 L602.169 1264.99 L606.428 1264.99 L606.428 1287.7 Z" fill="#000000" fill-rule="nonzero" fill-opacity="1" /><path clip-path="url(#clip340)" d="M615.201 1264.99 L619.461 1264.99 L619.461 1290.92 L615.201 1290.92 L615.201 1264.99 M615.201 1254.9 L619.461 1254.9 L619.461 1260.29 L615.201 1260.29 L615.201 1254.9 Z" fill="#000000" fill-rule="nonzero" fill-opacity="1" /><path clip-path="url(#clip340)" d="M649.924 1275.27 L649.924 1290.92 L645.664 1290.92 L645.664 1275.41 Q645.664 1271.73 644.229 1269.9 Q642.794 1268.07 639.924 1268.07 Q636.475 1268.07 634.484 1270.27 Q632.493 1272.47 632.493 1276.26 L632.493 1290.92 L628.211 1290.92 L628.211 1264.99 L632.493 1264.99 L632.493 1269.02 Q634.021 1266.68 636.081 1265.52 Q638.164 1264.36 640.873 1264.36 Q645.34 1264.36 647.632 1267.14 Q649.924 1269.9 649.924 1275.27 Z" fill="#000000" fill-rule="nonzero" fill-opacity="1" /><path clip-path="url(#clip340)" d="M670.201 1277.88 Q665.039 1277.88 663.048 1279.06 Q661.058 1280.24 661.058 1283.09 Q661.058 1285.36 662.539 1286.7 Q664.044 1288.02 666.613 1288.02 Q670.155 1288.02 672.285 1285.52 Q674.437 1283 674.437 1278.83 L674.437 1277.88 L670.201 1277.88 M678.697 1276.12 L678.697 1290.92 L674.437 1290.92 L674.437 1286.98 Q672.979 1289.34 670.803 1290.48 Q668.627 1291.59 665.479 1291.59 Q661.498 1291.59 659.136 1289.36 Q656.798 1287.12 656.798 1283.37 Q656.798 1278.99 659.715 1276.77 Q662.655 1274.55 668.465 1274.55 L674.437 1274.55 L674.437 1274.13 Q674.437 1271.19 672.493 1269.6 Q670.572 1267.98 667.076 1267.98 Q664.854 1267.98 662.748 1268.51 Q660.641 1269.04 658.697 1270.11 L658.697 1266.17 Q661.035 1265.27 663.234 1264.83 Q665.433 1264.36 667.516 1264.36 Q673.141 1264.36 675.919 1267.28 Q678.697 1270.2 678.697 1276.12 Z" fill="#000000" fill-rule="nonzero" fill-opacity="1" /><path clip-path="url(#clip340)" d="M687.47 1254.9 L691.729 1254.9 L691.729 1290.92 L687.47 1290.92 L687.47 1254.9 Z" fill="#000000" fill-rule="nonzero" fill-opacity="1" /><polyline clip-path="url(#clip340)" style="stroke:#e26f46; stroke-linecap:round; stroke-linejoin:round; stroke-width:16; stroke-opacity:1; fill:none" points="350.34,1325.48 490.043,1325.48 "/>
<path clip-path="url(#clip340)" d="M518.003 1312.04 L518.003 1325.02 L523.883 1325.02 Q527.146 1325.02 528.929 1323.33 Q530.711 1321.64 530.711 1318.52 Q530.711 1315.42 528.929 1313.73 Q527.146 1312.04 523.883 1312.04 L518.003 1312.04 M513.327 1308.2 L523.883 1308.2 Q529.693 1308.2 532.656 1310.83 Q535.642 1313.45 535.642 1318.52 Q535.642 1323.64 532.656 1326.25 Q529.693 1328.87 523.883 1328.87 L518.003 1328.87 L518.003 1342.76 L513.327 1342.76 L513.327 1308.2 Z" fill="#000000" fill-rule="nonzero" fill-opacity="1" /><path clip-path="url(#clip340)" d="M555.919 1320.81 Q555.202 1320.39 554.345 1320.21 Q553.512 1320 552.493 1320 Q548.882 1320 546.938 1322.36 Q545.017 1324.7 545.017 1329.1 L545.017 1342.76 L540.734 1342.76 L540.734 1316.83 L545.017 1316.83 L545.017 1320.86 Q546.359 1318.5 548.512 1317.36 Q550.665 1316.2 553.743 1316.2 Q554.183 1316.2 554.716 1316.27 Q555.248 1316.32 555.896 1316.44 L555.919 1320.81 Z" fill="#000000" fill-rule="nonzero" fill-opacity="1" /><path clip-path="url(#clip340)" d="M581.521 1328.73 L581.521 1330.81 L561.938 1330.81 Q562.216 1335.21 564.577 1337.52 Q566.961 1339.82 571.197 1339.82 Q573.651 1339.82 575.942 1339.21 Q578.257 1338.61 580.526 1337.41 L580.526 1341.44 Q578.234 1342.41 575.827 1342.92 Q573.419 1343.43 570.942 1343.43 Q564.739 1343.43 561.105 1339.82 Q557.493 1336.2 557.493 1330.05 Q557.493 1323.68 560.919 1319.95 Q564.368 1316.2 570.202 1316.2 Q575.433 1316.2 578.466 1319.58 Q581.521 1322.94 581.521 1328.73 M577.262 1327.48 Q577.216 1323.98 575.294 1321.9 Q573.396 1319.82 570.248 1319.82 Q566.683 1319.82 564.53 1321.83 Q562.401 1323.84 562.077 1327.5 L577.262 1327.48 Z" fill="#000000" fill-rule="nonzero" fill-opacity="1" /><path clip-path="url(#clip340)" d="M605.572 1320.76 L605.572 1306.74 L609.831 1306.74 L609.831 1342.76 L605.572 1342.76 L605.572 1338.87 Q604.229 1341.18 602.169 1342.32 Q600.132 1343.43 597.262 1343.43 Q592.563 1343.43 589.6 1339.68 Q586.66 1335.93 586.66 1329.82 Q586.66 1323.7 589.6 1319.95 Q592.563 1316.2 597.262 1316.2 Q600.132 1316.2 602.169 1317.34 Q604.229 1318.45 605.572 1320.76 M591.058 1329.82 Q591.058 1334.51 592.979 1337.2 Q594.924 1339.86 598.303 1339.86 Q601.683 1339.86 603.627 1337.2 Q605.572 1334.51 605.572 1329.82 Q605.572 1325.12 603.627 1322.45 Q601.683 1319.77 598.303 1319.77 Q594.924 1319.77 592.979 1322.45 Q591.058 1325.12 591.058 1329.82 Z" fill="#000000" fill-rule="nonzero" fill-opacity="1" /><path clip-path="url(#clip340)" d="M618.604 1316.83 L622.863 1316.83 L622.863 1342.76 L618.604 1342.76 L618.604 1316.83 M618.604 1306.74 L622.863 1306.74 L622.863 1312.13 L618.604 1312.13 L618.604 1306.74 Z" fill="#000000" fill-rule="nonzero" fill-opacity="1" /><path clip-path="url(#clip340)" d="M650.433 1317.82 L650.433 1321.81 Q648.627 1320.81 646.799 1320.32 Q644.993 1319.82 643.141 1319.82 Q638.998 1319.82 636.706 1322.45 Q634.414 1325.07 634.414 1329.82 Q634.414 1334.56 636.706 1337.2 Q638.998 1339.82 643.141 1339.82 Q644.993 1339.82 646.799 1339.33 Q648.627 1338.82 650.433 1337.82 L650.433 1341.76 Q648.65 1342.59 646.729 1343.01 Q644.831 1343.43 642.678 1343.43 Q636.822 1343.43 633.373 1339.75 Q629.924 1336.07 629.924 1329.82 Q629.924 1323.47 633.396 1319.84 Q636.891 1316.2 642.956 1316.2 Q644.924 1316.2 646.799 1316.62 Q648.674 1317.01 650.433 1317.82 Z" fill="#000000" fill-rule="nonzero" fill-opacity="1" /><path clip-path="url(#clip340)" d="M662.053 1309.47 L662.053 1316.83 L670.826 1316.83 L670.826 1320.14 L662.053 1320.14 L662.053 1334.21 Q662.053 1337.38 662.91 1338.29 Q663.789 1339.19 666.451 1339.19 L670.826 1339.19 L670.826 1342.76 L666.451 1342.76 Q661.521 1342.76 659.646 1340.93 Q657.771 1339.07 657.771 1334.21 L657.771 1320.14 L654.646 1320.14 L654.646 1316.83 L657.771 1316.83 L657.771 1309.47 L662.053 1309.47 Z" fill="#000000" fill-rule="nonzero" fill-opacity="1" /><path clip-path="url(#clip340)" d="M698.604 1328.73 L698.604 1330.81 L679.021 1330.81 Q679.298 1335.21 681.659 1337.52 Q684.044 1339.82 688.28 1339.82 Q690.733 1339.82 693.025 1339.21 Q695.34 1338.61 697.608 1337.41 L697.608 1341.44 Q695.317 1342.41 692.909 1342.92 Q690.502 1343.43 688.025 1343.43 Q681.822 1343.43 678.187 1339.82 Q674.576 1336.2 674.576 1330.05 Q674.576 1323.68 678.002 1319.95 Q681.451 1316.2 687.284 1316.2 Q692.516 1316.2 695.548 1319.58 Q698.604 1322.94 698.604 1328.73 M694.345 1327.48 Q694.298 1323.98 692.377 1321.9 Q690.479 1319.82 687.331 1319.82 Q683.766 1319.82 681.613 1321.83 Q679.484 1323.84 679.159 1327.5 L694.345 1327.48 Z" fill="#000000" fill-rule="nonzero" fill-opacity="1" /><path clip-path="url(#clip340)" d="M722.655 1320.76 L722.655 1306.74 L726.914 1306.74 L726.914 1342.76 L722.655 1342.76 L722.655 1338.87 Q721.312 1341.18 719.252 1342.32 Q717.215 1343.43 714.344 1343.43 Q709.645 1343.43 706.682 1339.68 Q703.743 1335.93 703.743 1329.82 Q703.743 1323.7 706.682 1319.95 Q709.645 1316.2 714.344 1316.2 Q717.215 1316.2 719.252 1317.34 Q721.312 1318.45 722.655 1320.76 M708.141 1329.82 Q708.141 1334.51 710.062 1337.2 Q712.007 1339.86 715.386 1339.86 Q718.766 1339.86 720.71 1337.2 Q722.655 1334.51 722.655 1329.82 Q722.655 1325.12 720.71 1322.45 Q718.766 1319.77 715.386 1319.77 Q712.007 1319.77 710.062 1322.45 Q708.141 1325.12 708.141 1329.82 Z" fill="#000000" fill-rule="nonzero" fill-opacity="1" /></svg>
