<?xml version="1.0" encoding="utf-8"?>
<svg xmlns="http://www.w3.org/2000/svg" xmlns:xlink="http://www.w3.org/1999/xlink" width="600" height="400" viewBox="0 0 2400 1600">
<defs>
  <clipPath id="clip740">
    <rect x="0" y="0" width="2400" height="1600"/>
  </clipPath>
</defs>
<path clip-path="url(#clip740)" d="M0 1600 L2400 1600 L2400 0 L0 0  Z" fill="#ffffff" fill-rule="evenodd" fill-opacity="1"/>
<defs>
  <clipPath id="clip741">
    <rect x="480" y="0" width="1681" height="1600"/>
  </clipPath>
</defs>
<path clip-path="url(#clip740)" d="M257.204 1423.18 L2352.76 1423.18 L2352.76 47.2441 L257.204 47.2441  Z" fill="#ffffff" fill-rule="evenodd" fill-opacity="1"/>
<defs>
  <clipPath id="clip742">
    <rect x="257" y="47" width="2097" height="1377"/>
  </clipPath>
</defs>
<polyline clip-path="url(#clip742)" style="stroke:#000000; stroke-linecap:round; stroke-linejoin:round; stroke-width:2; stroke-opacity:0.1; fill:none" points="316.511,1423.18 316.511,47.2441 "/>
<polyline clip-path="url(#clip742)" style="stroke:#000000; stroke-linecap:round; stroke-linejoin:round; stroke-width:2; stroke-opacity:0.1; fill:none" points="809.196,1423.18 809.196,47.2441 "/>
<polyline clip-path="url(#clip742)" style="stroke:#000000; stroke-linecap:round; stroke-linejoin:round; stroke-width:2; stroke-opacity:0.1; fill:none" points="1301.88,1423.18 1301.88,47.2441 "/>
<polyline clip-path="url(#clip742)" style="stroke:#000000; stroke-linecap:round; stroke-linejoin:round; stroke-width:2; stroke-opacity:0.1; fill:none" points="1794.57,1423.18 1794.57,47.2441 "/>
<polyline clip-path="url(#clip742)" style="stroke:#000000; stroke-linecap:round; stroke-linejoin:round; stroke-width:2; stroke-opacity:0.1; fill:none" points="2287.25,1423.18 2287.25,47.2441 "/>
<polyline clip-path="url(#clip740)" style="stroke:#000000; stroke-linecap:round; stroke-linejoin:round; stroke-width:4; stroke-opacity:1; fill:none" points="257.204,1423.18 2352.76,1423.18 "/>
<polyline clip-path="url(#clip740)" style="stroke:#000000; stroke-linecap:round; stroke-linejoin:round; stroke-width:4; stroke-opacity:1; fill:none" points="316.511,1423.18 316.511,1404.28 "/>
<polyline clip-path="url(#clip740)" style="stroke:#000000; stroke-linecap:round; stroke-linejoin:round; stroke-width:4; stroke-opacity:1; fill:none" points="809.196,1423.18 809.196,1404.28 "/>
<polyline clip-path="url(#clip740)" style="stroke:#000000; stroke-linecap:round; stroke-linejoin:round; stroke-width:4; stroke-opacity:1; fill:none" points="1301.88,1423.18 1301.88,1404.28 "/>
<polyline clip-path="url(#clip740)" style="stroke:#000000; stroke-linecap:round; stroke-linejoin:round; stroke-width:4; stroke-opacity:1; fill:none" points="1794.57,1423.18 1794.57,1404.28 "/>
<polyline clip-path="url(#clip740)" style="stroke:#000000; stroke-linecap:round; stroke-linejoin:round; stroke-width:4; stroke-opacity:1; fill:none" points="2287.25,1423.18 2287.25,1404.28 "/>
<path clip-path="url(#clip740)" d="M263.039 1468.75 L292.715 1468.75 L292.715 1472.69 L263.039 1472.69 L263.039 1468.75 Z" fill="#000000" fill-rule="nonzero" fill-opacity="1" /><path clip-path="url(#clip740)" d="M303.617 1481.64 L311.256 1481.64 L311.256 1455.28 L302.946 1456.95 L302.946 1452.69 L311.21 1451.02 L315.886 1451.02 L315.886 1481.64 L323.525 1481.64 L323.525 1485.58 L303.617 1485.58 L303.617 1481.64 Z" fill="#000000" fill-rule="nonzero" fill-opacity="1" /><path clip-path="url(#clip740)" d="M332.969 1479.7 L337.853 1479.7 L337.853 1485.58 L332.969 1485.58 L332.969 1479.7 Z" fill="#000000" fill-rule="nonzero" fill-opacity="1" /><path clip-path="url(#clip740)" d="M358.038 1454.1 Q354.427 1454.1 352.599 1457.66 Q350.793 1461.2 350.793 1468.33 Q350.793 1475.44 352.599 1479.01 Q354.427 1482.55 358.038 1482.55 Q361.673 1482.55 363.478 1479.01 Q365.307 1475.44 365.307 1468.33 Q365.307 1461.2 363.478 1457.66 Q361.673 1454.1 358.038 1454.1 M358.038 1450.39 Q363.849 1450.39 366.904 1455 Q369.983 1459.58 369.983 1468.33 Q369.983 1477.06 366.904 1481.67 Q363.849 1486.25 358.038 1486.25 Q352.228 1486.25 349.15 1481.67 Q346.094 1477.06 346.094 1468.33 Q346.094 1459.58 349.15 1455 Q352.228 1450.39 358.038 1450.39 Z" fill="#000000" fill-rule="nonzero" fill-opacity="1" /><path clip-path="url(#clip740)" d="M756.222 1468.75 L785.897 1468.75 L785.897 1472.69 L756.222 1472.69 L756.222 1468.75 Z" fill="#000000" fill-rule="nonzero" fill-opacity="1" /><path clip-path="url(#clip740)" d="M805.99 1454.1 Q802.379 1454.1 800.55 1457.66 Q798.745 1461.2 798.745 1468.33 Q798.745 1475.44 800.55 1479.01 Q802.379 1482.55 805.99 1482.55 Q809.624 1482.55 811.43 1479.01 Q813.258 1475.44 813.258 1468.33 Q813.258 1461.2 811.43 1457.66 Q809.624 1454.1 805.99 1454.1 M805.99 1450.39 Q811.8 1450.39 814.856 1455 Q817.934 1459.58 817.934 1468.33 Q817.934 1477.06 814.856 1481.67 Q811.8 1486.25 805.99 1486.25 Q800.18 1486.25 797.101 1481.67 Q794.046 1477.06 794.046 1468.33 Q794.046 1459.58 797.101 1455 Q800.18 1450.39 805.99 1450.39 Z" fill="#000000" fill-rule="nonzero" fill-opacity="1" /><path clip-path="url(#clip740)" d="M826.152 1479.7 L831.036 1479.7 L831.036 1485.58 L826.152 1485.58 L826.152 1479.7 Z" fill="#000000" fill-rule="nonzero" fill-opacity="1" /><path clip-path="url(#clip740)" d="M841.267 1451.02 L859.624 1451.02 L859.624 1454.96 L845.55 1454.96 L845.55 1463.43 Q846.568 1463.08 847.587 1462.92 Q848.605 1462.73 849.624 1462.73 Q855.411 1462.73 858.791 1465.9 Q862.17 1469.08 862.17 1474.49 Q862.17 1480.07 858.698 1483.17 Q855.226 1486.25 848.906 1486.25 Q846.73 1486.25 844.462 1485.88 Q842.217 1485.51 839.809 1484.77 L839.809 1480.07 Q841.892 1481.2 844.115 1481.76 Q846.337 1482.32 848.814 1482.32 Q852.818 1482.32 855.156 1480.21 Q857.494 1478.1 857.494 1474.49 Q857.494 1470.88 855.156 1468.77 Q852.818 1466.67 848.814 1466.67 Q846.939 1466.67 845.064 1467.08 Q843.212 1467.5 841.267 1468.38 L841.267 1451.02 Z" fill="#000000" fill-rule="nonzero" fill-opacity="1" /><path clip-path="url(#clip740)" d="M1279.27 1454.1 Q1275.65 1454.1 1273.83 1457.66 Q1272.02 1461.2 1272.02 1468.33 Q1272.02 1475.44 1273.83 1479.01 Q1275.65 1482.55 1279.27 1482.55 Q1282.9 1482.55 1284.71 1479.01 Q1286.53 1475.44 1286.53 1468.33 Q1286.53 1461.2 1284.71 1457.66 Q1282.9 1454.1 1279.27 1454.1 M1279.27 1450.39 Q1285.08 1450.39 1288.13 1455 Q1291.21 1459.58 1291.21 1468.33 Q1291.21 1477.06 1288.13 1481.67 Q1285.08 1486.25 1279.27 1486.25 Q1273.46 1486.25 1270.38 1481.67 Q1267.32 1477.06 1267.32 1468.33 Q1267.32 1459.58 1270.38 1455 Q1273.46 1450.39 1279.27 1450.39 Z" fill="#000000" fill-rule="nonzero" fill-opacity="1" /><path clip-path="url(#clip740)" d="M1299.43 1479.7 L1304.31 1479.7 L1304.31 1485.58 L1299.43 1485.58 L1299.43 1479.7 Z" fill="#000000" fill-rule="nonzero" fill-opacity="1" /><path clip-path="url(#clip740)" d="M1324.5 1454.1 Q1320.89 1454.1 1319.06 1457.66 Q1317.25 1461.2 1317.25 1468.33 Q1317.25 1475.44 1319.06 1479.01 Q1320.89 1482.55 1324.5 1482.55 Q1328.13 1482.55 1329.94 1479.01 Q1331.76 1475.44 1331.76 1468.33 Q1331.76 1461.2 1329.94 1457.66 Q1328.13 1454.1 1324.5 1454.1 M1324.5 1450.39 Q1330.31 1450.39 1333.36 1455 Q1336.44 1459.58 1336.44 1468.33 Q1336.44 1477.06 1333.36 1481.67 Q1330.31 1486.25 1324.5 1486.25 Q1318.69 1486.25 1315.61 1481.67 Q1312.55 1477.06 1312.55 1468.33 Q1312.55 1459.58 1315.61 1455 Q1318.69 1450.39 1324.5 1450.39 Z" fill="#000000" fill-rule="nonzero" fill-opacity="1" /><path clip-path="url(#clip740)" d="M1772.45 1454.1 Q1768.84 1454.1 1767.01 1457.66 Q1765.2 1461.2 1765.2 1468.33 Q1765.2 1475.44 1767.01 1479.01 Q1768.84 1482.55 1772.45 1482.55 Q1776.08 1482.55 1777.89 1479.01 Q1779.72 1475.44 1779.72 1468.33 Q1779.72 1461.2 1777.89 1457.66 Q1776.08 1454.1 1772.45 1454.1 M1772.45 1450.39 Q1778.26 1450.39 1781.31 1455 Q1784.39 1459.58 1784.39 1468.33 Q1784.39 1477.06 1781.31 1481.67 Q1778.26 1486.25 1772.45 1486.25 Q1766.64 1486.25 1763.56 1481.67 Q1760.5 1477.06 1760.5 1468.33 Q1760.5 1459.58 1763.56 1455 Q1766.64 1450.39 1772.45 1450.39 Z" fill="#000000" fill-rule="nonzero" fill-opacity="1" /><path clip-path="url(#clip740)" d="M1792.61 1479.7 L1797.49 1479.7 L1797.49 1485.58 L1792.61 1485.58 L1792.61 1479.7 Z" fill="#000000" fill-rule="nonzero" fill-opacity="1" /><path clip-path="url(#clip740)" d="M1807.73 1451.02 L1826.08 1451.02 L1826.08 1454.96 L1812.01 1454.96 L1812.01 1463.43 Q1813.03 1463.08 1814.04 1462.92 Q1815.06 1462.73 1816.08 1462.73 Q1821.87 1462.73 1825.25 1465.9 Q1828.63 1469.08 1828.63 1474.49 Q1828.63 1480.07 1825.16 1483.17 Q1821.68 1486.25 1815.36 1486.25 Q1813.19 1486.25 1810.92 1485.88 Q1808.67 1485.51 1806.27 1484.77 L1806.27 1480.07 Q1808.35 1481.2 1810.57 1481.76 Q1812.79 1482.32 1815.27 1482.32 Q1819.28 1482.32 1821.61 1480.21 Q1823.95 1478.1 1823.95 1474.49 Q1823.95 1470.88 1821.61 1468.77 Q1819.28 1466.67 1815.27 1466.67 Q1813.4 1466.67 1811.52 1467.08 Q1809.67 1467.5 1807.73 1468.38 L1807.73 1451.02 Z" fill="#000000" fill-rule="nonzero" fill-opacity="1" /><path clip-path="url(#clip740)" d="M2254.4 1481.64 L2262.04 1481.64 L2262.04 1455.28 L2253.73 1456.95 L2253.73 1452.69 L2262 1451.02 L2266.67 1451.02 L2266.67 1481.64 L2274.31 1481.64 L2274.31 1485.58 L2254.4 1485.58 L2254.4 1481.64 Z" fill="#000000" fill-rule="nonzero" fill-opacity="1" /><path clip-path="url(#clip740)" d="M2283.76 1479.7 L2288.64 1479.7 L2288.64 1485.58 L2283.76 1485.58 L2283.76 1479.7 Z" fill="#000000" fill-rule="nonzero" fill-opacity="1" /><path clip-path="url(#clip740)" d="M2308.82 1454.1 Q2305.21 1454.1 2303.39 1457.66 Q2301.58 1461.2 2301.58 1468.33 Q2301.58 1475.44 2303.39 1479.01 Q2305.21 1482.55 2308.82 1482.55 Q2312.46 1482.55 2314.26 1479.01 Q2316.09 1475.44 2316.09 1468.33 Q2316.09 1461.2 2314.26 1457.66 Q2312.46 1454.1 2308.82 1454.1 M2308.82 1450.39 Q2314.63 1450.39 2317.69 1455 Q2320.77 1459.58 2320.77 1468.33 Q2320.77 1477.06 2317.69 1481.67 Q2314.63 1486.25 2308.82 1486.25 Q2303.01 1486.25 2299.94 1481.67 Q2296.88 1477.06 2296.88 1468.33 Q2296.88 1459.58 2299.94 1455 Q2303.01 1450.39 2308.82 1450.39 Z" fill="#000000" fill-rule="nonzero" fill-opacity="1" /><path clip-path="url(#clip740)" d="M1134.03 1525.81 L1134.03 1543.66 L1142.11 1543.66 Q1146.6 1543.66 1149.05 1541.34 Q1151.5 1539.02 1151.5 1534.72 Q1151.5 1530.45 1149.05 1528.13 Q1146.6 1525.81 1142.11 1525.81 L1134.03 1525.81 M1127.6 1520.52 L1142.11 1520.52 Q1150.1 1520.52 1154.18 1524.15 Q1158.28 1527.75 1158.28 1534.72 Q1158.28 1541.75 1154.18 1545.35 Q1150.1 1548.95 1142.11 1548.95 L1134.03 1548.95 L1134.03 1568.04 L1127.6 1568.04 L1127.6 1520.52 Z" fill="#000000" fill-rule="nonzero" fill-opacity="1" /><path clip-path="url(#clip740)" d="M1178.14 1536.5 Q1173.43 1536.5 1170.7 1540.19 Q1167.96 1543.85 1167.96 1550.25 Q1167.96 1556.65 1170.66 1560.34 Q1173.4 1564 1178.14 1564 Q1182.82 1564 1185.56 1560.31 Q1188.3 1556.62 1188.3 1550.25 Q1188.3 1543.92 1185.56 1540.23 Q1182.82 1536.5 1178.14 1536.5 M1178.14 1531.54 Q1185.78 1531.54 1190.14 1536.5 Q1194.5 1541.47 1194.5 1550.25 Q1194.5 1559 1190.14 1564 Q1185.78 1568.97 1178.14 1568.97 Q1170.47 1568.97 1166.11 1564 Q1161.78 1559 1161.78 1550.25 Q1161.78 1541.47 1166.11 1536.5 Q1170.47 1531.54 1178.14 1531.54 Z" fill="#000000" fill-rule="nonzero" fill-opacity="1" /><path clip-path="url(#clip740)" d="M1226.94 1533.45 L1226.94 1538.98 Q1224.45 1537.71 1221.78 1537.07 Q1219.11 1536.44 1216.24 1536.44 Q1211.88 1536.44 1209.69 1537.77 Q1207.52 1539.11 1207.52 1541.79 Q1207.52 1543.82 1209.08 1545 Q1210.64 1546.15 1215.35 1547.2 L1217.36 1547.64 Q1223.59 1548.98 1226.2 1551.43 Q1228.85 1553.85 1228.85 1558.21 Q1228.85 1563.17 1224.9 1566.07 Q1220.98 1568.97 1214.11 1568.97 Q1211.24 1568.97 1208.13 1568.39 Q1205.04 1567.85 1201.6 1566.74 L1201.6 1560.69 Q1204.85 1562.38 1208 1563.24 Q1211.15 1564.07 1214.24 1564.07 Q1218.37 1564.07 1220.6 1562.66 Q1222.83 1561.23 1222.83 1558.65 Q1222.83 1556.27 1221.21 1554.99 Q1219.62 1553.72 1214.17 1552.54 L1212.14 1552.07 Q1206.69 1550.92 1204.27 1548.56 Q1201.86 1546.18 1201.86 1542.04 Q1201.86 1537.01 1205.42 1534.27 Q1208.99 1531.54 1215.54 1531.54 Q1218.79 1531.54 1221.65 1532.01 Q1224.52 1532.49 1226.94 1533.45 Z" fill="#000000" fill-rule="nonzero" fill-opacity="1" /><path clip-path="url(#clip740)" d="M1238.17 1532.4 L1244.03 1532.4 L1244.03 1568.04 L1238.17 1568.04 L1238.17 1532.4 M1238.17 1518.52 L1244.03 1518.52 L1244.03 1525.93 L1238.17 1525.93 L1238.17 1518.52 Z" fill="#000000" fill-rule="nonzero" fill-opacity="1" /><path clip-path="url(#clip740)" d="M1262.08 1522.27 L1262.08 1532.4 L1274.14 1532.4 L1274.14 1536.95 L1262.08 1536.95 L1262.08 1556.3 Q1262.08 1560.66 1263.25 1561.9 Q1264.46 1563.14 1268.12 1563.14 L1274.14 1563.14 L1274.14 1568.04 L1268.12 1568.04 Q1261.34 1568.04 1258.76 1565.53 Q1256.19 1562.98 1256.19 1556.3 L1256.19 1536.95 L1251.89 1536.95 L1251.89 1532.4 L1256.19 1532.4 L1256.19 1522.27 L1262.08 1522.27 Z" fill="#000000" fill-rule="nonzero" fill-opacity="1" /><path clip-path="url(#clip740)" d="M1281.84 1532.4 L1287.7 1532.4 L1287.7 1568.04 L1281.84 1568.04 L1281.84 1532.4 M1281.84 1518.52 L1287.7 1518.52 L1287.7 1525.93 L1281.84 1525.93 L1281.84 1518.52 Z" fill="#000000" fill-rule="nonzero" fill-opacity="1" /><path clip-path="url(#clip740)" d="M1313.76 1536.5 Q1309.05 1536.5 1306.32 1540.19 Q1303.58 1543.85 1303.58 1550.25 Q1303.58 1556.65 1306.28 1560.34 Q1309.02 1564 1313.76 1564 Q1318.44 1564 1321.18 1560.31 Q1323.92 1556.62 1323.92 1550.25 Q1323.92 1543.92 1321.18 1540.23 Q1318.44 1536.5 1313.76 1536.5 M1313.76 1531.54 Q1321.4 1531.54 1325.76 1536.5 Q1330.12 1541.47 1330.12 1550.25 Q1330.12 1559 1325.76 1564 Q1321.4 1568.97 1313.76 1568.97 Q1306.09 1568.97 1301.73 1564 Q1297.4 1559 1297.4 1550.25 Q1297.4 1541.47 1301.73 1536.5 Q1306.09 1531.54 1313.76 1531.54 Z" fill="#000000" fill-rule="nonzero" fill-opacity="1" /><path clip-path="url(#clip740)" d="M1369.46 1546.53 L1369.46 1568.04 L1363.61 1568.04 L1363.61 1546.72 Q1363.61 1541.66 1361.63 1539.14 Q1359.66 1536.63 1355.71 1536.63 Q1350.97 1536.63 1348.23 1539.65 Q1345.5 1542.68 1345.5 1547.9 L1345.5 1568.04 L1339.61 1568.04 L1339.61 1532.4 L1345.5 1532.4 L1345.5 1537.93 Q1347.6 1534.72 1350.43 1533.13 Q1353.3 1531.54 1357.02 1531.54 Q1363.16 1531.54 1366.31 1535.36 Q1369.46 1539.14 1369.46 1546.53 Z" fill="#000000" fill-rule="nonzero" fill-opacity="1" /><path clip-path="url(#clip740)" d="M1415.93 1518.58 Q1411.67 1525.9 1409.6 1533.06 Q1407.53 1540.23 1407.53 1547.58 Q1407.53 1554.93 1409.6 1562.16 Q1411.7 1569.35 1415.93 1576.64 L1410.84 1576.64 Q1406.07 1569.16 1403.68 1561.93 Q1401.32 1554.71 1401.32 1547.58 Q1401.32 1540.48 1403.68 1533.29 Q1406.04 1526.09 1410.84 1518.58 L1415.93 1518.58 Z" fill="#000000" fill-rule="nonzero" fill-opacity="1" /><path clip-path="url(#clip740)" d="M1430.8 1550.25 Q1430.8 1556.71 1433.44 1560.4 Q1436.11 1564.07 1440.76 1564.07 Q1445.41 1564.07 1448.08 1560.4 Q1450.75 1556.71 1450.75 1550.25 Q1450.75 1543.79 1448.08 1540.13 Q1445.41 1536.44 1440.76 1536.44 Q1436.11 1536.44 1433.44 1540.13 Q1430.8 1543.79 1430.8 1550.25 M1450.75 1562.7 Q1448.91 1565.88 1446.08 1567.44 Q1443.27 1568.97 1439.33 1568.97 Q1432.87 1568.97 1428.79 1563.81 Q1424.75 1558.65 1424.75 1550.25 Q1424.75 1541.85 1428.79 1536.69 Q1432.87 1531.54 1439.33 1531.54 Q1443.27 1531.54 1446.08 1533.1 Q1448.91 1534.62 1450.75 1537.81 L1450.75 1532.4 L1456.61 1532.4 L1456.61 1581.6 L1450.75 1581.6 L1450.75 1562.7 Z" fill="#000000" fill-rule="nonzero" fill-opacity="1" /><path clip-path="url(#clip740)" d="M1467.75 1518.58 L1472.84 1518.58 Q1477.62 1526.09 1479.97 1533.29 Q1482.36 1540.48 1482.36 1547.58 Q1482.36 1554.71 1479.97 1561.93 Q1477.62 1569.16 1472.84 1576.64 L1467.75 1576.64 Q1471.98 1569.35 1474.05 1562.16 Q1476.15 1554.93 1476.15 1547.58 Q1476.15 1540.23 1474.05 1533.06 Q1471.98 1525.9 1467.75 1518.58 Z" fill="#000000" fill-rule="nonzero" fill-opacity="1" /><polyline clip-path="url(#clip742)" style="stroke:#000000; stroke-linecap:round; stroke-linejoin:round; stroke-width:2; stroke-opacity:0.1; fill:none" points="257.204,1381.9 2352.76,1381.9 "/>
<polyline clip-path="url(#clip742)" style="stroke:#000000; stroke-linecap:round; stroke-linejoin:round; stroke-width:2; stroke-opacity:0.1; fill:none" points="257.204,1057.97 2352.76,1057.97 "/>
<polyline clip-path="url(#clip742)" style="stroke:#000000; stroke-linecap:round; stroke-linejoin:round; stroke-width:2; stroke-opacity:0.1; fill:none" points="257.204,734.041 2352.76,734.041 "/>
<polyline clip-path="url(#clip742)" style="stroke:#000000; stroke-linecap:round; stroke-linejoin:round; stroke-width:2; stroke-opacity:0.1; fill:none" points="257.204,410.114 2352.76,410.114 "/>
<polyline clip-path="url(#clip742)" style="stroke:#000000; stroke-linecap:round; stroke-linejoin:round; stroke-width:2; stroke-opacity:0.1; fill:none" points="257.204,86.1857 2352.76,86.1857 "/>
<polyline clip-path="url(#clip740)" style="stroke:#000000; stroke-linecap:round; stroke-linejoin:round; stroke-width:4; stroke-opacity:1; fill:none" points="257.204,1423.18 257.204,47.2441 "/>
<polyline clip-path="url(#clip740)" style="stroke:#000000; stroke-linecap:round; stroke-linejoin:round; stroke-width:4; stroke-opacity:1; fill:none" points="257.204,1381.9 276.102,1381.9 "/>
<polyline clip-path="url(#clip740)" style="stroke:#000000; stroke-linecap:round; stroke-linejoin:round; stroke-width:4; stroke-opacity:1; fill:none" points="257.204,1057.97 276.102,1057.97 "/>
<polyline clip-path="url(#clip740)" style="stroke:#000000; stroke-linecap:round; stroke-linejoin:round; stroke-width:4; stroke-opacity:1; fill:none" points="257.204,734.041 276.102,734.041 "/>
<polyline clip-path="url(#clip740)" style="stroke:#000000; stroke-linecap:round; stroke-linejoin:round; stroke-width:4; stroke-opacity:1; fill:none" points="257.204,410.114 276.102,410.114 "/>
<polyline clip-path="url(#clip740)" style="stroke:#000000; stroke-linecap:round; stroke-linejoin:round; stroke-width:4; stroke-opacity:1; fill:none" points="257.204,86.1857 276.102,86.1857 "/>
<path clip-path="url(#clip740)" d="M114.26 1382.35 L143.936 1382.35 L143.936 1386.28 L114.26 1386.28 L114.26 1382.35 Z" fill="#000000" fill-rule="nonzero" fill-opacity="1" /><path clip-path="url(#clip740)" d="M154.839 1395.24 L162.477 1395.24 L162.477 1368.88 L154.167 1370.54 L154.167 1366.28 L162.431 1364.62 L167.107 1364.62 L167.107 1395.24 L174.746 1395.24 L174.746 1399.18 L154.839 1399.18 L154.839 1395.24 Z" fill="#000000" fill-rule="nonzero" fill-opacity="1" /><path clip-path="url(#clip740)" d="M184.19 1393.3 L189.075 1393.3 L189.075 1399.18 L184.19 1399.18 L184.19 1393.3 Z" fill="#000000" fill-rule="nonzero" fill-opacity="1" /><path clip-path="url(#clip740)" d="M209.26 1367.7 Q205.649 1367.7 203.82 1371.26 Q202.014 1374.8 202.014 1381.93 Q202.014 1389.04 203.82 1392.6 Q205.649 1396.14 209.26 1396.14 Q212.894 1396.14 214.699 1392.6 Q216.528 1389.04 216.528 1381.93 Q216.528 1374.8 214.699 1371.26 Q212.894 1367.7 209.26 1367.7 M209.26 1363.99 Q215.07 1363.99 218.125 1368.6 Q221.204 1373.18 221.204 1381.93 Q221.204 1390.66 218.125 1395.27 Q215.07 1399.85 209.26 1399.85 Q203.449 1399.85 200.371 1395.27 Q197.315 1390.66 197.315 1381.93 Q197.315 1373.18 200.371 1368.6 Q203.449 1363.99 209.26 1363.99 Z" fill="#000000" fill-rule="nonzero" fill-opacity="1" /><path clip-path="url(#clip740)" d="M115.256 1058.42 L144.931 1058.42 L144.931 1062.36 L115.256 1062.36 L115.256 1058.42 Z" fill="#000000" fill-rule="nonzero" fill-opacity="1" /><path clip-path="url(#clip740)" d="M165.024 1043.77 Q161.413 1043.77 159.584 1047.33 Q157.778 1050.87 157.778 1058 Q157.778 1065.11 159.584 1068.68 Q161.413 1072.22 165.024 1072.22 Q168.658 1072.22 170.464 1068.68 Q172.292 1065.11 172.292 1058 Q172.292 1050.87 170.464 1047.33 Q168.658 1043.77 165.024 1043.77 M165.024 1040.06 Q170.834 1040.06 173.889 1044.67 Q176.968 1049.25 176.968 1058 Q176.968 1066.73 173.889 1071.34 Q170.834 1075.92 165.024 1075.92 Q159.214 1075.92 156.135 1071.34 Q153.079 1066.73 153.079 1058 Q153.079 1049.25 156.135 1044.67 Q159.214 1040.06 165.024 1040.06 Z" fill="#000000" fill-rule="nonzero" fill-opacity="1" /><path clip-path="url(#clip740)" d="M185.186 1069.37 L190.07 1069.37 L190.07 1075.25 L185.186 1075.25 L185.186 1069.37 Z" fill="#000000" fill-rule="nonzero" fill-opacity="1" /><path clip-path="url(#clip740)" d="M200.301 1040.69 L218.658 1040.69 L218.658 1044.62 L204.584 1044.62 L204.584 1053.1 Q205.602 1052.75 206.621 1052.59 Q207.639 1052.4 208.658 1052.4 Q214.445 1052.4 217.824 1055.57 Q221.204 1058.74 221.204 1064.16 Q221.204 1069.74 217.732 1072.84 Q214.26 1075.92 207.94 1075.92 Q205.764 1075.92 203.496 1075.55 Q201.25 1075.18 198.843 1074.44 L198.843 1069.74 Q200.926 1070.87 203.149 1071.43 Q205.371 1071.99 207.848 1071.99 Q211.852 1071.99 214.19 1069.88 Q216.528 1067.77 216.528 1064.16 Q216.528 1060.55 214.19 1058.44 Q211.852 1056.34 207.848 1056.34 Q205.973 1056.34 204.098 1056.75 Q202.246 1057.17 200.301 1058.05 L200.301 1040.69 Z" fill="#000000" fill-rule="nonzero" fill-opacity="1" /><path clip-path="url(#clip740)" d="M164.028 719.84 Q160.417 719.84 158.589 723.405 Q156.783 726.947 156.783 734.076 Q156.783 741.183 158.589 744.747 Q160.417 748.289 164.028 748.289 Q167.663 748.289 169.468 744.747 Q171.297 741.183 171.297 734.076 Q171.297 726.947 169.468 723.405 Q167.663 719.84 164.028 719.84 M164.028 716.136 Q169.839 716.136 172.894 720.743 Q175.973 725.326 175.973 734.076 Q175.973 742.803 172.894 747.409 Q169.839 751.993 164.028 751.993 Q158.218 751.993 155.14 747.409 Q152.084 742.803 152.084 734.076 Q152.084 725.326 155.14 720.743 Q158.218 716.136 164.028 716.136 Z" fill="#000000" fill-rule="nonzero" fill-opacity="1" /><path clip-path="url(#clip740)" d="M184.19 745.442 L189.075 745.442 L189.075 751.321 L184.19 751.321 L184.19 745.442 Z" fill="#000000" fill-rule="nonzero" fill-opacity="1" /><path clip-path="url(#clip740)" d="M209.26 719.84 Q205.649 719.84 203.82 723.405 Q202.014 726.947 202.014 734.076 Q202.014 741.183 203.82 744.747 Q205.649 748.289 209.26 748.289 Q212.894 748.289 214.699 744.747 Q216.528 741.183 216.528 734.076 Q216.528 726.947 214.699 723.405 Q212.894 719.84 209.26 719.84 M209.26 716.136 Q215.07 716.136 218.125 720.743 Q221.204 725.326 221.204 734.076 Q221.204 742.803 218.125 747.409 Q215.07 751.993 209.26 751.993 Q203.449 751.993 200.371 747.409 Q197.315 742.803 197.315 734.076 Q197.315 725.326 200.371 720.743 Q203.449 716.136 209.26 716.136 Z" fill="#000000" fill-rule="nonzero" fill-opacity="1" /><path clip-path="url(#clip740)" d="M165.024 395.912 Q161.413 395.912 159.584 399.477 Q157.778 403.019 157.778 410.148 Q157.778 417.255 159.584 420.82 Q161.413 424.361 165.024 424.361 Q168.658 424.361 170.464 420.82 Q172.292 417.255 172.292 410.148 Q172.292 403.019 170.464 399.477 Q168.658 395.912 165.024 395.912 M165.024 392.209 Q170.834 392.209 173.889 396.815 Q176.968 401.398 176.968 410.148 Q176.968 418.875 173.889 423.482 Q170.834 428.065 165.024 428.065 Q159.214 428.065 156.135 423.482 Q153.079 418.875 153.079 410.148 Q153.079 401.398 156.135 396.815 Q159.214 392.209 165.024 392.209 Z" fill="#000000" fill-rule="nonzero" fill-opacity="1" /><path clip-path="url(#clip740)" d="M185.186 421.514 L190.07 421.514 L190.07 427.394 L185.186 427.394 L185.186 421.514 Z" fill="#000000" fill-rule="nonzero" fill-opacity="1" /><path clip-path="url(#clip740)" d="M200.301 392.834 L218.658 392.834 L218.658 396.769 L204.584 396.769 L204.584 405.241 Q205.602 404.894 206.621 404.732 Q207.639 404.546 208.658 404.546 Q214.445 404.546 217.824 407.718 Q221.204 410.889 221.204 416.306 Q221.204 421.884 217.732 424.986 Q214.26 428.065 207.94 428.065 Q205.764 428.065 203.496 427.694 Q201.25 427.324 198.843 426.583 L198.843 421.884 Q200.926 423.019 203.149 423.574 Q205.371 424.13 207.848 424.13 Q211.852 424.13 214.19 422.023 Q216.528 419.917 216.528 416.306 Q216.528 412.695 214.19 410.588 Q211.852 408.482 207.848 408.482 Q205.973 408.482 204.098 408.898 Q202.246 409.315 200.301 410.195 L200.301 392.834 Z" fill="#000000" fill-rule="nonzero" fill-opacity="1" /><path clip-path="url(#clip740)" d="M154.839 99.5305 L162.477 99.5305 L162.477 73.1649 L154.167 74.8316 L154.167 70.5723 L162.431 68.9057 L167.107 68.9057 L167.107 99.5305 L174.746 99.5305 L174.746 103.466 L154.839 103.466 L154.839 99.5305 Z" fill="#000000" fill-rule="nonzero" fill-opacity="1" /><path clip-path="url(#clip740)" d="M184.19 97.5861 L189.075 97.5861 L189.075 103.466 L184.19 103.466 L184.19 97.5861 Z" fill="#000000" fill-rule="nonzero" fill-opacity="1" /><path clip-path="url(#clip740)" d="M209.26 71.9844 Q205.649 71.9844 203.82 75.5492 Q202.014 79.0908 202.014 86.2204 Q202.014 93.3268 203.82 96.8916 Q205.649 100.433 209.26 100.433 Q212.894 100.433 214.699 96.8916 Q216.528 93.3268 216.528 86.2204 Q216.528 79.0908 214.699 75.5492 Q212.894 71.9844 209.26 71.9844 M209.26 68.2807 Q215.07 68.2807 218.125 72.8871 Q221.204 77.4704 221.204 86.2204 Q221.204 94.9472 218.125 99.5537 Q215.07 104.137 209.26 104.137 Q203.449 104.137 200.371 99.5537 Q197.315 94.9472 197.315 86.2204 Q197.315 77.4704 200.371 72.8871 Q203.449 68.2807 209.26 68.2807 Z" fill="#000000" fill-rule="nonzero" fill-opacity="1" /><path clip-path="url(#clip740)" d="M16.4842 971.396 L16.4842 961.815 L48.8219 949.689 L16.4842 937.498 L16.4842 927.918 L64.0042 927.918 L64.0042 934.188 L22.277 934.188 L54.8694 946.442 L54.8694 952.903 L22.277 965.157 L64.0042 965.157 L64.0042 971.396 L16.4842 971.396 Z" fill="#000000" fill-rule="nonzero" fill-opacity="1" /><path clip-path="url(#clip740)" d="M32.4621 901.596 Q32.4621 906.306 36.1542 909.044 Q39.8145 911.781 46.212 911.781 Q52.6095 911.781 56.3017 909.075 Q59.9619 906.338 59.9619 901.596 Q59.9619 896.917 56.2698 894.18 Q52.5777 891.442 46.212 891.442 Q39.8781 891.442 36.186 894.18 Q32.4621 896.917 32.4621 901.596 M27.4968 901.596 Q27.4968 893.957 32.4621 889.596 Q37.4273 885.236 46.212 885.236 Q54.9649 885.236 59.9619 889.596 Q64.9272 893.957 64.9272 901.596 Q64.9272 909.266 59.9619 913.627 Q54.9649 917.955 46.212 917.955 Q37.4273 917.955 32.4621 913.627 Q27.4968 909.266 27.4968 901.596 Z" fill="#000000" fill-rule="nonzero" fill-opacity="1" /><path clip-path="url(#clip740)" d="M35.1993 847.774 Q31.2526 845.577 29.3747 842.522 Q27.4968 839.466 27.4968 835.329 Q27.4968 829.759 31.4117 826.735 Q35.2948 823.711 42.4881 823.711 L64.0042 823.711 L64.0042 829.599 L42.679 829.599 Q37.5546 829.599 35.072 831.414 Q32.5894 833.228 32.5894 836.952 Q32.5894 841.503 35.6131 844.145 Q38.6368 846.787 43.8567 846.787 L64.0042 846.787 L64.0042 852.675 L42.679 852.675 Q37.5228 852.675 35.072 854.489 Q32.5894 856.304 32.5894 860.091 Q32.5894 864.579 35.6449 867.221 Q38.6686 869.863 43.8567 869.863 L64.0042 869.863 L64.0042 875.751 L28.3562 875.751 L28.3562 869.863 L33.8944 869.863 Q30.616 867.857 29.0564 865.056 Q27.4968 862.256 27.4968 858.404 Q27.4968 854.521 29.4702 851.816 Q31.4436 849.079 35.1993 847.774 Z" fill="#000000" fill-rule="nonzero" fill-opacity="1" /><path clip-path="url(#clip740)" d="M44.7161 781.538 L47.5806 781.538 L47.5806 808.465 Q53.6281 808.083 56.8109 804.837 Q59.9619 801.559 59.9619 795.734 Q59.9619 792.36 59.1344 789.209 Q58.3069 786.026 56.6518 782.907 L62.1899 782.907 Q63.5267 786.058 64.227 789.368 Q64.9272 792.678 64.9272 796.084 Q64.9272 804.614 59.9619 809.611 Q54.9967 814.576 46.5303 814.576 Q37.7774 814.576 32.6531 809.866 Q27.4968 805.123 27.4968 797.103 Q27.4968 789.909 32.1438 785.74 Q36.7589 781.538 44.7161 781.538 M42.9973 787.395 Q38.1912 787.459 35.3266 790.1 Q32.4621 792.71 32.4621 797.039 Q32.4621 801.94 35.2312 804.901 Q38.0002 807.829 43.0292 808.274 L42.9973 787.395 Z" fill="#000000" fill-rule="nonzero" fill-opacity="1" /><path clip-path="url(#clip740)" d="M42.4881 742.294 L64.0042 742.294 L64.0042 748.15 L42.679 748.15 Q37.6183 748.15 35.1038 750.124 Q32.5894 752.097 32.5894 756.044 Q32.5894 760.786 35.6131 763.523 Q38.6368 766.261 43.8567 766.261 L64.0042 766.261 L64.0042 772.149 L28.3562 772.149 L28.3562 766.261 L33.8944 766.261 Q30.6797 764.16 29.0883 761.327 Q27.4968 758.463 27.4968 754.739 Q27.4968 748.596 31.3163 745.445 Q35.1038 742.294 42.4881 742.294 Z" fill="#000000" fill-rule="nonzero" fill-opacity="1" /><path clip-path="url(#clip740)" d="M18.2347 724.82 L28.3562 724.82 L28.3562 712.757 L32.9077 712.757 L32.9077 724.82 L52.2594 724.82 Q56.6199 724.82 57.8613 723.642 Q59.1026 722.433 59.1026 718.773 L59.1026 712.757 L64.0042 712.757 L64.0042 718.773 Q64.0042 725.552 61.4897 728.13 Q58.9434 730.708 52.2594 730.708 L32.9077 730.708 L32.9077 735.005 L28.3562 735.005 L28.3562 730.708 L18.2347 730.708 L18.2347 724.82 Z" fill="#000000" fill-rule="nonzero" fill-opacity="1" /><path clip-path="url(#clip740)" d="M49.9359 705.659 L28.3562 705.659 L28.3562 699.803 L49.7131 699.803 Q54.7739 699.803 57.3202 697.829 Q59.8346 695.856 59.8346 691.909 Q59.8346 687.167 56.8109 684.43 Q53.7872 681.66 48.5673 681.66 L28.3562 681.66 L28.3562 675.804 L64.0042 675.804 L64.0042 681.66 L58.5296 681.66 Q61.7762 683.793 63.3676 686.626 Q64.9272 689.427 64.9272 693.151 Q64.9272 699.293 61.1078 702.476 Q57.2883 705.659 49.9359 705.659 M27.4968 690.923 L27.4968 690.923 Z" fill="#000000" fill-rule="nonzero" fill-opacity="1" /><path clip-path="url(#clip740)" d="M35.1993 635.987 Q31.2526 633.79 29.3747 630.735 Q27.4968 627.679 27.4968 623.542 Q27.4968 617.972 31.4117 614.948 Q35.2948 611.924 42.4881 611.924 L64.0042 611.924 L64.0042 617.812 L42.679 617.812 Q37.5546 617.812 35.072 619.627 Q32.5894 621.441 32.5894 625.165 Q32.5894 629.716 35.6131 632.358 Q38.6368 635 43.8567 635 L64.0042 635 L64.0042 640.888 L42.679 640.888 Q37.5228 640.888 35.072 642.702 Q32.5894 644.517 32.5894 648.304 Q32.5894 652.792 35.6449 655.434 Q38.6686 658.076 43.8567 658.076 L64.0042 658.076 L64.0042 663.964 L28.3562 663.964 L28.3562 658.076 L33.8944 658.076 Q30.616 656.07 29.0564 653.269 Q27.4968 650.468 27.4968 646.617 Q27.4968 642.734 29.4702 640.029 Q31.4436 637.291 35.1993 635.987 Z" fill="#000000" fill-rule="nonzero" fill-opacity="1" /><path clip-path="url(#clip740)" d="M14.5426 565.454 Q21.8632 569.72 29.0246 571.788 Q36.186 573.857 43.5384 573.857 Q50.8908 573.857 58.1159 571.788 Q65.3091 569.688 72.5979 565.454 L72.5979 570.547 Q65.1182 575.321 57.8931 577.708 Q50.668 580.064 43.5384 580.064 Q36.4406 580.064 29.2474 577.708 Q22.0542 575.353 14.5426 570.547 L14.5426 565.454 Z" fill="#000000" fill-rule="nonzero" fill-opacity="1" /><path clip-path="url(#clip740)" d="M58.657 548.426 L77.5631 548.426 L77.5631 554.315 L28.3562 554.315 L28.3562 548.426 L33.7671 548.426 Q30.5842 546.58 29.0564 543.779 Q27.4968 540.947 27.4968 537.032 Q27.4968 530.539 32.6531 526.496 Q37.8093 522.422 46.212 522.422 Q54.6147 522.422 59.771 526.496 Q64.9272 530.539 64.9272 537.032 Q64.9272 540.947 63.3994 543.779 Q61.8398 546.58 58.657 548.426 M46.212 528.502 Q39.7508 528.502 36.0905 531.175 Q32.3984 533.817 32.3984 538.464 Q32.3984 543.111 36.0905 545.784 Q39.7508 548.426 46.212 548.426 Q52.6732 548.426 56.3653 545.784 Q60.0256 543.111 60.0256 538.464 Q60.0256 533.817 56.3653 531.175 Q52.6732 528.502 46.212 528.502 Z" fill="#000000" fill-rule="nonzero" fill-opacity="1" /><path clip-path="url(#clip740)" d="M14.5426 513.638 L14.5426 508.545 Q22.0542 503.771 29.2474 501.415 Q36.4406 499.028 43.5384 499.028 Q50.668 499.028 57.8931 501.415 Q65.1182 503.771 72.5979 508.545 L72.5979 513.638 Q65.3091 509.404 58.1159 507.336 Q50.8908 505.235 43.5384 505.235 Q36.186 505.235 29.0246 507.336 Q21.8632 509.404 14.5426 513.638 Z" fill="#000000" fill-rule="nonzero" fill-opacity="1" /><polyline clip-path="url(#clip742)" style="stroke:#009af9; stroke-linecap:round; stroke-linejoin:round; stroke-width:16; stroke-opacity:1; fill:none" points="1301.88,86.1857 1307.93,86.1979 1313.98,86.2346 1320.04,86.2956 1326.09,86.3812 1332.14,86.4912 1338.19,86.6255 1344.23,86.7843 1350.28,86.9676 1356.32,87.1752 1362.36,87.4073 1368.4,87.6637 1374.44,87.9445 1380.47,88.2497 1386.51,88.5792 1392.53,88.9331 1398.56,89.3114 1404.58,89.7139 1410.6,90.1408 1416.61,90.5919 1422.62,91.0674 1428.62,91.567 1434.62,92.091 1440.62,92.6391 1446.61,93.2114 1452.59,93.8079 1458.57,94.4286 1464.54,95.0733 1470.5,95.7422 1476.46,96.4352 1482.42,97.1522 1488.36,97.8933 1494.3,98.6583 1500.23,99.4473 1506.16,100.26 1512.08,101.097 1517.98,101.958 1523.88,102.842 1529.78,103.751 1535.66,104.683 1541.54,105.639 1547.4,106.618 1553.26,107.622 1559.1,108.649 1564.94,109.699 1570.77,110.773 1576.59,111.871 1582.39,112.992 1588.19,114.136 1593.98,115.304 1599.75,116.495 1605.51,117.71 1611.27,118.948 1617.01,120.208 1622.73,121.493 1628.45,122.8 1634.15,124.13 1639.84,125.483 1645.52,126.86 1651.19,128.259 1656.84,129.681 1662.48,131.125 1668.11,132.593 1673.72,134.083 1679.32,135.596 1684.9,137.131 1690.47,138.689 1696.02,140.27 1701.56,141.873 1707.09,143.498 1712.59,145.145 1718.09,146.815 1723.57,148.506 1729.03,150.22 1734.47,151.956 1739.9,153.714 1745.32,155.494 1750.71,157.295 1756.09,159.119 1761.45,160.964 1766.8,162.83 1772.13,164.718 1777.43,166.628 1782.73,168.559 1788,170.512 1793.25,172.485 1798.49,174.48 1803.71,176.496 1808.91,178.533 1814.09,180.591 1819.25,182.67 1824.39,184.769 1829.51,186.89 1834.61,189.03 1839.69,191.192 1844.75,193.374 1849.79,195.576 1854.81,197.799 1859.81,200.042 1864.79,202.305 1869.75,204.588 1874.68,206.891 1879.6,209.214 1884.49,211.557 1889.36,213.92 1894.21,216.302 1899.03,218.703 1903.83,221.125 1908.61,223.565 1913.37,226.025 1918.11,228.504 1922.82,231.001 1927.5,233.518 1932.17,236.054 1936.81,238.609 1941.42,241.182 1946.02,243.774 1950.58,246.384 1955.13,249.013 1959.65,251.66 1964.14,254.325 1968.61,257.009 1973.05,259.71 1977.47,262.429 1981.86,265.166 1986.23,267.921 1990.57,270.693 1994.89,273.483 1999.18,276.29 2003.44,279.115 2007.68,281.956 2011.89,284.815 2016.07,287.69 2020.23,290.583 2024.36,293.492 2028.46,296.418 2032.53,299.36 2036.58,302.319 2040.6,305.293 2044.59,308.285 2048.55,311.292 2052.49,314.315 2056.39,317.354 2060.27,320.409 2064.12,323.479 2067.94,326.565 2071.73,329.666 2075.5,332.782 2079.23,335.914 2082.94,339.06 2086.61,342.222 2090.26,345.398 2093.87,348.589 2097.46,351.794 2101.01,355.014 2104.54,358.248 2108.03,361.497 2111.5,364.759 2114.93,368.035 2118.34,371.325 2121.71,374.629 2125.05,377.947 2128.36,381.277 2131.64,384.621 2134.89,387.979 2138.11,391.349 2141.29,394.732 2144.45,398.128 2147.57,401.537 2150.66,404.958 2153.72,408.392 2156.75,411.838 2159.74,415.296 2162.7,418.766 2165.63,422.248 2168.53,425.742 2171.39,429.248 2174.22,432.765 2177.02,436.293 2179.78,439.832 2182.52,443.383 2185.21,446.945 2187.88,450.517 2190.51,454.1 2193.11,457.694 2195.67,461.298 2198.2,464.912 2200.7,468.537 2203.17,472.172 2205.59,475.816 2207.99,479.47 2210.35,483.134 2212.68,486.807 2214.97,490.49 2217.23,494.182 2219.45,497.882 2221.64,501.592 2223.79,505.311 2225.91,509.038 2228,512.773 2230.05,516.517 2232.06,520.269 2234.04,524.03 2235.99,527.798 2237.89,531.574 2239.77,535.357 2241.61,539.148 2243.41,542.947 2245.18,546.752 2246.91,550.565 2248.61,554.385 2250.27,558.211 2251.89,562.044 2253.48,565.884 2255.03,569.729 2256.55,573.582 2258.03,577.44 2259.47,581.304 2260.88,585.173 2262.26,589.049 2263.59,592.93 2264.89,596.816 2266.16,600.707 2267.38,604.604 2268.57,608.505 2269.73,612.411 2270.85,616.321 2271.93,620.237 2272.97,624.156 2273.98,628.079 2274.95,632.007 2275.89,635.938 2276.79,639.873 2277.65,643.812 2278.47,647.754 2279.26,651.699 2280.01,655.647 2280.72,659.599 2281.4,663.553 2282.04,667.509 2282.64,671.469 2283.21,675.43 2283.74,679.394 2284.23,683.36 2284.69,687.328 2285.1,691.297 2285.48,695.269 2285.83,699.241 2286.13,703.215 2286.4,707.19 2286.64,711.167 2286.83,715.144 2286.99,719.121 2287.11,723.1 2287.19,727.078 2287.24,731.057 2287.25,735.036 2287.22,739.015 2287.16,742.994 2287.05,746.973 2286.92,750.951 2286.74,754.928 2286.52,758.905 2286.27,762.88 2285.99,766.855 2285.66,770.828 2285.3,774.8 2284.9,778.77 2284.46,782.739 2283.99,786.706 2283.48,790.671 2282.93,794.634 2282.35,798.594 2281.73,802.552 2281.07,806.508 2280.37,810.46 2279.64,814.41 2278.87,818.357 2278.06,822.301 2277.22,826.241 2276.34,830.178 2275.43,834.111 2274.47,838.04 2273.48,841.966 2272.46,845.887 2271.39,849.804 2270.29,853.717 2269.16,857.626 2267.98,861.529 2266.77,865.428 2265.53,869.322 2264.25,873.211 2262.93,877.094 2261.57,880.973 2260.18,884.845 2258.76,888.712 2257.29,892.573 2255.79,896.428 2254.26,900.277 2252.69,904.12 2251.08,907.956 2249.44,911.786 2247.76,915.609 2246.05,919.425 2244.3,923.234 2242.51,927.036 2240.69,930.831 2238.84,934.618 2236.94,938.398 2235.02,942.17 2233.06,945.934 2231.06,949.691 2229.03,953.439 2226.96,957.178 2224.86,960.91 2222.72,964.633 2220.55,968.347 2218.34,972.052 2216.1,975.748 2213.83,979.436 2211.52,983.113 2209.17,986.782 2206.8,990.441 2204.38,994.09 2201.94,997.73 2199.46,1001.36 2196.94,1004.98 2194.4,1008.59 2191.81,1012.19 2189.2,1015.78 2186.55,1019.35 2183.87,1022.92 2181.15,1026.48 2178.4,1030.02 2175.62,1033.56 2172.81,1037.08 2169.96,1040.59 2167.08,1044.09 2164.17,1047.58 2161.22,1051.05 2158.25,1054.52 2155.24,1057.97 2152.19,1061.41 2149.12,1064.84 2146.01,1068.25 2142.88,1071.65 2139.71,1075.04 2136.5,1078.42 2133.27,1081.78 2130.01,1085.14 2126.71,1088.47 2123.39,1091.8 2120.03,1095.11 2116.64,1098.4 2113.22,1101.69 2109.77,1104.96 2106.29,1108.21 2102.78,1111.45 2099.24,1114.68 2095.67,1117.89 2092.07,1121.09 2088.44,1124.28 2084.78,1127.44 2081.09,1130.6 2077.37,1133.74 2073.62,1136.86 2069.84,1139.97 2066.04,1143.06 2062.2,1146.14 2058.34,1149.2 2054.44,1152.25 2050.52,1155.28 2046.57,1158.3 2042.6,1161.3 2038.59,1164.28 2034.56,1167.25 2030.5,1170.2 2026.41,1173.13 2022.29,1176.05 2018.15,1178.95 2013.98,1181.83 2009.79,1184.7 2005.56,1187.55 2001.31,1190.38 1997.04,1193.2 1992.73,1196 1988.41,1198.78 1984.05,1201.54 1979.67,1204.29 1975.27,1207.02 1970.83,1209.73 1966.38,1212.42 1961.9,1215.09 1957.39,1217.75 1952.86,1220.39 1948.3,1223.01 1943.72,1225.61 1939.12,1228.19 1934.49,1230.75 1929.84,1233.3 1925.16,1235.83 1920.46,1238.33 1915.74,1240.82 1911,1243.29 1906.23,1245.74 1901.44,1248.17 1896.62,1250.58 1891.79,1252.97 1886.93,1255.35 1882.05,1257.7 1877.14,1260.03 1872.22,1262.35 1867.27,1264.64 1862.31,1266.91 1857.32,1269.16 1852.31,1271.4 1847.28,1273.61 1842.23,1275.8 1837.16,1277.97 1832.06,1280.13 1826.95,1282.26 1821.82,1284.37 1816.67,1286.46 1811.5,1288.52 1806.31,1290.57 1801.1,1292.6 1795.88,1294.6 1790.63,1296.59 1785.37,1298.55 1780.08,1300.49 1774.78,1302.41 1769.46,1304.31 1764.13,1306.19 1758.77,1308.04 1753.4,1309.88 1748.02,1311.69 1742.61,1313.48 1737.19,1315.25 1731.75,1317 1726.3,1318.72 1720.83,1320.43 1715.34,1322.11 1709.84,1323.76 1704.32,1325.4 1698.79,1327.01 1693.25,1328.61 1687.68,1330.18 1682.11,1331.72 1676.52,1333.25 1670.91,1334.75 1665.29,1336.23 1659.66,1337.68 1654.02,1339.12 1648.36,1340.53 1642.69,1341.91 1637,1343.28 1631.3,1344.62 1625.59,1345.94 1619.87,1347.24 1614.14,1348.51 1608.39,1349.76 1602.63,1350.98 1596.86,1352.19 1591.08,1353.37 1585.29,1354.52 1579.49,1355.65 1573.68,1356.76 1567.86,1357.85 1562.02,1358.91 1556.18,1359.95 1550.33,1360.97 1544.47,1361.96 1538.6,1362.92 1532.72,1363.87 1526.83,1364.79 1520.94,1365.69 1515.03,1366.56 1509.12,1367.41 1503.2,1368.23 1497.27,1369.03 1491.33,1369.81 1485.39,1370.56 1479.44,1371.29 1473.49,1372 1467.52,1372.68 1461.55,1373.33 1455.58,1373.97 1449.6,1374.58 1443.61,1375.16 1437.62,1375.72 1431.62,1376.26 1425.62,1376.77 1419.61,1377.26 1413.6,1377.72 1407.59,1378.16 1401.57,1378.57 1395.55,1378.96 1389.52,1379.33 1383.49,1379.67 1377.46,1379.99 1371.42,1380.28 1365.38,1380.55 1359.34,1380.79 1353.3,1381.01 1347.26,1381.21 1341.21,1381.38 1335.16,1381.53 1329.11,1381.65 1323.06,1381.75 1317.01,1381.82 1310.96,1381.87 1304.91,1381.89 1298.85,1381.89 1292.8,1381.87 1286.75,1381.82 1280.7,1381.75 1274.65,1381.65 1268.6,1381.53 1262.55,1381.38 1256.51,1381.21 1250.46,1381.01 1244.42,1380.79 1238.38,1380.55 1232.34,1380.28 1226.3,1379.99 1220.27,1379.67 1214.24,1379.33 1208.22,1378.96 1202.19,1378.57 1196.17,1378.16 1190.16,1377.72 1184.15,1377.26 1178.14,1376.77 1172.14,1376.26 1166.14,1375.72 1160.15,1375.16 1154.16,1374.58 1148.18,1373.97 1142.21,1373.33 1136.24,1372.68 1130.28,1372 1124.32,1371.29 1118.37,1370.56 1112.43,1369.81 1106.49,1369.03 1100.56,1368.23 1094.64,1367.41 1088.73,1366.56 1082.83,1365.69 1076.93,1364.79 1071.04,1363.87 1065.16,1362.92 1059.29,1361.96 1053.43,1360.97 1047.58,1359.95 1041.74,1358.91 1035.9,1357.85 1030.08,1356.76 1024.27,1355.65 1018.47,1354.52 1012.68,1353.37 1006.9,1352.19 1001.13,1350.98 995.371,1349.76 989.625,1348.51 983.891,1347.24 978.168,1345.94 972.458,1344.62 966.761,1343.28 961.076,1341.91 955.404,1340.53 949.745,1339.12 944.099,1337.68 938.467,1336.23 932.848,1334.75 927.244,1333.25 921.653,1331.72 916.077,1330.18 910.515,1328.61 904.969,1327.01 899.437,1325.4 893.92,1323.76 888.419,1322.11 882.933,1320.43 877.463,1318.72 872.009,1317 866.572,1315.25 861.15,1313.48 855.746,1311.69 850.358,1309.88 844.987,1308.04 839.634,1306.19 834.298,1304.31 828.979,1302.41 823.679,1300.49 818.396,1298.55 813.132,1296.59 807.886,1294.6 802.659,1292.6 797.45,1290.57 792.261,1288.52 787.091,1286.46 781.94,1284.37 776.809,1282.26 771.698,1280.13 766.607,1277.97 761.535,1275.8 756.484,1273.61 751.454,1271.4 746.445,1269.16 741.457,1266.91 736.489,1264.64 731.543,1262.35 726.619,1260.03 721.716,1257.7 716.835,1255.35 711.976,1252.97 707.14,1250.58 702.326,1248.17 697.534,1245.74 692.765,1243.29 688.02,1240.82 683.297,1238.33 678.598,1235.83 673.922,1233.3 669.27,1230.75 664.642,1228.19 660.038,1225.61 655.458,1223.01 650.903,1220.39 646.371,1217.75 641.865,1215.09 637.384,1212.42 632.928,1209.73 628.497,1207.02 624.091,1204.29 619.711,1201.54 615.357,1198.78 611.028,1196 606.726,1193.2 602.45,1190.38 598.2,1187.55 593.976,1184.7 589.78,1181.83 585.61,1178.95 581.468,1176.05 577.352,1173.13 573.264,1170.2 569.203,1167.25 565.17,1164.28 561.165,1161.3 557.188,1158.3 553.239,1155.28 549.318,1152.25 545.425,1149.2 541.561,1146.14 537.726,1143.06 533.919,1139.97 530.142,1136.86 526.393,1133.74 522.674,1130.6 518.984,1127.44 515.324,1124.27 511.693,1121.09 508.093,1117.89 504.522,1114.68 500.981,1111.45 497.471,1108.21 493.991,1104.96 490.541,1101.69 487.122,1098.4 483.733,1095.11 480.376,1091.8 477.049,1088.47 473.754,1085.14 470.49,1081.78 467.257,1078.42 464.056,1075.04 460.886,1071.65 457.748,1068.25 454.642,1064.84 451.568,1061.41 448.525,1057.97 445.515,1054.52 442.538,1051.05 439.593,1047.58 436.68,1044.09 433.8,1040.59 430.953,1037.08 428.138,1033.56 425.357,1030.02 422.608,1026.48 419.893,1022.92 417.211,1019.35 414.563,1015.78 411.948,1012.19 409.366,1008.59 406.818,1004.98 404.304,1001.36 401.824,997.73 399.377,994.09 396.965,990.441 394.587,986.782 392.243,983.114 389.934,979.435 387.658,975.748 385.418,972.052 383.212,968.347 381.04,964.633 378.903,960.91 376.801,957.178 374.734,953.438 372.702,949.691 370.705,945.934 368.744,942.17 366.817,938.398 364.926,934.618 363.069,930.831 361.249,927.036 359.464,923.234 357.714,919.425 356,915.609 354.322,911.786 352.679,907.956 351.073,904.12 349.502,900.277 347.967,896.428 346.468,892.573 345.005,888.712 343.578,884.845 342.187,880.972 340.833,877.094 339.515,873.211 338.233,869.322 336.987,865.428 335.778,861.529 334.605,857.626 333.469,853.717 332.369,849.805 331.306,845.887 330.28,841.966 329.29,838.04 328.337,834.111 327.42,830.178 326.541,826.241 325.698,822.301 324.892,818.357 324.122,814.41 323.39,810.46 322.695,806.508 322.036,802.552 321.415,798.594 320.83,794.634 320.283,790.671 319.772,786.706 319.299,782.739 318.862,778.77 318.463,774.8 318.101,770.828 317.776,766.855 317.488,762.88 317.237,758.904 317.023,754.928 316.847,750.951 316.707,746.973 316.605,742.994 316.54,739.015 316.512,735.036 316.521,731.057 316.568,727.078 316.651,723.099 316.772,719.121 316.93,715.143 317.125,711.167 317.358,707.19 317.627,703.215 317.934,699.241 318.277,695.268 318.658,691.297 319.076,687.328 319.531,683.36 320.023,679.394 320.552,675.43 321.118,671.469 321.721,667.509 322.361,663.553 323.038,659.599 323.752,655.647 324.502,651.699 325.29,647.754 326.115,643.811 326.976,639.873 327.874,635.938 328.809,632.007 329.78,628.079 330.788,624.156 331.833,620.236 332.915,616.322 334.033,612.411 335.187,608.505 336.378,604.604 337.606,600.707 338.869,596.816 340.169,592.929 341.506,589.049 342.878,585.173 344.287,581.304 345.732,577.44 347.213,573.582 348.73,569.729 350.283,565.884 351.872,562.044 353.496,558.211 355.157,554.385 356.853,550.565 358.585,546.752 360.352,542.947 362.155,539.148 363.993,535.357 365.867,531.574 367.776,527.798 369.72,524.03 371.7,520.269 373.714,516.517 375.764,512.773 377.848,509.038 379.967,505.311 382.122,501.592 384.31,497.882 386.534,494.181 388.792,490.49 391.084,486.807 393.411,483.134 395.772,479.47 398.167,475.816 400.596,472.171 403.06,468.537 405.557,464.912 408.088,461.298 410.653,457.694 413.251,454.1 415.883,450.517 418.548,446.945 421.247,443.383 423.979,439.832 426.743,436.293 429.542,432.765 432.372,429.247 435.236,425.742 438.133,422.248 441.061,418.766 444.023,415.296 447.017,411.838 450.043,408.392 453.101,404.958 456.191,401.537 459.313,398.128 462.467,394.732 465.652,391.349 468.869,387.979 472.118,384.621 475.398,381.277 478.709,377.946 482.051,374.629 485.424,371.325 488.827,368.035 492.262,364.759 495.727,361.497 499.222,358.248 502.748,355.014 506.304,351.794 509.89,348.589 513.505,345.398 517.151,342.221 520.826,339.06 524.53,335.914 528.264,332.782 532.027,329.666 535.819,326.565 539.64,323.479 543.49,320.409 547.368,317.354 551.275,314.315 555.21,311.292 559.173,308.284 563.164,305.293 567.184,302.318 571.23,299.36 575.305,296.417 579.407,293.492 583.536,290.583 587.692,287.69 591.875,284.815 596.085,281.956 600.321,279.114 604.585,276.29 608.874,273.483 613.189,270.693 617.531,267.921 621.898,265.166 626.291,262.429 630.709,259.71 635.153,257.009 639.622,254.325 644.115,251.66 648.634,249.013 653.178,246.384 657.745,243.774 662.337,241.182 666.953,238.609 671.594,236.054 676.257,233.518 680.945,231.001 685.656,228.504 690.39,226.025 695.147,223.565 699.927,221.124 704.73,218.703 709.556,216.302 714.403,213.92 719.273,211.557 724.165,209.214 729.078,206.891 734.014,204.588 738.97,202.305 743.948,200.042 748.947,197.799 753.967,195.576 759.007,193.374 764.069,191.192 769.15,189.03 774.251,186.889 779.373,184.769 784.513,182.67 789.674,180.591 794.853,178.533 800.053,176.496 805.27,174.48 810.507,172.485 815.762,170.512 821.036,168.559 826.327,166.628 831.637,164.718 836.964,162.83 842.309,160.964 847.671,159.119 853.05,157.295 858.446,155.494 863.859,153.714 869.289,151.956 874.734,150.22 880.196,148.506 885.674,146.815 891.168,145.145 896.677,143.498 902.201,141.872 907.741,140.27 913.295,138.689 918.864,137.131 924.447,135.596 930.044,134.083 935.656,132.593 941.281,131.125 946.92,129.681 952.573,128.259 958.239,126.859 963.917,125.483 969.608,124.13 975.312,122.8 981.028,121.493 986.756,120.208 992.497,118.947 998.248,117.71 1004.01,116.495 1009.79,115.304 1015.57,114.136 1021.37,112.992 1027.17,111.871 1032.99,110.773 1038.82,109.699 1044.66,108.649 1050.5,107.622 1056.36,106.618 1062.23,105.639 1068.1,104.683 1073.98,103.751 1079.88,102.842 1085.78,101.958 1091.69,101.097 1097.6,100.26 1103.53,99.4473 1109.46,98.6583 1115.4,97.8933 1121.34,97.1522 1127.3,96.4352 1133.26,95.7422 1139.22,95.0733 1145.2,94.4286 1151.17,93.8079 1157.16,93.2114 1163.15,92.639 1169.14,92.0909 1175.14,91.567 1181.14,91.0674 1187.15,90.5919 1193.17,90.1408 1199.18,89.7139 1205.2,89.3114 1211.23,88.9331 1217.26,88.5792 1223.29,88.2497 1229.32,87.9445 1235.36,87.6637 1241.4,87.4072 1247.44,87.1752 1253.48,86.9676 1259.53,86.7843 1265.58,86.6255 1271.63,86.4911 1277.68,86.3812 1283.73,86.2956 1289.78,86.2346 1295.83,86.1979 1301.88,86.1857 "/>
<polyline clip-path="url(#clip742)" style="stroke:#e26f46; stroke-linecap:round; stroke-linejoin:round; stroke-width:16; stroke-opacity:1; fill:none" points="1301.88,86.1857 1307.91,86.3136 1313.93,86.5189 1319.96,86.3948 1325.99,86.633 1332.01,86.8713 1338.03,87.1095 1344.06,87.3478 1350.08,87.5861 1356.11,87.8091 1362.14,88.0195 1368.16,88.2789 1374.17,88.6312 1380.17,89.0989 1386.15,89.6839 1392.11,90.3671 1398.07,91.1085 1404.03,91.848 1409.99,92.5714 1415.95,93.2947 1421.9,94.018 1427.86,94.7413 1433.82,95.4646 1439.78,96.1879 1445.74,96.9085 1451.71,97.6242 1457.67,98.3369 1463.63,99.0483 1469.6,99.7601 1475.56,100.474 1481.52,101.19 1487.48,101.91 1493.44,102.636 1499.4,103.366 1505.35,104.103 1511.3,104.847 1517.25,105.597 1523.2,106.354 1529.14,107.117 1535.09,107.887 1541.03,108.662 1546.97,109.443 1552.9,110.227 1558.84,111.015 1564.77,111.805 1570.71,112.596 1576.64,113.386 1582.58,114.175 1588.47,115.063 1594.29,116.099 1600.05,117.256 1605.78,118.511 1611.46,119.842 1617.12,121.23 1622.76,122.658 1628.4,124.112 1634.02,125.579 1639.64,127.048 1645.27,128.512 1650.9,129.965 1656.54,131.403 1662.18,132.824 1667.83,134.23 1673.49,135.623 1679.15,137.008 1684.82,138.393 1690.47,139.787 1696.07,141.25 1701.58,142.818 1707.03,144.446 1712.47,146.095 1717.91,147.731 1723.4,149.329 1728.93,150.869 1734.53,152.341 1740.2,153.738 1745.93,155.062 1751.73,156.321 1757.57,157.532 1763.44,158.717 1769.32,159.903 1775.16,161.129 1780.94,162.436 1786.61,163.875 1792.11,165.502 1797.4,167.381 1802.42,169.577 1807.32,171.902 1812.22,174.229 1817.12,176.556 1822.02,178.883 1826.92,181.211 1831.82,183.539 1836.72,185.866 1841.62,188.194 1846.52,190.522 1851.42,192.85 1856.32,195.178 1861.22,197.505 1866.12,199.833 1871.02,202.164 1875.89,204.514 1880.75,206.885 1885.58,209.277 1890.4,211.69 1895.19,214.122 1899.96,216.574 1904.71,219.045 1909.43,221.535 1914.14,224.042 1918.82,226.568 1923.49,229.11 1928.13,231.67 1932.75,234.245 1937.35,236.837 1941.93,239.443 1946.49,242.064 1951.03,244.7 1955.56,247.349 1960.06,250.01 1964.55,252.684 1969.02,255.37 1973.47,258.067 1977.91,260.774 1982.34,263.491 1986.75,266.218 1991.15,268.953 1995.53,271.696 1999.91,274.445 2004.27,277.202 2008.63,279.964 2012.98,282.731 2017.32,285.503 2021.65,288.278 2025.98,291.056 2030.31,293.835 2034.63,296.616 2038.96,299.398 2043.28,302.179 2047.61,304.959 2051.94,307.736 2056.27,310.518 2060.54,313.33 2064.76,316.175 2068.92,319.055 2073,321.971 2077.02,324.924 2080.97,327.914 2084.84,330.943 2088.63,334.009 2092.35,337.113 2095.99,340.255 2099.55,343.434 2103.03,346.648 2106.44,349.898 2109.78,353.182 2113.05,356.497 2116.25,359.843 2119.39,363.216 2122.48,366.616 2125.51,370.039 2128.5,373.482 2131.44,376.943 2134.36,380.418 2137.25,383.904 2140.13,387.396 2143,390.892 2145.87,394.385 2148.76,397.873 2151.65,401.358 2154.45,404.872 2157.16,408.415 2159.79,411.982 2162.38,415.567 2164.94,419.165 2167.47,422.772 2169.99,426.385 2172.51,430 2175.04,433.614 2177.59,437.225 2180.17,440.832 2182.77,444.432 2185.39,448.026 2188.05,451.612 2190.73,455.192 2193.44,458.765 2196.16,462.333 2198.89,465.898 2201.63,469.461 2204.35,473.027 2207.06,476.596 2209.73,480.174 2212.35,483.765 2214.9,487.372 2217.37,491.002 2219.72,494.659 2221.95,498.351 2224.03,502.081 2226.02,505.831 2227.94,509.596 2229.81,513.373 2231.63,517.161 2233.4,520.959 2235.14,524.764 2236.86,528.576 2238.54,532.392 2240.22,536.213 2241.87,540.037 2243.52,543.862 2245.16,547.689 2246.81,551.516 2248.45,555.343 2250.09,559.169 2251.75,562.994 2253.4,566.818 2255.06,570.641 2256.73,574.462 2258.41,578.282 2260.09,582.1 2261.77,585.918 2263.46,589.735 2265.14,593.553 2266.82,597.371 2268.51,601.191 2270.23,605.01 2271.97,608.831 2273.7,612.654 2275.41,616.48 2277.1,620.31 2278.74,624.145 2280.33,627.985 2281.85,631.83 2283.31,635.682 2284.68,639.54 2285.96,643.406 2287.15,647.278 2288.24,651.159 2289.23,655.047 2290.11,658.942 2290.89,662.846 2291.56,666.757 2292.12,670.676 2292.58,674.603 2292.94,678.537 2293.2,682.478 2293.37,686.425 2293.45,690.378 2293.45,694.337 2293.38,698.301 2293.25,702.269 2293.06,706.24 2292.84,710.214 2292.59,714.191 2292.32,718.168 2292.06,722.145 2291.81,726.121 2291.6,730.094 2291.44,734.066 2291.33,738.04 2291.26,742.017 2291.22,745.995 2291.19,749.973 2291.16,753.952 2291.11,757.93 2291.05,761.906 2290.95,765.881 2290.82,769.854 2290.64,773.824 2290.41,777.791 2290.12,781.755 2289.77,785.715 2289.36,789.672 2288.89,793.625 2288.35,797.574 2287.75,801.52 2287.09,805.462 2286.37,809.401 2285.59,813.336 2284.77,817.269 2283.9,821.199 2283,825.128 2282.07,829.054 2281.12,832.98 2280.16,836.904 2279.21,840.83 2278.27,844.756 2277.35,848.683 2276.35,852.598 2275.24,856.5 2274.03,860.39 2272.74,864.269 2271.38,868.139 2269.95,872 2268.47,875.855 2266.93,879.703 2265.36,883.546 2263.75,887.385 2262.12,891.22 2260.47,895.053 2258.8,898.884 2257.12,902.714 2255.44,906.543 2253.75,910.372 2252.07,914.201 2250.39,918.031 2248.72,921.862 2247.06,925.694 2245.41,929.527 2243.77,933.362 2242.15,937.198 2240.53,941.036 2238.92,944.875 2237.33,948.714 2235.73,952.556 2234.15,956.397 2232.56,960.238 2230.97,964.079 2229.38,967.92 2227.76,971.756 2226.03,975.559 2224.15,979.32 2222.13,983.041 2219.98,986.724 2217.7,990.371 2215.32,993.985 2212.82,997.566 2210.22,1001.12 2207.53,1004.64 2204.75,1008.14 2201.88,1011.61 2198.95,1015.06 2195.94,1018.49 2192.87,1021.9 2189.74,1025.29 2186.55,1028.67 2183.32,1032.03 2180.05,1035.37 2176.73,1038.71 2173.38,1042.03 2170,1045.34 2166.59,1048.64 2163.16,1051.94 2159.7,1055.22 2156.23,1058.5 2152.74,1061.78 2149.25,1065.05 2145.74,1068.32 2142.22,1071.58 2138.7,1074.85 2135.17,1078.11 2131.64,1081.36 2128.11,1084.62 2124.58,1087.88 2121.04,1091.14 2117.51,1094.4 2113.98,1097.65 2110.45,1100.91 2106.93,1104.18 2103.44,1107.46 2099.97,1110.76 2096.51,1114.06 2093.05,1117.36 2089.58,1120.66 2086.11,1123.95 2082.61,1127.23 2079.09,1130.5 2075.55,1133.75 2071.97,1136.98 2068.36,1140.19 2064.72,1143.39 2061.04,1146.56 2057.32,1149.71 2053.57,1152.83 2049.79,1155.94 2045.97,1159.03 2042.12,1162.1 2038.24,1165.16 2034.34,1168.2 2030.42,1171.23 2026.5,1174.25 2022.56,1177.27 2018.63,1180.3 2014.71,1183.32 2010.82,1186.38 2007.02,1189.49 2003.28,1192.65 1999.57,1195.84 1995.86,1199.03 1992.14,1202.2 1988.38,1205.35 1984.56,1208.45 1980.67,1211.5 1976.7,1214.49 1972.63,1217.4 1968.46,1220.24 1964.18,1223 1959.8,1225.67 1955.31,1228.27 1950.71,1230.78 1946.01,1233.22 1941.22,1235.58 1936.35,1237.89 1931.41,1240.14 1926.42,1242.35 1921.39,1244.54 1916.35,1246.72 1911.33,1248.91 1906.34,1251.12 1901.37,1253.36 1896.4,1255.6 1891.41,1257.83 1886.4,1260.03 1881.36,1262.21 1876.29,1264.37 1871.18,1266.48 1866.04,1268.56 1860.85,1270.59 1855.63,1272.58 1850.36,1274.52 1845.05,1276.42 1839.7,1278.27 1834.32,1280.08 1828.89,1281.85 1823.44,1283.59 1817.96,1285.29 1812.46,1286.97 1806.94,1288.63 1801.42,1290.28 1795.89,1291.93 1790.36,1293.58 1784.85,1295.25 1779.34,1296.92 1773.84,1298.59 1768.33,1300.27 1762.82,1301.94 1757.31,1303.61 1751.8,1305.28 1746.29,1306.95 1740.78,1308.62 1735.28,1310.3 1729.77,1311.97 1724.26,1313.64 1718.75,1315.31 1713.24,1316.98 1707.73,1318.65 1702.22,1320.32 1696.72,1322 1691.21,1323.67 1685.7,1325.34 1680.19,1327.01 1674.68,1328.68 1669.17,1330.35 1663.66,1332.02 1658.15,1333.7 1652.65,1335.37 1647.14,1337.04 1641.63,1338.71 1636.1,1340.36 1630.57,1342 1625.02,1343.63 1619.46,1345.23 1613.88,1346.8 1608.29,1348.35 1602.69,1349.88 1597.07,1351.37 1591.43,1352.83 1585.78,1354.26 1580.11,1355.65 1574.43,1357.01 1568.73,1358.33 1563.01,1359.62 1557.28,1360.87 1551.54,1362.09 1545.78,1363.27 1540,1364.41 1534.21,1365.52 1528.41,1366.6 1522.6,1367.64 1516.77,1368.66 1510.93,1369.64 1505.08,1370.59 1499.22,1371.52 1493.35,1372.43 1487.47,1373.31 1481.59,1374.18 1475.7,1375.02 1469.81,1375.86 1463.91,1376.69 1458.01,1377.51 1452.11,1378.33 1446.21,1379.16 1440.31,1379.99 1434.42,1380.83 1428.52,1381.61 1422.59,1382.27 1416.63,1382.8 1410.66,1383.24 1404.67,1383.58 1398.66,1383.84 1392.65,1384.02 1386.63,1384.14 1380.6,1384.21 1374.57,1384.24 1368.53,1384.22 1362.5,1384.18 1356.46,1384.11 1350.43,1384.02 1344.4,1383.92 1338.37,1383.81 1332.35,1383.68 1326.32,1383.56 1320.3,1383.43 1314.28,1383.3 1308.25,1383.17 1302.23,1383.05 1296.2,1382.93 1290.16,1382.83 1284.13,1382.72 1278.09,1382.61 1272.06,1382.48 1266.02,1382.34 1259.99,1382.17 1253.96,1381.97 1247.94,1381.73 1241.92,1381.46 1235.91,1381.15 1229.9,1380.79 1223.89,1380.39 1217.9,1379.94 1211.9,1379.45 1205.92,1378.92 1199.94,1378.35 1193.96,1377.74 1187.99,1377.09 1182.03,1376.41 1176.07,1375.7 1170.11,1374.97 1164.15,1374.23 1158.2,1373.47 1152.24,1372.72 1146.29,1371.97 1140.33,1371.24 1134.36,1370.55 1128.36,1369.91 1122.35,1369.3 1116.33,1368.7 1110.31,1368.1 1104.3,1367.49 1098.3,1366.86 1092.32,1366.19 1086.36,1365.48 1080.42,1364.71 1074.5,1363.89 1068.61,1363.01 1062.75,1362.06 1056.93,1361.04 1051.13,1359.96 1045.36,1358.82 1039.62,1357.61 1033.9,1356.34 1028.21,1355.02 1022.54,1353.65 1016.89,1352.25 1011.25,1350.81 1005.62,1349.36 999.987,1347.91 994.353,1346.46 988.708,1345.04 983.046,1343.65 977.368,1342.27 971.68,1340.92 965.988,1339.56 960.297,1338.21 954.61,1336.85 948.931,1335.48 943.264,1334.1 937.612,1332.69 931.976,1331.26 926.359,1329.81 920.762,1328.33 915.186,1326.82 909.631,1325.28 904.097,1323.71 898.584,1322.11 893.09,1320.49 887.614,1318.84 882.154,1317.17 876.707,1315.49 871.271,1313.78 865.841,1312.07 860.414,1310.36 854.986,1308.65 849.551,1306.94 844.134,1305.22 838.785,1303.4 833.503,1301.51 828.284,1299.54 823.124,1297.5 818.02,1295.4 812.968,1293.23 807.966,1291.01 803.009,1288.74 798.095,1286.43 793.221,1284.08 788.383,1281.68 783.578,1279.26 778.805,1276.81 774.059,1274.33 769.338,1271.83 764.64,1269.31 759.961,1266.77 755.3,1264.23 750.653,1261.67 746.02,1259.1 741.395,1256.52 736.78,1253.95 732.169,1251.36 727.563,1248.78 722.957,1246.19 718.351,1243.61 713.743,1241.03 709.13,1238.44 704.502,1235.87 699.857,1233.31 695.201,1230.76 690.538,1228.22 685.872,1225.67 681.206,1223.13 676.544,1220.58 671.889,1218.03 667.245,1215.47 662.613,1212.9 657.995,1210.32 653.395,1207.73 648.812,1205.13 644.249,1202.51 639.708,1199.88 635.187,1197.23 630.688,1194.57 626.211,1191.9 621.756,1189.2 617.322,1186.5 612.908,1183.77 608.514,1181.04 604.137,1178.29 599.777,1175.53 595.432,1172.76 591.097,1169.99 586.773,1167.2 582.454,1164.41 578.14,1161.62 573.824,1158.83 569.505,1156.05 565.177,1153.26 560.859,1150.48 556.59,1147.66 552.377,1144.81 548.223,1141.93 544.133,1139.01 540.108,1136.06 536.151,1133.08 532.265,1130.06 528.451,1127 524.71,1123.91 521.041,1120.78 517.446,1117.62 513.923,1114.42 510.471,1111.19 507.089,1107.92 503.774,1104.63 500.523,1101.3 497.334,1097.95 494.202,1094.57 491.123,1091.17 488.093,1087.74 485.106,1084.3 482.156,1080.84 479.236,1077.36 476.341,1073.88 473.462,1070.39 470.591,1066.89 467.721,1063.39 464.841,1059.9 461.943,1056.42 459.044,1052.93 456.169,1049.43 453.321,1045.92 450.504,1042.4 447.72,1038.86 444.973,1035.31 442.264,1031.75 439.595,1028.17 436.967,1024.59 434.383,1020.98 431.842,1017.37 429.345,1013.74 426.891,1010.1 424.482,1006.45 422.115,1002.79 419.79,999.121 417.506,995.438 415.26,991.747 413.051,988.046 410.876,984.337 408.732,980.621 406.617,976.899 404.525,973.171 402.454,969.438 400.4,965.701 398.357,961.962 396.321,958.221 394.285,954.48 392.246,950.74 390.195,947.002 388.145,943.263 386.127,939.515 384.141,935.756 382.19,931.989 380.274,928.213 378.393,924.43 376.548,920.638 374.739,916.84 372.966,913.034 371.23,909.223 369.53,905.405 367.865,901.582 366.236,897.753 364.642,893.92 363.081,890.083 361.554,886.241 360.058,882.395 358.593,878.546 357.157,874.694 355.75,870.839 354.368,866.982 353.011,863.122 351.677,859.26 350.362,855.396 349.066,851.532 347.786,847.665 346.519,843.798 345.262,839.931 344.012,836.062 342.768,832.193 341.525,828.325 340.279,824.456 339.029,820.587 337.782,816.718 336.716,812.84 335.87,808.95 335.221,805.05 334.744,801.138 334.417,797.218 334.22,793.288 334.133,789.35 334.137,785.405 334.215,781.452 334.353,777.493 334.535,773.529 334.748,769.559 334.981,765.585 335.224,761.606 335.466,757.625 335.702,753.64 335.923,749.653 336.124,745.664 336.303,741.674 336.456,737.683 336.582,733.691 336.681,729.7 336.754,725.708 336.805,721.718 336.837,717.73 336.856,713.742 336.868,709.758 336.88,705.775 336.903,701.795 336.947,697.818 337.024,693.845 337.146,689.876 337.329,685.911 337.588,681.949 337.941,677.993 338.405,674.042 339.001,670.096 339.724,666.153 340.446,662.208 341.153,658.259 341.855,654.309 342.562,650.358 343.282,646.408 344.023,642.46 344.793,638.514 345.597,634.573 346.442,630.637 347.331,626.705 348.27,622.78 349.262,618.861 350.308,614.95 351.412,611.045 352.573,607.147 353.793,603.257 355.07,599.375 356.403,595.499 357.791,591.631 359.23,587.769 360.717,583.914 362.248,580.064 363.817,576.219 365.418,572.378 367.045,568.541 368.691,564.706 370.347,560.873 372.004,557.039 373.652,553.205 375.282,549.368 376.849,545.515 378.301,541.628 379.663,537.713 380.961,533.78 382.221,529.835 383.466,525.885 384.718,521.937 385.996,517.997 387.319,514.071 388.703,510.164 390.164,506.279 391.716,502.422 393.369,498.595 395.135,494.803 397.021,491.046 399.035,487.328 401.182,483.65 403.466,480.014 405.889,476.419 408.451,472.866 411.15,469.355 413.985,465.885 416.951,462.453 420.041,459.06 423.248,455.702 426.562,452.376 429.973,449.078 433.468,445.807 437.032,442.556 440.649,439.321 444.303,436.097 447.974,432.879 451.64,429.659 455.281,426.431 458.87,423.188 462.404,419.928 465.933,416.666 469.463,413.405 472.992,410.144 476.523,406.884 480.053,403.623 483.584,400.362 487.115,397.102 490.646,393.841 494.177,390.581 497.708,387.32 501.239,384.06 504.771,380.799 508.302,377.539 511.834,374.279 515.365,371.018 518.897,367.758 522.428,364.498 525.96,361.237 529.491,357.977 533.023,354.717 536.554,351.456 540.085,348.196 543.617,344.935 547.148,341.675 550.679,338.414 554.21,335.154 557.741,331.894 561.273,328.633 564.804,325.373 568.335,322.112 571.867,318.852 575.403,315.593 578.945,312.337 582.496,309.087 586.06,305.843 589.638,302.607 593.232,299.381 596.847,296.166 600.483,292.964 604.142,289.776 607.828,286.605 611.542,283.45 615.286,280.313 619.062,277.196 622.872,274.101 626.717,271.027 630.599,267.977 634.519,264.952 638.479,261.952 642.48,258.98 646.523,256.035 650.61,253.119 654.741,250.233 658.917,247.378 663.139,244.555 667.409,241.765 671.726,239.008 676.091,236.285 680.505,233.598 684.968,230.946 689.48,228.331 694.041,225.753 698.653,223.213 703.313,220.712 708.024,218.249 712.783,215.826 717.592,213.443 722.45,211.1 727.356,208.798 732.309,206.537 737.31,204.318 742.357,202.141 747.449,200.006 752.587,197.913 757.769,195.863 762.992,193.855 768.257,191.891 773.562,189.969 778.908,188.089 784.289,186.253 789.705,184.461 795.157,182.71 800.641,181.003 806.145,179.323 811.64,177.626 817.127,175.913 822.608,174.19 828.085,172.461 833.561,170.729 839.038,168.998 844.517,167.272 850,165.554 855.49,163.846 860.987,162.152 866.492,160.473 872.007,158.811 877.533,157.169 883.07,155.547 888.619,153.947 894.181,152.369 899.755,150.814 905.343,149.282 910.943,147.773 916.556,146.288 922.181,144.824 927.819,143.382 933.467,141.96 939.126,140.556 944.794,139.17 950.47,137.798 956.154,136.438 961.843,135.088 967.536,133.745 973.23,132.406 978.924,131.067 984.617,129.724 990.305,128.374 995.991,127.015 1001.69,125.668 1007.41,124.34 1013.14,123.037 1018.89,121.762 1024.66,120.521 1030.44,119.317 1036.24,118.152 1042.06,117.032 1047.89,115.958 1053.73,114.932 1059.59,113.956 1065.46,113.033 1071.34,112.164 1077.24,111.348 1083.15,110.588 1089.07,109.883 1095,109.232 1100.95,108.636 1106.9,108.093 1112.86,107.602 1118.84,107.161 1124.82,106.769 1130.8,106.422 1136.8,106.119 1142.8,105.856 1148.81,105.629 1154.82,105.435 1160.83,105.269 1166.85,105.127 1172.88,105.003 1178.9,104.894 1184.92,104.792 1190.95,104.691 1196.97,104.586 1203,104.47 1209.02,104.335 1215.03,104.17 1221.05,103.982 1227.07,103.785 1233.09,103.59 1239.1,103.408 1245.12,103.247 1251.14,103.114 1257.16,103.015 1263.18,102.952 1269.21,102.928 1275.23,102.942 1281.25,102.992 1287.28,103.076 1293.3,103.188 1299.33,103.321 1305.36,103.466 1311.38,103.614 1317.41,103.751 "/>
<path clip-path="url(#clip740)" d="M327.056 1377.32 L750.198 1377.32 L750.198 1221.8 L327.056 1221.8  Z" fill="#ffffff" fill-rule="evenodd" fill-opacity="1"/>
<polyline clip-path="url(#clip740)" style="stroke:#000000; stroke-linecap:round; stroke-linejoin:round; stroke-width:4; stroke-opacity:1; fill:none" points="327.056,1377.32 750.198,1377.32 750.198,1221.8 327.056,1221.8 327.056,1377.32 "/>
<polyline clip-path="url(#clip740)" style="stroke:#009af9; stroke-linecap:round; stroke-linejoin:round; stroke-width:16; stroke-opacity:1; fill:none" points="350.34,1273.64 490.043,1273.64 "/>
<path clip-path="url(#clip740)" d="M529.345 1259.53 Q524.253 1259.53 521.244 1263.32 Q518.258 1267.12 518.258 1273.67 Q518.258 1280.2 521.244 1283.99 Q524.253 1287.79 529.345 1287.79 Q534.438 1287.79 537.401 1283.99 Q540.387 1280.2 540.387 1273.67 Q540.387 1267.12 537.401 1263.32 Q534.438 1259.53 529.345 1259.53 M529.345 1255.73 Q536.614 1255.73 540.966 1260.61 Q545.318 1265.48 545.318 1273.67 Q545.318 1281.84 540.966 1286.73 Q536.614 1291.59 529.345 1291.59 Q522.054 1291.59 517.679 1286.73 Q513.327 1281.86 513.327 1273.67 Q513.327 1265.48 517.679 1260.61 Q522.054 1255.73 529.345 1255.73 Z" fill="#000000" fill-rule="nonzero" fill-opacity="1" /><path clip-path="url(#clip740)" d="M567.47 1268.97 Q566.753 1268.55 565.896 1268.37 Q565.063 1268.16 564.044 1268.16 Q560.433 1268.16 558.489 1270.52 Q556.568 1272.86 556.568 1277.26 L556.568 1290.92 L552.285 1290.92 L552.285 1264.99 L556.568 1264.99 L556.568 1269.02 Q557.91 1266.66 560.063 1265.52 Q562.216 1264.36 565.294 1264.36 Q565.734 1264.36 566.267 1264.43 Q566.799 1264.48 567.447 1264.6 L567.47 1268.97 Z" fill="#000000" fill-rule="nonzero" fill-opacity="1" /><path clip-path="url(#clip740)" d="M571.938 1264.99 L576.197 1264.99 L576.197 1290.92 L571.938 1290.92 L571.938 1264.99 M571.938 1254.9 L576.197 1254.9 L576.197 1260.29 L571.938 1260.29 L571.938 1254.9 Z" fill="#000000" fill-rule="nonzero" fill-opacity="1" /><path clip-path="url(#clip740)" d="M602.169 1277.65 Q602.169 1273.02 600.248 1270.48 Q598.35 1267.93 594.901 1267.93 Q591.475 1267.93 589.553 1270.48 Q587.655 1273.02 587.655 1277.65 Q587.655 1282.26 589.553 1284.8 Q591.475 1287.35 594.901 1287.35 Q598.35 1287.35 600.248 1284.8 Q602.169 1282.26 602.169 1277.65 M606.428 1287.7 Q606.428 1294.32 603.489 1297.54 Q600.549 1300.78 594.484 1300.78 Q592.239 1300.78 590.248 1300.43 Q588.257 1300.11 586.382 1299.41 L586.382 1295.27 Q588.257 1296.29 590.086 1296.77 Q591.915 1297.26 593.813 1297.26 Q598.003 1297.26 600.086 1295.06 Q602.169 1292.88 602.169 1288.46 L602.169 1286.36 Q600.85 1288.65 598.79 1289.78 Q596.729 1290.92 593.859 1290.92 Q589.091 1290.92 586.174 1287.28 Q583.257 1283.65 583.257 1277.65 Q583.257 1271.63 586.174 1268 Q589.091 1264.36 593.859 1264.36 Q596.729 1264.36 598.79 1265.5 Q600.85 1266.63 602.169 1268.92 L602.169 1264.99 L606.428 1264.99 L606.428 1287.7 Z" fill="#000000" fill-rule="nonzero" fill-opacity="1" /><path clip-path="url(#clip740)" d="M615.201 1264.99 L619.461 1264.99 L619.461 1290.92 L615.201 1290.92 L615.201 1264.99 M615.201 1254.9 L619.461 1254.9 L619.461 1260.29 L615.201 1260.29 L615.201 1254.9 Z" fill="#000000" fill-rule="nonzero" fill-opacity="1" /><path clip-path="url(#clip740)" d="M649.924 1275.27 L649.924 1290.92 L645.664 1290.92 L645.664 1275.41 Q645.664 1271.73 644.229 1269.9 Q642.794 1268.07 639.924 1268.07 Q636.475 1268.07 634.484 1270.27 Q632.493 1272.47 632.493 1276.26 L632.493 1290.92 L628.211 1290.92 L628.211 1264.99 L632.493 1264.99 L632.493 1269.02 Q634.021 1266.68 636.081 1265.52 Q638.164 1264.36 640.873 1264.36 Q645.34 1264.36 647.632 1267.14 Q649.924 1269.9 649.924 1275.27 Z" fill="#000000" fill-rule="nonzero" fill-opacity="1" /><path clip-path="url(#clip740)" d="M670.201 1277.88 Q665.039 1277.88 663.048 1279.06 Q661.058 1280.24 661.058 1283.09 Q661.058 1285.36 662.539 1286.7 Q664.044 1288.02 666.613 1288.02 Q670.155 1288.02 672.285 1285.52 Q674.437 1283 674.437 1278.83 L674.437 1277.88 L670.201 1277.88 M678.697 1276.12 L678.697 1290.92 L674.437 1290.92 L674.437 1286.98 Q672.979 1289.34 670.803 1290.48 Q668.627 1291.59 665.479 1291.59 Q661.498 1291.59 659.136 1289.36 Q656.798 1287.12 656.798 1283.37 Q656.798 1278.99 659.715 1276.77 Q662.655 1274.55 668.465 1274.55 L674.437 1274.55 L674.437 1274.13 Q674.437 1271.19 672.493 1269.6 Q670.572 1267.98 667.076 1267.98 Q664.854 1267.98 662.748 1268.51 Q660.641 1269.04 658.697 1270.11 L658.697 1266.17 Q661.035 1265.27 663.234 1264.83 Q665.433 1264.36 667.516 1264.36 Q673.141 1264.36 675.919 1267.28 Q678.697 1270.2 678.697 1276.12 Z" fill="#000000" fill-rule="nonzero" fill-opacity="1" /><path clip-path="url(#clip740)" d="M687.47 1254.9 L691.729 1254.9 L691.729 1290.92 L687.47 1290.92 L687.47 1254.9 Z" fill="#000000" fill-rule="nonzero" fill-opacity="1" /><polyline clip-path="url(#clip740)" style="stroke:#e26f46; stroke-linecap:round; stroke-linejoin:round; stroke-width:16; stroke-opacity:1; fill:none" points="350.34,1325.48 490.043,1325.48 "/>
<path clip-path="url(#clip740)" d="M518.003 1312.04 L518.003 1325.02 L523.883 1325.02 Q527.146 1325.02 528.929 1323.33 Q530.711 1321.64 530.711 1318.52 Q530.711 1315.42 528.929 1313.73 Q527.146 1312.04 523.883 1312.04 L518.003 1312.04 M513.327 1308.2 L523.883 1308.2 Q529.693 1308.2 532.656 1310.83 Q535.642 1313.45 535.642 1318.52 Q535.642 1323.64 532.656 1326.25 Q529.693 1328.87 523.883 1328.87 L518.003 1328.87 L518.003 1342.76 L513.327 1342.76 L513.327 1308.2 Z" fill="#000000" fill-rule="nonzero" fill-opacity="1" /><path clip-path="url(#clip740)" d="M555.919 1320.81 Q555.202 1320.39 554.345 1320.21 Q553.512 1320 552.493 1320 Q548.882 1320 546.938 1322.36 Q545.017 1324.7 545.017 1329.1 L545.017 1342.76 L540.734 1342.76 L540.734 1316.83 L545.017 1316.83 L545.017 1320.86 Q546.359 1318.5 548.512 1317.36 Q550.665 1316.2 553.743 1316.2 Q554.183 1316.2 554.716 1316.27 Q555.248 1316.32 555.896 1316.44 L555.919 1320.81 Z" fill="#000000" fill-rule="nonzero" fill-opacity="1" /><path clip-path="url(#clip740)" d="M581.521 1328.73 L581.521 1330.81 L561.938 1330.81 Q562.216 1335.21 564.577 1337.52 Q566.961 1339.82 571.197 1339.82 Q573.651 1339.82 575.942 1339.21 Q578.257 1338.61 580.526 1337.41 L580.526 1341.44 Q578.234 1342.41 575.827 1342.92 Q573.419 1343.43 570.942 1343.43 Q564.739 1343.43 561.105 1339.82 Q557.493 1336.2 557.493 1330.05 Q557.493 1323.68 560.919 1319.95 Q564.368 1316.2 570.202 1316.2 Q575.433 1316.2 578.466 1319.58 Q581.521 1322.94 581.521 1328.73 M577.262 1327.48 Q577.216 1323.98 575.294 1321.9 Q573.396 1319.82 570.248 1319.82 Q566.683 1319.82 564.53 1321.83 Q562.401 1323.84 562.077 1327.5 L577.262 1327.48 Z" fill="#000000" fill-rule="nonzero" fill-opacity="1" /><path clip-path="url(#clip740)" d="M605.572 1320.76 L605.572 1306.74 L609.831 1306.74 L609.831 1342.76 L605.572 1342.76 L605.572 1338.87 Q604.229 1341.18 602.169 1342.32 Q600.132 1343.43 597.262 1343.43 Q592.563 1343.43 589.6 1339.68 Q586.66 1335.93 586.66 1329.82 Q586.66 1323.7 589.6 1319.95 Q592.563 1316.2 597.262 1316.2 Q600.132 1316.2 602.169 1317.34 Q604.229 1318.45 605.572 1320.76 M591.058 1329.82 Q591.058 1334.51 592.979 1337.2 Q594.924 1339.86 598.303 1339.86 Q601.683 1339.86 603.627 1337.2 Q605.572 1334.51 605.572 1329.82 Q605.572 1325.12 603.627 1322.45 Q601.683 1319.77 598.303 1319.77 Q594.924 1319.77 592.979 1322.45 Q591.058 1325.12 591.058 1329.82 Z" fill="#000000" fill-rule="nonzero" fill-opacity="1" /><path clip-path="url(#clip740)" d="M618.604 1316.83 L622.863 1316.83 L622.863 1342.76 L618.604 1342.76 L618.604 1316.83 M618.604 1306.74 L622.863 1306.74 L622.863 1312.13 L618.604 1312.13 L618.604 1306.74 Z" fill="#000000" fill-rule="nonzero" fill-opacity="1" /><path clip-path="url(#clip740)" d="M650.433 1317.82 L650.433 1321.81 Q648.627 1320.81 646.799 1320.32 Q644.993 1319.82 643.141 1319.82 Q638.998 1319.82 636.706 1322.45 Q634.414 1325.07 634.414 1329.82 Q634.414 1334.56 636.706 1337.2 Q638.998 1339.82 643.141 1339.82 Q644.993 1339.82 646.799 1339.33 Q648.627 1338.82 650.433 1337.82 L650.433 1341.76 Q648.65 1342.59 646.729 1343.01 Q644.831 1343.43 642.678 1343.43 Q636.822 1343.43 633.373 1339.75 Q629.924 1336.07 629.924 1329.82 Q629.924 1323.47 633.396 1319.84 Q636.891 1316.2 642.956 1316.2 Q644.924 1316.2 646.799 1316.62 Q648.674 1317.01 650.433 1317.82 Z" fill="#000000" fill-rule="nonzero" fill-opacity="1" /><path clip-path="url(#clip740)" d="M662.053 1309.47 L662.053 1316.83 L670.826 1316.83 L670.826 1320.14 L662.053 1320.14 L662.053 1334.21 Q662.053 1337.38 662.91 1338.29 Q663.789 1339.19 666.451 1339.19 L670.826 1339.19 L670.826 1342.76 L666.451 1342.76 Q661.521 1342.76 659.646 1340.93 Q657.771 1339.07 657.771 1334.21 L657.771 1320.14 L654.646 1320.14 L654.646 1316.83 L657.771 1316.83 L657.771 1309.47 L662.053 1309.47 Z" fill="#000000" fill-rule="nonzero" fill-opacity="1" /><path clip-path="url(#clip740)" d="M698.604 1328.73 L698.604 1330.81 L679.021 1330.81 Q679.298 1335.21 681.659 1337.52 Q684.044 1339.82 688.28 1339.82 Q690.733 1339.82 693.025 1339.21 Q695.34 1338.61 697.608 1337.41 L697.608 1341.44 Q695.317 1342.41 692.909 1342.92 Q690.502 1343.43 688.025 1343.43 Q681.822 1343.43 678.187 1339.82 Q674.576 1336.2 674.576 1330.05 Q674.576 1323.68 678.002 1319.95 Q681.451 1316.2 687.284 1316.2 Q692.516 1316.2 695.548 1319.58 Q698.604 1322.94 698.604 1328.73 M694.345 1327.48 Q694.298 1323.98 692.377 1321.9 Q690.479 1319.82 687.331 1319.82 Q683.766 1319.82 681.613 1321.83 Q679.484 1323.84 679.159 1327.5 L694.345 1327.48 Z" fill="#000000" fill-rule="nonzero" fill-opacity="1" /><path clip-path="url(#clip740)" d="M722.655 1320.76 L722.655 1306.74 L726.914 1306.74 L726.914 1342.76 L722.655 1342.76 L722.655 1338.87 Q721.312 1341.18 719.252 1342.32 Q717.215 1343.43 714.344 1343.43 Q709.645 1343.43 706.682 1339.68 Q703.743 1335.93 703.743 1329.82 Q703.743 1323.7 706.682 1319.95 Q709.645 1316.2 714.344 1316.2 Q717.215 1316.2 719.252 1317.34 Q721.312 1318.45 722.655 1320.76 M708.141 1329.82 Q708.141 1334.51 710.062 1337.2 Q712.007 1339.86 715.386 1339.86 Q718.766 1339.86 720.71 1337.2 Q722.655 1334.51 722.655 1329.82 Q722.655 1325.12 720.71 1322.45 Q718.766 1319.77 715.386 1319.77 Q712.007 1319.77 710.062 1322.45 Q708.141 1325.12 708.141 1329.82 Z" fill="#000000" fill-rule="nonzero" fill-opacity="1" /></svg>
