<?xml version="1.0" encoding="utf-8"?>
<svg xmlns="http://www.w3.org/2000/svg" xmlns:xlink="http://www.w3.org/1999/xlink" width="600" height="400" viewBox="0 0 2400 1600">
<defs>
  <clipPath id="clip800">
    <rect x="0" y="0" width="2400" height="1600"/>
  </clipPath>
</defs>
<path clip-path="url(#clip800)" d="M0 1600 L2400 1600 L2400 0 L0 0  Z" fill="#ffffff" fill-rule="evenodd" fill-opacity="1"/>
<defs>
  <clipPath id="clip801">
    <rect x="480" y="0" width="1681" height="1600"/>
  </clipPath>
</defs>
<path clip-path="url(#clip800)" d="M257.204 1423.18 L2352.76 1423.18 L2352.76 47.2441 L257.204 47.2441  Z" fill="#ffffff" fill-rule="evenodd" fill-opacity="1"/>
<defs>
  <clipPath id="clip802">
    <rect x="257" y="47" width="2097" height="1377"/>
  </clipPath>
</defs>
<polyline clip-path="url(#clip802)" style="stroke:#000000; stroke-linecap:round; stroke-linejoin:round; stroke-width:2; stroke-opacity:0.1; fill:none" points="322.216,1423.18 322.216,47.2441 "/>
<polyline clip-path="url(#clip802)" style="stroke:#000000; stroke-linecap:round; stroke-linejoin:round; stroke-width:2; stroke-opacity:0.1; fill:none" points="812.77,1423.18 812.77,47.2441 "/>
<polyline clip-path="url(#clip802)" style="stroke:#000000; stroke-linecap:round; stroke-linejoin:round; stroke-width:2; stroke-opacity:0.1; fill:none" points="1303.32,1423.18 1303.32,47.2441 "/>
<polyline clip-path="url(#clip802)" style="stroke:#000000; stroke-linecap:round; stroke-linejoin:round; stroke-width:2; stroke-opacity:0.1; fill:none" points="1793.88,1423.18 1793.88,47.2441 "/>
<polyline clip-path="url(#clip802)" style="stroke:#000000; stroke-linecap:round; stroke-linejoin:round; stroke-width:2; stroke-opacity:0.1; fill:none" points="2284.43,1423.18 2284.43,47.2441 "/>
<polyline clip-path="url(#clip800)" style="stroke:#000000; stroke-linecap:round; stroke-linejoin:round; stroke-width:4; stroke-opacity:1; fill:none" points="257.204,1423.18 2352.76,1423.18 "/>
<polyline clip-path="url(#clip800)" style="stroke:#000000; stroke-linecap:round; stroke-linejoin:round; stroke-width:4; stroke-opacity:1; fill:none" points="322.216,1423.18 322.216,1404.28 "/>
<polyline clip-path="url(#clip800)" style="stroke:#000000; stroke-linecap:round; stroke-linejoin:round; stroke-width:4; stroke-opacity:1; fill:none" points="812.77,1423.18 812.77,1404.28 "/>
<polyline clip-path="url(#clip800)" style="stroke:#000000; stroke-linecap:round; stroke-linejoin:round; stroke-width:4; stroke-opacity:1; fill:none" points="1303.32,1423.18 1303.32,1404.28 "/>
<polyline clip-path="url(#clip800)" style="stroke:#000000; stroke-linecap:round; stroke-linejoin:round; stroke-width:4; stroke-opacity:1; fill:none" points="1793.88,1423.18 1793.88,1404.28 "/>
<polyline clip-path="url(#clip800)" style="stroke:#000000; stroke-linecap:round; stroke-linejoin:round; stroke-width:4; stroke-opacity:1; fill:none" points="2284.43,1423.18 2284.43,1404.28 "/>
<path clip-path="url(#clip800)" d="M268.744 1468.75 L298.42 1468.75 L298.42 1472.69 L268.744 1472.69 L268.744 1468.75 Z" fill="#000000" fill-rule="nonzero" fill-opacity="1" /><path clip-path="url(#clip800)" d="M309.322 1481.64 L316.961 1481.64 L316.961 1455.28 L308.651 1456.95 L308.651 1452.69 L316.915 1451.02 L321.591 1451.02 L321.591 1481.64 L329.23 1481.64 L329.23 1485.58 L309.322 1485.58 L309.322 1481.64 Z" fill="#000000" fill-rule="nonzero" fill-opacity="1" /><path clip-path="url(#clip800)" d="M338.674 1479.7 L343.558 1479.7 L343.558 1485.58 L338.674 1485.58 L338.674 1479.7 Z" fill="#000000" fill-rule="nonzero" fill-opacity="1" /><path clip-path="url(#clip800)" d="M363.743 1454.1 Q360.132 1454.1 358.304 1457.66 Q356.498 1461.2 356.498 1468.33 Q356.498 1475.44 358.304 1479.01 Q360.132 1482.55 363.743 1482.55 Q367.378 1482.55 369.183 1479.01 Q371.012 1475.44 371.012 1468.33 Q371.012 1461.2 369.183 1457.66 Q367.378 1454.1 363.743 1454.1 M363.743 1450.39 Q369.553 1450.39 372.609 1455 Q375.688 1459.58 375.688 1468.33 Q375.688 1477.06 372.609 1481.67 Q369.553 1486.25 363.743 1486.25 Q357.933 1486.25 354.854 1481.67 Q351.799 1477.06 351.799 1468.33 Q351.799 1459.58 354.854 1455 Q357.933 1450.39 363.743 1450.39 Z" fill="#000000" fill-rule="nonzero" fill-opacity="1" /><path clip-path="url(#clip800)" d="M759.796 1468.75 L789.472 1468.75 L789.472 1472.69 L759.796 1472.69 L759.796 1468.75 Z" fill="#000000" fill-rule="nonzero" fill-opacity="1" /><path clip-path="url(#clip800)" d="M809.564 1454.1 Q805.953 1454.1 804.124 1457.66 Q802.319 1461.2 802.319 1468.33 Q802.319 1475.44 804.124 1479.01 Q805.953 1482.55 809.564 1482.55 Q813.199 1482.55 815.004 1479.01 Q816.833 1475.44 816.833 1468.33 Q816.833 1461.2 815.004 1457.66 Q813.199 1454.1 809.564 1454.1 M809.564 1450.39 Q815.374 1450.39 818.43 1455 Q821.509 1459.58 821.509 1468.33 Q821.509 1477.06 818.43 1481.67 Q815.374 1486.25 809.564 1486.25 Q803.754 1486.25 800.675 1481.67 Q797.62 1477.06 797.62 1468.33 Q797.62 1459.58 800.675 1455 Q803.754 1450.39 809.564 1450.39 Z" fill="#000000" fill-rule="nonzero" fill-opacity="1" /><path clip-path="url(#clip800)" d="M829.726 1479.7 L834.61 1479.7 L834.61 1485.58 L829.726 1485.58 L829.726 1479.7 Z" fill="#000000" fill-rule="nonzero" fill-opacity="1" /><path clip-path="url(#clip800)" d="M844.842 1451.02 L863.198 1451.02 L863.198 1454.96 L849.124 1454.96 L849.124 1463.43 Q850.143 1463.08 851.161 1462.92 Q852.18 1462.73 853.198 1462.73 Q858.985 1462.73 862.365 1465.9 Q865.745 1469.08 865.745 1474.49 Q865.745 1480.07 862.272 1483.17 Q858.8 1486.25 852.481 1486.25 Q850.305 1486.25 848.036 1485.88 Q845.791 1485.51 843.384 1484.77 L843.384 1480.07 Q845.467 1481.2 847.689 1481.76 Q849.911 1482.32 852.388 1482.32 Q856.393 1482.32 858.731 1480.21 Q861.069 1478.1 861.069 1474.49 Q861.069 1470.88 858.731 1468.77 Q856.393 1466.67 852.388 1466.67 Q850.513 1466.67 848.638 1467.08 Q846.786 1467.5 844.842 1468.38 L844.842 1451.02 Z" fill="#000000" fill-rule="nonzero" fill-opacity="1" /><path clip-path="url(#clip800)" d="M1280.71 1454.1 Q1277.1 1454.1 1275.27 1457.66 Q1273.46 1461.2 1273.46 1468.33 Q1273.46 1475.44 1275.27 1479.01 Q1277.1 1482.55 1280.71 1482.55 Q1284.34 1482.55 1286.15 1479.01 Q1287.98 1475.44 1287.98 1468.33 Q1287.98 1461.2 1286.15 1457.66 Q1284.34 1454.1 1280.71 1454.1 M1280.71 1450.39 Q1286.52 1450.39 1289.57 1455 Q1292.65 1459.58 1292.65 1468.33 Q1292.65 1477.06 1289.57 1481.67 Q1286.52 1486.25 1280.71 1486.25 Q1274.9 1486.25 1271.82 1481.67 Q1268.76 1477.06 1268.76 1468.33 Q1268.76 1459.58 1271.82 1455 Q1274.9 1450.39 1280.71 1450.39 Z" fill="#000000" fill-rule="nonzero" fill-opacity="1" /><path clip-path="url(#clip800)" d="M1300.87 1479.7 L1305.76 1479.7 L1305.76 1485.58 L1300.87 1485.58 L1300.87 1479.7 Z" fill="#000000" fill-rule="nonzero" fill-opacity="1" /><path clip-path="url(#clip800)" d="M1325.94 1454.1 Q1322.33 1454.1 1320.5 1457.66 Q1318.7 1461.2 1318.7 1468.33 Q1318.7 1475.44 1320.5 1479.01 Q1322.33 1482.55 1325.94 1482.55 Q1329.57 1482.55 1331.38 1479.01 Q1333.21 1475.44 1333.21 1468.33 Q1333.21 1461.2 1331.38 1457.66 Q1329.57 1454.1 1325.94 1454.1 M1325.94 1450.39 Q1331.75 1450.39 1334.81 1455 Q1337.88 1459.58 1337.88 1468.33 Q1337.88 1477.06 1334.81 1481.67 Q1331.75 1486.25 1325.94 1486.25 Q1320.13 1486.25 1317.05 1481.67 Q1314 1477.06 1314 1468.33 Q1314 1459.58 1317.05 1455 Q1320.13 1450.39 1325.94 1450.39 Z" fill="#000000" fill-rule="nonzero" fill-opacity="1" /><path clip-path="url(#clip800)" d="M1771.76 1454.1 Q1768.15 1454.1 1766.32 1457.66 Q1764.52 1461.2 1764.52 1468.33 Q1764.52 1475.44 1766.32 1479.01 Q1768.15 1482.55 1771.76 1482.55 Q1775.4 1482.55 1777.2 1479.01 Q1779.03 1475.44 1779.03 1468.33 Q1779.03 1461.2 1777.2 1457.66 Q1775.4 1454.1 1771.76 1454.1 M1771.76 1450.39 Q1777.57 1450.39 1780.63 1455 Q1783.71 1459.58 1783.71 1468.33 Q1783.71 1477.06 1780.63 1481.67 Q1777.57 1486.25 1771.76 1486.25 Q1765.95 1486.25 1762.87 1481.67 Q1759.82 1477.06 1759.82 1468.33 Q1759.82 1459.58 1762.87 1455 Q1765.95 1450.39 1771.76 1450.39 Z" fill="#000000" fill-rule="nonzero" fill-opacity="1" /><path clip-path="url(#clip800)" d="M1791.92 1479.7 L1796.81 1479.7 L1796.81 1485.58 L1791.92 1485.58 L1791.92 1479.7 Z" fill="#000000" fill-rule="nonzero" fill-opacity="1" /><path clip-path="url(#clip800)" d="M1807.04 1451.02 L1825.4 1451.02 L1825.4 1454.96 L1811.32 1454.96 L1811.32 1463.43 Q1812.34 1463.08 1813.36 1462.92 Q1814.38 1462.73 1815.4 1462.73 Q1821.18 1462.73 1824.56 1465.9 Q1827.94 1469.08 1827.94 1474.49 Q1827.94 1480.07 1824.47 1483.17 Q1821 1486.25 1814.68 1486.25 Q1812.5 1486.25 1810.23 1485.88 Q1807.99 1485.51 1805.58 1484.77 L1805.58 1480.07 Q1807.66 1481.2 1809.89 1481.76 Q1812.11 1482.32 1814.59 1482.32 Q1818.59 1482.32 1820.93 1480.21 Q1823.27 1478.1 1823.27 1474.49 Q1823.27 1470.88 1820.93 1468.77 Q1818.59 1466.67 1814.59 1466.67 Q1812.71 1466.67 1810.84 1467.08 Q1808.98 1467.5 1807.04 1468.38 L1807.04 1451.02 Z" fill="#000000" fill-rule="nonzero" fill-opacity="1" /><path clip-path="url(#clip800)" d="M2251.59 1481.64 L2259.23 1481.64 L2259.23 1455.28 L2250.92 1456.95 L2250.92 1452.69 L2259.18 1451.02 L2263.86 1451.02 L2263.86 1481.64 L2271.49 1481.64 L2271.49 1485.58 L2251.59 1485.58 L2251.59 1481.64 Z" fill="#000000" fill-rule="nonzero" fill-opacity="1" /><path clip-path="url(#clip800)" d="M2280.94 1479.7 L2285.82 1479.7 L2285.82 1485.58 L2280.94 1485.58 L2280.94 1479.7 Z" fill="#000000" fill-rule="nonzero" fill-opacity="1" /><path clip-path="url(#clip800)" d="M2306.01 1454.1 Q2302.4 1454.1 2300.57 1457.66 Q2298.76 1461.2 2298.76 1468.33 Q2298.76 1475.44 2300.57 1479.01 Q2302.4 1482.55 2306.01 1482.55 Q2309.64 1482.55 2311.45 1479.01 Q2313.28 1475.44 2313.28 1468.33 Q2313.28 1461.2 2311.45 1457.66 Q2309.64 1454.1 2306.01 1454.1 M2306.01 1450.39 Q2311.82 1450.39 2314.87 1455 Q2317.95 1459.58 2317.95 1468.33 Q2317.95 1477.06 2314.87 1481.67 Q2311.82 1486.25 2306.01 1486.25 Q2300.2 1486.25 2297.12 1481.67 Q2294.06 1477.06 2294.06 1468.33 Q2294.06 1459.58 2297.12 1455 Q2300.2 1450.39 2306.01 1450.39 Z" fill="#000000" fill-rule="nonzero" fill-opacity="1" /><path clip-path="url(#clip800)" d="M1134.03 1525.81 L1134.03 1543.66 L1142.11 1543.66 Q1146.6 1543.66 1149.05 1541.34 Q1151.5 1539.02 1151.5 1534.72 Q1151.5 1530.45 1149.05 1528.13 Q1146.6 1525.81 1142.11 1525.81 L1134.03 1525.81 M1127.6 1520.52 L1142.11 1520.52 Q1150.1 1520.52 1154.18 1524.15 Q1158.28 1527.75 1158.28 1534.72 Q1158.28 1541.75 1154.18 1545.35 Q1150.1 1548.95 1142.11 1548.95 L1134.03 1548.95 L1134.03 1568.04 L1127.6 1568.04 L1127.6 1520.52 Z" fill="#000000" fill-rule="nonzero" fill-opacity="1" /><path clip-path="url(#clip800)" d="M1178.14 1536.5 Q1173.43 1536.5 1170.7 1540.19 Q1167.96 1543.85 1167.96 1550.25 Q1167.96 1556.65 1170.66 1560.34 Q1173.4 1564 1178.14 1564 Q1182.82 1564 1185.56 1560.31 Q1188.3 1556.62 1188.3 1550.25 Q1188.3 1543.92 1185.56 1540.23 Q1182.82 1536.5 1178.14 1536.5 M1178.14 1531.54 Q1185.78 1531.54 1190.14 1536.5 Q1194.5 1541.47 1194.5 1550.25 Q1194.5 1559 1190.14 1564 Q1185.78 1568.97 1178.14 1568.97 Q1170.47 1568.97 1166.11 1564 Q1161.78 1559 1161.78 1550.25 Q1161.78 1541.47 1166.11 1536.5 Q1170.47 1531.54 1178.14 1531.54 Z" fill="#000000" fill-rule="nonzero" fill-opacity="1" /><path clip-path="url(#clip800)" d="M1226.94 1533.45 L1226.94 1538.98 Q1224.45 1537.71 1221.78 1537.07 Q1219.11 1536.44 1216.24 1536.44 Q1211.88 1536.44 1209.69 1537.77 Q1207.52 1539.11 1207.52 1541.79 Q1207.52 1543.82 1209.08 1545 Q1210.64 1546.15 1215.35 1547.2 L1217.36 1547.64 Q1223.59 1548.98 1226.2 1551.43 Q1228.85 1553.85 1228.85 1558.21 Q1228.85 1563.17 1224.9 1566.07 Q1220.98 1568.97 1214.11 1568.97 Q1211.24 1568.97 1208.13 1568.39 Q1205.04 1567.85 1201.6 1566.74 L1201.6 1560.69 Q1204.85 1562.38 1208 1563.24 Q1211.15 1564.07 1214.24 1564.07 Q1218.37 1564.07 1220.6 1562.66 Q1222.83 1561.23 1222.83 1558.65 Q1222.83 1556.27 1221.21 1554.99 Q1219.62 1553.72 1214.17 1552.54 L1212.14 1552.07 Q1206.69 1550.92 1204.27 1548.56 Q1201.86 1546.18 1201.86 1542.04 Q1201.86 1537.01 1205.42 1534.27 Q1208.99 1531.54 1215.54 1531.54 Q1218.79 1531.54 1221.65 1532.01 Q1224.52 1532.49 1226.94 1533.45 Z" fill="#000000" fill-rule="nonzero" fill-opacity="1" /><path clip-path="url(#clip800)" d="M1238.17 1532.4 L1244.03 1532.4 L1244.03 1568.04 L1238.17 1568.04 L1238.17 1532.4 M1238.17 1518.52 L1244.03 1518.52 L1244.03 1525.93 L1238.17 1525.93 L1238.17 1518.52 Z" fill="#000000" fill-rule="nonzero" fill-opacity="1" /><path clip-path="url(#clip800)" d="M1262.08 1522.27 L1262.08 1532.4 L1274.14 1532.4 L1274.14 1536.95 L1262.08 1536.95 L1262.08 1556.3 Q1262.08 1560.66 1263.25 1561.9 Q1264.46 1563.14 1268.12 1563.14 L1274.14 1563.14 L1274.14 1568.04 L1268.12 1568.04 Q1261.34 1568.04 1258.76 1565.53 Q1256.19 1562.98 1256.19 1556.3 L1256.19 1536.95 L1251.89 1536.95 L1251.89 1532.4 L1256.19 1532.4 L1256.19 1522.27 L1262.08 1522.27 Z" fill="#000000" fill-rule="nonzero" fill-opacity="1" /><path clip-path="url(#clip800)" d="M1281.84 1532.4 L1287.7 1532.4 L1287.7 1568.04 L1281.84 1568.04 L1281.84 1532.4 M1281.84 1518.52 L1287.7 1518.52 L1287.7 1525.93 L1281.84 1525.93 L1281.84 1518.52 Z" fill="#000000" fill-rule="nonzero" fill-opacity="1" /><path clip-path="url(#clip800)" d="M1313.76 1536.5 Q1309.05 1536.5 1306.32 1540.19 Q1303.58 1543.85 1303.58 1550.25 Q1303.58 1556.65 1306.28 1560.34 Q1309.02 1564 1313.76 1564 Q1318.44 1564 1321.18 1560.31 Q1323.92 1556.62 1323.92 1550.25 Q1323.92 1543.92 1321.18 1540.23 Q1318.44 1536.5 1313.76 1536.5 M1313.76 1531.54 Q1321.4 1531.54 1325.76 1536.5 Q1330.12 1541.47 1330.12 1550.25 Q1330.12 1559 1325.76 1564 Q1321.4 1568.97 1313.76 1568.97 Q1306.09 1568.97 1301.73 1564 Q1297.4 1559 1297.4 1550.25 Q1297.4 1541.47 1301.73 1536.5 Q1306.09 1531.54 1313.76 1531.54 Z" fill="#000000" fill-rule="nonzero" fill-opacity="1" /><path clip-path="url(#clip800)" d="M1369.46 1546.53 L1369.46 1568.04 L1363.61 1568.04 L1363.61 1546.72 Q1363.61 1541.66 1361.63 1539.14 Q1359.66 1536.63 1355.71 1536.63 Q1350.97 1536.63 1348.23 1539.65 Q1345.5 1542.68 1345.5 1547.9 L1345.5 1568.04 L1339.61 1568.04 L1339.61 1532.4 L1345.5 1532.4 L1345.5 1537.93 Q1347.6 1534.72 1350.43 1533.13 Q1353.3 1531.54 1357.02 1531.54 Q1363.16 1531.54 1366.31 1535.36 Q1369.46 1539.14 1369.46 1546.53 Z" fill="#000000" fill-rule="nonzero" fill-opacity="1" /><path clip-path="url(#clip800)" d="M1415.93 1518.58 Q1411.67 1525.9 1409.6 1533.06 Q1407.53 1540.23 1407.53 1547.58 Q1407.53 1554.93 1409.6 1562.16 Q1411.7 1569.35 1415.93 1576.64 L1410.84 1576.64 Q1406.07 1569.16 1403.68 1561.93 Q1401.32 1554.71 1401.32 1547.58 Q1401.32 1540.48 1403.68 1533.29 Q1406.04 1526.09 1410.84 1518.58 L1415.93 1518.58 Z" fill="#000000" fill-rule="nonzero" fill-opacity="1" /><path clip-path="url(#clip800)" d="M1430.8 1550.25 Q1430.8 1556.71 1433.44 1560.4 Q1436.11 1564.07 1440.76 1564.07 Q1445.41 1564.07 1448.08 1560.4 Q1450.75 1556.71 1450.75 1550.25 Q1450.75 1543.79 1448.08 1540.13 Q1445.41 1536.44 1440.76 1536.44 Q1436.11 1536.44 1433.44 1540.13 Q1430.8 1543.79 1430.8 1550.25 M1450.75 1562.7 Q1448.91 1565.88 1446.08 1567.44 Q1443.27 1568.97 1439.33 1568.97 Q1432.87 1568.97 1428.79 1563.81 Q1424.75 1558.65 1424.75 1550.25 Q1424.75 1541.85 1428.79 1536.69 Q1432.87 1531.54 1439.33 1531.54 Q1443.27 1531.54 1446.08 1533.1 Q1448.91 1534.62 1450.75 1537.81 L1450.75 1532.4 L1456.61 1532.4 L1456.61 1581.6 L1450.75 1581.6 L1450.75 1562.7 Z" fill="#000000" fill-rule="nonzero" fill-opacity="1" /><path clip-path="url(#clip800)" d="M1467.75 1518.58 L1472.84 1518.58 Q1477.62 1526.09 1479.97 1533.29 Q1482.36 1540.48 1482.36 1547.58 Q1482.36 1554.71 1479.97 1561.93 Q1477.62 1569.16 1472.84 1576.64 L1467.75 1576.64 Q1471.98 1569.35 1474.05 1562.16 Q1476.15 1554.93 1476.15 1547.58 Q1476.15 1540.23 1474.05 1533.06 Q1471.98 1525.9 1467.75 1518.58 Z" fill="#000000" fill-rule="nonzero" fill-opacity="1" /><polyline clip-path="url(#clip802)" style="stroke:#000000; stroke-linecap:round; stroke-linejoin:round; stroke-width:2; stroke-opacity:0.1; fill:none" points="257.204,1376.14 2352.76,1376.14 "/>
<polyline clip-path="url(#clip802)" style="stroke:#000000; stroke-linecap:round; stroke-linejoin:round; stroke-width:2; stroke-opacity:0.1; fill:none" points="257.204,1053.77 2352.76,1053.77 "/>
<polyline clip-path="url(#clip802)" style="stroke:#000000; stroke-linecap:round; stroke-linejoin:round; stroke-width:2; stroke-opacity:0.1; fill:none" points="257.204,731.392 2352.76,731.392 "/>
<polyline clip-path="url(#clip802)" style="stroke:#000000; stroke-linecap:round; stroke-linejoin:round; stroke-width:2; stroke-opacity:0.1; fill:none" points="257.204,409.016 2352.76,409.016 "/>
<polyline clip-path="url(#clip802)" style="stroke:#000000; stroke-linecap:round; stroke-linejoin:round; stroke-width:2; stroke-opacity:0.1; fill:none" points="257.204,86.6391 2352.76,86.6391 "/>
<polyline clip-path="url(#clip800)" style="stroke:#000000; stroke-linecap:round; stroke-linejoin:round; stroke-width:4; stroke-opacity:1; fill:none" points="257.204,1423.18 257.204,47.2441 "/>
<polyline clip-path="url(#clip800)" style="stroke:#000000; stroke-linecap:round; stroke-linejoin:round; stroke-width:4; stroke-opacity:1; fill:none" points="257.204,1376.14 276.102,1376.14 "/>
<polyline clip-path="url(#clip800)" style="stroke:#000000; stroke-linecap:round; stroke-linejoin:round; stroke-width:4; stroke-opacity:1; fill:none" points="257.204,1053.77 276.102,1053.77 "/>
<polyline clip-path="url(#clip800)" style="stroke:#000000; stroke-linecap:round; stroke-linejoin:round; stroke-width:4; stroke-opacity:1; fill:none" points="257.204,731.392 276.102,731.392 "/>
<polyline clip-path="url(#clip800)" style="stroke:#000000; stroke-linecap:round; stroke-linejoin:round; stroke-width:4; stroke-opacity:1; fill:none" points="257.204,409.016 276.102,409.016 "/>
<polyline clip-path="url(#clip800)" style="stroke:#000000; stroke-linecap:round; stroke-linejoin:round; stroke-width:4; stroke-opacity:1; fill:none" points="257.204,86.6391 276.102,86.6391 "/>
<path clip-path="url(#clip800)" d="M114.26 1376.6 L143.936 1376.6 L143.936 1380.53 L114.26 1380.53 L114.26 1376.6 Z" fill="#000000" fill-rule="nonzero" fill-opacity="1" /><path clip-path="url(#clip800)" d="M154.839 1389.49 L162.477 1389.49 L162.477 1363.12 L154.167 1364.79 L154.167 1360.53 L162.431 1358.86 L167.107 1358.86 L167.107 1389.49 L174.746 1389.49 L174.746 1393.42 L154.839 1393.42 L154.839 1389.49 Z" fill="#000000" fill-rule="nonzero" fill-opacity="1" /><path clip-path="url(#clip800)" d="M184.19 1387.55 L189.075 1387.55 L189.075 1393.42 L184.19 1393.42 L184.19 1387.55 Z" fill="#000000" fill-rule="nonzero" fill-opacity="1" /><path clip-path="url(#clip800)" d="M209.26 1361.94 Q205.649 1361.94 203.82 1365.51 Q202.014 1369.05 202.014 1376.18 Q202.014 1383.29 203.82 1386.85 Q205.649 1390.39 209.26 1390.39 Q212.894 1390.39 214.699 1386.85 Q216.528 1383.29 216.528 1376.18 Q216.528 1369.05 214.699 1365.51 Q212.894 1361.94 209.26 1361.94 M209.26 1358.24 Q215.07 1358.24 218.125 1362.85 Q221.204 1367.43 221.204 1376.18 Q221.204 1384.91 218.125 1389.51 Q215.07 1394.1 209.26 1394.1 Q203.449 1394.1 200.371 1389.51 Q197.315 1384.91 197.315 1376.18 Q197.315 1367.43 200.371 1362.85 Q203.449 1358.24 209.26 1358.24 Z" fill="#000000" fill-rule="nonzero" fill-opacity="1" /><path clip-path="url(#clip800)" d="M115.256 1054.22 L144.931 1054.22 L144.931 1058.15 L115.256 1058.15 L115.256 1054.22 Z" fill="#000000" fill-rule="nonzero" fill-opacity="1" /><path clip-path="url(#clip800)" d="M165.024 1039.57 Q161.413 1039.57 159.584 1043.13 Q157.778 1046.67 157.778 1053.8 Q157.778 1060.91 159.584 1064.47 Q161.413 1068.02 165.024 1068.02 Q168.658 1068.02 170.464 1064.47 Q172.292 1060.91 172.292 1053.8 Q172.292 1046.67 170.464 1043.13 Q168.658 1039.57 165.024 1039.57 M165.024 1035.86 Q170.834 1035.86 173.889 1040.47 Q176.968 1045.05 176.968 1053.8 Q176.968 1062.53 173.889 1067.14 Q170.834 1071.72 165.024 1071.72 Q159.214 1071.72 156.135 1067.14 Q153.079 1062.53 153.079 1053.8 Q153.079 1045.05 156.135 1040.47 Q159.214 1035.86 165.024 1035.86 Z" fill="#000000" fill-rule="nonzero" fill-opacity="1" /><path clip-path="url(#clip800)" d="M185.186 1065.17 L190.07 1065.17 L190.07 1071.05 L185.186 1071.05 L185.186 1065.17 Z" fill="#000000" fill-rule="nonzero" fill-opacity="1" /><path clip-path="url(#clip800)" d="M200.301 1036.49 L218.658 1036.49 L218.658 1040.42 L204.584 1040.42 L204.584 1048.9 Q205.602 1048.55 206.621 1048.39 Q207.639 1048.2 208.658 1048.2 Q214.445 1048.2 217.824 1051.37 Q221.204 1054.54 221.204 1059.96 Q221.204 1065.54 217.732 1068.64 Q214.26 1071.72 207.94 1071.72 Q205.764 1071.72 203.496 1071.35 Q201.25 1070.98 198.843 1070.24 L198.843 1065.54 Q200.926 1066.67 203.149 1067.23 Q205.371 1067.78 207.848 1067.78 Q211.852 1067.78 214.19 1065.68 Q216.528 1063.57 216.528 1059.96 Q216.528 1056.35 214.19 1054.24 Q211.852 1052.14 207.848 1052.14 Q205.973 1052.14 204.098 1052.55 Q202.246 1052.97 200.301 1053.85 L200.301 1036.49 Z" fill="#000000" fill-rule="nonzero" fill-opacity="1" /><path clip-path="url(#clip800)" d="M164.028 717.191 Q160.417 717.191 158.589 720.755 Q156.783 724.297 156.783 731.427 Q156.783 738.533 158.589 742.098 Q160.417 745.639 164.028 745.639 Q167.663 745.639 169.468 742.098 Q171.297 738.533 171.297 731.427 Q171.297 724.297 169.468 720.755 Q167.663 717.191 164.028 717.191 M164.028 713.487 Q169.839 713.487 172.894 718.093 Q175.973 722.677 175.973 731.427 Q175.973 740.153 172.894 744.76 Q169.839 749.343 164.028 749.343 Q158.218 749.343 155.14 744.76 Q152.084 740.153 152.084 731.427 Q152.084 722.677 155.14 718.093 Q158.218 713.487 164.028 713.487 Z" fill="#000000" fill-rule="nonzero" fill-opacity="1" /><path clip-path="url(#clip800)" d="M184.19 742.792 L189.075 742.792 L189.075 748.672 L184.19 748.672 L184.19 742.792 Z" fill="#000000" fill-rule="nonzero" fill-opacity="1" /><path clip-path="url(#clip800)" d="M209.26 717.191 Q205.649 717.191 203.82 720.755 Q202.014 724.297 202.014 731.427 Q202.014 738.533 203.82 742.098 Q205.649 745.639 209.26 745.639 Q212.894 745.639 214.699 742.098 Q216.528 738.533 216.528 731.427 Q216.528 724.297 214.699 720.755 Q212.894 717.191 209.26 717.191 M209.26 713.487 Q215.07 713.487 218.125 718.093 Q221.204 722.677 221.204 731.427 Q221.204 740.153 218.125 744.76 Q215.07 749.343 209.26 749.343 Q203.449 749.343 200.371 744.76 Q197.315 740.153 197.315 731.427 Q197.315 722.677 200.371 718.093 Q203.449 713.487 209.26 713.487 Z" fill="#000000" fill-rule="nonzero" fill-opacity="1" /><path clip-path="url(#clip800)" d="M165.024 394.814 Q161.413 394.814 159.584 398.379 Q157.778 401.921 157.778 409.05 Q157.778 416.157 159.584 419.721 Q161.413 423.263 165.024 423.263 Q168.658 423.263 170.464 419.721 Q172.292 416.157 172.292 409.05 Q172.292 401.921 170.464 398.379 Q168.658 394.814 165.024 394.814 M165.024 391.111 Q170.834 391.111 173.889 395.717 Q176.968 400.3 176.968 409.05 Q176.968 417.777 173.889 422.384 Q170.834 426.967 165.024 426.967 Q159.214 426.967 156.135 422.384 Q153.079 417.777 153.079 409.05 Q153.079 400.3 156.135 395.717 Q159.214 391.111 165.024 391.111 Z" fill="#000000" fill-rule="nonzero" fill-opacity="1" /><path clip-path="url(#clip800)" d="M185.186 420.416 L190.07 420.416 L190.07 426.296 L185.186 426.296 L185.186 420.416 Z" fill="#000000" fill-rule="nonzero" fill-opacity="1" /><path clip-path="url(#clip800)" d="M200.301 391.736 L218.658 391.736 L218.658 395.671 L204.584 395.671 L204.584 404.143 Q205.602 403.796 206.621 403.634 Q207.639 403.448 208.658 403.448 Q214.445 403.448 217.824 406.62 Q221.204 409.791 221.204 415.208 Q221.204 420.786 217.732 423.888 Q214.26 426.967 207.94 426.967 Q205.764 426.967 203.496 426.596 Q201.25 426.226 198.843 425.485 L198.843 420.786 Q200.926 421.921 203.149 422.476 Q205.371 423.032 207.848 423.032 Q211.852 423.032 214.19 420.925 Q216.528 418.819 216.528 415.208 Q216.528 411.597 214.19 409.49 Q211.852 407.384 207.848 407.384 Q205.973 407.384 204.098 407.8 Q202.246 408.217 200.301 409.097 L200.301 391.736 Z" fill="#000000" fill-rule="nonzero" fill-opacity="1" /><path clip-path="url(#clip800)" d="M154.839 99.984 L162.477 99.984 L162.477 73.6184 L154.167 75.285 L154.167 71.0258 L162.431 69.3591 L167.107 69.3591 L167.107 99.984 L174.746 99.984 L174.746 103.919 L154.839 103.919 L154.839 99.984 Z" fill="#000000" fill-rule="nonzero" fill-opacity="1" /><path clip-path="url(#clip800)" d="M184.19 98.0396 L189.075 98.0396 L189.075 103.919 L184.19 103.919 L184.19 98.0396 Z" fill="#000000" fill-rule="nonzero" fill-opacity="1" /><path clip-path="url(#clip800)" d="M209.26 72.4378 Q205.649 72.4378 203.82 76.0026 Q202.014 79.5443 202.014 86.6739 Q202.014 93.7803 203.82 97.3451 Q205.649 100.887 209.26 100.887 Q212.894 100.887 214.699 97.3451 Q216.528 93.7803 216.528 86.6739 Q216.528 79.5443 214.699 76.0026 Q212.894 72.4378 209.26 72.4378 M209.26 68.7342 Q215.07 68.7342 218.125 73.3406 Q221.204 77.9239 221.204 86.6739 Q221.204 95.4007 218.125 100.007 Q215.07 104.59 209.26 104.59 Q203.449 104.59 200.371 100.007 Q197.315 95.4007 197.315 86.6739 Q197.315 77.9239 200.371 73.3406 Q203.449 68.7342 209.26 68.7342 Z" fill="#000000" fill-rule="nonzero" fill-opacity="1" /><path clip-path="url(#clip800)" d="M16.4842 971.396 L16.4842 961.815 L48.8219 949.689 L16.4842 937.498 L16.4842 927.918 L64.0042 927.918 L64.0042 934.188 L22.277 934.188 L54.8694 946.442 L54.8694 952.903 L22.277 965.157 L64.0042 965.157 L64.0042 971.396 L16.4842 971.396 Z" fill="#000000" fill-rule="nonzero" fill-opacity="1" /><path clip-path="url(#clip800)" d="M32.4621 901.596 Q32.4621 906.306 36.1542 909.044 Q39.8145 911.781 46.212 911.781 Q52.6095 911.781 56.3017 909.075 Q59.9619 906.338 59.9619 901.596 Q59.9619 896.917 56.2698 894.18 Q52.5777 891.442 46.212 891.442 Q39.8781 891.442 36.186 894.18 Q32.4621 896.917 32.4621 901.596 M27.4968 901.596 Q27.4968 893.957 32.4621 889.596 Q37.4273 885.236 46.212 885.236 Q54.9649 885.236 59.9619 889.596 Q64.9272 893.957 64.9272 901.596 Q64.9272 909.266 59.9619 913.627 Q54.9649 917.955 46.212 917.955 Q37.4273 917.955 32.4621 913.627 Q27.4968 909.266 27.4968 901.596 Z" fill="#000000" fill-rule="nonzero" fill-opacity="1" /><path clip-path="url(#clip800)" d="M35.1993 847.774 Q31.2526 845.577 29.3747 842.522 Q27.4968 839.466 27.4968 835.329 Q27.4968 829.759 31.4117 826.735 Q35.2948 823.711 42.4881 823.711 L64.0042 823.711 L64.0042 829.599 L42.679 829.599 Q37.5546 829.599 35.072 831.414 Q32.5894 833.228 32.5894 836.952 Q32.5894 841.503 35.6131 844.145 Q38.6368 846.787 43.8567 846.787 L64.0042 846.787 L64.0042 852.675 L42.679 852.675 Q37.5228 852.675 35.072 854.489 Q32.5894 856.304 32.5894 860.091 Q32.5894 864.579 35.6449 867.221 Q38.6686 869.863 43.8567 869.863 L64.0042 869.863 L64.0042 875.751 L28.3562 875.751 L28.3562 869.863 L33.8944 869.863 Q30.616 867.857 29.0564 865.056 Q27.4968 862.256 27.4968 858.404 Q27.4968 854.521 29.4702 851.816 Q31.4436 849.079 35.1993 847.774 Z" fill="#000000" fill-rule="nonzero" fill-opacity="1" /><path clip-path="url(#clip800)" d="M44.7161 781.538 L47.5806 781.538 L47.5806 808.465 Q53.6281 808.083 56.8109 804.837 Q59.9619 801.559 59.9619 795.734 Q59.9619 792.36 59.1344 789.209 Q58.3069 786.026 56.6518 782.907 L62.1899 782.907 Q63.5267 786.058 64.227 789.368 Q64.9272 792.678 64.9272 796.084 Q64.9272 804.614 59.9619 809.611 Q54.9967 814.576 46.5303 814.576 Q37.7774 814.576 32.6531 809.866 Q27.4968 805.123 27.4968 797.103 Q27.4968 789.909 32.1438 785.74 Q36.7589 781.538 44.7161 781.538 M42.9973 787.395 Q38.1912 787.459 35.3266 790.1 Q32.4621 792.71 32.4621 797.039 Q32.4621 801.94 35.2312 804.901 Q38.0002 807.829 43.0292 808.274 L42.9973 787.395 Z" fill="#000000" fill-rule="nonzero" fill-opacity="1" /><path clip-path="url(#clip800)" d="M42.4881 742.294 L64.0042 742.294 L64.0042 748.15 L42.679 748.15 Q37.6183 748.15 35.1038 750.124 Q32.5894 752.097 32.5894 756.044 Q32.5894 760.786 35.6131 763.523 Q38.6368 766.261 43.8567 766.261 L64.0042 766.261 L64.0042 772.149 L28.3562 772.149 L28.3562 766.261 L33.8944 766.261 Q30.6797 764.16 29.0883 761.327 Q27.4968 758.463 27.4968 754.739 Q27.4968 748.596 31.3163 745.445 Q35.1038 742.294 42.4881 742.294 Z" fill="#000000" fill-rule="nonzero" fill-opacity="1" /><path clip-path="url(#clip800)" d="M18.2347 724.82 L28.3562 724.82 L28.3562 712.757 L32.9077 712.757 L32.9077 724.82 L52.2594 724.82 Q56.6199 724.82 57.8613 723.642 Q59.1026 722.433 59.1026 718.773 L59.1026 712.757 L64.0042 712.757 L64.0042 718.773 Q64.0042 725.552 61.4897 728.13 Q58.9434 730.708 52.2594 730.708 L32.9077 730.708 L32.9077 735.005 L28.3562 735.005 L28.3562 730.708 L18.2347 730.708 L18.2347 724.82 Z" fill="#000000" fill-rule="nonzero" fill-opacity="1" /><path clip-path="url(#clip800)" d="M49.9359 705.659 L28.3562 705.659 L28.3562 699.803 L49.7131 699.803 Q54.7739 699.803 57.3202 697.829 Q59.8346 695.856 59.8346 691.909 Q59.8346 687.167 56.8109 684.43 Q53.7872 681.66 48.5673 681.66 L28.3562 681.66 L28.3562 675.804 L64.0042 675.804 L64.0042 681.66 L58.5296 681.66 Q61.7762 683.793 63.3676 686.626 Q64.9272 689.427 64.9272 693.151 Q64.9272 699.293 61.1078 702.476 Q57.2883 705.659 49.9359 705.659 M27.4968 690.923 L27.4968 690.923 Z" fill="#000000" fill-rule="nonzero" fill-opacity="1" /><path clip-path="url(#clip800)" d="M35.1993 635.987 Q31.2526 633.79 29.3747 630.735 Q27.4968 627.679 27.4968 623.542 Q27.4968 617.972 31.4117 614.948 Q35.2948 611.924 42.4881 611.924 L64.0042 611.924 L64.0042 617.812 L42.679 617.812 Q37.5546 617.812 35.072 619.627 Q32.5894 621.441 32.5894 625.165 Q32.5894 629.716 35.6131 632.358 Q38.6368 635 43.8567 635 L64.0042 635 L64.0042 640.888 L42.679 640.888 Q37.5228 640.888 35.072 642.702 Q32.5894 644.517 32.5894 648.304 Q32.5894 652.792 35.6449 655.434 Q38.6686 658.076 43.8567 658.076 L64.0042 658.076 L64.0042 663.964 L28.3562 663.964 L28.3562 658.076 L33.8944 658.076 Q30.616 656.07 29.0564 653.269 Q27.4968 650.468 27.4968 646.617 Q27.4968 642.734 29.4702 640.029 Q31.4436 637.291 35.1993 635.987 Z" fill="#000000" fill-rule="nonzero" fill-opacity="1" /><path clip-path="url(#clip800)" d="M14.5426 565.454 Q21.8632 569.72 29.0246 571.788 Q36.186 573.857 43.5384 573.857 Q50.8908 573.857 58.1159 571.788 Q65.3091 569.688 72.5979 565.454 L72.5979 570.547 Q65.1182 575.321 57.8931 577.708 Q50.668 580.064 43.5384 580.064 Q36.4406 580.064 29.2474 577.708 Q22.0542 575.353 14.5426 570.547 L14.5426 565.454 Z" fill="#000000" fill-rule="nonzero" fill-opacity="1" /><path clip-path="url(#clip800)" d="M58.657 548.426 L77.5631 548.426 L77.5631 554.315 L28.3562 554.315 L28.3562 548.426 L33.7671 548.426 Q30.5842 546.58 29.0564 543.779 Q27.4968 540.947 27.4968 537.032 Q27.4968 530.539 32.6531 526.496 Q37.8093 522.422 46.212 522.422 Q54.6147 522.422 59.771 526.496 Q64.9272 530.539 64.9272 537.032 Q64.9272 540.947 63.3994 543.779 Q61.8398 546.58 58.657 548.426 M46.212 528.502 Q39.7508 528.502 36.0905 531.175 Q32.3984 533.817 32.3984 538.464 Q32.3984 543.111 36.0905 545.784 Q39.7508 548.426 46.212 548.426 Q52.6732 548.426 56.3653 545.784 Q60.0256 543.111 60.0256 538.464 Q60.0256 533.817 56.3653 531.175 Q52.6732 528.502 46.212 528.502 Z" fill="#000000" fill-rule="nonzero" fill-opacity="1" /><path clip-path="url(#clip800)" d="M14.5426 513.638 L14.5426 508.545 Q22.0542 503.771 29.2474 501.415 Q36.4406 499.028 43.5384 499.028 Q50.668 499.028 57.8931 501.415 Q65.1182 503.771 72.5979 508.545 L72.5979 513.638 Q65.3091 509.404 58.1159 507.336 Q50.8908 505.235 43.5384 505.235 Q36.186 505.235 29.0246 507.336 Q21.8632 509.404 14.5426 513.638 Z" fill="#000000" fill-rule="nonzero" fill-opacity="1" /><polyline clip-path="url(#clip802)" style="stroke:#009af9; stroke-linecap:round; stroke-linejoin:round; stroke-width:16; stroke-opacity:1; fill:none" points="1303.32,86.6391 1309.35,86.6513 1315.38,86.6878 1321.4,86.7486 1327.43,86.8337 1333.45,86.9432 1339.47,87.0769 1345.49,87.2349 1351.51,87.4173 1357.53,87.624 1363.55,87.8549 1369.56,88.1101 1375.57,88.3895 1381.58,88.6933 1387.58,89.0212 1393.59,89.3735 1399.58,89.7499 1405.58,90.1505 1411.57,90.5753 1417.56,91.0243 1423.54,91.4975 1429.52,91.9948 1435.49,92.5162 1441.46,93.0617 1447.42,93.6313 1453.38,94.2249 1459.33,94.8426 1465.28,95.4843 1471.22,96.1499 1477.15,96.8396 1483.08,97.5532 1489,98.2907 1494.91,99.052 1500.82,99.8373 1506.72,100.646 1512.61,101.479 1518.49,102.336 1524.37,103.216 1530.24,104.12 1536.09,105.048 1541.94,105.999 1547.78,106.974 1553.61,107.973 1559.44,108.995 1565.25,110.04 1571.05,111.109 1576.84,112.201 1582.62,113.317 1588.4,114.456 1594.16,115.618 1599.91,116.804 1605.64,118.012 1611.37,119.244 1617.09,120.499 1622.79,121.777 1628.48,123.078 1634.16,124.402 1639.83,125.749 1645.48,127.118 1651.12,128.511 1656.75,129.926 1662.37,131.364 1667.97,132.824 1673.55,134.307 1679.13,135.813 1684.69,137.341 1690.23,138.891 1695.76,140.464 1701.28,142.059 1706.78,143.677 1712.26,145.316 1717.73,146.978 1723.19,148.661 1728.62,150.367 1734.05,152.095 1739.45,153.844 1744.84,155.615 1750.21,157.408 1755.57,159.223 1760.91,161.059 1766.23,162.917 1771.54,164.796 1776.82,166.696 1782.09,168.618 1787.34,170.561 1792.57,172.525 1797.79,174.511 1802.98,176.517 1808.16,178.544 1813.32,180.592 1818.46,182.661 1823.57,184.751 1828.67,186.861 1833.75,188.991 1838.81,191.143 1843.85,193.314 1848.87,195.506 1853.87,197.718 1858.84,199.95 1863.8,202.202 1868.74,204.475 1873.65,206.767 1878.54,209.079 1883.41,211.41 1888.26,213.761 1893.09,216.132 1897.89,218.522 1902.68,220.932 1907.43,223.36 1912.17,225.808 1916.89,228.275 1921.58,230.761 1926.24,233.266 1930.89,235.79 1935.51,238.332 1940.1,240.893 1944.68,243.473 1949.22,246.07 1953.75,248.687 1958.25,251.321 1962.72,253.973 1967.17,256.644 1971.59,259.332 1975.99,262.038 1980.37,264.762 1984.72,267.504 1989.04,270.263 1993.34,273.039 1997.61,275.833 2001.85,278.644 2006.07,281.472 2010.26,284.317 2014.43,287.179 2018.56,290.057 2022.67,292.952 2026.76,295.864 2030.82,298.792 2034.85,301.737 2038.85,304.697 2042.82,307.674 2046.77,310.667 2050.69,313.676 2054.58,316.7 2058.44,319.74 2062.27,322.796 2066.07,325.867 2069.85,328.953 2073.6,332.054 2077.31,335.171 2081,338.302 2084.66,341.449 2088.29,344.61 2091.89,347.785 2095.46,350.976 2099,354.18 2102.51,357.399 2105.99,360.631 2109.44,363.878 2112.86,367.139 2116.25,370.413 2119.61,373.701 2122.94,377.003 2126.23,380.317 2129.5,383.646 2132.73,386.987 2135.94,390.341 2139.11,393.708 2142.25,397.088 2145.36,400.48 2148.43,403.885 2151.48,407.302 2154.49,410.732 2157.47,414.173 2160.42,417.627 2163.34,421.092 2166.22,424.569 2169.07,428.058 2171.89,431.558 2174.68,435.069 2177.43,438.592 2180.15,442.126 2182.84,445.67 2185.49,449.226 2188.11,452.792 2190.7,456.368 2193.25,459.955 2195.77,463.552 2198.26,467.159 2200.71,470.776 2203.13,474.403 2205.52,478.04 2207.87,481.686 2210.18,485.342 2212.47,489.007 2214.71,492.681 2216.93,496.364 2219.11,500.056 2221.25,503.757 2223.36,507.466 2225.44,511.184 2227.48,514.91 2229.48,518.644 2231.45,522.386 2233.39,526.136 2235.29,529.894 2237.16,533.659 2238.99,537.432 2240.78,541.213 2242.54,545 2244.27,548.794 2245.96,552.596 2247.61,556.404 2249.23,560.218 2250.81,564.04 2252.35,567.867 2253.86,571.701 2255.34,575.54 2256.78,579.386 2258.18,583.237 2259.55,587.094 2260.88,590.956 2262.17,594.824 2263.43,598.696 2264.65,602.574 2265.84,606.457 2266.99,610.344 2268.1,614.236 2269.18,618.132 2270.22,622.033 2271.22,625.937 2272.19,629.846 2273.12,633.758 2274.01,637.675 2274.87,641.594 2275.69,645.517 2276.48,649.444 2277.22,653.373 2277.94,657.306 2278.61,661.241 2279.25,665.179 2279.85,669.119 2280.41,673.061 2280.94,677.006 2281.43,680.953 2281.88,684.902 2282.3,688.853 2282.68,692.805 2283.02,696.758 2283.32,700.713 2283.59,704.669 2283.82,708.627 2284.02,712.585 2284.17,716.543 2284.29,720.502 2284.38,724.462 2284.42,728.422 2284.43,732.382 2284.4,736.342 2284.34,740.302 2284.24,744.261 2284.1,748.22 2283.92,752.178 2283.71,756.136 2283.46,760.093 2283.17,764.048 2282.85,768.002 2282.49,771.955 2282.09,775.907 2281.66,779.856 2281.19,783.804 2280.68,787.75 2280.13,791.694 2279.55,795.635 2278.93,799.575 2278.28,803.511 2277.58,807.445 2276.86,811.376 2276.09,815.304 2275.29,819.228 2274.45,823.15 2273.57,827.068 2272.66,830.982 2271.71,834.893 2270.72,838.799 2269.7,842.702 2268.64,846.6 2267.55,850.495 2266.42,854.384 2265.25,858.269 2264.05,862.149 2262.81,866.024 2261.53,869.895 2260.22,873.76 2258.87,877.619 2257.48,881.473 2256.06,885.322 2254.61,889.164 2253.11,893.001 2251.59,896.831 2250.02,900.656 2248.42,904.474 2246.79,908.285 2245.12,912.09 2243.41,915.888 2241.67,919.678 2239.89,923.462 2238.08,927.239 2236.23,931.008 2234.35,934.77 2232.43,938.524 2230.47,942.27 2228.49,946.008 2226.46,949.738 2224.4,953.46 2222.31,957.174 2220.18,960.879 2218.02,964.575 2215.82,968.263 2213.59,971.941 2211.33,975.611 2209.03,979.271 2206.7,982.922 2204.33,986.563 2201.93,990.195 2199.49,993.817 2197.02,997.43 2194.52,1001.03 2191.98,1004.62 2189.41,1008.21 2186.81,1011.78 2184.17,1015.34 2181.5,1018.89 2178.8,1022.43 2176.06,1025.95 2173.29,1029.47 2170.49,1032.98 2167.65,1036.47 2164.78,1039.95 2161.88,1043.43 2158.95,1046.89 2155.99,1050.33 2152.99,1053.77 2149.96,1057.19 2146.9,1060.6 2143.81,1064 2140.68,1067.39 2137.53,1070.76 2134.34,1074.12 2131.12,1077.47 2127.87,1080.8 2124.59,1084.13 2121.28,1087.43 2117.93,1090.73 2114.56,1094.01 2111.16,1097.28 2107.72,1100.53 2104.26,1103.77 2100.76,1107 2097.24,1110.21 2093.68,1113.41 2090.1,1116.59 2086.48,1119.76 2082.84,1122.91 2079.16,1126.05 2075.46,1129.17 2071.73,1132.28 2067.97,1135.38 2064.18,1138.45 2060.36,1141.52 2056.51,1144.57 2052.63,1147.6 2048.73,1150.61 2044.8,1153.62 2040.84,1156.6 2036.85,1159.57 2032.83,1162.52 2028.79,1165.46 2024.72,1168.38 2020.62,1171.28 2016.5,1174.17 2012.35,1177.04 2008.17,1179.89 2003.96,1182.73 1999.73,1185.55 1995.47,1188.35 1991.19,1191.13 1986.88,1193.9 1982.54,1196.65 1978.18,1199.39 1973.8,1202.1 1969.39,1204.8 1964.95,1207.48 1960.49,1210.14 1956,1212.78 1951.49,1215.41 1946.95,1218.01 1942.39,1220.6 1937.81,1223.17 1933.2,1225.73 1928.57,1228.26 1923.91,1230.77 1919.23,1233.27 1914.53,1235.74 1909.81,1238.2 1905.06,1240.64 1900.29,1243.06 1895.49,1245.46 1890.68,1247.84 1885.84,1250.2 1880.98,1252.54 1876.1,1254.86 1871.2,1257.17 1866.27,1259.45 1861.33,1261.71 1856.36,1263.95 1851.37,1266.17 1846.36,1268.38 1841.33,1270.56 1836.28,1272.72 1831.22,1274.86 1826.13,1276.98 1821.02,1279.08 1815.89,1281.16 1810.74,1283.22 1805.57,1285.26 1800.39,1287.27 1795.18,1289.27 1789.96,1291.24 1784.72,1293.2 1779.46,1295.13 1774.18,1297.04 1768.89,1298.93 1763.57,1300.8 1758.24,1302.65 1752.89,1304.47 1747.53,1306.27 1742.15,1308.06 1736.75,1309.82 1731.34,1311.56 1725.91,1313.27 1720.46,1314.97 1715,1316.64 1709.52,1318.29 1704.03,1319.92 1698.52,1321.52 1693,1323.11 1687.46,1324.67 1681.91,1326.21 1676.34,1327.73 1670.76,1329.22 1665.17,1330.69 1659.56,1332.14 1653.94,1333.57 1648.3,1334.97 1642.66,1336.35 1637,1337.71 1631.32,1339.05 1625.64,1340.36 1619.94,1341.65 1614.23,1342.92 1608.51,1344.16 1602.78,1345.38 1597.03,1346.58 1591.28,1347.75 1585.51,1348.9 1579.73,1350.03 1573.95,1351.13 1568.15,1352.21 1562.34,1353.27 1556.53,1354.3 1550.7,1355.31 1544.86,1356.3 1539.02,1357.26 1533.17,1358.2 1527.3,1359.12 1521.43,1360.01 1515.55,1360.88 1509.67,1361.72 1503.77,1362.54 1497.87,1363.34 1491.96,1364.12 1486.04,1364.86 1480.12,1365.59 1474.19,1366.29 1468.25,1366.97 1462.31,1367.62 1456.36,1368.25 1450.4,1368.86 1444.44,1369.44 1438.48,1370 1432.51,1370.53 1426.53,1371.04 1420.55,1371.53 1414.56,1371.99 1408.57,1372.42 1402.58,1372.84 1396.59,1373.23 1390.58,1373.59 1384.58,1373.93 1378.57,1374.25 1372.56,1374.54 1366.55,1374.8 1360.54,1375.05 1354.52,1375.27 1348.5,1375.46 1342.48,1375.63 1336.46,1375.78 1330.44,1375.9 1324.41,1376 1318.39,1376.07 1312.36,1376.12 1306.34,1376.14 1300.31,1376.14 1294.29,1376.12 1288.26,1376.07 1282.24,1376 1276.21,1375.9 1270.19,1375.78 1264.17,1375.63 1258.15,1375.46 1252.13,1375.27 1246.11,1375.05 1240.1,1374.8 1234.08,1374.54 1228.07,1374.25 1222.07,1373.93 1216.06,1373.59 1210.06,1373.23 1204.07,1372.84 1198.07,1372.42 1192.09,1371.99 1186.1,1371.53 1180.12,1371.04 1174.14,1370.53 1168.17,1370 1162.21,1369.44 1156.25,1368.86 1150.29,1368.25 1144.34,1367.62 1138.4,1366.97 1132.46,1366.29 1126.53,1365.59 1120.61,1364.86 1114.69,1364.12 1108.78,1363.34 1102.88,1362.54 1096.98,1361.72 1091.1,1360.88 1085.22,1360.01 1079.35,1359.12 1073.48,1358.2 1067.63,1357.26 1061.78,1356.3 1055.95,1355.31 1050.12,1354.3 1044.31,1353.27 1038.5,1352.21 1032.7,1351.13 1026.91,1350.03 1021.14,1348.9 1015.37,1347.75 1009.62,1346.58 1003.87,1345.38 998.14,1344.16 992.419,1342.92 986.71,1341.65 981.012,1340.36 975.327,1339.05 969.654,1337.71 963.994,1336.35 958.346,1334.97 952.711,1333.57 947.09,1332.14 941.482,1330.69 935.888,1329.22 930.308,1327.73 924.741,1326.21 919.189,1324.67 913.652,1323.11 908.129,1321.52 902.621,1319.92 897.128,1318.29 891.651,1316.64 886.189,1314.97 880.742,1313.27 875.312,1311.56 869.898,1309.82 864.5,1308.06 859.119,1306.27 853.755,1304.47 848.407,1302.65 843.077,1300.8 837.764,1298.93 832.468,1297.04 827.19,1295.13 821.931,1293.2 816.689,1291.24 811.466,1289.27 806.261,1287.27 801.076,1285.26 795.909,1283.22 790.761,1281.16 785.632,1279.08 780.524,1276.98 775.434,1274.86 770.365,1272.72 765.316,1270.56 760.287,1268.38 755.278,1266.17 750.291,1263.95 745.324,1261.71 740.378,1259.45 735.453,1257.17 730.55,1254.86 725.669,1252.54 720.809,1250.2 715.971,1247.84 711.156,1245.46 706.362,1243.06 701.591,1240.64 696.843,1238.2 692.118,1235.74 687.416,1233.27 682.737,1230.77 678.082,1228.26 673.45,1225.73 668.842,1223.17 664.257,1220.6 659.697,1218.01 655.161,1215.41 650.65,1212.78 646.163,1210.14 641.701,1207.48 637.264,1204.8 632.852,1202.1 628.466,1199.39 624.105,1196.65 619.769,1193.9 615.459,1191.13 611.176,1188.35 606.918,1185.55 602.686,1182.73 598.481,1179.89 594.303,1177.04 590.151,1174.17 586.027,1171.28 581.929,1168.38 577.859,1165.46 573.816,1162.52 569.8,1159.57 565.812,1156.6 561.852,1153.62 557.92,1150.61 554.016,1147.6 550.14,1144.57 546.293,1141.52 542.474,1138.45 538.684,1135.38 534.923,1132.28 531.19,1129.17 527.488,1126.05 523.814,1122.91 520.169,1119.76 516.554,1116.59 512.969,1113.41 509.414,1110.21 505.888,1107 502.393,1103.77 498.928,1100.53 495.493,1097.28 492.089,1094.01 488.715,1090.73 485.372,1087.43 482.06,1084.13 478.779,1080.8 475.529,1077.47 472.31,1074.12 469.122,1070.76 465.966,1067.39 462.842,1064 459.749,1060.6 456.688,1057.19 453.659,1053.77 450.662,1050.33 447.698,1046.89 444.765,1043.43 441.865,1039.95 438.998,1036.47 436.163,1032.98 433.36,1029.47 430.591,1025.95 427.854,1022.43 425.151,1018.89 422.481,1015.34 419.843,1011.78 417.24,1008.21 414.669,1004.62 412.132,1001.03 409.629,997.429 407.16,993.817 404.724,990.195 402.322,986.563 399.954,982.922 397.621,979.271 395.321,975.611 393.056,971.941 390.825,968.262 388.628,964.575 386.466,960.879 384.338,957.173 382.246,953.46 380.187,949.738 378.164,946.008 376.176,942.27 374.223,938.524 372.304,934.77 370.421,931.008 368.573,927.239 366.76,923.462 364.983,919.678 363.241,915.887 361.534,912.09 359.863,908.285 358.228,904.474 356.628,900.655 355.064,896.831 353.536,893.001 352.043,889.164 350.586,885.321 349.166,881.473 347.781,877.619 346.433,873.759 345.12,869.895 343.844,866.024 342.604,862.149 341.4,858.269 340.232,854.384 339.101,850.494 338.006,846.6 336.947,842.702 335.925,838.799 334.939,834.893 333.99,830.982 333.078,827.068 332.202,823.15 331.363,819.228 330.56,815.303 329.794,811.376 329.065,807.445 328.373,803.511 327.717,799.574 327.098,795.635 326.516,791.694 325.971,787.75 325.463,783.804 324.991,779.856 324.557,775.907 324.159,771.955 323.799,768.002 323.475,764.048 323.188,760.093 322.938,756.136 322.726,752.178 322.55,748.22 322.411,744.261 322.309,740.302 322.245,736.342 322.217,732.382 322.226,728.422 322.272,724.462 322.356,720.502 322.476,716.543 322.633,712.584 322.828,708.627 323.059,704.669 323.327,700.713 323.632,696.758 323.974,692.805 324.354,688.853 324.77,684.902 325.222,680.953 325.712,677.006 326.239,673.061 326.803,669.119 327.403,665.179 328.04,661.241 328.714,657.306 329.425,653.373 330.173,649.443 330.957,645.517 331.778,641.594 332.635,637.675 333.53,633.758 334.46,629.846 335.428,625.937 336.432,622.033 337.472,618.132 338.549,614.236 339.662,610.344 340.811,606.457 341.997,602.574 343.219,598.696 344.477,594.824 345.772,590.956 347.102,587.094 348.469,583.237 349.872,579.386 351.31,575.54 352.785,571.701 354.295,567.867 355.841,564.04 357.423,560.218 359.041,556.404 360.694,552.596 362.383,548.794 364.107,545 365.867,541.212 367.662,537.432 369.493,533.659 371.358,529.894 373.259,526.136 375.195,522.386 377.166,518.644 379.172,514.91 381.212,511.184 383.288,507.466 385.398,503.757 387.543,500.056 389.722,496.364 391.936,492.681 394.184,489.007 396.467,485.342 398.783,481.686 401.134,478.04 403.519,474.403 405.938,470.776 408.39,467.159 410.877,463.552 413.397,459.955 415.95,456.368 418.538,452.791 421.158,449.226 423.812,445.67 426.499,442.126 429.219,438.592 431.972,435.07 434.758,431.558 437.576,428.058 440.427,424.569 443.311,421.092 446.228,417.627 449.176,414.173 452.157,410.732 455.17,407.302 458.215,403.885 461.292,400.48 464.4,397.088 467.541,393.708 470.712,390.341 473.915,386.987 477.15,383.645 480.416,380.317 483.712,377.002 487.04,373.701 490.398,370.413 493.787,367.139 497.207,363.878 500.657,360.631 504.137,357.398 507.647,354.18 511.188,350.975 514.758,347.785 518.358,344.61 521.988,341.449 525.647,338.302 529.336,335.171 533.053,332.054 536.8,328.953 540.576,325.867 544.38,322.796 548.213,319.74 552.075,316.7 555.965,313.675 559.883,310.667 563.829,307.674 567.803,304.697 571.805,301.737 575.834,298.792 579.891,295.864 583.975,292.952 588.086,290.057 592.224,287.179 596.389,284.317 600.581,281.472 604.799,278.644 609.044,275.833 613.314,273.039 617.611,270.263 621.934,267.504 626.282,264.762 630.656,262.038 635.055,259.332 639.48,256.644 643.929,253.973 648.403,251.321 652.903,248.686 657.427,246.07 661.974,243.472 666.547,240.893 671.143,238.332 675.763,235.79 680.407,233.266 685.074,230.761 689.764,228.275 694.478,225.808 699.215,223.36 703.974,220.932 708.756,218.522 713.561,216.132 718.388,213.761 723.236,211.41 728.107,209.078 732.999,206.767 737.913,204.475 742.848,202.202 747.805,199.95 752.782,197.718 757.78,195.506 762.799,193.314 767.838,191.142 772.898,188.991 777.977,186.861 783.076,184.75 788.194,182.661 793.333,180.592 798.49,178.544 803.666,176.517 808.862,174.511 814.076,172.525 819.308,170.561 824.559,168.618 829.828,166.696 835.114,164.796 840.418,162.917 845.74,161.059 851.079,159.223 856.435,157.408 861.808,155.615 867.197,153.844 872.603,152.095 878.025,150.367 883.464,148.661 888.918,146.978 894.388,145.316 899.873,143.676 905.373,142.059 910.889,140.464 916.419,138.891 921.964,137.341 927.523,135.813 933.096,134.307 938.683,132.824 944.285,131.364 949.899,129.926 955.527,128.511 961.169,127.118 966.822,125.749 972.489,124.402 978.168,123.078 983.86,121.777 989.563,120.499 995.279,119.244 1001.01,118.012 1006.74,116.804 1012.49,115.618 1018.25,114.456 1024.03,113.317 1029.81,112.201 1035.6,111.109 1041.4,110.04 1047.21,108.995 1053.03,107.973 1058.87,106.974 1064.71,105.999 1070.56,105.048 1076.41,104.12 1082.28,103.216 1088.16,102.336 1094.04,101.479 1099.93,100.646 1105.83,99.8373 1111.74,99.052 1117.65,98.2907 1123.57,97.5532 1129.5,96.8396 1135.43,96.1499 1141.37,95.4843 1147.32,94.8425 1153.27,94.2249 1159.23,93.6312 1165.19,93.0616 1171.16,92.5161 1177.13,91.9947 1183.11,91.4975 1189.09,91.0243 1195.08,90.5753 1201.07,90.1505 1207.07,89.7499 1213.06,89.3734 1219.07,89.0212 1225.07,88.6933 1231.08,88.3896 1237.09,88.1101 1243.1,87.8549 1249.12,87.6239 1255.14,87.4173 1261.16,87.2349 1267.18,87.0769 1273.2,86.9431 1279.22,86.8337 1285.25,86.7486 1291.27,86.6878 1297.3,86.6513 1303.32,86.6391 "/>
<polyline clip-path="url(#clip802)" style="stroke:#e26f46; stroke-linecap:round; stroke-linejoin:round; stroke-width:16; stroke-opacity:1; fill:none" points="1303.32,86.6391 1309.33,86.8723 1315.33,87.1055 1321.34,87.3386 1327.34,87.5718 1333.34,87.8049 1339.35,88.0381 1345.35,88.2713 1351.36,88.5044 1357.36,88.7376 1363.36,88.9708 1369.37,89.2061 1375.33,89.6092 1381.24,90.1925 1387.13,90.8445 1393.03,91.4733 1398.96,92.0069 1404.92,92.3929 1410.94,92.5989 1417.01,92.6122 1423.13,92.44 1429.29,92.109 1435.49,91.6661 1441.71,91.1776 1447.91,90.73 1454.09,90.4293 1460.19,90.4012 1466.19,90.7917 1472.08,91.6355 1477.95,92.5258 1483.83,93.4161 1489.7,94.3064 1495.58,95.1966 1501.45,96.0869 1507.33,96.9772 1513.2,97.862 1519.1,98.7076 1525.02,99.5177 1530.95,100.303 1536.88,101.074 1542.82,101.84 1548.76,102.61 1554.69,103.391 1560.61,104.191 1566.52,105.017 1572.42,105.875 1578.29,106.769 1584.14,107.705 1589.97,108.686 1595.78,109.715 1601.56,110.795 1607.31,111.928 1613.03,113.115 1618.73,114.356 1624.4,115.65 1630.04,116.998 1635.66,118.397 1641.25,119.844 1646.81,121.337 1652.36,122.872 1657.89,124.444 1663.4,126.049 1668.89,127.679 1674.38,129.33 1679.86,130.993 1685.34,132.661 1690.82,134.324 1696.3,135.975 1701.8,137.602 1707.28,139.249 1712.73,140.942 1718.15,142.672 1723.56,144.431 1728.94,146.214 1734.31,148.014 1739.67,149.826 1745.03,151.646 1750.39,153.47 1755.74,155.294 1761.09,157.116 1766.45,158.935 1771.81,160.75 1777.18,162.56 1782.54,164.366 1787.91,166.17 1793.28,167.972 1798.65,169.776 1804.01,171.591 1809.35,173.43 1814.67,175.295 1819.96,177.19 1825.23,179.115 1830.46,181.072 1835.67,183.061 1840.84,185.083 1845.98,187.138 1851.09,189.226 1856.16,191.345 1861.21,193.494 1866.23,195.672 1871.22,197.876 1876.18,200.104 1881.13,202.353 1886.05,204.62 1890.96,206.901 1895.86,209.191 1900.76,211.486 1905.65,213.782 1910.55,216.072 1915.44,218.375 1920.26,220.728 1925.04,223.126 1929.76,225.564 1934.44,228.037 1939.09,230.541 1943.7,233.072 1948.28,235.625 1952.83,238.197 1957.37,240.784 1961.89,243.384 1966.39,245.993 1970.89,248.61 1975.37,251.233 1979.85,253.859 1984.33,256.487 1988.8,259.117 1993.27,261.748 1997.75,264.378 2002.18,267.034 2006.53,269.75 2010.79,272.524 2014.97,275.352 2019.07,278.229 2023.09,281.154 2027.05,284.122 2030.93,287.13 2034.76,290.176 2038.52,293.256 2042.23,296.368 2045.89,299.508 2049.5,302.675 2053.06,305.864 2056.58,309.075 2060.07,312.304 2063.52,315.549 2066.95,318.808 2070.35,322.079 2073.73,325.359 2077.09,328.647 2080.44,331.941 2083.78,335.239 2087.11,338.54 2090.44,341.841 2093.77,345.142 2097.11,348.441 2100.45,351.737 2103.8,355.032 2107.15,358.326 2110.5,361.621 2113.85,364.915 2117.2,368.21 2120.54,371.507 2123.88,374.805 2127.22,378.104 2130.55,381.405 2133.88,384.708 2137.21,388.013 2140.53,391.32 2143.84,394.628 2147.16,397.937 2150.47,401.248 2153.78,404.559 2157.09,407.871 2160.39,411.183 2163.69,414.499 2166.8,417.877 2169.71,421.321 2172.46,424.821 2175.08,428.364 2177.61,431.942 2180.07,435.545 2182.48,439.165 2184.87,442.796 2187.24,446.433 2189.63,450.07 2192.02,453.704 2194.44,457.332 2196.88,460.954 2199.34,464.569 2201.83,468.177 2204.32,471.78 2206.82,475.381 2209.3,478.985 2211.75,482.595 2214.15,486.218 2216.48,489.86 2218.69,493.531 2220.77,497.239 2222.69,500.986 2224.48,504.765 2226.14,508.572 2227.72,512.4 2229.23,516.245 2230.68,520.102 2232.1,523.969 2233.49,527.842 2234.86,531.718 2236.23,535.595 2237.6,539.472 2238.97,543.347 2240.34,547.221 2241.73,551.094 2243.11,554.966 2244.5,558.837 2245.87,562.711 2247.2,566.589 2248.51,570.469 2249.79,574.351 2251.08,578.233 2252.37,582.115 2253.67,585.995 2255,589.874 2256.35,593.75 2257.74,597.623 2259.15,601.494 2260.6,605.361 2262.07,609.227 2263.58,613.089 2265.1,616.95 2266.64,620.81 2268.19,624.67 2269.73,628.53 2271.26,632.392 2272.75,636.256 2274.2,640.125 2275.59,643.999 2276.89,647.881 2278.16,651.769 2279.52,655.652 2280.93,659.534 2282.36,663.416 2283.75,667.298 2285.09,671.182 2286.36,675.07 2287.51,678.962 2288.56,682.858 2289.47,686.759 2290.26,690.665 2290.91,694.576 2291.44,698.492 2291.85,702.413 2292.15,706.338 2292.38,710.266 2292.56,714.195 2292.71,718.126 2292.87,722.057 2293.07,725.986 2293.26,729.917 2293.39,733.85 2293.45,737.785 2293.43,741.72 2293.32,745.655 2293.12,749.587 2292.82,753.516 2292.41,757.443 2291.89,761.366 2291.27,765.284 2290.55,769.199 2289.72,773.109 2288.81,777.015 2287.81,780.917 2286.73,784.815 2285.58,788.711 2284.39,792.603 2283.16,796.494 2281.91,800.384 2280.66,804.274 2279.44,808.165 2278.23,812.057 2277.03,815.95 2275.82,819.842 2274.62,823.734 2273.42,827.627 2272.21,831.519 2271.01,835.411 2269.8,839.304 2268.6,843.196 2267.39,847.088 2266.19,850.981 2264.99,854.873 2263.78,858.765 2262.58,862.658 2261.37,866.55 2260.17,870.442 2258.96,874.335 2257.76,878.227 2256.56,882.119 2255.35,886.012 2254.15,889.904 2252.94,893.797 2251.74,897.689 2250.52,901.582 2249.28,905.479 2248.01,909.376 2246.71,913.275 2245.37,917.172 2244,921.068 2242.6,924.961 2241.16,928.851 2239.69,932.736 2238.17,936.615 2236.62,940.487 2235.02,944.353 2233.39,948.21 2231.71,952.058 2229.99,955.896 2228.23,959.724 2226.42,963.54 2224.56,967.345 2222.66,971.137 2220.72,974.915 2218.72,978.68 2216.68,982.43 2214.59,986.166 2212.45,989.885 2210.26,993.589 2208.03,997.276 2205.74,1000.95 2203.4,1004.6 2201.01,1008.23 2198.58,1011.85 2196.09,1015.45 2193.55,1019.03 2190.96,1022.59 2188.32,1026.13 2185.63,1029.66 2182.9,1033.16 2180.11,1036.65 2177.27,1040.11 2174.38,1043.55 2171.44,1046.98 2168.46,1050.38 2165.42,1053.77 2162.34,1057.13 2159.21,1060.48 2156.04,1063.8 2152.81,1067.11 2149.55,1070.4 2146.24,1073.66 2142.88,1076.91 2139.48,1080.14 2136.04,1083.35 2132.56,1086.55 2129.04,1089.72 2125.48,1092.88 2121.88,1096.02 2118.25,1099.14 2114.58,1102.25 2110.87,1105.34 2107.13,1108.42 2103.36,1111.48 2099.56,1114.53 2095.73,1117.57 2091.87,1120.59 2087.98,1123.6 2084.07,1126.59 2080.14,1129.58 2076.19,1132.56 2072.21,1135.53 2068.22,1138.49 2064.21,1141.44 2060.19,1144.38 2056.15,1147.32 2052.11,1150.25 2048.05,1153.18 2043.99,1156.11 2039.93,1159.03 2035.86,1161.95 2031.79,1164.88 2027.72,1167.8 2023.66,1170.73 2019.61,1173.66 2015.56,1176.59 2011.53,1179.53 2007.51,1182.48 2003.5,1185.43 1999.51,1188.39 1995.48,1191.33 1991.41,1194.23 1987.29,1197.11 1983.12,1199.95 1978.91,1202.77 1974.66,1205.55 1970.36,1208.29 1966.02,1211.01 1961.63,1213.7 1957.2,1216.35 1952.73,1218.97 1948.22,1221.56 1943.66,1224.12 1939.07,1226.65 1934.44,1229.15 1929.77,1231.62 1925.07,1234.07 1920.33,1236.48 1915.55,1238.87 1910.75,1241.23 1905.91,1243.56 1901.04,1245.87 1896.14,1248.16 1891.22,1250.42 1886.27,1252.67 1881.3,1254.89 1876.31,1257.1 1871.3,1259.29 1866.27,1261.47 1861.22,1263.63 1856.17,1265.78 1851.1,1267.92 1846.02,1270.06 1840.93,1272.19 1835.84,1274.31 1830.75,1276.44 1825.66,1278.56 1820.58,1280.69 1815.49,1282.82 1810.42,1284.96 1805.35,1287.1 1800.26,1289.23 1795.17,1291.35 1790.05,1293.46 1784.92,1295.54 1779.76,1297.59 1774.58,1299.61 1769.37,1301.59 1764.14,1303.54 1758.87,1305.44 1753.57,1307.3 1748.23,1309.12 1742.87,1310.89 1737.46,1312.61 1732.03,1314.29 1726.56,1315.92 1721.06,1317.51 1715.53,1319.05 1709.97,1320.55 1704.38,1322.01 1698.76,1323.44 1693.12,1324.83 1687.46,1326.2 1681.78,1327.54 1676.09,1328.85 1670.39,1330.16 1664.68,1331.46 1658.97,1332.75 1653.26,1334.05 1647.57,1335.36 1641.88,1336.68 1636.17,1337.93 1630.45,1339.14 1624.72,1340.3 1618.99,1341.44 1613.24,1342.56 1607.5,1343.68 1601.75,1344.8 1596,1345.93 1590.25,1347.08 1584.51,1348.25 1578.77,1349.45 1573.04,1350.68 1567.31,1351.95 1561.59,1353.24 1555.87,1354.57 1550.16,1355.93 1544.45,1357.31 1538.74,1358.72 1533.04,1360.15 1527.33,1361.59 1521.63,1363.04 1515.92,1364.49 1510.2,1365.92 1504.48,1367.33 1498.74,1368.7 1492.99,1370.02 1487.22,1371.29 1481.44,1372.47 1475.62,1373.55 1469.77,1374.53 1463.89,1375.38 1458,1376.22 1452.11,1377.09 1446.21,1377.95 1440.3,1378.8 1434.39,1379.62 1428.47,1380.4 1422.55,1381.13 1416.62,1381.79 1410.68,1382.38 1404.73,1382.9 1398.78,1383.33 1392.82,1383.68 1386.85,1383.95 1380.88,1384.12 1374.9,1384.22 1368.92,1384.24 1362.93,1384.18 1356.93,1384.06 1350.93,1383.88 1344.93,1383.65 1338.93,1383.39 1332.92,1383.11 1326.92,1382.82 1320.91,1382.54 1314.91,1382.29 1308.91,1382.06 1302.9,1381.81 1296.9,1381.57 1290.9,1381.33 1284.9,1381.09 1278.9,1380.85 1272.89,1380.62 1266.89,1380.39 1260.89,1380.17 1254.88,1379.95 1248.88,1379.74 1242.87,1379.52 1236.87,1379.31 1230.86,1379.1 1224.86,1378.89 1218.85,1378.67 1212.85,1378.44 1206.85,1378.19 1200.85,1377.89 1194.87,1377.53 1188.89,1377.13 1182.91,1376.67 1176.95,1376.17 1170.99,1375.62 1165.05,1375.02 1159.11,1374.39 1153.18,1373.72 1147.25,1373.01 1141.34,1372.27 1135.43,1371.5 1129.53,1370.7 1123.64,1369.88 1117.76,1369.03 1111.87,1368.17 1106,1367.3 1100.12,1366.41 1094.25,1365.51 1088.38,1364.62 1082.51,1363.72 1076.64,1362.82 1070.76,1361.96 1064.84,1361.14 1058.91,1360.36 1052.98,1359.59 1047.04,1358.83 1041.11,1358.04 1035.2,1357.23 1029.31,1356.37 1023.44,1355.47 1017.6,1354.51 1011.8,1353.48 1006.03,1352.38 1000.29,1351.22 994.599,1349.98 988.941,1348.66 983.318,1347.28 977.729,1345.83 972.172,1344.33 966.641,1342.76 961.133,1341.16 955.642,1339.52 950.162,1337.86 944.686,1336.19 939.204,1334.54 933.71,1332.9 928.198,1331.3 922.676,1329.71 917.148,1328.13 911.619,1326.55 906.092,1324.97 900.57,1323.38 895.056,1321.78 889.554,1320.17 884.064,1318.53 878.588,1316.88 873.128,1315.2 867.683,1313.51 862.254,1311.79 856.841,1310.05 851.442,1308.29 846.056,1306.51 840.683,1304.72 835.318,1302.91 829.959,1301.1 824.604,1299.28 819.248,1297.46 813.888,1295.64 808.529,1293.83 803.19,1291.99 797.872,1290.13 792.579,1288.23 787.312,1286.31 782.074,1284.36 776.866,1282.38 771.687,1280.36 766.54,1278.32 761.424,1276.24 756.339,1274.13 751.283,1271.99 746.256,1269.83 741.256,1267.64 736.28,1265.42 731.327,1263.18 726.393,1260.93 721.476,1258.65 716.571,1256.37 711.674,1254.08 706.781,1251.78 701.886,1249.49 696.985,1247.2 692.086,1244.91 687.208,1242.59 682.356,1240.25 677.537,1237.88 672.755,1235.48 668.015,1233.05 663.32,1230.58 658.673,1228.08 654.075,1225.54 649.529,1222.97 645.035,1220.36 640.593,1217.71 636.201,1215.03 631.859,1212.31 627.564,1209.56 623.312,1206.79 619.101,1203.99 614.925,1201.16 610.779,1198.31 606.657,1195.45 602.552,1192.58 598.458,1189.7 594.365,1186.82 590.265,1183.94 586.152,1181.08 582.057,1178.2 577.995,1175.29 573.97,1172.36 569.983,1169.41 566.039,1166.44 562.14,1163.43 558.286,1160.41 554.48,1157.35 550.721,1154.27 547.01,1151.16 543.347,1148.03 539.73,1144.88 536.158,1141.7 532.629,1138.49 529.14,1135.27 525.689,1132.03 522.271,1128.77 518.883,1125.5 515.52,1122.21 512.177,1118.92 508.847,1115.62 505.525,1112.31 502.205,1109 498.878,1105.7 495.532,1102.41 492.128,1099.13 488.676,1095.87 485.195,1092.62 481.702,1089.38 478.215,1086.13 474.748,1082.87 471.314,1079.61 467.925,1076.32 464.591,1073.02 461.321,1069.7 458.122,1066.35 454.999,1062.98 451.956,1059.57 448.995,1056.14 446.117,1052.68 443.322,1049.19 440.606,1045.68 437.966,1042.13 435.397,1038.57 432.891,1034.98 430.441,1031.37 428.034,1027.75 425.66,1024.11 423.306,1020.47 420.957,1016.83 418.596,1013.19 416.205,1009.56 413.747,1005.95 411.213,1002.36 408.63,998.778 406.021,995.204 403.411,991.632 400.818,988.054 398.262,984.468 395.758,980.869 393.32,977.254 390.96,973.621 388.686,969.966 386.506,966.288 384.425,962.586 382.445,958.86 380.568,955.109 378.791,951.333 377.11,947.534 375.519,943.713 374.011,939.872 372.573,936.013 371.195,932.14 369.86,928.257 368.552,924.367 367.252,920.475 365.937,916.587 364.584,912.708 363.23,908.833 361.909,904.955 360.611,901.075 359.326,897.193 358.044,893.312 356.758,889.431 355.461,885.55 354.146,881.672 352.811,877.795 351.451,873.92 350.064,870.047 348.649,866.178 347.207,862.31 345.738,858.445 344.244,854.582 342.73,850.72 341.2,846.86 339.659,843.001 338.114,839.142 336.573,835.283 335.047,831.422 333.543,827.559 332.075,823.693 330.655,819.822 329.295,815.946 328.012,812.062 326.784,808.172 325.574,804.278 324.398,800.379 323.269,796.476 322.201,792.569 321.205,788.66 320.29,784.747 319.465,780.832 318.736,776.915 318.106,772.996 317.581,769.075 317.161,765.153 316.847,761.229 316.636,757.305 316.526,753.379 316.512,749.453 316.588,745.526 316.745,741.599 316.974,737.671 317.265,733.744 317.604,729.816 317.977,725.888 318.368,721.96 318.76,718.032 319.133,714.104 319.484,710.177 319.95,706.255 320.558,702.338 321.29,698.427 322.131,694.52 323.067,690.617 324.085,686.718 325.172,682.821 326.316,678.926 327.506,675.034 328.732,671.143 329.986,667.253 331.259,663.364 332.544,659.475 333.834,655.587 335.125,651.699 336.41,647.81 337.688,643.921 338.954,640.032 340.207,636.142 341.445,632.252 342.67,628.361 343.88,624.469 345.079,620.577 346.268,616.685 347.45,612.792 348.63,608.899 349.814,605.007 351.006,601.115 352.193,597.218 353.306,593.306 354.359,589.381 355.371,585.446 356.358,581.506 357.338,577.564 358.324,573.624 359.333,569.689 360.374,565.761 361.462,561.843 362.604,557.937 363.811,554.046 365.09,550.17 366.447,546.312 367.888,542.472 369.416,538.652 371.035,534.851 372.745,531.071 374.548,527.311 376.441,523.571 378.424,519.851 380.492,516.15 382.64,512.466 384.864,508.799 387.155,505.147 389.506,501.508 391.906,497.88 394.345,494.261 396.81,490.648 399.289,487.037 401.766,483.426 404.227,479.811 406.654,476.189 409.024,472.552 411.331,468.892 413.593,465.218 415.827,461.533 418.051,457.845 420.279,454.159 422.525,450.478 424.801,446.809 427.118,443.153 429.485,439.514 431.911,435.896 434.402,432.301 436.964,428.73 439.6,425.185 442.313,421.666 445.105,418.175 447.975,414.711 450.922,411.273 453.943,407.861 457.034,404.474 460.188,401.108 463.399,397.762 466.66,394.433 469.958,391.117 473.285,387.811 476.627,384.511 479.971,381.21 483.3,377.905 486.599,374.589 489.903,371.279 493.254,367.99 496.652,364.724 500.094,361.479 503.579,358.255 507.107,355.051 510.674,351.868 514.28,348.704 517.923,345.558 521.602,342.43 525.314,339.32 529.058,336.226 532.832,333.148 536.635,330.084 540.465,327.035 544.319,323.999 548.196,320.975 552.094,317.963 556.012,314.961 559.946,311.968 563.895,308.983 567.858,306.006 571.831,303.035 575.813,300.068 579.801,297.106 583.794,294.146 587.789,291.187 591.784,288.228 595.777,285.268 599.765,282.305 603.753,279.34 607.75,276.377 611.76,273.42 615.785,270.471 619.831,267.533 623.9,264.611 627.995,261.707 632.119,258.823 636.274,255.962 640.464,253.125 644.69,250.315 648.954,247.534 653.258,244.783 657.603,242.063 661.99,239.376 666.42,236.722 670.894,234.103 675.413,231.518 679.975,228.968 684.582,226.453 689.233,223.973 693.927,221.528 698.664,219.116 703.442,216.738 708.261,214.393 713.118,212.078 718.012,209.793 722.942,207.537 727.904,205.307 732.896,203.101 737.915,200.918 742.959,198.754 748.024,196.608 753.107,194.476 758.203,192.356 763.31,190.244 768.422,188.136 773.536,186.03 778.646,183.92 783.748,181.804 788.836,179.676 793.911,177.536 798.989,175.397 804.075,173.265 809.173,171.145 814.287,169.041 819.417,166.958 824.568,164.9 829.742,162.87 834.939,160.872 840.163,158.907 845.414,156.979 850.694,155.089 856.004,153.239 861.344,151.429 866.715,149.662 872.116,147.937 877.549,146.255 883.012,144.615 888.505,143.016 894.028,141.457 899.578,139.938 905.154,138.455 910.756,137.008 916.38,135.592 922.026,134.206 927.69,132.846 933.37,131.508 939.062,130.188 944.764,128.882 950.472,127.585 956.184,126.291 961.893,124.995 967.597,123.691 973.29,122.373 978.985,121.059 984.696,119.775 990.424,118.524 996.168,117.303 1001.93,116.114 1007.7,114.956 1013.48,113.83 1019.28,112.735 1025.09,111.672 1030.92,110.638 1036.75,109.635 1042.59,108.662 1048.45,107.718 1054.31,106.803 1060.18,105.915 1066.06,105.055 1071.95,104.22 1077.84,103.411 1083.74,102.626 1089.65,101.864 1095.56,101.124 1101.47,100.404 1107.39,99.7027 1113.31,99.0195 1119.24,98.3523 1125.17,97.6996 1131.1,97.0597 1137.04,96.4307 1142.97,95.8108 1148.91,95.1981 1154.85,94.5906 1160.79,93.986 1166.73,93.3823 1172.66,92.7772 1178.6,92.1683 1184.54,91.5531 1190.47,90.8905 1196.4,90.1743 1202.32,89.4498 1208.25,88.7546 1214.19,88.1184 1220.13,87.5637 1226.08,87.1048 1232.04,86.7486 1238.01,86.4943 1243.99,86.3335 1249.98,86.2499 1255.97,86.2196 1261.97,86.2113 1267.96,86.1857 "/>
<path clip-path="url(#clip800)" d="M1859.76 1377.32 L2282.9 1377.32 L2282.9 1221.8 L1859.76 1221.8  Z" fill="#ffffff" fill-rule="evenodd" fill-opacity="1"/>
<polyline clip-path="url(#clip800)" style="stroke:#000000; stroke-linecap:round; stroke-linejoin:round; stroke-width:4; stroke-opacity:1; fill:none" points="1859.76,1377.32 2282.9,1377.32 2282.9,1221.8 1859.76,1221.8 1859.76,1377.32 "/>
<polyline clip-path="url(#clip800)" style="stroke:#009af9; stroke-linecap:round; stroke-linejoin:round; stroke-width:16; stroke-opacity:1; fill:none" points="1883.05,1273.64 2022.75,1273.64 "/>
<path clip-path="url(#clip800)" d="M2062.05 1259.53 Q2056.96 1259.53 2053.95 1263.32 Q2050.96 1267.12 2050.96 1273.67 Q2050.96 1280.2 2053.95 1283.99 Q2056.96 1287.79 2062.05 1287.79 Q2067.14 1287.79 2070.11 1283.99 Q2073.09 1280.2 2073.09 1273.67 Q2073.09 1267.12 2070.11 1263.32 Q2067.14 1259.53 2062.05 1259.53 M2062.05 1255.73 Q2069.32 1255.73 2073.67 1260.61 Q2078.02 1265.48 2078.02 1273.67 Q2078.02 1281.84 2073.67 1286.73 Q2069.32 1291.59 2062.05 1291.59 Q2054.76 1291.59 2050.39 1286.73 Q2046.03 1281.86 2046.03 1273.67 Q2046.03 1265.48 2050.39 1260.61 Q2054.76 1255.73 2062.05 1255.73 Z" fill="#000000" fill-rule="nonzero" fill-opacity="1" /><path clip-path="url(#clip800)" d="M2100.18 1268.97 Q2099.46 1268.55 2098.6 1268.37 Q2097.77 1268.16 2096.75 1268.16 Q2093.14 1268.16 2091.2 1270.52 Q2089.27 1272.86 2089.27 1277.26 L2089.27 1290.92 L2084.99 1290.92 L2084.99 1264.99 L2089.27 1264.99 L2089.27 1269.02 Q2090.62 1266.66 2092.77 1265.52 Q2094.92 1264.36 2098 1264.36 Q2098.44 1264.36 2098.97 1264.43 Q2099.51 1264.48 2100.15 1264.6 L2100.18 1268.97 Z" fill="#000000" fill-rule="nonzero" fill-opacity="1" /><path clip-path="url(#clip800)" d="M2104.64 1264.99 L2108.9 1264.99 L2108.9 1290.92 L2104.64 1290.92 L2104.64 1264.99 M2104.64 1254.9 L2108.9 1254.9 L2108.9 1260.29 L2104.64 1260.29 L2104.64 1254.9 Z" fill="#000000" fill-rule="nonzero" fill-opacity="1" /><path clip-path="url(#clip800)" d="M2134.88 1277.65 Q2134.88 1273.02 2132.95 1270.48 Q2131.06 1267.93 2127.61 1267.93 Q2124.18 1267.93 2122.26 1270.48 Q2120.36 1273.02 2120.36 1277.65 Q2120.36 1282.26 2122.26 1284.8 Q2124.18 1287.35 2127.61 1287.35 Q2131.06 1287.35 2132.95 1284.8 Q2134.88 1282.26 2134.88 1277.65 M2139.13 1287.7 Q2139.13 1294.32 2136.2 1297.54 Q2133.26 1300.78 2127.19 1300.78 Q2124.95 1300.78 2122.95 1300.43 Q2120.96 1300.11 2119.09 1299.41 L2119.09 1295.27 Q2120.96 1296.29 2122.79 1296.77 Q2124.62 1297.26 2126.52 1297.26 Q2130.71 1297.26 2132.79 1295.06 Q2134.88 1292.88 2134.88 1288.46 L2134.88 1286.36 Q2133.56 1288.65 2131.5 1289.78 Q2129.44 1290.92 2126.57 1290.92 Q2121.8 1290.92 2118.88 1287.28 Q2115.96 1283.65 2115.96 1277.65 Q2115.96 1271.63 2118.88 1268 Q2121.8 1264.36 2126.57 1264.36 Q2129.44 1264.36 2131.5 1265.5 Q2133.56 1266.63 2134.88 1268.92 L2134.88 1264.99 L2139.13 1264.99 L2139.13 1287.7 Z" fill="#000000" fill-rule="nonzero" fill-opacity="1" /><path clip-path="url(#clip800)" d="M2147.91 1264.99 L2152.17 1264.99 L2152.17 1290.92 L2147.91 1290.92 L2147.91 1264.99 M2147.91 1254.9 L2152.17 1254.9 L2152.17 1260.29 L2147.91 1260.29 L2147.91 1254.9 Z" fill="#000000" fill-rule="nonzero" fill-opacity="1" /><path clip-path="url(#clip800)" d="M2182.63 1275.27 L2182.63 1290.92 L2178.37 1290.92 L2178.37 1275.41 Q2178.37 1271.73 2176.94 1269.9 Q2175.5 1268.07 2172.63 1268.07 Q2169.18 1268.07 2167.19 1270.27 Q2165.2 1272.47 2165.2 1276.26 L2165.2 1290.92 L2160.92 1290.92 L2160.92 1264.99 L2165.2 1264.99 L2165.2 1269.02 Q2166.73 1266.68 2168.79 1265.52 Q2170.87 1264.36 2173.58 1264.36 Q2178.05 1264.36 2180.34 1267.14 Q2182.63 1269.9 2182.63 1275.27 Z" fill="#000000" fill-rule="nonzero" fill-opacity="1" /><path clip-path="url(#clip800)" d="M2202.91 1277.88 Q2197.75 1277.88 2195.75 1279.06 Q2193.76 1280.24 2193.76 1283.09 Q2193.76 1285.36 2195.25 1286.7 Q2196.75 1288.02 2199.32 1288.02 Q2202.86 1288.02 2204.99 1285.52 Q2207.14 1283 2207.14 1278.83 L2207.14 1277.88 L2202.91 1277.88 M2211.4 1276.12 L2211.4 1290.92 L2207.14 1290.92 L2207.14 1286.98 Q2205.69 1289.34 2203.51 1290.48 Q2201.33 1291.59 2198.19 1291.59 Q2194.2 1291.59 2191.84 1289.36 Q2189.5 1287.12 2189.5 1283.37 Q2189.5 1278.99 2192.42 1276.77 Q2195.36 1274.55 2201.17 1274.55 L2207.14 1274.55 L2207.14 1274.13 Q2207.14 1271.19 2205.2 1269.6 Q2203.28 1267.98 2199.78 1267.98 Q2197.56 1267.98 2195.45 1268.51 Q2193.35 1269.04 2191.4 1270.11 L2191.4 1266.17 Q2193.74 1265.27 2195.94 1264.83 Q2198.14 1264.36 2200.22 1264.36 Q2205.85 1264.36 2208.63 1267.28 Q2211.4 1270.2 2211.4 1276.12 Z" fill="#000000" fill-rule="nonzero" fill-opacity="1" /><path clip-path="url(#clip800)" d="M2220.18 1254.9 L2224.44 1254.9 L2224.44 1290.92 L2220.18 1290.92 L2220.18 1254.9 Z" fill="#000000" fill-rule="nonzero" fill-opacity="1" /><polyline clip-path="url(#clip800)" style="stroke:#e26f46; stroke-linecap:round; stroke-linejoin:round; stroke-width:16; stroke-opacity:1; fill:none" points="1883.05,1325.48 2022.75,1325.48 "/>
<path clip-path="url(#clip800)" d="M2050.71 1312.04 L2050.71 1325.02 L2056.59 1325.02 Q2059.85 1325.02 2061.64 1323.33 Q2063.42 1321.64 2063.42 1318.52 Q2063.42 1315.42 2061.64 1313.73 Q2059.85 1312.04 2056.59 1312.04 L2050.71 1312.04 M2046.03 1308.2 L2056.59 1308.2 Q2062.4 1308.2 2065.36 1310.83 Q2068.35 1313.45 2068.35 1318.52 Q2068.35 1323.64 2065.36 1326.25 Q2062.4 1328.87 2056.59 1328.87 L2050.71 1328.87 L2050.71 1342.76 L2046.03 1342.76 L2046.03 1308.2 Z" fill="#000000" fill-rule="nonzero" fill-opacity="1" /><path clip-path="url(#clip800)" d="M2088.63 1320.81 Q2087.91 1320.39 2087.05 1320.21 Q2086.22 1320 2085.2 1320 Q2081.59 1320 2079.64 1322.36 Q2077.72 1324.7 2077.72 1329.1 L2077.72 1342.76 L2073.44 1342.76 L2073.44 1316.83 L2077.72 1316.83 L2077.72 1320.86 Q2079.07 1318.5 2081.22 1317.36 Q2083.37 1316.2 2086.45 1316.2 Q2086.89 1316.2 2087.42 1316.27 Q2087.95 1316.32 2088.6 1316.44 L2088.63 1320.81 Z" fill="#000000" fill-rule="nonzero" fill-opacity="1" /><path clip-path="url(#clip800)" d="M2114.23 1328.73 L2114.23 1330.81 L2094.64 1330.81 Q2094.92 1335.21 2097.28 1337.52 Q2099.67 1339.82 2103.9 1339.82 Q2106.36 1339.82 2108.65 1339.21 Q2110.96 1338.61 2113.23 1337.41 L2113.23 1341.44 Q2110.94 1342.41 2108.53 1342.92 Q2106.13 1343.43 2103.65 1343.43 Q2097.45 1343.43 2093.81 1339.82 Q2090.2 1336.2 2090.2 1330.05 Q2090.2 1323.68 2093.63 1319.95 Q2097.07 1316.2 2102.91 1316.2 Q2108.14 1316.2 2111.17 1319.58 Q2114.23 1322.94 2114.23 1328.73 M2109.97 1327.48 Q2109.92 1323.98 2108 1321.9 Q2106.1 1319.82 2102.95 1319.82 Q2099.39 1319.82 2097.24 1321.83 Q2095.11 1323.84 2094.78 1327.5 L2109.97 1327.48 Z" fill="#000000" fill-rule="nonzero" fill-opacity="1" /><path clip-path="url(#clip800)" d="M2138.28 1320.76 L2138.28 1306.74 L2142.54 1306.74 L2142.54 1342.76 L2138.28 1342.76 L2138.28 1338.87 Q2136.94 1341.18 2134.88 1342.32 Q2132.84 1343.43 2129.97 1343.43 Q2125.27 1343.43 2122.31 1339.68 Q2119.37 1335.93 2119.37 1329.82 Q2119.37 1323.7 2122.31 1319.95 Q2125.27 1316.2 2129.97 1316.2 Q2132.84 1316.2 2134.88 1317.34 Q2136.94 1318.45 2138.28 1320.76 M2123.76 1329.82 Q2123.76 1334.51 2125.69 1337.2 Q2127.63 1339.86 2131.01 1339.86 Q2134.39 1339.86 2136.33 1337.2 Q2138.28 1334.51 2138.28 1329.82 Q2138.28 1325.12 2136.33 1322.45 Q2134.39 1319.77 2131.01 1319.77 Q2127.63 1319.77 2125.69 1322.45 Q2123.76 1325.12 2123.76 1329.82 Z" fill="#000000" fill-rule="nonzero" fill-opacity="1" /><path clip-path="url(#clip800)" d="M2151.31 1316.83 L2155.57 1316.83 L2155.57 1342.76 L2151.31 1342.76 L2151.31 1316.83 M2151.31 1306.74 L2155.57 1306.74 L2155.57 1312.13 L2151.31 1312.13 L2151.31 1306.74 Z" fill="#000000" fill-rule="nonzero" fill-opacity="1" /><path clip-path="url(#clip800)" d="M2183.14 1317.82 L2183.14 1321.81 Q2181.33 1320.81 2179.5 1320.32 Q2177.7 1319.82 2175.85 1319.82 Q2171.7 1319.82 2169.41 1322.45 Q2167.12 1325.07 2167.12 1329.82 Q2167.12 1334.56 2169.41 1337.2 Q2171.7 1339.82 2175.85 1339.82 Q2177.7 1339.82 2179.5 1339.33 Q2181.33 1338.82 2183.14 1337.82 L2183.14 1341.76 Q2181.36 1342.59 2179.44 1343.01 Q2177.54 1343.43 2175.38 1343.43 Q2169.53 1343.43 2166.08 1339.75 Q2162.63 1336.07 2162.63 1329.82 Q2162.63 1323.47 2166.1 1319.84 Q2169.6 1316.2 2175.66 1316.2 Q2177.63 1316.2 2179.5 1316.62 Q2181.38 1317.01 2183.14 1317.82 Z" fill="#000000" fill-rule="nonzero" fill-opacity="1" /><path clip-path="url(#clip800)" d="M2194.76 1309.47 L2194.76 1316.83 L2203.53 1316.83 L2203.53 1320.14 L2194.76 1320.14 L2194.76 1334.21 Q2194.76 1337.38 2195.62 1338.29 Q2196.5 1339.19 2199.16 1339.19 L2203.53 1339.19 L2203.53 1342.76 L2199.16 1342.76 Q2194.23 1342.76 2192.35 1340.93 Q2190.48 1339.07 2190.48 1334.21 L2190.48 1320.14 L2187.35 1320.14 L2187.35 1316.83 L2190.48 1316.83 L2190.48 1309.47 L2194.76 1309.47 Z" fill="#000000" fill-rule="nonzero" fill-opacity="1" /><path clip-path="url(#clip800)" d="M2231.31 1328.73 L2231.31 1330.81 L2211.73 1330.81 Q2212 1335.21 2214.37 1337.52 Q2216.75 1339.82 2220.99 1339.82 Q2223.44 1339.82 2225.73 1339.21 Q2228.05 1338.61 2230.31 1337.41 L2230.31 1341.44 Q2228.02 1342.41 2225.62 1342.92 Q2223.21 1343.43 2220.73 1343.43 Q2214.53 1343.43 2210.89 1339.82 Q2207.28 1336.2 2207.28 1330.05 Q2207.28 1323.68 2210.71 1319.95 Q2214.16 1316.2 2219.99 1316.2 Q2225.22 1316.2 2228.25 1319.58 Q2231.31 1322.94 2231.31 1328.73 M2227.05 1327.48 Q2227 1323.98 2225.08 1321.9 Q2223.19 1319.82 2220.04 1319.82 Q2216.47 1319.82 2214.32 1321.83 Q2212.19 1323.84 2211.87 1327.5 L2227.05 1327.48 Z" fill="#000000" fill-rule="nonzero" fill-opacity="1" /><path clip-path="url(#clip800)" d="M2255.36 1320.76 L2255.36 1306.74 L2259.62 1306.74 L2259.62 1342.76 L2255.36 1342.76 L2255.36 1338.87 Q2254.02 1341.18 2251.96 1342.32 Q2249.92 1343.43 2247.05 1343.43 Q2242.35 1343.43 2239.39 1339.68 Q2236.45 1335.93 2236.45 1329.82 Q2236.45 1323.7 2239.39 1319.95 Q2242.35 1316.2 2247.05 1316.2 Q2249.92 1316.2 2251.96 1317.34 Q2254.02 1318.45 2255.36 1320.76 M2240.85 1329.82 Q2240.85 1334.51 2242.77 1337.2 Q2244.71 1339.86 2248.09 1339.86 Q2251.47 1339.86 2253.42 1337.2 Q2255.36 1334.51 2255.36 1329.82 Q2255.36 1325.12 2253.42 1322.45 Q2251.47 1319.77 2248.09 1319.77 Q2244.71 1319.77 2242.77 1322.45 Q2240.85 1325.12 2240.85 1329.82 Z" fill="#000000" fill-rule="nonzero" fill-opacity="1" /></svg>
