<?xml version="1.0" encoding="utf-8"?>
<svg xmlns="http://www.w3.org/2000/svg" xmlns:xlink="http://www.w3.org/1999/xlink" width="600" height="400" viewBox="0 0 2400 1600">
<defs>
  <clipPath id="clip610">
    <rect x="0" y="0" width="2400" height="1600"/>
  </clipPath>
</defs>
<path clip-path="url(#clip610)" d="M0 1600 L2400 1600 L2400 0 L0 0  Z" fill="#ffffff" fill-rule="evenodd" fill-opacity="1"/>
<defs>
  <clipPath id="clip611">
    <rect x="480" y="0" width="1681" height="1600"/>
  </clipPath>
</defs>
<path clip-path="url(#clip610)" d="M178.867 1486.45 L2352.76 1486.45 L2352.76 47.2441 L178.867 47.2441  Z" fill="#ffffff" fill-rule="evenodd" fill-opacity="1"/>
<defs>
  <clipPath id="clip612">
    <rect x="178" y="47" width="2175" height="1440"/>
  </clipPath>
</defs>
<polyline clip-path="url(#clip612)" style="stroke:#000000; stroke-linecap:round; stroke-linejoin:round; stroke-width:2; stroke-opacity:0.1; fill:none" points="240.392,1486.45 240.392,47.2441 "/>
<polyline clip-path="url(#clip612)" style="stroke:#000000; stroke-linecap:round; stroke-linejoin:round; stroke-width:2; stroke-opacity:0.1; fill:none" points="924.005,1486.45 924.005,47.2441 "/>
<polyline clip-path="url(#clip612)" style="stroke:#000000; stroke-linecap:round; stroke-linejoin:round; stroke-width:2; stroke-opacity:0.1; fill:none" points="1607.62,1486.45 1607.62,47.2441 "/>
<polyline clip-path="url(#clip612)" style="stroke:#000000; stroke-linecap:round; stroke-linejoin:round; stroke-width:2; stroke-opacity:0.1; fill:none" points="2291.23,1486.45 2291.23,47.2441 "/>
<polyline clip-path="url(#clip612)" style="stroke:#000000; stroke-linecap:round; stroke-linejoin:round; stroke-width:2; stroke-opacity:0.1; fill:none" points="178.867,1433.63 2352.76,1433.63 "/>
<polyline clip-path="url(#clip612)" style="stroke:#000000; stroke-linecap:round; stroke-linejoin:round; stroke-width:2; stroke-opacity:0.1; fill:none" points="178.867,985.321 2352.76,985.321 "/>
<polyline clip-path="url(#clip612)" style="stroke:#000000; stroke-linecap:round; stroke-linejoin:round; stroke-width:2; stroke-opacity:0.1; fill:none" points="178.867,537.013 2352.76,537.013 "/>
<polyline clip-path="url(#clip612)" style="stroke:#000000; stroke-linecap:round; stroke-linejoin:round; stroke-width:2; stroke-opacity:0.1; fill:none" points="178.867,88.7054 2352.76,88.7054 "/>
<polyline clip-path="url(#clip610)" style="stroke:#000000; stroke-linecap:round; stroke-linejoin:round; stroke-width:4; stroke-opacity:1; fill:none" points="178.867,1486.45 2352.76,1486.45 "/>
<polyline clip-path="url(#clip610)" style="stroke:#000000; stroke-linecap:round; stroke-linejoin:round; stroke-width:4; stroke-opacity:1; fill:none" points="240.392,1486.45 240.392,1467.55 "/>
<polyline clip-path="url(#clip610)" style="stroke:#000000; stroke-linecap:round; stroke-linejoin:round; stroke-width:4; stroke-opacity:1; fill:none" points="924.005,1486.45 924.005,1467.55 "/>
<polyline clip-path="url(#clip610)" style="stroke:#000000; stroke-linecap:round; stroke-linejoin:round; stroke-width:4; stroke-opacity:1; fill:none" points="1607.62,1486.45 1607.62,1467.55 "/>
<polyline clip-path="url(#clip610)" style="stroke:#000000; stroke-linecap:round; stroke-linejoin:round; stroke-width:4; stroke-opacity:1; fill:none" points="2291.23,1486.45 2291.23,1467.55 "/>
<path clip-path="url(#clip610)" d="M217.776 1517.37 Q214.165 1517.37 212.336 1520.93 Q210.531 1524.47 210.531 1531.6 Q210.531 1538.71 212.336 1542.27 Q214.165 1545.82 217.776 1545.82 Q221.41 1545.82 223.216 1542.27 Q225.045 1538.71 225.045 1531.6 Q225.045 1524.47 223.216 1520.93 Q221.41 1517.37 217.776 1517.37 M217.776 1513.66 Q223.586 1513.66 226.642 1518.27 Q229.721 1522.85 229.721 1531.6 Q229.721 1540.33 226.642 1544.94 Q223.586 1549.52 217.776 1549.52 Q211.966 1549.52 208.887 1544.94 Q205.832 1540.33 205.832 1531.6 Q205.832 1522.85 208.887 1518.27 Q211.966 1513.66 217.776 1513.66 Z" fill="#000000" fill-rule="nonzero" fill-opacity="1" /><path clip-path="url(#clip610)" d="M237.938 1542.97 L242.822 1542.97 L242.822 1548.85 L237.938 1548.85 L237.938 1542.97 Z" fill="#000000" fill-rule="nonzero" fill-opacity="1" /><path clip-path="url(#clip610)" d="M263.007 1517.37 Q259.396 1517.37 257.568 1520.93 Q255.762 1524.47 255.762 1531.6 Q255.762 1538.71 257.568 1542.27 Q259.396 1545.82 263.007 1545.82 Q266.642 1545.82 268.447 1542.27 Q270.276 1538.71 270.276 1531.6 Q270.276 1524.47 268.447 1520.93 Q266.642 1517.37 263.007 1517.37 M263.007 1513.66 Q268.818 1513.66 271.873 1518.27 Q274.952 1522.85 274.952 1531.6 Q274.952 1540.33 271.873 1544.94 Q268.818 1549.52 263.007 1549.52 Q257.197 1549.52 254.119 1544.94 Q251.063 1540.33 251.063 1531.6 Q251.063 1522.85 254.119 1518.27 Q257.197 1513.66 263.007 1513.66 Z" fill="#000000" fill-rule="nonzero" fill-opacity="1" /><path clip-path="url(#clip610)" d="M901.887 1517.37 Q898.276 1517.37 896.447 1520.93 Q894.642 1524.47 894.642 1531.6 Q894.642 1538.71 896.447 1542.27 Q898.276 1545.82 901.887 1545.82 Q905.521 1545.82 907.327 1542.27 Q909.155 1538.71 909.155 1531.6 Q909.155 1524.47 907.327 1520.93 Q905.521 1517.37 901.887 1517.37 M901.887 1513.66 Q907.697 1513.66 910.753 1518.27 Q913.831 1522.85 913.831 1531.6 Q913.831 1540.33 910.753 1544.94 Q907.697 1549.52 901.887 1549.52 Q896.077 1549.52 892.998 1544.94 Q889.942 1540.33 889.942 1531.6 Q889.942 1522.85 892.998 1518.27 Q896.077 1513.66 901.887 1513.66 Z" fill="#000000" fill-rule="nonzero" fill-opacity="1" /><path clip-path="url(#clip610)" d="M922.049 1542.97 L926.933 1542.97 L926.933 1548.85 L922.049 1548.85 L922.049 1542.97 Z" fill="#000000" fill-rule="nonzero" fill-opacity="1" /><path clip-path="url(#clip610)" d="M937.164 1514.29 L955.521 1514.29 L955.521 1518.22 L941.447 1518.22 L941.447 1526.7 Q942.465 1526.35 943.484 1526.19 Q944.502 1526 945.521 1526 Q951.308 1526 954.687 1529.17 Q958.067 1532.34 958.067 1537.76 Q958.067 1543.34 954.595 1546.44 Q951.123 1549.52 944.803 1549.52 Q942.627 1549.52 940.359 1549.15 Q938.114 1548.78 935.706 1548.04 L935.706 1543.34 Q937.789 1544.47 940.012 1545.03 Q942.234 1545.58 944.711 1545.58 Q948.715 1545.58 951.053 1543.48 Q953.391 1541.37 953.391 1537.76 Q953.391 1534.15 951.053 1532.04 Q948.715 1529.94 944.711 1529.94 Q942.836 1529.94 940.961 1530.35 Q939.109 1530.77 937.164 1531.65 L937.164 1514.29 Z" fill="#000000" fill-rule="nonzero" fill-opacity="1" /><path clip-path="url(#clip610)" d="M1574.77 1544.91 L1582.41 1544.91 L1582.41 1518.55 L1574.1 1520.21 L1574.1 1515.95 L1582.36 1514.29 L1587.04 1514.29 L1587.04 1544.91 L1594.68 1544.91 L1594.68 1548.85 L1574.77 1548.85 L1574.77 1544.91 Z" fill="#000000" fill-rule="nonzero" fill-opacity="1" /><path clip-path="url(#clip610)" d="M1604.12 1542.97 L1609.01 1542.97 L1609.01 1548.85 L1604.12 1548.85 L1604.12 1542.97 Z" fill="#000000" fill-rule="nonzero" fill-opacity="1" /><path clip-path="url(#clip610)" d="M1629.19 1517.37 Q1625.58 1517.37 1623.75 1520.93 Q1621.95 1524.47 1621.95 1531.6 Q1621.95 1538.71 1623.75 1542.27 Q1625.58 1545.82 1629.19 1545.82 Q1632.83 1545.82 1634.63 1542.27 Q1636.46 1538.71 1636.46 1531.6 Q1636.46 1524.47 1634.63 1520.93 Q1632.83 1517.37 1629.19 1517.37 M1629.19 1513.66 Q1635 1513.66 1638.06 1518.27 Q1641.14 1522.85 1641.14 1531.6 Q1641.14 1540.33 1638.06 1544.94 Q1635 1549.52 1629.19 1549.52 Q1623.38 1549.52 1620.3 1544.94 Q1617.25 1540.33 1617.25 1531.6 Q1617.25 1522.85 1620.3 1518.27 Q1623.38 1513.66 1629.19 1513.66 Z" fill="#000000" fill-rule="nonzero" fill-opacity="1" /><path clip-path="url(#clip610)" d="M2258.88 1544.91 L2266.52 1544.91 L2266.52 1518.55 L2258.21 1520.21 L2258.21 1515.95 L2266.47 1514.29 L2271.15 1514.29 L2271.15 1544.91 L2278.79 1544.91 L2278.79 1548.85 L2258.88 1548.85 L2258.88 1544.91 Z" fill="#000000" fill-rule="nonzero" fill-opacity="1" /><path clip-path="url(#clip610)" d="M2288.23 1542.97 L2293.12 1542.97 L2293.12 1548.85 L2288.23 1548.85 L2288.23 1542.97 Z" fill="#000000" fill-rule="nonzero" fill-opacity="1" /><path clip-path="url(#clip610)" d="M2303.35 1514.29 L2321.71 1514.29 L2321.71 1518.22 L2307.63 1518.22 L2307.63 1526.7 Q2308.65 1526.35 2309.67 1526.19 Q2310.69 1526 2311.71 1526 Q2317.49 1526 2320.87 1529.17 Q2324.25 1532.34 2324.25 1537.76 Q2324.25 1543.34 2320.78 1546.44 Q2317.31 1549.52 2310.99 1549.52 Q2308.81 1549.52 2306.54 1549.15 Q2304.3 1548.78 2301.89 1548.04 L2301.89 1543.34 Q2303.97 1544.47 2306.2 1545.03 Q2308.42 1545.58 2310.89 1545.58 Q2314.9 1545.58 2317.24 1543.48 Q2319.58 1541.37 2319.58 1537.76 Q2319.58 1534.15 2317.24 1532.04 Q2314.9 1529.94 2310.89 1529.94 Q2309.02 1529.94 2307.15 1530.35 Q2305.29 1530.77 2303.35 1531.65 L2303.35 1514.29 Z" fill="#000000" fill-rule="nonzero" fill-opacity="1" /><polyline clip-path="url(#clip610)" style="stroke:#000000; stroke-linecap:round; stroke-linejoin:round; stroke-width:4; stroke-opacity:1; fill:none" points="178.867,1486.45 178.867,47.2441 "/>
<polyline clip-path="url(#clip610)" style="stroke:#000000; stroke-linecap:round; stroke-linejoin:round; stroke-width:4; stroke-opacity:1; fill:none" points="178.867,1433.63 197.764,1433.63 "/>
<polyline clip-path="url(#clip610)" style="stroke:#000000; stroke-linecap:round; stroke-linejoin:round; stroke-width:4; stroke-opacity:1; fill:none" points="178.867,985.321 197.764,985.321 "/>
<polyline clip-path="url(#clip610)" style="stroke:#000000; stroke-linecap:round; stroke-linejoin:round; stroke-width:4; stroke-opacity:1; fill:none" points="178.867,537.013 197.764,537.013 "/>
<polyline clip-path="url(#clip610)" style="stroke:#000000; stroke-linecap:round; stroke-linejoin:round; stroke-width:4; stroke-opacity:1; fill:none" points="178.867,88.7054 197.764,88.7054 "/>
<path clip-path="url(#clip610)" d="M50.9921 1434.08 L80.6679 1434.08 L80.6679 1438.02 L50.9921 1438.02 L50.9921 1434.08 Z" fill="#000000" fill-rule="nonzero" fill-opacity="1" /><path clip-path="url(#clip610)" d="M91.5706 1446.97 L99.2095 1446.97 L99.2095 1420.61 L90.8993 1422.28 L90.8993 1418.02 L99.1632 1416.35 L103.839 1416.35 L103.839 1446.97 L111.478 1446.97 L111.478 1450.91 L91.5706 1450.91 L91.5706 1446.97 Z" fill="#000000" fill-rule="nonzero" fill-opacity="1" /><path clip-path="url(#clip610)" d="M130.922 1419.43 Q127.311 1419.43 125.482 1422.99 Q123.677 1426.53 123.677 1433.66 Q123.677 1440.77 125.482 1444.34 Q127.311 1447.88 130.922 1447.88 Q134.556 1447.88 136.362 1444.34 Q138.191 1440.77 138.191 1433.66 Q138.191 1426.53 136.362 1422.99 Q134.556 1419.43 130.922 1419.43 M130.922 1415.72 Q136.732 1415.72 139.788 1420.33 Q142.867 1424.91 142.867 1433.66 Q142.867 1442.39 139.788 1447 Q136.732 1451.58 130.922 1451.58 Q125.112 1451.58 122.033 1447 Q118.978 1442.39 118.978 1433.66 Q118.978 1424.91 122.033 1420.33 Q125.112 1415.72 130.922 1415.72 Z" fill="#000000" fill-rule="nonzero" fill-opacity="1" /><path clip-path="url(#clip610)" d="M130.922 971.12 Q127.311 971.12 125.482 974.685 Q123.677 978.226 123.677 985.356 Q123.677 992.463 125.482 996.027 Q127.311 999.569 130.922 999.569 Q134.556 999.569 136.362 996.027 Q138.191 992.463 138.191 985.356 Q138.191 978.226 136.362 974.685 Q134.556 971.12 130.922 971.12 M130.922 967.416 Q136.732 967.416 139.788 972.023 Q142.867 976.606 142.867 985.356 Q142.867 994.083 139.788 998.689 Q136.732 1003.27 130.922 1003.27 Q125.112 1003.27 122.033 998.689 Q118.978 994.083 118.978 985.356 Q118.978 976.606 122.033 972.023 Q125.112 967.416 130.922 967.416 Z" fill="#000000" fill-rule="nonzero" fill-opacity="1" /><path clip-path="url(#clip610)" d="M91.5706 550.358 L99.2095 550.358 L99.2095 523.993 L90.8993 525.659 L90.8993 521.4 L99.1632 519.733 L103.839 519.733 L103.839 550.358 L111.478 550.358 L111.478 554.293 L91.5706 554.293 L91.5706 550.358 Z" fill="#000000" fill-rule="nonzero" fill-opacity="1" /><path clip-path="url(#clip610)" d="M130.922 522.812 Q127.311 522.812 125.482 526.377 Q123.677 529.919 123.677 537.048 Q123.677 544.155 125.482 547.719 Q127.311 551.261 130.922 551.261 Q134.556 551.261 136.362 547.719 Q138.191 544.155 138.191 537.048 Q138.191 529.919 136.362 526.377 Q134.556 522.812 130.922 522.812 M130.922 519.108 Q136.732 519.108 139.788 523.715 Q142.867 528.298 142.867 537.048 Q142.867 545.775 139.788 550.381 Q136.732 554.965 130.922 554.965 Q125.112 554.965 122.033 550.381 Q118.978 545.775 118.978 537.048 Q118.978 528.298 122.033 523.715 Q125.112 519.108 130.922 519.108 Z" fill="#000000" fill-rule="nonzero" fill-opacity="1" /><path clip-path="url(#clip610)" d="M94.7882 102.05 L111.108 102.05 L111.108 105.985 L89.1632 105.985 L89.1632 102.05 Q91.8252 99.2957 96.4085 94.6661 Q101.015 90.0133 102.196 88.6707 Q104.441 86.1476 105.321 84.4115 Q106.223 82.6522 106.223 80.9624 Q106.223 78.2078 104.279 76.4717 Q102.358 74.7356 99.2558 74.7356 Q97.0567 74.7356 94.603 75.4995 Q92.1725 76.2634 89.3947 77.8143 L89.3947 73.0921 Q92.2188 71.9578 94.6724 71.3791 Q97.1261 70.8004 99.1632 70.8004 Q104.534 70.8004 107.728 73.4856 Q110.922 76.1708 110.922 80.6615 Q110.922 82.7911 110.112 84.7124 Q109.325 86.6105 107.219 89.2031 Q106.64 89.8744 103.538 93.092 Q100.436 96.2864 94.7882 102.05 Z" fill="#000000" fill-rule="nonzero" fill-opacity="1" /><path clip-path="url(#clip610)" d="M130.922 74.5041 Q127.311 74.5041 125.482 78.0689 Q123.677 81.6106 123.677 88.7402 Q123.677 95.8466 125.482 99.4114 Q127.311 102.953 130.922 102.953 Q134.556 102.953 136.362 99.4114 Q138.191 95.8466 138.191 88.7402 Q138.191 81.6106 136.362 78.0689 Q134.556 74.5041 130.922 74.5041 M130.922 70.8004 Q136.732 70.8004 139.788 75.4069 Q142.867 79.9902 142.867 88.7402 Q142.867 97.467 139.788 102.073 Q136.732 106.657 130.922 106.657 Q125.112 106.657 122.033 102.073 Q118.978 97.467 118.978 88.7402 Q118.978 79.9902 122.033 75.4069 Q125.112 70.8004 130.922 70.8004 Z" fill="#000000" fill-rule="nonzero" fill-opacity="1" /><polyline clip-path="url(#clip612)" style="stroke:#009af9; stroke-linecap:round; stroke-linejoin:round; stroke-width:4; stroke-opacity:1; fill:none" points="240.392,976.263 247.251,995.704 254.11,1015.5 260.969,1034.75 267.828,1053.25 274.687,1071.43 281.546,1089.41 288.405,1106.65 295.264,1123.55 302.123,1140.44 308.982,1157.38 315.841,1174.21 322.7,1190.37 329.559,1205.99 336.418,1220.8 343.277,1234.88 350.136,1248.5 356.995,1261.67 363.854,1274.34 370.713,1286.51 377.572,1298.35 384.431,1309.77 391.29,1320.77 398.149,1331.28 405.008,1341.33 411.867,1350.9 418.726,1359.94 425.585,1368.49 432.444,1376.56 439.303,1384.2 446.162,1391.38 453.021,1398.1 459.88,1404.4 466.739,1410.27 473.598,1415.7 480.457,1420.68 487.316,1425.2 494.175,1429.25 501.034,1432.84 507.893,1435.97 514.752,1438.65 521.611,1440.9 528.47,1442.72 535.328,1444.1 542.188,1445.06 549.046,1445.59 555.905,1445.72 562.764,1445.45 569.623,1444.81 576.482,1443.8 583.341,1442.47 590.2,1440.85 597.059,1438.98 603.918,1436.82 610.777,1434.18 617.636,1431.02 624.495,1427.42 631.354,1423.42 638.213,1419.02 645.072,1414.24 651.931,1409.04 658.79,1403.42 665.649,1397.42 672.508,1391.02 679.367,1384.33 686.226,1377.34 693.085,1370 699.944,1362.36 706.803,1354.44 713.662,1346.24 720.521,1337.72 727.38,1328.99 734.239,1320.15 741.098,1311.21 747.957,1302.16 754.816,1293.04 761.675,1283.85 768.534,1274.55 775.393,1265.12 782.252,1255.57 789.111,1245.94 795.97,1236.3 802.829,1226.65 809.688,1217.01 816.547,1207.35 823.406,1197.68 830.265,1188.05 837.124,1178.46 843.983,1168.87 850.842,1159.34 857.701,1149.86 864.56,1140.41 871.419,1131.02 878.278,1121.69 885.137,1112.47 891.996,1103.42 898.855,1094.54 905.714,1085.79 912.573,1077.17 919.432,1068.67 926.291,1060.23 933.15,1051.8 940.009,1043.48 946.868,1035.24 953.727,1027.14 960.586,1019.15 967.445,1011.21 974.304,1003.41 981.163,995.699 988.022,988.068 994.881,980.552 1001.74,973.111 1008.6,965.639 1015.46,958.165 1022.32,950.792 1029.18,943.592 1036.04,936.575 1042.89,929.632 1049.75,922.731 1056.61,915.922 1063.47,909.142 1070.33,902.447 1077.19,895.783 1084.05,889.162 1090.91,882.61 1097.77,876.186 1104.62,869.887 1111.48,863.65 1118.34,857.503 1125.2,851.431 1132.06,845.454 1138.92,839.549 1145.78,833.688 1152.64,827.9 1159.5,822.243 1166.36,816.668 1173.21,811.063 1180.07,805.413 1186.93,799.863 1193.79,794.406 1200.65,789.009 1207.51,783.636 1214.37,778.299 1221.23,773.016 1228.09,767.803 1234.95,762.731 1241.8,757.748 1248.66,752.788 1255.52,747.907 1262.38,743.13 1269.24,738.514 1276.1,734.022 1282.96,729.58 1289.82,725.205 1296.68,720.907 1303.54,716.663 1310.39,712.504 1317.25,708.515 1324.11,704.716 1330.97,701.102 1337.83,697.652 1344.69,694.342 1351.55,691.21 1358.41,688.279 1365.27,685.496 1372.13,682.885 1378.98,680.47 1385.84,678.296 1392.7,676.428 1399.56,674.774 1406.42,673.251 1413.28,671.875 1420.14,670.708 1427,669.759 1433.86,669.04 1440.72,668.603 1447.57,668.383 1454.43,668.281 1461.29,668.307 1468.15,668.5 1475.01,668.875 1481.87,669.478 1488.73,670.319 1495.59,671.441 1502.45,672.918 1509.31,674.682 1516.16,676.654 1523.02,678.827 1529.88,681.122 1536.74,683.591 1543.6,686.292 1550.46,689.205 1557.32,692.285 1564.18,695.511 1571.04,698.875 1577.9,702.401 1584.75,706.158 1591.61,710.076 1598.47,714.092 1605.33,718.186 1612.19,722.384 1619.05,726.7 1625.91,731.102 1632.77,735.629 1639.63,740.257 1646.49,744.982 1653.34,749.873 1660.2,754.864 1667.06,759.892 1673.92,764.988 1680.78,770.123 1687.64,775.31 1694.5,780.557 1701.36,785.857 1708.22,791.186 1715.08,796.528 1721.93,801.891 1728.79,807.353 1735.65,812.861 1742.51,818.352 1749.37,823.833 1756.23,829.304 1763.09,834.814 1769.95,840.368 1776.81,845.905 1783.67,851.419 1790.52,856.934 1797.38,862.474 1804.24,868.067 1811.1,873.588 1817.96,878.987 1824.82,884.303 1831.68,889.58 1838.54,894.782 1845.4,899.877 1852.26,904.88 1859.11,909.716 1865.97,914.384 1872.83,918.891 1879.69,923.219 1886.55,927.437 1893.41,931.584 1900.27,935.609 1907.13,939.448 1913.99,943.179 1920.85,946.791 1927.7,950.289 1934.56,953.754 1941.42,957.165 1948.28,960.48 1955.14,963.604 1962,966.546 1968.86,969.364 1975.72,972.047 1982.58,974.556 1989.44,976.861 1996.29,978.985 2003.15,981.003 2010.01,982.931 2016.87,984.784 2023.73,986.585 2030.59,988.332 2037.45,989.993 2044.31,991.556 2051.17,993.019 2058.02,994.388 2064.88,995.667 2071.74,996.85 2078.6,997.948 2085.46,998.973 2092.32,999.921 2099.18,1000.8 2106.04,1001.62 2112.9,1002.43 2119.76,1003.28 2126.61,1004.16 2133.47,1004.99 2140.33,1005.78 2147.19,1006.63 2154.05,1007.48 2160.91,1008.46 2167.77,1009.62 2174.63,1010.81 2181.49,1011.93 2188.35,1013.01 2195.2,1013.94 2202.06,1014.69 2208.92,1015.34 2215.78,1015.91 2222.64,1016.8 2229.5,1018.09 2236.36,1019.71 2243.22,1021.87 2250.08,1024.26 2256.94,1026.71 2263.79,1029.92 2270.65,1034.26 2277.51,1039.66 2284.37,1045.65 2291.23,1051.97 "/>
<polyline clip-path="url(#clip612)" style="stroke:#e26f46; stroke-linecap:round; stroke-linejoin:round; stroke-width:4; stroke-opacity:1; fill:none" points="240.392,87.9763 247.251,113.335 254.11,139.452 260.969,165.51 267.828,191.736 274.687,217.835 281.546,243.279 288.405,268.428 295.264,293.41 302.123,317.787 308.982,341.425 315.841,364.603 322.7,387.317 329.559,409.639 336.418,431.552 343.277,453.07 350.136,474.014 356.995,494.475 363.854,514.546 370.713,534.123 377.572,553.215 384.431,571.807 391.29,589.856 398.149,607.392 405.008,624.492 411.867,641.159 418.726,657.412 425.585,673.293 432.444,688.867 439.303,704.107 446.162,719.008 453.021,733.58 459.88,747.842 466.739,761.837 473.598,775.609 480.457,789.171 487.316,802.52 494.175,815.664 501.034,828.625 507.893,841.421 514.752,854.087 521.611,866.666 528.47,879.169 535.328,891.597 542.188,903.951 549.046,916.211 555.905,928.397 562.764,940.507 569.623,952.521 576.482,964.449 583.341,976.274 590.2,988.028 597.059,999.781 603.918,1011.48 610.777,1023.05 617.636,1034.47 624.495,1045.77 631.354,1056.86 638.213,1067.69 645.072,1078.29 651.931,1088.74 658.79,1099.06 665.649,1109.18 672.508,1119.18 679.367,1129.03 686.226,1138.6 693.085,1147.87 699.944,1156.94 706.803,1165.81 713.662,1174.47 720.521,1182.92 727.38,1191.17 734.239,1199.26 741.098,1207.16 747.957,1214.87 754.816,1222.44 761.675,1229.93 768.534,1237.32 775.393,1244.55 782.252,1251.71 789.111,1258.81 795.97,1265.8 802.829,1272.63 809.688,1279.26 816.547,1285.7 823.406,1291.97 830.265,1298.05 837.124,1304.04 843.983,1309.82 850.842,1315.39 857.701,1320.77 864.56,1325.92 871.419,1330.86 878.278,1335.55 885.137,1339.95 891.996,1344.07 898.855,1347.94 905.714,1351.59 912.573,1354.97 919.432,1358.05 926.291,1360.83 933.15,1363.22 940.009,1365.24 946.868,1366.97 953.727,1368.39 960.586,1369.48 967.445,1370.26 974.304,1370.74 981.163,1370.87 988.022,1370.64 994.881,1370.09 1001.74,1369.17 1008.6,1367.87 1015.46,1366.22 1022.32,1364.23 1029.18,1361.89 1036.04,1359.21 1042.89,1356.18 1049.75,1352.8 1056.61,1349.13 1063.47,1345.14 1070.33,1340.81 1077.19,1336.24 1084.05,1331.49 1090.91,1326.5 1097.77,1321.24 1104.62,1315.8 1111.48,1310.18 1118.34,1304.38 1125.2,1298.39 1132.06,1292.2 1138.92,1285.81 1145.78,1279.29 1152.64,1272.65 1159.5,1265.92 1166.36,1259.13 1173.21,1252.33 1180.07,1245.42 1186.93,1238.37 1193.79,1231.22 1200.65,1224.03 1207.51,1216.87 1214.37,1209.7 1221.23,1202.52 1228.09,1195.41 1234.95,1188.35 1241.8,1181.25 1248.66,1174.08 1255.52,1166.82 1262.38,1159.49 1269.24,1152.15 1276.1,1144.88 1282.96,1137.65 1289.82,1130.4 1296.68,1123.24 1303.54,1116.24 1310.39,1109.37 1317.25,1102.58 1324.11,1095.83 1330.97,1089.2 1337.83,1082.68 1344.69,1076.23 1351.55,1069.87 1358.41,1063.65 1365.27,1057.6 1372.13,1051.64 1378.98,1045.74 1385.84,1039.95 1392.7,1034.21 1399.56,1028.53 1406.42,1023.03 1413.28,1017.77 1420.14,1012.71 1427,1007.78 1433.86,1002.95 1440.72,998.295 1447.57,993.781 1454.43,989.348 1461.29,985.002 1468.15,980.821 1475.01,976.752 1481.87,972.636 1488.73,968.556 1495.59,964.56 1502.45,960.6 1509.31,956.641 1516.16,952.647 1523.02,948.668 1529.88,944.767 1536.74,940.905 1543.6,937.046 1550.46,933.207 1557.32,929.348 1564.18,925.471 1571.04,921.605 1577.9,917.756 1584.75,913.912 1591.61,909.992 1598.47,906.023 1605.33,902.065 1612.19,898.129 1619.05,894.161 1625.91,890.109 1632.77,886.005 1639.63,881.801 1646.49,877.503 1653.34,873.128 1660.2,868.701 1667.06,864.229 1673.92,859.706 1680.78,855.165 1687.64,850.602 1694.5,845.995 1701.36,841.395 1708.22,836.838 1715.08,832.298 1721.93,827.793 1728.79,823.358 1735.65,818.997 1742.51,814.679 1749.37,810.347 1756.23,806.031 1763.09,801.797 1769.95,797.65 1776.81,793.593 1783.67,789.732 1790.52,786.037 1797.38,782.425 1804.24,778.858 1811.1,775.368 1817.96,772.027 1824.82,768.806 1831.68,765.649 1838.54,762.53 1845.4,759.44 1852.26,756.474 1859.11,753.641 1865.97,750.904 1872.83,748.281 1879.69,745.82 1886.55,743.449 1893.41,741.178 1900.27,739.101 1907.13,737.22 1913.99,735.499 1920.85,733.907 1927.7,732.407 1934.56,730.98 1941.42,729.636 1948.28,728.306 1955.14,726.994 1962,725.766 1968.86,724.671 1975.72,723.754 1982.58,723.042 1989.44,722.503 1996.29,722.087 2003.15,721.801 2010.01,721.725 2016.87,721.819 2023.73,722.009 2030.59,722.335 2037.45,722.798 2044.31,723.405 2051.17,724.137 2058.02,724.98 2064.88,725.936 2071.74,726.983 2078.6,728.101 2085.46,729.277 2092.32,730.518 2099.18,731.793 2106.04,733.074 2112.9,734.298 2119.76,735.422 2126.61,736.445 2133.47,737.405 2140.33,738.351 2147.19,739.269 2154.05,740.043 2160.91,740.781 2167.77,741.547 2174.63,742.215 2181.49,742.762 2188.35,743.418 2195.2,744.292 2202.06,744.814 2208.92,744.914 2215.78,745.088 2222.64,745.262 2229.5,745.399 2236.36,744.871 2243.22,743.8 2250.08,742.574 2256.94,740.875 2263.79,738.505 2270.65,736.106 2277.51,733.678 2284.37,730.825 2291.23,727.356 "/>
<path clip-path="url(#clip610)" d="M2010.47 250.738 L2280.29 250.738 L2280.29 95.2176 L2010.47 95.2176  Z" fill="#ffffff" fill-rule="evenodd" fill-opacity="1"/>
<polyline clip-path="url(#clip610)" style="stroke:#000000; stroke-linecap:round; stroke-linejoin:round; stroke-width:4; stroke-opacity:1; fill:none" points="2010.47,250.738 2280.29,250.738 2280.29,95.2176 2010.47,95.2176 2010.47,250.738 "/>
<polyline clip-path="url(#clip610)" style="stroke:#009af9; stroke-linecap:round; stroke-linejoin:round; stroke-width:4; stroke-opacity:1; fill:none" points="2034.63,147.058 2179.55,147.058 "/>
<path clip-path="url(#clip610)" d="M2217.55 166.745 Q2215.75 171.375 2214.03 172.787 Q2212.32 174.199 2209.45 174.199 L2206.05 174.199 L2206.05 170.634 L2208.55 170.634 Q2210.31 170.634 2211.28 169.8 Q2212.25 168.967 2213.43 165.865 L2214.19 163.921 L2203.71 138.412 L2208.22 138.412 L2216.32 158.689 L2224.43 138.412 L2228.94 138.412 L2217.55 166.745 Z" fill="#000000" fill-rule="nonzero" fill-opacity="1" /><path clip-path="url(#clip610)" d="M2236.23 160.402 L2243.87 160.402 L2243.87 134.037 L2235.56 135.703 L2235.56 131.444 L2243.82 129.778 L2248.5 129.778 L2248.5 160.402 L2256.14 160.402 L2256.14 164.338 L2236.23 164.338 L2236.23 160.402 Z" fill="#000000" fill-rule="nonzero" fill-opacity="1" /><polyline clip-path="url(#clip610)" style="stroke:#e26f46; stroke-linecap:round; stroke-linejoin:round; stroke-width:4; stroke-opacity:1; fill:none" points="2034.63,198.898 2179.55,198.898 "/>
<path clip-path="url(#clip610)" d="M2217.55 218.585 Q2215.75 223.215 2214.03 224.627 Q2212.32 226.039 2209.45 226.039 L2206.05 226.039 L2206.05 222.474 L2208.55 222.474 Q2210.31 222.474 2211.28 221.64 Q2212.25 220.807 2213.43 217.705 L2214.19 215.761 L2203.71 190.252 L2208.22 190.252 L2216.32 210.529 L2224.43 190.252 L2228.94 190.252 L2217.55 218.585 Z" fill="#000000" fill-rule="nonzero" fill-opacity="1" /><path clip-path="url(#clip610)" d="M2239.45 212.242 L2255.77 212.242 L2255.77 216.178 L2233.82 216.178 L2233.82 212.242 Q2236.49 209.488 2241.07 204.858 Q2245.68 200.205 2246.86 198.863 Q2249.1 196.34 2249.98 194.604 Q2250.88 192.844 2250.88 191.155 Q2250.88 188.4 2248.94 186.664 Q2247.02 184.928 2243.92 184.928 Q2241.72 184.928 2239.26 185.692 Q2236.83 186.455 2234.06 188.006 L2234.06 183.284 Q2236.88 182.15 2239.33 181.571 Q2241.79 180.993 2243.82 180.993 Q2249.19 180.993 2252.39 183.678 Q2255.58 186.363 2255.58 190.854 Q2255.58 192.983 2254.77 194.905 Q2253.99 196.803 2251.88 199.395 Q2251.3 200.067 2248.2 203.284 Q2245.1 206.479 2239.45 212.242 Z" fill="#000000" fill-rule="nonzero" fill-opacity="1" /></svg>
