<?xml version="1.0" encoding="utf-8"?>
<svg xmlns="http://www.w3.org/2000/svg" xmlns:xlink="http://www.w3.org/1999/xlink" width="600" height="400" viewBox="0 0 2400 1600">
<defs>
  <clipPath id="clip120">
    <rect x="0" y="0" width="2400" height="1600"/>
  </clipPath>
</defs>
<path clip-path="url(#clip120)" d="M0 1600 L2400 1600 L2400 0 L0 0  Z" fill="#ffffff" fill-rule="evenodd" fill-opacity="1"/>
<defs>
  <clipPath id="clip121">
    <rect x="480" y="0" width="1681" height="1600"/>
  </clipPath>
</defs>
<path clip-path="url(#clip120)" d="M149.191 1486.45 L2352.76 1486.45 L2352.76 47.2441 L149.191 47.2441  Z" fill="#ffffff" fill-rule="evenodd" fill-opacity="1"/>
<defs>
  <clipPath id="clip122">
    <rect x="149" y="47" width="2205" height="1440"/>
  </clipPath>
</defs>
<polyline clip-path="url(#clip122)" style="stroke:#000000; stroke-linecap:round; stroke-linejoin:round; stroke-width:2; stroke-opacity:0.1; fill:none" points="211.556,1486.45 211.556,47.2441 "/>
<polyline clip-path="url(#clip122)" style="stroke:#000000; stroke-linecap:round; stroke-linejoin:round; stroke-width:2; stroke-opacity:0.1; fill:none" points="731.265,1486.45 731.265,47.2441 "/>
<polyline clip-path="url(#clip122)" style="stroke:#000000; stroke-linecap:round; stroke-linejoin:round; stroke-width:2; stroke-opacity:0.1; fill:none" points="1250.97,1486.45 1250.97,47.2441 "/>
<polyline clip-path="url(#clip122)" style="stroke:#000000; stroke-linecap:round; stroke-linejoin:round; stroke-width:2; stroke-opacity:0.1; fill:none" points="1770.68,1486.45 1770.68,47.2441 "/>
<polyline clip-path="url(#clip122)" style="stroke:#000000; stroke-linecap:round; stroke-linejoin:round; stroke-width:2; stroke-opacity:0.1; fill:none" points="2290.39,1486.45 2290.39,47.2441 "/>
<polyline clip-path="url(#clip122)" style="stroke:#000000; stroke-linecap:round; stroke-linejoin:round; stroke-width:2; stroke-opacity:0.1; fill:none" points="149.191,1285.82 2352.76,1285.82 "/>
<polyline clip-path="url(#clip122)" style="stroke:#000000; stroke-linecap:round; stroke-linejoin:round; stroke-width:2; stroke-opacity:0.1; fill:none" points="149.191,933.631 2352.76,933.631 "/>
<polyline clip-path="url(#clip122)" style="stroke:#000000; stroke-linecap:round; stroke-linejoin:round; stroke-width:2; stroke-opacity:0.1; fill:none" points="149.191,581.446 2352.76,581.446 "/>
<polyline clip-path="url(#clip122)" style="stroke:#000000; stroke-linecap:round; stroke-linejoin:round; stroke-width:2; stroke-opacity:0.1; fill:none" points="149.191,229.261 2352.76,229.261 "/>
<polyline clip-path="url(#clip120)" style="stroke:#000000; stroke-linecap:round; stroke-linejoin:round; stroke-width:4; stroke-opacity:1; fill:none" points="149.191,1486.45 2352.76,1486.45 "/>
<polyline clip-path="url(#clip120)" style="stroke:#000000; stroke-linecap:round; stroke-linejoin:round; stroke-width:4; stroke-opacity:1; fill:none" points="211.556,1486.45 211.556,1467.55 "/>
<polyline clip-path="url(#clip120)" style="stroke:#000000; stroke-linecap:round; stroke-linejoin:round; stroke-width:4; stroke-opacity:1; fill:none" points="731.265,1486.45 731.265,1467.55 "/>
<polyline clip-path="url(#clip120)" style="stroke:#000000; stroke-linecap:round; stroke-linejoin:round; stroke-width:4; stroke-opacity:1; fill:none" points="1250.97,1486.45 1250.97,1467.55 "/>
<polyline clip-path="url(#clip120)" style="stroke:#000000; stroke-linecap:round; stroke-linejoin:round; stroke-width:4; stroke-opacity:1; fill:none" points="1770.68,1486.45 1770.68,1467.55 "/>
<polyline clip-path="url(#clip120)" style="stroke:#000000; stroke-linecap:round; stroke-linejoin:round; stroke-width:4; stroke-opacity:1; fill:none" points="2290.39,1486.45 2290.39,1467.55 "/>
<path clip-path="url(#clip120)" d="M173.859 1517.37 Q170.248 1517.37 168.42 1520.93 Q166.614 1524.47 166.614 1531.6 Q166.614 1538.71 168.42 1542.27 Q170.248 1545.82 173.859 1545.82 Q177.494 1545.82 179.299 1542.27 Q181.128 1538.71 181.128 1531.6 Q181.128 1524.47 179.299 1520.93 Q177.494 1517.37 173.859 1517.37 M173.859 1513.66 Q179.67 1513.66 182.725 1518.27 Q185.804 1522.85 185.804 1531.6 Q185.804 1540.33 182.725 1544.94 Q179.67 1549.52 173.859 1549.52 Q168.049 1549.52 164.971 1544.94 Q161.915 1540.33 161.915 1531.6 Q161.915 1522.85 164.971 1518.27 Q168.049 1513.66 173.859 1513.66 Z" fill="#000000" fill-rule="nonzero" fill-opacity="1" /><path clip-path="url(#clip120)" d="M194.021 1542.97 L198.906 1542.97 L198.906 1548.85 L194.021 1548.85 L194.021 1542.97 Z" fill="#000000" fill-rule="nonzero" fill-opacity="1" /><path clip-path="url(#clip120)" d="M219.091 1517.37 Q215.48 1517.37 213.651 1520.93 Q211.845 1524.47 211.845 1531.6 Q211.845 1538.71 213.651 1542.27 Q215.48 1545.82 219.091 1545.82 Q222.725 1545.82 224.53 1542.27 Q226.359 1538.71 226.359 1531.6 Q226.359 1524.47 224.53 1520.93 Q222.725 1517.37 219.091 1517.37 M219.091 1513.66 Q224.901 1513.66 227.956 1518.27 Q231.035 1522.85 231.035 1531.6 Q231.035 1540.33 227.956 1544.94 Q224.901 1549.52 219.091 1549.52 Q213.28 1549.52 210.202 1544.94 Q207.146 1540.33 207.146 1531.6 Q207.146 1522.85 210.202 1518.27 Q213.28 1513.66 219.091 1513.66 Z" fill="#000000" fill-rule="nonzero" fill-opacity="1" /><path clip-path="url(#clip120)" d="M249.252 1517.37 Q245.641 1517.37 243.813 1520.93 Q242.007 1524.47 242.007 1531.6 Q242.007 1538.71 243.813 1542.27 Q245.641 1545.82 249.252 1545.82 Q252.887 1545.82 254.692 1542.27 Q256.521 1538.71 256.521 1531.6 Q256.521 1524.47 254.692 1520.93 Q252.887 1517.37 249.252 1517.37 M249.252 1513.66 Q255.063 1513.66 258.118 1518.27 Q261.197 1522.85 261.197 1531.6 Q261.197 1540.33 258.118 1544.94 Q255.063 1549.52 249.252 1549.52 Q243.442 1549.52 240.364 1544.94 Q237.308 1540.33 237.308 1531.6 Q237.308 1522.85 240.364 1518.27 Q243.442 1513.66 249.252 1513.66 Z" fill="#000000" fill-rule="nonzero" fill-opacity="1" /><path clip-path="url(#clip120)" d="M694.066 1517.37 Q690.455 1517.37 688.626 1520.93 Q686.82 1524.47 686.82 1531.6 Q686.82 1538.71 688.626 1542.27 Q690.455 1545.82 694.066 1545.82 Q697.7 1545.82 699.506 1542.27 Q701.334 1538.71 701.334 1531.6 Q701.334 1524.47 699.506 1520.93 Q697.7 1517.37 694.066 1517.37 M694.066 1513.66 Q699.876 1513.66 702.931 1518.27 Q706.01 1522.85 706.01 1531.6 Q706.01 1540.33 702.931 1544.94 Q699.876 1549.52 694.066 1549.52 Q688.256 1549.52 685.177 1544.94 Q682.121 1540.33 682.121 1531.6 Q682.121 1522.85 685.177 1518.27 Q688.256 1513.66 694.066 1513.66 Z" fill="#000000" fill-rule="nonzero" fill-opacity="1" /><path clip-path="url(#clip120)" d="M714.228 1542.97 L719.112 1542.97 L719.112 1548.85 L714.228 1548.85 L714.228 1542.97 Z" fill="#000000" fill-rule="nonzero" fill-opacity="1" /><path clip-path="url(#clip120)" d="M733.325 1544.91 L749.644 1544.91 L749.644 1548.85 L727.7 1548.85 L727.7 1544.91 Q730.362 1542.16 734.945 1537.53 Q739.552 1532.88 740.732 1531.53 Q742.978 1529.01 743.857 1527.27 Q744.76 1525.51 744.76 1523.82 Q744.76 1521.07 742.816 1519.33 Q740.894 1517.6 737.792 1517.6 Q735.593 1517.6 733.14 1518.36 Q730.709 1519.13 727.931 1520.68 L727.931 1515.95 Q730.755 1514.82 733.209 1514.24 Q735.663 1513.66 737.7 1513.66 Q743.07 1513.66 746.265 1516.35 Q749.459 1519.03 749.459 1523.52 Q749.459 1525.65 748.649 1527.57 Q747.862 1529.47 745.755 1532.07 Q745.177 1532.74 742.075 1535.95 Q738.973 1539.15 733.325 1544.91 Z" fill="#000000" fill-rule="nonzero" fill-opacity="1" /><path clip-path="url(#clip120)" d="M759.505 1514.29 L777.862 1514.29 L777.862 1518.22 L763.788 1518.22 L763.788 1526.7 Q764.806 1526.35 765.825 1526.19 Q766.843 1526 767.862 1526 Q773.649 1526 777.028 1529.17 Q780.408 1532.34 780.408 1537.76 Q780.408 1543.34 776.936 1546.44 Q773.463 1549.52 767.144 1549.52 Q764.968 1549.52 762.7 1549.15 Q760.454 1548.78 758.047 1548.04 L758.047 1543.34 Q760.13 1544.47 762.352 1545.03 Q764.575 1545.58 767.051 1545.58 Q771.056 1545.58 773.394 1543.48 Q775.732 1541.37 775.732 1537.76 Q775.732 1534.15 773.394 1532.04 Q771.056 1529.94 767.051 1529.94 Q765.177 1529.94 763.302 1530.35 Q761.45 1530.77 759.505 1531.65 L759.505 1514.29 Z" fill="#000000" fill-rule="nonzero" fill-opacity="1" /><path clip-path="url(#clip120)" d="M1213.28 1517.37 Q1209.67 1517.37 1207.84 1520.93 Q1206.03 1524.47 1206.03 1531.6 Q1206.03 1538.71 1207.84 1542.27 Q1209.67 1545.82 1213.28 1545.82 Q1216.91 1545.82 1218.72 1542.27 Q1220.55 1538.71 1220.55 1531.6 Q1220.55 1524.47 1218.72 1520.93 Q1216.91 1517.37 1213.28 1517.37 M1213.28 1513.66 Q1219.09 1513.66 1222.14 1518.27 Q1225.22 1522.85 1225.22 1531.6 Q1225.22 1540.33 1222.14 1544.94 Q1219.09 1549.52 1213.28 1549.52 Q1207.47 1549.52 1204.39 1544.94 Q1201.33 1540.33 1201.33 1531.6 Q1201.33 1522.85 1204.39 1518.27 Q1207.47 1513.66 1213.28 1513.66 Z" fill="#000000" fill-rule="nonzero" fill-opacity="1" /><path clip-path="url(#clip120)" d="M1233.44 1542.97 L1238.32 1542.97 L1238.32 1548.85 L1233.44 1548.85 L1233.44 1542.97 Z" fill="#000000" fill-rule="nonzero" fill-opacity="1" /><path clip-path="url(#clip120)" d="M1248.55 1514.29 L1266.91 1514.29 L1266.91 1518.22 L1252.84 1518.22 L1252.84 1526.7 Q1253.86 1526.35 1254.87 1526.19 Q1255.89 1526 1256.91 1526 Q1262.7 1526 1266.08 1529.17 Q1269.46 1532.34 1269.46 1537.76 Q1269.46 1543.34 1265.98 1546.44 Q1262.51 1549.52 1256.19 1549.52 Q1254.02 1549.52 1251.75 1549.15 Q1249.5 1548.78 1247.1 1548.04 L1247.1 1543.34 Q1249.18 1544.47 1251.4 1545.03 Q1253.62 1545.58 1256.1 1545.58 Q1260.11 1545.58 1262.44 1543.48 Q1264.78 1541.37 1264.78 1537.76 Q1264.78 1534.15 1262.44 1532.04 Q1260.11 1529.94 1256.1 1529.94 Q1254.23 1529.94 1252.35 1530.35 Q1250.5 1530.77 1248.55 1531.65 L1248.55 1514.29 Z" fill="#000000" fill-rule="nonzero" fill-opacity="1" /><path clip-path="url(#clip120)" d="M1288.67 1517.37 Q1285.06 1517.37 1283.23 1520.93 Q1281.42 1524.47 1281.42 1531.6 Q1281.42 1538.71 1283.23 1542.27 Q1285.06 1545.82 1288.67 1545.82 Q1292.3 1545.82 1294.11 1542.27 Q1295.94 1538.71 1295.94 1531.6 Q1295.94 1524.47 1294.11 1520.93 Q1292.3 1517.37 1288.67 1517.37 M1288.67 1513.66 Q1294.48 1513.66 1297.54 1518.27 Q1300.61 1522.85 1300.61 1531.6 Q1300.61 1540.33 1297.54 1544.94 Q1294.48 1549.52 1288.67 1549.52 Q1282.86 1549.52 1279.78 1544.94 Q1276.73 1540.33 1276.73 1531.6 Q1276.73 1522.85 1279.78 1518.27 Q1282.86 1513.66 1288.67 1513.66 Z" fill="#000000" fill-rule="nonzero" fill-opacity="1" /><path clip-path="url(#clip120)" d="M1733.48 1517.37 Q1729.87 1517.37 1728.04 1520.93 Q1726.24 1524.47 1726.24 1531.6 Q1726.24 1538.71 1728.04 1542.27 Q1729.87 1545.82 1733.48 1545.82 Q1737.12 1545.82 1738.92 1542.27 Q1740.75 1538.71 1740.75 1531.6 Q1740.75 1524.47 1738.92 1520.93 Q1737.12 1517.37 1733.48 1517.37 M1733.48 1513.66 Q1739.29 1513.66 1742.35 1518.27 Q1745.43 1522.85 1745.43 1531.6 Q1745.43 1540.33 1742.35 1544.94 Q1739.29 1549.52 1733.48 1549.52 Q1727.67 1549.52 1724.59 1544.94 Q1721.54 1540.33 1721.54 1531.6 Q1721.54 1522.85 1724.59 1518.27 Q1727.67 1513.66 1733.48 1513.66 Z" fill="#000000" fill-rule="nonzero" fill-opacity="1" /><path clip-path="url(#clip120)" d="M1753.65 1542.97 L1758.53 1542.97 L1758.53 1548.85 L1753.65 1548.85 L1753.65 1542.97 Z" fill="#000000" fill-rule="nonzero" fill-opacity="1" /><path clip-path="url(#clip120)" d="M1767.53 1514.29 L1789.76 1514.29 L1789.76 1516.28 L1777.21 1548.85 L1772.33 1548.85 L1784.13 1518.22 L1767.53 1518.22 L1767.53 1514.29 Z" fill="#000000" fill-rule="nonzero" fill-opacity="1" /><path clip-path="url(#clip120)" d="M1798.92 1514.29 L1817.28 1514.29 L1817.28 1518.22 L1803.21 1518.22 L1803.21 1526.7 Q1804.22 1526.35 1805.24 1526.19 Q1806.26 1526 1807.28 1526 Q1813.07 1526 1816.45 1529.17 Q1819.83 1532.34 1819.83 1537.76 Q1819.83 1543.34 1816.35 1546.44 Q1812.88 1549.52 1806.56 1549.52 Q1804.39 1549.52 1802.12 1549.15 Q1799.87 1548.78 1797.46 1548.04 L1797.46 1543.34 Q1799.55 1544.47 1801.77 1545.03 Q1803.99 1545.58 1806.47 1545.58 Q1810.47 1545.58 1812.81 1543.48 Q1815.15 1541.37 1815.15 1537.76 Q1815.15 1534.15 1812.81 1532.04 Q1810.47 1529.94 1806.47 1529.94 Q1804.59 1529.94 1802.72 1530.35 Q1800.87 1530.77 1798.92 1531.65 L1798.92 1514.29 Z" fill="#000000" fill-rule="nonzero" fill-opacity="1" /><path clip-path="url(#clip120)" d="M2242.46 1544.91 L2250.1 1544.91 L2250.1 1518.55 L2241.79 1520.21 L2241.79 1515.95 L2250.06 1514.29 L2254.73 1514.29 L2254.73 1544.91 L2262.37 1544.91 L2262.37 1548.85 L2242.46 1548.85 L2242.46 1544.91 Z" fill="#000000" fill-rule="nonzero" fill-opacity="1" /><path clip-path="url(#clip120)" d="M2271.81 1542.97 L2276.7 1542.97 L2276.7 1548.85 L2271.81 1548.85 L2271.81 1542.97 Z" fill="#000000" fill-rule="nonzero" fill-opacity="1" /><path clip-path="url(#clip120)" d="M2296.88 1517.37 Q2293.27 1517.37 2291.44 1520.93 Q2289.64 1524.47 2289.64 1531.6 Q2289.64 1538.71 2291.44 1542.27 Q2293.27 1545.82 2296.88 1545.82 Q2300.52 1545.82 2302.32 1542.27 Q2304.15 1538.71 2304.15 1531.6 Q2304.15 1524.47 2302.32 1520.93 Q2300.52 1517.37 2296.88 1517.37 M2296.88 1513.66 Q2302.69 1513.66 2305.75 1518.27 Q2308.83 1522.85 2308.83 1531.6 Q2308.83 1540.33 2305.75 1544.94 Q2302.69 1549.52 2296.88 1549.52 Q2291.07 1549.52 2288 1544.94 Q2284.94 1540.33 2284.94 1531.6 Q2284.94 1522.85 2288 1518.27 Q2291.07 1513.66 2296.88 1513.66 Z" fill="#000000" fill-rule="nonzero" fill-opacity="1" /><path clip-path="url(#clip120)" d="M2327.05 1517.37 Q2323.43 1517.37 2321.61 1520.93 Q2319.8 1524.47 2319.8 1531.6 Q2319.8 1538.71 2321.61 1542.27 Q2323.43 1545.82 2327.05 1545.82 Q2330.68 1545.82 2332.49 1542.27 Q2334.31 1538.71 2334.31 1531.6 Q2334.31 1524.47 2332.49 1520.93 Q2330.68 1517.37 2327.05 1517.37 M2327.05 1513.66 Q2332.86 1513.66 2335.91 1518.27 Q2338.99 1522.85 2338.99 1531.6 Q2338.99 1540.33 2335.91 1544.94 Q2332.86 1549.52 2327.05 1549.52 Q2321.24 1549.52 2318.16 1544.94 Q2315.1 1540.33 2315.1 1531.6 Q2315.1 1522.85 2318.16 1518.27 Q2321.24 1513.66 2327.05 1513.66 Z" fill="#000000" fill-rule="nonzero" fill-opacity="1" /><polyline clip-path="url(#clip120)" style="stroke:#000000; stroke-linecap:round; stroke-linejoin:round; stroke-width:4; stroke-opacity:1; fill:none" points="149.191,1486.45 149.191,47.2441 "/>
<polyline clip-path="url(#clip120)" style="stroke:#000000; stroke-linecap:round; stroke-linejoin:round; stroke-width:4; stroke-opacity:1; fill:none" points="149.191,1285.82 168.089,1285.82 "/>
<polyline clip-path="url(#clip120)" style="stroke:#000000; stroke-linecap:round; stroke-linejoin:round; stroke-width:4; stroke-opacity:1; fill:none" points="149.191,933.631 168.089,933.631 "/>
<polyline clip-path="url(#clip120)" style="stroke:#000000; stroke-linecap:round; stroke-linejoin:round; stroke-width:4; stroke-opacity:1; fill:none" points="149.191,581.446 168.089,581.446 "/>
<polyline clip-path="url(#clip120)" style="stroke:#000000; stroke-linecap:round; stroke-linejoin:round; stroke-width:4; stroke-opacity:1; fill:none" points="149.191,229.261 168.089,229.261 "/>
<path clip-path="url(#clip120)" d="M50.9921 1286.27 L80.6679 1286.27 L80.6679 1290.2 L50.9921 1290.2 L50.9921 1286.27 Z" fill="#000000" fill-rule="nonzero" fill-opacity="1" /><path clip-path="url(#clip120)" d="M103.608 1272.61 L91.8021 1291.06 L103.608 1291.06 L103.608 1272.61 M102.381 1268.54 L108.26 1268.54 L108.26 1291.06 L113.191 1291.06 L113.191 1294.95 L108.26 1294.95 L108.26 1303.1 L103.608 1303.1 L103.608 1294.95 L88.0058 1294.95 L88.0058 1290.43 L102.381 1268.54 Z" fill="#000000" fill-rule="nonzero" fill-opacity="1" /><path clip-path="url(#clip120)" d="M53.0754 934.082 L82.7512 934.082 L82.7512 938.017 L53.0754 938.017 L53.0754 934.082 Z" fill="#000000" fill-rule="nonzero" fill-opacity="1" /><path clip-path="url(#clip120)" d="M96.8715 946.976 L113.191 946.976 L113.191 950.911 L91.2465 950.911 L91.2465 946.976 Q93.9086 944.221 98.4919 939.591 Q103.098 934.939 104.279 933.596 Q106.524 931.073 107.404 929.337 Q108.307 927.577 108.307 925.888 Q108.307 923.133 106.362 921.397 Q104.441 919.661 101.339 919.661 Q99.14 919.661 96.6863 920.425 Q94.2558 921.189 91.478 922.74 L91.478 918.017 Q94.3021 916.883 96.7558 916.304 Q99.2095 915.726 101.246 915.726 Q106.617 915.726 109.811 918.411 Q113.006 921.096 113.006 925.587 Q113.006 927.716 112.196 929.638 Q111.408 931.536 109.302 934.128 Q108.723 934.8 105.621 938.017 Q102.52 941.212 96.8715 946.976 Z" fill="#000000" fill-rule="nonzero" fill-opacity="1" /><path clip-path="url(#clip120)" d="M101.246 567.244 Q97.6354 567.244 95.8067 570.809 Q94.0012 574.351 94.0012 581.48 Q94.0012 588.587 95.8067 592.152 Q97.6354 595.693 101.246 595.693 Q104.881 595.693 106.686 592.152 Q108.515 588.587 108.515 581.48 Q108.515 574.351 106.686 570.809 Q104.881 567.244 101.246 567.244 M101.246 563.541 Q107.057 563.541 110.112 568.147 Q113.191 572.73 113.191 581.48 Q113.191 590.207 110.112 594.814 Q107.057 599.397 101.246 599.397 Q95.4363 599.397 92.3576 594.814 Q89.3021 590.207 89.3021 581.48 Q89.3021 572.73 92.3576 568.147 Q95.4363 563.541 101.246 563.541 Z" fill="#000000" fill-rule="nonzero" fill-opacity="1" /><path clip-path="url(#clip120)" d="M96.8715 242.606 L113.191 242.606 L113.191 246.541 L91.2465 246.541 L91.2465 242.606 Q93.9086 239.851 98.4919 235.221 Q103.098 230.569 104.279 229.226 Q106.524 226.703 107.404 224.967 Q108.307 223.207 108.307 221.518 Q108.307 218.763 106.362 217.027 Q104.441 215.291 101.339 215.291 Q99.14 215.291 96.6863 216.055 Q94.2558 216.819 91.478 218.37 L91.478 213.647 Q94.3021 212.513 96.7558 211.934 Q99.2095 211.356 101.246 211.356 Q106.617 211.356 109.811 214.041 Q113.006 216.726 113.006 221.217 Q113.006 223.346 112.196 225.268 Q111.408 227.166 109.302 229.758 Q108.723 230.43 105.621 233.647 Q102.52 236.842 96.8715 242.606 Z" fill="#000000" fill-rule="nonzero" fill-opacity="1" /><circle clip-path="url(#clip122)" cx="211.556" cy="229.261" r="14.4" fill="#009af9" fill-rule="evenodd" fill-opacity="1" stroke="#000000" stroke-opacity="1" stroke-width="3.2"/>
<circle clip-path="url(#clip122)" cx="283.24" cy="245.424" r="14.4" fill="#009af9" fill-rule="evenodd" fill-opacity="1" stroke="#000000" stroke-opacity="1" stroke-width="3.2"/>
<circle clip-path="url(#clip122)" cx="354.924" cy="259.354" r="14.4" fill="#009af9" fill-rule="evenodd" fill-opacity="1" stroke="#000000" stroke-opacity="1" stroke-width="3.2"/>
<circle clip-path="url(#clip122)" cx="426.608" cy="293.579" r="14.4" fill="#009af9" fill-rule="evenodd" fill-opacity="1" stroke="#000000" stroke-opacity="1" stroke-width="3.2"/>
<circle clip-path="url(#clip122)" cx="498.292" cy="348.215" r="14.4" fill="#009af9" fill-rule="evenodd" fill-opacity="1" stroke="#000000" stroke-opacity="1" stroke-width="3.2"/>
<circle clip-path="url(#clip122)" cx="569.976" cy="415.493" r="14.4" fill="#009af9" fill-rule="evenodd" fill-opacity="1" stroke="#000000" stroke-opacity="1" stroke-width="3.2"/>
<circle clip-path="url(#clip122)" cx="641.66" cy="486.649" r="14.4" fill="#009af9" fill-rule="evenodd" fill-opacity="1" stroke="#000000" stroke-opacity="1" stroke-width="3.2"/>
<circle clip-path="url(#clip122)" cx="713.344" cy="556.117" r="14.4" fill="#009af9" fill-rule="evenodd" fill-opacity="1" stroke="#000000" stroke-opacity="1" stroke-width="3.2"/>
<circle clip-path="url(#clip122)" cx="785.028" cy="620.005" r="14.4" fill="#009af9" fill-rule="evenodd" fill-opacity="1" stroke="#000000" stroke-opacity="1" stroke-width="3.2"/>
<circle clip-path="url(#clip122)" cx="856.712" cy="675.496" r="14.4" fill="#009af9" fill-rule="evenodd" fill-opacity="1" stroke="#000000" stroke-opacity="1" stroke-width="3.2"/>
<circle clip-path="url(#clip122)" cx="928.396" cy="720.98" r="14.4" fill="#009af9" fill-rule="evenodd" fill-opacity="1" stroke="#000000" stroke-opacity="1" stroke-width="3.2"/>
<circle clip-path="url(#clip122)" cx="1000.08" cy="756.081" r="14.4" fill="#009af9" fill-rule="evenodd" fill-opacity="1" stroke="#000000" stroke-opacity="1" stroke-width="3.2"/>
<circle clip-path="url(#clip122)" cx="1071.76" cy="781.212" r="14.4" fill="#009af9" fill-rule="evenodd" fill-opacity="1" stroke="#000000" stroke-opacity="1" stroke-width="3.2"/>
<circle clip-path="url(#clip122)" cx="1143.45" cy="797.197" r="14.4" fill="#009af9" fill-rule="evenodd" fill-opacity="1" stroke="#000000" stroke-opacity="1" stroke-width="3.2"/>
<circle clip-path="url(#clip122)" cx="1215.13" cy="805.02" r="14.4" fill="#009af9" fill-rule="evenodd" fill-opacity="1" stroke="#000000" stroke-opacity="1" stroke-width="3.2"/>
<circle clip-path="url(#clip122)" cx="1286.82" cy="805.904" r="14.4" fill="#009af9" fill-rule="evenodd" fill-opacity="1" stroke="#000000" stroke-opacity="1" stroke-width="3.2"/>
<circle clip-path="url(#clip122)" cx="1358.5" cy="800.686" r="14.4" fill="#009af9" fill-rule="evenodd" fill-opacity="1" stroke="#000000" stroke-opacity="1" stroke-width="3.2"/>
<circle clip-path="url(#clip122)" cx="1430.18" cy="790.202" r="14.4" fill="#009af9" fill-rule="evenodd" fill-opacity="1" stroke="#000000" stroke-opacity="1" stroke-width="3.2"/>
<circle clip-path="url(#clip122)" cx="1501.87" cy="775.386" r="14.4" fill="#009af9" fill-rule="evenodd" fill-opacity="1" stroke="#000000" stroke-opacity="1" stroke-width="3.2"/>
<circle clip-path="url(#clip122)" cx="1573.55" cy="757.502" r="14.4" fill="#009af9" fill-rule="evenodd" fill-opacity="1" stroke="#000000" stroke-opacity="1" stroke-width="3.2"/>
<circle clip-path="url(#clip122)" cx="1645.24" cy="737.172" r="14.4" fill="#009af9" fill-rule="evenodd" fill-opacity="1" stroke="#000000" stroke-opacity="1" stroke-width="3.2"/>
<circle clip-path="url(#clip122)" cx="1716.92" cy="715.465" r="14.4" fill="#009af9" fill-rule="evenodd" fill-opacity="1" stroke="#000000" stroke-opacity="1" stroke-width="3.2"/>
<circle clip-path="url(#clip122)" cx="1788.6" cy="692.953" r="14.4" fill="#009af9" fill-rule="evenodd" fill-opacity="1" stroke="#000000" stroke-opacity="1" stroke-width="3.2"/>
<circle clip-path="url(#clip122)" cx="1860.29" cy="670.346" r="14.4" fill="#009af9" fill-rule="evenodd" fill-opacity="1" stroke="#000000" stroke-opacity="1" stroke-width="3.2"/>
<circle clip-path="url(#clip122)" cx="1931.97" cy="648.493" r="14.4" fill="#009af9" fill-rule="evenodd" fill-opacity="1" stroke="#000000" stroke-opacity="1" stroke-width="3.2"/>
<circle clip-path="url(#clip122)" cx="2003.65" cy="627.472" r="14.4" fill="#009af9" fill-rule="evenodd" fill-opacity="1" stroke="#000000" stroke-opacity="1" stroke-width="3.2"/>
<circle clip-path="url(#clip122)" cx="2075.34" cy="607.742" r="14.4" fill="#009af9" fill-rule="evenodd" fill-opacity="1" stroke="#000000" stroke-opacity="1" stroke-width="3.2"/>
<circle clip-path="url(#clip122)" cx="2147.02" cy="589.733" r="14.4" fill="#009af9" fill-rule="evenodd" fill-opacity="1" stroke="#000000" stroke-opacity="1" stroke-width="3.2"/>
<circle clip-path="url(#clip122)" cx="2218.71" cy="573.772" r="14.4" fill="#009af9" fill-rule="evenodd" fill-opacity="1" stroke="#000000" stroke-opacity="1" stroke-width="3.2"/>
<circle clip-path="url(#clip122)" cx="2290.39" cy="559.689" r="14.4" fill="#009af9" fill-rule="evenodd" fill-opacity="1" stroke="#000000" stroke-opacity="1" stroke-width="3.2"/>
<circle clip-path="url(#clip122)" cx="211.556" cy="229.261" r="14.4" fill="#e26f46" fill-rule="evenodd" fill-opacity="1" stroke="#000000" stroke-opacity="1" stroke-width="3.2"/>
<circle clip-path="url(#clip122)" cx="283.24" cy="219.937" r="14.4" fill="#e26f46" fill-rule="evenodd" fill-opacity="1" stroke="#000000" stroke-opacity="1" stroke-width="3.2"/>
<circle clip-path="url(#clip122)" cx="354.924" cy="275.52" r="14.4" fill="#e26f46" fill-rule="evenodd" fill-opacity="1" stroke="#000000" stroke-opacity="1" stroke-width="3.2"/>
<circle clip-path="url(#clip122)" cx="426.608" cy="87.9763" r="14.4" fill="#e26f46" fill-rule="evenodd" fill-opacity="1" stroke="#000000" stroke-opacity="1" stroke-width="3.2"/>
<circle clip-path="url(#clip122)" cx="498.292" cy="191.723" r="14.4" fill="#e26f46" fill-rule="evenodd" fill-opacity="1" stroke="#000000" stroke-opacity="1" stroke-width="3.2"/>
<circle clip-path="url(#clip122)" cx="569.976" cy="171.552" r="14.4" fill="#e26f46" fill-rule="evenodd" fill-opacity="1" stroke="#000000" stroke-opacity="1" stroke-width="3.2"/>
<circle clip-path="url(#clip122)" cx="641.66" cy="98.5613" r="14.4" fill="#e26f46" fill-rule="evenodd" fill-opacity="1" stroke="#000000" stroke-opacity="1" stroke-width="3.2"/>
<circle clip-path="url(#clip122)" cx="713.344" cy="148.437" r="14.4" fill="#e26f46" fill-rule="evenodd" fill-opacity="1" stroke="#000000" stroke-opacity="1" stroke-width="3.2"/>
<circle clip-path="url(#clip122)" cx="785.028" cy="423.834" r="14.4" fill="#e26f46" fill-rule="evenodd" fill-opacity="1" stroke="#000000" stroke-opacity="1" stroke-width="3.2"/>
<circle clip-path="url(#clip122)" cx="856.712" cy="512.2" r="14.4" fill="#e26f46" fill-rule="evenodd" fill-opacity="1" stroke="#000000" stroke-opacity="1" stroke-width="3.2"/>
<circle clip-path="url(#clip122)" cx="928.396" cy="632.941" r="14.4" fill="#e26f46" fill-rule="evenodd" fill-opacity="1" stroke="#000000" stroke-opacity="1" stroke-width="3.2"/>
<circle clip-path="url(#clip122)" cx="1000.08" cy="822.188" r="14.4" fill="#e26f46" fill-rule="evenodd" fill-opacity="1" stroke="#000000" stroke-opacity="1" stroke-width="3.2"/>
<circle clip-path="url(#clip122)" cx="1071.76" cy="839.905" r="14.4" fill="#e26f46" fill-rule="evenodd" fill-opacity="1" stroke="#000000" stroke-opacity="1" stroke-width="3.2"/>
<circle clip-path="url(#clip122)" cx="1143.45" cy="866.2" r="14.4" fill="#e26f46" fill-rule="evenodd" fill-opacity="1" stroke="#000000" stroke-opacity="1" stroke-width="3.2"/>
<circle clip-path="url(#clip122)" cx="1215.13" cy="991.099" r="14.4" fill="#e26f46" fill-rule="evenodd" fill-opacity="1" stroke="#000000" stroke-opacity="1" stroke-width="3.2"/>
<circle clip-path="url(#clip122)" cx="1286.82" cy="1176.84" r="14.4" fill="#e26f46" fill-rule="evenodd" fill-opacity="1" stroke="#000000" stroke-opacity="1" stroke-width="3.2"/>
<circle clip-path="url(#clip122)" cx="1358.5" cy="1210.29" r="14.4" fill="#e26f46" fill-rule="evenodd" fill-opacity="1" stroke="#000000" stroke-opacity="1" stroke-width="3.2"/>
<circle clip-path="url(#clip122)" cx="1430.18" cy="1246.86" r="14.4" fill="#e26f46" fill-rule="evenodd" fill-opacity="1" stroke="#000000" stroke-opacity="1" stroke-width="3.2"/>
<circle clip-path="url(#clip122)" cx="1501.87" cy="1285.47" r="14.4" fill="#e26f46" fill-rule="evenodd" fill-opacity="1" stroke="#000000" stroke-opacity="1" stroke-width="3.2"/>
<circle clip-path="url(#clip122)" cx="1573.55" cy="1316.03" r="14.4" fill="#e26f46" fill-rule="evenodd" fill-opacity="1" stroke="#000000" stroke-opacity="1" stroke-width="3.2"/>
<circle clip-path="url(#clip122)" cx="1645.24" cy="1339.45" r="14.4" fill="#e26f46" fill-rule="evenodd" fill-opacity="1" stroke="#000000" stroke-opacity="1" stroke-width="3.2"/>
<circle clip-path="url(#clip122)" cx="1716.92" cy="1321.48" r="14.4" fill="#e26f46" fill-rule="evenodd" fill-opacity="1" stroke="#000000" stroke-opacity="1" stroke-width="3.2"/>
<circle clip-path="url(#clip122)" cx="1788.6" cy="1316.05" r="14.4" fill="#e26f46" fill-rule="evenodd" fill-opacity="1" stroke="#000000" stroke-opacity="1" stroke-width="3.2"/>
<circle clip-path="url(#clip122)" cx="1860.29" cy="1337.35" r="14.4" fill="#e26f46" fill-rule="evenodd" fill-opacity="1" stroke="#000000" stroke-opacity="1" stroke-width="3.2"/>
<circle clip-path="url(#clip122)" cx="1931.97" cy="1345.32" r="14.4" fill="#e26f46" fill-rule="evenodd" fill-opacity="1" stroke="#000000" stroke-opacity="1" stroke-width="3.2"/>
<circle clip-path="url(#clip122)" cx="2003.65" cy="1326.72" r="14.4" fill="#e26f46" fill-rule="evenodd" fill-opacity="1" stroke="#000000" stroke-opacity="1" stroke-width="3.2"/>
<circle clip-path="url(#clip122)" cx="2075.34" cy="1314.06" r="14.4" fill="#e26f46" fill-rule="evenodd" fill-opacity="1" stroke="#000000" stroke-opacity="1" stroke-width="3.2"/>
<circle clip-path="url(#clip122)" cx="2147.02" cy="1346.23" r="14.4" fill="#e26f46" fill-rule="evenodd" fill-opacity="1" stroke="#000000" stroke-opacity="1" stroke-width="3.2"/>
<circle clip-path="url(#clip122)" cx="2218.71" cy="1378.39" r="14.4" fill="#e26f46" fill-rule="evenodd" fill-opacity="1" stroke="#000000" stroke-opacity="1" stroke-width="3.2"/>
<circle clip-path="url(#clip122)" cx="2290.39" cy="1445.72" r="14.4" fill="#e26f46" fill-rule="evenodd" fill-opacity="1" stroke="#000000" stroke-opacity="1" stroke-width="3.2"/>
<path clip-path="url(#clip120)" d="M1829.43 250.738 L2279.3 250.738 L2279.3 95.2176 L1829.43 95.2176  Z" fill="#ffffff" fill-rule="evenodd" fill-opacity="1"/>
<polyline clip-path="url(#clip120)" style="stroke:#000000; stroke-linecap:round; stroke-linejoin:round; stroke-width:4; stroke-opacity:1; fill:none" points="1829.43,250.738 2279.3,250.738 2279.3,95.2176 1829.43,95.2176 1829.43,250.738 "/>
<circle clip-path="url(#clip120)" cx="1927.37" cy="147.058" r="20.48" fill="#009af9" fill-rule="evenodd" fill-opacity="1" stroke="#000000" stroke-opacity="1" stroke-width="4.55111"/>
<path clip-path="url(#clip120)" d="M2044.22 142.347 L2044.22 128.319 L2048.48 128.319 L2048.48 164.338 L2044.22 164.338 L2044.22 160.449 Q2042.88 162.763 2040.82 163.898 Q2038.78 165.009 2035.91 165.009 Q2031.21 165.009 2028.25 161.259 Q2025.31 157.509 2025.31 151.398 Q2025.31 145.287 2028.25 141.537 Q2031.21 137.787 2035.91 137.787 Q2038.78 137.787 2040.82 138.921 Q2042.88 140.032 2044.22 142.347 M2029.71 151.398 Q2029.71 156.097 2031.63 158.782 Q2033.57 161.444 2036.95 161.444 Q2040.33 161.444 2042.27 158.782 Q2044.22 156.097 2044.22 151.398 Q2044.22 146.699 2042.27 144.037 Q2040.33 141.352 2036.95 141.352 Q2033.57 141.352 2031.63 144.037 Q2029.71 146.699 2029.71 151.398 Z" fill="#000000" fill-rule="nonzero" fill-opacity="1" /><path clip-path="url(#clip120)" d="M2069.03 151.305 Q2063.87 151.305 2061.88 152.486 Q2059.89 153.666 2059.89 156.514 Q2059.89 158.782 2061.37 160.125 Q2062.88 161.444 2065.45 161.444 Q2068.99 161.444 2071.12 158.944 Q2073.27 156.421 2073.27 152.254 L2073.27 151.305 L2069.03 151.305 M2077.53 149.546 L2077.53 164.338 L2073.27 164.338 L2073.27 160.402 Q2071.81 162.763 2069.64 163.898 Q2067.46 165.009 2064.31 165.009 Q2060.33 165.009 2057.97 162.787 Q2055.63 160.541 2055.63 156.791 Q2055.63 152.416 2058.55 150.194 Q2061.49 147.972 2067.3 147.972 L2073.27 147.972 L2073.27 147.555 Q2073.27 144.615 2071.33 143.018 Q2069.4 141.398 2065.91 141.398 Q2063.69 141.398 2061.58 141.93 Q2059.47 142.463 2057.53 143.527 L2057.53 139.592 Q2059.87 138.69 2062.07 138.25 Q2064.27 137.787 2066.35 137.787 Q2071.97 137.787 2074.75 140.703 Q2077.53 143.62 2077.53 149.546 Z" fill="#000000" fill-rule="nonzero" fill-opacity="1" /><path clip-path="url(#clip120)" d="M2090.52 131.051 L2090.52 138.412 L2099.29 138.412 L2099.29 141.722 L2090.52 141.722 L2090.52 155.796 Q2090.52 158.967 2091.37 159.87 Q2092.25 160.773 2094.91 160.773 L2099.29 160.773 L2099.29 164.338 L2094.91 164.338 Q2089.98 164.338 2088.11 162.509 Q2086.23 160.657 2086.23 155.796 L2086.23 141.722 L2083.11 141.722 L2083.11 138.412 L2086.23 138.412 L2086.23 131.051 L2090.52 131.051 Z" fill="#000000" fill-rule="nonzero" fill-opacity="1" /><path clip-path="url(#clip120)" d="M2116.67 151.305 Q2111.51 151.305 2109.52 152.486 Q2107.53 153.666 2107.53 156.514 Q2107.53 158.782 2109.01 160.125 Q2110.51 161.444 2113.08 161.444 Q2116.63 161.444 2118.76 158.944 Q2120.91 156.421 2120.91 152.254 L2120.91 151.305 L2116.67 151.305 M2125.17 149.546 L2125.17 164.338 L2120.91 164.338 L2120.91 160.402 Q2119.45 162.763 2117.27 163.898 Q2115.1 165.009 2111.95 165.009 Q2107.97 165.009 2105.61 162.787 Q2103.27 160.541 2103.27 156.791 Q2103.27 152.416 2106.19 150.194 Q2109.13 147.972 2114.94 147.972 L2120.91 147.972 L2120.91 147.555 Q2120.91 144.615 2118.96 143.018 Q2117.04 141.398 2113.55 141.398 Q2111.33 141.398 2109.22 141.93 Q2107.11 142.463 2105.17 143.527 L2105.17 139.592 Q2107.51 138.69 2109.7 138.25 Q2111.9 137.787 2113.99 137.787 Q2119.61 137.787 2122.39 140.703 Q2125.17 143.62 2125.17 149.546 Z" fill="#000000" fill-rule="nonzero" fill-opacity="1" /><circle clip-path="url(#clip120)" cx="1927.37" cy="198.898" r="20.48" fill="#e26f46" fill-rule="evenodd" fill-opacity="1" stroke="#000000" stroke-opacity="1" stroke-width="4.55111"/>
<path clip-path="url(#clip120)" d="M2029.59 212.289 L2029.59 226.039 L2025.31 226.039 L2025.31 190.252 L2029.59 190.252 L2029.59 194.187 Q2030.93 191.872 2032.97 190.761 Q2035.03 189.627 2037.88 189.627 Q2042.6 189.627 2045.54 193.377 Q2048.5 197.127 2048.5 203.238 Q2048.5 209.349 2045.54 213.099 Q2042.6 216.849 2037.88 216.849 Q2035.03 216.849 2032.97 215.738 Q2030.93 214.603 2029.59 212.289 M2044.08 203.238 Q2044.08 198.539 2042.14 195.877 Q2040.21 193.192 2036.83 193.192 Q2033.46 193.192 2031.51 195.877 Q2029.59 198.539 2029.59 203.238 Q2029.59 207.937 2031.51 210.622 Q2033.46 213.284 2036.83 213.284 Q2040.21 213.284 2042.14 210.622 Q2044.08 207.937 2044.08 203.238 Z" fill="#000000" fill-rule="nonzero" fill-opacity="1" /><path clip-path="url(#clip120)" d="M2070.58 194.233 Q2069.87 193.817 2069.01 193.631 Q2068.18 193.423 2067.16 193.423 Q2063.55 193.423 2061.6 195.784 Q2059.68 198.122 2059.68 202.52 L2059.68 216.178 L2055.4 216.178 L2055.4 190.252 L2059.68 190.252 L2059.68 194.28 Q2061.02 191.918 2063.18 190.784 Q2065.33 189.627 2068.41 189.627 Q2068.85 189.627 2069.38 189.696 Q2069.91 189.743 2070.56 189.858 L2070.58 194.233 Z" fill="#000000" fill-rule="nonzero" fill-opacity="1" /><path clip-path="url(#clip120)" d="M2096.19 202.15 L2096.19 204.233 L2076.6 204.233 Q2076.88 208.631 2079.24 210.946 Q2081.63 213.238 2085.86 213.238 Q2088.32 213.238 2090.61 212.636 Q2092.92 212.034 2095.19 210.83 L2095.19 214.858 Q2092.9 215.83 2090.49 216.34 Q2088.08 216.849 2085.61 216.849 Q2079.4 216.849 2075.77 213.238 Q2072.16 209.627 2072.16 203.469 Q2072.16 197.104 2075.58 193.377 Q2079.03 189.627 2084.87 189.627 Q2090.1 189.627 2093.13 193.006 Q2096.19 196.363 2096.19 202.15 M2091.93 200.9 Q2091.88 197.405 2089.96 195.321 Q2088.06 193.238 2084.91 193.238 Q2081.35 193.238 2079.2 195.252 Q2077.07 197.266 2076.74 200.923 L2091.93 200.9 Z" fill="#000000" fill-rule="nonzero" fill-opacity="1" /><path clip-path="url(#clip120)" d="M2120.24 194.187 L2120.24 180.159 L2124.5 180.159 L2124.5 216.178 L2120.24 216.178 L2120.24 212.289 Q2118.89 214.603 2116.83 215.738 Q2114.8 216.849 2111.93 216.849 Q2107.23 216.849 2104.26 213.099 Q2101.33 209.349 2101.33 203.238 Q2101.33 197.127 2104.26 193.377 Q2107.23 189.627 2111.93 189.627 Q2114.8 189.627 2116.83 190.761 Q2118.89 191.872 2120.24 194.187 M2105.72 203.238 Q2105.72 207.937 2107.64 210.622 Q2109.59 213.284 2112.97 213.284 Q2116.35 213.284 2118.29 210.622 Q2120.24 207.937 2120.24 203.238 Q2120.24 198.539 2118.29 195.877 Q2116.35 193.192 2112.97 193.192 Q2109.59 193.192 2107.64 195.877 Q2105.72 198.539 2105.72 203.238 Z" fill="#000000" fill-rule="nonzero" fill-opacity="1" /><path clip-path="url(#clip120)" d="M2133.27 190.252 L2137.53 190.252 L2137.53 216.178 L2133.27 216.178 L2133.27 190.252 M2133.27 180.159 L2137.53 180.159 L2137.53 185.553 L2133.27 185.553 L2133.27 180.159 Z" fill="#000000" fill-rule="nonzero" fill-opacity="1" /><path clip-path="url(#clip120)" d="M2165.1 191.247 L2165.1 195.229 Q2163.29 194.233 2161.46 193.747 Q2159.66 193.238 2157.81 193.238 Q2153.66 193.238 2151.37 195.877 Q2149.08 198.492 2149.08 203.238 Q2149.08 207.983 2151.37 210.622 Q2153.66 213.238 2157.81 213.238 Q2159.66 213.238 2161.46 212.752 Q2163.29 212.242 2165.1 211.247 L2165.1 215.182 Q2163.32 216.016 2161.39 216.432 Q2159.5 216.849 2157.34 216.849 Q2151.49 216.849 2148.04 213.168 Q2144.59 209.488 2144.59 203.238 Q2144.59 196.895 2148.06 193.261 Q2151.56 189.627 2157.62 189.627 Q2159.59 189.627 2161.46 190.043 Q2163.34 190.437 2165.1 191.247 Z" fill="#000000" fill-rule="nonzero" fill-opacity="1" /><path clip-path="url(#clip120)" d="M2176.72 182.891 L2176.72 190.252 L2185.49 190.252 L2185.49 193.562 L2176.72 193.562 L2176.72 207.636 Q2176.72 210.807 2177.57 211.71 Q2178.45 212.613 2181.12 212.613 L2185.49 212.613 L2185.49 216.178 L2181.12 216.178 Q2176.19 216.178 2174.31 214.349 Q2172.44 212.497 2172.44 207.636 L2172.44 193.562 L2169.31 193.562 L2169.31 190.252 L2172.44 190.252 L2172.44 182.891 L2176.72 182.891 Z" fill="#000000" fill-rule="nonzero" fill-opacity="1" /><path clip-path="url(#clip120)" d="M2191.09 190.252 L2195.35 190.252 L2195.35 216.178 L2191.09 216.178 L2191.09 190.252 M2191.09 180.159 L2195.35 180.159 L2195.35 185.553 L2191.09 185.553 L2191.09 180.159 Z" fill="#000000" fill-rule="nonzero" fill-opacity="1" /><path clip-path="url(#clip120)" d="M2214.31 193.238 Q2210.88 193.238 2208.89 195.923 Q2206.9 198.585 2206.9 203.238 Q2206.9 207.891 2208.87 210.576 Q2210.86 213.238 2214.31 213.238 Q2217.71 213.238 2219.7 210.553 Q2221.69 207.867 2221.69 203.238 Q2221.69 198.631 2219.7 195.946 Q2217.71 193.238 2214.31 193.238 M2214.31 189.627 Q2219.87 189.627 2223.04 193.238 Q2226.21 196.849 2226.21 203.238 Q2226.21 209.604 2223.04 213.238 Q2219.87 216.849 2214.31 216.849 Q2208.73 216.849 2205.56 213.238 Q2202.41 209.604 2202.41 203.238 Q2202.41 196.849 2205.56 193.238 Q2208.73 189.627 2214.31 189.627 Z" fill="#000000" fill-rule="nonzero" fill-opacity="1" /><path clip-path="url(#clip120)" d="M2254.82 200.529 L2254.82 216.178 L2250.56 216.178 L2250.56 200.668 Q2250.56 196.988 2249.13 195.159 Q2247.69 193.33 2244.82 193.33 Q2241.37 193.33 2239.38 195.53 Q2237.39 197.729 2237.39 201.525 L2237.39 216.178 L2233.11 216.178 L2233.11 190.252 L2237.39 190.252 L2237.39 194.28 Q2238.92 191.942 2240.98 190.784 Q2243.06 189.627 2245.77 189.627 Q2250.24 189.627 2252.53 192.405 Q2254.82 195.159 2254.82 200.529 Z" fill="#000000" fill-rule="nonzero" fill-opacity="1" /></svg>
