<?xml version="1.0" encoding="utf-8"?>
<svg xmlns="http://www.w3.org/2000/svg" xmlns:xlink="http://www.w3.org/1999/xlink" width="600" height="400" viewBox="0 0 2400 1600">
<defs>
  <clipPath id="clip600">
    <rect x="0" y="0" width="2400" height="1600"/>
  </clipPath>
</defs>
<path clip-path="url(#clip600)" d="M0 1600 L2400 1600 L2400 0 L0 0  Z" fill="#ffffff" fill-rule="evenodd" fill-opacity="1"/>
<defs>
  <clipPath id="clip601">
    <rect x="480" y="0" width="1681" height="1600"/>
  </clipPath>
</defs>
<path clip-path="url(#clip600)" d="M178.867 1486.45 L2352.76 1486.45 L2352.76 47.2441 L178.867 47.2441  Z" fill="#ffffff" fill-rule="evenodd" fill-opacity="1"/>
<defs>
  <clipPath id="clip602">
    <rect x="178" y="47" width="2175" height="1440"/>
  </clipPath>
</defs>
<polyline clip-path="url(#clip602)" style="stroke:#000000; stroke-linecap:round; stroke-linejoin:round; stroke-width:2; stroke-opacity:0.1; fill:none" points="240.392,1486.45 240.392,47.2441 "/>
<polyline clip-path="url(#clip602)" style="stroke:#000000; stroke-linecap:round; stroke-linejoin:round; stroke-width:2; stroke-opacity:0.1; fill:none" points="924.005,1486.45 924.005,47.2441 "/>
<polyline clip-path="url(#clip602)" style="stroke:#000000; stroke-linecap:round; stroke-linejoin:round; stroke-width:2; stroke-opacity:0.1; fill:none" points="1607.62,1486.45 1607.62,47.2441 "/>
<polyline clip-path="url(#clip602)" style="stroke:#000000; stroke-linecap:round; stroke-linejoin:round; stroke-width:2; stroke-opacity:0.1; fill:none" points="2291.23,1486.45 2291.23,47.2441 "/>
<polyline clip-path="url(#clip600)" style="stroke:#000000; stroke-linecap:round; stroke-linejoin:round; stroke-width:4; stroke-opacity:1; fill:none" points="178.867,1486.45 2352.76,1486.45 "/>
<polyline clip-path="url(#clip600)" style="stroke:#000000; stroke-linecap:round; stroke-linejoin:round; stroke-width:4; stroke-opacity:1; fill:none" points="240.392,1486.45 240.392,1467.55 "/>
<polyline clip-path="url(#clip600)" style="stroke:#000000; stroke-linecap:round; stroke-linejoin:round; stroke-width:4; stroke-opacity:1; fill:none" points="924.005,1486.45 924.005,1467.55 "/>
<polyline clip-path="url(#clip600)" style="stroke:#000000; stroke-linecap:round; stroke-linejoin:round; stroke-width:4; stroke-opacity:1; fill:none" points="1607.62,1486.45 1607.62,1467.55 "/>
<polyline clip-path="url(#clip600)" style="stroke:#000000; stroke-linecap:round; stroke-linejoin:round; stroke-width:4; stroke-opacity:1; fill:none" points="2291.23,1486.45 2291.23,1467.55 "/>
<path clip-path="url(#clip600)" d="M217.776 1517.37 Q214.165 1517.37 212.336 1520.93 Q210.531 1524.47 210.531 1531.6 Q210.531 1538.71 212.336 1542.27 Q214.165 1545.82 217.776 1545.82 Q221.41 1545.82 223.216 1542.27 Q225.045 1538.71 225.045 1531.6 Q225.045 1524.47 223.216 1520.93 Q221.41 1517.37 217.776 1517.37 M217.776 1513.66 Q223.586 1513.66 226.642 1518.27 Q229.721 1522.85 229.721 1531.6 Q229.721 1540.33 226.642 1544.94 Q223.586 1549.52 217.776 1549.52 Q211.966 1549.52 208.887 1544.94 Q205.832 1540.33 205.832 1531.6 Q205.832 1522.85 208.887 1518.27 Q211.966 1513.66 217.776 1513.66 Z" fill="#000000" fill-rule="nonzero" fill-opacity="1" /><path clip-path="url(#clip600)" d="M237.938 1542.97 L242.822 1542.97 L242.822 1548.85 L237.938 1548.85 L237.938 1542.97 Z" fill="#000000" fill-rule="nonzero" fill-opacity="1" /><path clip-path="url(#clip600)" d="M263.007 1517.37 Q259.396 1517.37 257.568 1520.93 Q255.762 1524.47 255.762 1531.6 Q255.762 1538.71 257.568 1542.27 Q259.396 1545.82 263.007 1545.82 Q266.642 1545.82 268.447 1542.27 Q270.276 1538.71 270.276 1531.6 Q270.276 1524.47 268.447 1520.93 Q266.642 1517.37 263.007 1517.37 M263.007 1513.66 Q268.818 1513.66 271.873 1518.27 Q274.952 1522.85 274.952 1531.6 Q274.952 1540.33 271.873 1544.94 Q268.818 1549.52 263.007 1549.52 Q257.197 1549.52 254.119 1544.94 Q251.063 1540.33 251.063 1531.6 Q251.063 1522.85 254.119 1518.27 Q257.197 1513.66 263.007 1513.66 Z" fill="#000000" fill-rule="nonzero" fill-opacity="1" /><path clip-path="url(#clip600)" d="M901.887 1517.37 Q898.276 1517.37 896.447 1520.93 Q894.642 1524.47 894.642 1531.6 Q894.642 1538.71 896.447 1542.27 Q898.276 1545.82 901.887 1545.82 Q905.521 1545.82 907.327 1542.27 Q909.155 1538.71 909.155 1531.6 Q909.155 1524.47 907.327 1520.93 Q905.521 1517.37 901.887 1517.37 M901.887 1513.66 Q907.697 1513.66 910.753 1518.27 Q913.831 1522.85 913.831 1531.6 Q913.831 1540.33 910.753 1544.94 Q907.697 1549.52 901.887 1549.52 Q896.077 1549.52 892.998 1544.94 Q889.942 1540.33 889.942 1531.6 Q889.942 1522.85 892.998 1518.27 Q896.077 1513.66 901.887 1513.66 Z" fill="#000000" fill-rule="nonzero" fill-opacity="1" /><path clip-path="url(#clip600)" d="M922.049 1542.97 L926.933 1542.97 L926.933 1548.85 L922.049 1548.85 L922.049 1542.97 Z" fill="#000000" fill-rule="nonzero" fill-opacity="1" /><path clip-path="url(#clip600)" d="M937.164 1514.29 L955.521 1514.29 L955.521 1518.22 L941.447 1518.22 L941.447 1526.7 Q942.465 1526.35 943.484 1526.19 Q944.502 1526 945.521 1526 Q951.308 1526 954.687 1529.17 Q958.067 1532.34 958.067 1537.76 Q958.067 1543.34 954.595 1546.44 Q951.123 1549.52 944.803 1549.52 Q942.627 1549.52 940.359 1549.15 Q938.114 1548.78 935.706 1548.04 L935.706 1543.34 Q937.789 1544.47 940.012 1545.03 Q942.234 1545.58 944.711 1545.58 Q948.715 1545.58 951.053 1543.48 Q953.391 1541.37 953.391 1537.76 Q953.391 1534.15 951.053 1532.04 Q948.715 1529.94 944.711 1529.94 Q942.836 1529.94 940.961 1530.35 Q939.109 1530.77 937.164 1531.65 L937.164 1514.29 Z" fill="#000000" fill-rule="nonzero" fill-opacity="1" /><path clip-path="url(#clip600)" d="M1574.77 1544.91 L1582.41 1544.91 L1582.41 1518.55 L1574.1 1520.21 L1574.1 1515.95 L1582.36 1514.29 L1587.04 1514.29 L1587.04 1544.91 L1594.68 1544.91 L1594.68 1548.85 L1574.77 1548.85 L1574.77 1544.91 Z" fill="#000000" fill-rule="nonzero" fill-opacity="1" /><path clip-path="url(#clip600)" d="M1604.12 1542.97 L1609.01 1542.97 L1609.01 1548.85 L1604.12 1548.85 L1604.12 1542.97 Z" fill="#000000" fill-rule="nonzero" fill-opacity="1" /><path clip-path="url(#clip600)" d="M1629.19 1517.37 Q1625.58 1517.37 1623.75 1520.93 Q1621.95 1524.47 1621.95 1531.6 Q1621.95 1538.71 1623.75 1542.27 Q1625.58 1545.82 1629.19 1545.82 Q1632.83 1545.82 1634.63 1542.27 Q1636.46 1538.71 1636.46 1531.6 Q1636.46 1524.47 1634.63 1520.93 Q1632.83 1517.37 1629.19 1517.37 M1629.19 1513.66 Q1635 1513.66 1638.06 1518.27 Q1641.14 1522.85 1641.14 1531.6 Q1641.14 1540.33 1638.06 1544.94 Q1635 1549.52 1629.19 1549.52 Q1623.38 1549.52 1620.3 1544.94 Q1617.25 1540.33 1617.25 1531.6 Q1617.25 1522.85 1620.3 1518.27 Q1623.38 1513.66 1629.19 1513.66 Z" fill="#000000" fill-rule="nonzero" fill-opacity="1" /><path clip-path="url(#clip600)" d="M2258.88 1544.91 L2266.52 1544.91 L2266.52 1518.55 L2258.21 1520.21 L2258.21 1515.95 L2266.47 1514.29 L2271.15 1514.29 L2271.15 1544.91 L2278.79 1544.91 L2278.79 1548.85 L2258.88 1548.85 L2258.88 1544.91 Z" fill="#000000" fill-rule="nonzero" fill-opacity="1" /><path clip-path="url(#clip600)" d="M2288.23 1542.97 L2293.12 1542.97 L2293.12 1548.85 L2288.23 1548.85 L2288.23 1542.97 Z" fill="#000000" fill-rule="nonzero" fill-opacity="1" /><path clip-path="url(#clip600)" d="M2303.35 1514.29 L2321.71 1514.29 L2321.71 1518.22 L2307.63 1518.22 L2307.63 1526.7 Q2308.65 1526.35 2309.67 1526.19 Q2310.69 1526 2311.71 1526 Q2317.49 1526 2320.87 1529.17 Q2324.25 1532.34 2324.25 1537.76 Q2324.25 1543.34 2320.78 1546.44 Q2317.31 1549.52 2310.99 1549.52 Q2308.81 1549.52 2306.54 1549.15 Q2304.3 1548.78 2301.89 1548.04 L2301.89 1543.34 Q2303.97 1544.47 2306.2 1545.03 Q2308.42 1545.58 2310.89 1545.58 Q2314.9 1545.58 2317.24 1543.48 Q2319.58 1541.37 2319.58 1537.76 Q2319.58 1534.15 2317.24 1532.04 Q2314.9 1529.94 2310.89 1529.94 Q2309.02 1529.94 2307.15 1530.35 Q2305.29 1530.77 2303.35 1531.65 L2303.35 1514.29 Z" fill="#000000" fill-rule="nonzero" fill-opacity="1" /><polyline clip-path="url(#clip602)" style="stroke:#000000; stroke-linecap:round; stroke-linejoin:round; stroke-width:2; stroke-opacity:0.1; fill:none" points="178.867,1431.28 2352.76,1431.28 "/>
<polyline clip-path="url(#clip602)" style="stroke:#000000; stroke-linecap:round; stroke-linejoin:round; stroke-width:2; stroke-opacity:0.1; fill:none" points="178.867,994.284 2352.76,994.284 "/>
<polyline clip-path="url(#clip602)" style="stroke:#000000; stroke-linecap:round; stroke-linejoin:round; stroke-width:2; stroke-opacity:0.1; fill:none" points="178.867,557.284 2352.76,557.284 "/>
<polyline clip-path="url(#clip602)" style="stroke:#000000; stroke-linecap:round; stroke-linejoin:round; stroke-width:2; stroke-opacity:0.1; fill:none" points="178.867,120.285 2352.76,120.285 "/>
<polyline clip-path="url(#clip600)" style="stroke:#000000; stroke-linecap:round; stroke-linejoin:round; stroke-width:4; stroke-opacity:1; fill:none" points="178.867,1486.45 178.867,47.2441 "/>
<polyline clip-path="url(#clip600)" style="stroke:#000000; stroke-linecap:round; stroke-linejoin:round; stroke-width:4; stroke-opacity:1; fill:none" points="178.867,1431.28 197.764,1431.28 "/>
<polyline clip-path="url(#clip600)" style="stroke:#000000; stroke-linecap:round; stroke-linejoin:round; stroke-width:4; stroke-opacity:1; fill:none" points="178.867,994.284 197.764,994.284 "/>
<polyline clip-path="url(#clip600)" style="stroke:#000000; stroke-linecap:round; stroke-linejoin:round; stroke-width:4; stroke-opacity:1; fill:none" points="178.867,557.284 197.764,557.284 "/>
<polyline clip-path="url(#clip600)" style="stroke:#000000; stroke-linecap:round; stroke-linejoin:round; stroke-width:4; stroke-opacity:1; fill:none" points="178.867,120.285 197.764,120.285 "/>
<path clip-path="url(#clip600)" d="M50.9921 1431.73 L80.6679 1431.73 L80.6679 1435.67 L50.9921 1435.67 L50.9921 1431.73 Z" fill="#000000" fill-rule="nonzero" fill-opacity="1" /><path clip-path="url(#clip600)" d="M91.5706 1444.63 L99.2095 1444.63 L99.2095 1418.26 L90.8993 1419.93 L90.8993 1415.67 L99.1632 1414 L103.839 1414 L103.839 1444.63 L111.478 1444.63 L111.478 1448.56 L91.5706 1448.56 L91.5706 1444.63 Z" fill="#000000" fill-rule="nonzero" fill-opacity="1" /><path clip-path="url(#clip600)" d="M130.922 1417.08 Q127.311 1417.08 125.482 1420.65 Q123.677 1424.19 123.677 1431.32 Q123.677 1438.42 125.482 1441.99 Q127.311 1445.53 130.922 1445.53 Q134.556 1445.53 136.362 1441.99 Q138.191 1438.42 138.191 1431.32 Q138.191 1424.19 136.362 1420.65 Q134.556 1417.08 130.922 1417.08 M130.922 1413.38 Q136.732 1413.38 139.788 1417.98 Q142.867 1422.57 142.867 1431.32 Q142.867 1440.04 139.788 1444.65 Q136.732 1449.23 130.922 1449.23 Q125.112 1449.23 122.033 1444.65 Q118.978 1440.04 118.978 1431.32 Q118.978 1422.57 122.033 1417.98 Q125.112 1413.38 130.922 1413.38 Z" fill="#000000" fill-rule="nonzero" fill-opacity="1" /><path clip-path="url(#clip600)" d="M130.922 980.082 Q127.311 980.082 125.482 983.647 Q123.677 987.189 123.677 994.318 Q123.677 1001.42 125.482 1004.99 Q127.311 1008.53 130.922 1008.53 Q134.556 1008.53 136.362 1004.99 Q138.191 1001.42 138.191 994.318 Q138.191 987.189 136.362 983.647 Q134.556 980.082 130.922 980.082 M130.922 976.379 Q136.732 976.379 139.788 980.985 Q142.867 985.568 142.867 994.318 Q142.867 1003.05 139.788 1007.65 Q136.732 1012.23 130.922 1012.23 Q125.112 1012.23 122.033 1007.65 Q118.978 1003.05 118.978 994.318 Q118.978 985.568 122.033 980.985 Q125.112 976.379 130.922 976.379 Z" fill="#000000" fill-rule="nonzero" fill-opacity="1" /><path clip-path="url(#clip600)" d="M91.5706 570.629 L99.2095 570.629 L99.2095 544.263 L90.8993 545.93 L90.8993 541.671 L99.1632 540.004 L103.839 540.004 L103.839 570.629 L111.478 570.629 L111.478 574.564 L91.5706 574.564 L91.5706 570.629 Z" fill="#000000" fill-rule="nonzero" fill-opacity="1" /><path clip-path="url(#clip600)" d="M130.922 543.083 Q127.311 543.083 125.482 546.648 Q123.677 550.189 123.677 557.319 Q123.677 564.425 125.482 567.99 Q127.311 571.532 130.922 571.532 Q134.556 571.532 136.362 567.99 Q138.191 564.425 138.191 557.319 Q138.191 550.189 136.362 546.648 Q134.556 543.083 130.922 543.083 M130.922 539.379 Q136.732 539.379 139.788 543.986 Q142.867 548.569 142.867 557.319 Q142.867 566.046 139.788 570.652 Q136.732 575.236 130.922 575.236 Q125.112 575.236 122.033 570.652 Q118.978 566.046 118.978 557.319 Q118.978 548.569 122.033 543.986 Q125.112 539.379 130.922 539.379 Z" fill="#000000" fill-rule="nonzero" fill-opacity="1" /><path clip-path="url(#clip600)" d="M94.7882 133.63 L111.108 133.63 L111.108 137.565 L89.1632 137.565 L89.1632 133.63 Q91.8252 130.875 96.4085 126.245 Q101.015 121.593 102.196 120.25 Q104.441 117.727 105.321 115.991 Q106.223 114.232 106.223 112.542 Q106.223 109.787 104.279 108.051 Q102.358 106.315 99.2558 106.315 Q97.0567 106.315 94.603 107.079 Q92.1725 107.843 89.3947 109.394 L89.3947 104.672 Q92.2188 103.537 94.6724 102.959 Q97.1261 102.38 99.1632 102.38 Q104.534 102.38 107.728 105.065 Q110.922 107.75 110.922 112.241 Q110.922 114.371 110.112 116.292 Q109.325 118.19 107.219 120.783 Q106.64 121.454 103.538 124.671 Q100.436 127.866 94.7882 133.63 Z" fill="#000000" fill-rule="nonzero" fill-opacity="1" /><path clip-path="url(#clip600)" d="M130.922 106.084 Q127.311 106.084 125.482 109.648 Q123.677 113.19 123.677 120.32 Q123.677 127.426 125.482 130.991 Q127.311 134.532 130.922 134.532 Q134.556 134.532 136.362 130.991 Q138.191 127.426 138.191 120.32 Q138.191 113.19 136.362 109.648 Q134.556 106.084 130.922 106.084 M130.922 102.38 Q136.732 102.38 139.788 106.986 Q142.867 111.57 142.867 120.32 Q142.867 129.046 139.788 133.653 Q136.732 138.236 130.922 138.236 Q125.112 138.236 122.033 133.653 Q118.978 129.046 118.978 120.32 Q118.978 111.57 122.033 106.986 Q125.112 102.38 130.922 102.38 Z" fill="#000000" fill-rule="nonzero" fill-opacity="1" /><polyline clip-path="url(#clip602)" style="stroke:#009af9; stroke-linecap:round; stroke-linejoin:round; stroke-width:4; stroke-opacity:1; fill:none" points="240.392,922.671 247.251,948.632 254.11,973.322 260.969,996.241 267.828,1018.51 274.687,1040.62 281.546,1062.06 288.405,1082.67 295.264,1102.35 302.123,1121.3 308.982,1139.8 315.841,1157.38 322.7,1174.38 329.559,1191.12 336.418,1207.48 343.277,1223.37 350.136,1238.7 356.995,1253.36 363.854,1267.35 370.713,1280.73 377.572,1293.55 384.431,1305.82 391.29,1317.51 398.149,1328.55 405.008,1339.01 411.867,1348.92 418.726,1358.26 425.585,1367.09 432.444,1375.42 439.303,1383.23 446.162,1390.55 453.021,1397.39 459.88,1403.76 466.739,1409.66 473.598,1415.12 480.457,1420.15 487.316,1424.76 494.175,1428.9 501.034,1432.57 507.893,1435.76 514.752,1438.48 521.611,1440.76 528.47,1442.6 535.328,1444.01 542.188,1444.99 549.046,1445.55 555.905,1445.72 562.764,1445.48 569.623,1444.81 576.482,1443.79 583.341,1442.48 590.2,1440.95 597.059,1439.3 603.918,1437.38 610.777,1434.93 617.636,1431.96 624.495,1428.46 631.354,1424.45 638.213,1419.97 645.072,1415.07 651.931,1409.74 658.79,1404.03 665.649,1397.94 672.508,1391.49 679.367,1384.69 686.226,1377.54 693.085,1370.05 699.944,1362.25 706.803,1354.23 713.662,1345.98 720.521,1337.51 727.38,1328.86 734.239,1320.01 741.098,1311.07 747.957,1302.02 754.816,1292.87 761.675,1283.64 768.534,1274.34 775.393,1265 782.252,1255.7 789.111,1246.39 795.97,1237.1 802.829,1227.84 809.688,1218.58 816.547,1209.33 823.406,1200.02 830.265,1190.66 837.124,1181.33 843.983,1172.02 850.842,1162.71 857.701,1153.45 864.56,1144.29 871.419,1135.26 878.278,1126.32 885.137,1117.41 891.996,1108.51 898.855,1099.69 905.714,1090.93 912.573,1082.27 919.432,1073.78 926.291,1065.45 933.15,1057.24 940.009,1049.13 946.868,1041.1 953.727,1033.21 960.586,1025.46 967.445,1017.85 974.304,1010.32 981.163,1002.82 988.022,995.417 994.881,988.125 1001.74,980.901 1008.6,973.771 1015.46,966.712 1022.32,959.731 1029.18,952.869 1036.04,946.074 1042.89,939.35 1049.75,932.768 1056.61,926.276 1063.47,919.872 1070.33,913.619 1077.19,907.513 1084.05,901.466 1090.91,895.486 1097.77,889.605 1104.62,883.8 1111.48,878.11 1118.34,872.504 1125.2,866.931 1132.06,861.396 1138.92,855.908 1145.78,850.455 1152.64,845.049 1159.5,839.664 1166.36,834.3 1173.21,828.971 1180.07,823.64 1186.93,818.336 1193.79,813.004 1200.65,807.556 1207.51,802.045 1214.37,796.579 1221.23,791.232 1228.09,785.956 1234.95,780.739 1241.8,775.555 1248.66,770.408 1255.52,765.38 1262.38,760.495 1269.24,755.746 1276.1,751.135 1282.96,746.642 1289.82,742.317 1296.68,738.142 1303.54,734.132 1310.39,730.249 1317.25,726.413 1324.11,722.693 1330.97,719.158 1337.83,715.798 1344.69,712.617 1351.55,709.599 1358.41,706.754 1365.27,704.058 1372.13,701.494 1378.98,699.085 1385.84,696.894 1392.7,694.975 1399.56,693.257 1406.42,691.729 1413.28,690.506 1420.14,689.595 1427,688.918 1433.86,688.444 1440.72,688.167 1447.57,688.074 1454.43,688.217 1461.29,688.614 1468.15,689.25 1475.01,690.106 1481.87,691.151 1488.73,692.357 1495.59,693.726 1502.45,695.248 1509.31,696.928 1516.16,698.783 1523.02,700.738 1529.88,702.815 1536.74,705.059 1543.6,707.493 1550.46,710.129 1557.32,712.977 1564.18,716.006 1571.04,719.209 1577.9,722.633 1584.75,726.207 1591.61,729.88 1598.47,733.673 1605.33,737.603 1612.19,741.674 1619.05,745.838 1625.91,750.122 1632.77,754.542 1639.63,759.028 1646.49,763.613 1653.34,768.332 1660.2,773.143 1667.06,778.051 1673.92,783.071 1680.78,788.164 1687.64,793.278 1694.5,798.445 1701.36,803.678 1708.22,808.935 1715.08,814.212 1721.93,819.555 1728.79,824.913 1735.65,830.251 1742.51,835.59 1749.37,840.9 1756.23,846.145 1763.09,851.278 1769.95,856.329 1776.81,861.381 1783.67,866.417 1790.52,871.38 1797.38,876.241 1804.24,881.034 1811.1,885.765 1817.96,890.322 1824.82,894.775 1831.68,899.166 1838.54,903.445 1845.4,907.664 1852.26,911.844 1859.11,915.927 1865.97,919.862 1872.83,923.743 1879.69,927.553 1886.55,931.265 1893.41,934.881 1900.27,938.421 1907.13,941.896 1913.99,945.35 1920.85,948.813 1927.7,952.267 1934.56,955.741 1941.42,959.186 1948.28,962.57 1955.14,965.907 1962,969.177 1968.86,972.388 1975.72,975.481 1982.58,978.421 1989.44,981.228 1996.29,983.898 2003.15,986.454 2010.01,988.94 2016.87,991.341 2023.73,993.645 2030.59,995.872 2037.45,998.061 2044.31,1000.21 2051.17,1002.32 2058.02,1004.4 2064.88,1006.45 2071.74,1008.5 2078.6,1010.56 2085.46,1012.62 2092.32,1014.67 2099.18,1016.68 2106.04,1018.67 2112.9,1020.68 2119.76,1022.71 2126.61,1024.73 2133.47,1026.79 2140.33,1029.01 2147.19,1031.37 2154.05,1033.87 2160.91,1036.5 2167.77,1039.22 2174.63,1042.08 2181.49,1045.21 2188.35,1048.81 2195.2,1052.89 2202.06,1057.47 2208.92,1062.51 2215.78,1067.86 2222.64,1073.76 2229.5,1080.35 2236.36,1087.73 2243.22,1095.56 2250.08,1103.54 2256.94,1112.14 2263.79,1121.07 2270.65,1130.48 2277.51,1140.69 2284.37,1151.84 2291.23,1163.86 "/>
<polyline clip-path="url(#clip602)" style="stroke:#e26f46; stroke-linecap:round; stroke-linejoin:round; stroke-width:4; stroke-opacity:1; fill:none" points="240.392,87.9763 247.251,116.583 254.11,145.092 260.969,173.426 267.828,201.301 274.687,228.66 281.546,256.042 288.405,283.276 295.264,309.991 302.123,336.18 308.982,361.915 315.841,387.272 322.7,412.214 329.559,436.32 336.418,459.443 343.277,481.727 350.136,503.177 356.995,523.844 363.854,543.91 370.713,563.398 377.572,582.341 384.431,600.754 391.29,618.651 398.149,636.004 405.008,652.806 411.867,669.082 418.726,684.85 425.585,700.128 432.444,714.993 439.303,729.463 446.162,743.562 453.021,757.308 459.88,770.721 466.739,783.82 473.598,796.635 480.457,809.196 487.316,821.529 494.175,833.648 501.034,845.579 507.893,857.34 514.752,868.982 521.611,880.541 528.47,891.987 535.328,903.276 542.188,914.434 549.046,925.542 555.905,936.67 562.764,947.795 569.623,958.907 576.482,970.028 583.341,981.14 590.2,992.247 597.059,1003.41 603.918,1014.5 610.777,1025.4 617.636,1036.11 624.495,1046.68 631.354,1057.11 638.213,1067.42 645.072,1077.63 651.931,1087.73 658.79,1097.68 665.649,1107.45 672.508,1117.03 679.367,1126.46 686.226,1135.7 693.085,1144.71 699.944,1153.5 706.803,1162.14 713.662,1170.69 720.521,1179.14 727.38,1187.43 734.239,1195.64 741.098,1203.71 747.957,1211.6 754.816,1219.37 761.675,1227.11 768.534,1234.8 775.393,1242.41 782.252,1249.93 789.111,1257.31 795.97,1264.51 802.829,1271.59 809.688,1278.57 816.547,1285.41 823.406,1292.1 830.265,1298.61 837.124,1304.95 843.983,1311.11 850.842,1317.05 857.701,1322.75 864.56,1328.14 871.419,1333.24 878.278,1338.12 885.137,1342.81 891.996,1347.26 898.855,1351.38 905.714,1355.14 912.573,1358.51 919.432,1361.53 926.291,1364.24 933.15,1366.66 940.009,1368.78 946.868,1370.5 953.727,1371.86 960.586,1372.87 967.445,1373.55 974.304,1373.89 981.163,1373.9 988.022,1373.51 994.881,1372.69 1001.74,1371.53 1008.6,1370.06 1015.46,1368.2 1022.32,1365.96 1029.18,1363.39 1036.04,1360.48 1042.89,1357.25 1049.75,1353.7 1056.61,1349.83 1063.47,1345.64 1070.33,1341.22 1077.19,1336.49 1084.05,1331.43 1090.91,1326.08 1097.77,1320.51 1104.62,1314.75 1111.48,1308.79 1118.34,1302.62 1125.2,1296.31 1132.06,1289.89 1138.92,1283.36 1145.78,1276.69 1152.64,1269.91 1159.5,1263.06 1166.36,1256.1 1173.21,1249.06 1180.07,1241.95 1186.93,1234.82 1193.79,1227.69 1200.65,1220.57 1207.51,1213.48 1214.37,1206.43 1221.23,1199.38 1228.09,1192.31 1234.95,1185.19 1241.8,1177.97 1248.66,1170.78 1255.52,1163.68 1262.38,1156.72 1269.24,1149.84 1276.1,1142.95 1282.96,1136.08 1289.82,1129.28 1296.68,1122.57 1303.54,1116.01 1310.39,1109.61 1317.25,1103.31 1324.11,1097.11 1330.97,1091.05 1337.83,1085.08 1344.69,1079.21 1351.55,1073.48 1358.41,1067.85 1365.27,1062.26 1372.13,1056.77 1378.98,1051.4 1385.84,1046.16 1392.7,1041.03 1399.56,1036.02 1406.42,1031.12 1413.28,1026.42 1420.14,1021.87 1427,1017.4 1433.86,1013.01 1440.72,1008.76 1447.57,1004.62 1454.43,1000.53 1461.29,996.415 1468.15,992.281 1475.01,988.124 1481.87,983.898 1488.73,979.588 1495.59,975.312 1502.45,971.101 1509.31,966.93 1516.16,962.805 1523.02,958.755 1529.88,954.69 1536.74,950.644 1543.6,946.651 1550.46,942.65 1557.32,938.673 1564.18,934.68 1571.04,930.641 1577.9,926.618 1584.75,922.603 1591.61,918.567 1598.47,914.481 1605.33,910.345 1612.19,906.153 1619.05,901.961 1625.91,897.778 1632.77,893.596 1639.63,889.431 1646.49,885.235 1653.34,881.021 1660.2,876.838 1667.06,872.769 1673.92,868.76 1680.78,864.725 1687.64,860.691 1694.5,856.633 1701.36,852.542 1708.22,848.463 1715.08,844.414 1721.93,840.393 1728.79,836.363 1735.65,832.388 1742.51,828.48 1749.37,824.599 1756.23,820.823 1763.09,817.17 1769.95,813.613 1776.81,810.086 1783.67,806.593 1790.52,803.097 1797.38,799.587 1804.24,796.181 1811.1,792.899 1817.96,789.707 1824.82,786.639 1831.68,783.73 1838.54,780.918 1845.4,778.127 1852.26,775.396 1859.11,772.769 1865.97,770.212 1872.83,767.777 1879.69,765.442 1886.55,763.183 1893.41,761.1 1900.27,759.179 1907.13,757.374 1913.99,755.645 1920.85,754.042 1927.7,752.543 1934.56,751.17 1941.42,749.919 1948.28,748.773 1955.14,747.773 1962,746.934 1968.86,746.244 1975.72,745.688 1982.58,745.264 1989.44,744.938 1996.29,744.74 2003.15,744.667 2010.01,744.694 2016.87,744.812 2023.73,744.976 2030.59,745.2 2037.45,745.501 2044.31,745.88 2051.17,746.333 2058.02,746.865 2064.88,747.458 2071.74,748.089 2078.6,748.763 2085.46,749.484 2092.32,750.234 2099.18,751.011 2106.04,751.816 2112.9,752.661 2119.76,753.515 2126.61,754.362 2133.47,755.231 2140.33,756.126 2147.19,757.016 2154.05,758 2160.91,759.171 2167.77,760.642 2174.63,762.366 2181.49,764.342 2188.35,766.446 2195.2,768.631 2202.06,770.786 2208.92,772.729 2215.78,774.558 2222.64,776.519 2229.5,778.728 2236.36,781.122 2243.22,783.645 2250.08,786.478 2256.94,789.788 2263.79,794.356 2270.65,799.625 2277.51,805.667 2284.37,813.271 2291.23,822.158 "/>
<path clip-path="url(#clip600)" d="M2010.47 250.738 L2280.29 250.738 L2280.29 95.2176 L2010.47 95.2176  Z" fill="#ffffff" fill-rule="evenodd" fill-opacity="1"/>
<polyline clip-path="url(#clip600)" style="stroke:#000000; stroke-linecap:round; stroke-linejoin:round; stroke-width:4; stroke-opacity:1; fill:none" points="2010.47,250.738 2280.29,250.738 2280.29,95.2176 2010.47,95.2176 2010.47,250.738 "/>
<polyline clip-path="url(#clip600)" style="stroke:#009af9; stroke-linecap:round; stroke-linejoin:round; stroke-width:4; stroke-opacity:1; fill:none" points="2034.63,147.058 2179.55,147.058 "/>
<path clip-path="url(#clip600)" d="M2217.55 166.745 Q2215.75 171.375 2214.03 172.787 Q2212.32 174.199 2209.45 174.199 L2206.05 174.199 L2206.05 170.634 L2208.55 170.634 Q2210.31 170.634 2211.28 169.8 Q2212.25 168.967 2213.43 165.865 L2214.19 163.921 L2203.71 138.412 L2208.22 138.412 L2216.32 158.689 L2224.43 138.412 L2228.94 138.412 L2217.55 166.745 Z" fill="#000000" fill-rule="nonzero" fill-opacity="1" /><path clip-path="url(#clip600)" d="M2236.23 160.402 L2243.87 160.402 L2243.87 134.037 L2235.56 135.703 L2235.56 131.444 L2243.82 129.778 L2248.5 129.778 L2248.5 160.402 L2256.14 160.402 L2256.14 164.338 L2236.23 164.338 L2236.23 160.402 Z" fill="#000000" fill-rule="nonzero" fill-opacity="1" /><polyline clip-path="url(#clip600)" style="stroke:#e26f46; stroke-linecap:round; stroke-linejoin:round; stroke-width:4; stroke-opacity:1; fill:none" points="2034.63,198.898 2179.55,198.898 "/>
<path clip-path="url(#clip600)" d="M2217.55 218.585 Q2215.75 223.215 2214.03 224.627 Q2212.32 226.039 2209.45 226.039 L2206.05 226.039 L2206.05 222.474 L2208.55 222.474 Q2210.31 222.474 2211.28 221.64 Q2212.25 220.807 2213.43 217.705 L2214.19 215.761 L2203.71 190.252 L2208.22 190.252 L2216.32 210.529 L2224.43 190.252 L2228.94 190.252 L2217.55 218.585 Z" fill="#000000" fill-rule="nonzero" fill-opacity="1" /><path clip-path="url(#clip600)" d="M2239.45 212.242 L2255.77 212.242 L2255.77 216.178 L2233.82 216.178 L2233.82 212.242 Q2236.49 209.488 2241.07 204.858 Q2245.68 200.205 2246.86 198.863 Q2249.1 196.34 2249.98 194.604 Q2250.88 192.844 2250.88 191.155 Q2250.88 188.4 2248.94 186.664 Q2247.02 184.928 2243.92 184.928 Q2241.72 184.928 2239.26 185.692 Q2236.83 186.455 2234.06 188.006 L2234.06 183.284 Q2236.88 182.15 2239.33 181.571 Q2241.79 180.993 2243.82 180.993 Q2249.19 180.993 2252.39 183.678 Q2255.58 186.363 2255.58 190.854 Q2255.58 192.983 2254.77 194.905 Q2253.99 196.803 2251.88 199.395 Q2251.3 200.067 2248.2 203.284 Q2245.1 206.479 2239.45 212.242 Z" fill="#000000" fill-rule="nonzero" fill-opacity="1" /></svg>
