<?xml version="1.0" encoding="utf-8"?>
<svg xmlns="http://www.w3.org/2000/svg" xmlns:xlink="http://www.w3.org/1999/xlink" width="600" height="400" viewBox="0 0 2400 1600">
<defs>
  <clipPath id="clip120">
    <rect x="0" y="0" width="2400" height="1600"/>
  </clipPath>
</defs>
<path clip-path="url(#clip120)" d="M0 1600 L2400 1600 L2400 0 L0 0  Z" fill="#ffffff" fill-rule="evenodd" fill-opacity="1"/>
<defs>
  <clipPath id="clip121">
    <rect x="480" y="0" width="1681" height="1600"/>
  </clipPath>
</defs>
<path clip-path="url(#clip120)" d="M178.867 1486.45 L2352.76 1486.45 L2352.76 47.2441 L178.867 47.2441  Z" fill="#ffffff" fill-rule="evenodd" fill-opacity="1"/>
<defs>
  <clipPath id="clip122">
    <rect x="178" y="47" width="2175" height="1440"/>
  </clipPath>
</defs>
<polyline clip-path="url(#clip122)" style="stroke:#000000; stroke-linecap:round; stroke-linejoin:round; stroke-width:2; stroke-opacity:0.1; fill:none" points="240.392,1486.45 240.392,47.2441 "/>
<polyline clip-path="url(#clip122)" style="stroke:#000000; stroke-linecap:round; stroke-linejoin:round; stroke-width:2; stroke-opacity:0.1; fill:none" points="924.005,1486.45 924.005,47.2441 "/>
<polyline clip-path="url(#clip122)" style="stroke:#000000; stroke-linecap:round; stroke-linejoin:round; stroke-width:2; stroke-opacity:0.1; fill:none" points="1607.62,1486.45 1607.62,47.2441 "/>
<polyline clip-path="url(#clip122)" style="stroke:#000000; stroke-linecap:round; stroke-linejoin:round; stroke-width:2; stroke-opacity:0.1; fill:none" points="2291.23,1486.45 2291.23,47.2441 "/>
<polyline clip-path="url(#clip120)" style="stroke:#000000; stroke-linecap:round; stroke-linejoin:round; stroke-width:4; stroke-opacity:1; fill:none" points="178.867,1486.45 2352.76,1486.45 "/>
<polyline clip-path="url(#clip120)" style="stroke:#000000; stroke-linecap:round; stroke-linejoin:round; stroke-width:4; stroke-opacity:1; fill:none" points="240.392,1486.45 240.392,1467.55 "/>
<polyline clip-path="url(#clip120)" style="stroke:#000000; stroke-linecap:round; stroke-linejoin:round; stroke-width:4; stroke-opacity:1; fill:none" points="924.005,1486.45 924.005,1467.55 "/>
<polyline clip-path="url(#clip120)" style="stroke:#000000; stroke-linecap:round; stroke-linejoin:round; stroke-width:4; stroke-opacity:1; fill:none" points="1607.62,1486.45 1607.62,1467.55 "/>
<polyline clip-path="url(#clip120)" style="stroke:#000000; stroke-linecap:round; stroke-linejoin:round; stroke-width:4; stroke-opacity:1; fill:none" points="2291.23,1486.45 2291.23,1467.55 "/>
<path clip-path="url(#clip120)" d="M217.776 1517.37 Q214.165 1517.37 212.336 1520.93 Q210.531 1524.47 210.531 1531.6 Q210.531 1538.71 212.336 1542.27 Q214.165 1545.82 217.776 1545.82 Q221.41 1545.82 223.216 1542.27 Q225.045 1538.71 225.045 1531.6 Q225.045 1524.47 223.216 1520.93 Q221.41 1517.37 217.776 1517.37 M217.776 1513.66 Q223.586 1513.66 226.642 1518.27 Q229.721 1522.85 229.721 1531.6 Q229.721 1540.33 226.642 1544.94 Q223.586 1549.52 217.776 1549.52 Q211.966 1549.52 208.887 1544.94 Q205.832 1540.33 205.832 1531.6 Q205.832 1522.85 208.887 1518.27 Q211.966 1513.66 217.776 1513.66 Z" fill="#000000" fill-rule="nonzero" fill-opacity="1" /><path clip-path="url(#clip120)" d="M237.938 1542.97 L242.822 1542.97 L242.822 1548.85 L237.938 1548.85 L237.938 1542.97 Z" fill="#000000" fill-rule="nonzero" fill-opacity="1" /><path clip-path="url(#clip120)" d="M263.007 1517.37 Q259.396 1517.37 257.568 1520.93 Q255.762 1524.47 255.762 1531.6 Q255.762 1538.71 257.568 1542.27 Q259.396 1545.82 263.007 1545.82 Q266.642 1545.82 268.447 1542.27 Q270.276 1538.71 270.276 1531.6 Q270.276 1524.47 268.447 1520.93 Q266.642 1517.37 263.007 1517.37 M263.007 1513.66 Q268.818 1513.66 271.873 1518.27 Q274.952 1522.85 274.952 1531.6 Q274.952 1540.33 271.873 1544.94 Q268.818 1549.52 263.007 1549.52 Q257.197 1549.52 254.119 1544.94 Q251.063 1540.33 251.063 1531.6 Q251.063 1522.85 254.119 1518.27 Q257.197 1513.66 263.007 1513.66 Z" fill="#000000" fill-rule="nonzero" fill-opacity="1" /><path clip-path="url(#clip120)" d="M901.887 1517.37 Q898.276 1517.37 896.447 1520.93 Q894.642 1524.47 894.642 1531.6 Q894.642 1538.71 896.447 1542.27 Q898.276 1545.82 901.887 1545.82 Q905.521 1545.82 907.327 1542.27 Q909.155 1538.71 909.155 1531.6 Q909.155 1524.47 907.327 1520.93 Q905.521 1517.37 901.887 1517.37 M901.887 1513.66 Q907.697 1513.66 910.753 1518.27 Q913.831 1522.85 913.831 1531.6 Q913.831 1540.33 910.753 1544.94 Q907.697 1549.52 901.887 1549.52 Q896.077 1549.52 892.998 1544.94 Q889.942 1540.33 889.942 1531.6 Q889.942 1522.85 892.998 1518.27 Q896.077 1513.66 901.887 1513.66 Z" fill="#000000" fill-rule="nonzero" fill-opacity="1" /><path clip-path="url(#clip120)" d="M922.049 1542.97 L926.933 1542.97 L926.933 1548.85 L922.049 1548.85 L922.049 1542.97 Z" fill="#000000" fill-rule="nonzero" fill-opacity="1" /><path clip-path="url(#clip120)" d="M937.164 1514.29 L955.521 1514.29 L955.521 1518.22 L941.447 1518.22 L941.447 1526.7 Q942.465 1526.35 943.484 1526.19 Q944.502 1526 945.521 1526 Q951.308 1526 954.687 1529.17 Q958.067 1532.34 958.067 1537.76 Q958.067 1543.34 954.595 1546.44 Q951.123 1549.52 944.803 1549.52 Q942.627 1549.52 940.359 1549.15 Q938.114 1548.78 935.706 1548.04 L935.706 1543.34 Q937.789 1544.47 940.012 1545.03 Q942.234 1545.58 944.711 1545.58 Q948.715 1545.58 951.053 1543.48 Q953.391 1541.37 953.391 1537.76 Q953.391 1534.15 951.053 1532.04 Q948.715 1529.94 944.711 1529.94 Q942.836 1529.94 940.961 1530.35 Q939.109 1530.77 937.164 1531.65 L937.164 1514.29 Z" fill="#000000" fill-rule="nonzero" fill-opacity="1" /><path clip-path="url(#clip120)" d="M1574.77 1544.91 L1582.41 1544.91 L1582.41 1518.55 L1574.1 1520.21 L1574.1 1515.95 L1582.36 1514.29 L1587.04 1514.29 L1587.04 1544.91 L1594.68 1544.91 L1594.68 1548.85 L1574.77 1548.85 L1574.77 1544.91 Z" fill="#000000" fill-rule="nonzero" fill-opacity="1" /><path clip-path="url(#clip120)" d="M1604.12 1542.97 L1609.01 1542.97 L1609.01 1548.85 L1604.12 1548.85 L1604.12 1542.97 Z" fill="#000000" fill-rule="nonzero" fill-opacity="1" /><path clip-path="url(#clip120)" d="M1629.19 1517.37 Q1625.58 1517.37 1623.75 1520.93 Q1621.95 1524.47 1621.95 1531.6 Q1621.95 1538.71 1623.75 1542.27 Q1625.58 1545.82 1629.19 1545.82 Q1632.83 1545.82 1634.63 1542.27 Q1636.46 1538.71 1636.46 1531.6 Q1636.46 1524.47 1634.63 1520.93 Q1632.83 1517.37 1629.19 1517.37 M1629.19 1513.66 Q1635 1513.66 1638.06 1518.27 Q1641.14 1522.85 1641.14 1531.6 Q1641.14 1540.33 1638.06 1544.94 Q1635 1549.52 1629.19 1549.52 Q1623.38 1549.52 1620.3 1544.94 Q1617.25 1540.33 1617.25 1531.6 Q1617.25 1522.85 1620.3 1518.27 Q1623.38 1513.66 1629.19 1513.66 Z" fill="#000000" fill-rule="nonzero" fill-opacity="1" /><path clip-path="url(#clip120)" d="M2258.88 1544.91 L2266.52 1544.91 L2266.52 1518.55 L2258.21 1520.21 L2258.21 1515.95 L2266.47 1514.29 L2271.15 1514.29 L2271.15 1544.91 L2278.79 1544.91 L2278.79 1548.85 L2258.88 1548.85 L2258.88 1544.91 Z" fill="#000000" fill-rule="nonzero" fill-opacity="1" /><path clip-path="url(#clip120)" d="M2288.23 1542.97 L2293.12 1542.97 L2293.12 1548.85 L2288.23 1548.85 L2288.23 1542.97 Z" fill="#000000" fill-rule="nonzero" fill-opacity="1" /><path clip-path="url(#clip120)" d="M2303.35 1514.29 L2321.71 1514.29 L2321.71 1518.22 L2307.63 1518.22 L2307.63 1526.7 Q2308.65 1526.35 2309.67 1526.19 Q2310.69 1526 2311.71 1526 Q2317.49 1526 2320.87 1529.17 Q2324.25 1532.34 2324.25 1537.76 Q2324.25 1543.34 2320.78 1546.44 Q2317.31 1549.52 2310.99 1549.52 Q2308.81 1549.52 2306.54 1549.15 Q2304.3 1548.78 2301.89 1548.04 L2301.89 1543.34 Q2303.97 1544.47 2306.2 1545.03 Q2308.42 1545.58 2310.89 1545.58 Q2314.9 1545.58 2317.24 1543.48 Q2319.58 1541.37 2319.58 1537.76 Q2319.58 1534.15 2317.24 1532.04 Q2314.9 1529.94 2310.89 1529.94 Q2309.02 1529.94 2307.15 1530.35 Q2305.29 1530.77 2303.35 1531.65 L2303.35 1514.29 Z" fill="#000000" fill-rule="nonzero" fill-opacity="1" /><polyline clip-path="url(#clip122)" style="stroke:#000000; stroke-linecap:round; stroke-linejoin:round; stroke-width:2; stroke-opacity:0.1; fill:none" points="178.867,1434.25 2352.76,1434.25 "/>
<polyline clip-path="url(#clip122)" style="stroke:#000000; stroke-linecap:round; stroke-linejoin:round; stroke-width:2; stroke-opacity:0.1; fill:none" points="178.867,1194.18 2352.76,1194.18 "/>
<polyline clip-path="url(#clip122)" style="stroke:#000000; stroke-linecap:round; stroke-linejoin:round; stroke-width:2; stroke-opacity:0.1; fill:none" points="178.867,954.116 2352.76,954.116 "/>
<polyline clip-path="url(#clip122)" style="stroke:#000000; stroke-linecap:round; stroke-linejoin:round; stroke-width:2; stroke-opacity:0.1; fill:none" points="178.867,714.049 2352.76,714.049 "/>
<polyline clip-path="url(#clip122)" style="stroke:#000000; stroke-linecap:round; stroke-linejoin:round; stroke-width:2; stroke-opacity:0.1; fill:none" points="178.867,473.981 2352.76,473.981 "/>
<polyline clip-path="url(#clip122)" style="stroke:#000000; stroke-linecap:round; stroke-linejoin:round; stroke-width:2; stroke-opacity:0.1; fill:none" points="178.867,233.914 2352.76,233.914 "/>
<polyline clip-path="url(#clip120)" style="stroke:#000000; stroke-linecap:round; stroke-linejoin:round; stroke-width:4; stroke-opacity:1; fill:none" points="178.867,1486.45 178.867,47.2441 "/>
<polyline clip-path="url(#clip120)" style="stroke:#000000; stroke-linecap:round; stroke-linejoin:round; stroke-width:4; stroke-opacity:1; fill:none" points="178.867,1434.25 197.764,1434.25 "/>
<polyline clip-path="url(#clip120)" style="stroke:#000000; stroke-linecap:round; stroke-linejoin:round; stroke-width:4; stroke-opacity:1; fill:none" points="178.867,1194.18 197.764,1194.18 "/>
<polyline clip-path="url(#clip120)" style="stroke:#000000; stroke-linecap:round; stroke-linejoin:round; stroke-width:4; stroke-opacity:1; fill:none" points="178.867,954.116 197.764,954.116 "/>
<polyline clip-path="url(#clip120)" style="stroke:#000000; stroke-linecap:round; stroke-linejoin:round; stroke-width:4; stroke-opacity:1; fill:none" points="178.867,714.049 197.764,714.049 "/>
<polyline clip-path="url(#clip120)" style="stroke:#000000; stroke-linecap:round; stroke-linejoin:round; stroke-width:4; stroke-opacity:1; fill:none" points="178.867,473.981 197.764,473.981 "/>
<polyline clip-path="url(#clip120)" style="stroke:#000000; stroke-linecap:round; stroke-linejoin:round; stroke-width:4; stroke-opacity:1; fill:none" points="178.867,233.914 197.764,233.914 "/>
<path clip-path="url(#clip120)" d="M50.9921 1434.7 L80.6679 1434.7 L80.6679 1438.64 L50.9921 1438.64 L50.9921 1434.7 Z" fill="#000000" fill-rule="nonzero" fill-opacity="1" /><path clip-path="url(#clip120)" d="M91.5706 1447.59 L99.2095 1447.59 L99.2095 1421.23 L90.8993 1422.9 L90.8993 1418.64 L99.1632 1416.97 L103.839 1416.97 L103.839 1447.59 L111.478 1447.59 L111.478 1451.53 L91.5706 1451.53 L91.5706 1447.59 Z" fill="#000000" fill-rule="nonzero" fill-opacity="1" /><path clip-path="url(#clip120)" d="M130.922 1420.05 Q127.311 1420.05 125.482 1423.61 Q123.677 1427.16 123.677 1434.28 Q123.677 1441.39 125.482 1444.96 Q127.311 1448.5 130.922 1448.5 Q134.556 1448.5 136.362 1444.96 Q138.191 1441.39 138.191 1434.28 Q138.191 1427.16 136.362 1423.61 Q134.556 1420.05 130.922 1420.05 M130.922 1416.35 Q136.732 1416.35 139.788 1420.95 Q142.867 1425.53 142.867 1434.28 Q142.867 1443.01 139.788 1447.62 Q136.732 1452.2 130.922 1452.2 Q125.112 1452.2 122.033 1447.62 Q118.978 1443.01 118.978 1434.28 Q118.978 1425.53 122.033 1420.95 Q125.112 1416.35 130.922 1416.35 Z" fill="#000000" fill-rule="nonzero" fill-opacity="1" /><path clip-path="url(#clip120)" d="M82.1494 1194.63 L111.825 1194.63 L111.825 1198.57 L82.1494 1198.57 L82.1494 1194.63 Z" fill="#000000" fill-rule="nonzero" fill-opacity="1" /><path clip-path="url(#clip120)" d="M121.964 1176.9 L140.32 1176.9 L140.32 1180.84 L126.246 1180.84 L126.246 1189.31 Q127.265 1188.96 128.283 1188.8 Q129.302 1188.62 130.32 1188.62 Q136.107 1188.62 139.487 1191.79 Q142.867 1194.96 142.867 1200.38 Q142.867 1205.95 139.394 1209.06 Q135.922 1212.13 129.603 1212.13 Q127.427 1212.13 125.158 1211.76 Q122.913 1211.39 120.506 1210.65 L120.506 1205.95 Q122.589 1207.09 124.811 1207.64 Q127.033 1208.2 129.51 1208.2 Q133.515 1208.2 135.853 1206.09 Q138.191 1203.99 138.191 1200.38 Q138.191 1196.76 135.853 1194.66 Q133.515 1192.55 129.51 1192.55 Q127.635 1192.55 125.76 1192.97 Q123.908 1193.38 121.964 1194.26 L121.964 1176.9 Z" fill="#000000" fill-rule="nonzero" fill-opacity="1" /><path clip-path="url(#clip120)" d="M130.922 939.914 Q127.311 939.914 125.482 943.479 Q123.677 947.021 123.677 954.15 Q123.677 961.257 125.482 964.822 Q127.311 968.363 130.922 968.363 Q134.556 968.363 136.362 964.822 Q138.191 961.257 138.191 954.15 Q138.191 947.021 136.362 943.479 Q134.556 939.914 130.922 939.914 M130.922 936.211 Q136.732 936.211 139.788 940.817 Q142.867 945.401 142.867 954.15 Q142.867 962.877 139.788 967.484 Q136.732 972.067 130.922 972.067 Q125.112 972.067 122.033 967.484 Q118.978 962.877 118.978 954.15 Q118.978 945.401 122.033 940.817 Q125.112 936.211 130.922 936.211 Z" fill="#000000" fill-rule="nonzero" fill-opacity="1" /><path clip-path="url(#clip120)" d="M121.964 696.769 L140.32 696.769 L140.32 700.704 L126.246 700.704 L126.246 709.176 Q127.265 708.829 128.283 708.667 Q129.302 708.481 130.32 708.481 Q136.107 708.481 139.487 711.653 Q142.867 714.824 142.867 720.241 Q142.867 725.819 139.394 728.921 Q135.922 732 129.603 732 Q127.427 732 125.158 731.63 Q122.913 731.259 120.506 730.518 L120.506 725.819 Q122.589 726.954 124.811 727.509 Q127.033 728.065 129.51 728.065 Q133.515 728.065 135.853 725.958 Q138.191 723.852 138.191 720.241 Q138.191 716.63 135.853 714.523 Q133.515 712.417 129.51 712.417 Q127.635 712.417 125.76 712.833 Q123.908 713.25 121.964 714.13 L121.964 696.769 Z" fill="#000000" fill-rule="nonzero" fill-opacity="1" /><path clip-path="url(#clip120)" d="M91.5706 487.326 L99.2095 487.326 L99.2095 460.961 L90.8993 462.627 L90.8993 458.368 L99.1632 456.701 L103.839 456.701 L103.839 487.326 L111.478 487.326 L111.478 491.261 L91.5706 491.261 L91.5706 487.326 Z" fill="#000000" fill-rule="nonzero" fill-opacity="1" /><path clip-path="url(#clip120)" d="M130.922 459.78 Q127.311 459.78 125.482 463.345 Q123.677 466.887 123.677 474.016 Q123.677 481.123 125.482 484.687 Q127.311 488.229 130.922 488.229 Q134.556 488.229 136.362 484.687 Q138.191 481.123 138.191 474.016 Q138.191 466.887 136.362 463.345 Q134.556 459.78 130.922 459.78 M130.922 456.076 Q136.732 456.076 139.788 460.683 Q142.867 465.266 142.867 474.016 Q142.867 482.743 139.788 487.349 Q136.732 491.933 130.922 491.933 Q125.112 491.933 122.033 487.349 Q118.978 482.743 118.978 474.016 Q118.978 465.266 122.033 460.683 Q125.112 456.076 130.922 456.076 Z" fill="#000000" fill-rule="nonzero" fill-opacity="1" /><path clip-path="url(#clip120)" d="M92.566 247.259 L100.205 247.259 L100.205 220.894 L91.8947 222.56 L91.8947 218.301 L100.159 216.634 L104.834 216.634 L104.834 247.259 L112.473 247.259 L112.473 251.194 L92.566 251.194 L92.566 247.259 Z" fill="#000000" fill-rule="nonzero" fill-opacity="1" /><path clip-path="url(#clip120)" d="M121.964 216.634 L140.32 216.634 L140.32 220.569 L126.246 220.569 L126.246 229.042 Q127.265 228.694 128.283 228.532 Q129.302 228.347 130.32 228.347 Q136.107 228.347 139.487 231.518 Q142.867 234.69 142.867 240.106 Q142.867 245.685 139.394 248.787 Q135.922 251.866 129.603 251.866 Q127.427 251.866 125.158 251.495 Q122.913 251.125 120.506 250.384 L120.506 245.685 Q122.589 246.819 124.811 247.375 Q127.033 247.93 129.51 247.93 Q133.515 247.93 135.853 245.824 Q138.191 243.717 138.191 240.106 Q138.191 236.495 135.853 234.389 Q133.515 232.282 129.51 232.282 Q127.635 232.282 125.76 232.699 Q123.908 233.116 121.964 233.995 L121.964 216.634 Z" fill="#000000" fill-rule="nonzero" fill-opacity="1" /><polyline clip-path="url(#clip122)" style="stroke:#009af9; stroke-linecap:round; stroke-linejoin:round; stroke-width:4; stroke-opacity:1; fill:none" points="240.392,916.121 247.251,934.391 254.11,952.994 260.969,972.495 267.828,992.138 274.687,1011.49 281.546,1031.22 288.405,1051.64 295.264,1072.06 302.123,1092.34 308.982,1112.57 315.841,1132.09 322.7,1150.77 329.559,1168.89 336.418,1186.28 343.277,1202.79 350.136,1218.7 356.995,1234.08 363.854,1248.87 370.713,1263.06 377.572,1276.63 384.431,1289.65 391.29,1302.12 398.149,1313.99 405.008,1325.34 411.867,1336.25 418.726,1346.6 425.585,1356.41 432.444,1365.73 439.303,1374.55 446.162,1382.89 453.021,1390.74 459.88,1398.06 466.739,1404.87 473.598,1411.15 480.457,1416.91 487.316,1422.14 494.175,1426.83 501.034,1430.97 507.893,1434.59 514.752,1437.69 521.611,1440.26 528.47,1442.29 535.328,1443.83 542.188,1444.92 549.046,1445.55 555.905,1445.72 562.764,1445.44 569.623,1444.76 576.482,1443.72 583.341,1442.39 590.2,1440.84 597.059,1439.14 603.918,1437.14 610.777,1434.65 617.636,1431.69 624.495,1428.23 631.354,1424.24 638.213,1419.69 645.072,1414.64 651.931,1409.16 658.79,1403.27 665.649,1396.94 672.508,1390.19 679.367,1383.04 686.226,1375.59 693.085,1367.75 699.944,1359.55 706.803,1351 713.662,1342.12 720.521,1332.95 727.38,1323.52 734.239,1313.91 741.098,1304.16 747.957,1294.31 754.816,1284.38 761.675,1274.41 768.534,1264.36 775.393,1254.26 782.252,1244.14 789.111,1233.95 795.97,1223.63 802.829,1213.28 809.688,1202.9 816.547,1192.62 823.406,1182.42 830.265,1172.26 837.124,1162.13 843.983,1152.01 850.842,1141.94 857.701,1131.91 864.56,1121.97 871.419,1112.1 878.278,1102.36 885.137,1092.81 891.996,1083.35 898.855,1073.99 905.714,1064.76 912.573,1055.67 919.432,1046.71 926.291,1037.81 933.15,1028.97 940.009,1020.19 946.868,1011.54 953.727,1003.03 960.586,994.552 967.445,986.026 974.304,977.479 981.163,968.98 988.022,960.522 994.881,952.1 1001.74,943.783 1008.6,935.625 1015.46,927.668 1022.32,919.856 1029.18,912.197 1036.04,904.649 1042.89,897.175 1049.75,889.789 1056.61,882.485 1063.47,875.243 1070.33,868.074 1077.19,861.013 1084.05,854.07 1090.91,847.212 1097.77,840.371 1104.62,833.561 1111.48,826.854 1118.34,820.204 1125.2,813.586 1132.06,807.085 1138.92,800.601 1145.78,794.078 1152.64,787.617 1159.5,781.178 1166.36,774.765 1173.21,768.42 1180.07,762.125 1186.93,755.827 1193.79,749.586 1200.65,743.499 1207.51,737.554 1214.37,731.74 1221.23,726.053 1228.09,720.409 1234.95,714.752 1241.8,709.135 1248.66,703.637 1255.52,698.263 1262.38,692.965 1269.24,687.775 1276.1,682.763 1282.96,677.925 1289.82,673.242 1296.68,668.68 1303.54,664.204 1310.39,659.824 1317.25,655.579 1324.11,651.452 1330.97,647.469 1337.83,643.649 1344.69,640.018 1351.55,636.696 1358.41,633.694 1365.27,630.916 1372.13,628.32 1378.98,625.908 1385.84,623.725 1392.7,621.744 1399.56,620 1406.42,618.428 1413.28,617.055 1420.14,615.957 1427,615.123 1433.86,614.579 1440.72,614.281 1447.57,614.249 1454.43,614.459 1461.29,614.905 1468.15,615.58 1475.01,616.424 1481.87,617.438 1488.73,618.633 1495.59,620.05 1502.45,621.678 1509.31,623.566 1516.16,625.713 1523.02,628.062 1529.88,630.582 1536.74,633.206 1543.6,635.983 1550.46,638.968 1557.32,642.07 1564.18,645.317 1571.04,648.696 1577.9,652.25 1584.75,655.976 1591.61,659.876 1598.47,663.934 1605.33,668.099 1612.19,672.396 1619.05,676.833 1625.91,681.415 1632.77,686.124 1639.63,690.96 1646.49,695.892 1653.34,700.891 1660.2,705.999 1667.06,711.234 1673.92,716.52 1680.78,721.876 1687.64,727.353 1694.5,732.992 1701.36,738.782 1708.22,744.697 1715.08,750.638 1721.93,756.53 1728.79,762.407 1735.65,768.259 1742.51,774.122 1749.37,780.012 1756.23,785.891 1763.09,791.744 1769.95,797.62 1776.81,803.543 1783.67,809.434 1790.52,815.28 1797.38,821.066 1804.24,826.733 1811.1,832.268 1817.96,837.809 1824.82,843.362 1831.68,848.846 1838.54,854.222 1845.4,859.464 1852.26,864.555 1859.11,869.528 1865.97,874.432 1872.83,879.202 1879.69,883.832 1886.55,888.354 1893.41,892.836 1900.27,897.27 1907.13,901.627 1913.99,905.84 1920.85,909.859 1927.7,913.716 1934.56,917.453 1941.42,921.101 1948.28,924.673 1955.14,928.232 1962,931.764 1968.86,935.202 1975.72,938.52 1982.58,941.705 1989.44,944.761 1996.29,947.666 2003.15,950.417 2010.01,953.038 2016.87,955.557 2023.73,957.982 2030.59,960.295 2037.45,962.48 2044.31,964.556 2051.17,966.514 2058.02,968.338 2064.88,970.017 2071.74,971.547 2078.6,972.968 2085.46,974.314 2092.32,975.594 2099.18,976.819 2106.04,978.01 2112.9,979.145 2119.76,980.232 2126.61,981.292 2133.47,982.325 2140.33,983.429 2147.19,984.57 2154.05,985.764 2160.91,987.005 2167.77,988.282 2174.63,989.741 2181.49,991.348 2188.35,993.023 2195.2,994.845 2202.06,996.745 2208.92,998.647 2215.78,1000.6 2222.64,1002.95 2229.5,1006.18 2236.36,1010.35 2243.22,1014.86 2250.08,1019.97 2256.94,1025.72 2263.79,1032.49 2270.65,1040.8 2277.51,1049.8 2284.37,1058.95 2291.23,1067.89 "/>
<polyline clip-path="url(#clip122)" style="stroke:#e26f46; stroke-linecap:round; stroke-linejoin:round; stroke-width:4; stroke-opacity:1; fill:none" points="240.392,87.9763 247.251,107.739 254.11,128.599 260.969,149.993 267.828,172.216 274.687,195.54 281.546,218.536 288.405,240.895 295.264,263.602 302.123,286.39 308.982,308.836 315.841,330.964 322.7,352.849 329.559,374.4 336.418,395.389 343.277,416.099 350.136,436.411 356.995,456.184 363.854,475.546 370.713,494.502 377.572,513.031 384.431,531.187 391.29,548.958 398.149,566.272 405.008,583.225 411.867,599.802 418.726,616.006 425.585,631.86 432.444,647.378 439.303,662.56 446.162,677.45 453.021,692.087 459.88,706.497 466.739,720.688 473.598,734.674 480.457,748.461 487.316,762.087 494.175,775.549 501.034,788.82 507.893,801.925 514.752,814.953 521.611,827.904 528.47,840.743 535.328,853.467 542.188,866.108 549.046,878.683 555.905,891.22 562.764,903.704 569.623,916.133 576.482,928.571 583.341,940.967 590.2,953.308 597.059,965.602 603.918,977.833 610.777,989.978 617.636,1002.02 624.495,1013.95 631.354,1025.78 638.213,1037.48 645.072,1048.95 651.931,1060.12 658.79,1071.13 665.649,1082.04 672.508,1092.8 679.367,1103.38 686.226,1113.73 693.085,1123.83 699.944,1133.81 706.803,1143.69 713.662,1153.41 720.521,1162.95 727.38,1172.34 734.239,1181.58 741.098,1190.61 747.957,1199.48 754.816,1208.23 761.675,1216.84 768.534,1225.36 775.393,1233.7 782.252,1241.85 789.111,1249.82 795.97,1257.59 802.829,1265.21 809.688,1272.65 816.547,1279.84 823.406,1286.79 830.265,1293.57 837.124,1300.14 843.983,1306.47 850.842,1312.5 857.701,1318.23 864.56,1323.7 871.419,1328.97 878.278,1334.05 885.137,1338.9 891.996,1343.47 898.855,1347.77 905.714,1351.73 912.573,1355.35 919.432,1358.65 926.291,1361.52 933.15,1363.95 940.009,1366.01 946.868,1367.73 953.727,1369.12 960.586,1370.1 967.445,1370.64 974.304,1370.79 981.163,1370.55 988.022,1369.97 994.881,1369.06 1001.74,1367.75 1008.6,1365.97 1015.46,1363.79 1022.32,1361.23 1029.18,1358.28 1036.04,1354.97 1042.89,1351.33 1049.75,1347.35 1056.61,1343.02 1063.47,1338.38 1070.33,1333.41 1077.19,1328.05 1084.05,1322.45 1090.91,1316.58 1097.77,1310.44 1104.62,1304.1 1111.48,1297.6 1118.34,1290.91 1125.2,1284.05 1132.06,1277.07 1138.92,1269.91 1145.78,1262.66 1152.64,1255.43 1159.5,1248.13 1166.36,1240.7 1173.21,1233.12 1180.07,1225.4 1186.93,1217.61 1193.79,1209.76 1200.65,1201.93 1207.51,1194.07 1214.37,1186.2 1221.23,1178.44 1228.09,1170.72 1234.95,1162.92 1241.8,1155.11 1248.66,1147.41 1255.52,1139.81 1262.38,1132.28 1269.24,1124.79 1276.1,1117.31 1282.96,1109.91 1289.82,1102.57 1296.68,1095.19 1303.54,1087.87 1310.39,1080.71 1317.25,1073.68 1324.11,1066.81 1330.97,1060.08 1337.83,1053.49 1344.69,1047.07 1351.55,1040.74 1358.41,1034.52 1365.27,1028.44 1372.13,1022.48 1378.98,1016.58 1385.84,1010.76 1392.7,1005.04 1399.56,999.533 1406.42,994.268 1413.28,989.217 1420.14,984.26 1427,979.389 1433.86,974.589 1440.72,969.839 1447.57,965.13 1454.43,960.47 1461.29,955.852 1468.15,951.223 1475.01,946.617 1481.87,942.094 1488.73,937.611 1495.59,933.178 1502.45,928.764 1509.31,924.352 1516.16,919.988 1523.02,915.571 1529.88,911.176 1536.74,906.845 1543.6,902.56 1550.46,898.236 1557.32,893.823 1564.18,889.377 1571.04,884.931 1577.9,880.533 1584.75,876.145 1591.61,871.719 1598.47,867.269 1605.33,862.789 1612.19,858.281 1619.05,853.766 1625.91,849.238 1632.77,844.762 1639.63,840.288 1646.49,835.799 1653.34,831.307 1660.2,826.735 1667.06,822.072 1673.92,817.355 1680.78,812.601 1687.64,807.864 1694.5,803.156 1701.36,798.445 1708.22,793.645 1715.08,788.862 1721.93,784.131 1728.79,779.469 1735.65,774.953 1742.51,770.569 1749.37,766.237 1756.23,761.98 1763.09,757.797 1769.95,753.712 1776.81,749.734 1783.67,745.838 1790.52,742.09 1797.38,738.508 1804.24,735.035 1811.1,731.693 1817.96,728.464 1824.82,725.34 1831.68,722.312 1838.54,719.336 1845.4,716.446 1852.26,713.66 1859.11,711.037 1865.97,708.515 1872.83,705.993 1879.69,703.537 1886.55,701.143 1893.41,698.861 1900.27,696.724 1907.13,694.784 1913.99,693.008 1920.85,691.349 1927.7,689.819 1934.56,688.372 1941.42,686.965 1948.28,685.65 1955.14,684.477 1962,683.399 1968.86,682.376 1975.72,681.423 1982.58,680.577 1989.44,679.857 1996.29,679.27 2003.15,678.788 2010.01,678.428 2016.87,678.232 2023.73,678.156 2030.59,678.161 2037.45,678.241 2044.31,678.392 2051.17,678.588 2058.02,678.825 2064.88,679.094 2071.74,679.398 2078.6,679.73 2085.46,680.073 2092.32,680.421 2099.18,680.738 2106.04,680.99 2112.9,681.148 2119.76,681.233 2126.61,681.302 2133.47,681.407 2140.33,681.5 2147.19,681.571 2154.05,681.654 2160.91,681.709 2167.77,681.744 2174.63,681.72 2181.49,681.535 2188.35,681.128 2195.2,680.711 2202.06,680.442 2208.92,680.157 2215.78,679.924 2222.64,679.611 2229.5,679.258 2236.36,679.062 2243.22,678.781 2250.08,678.407 2256.94,678.648 2263.79,679.341 2270.65,680.158 2277.51,680.363 2284.37,680.03 2291.23,678.581 "/>
<path clip-path="url(#clip120)" d="M2010.47 250.738 L2280.29 250.738 L2280.29 95.2176 L2010.47 95.2176  Z" fill="#ffffff" fill-rule="evenodd" fill-opacity="1"/>
<polyline clip-path="url(#clip120)" style="stroke:#000000; stroke-linecap:round; stroke-linejoin:round; stroke-width:4; stroke-opacity:1; fill:none" points="2010.47,250.738 2280.29,250.738 2280.29,95.2176 2010.47,95.2176 2010.47,250.738 "/>
<polyline clip-path="url(#clip120)" style="stroke:#009af9; stroke-linecap:round; stroke-linejoin:round; stroke-width:4; stroke-opacity:1; fill:none" points="2034.63,147.058 2179.55,147.058 "/>
<path clip-path="url(#clip120)" d="M2217.55 166.745 Q2215.75 171.375 2214.03 172.787 Q2212.32 174.199 2209.45 174.199 L2206.05 174.199 L2206.05 170.634 L2208.55 170.634 Q2210.31 170.634 2211.28 169.8 Q2212.25 168.967 2213.43 165.865 L2214.19 163.921 L2203.71 138.412 L2208.22 138.412 L2216.32 158.689 L2224.43 138.412 L2228.94 138.412 L2217.55 166.745 Z" fill="#000000" fill-rule="nonzero" fill-opacity="1" /><path clip-path="url(#clip120)" d="M2236.23 160.402 L2243.87 160.402 L2243.87 134.037 L2235.56 135.703 L2235.56 131.444 L2243.82 129.778 L2248.5 129.778 L2248.5 160.402 L2256.14 160.402 L2256.14 164.338 L2236.23 164.338 L2236.23 160.402 Z" fill="#000000" fill-rule="nonzero" fill-opacity="1" /><polyline clip-path="url(#clip120)" style="stroke:#e26f46; stroke-linecap:round; stroke-linejoin:round; stroke-width:4; stroke-opacity:1; fill:none" points="2034.63,198.898 2179.55,198.898 "/>
<path clip-path="url(#clip120)" d="M2217.55 218.585 Q2215.75 223.215 2214.03 224.627 Q2212.32 226.039 2209.45 226.039 L2206.05 226.039 L2206.05 222.474 L2208.55 222.474 Q2210.31 222.474 2211.28 221.64 Q2212.25 220.807 2213.43 217.705 L2214.19 215.761 L2203.71 190.252 L2208.22 190.252 L2216.32 210.529 L2224.43 190.252 L2228.94 190.252 L2217.55 218.585 Z" fill="#000000" fill-rule="nonzero" fill-opacity="1" /><path clip-path="url(#clip120)" d="M2239.45 212.242 L2255.77 212.242 L2255.77 216.178 L2233.82 216.178 L2233.82 212.242 Q2236.49 209.488 2241.07 204.858 Q2245.68 200.205 2246.86 198.863 Q2249.1 196.34 2249.98 194.604 Q2250.88 192.844 2250.88 191.155 Q2250.88 188.4 2248.94 186.664 Q2247.02 184.928 2243.92 184.928 Q2241.72 184.928 2239.26 185.692 Q2236.83 186.455 2234.06 188.006 L2234.06 183.284 Q2236.88 182.15 2239.33 181.571 Q2241.79 180.993 2243.82 180.993 Q2249.19 180.993 2252.39 183.678 Q2255.58 186.363 2255.58 190.854 Q2255.58 192.983 2254.77 194.905 Q2253.99 196.803 2251.88 199.395 Q2251.3 200.067 2248.2 203.284 Q2245.1 206.479 2239.45 212.242 Z" fill="#000000" fill-rule="nonzero" fill-opacity="1" /></svg>
