<?xml version="1.0" encoding="utf-8"?>
<svg xmlns="http://www.w3.org/2000/svg" xmlns:xlink="http://www.w3.org/1999/xlink" width="600" height="400" viewBox="0 0 2400 1600">
<defs>
  <clipPath id="clip120">
    <rect x="0" y="0" width="2400" height="1600"/>
  </clipPath>
</defs>
<path clip-path="url(#clip120)" d="M0 1600 L2400 1600 L2400 0 L0 0  Z" fill="#ffffff" fill-rule="evenodd" fill-opacity="1"/>
<defs>
  <clipPath id="clip121">
    <rect x="480" y="0" width="1681" height="1600"/>
  </clipPath>
</defs>
<path clip-path="url(#clip120)" d="M257.204 1423.18 L2352.76 1423.18 L2352.76 47.2441 L257.204 47.2441  Z" fill="#ffffff" fill-rule="evenodd" fill-opacity="1"/>
<defs>
  <clipPath id="clip122">
    <rect x="257" y="47" width="2097" height="1377"/>
  </clipPath>
</defs>
<polyline clip-path="url(#clip122)" style="stroke:#000000; stroke-linecap:round; stroke-linejoin:round; stroke-width:2; stroke-opacity:0.1; fill:none" points="323.552,1423.18 323.552,47.2441 "/>
<polyline clip-path="url(#clip122)" style="stroke:#000000; stroke-linecap:round; stroke-linejoin:round; stroke-width:2; stroke-opacity:0.1; fill:none" points="812.217,1423.18 812.217,47.2441 "/>
<polyline clip-path="url(#clip122)" style="stroke:#000000; stroke-linecap:round; stroke-linejoin:round; stroke-width:2; stroke-opacity:0.1; fill:none" points="1300.88,1423.18 1300.88,47.2441 "/>
<polyline clip-path="url(#clip122)" style="stroke:#000000; stroke-linecap:round; stroke-linejoin:round; stroke-width:2; stroke-opacity:0.1; fill:none" points="1789.55,1423.18 1789.55,47.2441 "/>
<polyline clip-path="url(#clip122)" style="stroke:#000000; stroke-linecap:round; stroke-linejoin:round; stroke-width:2; stroke-opacity:0.1; fill:none" points="2278.21,1423.18 2278.21,47.2441 "/>
<polyline clip-path="url(#clip120)" style="stroke:#000000; stroke-linecap:round; stroke-linejoin:round; stroke-width:4; stroke-opacity:1; fill:none" points="257.204,1423.18 2352.76,1423.18 "/>
<polyline clip-path="url(#clip120)" style="stroke:#000000; stroke-linecap:round; stroke-linejoin:round; stroke-width:4; stroke-opacity:1; fill:none" points="323.552,1423.18 323.552,1404.28 "/>
<polyline clip-path="url(#clip120)" style="stroke:#000000; stroke-linecap:round; stroke-linejoin:round; stroke-width:4; stroke-opacity:1; fill:none" points="812.217,1423.18 812.217,1404.28 "/>
<polyline clip-path="url(#clip120)" style="stroke:#000000; stroke-linecap:round; stroke-linejoin:round; stroke-width:4; stroke-opacity:1; fill:none" points="1300.88,1423.18 1300.88,1404.28 "/>
<polyline clip-path="url(#clip120)" style="stroke:#000000; stroke-linecap:round; stroke-linejoin:round; stroke-width:4; stroke-opacity:1; fill:none" points="1789.55,1423.18 1789.55,1404.28 "/>
<polyline clip-path="url(#clip120)" style="stroke:#000000; stroke-linecap:round; stroke-linejoin:round; stroke-width:4; stroke-opacity:1; fill:none" points="2278.21,1423.18 2278.21,1404.28 "/>
<path clip-path="url(#clip120)" d="M270.081 1468.75 L299.756 1468.75 L299.756 1472.69 L270.081 1472.69 L270.081 1468.75 Z" fill="#000000" fill-rule="nonzero" fill-opacity="1" /><path clip-path="url(#clip120)" d="M310.659 1481.64 L318.298 1481.64 L318.298 1455.28 L309.988 1456.95 L309.988 1452.69 L318.252 1451.02 L322.927 1451.02 L322.927 1481.64 L330.566 1481.64 L330.566 1485.58 L310.659 1485.58 L310.659 1481.64 Z" fill="#000000" fill-rule="nonzero" fill-opacity="1" /><path clip-path="url(#clip120)" d="M340.011 1479.7 L344.895 1479.7 L344.895 1485.58 L340.011 1485.58 L340.011 1479.7 Z" fill="#000000" fill-rule="nonzero" fill-opacity="1" /><path clip-path="url(#clip120)" d="M365.08 1454.1 Q361.469 1454.1 359.64 1457.66 Q357.835 1461.2 357.835 1468.33 Q357.835 1475.44 359.64 1479.01 Q361.469 1482.55 365.08 1482.55 Q368.714 1482.55 370.52 1479.01 Q372.349 1475.44 372.349 1468.33 Q372.349 1461.2 370.52 1457.66 Q368.714 1454.1 365.08 1454.1 M365.08 1450.39 Q370.89 1450.39 373.946 1455 Q377.024 1459.58 377.024 1468.33 Q377.024 1477.06 373.946 1481.67 Q370.89 1486.25 365.08 1486.25 Q359.27 1486.25 356.191 1481.67 Q353.136 1477.06 353.136 1468.33 Q353.136 1459.58 356.191 1455 Q359.27 1450.39 365.08 1450.39 Z" fill="#000000" fill-rule="nonzero" fill-opacity="1" /><path clip-path="url(#clip120)" d="M759.243 1468.75 L788.919 1468.75 L788.919 1472.69 L759.243 1472.69 L759.243 1468.75 Z" fill="#000000" fill-rule="nonzero" fill-opacity="1" /><path clip-path="url(#clip120)" d="M809.011 1454.1 Q805.4 1454.1 803.572 1457.66 Q801.766 1461.2 801.766 1468.33 Q801.766 1475.44 803.572 1479.01 Q805.4 1482.55 809.011 1482.55 Q812.646 1482.55 814.451 1479.01 Q816.28 1475.44 816.28 1468.33 Q816.28 1461.2 814.451 1457.66 Q812.646 1454.1 809.011 1454.1 M809.011 1450.39 Q814.822 1450.39 817.877 1455 Q820.956 1459.58 820.956 1468.33 Q820.956 1477.06 817.877 1481.67 Q814.822 1486.25 809.011 1486.25 Q803.201 1486.25 800.123 1481.67 Q797.067 1477.06 797.067 1468.33 Q797.067 1459.58 800.123 1455 Q803.201 1450.39 809.011 1450.39 Z" fill="#000000" fill-rule="nonzero" fill-opacity="1" /><path clip-path="url(#clip120)" d="M829.173 1479.7 L834.058 1479.7 L834.058 1485.58 L829.173 1485.58 L829.173 1479.7 Z" fill="#000000" fill-rule="nonzero" fill-opacity="1" /><path clip-path="url(#clip120)" d="M844.289 1451.02 L862.645 1451.02 L862.645 1454.96 L848.571 1454.96 L848.571 1463.43 Q849.59 1463.08 850.608 1462.92 Q851.627 1462.73 852.645 1462.73 Q858.432 1462.73 861.812 1465.9 Q865.192 1469.08 865.192 1474.49 Q865.192 1480.07 861.719 1483.17 Q858.247 1486.25 851.928 1486.25 Q849.752 1486.25 847.483 1485.88 Q845.238 1485.51 842.831 1484.77 L842.831 1480.07 Q844.914 1481.2 847.136 1481.76 Q849.358 1482.32 851.835 1482.32 Q855.84 1482.32 858.178 1480.21 Q860.516 1478.1 860.516 1474.49 Q860.516 1470.88 858.178 1468.77 Q855.84 1466.67 851.835 1466.67 Q849.96 1466.67 848.085 1467.08 Q846.233 1467.5 844.289 1468.38 L844.289 1451.02 Z" fill="#000000" fill-rule="nonzero" fill-opacity="1" /><path clip-path="url(#clip120)" d="M1278.27 1454.1 Q1274.66 1454.1 1272.83 1457.66 Q1271.02 1461.2 1271.02 1468.33 Q1271.02 1475.44 1272.83 1479.01 Q1274.66 1482.55 1278.27 1482.55 Q1281.9 1482.55 1283.71 1479.01 Q1285.54 1475.44 1285.54 1468.33 Q1285.54 1461.2 1283.71 1457.66 Q1281.9 1454.1 1278.27 1454.1 M1278.27 1450.39 Q1284.08 1450.39 1287.13 1455 Q1290.21 1459.58 1290.21 1468.33 Q1290.21 1477.06 1287.13 1481.67 Q1284.08 1486.25 1278.27 1486.25 Q1272.46 1486.25 1269.38 1481.67 Q1266.32 1477.06 1266.32 1468.33 Q1266.32 1459.58 1269.38 1455 Q1272.46 1450.39 1278.27 1450.39 Z" fill="#000000" fill-rule="nonzero" fill-opacity="1" /><path clip-path="url(#clip120)" d="M1298.43 1479.7 L1303.31 1479.7 L1303.31 1485.58 L1298.43 1485.58 L1298.43 1479.7 Z" fill="#000000" fill-rule="nonzero" fill-opacity="1" /><path clip-path="url(#clip120)" d="M1323.5 1454.1 Q1319.89 1454.1 1318.06 1457.66 Q1316.25 1461.2 1316.25 1468.33 Q1316.25 1475.44 1318.06 1479.01 Q1319.89 1482.55 1323.5 1482.55 Q1327.13 1482.55 1328.94 1479.01 Q1330.77 1475.44 1330.77 1468.33 Q1330.77 1461.2 1328.94 1457.66 Q1327.13 1454.1 1323.5 1454.1 M1323.5 1450.39 Q1329.31 1450.39 1332.36 1455 Q1335.44 1459.58 1335.44 1468.33 Q1335.44 1477.06 1332.36 1481.67 Q1329.31 1486.25 1323.5 1486.25 Q1317.69 1486.25 1314.61 1481.67 Q1311.55 1477.06 1311.55 1468.33 Q1311.55 1459.58 1314.61 1455 Q1317.69 1450.39 1323.5 1450.39 Z" fill="#000000" fill-rule="nonzero" fill-opacity="1" /><path clip-path="url(#clip120)" d="M1767.43 1454.1 Q1763.82 1454.1 1761.99 1457.66 Q1760.18 1461.2 1760.18 1468.33 Q1760.18 1475.44 1761.99 1479.01 Q1763.82 1482.55 1767.43 1482.55 Q1771.06 1482.55 1772.87 1479.01 Q1774.7 1475.44 1774.7 1468.33 Q1774.7 1461.2 1772.87 1457.66 Q1771.06 1454.1 1767.43 1454.1 M1767.43 1450.39 Q1773.24 1450.39 1776.29 1455 Q1779.37 1459.58 1779.37 1468.33 Q1779.37 1477.06 1776.29 1481.67 Q1773.24 1486.25 1767.43 1486.25 Q1761.62 1486.25 1758.54 1481.67 Q1755.48 1477.06 1755.48 1468.33 Q1755.48 1459.58 1758.54 1455 Q1761.62 1450.39 1767.43 1450.39 Z" fill="#000000" fill-rule="nonzero" fill-opacity="1" /><path clip-path="url(#clip120)" d="M1787.59 1479.7 L1792.48 1479.7 L1792.48 1485.58 L1787.59 1485.58 L1787.59 1479.7 Z" fill="#000000" fill-rule="nonzero" fill-opacity="1" /><path clip-path="url(#clip120)" d="M1802.71 1451.02 L1821.06 1451.02 L1821.06 1454.96 L1806.99 1454.96 L1806.99 1463.43 Q1808.01 1463.08 1809.03 1462.92 Q1810.04 1462.73 1811.06 1462.73 Q1816.85 1462.73 1820.23 1465.9 Q1823.61 1469.08 1823.61 1474.49 Q1823.61 1480.07 1820.14 1483.17 Q1816.67 1486.25 1810.35 1486.25 Q1808.17 1486.25 1805.9 1485.88 Q1803.66 1485.51 1801.25 1484.77 L1801.25 1480.07 Q1803.33 1481.2 1805.55 1481.76 Q1807.78 1482.32 1810.25 1482.32 Q1814.26 1482.32 1816.6 1480.21 Q1818.93 1478.1 1818.93 1474.49 Q1818.93 1470.88 1816.6 1468.77 Q1814.26 1466.67 1810.25 1466.67 Q1808.38 1466.67 1806.5 1467.08 Q1804.65 1467.5 1802.71 1468.38 L1802.71 1451.02 Z" fill="#000000" fill-rule="nonzero" fill-opacity="1" /><path clip-path="url(#clip120)" d="M2245.36 1481.64 L2253 1481.64 L2253 1455.28 L2244.69 1456.95 L2244.69 1452.69 L2252.96 1451.02 L2257.63 1451.02 L2257.63 1481.64 L2265.27 1481.64 L2265.27 1485.58 L2245.36 1485.58 L2245.36 1481.64 Z" fill="#000000" fill-rule="nonzero" fill-opacity="1" /><path clip-path="url(#clip120)" d="M2274.72 1479.7 L2279.6 1479.7 L2279.6 1485.58 L2274.72 1485.58 L2274.72 1479.7 Z" fill="#000000" fill-rule="nonzero" fill-opacity="1" /><path clip-path="url(#clip120)" d="M2299.79 1454.1 Q2296.17 1454.1 2294.35 1457.66 Q2292.54 1461.2 2292.54 1468.33 Q2292.54 1475.44 2294.35 1479.01 Q2296.17 1482.55 2299.79 1482.55 Q2303.42 1482.55 2305.23 1479.01 Q2307.05 1475.44 2307.05 1468.33 Q2307.05 1461.2 2305.23 1457.66 Q2303.42 1454.1 2299.79 1454.1 M2299.79 1450.39 Q2305.6 1450.39 2308.65 1455 Q2311.73 1459.58 2311.73 1468.33 Q2311.73 1477.06 2308.65 1481.67 Q2305.6 1486.25 2299.79 1486.25 Q2293.98 1486.25 2290.9 1481.67 Q2287.84 1477.06 2287.84 1468.33 Q2287.84 1459.58 2290.9 1455 Q2293.98 1450.39 2299.79 1450.39 Z" fill="#000000" fill-rule="nonzero" fill-opacity="1" /><path clip-path="url(#clip120)" d="M1134.03 1525.81 L1134.03 1543.66 L1142.11 1543.66 Q1146.6 1543.66 1149.05 1541.34 Q1151.5 1539.02 1151.5 1534.72 Q1151.5 1530.45 1149.05 1528.13 Q1146.6 1525.81 1142.11 1525.81 L1134.03 1525.81 M1127.6 1520.52 L1142.11 1520.52 Q1150.1 1520.52 1154.18 1524.15 Q1158.28 1527.75 1158.28 1534.72 Q1158.28 1541.75 1154.18 1545.35 Q1150.1 1548.95 1142.11 1548.95 L1134.03 1548.95 L1134.03 1568.04 L1127.6 1568.04 L1127.6 1520.52 Z" fill="#000000" fill-rule="nonzero" fill-opacity="1" /><path clip-path="url(#clip120)" d="M1178.14 1536.5 Q1173.43 1536.5 1170.7 1540.19 Q1167.96 1543.85 1167.96 1550.25 Q1167.96 1556.65 1170.66 1560.34 Q1173.4 1564 1178.14 1564 Q1182.82 1564 1185.56 1560.31 Q1188.3 1556.62 1188.3 1550.25 Q1188.3 1543.92 1185.56 1540.23 Q1182.82 1536.5 1178.14 1536.5 M1178.14 1531.54 Q1185.78 1531.54 1190.14 1536.5 Q1194.5 1541.47 1194.5 1550.25 Q1194.5 1559 1190.14 1564 Q1185.78 1568.97 1178.14 1568.97 Q1170.47 1568.97 1166.11 1564 Q1161.78 1559 1161.78 1550.25 Q1161.78 1541.47 1166.11 1536.5 Q1170.47 1531.54 1178.14 1531.54 Z" fill="#000000" fill-rule="nonzero" fill-opacity="1" /><path clip-path="url(#clip120)" d="M1226.94 1533.45 L1226.94 1538.98 Q1224.45 1537.71 1221.78 1537.07 Q1219.11 1536.44 1216.24 1536.44 Q1211.88 1536.44 1209.69 1537.77 Q1207.52 1539.11 1207.52 1541.79 Q1207.52 1543.82 1209.08 1545 Q1210.64 1546.15 1215.35 1547.2 L1217.36 1547.64 Q1223.59 1548.98 1226.2 1551.43 Q1228.85 1553.85 1228.85 1558.21 Q1228.85 1563.17 1224.9 1566.07 Q1220.98 1568.97 1214.11 1568.97 Q1211.24 1568.97 1208.13 1568.39 Q1205.04 1567.85 1201.6 1566.74 L1201.6 1560.69 Q1204.85 1562.38 1208 1563.24 Q1211.15 1564.07 1214.24 1564.07 Q1218.37 1564.07 1220.6 1562.66 Q1222.83 1561.23 1222.83 1558.65 Q1222.83 1556.27 1221.21 1554.99 Q1219.62 1553.72 1214.17 1552.54 L1212.14 1552.07 Q1206.69 1550.92 1204.27 1548.56 Q1201.86 1546.18 1201.86 1542.04 Q1201.86 1537.01 1205.42 1534.27 Q1208.99 1531.54 1215.54 1531.54 Q1218.79 1531.54 1221.65 1532.01 Q1224.52 1532.49 1226.94 1533.45 Z" fill="#000000" fill-rule="nonzero" fill-opacity="1" /><path clip-path="url(#clip120)" d="M1238.17 1532.4 L1244.03 1532.4 L1244.03 1568.04 L1238.17 1568.04 L1238.17 1532.4 M1238.17 1518.52 L1244.03 1518.52 L1244.03 1525.93 L1238.17 1525.93 L1238.17 1518.52 Z" fill="#000000" fill-rule="nonzero" fill-opacity="1" /><path clip-path="url(#clip120)" d="M1262.08 1522.27 L1262.08 1532.4 L1274.14 1532.4 L1274.14 1536.95 L1262.08 1536.95 L1262.08 1556.3 Q1262.08 1560.66 1263.25 1561.9 Q1264.46 1563.14 1268.12 1563.14 L1274.14 1563.14 L1274.14 1568.04 L1268.12 1568.04 Q1261.34 1568.04 1258.76 1565.53 Q1256.19 1562.98 1256.19 1556.3 L1256.19 1536.95 L1251.89 1536.95 L1251.89 1532.4 L1256.19 1532.4 L1256.19 1522.27 L1262.08 1522.27 Z" fill="#000000" fill-rule="nonzero" fill-opacity="1" /><path clip-path="url(#clip120)" d="M1281.84 1532.4 L1287.7 1532.4 L1287.7 1568.04 L1281.84 1568.04 L1281.84 1532.4 M1281.84 1518.52 L1287.7 1518.52 L1287.7 1525.93 L1281.84 1525.93 L1281.84 1518.52 Z" fill="#000000" fill-rule="nonzero" fill-opacity="1" /><path clip-path="url(#clip120)" d="M1313.76 1536.5 Q1309.05 1536.5 1306.32 1540.19 Q1303.58 1543.85 1303.58 1550.25 Q1303.58 1556.65 1306.28 1560.34 Q1309.02 1564 1313.76 1564 Q1318.44 1564 1321.18 1560.31 Q1323.92 1556.62 1323.92 1550.25 Q1323.92 1543.92 1321.18 1540.23 Q1318.44 1536.5 1313.76 1536.5 M1313.76 1531.54 Q1321.4 1531.54 1325.76 1536.5 Q1330.12 1541.47 1330.12 1550.25 Q1330.12 1559 1325.76 1564 Q1321.4 1568.97 1313.76 1568.97 Q1306.09 1568.97 1301.73 1564 Q1297.4 1559 1297.4 1550.25 Q1297.4 1541.47 1301.73 1536.5 Q1306.09 1531.54 1313.76 1531.54 Z" fill="#000000" fill-rule="nonzero" fill-opacity="1" /><path clip-path="url(#clip120)" d="M1369.46 1546.53 L1369.46 1568.04 L1363.61 1568.04 L1363.61 1546.72 Q1363.61 1541.66 1361.63 1539.14 Q1359.66 1536.63 1355.71 1536.63 Q1350.97 1536.63 1348.23 1539.65 Q1345.5 1542.68 1345.5 1547.9 L1345.5 1568.04 L1339.61 1568.04 L1339.61 1532.4 L1345.5 1532.4 L1345.5 1537.93 Q1347.6 1534.72 1350.43 1533.13 Q1353.3 1531.54 1357.02 1531.54 Q1363.16 1531.54 1366.31 1535.36 Q1369.46 1539.14 1369.46 1546.53 Z" fill="#000000" fill-rule="nonzero" fill-opacity="1" /><path clip-path="url(#clip120)" d="M1415.93 1518.58 Q1411.67 1525.9 1409.6 1533.06 Q1407.53 1540.23 1407.53 1547.58 Q1407.53 1554.93 1409.6 1562.16 Q1411.7 1569.35 1415.93 1576.64 L1410.84 1576.64 Q1406.07 1569.16 1403.68 1561.93 Q1401.32 1554.71 1401.32 1547.58 Q1401.32 1540.48 1403.68 1533.29 Q1406.04 1526.09 1410.84 1518.58 L1415.93 1518.58 Z" fill="#000000" fill-rule="nonzero" fill-opacity="1" /><path clip-path="url(#clip120)" d="M1430.8 1550.25 Q1430.8 1556.71 1433.44 1560.4 Q1436.11 1564.07 1440.76 1564.07 Q1445.41 1564.07 1448.08 1560.4 Q1450.75 1556.71 1450.75 1550.25 Q1450.75 1543.79 1448.08 1540.13 Q1445.41 1536.44 1440.76 1536.44 Q1436.11 1536.44 1433.44 1540.13 Q1430.8 1543.79 1430.8 1550.25 M1450.75 1562.7 Q1448.91 1565.88 1446.08 1567.44 Q1443.27 1568.97 1439.33 1568.97 Q1432.87 1568.97 1428.79 1563.81 Q1424.75 1558.65 1424.75 1550.25 Q1424.75 1541.85 1428.79 1536.69 Q1432.87 1531.54 1439.33 1531.54 Q1443.27 1531.54 1446.08 1533.1 Q1448.91 1534.62 1450.75 1537.81 L1450.75 1532.4 L1456.61 1532.4 L1456.61 1581.6 L1450.75 1581.6 L1450.75 1562.7 Z" fill="#000000" fill-rule="nonzero" fill-opacity="1" /><path clip-path="url(#clip120)" d="M1467.75 1518.58 L1472.84 1518.58 Q1477.62 1526.09 1479.97 1533.29 Q1482.36 1540.48 1482.36 1547.58 Q1482.36 1554.71 1479.97 1561.93 Q1477.62 1569.16 1472.84 1576.64 L1467.75 1576.64 Q1471.98 1569.35 1474.05 1562.16 Q1476.15 1554.93 1476.15 1547.58 Q1476.15 1540.23 1474.05 1533.06 Q1471.98 1525.9 1467.75 1518.58 Z" fill="#000000" fill-rule="nonzero" fill-opacity="1" /><polyline clip-path="url(#clip122)" style="stroke:#000000; stroke-linecap:round; stroke-linejoin:round; stroke-width:2; stroke-opacity:0.1; fill:none" points="257.204,1381.79 2352.76,1381.79 "/>
<polyline clip-path="url(#clip122)" style="stroke:#000000; stroke-linecap:round; stroke-linejoin:round; stroke-width:2; stroke-opacity:0.1; fill:none" points="257.204,1057.89 2352.76,1057.89 "/>
<polyline clip-path="url(#clip122)" style="stroke:#000000; stroke-linecap:round; stroke-linejoin:round; stroke-width:2; stroke-opacity:0.1; fill:none" points="257.204,733.986 2352.76,733.986 "/>
<polyline clip-path="url(#clip122)" style="stroke:#000000; stroke-linecap:round; stroke-linejoin:round; stroke-width:2; stroke-opacity:0.1; fill:none" points="257.204,410.086 2352.76,410.086 "/>
<polyline clip-path="url(#clip122)" style="stroke:#000000; stroke-linecap:round; stroke-linejoin:round; stroke-width:2; stroke-opacity:0.1; fill:none" points="257.204,86.1857 2352.76,86.1857 "/>
<polyline clip-path="url(#clip120)" style="stroke:#000000; stroke-linecap:round; stroke-linejoin:round; stroke-width:4; stroke-opacity:1; fill:none" points="257.204,1423.18 257.204,47.2441 "/>
<polyline clip-path="url(#clip120)" style="stroke:#000000; stroke-linecap:round; stroke-linejoin:round; stroke-width:4; stroke-opacity:1; fill:none" points="257.204,1381.79 276.102,1381.79 "/>
<polyline clip-path="url(#clip120)" style="stroke:#000000; stroke-linecap:round; stroke-linejoin:round; stroke-width:4; stroke-opacity:1; fill:none" points="257.204,1057.89 276.102,1057.89 "/>
<polyline clip-path="url(#clip120)" style="stroke:#000000; stroke-linecap:round; stroke-linejoin:round; stroke-width:4; stroke-opacity:1; fill:none" points="257.204,733.986 276.102,733.986 "/>
<polyline clip-path="url(#clip120)" style="stroke:#000000; stroke-linecap:round; stroke-linejoin:round; stroke-width:4; stroke-opacity:1; fill:none" points="257.204,410.086 276.102,410.086 "/>
<polyline clip-path="url(#clip120)" style="stroke:#000000; stroke-linecap:round; stroke-linejoin:round; stroke-width:4; stroke-opacity:1; fill:none" points="257.204,86.1857 276.102,86.1857 "/>
<path clip-path="url(#clip120)" d="M114.26 1382.24 L143.936 1382.24 L143.936 1386.17 L114.26 1386.17 L114.26 1382.24 Z" fill="#000000" fill-rule="nonzero" fill-opacity="1" /><path clip-path="url(#clip120)" d="M154.839 1395.13 L162.477 1395.13 L162.477 1368.77 L154.167 1370.43 L154.167 1366.17 L162.431 1364.51 L167.107 1364.51 L167.107 1395.13 L174.746 1395.13 L174.746 1399.07 L154.839 1399.07 L154.839 1395.13 Z" fill="#000000" fill-rule="nonzero" fill-opacity="1" /><path clip-path="url(#clip120)" d="M184.19 1393.19 L189.075 1393.19 L189.075 1399.07 L184.19 1399.07 L184.19 1393.19 Z" fill="#000000" fill-rule="nonzero" fill-opacity="1" /><path clip-path="url(#clip120)" d="M209.26 1367.58 Q205.649 1367.58 203.82 1371.15 Q202.014 1374.69 202.014 1381.82 Q202.014 1388.93 203.82 1392.49 Q205.649 1396.03 209.26 1396.03 Q212.894 1396.03 214.699 1392.49 Q216.528 1388.93 216.528 1381.82 Q216.528 1374.69 214.699 1371.15 Q212.894 1367.58 209.26 1367.58 M209.26 1363.88 Q215.07 1363.88 218.125 1368.49 Q221.204 1373.07 221.204 1381.82 Q221.204 1390.55 218.125 1395.15 Q215.07 1399.74 209.26 1399.74 Q203.449 1399.74 200.371 1395.15 Q197.315 1390.55 197.315 1381.82 Q197.315 1373.07 200.371 1368.49 Q203.449 1363.88 209.26 1363.88 Z" fill="#000000" fill-rule="nonzero" fill-opacity="1" /><path clip-path="url(#clip120)" d="M115.256 1058.34 L144.931 1058.34 L144.931 1062.27 L115.256 1062.27 L115.256 1058.34 Z" fill="#000000" fill-rule="nonzero" fill-opacity="1" /><path clip-path="url(#clip120)" d="M165.024 1043.68 Q161.413 1043.68 159.584 1047.25 Q157.778 1050.79 157.778 1057.92 Q157.778 1065.03 159.584 1068.59 Q161.413 1072.13 165.024 1072.13 Q168.658 1072.13 170.464 1068.59 Q172.292 1065.03 172.292 1057.92 Q172.292 1050.79 170.464 1047.25 Q168.658 1043.68 165.024 1043.68 M165.024 1039.98 Q170.834 1039.98 173.889 1044.59 Q176.968 1049.17 176.968 1057.92 Q176.968 1066.65 173.889 1071.25 Q170.834 1075.84 165.024 1075.84 Q159.214 1075.84 156.135 1071.25 Q153.079 1066.65 153.079 1057.92 Q153.079 1049.17 156.135 1044.59 Q159.214 1039.98 165.024 1039.98 Z" fill="#000000" fill-rule="nonzero" fill-opacity="1" /><path clip-path="url(#clip120)" d="M185.186 1069.29 L190.07 1069.29 L190.07 1075.17 L185.186 1075.17 L185.186 1069.29 Z" fill="#000000" fill-rule="nonzero" fill-opacity="1" /><path clip-path="url(#clip120)" d="M200.301 1040.61 L218.658 1040.61 L218.658 1044.54 L204.584 1044.54 L204.584 1053.01 Q205.602 1052.67 206.621 1052.5 Q207.639 1052.32 208.658 1052.32 Q214.445 1052.32 217.824 1055.49 Q221.204 1058.66 221.204 1064.08 Q221.204 1069.66 217.732 1072.76 Q214.26 1075.84 207.94 1075.84 Q205.764 1075.84 203.496 1075.47 Q201.25 1075.1 198.843 1074.36 L198.843 1069.66 Q200.926 1070.79 203.149 1071.35 Q205.371 1071.9 207.848 1071.9 Q211.852 1071.9 214.19 1069.8 Q216.528 1067.69 216.528 1064.08 Q216.528 1060.47 214.19 1058.36 Q211.852 1056.25 207.848 1056.25 Q205.973 1056.25 204.098 1056.67 Q202.246 1057.09 200.301 1057.97 L200.301 1040.61 Z" fill="#000000" fill-rule="nonzero" fill-opacity="1" /><path clip-path="url(#clip120)" d="M164.028 719.785 Q160.417 719.785 158.589 723.349 Q156.783 726.891 156.783 734.021 Q156.783 741.127 158.589 744.692 Q160.417 748.234 164.028 748.234 Q167.663 748.234 169.468 744.692 Q171.297 741.127 171.297 734.021 Q171.297 726.891 169.468 723.349 Q167.663 719.785 164.028 719.785 M164.028 716.081 Q169.839 716.081 172.894 720.687 Q175.973 725.271 175.973 734.021 Q175.973 742.747 172.894 747.354 Q169.839 751.937 164.028 751.937 Q158.218 751.937 155.14 747.354 Q152.084 742.747 152.084 734.021 Q152.084 725.271 155.14 720.687 Q158.218 716.081 164.028 716.081 Z" fill="#000000" fill-rule="nonzero" fill-opacity="1" /><path clip-path="url(#clip120)" d="M184.19 745.386 L189.075 745.386 L189.075 751.266 L184.19 751.266 L184.19 745.386 Z" fill="#000000" fill-rule="nonzero" fill-opacity="1" /><path clip-path="url(#clip120)" d="M209.26 719.785 Q205.649 719.785 203.82 723.349 Q202.014 726.891 202.014 734.021 Q202.014 741.127 203.82 744.692 Q205.649 748.234 209.26 748.234 Q212.894 748.234 214.699 744.692 Q216.528 741.127 216.528 734.021 Q216.528 726.891 214.699 723.349 Q212.894 719.785 209.26 719.785 M209.26 716.081 Q215.07 716.081 218.125 720.687 Q221.204 725.271 221.204 734.021 Q221.204 742.747 218.125 747.354 Q215.07 751.937 209.26 751.937 Q203.449 751.937 200.371 747.354 Q197.315 742.747 197.315 734.021 Q197.315 725.271 200.371 720.687 Q203.449 716.081 209.26 716.081 Z" fill="#000000" fill-rule="nonzero" fill-opacity="1" /><path clip-path="url(#clip120)" d="M165.024 395.885 Q161.413 395.885 159.584 399.449 Q157.778 402.991 157.778 410.121 Q157.778 417.227 159.584 420.792 Q161.413 424.333 165.024 424.333 Q168.658 424.333 170.464 420.792 Q172.292 417.227 172.292 410.121 Q172.292 402.991 170.464 399.449 Q168.658 395.885 165.024 395.885 M165.024 392.181 Q170.834 392.181 173.889 396.787 Q176.968 401.371 176.968 410.121 Q176.968 418.847 173.889 423.454 Q170.834 428.037 165.024 428.037 Q159.214 428.037 156.135 423.454 Q153.079 418.847 153.079 410.121 Q153.079 401.371 156.135 396.787 Q159.214 392.181 165.024 392.181 Z" fill="#000000" fill-rule="nonzero" fill-opacity="1" /><path clip-path="url(#clip120)" d="M185.186 421.486 L190.07 421.486 L190.07 427.366 L185.186 427.366 L185.186 421.486 Z" fill="#000000" fill-rule="nonzero" fill-opacity="1" /><path clip-path="url(#clip120)" d="M200.301 392.806 L218.658 392.806 L218.658 396.741 L204.584 396.741 L204.584 405.213 Q205.602 404.866 206.621 404.704 Q207.639 404.519 208.658 404.519 Q214.445 404.519 217.824 407.69 Q221.204 410.861 221.204 416.278 Q221.204 421.857 217.732 424.958 Q214.26 428.037 207.94 428.037 Q205.764 428.037 203.496 427.667 Q201.25 427.296 198.843 426.556 L198.843 421.857 Q200.926 422.991 203.149 423.546 Q205.371 424.102 207.848 424.102 Q211.852 424.102 214.19 421.995 Q216.528 419.889 216.528 416.278 Q216.528 412.667 214.19 410.56 Q211.852 408.454 207.848 408.454 Q205.973 408.454 204.098 408.871 Q202.246 409.287 200.301 410.167 L200.301 392.806 Z" fill="#000000" fill-rule="nonzero" fill-opacity="1" /><path clip-path="url(#clip120)" d="M154.839 99.5305 L162.477 99.5305 L162.477 73.1649 L154.167 74.8316 L154.167 70.5723 L162.431 68.9057 L167.107 68.9057 L167.107 99.5305 L174.746 99.5305 L174.746 103.466 L154.839 103.466 L154.839 99.5305 Z" fill="#000000" fill-rule="nonzero" fill-opacity="1" /><path clip-path="url(#clip120)" d="M184.19 97.5861 L189.075 97.5861 L189.075 103.466 L184.19 103.466 L184.19 97.5861 Z" fill="#000000" fill-rule="nonzero" fill-opacity="1" /><path clip-path="url(#clip120)" d="M209.26 71.9844 Q205.649 71.9844 203.82 75.5492 Q202.014 79.0908 202.014 86.2204 Q202.014 93.3268 203.82 96.8916 Q205.649 100.433 209.26 100.433 Q212.894 100.433 214.699 96.8916 Q216.528 93.3268 216.528 86.2204 Q216.528 79.0908 214.699 75.5492 Q212.894 71.9844 209.26 71.9844 M209.26 68.2807 Q215.07 68.2807 218.125 72.8871 Q221.204 77.4704 221.204 86.2204 Q221.204 94.9472 218.125 99.5537 Q215.07 104.137 209.26 104.137 Q203.449 104.137 200.371 99.5537 Q197.315 94.9472 197.315 86.2204 Q197.315 77.4704 200.371 72.8871 Q203.449 68.2807 209.26 68.2807 Z" fill="#000000" fill-rule="nonzero" fill-opacity="1" /><path clip-path="url(#clip120)" d="M16.4842 971.396 L16.4842 961.815 L48.8219 949.689 L16.4842 937.498 L16.4842 927.918 L64.0042 927.918 L64.0042 934.188 L22.277 934.188 L54.8694 946.442 L54.8694 952.903 L22.277 965.157 L64.0042 965.157 L64.0042 971.396 L16.4842 971.396 Z" fill="#000000" fill-rule="nonzero" fill-opacity="1" /><path clip-path="url(#clip120)" d="M32.4621 901.596 Q32.4621 906.306 36.1542 909.044 Q39.8145 911.781 46.212 911.781 Q52.6095 911.781 56.3017 909.075 Q59.9619 906.338 59.9619 901.596 Q59.9619 896.917 56.2698 894.18 Q52.5777 891.442 46.212 891.442 Q39.8781 891.442 36.186 894.18 Q32.4621 896.917 32.4621 901.596 M27.4968 901.596 Q27.4968 893.957 32.4621 889.596 Q37.4273 885.236 46.212 885.236 Q54.9649 885.236 59.9619 889.596 Q64.9272 893.957 64.9272 901.596 Q64.9272 909.266 59.9619 913.627 Q54.9649 917.955 46.212 917.955 Q37.4273 917.955 32.4621 913.627 Q27.4968 909.266 27.4968 901.596 Z" fill="#000000" fill-rule="nonzero" fill-opacity="1" /><path clip-path="url(#clip120)" d="M35.1993 847.774 Q31.2526 845.577 29.3747 842.522 Q27.4968 839.466 27.4968 835.329 Q27.4968 829.759 31.4117 826.735 Q35.2948 823.711 42.4881 823.711 L64.0042 823.711 L64.0042 829.599 L42.679 829.599 Q37.5546 829.599 35.072 831.414 Q32.5894 833.228 32.5894 836.952 Q32.5894 841.503 35.6131 844.145 Q38.6368 846.787 43.8567 846.787 L64.0042 846.787 L64.0042 852.675 L42.679 852.675 Q37.5228 852.675 35.072 854.489 Q32.5894 856.304 32.5894 860.091 Q32.5894 864.579 35.6449 867.221 Q38.6686 869.863 43.8567 869.863 L64.0042 869.863 L64.0042 875.751 L28.3562 875.751 L28.3562 869.863 L33.8944 869.863 Q30.616 867.857 29.0564 865.056 Q27.4968 862.256 27.4968 858.404 Q27.4968 854.521 29.4702 851.816 Q31.4436 849.079 35.1993 847.774 Z" fill="#000000" fill-rule="nonzero" fill-opacity="1" /><path clip-path="url(#clip120)" d="M44.7161 781.538 L47.5806 781.538 L47.5806 808.465 Q53.6281 808.083 56.8109 804.837 Q59.9619 801.559 59.9619 795.734 Q59.9619 792.36 59.1344 789.209 Q58.3069 786.026 56.6518 782.907 L62.1899 782.907 Q63.5267 786.058 64.227 789.368 Q64.9272 792.678 64.9272 796.084 Q64.9272 804.614 59.9619 809.611 Q54.9967 814.576 46.5303 814.576 Q37.7774 814.576 32.6531 809.866 Q27.4968 805.123 27.4968 797.103 Q27.4968 789.909 32.1438 785.74 Q36.7589 781.538 44.7161 781.538 M42.9973 787.395 Q38.1912 787.459 35.3266 790.1 Q32.4621 792.71 32.4621 797.039 Q32.4621 801.94 35.2312 804.901 Q38.0002 807.829 43.0292 808.274 L42.9973 787.395 Z" fill="#000000" fill-rule="nonzero" fill-opacity="1" /><path clip-path="url(#clip120)" d="M42.4881 742.294 L64.0042 742.294 L64.0042 748.15 L42.679 748.15 Q37.6183 748.15 35.1038 750.124 Q32.5894 752.097 32.5894 756.044 Q32.5894 760.786 35.6131 763.523 Q38.6368 766.261 43.8567 766.261 L64.0042 766.261 L64.0042 772.149 L28.3562 772.149 L28.3562 766.261 L33.8944 766.261 Q30.6797 764.16 29.0883 761.327 Q27.4968 758.463 27.4968 754.739 Q27.4968 748.596 31.3163 745.445 Q35.1038 742.294 42.4881 742.294 Z" fill="#000000" fill-rule="nonzero" fill-opacity="1" /><path clip-path="url(#clip120)" d="M18.2347 724.82 L28.3562 724.82 L28.3562 712.757 L32.9077 712.757 L32.9077 724.82 L52.2594 724.82 Q56.6199 724.82 57.8613 723.642 Q59.1026 722.433 59.1026 718.773 L59.1026 712.757 L64.0042 712.757 L64.0042 718.773 Q64.0042 725.552 61.4897 728.13 Q58.9434 730.708 52.2594 730.708 L32.9077 730.708 L32.9077 735.005 L28.3562 735.005 L28.3562 730.708 L18.2347 730.708 L18.2347 724.82 Z" fill="#000000" fill-rule="nonzero" fill-opacity="1" /><path clip-path="url(#clip120)" d="M49.9359 705.659 L28.3562 705.659 L28.3562 699.803 L49.7131 699.803 Q54.7739 699.803 57.3202 697.829 Q59.8346 695.856 59.8346 691.909 Q59.8346 687.167 56.8109 684.43 Q53.7872 681.66 48.5673 681.66 L28.3562 681.66 L28.3562 675.804 L64.0042 675.804 L64.0042 681.66 L58.5296 681.66 Q61.7762 683.793 63.3676 686.626 Q64.9272 689.427 64.9272 693.151 Q64.9272 699.293 61.1078 702.476 Q57.2883 705.659 49.9359 705.659 M27.4968 690.923 L27.4968 690.923 Z" fill="#000000" fill-rule="nonzero" fill-opacity="1" /><path clip-path="url(#clip120)" d="M35.1993 635.987 Q31.2526 633.79 29.3747 630.735 Q27.4968 627.679 27.4968 623.542 Q27.4968 617.972 31.4117 614.948 Q35.2948 611.924 42.4881 611.924 L64.0042 611.924 L64.0042 617.812 L42.679 617.812 Q37.5546 617.812 35.072 619.627 Q32.5894 621.441 32.5894 625.165 Q32.5894 629.716 35.6131 632.358 Q38.6368 635 43.8567 635 L64.0042 635 L64.0042 640.888 L42.679 640.888 Q37.5228 640.888 35.072 642.702 Q32.5894 644.517 32.5894 648.304 Q32.5894 652.792 35.6449 655.434 Q38.6686 658.076 43.8567 658.076 L64.0042 658.076 L64.0042 663.964 L28.3562 663.964 L28.3562 658.076 L33.8944 658.076 Q30.616 656.07 29.0564 653.269 Q27.4968 650.468 27.4968 646.617 Q27.4968 642.734 29.4702 640.029 Q31.4436 637.291 35.1993 635.987 Z" fill="#000000" fill-rule="nonzero" fill-opacity="1" /><path clip-path="url(#clip120)" d="M14.5426 565.454 Q21.8632 569.72 29.0246 571.788 Q36.186 573.857 43.5384 573.857 Q50.8908 573.857 58.1159 571.788 Q65.3091 569.688 72.5979 565.454 L72.5979 570.547 Q65.1182 575.321 57.8931 577.708 Q50.668 580.064 43.5384 580.064 Q36.4406 580.064 29.2474 577.708 Q22.0542 575.353 14.5426 570.547 L14.5426 565.454 Z" fill="#000000" fill-rule="nonzero" fill-opacity="1" /><path clip-path="url(#clip120)" d="M58.657 548.426 L77.5631 548.426 L77.5631 554.315 L28.3562 554.315 L28.3562 548.426 L33.7671 548.426 Q30.5842 546.58 29.0564 543.779 Q27.4968 540.947 27.4968 537.032 Q27.4968 530.539 32.6531 526.496 Q37.8093 522.422 46.212 522.422 Q54.6147 522.422 59.771 526.496 Q64.9272 530.539 64.9272 537.032 Q64.9272 540.947 63.3994 543.779 Q61.8398 546.58 58.657 548.426 M46.212 528.502 Q39.7508 528.502 36.0905 531.175 Q32.3984 533.817 32.3984 538.464 Q32.3984 543.111 36.0905 545.784 Q39.7508 548.426 46.212 548.426 Q52.6732 548.426 56.3653 545.784 Q60.0256 543.111 60.0256 538.464 Q60.0256 533.817 56.3653 531.175 Q52.6732 528.502 46.212 528.502 Z" fill="#000000" fill-rule="nonzero" fill-opacity="1" /><path clip-path="url(#clip120)" d="M14.5426 513.638 L14.5426 508.545 Q22.0542 503.771 29.2474 501.415 Q36.4406 499.028 43.5384 499.028 Q50.668 499.028 57.8931 501.415 Q65.1182 503.771 72.5979 508.545 L72.5979 513.638 Q65.3091 509.404 58.1159 507.336 Q50.8908 505.235 43.5384 505.235 Q36.186 505.235 29.0246 507.336 Q21.8632 509.404 14.5426 513.638 Z" fill="#000000" fill-rule="nonzero" fill-opacity="1" /><polyline clip-path="url(#clip122)" style="stroke:#009af9; stroke-linecap:round; stroke-linejoin:round; stroke-width:16; stroke-opacity:1; fill:none" points="1300.88,86.1857 1306.88,86.1979 1312.89,86.2346 1318.89,86.2956 1324.89,86.3812 1330.89,86.4911 1336.89,86.6255 1342.89,86.7843 1348.88,86.9675 1354.88,87.1751 1360.87,87.4072 1366.86,87.6635 1372.85,87.9443 1378.83,88.2495 1384.82,88.579 1390.8,88.9329 1396.77,89.3111 1402.74,89.7136 1408.71,90.1405 1414.67,90.5916 1420.63,91.067 1426.59,91.5666 1432.54,92.0905 1438.49,92.6385 1444.43,93.2108 1450.36,93.8073 1456.29,94.4279 1462.21,95.0726 1468.13,95.7414 1474.04,96.4343 1479.95,97.1513 1485.84,97.8923 1491.73,98.6572 1497.62,99.4462 1503.49,100.259 1509.36,101.096 1515.22,101.957 1521.07,102.841 1526.92,103.749 1532.75,104.681 1538.58,105.637 1544.4,106.617 1550.21,107.62 1556.01,108.647 1561.8,109.697 1567.58,110.771 1573.35,111.869 1579.11,112.99 1584.86,114.134 1590.59,115.302 1596.32,116.493 1602.04,117.707 1607.74,118.945 1613.44,120.206 1619.12,121.49 1624.79,122.797 1630.44,124.127 1636.09,125.48 1641.72,126.856 1647.34,128.255 1652.95,129.677 1658.54,131.122 1664.12,132.589 1669.68,134.079 1675.24,135.592 1680.77,137.127 1686.3,138.685 1691.81,140.265 1697.3,141.868 1702.78,143.493 1708.24,145.14 1713.69,146.809 1719.13,148.501 1724.54,150.215 1729.94,151.951 1735.33,153.708 1740.7,155.488 1746.05,157.289 1751.39,159.112 1756.7,160.957 1762.01,162.824 1767.29,164.712 1772.56,166.621 1777.8,168.552 1783.03,170.504 1788.25,172.478 1793.44,174.472 1798.62,176.488 1803.77,178.525 1808.91,180.583 1814.03,182.661 1819.13,184.761 1824.21,186.881 1829.27,189.022 1834.31,191.183 1839.33,193.365 1844.33,195.567 1849.3,197.79 1854.26,200.032 1859.2,202.295 1864.12,204.578 1869.01,206.881 1873.88,209.204 1878.74,211.546 1883.57,213.909 1888.37,216.291 1893.16,218.692 1897.92,221.113 1902.67,223.553 1907.38,226.013 1912.08,228.491 1916.75,230.989 1921.4,233.506 1926.03,236.041 1930.63,238.596 1935.21,241.169 1939.76,243.76 1944.29,246.371 1948.8,248.999 1953.28,251.646 1957.74,254.311 1962.17,256.994 1966.58,259.695 1970.96,262.414 1975.32,265.151 1979.65,267.905 1983.95,270.677 1988.23,273.467 1992.49,276.274 1996.72,279.098 2000.92,281.939 2005.09,284.798 2009.24,287.673 2013.37,290.565 2017.46,293.474 2021.53,296.4 2025.57,299.342 2029.58,302.3 2033.57,305.275 2037.53,308.266 2041.46,311.272 2045.36,314.295 2049.24,317.334 2053.09,320.388 2056.9,323.459 2060.69,326.544 2064.45,329.645 2068.19,332.761 2071.89,335.892 2075.56,339.039 2079.21,342.2 2082.83,345.376 2086.41,348.566 2089.97,351.771 2093.49,354.991 2096.99,358.225 2100.46,361.473 2103.9,364.735 2107.3,368.011 2110.68,371.301 2114.02,374.604 2117.34,377.922 2120.62,381.252 2123.87,384.596 2127.1,387.953 2130.29,391.323 2133.45,394.706 2136.58,398.102 2139.67,401.51 2142.74,404.931 2145.77,408.365 2148.77,411.81 2151.74,415.268 2154.68,418.738 2157.58,422.22 2160.46,425.713 2163.3,429.218 2166.1,432.735 2168.88,436.263 2171.62,439.802 2174.33,443.353 2177.01,446.914 2179.65,450.486 2182.26,454.069 2184.84,457.662 2187.38,461.266 2189.89,464.88 2192.37,468.504 2194.81,472.139 2197.22,475.783 2199.6,479.436 2201.94,483.1 2204.25,486.773 2206.52,490.455 2208.76,494.147 2210.97,497.847 2213.14,501.557 2215.27,505.275 2217.38,509.002 2219.44,512.737 2221.48,516.48 2223.47,520.232 2225.44,523.992 2227.37,527.76 2229.26,531.536 2231.12,535.319 2232.94,539.11 2234.73,542.908 2236.48,546.713 2238.2,550.525 2239.88,554.345 2241.53,558.171 2243.14,562.003 2244.72,565.843 2246.26,569.688 2247.76,573.54 2249.23,577.398 2250.66,581.261 2252.06,585.131 2253.42,589.006 2254.75,592.886 2256.04,596.772 2257.29,600.663 2258.51,604.559 2259.69,608.46 2260.83,612.366 2261.94,616.276 2263.01,620.191 2264.05,624.11 2265.05,628.033 2266.01,631.96 2266.94,635.891 2267.83,639.826 2268.69,643.764 2269.5,647.706 2270.29,651.65 2271.03,655.598 2271.74,659.549 2272.41,663.503 2273.04,667.46 2273.64,671.419 2274.2,675.38 2274.73,679.343 2275.22,683.309 2275.67,687.276 2276.08,691.246 2276.46,695.216 2276.8,699.189 2277.11,703.162 2277.37,707.137 2277.6,711.113 2277.8,715.09 2277.95,719.067 2278.07,723.045 2278.16,727.023 2278.2,731.002 2278.21,734.981 2278.18,738.959 2278.12,742.938 2278.02,746.916 2277.88,750.894 2277.7,754.871 2277.49,758.847 2277.24,762.822 2276.96,766.797 2276.64,770.77 2276.28,774.741 2275.88,778.711 2275.45,782.68 2274.98,786.646 2274.47,790.611 2273.93,794.573 2273.35,798.533 2272.73,802.491 2272.08,806.446 2271.39,810.398 2270.66,814.348 2269.9,818.294 2269.1,822.238 2268.26,826.178 2267.39,830.114 2266.48,834.047 2265.54,837.976 2264.56,841.901 2263.54,845.822 2262.48,849.739 2261.39,853.652 2260.27,857.56 2259.1,861.463 2257.9,865.361 2256.67,869.255 2255.4,873.143 2254.09,877.027 2252.75,880.904 2251.37,884.777 2249.95,888.643 2248.5,892.504 2247.01,896.359 2245.49,900.207 2243.93,904.05 2242.34,907.886 2240.71,911.715 2239.04,915.538 2237.34,919.354 2235.61,923.163 2233.84,926.964 2232.03,930.759 2230.19,934.546 2228.32,938.325 2226.41,942.097 2224.46,945.861 2222.48,949.617 2220.46,953.364 2218.41,957.104 2216.33,960.835 2214.21,964.557 2212.06,968.271 2209.87,971.976 2207.65,975.672 2205.39,979.359 2203.1,983.037 2200.77,986.705 2198.41,990.364 2196.02,994.013 2193.6,997.652 2191.14,1001.28 2188.64,1004.9 2186.11,1008.51 2183.55,1012.11 2180.96,1015.7 2178.33,1019.27 2175.67,1022.84 2172.98,1026.4 2170.25,1029.94 2167.5,1033.47 2164.7,1037 2161.88,1040.51 2159.02,1044.01 2156.13,1047.49 2153.21,1050.97 2150.26,1054.43 2147.27,1057.89 2144.26,1061.33 2141.21,1064.75 2138.13,1068.17 2135.02,1071.57 2131.87,1074.96 2128.7,1078.34 2125.49,1081.7 2122.25,1085.05 2118.98,1088.39 2115.68,1091.71 2112.35,1095.02 2108.99,1098.32 2105.6,1101.6 2102.18,1104.87 2098.73,1108.12 2095.25,1111.37 2091.74,1114.59 2088.19,1117.8 2084.62,1121 2081.02,1124.19 2077.39,1127.35 2073.73,1130.51 2070.04,1133.65 2066.32,1136.77 2062.58,1139.88 2058.8,1142.97 2055,1146.05 2051.17,1149.11 2047.3,1152.16 2043.42,1155.19 2039.5,1158.21 2035.55,1161.2 2031.58,1164.19 2027.58,1167.15 2023.55,1170.1 2019.5,1173.04 2015.42,1175.95 2011.31,1178.85 2007.17,1181.74 2003.01,1184.61 1998.82,1187.46 1994.61,1190.29 1990.37,1193.1 1986.1,1195.9 1981.8,1198.68 1977.49,1201.45 1973.14,1204.19 1968.77,1206.92 1964.38,1209.63 1959.96,1212.32 1955.51,1215 1951.04,1217.65 1946.55,1220.29 1942.03,1222.91 1937.49,1225.51 1932.92,1228.09 1928.33,1230.66 1923.72,1233.2 1919.08,1235.73 1914.42,1238.23 1909.73,1240.72 1905.03,1243.19 1900.3,1245.64 1895.55,1248.07 1890.77,1250.48 1885.97,1252.87 1881.15,1255.25 1876.31,1257.6 1871.45,1259.93 1866.57,1262.24 1861.66,1264.54 1856.73,1266.81 1851.79,1269.06 1846.82,1271.3 1841.83,1273.51 1836.82,1275.7 1831.79,1277.87 1826.74,1280.02 1821.67,1282.15 1816.58,1284.26 1811.47,1286.35 1806.34,1288.42 1801.2,1290.47 1796.03,1292.49 1790.85,1294.5 1785.64,1296.48 1780.42,1298.45 1775.18,1300.39 1769.92,1302.31 1764.65,1304.21 1759.36,1306.08 1754.05,1307.94 1748.72,1309.77 1743.38,1311.59 1738.02,1313.38 1732.64,1315.15 1727.25,1316.89 1721.84,1318.62 1716.41,1320.32 1710.97,1322 1705.51,1323.66 1700.04,1325.29 1694.56,1326.91 1689.05,1328.5 1683.54,1330.07 1678.01,1331.62 1672.46,1333.14 1666.9,1334.64 1661.33,1336.12 1655.74,1337.58 1650.15,1339.01 1644.53,1340.42 1638.91,1341.81 1633.27,1343.17 1627.62,1344.51 1621.95,1345.83 1616.28,1347.13 1610.59,1348.4 1604.89,1349.65 1599.18,1350.87 1593.46,1352.08 1587.73,1353.26 1581.98,1354.41 1576.23,1355.55 1570.46,1356.66 1564.69,1357.74 1558.9,1358.8 1553.11,1359.84 1547.3,1360.86 1541.49,1361.85 1535.67,1362.82 1529.84,1363.76 1524,1364.68 1518.15,1365.58 1512.29,1366.45 1506.43,1367.3 1500.56,1368.12 1494.68,1368.92 1488.79,1369.7 1482.9,1370.45 1476.99,1371.18 1471.09,1371.89 1465.17,1372.57 1459.25,1373.22 1453.33,1373.86 1447.39,1374.47 1441.46,1375.05 1435.51,1375.61 1429.57,1376.15 1423.61,1376.66 1417.65,1377.15 1411.69,1377.61 1405.73,1378.05 1399.76,1378.46 1393.78,1378.85 1387.81,1379.22 1381.83,1379.56 1375.84,1379.88 1369.86,1380.17 1363.87,1380.44 1357.88,1380.68 1351.88,1380.9 1345.89,1381.1 1339.89,1381.27 1333.89,1381.42 1327.89,1381.54 1321.89,1381.64 1315.89,1381.71 1309.89,1381.76 1303.88,1381.78 1297.88,1381.78 1291.88,1381.76 1285.88,1381.71 1279.87,1381.64 1273.87,1381.54 1267.87,1381.42 1261.88,1381.27 1255.88,1381.1 1249.88,1380.9 1243.89,1380.68 1237.9,1380.44 1231.91,1380.17 1225.92,1379.88 1219.94,1379.56 1213.96,1379.22 1207.98,1378.85 1202.01,1378.46 1196.04,1378.05 1190.07,1377.61 1184.11,1377.15 1178.15,1376.66 1172.2,1376.15 1166.25,1375.61 1160.31,1375.05 1154.37,1374.47 1148.44,1373.86 1142.51,1373.22 1136.59,1372.57 1130.68,1371.89 1124.77,1371.18 1118.87,1370.45 1112.98,1369.7 1107.09,1368.92 1101.21,1368.12 1095.34,1367.3 1089.47,1366.45 1083.61,1365.58 1077.77,1364.68 1071.93,1363.76 1066.1,1362.82 1060.27,1361.85 1054.46,1360.86 1048.66,1359.84 1042.86,1358.8 1037.08,1357.74 1031.3,1356.66 1025.54,1355.55 1019.78,1354.41 1014.04,1353.26 1008.31,1352.08 1002.58,1350.87 996.873,1349.65 991.174,1348.4 985.487,1347.13 979.811,1345.83 974.148,1344.51 968.497,1343.17 962.858,1341.81 957.232,1340.42 951.619,1339.01 946.02,1337.58 940.433,1336.12 934.861,1334.64 929.302,1333.14 923.757,1331.62 918.226,1330.07 912.71,1328.5 907.209,1326.91 901.722,1325.29 896.25,1323.66 890.794,1322 885.353,1320.32 879.928,1318.62 874.518,1316.89 869.125,1315.15 863.748,1313.38 858.388,1311.59 853.044,1309.77 847.717,1307.94 842.407,1306.08 837.115,1304.21 831.84,1302.31 826.582,1300.39 821.343,1298.45 816.121,1296.48 810.918,1294.5 805.734,1292.49 800.568,1290.47 795.421,1288.42 790.293,1286.35 785.184,1284.26 780.095,1282.15 775.025,1280.02 769.976,1277.87 764.946,1275.7 759.936,1273.51 754.947,1271.3 749.978,1269.06 745.031,1266.81 740.104,1264.54 735.198,1262.24 730.314,1259.93 725.451,1257.6 720.61,1255.25 715.791,1252.87 710.994,1250.48 706.219,1248.07 701.467,1245.64 696.737,1243.19 692.03,1240.72 687.346,1238.23 682.685,1235.73 678.048,1233.2 673.433,1230.66 668.843,1228.09 664.277,1225.51 659.734,1222.91 655.216,1220.29 650.721,1217.65 646.252,1215 641.807,1212.32 637.387,1209.63 632.992,1206.92 628.623,1204.19 624.278,1201.45 619.96,1198.68 615.667,1195.9 611.399,1193.1 607.158,1190.29 602.943,1187.46 598.754,1184.61 594.592,1181.74 590.456,1178.85 586.347,1175.95 582.265,1173.04 578.211,1170.1 574.183,1167.15 570.183,1164.19 566.21,1161.2 562.266,1158.2 558.349,1155.19 554.46,1152.16 550.599,1149.11 546.767,1146.05 542.962,1142.97 539.187,1139.88 535.44,1136.77 531.722,1133.65 528.034,1130.51 524.374,1127.35 520.743,1124.19 517.142,1121 513.571,1117.8 510.029,1114.59 506.518,1111.37 503.036,1108.12 499.584,1104.87 496.162,1101.6 492.771,1098.32 489.41,1095.02 486.08,1091.71 482.781,1088.39 479.512,1085.05 476.275,1081.7 473.068,1078.34 469.893,1074.96 466.749,1071.57 463.637,1068.17 460.556,1064.75 457.507,1061.33 454.49,1057.89 451.504,1054.43 448.551,1050.97 445.63,1047.49 442.741,1044.01 439.884,1040.51 437.061,1037 434.269,1033.47 431.51,1029.94 428.784,1026.4 426.091,1022.84 423.431,1019.27 420.804,1015.7 418.21,1012.11 415.65,1008.51 413.123,1004.9 410.629,1001.28 408.169,997.652 405.743,994.012 403.35,990.364 400.992,986.705 398.667,983.037 396.376,979.359 394.119,975.672 391.897,971.976 389.709,968.271 387.555,964.557 385.436,960.835 383.351,957.104 381.301,953.364 379.286,949.617 377.305,945.861 375.359,942.097 373.448,938.325 371.572,934.546 369.731,930.759 367.925,926.964 366.155,923.162 364.419,919.353 362.72,915.538 361.055,911.715 359.426,907.886 357.832,904.05 356.274,900.207 354.752,896.359 353.265,892.504 351.814,888.643 350.399,884.777 349.019,880.904 347.676,877.026 346.369,873.143 345.097,869.255 343.862,865.361 342.662,861.463 341.499,857.56 340.372,853.651 339.282,849.739 338.227,845.822 337.209,841.901 336.227,837.976 335.282,834.047 334.373,830.114 333.5,826.177 332.664,822.238 331.865,818.294 331.102,814.348 330.375,810.398 329.686,806.446 329.033,802.491 328.416,798.533 327.836,794.573 327.293,790.61 326.787,786.646 326.317,782.679 325.885,778.711 325.489,774.741 325.129,770.769 324.807,766.796 324.521,762.822 324.272,758.847 324.061,754.871 323.885,750.894 323.747,746.916 323.646,742.938 323.581,738.959 323.554,734.981 323.563,731.002 323.609,727.023 323.692,723.045 323.812,719.067 323.968,715.089 324.162,711.113 324.392,707.137 324.659,703.162 324.964,699.189 325.304,695.216 325.682,691.246 326.096,687.276 326.548,683.309 327.036,679.343 327.56,675.38 328.122,671.418 328.72,667.46 329.355,663.503 330.026,659.549 330.734,655.598 331.479,651.65 332.26,647.705 333.078,643.764 333.932,639.826 334.823,635.891 335.75,631.96 336.714,628.033 337.713,624.11 338.75,620.191 339.822,616.276 340.931,612.366 342.076,608.46 343.258,604.559 344.475,600.663 345.728,596.772 347.018,592.886 348.343,589.006 349.705,585.131 351.102,581.261 352.535,577.397 354.004,573.54 355.508,569.688 357.049,565.843 358.625,562.003 360.236,558.17 361.883,554.345 363.565,550.525 365.283,546.713 367.036,542.908 368.824,539.11 370.647,535.319 372.506,531.536 374.399,527.76 376.328,523.992 378.291,520.232 380.289,516.481 382.322,512.737 384.389,509.001 386.491,505.275 388.628,501.556 390.799,497.847 393.004,494.146 395.243,490.455 397.517,486.773 399.825,483.1 402.167,479.436 404.542,475.783 406.952,472.138 409.395,468.504 411.872,464.88 414.382,461.266 416.926,457.662 419.503,454.069 422.114,450.486 424.757,446.914 427.434,443.353 430.143,439.802 432.886,436.263 435.661,432.735 438.469,429.218 441.309,425.713 444.182,422.219 447.087,418.738 450.024,415.268 452.993,411.81 455.995,408.364 459.028,404.931 462.093,401.51 465.189,398.102 468.318,394.706 471.477,391.323 474.668,387.953 477.89,384.596 481.143,381.252 484.427,377.921 487.742,374.604 491.087,371.301 494.463,368.011 497.869,364.735 501.306,361.473 504.773,358.225 508.27,354.991 511.797,351.771 515.353,348.566 518.939,345.376 522.555,342.2 526.2,339.039 529.875,335.892 533.578,332.761 537.31,329.645 541.071,326.544 544.861,323.458 548.679,320.388 552.526,317.334 556.401,314.295 560.304,311.272 564.235,308.265 568.193,305.275 572.18,302.3 576.194,299.342 580.235,296.399 584.303,293.474 588.399,290.565 592.521,287.673 596.67,284.798 600.845,281.939 605.047,279.098 609.276,276.274 613.53,273.467 617.81,270.677 622.116,267.905 626.448,265.151 630.805,262.414 635.187,259.695 639.594,256.994 644.027,254.311 648.484,251.646 652.966,248.999 657.472,246.37 662.002,243.76 666.557,241.169 671.135,238.596 675.738,236.041 680.363,233.506 685.013,230.989 689.685,228.491 694.381,226.013 699.099,223.553 703.84,221.113 708.604,218.692 713.39,216.291 718.198,213.909 723.028,211.546 727.88,209.204 732.754,206.881 737.649,204.578 742.565,202.295 747.502,200.032 752.46,197.79 757.439,195.567 762.438,193.365 767.458,191.183 772.498,189.022 777.558,186.881 782.637,184.761 787.736,182.661 792.855,180.583 797.992,178.525 803.149,176.488 808.324,174.472 813.518,172.478 818.73,170.504 823.96,168.552 829.209,166.621 834.475,164.712 839.759,162.824 845.06,160.957 850.379,159.112 855.714,157.289 861.066,155.488 866.435,153.708 871.82,151.95 877.221,150.215 882.639,148.501 888.071,146.809 893.52,145.14 898.985,143.493 904.464,141.868 909.958,140.265 915.467,138.685 920.99,137.127 926.528,135.592 932.08,134.079 937.645,132.589 943.225,131.122 948.818,129.677 954.424,128.255 960.044,126.856 965.676,125.48 971.321,124.127 976.978,122.797 982.648,121.49 988.329,120.206 994.023,118.945 999.727,117.707 1005.44,116.493 1011.17,115.302 1016.91,114.134 1022.66,112.989 1028.42,111.869 1034.19,110.771 1039.97,109.697 1045.76,108.647 1051.56,107.62 1057.37,106.617 1063.18,105.637 1069.01,104.681 1074.85,103.749 1080.69,102.841 1086.54,101.957 1092.4,101.096 1098.27,100.259 1104.15,99.4462 1110.03,98.6572 1115.92,97.8923 1121.82,97.1513 1127.72,96.4343 1133.63,95.7414 1139.55,95.0726 1145.48,94.4278 1151.4,93.8073 1157.34,93.2108 1163.28,92.6385 1169.22,92.0904 1175.18,91.5666 1181.13,91.067 1187.09,90.5915 1193.05,90.1405 1199.02,89.7136 1204.99,89.3111 1210.97,88.9329 1216.95,88.579 1222.93,88.2495 1228.92,87.9444 1234.9,87.6635 1240.89,87.4071 1246.89,87.1751 1252.88,86.9675 1258.88,86.7843 1264.87,86.6255 1270.87,86.4911 1276.87,86.3812 1282.88,86.2956 1288.88,86.2346 1294.88,86.1979 1300.88,86.1857 "/>
<polyline clip-path="url(#clip122)" style="stroke:#e26f46; stroke-linecap:round; stroke-linejoin:round; stroke-width:16; stroke-opacity:1; fill:none" points="1300.88,86.1857 1306.88,86.2476 1312.88,86.3095 1318.88,86.3714 1324.88,86.4333 1330.87,86.4806 1336.88,86.4783 1342.88,86.5095 1348.87,86.6381 1354.85,86.8916 1360.82,87.2605 1366.79,87.6987 1372.75,88.1316 1378.72,88.5617 1384.68,88.9961 1390.65,89.4312 1396.61,89.8653 1402.58,90.2989 1408.55,90.695 1414.54,91.0555 1420.52,91.422 1426.49,91.8273 1432.45,92.2955 1438.38,92.8421 1444.3,93.4739 1450.2,94.1888 1456.07,94.9764 1461.94,95.8171 1467.8,96.6831 1473.66,97.5377 1479.53,98.376 1485.39,99.2141 1491.26,100.052 1497.12,100.891 1502.99,101.729 1508.85,102.567 1514.72,103.405 1520.58,104.243 1526.45,105.088 1532.3,105.963 1538.13,106.869 1543.96,107.805 1549.77,108.769 1555.57,109.761 1561.36,110.778 1567.14,111.821 1572.91,112.888 1578.67,113.978 1584.42,115.091 1590.16,116.226 1595.9,117.382 1601.62,118.56 1607.34,119.759 1613.05,120.978 1618.75,122.218 1624.44,123.478 1630.12,124.759 1635.79,126.061 1641.45,127.383 1647.1,128.727 1652.74,130.093 1658.37,131.482 1663.98,132.893 1669.58,134.329 1675.16,135.789 1680.73,137.274 1686.28,138.787 1691.81,140.327 1697.33,141.897 1702.82,143.497 1708.28,145.129 1713.73,146.795 1719.15,148.495 1724.54,150.233 1729.89,152.014 1735.19,153.868 1740.44,155.786 1745.65,157.754 1750.84,159.759 1756,161.791 1761.14,163.839 1766.28,165.897 1771.42,167.958 1776.56,170.017 1781.7,172.07 1786.85,174.117 1792,176.157 1797.16,178.191 1802.32,180.222 1807.48,182.255 1812.61,184.313 1817.67,186.423 1822.69,188.565 1827.69,190.723 1832.7,192.879 1837.72,195.023 1842.77,197.145 1847.86,199.239 1852.99,201.301 1858.17,203.333 1863.38,205.336 1868.64,207.316 1873.91,209.283 1879.2,211.248 1884.47,213.226 1889.72,215.235 1894.91,217.295 1900,219.431 1904.98,221.67 1909.8,224.04 1914.42,226.575 1918.94,229.188 1923.47,231.8 1927.99,234.413 1932.52,237.025 1937.04,239.638 1941.57,242.25 1946.09,244.862 1950.62,247.475 1955.14,250.087 1959.67,252.7 1964.19,255.312 1968.72,257.925 1973.24,260.537 1977.75,263.16 1982.23,265.803 1986.69,268.465 1991.12,271.147 1995.52,273.848 1999.9,276.568 2004.24,279.308 2008.56,282.066 2012.84,284.844 2017.1,287.641 2021.33,290.457 2025.53,293.292 2029.69,296.146 2033.83,299.019 2037.94,301.911 2042.01,304.821 2046.06,307.749 2050.07,310.696 2054.05,313.662 2058,316.645 2061.91,319.647 2065.8,322.666 2069.65,325.703 2073.47,328.758 2077.26,331.831 2081.02,334.921 2084.74,338.027 2088.43,341.152 2092.09,344.293 2095.71,347.45 2099.31,350.624 2102.87,353.815 2106.4,357.021 2109.89,360.244 2113.36,363.482 2116.79,366.736 2120.19,370.005 2123.56,373.29 2126.89,376.589 2130.2,379.903 2133.47,383.231 2136.71,386.573 2139.92,389.93 2143.1,393.3 2146.25,396.684 2149.37,400.081 2152.46,403.491 2155.51,406.913 2158.54,410.348 2161.54,413.795 2164.52,417.253 2167.46,420.723 2170.37,424.205 2173.26,427.697 2176.12,431.2 2178.95,434.714 2181.76,438.237 2184.54,441.77 2187.29,445.312 2190.02,448.864 2192.72,452.423 2195.4,455.991 2198.06,459.568 2200.7,463.151 2203.31,466.742 2205.9,470.339 2208.46,473.944 2211.01,477.554 2213.54,481.17 2216.04,484.791 2218.53,488.417 2221,492.048 2223.46,495.682 2225.89,499.32 2228.31,502.964 2230.63,506.626 2232.86,510.31 2235,514.014 2237.06,517.735 2239.07,521.471 2241.02,525.221 2242.93,528.982 2244.8,532.753 2246.65,536.533 2248.47,540.319 2250.28,544.112 2252.07,547.911 2253.85,551.714 2255.61,555.521 2257.37,559.333 2259.11,563.148 2260.83,566.967 2262.53,570.79 2264.21,574.618 2265.85,578.451 2267.45,582.29 2269,586.136 2270.49,589.991 2271.92,593.855 2273.26,597.73 2274.5,601.617 2275.63,605.52 2276.65,609.438 2277.63,613.361 2278.56,617.288 2279.46,621.219 2280.33,625.154 2281.15,629.092 2281.94,633.034 2282.69,636.979 2283.4,640.927 2284.08,644.878 2284.72,648.831 2285.32,652.787 2285.89,656.745 2286.42,660.706 2286.92,664.668 2287.39,668.632 2287.82,672.598 2288.23,676.565 2288.62,680.534 2288.98,684.504 2289.31,688.475 2289.63,692.446 2289.93,696.419 2290.22,700.392 2290.5,704.366 2290.76,708.34 2291.03,712.314 2291.29,716.288 2291.55,720.262 2291.82,724.236 2292.1,728.21 2292.36,732.19 2292.61,736.173 2292.84,740.16 2293.04,744.149 2293.21,748.139 2293.33,752.13 2293.41,756.121 2293.45,760.111 2293.43,764.099 2293.36,768.084 2293.23,772.067 2293.04,776.046 2292.78,780.021 2292.46,783.992 2292.08,787.958 2291.63,791.919 2291.11,795.874 2290.52,799.824 2289.87,803.768 2289.15,807.706 2288.36,811.639 2287.51,815.565 2286.6,819.486 2285.62,823.401 2284.59,827.311 2283.51,831.215 2282.38,835.114 2281.19,839.008 2279.97,842.898 2278.71,846.785 2277.41,850.667 2276.09,854.548 2274.75,858.426 2273.39,862.302 2272.02,866.177 2270.66,870.053 2269.3,873.929 2267.95,877.807 2266.62,881.687 2265.3,885.568 2263.94,889.444 2262.54,893.314 2261.1,897.177 2259.62,901.033 2258.09,904.881 2256.52,908.719 2254.9,912.549 2253.22,916.368 2251.5,920.177 2249.73,923.975 2247.91,927.762 2246.04,931.538 2244.12,935.302 2242.15,939.055 2240.13,942.797 2238.06,946.527 2235.95,950.247 2233.8,953.956 2231.6,957.654 2229.36,961.343 2227.09,965.023 2224.78,968.694 2222.44,972.357 2220.08,976.013 2217.68,979.663 2215.27,983.307 2212.84,986.947 2210.4,990.585 2207.96,994.22 2205.51,997.855 2203.06,1001.49 2200.62,1005.13 2198.19,1008.77 2195.73,1012.4 2193.21,1016.01 2190.63,1019.6 2187.98,1023.17 2185.27,1026.72 2182.49,1030.25 2179.66,1033.75 2176.77,1037.24 2173.82,1040.7 2170.81,1044.14 2167.75,1047.56 2164.64,1050.96 2161.49,1054.34 2158.29,1057.71 2155.05,1061.06 2151.78,1064.39 2148.48,1067.72 2145.16,1071.03 2141.82,1074.34 2138.46,1077.65 2135.11,1080.95 2131.76,1084.25 2128.42,1087.56 2125.12,1090.89 2121.87,1094.24 2118.66,1097.62 2115.46,1101 2112.27,1104.39 2109.06,1107.77 2105.84,1111.14 2102.59,1114.49 2099.29,1117.82 2095.94,1121.12 2092.54,1124.4 2089.08,1127.64 2085.56,1130.85 2081.96,1134.03 2078.3,1137.17 2074.57,1140.27 2070.77,1143.34 2066.9,1146.37 2062.98,1149.37 2059,1152.34 2054.97,1155.29 2050.89,1158.21 2046.79,1161.12 2042.66,1164.02 2038.53,1166.91 2034.39,1169.8 2030.27,1172.7 2026.19,1175.62 2022.15,1178.57 2018.15,1181.54 2014.15,1184.52 2010.14,1187.49 2006.11,1190.44 2002.04,1193.37 1997.93,1196.27 1993.77,1199.14 1989.55,1201.96 1985.27,1204.74 1980.94,1207.49 1976.54,1210.19 1972.1,1212.86 1967.61,1215.5 1963.08,1218.11 1958.54,1220.71 1953.99,1223.31 1949.45,1225.91 1944.92,1228.52 1940.37,1231.11 1935.78,1233.68 1931.17,1236.22 1926.53,1238.74 1921.86,1241.24 1917.15,1243.7 1912.42,1246.14 1907.65,1248.56 1902.85,1250.94 1898.03,1253.3 1893.18,1255.64 1888.3,1257.96 1883.4,1260.26 1878.48,1262.54 1873.55,1264.8 1868.6,1267.05 1863.64,1269.29 1858.68,1271.53 1853.71,1273.77 1848.75,1276.01 1843.78,1278.24 1838.75,1280.4 1833.64,1282.48 1828.48,1284.51 1823.28,1286.49 1818.05,1288.44 1812.79,1290.36 1807.52,1292.26 1802.23,1294.16 1796.95,1296.05 1791.66,1297.94 1786.39,1299.84 1781.11,1301.74 1775.85,1303.66 1770.59,1305.58 1765.34,1307.5 1760.09,1309.43 1754.84,1311.36 1749.58,1313.28 1744.31,1315.2 1739.04,1317.11 1733.75,1318.99 1728.43,1320.84 1723.1,1322.66 1717.73,1324.44 1712.34,1326.18 1706.91,1327.87 1701.46,1329.52 1695.97,1331.11 1690.45,1332.66 1684.91,1334.17 1679.34,1335.64 1673.75,1337.07 1668.14,1338.48 1662.52,1339.87 1656.89,1341.24 1651.26,1342.62 1645.63,1344.01 1640,1345.36 1634.32,1346.64 1628.61,1347.85 1622.87,1349.01 1617.11,1350.13 1611.33,1351.21 1605.54,1352.27 1599.74,1353.31 1593.94,1354.33 1588.12,1355.35 1582.31,1356.37 1576.5,1357.39 1570.7,1358.41 1564.89,1359.44 1559.09,1360.47 1553.29,1361.52 1547.5,1362.56 1541.71,1363.61 1535.91,1364.67 1530.12,1365.72 1524.32,1366.75 1518.5,1367.73 1512.66,1368.66 1506.81,1369.55 1500.94,1370.39 1495.06,1371.18 1489.17,1371.92 1483.26,1372.62 1477.34,1373.28 1471.41,1373.89 1465.48,1374.46 1459.53,1374.99 1453.58,1375.48 1447.62,1375.95 1441.65,1376.38 1435.68,1376.78 1429.7,1377.16 1423.72,1377.51 1417.74,1377.85 1411.75,1378.18 1405.77,1378.51 1399.78,1378.83 1393.79,1379.15 1387.81,1379.49 1381.82,1379.86 1375.84,1380.28 1369.86,1380.73 1363.87,1381.19 1357.89,1381.64 1351.9,1382.09 1345.92,1382.52 1339.93,1382.91 1333.95,1383.26 1327.97,1383.57 1321.98,1383.83 1316,1384.02 1310.02,1384.16 1304.04,1384.23 1298.06,1384.24 1292.08,1384.18 1286.1,1384.06 1280.12,1383.88 1274.15,1383.63 1268.17,1383.34 1262.2,1383 1256.22,1382.61 1250.25,1382.2 1244.28,1381.75 1238.31,1381.3 1232.34,1380.84 1226.37,1380.4 1220.4,1379.98 1214.42,1379.59 1208.43,1379.22 1202.45,1378.86 1196.46,1378.5 1190.47,1378.14 1184.49,1377.76 1178.51,1377.37 1172.54,1376.94 1166.58,1376.49 1160.62,1376.01 1154.68,1375.48 1148.74,1374.92 1142.81,1374.33 1136.89,1373.69 1130.99,1373.01 1125.09,1372.3 1119.2,1371.55 1113.31,1370.76 1107.44,1369.95 1101.57,1369.12 1095.7,1368.27 1089.84,1367.4 1083.98,1366.53 1078.12,1365.67 1072.25,1364.82 1066.41,1363.92 1060.65,1362.89 1054.94,1361.75 1049.27,1360.54 1043.63,1359.27 1038,1357.98 1032.36,1356.67 1026.72,1355.38 1021.05,1354.11 1015.36,1352.87 1009.64,1351.68 1003.88,1350.54 998.083,1349.46 992.248,1348.44 986.375,1347.48 980.467,1346.57 974.528,1345.7 968.566,1344.87 962.587,1344.07 956.6,1343.28 950.617,1342.48 944.65,1341.65 938.712,1340.78 932.821,1339.82 926.992,1338.77 921.245,1337.58 915.601,1336.22 910.062,1334.69 904.51,1333.17 898.935,1331.68 893.352,1330.2 887.772,1328.72 882.206,1327.22 876.664,1325.69 871.152,1324.12 865.677,1322.49 860.243,1320.82 854.853,1319.09 849.507,1317.29 844.206,1315.44 838.948,1313.54 833.728,1311.58 828.542,1309.58 823.382,1307.54 818.241,1305.48 813.108,1303.41 807.971,1301.34 802.821,1299.3 797.711,1297.22 792.653,1295.11 787.628,1292.97 782.621,1290.81 777.619,1288.65 772.609,1286.5 767.582,1284.36 762.531,1282.23 757.449,1280.13 752.334,1278.05 747.183,1276 741.996,1273.97 736.777,1271.97 731.529,1269.99 726.258,1268.01 720.973,1266.05 715.685,1264.08 710.404,1262.11 705.147,1260.11 699.928,1258.07 694.766,1255.99 689.682,1253.84 684.698,1251.6 679.837,1249.26 675.126,1246.8 670.567,1244.21 666.001,1241.63 661.412,1239.06 656.813,1236.49 652.219,1233.93 647.641,1231.35 643.088,1228.76 638.568,1226.14 634.087,1223.49 629.65,1220.82 625.259,1218.11 620.916,1215.37 616.62,1212.6 612.367,1209.79 608.155,1206.96 603.977,1204.1 599.825,1201.23 595.69,1198.34 591.562,1195.45 587.426,1192.57 583.278,1189.69 579.154,1186.8 575.064,1183.89 571.01,1180.96 566.994,1178 563.018,1175.02 559.081,1172.02 555.186,1169 551.333,1165.95 547.52,1162.88 543.749,1159.79 540.018,1156.68 536.327,1153.55 532.673,1150.4 529.056,1147.22 525.474,1144.03 521.923,1140.83 518.401,1137.61 514.906,1134.37 511.433,1131.13 507.978,1127.87 504.539,1124.61 501.11,1121.34 497.687,1118.07 494.264,1114.8 490.835,1111.53 487.397,1108.27 483.974,1105 480.58,1101.71 477.218,1098.41 473.892,1095.1 470.605,1091.77 467.36,1088.42 464.159,1085.05 461.005,1081.67 457.898,1078.27 454.839,1074.85 451.83,1071.41 448.87,1067.95 445.96,1064.48 443.099,1060.99 440.286,1057.48 437.519,1053.95 434.798,1050.41 432.119,1046.85 429.479,1043.28 426.878,1039.7 424.309,1036.1 421.771,1032.5 419.259,1028.88 416.768,1025.26 414.292,1021.63 411.828,1018 409.368,1014.37 406.907,1010.74 404.439,1007.11 401.955,1003.49 399.424,999.873 396.846,996.27 394.237,992.673 391.612,989.079 388.984,985.485 386.368,981.889 383.774,978.287 381.214,974.676 378.698,971.056 376.232,967.424 373.826,963.779 371.485,960.119 369.213,956.442 367.016,952.749 364.895,949.039 362.853,945.311 360.889,941.565 359.004,937.801 357.194,934.021 355.459,930.223 353.792,926.41 352.19,922.583 350.645,918.743 349.151,914.891 347.699,911.03 346.278,907.162 344.878,903.289 343.487,899.414 342.093,895.54 340.679,891.67 339.234,887.807 337.788,883.943 336.367,880.073 334.979,876.198 333.63,872.316 332.326,868.428 331.071,864.534 329.87,860.634 328.727,856.728 327.644,852.815 326.625,848.897 325.67,844.973 324.781,841.044 323.958,837.109 323.2,833.169 322.507,829.224 321.876,825.274 321.306,821.319 320.793,817.361 320.333,813.399 319.922,809.434 319.554,805.466 319.225,801.495 318.927,797.522 318.653,793.548 318.395,789.573 318.145,785.597 317.894,781.621 317.631,777.646 317.349,773.672 317.09,769.698 316.877,765.721 316.712,761.743 316.596,757.765 316.529,753.786 316.512,749.807 316.545,745.829 316.628,741.851 316.762,737.874 316.945,733.898 317.178,729.923 317.46,725.951 317.789,721.98 318.165,718.011 318.586,714.044 319.052,710.079 319.56,706.117 320.108,702.156 320.695,698.198 321.318,694.243 321.975,690.289 322.663,686.337 323.379,682.388 324.12,678.44 324.884,674.493 325.666,670.548 326.462,666.604 327.27,662.661 328.085,658.719 328.903,654.777 329.719,650.835 330.53,646.892 331.329,642.948 332.135,639.004 332.976,635.06 333.857,631.119 334.783,627.182 335.758,623.25 336.787,619.325 337.872,615.408 339.015,611.5 340.22,607.601 341.488,603.712 342.819,599.835 344.215,595.968 345.674,592.114 347.197,588.271 348.783,584.439 350.429,580.62 352.134,576.812 353.895,573.015 355.708,569.228 357.57,565.452 359.476,561.684 361.421,557.925 363.4,554.172 365.407,550.426 367.436,546.683 369.479,542.944 371.528,539.207 373.576,535.469 375.614,531.729 377.632,527.985 379.663,524.242 381.726,520.505 383.824,516.775 385.96,513.054 388.135,509.342 390.352,505.641 392.611,501.952 394.913,498.275 397.26,494.611 399.651,490.96 402.087,487.323 404.568,483.701 407.093,480.092 409.661,476.498 412.271,472.918 414.922,469.351 417.612,465.798 420.34,462.258 423.102,458.729 425.896,455.212 428.719,451.705 431.569,448.208 434.441,444.719 437.332,441.236 440.237,437.759 443.152,434.285 446.073,430.814 448.994,427.342 451.91,423.869 454.816,420.392 457.73,416.917 460.693,413.459 463.703,410.019 466.761,406.595 469.864,403.189 473.012,399.8 476.203,396.428 479.437,393.075 482.712,389.739 486.029,386.422 489.385,383.122 492.781,379.841 496.215,376.578 499.688,373.333 503.198,370.108 506.745,366.9 510.328,363.712 513.948,360.543 517.604,357.392 521.296,354.261 525.023,351.149 528.786,348.056 532.584,344.982 536.417,341.928 540.285,338.894 544.19,335.879 548.13,332.884 552.105,329.909 556.117,326.953 560.165,324.017 564.232,321.09 568.263,318.135 572.262,315.158 576.239,312.164 580.201,309.159 584.156,306.15 588.112,303.14 592.075,300.136 596.05,297.142 600.045,294.161 604.063,291.197 608.109,288.254 612.188,285.335 616.303,282.443 620.457,279.578 624.652,276.745 628.89,273.943 633.174,271.173 637.503,268.438 641.879,265.736 646.3,263.068 650.767,260.434 655.279,257.832 659.833,255.261 664.428,252.72 669.06,250.207 673.728,247.719 678.426,245.254 683.151,242.809 687.898,240.379 692.662,237.963 697.437,235.553 702.216,233.147 706.993,230.74 711.76,228.326 716.51,225.899 721.248,223.464 726.009,221.05 730.795,218.657 735.604,216.285 740.436,213.934 745.29,211.602 750.166,209.289 755.062,206.995 759.98,204.72 764.918,202.463 769.876,200.224 774.853,198.003 779.85,195.8 784.866,193.615 789.901,191.449 794.954,189.301 800.027,187.172 805.118,185.063 810.229,182.973 815.358,180.903 820.506,178.855 825.674,176.828 830.861,174.824 836.068,172.844 841.295,170.888 846.542,168.958 851.811,167.054 857.101,165.179 862.413,163.332 867.748,161.517 873.106,159.733 878.48,157.968 883.857,156.203 889.24,154.442 894.63,152.688 900.029,150.944 905.437,149.214 910.858,147.501 916.291,145.807 921.738,144.135 927.2,142.487 932.678,140.864 938.172,139.269 943.683,137.704 949.212,136.168 954.759,134.664 960.324,133.193 965.907,131.753 971.509,130.347 977.129,128.974 982.767,127.634 988.423,126.326 994.096,125.051 999.786,123.806 1005.49,122.591 1011.21,121.404 1016.95,120.245 1022.7,119.11 1028.46,117.999 1034.23,116.909 1040.01,115.836 1045.8,114.779 1051.6,113.735 1057.4,112.7 1063.2,111.671 1069,110.643 1074.8,109.614 1080.6,108.578 1086.4,107.541 1092.21,106.538 1098.03,105.572 1103.87,104.643 1109.71,103.752 1115.57,102.898 1121.44,102.08 1127.32,101.297 1133.21,100.55 1139.11,99.8379 1145.02,99.1588 1150.94,98.5125 1156.86,97.8977 1162.8,97.3135 1168.73,96.7585 1174.68,96.2316 1180.63,95.7312 1186.58,95.2558 1192.54,94.804 1198.51,94.374 1204.47,93.9641 1210.45,93.5724 1216.42,93.1969 1222.4,92.8355 1228.37,92.4862 1234.35,92.1468 1240.33,91.8148 1246.32,91.4878 1252.3,91.1634 1258.28,90.839 1264.26,90.5118 1270.24,90.1789 "/>
<path clip-path="url(#clip120)" d="M327.056 248.629 L750.198 248.629 L750.198 93.1086 L327.056 93.1086  Z" fill="#ffffff" fill-rule="evenodd" fill-opacity="1"/>
<polyline clip-path="url(#clip120)" style="stroke:#000000; stroke-linecap:round; stroke-linejoin:round; stroke-width:4; stroke-opacity:1; fill:none" points="327.056,248.629 750.198,248.629 750.198,93.1086 327.056,93.1086 327.056,248.629 "/>
<polyline clip-path="url(#clip120)" style="stroke:#009af9; stroke-linecap:round; stroke-linejoin:round; stroke-width:16; stroke-opacity:1; fill:none" points="350.34,144.949 490.043,144.949 "/>
<path clip-path="url(#clip120)" d="M529.345 130.84 Q524.253 130.84 521.244 134.636 Q518.258 138.432 518.258 144.983 Q518.258 151.511 521.244 155.307 Q524.253 159.104 529.345 159.104 Q534.438 159.104 537.401 155.307 Q540.387 151.511 540.387 144.983 Q540.387 138.432 537.401 134.636 Q534.438 130.84 529.345 130.84 M529.345 127.044 Q536.614 127.044 540.966 131.928 Q545.318 136.789 545.318 144.983 Q545.318 153.155 540.966 158.039 Q536.614 162.9 529.345 162.9 Q522.054 162.9 517.679 158.039 Q513.327 153.178 513.327 144.983 Q513.327 136.789 517.679 131.928 Q522.054 127.044 529.345 127.044 Z" fill="#000000" fill-rule="nonzero" fill-opacity="1" /><path clip-path="url(#clip120)" d="M567.47 140.284 Q566.753 139.868 565.896 139.682 Q565.063 139.474 564.044 139.474 Q560.433 139.474 558.489 141.835 Q556.568 144.173 556.568 148.571 L556.568 162.229 L552.285 162.229 L552.285 136.303 L556.568 136.303 L556.568 140.331 Q557.91 137.969 560.063 136.835 Q562.216 135.678 565.294 135.678 Q565.734 135.678 566.267 135.747 Q566.799 135.794 567.447 135.909 L567.47 140.284 Z" fill="#000000" fill-rule="nonzero" fill-opacity="1" /><path clip-path="url(#clip120)" d="M571.938 136.303 L576.197 136.303 L576.197 162.229 L571.938 162.229 L571.938 136.303 M571.938 126.21 L576.197 126.21 L576.197 131.604 L571.938 131.604 L571.938 126.21 Z" fill="#000000" fill-rule="nonzero" fill-opacity="1" /><path clip-path="url(#clip120)" d="M602.169 148.965 Q602.169 144.335 600.248 141.789 Q598.35 139.243 594.901 139.243 Q591.475 139.243 589.553 141.789 Q587.655 144.335 587.655 148.965 Q587.655 153.571 589.553 156.118 Q591.475 158.664 594.901 158.664 Q598.35 158.664 600.248 156.118 Q602.169 153.571 602.169 148.965 M606.428 159.011 Q606.428 165.631 603.489 168.849 Q600.549 172.09 594.484 172.09 Q592.239 172.09 590.248 171.742 Q588.257 171.418 586.382 170.724 L586.382 166.58 Q588.257 167.599 590.086 168.085 Q591.915 168.571 593.813 168.571 Q598.003 168.571 600.086 166.372 Q602.169 164.196 602.169 159.775 L602.169 157.668 Q600.85 159.96 598.79 161.094 Q596.729 162.229 593.859 162.229 Q589.091 162.229 586.174 158.594 Q583.257 154.96 583.257 148.965 Q583.257 142.946 586.174 139.312 Q589.091 135.678 593.859 135.678 Q596.729 135.678 598.79 136.812 Q600.85 137.946 602.169 140.238 L602.169 136.303 L606.428 136.303 L606.428 159.011 Z" fill="#000000" fill-rule="nonzero" fill-opacity="1" /><path clip-path="url(#clip120)" d="M615.201 136.303 L619.461 136.303 L619.461 162.229 L615.201 162.229 L615.201 136.303 M615.201 126.21 L619.461 126.21 L619.461 131.604 L615.201 131.604 L615.201 126.21 Z" fill="#000000" fill-rule="nonzero" fill-opacity="1" /><path clip-path="url(#clip120)" d="M649.924 146.581 L649.924 162.229 L645.664 162.229 L645.664 146.719 Q645.664 143.039 644.229 141.21 Q642.794 139.382 639.924 139.382 Q636.475 139.382 634.484 141.581 Q632.493 143.78 632.493 147.576 L632.493 162.229 L628.211 162.229 L628.211 136.303 L632.493 136.303 L632.493 140.331 Q634.021 137.993 636.081 136.835 Q638.164 135.678 640.873 135.678 Q645.34 135.678 647.632 138.456 Q649.924 141.21 649.924 146.581 Z" fill="#000000" fill-rule="nonzero" fill-opacity="1" /><path clip-path="url(#clip120)" d="M670.201 149.196 Q665.039 149.196 663.048 150.377 Q661.058 151.557 661.058 154.405 Q661.058 156.673 662.539 158.016 Q664.044 159.335 666.613 159.335 Q670.155 159.335 672.285 156.835 Q674.437 154.312 674.437 150.145 L674.437 149.196 L670.201 149.196 M678.697 147.437 L678.697 162.229 L674.437 162.229 L674.437 158.293 Q672.979 160.655 670.803 161.789 Q668.627 162.9 665.479 162.9 Q661.498 162.9 659.136 160.678 Q656.798 158.432 656.798 154.682 Q656.798 150.307 659.715 148.085 Q662.655 145.863 668.465 145.863 L674.437 145.863 L674.437 145.446 Q674.437 142.507 672.493 140.909 Q670.572 139.289 667.076 139.289 Q664.854 139.289 662.748 139.821 Q660.641 140.354 658.697 141.419 L658.697 137.483 Q661.035 136.581 663.234 136.141 Q665.433 135.678 667.516 135.678 Q673.141 135.678 675.919 138.594 Q678.697 141.511 678.697 147.437 Z" fill="#000000" fill-rule="nonzero" fill-opacity="1" /><path clip-path="url(#clip120)" d="M687.47 126.21 L691.729 126.21 L691.729 162.229 L687.47 162.229 L687.47 126.21 Z" fill="#000000" fill-rule="nonzero" fill-opacity="1" /><polyline clip-path="url(#clip120)" style="stroke:#e26f46; stroke-linecap:round; stroke-linejoin:round; stroke-width:16; stroke-opacity:1; fill:none" points="350.34,196.789 490.043,196.789 "/>
<path clip-path="url(#clip120)" d="M518.003 183.351 L518.003 196.337 L523.883 196.337 Q527.146 196.337 528.929 194.647 Q530.711 192.958 530.711 189.833 Q530.711 186.731 528.929 185.041 Q527.146 183.351 523.883 183.351 L518.003 183.351 M513.327 179.509 L523.883 179.509 Q529.693 179.509 532.656 182.147 Q535.642 184.763 535.642 189.833 Q535.642 194.948 532.656 197.564 Q529.693 200.18 523.883 200.18 L518.003 200.18 L518.003 214.069 L513.327 214.069 L513.327 179.509 Z" fill="#000000" fill-rule="nonzero" fill-opacity="1" /><path clip-path="url(#clip120)" d="M555.919 192.124 Q555.202 191.708 554.345 191.522 Q553.512 191.314 552.493 191.314 Q548.882 191.314 546.938 193.675 Q545.017 196.013 545.017 200.411 L545.017 214.069 L540.734 214.069 L540.734 188.143 L545.017 188.143 L545.017 192.171 Q546.359 189.809 548.512 188.675 Q550.665 187.518 553.743 187.518 Q554.183 187.518 554.716 187.587 Q555.248 187.634 555.896 187.749 L555.919 192.124 Z" fill="#000000" fill-rule="nonzero" fill-opacity="1" /><path clip-path="url(#clip120)" d="M581.521 200.041 L581.521 202.124 L561.938 202.124 Q562.216 206.522 564.577 208.837 Q566.961 211.129 571.197 211.129 Q573.651 211.129 575.942 210.527 Q578.257 209.925 580.526 208.721 L580.526 212.749 Q578.234 213.721 575.827 214.231 Q573.419 214.74 570.942 214.74 Q564.739 214.74 561.105 211.129 Q557.493 207.518 557.493 201.36 Q557.493 194.995 560.919 191.268 Q564.368 187.518 570.202 187.518 Q575.433 187.518 578.466 190.897 Q581.521 194.254 581.521 200.041 M577.262 198.791 Q577.216 195.296 575.294 193.212 Q573.396 191.129 570.248 191.129 Q566.683 191.129 564.53 193.143 Q562.401 195.157 562.077 198.814 L577.262 198.791 Z" fill="#000000" fill-rule="nonzero" fill-opacity="1" /><path clip-path="url(#clip120)" d="M605.572 192.078 L605.572 178.05 L609.831 178.05 L609.831 214.069 L605.572 214.069 L605.572 210.18 Q604.229 212.495 602.169 213.629 Q600.132 214.74 597.262 214.74 Q592.563 214.74 589.6 210.99 Q586.66 207.24 586.66 201.129 Q586.66 195.018 589.6 191.268 Q592.563 187.518 597.262 187.518 Q600.132 187.518 602.169 188.652 Q604.229 189.763 605.572 192.078 M591.058 201.129 Q591.058 205.828 592.979 208.513 Q594.924 211.175 598.303 211.175 Q601.683 211.175 603.627 208.513 Q605.572 205.828 605.572 201.129 Q605.572 196.43 603.627 193.768 Q601.683 191.083 598.303 191.083 Q594.924 191.083 592.979 193.768 Q591.058 196.43 591.058 201.129 Z" fill="#000000" fill-rule="nonzero" fill-opacity="1" /><path clip-path="url(#clip120)" d="M618.604 188.143 L622.863 188.143 L622.863 214.069 L618.604 214.069 L618.604 188.143 M618.604 178.05 L622.863 178.05 L622.863 183.444 L618.604 183.444 L618.604 178.05 Z" fill="#000000" fill-rule="nonzero" fill-opacity="1" /><path clip-path="url(#clip120)" d="M650.433 189.138 L650.433 193.12 Q648.627 192.124 646.799 191.638 Q644.993 191.129 643.141 191.129 Q638.998 191.129 636.706 193.768 Q634.414 196.384 634.414 201.129 Q634.414 205.874 636.706 208.513 Q638.998 211.129 643.141 211.129 Q644.993 211.129 646.799 210.643 Q648.627 210.133 650.433 209.138 L650.433 213.073 Q648.65 213.907 646.729 214.323 Q644.831 214.74 642.678 214.74 Q636.822 214.74 633.373 211.059 Q629.924 207.379 629.924 201.129 Q629.924 194.786 633.396 191.152 Q636.891 187.518 642.956 187.518 Q644.924 187.518 646.799 187.935 Q648.674 188.328 650.433 189.138 Z" fill="#000000" fill-rule="nonzero" fill-opacity="1" /><path clip-path="url(#clip120)" d="M662.053 180.782 L662.053 188.143 L670.826 188.143 L670.826 191.453 L662.053 191.453 L662.053 205.527 Q662.053 208.698 662.91 209.601 Q663.789 210.504 666.451 210.504 L670.826 210.504 L670.826 214.069 L666.451 214.069 Q661.521 214.069 659.646 212.24 Q657.771 210.388 657.771 205.527 L657.771 191.453 L654.646 191.453 L654.646 188.143 L657.771 188.143 L657.771 180.782 L662.053 180.782 Z" fill="#000000" fill-rule="nonzero" fill-opacity="1" /><path clip-path="url(#clip120)" d="M698.604 200.041 L698.604 202.124 L679.021 202.124 Q679.298 206.522 681.659 208.837 Q684.044 211.129 688.28 211.129 Q690.733 211.129 693.025 210.527 Q695.34 209.925 697.608 208.721 L697.608 212.749 Q695.317 213.721 692.909 214.231 Q690.502 214.74 688.025 214.74 Q681.822 214.74 678.187 211.129 Q674.576 207.518 674.576 201.36 Q674.576 194.995 678.002 191.268 Q681.451 187.518 687.284 187.518 Q692.516 187.518 695.548 190.897 Q698.604 194.254 698.604 200.041 M694.345 198.791 Q694.298 195.296 692.377 193.212 Q690.479 191.129 687.331 191.129 Q683.766 191.129 681.613 193.143 Q679.484 195.157 679.159 198.814 L694.345 198.791 Z" fill="#000000" fill-rule="nonzero" fill-opacity="1" /><path clip-path="url(#clip120)" d="M722.655 192.078 L722.655 178.05 L726.914 178.05 L726.914 214.069 L722.655 214.069 L722.655 210.18 Q721.312 212.495 719.252 213.629 Q717.215 214.74 714.344 214.74 Q709.645 214.74 706.682 210.99 Q703.743 207.24 703.743 201.129 Q703.743 195.018 706.682 191.268 Q709.645 187.518 714.344 187.518 Q717.215 187.518 719.252 188.652 Q721.312 189.763 722.655 192.078 M708.141 201.129 Q708.141 205.828 710.062 208.513 Q712.007 211.175 715.386 211.175 Q718.766 211.175 720.71 208.513 Q722.655 205.828 722.655 201.129 Q722.655 196.43 720.71 193.768 Q718.766 191.083 715.386 191.083 Q712.007 191.083 710.062 193.768 Q708.141 196.43 708.141 201.129 Z" fill="#000000" fill-rule="nonzero" fill-opacity="1" /></svg>
