<?xml version="1.0" encoding="utf-8"?>
<svg xmlns="http://www.w3.org/2000/svg" xmlns:xlink="http://www.w3.org/1999/xlink" width="600" height="400" viewBox="0 0 2400 1600">
<defs>
  <clipPath id="clip060">
    <rect x="0" y="0" width="2400" height="1600"/>
  </clipPath>
</defs>
<path clip-path="url(#clip060)" d="M0 1600 L2400 1600 L2400 0 L0 0  Z" fill="#ffffff" fill-rule="evenodd" fill-opacity="1"/>
<defs>
  <clipPath id="clip061">
    <rect x="480" y="0" width="1681" height="1600"/>
  </clipPath>
</defs>
<path clip-path="url(#clip060)" d="M257.204 1423.18 L2352.76 1423.18 L2352.76 47.2441 L257.204 47.2441  Z" fill="#ffffff" fill-rule="evenodd" fill-opacity="1"/>
<defs>
  <clipPath id="clip062">
    <rect x="257" y="47" width="2097" height="1377"/>
  </clipPath>
</defs>
<polyline clip-path="url(#clip062)" style="stroke:#000000; stroke-linecap:round; stroke-linejoin:round; stroke-width:2; stroke-opacity:0.1; fill:none" points="316.511,1423.18 316.511,47.2441 "/>
<polyline clip-path="url(#clip062)" style="stroke:#000000; stroke-linecap:round; stroke-linejoin:round; stroke-width:2; stroke-opacity:0.1; fill:none" points="810.745,1423.18 810.745,47.2441 "/>
<polyline clip-path="url(#clip062)" style="stroke:#000000; stroke-linecap:round; stroke-linejoin:round; stroke-width:2; stroke-opacity:0.1; fill:none" points="1304.98,1423.18 1304.98,47.2441 "/>
<polyline clip-path="url(#clip062)" style="stroke:#000000; stroke-linecap:round; stroke-linejoin:round; stroke-width:2; stroke-opacity:0.1; fill:none" points="1799.21,1423.18 1799.21,47.2441 "/>
<polyline clip-path="url(#clip062)" style="stroke:#000000; stroke-linecap:round; stroke-linejoin:round; stroke-width:2; stroke-opacity:0.1; fill:none" points="2293.45,1423.18 2293.45,47.2441 "/>
<polyline clip-path="url(#clip060)" style="stroke:#000000; stroke-linecap:round; stroke-linejoin:round; stroke-width:4; stroke-opacity:1; fill:none" points="257.204,1423.18 2352.76,1423.18 "/>
<polyline clip-path="url(#clip060)" style="stroke:#000000; stroke-linecap:round; stroke-linejoin:round; stroke-width:4; stroke-opacity:1; fill:none" points="316.511,1423.18 316.511,1404.28 "/>
<polyline clip-path="url(#clip060)" style="stroke:#000000; stroke-linecap:round; stroke-linejoin:round; stroke-width:4; stroke-opacity:1; fill:none" points="810.745,1423.18 810.745,1404.28 "/>
<polyline clip-path="url(#clip060)" style="stroke:#000000; stroke-linecap:round; stroke-linejoin:round; stroke-width:4; stroke-opacity:1; fill:none" points="1304.98,1423.18 1304.98,1404.28 "/>
<polyline clip-path="url(#clip060)" style="stroke:#000000; stroke-linecap:round; stroke-linejoin:round; stroke-width:4; stroke-opacity:1; fill:none" points="1799.21,1423.18 1799.21,1404.28 "/>
<polyline clip-path="url(#clip060)" style="stroke:#000000; stroke-linecap:round; stroke-linejoin:round; stroke-width:4; stroke-opacity:1; fill:none" points="2293.45,1423.18 2293.45,1404.28 "/>
<path clip-path="url(#clip060)" d="M263.039 1468.75 L292.715 1468.75 L292.715 1472.69 L263.039 1472.69 L263.039 1468.75 Z" fill="#000000" fill-rule="nonzero" fill-opacity="1" /><path clip-path="url(#clip060)" d="M303.617 1481.64 L311.256 1481.64 L311.256 1455.28 L302.946 1456.95 L302.946 1452.69 L311.21 1451.02 L315.886 1451.02 L315.886 1481.64 L323.525 1481.64 L323.525 1485.58 L303.617 1485.58 L303.617 1481.64 Z" fill="#000000" fill-rule="nonzero" fill-opacity="1" /><path clip-path="url(#clip060)" d="M332.969 1479.7 L337.853 1479.7 L337.853 1485.58 L332.969 1485.58 L332.969 1479.7 Z" fill="#000000" fill-rule="nonzero" fill-opacity="1" /><path clip-path="url(#clip060)" d="M358.038 1454.1 Q354.427 1454.1 352.599 1457.66 Q350.793 1461.2 350.793 1468.33 Q350.793 1475.44 352.599 1479.01 Q354.427 1482.55 358.038 1482.55 Q361.673 1482.55 363.478 1479.01 Q365.307 1475.44 365.307 1468.33 Q365.307 1461.2 363.478 1457.66 Q361.673 1454.1 358.038 1454.1 M358.038 1450.39 Q363.849 1450.39 366.904 1455 Q369.983 1459.58 369.983 1468.33 Q369.983 1477.06 366.904 1481.67 Q363.849 1486.25 358.038 1486.25 Q352.228 1486.25 349.15 1481.67 Q346.094 1477.06 346.094 1468.33 Q346.094 1459.58 349.15 1455 Q352.228 1450.39 358.038 1450.39 Z" fill="#000000" fill-rule="nonzero" fill-opacity="1" /><path clip-path="url(#clip060)" d="M757.771 1468.75 L787.447 1468.75 L787.447 1472.69 L757.771 1472.69 L757.771 1468.75 Z" fill="#000000" fill-rule="nonzero" fill-opacity="1" /><path clip-path="url(#clip060)" d="M807.539 1454.1 Q803.928 1454.1 802.1 1457.66 Q800.294 1461.2 800.294 1468.33 Q800.294 1475.44 802.1 1479.01 Q803.928 1482.55 807.539 1482.55 Q811.174 1482.55 812.979 1479.01 Q814.808 1475.44 814.808 1468.33 Q814.808 1461.2 812.979 1457.66 Q811.174 1454.1 807.539 1454.1 M807.539 1450.39 Q813.35 1450.39 816.405 1455 Q819.484 1459.58 819.484 1468.33 Q819.484 1477.06 816.405 1481.67 Q813.35 1486.25 807.539 1486.25 Q801.729 1486.25 798.651 1481.67 Q795.595 1477.06 795.595 1468.33 Q795.595 1459.58 798.651 1455 Q801.729 1450.39 807.539 1450.39 Z" fill="#000000" fill-rule="nonzero" fill-opacity="1" /><path clip-path="url(#clip060)" d="M827.701 1479.7 L832.586 1479.7 L832.586 1485.58 L827.701 1485.58 L827.701 1479.7 Z" fill="#000000" fill-rule="nonzero" fill-opacity="1" /><path clip-path="url(#clip060)" d="M842.817 1451.02 L861.173 1451.02 L861.173 1454.96 L847.099 1454.96 L847.099 1463.43 Q848.118 1463.08 849.136 1462.92 Q850.155 1462.73 851.173 1462.73 Q856.96 1462.73 860.34 1465.9 Q863.72 1469.08 863.72 1474.49 Q863.72 1480.07 860.247 1483.17 Q856.775 1486.25 850.456 1486.25 Q848.28 1486.25 846.011 1485.88 Q843.766 1485.51 841.359 1484.77 L841.359 1480.07 Q843.442 1481.2 845.664 1481.76 Q847.886 1482.32 850.363 1482.32 Q854.368 1482.32 856.706 1480.21 Q859.044 1478.1 859.044 1474.49 Q859.044 1470.88 856.706 1468.77 Q854.368 1466.67 850.363 1466.67 Q848.488 1466.67 846.613 1467.08 Q844.761 1467.5 842.817 1468.38 L842.817 1451.02 Z" fill="#000000" fill-rule="nonzero" fill-opacity="1" /><path clip-path="url(#clip060)" d="M1282.36 1454.1 Q1278.75 1454.1 1276.92 1457.66 Q1275.12 1461.2 1275.12 1468.33 Q1275.12 1475.44 1276.92 1479.01 Q1278.75 1482.55 1282.36 1482.55 Q1286 1482.55 1287.8 1479.01 Q1289.63 1475.44 1289.63 1468.33 Q1289.63 1461.2 1287.8 1457.66 Q1286 1454.1 1282.36 1454.1 M1282.36 1450.39 Q1288.17 1450.39 1291.23 1455 Q1294.31 1459.58 1294.31 1468.33 Q1294.31 1477.06 1291.23 1481.67 Q1288.17 1486.25 1282.36 1486.25 Q1276.55 1486.25 1273.48 1481.67 Q1270.42 1477.06 1270.42 1468.33 Q1270.42 1459.58 1273.48 1455 Q1276.55 1450.39 1282.36 1450.39 Z" fill="#000000" fill-rule="nonzero" fill-opacity="1" /><path clip-path="url(#clip060)" d="M1302.53 1479.7 L1307.41 1479.7 L1307.41 1485.58 L1302.53 1485.58 L1302.53 1479.7 Z" fill="#000000" fill-rule="nonzero" fill-opacity="1" /><path clip-path="url(#clip060)" d="M1327.6 1454.1 Q1323.98 1454.1 1322.16 1457.66 Q1320.35 1461.2 1320.35 1468.33 Q1320.35 1475.44 1322.16 1479.01 Q1323.98 1482.55 1327.6 1482.55 Q1331.23 1482.55 1333.04 1479.01 Q1334.86 1475.44 1334.86 1468.33 Q1334.86 1461.2 1333.04 1457.66 Q1331.23 1454.1 1327.6 1454.1 M1327.6 1450.39 Q1333.41 1450.39 1336.46 1455 Q1339.54 1459.58 1339.54 1468.33 Q1339.54 1477.06 1336.46 1481.67 Q1333.41 1486.25 1327.6 1486.25 Q1321.79 1486.25 1318.71 1481.67 Q1315.65 1477.06 1315.65 1468.33 Q1315.65 1459.58 1318.71 1455 Q1321.79 1450.39 1327.6 1450.39 Z" fill="#000000" fill-rule="nonzero" fill-opacity="1" /><path clip-path="url(#clip060)" d="M1777.1 1454.1 Q1773.49 1454.1 1771.66 1457.66 Q1769.85 1461.2 1769.85 1468.33 Q1769.85 1475.44 1771.66 1479.01 Q1773.49 1482.55 1777.1 1482.55 Q1780.73 1482.55 1782.54 1479.01 Q1784.37 1475.44 1784.37 1468.33 Q1784.37 1461.2 1782.54 1457.66 Q1780.73 1454.1 1777.1 1454.1 M1777.1 1450.39 Q1782.91 1450.39 1785.96 1455 Q1789.04 1459.58 1789.04 1468.33 Q1789.04 1477.06 1785.96 1481.67 Q1782.91 1486.25 1777.1 1486.25 Q1771.29 1486.25 1768.21 1481.67 Q1765.15 1477.06 1765.15 1468.33 Q1765.15 1459.58 1768.21 1455 Q1771.29 1450.39 1777.1 1450.39 Z" fill="#000000" fill-rule="nonzero" fill-opacity="1" /><path clip-path="url(#clip060)" d="M1797.26 1479.7 L1802.14 1479.7 L1802.14 1485.58 L1797.26 1485.58 L1797.26 1479.7 Z" fill="#000000" fill-rule="nonzero" fill-opacity="1" /><path clip-path="url(#clip060)" d="M1812.37 1451.02 L1830.73 1451.02 L1830.73 1454.96 L1816.66 1454.96 L1816.66 1463.43 Q1817.68 1463.08 1818.69 1462.92 Q1819.71 1462.73 1820.73 1462.73 Q1826.52 1462.73 1829.9 1465.9 Q1833.28 1469.08 1833.28 1474.49 Q1833.28 1480.07 1829.8 1483.17 Q1826.33 1486.25 1820.01 1486.25 Q1817.84 1486.25 1815.57 1485.88 Q1813.32 1485.51 1810.92 1484.77 L1810.92 1480.07 Q1813 1481.2 1815.22 1481.76 Q1817.44 1482.32 1819.92 1482.32 Q1823.93 1482.32 1826.26 1480.21 Q1828.6 1478.1 1828.6 1474.49 Q1828.6 1470.88 1826.26 1468.77 Q1823.93 1466.67 1819.92 1466.67 Q1818.05 1466.67 1816.17 1467.08 Q1814.32 1467.5 1812.37 1468.38 L1812.37 1451.02 Z" fill="#000000" fill-rule="nonzero" fill-opacity="1" /><path clip-path="url(#clip060)" d="M2260.6 1481.64 L2268.24 1481.64 L2268.24 1455.28 L2259.93 1456.95 L2259.93 1452.69 L2268.19 1451.02 L2272.87 1451.02 L2272.87 1481.64 L2280.51 1481.64 L2280.51 1485.58 L2260.6 1485.58 L2260.6 1481.64 Z" fill="#000000" fill-rule="nonzero" fill-opacity="1" /><path clip-path="url(#clip060)" d="M2289.95 1479.7 L2294.84 1479.7 L2294.84 1485.58 L2289.95 1485.58 L2289.95 1479.7 Z" fill="#000000" fill-rule="nonzero" fill-opacity="1" /><path clip-path="url(#clip060)" d="M2315.02 1454.1 Q2311.41 1454.1 2309.58 1457.66 Q2307.78 1461.2 2307.78 1468.33 Q2307.78 1475.44 2309.58 1479.01 Q2311.41 1482.55 2315.02 1482.55 Q2318.66 1482.55 2320.46 1479.01 Q2322.29 1475.44 2322.29 1468.33 Q2322.29 1461.2 2320.46 1457.66 Q2318.66 1454.1 2315.02 1454.1 M2315.02 1450.39 Q2320.83 1450.39 2323.89 1455 Q2326.97 1459.58 2326.97 1468.33 Q2326.97 1477.06 2323.89 1481.67 Q2320.83 1486.25 2315.02 1486.25 Q2309.21 1486.25 2306.13 1481.67 Q2303.08 1477.06 2303.08 1468.33 Q2303.08 1459.58 2306.13 1455 Q2309.21 1450.39 2315.02 1450.39 Z" fill="#000000" fill-rule="nonzero" fill-opacity="1" /><path clip-path="url(#clip060)" d="M1134.03 1525.81 L1134.03 1543.66 L1142.11 1543.66 Q1146.6 1543.66 1149.05 1541.34 Q1151.5 1539.02 1151.5 1534.72 Q1151.5 1530.45 1149.05 1528.13 Q1146.6 1525.81 1142.11 1525.81 L1134.03 1525.81 M1127.6 1520.52 L1142.11 1520.52 Q1150.1 1520.52 1154.18 1524.15 Q1158.28 1527.75 1158.28 1534.72 Q1158.28 1541.75 1154.18 1545.35 Q1150.1 1548.95 1142.11 1548.95 L1134.03 1548.95 L1134.03 1568.04 L1127.6 1568.04 L1127.6 1520.52 Z" fill="#000000" fill-rule="nonzero" fill-opacity="1" /><path clip-path="url(#clip060)" d="M1178.14 1536.5 Q1173.43 1536.5 1170.7 1540.19 Q1167.96 1543.85 1167.96 1550.25 Q1167.96 1556.65 1170.66 1560.34 Q1173.4 1564 1178.14 1564 Q1182.82 1564 1185.56 1560.31 Q1188.3 1556.62 1188.3 1550.25 Q1188.3 1543.92 1185.56 1540.23 Q1182.82 1536.5 1178.14 1536.5 M1178.14 1531.54 Q1185.78 1531.54 1190.14 1536.5 Q1194.5 1541.47 1194.5 1550.25 Q1194.5 1559 1190.14 1564 Q1185.78 1568.97 1178.14 1568.97 Q1170.47 1568.97 1166.11 1564 Q1161.78 1559 1161.78 1550.25 Q1161.78 1541.47 1166.11 1536.5 Q1170.47 1531.54 1178.14 1531.54 Z" fill="#000000" fill-rule="nonzero" fill-opacity="1" /><path clip-path="url(#clip060)" d="M1226.94 1533.45 L1226.94 1538.98 Q1224.45 1537.71 1221.78 1537.07 Q1219.11 1536.44 1216.24 1536.44 Q1211.88 1536.44 1209.69 1537.77 Q1207.52 1539.11 1207.52 1541.79 Q1207.52 1543.82 1209.08 1545 Q1210.64 1546.15 1215.35 1547.2 L1217.36 1547.64 Q1223.59 1548.98 1226.2 1551.43 Q1228.85 1553.85 1228.85 1558.21 Q1228.85 1563.17 1224.9 1566.07 Q1220.98 1568.97 1214.11 1568.97 Q1211.24 1568.97 1208.13 1568.39 Q1205.04 1567.85 1201.6 1566.74 L1201.6 1560.69 Q1204.85 1562.38 1208 1563.24 Q1211.15 1564.07 1214.24 1564.07 Q1218.37 1564.07 1220.6 1562.66 Q1222.83 1561.23 1222.83 1558.65 Q1222.83 1556.27 1221.21 1554.99 Q1219.62 1553.72 1214.17 1552.54 L1212.14 1552.07 Q1206.69 1550.92 1204.27 1548.56 Q1201.86 1546.18 1201.86 1542.04 Q1201.86 1537.01 1205.42 1534.27 Q1208.99 1531.54 1215.54 1531.54 Q1218.79 1531.54 1221.65 1532.01 Q1224.52 1532.49 1226.94 1533.45 Z" fill="#000000" fill-rule="nonzero" fill-opacity="1" /><path clip-path="url(#clip060)" d="M1238.17 1532.4 L1244.03 1532.4 L1244.03 1568.04 L1238.17 1568.04 L1238.17 1532.4 M1238.17 1518.52 L1244.03 1518.52 L1244.03 1525.93 L1238.17 1525.93 L1238.17 1518.52 Z" fill="#000000" fill-rule="nonzero" fill-opacity="1" /><path clip-path="url(#clip060)" d="M1262.08 1522.27 L1262.08 1532.4 L1274.14 1532.4 L1274.14 1536.95 L1262.08 1536.95 L1262.08 1556.3 Q1262.08 1560.66 1263.25 1561.9 Q1264.46 1563.14 1268.12 1563.14 L1274.14 1563.14 L1274.14 1568.04 L1268.12 1568.04 Q1261.34 1568.04 1258.76 1565.53 Q1256.19 1562.98 1256.19 1556.3 L1256.19 1536.95 L1251.89 1536.95 L1251.89 1532.4 L1256.19 1532.4 L1256.19 1522.27 L1262.08 1522.27 Z" fill="#000000" fill-rule="nonzero" fill-opacity="1" /><path clip-path="url(#clip060)" d="M1281.84 1532.4 L1287.7 1532.4 L1287.7 1568.04 L1281.84 1568.04 L1281.84 1532.4 M1281.84 1518.52 L1287.7 1518.52 L1287.7 1525.93 L1281.84 1525.93 L1281.84 1518.52 Z" fill="#000000" fill-rule="nonzero" fill-opacity="1" /><path clip-path="url(#clip060)" d="M1313.76 1536.5 Q1309.05 1536.5 1306.32 1540.19 Q1303.58 1543.85 1303.58 1550.25 Q1303.58 1556.65 1306.28 1560.34 Q1309.02 1564 1313.76 1564 Q1318.44 1564 1321.18 1560.31 Q1323.92 1556.62 1323.92 1550.25 Q1323.92 1543.92 1321.18 1540.23 Q1318.44 1536.5 1313.76 1536.5 M1313.76 1531.54 Q1321.4 1531.54 1325.76 1536.5 Q1330.12 1541.47 1330.12 1550.25 Q1330.12 1559 1325.76 1564 Q1321.4 1568.97 1313.76 1568.97 Q1306.09 1568.97 1301.73 1564 Q1297.4 1559 1297.4 1550.25 Q1297.4 1541.47 1301.73 1536.5 Q1306.09 1531.54 1313.76 1531.54 Z" fill="#000000" fill-rule="nonzero" fill-opacity="1" /><path clip-path="url(#clip060)" d="M1369.46 1546.53 L1369.46 1568.04 L1363.61 1568.04 L1363.61 1546.72 Q1363.61 1541.66 1361.63 1539.14 Q1359.66 1536.63 1355.71 1536.63 Q1350.97 1536.63 1348.23 1539.65 Q1345.5 1542.68 1345.5 1547.9 L1345.5 1568.04 L1339.61 1568.04 L1339.61 1532.4 L1345.5 1532.4 L1345.5 1537.93 Q1347.6 1534.72 1350.43 1533.13 Q1353.3 1531.54 1357.02 1531.54 Q1363.16 1531.54 1366.31 1535.36 Q1369.46 1539.14 1369.46 1546.53 Z" fill="#000000" fill-rule="nonzero" fill-opacity="1" /><path clip-path="url(#clip060)" d="M1415.93 1518.58 Q1411.67 1525.9 1409.6 1533.06 Q1407.53 1540.23 1407.53 1547.58 Q1407.53 1554.93 1409.6 1562.16 Q1411.7 1569.35 1415.93 1576.64 L1410.84 1576.64 Q1406.07 1569.16 1403.68 1561.93 Q1401.32 1554.71 1401.32 1547.58 Q1401.32 1540.48 1403.68 1533.29 Q1406.04 1526.09 1410.84 1518.58 L1415.93 1518.58 Z" fill="#000000" fill-rule="nonzero" fill-opacity="1" /><path clip-path="url(#clip060)" d="M1430.8 1550.25 Q1430.8 1556.71 1433.44 1560.4 Q1436.11 1564.07 1440.76 1564.07 Q1445.41 1564.07 1448.08 1560.4 Q1450.75 1556.71 1450.75 1550.25 Q1450.75 1543.79 1448.08 1540.13 Q1445.41 1536.44 1440.76 1536.44 Q1436.11 1536.44 1433.44 1540.13 Q1430.8 1543.79 1430.8 1550.25 M1450.75 1562.7 Q1448.91 1565.88 1446.08 1567.44 Q1443.27 1568.97 1439.33 1568.97 Q1432.87 1568.97 1428.79 1563.81 Q1424.75 1558.65 1424.75 1550.25 Q1424.75 1541.85 1428.79 1536.69 Q1432.87 1531.54 1439.33 1531.54 Q1443.27 1531.54 1446.08 1533.1 Q1448.91 1534.62 1450.75 1537.81 L1450.75 1532.4 L1456.61 1532.4 L1456.61 1581.6 L1450.75 1581.6 L1450.75 1562.7 Z" fill="#000000" fill-rule="nonzero" fill-opacity="1" /><path clip-path="url(#clip060)" d="M1467.75 1518.58 L1472.84 1518.58 Q1477.62 1526.09 1479.97 1533.29 Q1482.36 1540.48 1482.36 1547.58 Q1482.36 1554.71 1479.97 1561.93 Q1477.62 1569.16 1472.84 1576.64 L1467.75 1576.64 Q1471.98 1569.35 1474.05 1562.16 Q1476.15 1554.93 1476.15 1547.58 Q1476.15 1540.23 1474.05 1533.06 Q1471.98 1525.9 1467.75 1518.58 Z" fill="#000000" fill-rule="nonzero" fill-opacity="1" /><polyline clip-path="url(#clip062)" style="stroke:#000000; stroke-linecap:round; stroke-linejoin:round; stroke-width:2; stroke-opacity:0.1; fill:none" points="257.204,1384.24 2352.76,1384.24 "/>
<polyline clip-path="url(#clip062)" style="stroke:#000000; stroke-linecap:round; stroke-linejoin:round; stroke-width:2; stroke-opacity:0.1; fill:none" points="257.204,1059.73 2352.76,1059.73 "/>
<polyline clip-path="url(#clip062)" style="stroke:#000000; stroke-linecap:round; stroke-linejoin:round; stroke-width:2; stroke-opacity:0.1; fill:none" points="257.204,735.213 2352.76,735.213 "/>
<polyline clip-path="url(#clip062)" style="stroke:#000000; stroke-linecap:round; stroke-linejoin:round; stroke-width:2; stroke-opacity:0.1; fill:none" points="257.204,410.7 2352.76,410.7 "/>
<polyline clip-path="url(#clip062)" style="stroke:#000000; stroke-linecap:round; stroke-linejoin:round; stroke-width:2; stroke-opacity:0.1; fill:none" points="257.204,86.1857 2352.76,86.1857 "/>
<polyline clip-path="url(#clip060)" style="stroke:#000000; stroke-linecap:round; stroke-linejoin:round; stroke-width:4; stroke-opacity:1; fill:none" points="257.204,1423.18 257.204,47.2441 "/>
<polyline clip-path="url(#clip060)" style="stroke:#000000; stroke-linecap:round; stroke-linejoin:round; stroke-width:4; stroke-opacity:1; fill:none" points="257.204,1384.24 276.102,1384.24 "/>
<polyline clip-path="url(#clip060)" style="stroke:#000000; stroke-linecap:round; stroke-linejoin:round; stroke-width:4; stroke-opacity:1; fill:none" points="257.204,1059.73 276.102,1059.73 "/>
<polyline clip-path="url(#clip060)" style="stroke:#000000; stroke-linecap:round; stroke-linejoin:round; stroke-width:4; stroke-opacity:1; fill:none" points="257.204,735.213 276.102,735.213 "/>
<polyline clip-path="url(#clip060)" style="stroke:#000000; stroke-linecap:round; stroke-linejoin:round; stroke-width:4; stroke-opacity:1; fill:none" points="257.204,410.7 276.102,410.7 "/>
<polyline clip-path="url(#clip060)" style="stroke:#000000; stroke-linecap:round; stroke-linejoin:round; stroke-width:4; stroke-opacity:1; fill:none" points="257.204,86.1857 276.102,86.1857 "/>
<path clip-path="url(#clip060)" d="M114.26 1384.69 L143.936 1384.69 L143.936 1388.63 L114.26 1388.63 L114.26 1384.69 Z" fill="#000000" fill-rule="nonzero" fill-opacity="1" /><path clip-path="url(#clip060)" d="M154.839 1397.59 L162.477 1397.59 L162.477 1371.22 L154.167 1372.89 L154.167 1368.63 L162.431 1366.96 L167.107 1366.96 L167.107 1397.59 L174.746 1397.59 L174.746 1401.52 L154.839 1401.52 L154.839 1397.59 Z" fill="#000000" fill-rule="nonzero" fill-opacity="1" /><path clip-path="url(#clip060)" d="M184.19 1395.64 L189.075 1395.64 L189.075 1401.52 L184.19 1401.52 L184.19 1395.64 Z" fill="#000000" fill-rule="nonzero" fill-opacity="1" /><path clip-path="url(#clip060)" d="M209.26 1370.04 Q205.649 1370.04 203.82 1373.6 Q202.014 1377.15 202.014 1384.28 Q202.014 1391.38 203.82 1394.95 Q205.649 1398.49 209.26 1398.49 Q212.894 1398.49 214.699 1394.95 Q216.528 1391.38 216.528 1384.28 Q216.528 1377.15 214.699 1373.6 Q212.894 1370.04 209.26 1370.04 M209.26 1366.34 Q215.07 1366.34 218.125 1370.94 Q221.204 1375.53 221.204 1384.28 Q221.204 1393 218.125 1397.61 Q215.07 1402.19 209.26 1402.19 Q203.449 1402.19 200.371 1397.61 Q197.315 1393 197.315 1384.28 Q197.315 1375.53 200.371 1370.94 Q203.449 1366.34 209.26 1366.34 Z" fill="#000000" fill-rule="nonzero" fill-opacity="1" /><path clip-path="url(#clip060)" d="M115.256 1060.18 L144.931 1060.18 L144.931 1064.11 L115.256 1064.11 L115.256 1060.18 Z" fill="#000000" fill-rule="nonzero" fill-opacity="1" /><path clip-path="url(#clip060)" d="M165.024 1045.53 Q161.413 1045.53 159.584 1049.09 Q157.778 1052.63 157.778 1059.76 Q157.778 1066.87 159.584 1070.43 Q161.413 1073.98 165.024 1073.98 Q168.658 1073.98 170.464 1070.43 Q172.292 1066.87 172.292 1059.76 Q172.292 1052.63 170.464 1049.09 Q168.658 1045.53 165.024 1045.53 M165.024 1041.82 Q170.834 1041.82 173.889 1046.43 Q176.968 1051.01 176.968 1059.76 Q176.968 1068.49 173.889 1073.1 Q170.834 1077.68 165.024 1077.68 Q159.214 1077.68 156.135 1073.1 Q153.079 1068.49 153.079 1059.76 Q153.079 1051.01 156.135 1046.43 Q159.214 1041.82 165.024 1041.82 Z" fill="#000000" fill-rule="nonzero" fill-opacity="1" /><path clip-path="url(#clip060)" d="M185.186 1071.13 L190.07 1071.13 L190.07 1077.01 L185.186 1077.01 L185.186 1071.13 Z" fill="#000000" fill-rule="nonzero" fill-opacity="1" /><path clip-path="url(#clip060)" d="M200.301 1042.45 L218.658 1042.45 L218.658 1046.38 L204.584 1046.38 L204.584 1054.85 Q205.602 1054.51 206.621 1054.35 Q207.639 1054.16 208.658 1054.16 Q214.445 1054.16 217.824 1057.33 Q221.204 1060.5 221.204 1065.92 Q221.204 1071.5 217.732 1074.6 Q214.26 1077.68 207.94 1077.68 Q205.764 1077.68 203.496 1077.31 Q201.25 1076.94 198.843 1076.2 L198.843 1071.5 Q200.926 1072.63 203.149 1073.19 Q205.371 1073.74 207.848 1073.74 Q211.852 1073.74 214.19 1071.64 Q216.528 1069.53 216.528 1065.92 Q216.528 1062.31 214.19 1060.2 Q211.852 1058.1 207.848 1058.1 Q205.973 1058.1 204.098 1058.51 Q202.246 1058.93 200.301 1059.81 L200.301 1042.45 Z" fill="#000000" fill-rule="nonzero" fill-opacity="1" /><path clip-path="url(#clip060)" d="M164.028 721.012 Q160.417 721.012 158.589 724.577 Q156.783 728.119 156.783 735.248 Q156.783 742.355 158.589 745.919 Q160.417 749.461 164.028 749.461 Q167.663 749.461 169.468 745.919 Q171.297 742.355 171.297 735.248 Q171.297 728.119 169.468 724.577 Q167.663 721.012 164.028 721.012 M164.028 717.308 Q169.839 717.308 172.894 721.915 Q175.973 726.498 175.973 735.248 Q175.973 743.975 172.894 748.581 Q169.839 753.165 164.028 753.165 Q158.218 753.165 155.14 748.581 Q152.084 743.975 152.084 735.248 Q152.084 726.498 155.14 721.915 Q158.218 717.308 164.028 717.308 Z" fill="#000000" fill-rule="nonzero" fill-opacity="1" /><path clip-path="url(#clip060)" d="M184.19 746.614 L189.075 746.614 L189.075 752.493 L184.19 752.493 L184.19 746.614 Z" fill="#000000" fill-rule="nonzero" fill-opacity="1" /><path clip-path="url(#clip060)" d="M209.26 721.012 Q205.649 721.012 203.82 724.577 Q202.014 728.119 202.014 735.248 Q202.014 742.355 203.82 745.919 Q205.649 749.461 209.26 749.461 Q212.894 749.461 214.699 745.919 Q216.528 742.355 216.528 735.248 Q216.528 728.119 214.699 724.577 Q212.894 721.012 209.26 721.012 M209.26 717.308 Q215.07 717.308 218.125 721.915 Q221.204 726.498 221.204 735.248 Q221.204 743.975 218.125 748.581 Q215.07 753.165 209.26 753.165 Q203.449 753.165 200.371 748.581 Q197.315 743.975 197.315 735.248 Q197.315 726.498 200.371 721.915 Q203.449 717.308 209.26 717.308 Z" fill="#000000" fill-rule="nonzero" fill-opacity="1" /><path clip-path="url(#clip060)" d="M165.024 396.498 Q161.413 396.498 159.584 400.063 Q157.778 403.605 157.778 410.734 Q157.778 417.841 159.584 421.406 Q161.413 424.947 165.024 424.947 Q168.658 424.947 170.464 421.406 Q172.292 417.841 172.292 410.734 Q172.292 403.605 170.464 400.063 Q168.658 396.498 165.024 396.498 M165.024 392.795 Q170.834 392.795 173.889 397.401 Q176.968 401.984 176.968 410.734 Q176.968 419.461 173.889 424.068 Q170.834 428.651 165.024 428.651 Q159.214 428.651 156.135 424.068 Q153.079 419.461 153.079 410.734 Q153.079 401.984 156.135 397.401 Q159.214 392.795 165.024 392.795 Z" fill="#000000" fill-rule="nonzero" fill-opacity="1" /><path clip-path="url(#clip060)" d="M185.186 422.1 L190.07 422.1 L190.07 427.98 L185.186 427.98 L185.186 422.1 Z" fill="#000000" fill-rule="nonzero" fill-opacity="1" /><path clip-path="url(#clip060)" d="M200.301 393.42 L218.658 393.42 L218.658 397.355 L204.584 397.355 L204.584 405.827 Q205.602 405.48 206.621 405.318 Q207.639 405.132 208.658 405.132 Q214.445 405.132 217.824 408.304 Q221.204 411.475 221.204 416.892 Q221.204 422.47 217.732 425.572 Q214.26 428.651 207.94 428.651 Q205.764 428.651 203.496 428.281 Q201.25 427.91 198.843 427.169 L198.843 422.47 Q200.926 423.605 203.149 424.16 Q205.371 424.716 207.848 424.716 Q211.852 424.716 214.19 422.609 Q216.528 420.503 216.528 416.892 Q216.528 413.281 214.19 411.174 Q211.852 409.068 207.848 409.068 Q205.973 409.068 204.098 409.484 Q202.246 409.901 200.301 410.781 L200.301 393.42 Z" fill="#000000" fill-rule="nonzero" fill-opacity="1" /><path clip-path="url(#clip060)" d="M154.839 99.5305 L162.477 99.5305 L162.477 73.1649 L154.167 74.8316 L154.167 70.5723 L162.431 68.9057 L167.107 68.9057 L167.107 99.5305 L174.746 99.5305 L174.746 103.466 L154.839 103.466 L154.839 99.5305 Z" fill="#000000" fill-rule="nonzero" fill-opacity="1" /><path clip-path="url(#clip060)" d="M184.19 97.5861 L189.075 97.5861 L189.075 103.466 L184.19 103.466 L184.19 97.5861 Z" fill="#000000" fill-rule="nonzero" fill-opacity="1" /><path clip-path="url(#clip060)" d="M209.26 71.9844 Q205.649 71.9844 203.82 75.5492 Q202.014 79.0908 202.014 86.2204 Q202.014 93.3268 203.82 96.8916 Q205.649 100.433 209.26 100.433 Q212.894 100.433 214.699 96.8916 Q216.528 93.3268 216.528 86.2204 Q216.528 79.0908 214.699 75.5492 Q212.894 71.9844 209.26 71.9844 M209.26 68.2807 Q215.07 68.2807 218.125 72.8871 Q221.204 77.4704 221.204 86.2204 Q221.204 94.9472 218.125 99.5537 Q215.07 104.137 209.26 104.137 Q203.449 104.137 200.371 99.5537 Q197.315 94.9472 197.315 86.2204 Q197.315 77.4704 200.371 72.8871 Q203.449 68.2807 209.26 68.2807 Z" fill="#000000" fill-rule="nonzero" fill-opacity="1" /><path clip-path="url(#clip060)" d="M16.4842 971.396 L16.4842 961.815 L48.8219 949.689 L16.4842 937.498 L16.4842 927.918 L64.0042 927.918 L64.0042 934.188 L22.277 934.188 L54.8694 946.442 L54.8694 952.903 L22.277 965.157 L64.0042 965.157 L64.0042 971.396 L16.4842 971.396 Z" fill="#000000" fill-rule="nonzero" fill-opacity="1" /><path clip-path="url(#clip060)" d="M32.4621 901.596 Q32.4621 906.306 36.1542 909.044 Q39.8145 911.781 46.212 911.781 Q52.6095 911.781 56.3017 909.075 Q59.9619 906.338 59.9619 901.596 Q59.9619 896.917 56.2698 894.18 Q52.5777 891.442 46.212 891.442 Q39.8781 891.442 36.186 894.18 Q32.4621 896.917 32.4621 901.596 M27.4968 901.596 Q27.4968 893.957 32.4621 889.596 Q37.4273 885.236 46.212 885.236 Q54.9649 885.236 59.9619 889.596 Q64.9272 893.957 64.9272 901.596 Q64.9272 909.266 59.9619 913.627 Q54.9649 917.955 46.212 917.955 Q37.4273 917.955 32.4621 913.627 Q27.4968 909.266 27.4968 901.596 Z" fill="#000000" fill-rule="nonzero" fill-opacity="1" /><path clip-path="url(#clip060)" d="M35.1993 847.774 Q31.2526 845.577 29.3747 842.522 Q27.4968 839.466 27.4968 835.329 Q27.4968 829.759 31.4117 826.735 Q35.2948 823.711 42.4881 823.711 L64.0042 823.711 L64.0042 829.599 L42.679 829.599 Q37.5546 829.599 35.072 831.414 Q32.5894 833.228 32.5894 836.952 Q32.5894 841.503 35.6131 844.145 Q38.6368 846.787 43.8567 846.787 L64.0042 846.787 L64.0042 852.675 L42.679 852.675 Q37.5228 852.675 35.072 854.489 Q32.5894 856.304 32.5894 860.091 Q32.5894 864.579 35.6449 867.221 Q38.6686 869.863 43.8567 869.863 L64.0042 869.863 L64.0042 875.751 L28.3562 875.751 L28.3562 869.863 L33.8944 869.863 Q30.616 867.857 29.0564 865.056 Q27.4968 862.256 27.4968 858.404 Q27.4968 854.521 29.4702 851.816 Q31.4436 849.079 35.1993 847.774 Z" fill="#000000" fill-rule="nonzero" fill-opacity="1" /><path clip-path="url(#clip060)" d="M44.7161 781.538 L47.5806 781.538 L47.5806 808.465 Q53.6281 808.083 56.8109 804.837 Q59.9619 801.559 59.9619 795.734 Q59.9619 792.36 59.1344 789.209 Q58.3069 786.026 56.6518 782.907 L62.1899 782.907 Q63.5267 786.058 64.227 789.368 Q64.9272 792.678 64.9272 796.084 Q64.9272 804.614 59.9619 809.611 Q54.9967 814.576 46.5303 814.576 Q37.7774 814.576 32.6531 809.866 Q27.4968 805.123 27.4968 797.103 Q27.4968 789.909 32.1438 785.74 Q36.7589 781.538 44.7161 781.538 M42.9973 787.395 Q38.1912 787.459 35.3266 790.1 Q32.4621 792.71 32.4621 797.039 Q32.4621 801.94 35.2312 804.901 Q38.0002 807.829 43.0292 808.274 L42.9973 787.395 Z" fill="#000000" fill-rule="nonzero" fill-opacity="1" /><path clip-path="url(#clip060)" d="M42.4881 742.294 L64.0042 742.294 L64.0042 748.15 L42.679 748.15 Q37.6183 748.15 35.1038 750.124 Q32.5894 752.097 32.5894 756.044 Q32.5894 760.786 35.6131 763.523 Q38.6368 766.261 43.8567 766.261 L64.0042 766.261 L64.0042 772.149 L28.3562 772.149 L28.3562 766.261 L33.8944 766.261 Q30.6797 764.16 29.0883 761.327 Q27.4968 758.463 27.4968 754.739 Q27.4968 748.596 31.3163 745.445 Q35.1038 742.294 42.4881 742.294 Z" fill="#000000" fill-rule="nonzero" fill-opacity="1" /><path clip-path="url(#clip060)" d="M18.2347 724.82 L28.3562 724.82 L28.3562 712.757 L32.9077 712.757 L32.9077 724.82 L52.2594 724.82 Q56.6199 724.82 57.8613 723.642 Q59.1026 722.433 59.1026 718.773 L59.1026 712.757 L64.0042 712.757 L64.0042 718.773 Q64.0042 725.552 61.4897 728.13 Q58.9434 730.708 52.2594 730.708 L32.9077 730.708 L32.9077 735.005 L28.3562 735.005 L28.3562 730.708 L18.2347 730.708 L18.2347 724.82 Z" fill="#000000" fill-rule="nonzero" fill-opacity="1" /><path clip-path="url(#clip060)" d="M49.9359 705.659 L28.3562 705.659 L28.3562 699.803 L49.7131 699.803 Q54.7739 699.803 57.3202 697.829 Q59.8346 695.856 59.8346 691.909 Q59.8346 687.167 56.8109 684.43 Q53.7872 681.66 48.5673 681.66 L28.3562 681.66 L28.3562 675.804 L64.0042 675.804 L64.0042 681.66 L58.5296 681.66 Q61.7762 683.793 63.3676 686.626 Q64.9272 689.427 64.9272 693.151 Q64.9272 699.293 61.1078 702.476 Q57.2883 705.659 49.9359 705.659 M27.4968 690.923 L27.4968 690.923 Z" fill="#000000" fill-rule="nonzero" fill-opacity="1" /><path clip-path="url(#clip060)" d="M35.1993 635.987 Q31.2526 633.79 29.3747 630.735 Q27.4968 627.679 27.4968 623.542 Q27.4968 617.972 31.4117 614.948 Q35.2948 611.924 42.4881 611.924 L64.0042 611.924 L64.0042 617.812 L42.679 617.812 Q37.5546 617.812 35.072 619.627 Q32.5894 621.441 32.5894 625.165 Q32.5894 629.716 35.6131 632.358 Q38.6368 635 43.8567 635 L64.0042 635 L64.0042 640.888 L42.679 640.888 Q37.5228 640.888 35.072 642.702 Q32.5894 644.517 32.5894 648.304 Q32.5894 652.792 35.6449 655.434 Q38.6686 658.076 43.8567 658.076 L64.0042 658.076 L64.0042 663.964 L28.3562 663.964 L28.3562 658.076 L33.8944 658.076 Q30.616 656.07 29.0564 653.269 Q27.4968 650.468 27.4968 646.617 Q27.4968 642.734 29.4702 640.029 Q31.4436 637.291 35.1993 635.987 Z" fill="#000000" fill-rule="nonzero" fill-opacity="1" /><path clip-path="url(#clip060)" d="M14.5426 565.454 Q21.8632 569.72 29.0246 571.788 Q36.186 573.857 43.5384 573.857 Q50.8908 573.857 58.1159 571.788 Q65.3091 569.688 72.5979 565.454 L72.5979 570.547 Q65.1182 575.321 57.8931 577.708 Q50.668 580.064 43.5384 580.064 Q36.4406 580.064 29.2474 577.708 Q22.0542 575.353 14.5426 570.547 L14.5426 565.454 Z" fill="#000000" fill-rule="nonzero" fill-opacity="1" /><path clip-path="url(#clip060)" d="M58.657 548.426 L77.5631 548.426 L77.5631 554.315 L28.3562 554.315 L28.3562 548.426 L33.7671 548.426 Q30.5842 546.58 29.0564 543.779 Q27.4968 540.947 27.4968 537.032 Q27.4968 530.539 32.6531 526.496 Q37.8093 522.422 46.212 522.422 Q54.6147 522.422 59.771 526.496 Q64.9272 530.539 64.9272 537.032 Q64.9272 540.947 63.3994 543.779 Q61.8398 546.58 58.657 548.426 M46.212 528.502 Q39.7508 528.502 36.0905 531.175 Q32.3984 533.817 32.3984 538.464 Q32.3984 543.111 36.0905 545.784 Q39.7508 548.426 46.212 548.426 Q52.6732 548.426 56.3653 545.784 Q60.0256 543.111 60.0256 538.464 Q60.0256 533.817 56.3653 531.175 Q52.6732 528.502 46.212 528.502 Z" fill="#000000" fill-rule="nonzero" fill-opacity="1" /><path clip-path="url(#clip060)" d="M14.5426 513.638 L14.5426 508.545 Q22.0542 503.771 29.2474 501.415 Q36.4406 499.028 43.5384 499.028 Q50.668 499.028 57.8931 501.415 Q65.1182 503.771 72.5979 508.545 L72.5979 513.638 Q65.3091 509.404 58.1159 507.336 Q50.8908 505.235 43.5384 505.235 Q36.186 505.235 29.0246 507.336 Q21.8632 509.404 14.5426 513.638 Z" fill="#000000" fill-rule="nonzero" fill-opacity="1" /><polyline clip-path="url(#clip062)" style="stroke:#009af9; stroke-linecap:round; stroke-linejoin:round; stroke-width:16; stroke-opacity:1; fill:none" points="1304.98,86.1857 1311.05,86.1979 1317.12,86.2346 1323.19,86.2958 1329.26,86.3815 1335.33,86.4917 1341.4,86.6263 1347.46,86.7854 1353.53,86.969 1359.59,87.177 1365.65,87.4095 1371.71,87.6663 1377.77,87.9477 1383.82,88.2534 1389.87,88.5836 1395.92,88.9381 1401.96,89.317 1408,89.7203 1414.04,90.148 1420.07,90.5999 1426.1,91.0762 1432.12,91.5768 1438.14,92.1017 1444.15,92.6508 1450.16,93.2242 1456.16,93.8217 1462.16,94.4435 1468.15,95.0894 1474.13,95.7595 1480.11,96.4537 1486.08,97.1721 1492.05,97.9144 1498.01,98.6809 1503.96,99.4713 1509.9,100.286 1515.84,101.124 1521.76,101.986 1527.68,102.873 1533.59,103.783 1539.5,104.716 1545.39,105.674 1551.27,106.655 1557.15,107.661 1563.01,108.689 1568.87,109.742 1574.71,110.818 1580.55,111.917 1586.38,113.04 1592.19,114.187 1597.99,115.357 1603.79,116.55 1609.57,117.767 1615.34,119.007 1621.1,120.27 1626.84,121.556 1632.58,122.866 1638.3,124.199 1644.01,125.554 1649.7,126.933 1655.39,128.335 1661.06,129.759 1666.71,131.207 1672.36,132.677 1677.99,134.17 1683.6,135.685 1689.2,137.224 1694.79,138.784 1700.36,140.368 1705.92,141.973 1711.46,143.601 1716.98,145.252 1722.5,146.924 1727.99,148.619 1733.47,150.336 1738.93,152.075 1744.38,153.836 1749.81,155.619 1755.22,157.424 1760.62,159.251 1766,161.099 1771.36,162.969 1776.7,164.861 1782.03,166.774 1787.34,168.708 1792.63,170.664 1797.9,172.641 1803.15,174.64 1808.39,176.659 1813.6,178.7 1818.8,180.762 1823.97,182.844 1829.13,184.948 1834.27,187.072 1839.39,189.217 1844.48,191.382 1849.56,193.568 1854.62,195.774 1859.65,198.001 1864.67,200.248 1869.66,202.515 1874.63,204.802 1879.58,207.11 1884.51,209.437 1889.42,211.784 1894.31,214.151 1899.17,216.537 1904.01,218.943 1908.83,221.369 1913.62,223.814 1918.39,226.278 1923.14,228.761 1927.87,231.263 1932.57,233.785 1937.25,236.325 1941.9,238.885 1946.54,241.462 1951.14,244.059 1955.72,246.674 1960.28,249.308 1964.81,251.959 1969.32,254.629 1973.81,257.318 1978.26,260.024 1982.7,262.748 1987.1,265.49 1991.48,268.25 1995.84,271.027 2000.17,273.822 2004.47,276.634 2008.75,279.464 2013,282.31 2017.22,285.174 2021.42,288.055 2025.58,290.952 2029.73,293.867 2033.84,296.798 2037.93,299.745 2041.99,302.71 2046.02,305.69 2050.02,308.686 2054,311.699 2057.95,314.728 2061.87,317.772 2065.76,320.832 2069.62,323.908 2073.45,326.999 2077.26,330.106 2081.03,333.228 2084.78,336.365 2088.49,339.518 2092.18,342.685 2095.84,345.867 2099.46,349.064 2103.06,352.275 2106.63,355.5 2110.16,358.74 2113.67,361.995 2117.15,365.263 2120.59,368.545 2124.01,371.841 2127.39,375.151 2130.74,378.474 2134.06,381.811 2137.35,385.161 2140.61,388.525 2143.84,391.901 2147.03,395.291 2150.2,398.693 2153.33,402.108 2156.43,405.535 2159.5,408.975 2162.53,412.427 2165.54,415.892 2168.51,419.368 2171.45,422.856 2174.35,426.357 2177.22,429.868 2180.06,433.392 2182.87,436.926 2185.64,440.472 2188.38,444.029 2191.09,447.597 2193.76,451.176 2196.4,454.766 2199.01,458.366 2201.58,461.977 2204.12,465.598 2206.63,469.229 2209.1,472.87 2211.54,476.521 2213.94,480.182 2216.31,483.852 2218.64,487.532 2220.94,491.221 2223.21,494.92 2225.44,498.627 2227.63,502.344 2229.79,506.069 2231.92,509.803 2234.01,513.545 2236.07,517.296 2238.09,521.055 2240.07,524.822 2242.02,528.597 2243.94,532.38 2245.82,536.17 2247.66,539.968 2249.47,543.773 2251.24,547.586 2252.98,551.405 2254.68,555.232 2256.35,559.065 2257.98,562.905 2259.57,566.751 2261.13,570.604 2262.65,574.463 2264.14,578.328 2265.59,582.199 2267,586.076 2268.38,589.959 2269.72,593.846 2271.02,597.74 2272.29,601.638 2273.52,605.542 2274.71,609.45 2275.87,613.363 2276.99,617.281 2278.08,621.203 2279.13,625.129 2280.14,629.06 2281.11,632.994 2282.05,636.933 2282.95,640.875 2283.82,644.821 2284.64,648.77 2285.43,652.722 2286.19,656.677 2286.9,660.636 2287.58,664.597 2288.22,668.561 2288.83,672.528 2289.4,676.496 2289.93,680.467 2290.42,684.44 2290.88,688.415 2291.3,692.392 2291.68,696.371 2292.02,700.35 2292.33,704.332 2292.6,708.314 2292.83,712.297 2293.03,716.281 2293.19,720.266 2293.31,724.252 2293.39,728.238 2293.44,732.224 2293.45,736.21 2293.42,740.196 2293.35,744.182 2293.25,748.168 2293.11,752.153 2292.94,756.138 2292.72,760.122 2292.47,764.105 2292.18,768.086 2291.85,772.067 2291.49,776.046 2291.09,780.023 2290.65,783.999 2290.18,787.973 2289.67,791.945 2289.12,795.915 2288.53,799.883 2287.91,803.848 2287.25,807.811 2286.55,811.771 2285.81,815.728 2285.04,819.682 2284.23,823.632 2283.39,827.58 2282.51,831.524 2281.59,835.464 2280.63,839.401 2279.64,843.333 2278.61,847.262 2277.54,851.186 2276.44,855.106 2275.3,859.021 2274.12,862.932 2272.91,866.838 2271.66,870.739 2270.37,874.635 2269.05,878.525 2267.69,882.41 2266.3,886.29 2264.87,890.164 2263.4,894.032 2261.89,897.894 2260.35,901.75 2258.78,905.6 2257.17,909.443 2255.52,913.279 2253.84,917.109 2252.12,920.932 2250.36,924.749 2248.57,928.557 2246.74,932.359 2244.88,936.153 2242.98,939.94 2241.05,943.719 2239.08,947.49 2237.08,951.253 2235.04,955.008 2232.97,958.754 2230.86,962.492 2228.72,966.222 2226.54,969.943 2224.33,973.655 2222.08,977.358 2219.8,981.052 2217.48,984.736 2215.13,988.411 2212.74,992.077 2210.32,995.733 2207.87,999.379 2205.38,1003.02 2202.86,1006.64 2200.3,1010.26 2197.71,1013.86 2195.09,1017.46 2192.43,1021.04 2189.74,1024.62 2187.02,1028.18 2184.26,1031.73 2181.47,1035.27 2178.65,1038.8 2175.79,1042.32 2172.9,1045.82 2169.98,1049.32 2167.03,1052.8 2164.04,1056.27 2161.02,1059.73 2157.97,1063.17 2154.88,1066.61 2151.77,1070.03 2148.62,1073.44 2145.44,1076.83 2142.23,1080.22 2138.99,1083.59 2135.71,1086.94 2132.41,1090.29 2129.07,1093.62 2125.7,1096.93 2122.3,1100.24 2118.87,1103.52 2115.41,1106.8 2111.92,1110.06 2108.4,1113.31 2104.85,1116.54 2101.26,1119.76 2097.65,1122.96 2094.01,1126.15 2090.34,1129.33 2086.64,1132.49 2082.91,1135.63 2079.15,1138.76 2075.36,1141.88 2071.54,1144.98 2067.69,1148.06 2063.81,1151.13 2059.91,1154.18 2055.98,1157.22 2052.01,1160.24 2048.03,1163.24 2044.01,1166.23 2039.96,1169.2 2035.89,1172.16 2031.79,1175.1 2027.66,1178.02 2023.5,1180.93 2019.32,1183.81 2015.11,1186.69 2010.87,1189.54 2006.61,1192.38 2002.32,1195.2 1998.01,1198 1993.66,1200.79 1989.3,1203.56 1984.9,1206.31 1980.48,1209.04 1976.04,1211.76 1971.57,1214.46 1967.07,1217.13 1962.55,1219.8 1958.01,1222.44 1953.44,1225.06 1948.84,1227.67 1944.22,1230.26 1939.58,1232.82 1934.91,1235.37 1930.22,1237.91 1925.51,1240.42 1920.77,1242.91 1916.01,1245.38 1911.23,1247.84 1906.42,1250.27 1901.59,1252.69 1896.74,1255.09 1891.87,1257.46 1886.97,1259.82 1882.05,1262.16 1877.11,1264.47 1872.15,1266.77 1867.17,1269.05 1862.16,1271.31 1857.14,1273.54 1852.09,1275.76 1847.02,1277.95 1841.94,1280.13 1836.83,1282.29 1831.7,1284.42 1826.56,1286.53 1821.39,1288.63 1816.2,1290.7 1811,1292.75 1805.77,1294.78 1800.53,1296.79 1795.27,1298.78 1789.99,1300.74 1784.69,1302.69 1779.37,1304.61 1774.03,1306.52 1768.68,1308.4 1763.31,1310.25 1757.92,1312.09 1752.52,1313.91 1747.1,1315.7 1741.66,1317.47 1736.2,1319.22 1730.73,1320.95 1725.25,1322.66 1719.74,1324.34 1714.22,1326 1708.69,1327.64 1703.14,1329.26 1697.58,1330.85 1692,1332.43 1686.4,1333.98 1680.8,1335.5 1675.17,1337.01 1669.54,1338.49 1663.89,1339.95 1658.22,1341.38 1652.55,1342.8 1646.86,1344.19 1641.15,1345.55 1635.44,1346.9 1629.71,1348.22 1623.97,1349.52 1618.22,1350.79 1612.45,1352.04 1606.68,1353.27 1600.89,1354.48 1595.09,1355.66 1589.28,1356.82 1583.46,1357.95 1577.63,1359.06 1571.79,1360.15 1565.94,1361.21 1560.08,1362.26 1554.21,1363.27 1548.33,1364.27 1542.44,1365.23 1536.55,1366.18 1530.64,1367.1 1524.72,1368 1518.8,1368.87 1512.87,1369.73 1506.93,1370.55 1500.98,1371.35 1495.03,1372.13 1489.07,1372.89 1483.1,1373.62 1477.12,1374.32 1471.14,1375.01 1465.15,1375.66 1459.16,1376.3 1453.16,1376.91 1447.16,1377.49 1441.15,1378.05 1435.13,1378.59 1429.11,1379.1 1423.08,1379.59 1417.05,1380.06 1411.02,1380.5 1404.98,1380.91 1398.94,1381.3 1392.89,1381.67 1386.85,1382.01 1380.79,1382.33 1374.74,1382.62 1368.68,1382.89 1362.62,1383.14 1356.56,1383.36 1350.5,1383.55 1344.43,1383.72 1338.36,1383.87 1332.3,1383.99 1326.23,1384.09 1320.16,1384.16 1314.09,1384.21 1308.02,1384.24 1301.94,1384.24 1295.87,1384.21 1289.8,1384.16 1283.73,1384.09 1277.66,1383.99 1271.6,1383.87 1265.53,1383.72 1259.46,1383.55 1253.4,1383.36 1247.34,1383.14 1241.28,1382.89 1235.22,1382.62 1229.17,1382.33 1223.11,1382.01 1217.07,1381.67 1211.02,1381.3 1204.98,1380.91 1198.94,1380.5 1192.91,1380.06 1186.88,1379.59 1180.85,1379.1 1174.83,1378.59 1168.81,1378.05 1162.8,1377.49 1156.8,1376.91 1150.8,1376.3 1144.81,1375.66 1138.82,1375.01 1132.84,1374.32 1126.86,1373.62 1120.89,1372.89 1114.93,1372.13 1108.98,1371.35 1103.03,1370.55 1097.09,1369.73 1091.16,1368.87 1085.24,1368 1079.32,1367.1 1073.41,1366.18 1067.52,1365.23 1061.63,1364.27 1055.75,1363.27 1049.88,1362.26 1044.02,1361.21 1038.17,1360.15 1032.33,1359.06 1026.5,1357.95 1020.68,1356.82 1014.87,1355.66 1009.07,1354.48 1003.28,1353.27 997.506,1352.04 991.742,1350.79 985.99,1349.52 980.249,1348.22 974.521,1346.9 968.806,1345.55 963.103,1344.19 957.413,1342.8 951.736,1341.38 946.073,1339.95 940.423,1338.49 934.787,1337.01 929.164,1335.5 923.556,1333.98 917.963,1332.43 912.384,1330.85 906.819,1329.26 901.27,1327.64 895.736,1326 890.218,1324.34 884.714,1322.66 879.227,1320.95 873.756,1319.22 868.302,1317.47 862.863,1315.7 857.442,1313.91 852.037,1312.09 846.65,1310.25 841.279,1308.4 835.926,1306.51 830.591,1304.61 825.274,1302.69 819.975,1300.74 814.694,1298.78 809.431,1296.79 804.188,1294.78 798.963,1292.75 793.757,1290.7 788.571,1288.63 783.404,1286.53 778.257,1284.42 773.129,1282.29 768.022,1280.13 762.935,1277.95 757.868,1275.76 752.822,1273.54 747.797,1271.3 742.793,1269.05 737.81,1266.77 732.849,1264.47 727.909,1262.16 722.991,1259.82 718.094,1257.46 713.22,1255.09 708.368,1252.69 703.539,1250.27 698.732,1247.84 693.949,1245.38 689.188,1242.91 684.451,1240.42 679.737,1237.91 675.046,1235.37 670.38,1232.82 665.737,1230.26 661.118,1227.67 656.524,1225.06 651.954,1222.44 647.409,1219.8 642.888,1217.13 638.393,1214.46 633.923,1211.76 629.478,1209.04 625.058,1206.31 620.664,1203.56 616.296,1200.79 611.954,1198 607.638,1195.2 603.349,1192.38 599.086,1189.54 594.849,1186.69 590.639,1183.81 586.457,1180.93 582.301,1178.02 578.173,1175.1 574.072,1172.16 569.998,1169.2 565.952,1166.23 561.935,1163.24 557.945,1160.24 553.983,1157.22 550.05,1154.18 546.145,1151.13 542.269,1148.06 538.422,1144.98 534.603,1141.88 530.814,1138.76 527.053,1135.63 523.323,1132.49 519.621,1129.33 515.949,1126.15 512.307,1122.96 508.695,1119.76 505.113,1116.54 501.561,1113.31 498.04,1110.06 494.549,1106.8 491.088,1103.52 487.658,1100.24 484.259,1096.93 480.891,1093.62 477.554,1090.29 474.248,1086.94 470.974,1083.59 467.731,1080.22 464.52,1076.83 461.34,1073.44 458.192,1070.03 455.076,1066.61 451.992,1063.17 448.941,1059.73 445.921,1056.27 442.934,1052.8 439.98,1049.32 437.058,1045.82 434.169,1042.32 431.313,1038.8 428.489,1035.27 425.699,1031.73 422.942,1028.18 420.218,1024.62 417.528,1021.04 414.871,1017.46 412.248,1013.86 409.658,1010.26 407.102,1006.64 404.58,1003.01 402.092,999.379 399.638,995.733 397.218,992.077 394.833,988.411 392.481,984.736 390.164,981.051 387.882,977.358 385.634,973.655 383.421,969.942 381.243,966.222 379.1,962.492 376.991,958.754 374.918,955.007 372.879,951.253 370.876,947.49 368.908,943.719 366.975,939.94 365.078,936.153 363.216,932.359 361.39,928.557 359.599,924.748 357.844,920.932 356.124,917.109 354.441,913.279 352.793,909.443 351.181,905.599 349.606,901.75 348.066,897.894 346.562,894.032 345.094,890.164 343.663,886.29 342.268,882.41 340.909,878.525 339.587,874.635 338.301,870.739 337.052,866.838 335.839,862.932 334.662,859.021 333.522,855.106 332.419,851.186 331.353,847.262 330.323,843.333 329.33,839.4 328.374,835.464 327.455,831.524 326.572,827.58 325.727,823.632 324.918,819.681 324.146,815.728 323.412,811.771 322.714,807.811 322.054,803.848 321.43,799.883 320.844,795.915 320.294,791.945 319.782,787.973 319.307,783.999 318.87,780.023 318.469,776.046 318.106,772.067 317.78,768.086 317.491,764.104 317.239,760.121 317.025,756.138 316.848,752.153 316.708,748.168 316.605,744.182 316.54,740.196 316.512,736.21 316.521,732.224 316.568,728.238 316.652,724.252 316.773,720.266 316.932,716.281 317.127,712.297 317.36,708.314 317.631,704.332 317.938,700.35 318.283,696.37 318.665,692.392 319.084,688.415 319.54,684.44 320.034,680.467 320.564,676.496 321.132,672.527 321.737,668.561 322.379,664.597 323.058,660.636 323.774,656.677 324.528,652.722 325.318,648.77 326.145,644.82 327.009,640.875 327.91,636.932 328.847,632.994 329.822,629.059 330.833,625.129 331.881,621.203 332.966,617.281 334.088,613.363 335.246,609.45 336.441,605.541 337.672,601.638 338.94,597.74 340.244,593.846 341.584,589.959 342.961,586.076 344.374,582.199 345.824,578.328 347.309,574.463 348.831,570.604 350.389,566.752 351.983,562.905 353.613,559.065 355.278,555.232 356.98,551.405 358.717,547.586 360.49,543.773 362.298,539.968 364.143,536.17 366.022,532.38 367.937,528.597 369.887,524.822 371.873,521.055 373.894,517.296 375.95,513.545 378.041,509.803 380.167,506.069 382.328,502.343 384.524,498.627 386.754,494.92 389.019,491.221 391.319,487.532 393.653,483.852 396.021,480.182 398.424,476.521 400.861,472.87 403.332,469.228 405.837,465.598 408.376,461.976 410.949,458.366 413.555,454.766 416.195,451.176 418.869,447.597 421.576,444.029 424.317,440.472 427.09,436.926 429.897,433.392 432.737,429.868 435.609,426.356 438.515,422.856 441.453,419.368 444.424,415.891 447.427,412.427 450.463,408.975 453.53,405.535 456.63,402.108 459.762,398.693 462.926,395.29 466.121,391.901 469.349,388.525 472.607,385.161 475.897,381.811 479.219,378.474 482.571,375.151 485.955,371.841 489.369,368.545 492.815,365.263 496.29,361.995 499.797,358.74 503.334,355.5 506.901,352.275 510.498,349.063 514.125,345.867 517.782,342.685 521.468,339.518 525.185,336.365 528.93,333.228 532.705,330.106 536.509,326.999 540.342,323.908 544.203,320.832 548.094,317.772 552.013,314.727 555.961,311.699 559.937,308.686 563.94,305.69 567.972,302.709 572.032,299.745 576.119,296.798 580.233,293.867 584.376,290.952 588.545,288.055 592.741,285.174 596.964,282.31 601.214,279.463 605.491,276.634 609.793,273.822 614.122,271.027 618.477,268.25 622.858,265.49 627.265,262.748 631.697,260.024 636.155,257.318 640.638,254.629 645.146,251.959 649.679,249.307 654.236,246.674 658.818,244.059 663.425,241.462 668.055,238.884 672.71,236.325 677.389,233.785 682.091,231.263 686.817,228.761 691.566,226.278 696.338,223.814 701.133,221.369 705.951,218.943 710.792,216.537 715.655,214.151 720.54,211.784 725.447,209.437 730.376,207.11 735.327,204.802 740.299,202.515 745.293,200.248 750.307,198.001 755.343,195.774 760.399,193.568 765.476,191.382 770.574,189.216 775.691,187.072 780.828,184.947 785.985,182.844 791.162,180.762 796.358,178.7 801.573,176.659 806.807,174.64 812.061,172.641 817.332,170.664 822.622,168.708 827.931,166.773 833.257,164.86 838.601,162.969 843.962,161.099 849.342,159.25 854.738,157.424 860.151,155.619 865.581,153.836 871.027,152.075 876.49,150.336 881.969,148.619 887.464,146.924 892.975,145.252 898.502,143.601 904.043,141.973 909.6,140.367 915.171,138.784 920.758,137.223 926.359,135.685 931.974,134.17 937.603,132.677 943.246,131.207 948.903,129.759 954.573,128.335 960.257,126.933 965.953,125.554 971.663,124.199 977.384,122.866 983.118,121.556 988.864,120.27 994.623,119.007 1000.39,117.767 1006.17,116.55 1011.97,115.357 1017.77,114.187 1023.59,113.04 1029.41,111.917 1035.25,110.818 1041.09,109.742 1046.95,108.689 1052.81,107.661 1058.69,106.655 1064.57,105.674 1070.47,104.716 1076.37,103.783 1082.28,102.873 1088.2,101.986 1094.12,101.124 1100.06,100.286 1106,99.4713 1111.95,98.6808 1117.91,97.9144 1123.88,97.172 1129.85,96.4537 1135.83,95.7595 1141.81,95.0894 1147.8,94.4435 1153.8,93.8217 1159.8,93.2241 1165.81,92.6507 1171.82,92.1016 1177.84,91.5767 1183.86,91.0762 1189.89,90.5999 1195.92,90.148 1201.96,89.7203 1208,89.317 1214.04,88.9381 1220.09,88.5836 1226.14,88.2534 1232.19,87.9477 1238.25,87.6663 1244.31,87.4094 1250.37,87.177 1256.43,86.969 1262.5,86.7854 1268.56,86.6263 1274.63,86.4917 1280.7,86.3815 1286.77,86.2958 1292.84,86.2346 1298.91,86.1979 1304.98,86.1857 "/>
<polyline clip-path="url(#clip062)" style="stroke:#e26f46; stroke-linecap:round; stroke-linejoin:round; stroke-width:16; stroke-opacity:1; fill:none" points="1304.98,86.1857 1311.05,86.2034 1317.12,86.221 1323.19,86.2387 1329.26,86.2563 1335.33,86.2581 1341.4,86.2172 1347.48,86.2131 1353.54,86.3033 1359.6,86.5097 1365.64,86.8189 1371.69,87.1824 1377.73,87.5324 1383.78,87.8772 1389.83,88.222 1395.87,88.5668 1401.92,88.9116 1407.96,89.2577 1414,89.6529 1420.03,90.1121 1426.05,90.6252 1432.06,91.1824 1438.06,91.775 1444.06,92.3955 1450.05,93.0368 1456.05,93.6931 1462.04,94.3591 1468.03,95.0307 1474.01,95.7047 1480,96.3785 1485.99,97.0508 1491.97,97.7207 1497.96,98.3886 1503.95,99.0558 1509.94,99.7241 1515.92,100.402 1521.9,101.119 1527.86,101.885 1533.81,102.702 1539.73,103.571 1545.64,104.492 1551.53,105.467 1557.39,106.492 1563.23,107.565 1569.05,108.684 1574.85,109.843 1580.64,111.037 1586.41,112.259 1592.17,113.502 1597.93,114.756 1603.68,116.014 1609.44,117.265 1615.16,118.582 1620.84,119.993 1626.47,121.476 1632.07,123.015 1637.66,124.594 1643.23,126.199 1648.79,127.819 1654.35,129.444 1659.9,131.069 1665.47,132.687 1671.03,134.297 1676.61,135.896 1682.18,137.488 1687.76,139.074 1693.34,140.662 1698.92,142.247 1704.53,143.798 1710.16,145.329 1715.78,146.857 1721.4,148.395 1727,149.957 1732.58,151.551 1738.12,153.186 1743.63,154.867 1749.1,156.596 1754.52,158.376 1759.91,160.204 1765.27,162.078 1770.59,163.991 1775.89,165.936 1781.16,167.903 1786.44,169.88 1791.71,171.852 1797,173.808 1802.28,175.775 1807.55,177.766 1812.78,179.788 1817.98,181.847 1823.14,183.946 1828.25,186.09 1833.31,188.28 1838.33,190.517 1843.3,192.8 1848.22,195.127 1853.09,197.495 1857.93,199.9 1862.73,202.336 1867.5,204.796 1872.26,207.271 1877.01,209.754 1881.77,212.232 1886.55,214.692 1891.35,217.129 1896.18,219.552 1901.01,221.972 1905.84,224.401 1910.64,226.845 1915.41,229.313 1920.14,231.81 1924.82,234.341 1929.46,236.908 1934.04,239.514 1938.58,242.159 1943.06,244.842 1947.49,247.562 1951.87,250.315 1956.22,253.095 1960.54,255.897 1964.84,258.714 1969.13,261.537 1973.42,264.355 1977.74,267.157 1982.1,269.934 1986.49,272.695 1990.89,275.449 1995.29,278.204 1999.67,280.968 2004.03,283.746 2008.36,286.544 2012.64,289.366 2016.88,292.215 2021.07,295.094 2025.2,298.003 2029.29,300.942 2033.33,303.911 2037.32,306.908 2041.26,309.928 2045.18,312.969 2049.07,316.025 2052.94,319.089 2056.81,322.155 2060.7,325.214 2064.57,328.278 2068.34,331.394 2072.03,334.556 2075.64,337.758 2079.19,340.992 2082.68,344.251 2086.14,347.531 2089.57,350.827 2092.99,354.133 2096.38,357.445 2099.77,360.761 2103.17,364.077 2106.56,367.391 2109.96,370.701 2113.38,374.007 2116.8,377.306 2120.23,380.601 2123.67,383.89 2127.12,387.175 2130.58,390.458 2134.03,393.741 2137.48,397.027 2140.87,400.334 2143.99,403.727 2146.88,407.194 2149.59,410.72 2152.18,414.289 2154.69,417.889 2157.16,421.508 2159.62,425.134 2162.11,428.758 2164.65,432.374 2167.26,435.974 2169.96,439.554 2172.75,443.11 2175.64,446.641 2178.63,450.145 2181.71,453.624 2184.88,457.08 2188.12,460.517 2191.41,463.94 2194.73,467.355 2198.04,470.77 2201.3,474.196 2204.49,477.642 2207.55,481.122 2210.43,484.649 2213.08,488.238 2215.44,491.906 2217.52,495.649 2219.62,499.39 2221.76,503.124 2223.91,506.857 2226.04,510.593 2228.13,514.336 2230.16,518.091 2232.14,521.858 2234.03,525.641 2235.85,529.44 2237.58,533.255 2239.24,537.086 2240.82,540.932 2242.33,544.791 2243.8,548.661 2245.23,552.537 2246.64,556.417 2248.06,560.295 2249.52,564.166 2251.03,568.031 2252.58,571.891 2254.14,575.748 2255.71,579.605 2257.27,583.463 2258.81,587.324 2260.32,591.188 2261.79,595.058 2263.21,598.934 2264.57,602.817 2265.88,606.707 2267.12,610.604 2268.3,614.51 2269.42,618.423 2270.47,622.345 2271.47,626.273 2272.42,630.208 2273.31,634.149 2274.17,638.095 2275,642.045 2275.81,645.997 2276.61,649.949 2277.42,653.901 2278.26,657.85 2279.07,661.801 2279.82,665.76 2280.5,669.724 2281.11,673.693 2281.65,677.667 2282.12,681.644 2282.51,685.624 2282.82,689.606 2283.07,693.59 2283.24,697.574 2283.34,701.559 2283.37,705.544 2283.33,709.53 2283.24,713.514 2283.08,717.498 2282.87,721.481 2282.61,725.463 2282.31,729.444 2281.97,733.424 2281.6,737.404 2281.2,741.382 2280.8,745.36 2280.38,749.338 2279.97,753.316 2279.58,757.294 2279.22,761.275 2278.93,765.263 2278.68,769.254 2278.47,773.248 2278.26,777.243 2278.05,781.238 2277.82,785.231 2277.55,789.221 2277.25,793.207 2276.89,797.188 2276.47,801.163 2275.99,805.133 2275.43,809.095 2274.79,813.05 2274.07,816.998 2273.27,820.939 2272.39,824.872 2271.43,828.797 2270.4,832.715 2269.29,836.627 2268.12,840.533 2266.88,844.433 2265.6,848.329 2264.28,852.221 2262.93,856.111 2261.57,859.999 2260.21,863.888 2258.86,867.777 2257.55,871.67 2256.25,875.565 2254.93,879.459 2253.58,883.351 2252.2,887.236 2250.78,891.114 2249.31,894.984 2247.79,898.842 2246.21,902.689 2244.57,906.523 2242.86,910.343 2241.09,914.149 2239.25,917.94 2237.34,921.716 2235.37,925.477 2233.33,929.224 2231.23,932.956 2229.07,936.675 2226.85,940.381 2224.59,944.075 2222.28,947.76 2219.93,951.435 2217.56,955.104 2215.16,958.768 2212.76,962.43 2210.35,966.092 2207.95,969.756 2205.58,973.425 2203.25,977.108 2200.96,980.803 2198.69,984.506 2196.43,988.211 2194.17,991.917 2191.9,995.618 2189.61,999.313 2187.29,1003 2184.93,1006.67 2182.53,1010.33 2180.08,1013.98 2177.58,1017.6 2175.03,1021.22 2172.42,1024.81 2169.76,1028.39 2167.04,1031.94 2164.28,1035.49 2161.46,1039.01 2158.6,1042.52 2155.7,1046.02 2152.77,1049.51 2149.81,1053 2146.84,1056.47 2143.87,1059.95 2140.9,1063.42 2137.94,1066.91 2134.98,1070.38 2131.93,1073.83 2128.8,1077.24 2125.6,1080.63 2122.34,1083.99 2119,1087.31 2115.61,1090.62 2112.16,1093.89 2108.65,1097.15 2105.09,1100.38 2101.49,1103.59 2097.84,1106.77 2094.16,1109.94 2090.43,1113.09 2086.68,1116.22 2082.89,1119.34 2079.08,1122.44 2075.25,1125.53 2071.4,1128.61 2067.52,1131.68 2063.64,1134.74 2059.74,1137.79 2055.84,1140.84 2051.93,1143.89 2048.02,1146.94 2044.11,1149.98 2040.2,1153.03 2036.29,1156.07 2032.33,1159.09 2028.33,1162.08 2024.3,1165.04 2020.23,1167.98 2016.12,1170.91 2011.99,1173.81 2007.83,1176.7 2003.64,1179.58 1999.44,1182.44 1995.21,1185.29 1990.96,1188.14 1986.7,1190.97 1982.42,1193.8 1978.12,1196.61 1973.8,1199.42 1969.47,1202.21 1965.12,1205 1960.75,1207.77 1956.36,1210.53 1951.95,1213.28 1947.51,1216.01 1943.05,1218.72 1938.56,1221.4 1934.03,1224.06 1929.47,1226.7 1924.87,1229.3 1920.23,1231.87 1915.54,1234.39 1910.8,1236.87 1906,1239.31 1901.14,1241.69 1896.21,1244.01 1891.27,1246.33 1886.34,1248.67 1881.44,1251.02 1876.53,1253.37 1871.62,1255.73 1866.71,1258.07 1861.78,1260.4 1856.83,1262.71 1851.87,1265 1846.87,1267.26 1841.85,1269.5 1836.8,1271.7 1831.72,1273.87 1826.61,1276.01 1821.48,1278.12 1816.31,1280.2 1811.12,1282.25 1805.9,1284.28 1800.67,1286.29 1795.42,1288.28 1790.16,1290.26 1784.89,1292.23 1779.63,1294.21 1774.38,1296.2 1769.12,1298.18 1763.82,1300.11 1758.48,1302 1753.11,1303.85 1747.71,1305.66 1742.28,1307.43 1736.83,1309.16 1731.35,1310.87 1725.85,1312.55 1720.33,1314.2 1714.8,1315.83 1709.25,1317.44 1703.69,1319.03 1698.12,1320.61 1692.54,1322.18 1686.95,1323.73 1681.36,1325.28 1675.77,1326.83 1670.17,1328.37 1664.57,1329.91 1658.98,1331.45 1653.35,1332.94 1647.68,1334.36 1641.98,1335.72 1636.25,1337.02 1630.48,1338.27 1624.69,1339.46 1618.88,1340.61 1613.05,1341.71 1607.19,1342.77 1601.33,1343.79 1595.44,1344.77 1589.54,1345.72 1583.63,1346.64 1577.72,1347.54 1571.79,1348.4 1565.86,1349.25 1559.92,1350.08 1553.98,1350.89 1548.03,1351.69 1542.08,1352.47 1536.13,1353.25 1530.18,1354.02 1524.23,1354.79 1518.28,1355.56 1512.33,1356.32 1506.38,1357.1 1500.43,1357.87 1494.47,1358.65 1488.51,1359.42 1482.55,1360.18 1476.58,1360.92 1470.6,1361.64 1464.62,1362.33 1458.64,1362.99 1452.65,1363.62 1446.65,1364.22 1440.65,1364.77 1434.64,1365.29 1428.63,1365.76 1422.61,1366.19 1416.59,1366.58 1410.56,1366.92 1404.53,1367.22 1398.49,1367.48 1392.45,1367.69 1386.4,1367.86 1380.35,1368 1374.3,1368.1 1368.24,1368.16 1362.18,1368.2 1356.12,1368.2 1350.05,1368.19 1343.99,1368.16 1337.92,1368.12 1331.85,1368.06 1325.78,1368.01 1319.71,1367.97 1313.65,1367.93 1307.58,1367.91 1301.51,1367.86 1295.45,1367.77 1289.39,1367.66 1283.32,1367.51 1277.26,1367.32 1271.21,1367.1 1265.15,1366.85 1259.1,1366.56 1253.06,1366.23 1247.02,1365.88 1240.99,1365.48 1234.96,1365.06 1228.93,1364.6 1222.91,1364.11 1216.9,1363.59 1210.89,1363.05 1204.89,1362.48 1198.89,1361.88 1192.9,1361.27 1186.91,1360.63 1180.92,1359.98 1174.94,1359.32 1168.95,1358.64 1162.98,1357.96 1157,1357.27 1151.02,1356.58 1145.04,1355.9 1139.06,1355.22 1133.07,1354.55 1127.08,1353.88 1121.08,1353.21 1115.08,1352.53 1109.09,1351.82 1103.1,1351.1 1097.13,1350.34 1091.17,1349.55 1085.22,1348.73 1079.29,1347.86 1073.39,1346.95 1067.5,1346 1061.63,1344.99 1055.79,1343.94 1049.98,1342.83 1044.18,1341.68 1038.42,1340.47 1032.68,1339.22 1026.96,1337.91 1021.27,1336.56 1015.6,1335.16 1009.95,1333.72 1004.32,1332.24 998.712,1330.72 993.12,1329.16 987.542,1327.58 981.976,1325.98 976.42,1324.36 970.868,1322.73 965.32,1321.09 959.77,1319.46 954.215,1317.84 948.651,1316.23 943.063,1314.66 937.444,1313.12 931.803,1311.61 926.15,1310.11 920.491,1308.62 914.835,1307.13 909.186,1305.63 903.552,1304.11 897.937,1302.57 892.346,1301 886.784,1299.4 881.253,1297.76 875.756,1296.08 870.296,1294.35 864.874,1292.58 859.49,1290.76 854.146,1288.9 848.841,1286.99 843.573,1285.04 838.342,1283.04 833.145,1281 827.98,1278.93 822.842,1276.82 817.728,1274.68 812.633,1272.52 807.552,1270.35 802.479,1268.16 797.407,1265.98 792.33,1263.8 787.238,1261.63 782.14,1259.48 777.064,1257.3 772.016,1255.09 766.996,1252.84 762.009,1250.57 757.056,1248.27 752.139,1245.93 747.26,1243.56 742.418,1241.15 737.616,1238.72 732.854,1236.25 728.132,1233.75 723.45,1231.22 718.807,1228.66 714.204,1226.07 709.639,1223.45 705.11,1220.8 700.617,1218.12 696.157,1215.43 691.728,1212.71 687.328,1209.97 682.954,1207.21 678.603,1204.43 674.272,1201.64 669.956,1198.84 665.652,1196.03 661.356,1193.22 657.063,1190.4 652.768,1187.59 648.466,1184.78 644.151,1181.98 639.812,1179.19 635.455,1176.41 631.088,1173.63 626.72,1170.85 622.359,1168.06 618.011,1165.27 613.683,1162.47 609.382,1159.65 605.112,1156.81 600.879,1153.95 596.686,1151.07 592.537,1148.16 588.436,1145.23 584.385,1142.27 580.386,1139.29 576.44,1136.27 572.547,1133.23 568.709,1130.15 564.924,1127.05 561.192,1123.92 557.511,1120.76 553.879,1117.58 550.293,1114.37 546.749,1111.13 543.245,1107.88 539.775,1104.61 536.334,1101.32 532.917,1098.02 529.518,1094.71 526.128,1091.4 522.743,1088.08 519.352,1084.77 515.948,1081.46 512.522,1078.17 509.106,1074.87 505.722,1071.56 502.372,1068.23 499.062,1064.89 495.792,1061.54 492.565,1058.16 489.384,1054.77 486.249,1051.37 483.16,1047.94 480.117,1044.5 477.121,1041.04 474.171,1037.56 471.263,1034.07 468.397,1030.56 465.571,1027.04 462.779,1023.5 460.021,1019.95 457.29,1016.4 454.582,1012.83 451.892,1009.26 449.215,1005.68 446.543,1002.1 443.871,998.521 441.19,994.945 438.511,991.368 435.896,987.772 433.349,984.154 430.871,980.515 428.461,976.857 426.118,973.181 423.841,969.486 421.63,965.775 419.484,962.047 417.399,958.305 415.376,954.548 413.412,950.778 411.505,946.995 409.653,943.2 407.854,939.394 406.104,935.579 404.402,931.753 402.743,927.92 401.125,924.079 399.545,920.231 397.998,916.377 396.481,912.517 394.99,908.654 393.521,904.786 392.07,900.916 390.631,897.044 389.201,893.17 387.773,889.296 386.344,885.423 384.907,881.55 383.463,877.678 382.059,873.798 380.708,869.91 379.412,866.014 378.17,862.11 376.985,858.199 375.857,854.28 374.786,850.355 373.772,846.424 372.816,842.488 371.917,838.546 371.074,834.599 370.286,830.647 369.553,826.692 368.873,822.732 368.244,818.769 367.665,814.803 367.134,810.834 366.647,806.863 366.204,802.888 365.8,798.912 365.433,794.935 365.1,790.955 364.796,786.975 364.519,782.993 364.264,779.011 364.026,775.027 363.802,771.044 363.586,767.06 363.374,763.077 363.16,759.093 362.938,755.11 362.703,751.126 362.496,747.141 362.355,743.153 362.282,739.164 362.281,735.173 362.352,731.184 362.496,727.195 362.716,723.209 363.009,719.226 363.377,715.246 363.818,711.271 364.33,707.3 364.912,703.334 365.561,699.372 366.274,695.416 367.047,691.465 367.875,687.519 368.756,683.577 369.682,679.64 370.648,675.708 371.649,671.778 372.676,667.852 373.724,663.927 374.783,660.005 375.845,656.082 376.902,652.159 377.943,648.234 378.983,644.308 380.049,640.383 381.144,636.46 382.273,632.542 383.44,628.628 384.647,624.72 385.896,620.817 387.188,616.922 388.525,613.034 389.907,609.153 391.333,605.28 392.801,601.415 394.31,597.557 395.859,593.706 397.442,589.861 399.057,586.022 400.7,582.189 402.365,578.36 404.046,574.534 405.738,570.709 407.432,566.886 409.122,563.062 410.804,559.236 412.557,555.429 414.395,551.643 416.302,547.875 418.263,544.118 420.266,540.37 422.299,536.627 424.352,532.886 426.416,529.146 428.486,525.403 430.557,521.657 432.625,517.907 434.69,514.153 436.752,510.396 438.812,506.636 440.875,502.874 442.945,499.113 445.031,495.356 447.14,491.605 449.283,487.863 451.471,484.135 453.72,480.426 456.045,476.741 458.461,473.085 460.99,469.464 463.65,465.886 466.464,462.358 469.379,458.861 472.252,455.346 475.097,451.819 477.93,448.287 480.769,444.758 483.626,441.236 486.515,437.728 489.445,434.237 492.425,430.766 495.462,427.318 498.56,423.896 501.722,420.501 504.95,417.133 508.243,413.791 511.597,410.475 515.009,407.182 518.472,403.911 521.977,400.658 525.516,397.418 529.075,394.187 532.641,390.959 536.199,387.727 539.742,384.49 543.319,381.268 546.939,378.067 550.603,374.887 554.309,371.729 558.059,368.592 561.85,365.477 565.683,362.385 569.556,359.315 573.468,356.267 577.418,353.24 581.404,350.234 585.425,347.249 589.479,344.283 593.563,341.335 597.677,338.405 601.817,335.492 605.981,332.593 610.165,329.707 614.368,326.832 618.586,323.968 622.816,321.111 627.054,318.259 631.297,315.411 635.542,312.563 639.783,309.714 644.018,306.86 648.271,304.017 652.568,301.203 656.91,298.418 661.295,295.661 665.721,292.934 670.189,290.235 674.696,287.564 679.241,284.922 683.823,282.308 688.442,279.72 693.095,277.16 697.78,274.625 702.497,272.116 707.245,269.631 712.02,267.169 716.822,264.73 721.65,262.312 726.5,259.913 731.372,257.534 736.264,255.171 741.173,252.825 746.097,250.492 751.035,248.172 755.986,245.862 760.945,243.561 765.911,241.267 770.883,238.978 775.857,236.691 780.831,234.404 785.803,232.115 790.771,229.822 795.74,227.529 800.73,225.252 805.742,222.994 810.779,220.76 815.84,218.55 820.928,216.368 826.043,214.214 831.186,212.091 836.357,210 841.556,207.943 846.785,205.92 852.042,203.932 857.328,201.979 862.643,200.062 867.986,198.18 873.357,196.333 878.754,194.521 884.178,192.743 889.626,190.998 895.099,189.284 900.594,187.6 906.11,185.945 911.646,184.315 917.199,182.709 922.768,181.125 928.351,179.56 933.945,178.01 939.547,176.472 945.156,174.943 950.77,173.419 956.383,171.896 961.994,170.37 967.6,168.836 973.204,167.298 978.835,165.809 984.499,164.376 990.194,162.995 995.916,161.665 1001.66,160.383 1007.44,159.147 1013.23,157.954 1019.05,156.802 1024.88,155.688 1030.73,154.611 1036.59,153.567 1042.47,152.555 1048.36,151.573 1054.26,150.618 1060.17,149.689 1066.09,148.783 1072.02,147.899 1077.95,147.034 1083.89,146.187 1089.83,145.355 1095.77,144.537 1101.72,143.731 1107.67,142.935 1113.62,142.148 1119.57,141.368 1125.53,140.593 1131.48,139.822 1137.43,139.052 1143.39,138.284 1149.34,137.514 1155.3,136.742 1161.25,135.971 1167.21,135.225 1173.19,134.51 1179.17,133.826 1185.15,133.172 1191.15,132.549 1197.15,131.957 1203.16,131.395 1209.17,130.864 1215.2,130.363 1221.22,129.893 1227.26,129.454 1233.29,129.045 1239.34,128.667 1245.38,128.321 1251.43,128.005 1257.49,127.72 1263.55,127.466 1269.61,127.243 1275.67,127.052 1281.74,126.893 1287.8,126.764 1293.87,126.668 1299.94,126.603 1306.01,126.571 1312.08,126.571 1318.15,126.603 1324.22,126.668 1330.29,126.765 1336.35,126.895 1342.42,127.059 1348.48,127.256 1354.54,127.487 1360.6,127.752 1366.65,128.051 1372.7,128.384 1378.74,128.752 1384.78,129.155 1390.81,129.593 1396.84,130.067 1402.86,130.576 1408.87,131.122 1414.88,131.704 1420.88,132.311 1426.88,132.915 1432.89,133.523 1438.89,134.139 1444.88,134.765 1450.88,135.403 1456.87,136.054 1462.86,136.715 1468.85,137.386 1474.83,138.061 1480.82,138.736 "/>
<path clip-path="url(#clip060)" d="M327.056 248.629 L750.198 248.629 L750.198 93.1086 L327.056 93.1086  Z" fill="#ffffff" fill-rule="evenodd" fill-opacity="1"/>
<polyline clip-path="url(#clip060)" style="stroke:#000000; stroke-linecap:round; stroke-linejoin:round; stroke-width:4; stroke-opacity:1; fill:none" points="327.056,248.629 750.198,248.629 750.198,93.1086 327.056,93.1086 327.056,248.629 "/>
<polyline clip-path="url(#clip060)" style="stroke:#009af9; stroke-linecap:round; stroke-linejoin:round; stroke-width:16; stroke-opacity:1; fill:none" points="350.34,144.949 490.043,144.949 "/>
<path clip-path="url(#clip060)" d="M529.345 130.84 Q524.253 130.84 521.244 134.636 Q518.258 138.432 518.258 144.983 Q518.258 151.511 521.244 155.307 Q524.253 159.104 529.345 159.104 Q534.438 159.104 537.401 155.307 Q540.387 151.511 540.387 144.983 Q540.387 138.432 537.401 134.636 Q534.438 130.84 529.345 130.84 M529.345 127.044 Q536.614 127.044 540.966 131.928 Q545.318 136.789 545.318 144.983 Q545.318 153.155 540.966 158.039 Q536.614 162.9 529.345 162.9 Q522.054 162.9 517.679 158.039 Q513.327 153.178 513.327 144.983 Q513.327 136.789 517.679 131.928 Q522.054 127.044 529.345 127.044 Z" fill="#000000" fill-rule="nonzero" fill-opacity="1" /><path clip-path="url(#clip060)" d="M567.47 140.284 Q566.753 139.868 565.896 139.682 Q565.063 139.474 564.044 139.474 Q560.433 139.474 558.489 141.835 Q556.568 144.173 556.568 148.571 L556.568 162.229 L552.285 162.229 L552.285 136.303 L556.568 136.303 L556.568 140.331 Q557.91 137.969 560.063 136.835 Q562.216 135.678 565.294 135.678 Q565.734 135.678 566.267 135.747 Q566.799 135.794 567.447 135.909 L567.47 140.284 Z" fill="#000000" fill-rule="nonzero" fill-opacity="1" /><path clip-path="url(#clip060)" d="M571.938 136.303 L576.197 136.303 L576.197 162.229 L571.938 162.229 L571.938 136.303 M571.938 126.21 L576.197 126.21 L576.197 131.604 L571.938 131.604 L571.938 126.21 Z" fill="#000000" fill-rule="nonzero" fill-opacity="1" /><path clip-path="url(#clip060)" d="M602.169 148.965 Q602.169 144.335 600.248 141.789 Q598.35 139.243 594.901 139.243 Q591.475 139.243 589.553 141.789 Q587.655 144.335 587.655 148.965 Q587.655 153.571 589.553 156.118 Q591.475 158.664 594.901 158.664 Q598.35 158.664 600.248 156.118 Q602.169 153.571 602.169 148.965 M606.428 159.011 Q606.428 165.631 603.489 168.849 Q600.549 172.09 594.484 172.09 Q592.239 172.09 590.248 171.742 Q588.257 171.418 586.382 170.724 L586.382 166.58 Q588.257 167.599 590.086 168.085 Q591.915 168.571 593.813 168.571 Q598.003 168.571 600.086 166.372 Q602.169 164.196 602.169 159.775 L602.169 157.668 Q600.85 159.96 598.79 161.094 Q596.729 162.229 593.859 162.229 Q589.091 162.229 586.174 158.594 Q583.257 154.96 583.257 148.965 Q583.257 142.946 586.174 139.312 Q589.091 135.678 593.859 135.678 Q596.729 135.678 598.79 136.812 Q600.85 137.946 602.169 140.238 L602.169 136.303 L606.428 136.303 L606.428 159.011 Z" fill="#000000" fill-rule="nonzero" fill-opacity="1" /><path clip-path="url(#clip060)" d="M615.201 136.303 L619.461 136.303 L619.461 162.229 L615.201 162.229 L615.201 136.303 M615.201 126.21 L619.461 126.21 L619.461 131.604 L615.201 131.604 L615.201 126.21 Z" fill="#000000" fill-rule="nonzero" fill-opacity="1" /><path clip-path="url(#clip060)" d="M649.924 146.581 L649.924 162.229 L645.664 162.229 L645.664 146.719 Q645.664 143.039 644.229 141.21 Q642.794 139.382 639.924 139.382 Q636.475 139.382 634.484 141.581 Q632.493 143.78 632.493 147.576 L632.493 162.229 L628.211 162.229 L628.211 136.303 L632.493 136.303 L632.493 140.331 Q634.021 137.993 636.081 136.835 Q638.164 135.678 640.873 135.678 Q645.34 135.678 647.632 138.456 Q649.924 141.21 649.924 146.581 Z" fill="#000000" fill-rule="nonzero" fill-opacity="1" /><path clip-path="url(#clip060)" d="M670.201 149.196 Q665.039 149.196 663.048 150.377 Q661.058 151.557 661.058 154.405 Q661.058 156.673 662.539 158.016 Q664.044 159.335 666.613 159.335 Q670.155 159.335 672.285 156.835 Q674.437 154.312 674.437 150.145 L674.437 149.196 L670.201 149.196 M678.697 147.437 L678.697 162.229 L674.437 162.229 L674.437 158.293 Q672.979 160.655 670.803 161.789 Q668.627 162.9 665.479 162.9 Q661.498 162.9 659.136 160.678 Q656.798 158.432 656.798 154.682 Q656.798 150.307 659.715 148.085 Q662.655 145.863 668.465 145.863 L674.437 145.863 L674.437 145.446 Q674.437 142.507 672.493 140.909 Q670.572 139.289 667.076 139.289 Q664.854 139.289 662.748 139.821 Q660.641 140.354 658.697 141.419 L658.697 137.483 Q661.035 136.581 663.234 136.141 Q665.433 135.678 667.516 135.678 Q673.141 135.678 675.919 138.594 Q678.697 141.511 678.697 147.437 Z" fill="#000000" fill-rule="nonzero" fill-opacity="1" /><path clip-path="url(#clip060)" d="M687.47 126.21 L691.729 126.21 L691.729 162.229 L687.47 162.229 L687.47 126.21 Z" fill="#000000" fill-rule="nonzero" fill-opacity="1" /><polyline clip-path="url(#clip060)" style="stroke:#e26f46; stroke-linecap:round; stroke-linejoin:round; stroke-width:16; stroke-opacity:1; fill:none" points="350.34,196.789 490.043,196.789 "/>
<path clip-path="url(#clip060)" d="M518.003 183.351 L518.003 196.337 L523.883 196.337 Q527.146 196.337 528.929 194.647 Q530.711 192.958 530.711 189.833 Q530.711 186.731 528.929 185.041 Q527.146 183.351 523.883 183.351 L518.003 183.351 M513.327 179.509 L523.883 179.509 Q529.693 179.509 532.656 182.147 Q535.642 184.763 535.642 189.833 Q535.642 194.948 532.656 197.564 Q529.693 200.18 523.883 200.18 L518.003 200.18 L518.003 214.069 L513.327 214.069 L513.327 179.509 Z" fill="#000000" fill-rule="nonzero" fill-opacity="1" /><path clip-path="url(#clip060)" d="M555.919 192.124 Q555.202 191.708 554.345 191.522 Q553.512 191.314 552.493 191.314 Q548.882 191.314 546.938 193.675 Q545.017 196.013 545.017 200.411 L545.017 214.069 L540.734 214.069 L540.734 188.143 L545.017 188.143 L545.017 192.171 Q546.359 189.809 548.512 188.675 Q550.665 187.518 553.743 187.518 Q554.183 187.518 554.716 187.587 Q555.248 187.634 555.896 187.749 L555.919 192.124 Z" fill="#000000" fill-rule="nonzero" fill-opacity="1" /><path clip-path="url(#clip060)" d="M581.521 200.041 L581.521 202.124 L561.938 202.124 Q562.216 206.522 564.577 208.837 Q566.961 211.129 571.197 211.129 Q573.651 211.129 575.942 210.527 Q578.257 209.925 580.526 208.721 L580.526 212.749 Q578.234 213.721 575.827 214.231 Q573.419 214.74 570.942 214.74 Q564.739 214.74 561.105 211.129 Q557.493 207.518 557.493 201.36 Q557.493 194.995 560.919 191.268 Q564.368 187.518 570.202 187.518 Q575.433 187.518 578.466 190.897 Q581.521 194.254 581.521 200.041 M577.262 198.791 Q577.216 195.296 575.294 193.212 Q573.396 191.129 570.248 191.129 Q566.683 191.129 564.53 193.143 Q562.401 195.157 562.077 198.814 L577.262 198.791 Z" fill="#000000" fill-rule="nonzero" fill-opacity="1" /><path clip-path="url(#clip060)" d="M605.572 192.078 L605.572 178.05 L609.831 178.05 L609.831 214.069 L605.572 214.069 L605.572 210.18 Q604.229 212.495 602.169 213.629 Q600.132 214.74 597.262 214.74 Q592.563 214.74 589.6 210.99 Q586.66 207.24 586.66 201.129 Q586.66 195.018 589.6 191.268 Q592.563 187.518 597.262 187.518 Q600.132 187.518 602.169 188.652 Q604.229 189.763 605.572 192.078 M591.058 201.129 Q591.058 205.828 592.979 208.513 Q594.924 211.175 598.303 211.175 Q601.683 211.175 603.627 208.513 Q605.572 205.828 605.572 201.129 Q605.572 196.43 603.627 193.768 Q601.683 191.083 598.303 191.083 Q594.924 191.083 592.979 193.768 Q591.058 196.43 591.058 201.129 Z" fill="#000000" fill-rule="nonzero" fill-opacity="1" /><path clip-path="url(#clip060)" d="M618.604 188.143 L622.863 188.143 L622.863 214.069 L618.604 214.069 L618.604 188.143 M618.604 178.05 L622.863 178.05 L622.863 183.444 L618.604 183.444 L618.604 178.05 Z" fill="#000000" fill-rule="nonzero" fill-opacity="1" /><path clip-path="url(#clip060)" d="M650.433 189.138 L650.433 193.12 Q648.627 192.124 646.799 191.638 Q644.993 191.129 643.141 191.129 Q638.998 191.129 636.706 193.768 Q634.414 196.384 634.414 201.129 Q634.414 205.874 636.706 208.513 Q638.998 211.129 643.141 211.129 Q644.993 211.129 646.799 210.643 Q648.627 210.133 650.433 209.138 L650.433 213.073 Q648.65 213.907 646.729 214.323 Q644.831 214.74 642.678 214.74 Q636.822 214.74 633.373 211.059 Q629.924 207.379 629.924 201.129 Q629.924 194.786 633.396 191.152 Q636.891 187.518 642.956 187.518 Q644.924 187.518 646.799 187.935 Q648.674 188.328 650.433 189.138 Z" fill="#000000" fill-rule="nonzero" fill-opacity="1" /><path clip-path="url(#clip060)" d="M662.053 180.782 L662.053 188.143 L670.826 188.143 L670.826 191.453 L662.053 191.453 L662.053 205.527 Q662.053 208.698 662.91 209.601 Q663.789 210.504 666.451 210.504 L670.826 210.504 L670.826 214.069 L666.451 214.069 Q661.521 214.069 659.646 212.24 Q657.771 210.388 657.771 205.527 L657.771 191.453 L654.646 191.453 L654.646 188.143 L657.771 188.143 L657.771 180.782 L662.053 180.782 Z" fill="#000000" fill-rule="nonzero" fill-opacity="1" /><path clip-path="url(#clip060)" d="M698.604 200.041 L698.604 202.124 L679.021 202.124 Q679.298 206.522 681.659 208.837 Q684.044 211.129 688.28 211.129 Q690.733 211.129 693.025 210.527 Q695.34 209.925 697.608 208.721 L697.608 212.749 Q695.317 213.721 692.909 214.231 Q690.502 214.74 688.025 214.74 Q681.822 214.74 678.187 211.129 Q674.576 207.518 674.576 201.36 Q674.576 194.995 678.002 191.268 Q681.451 187.518 687.284 187.518 Q692.516 187.518 695.548 190.897 Q698.604 194.254 698.604 200.041 M694.345 198.791 Q694.298 195.296 692.377 193.212 Q690.479 191.129 687.331 191.129 Q683.766 191.129 681.613 193.143 Q679.484 195.157 679.159 198.814 L694.345 198.791 Z" fill="#000000" fill-rule="nonzero" fill-opacity="1" /><path clip-path="url(#clip060)" d="M722.655 192.078 L722.655 178.05 L726.914 178.05 L726.914 214.069 L722.655 214.069 L722.655 210.18 Q721.312 212.495 719.252 213.629 Q717.215 214.74 714.344 214.74 Q709.645 214.74 706.682 210.99 Q703.743 207.24 703.743 201.129 Q703.743 195.018 706.682 191.268 Q709.645 187.518 714.344 187.518 Q717.215 187.518 719.252 188.652 Q721.312 189.763 722.655 192.078 M708.141 201.129 Q708.141 205.828 710.062 208.513 Q712.007 211.175 715.386 211.175 Q718.766 211.175 720.71 208.513 Q722.655 205.828 722.655 201.129 Q722.655 196.43 720.71 193.768 Q718.766 191.083 715.386 191.083 Q712.007 191.083 710.062 193.768 Q708.141 196.43 708.141 201.129 Z" fill="#000000" fill-rule="nonzero" fill-opacity="1" /></svg>
