<?xml version="1.0" encoding="utf-8"?>
<svg xmlns="http://www.w3.org/2000/svg" xmlns:xlink="http://www.w3.org/1999/xlink" width="600" height="400" viewBox="0 0 2400 1600">
<defs>
  <clipPath id="clip070">
    <rect x="0" y="0" width="2400" height="1600"/>
  </clipPath>
</defs>
<path clip-path="url(#clip070)" d="M0 1600 L2400 1600 L2400 0 L0 0  Z" fill="#ffffff" fill-rule="evenodd" fill-opacity="1"/>
<defs>
  <clipPath id="clip071">
    <rect x="480" y="0" width="1681" height="1600"/>
  </clipPath>
</defs>
<path clip-path="url(#clip070)" d="M178.867 1486.45 L2352.76 1486.45 L2352.76 47.2441 L178.867 47.2441  Z" fill="#ffffff" fill-rule="evenodd" fill-opacity="1"/>
<defs>
  <clipPath id="clip072">
    <rect x="178" y="47" width="2175" height="1440"/>
  </clipPath>
</defs>
<polyline clip-path="url(#clip072)" style="stroke:#000000; stroke-linecap:round; stroke-linejoin:round; stroke-width:2; stroke-opacity:0.1; fill:none" points="240.392,1486.45 240.392,47.2441 "/>
<polyline clip-path="url(#clip072)" style="stroke:#000000; stroke-linecap:round; stroke-linejoin:round; stroke-width:2; stroke-opacity:0.1; fill:none" points="924.005,1486.45 924.005,47.2441 "/>
<polyline clip-path="url(#clip072)" style="stroke:#000000; stroke-linecap:round; stroke-linejoin:round; stroke-width:2; stroke-opacity:0.1; fill:none" points="1607.62,1486.45 1607.62,47.2441 "/>
<polyline clip-path="url(#clip072)" style="stroke:#000000; stroke-linecap:round; stroke-linejoin:round; stroke-width:2; stroke-opacity:0.1; fill:none" points="2291.23,1486.45 2291.23,47.2441 "/>
<polyline clip-path="url(#clip070)" style="stroke:#000000; stroke-linecap:round; stroke-linejoin:round; stroke-width:4; stroke-opacity:1; fill:none" points="178.867,1486.45 2352.76,1486.45 "/>
<polyline clip-path="url(#clip070)" style="stroke:#000000; stroke-linecap:round; stroke-linejoin:round; stroke-width:4; stroke-opacity:1; fill:none" points="240.392,1486.45 240.392,1467.55 "/>
<polyline clip-path="url(#clip070)" style="stroke:#000000; stroke-linecap:round; stroke-linejoin:round; stroke-width:4; stroke-opacity:1; fill:none" points="924.005,1486.45 924.005,1467.55 "/>
<polyline clip-path="url(#clip070)" style="stroke:#000000; stroke-linecap:round; stroke-linejoin:round; stroke-width:4; stroke-opacity:1; fill:none" points="1607.62,1486.45 1607.62,1467.55 "/>
<polyline clip-path="url(#clip070)" style="stroke:#000000; stroke-linecap:round; stroke-linejoin:round; stroke-width:4; stroke-opacity:1; fill:none" points="2291.23,1486.45 2291.23,1467.55 "/>
<path clip-path="url(#clip070)" d="M217.776 1517.37 Q214.165 1517.37 212.336 1520.93 Q210.531 1524.47 210.531 1531.6 Q210.531 1538.71 212.336 1542.27 Q214.165 1545.82 217.776 1545.82 Q221.41 1545.82 223.216 1542.27 Q225.045 1538.71 225.045 1531.6 Q225.045 1524.47 223.216 1520.93 Q221.41 1517.37 217.776 1517.37 M217.776 1513.66 Q223.586 1513.66 226.642 1518.27 Q229.721 1522.85 229.721 1531.6 Q229.721 1540.33 226.642 1544.94 Q223.586 1549.52 217.776 1549.52 Q211.966 1549.52 208.887 1544.94 Q205.832 1540.33 205.832 1531.6 Q205.832 1522.85 208.887 1518.27 Q211.966 1513.66 217.776 1513.66 Z" fill="#000000" fill-rule="nonzero" fill-opacity="1" /><path clip-path="url(#clip070)" d="M237.938 1542.97 L242.822 1542.97 L242.822 1548.85 L237.938 1548.85 L237.938 1542.97 Z" fill="#000000" fill-rule="nonzero" fill-opacity="1" /><path clip-path="url(#clip070)" d="M263.007 1517.37 Q259.396 1517.37 257.568 1520.93 Q255.762 1524.47 255.762 1531.6 Q255.762 1538.71 257.568 1542.27 Q259.396 1545.82 263.007 1545.82 Q266.642 1545.82 268.447 1542.27 Q270.276 1538.71 270.276 1531.6 Q270.276 1524.47 268.447 1520.93 Q266.642 1517.37 263.007 1517.37 M263.007 1513.66 Q268.818 1513.66 271.873 1518.27 Q274.952 1522.85 274.952 1531.6 Q274.952 1540.33 271.873 1544.94 Q268.818 1549.52 263.007 1549.52 Q257.197 1549.52 254.119 1544.94 Q251.063 1540.33 251.063 1531.6 Q251.063 1522.85 254.119 1518.27 Q257.197 1513.66 263.007 1513.66 Z" fill="#000000" fill-rule="nonzero" fill-opacity="1" /><path clip-path="url(#clip070)" d="M901.887 1517.37 Q898.276 1517.37 896.447 1520.93 Q894.642 1524.47 894.642 1531.6 Q894.642 1538.71 896.447 1542.27 Q898.276 1545.82 901.887 1545.82 Q905.521 1545.82 907.327 1542.27 Q909.155 1538.71 909.155 1531.6 Q909.155 1524.47 907.327 1520.93 Q905.521 1517.37 901.887 1517.37 M901.887 1513.66 Q907.697 1513.66 910.753 1518.27 Q913.831 1522.85 913.831 1531.6 Q913.831 1540.33 910.753 1544.94 Q907.697 1549.52 901.887 1549.52 Q896.077 1549.52 892.998 1544.94 Q889.942 1540.33 889.942 1531.6 Q889.942 1522.85 892.998 1518.27 Q896.077 1513.66 901.887 1513.66 Z" fill="#000000" fill-rule="nonzero" fill-opacity="1" /><path clip-path="url(#clip070)" d="M922.049 1542.97 L926.933 1542.97 L926.933 1548.85 L922.049 1548.85 L922.049 1542.97 Z" fill="#000000" fill-rule="nonzero" fill-opacity="1" /><path clip-path="url(#clip070)" d="M937.164 1514.29 L955.521 1514.29 L955.521 1518.22 L941.447 1518.22 L941.447 1526.7 Q942.465 1526.35 943.484 1526.19 Q944.502 1526 945.521 1526 Q951.308 1526 954.687 1529.17 Q958.067 1532.34 958.067 1537.76 Q958.067 1543.34 954.595 1546.44 Q951.123 1549.52 944.803 1549.52 Q942.627 1549.52 940.359 1549.15 Q938.114 1548.78 935.706 1548.04 L935.706 1543.34 Q937.789 1544.47 940.012 1545.03 Q942.234 1545.58 944.711 1545.58 Q948.715 1545.58 951.053 1543.48 Q953.391 1541.37 953.391 1537.76 Q953.391 1534.15 951.053 1532.04 Q948.715 1529.94 944.711 1529.94 Q942.836 1529.94 940.961 1530.35 Q939.109 1530.77 937.164 1531.65 L937.164 1514.29 Z" fill="#000000" fill-rule="nonzero" fill-opacity="1" /><path clip-path="url(#clip070)" d="M1574.77 1544.91 L1582.41 1544.91 L1582.41 1518.55 L1574.1 1520.21 L1574.1 1515.95 L1582.36 1514.29 L1587.04 1514.29 L1587.04 1544.91 L1594.68 1544.91 L1594.68 1548.85 L1574.77 1548.85 L1574.77 1544.91 Z" fill="#000000" fill-rule="nonzero" fill-opacity="1" /><path clip-path="url(#clip070)" d="M1604.12 1542.97 L1609.01 1542.97 L1609.01 1548.85 L1604.12 1548.85 L1604.12 1542.97 Z" fill="#000000" fill-rule="nonzero" fill-opacity="1" /><path clip-path="url(#clip070)" d="M1629.19 1517.37 Q1625.58 1517.37 1623.75 1520.93 Q1621.95 1524.47 1621.95 1531.6 Q1621.95 1538.71 1623.75 1542.27 Q1625.58 1545.82 1629.19 1545.82 Q1632.83 1545.82 1634.63 1542.27 Q1636.46 1538.71 1636.46 1531.6 Q1636.46 1524.47 1634.63 1520.93 Q1632.83 1517.37 1629.19 1517.37 M1629.19 1513.66 Q1635 1513.66 1638.06 1518.27 Q1641.14 1522.85 1641.14 1531.6 Q1641.14 1540.33 1638.06 1544.94 Q1635 1549.52 1629.19 1549.52 Q1623.38 1549.52 1620.3 1544.94 Q1617.25 1540.33 1617.25 1531.6 Q1617.25 1522.85 1620.3 1518.27 Q1623.38 1513.66 1629.19 1513.66 Z" fill="#000000" fill-rule="nonzero" fill-opacity="1" /><path clip-path="url(#clip070)" d="M2258.88 1544.91 L2266.52 1544.91 L2266.52 1518.55 L2258.21 1520.21 L2258.21 1515.95 L2266.47 1514.29 L2271.15 1514.29 L2271.15 1544.91 L2278.79 1544.91 L2278.79 1548.85 L2258.88 1548.85 L2258.88 1544.91 Z" fill="#000000" fill-rule="nonzero" fill-opacity="1" /><path clip-path="url(#clip070)" d="M2288.23 1542.97 L2293.12 1542.97 L2293.12 1548.85 L2288.23 1548.85 L2288.23 1542.97 Z" fill="#000000" fill-rule="nonzero" fill-opacity="1" /><path clip-path="url(#clip070)" d="M2303.35 1514.29 L2321.71 1514.29 L2321.71 1518.22 L2307.63 1518.22 L2307.63 1526.7 Q2308.65 1526.35 2309.67 1526.19 Q2310.69 1526 2311.71 1526 Q2317.49 1526 2320.87 1529.17 Q2324.25 1532.34 2324.25 1537.76 Q2324.25 1543.34 2320.78 1546.44 Q2317.31 1549.52 2310.99 1549.52 Q2308.81 1549.52 2306.54 1549.15 Q2304.3 1548.78 2301.89 1548.04 L2301.89 1543.34 Q2303.97 1544.47 2306.2 1545.03 Q2308.42 1545.58 2310.89 1545.58 Q2314.9 1545.58 2317.24 1543.48 Q2319.58 1541.37 2319.58 1537.76 Q2319.58 1534.15 2317.24 1532.04 Q2314.9 1529.94 2310.89 1529.94 Q2309.02 1529.94 2307.15 1530.35 Q2305.29 1530.77 2303.35 1531.65 L2303.35 1514.29 Z" fill="#000000" fill-rule="nonzero" fill-opacity="1" /><polyline clip-path="url(#clip072)" style="stroke:#000000; stroke-linecap:round; stroke-linejoin:round; stroke-width:2; stroke-opacity:0.1; fill:none" points="178.867,1434.13 2352.76,1434.13 "/>
<polyline clip-path="url(#clip072)" style="stroke:#000000; stroke-linecap:round; stroke-linejoin:round; stroke-width:2; stroke-opacity:0.1; fill:none" points="178.867,980.687 2352.76,980.687 "/>
<polyline clip-path="url(#clip072)" style="stroke:#000000; stroke-linecap:round; stroke-linejoin:round; stroke-width:2; stroke-opacity:0.1; fill:none" points="178.867,527.24 2352.76,527.24 "/>
<polyline clip-path="url(#clip072)" style="stroke:#000000; stroke-linecap:round; stroke-linejoin:round; stroke-width:2; stroke-opacity:0.1; fill:none" points="178.867,73.7935 2352.76,73.7935 "/>
<polyline clip-path="url(#clip070)" style="stroke:#000000; stroke-linecap:round; stroke-linejoin:round; stroke-width:4; stroke-opacity:1; fill:none" points="178.867,1486.45 178.867,47.2441 "/>
<polyline clip-path="url(#clip070)" style="stroke:#000000; stroke-linecap:round; stroke-linejoin:round; stroke-width:4; stroke-opacity:1; fill:none" points="178.867,1434.13 197.764,1434.13 "/>
<polyline clip-path="url(#clip070)" style="stroke:#000000; stroke-linecap:round; stroke-linejoin:round; stroke-width:4; stroke-opacity:1; fill:none" points="178.867,980.687 197.764,980.687 "/>
<polyline clip-path="url(#clip070)" style="stroke:#000000; stroke-linecap:round; stroke-linejoin:round; stroke-width:4; stroke-opacity:1; fill:none" points="178.867,527.24 197.764,527.24 "/>
<polyline clip-path="url(#clip070)" style="stroke:#000000; stroke-linecap:round; stroke-linejoin:round; stroke-width:4; stroke-opacity:1; fill:none" points="178.867,73.7935 197.764,73.7935 "/>
<path clip-path="url(#clip070)" d="M50.9921 1434.59 L80.6679 1434.59 L80.6679 1438.52 L50.9921 1438.52 L50.9921 1434.59 Z" fill="#000000" fill-rule="nonzero" fill-opacity="1" /><path clip-path="url(#clip070)" d="M91.5706 1447.48 L99.2095 1447.48 L99.2095 1421.11 L90.8993 1422.78 L90.8993 1418.52 L99.1632 1416.85 L103.839 1416.85 L103.839 1447.48 L111.478 1447.48 L111.478 1451.41 L91.5706 1451.41 L91.5706 1447.48 Z" fill="#000000" fill-rule="nonzero" fill-opacity="1" /><path clip-path="url(#clip070)" d="M130.922 1419.93 Q127.311 1419.93 125.482 1423.5 Q123.677 1427.04 123.677 1434.17 Q123.677 1441.27 125.482 1444.84 Q127.311 1448.38 130.922 1448.38 Q134.556 1448.38 136.362 1444.84 Q138.191 1441.27 138.191 1434.17 Q138.191 1427.04 136.362 1423.5 Q134.556 1419.93 130.922 1419.93 M130.922 1416.23 Q136.732 1416.23 139.788 1420.84 Q142.867 1425.42 142.867 1434.17 Q142.867 1442.9 139.788 1447.5 Q136.732 1452.09 130.922 1452.09 Q125.112 1452.09 122.033 1447.5 Q118.978 1442.9 118.978 1434.17 Q118.978 1425.42 122.033 1420.84 Q125.112 1416.23 130.922 1416.23 Z" fill="#000000" fill-rule="nonzero" fill-opacity="1" /><path clip-path="url(#clip070)" d="M130.922 966.486 Q127.311 966.486 125.482 970.05 Q123.677 973.592 123.677 980.722 Q123.677 987.828 125.482 991.393 Q127.311 994.935 130.922 994.935 Q134.556 994.935 136.362 991.393 Q138.191 987.828 138.191 980.722 Q138.191 973.592 136.362 970.05 Q134.556 966.486 130.922 966.486 M130.922 962.782 Q136.732 962.782 139.788 967.388 Q142.867 971.972 142.867 980.722 Q142.867 989.449 139.788 994.055 Q136.732 998.638 130.922 998.638 Q125.112 998.638 122.033 994.055 Q118.978 989.449 118.978 980.722 Q118.978 971.972 122.033 967.388 Q125.112 962.782 130.922 962.782 Z" fill="#000000" fill-rule="nonzero" fill-opacity="1" /><path clip-path="url(#clip070)" d="M91.5706 540.585 L99.2095 540.585 L99.2095 514.219 L90.8993 515.886 L90.8993 511.627 L99.1632 509.96 L103.839 509.96 L103.839 540.585 L111.478 540.585 L111.478 544.52 L91.5706 544.52 L91.5706 540.585 Z" fill="#000000" fill-rule="nonzero" fill-opacity="1" /><path clip-path="url(#clip070)" d="M130.922 513.039 Q127.311 513.039 125.482 516.604 Q123.677 520.145 123.677 527.275 Q123.677 534.381 125.482 537.946 Q127.311 541.488 130.922 541.488 Q134.556 541.488 136.362 537.946 Q138.191 534.381 138.191 527.275 Q138.191 520.145 136.362 516.604 Q134.556 513.039 130.922 513.039 M130.922 509.335 Q136.732 509.335 139.788 513.942 Q142.867 518.525 142.867 527.275 Q142.867 536.002 139.788 540.608 Q136.732 545.192 130.922 545.192 Q125.112 545.192 122.033 540.608 Q118.978 536.002 118.978 527.275 Q118.978 518.525 122.033 513.942 Q125.112 509.335 130.922 509.335 Z" fill="#000000" fill-rule="nonzero" fill-opacity="1" /><path clip-path="url(#clip070)" d="M94.7882 87.1383 L111.108 87.1383 L111.108 91.0735 L89.1632 91.0735 L89.1632 87.1383 Q91.8252 84.3837 96.4085 79.7541 Q101.015 75.1014 102.196 73.7588 Q104.441 71.2357 105.321 69.4996 Q106.223 67.7403 106.223 66.0505 Q106.223 63.2959 104.279 61.5598 Q102.358 59.8237 99.2558 59.8237 Q97.0567 59.8237 94.603 60.5876 Q92.1725 61.3514 89.3947 62.9024 L89.3947 58.1802 Q92.2188 57.0459 94.6724 56.4672 Q97.1261 55.8885 99.1632 55.8885 Q104.534 55.8885 107.728 58.5737 Q110.922 61.2589 110.922 65.7496 Q110.922 67.8792 110.112 69.8005 Q109.325 71.6986 107.219 74.2912 Q106.64 74.9625 103.538 78.1801 Q100.436 81.3745 94.7882 87.1383 Z" fill="#000000" fill-rule="nonzero" fill-opacity="1" /><path clip-path="url(#clip070)" d="M130.922 59.5922 Q127.311 59.5922 125.482 63.157 Q123.677 66.6986 123.677 73.8282 Q123.677 80.9347 125.482 84.4995 Q127.311 88.0411 130.922 88.0411 Q134.556 88.0411 136.362 84.4995 Q138.191 80.9347 138.191 73.8282 Q138.191 66.6986 136.362 63.157 Q134.556 59.5922 130.922 59.5922 M130.922 55.8885 Q136.732 55.8885 139.788 60.495 Q142.867 65.0783 142.867 73.8282 Q142.867 82.555 139.788 87.1615 Q136.732 91.7448 130.922 91.7448 Q125.112 91.7448 122.033 87.1615 Q118.978 82.555 118.978 73.8282 Q118.978 65.0783 122.033 60.495 Q125.112 55.8885 130.922 55.8885 Z" fill="#000000" fill-rule="nonzero" fill-opacity="1" /><polyline clip-path="url(#clip072)" style="stroke:#009af9; stroke-linecap:round; stroke-linejoin:round; stroke-width:4; stroke-opacity:1; fill:none" points="240.392,821.666 247.251,853.81 254.11,884.212 260.969,913.512 267.828,941.973 274.687,969.795 281.546,996.707 288.405,1022.17 295.264,1046.09 302.123,1068.96 308.982,1091.47 315.841,1113.51 322.7,1134.48 329.559,1154.15 336.418,1172.92 343.277,1191.04 350.136,1208.32 356.995,1224.87 363.854,1240.82 370.713,1256.1 377.572,1270.85 384.431,1285.01 391.29,1298.51 398.149,1311.39 405.008,1323.63 411.867,1335.29 418.726,1346.39 425.585,1356.87 432.444,1366.7 439.303,1375.9 446.162,1384.46 453.021,1392.42 459.88,1399.77 466.739,1406.56 473.598,1412.78 480.457,1418.43 487.316,1423.51 494.175,1428.05 501.034,1432.06 507.893,1435.51 514.752,1438.39 521.611,1440.76 528.47,1442.64 535.328,1444.04 542.188,1445.02 549.046,1445.58 555.905,1445.72 562.764,1445.44 569.623,1444.76 576.482,1443.72 583.341,1442.44 590.2,1440.91 597.059,1439.28 603.918,1437.44 610.777,1435.09 617.636,1432.21 624.495,1428.77 631.354,1424.78 638.213,1420.28 645.072,1415.27 651.931,1409.77 658.79,1403.79 665.649,1397.35 672.508,1390.51 679.367,1383.33 686.226,1375.85 693.085,1368.05 699.944,1359.89 706.803,1351.45 713.662,1342.79 720.521,1333.9 727.38,1324.79 734.239,1315.52 741.098,1306.09 747.957,1296.53 754.816,1286.91 761.675,1277.22 768.534,1267.45 775.393,1257.56 782.252,1247.62 789.111,1237.7 795.97,1227.79 802.829,1217.89 809.688,1208.02 816.547,1198.14 823.406,1188.32 830.265,1178.63 837.124,1169.03 843.983,1159.5 850.842,1150.03 857.701,1140.62 864.56,1131.3 871.419,1122.07 878.278,1112.88 885.137,1103.68 891.996,1094.52 898.855,1085.46 905.714,1076.57 912.573,1067.86 919.432,1059.24 926.291,1050.63 933.15,1042.16 940.009,1033.9 946.868,1025.69 953.727,1017.58 960.586,1009.64 967.445,1001.85 974.304,994.149 981.163,986.61 988.022,979.239 994.881,972.01 1001.74,964.921 1008.6,957.932 1015.46,950.967 1022.32,944.029 1029.18,937.194 1036.04,930.482 1042.89,923.838 1049.75,917.243 1056.61,910.676 1063.47,904.148 1070.33,897.616 1077.19,891.049 1084.05,884.539 1090.91,878.045 1097.77,871.576 1104.62,865.178 1111.48,858.833 1118.34,852.514 1125.2,846.146 1132.06,839.773 1138.92,833.537 1145.78,827.458 1152.64,821.476 1159.5,815.606 1166.36,809.806 1173.21,804.092 1180.07,798.467 1186.93,792.874 1193.79,787.326 1200.65,781.876 1207.51,776.475 1214.37,771.084 1221.23,765.74 1228.09,760.528 1234.95,755.454 1241.8,750.467 1248.66,745.569 1255.52,740.712 1262.38,735.914 1269.24,731.213 1276.1,726.635 1282.96,722.171 1289.82,717.824 1296.68,713.615 1303.54,709.48 1310.39,705.523 1317.25,701.709 1324.11,697.978 1330.97,694.421 1337.83,691.038 1344.69,687.828 1351.55,684.804 1358.41,681.919 1365.27,679.208 1372.13,676.682 1378.98,674.395 1385.84,672.354 1392.7,670.499 1399.56,668.822 1406.42,667.354 1413.28,666.155 1420.14,665.167 1427,664.296 1433.86,663.548 1440.72,663.031 1447.57,662.763 1454.43,662.719 1461.29,662.921 1468.15,663.387 1475.01,664.06 1481.87,664.872 1488.73,665.894 1495.59,667.203 1502.45,668.783 1509.31,670.578 1516.16,672.622 1523.02,674.909 1529.88,677.399 1536.74,680.107 1543.6,683.075 1550.46,686.199 1557.32,689.433 1564.18,692.806 1571.04,696.358 1577.9,700.084 1584.75,703.967 1591.61,707.958 1598.47,712.1 1605.33,716.412 1612.19,720.815 1619.05,725.257 1625.91,729.757 1632.77,734.35 1639.63,739.02 1646.49,743.835 1653.34,748.75 1660.2,753.732 1667.06,758.811 1673.92,763.985 1680.78,769.216 1687.64,774.45 1694.5,779.698 1701.36,784.899 1708.22,790.038 1715.08,795.189 1721.93,800.38 1728.79,805.602 1735.65,810.857 1742.51,816.132 1749.37,821.369 1756.23,826.614 1763.09,831.913 1769.95,837.12 1776.81,842.17 1783.67,847.205 1790.52,852.284 1797.38,857.342 1804.24,862.332 1811.1,867.259 1817.96,872.144 1824.82,876.956 1831.68,881.693 1838.54,886.372 1845.4,891.027 1852.26,895.643 1859.11,900.147 1865.97,904.53 1872.83,908.837 1879.69,913.098 1886.55,917.299 1893.41,921.385 1900.27,925.358 1907.13,929.263 1913.99,933.103 1920.85,936.786 1927.7,940.344 1934.56,943.836 1941.42,947.242 1948.28,950.56 1955.14,953.792 1962,956.928 1968.86,959.963 1975.72,962.924 1982.58,965.79 1989.44,968.522 1996.29,971.133 2003.15,973.647 2010.01,976.084 2016.87,978.44 2023.73,980.714 2030.59,982.876 2037.45,984.919 2044.31,986.882 2051.17,988.758 2058.02,990.557 2064.88,992.302 2071.74,994.004 2078.6,995.66 2085.46,997.271 2092.32,998.852 2099.18,1000.41 2106.04,1001.98 2112.9,1003.55 2119.76,1005.14 2126.61,1006.75 2133.47,1008.46 2140.33,1010.32 2147.19,1012.24 2154.05,1014.14 2160.91,1016.08 2167.77,1018.14 2174.63,1020.27 2181.49,1022.47 2188.35,1024.84 2195.2,1027.36 2202.06,1029.85 2208.92,1032.17 2215.78,1034.54 2222.64,1037.09 2229.5,1039.61 2236.36,1042.35 2243.22,1045.43 2250.08,1048.55 2256.94,1051.69 2263.79,1055.51 2270.65,1060.3 2277.51,1065.53 2284.37,1071.37 2291.23,1077.98 "/>
<polyline clip-path="url(#clip072)" style="stroke:#e26f46; stroke-linecap:round; stroke-linejoin:round; stroke-width:4; stroke-opacity:1; fill:none" points="240.392,87.9763 247.251,114.523 254.11,140.669 260.969,166.445 267.828,191.889 274.687,216.935 281.546,242.112 288.405,267.51 295.264,292.643 302.123,317.385 308.982,341.522 315.841,364.891 322.7,387.717 329.559,410.197 336.418,432.466 343.277,454.202 350.136,475.128 356.995,495.357 363.854,515.068 370.713,534.247 377.572,553.08 384.431,571.536 391.29,589.591 398.149,607.171 405.008,624.239 411.867,640.835 418.726,657.001 425.585,672.799 432.444,688.247 439.303,703.374 446.162,718.208 453.021,732.762 459.88,747.053 466.739,761.091 473.598,774.901 480.457,788.489 487.316,801.88 494.175,815.125 501.034,828.251 507.893,841.254 514.752,854.1 521.611,866.784 528.47,879.324 535.328,891.72 542.188,903.992 549.046,916.157 555.905,928.185 562.764,940.055 569.623,951.797 576.482,963.434 583.341,975.042 590.2,986.638 597.059,998.225 603.918,1009.8 610.777,1021.2 617.636,1032.41 624.495,1043.43 631.354,1054.25 638.213,1064.83 645.072,1075.11 651.931,1085.14 658.79,1095 665.649,1104.7 672.508,1114.23 679.367,1123.56 686.226,1132.69 693.085,1141.66 699.944,1150.43 706.803,1158.99 713.662,1167.4 720.521,1175.63 727.38,1183.69 734.239,1191.57 741.098,1199.34 747.957,1207.05 754.816,1214.66 761.675,1222.14 768.534,1229.47 775.393,1236.73 782.252,1243.88 789.111,1250.91 795.97,1257.81 802.829,1264.59 809.688,1271.33 816.547,1278 823.406,1284.53 830.265,1290.92 837.124,1297.25 843.983,1303.46 850.842,1309.35 857.701,1314.97 864.56,1320.38 871.419,1325.61 878.278,1330.59 885.137,1335.23 891.996,1339.55 898.855,1343.57 905.714,1347.36 912.573,1350.86 919.432,1354.08 926.291,1356.94 933.15,1359.44 940.009,1361.63 946.868,1363.5 953.727,1365.06 960.586,1366.29 967.445,1367.15 974.304,1367.66 981.163,1367.78 988.022,1367.46 994.881,1366.78 1001.74,1365.82 1008.6,1364.62 1015.46,1363.09 1022.32,1361.16 1029.18,1358.87 1036.04,1356.23 1042.89,1353.19 1049.75,1349.8 1056.61,1346.18 1063.47,1342.34 1070.33,1338.25 1077.19,1333.82 1084.05,1329.07 1090.91,1324.03 1097.77,1318.75 1104.62,1313.3 1111.48,1307.69 1118.34,1301.92 1125.2,1295.98 1132.06,1289.89 1138.92,1283.6 1145.78,1277.12 1152.64,1270.5 1159.5,1263.71 1166.36,1256.74 1173.21,1249.7 1180.07,1242.59 1186.93,1235.44 1193.79,1228.23 1200.65,1220.98 1207.51,1213.62 1214.37,1206.13 1221.23,1198.54 1228.09,1190.86 1234.95,1183.15 1241.8,1175.46 1248.66,1167.83 1255.52,1160.27 1262.38,1152.77 1269.24,1145.31 1276.1,1137.98 1282.96,1130.76 1289.82,1123.63 1296.68,1116.6 1303.54,1109.62 1310.39,1102.69 1317.25,1095.79 1324.11,1088.88 1330.97,1082.04 1337.83,1075.31 1344.69,1068.63 1351.55,1062.07 1358.41,1055.66 1365.27,1049.48 1372.13,1043.52 1378.98,1037.71 1385.84,1032.08 1392.7,1026.63 1399.56,1021.32 1406.42,1016.14 1413.28,1011.08 1420.14,1006.13 1427,1001.31 1433.86,996.621 1440.72,992.062 1447.57,987.642 1454.43,983.369 1461.29,979.236 1468.15,975.181 1475.01,971.148 1481.87,967.131 1488.73,963.163 1495.59,959.205 1502.45,955.259 1509.31,951.342 1516.16,947.463 1523.02,943.671 1529.88,939.892 1536.74,936.062 1543.6,932.19 1550.46,928.257 1557.32,924.223 1564.18,920.137 1571.04,916.102 1577.9,912.07 1584.75,908.035 1591.61,904.056 1598.47,900.115 1605.33,896.225 1612.19,892.287 1619.05,888.35 1625.91,884.408 1632.77,880.383 1639.63,876.319 1646.49,872.204 1653.34,868.029 1660.2,863.815 1667.06,859.641 1673.92,855.447 1680.78,851.289 1687.64,847.185 1694.5,843.029 1701.36,838.955 1708.22,834.969 1715.08,830.94 1721.93,826.799 1728.79,822.579 1735.65,818.346 1742.51,814.191 1749.37,810.116 1756.23,806.048 1763.09,802.04 1769.95,798.115 1776.81,794.268 1783.67,790.494 1790.52,786.761 1797.38,783.077 1804.24,779.501 1811.1,776.01 1817.96,772.585 1824.82,769.26 1831.68,766.029 1838.54,762.933 1845.4,759.903 1852.26,756.939 1859.11,754.064 1865.97,751.286 1872.83,748.621 1879.69,746.061 1886.55,743.697 1893.41,741.469 1900.27,739.347 1907.13,737.312 1913.99,735.32 1920.85,733.401 1927.7,731.565 1934.56,729.848 1941.42,728.217 1948.28,726.666 1955.14,725.234 1962,723.898 1968.86,722.63 1975.72,721.402 1982.58,720.249 1989.44,719.163 1996.29,718.121 2003.15,717.151 2010.01,716.285 2016.87,715.511 2023.73,714.831 2030.59,714.226 2037.45,713.729 2044.31,713.34 2051.17,713.022 2058.02,712.763 2064.88,712.553 2071.74,712.366 2078.6,712.197 2085.46,712.039 2092.32,711.888 2099.18,711.725 2106.04,711.566 2112.9,711.443 2119.76,711.352 2126.61,711.287 2133.47,711.252 2140.33,711.253 2147.19,711.268 2154.05,711.262 2160.91,711.235 2167.77,711.205 2174.63,711.189 2181.49,711.26 2188.35,711.47 2195.2,711.696 2202.06,711.957 2208.92,712.317 2215.78,712.511 2222.64,712.332 2229.5,712.065 2236.36,711.815 2243.22,711.931 2250.08,712.439 2256.94,713.26 2263.79,713.98 2270.65,714.206 2277.51,713.844 2284.37,713.373 2291.23,712.849 "/>
<path clip-path="url(#clip070)" d="M2010.47 250.738 L2280.29 250.738 L2280.29 95.2176 L2010.47 95.2176  Z" fill="#ffffff" fill-rule="evenodd" fill-opacity="1"/>
<polyline clip-path="url(#clip070)" style="stroke:#000000; stroke-linecap:round; stroke-linejoin:round; stroke-width:4; stroke-opacity:1; fill:none" points="2010.47,250.738 2280.29,250.738 2280.29,95.2176 2010.47,95.2176 2010.47,250.738 "/>
<polyline clip-path="url(#clip070)" style="stroke:#009af9; stroke-linecap:round; stroke-linejoin:round; stroke-width:4; stroke-opacity:1; fill:none" points="2034.63,147.058 2179.55,147.058 "/>
<path clip-path="url(#clip070)" d="M2217.55 166.745 Q2215.75 171.375 2214.03 172.787 Q2212.32 174.199 2209.45 174.199 L2206.05 174.199 L2206.05 170.634 L2208.55 170.634 Q2210.31 170.634 2211.28 169.8 Q2212.25 168.967 2213.43 165.865 L2214.19 163.921 L2203.71 138.412 L2208.22 138.412 L2216.32 158.689 L2224.43 138.412 L2228.94 138.412 L2217.55 166.745 Z" fill="#000000" fill-rule="nonzero" fill-opacity="1" /><path clip-path="url(#clip070)" d="M2236.23 160.402 L2243.87 160.402 L2243.87 134.037 L2235.56 135.703 L2235.56 131.444 L2243.82 129.778 L2248.5 129.778 L2248.5 160.402 L2256.14 160.402 L2256.14 164.338 L2236.23 164.338 L2236.23 160.402 Z" fill="#000000" fill-rule="nonzero" fill-opacity="1" /><polyline clip-path="url(#clip070)" style="stroke:#e26f46; stroke-linecap:round; stroke-linejoin:round; stroke-width:4; stroke-opacity:1; fill:none" points="2034.63,198.898 2179.55,198.898 "/>
<path clip-path="url(#clip070)" d="M2217.55 218.585 Q2215.75 223.215 2214.03 224.627 Q2212.32 226.039 2209.45 226.039 L2206.05 226.039 L2206.05 222.474 L2208.55 222.474 Q2210.31 222.474 2211.28 221.64 Q2212.25 220.807 2213.43 217.705 L2214.19 215.761 L2203.71 190.252 L2208.22 190.252 L2216.32 210.529 L2224.43 190.252 L2228.94 190.252 L2217.55 218.585 Z" fill="#000000" fill-rule="nonzero" fill-opacity="1" /><path clip-path="url(#clip070)" d="M2239.45 212.242 L2255.77 212.242 L2255.77 216.178 L2233.82 216.178 L2233.82 212.242 Q2236.49 209.488 2241.07 204.858 Q2245.68 200.205 2246.86 198.863 Q2249.1 196.34 2249.98 194.604 Q2250.88 192.844 2250.88 191.155 Q2250.88 188.4 2248.94 186.664 Q2247.02 184.928 2243.92 184.928 Q2241.72 184.928 2239.26 185.692 Q2236.83 186.455 2234.06 188.006 L2234.06 183.284 Q2236.88 182.15 2239.33 181.571 Q2241.79 180.993 2243.82 180.993 Q2249.19 180.993 2252.39 183.678 Q2255.58 186.363 2255.58 190.854 Q2255.58 192.983 2254.77 194.905 Q2253.99 196.803 2251.88 199.395 Q2251.3 200.067 2248.2 203.284 Q2245.1 206.479 2239.45 212.242 Z" fill="#000000" fill-rule="nonzero" fill-opacity="1" /></svg>
